<?xml version="1.0" encoding="UTF-8" standalone="no"?>
<!DOCTYPE svg PUBLIC "-//W3C//DTD SVG 1.1//EN"
 "http://www.w3.org/Graphics/SVG/1.1/DTD/svg11.dtd">
<!-- Generated by graphviz version 2.38.0 (20140413.2041)
 -->
<!-- Title: C:/Users/kjones/Documents/SoftwareDev/VulpesSceneKit/third_party/vulpesrender/include/alloc/AllocationCollection.hpp Pages: 1 -->
<svg width="992pt" height="239pt"
 viewBox="0.00 0.00 992.00 239.00" xmlns="http://www.w3.org/2000/svg" xmlns:xlink="http://www.w3.org/1999/xlink">
<g id="graph0" class="graph" transform="scale(1 1) rotate(0) translate(4 235)">
<title>C:/Users/kjones/Documents/SoftwareDev/VulpesSceneKit/third_party/vulpesrender/include/alloc/AllocationCollection.hpp</title>
<polygon fill="white" stroke="none" points="-4,4 -4,-235 988,-235 988,4 -4,4"/>
<!-- Node14 -->
<g id="node1" class="node"><title>Node14</title>
<polygon fill="#bfbfbf" stroke="black" points="218.5,-178.5 218.5,-230.5 399.5,-230.5 399.5,-178.5 218.5,-178.5"/>
<text text-anchor="start" x="226.5" y="-218.5" font-family="Helvetica,sans-Serif" font-size="10.00">C:/Users/kjones/Documents</text>
<text text-anchor="start" x="226.5" y="-207.5" font-family="Helvetica,sans-Serif" font-size="10.00">/SoftwareDev/VulpesSceneKit</text>
<text text-anchor="start" x="226.5" y="-196.5" font-family="Helvetica,sans-Serif" font-size="10.00">/third_party/vulpesrender</text>
<text text-anchor="middle" x="309" y="-185.5" font-family="Helvetica,sans-Serif" font-size="10.00">/include/alloc/AllocationCollection.hpp</text>
</g>
<!-- Node15 -->
<g id="node2" class="node"><title>Node15</title>
<g id="a_node2"><a xlink:href="_allocator_8hpp.html" target="_top" xlink:title="C:/Users/kjones/Documents\l/SoftwareDev/VulpesSceneKit\l/third_party/vulpesrender\l/include/alloc/Allocator.hpp">
<polygon fill="white" stroke="black" points="346,-89.5 346,-141.5 492,-141.5 492,-89.5 346,-89.5"/>
<text text-anchor="start" x="354" y="-129.5" font-family="Helvetica,sans-Serif" font-size="10.00">C:/Users/kjones/Documents</text>
<text text-anchor="start" x="354" y="-118.5" font-family="Helvetica,sans-Serif" font-size="10.00">/SoftwareDev/VulpesSceneKit</text>
<text text-anchor="start" x="354" y="-107.5" font-family="Helvetica,sans-Serif" font-size="10.00">/third_party/vulpesrender</text>
<text text-anchor="middle" x="419" y="-96.5" font-family="Helvetica,sans-Serif" font-size="10.00">/include/alloc/Allocator.hpp</text>
</a>
</g>
</g>
<!-- Node14&#45;&gt;Node15 -->
<g id="edge1" class="edge"><title>Node14&#45;&gt;Node15</title>
<path fill="none" stroke="midnightblue" d="M348.911,-171.934C361.527,-161.956 375.291,-151.07 387.255,-141.607"/>
<polygon fill="midnightblue" stroke="midnightblue" points="346.489,-169.387 340.817,-178.336 350.831,-174.878 346.489,-169.387"/>
</g>
<!-- Node16 -->
<g id="node3" class="node"><title>Node16</title>
<g id="a_node3"><a xlink:href="_allocation_collection_8cpp.html" target="_top" xlink:title="C:/Users/kjones/Documents\l/SoftwareDev/VulpesSceneKit\l/third_party/vulpesrender\l/src/alloc/AllocationCollection.cpp">
<polygon fill="white" stroke="black" points="0,-0.5 0,-52.5 164,-52.5 164,-0.5 0,-0.5"/>
<text text-anchor="start" x="8" y="-40.5" font-family="Helvetica,sans-Serif" font-size="10.00">C:/Users/kjones/Documents</text>
<text text-anchor="start" x="8" y="-29.5" font-family="Helvetica,sans-Serif" font-size="10.00">/SoftwareDev/VulpesSceneKit</text>
<text text-anchor="start" x="8" y="-18.5" font-family="Helvetica,sans-Serif" font-size="10.00">/third_party/vulpesrender</text>
<text text-anchor="middle" x="82" y="-7.5" font-family="Helvetica,sans-Serif" font-size="10.00">/src/alloc/AllocationCollection.cpp</text>
</a>
</g>
</g>
<!-- Node14&#45;&gt;Node16 -->
<g id="edge8" class="edge"><title>Node14&#45;&gt;Node16</title>
<path fill="none" stroke="midnightblue" d="M268.568,-172.152C224.56,-138.031 155.059,-84.1447 114.463,-52.6697"/>
<polygon fill="midnightblue" stroke="midnightblue" points="266.429,-174.922 276.476,-178.283 270.718,-169.39 266.429,-174.922"/>
</g>
<!-- Node15&#45;&gt;Node16 -->
<g id="edge2" class="edge"><title>Node15&#45;&gt;Node16</title>
<path fill="none" stroke="midnightblue" d="M335.954,-94.3573C288.202,-82.6204 227.129,-67.347 173,-53 170.145,-52.2433 167.242,-51.467 164.311,-50.6776"/>
<polygon fill="midnightblue" stroke="midnightblue" points="335.389,-97.8223 345.935,-96.8066 337.057,-91.024 335.389,-97.8223"/>
</g>
<!-- Node17 -->
<g id="node4" class="node"><title>Node17</title>
<g id="a_node4"><a xlink:href="_allocator_8cpp.html" target="_top" xlink:title="C:/Users/kjones/Documents\l/SoftwareDev/VulpesSceneKit\l/third_party/vulpesrender\l/src/alloc/Allocator.cpp">
<polygon fill="white" stroke="black" points="182,-0.5 182,-52.5 328,-52.5 328,-0.5 182,-0.5"/>
<text text-anchor="start" x="190" y="-40.5" font-family="Helvetica,sans-Serif" font-size="10.00">C:/Users/kjones/Documents</text>
<text text-anchor="start" x="190" y="-29.5" font-family="Helvetica,sans-Serif" font-size="10.00">/SoftwareDev/VulpesSceneKit</text>
<text text-anchor="start" x="190" y="-18.5" font-family="Helvetica,sans-Serif" font-size="10.00">/third_party/vulpesrender</text>
<text text-anchor="middle" x="255" y="-7.5" font-family="Helvetica,sans-Serif" font-size="10.00">/src/alloc/Allocator.cpp</text>
</a>
</g>
</g>
<!-- Node15&#45;&gt;Node17 -->
<g id="edge3" class="edge"><title>Node15&#45;&gt;Node17</title>
<path fill="none" stroke="midnightblue" d="M362.704,-84.6354C343.042,-74.2049 321.186,-62.6109 302.329,-52.6075"/>
<polygon fill="midnightblue" stroke="midnightblue" points="361.09,-87.7415 371.564,-89.336 364.371,-81.5578 361.09,-87.7415"/>
</g>
<!-- Node18 -->
<g id="node5" class="node"><title>Node18</title>
<g id="a_node5"><a xlink:href="_memory_block_8cpp.html" target="_top" xlink:title="C:/Users/kjones/Documents\l/SoftwareDev/VulpesSceneKit\l/third_party/vulpesrender\l/src/alloc/MemoryBlock.cpp">
<polygon fill="white" stroke="black" points="346,-0.5 346,-52.5 492,-52.5 492,-0.5 346,-0.5"/>
<text text-anchor="start" x="354" y="-40.5" font-family="Helvetica,sans-Serif" font-size="10.00">C:/Users/kjones/Documents</text>
<text text-anchor="start" x="354" y="-29.5" font-family="Helvetica,sans-Serif" font-size="10.00">/SoftwareDev/VulpesSceneKit</text>
<text text-anchor="start" x="354" y="-18.5" font-family="Helvetica,sans-Serif" font-size="10.00">/third_party/vulpesrender</text>
<text text-anchor="middle" x="419" y="-7.5" font-family="Helvetica,sans-Serif" font-size="10.00">/src/alloc/MemoryBlock.cpp</text>
</a>
</g>
</g>
<!-- Node15&#45;&gt;Node18 -->
<g id="edge4" class="edge"><title>Node15&#45;&gt;Node18</title>
<path fill="none" stroke="midnightblue" d="M419,-79.1908C419,-70.2824 419,-60.8986 419,-52.6075"/>
<polygon fill="midnightblue" stroke="midnightblue" points="415.5,-79.336 419,-89.336 422.5,-79.336 415.5,-79.336"/>
</g>
<!-- Node19 -->
<g id="node6" class="node"><title>Node19</title>
<g id="a_node6"><a xlink:href="_logical_device_8cpp.html" target="_top" xlink:title="C:/Users/kjones/Documents\l/SoftwareDev/VulpesSceneKit\l/third_party/vulpesrender\l/src/core/LogicalDevice.cpp">
<polygon fill="white" stroke="black" points="510,-0.5 510,-52.5 656,-52.5 656,-0.5 510,-0.5"/>
<text text-anchor="start" x="518" y="-40.5" font-family="Helvetica,sans-Serif" font-size="10.00">C:/Users/kjones/Documents</text>
<text text-anchor="start" x="518" y="-29.5" font-family="Helvetica,sans-Serif" font-size="10.00">/SoftwareDev/VulpesSceneKit</text>
<text text-anchor="start" x="518" y="-18.5" font-family="Helvetica,sans-Serif" font-size="10.00">/third_party/vulpesrender</text>
<text text-anchor="middle" x="583" y="-7.5" font-family="Helvetica,sans-Serif" font-size="10.00">/src/core/LogicalDevice.cpp</text>
</a>
</g>
</g>
<!-- Node15&#45;&gt;Node19 -->
<g id="edge5" class="edge"><title>Node15&#45;&gt;Node19</title>
<path fill="none" stroke="midnightblue" d="M475.296,-84.6354C494.958,-74.2049 516.814,-62.6109 535.671,-52.6075"/>
<polygon fill="midnightblue" stroke="midnightblue" points="473.629,-81.5578 466.436,-89.336 476.91,-87.7415 473.629,-81.5578"/>
</g>
<!-- Node20 -->
<g id="node7" class="node"><title>Node20</title>
<g id="a_node7"><a xlink:href="_buffer_8cpp.html" target="_top" xlink:title="C:/Users/kjones/Documents\l/SoftwareDev/VulpesSceneKit\l/third_party/vulpesrender\l/src/resource/Buffer.cpp">
<polygon fill="white" stroke="black" points="674,-0.5 674,-52.5 820,-52.5 820,-0.5 674,-0.5"/>
<text text-anchor="start" x="682" y="-40.5" font-family="Helvetica,sans-Serif" font-size="10.00">C:/Users/kjones/Documents</text>
<text text-anchor="start" x="682" y="-29.5" font-family="Helvetica,sans-Serif" font-size="10.00">/SoftwareDev/VulpesSceneKit</text>
<text text-anchor="start" x="682" y="-18.5" font-family="Helvetica,sans-Serif" font-size="10.00">/third_party/vulpesrender</text>
<text text-anchor="middle" x="747" y="-7.5" font-family="Helvetica,sans-Serif" font-size="10.00">/src/resource/Buffer.cpp</text>
</a>
</g>
</g>
<!-- Node15&#45;&gt;Node20 -->
<g id="edge6" class="edge"><title>Node15&#45;&gt;Node20</title>
<path fill="none" stroke="midnightblue" d="M502.204,-94.9375C550.008,-83.3891 611.08,-68.111 665,-53 667.871,-52.1954 670.794,-51.3608 673.743,-50.506"/>
<polygon fill="midnightblue" stroke="midnightblue" points="501.114,-91.5997 492.212,-97.3438 502.753,-98.4052 501.114,-91.5997"/>
</g>
<!-- Node21 -->
<g id="node8" class="node"><title>Node21</title>
<g id="a_node8"><a xlink:href="_image_8cpp.html" target="_top" xlink:title="C:/Users/kjones/Documents\l/SoftwareDev/VulpesSceneKit\l/third_party/vulpesrender\l/src/resource/Image.cpp">
<polygon fill="white" stroke="black" points="838,-0.5 838,-52.5 984,-52.5 984,-0.5 838,-0.5"/>
<text text-anchor="start" x="846" y="-40.5" font-family="Helvetica,sans-Serif" font-size="10.00">C:/Users/kjones/Documents</text>
<text text-anchor="start" x="846" y="-29.5" font-family="Helvetica,sans-Serif" font-size="10.00">/SoftwareDev/VulpesSceneKit</text>
<text text-anchor="start" x="846" y="-18.5" font-family="Helvetica,sans-Serif" font-size="10.00">/third_party/vulpesrender</text>
<text text-anchor="middle" x="911" y="-7.5" font-family="Helvetica,sans-Serif" font-size="10.00">/src/resource/Image.cpp</text>
</a>
</g>
</g>
<!-- Node15&#45;&gt;Node21 -->
<g id="edge7" class="edge"><title>Node15&#45;&gt;Node21</title>
<path fill="none" stroke="midnightblue" d="M502.381,-105.773C585.719,-96.1675 717.198,-78.6113 829,-53 831.906,-52.3342 834.859,-51.6168 837.833,-50.8599"/>
<polygon fill="midnightblue" stroke="midnightblue" points="501.748,-102.323 492.209,-106.934 502.541,-109.277 501.748,-102.323"/>
</g>
</g>
</svg>
