<?xml version="1.0" encoding="UTF-8" standalone="no"?>
<!DOCTYPE svg PUBLIC "-//W3C//DTD SVG 1.1//EN"
 "http://www.w3.org/Graphics/SVG/1.1/DTD/svg11.dtd">
<!-- Generated by graphviz version 2.38.0 (20140413.2041)
 -->
<!-- Title: alloc/src/AllocCommon.hpp Pages: 1 -->
<!--zoomable 252 -->
<svg id="main" version="1.1" xmlns="http://www.w3.org/2000/svg" xmlns:xlink="http://www.w3.org/1999/xlink" xml:space="preserve" onload="init(evt)">
<style type="text/css"><![CDATA[
.edge:hover path { stroke: red; }
.edge:hover polygon { stroke: red; fill: red; }
]]></style>
<script type="text/javascript"><![CDATA[
var edges = document.getElementsByTagName('g');
if (edges && edges.length) {
  for (var i=0;i<edges.length;i++) {
    if (edges[i].id.substr(0,4)=='edge') {
      edges[i].setAttribute('class','edge');
    }
  }
}
]]></script>
        <defs>
                <circle id="rim" cx="0" cy="0" r="7"/>
                <circle id="rim2" cx="0" cy="0" r="3.5"/>
                <g id="zoomPlus">
                        <use xlink:href="#rim" fill="#404040">
                                <set attributeName="fill" to="#808080" begin="zoomplus.mouseover" end="zoomplus.mouseout"/>
                        </use>
                        <path d="M-4,0h8M0,-4v8" fill="none" stroke="white" stroke-width="1.5" pointer-events="none"/>
                </g>
                <g id="zoomMin">
                        <use xlink:href="#rim" fill="#404040">
                                <set attributeName="fill" to="#808080" begin="zoomminus.mouseover" end="zoomminus.mouseout"/>
                        </use>
                        <path d="M-4,0h8" fill="none" stroke="white" stroke-width="1.5" pointer-events="none"/>
                </g>
                <g id="dirArrow">
                        <path fill="none" stroke="white" stroke-width="1.5" d="M0,-3.0v7 M-2.5,-0.5L0,-3.0L2.5,-0.5"/>
                </g>
               <g id="resetDef">
                       <use xlink:href="#rim2" fill="#404040">
                               <set attributeName="fill" to="#808080" begin="reset.mouseover" end="reset.mouseout"/>
                       </use>
               </g>
        </defs>

<script type="text/javascript">
var viewWidth = 631;
var viewHeight = 252;
var sectionId = 'dynsection-1';
</script>
<script xlink:href="svgpan.js"/>
<svg id="graph" class="graph">
<g id="viewport">
<title>alloc/src/AllocCommon.hpp</title>
<polygon fill="white" stroke="none" points="-4,4 -4,-248 627,-248 627,4 -4,4"/>
<!-- Node7 -->
<g id="node1" class="node"><title>Node7</title>
<polygon fill="#bfbfbf" stroke="black" points="306,-224.5 306,-243.5 442,-243.5 442,-224.5 306,-224.5"/>
<text text-anchor="middle" x="374" y="-231.5" font-family="Helvetica,sans-Serif" font-size="10.00">alloc/src/AllocCommon.hpp</text>
</g>
<!-- Node8 -->
<g id="node2" class="node"><title>Node8</title>
<g id="a_node2"><a xlink:href="_memory_block_8hpp.html" target="_top" xlink:title="alloc/src/MemoryBlock.hpp">
<polygon fill="white" stroke="black" points="177.5,-112.5 177.5,-131.5 312.5,-131.5 312.5,-112.5 177.5,-112.5"/>
<text text-anchor="middle" x="245" y="-119.5" font-family="Helvetica,sans-Serif" font-size="10.00">alloc/src/MemoryBlock.hpp</text>
</a>
</g>
</g>
<!-- Node7&#45;&gt;Node8 -->
<g id="edge1" class="edge"><title>Node7&#45;&gt;Node8</title>
<path fill="none" stroke="midnightblue" d="M302.367,-221.471C282.852,-214.844 263.635,-204.413 251,-188 238.28,-171.477 240.746,-145.127 243.138,-131.612"/>
<polygon fill="midnightblue" stroke="midnightblue" points="301.356,-224.821 311.944,-224.428 303.422,-218.133 301.356,-224.821"/>
</g>
<!-- Node11 -->
<g id="node5" class="node"><title>Node11</title>
<g id="a_node5"><a xlink:href="_allocator_impl_8hpp.html" target="_top" xlink:title="alloc/src/AllocatorImpl.hpp">
<polygon fill="white" stroke="black" points="315.5,-56.5 315.5,-75.5 446.5,-75.5 446.5,-56.5 315.5,-56.5"/>
<text text-anchor="middle" x="381" y="-63.5" font-family="Helvetica,sans-Serif" font-size="10.00">alloc/src/AllocatorImpl.hpp</text>
</a>
</g>
</g>
<!-- Node7&#45;&gt;Node11 -->
<g id="edge11" class="edge"><title>Node7&#45;&gt;Node11</title>
<path fill="none" stroke="midnightblue" d="M387.986,-216.373C393.845,-208.34 399.988,-198.235 403,-188 415.117,-146.83 394.644,-95.7168 385.288,-75.6545"/>
<polygon fill="midnightblue" stroke="midnightblue" points="385.068,-214.423 381.673,-224.459 390.586,-218.731 385.068,-214.423"/>
</g>
<!-- Node15 -->
<g id="node9" class="node"><title>Node15</title>
<g id="a_node9"><a xlink:href="_memory_block_8cpp.html" target="_top" xlink:title="alloc/src/MemoryBlock.cpp">
<polygon fill="white" stroke="black" points="464.5,-56.5 464.5,-75.5 599.5,-75.5 599.5,-56.5 464.5,-56.5"/>
<text text-anchor="middle" x="532" y="-63.5" font-family="Helvetica,sans-Serif" font-size="10.00">alloc/src/MemoryBlock.cpp</text>
</a>
</g>
</g>
<!-- Node7&#45;&gt;Node15 -->
<g id="edge12" class="edge"><title>Node7&#45;&gt;Node15</title>
<path fill="none" stroke="midnightblue" d="M389.954,-217.31C398.619,-208.723 409.477,-197.854 419,-188 459.148,-146.456 505.912,-95.5561 524.153,-75.6027"/>
<polygon fill="midnightblue" stroke="midnightblue" points="387.37,-214.943 382.715,-224.46 392.289,-219.923 387.37,-214.943"/>
</g>
<!-- Node16 -->
<g id="node10" class="node"><title>Node16</title>
<g id="a_node10"><a xlink:href="_suballocation_8hpp.html" target="_top" xlink:title="alloc/src/Suballocation.hpp">
<polygon fill="white" stroke="black" points="260,-168.5 260,-187.5 394,-187.5 394,-168.5 260,-168.5"/>
<text text-anchor="middle" x="327" y="-175.5" font-family="Helvetica,sans-Serif" font-size="10.00">alloc/src/Suballocation.hpp</text>
</a>
</g>
</g>
<!-- Node7&#45;&gt;Node16 -->
<g id="edge9" class="edge"><title>Node7&#45;&gt;Node16</title>
<path fill="none" stroke="midnightblue" d="M359.579,-216.431C351.342,-206.967 341.346,-195.483 334.617,-187.751"/>
<polygon fill="midnightblue" stroke="midnightblue" points="357.034,-218.838 366.239,-224.083 362.314,-214.242 357.034,-218.838"/>
</g>
<!-- Node9 -->
<g id="node3" class="node"><title>Node9</title>
<g id="a_node3"><a xlink:href="_allocation_8cpp.html" target="_top" xlink:title="alloc/src/Allocation.cpp">
<polygon fill="white" stroke="black" points="0,-56.5 0,-75.5 118,-75.5 118,-56.5 0,-56.5"/>
<text text-anchor="middle" x="59" y="-63.5" font-family="Helvetica,sans-Serif" font-size="10.00">alloc/src/Allocation.cpp</text>
</a>
</g>
</g>
<!-- Node8&#45;&gt;Node9 -->
<g id="edge2" class="edge"><title>Node8&#45;&gt;Node9</title>
<path fill="none" stroke="midnightblue" d="M205.622,-109.568C170.534,-99.381 119.979,-84.7034 88.3344,-75.5164"/>
<polygon fill="midnightblue" stroke="midnightblue" points="204.948,-113.017 215.528,-112.444 206.9,-106.294 204.948,-113.017"/>
</g>
<!-- Node10 -->
<g id="node4" class="node"><title>Node10</title>
<g id="a_node4"><a xlink:href="_allocation_collection_8cpp.html" target="_top" xlink:title="alloc/src/AllocationCollection.cpp">
<polygon fill="white" stroke="black" points="136.5,-56.5 136.5,-75.5 297.5,-75.5 297.5,-56.5 136.5,-56.5"/>
<text text-anchor="middle" x="217" y="-63.5" font-family="Helvetica,sans-Serif" font-size="10.00">alloc/src/AllocationCollection.cpp</text>
</a>
</g>
</g>
<!-- Node8&#45;&gt;Node10 -->
<g id="edge3" class="edge"><title>Node8&#45;&gt;Node10</title>
<path fill="none" stroke="midnightblue" d="M235.658,-102.983C230.905,-93.8168 225.344,-83.0922 221.538,-75.7511"/>
<polygon fill="midnightblue" stroke="midnightblue" points="232.666,-104.817 240.376,-112.083 238.88,-101.594 232.666,-104.817"/>
</g>
<!-- Node8&#45;&gt;Node11 -->
<g id="edge4" class="edge"><title>Node8&#45;&gt;Node11</title>
<path fill="none" stroke="midnightblue" d="M276.135,-108.638C301.657,-98.504 337.109,-84.4274 359.551,-75.5164"/>
<polygon fill="midnightblue" stroke="midnightblue" points="274.552,-105.5 266.55,-112.444 277.135,-112.006 274.552,-105.5"/>
</g>
<!-- Node8&#45;&gt;Node15 -->
<g id="edge8" class="edge"><title>Node8&#45;&gt;Node15</title>
<path fill="none" stroke="midnightblue" d="M300.608,-110.537C354.849,-100.332 436.338,-84.9992 486.737,-75.5164"/>
<polygon fill="midnightblue" stroke="midnightblue" points="299.656,-107.155 290.476,-112.444 300.951,-114.034 299.656,-107.155"/>
</g>
<!-- Node12 -->
<g id="node6" class="node"><title>Node12</title>
<g id="a_node6"><a xlink:href="_allocator_8cpp.html" target="_top" xlink:title="alloc/src/Allocator.cpp">
<polygon fill="white" stroke="black" points="184.5,-0.5 184.5,-19.5 297.5,-19.5 297.5,-0.5 184.5,-0.5"/>
<text text-anchor="middle" x="241" y="-7.5" font-family="Helvetica,sans-Serif" font-size="10.00">alloc/src/Allocator.cpp</text>
</a>
</g>
</g>
<!-- Node11&#45;&gt;Node12 -->
<g id="edge5" class="edge"><title>Node11&#45;&gt;Node12</title>
<path fill="none" stroke="midnightblue" d="M349.298,-52.772C323,-42.6287 286.284,-28.4669 263.08,-19.5164"/>
<polygon fill="midnightblue" stroke="midnightblue" points="348.227,-56.1103 358.817,-56.4435 350.746,-49.5792 348.227,-56.1103"/>
</g>
<!-- Node13 -->
<g id="node7" class="node"><title>Node13</title>
<g id="a_node7"><a xlink:href="_allocator_impl_8cpp.html" target="_top" xlink:title="alloc/src/AllocatorImpl.cpp">
<polygon fill="white" stroke="black" points="315.5,-0.5 315.5,-19.5 446.5,-19.5 446.5,-0.5 315.5,-0.5"/>
<text text-anchor="middle" x="381" y="-7.5" font-family="Helvetica,sans-Serif" font-size="10.00">alloc/src/AllocatorImpl.cpp</text>
</a>
</g>
</g>
<!-- Node11&#45;&gt;Node13 -->
<g id="edge6" class="edge"><title>Node11&#45;&gt;Node13</title>
<path fill="none" stroke="midnightblue" d="M381,-45.8045C381,-36.9102 381,-26.7798 381,-19.7511"/>
<polygon fill="midnightblue" stroke="midnightblue" points="377.5,-46.083 381,-56.083 384.5,-46.083 377.5,-46.083"/>
</g>
<!-- Node14 -->
<g id="node8" class="node"><title>Node14</title>
<g id="a_node8"><a xlink:href="_debug_visualization_8cpp.html" target="_top" xlink:title="alloc/src/DebugVisualization.cpp">
<polygon fill="white" stroke="black" points="465,-0.5 465,-19.5 623,-19.5 623,-0.5 465,-0.5"/>
<text text-anchor="middle" x="544" y="-7.5" font-family="Helvetica,sans-Serif" font-size="10.00">alloc/src/DebugVisualization.cpp</text>
</a>
</g>
</g>
<!-- Node11&#45;&gt;Node14 -->
<g id="edge7" class="edge"><title>Node11&#45;&gt;Node14</title>
<path fill="none" stroke="midnightblue" d="M416.703,-53.172C447.396,-43.0039 490.919,-28.5852 518.293,-19.5164"/>
<polygon fill="midnightblue" stroke="midnightblue" points="415.22,-49.9762 406.828,-56.4435 417.421,-56.6211 415.22,-49.9762"/>
</g>
<!-- Node16&#45;&gt;Node8 -->
<g id="edge10" class="edge"><title>Node16&#45;&gt;Node8</title>
<path fill="none" stroke="midnightblue" d="M305.167,-162.622C290.187,-152.757 270.803,-139.992 258.142,-131.655"/>
<polygon fill="midnightblue" stroke="midnightblue" points="303.549,-165.747 313.825,-168.324 307.399,-159.901 303.549,-165.747"/>
</g>
</g>
</svg>
        <g id="navigator" transform="translate(0 0)" fill="#404254">
                <rect fill="#f2f5e9" fill-opacity="0.5" stroke="#606060" stroke-width=".5" x="0" y="0" width="60" height="60"/>
                <use id="zoomplus" xlink:href="#zoomPlus" x="17" y="9" onmousedown="handleZoom(evt,'in')"/>
                <use id="zoomminus" xlink:href="#zoomMin" x="42" y="9" onmousedown="handleZoom(evt,'out')"/>
                <use id="reset" xlink:href="#resetDef" x="30" y="36" onmousedown="handleReset()"/>
                <g id="arrowUp" xlink:href="#dirArrow" transform="translate(30 24)" onmousedown="handlePan(0,-1)">
                  <use xlink:href="#rim" fill="#404040">
                        <set attributeName="fill" to="#808080" begin="arrowUp.mouseover" end="arrowUp.mouseout"/>
                  </use>
                  <path fill="none" stroke="white" stroke-width="1.5" d="M0,-3.0v7 M-2.5,-0.5L0,-3.0L2.5,-0.5"/>
                </g>
                <g id="arrowRight" xlink:href="#dirArrow" transform="rotate(90) translate(36 -43)" onmousedown="handlePan(1,0)">
                  <use xlink:href="#rim" fill="#404040">
                        <set attributeName="fill" to="#808080" begin="arrowRight.mouseover" end="arrowRight.mouseout"/>
                  </use>
                  <path fill="none" stroke="white" stroke-width="1.5" d="M0,-3.0v7 M-2.5,-0.5L0,-3.0L2.5,-0.5"/>
                </g>
                <g id="arrowDown" xlink:href="#dirArrow" transform="rotate(180) translate(-30 -48)" onmousedown="handlePan(0,1)">
                  <use xlink:href="#rim" fill="#404040">
                        <set attributeName="fill" to="#808080" begin="arrowDown.mouseover" end="arrowDown.mouseout"/>
                  </use>
                  <path fill="none" stroke="white" stroke-width="1.5" d="M0,-3.0v7 M-2.5,-0.5L0,-3.0L2.5,-0.5"/>
                </g>
                <g id="arrowLeft" xlink:href="#dirArrow" transform="rotate(270) translate(-36 17)" onmousedown="handlePan(-1,0)">
                  <use xlink:href="#rim" fill="#404040">
                        <set attributeName="fill" to="#808080" begin="arrowLeft.mouseover" end="arrowLeft.mouseout"/>
                  </use>
                  <path fill="none" stroke="white" stroke-width="1.5" d="M0,-3.0v7 M-2.5,-0.5L0,-3.0L2.5,-0.5"/>
                </g>
        </g>
        <svg viewBox="0 0 15 15" width="100%" height="30px" preserveAspectRatio="xMaxYMin meet">
         <g id="arrow_out" transform="scale(0.3 0.3)">
          <a xlink:href="_alloc_common_8hpp__dep__incl_org.svg" target="_base">
           <rect id="button" ry="5" rx="5" y="6" x="6" height="38" width="38"
                fill="#f2f5e9" fill-opacity="0.5" stroke="#606060" stroke-width="1.0"/>
           <path id="arrow"
             d="M 11.500037,31.436501 C 11.940474,20.09759 22.043105,11.32322 32.158766,21.979434 L 37.068811,17.246167 C 37.068811,17.246167 37.088388,32 37.088388,32 L 22.160133,31.978069 C 22.160133,31.978069 26.997745,27.140456 26.997745,27.140456 C 18.528582,18.264221 13.291696,25.230495 11.500037,31.436501 z"
             style="fill:#404040;"/>
          </a>
         </g>
        </svg>
</svg>
