<?xml version="1.0" encoding="UTF-8" standalone="no"?>
<!DOCTYPE svg PUBLIC "-//W3C//DTD SVG 1.1//EN"
 "http://www.w3.org/Graphics/SVG/1.1/DTD/svg11.dtd">
<!-- Generated by graphviz version 2.38.0 (20140413.2041)
 -->
<!-- Title: alloc/src/AllocCommon.hpp Pages: 1 -->
<svg width="394pt" height="140pt"
 viewBox="0.00 0.00 393.50 140.00" xmlns="http://www.w3.org/2000/svg" xmlns:xlink="http://www.w3.org/1999/xlink">
<g id="graph0" class="graph" transform="scale(1 1) rotate(0) translate(4 136)">
<title>alloc/src/AllocCommon.hpp</title>
<polygon fill="white" stroke="none" points="-4,4 -4,-136 389.5,-136 389.5,4 -4,4"/>
<!-- Node0 -->
<g id="node1" class="node"><title>Node0</title>
<polygon fill="#bfbfbf" stroke="black" points="153,-112.5 153,-131.5 289,-131.5 289,-112.5 153,-112.5"/>
<text text-anchor="middle" x="221" y="-119.5" font-family="Helvetica,sans-Serif" font-size="10.00">alloc/src/AllocCommon.hpp</text>
</g>
<!-- Node1 -->
<g id="node2" class="node"><title>Node1</title>
<g id="a_node2"><a xlink:href="vpr__stdafx_8h.html" target="_top" xlink:title="vpr_stdafx.h">
<polygon fill="white" stroke="black" points="7,-56.5 7,-75.5 75,-75.5 75,-56.5 7,-56.5"/>
<text text-anchor="middle" x="41" y="-63.5" font-family="Helvetica,sans-Serif" font-size="10.00">vpr_stdafx.h</text>
</a>
</g>
</g>
<!-- Node0&#45;&gt;Node1 -->
<g id="edge1" class="edge"><title>Node0&#45;&gt;Node1</title>
<path fill="none" stroke="midnightblue" d="M192.478,-112.444C161.934,-103.28 113.292,-88.6876 79.3973,-78.5192"/>
<polygon fill="midnightblue" stroke="midnightblue" points="79.9721,-75.0376 69.3881,-75.5164 77.9606,-81.7424 79.9721,-75.0376"/>
</g>
<!-- Node3 -->
<g id="node4" class="node"><title>Node3</title>
<g id="a_node4"><a xlink:href="_forward_decl_8hpp.html" target="_top" xlink:title="ForwardDecl.hpp">
<polygon fill="white" stroke="black" points="93.5,-56.5 93.5,-75.5 182.5,-75.5 182.5,-56.5 93.5,-56.5"/>
<text text-anchor="middle" x="138" y="-63.5" font-family="Helvetica,sans-Serif" font-size="10.00">ForwardDecl.hpp</text>
</a>
</g>
</g>
<!-- Node0&#45;&gt;Node3 -->
<g id="edge3" class="edge"><title>Node0&#45;&gt;Node3</title>
<path fill="none" stroke="midnightblue" d="M207.665,-112.324C194.838,-103.979 175.215,-91.2122 160.06,-81.3524"/>
<polygon fill="midnightblue" stroke="midnightblue" points="161.593,-78.1742 151.302,-75.6545 157.776,-84.0417 161.593,-78.1742"/>
</g>
<!-- Node4 -->
<g id="node5" class="node"><title>Node4</title>
<polygon fill="white" stroke="#bfbfbf" points="201,-56.5 201,-75.5 241,-75.5 241,-56.5 201,-56.5"/>
<text text-anchor="middle" x="221" y="-63.5" font-family="Helvetica,sans-Serif" font-size="10.00">utility</text>
</g>
<!-- Node0&#45;&gt;Node4 -->
<g id="edge4" class="edge"><title>Node0&#45;&gt;Node4</title>
<path fill="none" stroke="midnightblue" d="M221,-112.083C221,-105.006 221,-94.8611 221,-85.9865"/>
<polygon fill="midnightblue" stroke="midnightblue" points="224.5,-85.751 221,-75.7511 217.5,-85.7511 224.5,-85.751"/>
</g>
<!-- Node5 -->
<g id="node6" class="node"><title>Node5</title>
<polygon fill="white" stroke="#bfbfbf" points="259.5,-56.5 259.5,-75.5 318.5,-75.5 318.5,-56.5 259.5,-56.5"/>
<text text-anchor="middle" x="289" y="-63.5" font-family="Helvetica,sans-Serif" font-size="10.00">stdexcept</text>
</g>
<!-- Node0&#45;&gt;Node5 -->
<g id="edge5" class="edge"><title>Node0&#45;&gt;Node5</title>
<path fill="none" stroke="midnightblue" d="M231.925,-112.324C242.175,-104.185 257.721,-91.8395 270.001,-82.0874"/>
<polygon fill="midnightblue" stroke="midnightblue" points="272.221,-84.7937 277.876,-75.8339 267.868,-79.3119 272.221,-84.7937"/>
</g>
<!-- Node6 -->
<g id="node7" class="node"><title>Node6</title>
<polygon fill="white" stroke="#bfbfbf" points="336.5,-56.5 336.5,-75.5 385.5,-75.5 385.5,-56.5 336.5,-56.5"/>
<text text-anchor="middle" x="361" y="-63.5" font-family="Helvetica,sans-Serif" font-size="10.00">cassert</text>
</g>
<!-- Node0&#45;&gt;Node6 -->
<g id="edge6" class="edge"><title>Node0&#45;&gt;Node6</title>
<path fill="none" stroke="midnightblue" d="M243.183,-112.444C266.428,-103.478 303.149,-89.314 329.415,-79.1827"/>
<polygon fill="midnightblue" stroke="midnightblue" points="330.85,-82.3807 338.92,-75.5164 328.331,-75.8497 330.85,-82.3807"/>
</g>
<!-- Node2 -->
<g id="node3" class="node"><title>Node2</title>
<polygon fill="white" stroke="#bfbfbf" points="0,-0.5 0,-19.5 82,-19.5 82,-0.5 0,-0.5"/>
<text text-anchor="middle" x="41" y="-7.5" font-family="Helvetica,sans-Serif" font-size="10.00">vulkan/vulkan.h</text>
</g>
<!-- Node1&#45;&gt;Node2 -->
<g id="edge2" class="edge"><title>Node1&#45;&gt;Node2</title>
<path fill="none" stroke="midnightblue" d="M41,-56.083C41,-49.0059 41,-38.8611 41,-29.9865"/>
<polygon fill="midnightblue" stroke="midnightblue" points="44.5001,-29.751 41,-19.7511 37.5001,-29.7511 44.5001,-29.751"/>
</g>
</g>
</svg>
