<?xml version="1.0" encoding="UTF-8" standalone="no"?>
<!DOCTYPE svg PUBLIC "-//W3C//DTD SVG 1.1//EN"
 "http://www.w3.org/Graphics/SVG/1.1/DTD/svg11.dtd">
<!-- Generated by graphviz version 2.38.0 (20140413.2041)
 -->
<!-- Title: alloc/src/AllocationCollection.cpp Pages: 1 -->
<!--zoomable 308 -->
<svg id="main" version="1.1" xmlns="http://www.w3.org/2000/svg" xmlns:xlink="http://www.w3.org/1999/xlink" xml:space="preserve" onload="init(evt)">
<style type="text/css"><![CDATA[
.edge:hover path { stroke: red; }
.edge:hover polygon { stroke: red; fill: red; }
]]></style>
<script type="text/javascript"><![CDATA[
var edges = document.getElementsByTagName('g');
if (edges && edges.length) {
  for (var i=0;i<edges.length;i++) {
    if (edges[i].id.substr(0,4)=='edge') {
      edges[i].setAttribute('class','edge');
    }
  }
}
]]></script>
        <defs>
                <circle id="rim" cx="0" cy="0" r="7"/>
                <circle id="rim2" cx="0" cy="0" r="3.5"/>
                <g id="zoomPlus">
                        <use xlink:href="#rim" fill="#404040">
                                <set attributeName="fill" to="#808080" begin="zoomplus.mouseover" end="zoomplus.mouseout"/>
                        </use>
                        <path d="M-4,0h8M0,-4v8" fill="none" stroke="white" stroke-width="1.5" pointer-events="none"/>
                </g>
                <g id="zoomMin">
                        <use xlink:href="#rim" fill="#404040">
                                <set attributeName="fill" to="#808080" begin="zoomminus.mouseover" end="zoomminus.mouseout"/>
                        </use>
                        <path d="M-4,0h8" fill="none" stroke="white" stroke-width="1.5" pointer-events="none"/>
                </g>
                <g id="dirArrow">
                        <path fill="none" stroke="white" stroke-width="1.5" d="M0,-3.0v7 M-2.5,-0.5L0,-3.0L2.5,-0.5"/>
                </g>
               <g id="resetDef">
                       <use xlink:href="#rim2" fill="#404040">
                               <set attributeName="fill" to="#808080" begin="reset.mouseover" end="reset.mouseout"/>
                       </use>
               </g>
        </defs>

<script type="text/javascript">
var viewWidth = 673;
var viewHeight = 308;
var sectionId = 'dynsection-0';
</script>
<script xlink:href="svgpan.js"/>
<svg id="graph" class="graph">
<g id="viewport">
<title>alloc/src/AllocationCollection.cpp</title>
<polygon fill="white" stroke="none" points="-4,4 -4,-304 669.281,-304 669.281,4 -4,4"/>
<!-- Node0 -->
<g id="node1" class="node"><title>Node0</title>
<polygon fill="#bfbfbf" stroke="black" points="107.781,-280.5 107.781,-299.5 268.781,-299.5 268.781,-280.5 107.781,-280.5"/>
<text text-anchor="middle" x="188.281" y="-287.5" font-family="Helvetica,sans-Serif" font-size="10.00">alloc/src/AllocationCollection.cpp</text>
</g>
<!-- Node1 -->
<g id="node2" class="node"><title>Node1</title>
<g id="a_node2"><a xlink:href="vpr__stdafx_8h.html" target="_top" xlink:title="vpr_stdafx.h">
<polygon fill="white" stroke="black" points="52.2805,-56.5 52.2805,-75.5 120.281,-75.5 120.281,-56.5 52.2805,-56.5"/>
<text text-anchor="middle" x="86.2805" y="-63.5" font-family="Helvetica,sans-Serif" font-size="10.00">vpr_stdafx.h</text>
</a>
</g>
</g>
<!-- Node0&#45;&gt;Node1 -->
<g id="edge1" class="edge"><title>Node0&#45;&gt;Node1</title>
<path fill="none" stroke="midnightblue" d="M150.23,-280.405C106.203,-268.198 35.7395,-241.155 4.28051,-188 -5.93533,-170.739 4.88926,-128.463 16.2805,-112 25.8316,-98.1961 41.132,-87.6528 54.9957,-80.2539"/>
<polygon fill="midnightblue" stroke="midnightblue" points="56.8846,-83.2233 64.2758,-75.6324 53.7641,-76.9573 56.8846,-83.2233"/>
</g>
<!-- Node3 -->
<g id="node4" class="node"><title>Node3</title>
<g id="a_node4"><a xlink:href="_allocation_collection_8hpp.html" target="_top" xlink:title="AllocationCollection.hpp">
<polygon fill="white" stroke="black" points="127.781,-168.5 127.781,-187.5 248.781,-187.5 248.781,-168.5 127.781,-168.5"/>
<text text-anchor="middle" x="188.281" y="-175.5" font-family="Helvetica,sans-Serif" font-size="10.00">AllocationCollection.hpp</text>
</a>
</g>
</g>
<!-- Node0&#45;&gt;Node3 -->
<g id="edge3" class="edge"><title>Node0&#45;&gt;Node3</title>
<path fill="none" stroke="midnightblue" d="M188.281,-280.368C188.281,-262.617 188.281,-221.666 188.281,-197.597"/>
<polygon fill="midnightblue" stroke="midnightblue" points="191.781,-197.591 188.281,-187.591 184.781,-197.591 191.781,-197.591"/>
</g>
<!-- Node8 -->
<g id="node9" class="node"><title>Node8</title>
<g id="a_node9"><a xlink:href="_allocator_8hpp.html" target="_top" xlink:title="Allocator.hpp">
<polygon fill="white" stroke="black" points="22.2805,-168.5 22.2805,-187.5 96.2805,-187.5 96.2805,-168.5 22.2805,-168.5"/>
<text text-anchor="middle" x="59.2805" y="-175.5" font-family="Helvetica,sans-Serif" font-size="10.00">Allocator.hpp</text>
</a>
</g>
</g>
<!-- Node0&#45;&gt;Node8 -->
<g id="edge9" class="edge"><title>Node0&#45;&gt;Node8</title>
<path fill="none" stroke="midnightblue" d="M178.158,-280.368C156.304,-261.733 104.468,-217.532 77.0284,-194.134"/>
<polygon fill="midnightblue" stroke="midnightblue" points="79.2361,-191.417 69.3559,-187.591 74.6942,-196.743 79.2361,-191.417"/>
</g>
<!-- Node9 -->
<g id="node10" class="node"><title>Node9</title>
<g id="a_node10"><a xlink:href="_memory_block_8hpp.html" target="_top" xlink:title="MemoryBlock.hpp">
<polygon fill="white" stroke="black" points="229.781,-224.5 229.781,-243.5 324.781,-243.5 324.781,-224.5 229.781,-224.5"/>
<text text-anchor="middle" x="277.281" y="-231.5" font-family="Helvetica,sans-Serif" font-size="10.00">MemoryBlock.hpp</text>
</a>
</g>
</g>
<!-- Node0&#45;&gt;Node9 -->
<g id="edge13" class="edge"><title>Node0&#45;&gt;Node9</title>
<path fill="none" stroke="midnightblue" d="M202.58,-280.324C216.463,-271.9 237.773,-258.971 254.084,-249.074"/>
<polygon fill="midnightblue" stroke="midnightblue" points="256.283,-251.834 263.017,-243.655 252.652,-245.85 256.283,-251.834"/>
</g>
<!-- Node16 -->
<g id="node17" class="node"><title>Node16</title>
<polygon fill="white" stroke="#bfbfbf" points="342.781,-224.5 342.781,-243.5 431.781,-243.5 431.781,-224.5 342.781,-224.5"/>
<text text-anchor="middle" x="387.281" y="-231.5" font-family="Helvetica,sans-Serif" font-size="10.00">easylogging++.h</text>
</g>
<!-- Node0&#45;&gt;Node16 -->
<g id="edge29" class="edge"><title>Node0&#45;&gt;Node16</title>
<path fill="none" stroke="midnightblue" d="M219.813,-280.444C253.873,-271.201 308.286,-256.436 345.796,-246.257"/>
<polygon fill="midnightblue" stroke="midnightblue" points="347.162,-249.513 355.896,-243.516 345.328,-242.758 347.162,-249.513"/>
</g>
<!-- Node2 -->
<g id="node3" class="node"><title>Node2</title>
<polygon fill="white" stroke="#bfbfbf" points="45.2805,-0.5 45.2805,-19.5 127.281,-19.5 127.281,-0.5 45.2805,-0.5"/>
<text text-anchor="middle" x="86.2805" y="-7.5" font-family="Helvetica,sans-Serif" font-size="10.00">vulkan/vulkan.h</text>
</g>
<!-- Node1&#45;&gt;Node2 -->
<g id="edge2" class="edge"><title>Node1&#45;&gt;Node2</title>
<path fill="none" stroke="midnightblue" d="M86.2805,-56.083C86.2805,-49.0059 86.2805,-38.8611 86.2805,-29.9865"/>
<polygon fill="midnightblue" stroke="midnightblue" points="89.7806,-29.751 86.2805,-19.7511 82.7806,-29.7511 89.7806,-29.751"/>
</g>
<!-- Node3&#45;&gt;Node1 -->
<g id="edge4" class="edge"><title>Node3&#45;&gt;Node1</title>
<path fill="none" stroke="midnightblue" d="M182.681,-168.073C174.297,-155.043 157.604,-130.371 140.281,-112 129.946,-101.041 117.023,-90.1876 106.41,-81.8865"/>
<polygon fill="midnightblue" stroke="midnightblue" points="108.216,-78.8616 98.1464,-75.5674 103.964,-84.4221 108.216,-78.8616"/>
</g>
<!-- Node4 -->
<g id="node5" class="node"><title>Node4</title>
<g id="a_node5"><a xlink:href="_forward_decl_8hpp.html" target="_top" xlink:title="ForwardDecl.hpp">
<polygon fill="white" stroke="black" points="373.781,-56.5 373.781,-75.5 462.781,-75.5 462.781,-56.5 373.781,-56.5"/>
<text text-anchor="middle" x="418.281" y="-63.5" font-family="Helvetica,sans-Serif" font-size="10.00">ForwardDecl.hpp</text>
</a>
</g>
</g>
<!-- Node3&#45;&gt;Node4 -->
<g id="edge5" class="edge"><title>Node3&#45;&gt;Node4</title>
<path fill="none" stroke="midnightblue" d="M189.468,-168.347C191.873,-154.284 198.678,-126.576 216.281,-112 238.397,-93.6858 311.647,-80.6982 363.554,-73.5255"/>
<polygon fill="midnightblue" stroke="midnightblue" points="364.186,-76.972 373.629,-72.1686 363.252,-70.0347 364.186,-76.972"/>
</g>
<!-- Node5 -->
<g id="node6" class="node"><title>Node5</title>
<polygon fill="white" stroke="#bfbfbf" points="287.281,-112.5 287.281,-131.5 329.281,-131.5 329.281,-112.5 287.281,-112.5"/>
<text text-anchor="middle" x="308.281" y="-119.5" font-family="Helvetica,sans-Serif" font-size="10.00">vector</text>
</g>
<!-- Node3&#45;&gt;Node5 -->
<g id="edge6" class="edge"><title>Node3&#45;&gt;Node5</title>
<path fill="none" stroke="midnightblue" d="M207.295,-168.444C226.868,-159.636 257.588,-145.812 280.009,-135.722"/>
<polygon fill="midnightblue" stroke="midnightblue" points="281.672,-138.812 289.355,-131.516 278.8,-132.428 281.672,-138.812"/>
</g>
<!-- Node6 -->
<g id="node7" class="node"><title>Node6</title>
<polygon fill="white" stroke="#bfbfbf" points="79.2805,-112.5 79.2805,-131.5 131.281,-131.5 131.281,-112.5 79.2805,-112.5"/>
<text text-anchor="middle" x="105.281" y="-119.5" font-family="Helvetica,sans-Serif" font-size="10.00">memory</text>
</g>
<!-- Node3&#45;&gt;Node6 -->
<g id="edge7" class="edge"><title>Node3&#45;&gt;Node6</title>
<path fill="none" stroke="midnightblue" d="M174.945,-168.324C162.119,-159.979 142.496,-147.212 127.341,-137.352"/>
<polygon fill="midnightblue" stroke="midnightblue" points="128.874,-134.174 118.583,-131.655 125.056,-140.042 128.874,-134.174"/>
</g>
<!-- Node7 -->
<g id="node8" class="node"><title>Node7</title>
<polygon fill="white" stroke="#bfbfbf" points="225.281,-112.5 225.281,-131.5 269.281,-131.5 269.281,-112.5 225.281,-112.5"/>
<text text-anchor="middle" x="247.281" y="-119.5" font-family="Helvetica,sans-Serif" font-size="10.00">mutex</text>
</g>
<!-- Node3&#45;&gt;Node7 -->
<g id="edge8" class="edge"><title>Node3&#45;&gt;Node7</title>
<path fill="none" stroke="midnightblue" d="M197.76,-168.324C206.482,-160.341 219.624,-148.313 230.178,-138.653"/>
<polygon fill="midnightblue" stroke="midnightblue" points="232.615,-141.167 237.629,-131.834 227.889,-136.004 232.615,-141.167"/>
</g>
<!-- Node8&#45;&gt;Node1 -->
<g id="edge10" class="edge"><title>Node8&#45;&gt;Node1</title>
<path fill="none" stroke="midnightblue" d="M52.3342,-168.406C43.0354,-155.792 28.6547,-131.633 37.2805,-112 42.6705,-99.732 53.2386,-89.3414 63.1846,-81.6461"/>
<polygon fill="midnightblue" stroke="midnightblue" points="65.532,-84.2697 71.6191,-75.598 61.4529,-78.5811 65.532,-84.2697"/>
</g>
<!-- Node8&#45;&gt;Node4 -->
<g id="edge11" class="edge"><title>Node8&#45;&gt;Node4</title>
<path fill="none" stroke="midnightblue" d="M57.8564,-168.388C56.0825,-154.383 54.9366,-126.756 70.2805,-112 111.103,-72.7407 276.215,-66.7719 363.529,-66.4452"/>
<polygon fill="midnightblue" stroke="midnightblue" points="363.783,-69.945 373.778,-66.4315 363.773,-62.945 363.783,-69.945"/>
</g>
<!-- Node8&#45;&gt;Node6 -->
<g id="edge12" class="edge"><title>Node8&#45;&gt;Node6</title>
<path fill="none" stroke="midnightblue" d="M66.8765,-168.083C73.508,-160.298 83.3015,-148.801 91.3387,-139.367"/>
<polygon fill="midnightblue" stroke="midnightblue" points="94.0056,-141.633 97.8259,-131.751 88.6768,-137.094 94.0056,-141.633"/>
</g>
<!-- Node9&#45;&gt;Node1 -->
<g id="edge14" class="edge"><title>Node9&#45;&gt;Node1</title>
<path fill="none" stroke="midnightblue" d="M229.568,-231.956C161.154,-229.337 40.4191,-220.156 13.2805,-188 -0.99924,-171.08 16.0026,-134.426 31.2805,-112 39.6116,-99.771 52.2087,-89.1233 63.2459,-81.2595"/>
<polygon fill="midnightblue" stroke="midnightblue" points="65.3304,-84.075 71.6518,-75.5726 61.4079,-78.2772 65.3304,-84.075"/>
</g>
<!-- Node9&#45;&gt;Node4 -->
<g id="edge15" class="edge"><title>Node9&#45;&gt;Node4</title>
<path fill="none" stroke="midnightblue" d="M325.173,-225.352C366.035,-217.782 420.332,-204.888 434.281,-188 458.701,-158.432 440.598,-110.198 427.89,-84.4669"/>
<polygon fill="midnightblue" stroke="midnightblue" points="430.947,-82.7606 423.226,-75.5056 424.738,-85.9921 430.947,-82.7606"/>
</g>
<!-- Node9&#45;&gt;Node7 -->
<g id="edge28" class="edge"><title>Node9&#45;&gt;Node7</title>
<path fill="none" stroke="midnightblue" d="M274.926,-224.368C270.063,-206.537 258.816,-165.295 252.264,-141.272"/>
<polygon fill="midnightblue" stroke="midnightblue" points="255.632,-140.318 249.624,-131.591 248.878,-142.16 255.632,-140.318"/>
</g>
<!-- Node10 -->
<g id="node11" class="node"><title>Node10</title>
<g id="a_node11"><a xlink:href="_alloc_common_8hpp.html" target="_top" xlink:title="AllocCommon.hpp">
<polygon fill="white" stroke="black" points="509.281,-112.5 509.281,-131.5 605.281,-131.5 605.281,-112.5 509.281,-112.5"/>
<text text-anchor="middle" x="557.281" y="-119.5" font-family="Helvetica,sans-Serif" font-size="10.00">AllocCommon.hpp</text>
</a>
</g>
</g>
<!-- Node9&#45;&gt;Node10 -->
<g id="edge16" class="edge"><title>Node9&#45;&gt;Node10</title>
<path fill="none" stroke="midnightblue" d="M325.014,-224.707C384.603,-214.114 480.537,-196.176 495.281,-188 516.288,-176.351 534.461,-155.189 545.606,-140.178"/>
<polygon fill="midnightblue" stroke="midnightblue" points="548.646,-141.942 551.599,-131.767 542.946,-137.88 548.646,-141.942"/>
</g>
<!-- Node14 -->
<g id="node15" class="node"><title>Node14</title>
<g id="a_node15"><a xlink:href="_suballocation_8hpp.html" target="_top" xlink:title="Suballocation.hpp">
<polygon fill="white" stroke="black" points="331.281,-168.5 331.281,-187.5 425.281,-187.5 425.281,-168.5 331.281,-168.5"/>
<text text-anchor="middle" x="378.281" y="-175.5" font-family="Helvetica,sans-Serif" font-size="10.00">Suballocation.hpp</text>
</a>
</g>
</g>
<!-- Node9&#45;&gt;Node14 -->
<g id="edge22" class="edge"><title>Node9&#45;&gt;Node14</title>
<path fill="none" stroke="midnightblue" d="M293.508,-224.324C309.632,-215.703 334.581,-202.364 353.245,-192.386"/>
<polygon fill="midnightblue" stroke="midnightblue" points="354.925,-195.456 362.093,-187.655 351.624,-189.283 354.925,-195.456"/>
</g>
<!-- Node10&#45;&gt;Node1 -->
<g id="edge17" class="edge"><title>Node10&#45;&gt;Node1</title>
<path fill="none" stroke="midnightblue" d="M509.089,-115.475C417.299,-104.951 218.673,-82.1788 130.263,-72.0426"/>
<polygon fill="midnightblue" stroke="midnightblue" points="130.627,-68.5615 120.294,-70.8996 129.83,-75.5159 130.627,-68.5615"/>
</g>
<!-- Node10&#45;&gt;Node4 -->
<g id="edge18" class="edge"><title>Node10&#45;&gt;Node4</title>
<path fill="none" stroke="midnightblue" d="M535.256,-112.444C512.177,-103.478 475.718,-89.314 449.64,-79.1827"/>
<polygon fill="midnightblue" stroke="midnightblue" points="450.791,-75.8753 440.202,-75.5164 448.256,-82.4002 450.791,-75.8753"/>
</g>
<!-- Node11 -->
<g id="node12" class="node"><title>Node11</title>
<polygon fill="white" stroke="#bfbfbf" points="625.281,-56.5 625.281,-75.5 665.281,-75.5 665.281,-56.5 625.281,-56.5"/>
<text text-anchor="middle" x="645.281" y="-63.5" font-family="Helvetica,sans-Serif" font-size="10.00">utility</text>
</g>
<!-- Node10&#45;&gt;Node11 -->
<g id="edge19" class="edge"><title>Node10&#45;&gt;Node11</title>
<path fill="none" stroke="midnightblue" d="M571.419,-112.324C585.147,-103.9 606.217,-90.9709 622.345,-81.0741"/>
<polygon fill="midnightblue" stroke="midnightblue" points="624.484,-83.8678 631.177,-75.6545 620.823,-77.9016 624.484,-83.8678"/>
</g>
<!-- Node12 -->
<g id="node13" class="node"><title>Node12</title>
<polygon fill="white" stroke="#bfbfbf" points="480.781,-56.5 480.781,-75.5 539.781,-75.5 539.781,-56.5 480.781,-56.5"/>
<text text-anchor="middle" x="510.281" y="-63.5" font-family="Helvetica,sans-Serif" font-size="10.00">stdexcept</text>
</g>
<!-- Node10&#45;&gt;Node12 -->
<g id="edge20" class="edge"><title>Node10&#45;&gt;Node12</title>
<path fill="none" stroke="midnightblue" d="M549.519,-112.083C542.744,-104.298 532.737,-92.8015 524.525,-83.3665"/>
<polygon fill="midnightblue" stroke="midnightblue" points="527.103,-80.9963 517.897,-75.7511 521.822,-85.592 527.103,-80.9963"/>
</g>
<!-- Node13 -->
<g id="node14" class="node"><title>Node13</title>
<polygon fill="white" stroke="#bfbfbf" points="557.781,-56.5 557.781,-75.5 606.781,-75.5 606.781,-56.5 557.781,-56.5"/>
<text text-anchor="middle" x="582.281" y="-63.5" font-family="Helvetica,sans-Serif" font-size="10.00">cassert</text>
</g>
<!-- Node10&#45;&gt;Node13 -->
<g id="edge21" class="edge"><title>Node10&#45;&gt;Node13</title>
<path fill="none" stroke="midnightblue" d="M561.409,-112.083C564.794,-104.77 569.697,-94.1814 573.899,-85.1034"/>
<polygon fill="midnightblue" stroke="midnightblue" points="577.204,-86.2962 578.229,-75.7511 570.852,-83.3553 577.204,-86.2962"/>
</g>
<!-- Node14&#45;&gt;Node1 -->
<g id="edge23" class="edge"><title>Node14&#45;&gt;Node1</title>
<path fill="none" stroke="midnightblue" d="M375.513,-168.19C370.536,-153.9 358.65,-125.874 338.281,-112 305.139,-89.4272 193.506,-76.3178 130.506,-70.5463"/>
<polygon fill="midnightblue" stroke="midnightblue" points="130.73,-67.0525 120.458,-69.6503 130.108,-74.0248 130.73,-67.0525"/>
</g>
<!-- Node14&#45;&gt;Node4 -->
<g id="edge24" class="edge"><title>Node14&#45;&gt;Node4</title>
<path fill="none" stroke="midnightblue" d="M391.345,-168.436C402.195,-160.471 416.854,-147.515 423.281,-132 429.371,-117.296 427.262,-99.1322 424.123,-85.7471"/>
<polygon fill="midnightblue" stroke="midnightblue" points="427.419,-84.5291 421.402,-75.8083 420.667,-86.3776 427.419,-84.5291"/>
</g>
<!-- Node14&#45;&gt;Node5 -->
<g id="edge27" class="edge"><title>Node14&#45;&gt;Node5</title>
<path fill="none" stroke="midnightblue" d="M367.034,-168.324C356.483,-160.185 340.48,-147.839 327.838,-138.087"/>
<polygon fill="midnightblue" stroke="midnightblue" points="329.788,-135.171 319.732,-131.834 325.512,-140.713 329.788,-135.171"/>
</g>
<!-- Node14&#45;&gt;Node10 -->
<g id="edge25" class="edge"><title>Node14&#45;&gt;Node10</title>
<path fill="none" stroke="midnightblue" d="M406.644,-168.444C437.019,-159.28 485.39,-144.688 519.097,-134.519"/>
<polygon fill="midnightblue" stroke="midnightblue" points="520.487,-137.756 529.05,-131.516 518.465,-131.054 520.487,-137.756"/>
</g>
<!-- Node15 -->
<g id="node16" class="node"><title>Node15</title>
<polygon fill="white" stroke="#bfbfbf" points="385.781,-112.5 385.781,-131.5 414.781,-131.5 414.781,-112.5 385.781,-112.5"/>
<text text-anchor="middle" x="400.281" y="-119.5" font-family="Helvetica,sans-Serif" font-size="10.00">list</text>
</g>
<!-- Node14&#45;&gt;Node15 -->
<g id="edge26" class="edge"><title>Node14&#45;&gt;Node15</title>
<path fill="none" stroke="midnightblue" d="M381.913,-168.083C384.893,-160.77 389.207,-150.181 392.905,-141.103"/>
<polygon fill="midnightblue" stroke="midnightblue" points="396.184,-142.333 396.715,-131.751 389.701,-139.691 396.184,-142.333"/>
</g>
</g>
</svg>
        <g id="navigator" transform="translate(0 0)" fill="#404254">
                <rect fill="#f2f5e9" fill-opacity="0.5" stroke="#606060" stroke-width=".5" x="0" y="0" width="60" height="60"/>
                <use id="zoomplus" xlink:href="#zoomPlus" x="17" y="9" onmousedown="handleZoom(evt,'in')"/>
                <use id="zoomminus" xlink:href="#zoomMin" x="42" y="9" onmousedown="handleZoom(evt,'out')"/>
                <use id="reset" xlink:href="#resetDef" x="30" y="36" onmousedown="handleReset()"/>
                <g id="arrowUp" xlink:href="#dirArrow" transform="translate(30 24)" onmousedown="handlePan(0,-1)">
                  <use xlink:href="#rim" fill="#404040">
                        <set attributeName="fill" to="#808080" begin="arrowUp.mouseover" end="arrowUp.mouseout"/>
                  </use>
                  <path fill="none" stroke="white" stroke-width="1.5" d="M0,-3.0v7 M-2.5,-0.5L0,-3.0L2.5,-0.5"/>
                </g>
                <g id="arrowRight" xlink:href="#dirArrow" transform="rotate(90) translate(36 -43)" onmousedown="handlePan(1,0)">
                  <use xlink:href="#rim" fill="#404040">
                        <set attributeName="fill" to="#808080" begin="arrowRight.mouseover" end="arrowRight.mouseout"/>
                  </use>
                  <path fill="none" stroke="white" stroke-width="1.5" d="M0,-3.0v7 M-2.5,-0.5L0,-3.0L2.5,-0.5"/>
                </g>
                <g id="arrowDown" xlink:href="#dirArrow" transform="rotate(180) translate(-30 -48)" onmousedown="handlePan(0,1)">
                  <use xlink:href="#rim" fill="#404040">
                        <set attributeName="fill" to="#808080" begin="arrowDown.mouseover" end="arrowDown.mouseout"/>
                  </use>
                  <path fill="none" stroke="white" stroke-width="1.5" d="M0,-3.0v7 M-2.5,-0.5L0,-3.0L2.5,-0.5"/>
                </g>
                <g id="arrowLeft" xlink:href="#dirArrow" transform="rotate(270) translate(-36 17)" onmousedown="handlePan(-1,0)">
                  <use xlink:href="#rim" fill="#404040">
                        <set attributeName="fill" to="#808080" begin="arrowLeft.mouseover" end="arrowLeft.mouseout"/>
                  </use>
                  <path fill="none" stroke="white" stroke-width="1.5" d="M0,-3.0v7 M-2.5,-0.5L0,-3.0L2.5,-0.5"/>
                </g>
        </g>
        <svg viewBox="0 0 15 15" width="100%" height="30px" preserveAspectRatio="xMaxYMin meet">
         <g id="arrow_out" transform="scale(0.3 0.3)">
          <a xlink:href="_allocation_collection_8cpp__incl_org.svg" target="_base">
           <rect id="button" ry="5" rx="5" y="6" x="6" height="38" width="38"
                fill="#f2f5e9" fill-opacity="0.5" stroke="#606060" stroke-width="1.0"/>
           <path id="arrow"
             d="M 11.500037,31.436501 C 11.940474,20.09759 22.043105,11.32322 32.158766,21.979434 L 37.068811,17.246167 C 37.068811,17.246167 37.088388,32 37.088388,32 L 22.160133,31.978069 C 22.160133,31.978069 26.997745,27.140456 26.997745,27.140456 C 18.528582,18.264221 13.291696,25.230495 11.500037,31.436501 z"
             style="fill:#404040;"/>
          </a>
         </g>
        </svg>
</svg>
