<?xml version="1.0" encoding="UTF-8" standalone="no"?>
<!DOCTYPE svg PUBLIC "-//W3C//DTD SVG 1.1//EN"
 "http://www.w3.org/Graphics/SVG/1.1/DTD/svg11.dtd">
<!-- Generated by graphviz version 2.38.0 (20140413.2041)
 -->
<!-- Title: alloc/src/AllocatorImpl.hpp Pages: 1 -->
<svg width="447pt" height="84pt"
 viewBox="0.00 0.00 446.50 84.00" xmlns="http://www.w3.org/2000/svg" xmlns:xlink="http://www.w3.org/1999/xlink">
<g id="graph0" class="graph" transform="scale(1 1) rotate(0) translate(4 80)">
<title>alloc/src/AllocatorImpl.hpp</title>
<polygon fill="white" stroke="none" points="-4,4 -4,-80 442.5,-80 442.5,4 -4,4"/>
<!-- Node24 -->
<g id="node1" class="node"><title>Node24</title>
<polygon fill="#bfbfbf" stroke="black" points="131,-56.5 131,-75.5 262,-75.5 262,-56.5 131,-56.5"/>
<text text-anchor="middle" x="196.5" y="-63.5" font-family="Helvetica,sans-Serif" font-size="10.00">alloc/src/AllocatorImpl.hpp</text>
</g>
<!-- Node25 -->
<g id="node2" class="node"><title>Node25</title>
<g id="a_node2"><a xlink:href="_allocator_8cpp.html" target="_top" xlink:title="alloc/src/Allocator.cpp">
<polygon fill="white" stroke="black" points="0,-0.5 0,-19.5 113,-19.5 113,-0.5 0,-0.5"/>
<text text-anchor="middle" x="56.5" y="-7.5" font-family="Helvetica,sans-Serif" font-size="10.00">alloc/src/Allocator.cpp</text>
</a>
</g>
</g>
<!-- Node24&#45;&gt;Node25 -->
<g id="edge1" class="edge"><title>Node24&#45;&gt;Node25</title>
<path fill="none" stroke="midnightblue" d="M164.798,-52.772C138.5,-42.6287 101.784,-28.4669 78.5796,-19.5164"/>
<polygon fill="midnightblue" stroke="midnightblue" points="163.727,-56.1103 174.317,-56.4435 166.246,-49.5792 163.727,-56.1103"/>
</g>
<!-- Node26 -->
<g id="node3" class="node"><title>Node26</title>
<g id="a_node3"><a xlink:href="_allocator_impl_8cpp.html" target="_top" xlink:title="alloc/src/AllocatorImpl.cpp">
<polygon fill="white" stroke="black" points="131,-0.5 131,-19.5 262,-19.5 262,-0.5 131,-0.5"/>
<text text-anchor="middle" x="196.5" y="-7.5" font-family="Helvetica,sans-Serif" font-size="10.00">alloc/src/AllocatorImpl.cpp</text>
</a>
</g>
</g>
<!-- Node24&#45;&gt;Node26 -->
<g id="edge2" class="edge"><title>Node24&#45;&gt;Node26</title>
<path fill="none" stroke="midnightblue" d="M196.5,-45.8045C196.5,-36.9102 196.5,-26.7798 196.5,-19.7511"/>
<polygon fill="midnightblue" stroke="midnightblue" points="193,-46.083 196.5,-56.083 200,-46.083 193,-46.083"/>
</g>
<!-- Node27 -->
<g id="node4" class="node"><title>Node27</title>
<g id="a_node4"><a xlink:href="_debug_visualization_8cpp.html" target="_top" xlink:title="alloc/src/DebugVisualization.cpp">
<polygon fill="white" stroke="black" points="280.5,-0.5 280.5,-19.5 438.5,-19.5 438.5,-0.5 280.5,-0.5"/>
<text text-anchor="middle" x="359.5" y="-7.5" font-family="Helvetica,sans-Serif" font-size="10.00">alloc/src/DebugVisualization.cpp</text>
</a>
</g>
</g>
<!-- Node24&#45;&gt;Node27 -->
<g id="edge3" class="edge"><title>Node24&#45;&gt;Node27</title>
<path fill="none" stroke="midnightblue" d="M232.203,-53.172C262.896,-43.0039 306.419,-28.5852 333.793,-19.5164"/>
<polygon fill="midnightblue" stroke="midnightblue" points="230.72,-49.9762 222.328,-56.4435 232.921,-56.6211 230.72,-49.9762"/>
</g>
</g>
</svg>
