<?xml version="1.0" encoding="UTF-8" standalone="no"?>
<!DOCTYPE svg PUBLIC "-//W3C//DTD SVG 1.1//EN"
 "http://www.w3.org/Graphics/SVG/1.1/DTD/svg11.dtd">
<!-- Generated by graphviz version 2.38.0 (20140413.2041)
 -->
<!-- Title: C:/Users/kjones/Documents/SoftwareDev/VulpesSceneKit/third_party/vulpesrender/src/alloc/Allocation.cpp Pages: 1 -->
<svg width="1703pt" height="397pt"
 viewBox="0.00 0.00 1703.00 397.00" xmlns="http://www.w3.org/2000/svg" xmlns:xlink="http://www.w3.org/1999/xlink">
<g id="graph0" class="graph" transform="scale(1 1) rotate(0) translate(4 393)">
<title>C:/Users/kjones/Documents/SoftwareDev/VulpesSceneKit/third_party/vulpesrender/src/alloc/Allocation.cpp</title>
<polygon fill="white" stroke="none" points="-4,4 -4,-393 1699,-393 1699,4 -4,4"/>
<!-- Node0 -->
<g id="node1" class="node"><title>Node0</title>
<polygon fill="#bfbfbf" stroke="black" points="321,-336.5 321,-388.5 467,-388.5 467,-336.5 321,-336.5"/>
<text text-anchor="start" x="329" y="-376.5" font-family="Helvetica,sans-Serif" font-size="10.00">C:/Users/kjones/Documents</text>
<text text-anchor="start" x="329" y="-365.5" font-family="Helvetica,sans-Serif" font-size="10.00">/SoftwareDev/VulpesSceneKit</text>
<text text-anchor="start" x="329" y="-354.5" font-family="Helvetica,sans-Serif" font-size="10.00">/third_party/vulpesrender</text>
<text text-anchor="middle" x="394" y="-343.5" font-family="Helvetica,sans-Serif" font-size="10.00">/src/alloc/Allocation.cpp</text>
</g>
<!-- Node1 -->
<g id="node2" class="node"><title>Node1</title>
<g id="a_node2"><a xlink:href="vpr__stdafx_8h.html" target="_top" xlink:title="vpr_stdafx.h">
<polygon fill="white" stroke="black" points="307,-112.5 307,-131.5 375,-131.5 375,-112.5 307,-112.5"/>
<text text-anchor="middle" x="341" y="-119.5" font-family="Helvetica,sans-Serif" font-size="10.00">vpr_stdafx.h</text>
</a>
</g>
</g>
<!-- Node0&#45;&gt;Node1 -->
<g id="edge1" class="edge"><title>Node0&#45;&gt;Node1</title>
<path fill="none" stroke="midnightblue" d="M414.206,-336.255C442.812,-297.235 487.857,-221.228 452,-168 437.107,-145.893 409.298,-134.642 385.241,-128.919"/>
<polygon fill="midnightblue" stroke="midnightblue" points="385.719,-125.442 375.21,-126.789 384.265,-132.289 385.719,-125.442"/>
</g>
<!-- Node13 -->
<g id="node14" class="node"><title>Node13</title>
<g id="a_node14"><a xlink:href="_allocation_8hpp.html" target="_top" xlink:title="alloc/Allocation.hpp">
<polygon fill="white" stroke="black" points="50.5,-168.5 50.5,-187.5 151.5,-187.5 151.5,-168.5 50.5,-168.5"/>
<text text-anchor="middle" x="101" y="-175.5" font-family="Helvetica,sans-Serif" font-size="10.00">alloc/Allocation.hpp</text>
</a>
</g>
</g>
<!-- Node0&#45;&gt;Node13 -->
<g id="edge15" class="edge"><title>Node0&#45;&gt;Node13</title>
<path fill="none" stroke="midnightblue" d="M320.587,-342.274C289.692,-332.326 254.211,-318.358 225,-300 178.299,-270.65 134.877,-221.261 114,-195.601"/>
<polygon fill="midnightblue" stroke="midnightblue" points="116.568,-193.208 107.587,-187.587 111.102,-197.582 116.568,-193.208"/>
</g>
<!-- Node16 -->
<g id="node17" class="node"><title>Node16</title>
<g id="a_node17"><a xlink:href="_memory_block_8hpp.html" target="_top" xlink:title="alloc/MemoryBlock.hpp">
<polygon fill="white" stroke="black" points="234.5,-280.5 234.5,-299.5 353.5,-299.5 353.5,-280.5 234.5,-280.5"/>
<text text-anchor="middle" x="294" y="-287.5" font-family="Helvetica,sans-Serif" font-size="10.00">alloc/MemoryBlock.hpp</text>
</a>
</g>
</g>
<!-- Node0&#45;&gt;Node16 -->
<g id="edge19" class="edge"><title>Node0&#45;&gt;Node16</title>
<path fill="none" stroke="midnightblue" d="M358.462,-336.446C343.826,-326.127 327.38,-314.533 314.764,-305.638"/>
<polygon fill="midnightblue" stroke="midnightblue" points="316.524,-302.597 306.334,-299.695 312.49,-308.318 316.524,-302.597"/>
</g>
<!-- Node20 -->
<g id="node21" class="node"><title>Node20</title>
<g id="a_node21"><a xlink:href="easylogging_09_09_8h.html" target="_top" xlink:title="util/easylogging++.h">
<polygon fill="white" stroke="black" points="1002,-112.5 1002,-131.5 1106,-131.5 1106,-112.5 1002,-112.5"/>
<text text-anchor="middle" x="1054" y="-119.5" font-family="Helvetica,sans-Serif" font-size="10.00">util/easylogging++.h</text>
</a>
</g>
</g>
<!-- Node0&#45;&gt;Node20 -->
<g id="edge31" class="edge"><title>Node0&#45;&gt;Node20</title>
<path fill="none" stroke="midnightblue" d="M463.384,-336.427C603.994,-285.616 917.92,-172.174 1020.71,-135.029"/>
<polygon fill="midnightblue" stroke="midnightblue" points="1022.05,-138.267 1030.27,-131.577 1019.67,-131.684 1022.05,-138.267"/>
</g>
<!-- Node2 -->
<g id="node3" class="node"><title>Node2</title>
<polygon fill="white" stroke="#bfbfbf" points="419.5,-0.5 419.5,-19.5 460.5,-19.5 460.5,-0.5 419.5,-0.5"/>
<text text-anchor="middle" x="440" y="-7.5" font-family="Helvetica,sans-Serif" font-size="10.00">string</text>
</g>
<!-- Node1&#45;&gt;Node2 -->
<g id="edge2" class="edge"><title>Node1&#45;&gt;Node2</title>
<path fill="none" stroke="midnightblue" d="M309.886,-112.438C276.5,-101.701 230.81,-81.5612 251,-56 270.388,-31.4537 360.89,-18.8544 409.284,-13.7753"/>
<polygon fill="midnightblue" stroke="midnightblue" points="409.892,-17.2319 419.493,-12.7501 409.193,-10.267 409.892,-17.2319"/>
</g>
<!-- Node3 -->
<g id="node4" class="node"><title>Node3</title>
<polygon fill="white" stroke="#bfbfbf" points="585,-56.5 585,-75.5 627,-75.5 627,-56.5 585,-56.5"/>
<text text-anchor="middle" x="606" y="-63.5" font-family="Helvetica,sans-Serif" font-size="10.00">vector</text>
</g>
<!-- Node1&#45;&gt;Node3 -->
<g id="edge3" class="edge"><title>Node1&#45;&gt;Node3</title>
<path fill="none" stroke="midnightblue" d="M375.093,-115.597C419.141,-108.371 498.353,-94.5469 574.957,-76.0597"/>
<polygon fill="midnightblue" stroke="midnightblue" points="575.885,-79.4359 584.768,-73.6621 574.223,-72.6359 575.885,-79.4359"/>
</g>
<!-- Node4 -->
<g id="node5" class="node"><title>Node4</title>
<polygon fill="white" stroke="#bfbfbf" points="260,-56.5 260,-75.5 298,-75.5 298,-56.5 260,-56.5"/>
<text text-anchor="middle" x="279" y="-63.5" font-family="Helvetica,sans-Serif" font-size="10.00">array</text>
</g>
<!-- Node1&#45;&gt;Node4 -->
<g id="edge4" class="edge"><title>Node1&#45;&gt;Node4</title>
<path fill="none" stroke="midnightblue" d="M331.039,-112.324C321.873,-104.341 308.063,-92.3128 296.972,-82.6529"/>
<polygon fill="midnightblue" stroke="midnightblue" points="298.982,-79.7624 289.143,-75.8339 294.385,-85.041 298.982,-79.7624"/>
</g>
<!-- Node5 -->
<g id="node6" class="node"><title>Node5</title>
<polygon fill="white" stroke="#bfbfbf" points="515,-56.5 515,-75.5 567,-75.5 567,-56.5 515,-56.5"/>
<text text-anchor="middle" x="541" y="-63.5" font-family="Helvetica,sans-Serif" font-size="10.00">memory</text>
</g>
<!-- Node1&#45;&gt;Node5 -->
<g id="edge5" class="edge"><title>Node1&#45;&gt;Node5</title>
<path fill="none" stroke="midnightblue" d="M372.691,-112.444C408.633,-102.739 467.129,-86.9452 504.829,-76.7661"/>
<polygon fill="midnightblue" stroke="midnightblue" points="506.133,-80.0394 514.875,-74.0537 504.308,-73.2814 506.133,-80.0394"/>
</g>
<!-- Node6 -->
<g id="node7" class="node"><title>Node6</title>
<polygon fill="white" stroke="#bfbfbf" points="316.5,-56.5 316.5,-75.5 365.5,-75.5 365.5,-56.5 316.5,-56.5"/>
<text text-anchor="middle" x="341" y="-63.5" font-family="Helvetica,sans-Serif" font-size="10.00">cassert</text>
</g>
<!-- Node1&#45;&gt;Node6 -->
<g id="edge6" class="edge"><title>Node1&#45;&gt;Node6</title>
<path fill="none" stroke="midnightblue" d="M341,-112.083C341,-105.006 341,-94.8611 341,-85.9865"/>
<polygon fill="midnightblue" stroke="midnightblue" points="344.5,-85.751 341,-75.7511 337.5,-85.7511 344.5,-85.751"/>
</g>
<!-- Node7 -->
<g id="node8" class="node"><title>Node7</title>
<polygon fill="white" stroke="#bfbfbf" points="0,-56.5 0,-75.5 44,-75.5 44,-56.5 0,-56.5"/>
<text text-anchor="middle" x="22" y="-63.5" font-family="Helvetica,sans-Serif" font-size="10.00">mutex</text>
</g>
<!-- Node1&#45;&gt;Node7 -->
<g id="edge7" class="edge"><title>Node1&#45;&gt;Node7</title>
<path fill="none" stroke="midnightblue" d="M306.937,-116.235C245.176,-107.508 116.08,-88.8463 54.2861,-76"/>
<polygon fill="midnightblue" stroke="midnightblue" points="54.7772,-72.5254 44.2632,-73.832 53.2971,-79.3672 54.7772,-72.5254"/>
</g>
<!-- Node8 -->
<g id="node9" class="node"><title>Node8</title>
<g id="a_node9"><a xlink:href="_create_info_base_8hpp.html" target="_top" xlink:title="common/CreateInfoBase.hpp">
<polygon fill="white" stroke="black" points="62,-56.5 62,-75.5 204,-75.5 204,-56.5 62,-56.5"/>
<text text-anchor="middle" x="133" y="-63.5" font-family="Helvetica,sans-Serif" font-size="10.00">common/CreateInfoBase.hpp</text>
</a>
</g>
</g>
<!-- Node1&#45;&gt;Node8 -->
<g id="edge8" class="edge"><title>Node1&#45;&gt;Node8</title>
<path fill="none" stroke="midnightblue" d="M308.042,-112.444C272.213,-103.142 214.837,-88.246 175.609,-78.062"/>
<polygon fill="midnightblue" stroke="midnightblue" points="176.363,-74.6417 165.804,-75.5164 174.604,-81.4171 176.363,-74.6417"/>
</g>
<!-- Node11 -->
<g id="node12" class="node"><title>Node11</title>
<g id="a_node12"><a xlink:href="vk_assert_8hpp.html" target="_top" xlink:title="common/vkAssert.hpp">
<polygon fill="white" stroke="black" points="383.5,-56.5 383.5,-75.5 496.5,-75.5 496.5,-56.5 383.5,-56.5"/>
<text text-anchor="middle" x="440" y="-63.5" font-family="Helvetica,sans-Serif" font-size="10.00">common/vkAssert.hpp</text>
</a>
</g>
</g>
<!-- Node1&#45;&gt;Node11 -->
<g id="edge11" class="edge"><title>Node1&#45;&gt;Node11</title>
<path fill="none" stroke="midnightblue" d="M356.906,-112.324C372.638,-103.743 396.942,-90.486 415.209,-80.5224"/>
<polygon fill="midnightblue" stroke="midnightblue" points="417.03,-83.5157 424.133,-75.6545 413.678,-77.3704 417.03,-83.5157"/>
</g>
<!-- Node9 -->
<g id="node10" class="node"><title>Node9</title>
<polygon fill="white" stroke="#bfbfbf" points="113,-0.5 113,-19.5 153,-19.5 153,-0.5 113,-0.5"/>
<text text-anchor="middle" x="133" y="-7.5" font-family="Helvetica,sans-Serif" font-size="10.00">limits</text>
</g>
<!-- Node8&#45;&gt;Node9 -->
<g id="edge9" class="edge"><title>Node8&#45;&gt;Node9</title>
<path fill="none" stroke="midnightblue" d="M133,-56.083C133,-49.0059 133,-38.8611 133,-29.9865"/>
<polygon fill="midnightblue" stroke="midnightblue" points="136.5,-29.751 133,-19.7511 129.5,-29.7511 136.5,-29.751"/>
</g>
<!-- Node10 -->
<g id="node11" class="node"><title>Node10</title>
<polygon fill="white" stroke="#bfbfbf" points="245,-0.5 245,-19.5 327,-19.5 327,-0.5 245,-0.5"/>
<text text-anchor="middle" x="286" y="-7.5" font-family="Helvetica,sans-Serif" font-size="10.00">vulkan/vulkan.h</text>
</g>
<!-- Node8&#45;&gt;Node10 -->
<g id="edge10" class="edge"><title>Node8&#45;&gt;Node10</title>
<path fill="none" stroke="midnightblue" d="M157.243,-56.4435C182.871,-47.3986 223.485,-33.064 252.238,-22.9158"/>
<polygon fill="midnightblue" stroke="midnightblue" points="253.605,-26.1452 261.87,-19.5164 251.275,-19.5442 253.605,-26.1452"/>
</g>
<!-- Node11&#45;&gt;Node2 -->
<g id="edge13" class="edge"><title>Node11&#45;&gt;Node2</title>
<path fill="none" stroke="midnightblue" d="M440,-56.083C440,-49.0059 440,-38.8611 440,-29.9865"/>
<polygon fill="midnightblue" stroke="midnightblue" points="443.5,-29.751 440,-19.7511 436.5,-29.7511 443.5,-29.751"/>
</g>
<!-- Node11&#45;&gt;Node10 -->
<g id="edge14" class="edge"><title>Node11&#45;&gt;Node10</title>
<path fill="none" stroke="midnightblue" d="M415.598,-56.4435C389.803,-47.3986 348.923,-33.064 319.982,-22.9158"/>
<polygon fill="midnightblue" stroke="midnightblue" points="320.882,-19.5226 310.288,-19.5164 318.566,-26.1283 320.882,-19.5226"/>
</g>
<!-- Node12 -->
<g id="node13" class="node"><title>Node12</title>
<polygon fill="white" stroke="#bfbfbf" points="681,-0.5 681,-19.5 735,-19.5 735,-0.5 681,-0.5"/>
<text text-anchor="middle" x="708" y="-7.5" font-family="Helvetica,sans-Serif" font-size="10.00">iostream</text>
</g>
<!-- Node11&#45;&gt;Node12 -->
<g id="edge12" class="edge"><title>Node11&#45;&gt;Node12</title>
<path fill="none" stroke="midnightblue" d="M482.465,-56.4435C534.414,-45.9763 621.519,-28.4252 670.897,-18.476"/>
<polygon fill="midnightblue" stroke="midnightblue" points="671.723,-21.88 680.835,-16.4736 670.34,-15.0179 671.723,-21.88"/>
</g>
<!-- Node13&#45;&gt;Node1 -->
<g id="edge16" class="edge"><title>Node13&#45;&gt;Node1</title>
<path fill="none" stroke="midnightblue" d="M139.029,-168.444C181.914,-158.794 251.556,-143.125 296.819,-132.941"/>
<polygon fill="midnightblue" stroke="midnightblue" points="297.661,-136.339 306.649,-130.729 296.124,-129.51 297.661,-136.339"/>
</g>
<!-- Node14 -->
<g id="node15" class="node"><title>Node14</title>
<g id="a_node15"><a xlink:href="_forward_decl_8hpp.html" target="_top" xlink:title="ForwardDecl.hpp">
<polygon fill="white" stroke="black" points="170.5,-112.5 170.5,-131.5 259.5,-131.5 259.5,-112.5 170.5,-112.5"/>
<text text-anchor="middle" x="215" y="-119.5" font-family="Helvetica,sans-Serif" font-size="10.00">ForwardDecl.hpp</text>
</a>
</g>
</g>
<!-- Node13&#45;&gt;Node14 -->
<g id="edge17" class="edge"><title>Node13&#45;&gt;Node14</title>
<path fill="none" stroke="midnightblue" d="M119.064,-168.444C137.575,-159.675 166.581,-145.935 187.855,-135.858"/>
<polygon fill="midnightblue" stroke="midnightblue" points="189.482,-138.96 197.021,-131.516 186.485,-132.634 189.482,-138.96"/>
</g>
<!-- Node15 -->
<g id="node16" class="node"><title>Node15</title>
<polygon fill="white" stroke="#bfbfbf" points="79,-112.5 79,-131.5 123,-131.5 123,-112.5 79,-112.5"/>
<text text-anchor="middle" x="101" y="-119.5" font-family="Helvetica,sans-Serif" font-size="10.00">variant</text>
</g>
<!-- Node13&#45;&gt;Node15 -->
<g id="edge18" class="edge"><title>Node13&#45;&gt;Node15</title>
<path fill="none" stroke="midnightblue" d="M101,-168.083C101,-161.006 101,-150.861 101,-141.986"/>
<polygon fill="midnightblue" stroke="midnightblue" points="104.5,-141.751 101,-131.751 97.5001,-141.751 104.5,-141.751"/>
</g>
<!-- Node16&#45;&gt;Node1 -->
<g id="edge20" class="edge"><title>Node16&#45;&gt;Node1</title>
<path fill="none" stroke="midnightblue" d="M321.043,-280.469C356.961,-267.364 418.078,-238.36 437,-188 440.126,-179.679 441.768,-175.502 437,-168 425.427,-149.794 404.33,-138.826 384.855,-132.285"/>
<polygon fill="midnightblue" stroke="midnightblue" points="385.762,-128.903 375.176,-129.335 383.722,-135.599 385.762,-128.903"/>
</g>
<!-- Node16&#45;&gt;Node7 -->
<g id="edge30" class="edge"><title>Node16&#45;&gt;Node7</title>
<path fill="none" stroke="midnightblue" d="M234.406,-282.094C175.765,-271.973 88.3372,-247.339 41,-188 17.4351,-158.46 17.4304,-111.627 19.6318,-85.7428"/>
<polygon fill="midnightblue" stroke="midnightblue" points="23.1173,-86.0635 20.6848,-75.7517 16.1559,-85.3297 23.1173,-86.0635"/>
</g>
<!-- Node16&#45;&gt;Node14 -->
<g id="edge21" class="edge"><title>Node16&#45;&gt;Node14</title>
<path fill="none" stroke="midnightblue" d="M280.982,-280.312C259.094,-264.82 215.677,-230.072 199,-188 192.857,-172.503 198.621,-153.966 204.877,-140.661"/>
<polygon fill="midnightblue" stroke="midnightblue" points="208.059,-142.13 209.569,-131.643 201.849,-138.899 208.059,-142.13"/>
</g>
<!-- Node17 -->
<g id="node18" class="node"><title>Node17</title>
<g id="a_node18"><a xlink:href="_alloc_common_8hpp.html" target="_top" xlink:title="AllocCommon.hpp">
<polygon fill="white" stroke="black" points="208,-168.5 208,-187.5 304,-187.5 304,-168.5 208,-168.5"/>
<text text-anchor="middle" x="256" y="-175.5" font-family="Helvetica,sans-Serif" font-size="10.00">AllocCommon.hpp</text>
</a>
</g>
</g>
<!-- Node16&#45;&gt;Node17 -->
<g id="edge22" class="edge"><title>Node16&#45;&gt;Node17</title>
<path fill="none" stroke="midnightblue" d="M290.338,-280.453C286.542,-271.459 280.539,-256.853 276,-244 270.532,-228.518 265.103,-210.676 261.284,-197.606"/>
<polygon fill="midnightblue" stroke="midnightblue" points="264.621,-196.547 258.489,-187.907 257.895,-198.485 264.621,-196.547"/>
</g>
<!-- Node18 -->
<g id="node19" class="node"><title>Node18</title>
<g id="a_node19"><a xlink:href="_suballocation_8hpp.html" target="_top" xlink:title="Suballocation.hpp">
<polygon fill="white" stroke="black" points="285,-224.5 285,-243.5 379,-243.5 379,-224.5 285,-224.5"/>
<text text-anchor="middle" x="332" y="-231.5" font-family="Helvetica,sans-Serif" font-size="10.00">Suballocation.hpp</text>
</a>
</g>
</g>
<!-- Node16&#45;&gt;Node18 -->
<g id="edge25" class="edge"><title>Node16&#45;&gt;Node18</title>
<path fill="none" stroke="midnightblue" d="M300.275,-280.083C305.642,-272.455 313.518,-261.264 320.079,-251.941"/>
<polygon fill="midnightblue" stroke="midnightblue" points="322.949,-253.943 325.842,-243.751 317.225,-249.915 322.949,-253.943"/>
</g>
<!-- Node17&#45;&gt;Node1 -->
<g id="edge23" class="edge"><title>Node17&#45;&gt;Node1</title>
<path fill="none" stroke="midnightblue" d="M269.657,-168.324C282.916,-159.9 303.268,-146.971 318.846,-137.074"/>
<polygon fill="midnightblue" stroke="midnightblue" points="320.813,-139.971 327.377,-131.655 317.06,-134.063 320.813,-139.971"/>
</g>
<!-- Node17&#45;&gt;Node14 -->
<g id="edge24" class="edge"><title>Node17&#45;&gt;Node14</title>
<path fill="none" stroke="midnightblue" d="M249.23,-168.083C243.438,-160.455 234.942,-149.264 227.862,-139.941"/>
<polygon fill="midnightblue" stroke="midnightblue" points="230.479,-137.599 221.644,-131.751 224.904,-141.832 230.479,-137.599"/>
</g>
<!-- Node18&#45;&gt;Node1 -->
<g id="edge26" class="edge"><title>Node18&#45;&gt;Node1</title>
<path fill="none" stroke="midnightblue" d="M335.6,-224.222C339.056,-215.285 344.033,-200.942 346,-188 348.341,-172.595 346.718,-154.961 344.718,-141.95"/>
<polygon fill="midnightblue" stroke="midnightblue" points="348.126,-141.124 342.953,-131.879 341.231,-142.333 348.126,-141.124"/>
</g>
<!-- Node18&#45;&gt;Node14 -->
<g id="edge27" class="edge"><title>Node18&#45;&gt;Node14</title>
<path fill="none" stroke="midnightblue" d="M331.692,-224.353C330.769,-210.788 327.14,-184.372 313,-168 299.453,-152.314 279.297,-141.78 260.78,-134.874"/>
<polygon fill="midnightblue" stroke="midnightblue" points="261.885,-131.553 251.291,-131.586 259.593,-138.167 261.885,-131.553"/>
</g>
<!-- Node18&#45;&gt;Node17 -->
<g id="edge28" class="edge"><title>Node18&#45;&gt;Node17</title>
<path fill="none" stroke="midnightblue" d="M319.789,-224.324C308.224,-216.107 290.625,-203.602 276.839,-193.807"/>
<polygon fill="midnightblue" stroke="midnightblue" points="278.612,-190.773 268.433,-187.834 274.557,-196.479 278.612,-190.773"/>
</g>
<!-- Node19 -->
<g id="node20" class="node"><title>Node19</title>
<polygon fill="white" stroke="#bfbfbf" points="398.5,-168.5 398.5,-187.5 427.5,-187.5 427.5,-168.5 398.5,-168.5"/>
<text text-anchor="middle" x="413" y="-175.5" font-family="Helvetica,sans-Serif" font-size="10.00">list</text>
</g>
<!-- Node18&#45;&gt;Node19 -->
<g id="edge29" class="edge"><title>Node18&#45;&gt;Node19</title>
<path fill="none" stroke="midnightblue" d="M345.014,-224.324C357.532,-215.979 376.682,-203.212 391.471,-193.352"/>
<polygon fill="midnightblue" stroke="midnightblue" points="393.639,-196.114 400.018,-187.655 389.756,-190.289 393.639,-196.114"/>
</g>
<!-- Node20&#45;&gt;Node2 -->
<g id="edge40" class="edge"><title>Node20&#45;&gt;Node2</title>
<path fill="none" stroke="midnightblue" d="M1001.93,-120.611C927.759,-118.768 788.131,-110.502 675,-76 656.368,-70.3176 654.3,-62.6752 636,-56 579.216,-35.2872 509.595,-22.0088 470.469,-15.5824"/>
<polygon fill="midnightblue" stroke="midnightblue" points="470.938,-12.1129 460.51,-13.9871 469.831,-19.0248 470.938,-12.1129"/>
</g>
<!-- Node20&#45;&gt;Node3 -->
<g id="edge41" class="edge"><title>Node20&#45;&gt;Node3</title>
<path fill="none" stroke="midnightblue" d="M1001.82,-117.72C923.135,-112.233 769.613,-99.4184 641,-76 639.75,-75.7724 638.479,-75.5245 637.198,-75.2609"/>
<polygon fill="midnightblue" stroke="midnightblue" points="637.893,-71.8296 627.364,-73.0106 636.331,-78.6532 637.893,-71.8296"/>
</g>
<!-- Node20&#45;&gt;Node5 -->
<g id="edge49" class="edge"><title>Node20&#45;&gt;Node5</title>
<path fill="none" stroke="midnightblue" d="M1001.65,-118.778C915.145,-114.515 736.85,-103.237 577.274,-75.9651"/>
<polygon fill="midnightblue" stroke="midnightblue" points="577.728,-72.4916 567.276,-74.231 576.531,-79.3886 577.728,-72.4916"/>
</g>
<!-- Node20&#45;&gt;Node12 -->
<g id="edge47" class="edge"><title>Node20&#45;&gt;Node12</title>
<path fill="none" stroke="midnightblue" d="M1027.72,-112.434C1002.56,-103.989 963.708,-90.305 931,-76 913.153,-68.1943 910.252,-62.8048 892,-56 842.569,-37.5712 782.837,-24.5685 745.124,-17.428"/>
<polygon fill="midnightblue" stroke="midnightblue" points="745.568,-13.9508 735.098,-15.5698 744.293,-20.8335 745.568,-13.9508"/>
</g>
<!-- Node21 -->
<g id="node22" class="node"><title>Node21</title>
<polygon fill="white" stroke="#bfbfbf" points="939.5,-56.5 939.5,-75.5 980.5,-75.5 980.5,-56.5 939.5,-56.5"/>
<text text-anchor="middle" x="960" y="-63.5" font-family="Helvetica,sans-Serif" font-size="10.00">ctime</text>
</g>
<!-- Node20&#45;&gt;Node21 -->
<g id="edge32" class="edge"><title>Node20&#45;&gt;Node21</title>
<path fill="none" stroke="midnightblue" d="M1038.9,-112.324C1024.1,-103.822 1001.31,-90.7288 984.018,-80.7975"/>
<polygon fill="midnightblue" stroke="midnightblue" points="985.48,-77.6009 975.065,-75.6545 981.993,-83.6707 985.48,-77.6009"/>
</g>
<!-- Node22 -->
<g id="node23" class="node"><title>Node22</title>
<polygon fill="white" stroke="#bfbfbf" points="999,-56.5 999,-75.5 1045,-75.5 1045,-56.5 999,-56.5"/>
<text text-anchor="middle" x="1022" y="-63.5" font-family="Helvetica,sans-Serif" font-size="10.00">cstring</text>
</g>
<!-- Node20&#45;&gt;Node22 -->
<g id="edge33" class="edge"><title>Node20&#45;&gt;Node22</title>
<path fill="none" stroke="midnightblue" d="M1048.72,-112.083C1044.29,-104.613 1037.84,-93.7244 1032.38,-84.5199"/>
<polygon fill="midnightblue" stroke="midnightblue" points="1035.29,-82.5697 1027.19,-75.7511 1029.27,-86.1383 1035.29,-82.5697"/>
</g>
<!-- Node23 -->
<g id="node24" class="node"><title>Node23</title>
<polygon fill="white" stroke="#bfbfbf" points="1063.5,-56.5 1063.5,-75.5 1108.5,-75.5 1108.5,-56.5 1063.5,-56.5"/>
<text text-anchor="middle" x="1086" y="-63.5" font-family="Helvetica,sans-Serif" font-size="10.00">cstdlib</text>
</g>
<!-- Node20&#45;&gt;Node23 -->
<g id="edge34" class="edge"><title>Node20&#45;&gt;Node23</title>
<path fill="none" stroke="midnightblue" d="M1059.28,-112.083C1063.71,-104.613 1070.16,-93.7244 1075.62,-84.5199"/>
<polygon fill="midnightblue" stroke="midnightblue" points="1078.73,-86.1383 1080.81,-75.7511 1072.71,-82.5697 1078.73,-86.1383"/>
</g>
<!-- Node24 -->
<g id="node25" class="node"><title>Node24</title>
<polygon fill="white" stroke="#bfbfbf" points="1127,-56.5 1127,-75.5 1173,-75.5 1173,-56.5 1127,-56.5"/>
<text text-anchor="middle" x="1150" y="-63.5" font-family="Helvetica,sans-Serif" font-size="10.00">cctype</text>
</g>
<!-- Node20&#45;&gt;Node24 -->
<g id="edge35" class="edge"><title>Node20&#45;&gt;Node24</title>
<path fill="none" stroke="midnightblue" d="M1069.42,-112.324C1084.54,-103.822 1107.82,-90.7288 1125.47,-80.7975"/>
<polygon fill="midnightblue" stroke="midnightblue" points="1127.61,-83.6077 1134.61,-75.6545 1124.18,-77.5066 1127.61,-83.6077"/>
</g>
<!-- Node25 -->
<g id="node26" class="node"><title>Node25</title>
<polygon fill="white" stroke="#bfbfbf" points="1191.5,-56.5 1191.5,-75.5 1238.5,-75.5 1238.5,-56.5 1191.5,-56.5"/>
<text text-anchor="middle" x="1215" y="-63.5" font-family="Helvetica,sans-Serif" font-size="10.00">cwchar</text>
</g>
<!-- Node20&#45;&gt;Node25 -->
<g id="edge36" class="edge"><title>Node20&#45;&gt;Node25</title>
<path fill="none" stroke="midnightblue" d="M1079.51,-112.444C1107.15,-103.172 1151.37,-88.3427 1181.72,-78.1614"/>
<polygon fill="midnightblue" stroke="midnightblue" points="1183.07,-81.3999 1191.44,-74.9015 1180.85,-74.7632 1183.07,-81.3999"/>
</g>
<!-- Node26 -->
<g id="node27" class="node"><title>Node26</title>
<polygon fill="white" stroke="#bfbfbf" points="1256.5,-56.5 1256.5,-75.5 1303.5,-75.5 1303.5,-56.5 1256.5,-56.5"/>
<text text-anchor="middle" x="1280" y="-63.5" font-family="Helvetica,sans-Serif" font-size="10.00">csignal</text>
</g>
<!-- Node20&#45;&gt;Node26 -->
<g id="edge37" class="edge"><title>Node20&#45;&gt;Node26</title>
<path fill="none" stroke="midnightblue" d="M1093.15,-112.478C1130.35,-104.254 1188.09,-91.1712 1246.51,-76.3054"/>
<polygon fill="midnightblue" stroke="midnightblue" points="1247.45,-79.6777 1256.27,-73.8066 1245.71,-72.8964 1247.45,-79.6777"/>
</g>
<!-- Node27 -->
<g id="node28" class="node"><title>Node27</title>
<polygon fill="white" stroke="#bfbfbf" points="1322,-56.5 1322,-75.5 1366,-75.5 1366,-56.5 1322,-56.5"/>
<text text-anchor="middle" x="1344" y="-63.5" font-family="Helvetica,sans-Serif" font-size="10.00">cerrno</text>
</g>
<!-- Node20&#45;&gt;Node27 -->
<g id="edge38" class="edge"><title>Node20&#45;&gt;Node27</title>
<path fill="none" stroke="midnightblue" d="M1106.43,-113.63C1156.84,-106.155 1235.31,-93.4957 1311.91,-76.0505"/>
<polygon fill="midnightblue" stroke="midnightblue" points="1312.77,-79.4445 1321.73,-73.7859 1311.2,-72.6237 1312.77,-79.4445"/>
</g>
<!-- Node28 -->
<g id="node29" class="node"><title>Node28</title>
<polygon fill="white" stroke="#bfbfbf" points="1384.5,-56.5 1384.5,-75.5 1433.5,-75.5 1433.5,-56.5 1384.5,-56.5"/>
<text text-anchor="middle" x="1409" y="-63.5" font-family="Helvetica,sans-Serif" font-size="10.00">cstdarg</text>
</g>
<!-- Node20&#45;&gt;Node28 -->
<g id="edge39" class="edge"><title>Node20&#45;&gt;Node28</title>
<path fill="none" stroke="midnightblue" d="M1106.03,-115.642C1167.73,-108.858 1273.83,-95.8438 1374.19,-75.9426"/>
<polygon fill="midnightblue" stroke="midnightblue" points="1375.08,-79.3336 1384.2,-73.9316 1373.7,-72.4709 1375.08,-79.3336"/>
</g>
<!-- Node29 -->
<g id="node30" class="node"><title>Node29</title>
<polygon fill="white" stroke="#bfbfbf" points="1451.5,-56.5 1451.5,-75.5 1486.5,-75.5 1486.5,-56.5 1451.5,-56.5"/>
<text text-anchor="middle" x="1469" y="-63.5" font-family="Helvetica,sans-Serif" font-size="10.00">map</text>
</g>
<!-- Node20&#45;&gt;Node29 -->
<g id="edge42" class="edge"><title>Node20&#45;&gt;Node29</title>
<path fill="none" stroke="midnightblue" d="M1106.21,-118.579C1179.46,-114.39 1316.86,-103.643 1441.18,-76.0011"/>
<polygon fill="midnightblue" stroke="midnightblue" points="1442.27,-79.3427 1451.25,-73.718 1440.72,-72.516 1442.27,-79.3427"/>
</g>
<!-- Node30 -->
<g id="node31" class="node"><title>Node30</title>
<polygon fill="white" stroke="#bfbfbf" points="1505,-56.5 1505,-75.5 1545,-75.5 1545,-56.5 1505,-56.5"/>
<text text-anchor="middle" x="1525" y="-63.5" font-family="Helvetica,sans-Serif" font-size="10.00">utility</text>
</g>
<!-- Node20&#45;&gt;Node30 -->
<g id="edge43" class="edge"><title>Node20&#45;&gt;Node30</title>
<path fill="none" stroke="midnightblue" d="M1106.22,-119.054C1187.57,-115.287 1349.46,-104.845 1494.86,-75.8448"/>
<polygon fill="midnightblue" stroke="midnightblue" points="1495.75,-79.2353 1504.85,-73.8162 1494.36,-72.3752 1495.75,-79.2353"/>
</g>
<!-- Node31 -->
<g id="node32" class="node"><title>Node31</title>
<polygon fill="white" stroke="#bfbfbf" points="1563,-56.5 1563,-75.5 1621,-75.5 1621,-56.5 1563,-56.5"/>
<text text-anchor="middle" x="1592" y="-63.5" font-family="Helvetica,sans-Serif" font-size="10.00">functional</text>
</g>
<!-- Node20&#45;&gt;Node31 -->
<g id="edge44" class="edge"><title>Node20&#45;&gt;Node31</title>
<path fill="none" stroke="midnightblue" d="M1106.13,-118.763C1195.61,-114.387 1384.28,-102.826 1552.59,-76.0153"/>
<polygon fill="midnightblue" stroke="midnightblue" points="1553.31,-79.4446 1562.62,-74.3949 1552.19,-72.5342 1553.31,-79.4446"/>
</g>
<!-- Node32 -->
<g id="node33" class="node"><title>Node32</title>
<polygon fill="white" stroke="#bfbfbf" points="1639,-56.5 1639,-75.5 1695,-75.5 1695,-56.5 1639,-56.5"/>
<text text-anchor="middle" x="1667" y="-63.5" font-family="Helvetica,sans-Serif" font-size="10.00">algorithm</text>
</g>
<!-- Node20&#45;&gt;Node32 -->
<g id="edge45" class="edge"><title>Node20&#45;&gt;Node32</title>
<path fill="none" stroke="midnightblue" d="M1106.35,-119.722C1206.24,-116.673 1430.96,-106.887 1628.82,-75.9361"/>
<polygon fill="midnightblue" stroke="midnightblue" points="1629.48,-79.3739 1638.81,-74.3505 1628.39,-72.4604 1629.48,-79.3739"/>
</g>
<!-- Node33 -->
<g id="node34" class="node"><title>Node33</title>
<polygon fill="white" stroke="#bfbfbf" points="683.5,-56.5 683.5,-75.5 732.5,-75.5 732.5,-56.5 683.5,-56.5"/>
<text text-anchor="middle" x="708" y="-63.5" font-family="Helvetica,sans-Serif" font-size="10.00">fstream</text>
</g>
<!-- Node20&#45;&gt;Node33 -->
<g id="edge46" class="edge"><title>Node20&#45;&gt;Node33</title>
<path fill="none" stroke="midnightblue" d="M1001.79,-115.339C941.635,-108.401 839.679,-95.3683 742.769,-75.944"/>
<polygon fill="midnightblue" stroke="midnightblue" points="743.301,-72.4806 732.804,-73.92 741.908,-79.3405 743.301,-72.4806"/>
</g>
<!-- Node34 -->
<g id="node35" class="node"><title>Node34</title>
<polygon fill="white" stroke="#bfbfbf" points="751,-56.5 751,-75.5 803,-75.5 803,-56.5 751,-56.5"/>
<text text-anchor="middle" x="777" y="-63.5" font-family="Helvetica,sans-Serif" font-size="10.00">sstream</text>
</g>
<!-- Node20&#45;&gt;Node34 -->
<g id="edge48" class="edge"><title>Node20&#45;&gt;Node34</title>
<path fill="none" stroke="midnightblue" d="M1002.34,-112.439C955.408,-104.426 884.065,-91.6608 813.305,-76.1766"/>
<polygon fill="midnightblue" stroke="midnightblue" points="813.847,-72.7119 803.327,-73.9739 812.338,-79.5474 813.847,-72.7119"/>
</g>
<!-- Node35 -->
<g id="node36" class="node"><title>Node35</title>
<polygon fill="white" stroke="#bfbfbf" points="821,-56.5 821,-75.5 883,-75.5 883,-56.5 821,-56.5"/>
<text text-anchor="middle" x="852" y="-63.5" font-family="Helvetica,sans-Serif" font-size="10.00">type_traits</text>
</g>
<!-- Node20&#45;&gt;Node35 -->
<g id="edge50" class="edge"><title>Node20&#45;&gt;Node35</title>
<path fill="none" stroke="midnightblue" d="M1021.99,-112.444C987.067,-103.107 931.058,-88.1343 892.953,-77.9478"/>
<polygon fill="midnightblue" stroke="midnightblue" points="893.759,-74.5404 883.194,-75.339 891.951,-81.3029 893.759,-74.5404"/>
</g>
</g>
</svg>
