<?xml version="1.0" encoding="UTF-8" standalone="no"?>
<!DOCTYPE svg PUBLIC "-//W3C//DTD SVG 1.1//EN"
 "http://www.w3.org/Graphics/SVG/1.1/DTD/svg11.dtd">
<!-- Generated by graphviz version 2.38.0 (20140413.2041)
 -->
<!-- Title: alloc/include/Allocation.hpp Pages: 1 -->
<svg width="631pt" height="140pt"
 viewBox="0.00 0.00 631.00 140.00" xmlns="http://www.w3.org/2000/svg" xmlns:xlink="http://www.w3.org/1999/xlink">
<g id="graph0" class="graph" transform="scale(1 1) rotate(0) translate(4 136)">
<title>alloc/include/Allocation.hpp</title>
<polygon fill="white" stroke="none" points="-4,4 -4,-136 627,-136 627,4 -4,4"/>
<!-- Node5 -->
<g id="node1" class="node"><title>Node5</title>
<polygon fill="#bfbfbf" stroke="black" points="209.5,-112.5 209.5,-131.5 344.5,-131.5 344.5,-112.5 209.5,-112.5"/>
<text text-anchor="middle" x="277" y="-119.5" font-family="Helvetica,sans-Serif" font-size="10.00">alloc/include/Allocation.hpp</text>
</g>
<!-- Node6 -->
<g id="node2" class="node"><title>Node6</title>
<g id="a_node2"><a xlink:href="_allocation_8cpp.html" target="_top" xlink:title="alloc/src/Allocation.cpp">
<polygon fill="white" stroke="black" points="0,-56.5 0,-75.5 118,-75.5 118,-56.5 0,-56.5"/>
<text text-anchor="middle" x="59" y="-63.5" font-family="Helvetica,sans-Serif" font-size="10.00">alloc/src/Allocation.cpp</text>
</a>
</g>
</g>
<!-- Node5&#45;&gt;Node6 -->
<g id="edge1" class="edge"><title>Node5&#45;&gt;Node6</title>
<path fill="none" stroke="midnightblue" d="M232.688,-110.024C191.508,-99.8232 131.027,-84.8414 93.3811,-75.5164"/>
<polygon fill="midnightblue" stroke="midnightblue" points="231.909,-113.436 242.457,-112.444 233.592,-106.642 231.909,-113.436"/>
</g>
<!-- Node7 -->
<g id="node3" class="node"><title>Node7</title>
<g id="a_node3"><a xlink:href="_allocator_impl_8hpp.html" target="_top" xlink:title="alloc/src/AllocatorImpl.hpp">
<polygon fill="white" stroke="black" points="136.5,-56.5 136.5,-75.5 267.5,-75.5 267.5,-56.5 136.5,-56.5"/>
<text text-anchor="middle" x="202" y="-63.5" font-family="Helvetica,sans-Serif" font-size="10.00">alloc/src/AllocatorImpl.hpp</text>
</a>
</g>
</g>
<!-- Node5&#45;&gt;Node7 -->
<g id="edge2" class="edge"><title>Node5&#45;&gt;Node7</title>
<path fill="none" stroke="midnightblue" d="M256.695,-106.38C243.139,-96.6204 225.758,-84.1057 214.269,-75.8339"/>
<polygon fill="midnightblue" stroke="midnightblue" points="254.79,-109.321 264.95,-112.324 258.88,-103.641 254.79,-109.321"/>
</g>
<!-- Node11 -->
<g id="node7" class="node"><title>Node11</title>
<g id="a_node7"><a xlink:href="_memory_block_8cpp.html" target="_top" xlink:title="alloc/src/MemoryBlock.cpp">
<polygon fill="white" stroke="black" points="285.5,-56.5 285.5,-75.5 420.5,-75.5 420.5,-56.5 285.5,-56.5"/>
<text text-anchor="middle" x="353" y="-63.5" font-family="Helvetica,sans-Serif" font-size="10.00">alloc/src/MemoryBlock.cpp</text>
</a>
</g>
</g>
<!-- Node5&#45;&gt;Node11 -->
<g id="edge6" class="edge"><title>Node5&#45;&gt;Node11</title>
<path fill="none" stroke="midnightblue" d="M297.576,-106.38C311.312,-96.6204 328.925,-84.1057 340.567,-75.8339"/>
<polygon fill="midnightblue" stroke="midnightblue" points="295.335,-103.679 289.211,-112.324 299.39,-109.385 295.335,-103.679"/>
</g>
<!-- Node12 -->
<g id="node8" class="node"><title>Node12</title>
<g id="a_node8"><a xlink:href="_buffer_deprecated_8hpp.html" target="_top" xlink:title="resource/include/BufferDeprecated.hpp">
<polygon fill="white" stroke="black" points="439,-56.5 439,-75.5 623,-75.5 623,-56.5 439,-56.5"/>
<text text-anchor="middle" x="531" y="-63.5" font-family="Helvetica,sans-Serif" font-size="10.00">resource/include/BufferDeprecated.hpp</text>
</a>
</g>
</g>
<!-- Node5&#45;&gt;Node12 -->
<g id="edge7" class="edge"><title>Node5&#45;&gt;Node12</title>
<path fill="none" stroke="midnightblue" d="M327.115,-110.346C375.117,-100.141 446.615,-84.94 490.941,-75.5164"/>
<polygon fill="midnightblue" stroke="midnightblue" points="326.301,-106.94 317.247,-112.444 327.756,-113.787 326.301,-106.94"/>
</g>
<!-- Node8 -->
<g id="node4" class="node"><title>Node8</title>
<g id="a_node4"><a xlink:href="_allocator_8cpp.html" target="_top" xlink:title="alloc/src/Allocator.cpp">
<polygon fill="white" stroke="black" points="5.5,-0.5 5.5,-19.5 118.5,-19.5 118.5,-0.5 5.5,-0.5"/>
<text text-anchor="middle" x="62" y="-7.5" font-family="Helvetica,sans-Serif" font-size="10.00">alloc/src/Allocator.cpp</text>
</a>
</g>
</g>
<!-- Node7&#45;&gt;Node8 -->
<g id="edge3" class="edge"><title>Node7&#45;&gt;Node8</title>
<path fill="none" stroke="midnightblue" d="M170.298,-52.772C144,-42.6287 107.284,-28.4669 84.0796,-19.5164"/>
<polygon fill="midnightblue" stroke="midnightblue" points="169.227,-56.1103 179.817,-56.4435 171.746,-49.5792 169.227,-56.1103"/>
</g>
<!-- Node9 -->
<g id="node5" class="node"><title>Node9</title>
<g id="a_node5"><a xlink:href="_allocator_impl_8cpp.html" target="_top" xlink:title="alloc/src/AllocatorImpl.cpp">
<polygon fill="white" stroke="black" points="136.5,-0.5 136.5,-19.5 267.5,-19.5 267.5,-0.5 136.5,-0.5"/>
<text text-anchor="middle" x="202" y="-7.5" font-family="Helvetica,sans-Serif" font-size="10.00">alloc/src/AllocatorImpl.cpp</text>
</a>
</g>
</g>
<!-- Node7&#45;&gt;Node9 -->
<g id="edge4" class="edge"><title>Node7&#45;&gt;Node9</title>
<path fill="none" stroke="midnightblue" d="M202,-45.8045C202,-36.9102 202,-26.7798 202,-19.7511"/>
<polygon fill="midnightblue" stroke="midnightblue" points="198.5,-46.083 202,-56.083 205.5,-46.083 198.5,-46.083"/>
</g>
<!-- Node10 -->
<g id="node6" class="node"><title>Node10</title>
<g id="a_node6"><a xlink:href="_debug_visualization_8cpp.html" target="_top" xlink:title="alloc/src/DebugVisualization.cpp">
<polygon fill="white" stroke="black" points="286,-0.5 286,-19.5 444,-19.5 444,-0.5 286,-0.5"/>
<text text-anchor="middle" x="365" y="-7.5" font-family="Helvetica,sans-Serif" font-size="10.00">alloc/src/DebugVisualization.cpp</text>
</a>
</g>
</g>
<!-- Node7&#45;&gt;Node10 -->
<g id="edge5" class="edge"><title>Node7&#45;&gt;Node10</title>
<path fill="none" stroke="midnightblue" d="M237.703,-53.172C268.396,-43.0039 311.919,-28.5852 339.293,-19.5164"/>
<polygon fill="midnightblue" stroke="midnightblue" points="236.22,-49.9762 227.828,-56.4435 238.421,-56.6211 236.22,-49.9762"/>
</g>
</g>
</svg>
