<?xml version="1.0" encoding="UTF-8" standalone="no"?>
<!DOCTYPE svg PUBLIC "-//W3C//DTD SVG 1.1//EN"
 "http://www.w3.org/Graphics/SVG/1.1/DTD/svg11.dtd">
<!-- Generated by graphviz version 2.38.0 (20140413.2041)
 -->
<!-- Title: C:/Users/kjones/Documents/SoftwareDev/VulpesSceneKit/third_party/vulpesrender/include/alloc/AllocCommon.hpp Pages: 1 -->
<svg width="1156pt" height="328pt"
 viewBox="0.00 0.00 1156.00 328.00" xmlns="http://www.w3.org/2000/svg" xmlns:xlink="http://www.w3.org/1999/xlink">
<g id="graph0" class="graph" transform="scale(1 1) rotate(0) translate(4 324)">
<title>C:/Users/kjones/Documents/SoftwareDev/VulpesSceneKit/third_party/vulpesrender/include/alloc/AllocCommon.hpp</title>
<polygon fill="white" stroke="none" points="-4,4 -4,-324 1152,-324 1152,4 -4,4"/>
<!-- Node14 -->
<g id="node1" class="node"><title>Node14</title>
<polygon fill="#bfbfbf" stroke="black" points="443,-267.5 443,-319.5 599,-319.5 599,-267.5 443,-267.5"/>
<text text-anchor="start" x="451" y="-307.5" font-family="Helvetica,sans-Serif" font-size="10.00">C:/Users/kjones/Documents</text>
<text text-anchor="start" x="451" y="-296.5" font-family="Helvetica,sans-Serif" font-size="10.00">/SoftwareDev/VulpesSceneKit</text>
<text text-anchor="start" x="451" y="-285.5" font-family="Helvetica,sans-Serif" font-size="10.00">/third_party/vulpesrender</text>
<text text-anchor="middle" x="521" y="-274.5" font-family="Helvetica,sans-Serif" font-size="10.00">/include/alloc/AllocCommon.hpp</text>
</g>
<!-- Node15 -->
<g id="node2" class="node"><title>Node15</title>
<g id="a_node2"><a xlink:href="_allocator_8hpp.html" target="_top" xlink:title="C:/Users/kjones/Documents\l/SoftwareDev/VulpesSceneKit\l/third_party/vulpesrender\l/include/alloc/Allocator.hpp">
<polygon fill="white" stroke="black" points="512,-89.5 512,-141.5 658,-141.5 658,-89.5 512,-89.5"/>
<text text-anchor="start" x="520" y="-129.5" font-family="Helvetica,sans-Serif" font-size="10.00">C:/Users/kjones/Documents</text>
<text text-anchor="start" x="520" y="-118.5" font-family="Helvetica,sans-Serif" font-size="10.00">/SoftwareDev/VulpesSceneKit</text>
<text text-anchor="start" x="520" y="-107.5" font-family="Helvetica,sans-Serif" font-size="10.00">/third_party/vulpesrender</text>
<text text-anchor="middle" x="585" y="-96.5" font-family="Helvetica,sans-Serif" font-size="10.00">/include/alloc/Allocator.hpp</text>
</a>
</g>
</g>
<!-- Node14&#45;&gt;Node15 -->
<g id="edge1" class="edge"><title>Node14&#45;&gt;Node15</title>
<path fill="none" stroke="midnightblue" d="M533.658,-257.69C546.099,-223.478 564.782,-172.1 575.847,-141.67"/>
<polygon fill="midnightblue" stroke="midnightblue" points="530.298,-256.689 530.17,-267.283 536.876,-259.082 530.298,-256.689"/>
</g>
<!-- Node22 -->
<g id="node9" class="node"><title>Node22</title>
<g id="a_node9"><a xlink:href="_memory_block_8hpp.html" target="_top" xlink:title="C:/Users/kjones/Documents\l/SoftwareDev/VulpesSceneKit\l/third_party/vulpesrender\l/include/alloc/MemoryBlock.hpp">
<polygon fill="white" stroke="black" points="338.5,-89.5 338.5,-141.5 493.5,-141.5 493.5,-89.5 338.5,-89.5"/>
<text text-anchor="start" x="346.5" y="-129.5" font-family="Helvetica,sans-Serif" font-size="10.00">C:/Users/kjones/Documents</text>
<text text-anchor="start" x="346.5" y="-118.5" font-family="Helvetica,sans-Serif" font-size="10.00">/SoftwareDev/VulpesSceneKit</text>
<text text-anchor="start" x="346.5" y="-107.5" font-family="Helvetica,sans-Serif" font-size="10.00">/third_party/vulpesrender</text>
<text text-anchor="middle" x="416" y="-96.5" font-family="Helvetica,sans-Serif" font-size="10.00">/include/alloc/MemoryBlock.hpp</text>
</a>
</g>
</g>
<!-- Node14&#45;&gt;Node22 -->
<g id="edge8" class="edge"><title>Node14&#45;&gt;Node22</title>
<path fill="none" stroke="midnightblue" d="M521.994,-257.251C521.109,-233.259 516.759,-201.687 502,-178 492.876,-163.356 478.857,-151.174 464.768,-141.621"/>
<polygon fill="midnightblue" stroke="midnightblue" points="518.496,-257.42 522.181,-267.353 525.495,-257.29 518.496,-257.42"/>
</g>
<!-- Node24 -->
<g id="node11" class="node"><title>Node24</title>
<g id="a_node11"><a xlink:href="_suballocation_8hpp.html" target="_top" xlink:title="C:/Users/kjones/Documents\l/SoftwareDev/VulpesSceneKit\l/third_party/vulpesrender\l/include/alloc/Suballocation.hpp">
<polygon fill="white" stroke="black" points="339,-178.5 339,-230.5 493,-230.5 493,-178.5 339,-178.5"/>
<text text-anchor="start" x="347" y="-218.5" font-family="Helvetica,sans-Serif" font-size="10.00">C:/Users/kjones/Documents</text>
<text text-anchor="start" x="347" y="-207.5" font-family="Helvetica,sans-Serif" font-size="10.00">/SoftwareDev/VulpesSceneKit</text>
<text text-anchor="start" x="347" y="-196.5" font-family="Helvetica,sans-Serif" font-size="10.00">/third_party/vulpesrender</text>
<text text-anchor="middle" x="416" y="-185.5" font-family="Helvetica,sans-Serif" font-size="10.00">/include/alloc/Suballocation.hpp</text>
</a>
</g>
</g>
<!-- Node14&#45;&gt;Node24 -->
<g id="edge13" class="edge"><title>Node14&#45;&gt;Node24</title>
<path fill="none" stroke="midnightblue" d="M482.903,-260.934C470.861,-250.956 457.723,-240.07 446.302,-230.607"/>
<polygon fill="midnightblue" stroke="midnightblue" points="480.696,-263.651 490.63,-267.336 485.162,-258.261 480.696,-263.651"/>
</g>
<!-- Node16 -->
<g id="node3" class="node"><title>Node16</title>
<g id="a_node3"><a xlink:href="_allocation_collection_8cpp.html" target="_top" xlink:title="C:/Users/kjones/Documents\l/SoftwareDev/VulpesSceneKit\l/third_party/vulpesrender\l/src/alloc/AllocationCollection.cpp">
<polygon fill="white" stroke="black" points="164,-0.5 164,-52.5 328,-52.5 328,-0.5 164,-0.5"/>
<text text-anchor="start" x="172" y="-40.5" font-family="Helvetica,sans-Serif" font-size="10.00">C:/Users/kjones/Documents</text>
<text text-anchor="start" x="172" y="-29.5" font-family="Helvetica,sans-Serif" font-size="10.00">/SoftwareDev/VulpesSceneKit</text>
<text text-anchor="start" x="172" y="-18.5" font-family="Helvetica,sans-Serif" font-size="10.00">/third_party/vulpesrender</text>
<text text-anchor="middle" x="246" y="-7.5" font-family="Helvetica,sans-Serif" font-size="10.00">/src/alloc/AllocationCollection.cpp</text>
</a>
</g>
</g>
<!-- Node15&#45;&gt;Node16 -->
<g id="edge2" class="edge"><title>Node15&#45;&gt;Node16</title>
<path fill="none" stroke="midnightblue" d="M502.301,-89.079C502.201,-89.0526 502.1,-89.0263 502,-89 429.396,-69.9619 409.835,-71.1341 337,-53 334.134,-52.2865 331.222,-51.5472 328.283,-50.7894"/>
<polygon fill="midnightblue" stroke="midnightblue" points="501.207,-92.4089 511.774,-91.641 503.035,-85.6517 501.207,-92.4089"/>
</g>
<!-- Node17 -->
<g id="node4" class="node"><title>Node17</title>
<g id="a_node4"><a xlink:href="_allocator_8cpp.html" target="_top" xlink:title="C:/Users/kjones/Documents\l/SoftwareDev/VulpesSceneKit\l/third_party/vulpesrender\l/src/alloc/Allocator.cpp">
<polygon fill="white" stroke="black" points="346,-0.5 346,-52.5 492,-52.5 492,-0.5 346,-0.5"/>
<text text-anchor="start" x="354" y="-40.5" font-family="Helvetica,sans-Serif" font-size="10.00">C:/Users/kjones/Documents</text>
<text text-anchor="start" x="354" y="-29.5" font-family="Helvetica,sans-Serif" font-size="10.00">/SoftwareDev/VulpesSceneKit</text>
<text text-anchor="start" x="354" y="-18.5" font-family="Helvetica,sans-Serif" font-size="10.00">/third_party/vulpesrender</text>
<text text-anchor="middle" x="419" y="-7.5" font-family="Helvetica,sans-Serif" font-size="10.00">/src/alloc/Allocator.cpp</text>
</a>
</g>
</g>
<!-- Node15&#45;&gt;Node17 -->
<g id="edge3" class="edge"><title>Node15&#45;&gt;Node17</title>
<path fill="none" stroke="midnightblue" d="M528.017,-84.6354C508.115,-74.2049 485.993,-62.6109 466.906,-52.6075"/>
<polygon fill="midnightblue" stroke="midnightblue" points="526.504,-87.7939 536.986,-89.336 529.753,-81.5938 526.504,-87.7939"/>
</g>
<!-- Node18 -->
<g id="node5" class="node"><title>Node18</title>
<g id="a_node5"><a xlink:href="_memory_block_8cpp.html" target="_top" xlink:title="C:/Users/kjones/Documents\l/SoftwareDev/VulpesSceneKit\l/third_party/vulpesrender\l/src/alloc/MemoryBlock.cpp">
<polygon fill="white" stroke="black" points="510,-0.5 510,-52.5 656,-52.5 656,-0.5 510,-0.5"/>
<text text-anchor="start" x="518" y="-40.5" font-family="Helvetica,sans-Serif" font-size="10.00">C:/Users/kjones/Documents</text>
<text text-anchor="start" x="518" y="-29.5" font-family="Helvetica,sans-Serif" font-size="10.00">/SoftwareDev/VulpesSceneKit</text>
<text text-anchor="start" x="518" y="-18.5" font-family="Helvetica,sans-Serif" font-size="10.00">/third_party/vulpesrender</text>
<text text-anchor="middle" x="583" y="-7.5" font-family="Helvetica,sans-Serif" font-size="10.00">/src/alloc/MemoryBlock.cpp</text>
</a>
</g>
</g>
<!-- Node15&#45;&gt;Node18 -->
<g id="edge4" class="edge"><title>Node15&#45;&gt;Node18</title>
<path fill="none" stroke="midnightblue" d="M584.188,-79.1908C583.984,-70.2824 583.768,-60.8986 583.577,-52.6075"/>
<polygon fill="midnightblue" stroke="midnightblue" points="580.693,-79.4191 584.422,-89.336 587.691,-79.2582 580.693,-79.4191"/>
</g>
<!-- Node19 -->
<g id="node6" class="node"><title>Node19</title>
<g id="a_node6"><a xlink:href="_logical_device_8cpp.html" target="_top" xlink:title="C:/Users/kjones/Documents\l/SoftwareDev/VulpesSceneKit\l/third_party/vulpesrender\l/src/core/LogicalDevice.cpp">
<polygon fill="white" stroke="black" points="674,-0.5 674,-52.5 820,-52.5 820,-0.5 674,-0.5"/>
<text text-anchor="start" x="682" y="-40.5" font-family="Helvetica,sans-Serif" font-size="10.00">C:/Users/kjones/Documents</text>
<text text-anchor="start" x="682" y="-29.5" font-family="Helvetica,sans-Serif" font-size="10.00">/SoftwareDev/VulpesSceneKit</text>
<text text-anchor="start" x="682" y="-18.5" font-family="Helvetica,sans-Serif" font-size="10.00">/third_party/vulpesrender</text>
<text text-anchor="middle" x="747" y="-7.5" font-family="Helvetica,sans-Serif" font-size="10.00">/src/core/LogicalDevice.cpp</text>
</a>
</g>
</g>
<!-- Node15&#45;&gt;Node19 -->
<g id="edge5" class="edge"><title>Node15&#45;&gt;Node19</title>
<path fill="none" stroke="midnightblue" d="M640.873,-84.4944C660.227,-74.1005 681.705,-62.5658 700.248,-52.6075"/>
<polygon fill="midnightblue" stroke="midnightblue" points="639.011,-81.5212 631.857,-89.336 642.323,-87.6882 639.011,-81.5212"/>
</g>
<!-- Node20 -->
<g id="node7" class="node"><title>Node20</title>
<g id="a_node7"><a xlink:href="_buffer_8cpp.html" target="_top" xlink:title="C:/Users/kjones/Documents\l/SoftwareDev/VulpesSceneKit\l/third_party/vulpesrender\l/src/resource/Buffer.cpp">
<polygon fill="white" stroke="black" points="838,-0.5 838,-52.5 984,-52.5 984,-0.5 838,-0.5"/>
<text text-anchor="start" x="846" y="-40.5" font-family="Helvetica,sans-Serif" font-size="10.00">C:/Users/kjones/Documents</text>
<text text-anchor="start" x="846" y="-29.5" font-family="Helvetica,sans-Serif" font-size="10.00">/SoftwareDev/VulpesSceneKit</text>
<text text-anchor="start" x="846" y="-18.5" font-family="Helvetica,sans-Serif" font-size="10.00">/third_party/vulpesrender</text>
<text text-anchor="middle" x="911" y="-7.5" font-family="Helvetica,sans-Serif" font-size="10.00">/src/resource/Buffer.cpp</text>
</a>
</g>
</g>
<!-- Node15&#45;&gt;Node20 -->
<g id="edge6" class="edge"><title>Node15&#45;&gt;Node20</title>
<path fill="none" stroke="midnightblue" d="M668.041,-94.7614C715.376,-83.2126 775.703,-67.9918 829,-53 831.87,-52.1926 834.793,-51.3557 837.741,-50.4989"/>
<polygon fill="midnightblue" stroke="midnightblue" points="667.034,-91.4042 658.145,-97.1687 668.689,-98.2058 667.034,-91.4042"/>
</g>
<!-- Node21 -->
<g id="node8" class="node"><title>Node21</title>
<g id="a_node8"><a xlink:href="_image_8cpp.html" target="_top" xlink:title="C:/Users/kjones/Documents\l/SoftwareDev/VulpesSceneKit\l/third_party/vulpesrender\l/src/resource/Image.cpp">
<polygon fill="white" stroke="black" points="1002,-0.5 1002,-52.5 1148,-52.5 1148,-0.5 1002,-0.5"/>
<text text-anchor="start" x="1010" y="-40.5" font-family="Helvetica,sans-Serif" font-size="10.00">C:/Users/kjones/Documents</text>
<text text-anchor="start" x="1010" y="-29.5" font-family="Helvetica,sans-Serif" font-size="10.00">/SoftwareDev/VulpesSceneKit</text>
<text text-anchor="start" x="1010" y="-18.5" font-family="Helvetica,sans-Serif" font-size="10.00">/third_party/vulpesrender</text>
<text text-anchor="middle" x="1075" y="-7.5" font-family="Helvetica,sans-Serif" font-size="10.00">/src/resource/Image.cpp</text>
</a>
</g>
</g>
<!-- Node15&#45;&gt;Node21 -->
<g id="edge7" class="edge"><title>Node15&#45;&gt;Node21</title>
<path fill="none" stroke="midnightblue" d="M668.348,-105.694C751.298,-96.0525 881.908,-78.4907 993,-53 995.906,-52.3332 998.859,-51.6149 1001.83,-50.8572"/>
<polygon fill="midnightblue" stroke="midnightblue" points="667.756,-102.239 658.222,-106.86 668.557,-109.193 667.756,-102.239"/>
</g>
<!-- Node22&#45;&gt;Node16 -->
<g id="edge10" class="edge"><title>Node22&#45;&gt;Node16</title>
<path fill="none" stroke="midnightblue" d="M357.919,-84.7763C337.467,-74.3094 314.696,-62.656 295.061,-52.6075"/>
<polygon fill="midnightblue" stroke="midnightblue" points="356.332,-87.8959 366.829,-89.336 359.521,-81.6645 356.332,-87.8959"/>
</g>
<!-- Node22&#45;&gt;Node17 -->
<g id="edge11" class="edge"><title>Node22&#45;&gt;Node17</title>
<path fill="none" stroke="midnightblue" d="M417.218,-79.1908C417.525,-70.2824 417.848,-60.8986 418.134,-52.6075"/>
<polygon fill="midnightblue" stroke="midnightblue" points="413.715,-79.2213 416.868,-89.336 420.71,-79.4626 413.715,-79.2213"/>
</g>
<!-- Node22&#45;&gt;Node18 -->
<g id="edge12" class="edge"><title>Node22&#45;&gt;Node18</title>
<path fill="none" stroke="midnightblue" d="M473.326,-84.6354C493.348,-74.2049 515.603,-62.6109 534.805,-52.6075"/>
<polygon fill="midnightblue" stroke="midnightblue" points="471.555,-81.6117 464.303,-89.336 474.789,-87.8198 471.555,-81.6117"/>
</g>
<!-- Node23 -->
<g id="node10" class="node"><title>Node23</title>
<g id="a_node10"><a xlink:href="_allocation_8cpp.html" target="_top" xlink:title="C:/Users/kjones/Documents\l/SoftwareDev/VulpesSceneKit\l/third_party/vulpesrender\l/src/alloc/Allocation.cpp">
<polygon fill="white" stroke="black" points="0,-0.5 0,-52.5 146,-52.5 146,-0.5 0,-0.5"/>
<text text-anchor="start" x="8" y="-40.5" font-family="Helvetica,sans-Serif" font-size="10.00">C:/Users/kjones/Documents</text>
<text text-anchor="start" x="8" y="-29.5" font-family="Helvetica,sans-Serif" font-size="10.00">/SoftwareDev/VulpesSceneKit</text>
<text text-anchor="start" x="8" y="-18.5" font-family="Helvetica,sans-Serif" font-size="10.00">/third_party/vulpesrender</text>
<text text-anchor="middle" x="73" y="-7.5" font-family="Helvetica,sans-Serif" font-size="10.00">/src/alloc/Allocation.cpp</text>
</a>
</g>
</g>
<!-- Node22&#45;&gt;Node23 -->
<g id="edge9" class="edge"><title>Node22&#45;&gt;Node23</title>
<path fill="none" stroke="midnightblue" d="M328.297,-95.4464C277.465,-84.0015 212.366,-68.6578 155,-53 152.124,-52.2149 149.196,-51.3968 146.243,-50.5557"/>
<polygon fill="midnightblue" stroke="midnightblue" points="327.743,-98.9091 338.267,-97.6823 329.275,-92.0787 327.743,-98.9091"/>
</g>
<!-- Node24&#45;&gt;Node22 -->
<g id="edge14" class="edge"><title>Node24&#45;&gt;Node22</title>
<path fill="none" stroke="midnightblue" d="M416,-168.191C416,-159.282 416,-149.899 416,-141.607"/>
<polygon fill="midnightblue" stroke="midnightblue" points="412.5,-168.336 416,-178.336 419.5,-168.336 412.5,-168.336"/>
</g>
</g>
</svg>
