<?xml version="1.0" encoding="UTF-8" standalone="no"?>
<!DOCTYPE svg PUBLIC "-//W3C//DTD SVG 1.1//EN"
 "http://www.w3.org/Graphics/SVG/1.1/DTD/svg11.dtd">
<!-- Generated by graphviz version 2.38.0 (20140413.2041)
 -->
<!-- Title: include/alloc/AllocCommon.hpp Pages: 1 -->
<svg width="1013pt" height="196pt"
 viewBox="0.00 0.00 1012.50 196.00" xmlns="http://www.w3.org/2000/svg" xmlns:xlink="http://www.w3.org/1999/xlink">
<g id="graph0" class="graph" transform="scale(1 1) rotate(0) translate(4 192)">
<title>include/alloc/AllocCommon.hpp</title>
<polygon fill="white" stroke="none" points="-4,4 -4,-192 1008.5,-192 1008.5,4 -4,4"/>
<!-- Node14 -->
<g id="node1" class="node"><title>Node14</title>
<polygon fill="#bfbfbf" stroke="black" points="390.5,-168.5 390.5,-187.5 543.5,-187.5 543.5,-168.5 390.5,-168.5"/>
<text text-anchor="middle" x="467" y="-175.5" font-family="Helvetica,sans-Serif" font-size="10.00">include/alloc/AllocCommon.hpp</text>
</g>
<!-- Node15 -->
<g id="node2" class="node"><title>Node15</title>
<g id="a_node2"><a xlink:href="_allocator_8hpp.html" target="_top" xlink:title="include/alloc/Allocator.hpp">
<polygon fill="white" stroke="black" points="457.5,-56.5 457.5,-75.5 588.5,-75.5 588.5,-56.5 457.5,-56.5"/>
<text text-anchor="middle" x="523" y="-63.5" font-family="Helvetica,sans-Serif" font-size="10.00">include/alloc/Allocator.hpp</text>
</a>
</g>
</g>
<!-- Node14&#45;&gt;Node15 -->
<g id="edge1" class="edge"><title>Node14&#45;&gt;Node15</title>
<path fill="none" stroke="midnightblue" d="M476.001,-159.32C488.194,-135.37 509.484,-93.5484 518.626,-75.5914"/>
<polygon fill="midnightblue" stroke="midnightblue" points="472.812,-157.869 471.394,-168.368 479.05,-161.045 472.812,-157.869"/>
</g>
<!-- Node22 -->
<g id="node9" class="node"><title>Node22</title>
<g id="a_node9"><a xlink:href="_memory_block_8hpp.html" target="_top" xlink:title="include/alloc/MemoryBlock.hpp">
<polygon fill="white" stroke="black" points="287,-56.5 287,-75.5 439,-75.5 439,-56.5 287,-56.5"/>
<text text-anchor="middle" x="363" y="-63.5" font-family="Helvetica,sans-Serif" font-size="10.00">include/alloc/MemoryBlock.hpp</text>
</a>
</g>
</g>
<!-- Node14&#45;&gt;Node22 -->
<g id="edge8" class="edge"><title>Node14&#45;&gt;Node22</title>
<path fill="none" stroke="midnightblue" d="M465.126,-158.446C462.865,-144.364 457.895,-125.234 447,-112 432.489,-94.3735 409.214,-82.6741 390.839,-75.6337"/>
<polygon fill="midnightblue" stroke="midnightblue" points="461.666,-158.979 466.42,-168.448 468.608,-158.081 461.666,-158.979"/>
</g>
<!-- Node24 -->
<g id="node11" class="node"><title>Node24</title>
<g id="a_node11"><a xlink:href="_suballocation_8hpp.html" target="_top" xlink:title="include/alloc/Suballocation.hpp">
<polygon fill="white" stroke="black" points="287.5,-112.5 287.5,-131.5 438.5,-131.5 438.5,-112.5 287.5,-112.5"/>
<text text-anchor="middle" x="363" y="-119.5" font-family="Helvetica,sans-Serif" font-size="10.00">include/alloc/Suballocation.hpp</text>
</a>
</g>
</g>
<!-- Node14&#45;&gt;Node24 -->
<g id="edge13" class="edge"><title>Node14&#45;&gt;Node24</title>
<path fill="none" stroke="midnightblue" d="M441.172,-163.59C421.943,-153.605 396.255,-140.267 379.668,-131.655"/>
<polygon fill="midnightblue" stroke="midnightblue" points="439.803,-166.822 450.291,-168.324 443.029,-160.61 439.803,-166.822"/>
</g>
<!-- Node16 -->
<g id="node3" class="node"><title>Node16</title>
<g id="a_node3"><a xlink:href="_allocation_collection_8cpp.html" target="_top" xlink:title="src/alloc/AllocationCollection.cpp">
<polygon fill="white" stroke="black" points="136.5,-0.5 136.5,-19.5 297.5,-19.5 297.5,-0.5 136.5,-0.5"/>
<text text-anchor="middle" x="217" y="-7.5" font-family="Helvetica,sans-Serif" font-size="10.00">src/alloc/AllocationCollection.cpp</text>
</a>
</g>
</g>
<!-- Node15&#45;&gt;Node16 -->
<g id="edge2" class="edge"><title>Node15&#45;&gt;Node16</title>
<path fill="none" stroke="midnightblue" d="M464.43,-54.6642C406.602,-44.4592 319.219,-29.0386 265.26,-19.5164"/>
<polygon fill="midnightblue" stroke="midnightblue" points="464.057,-58.1523 474.513,-56.4435 465.274,-51.2589 464.057,-58.1523"/>
</g>
<!-- Node17 -->
<g id="node4" class="node"><title>Node17</title>
<g id="a_node4"><a xlink:href="_allocator_8cpp.html" target="_top" xlink:title="src/alloc/Allocator.cpp">
<polygon fill="white" stroke="black" points="315.5,-0.5 315.5,-19.5 428.5,-19.5 428.5,-0.5 315.5,-0.5"/>
<text text-anchor="middle" x="372" y="-7.5" font-family="Helvetica,sans-Serif" font-size="10.00">src/alloc/Allocator.cpp</text>
</a>
</g>
</g>
<!-- Node15&#45;&gt;Node17 -->
<g id="edge3" class="edge"><title>Node15&#45;&gt;Node17</title>
<path fill="none" stroke="midnightblue" d="M489.554,-53.0392C461.142,-42.8786 421.063,-28.5457 395.814,-19.5164"/>
<polygon fill="midnightblue" stroke="midnightblue" points="488.479,-56.3718 499.074,-56.4435 490.836,-49.7806 488.479,-56.3718"/>
</g>
<!-- Node18 -->
<g id="node5" class="node"><title>Node18</title>
<g id="a_node5"><a xlink:href="_memory_block_8cpp.html" target="_top" xlink:title="src/alloc/MemoryBlock.cpp">
<polygon fill="white" stroke="black" points="446.5,-0.5 446.5,-19.5 581.5,-19.5 581.5,-0.5 446.5,-0.5"/>
<text text-anchor="middle" x="514" y="-7.5" font-family="Helvetica,sans-Serif" font-size="10.00">src/alloc/MemoryBlock.cpp</text>
</a>
</g>
</g>
<!-- Node15&#45;&gt;Node18 -->
<g id="edge4" class="edge"><title>Node15&#45;&gt;Node18</title>
<path fill="none" stroke="midnightblue" d="M519.85,-46.1005C518.356,-37.1357 516.643,-26.8579 515.459,-19.7511"/>
<polygon fill="midnightblue" stroke="midnightblue" points="516.417,-46.7945 521.514,-56.083 523.322,-45.6436 516.417,-46.7945"/>
</g>
<!-- Node19 -->
<g id="node6" class="node"><title>Node19</title>
<g id="a_node6"><a xlink:href="_logical_device_8cpp.html" target="_top" xlink:title="src/core/LogicalDevice.cpp">
<polygon fill="white" stroke="black" points="599.5,-0.5 599.5,-19.5 732.5,-19.5 732.5,-0.5 599.5,-0.5"/>
<text text-anchor="middle" x="666" y="-7.5" font-family="Helvetica,sans-Serif" font-size="10.00">src/core/LogicalDevice.cpp</text>
</a>
</g>
</g>
<!-- Node15&#45;&gt;Node19 -->
<g id="edge5" class="edge"><title>Node15&#45;&gt;Node19</title>
<path fill="none" stroke="midnightblue" d="M555.027,-52.9058C581.912,-42.7536 619.641,-28.5063 643.447,-19.5164"/>
<polygon fill="midnightblue" stroke="midnightblue" points="553.778,-49.6364 545.659,-56.4435 556.25,-56.1851 553.778,-49.6364"/>
</g>
<!-- Node20 -->
<g id="node7" class="node"><title>Node20</title>
<g id="a_node7"><a xlink:href="_buffer_8cpp.html" target="_top" xlink:title="src/resource/Buffer.cpp">
<polygon fill="white" stroke="black" points="750.5,-0.5 750.5,-19.5 867.5,-19.5 867.5,-0.5 750.5,-0.5"/>
<text text-anchor="middle" x="809" y="-7.5" font-family="Helvetica,sans-Serif" font-size="10.00">src/resource/Buffer.cpp</text>
</a>
</g>
</g>
<!-- Node15&#45;&gt;Node20 -->
<g id="edge6" class="edge"><title>Node15&#45;&gt;Node20</title>
<path fill="none" stroke="midnightblue" d="M578.414,-54.5371C632.466,-44.3316 713.671,-28.9992 763.894,-19.5164"/>
<polygon fill="midnightblue" stroke="midnightblue" points="577.495,-51.1489 568.318,-56.4435 578.793,-58.0274 577.495,-51.1489"/>
</g>
<!-- Node21 -->
<g id="node8" class="node"><title>Node21</title>
<g id="a_node8"><a xlink:href="_image_8cpp.html" target="_top" xlink:title="src/resource/Image.cpp">
<polygon fill="white" stroke="black" points="885.5,-0.5 885.5,-19.5 1004.5,-19.5 1004.5,-0.5 885.5,-0.5"/>
<text text-anchor="middle" x="945" y="-7.5" font-family="Helvetica,sans-Serif" font-size="10.00">src/resource/Image.cpp</text>
</a>
</g>
</g>
<!-- Node15&#45;&gt;Node21 -->
<g id="edge7" class="edge"><title>Node15&#45;&gt;Node21</title>
<path fill="none" stroke="midnightblue" d="M598.872,-55.4699C670.564,-46.4378 781.111,-32.4401 877,-20 879.716,-19.6476 882.493,-19.2859 885.298,-18.9194"/>
<polygon fill="midnightblue" stroke="midnightblue" points="598.068,-52.0435 588.583,-56.7657 598.942,-58.9886 598.068,-52.0435"/>
</g>
<!-- Node22&#45;&gt;Node16 -->
<g id="edge10" class="edge"><title>Node22&#45;&gt;Node16</title>
<path fill="none" stroke="midnightblue" d="M330.301,-52.9058C302.852,-42.7536 264.332,-28.5063 240.026,-19.5164"/>
<polygon fill="midnightblue" stroke="midnightblue" points="329.273,-56.2572 339.866,-56.4435 331.701,-49.6919 329.273,-56.2572"/>
</g>
<!-- Node22&#45;&gt;Node17 -->
<g id="edge11" class="edge"><title>Node22&#45;&gt;Node17</title>
<path fill="none" stroke="midnightblue" d="M366.15,-46.1005C367.644,-37.1357 369.357,-26.8579 370.541,-19.7511"/>
<polygon fill="midnightblue" stroke="midnightblue" points="362.678,-45.6436 364.486,-56.083 369.583,-46.7945 362.678,-45.6436"/>
</g>
<!-- Node22&#45;&gt;Node18 -->
<g id="edge12" class="edge"><title>Node22&#45;&gt;Node18</title>
<path fill="none" stroke="midnightblue" d="M396.446,-53.0392C424.858,-42.8786 464.937,-28.5457 490.186,-19.5164"/>
<polygon fill="midnightblue" stroke="midnightblue" points="395.164,-49.7806 386.926,-56.4435 397.521,-56.3718 395.164,-49.7806"/>
</g>
<!-- Node23 -->
<g id="node10" class="node"><title>Node23</title>
<g id="a_node10"><a xlink:href="_allocation_8cpp.html" target="_top" xlink:title="src/alloc/Allocation.cpp">
<polygon fill="white" stroke="black" points="0,-0.5 0,-19.5 118,-19.5 118,-0.5 0,-0.5"/>
<text text-anchor="middle" x="59" y="-7.5" font-family="Helvetica,sans-Serif" font-size="10.00">src/alloc/Allocation.cpp</text>
</a>
</g>
</g>
<!-- Node22&#45;&gt;Node23 -->
<g id="edge9" class="edge"><title>Node22&#45;&gt;Node23</title>
<path fill="none" stroke="midnightblue" d="M304.813,-54.6642C247.363,-44.4592 160.551,-29.0386 106.944,-19.5164"/>
<polygon fill="midnightblue" stroke="midnightblue" points="304.372,-58.1406 314.83,-56.4435 305.597,-51.2485 304.372,-58.1406"/>
</g>
<!-- Node24&#45;&gt;Node22 -->
<g id="edge14" class="edge"><title>Node24&#45;&gt;Node22</title>
<path fill="none" stroke="midnightblue" d="M363,-101.805C363,-92.9102 363,-82.7798 363,-75.7511"/>
<polygon fill="midnightblue" stroke="midnightblue" points="359.5,-102.083 363,-112.083 366.5,-102.083 359.5,-102.083"/>
</g>
</g>
</svg>
