<?xml version="1.0" encoding="UTF-8" standalone="no"?>
<!DOCTYPE svg PUBLIC "-//W3C//DTD SVG 1.1//EN"
 "http://www.w3.org/Graphics/SVG/1.1/DTD/svg11.dtd">
<!-- Generated by graphviz version 2.38.0 (20140413.2041)
 -->
<!-- Title: include/alloc/Allocation.hpp Pages: 1 -->
<svg width="717pt" height="196pt"
 viewBox="0.00 0.00 716.50 196.00" xmlns="http://www.w3.org/2000/svg" xmlns:xlink="http://www.w3.org/1999/xlink">
<g id="graph0" class="graph" transform="scale(1 1) rotate(0) translate(4 192)">
<title>include/alloc/Allocation.hpp</title>
<polygon fill="white" stroke="none" points="-4,4 -4,-192 712.5,-192 712.5,4 -4,4"/>
<!-- Node15 -->
<g id="node1" class="node"><title>Node15</title>
<polygon fill="#bfbfbf" stroke="black" points="297.5,-168.5 297.5,-187.5 432.5,-187.5 432.5,-168.5 297.5,-168.5"/>
<text text-anchor="middle" x="365" y="-175.5" font-family="Helvetica,sans-Serif" font-size="10.00">include/alloc/Allocation.hpp</text>
</g>
<!-- Node16 -->
<g id="node2" class="node"><title>Node16</title>
<g id="a_node2"><a xlink:href="_buffer_8hpp.html" target="_top" xlink:title="include/resource/Buffer.hpp">
<polygon fill="white" stroke="black" points="0,-112.5 0,-131.5 134,-131.5 134,-112.5 0,-112.5"/>
<text text-anchor="middle" x="67" y="-119.5" font-family="Helvetica,sans-Serif" font-size="10.00">include/resource/Buffer.hpp</text>
</a>
</g>
</g>
<!-- Node15&#45;&gt;Node16 -->
<g id="edge1" class="edge"><title>Node15&#45;&gt;Node16</title>
<path fill="none" stroke="midnightblue" d="M307.611,-166.601C251.293,-156.395 166.438,-141.019 113.998,-131.516"/>
<polygon fill="midnightblue" stroke="midnightblue" points="307.317,-170.104 317.781,-168.444 308.565,-163.217 307.317,-170.104"/>
</g>
<!-- Node18 -->
<g id="node4" class="node"><title>Node18</title>
<g id="a_node4"><a xlink:href="_image_8hpp.html" target="_top" xlink:title="include/resource/Image.hpp">
<polygon fill="white" stroke="black" points="152,-112.5 152,-131.5 288,-131.5 288,-112.5 152,-112.5"/>
<text text-anchor="middle" x="220" y="-119.5" font-family="Helvetica,sans-Serif" font-size="10.00">include/resource/Image.hpp</text>
</a>
</g>
</g>
<!-- Node15&#45;&gt;Node18 -->
<g id="edge3" class="edge"><title>Node15&#45;&gt;Node18</title>
<path fill="none" stroke="midnightblue" d="M332.525,-164.906C305.264,-154.754 267.008,-140.506 242.868,-131.516"/>
<polygon fill="midnightblue" stroke="midnightblue" points="331.432,-168.233 342.024,-168.444 333.875,-161.674 331.432,-168.233"/>
</g>
<!-- Node22 -->
<g id="node8" class="node"><title>Node22</title>
<g id="a_node8"><a xlink:href="_allocation_8cpp.html" target="_top" xlink:title="src/alloc/Allocation.cpp">
<polygon fill="white" stroke="black" points="306,-112.5 306,-131.5 424,-131.5 424,-112.5 306,-112.5"/>
<text text-anchor="middle" x="365" y="-119.5" font-family="Helvetica,sans-Serif" font-size="10.00">src/alloc/Allocation.cpp</text>
</a>
</g>
</g>
<!-- Node15&#45;&gt;Node22 -->
<g id="edge7" class="edge"><title>Node15&#45;&gt;Node22</title>
<path fill="none" stroke="midnightblue" d="M365,-157.805C365,-148.91 365,-138.78 365,-131.751"/>
<polygon fill="midnightblue" stroke="midnightblue" points="361.5,-158.083 365,-168.083 368.5,-158.083 361.5,-158.083"/>
</g>
<!-- Node23 -->
<g id="node9" class="node"><title>Node23</title>
<g id="a_node9"><a xlink:href="_allocator_8cpp.html" target="_top" xlink:title="src/alloc/Allocator.cpp">
<polygon fill="white" stroke="black" points="442.5,-112.5 442.5,-131.5 555.5,-131.5 555.5,-112.5 442.5,-112.5"/>
<text text-anchor="middle" x="499" y="-119.5" font-family="Helvetica,sans-Serif" font-size="10.00">src/alloc/Allocator.cpp</text>
</a>
</g>
</g>
<!-- Node15&#45;&gt;Node23 -->
<g id="edge8" class="edge"><title>Node15&#45;&gt;Node23</title>
<path fill="none" stroke="midnightblue" d="M395.677,-164.638C420.823,-154.504 455.754,-140.427 477.867,-131.516"/>
<polygon fill="midnightblue" stroke="midnightblue" points="394.2,-161.459 386.233,-168.444 396.816,-167.952 394.2,-161.459"/>
</g>
<!-- Node24 -->
<g id="node10" class="node"><title>Node24</title>
<g id="a_node10"><a xlink:href="_memory_block_8cpp.html" target="_top" xlink:title="src/alloc/MemoryBlock.cpp">
<polygon fill="white" stroke="black" points="573.5,-112.5 573.5,-131.5 708.5,-131.5 708.5,-112.5 573.5,-112.5"/>
<text text-anchor="middle" x="641" y="-119.5" font-family="Helvetica,sans-Serif" font-size="10.00">src/alloc/MemoryBlock.cpp</text>
</a>
</g>
</g>
<!-- Node15&#45;&gt;Node24 -->
<g id="edge9" class="edge"><title>Node15&#45;&gt;Node24</title>
<path fill="none" stroke="midnightblue" d="M418.803,-166.473C470.964,-156.268 549.105,-140.979 597.472,-131.516"/>
<polygon fill="midnightblue" stroke="midnightblue" points="417.875,-163.088 408.733,-168.444 419.219,-169.958 417.875,-163.088"/>
</g>
<!-- Node17 -->
<g id="node3" class="node"><title>Node17</title>
<g id="a_node3"><a xlink:href="_buffer_8cpp.html" target="_top" xlink:title="src/resource/Buffer.cpp">
<polygon fill="white" stroke="black" points="7.5,-56.5 7.5,-75.5 124.5,-75.5 124.5,-56.5 7.5,-56.5"/>
<text text-anchor="middle" x="66" y="-63.5" font-family="Helvetica,sans-Serif" font-size="10.00">src/resource/Buffer.cpp</text>
</a>
</g>
</g>
<!-- Node16&#45;&gt;Node17 -->
<g id="edge2" class="edge"><title>Node16&#45;&gt;Node17</title>
<path fill="none" stroke="midnightblue" d="M66.6445,-101.805C66.4798,-92.9102 66.2922,-82.7798 66.1621,-75.7511"/>
<polygon fill="midnightblue" stroke="midnightblue" points="63.1502,-102.15 66.8349,-112.083 70.149,-102.02 63.1502,-102.15"/>
</g>
<!-- Node19 -->
<g id="node5" class="node"><title>Node19</title>
<g id="a_node5"><a xlink:href="_depth_stencil_8hpp.html" target="_top" xlink:title="include/render/DepthStencil.hpp">
<polygon fill="white" stroke="black" points="142.5,-56.5 142.5,-75.5 297.5,-75.5 297.5,-56.5 142.5,-56.5"/>
<text text-anchor="middle" x="220" y="-63.5" font-family="Helvetica,sans-Serif" font-size="10.00">include/render/DepthStencil.hpp</text>
</a>
</g>
</g>
<!-- Node18&#45;&gt;Node19 -->
<g id="edge4" class="edge"><title>Node18&#45;&gt;Node19</title>
<path fill="none" stroke="midnightblue" d="M220,-101.805C220,-92.9102 220,-82.7798 220,-75.7511"/>
<polygon fill="midnightblue" stroke="midnightblue" points="216.5,-102.083 220,-112.083 223.5,-102.083 216.5,-102.083"/>
</g>
<!-- Node21 -->
<g id="node7" class="node"><title>Node21</title>
<g id="a_node7"><a xlink:href="_image_8cpp.html" target="_top" xlink:title="src/resource/Image.cpp">
<polygon fill="white" stroke="black" points="315.5,-56.5 315.5,-75.5 434.5,-75.5 434.5,-56.5 315.5,-56.5"/>
<text text-anchor="middle" x="375" y="-63.5" font-family="Helvetica,sans-Serif" font-size="10.00">src/resource/Image.cpp</text>
</a>
</g>
</g>
<!-- Node18&#45;&gt;Node21 -->
<g id="edge6" class="edge"><title>Node18&#45;&gt;Node21</title>
<path fill="none" stroke="midnightblue" d="M254.332,-109.039C283.497,-98.8786 324.637,-84.5457 350.555,-75.5164"/>
<polygon fill="midnightblue" stroke="midnightblue" points="252.852,-105.848 244.56,-112.444 255.155,-112.459 252.852,-105.848"/>
</g>
<!-- Node20 -->
<g id="node6" class="node"><title>Node20</title>
<g id="a_node6"><a xlink:href="_depth_stencil_8cpp.html" target="_top" xlink:title="src/render/DepthStencil.cpp">
<polygon fill="white" stroke="black" points="151.5,-0.5 151.5,-19.5 288.5,-19.5 288.5,-0.5 151.5,-0.5"/>
<text text-anchor="middle" x="220" y="-7.5" font-family="Helvetica,sans-Serif" font-size="10.00">src/render/DepthStencil.cpp</text>
</a>
</g>
</g>
<!-- Node19&#45;&gt;Node20 -->
<g id="edge5" class="edge"><title>Node19&#45;&gt;Node20</title>
<path fill="none" stroke="midnightblue" d="M220,-45.8045C220,-36.9102 220,-26.7798 220,-19.7511"/>
<polygon fill="midnightblue" stroke="midnightblue" points="216.5,-46.083 220,-56.083 223.5,-46.083 216.5,-46.083"/>
</g>
</g>
</svg>
