<?xml version="1.0" encoding="UTF-8" standalone="no"?>
<!DOCTYPE svg PUBLIC "-//W3C//DTD SVG 1.1//EN"
 "http://www.w3.org/Graphics/SVG/1.1/DTD/svg11.dtd">
<!-- Generated by graphviz version 2.38.0 (20140413.2041)
 -->
<!-- Title: alloc/src/AllocatorImpl.cpp Pages: 1 -->
<!--zoomable 364 -->
<svg id="main" version="1.1" xmlns="http://www.w3.org/2000/svg" xmlns:xlink="http://www.w3.org/1999/xlink" xml:space="preserve" onload="init(evt)">
<style type="text/css"><![CDATA[
.edge:hover path { stroke: red; }
.edge:hover polygon { stroke: red; fill: red; }
]]></style>
<script type="text/javascript"><![CDATA[
var edges = document.getElementsByTagName('g');
if (edges && edges.length) {
  for (var i=0;i<edges.length;i++) {
    if (edges[i].id.substr(0,4)=='edge') {
      edges[i].setAttribute('class','edge');
    }
  }
}
]]></script>
        <defs>
                <circle id="rim" cx="0" cy="0" r="7"/>
                <circle id="rim2" cx="0" cy="0" r="3.5"/>
                <g id="zoomPlus">
                        <use xlink:href="#rim" fill="#404040">
                                <set attributeName="fill" to="#808080" begin="zoomplus.mouseover" end="zoomplus.mouseout"/>
                        </use>
                        <path d="M-4,0h8M0,-4v8" fill="none" stroke="white" stroke-width="1.5" pointer-events="none"/>
                </g>
                <g id="zoomMin">
                        <use xlink:href="#rim" fill="#404040">
                                <set attributeName="fill" to="#808080" begin="zoomminus.mouseover" end="zoomminus.mouseout"/>
                        </use>
                        <path d="M-4,0h8" fill="none" stroke="white" stroke-width="1.5" pointer-events="none"/>
                </g>
                <g id="dirArrow">
                        <path fill="none" stroke="white" stroke-width="1.5" d="M0,-3.0v7 M-2.5,-0.5L0,-3.0L2.5,-0.5"/>
                </g>
               <g id="resetDef">
                       <use xlink:href="#rim2" fill="#404040">
                               <set attributeName="fill" to="#808080" begin="reset.mouseover" end="reset.mouseout"/>
                       </use>
               </g>
        </defs>

<script type="text/javascript">
var viewWidth = 1155;
var viewHeight = 364;
var sectionId = 'dynsection-0';
</script>
<script xlink:href="svgpan.js"/>
<svg id="graph" class="graph">
<g id="viewport">
<title>alloc/src/AllocatorImpl.cpp</title>
<polygon fill="white" stroke="none" points="-4,4 -4,-360 1151.29,-360 1151.29,4 -4,4"/>
<!-- Node0 -->
<g id="node1" class="node"><title>Node0</title>
<polygon fill="#bfbfbf" stroke="black" points="791.287,-336.5 791.287,-355.5 922.287,-355.5 922.287,-336.5 791.287,-336.5"/>
<text text-anchor="middle" x="856.787" y="-343.5" font-family="Helvetica,sans-Serif" font-size="10.00">alloc/src/AllocatorImpl.cpp</text>
</g>
<!-- Node1 -->
<g id="node2" class="node"><title>Node1</title>
<g id="a_node2"><a xlink:href="_allocator_impl_8hpp.html" target="_top" xlink:title="AllocatorImpl.hpp">
<polygon fill="white" stroke="black" points="701.787,-280.5 701.787,-299.5 793.787,-299.5 793.787,-280.5 701.787,-280.5"/>
<text text-anchor="middle" x="747.787" y="-287.5" font-family="Helvetica,sans-Serif" font-size="10.00">AllocatorImpl.hpp</text>
</a>
</g>
</g>
<!-- Node0&#45;&gt;Node1 -->
<g id="edge1" class="edge"><title>Node0&#45;&gt;Node1</title>
<path fill="none" stroke="midnightblue" d="M839.274,-336.324C821.715,-327.625 794.456,-314.12 774.256,-304.113"/>
<polygon fill="midnightblue" stroke="midnightblue" points="775.771,-300.958 765.256,-299.655 772.663,-307.23 775.771,-300.958"/>
</g>
<!-- Node25 -->
<g id="node26" class="node"><title>Node25</title>
<polygon fill="white" stroke="#bfbfbf" points="812.287,-280.5 812.287,-299.5 901.287,-299.5 901.287,-280.5 812.287,-280.5"/>
<text text-anchor="middle" x="856.787" y="-287.5" font-family="Helvetica,sans-Serif" font-size="10.00">easylogging++.h</text>
</g>
<!-- Node0&#45;&gt;Node25 -->
<g id="edge47" class="edge"><title>Node0&#45;&gt;Node25</title>
<path fill="none" stroke="midnightblue" d="M856.787,-336.083C856.787,-329.006 856.787,-318.861 856.787,-309.986"/>
<polygon fill="midnightblue" stroke="midnightblue" points="860.287,-309.751 856.787,-299.751 853.287,-309.751 860.287,-309.751"/>
</g>
<!-- Node26 -->
<g id="node27" class="node"><title>Node26</title>
<polygon fill="white" stroke="#bfbfbf" points="919.787,-280.5 919.787,-299.5 971.787,-299.5 971.787,-280.5 919.787,-280.5"/>
<text text-anchor="middle" x="945.787" y="-287.5" font-family="Helvetica,sans-Serif" font-size="10.00">sstream</text>
</g>
<!-- Node0&#45;&gt;Node26 -->
<g id="edge48" class="edge"><title>Node0&#45;&gt;Node26</title>
<path fill="none" stroke="midnightblue" d="M871.086,-336.324C884.97,-327.9 906.279,-314.971 922.591,-305.074"/>
<polygon fill="midnightblue" stroke="midnightblue" points="924.789,-307.834 931.523,-299.655 921.158,-301.85 924.789,-307.834"/>
</g>
<!-- Node2 -->
<g id="node3" class="node"><title>Node2</title>
<g id="a_node3"><a xlink:href="_allocator_8hpp.html" target="_top" xlink:title="Allocator.hpp">
<polygon fill="white" stroke="black" points="109.787,-112.5 109.787,-131.5 183.787,-131.5 183.787,-112.5 109.787,-112.5"/>
<text text-anchor="middle" x="146.787" y="-119.5" font-family="Helvetica,sans-Serif" font-size="10.00">Allocator.hpp</text>
</a>
</g>
</g>
<!-- Node1&#45;&gt;Node2 -->
<g id="edge2" class="edge"><title>Node1&#45;&gt;Node2</title>
<path fill="none" stroke="midnightblue" d="M701.537,-288.527C621.101,-286.757 450.746,-278.808 311.787,-244 247.979,-228.017 221.733,-234.076 174.787,-188 161.929,-175.38 154.615,-155.894 150.712,-141.546"/>
<polygon fill="midnightblue" stroke="midnightblue" points="154.102,-140.676 148.357,-131.775 147.297,-142.316 154.102,-140.676"/>
</g>
<!-- Node4 -->
<g id="node5" class="node"><title>Node4</title>
<polygon fill="white" stroke="#bfbfbf" points="798.787,-0.5 798.787,-19.5 880.787,-19.5 880.787,-0.5 798.787,-0.5"/>
<text text-anchor="middle" x="839.787" y="-7.5" font-family="Helvetica,sans-Serif" font-size="10.00">vulkan/vulkan.h</text>
</g>
<!-- Node1&#45;&gt;Node4 -->
<g id="edge43" class="edge"><title>Node1&#45;&gt;Node4</title>
<path fill="none" stroke="midnightblue" d="M758.064,-280.375C767.931,-271.781 782.903,-257.896 793.787,-244 829.414,-198.514 837,-185.095 859.787,-132 873.401,-100.28 887.213,-88.5724 875.787,-56 872.002,-45.2094 864.421,-35.084 857.187,-27.1808"/>
<polygon fill="midnightblue" stroke="midnightblue" points="859.454,-24.4943 849.949,-19.8145 854.461,-29.4005 859.454,-24.4943"/>
</g>
<!-- Node7 -->
<g id="node8" class="node"><title>Node7</title>
<g id="a_node8"><a xlink:href="_alloc_common_8hpp.html" target="_top" xlink:title="AllocCommon.hpp">
<polygon fill="white" stroke="black" points="637.787,-112.5 637.787,-131.5 733.787,-131.5 733.787,-112.5 637.787,-112.5"/>
<text text-anchor="middle" x="685.787" y="-119.5" font-family="Helvetica,sans-Serif" font-size="10.00">AllocCommon.hpp</text>
</a>
</g>
</g>
<!-- Node1&#45;&gt;Node7 -->
<g id="edge7" class="edge"><title>Node1&#45;&gt;Node7</title>
<path fill="none" stroke="midnightblue" d="M750.794,-280.439C757.527,-259.704 771.724,-205.723 751.787,-168 744.363,-153.953 730.366,-143.467 717.166,-136.167"/>
<polygon fill="midnightblue" stroke="midnightblue" points="718.744,-133.043 708.246,-131.618 715.564,-139.279 718.744,-133.043"/>
</g>
<!-- Node11 -->
<g id="node12" class="node"><title>Node11</title>
<g id="a_node12"><a xlink:href="_allocation_collection_8hpp.html" target="_top" xlink:title="AllocationCollection.hpp">
<polygon fill="white" stroke="black" points="184.287,-168.5 184.287,-187.5 305.287,-187.5 305.287,-168.5 184.287,-168.5"/>
<text text-anchor="middle" x="244.787" y="-175.5" font-family="Helvetica,sans-Serif" font-size="10.00">AllocationCollection.hpp</text>
</a>
</g>
</g>
<!-- Node1&#45;&gt;Node11 -->
<g id="edge13" class="edge"><title>Node1&#45;&gt;Node11</title>
<path fill="none" stroke="midnightblue" d="M701.764,-289.645C627.476,-289.382 477.378,-283.424 357.787,-244 322.429,-232.344 285.853,-208.829 264.224,-193.508"/>
<polygon fill="midnightblue" stroke="midnightblue" points="266.071,-190.525 255.917,-187.502 261.97,-196.198 266.071,-190.525"/>
</g>
<!-- Node12 -->
<g id="node13" class="node"><title>Node12</title>
<polygon fill="white" stroke="#bfbfbf" points="339.787,-112.5 339.787,-131.5 381.787,-131.5 381.787,-112.5 339.787,-112.5"/>
<text text-anchor="middle" x="360.787" y="-119.5" font-family="Helvetica,sans-Serif" font-size="10.00">vector</text>
</g>
<!-- Node1&#45;&gt;Node12 -->
<g id="edge46" class="edge"><title>Node1&#45;&gt;Node12</title>
<path fill="none" stroke="midnightblue" d="M701.698,-285.289C632.364,-279.105 505.052,-265.234 464.787,-244 419.616,-220.178 385.568,-167.914 370.05,-140.528"/>
<polygon fill="midnightblue" stroke="midnightblue" points="373.064,-138.745 365.185,-131.662 366.927,-142.113 373.064,-138.745"/>
</g>
<!-- Node14 -->
<g id="node15" class="node"><title>Node14</title>
<g id="a_node15"><a xlink:href="_allocation_8hpp.html" target="_top" xlink:title="Allocation.hpp">
<polygon fill="white" stroke="black" points="13.7871,-112.5 13.7871,-131.5 91.7871,-131.5 91.7871,-112.5 13.7871,-112.5"/>
<text text-anchor="middle" x="52.7871" y="-119.5" font-family="Helvetica,sans-Serif" font-size="10.00">Allocation.hpp</text>
</a>
</g>
</g>
<!-- Node1&#45;&gt;Node14 -->
<g id="edge19" class="edge"><title>Node1&#45;&gt;Node14</title>
<path fill="none" stroke="midnightblue" d="M701.405,-288.094C590.32,-285.433 311.805,-275.709 224.787,-244 160.159,-220.449 97.4982,-166.027 68.9129,-138.928"/>
<polygon fill="midnightblue" stroke="midnightblue" points="71.1034,-136.178 61.4747,-131.758 66.2452,-141.218 71.1034,-136.178"/>
</g>
<!-- Node15 -->
<g id="node16" class="node"><title>Node15</title>
<g id="a_node16"><a xlink:href="_allocation_requirements_8hpp.html" target="_top" xlink:title="AllocationRequirements.hpp">
<polygon fill="white" stroke="black" points="587.787,-168.5 587.787,-187.5 725.787,-187.5 725.787,-168.5 587.787,-168.5"/>
<text text-anchor="middle" x="656.787" y="-175.5" font-family="Helvetica,sans-Serif" font-size="10.00">AllocationRequirements.hpp</text>
</a>
</g>
</g>
<!-- Node1&#45;&gt;Node15 -->
<g id="edge23" class="edge"><title>Node1&#45;&gt;Node15</title>
<path fill="none" stroke="midnightblue" d="M740.646,-280.368C725.496,-262.055 689.918,-219.049 670.323,-195.362"/>
<polygon fill="midnightblue" stroke="midnightblue" points="672.966,-193.066 663.895,-187.591 667.572,-197.528 672.966,-193.066"/>
</g>
<!-- Node16 -->
<g id="node17" class="node"><title>Node16</title>
<g id="a_node17"><a xlink:href="_memory_block_8hpp.html" target="_top" xlink:title="MemoryBlock.hpp">
<polygon fill="white" stroke="black" points="474.287,-224.5 474.287,-243.5 569.287,-243.5 569.287,-224.5 474.287,-224.5"/>
<text text-anchor="middle" x="521.787" y="-231.5" font-family="Helvetica,sans-Serif" font-size="10.00">MemoryBlock.hpp</text>
</a>
</g>
</g>
<!-- Node1&#45;&gt;Node16 -->
<g id="edge25" class="edge"><title>Node1&#45;&gt;Node16</title>
<path fill="none" stroke="midnightblue" d="M711.977,-280.444C672.8,-271.083 609.911,-256.056 567.272,-245.868"/>
<polygon fill="midnightblue" stroke="midnightblue" points="567.97,-242.436 557.43,-243.516 566.343,-249.245 567.97,-242.436"/>
</g>
<!-- Node19 -->
<g id="node20" class="node"><title>Node19</title>
<g id="a_node20"><a xlink:href="vk_assert_8hpp.html" target="_top" xlink:title="vkAssert.hpp">
<polygon fill="white" stroke="black" points="778.287,-112.5 778.287,-131.5 851.287,-131.5 851.287,-112.5 778.287,-112.5"/>
<text text-anchor="middle" x="814.787" y="-119.5" font-family="Helvetica,sans-Serif" font-size="10.00">vkAssert.hpp</text>
</a>
</g>
</g>
<!-- Node1&#45;&gt;Node19 -->
<g id="edge36" class="edge"><title>Node1&#45;&gt;Node19</title>
<path fill="none" stroke="midnightblue" d="M754.034,-280.396C760.205,-271.595 769.594,-257.356 775.787,-244 791.898,-209.256 804.086,-166.021 810.268,-141.768"/>
<polygon fill="midnightblue" stroke="midnightblue" points="813.734,-142.331 812.744,-131.782 806.94,-140.646 813.734,-142.331"/>
</g>
<!-- Node21 -->
<g id="node22" class="node"><title>Node21</title>
<g id="a_node22"><a xlink:href="_create_info_base_8hpp.html" target="_top" xlink:title="CreateInfoBase.hpp">
<polygon fill="white" stroke="black" points="896.287,-224.5 896.287,-243.5 997.287,-243.5 997.287,-224.5 896.287,-224.5"/>
<text text-anchor="middle" x="946.787" y="-231.5" font-family="Helvetica,sans-Serif" font-size="10.00">CreateInfoBase.hpp</text>
</a>
</g>
</g>
<!-- Node1&#45;&gt;Node21 -->
<g id="edge40" class="edge"><title>Node1&#45;&gt;Node21</title>
<path fill="none" stroke="midnightblue" d="M779.319,-280.444C813.379,-271.201 867.793,-256.436 905.302,-246.257"/>
<polygon fill="midnightblue" stroke="midnightblue" points="906.668,-249.513 915.402,-243.516 904.835,-242.758 906.668,-249.513"/>
</g>
<!-- Node23 -->
<g id="node24" class="node"><title>Node23</title>
<polygon fill="white" stroke="#bfbfbf" points="1015.79,-224.5 1015.79,-243.5 1093.79,-243.5 1093.79,-224.5 1015.79,-224.5"/>
<text text-anchor="middle" x="1054.79" y="-231.5" font-family="Helvetica,sans-Serif" font-size="10.00">unordered_set</text>
</g>
<!-- Node1&#45;&gt;Node23 -->
<g id="edge44" class="edge"><title>Node1&#45;&gt;Node23</title>
<path fill="none" stroke="midnightblue" d="M793.949,-281.077C845.587,-272.184 931.716,-257.262 1005.79,-244 1005.89,-243.982 1005.99,-243.964 1006.09,-243.946"/>
<polygon fill="midnightblue" stroke="midnightblue" points="1006.52,-247.424 1015.74,-242.204 1005.28,-240.535 1006.52,-247.424"/>
</g>
<!-- Node24 -->
<g id="node25" class="node"><title>Node24</title>
<polygon fill="white" stroke="#bfbfbf" points="1112.29,-224.5 1112.29,-243.5 1147.29,-243.5 1147.29,-224.5 1112.29,-224.5"/>
<text text-anchor="middle" x="1129.79" y="-231.5" font-family="Helvetica,sans-Serif" font-size="10.00">map</text>
</g>
<!-- Node1&#45;&gt;Node24 -->
<g id="edge45" class="edge"><title>Node1&#45;&gt;Node24</title>
<path fill="none" stroke="midnightblue" d="M793.979,-281.294C796.957,-280.843 799.913,-280.407 802.787,-280 932.502,-261.613 969.935,-272.805 1102.11,-243.689"/>
<polygon fill="midnightblue" stroke="midnightblue" points="1103.22,-247.027 1112.21,-241.426 1101.69,-240.196 1103.22,-247.027"/>
</g>
<!-- Node3 -->
<g id="node4" class="node"><title>Node3</title>
<g id="a_node4"><a xlink:href="vpr__stdafx_8h.html" target="_top" xlink:title="vpr_stdafx.h">
<polygon fill="white" stroke="black" points="485.787,-56.5 485.787,-75.5 553.787,-75.5 553.787,-56.5 485.787,-56.5"/>
<text text-anchor="middle" x="519.787" y="-63.5" font-family="Helvetica,sans-Serif" font-size="10.00">vpr_stdafx.h</text>
</a>
</g>
</g>
<!-- Node2&#45;&gt;Node3 -->
<g id="edge3" class="edge"><title>Node2&#45;&gt;Node3</title>
<path fill="none" stroke="midnightblue" d="M183.915,-115.625C253.08,-105.612 401.344,-84.1473 475.561,-73.4027"/>
<polygon fill="midnightblue" stroke="midnightblue" points="476.13,-76.8568 485.526,-71.9601 475.127,-69.9291 476.13,-76.8568"/>
</g>
<!-- Node5 -->
<g id="node6" class="node"><title>Node5</title>
<g id="a_node6"><a xlink:href="_forward_decl_8hpp.html" target="_top" xlink:title="ForwardDecl.hpp">
<polygon fill="white" stroke="black" points="266.287,-56.5 266.287,-75.5 355.287,-75.5 355.287,-56.5 266.287,-56.5"/>
<text text-anchor="middle" x="310.787" y="-63.5" font-family="Helvetica,sans-Serif" font-size="10.00">ForwardDecl.hpp</text>
</a>
</g>
</g>
<!-- Node2&#45;&gt;Node5 -->
<g id="edge5" class="edge"><title>Node2&#45;&gt;Node5</title>
<path fill="none" stroke="midnightblue" d="M172.773,-112.444C200.483,-103.32 244.539,-88.8133 275.403,-78.6509"/>
<polygon fill="midnightblue" stroke="midnightblue" points="276.519,-81.9684 284.922,-75.5164 274.329,-75.3196 276.519,-81.9684"/>
</g>
<!-- Node6 -->
<g id="node7" class="node"><title>Node6</title>
<polygon fill="white" stroke="#bfbfbf" points="26.7871,-56.5 26.7871,-75.5 78.7871,-75.5 78.7871,-56.5 26.7871,-56.5"/>
<text text-anchor="middle" x="52.7871" y="-63.5" font-family="Helvetica,sans-Serif" font-size="10.00">memory</text>
</g>
<!-- Node2&#45;&gt;Node6 -->
<g id="edge6" class="edge"><title>Node2&#45;&gt;Node6</title>
<path fill="none" stroke="midnightblue" d="M131.684,-112.324C116.884,-103.822 94.0928,-90.7288 76.8049,-80.7975"/>
<polygon fill="midnightblue" stroke="midnightblue" points="78.2668,-77.6009 67.8523,-75.6545 74.7799,-83.6707 78.2668,-77.6009"/>
</g>
<!-- Node3&#45;&gt;Node4 -->
<g id="edge4" class="edge"><title>Node3&#45;&gt;Node4</title>
<path fill="none" stroke="midnightblue" d="M554.027,-57.6877C556.987,-57.0999 559.938,-56.5294 562.787,-56 641.251,-41.4229 732.713,-27.0764 788.414,-18.6336"/>
<polygon fill="midnightblue" stroke="midnightblue" points="789.023,-22.0815 798.388,-17.1271 787.977,-15.1601 789.023,-22.0815"/>
</g>
<!-- Node7&#45;&gt;Node3 -->
<g id="edge8" class="edge"><title>Node7&#45;&gt;Node3</title>
<path fill="none" stroke="midnightblue" d="M659.484,-112.444C631.436,-103.32 586.843,-88.8133 555.603,-78.6509"/>
<polygon fill="midnightblue" stroke="midnightblue" points="556.559,-75.2816 545.967,-75.5164 554.394,-81.9383 556.559,-75.2816"/>
</g>
<!-- Node7&#45;&gt;Node5 -->
<g id="edge9" class="edge"><title>Node7&#45;&gt;Node5</title>
<path fill="none" stroke="midnightblue" d="M637.53,-114.051C567.626,-103.985 438.567,-85.4003 365.31,-74.8513"/>
<polygon fill="midnightblue" stroke="midnightblue" points="365.752,-71.3789 355.355,-73.4178 364.754,-78.3075 365.752,-71.3789"/>
</g>
<!-- Node8 -->
<g id="node9" class="node"><title>Node8</title>
<polygon fill="white" stroke="#bfbfbf" points="571.787,-56.5 571.787,-75.5 611.787,-75.5 611.787,-56.5 571.787,-56.5"/>
<text text-anchor="middle" x="591.787" y="-63.5" font-family="Helvetica,sans-Serif" font-size="10.00">utility</text>
</g>
<!-- Node7&#45;&gt;Node8 -->
<g id="edge10" class="edge"><title>Node7&#45;&gt;Node8</title>
<path fill="none" stroke="midnightblue" d="M670.684,-112.324C655.884,-103.822 633.093,-90.7288 615.805,-80.7975"/>
<polygon fill="midnightblue" stroke="midnightblue" points="617.267,-77.6009 606.852,-75.6545 613.78,-83.6707 617.267,-77.6009"/>
</g>
<!-- Node9 -->
<g id="node10" class="node"><title>Node9</title>
<polygon fill="white" stroke="#bfbfbf" points="630.287,-56.5 630.287,-75.5 689.287,-75.5 689.287,-56.5 630.287,-56.5"/>
<text text-anchor="middle" x="659.787" y="-63.5" font-family="Helvetica,sans-Serif" font-size="10.00">stdexcept</text>
</g>
<!-- Node7&#45;&gt;Node9 -->
<g id="edge11" class="edge"><title>Node7&#45;&gt;Node9</title>
<path fill="none" stroke="midnightblue" d="M681.494,-112.083C677.935,-104.691 672.765,-93.9533 668.363,-84.8111"/>
<polygon fill="midnightblue" stroke="midnightblue" points="671.492,-83.2427 664.001,-75.7511 665.185,-86.2795 671.492,-83.2427"/>
</g>
<!-- Node10 -->
<g id="node11" class="node"><title>Node10</title>
<polygon fill="white" stroke="#bfbfbf" points="707.287,-56.5 707.287,-75.5 756.287,-75.5 756.287,-56.5 707.287,-56.5"/>
<text text-anchor="middle" x="731.787" y="-63.5" font-family="Helvetica,sans-Serif" font-size="10.00">cassert</text>
</g>
<!-- Node7&#45;&gt;Node10 -->
<g id="edge12" class="edge"><title>Node7&#45;&gt;Node10</title>
<path fill="none" stroke="midnightblue" d="M693.383,-112.083C700.015,-104.298 709.808,-92.8015 717.845,-83.3665"/>
<polygon fill="midnightblue" stroke="midnightblue" points="720.512,-85.6332 724.332,-75.7511 715.183,-81.0939 720.512,-85.6332"/>
</g>
<!-- Node11&#45;&gt;Node3 -->
<g id="edge14" class="edge"><title>Node11&#45;&gt;Node3</title>
<path fill="none" stroke="midnightblue" d="M245.342,-168.301C246.737,-154.17 251.634,-126.367 268.787,-112 299.489,-86.2839 412.167,-74.4402 475.612,-69.7054"/>
<polygon fill="midnightblue" stroke="midnightblue" points="476.004,-73.1863 485.728,-68.9795 475.503,-66.2043 476.004,-73.1863"/>
</g>
<!-- Node11&#45;&gt;Node5 -->
<g id="edge15" class="edge"><title>Node11&#45;&gt;Node5</title>
<path fill="none" stroke="midnightblue" d="M240.405,-168.369C234.43,-155.284 225.571,-130.043 235.787,-112 244.134,-97.2584 259.449,-86.8192 274.074,-79.7321"/>
<polygon fill="midnightblue" stroke="midnightblue" points="275.784,-82.8025 283.505,-75.5474 272.945,-76.4041 275.784,-82.8025"/>
</g>
<!-- Node11&#45;&gt;Node6 -->
<g id="edge17" class="edge"><title>Node11&#45;&gt;Node6</title>
<path fill="none" stroke="midnightblue" d="M184.124,-174.206C120.65,-169.86 27.1566,-158.954 4.78706,-132 -9.07122,-115.302 11.3437,-95.0508 29.6727,-81.6373"/>
<polygon fill="midnightblue" stroke="midnightblue" points="32.1054,-84.2108 38.3437,-75.6473 28.1267,-78.4514 32.1054,-84.2108"/>
</g>
<!-- Node11&#45;&gt;Node12 -->
<g id="edge16" class="edge"><title>Node11&#45;&gt;Node12</title>
<path fill="none" stroke="midnightblue" d="M263.168,-168.444C282.004,-159.675 311.518,-145.935 333.166,-135.858"/>
<polygon fill="midnightblue" stroke="midnightblue" points="334.904,-138.91 342.493,-131.516 331.95,-132.564 334.904,-138.91"/>
</g>
<!-- Node13 -->
<g id="node14" class="node"><title>Node13</title>
<polygon fill="white" stroke="#bfbfbf" points="277.787,-112.5 277.787,-131.5 321.787,-131.5 321.787,-112.5 277.787,-112.5"/>
<text text-anchor="middle" x="299.787" y="-119.5" font-family="Helvetica,sans-Serif" font-size="10.00">mutex</text>
</g>
<!-- Node11&#45;&gt;Node13 -->
<g id="edge18" class="edge"><title>Node11&#45;&gt;Node13</title>
<path fill="none" stroke="midnightblue" d="M253.869,-168.083C261.958,-160.141 273.982,-148.335 283.697,-138.797"/>
<polygon fill="midnightblue" stroke="midnightblue" points="286.19,-141.254 290.874,-131.751 281.286,-136.26 286.19,-141.254"/>
</g>
<!-- Node14&#45;&gt;Node3 -->
<g id="edge20" class="edge"><title>Node14&#45;&gt;Node3</title>
<path fill="none" stroke="midnightblue" d="M92.0378,-113.381C94.994,-112.887 97.9351,-112.42 100.787,-112 236.8,-91.9765 398.895,-77.1027 475.498,-70.6072"/>
<polygon fill="midnightblue" stroke="midnightblue" points="476.057,-74.0726 485.728,-69.7466 475.47,-67.0973 476.057,-74.0726"/>
</g>
<!-- Node14&#45;&gt;Node5 -->
<g id="edge21" class="edge"><title>Node14&#45;&gt;Node5</title>
<path fill="none" stroke="midnightblue" d="M91.9717,-112.799C136.943,-103.386 210.825,-87.9223 260.13,-77.6026"/>
<polygon fill="midnightblue" stroke="midnightblue" points="260.882,-81.0212 269.953,-75.5467 259.448,-74.1696 260.882,-81.0212"/>
</g>
<!-- Node14&#45;&gt;Node6 -->
<g id="edge22" class="edge"><title>Node14&#45;&gt;Node6</title>
<path fill="none" stroke="midnightblue" d="M52.7871,-112.083C52.7871,-105.006 52.7871,-94.8611 52.7871,-85.9865"/>
<polygon fill="midnightblue" stroke="midnightblue" points="56.2872,-85.751 52.7871,-75.7511 49.2872,-85.7511 56.2872,-85.751"/>
</g>
<!-- Node15&#45;&gt;Node3 -->
<g id="edge24" class="edge"><title>Node15&#45;&gt;Node3</title>
<path fill="none" stroke="midnightblue" d="M647.965,-168.153C634.89,-155.224 609.368,-130.677 585.787,-112 571.878,-100.983 555.386,-89.7382 542.367,-81.2448"/>
<polygon fill="midnightblue" stroke="midnightblue" points="543.89,-78.0626 533.588,-75.5893 540.099,-83.9472 543.89,-78.0626"/>
</g>
<!-- Node16&#45;&gt;Node3 -->
<g id="edge26" class="edge"><title>Node16&#45;&gt;Node3</title>
<path fill="none" stroke="midnightblue" d="M526.663,-224.372C531.346,-215.552 538.095,-201.299 540.787,-188 548.161,-151.576 535.758,-108.657 527.091,-84.9745"/>
<polygon fill="midnightblue" stroke="midnightblue" points="530.317,-83.6124 523.456,-75.5392 523.785,-86.1289 530.317,-83.6124"/>
</g>
<!-- Node16&#45;&gt;Node5 -->
<g id="edge27" class="edge"><title>Node16&#45;&gt;Node5</title>
<path fill="none" stroke="midnightblue" d="M492.385,-224.369C472.424,-217.276 446.531,-205.515 428.787,-188 401.911,-161.47 416.832,-139.346 390.787,-112 377.59,-98.1439 359.173,-87.3858 343.335,-79.8679"/>
<polygon fill="midnightblue" stroke="midnightblue" points="344.432,-76.5235 333.877,-75.607 341.557,-82.9057 344.432,-76.5235"/>
</g>
<!-- Node16&#45;&gt;Node7 -->
<g id="edge28" class="edge"><title>Node16&#45;&gt;Node7</title>
<path fill="none" stroke="midnightblue" d="M569.415,-229.757C625.719,-224.815 714.376,-213.174 734.787,-188 748.617,-170.943 727.604,-150.644 708.951,-137.324"/>
<polygon fill="midnightblue" stroke="midnightblue" points="710.661,-134.255 700.415,-131.561 706.744,-140.057 710.661,-134.255"/>
</g>
<!-- Node16&#45;&gt;Node13 -->
<g id="edge35" class="edge"><title>Node16&#45;&gt;Node13</title>
<path fill="none" stroke="midnightblue" d="M491.115,-224.424C465.035,-216.579 426.969,-203.804 395.787,-188 367.269,-173.546 337.181,-152.004 318.451,-137.735"/>
<polygon fill="midnightblue" stroke="midnightblue" points="320.511,-134.904 310.458,-131.559 316.231,-140.443 320.511,-134.904"/>
</g>
<!-- Node17 -->
<g id="node18" class="node"><title>Node17</title>
<g id="a_node18"><a xlink:href="_suballocation_8hpp.html" target="_top" xlink:title="Suballocation.hpp">
<polygon fill="white" stroke="black" points="437.787,-168.5 437.787,-187.5 531.787,-187.5 531.787,-168.5 437.787,-168.5"/>
<text text-anchor="middle" x="484.787" y="-175.5" font-family="Helvetica,sans-Serif" font-size="10.00">Suballocation.hpp</text>
</a>
</g>
</g>
<!-- Node16&#45;&gt;Node17 -->
<g id="edge29" class="edge"><title>Node16&#45;&gt;Node17</title>
<path fill="none" stroke="midnightblue" d="M515.677,-224.083C510.505,-216.534 502.941,-205.495 496.593,-196.23"/>
<polygon fill="midnightblue" stroke="midnightblue" points="499.323,-194.022 490.783,-187.751 493.548,-197.979 499.323,-194.022"/>
</g>
<!-- Node17&#45;&gt;Node3 -->
<g id="edge30" class="edge"><title>Node17&#45;&gt;Node3</title>
<path fill="none" stroke="midnightblue" d="M492.177,-168.368C499.073,-159.77 508.997,-145.882 513.787,-132 518.933,-117.086 520.257,-99.1695 520.393,-85.9273"/>
<polygon fill="midnightblue" stroke="midnightblue" points="523.89,-85.6448 520.274,-75.6863 516.891,-85.7264 523.89,-85.6448"/>
</g>
<!-- Node17&#45;&gt;Node5 -->
<g id="edge31" class="edge"><title>Node17&#45;&gt;Node5</title>
<path fill="none" stroke="midnightblue" d="M478.61,-168.272C468.537,-154.598 447.32,-128.033 423.787,-112 402.049,-97.1899 374.711,-86.1381 352.37,-78.6936"/>
<polygon fill="midnightblue" stroke="midnightblue" points="353.405,-75.3502 342.814,-75.6252 351.265,-82.015 353.405,-75.3502"/>
</g>
<!-- Node17&#45;&gt;Node7 -->
<g id="edge32" class="edge"><title>Node17&#45;&gt;Node7</title>
<path fill="none" stroke="midnightblue" d="M516.636,-168.444C551.185,-159.162 606.469,-144.309 644.37,-134.127"/>
<polygon fill="midnightblue" stroke="midnightblue" points="645.338,-137.491 654.087,-131.516 643.521,-130.731 645.338,-137.491"/>
</g>
<!-- Node17&#45;&gt;Node12 -->
<g id="edge34" class="edge"><title>Node17&#45;&gt;Node12</title>
<path fill="none" stroke="midnightblue" d="M465.139,-168.444C444.823,-159.596 412.884,-145.687 389.689,-135.586"/>
<polygon fill="midnightblue" stroke="midnightblue" points="390.909,-132.3 380.343,-131.516 388.114,-138.718 390.909,-132.3"/>
</g>
<!-- Node18 -->
<g id="node19" class="node"><title>Node18</title>
<polygon fill="white" stroke="#bfbfbf" points="476.287,-112.5 476.287,-131.5 505.287,-131.5 505.287,-112.5 476.287,-112.5"/>
<text text-anchor="middle" x="490.787" y="-119.5" font-family="Helvetica,sans-Serif" font-size="10.00">list</text>
</g>
<!-- Node17&#45;&gt;Node18 -->
<g id="edge33" class="edge"><title>Node17&#45;&gt;Node18</title>
<path fill="none" stroke="midnightblue" d="M485.778,-168.083C486.573,-160.927 487.716,-150.635 488.71,-141.691"/>
<polygon fill="midnightblue" stroke="midnightblue" points="492.189,-142.076 489.815,-131.751 485.232,-141.303 492.189,-142.076"/>
</g>
<!-- Node19&#45;&gt;Node4 -->
<g id="edge39" class="edge"><title>Node19&#45;&gt;Node4</title>
<path fill="none" stroke="midnightblue" d="M810.651,-112.355C805.176,-99.6775 796.968,-75.44 803.787,-56 807.572,-45.2094 815.154,-35.084 822.387,-27.1808"/>
<polygon fill="midnightblue" stroke="midnightblue" points="825.113,-29.4005 829.625,-19.8145 820.12,-24.4943 825.113,-29.4005"/>
</g>
<!-- Node19&#45;&gt;Node10 -->
<g id="edge38" class="edge"><title>Node19&#45;&gt;Node10</title>
<path fill="none" stroke="midnightblue" d="M801.452,-112.324C788.625,-103.979 769.002,-91.2122 753.847,-81.3524"/>
<polygon fill="midnightblue" stroke="midnightblue" points="755.38,-78.1742 745.089,-75.6545 751.563,-84.0417 755.38,-78.1742"/>
</g>
<!-- Node20 -->
<g id="node21" class="node"><title>Node20</title>
<polygon fill="white" stroke="#bfbfbf" points="812.787,-56.5 812.787,-75.5 866.787,-75.5 866.787,-56.5 812.787,-56.5"/>
<text text-anchor="middle" x="839.787" y="-63.5" font-family="Helvetica,sans-Serif" font-size="10.00">iostream</text>
</g>
<!-- Node19&#45;&gt;Node20 -->
<g id="edge37" class="edge"><title>Node19&#45;&gt;Node20</title>
<path fill="none" stroke="midnightblue" d="M818.915,-112.083C822.301,-104.77 827.203,-94.1814 831.406,-85.1034"/>
<polygon fill="midnightblue" stroke="midnightblue" points="834.71,-86.2962 835.736,-75.7511 828.358,-83.3553 834.71,-86.2962"/>
</g>
<!-- Node21&#45;&gt;Node4 -->
<g id="edge42" class="edge"><title>Node21&#45;&gt;Node4</title>
<path fill="none" stroke="midnightblue" d="M947.369,-224.2C948.739,-196.41 949.405,-109.215 908.787,-56 898.494,-42.5142 882.924,-31.8641 869.178,-24.3173"/>
<polygon fill="midnightblue" stroke="midnightblue" points="870.531,-21.0765 860.041,-19.5917 867.315,-27.2943 870.531,-21.0765"/>
</g>
<!-- Node22 -->
<g id="node23" class="node"><title>Node22</title>
<polygon fill="white" stroke="#bfbfbf" points="895.787,-168.5 895.787,-187.5 935.787,-187.5 935.787,-168.5 895.787,-168.5"/>
<text text-anchor="middle" x="915.787" y="-175.5" font-family="Helvetica,sans-Serif" font-size="10.00">limits</text>
</g>
<!-- Node21&#45;&gt;Node22 -->
<g id="edge41" class="edge"><title>Node21&#45;&gt;Node22</title>
<path fill="none" stroke="midnightblue" d="M941.668,-224.083C937.38,-216.613 931.129,-205.724 925.845,-196.52"/>
<polygon fill="midnightblue" stroke="midnightblue" points="928.825,-194.681 920.811,-187.751 922.754,-198.166 928.825,-194.681"/>
</g>
</g>
</svg>
        <g id="navigator" transform="translate(0 0)" fill="#404254">
                <rect fill="#f2f5e9" fill-opacity="0.5" stroke="#606060" stroke-width=".5" x="0" y="0" width="60" height="60"/>
                <use id="zoomplus" xlink:href="#zoomPlus" x="17" y="9" onmousedown="handleZoom(evt,'in')"/>
                <use id="zoomminus" xlink:href="#zoomMin" x="42" y="9" onmousedown="handleZoom(evt,'out')"/>
                <use id="reset" xlink:href="#resetDef" x="30" y="36" onmousedown="handleReset()"/>
                <g id="arrowUp" xlink:href="#dirArrow" transform="translate(30 24)" onmousedown="handlePan(0,-1)">
                  <use xlink:href="#rim" fill="#404040">
                        <set attributeName="fill" to="#808080" begin="arrowUp.mouseover" end="arrowUp.mouseout"/>
                  </use>
                  <path fill="none" stroke="white" stroke-width="1.5" d="M0,-3.0v7 M-2.5,-0.5L0,-3.0L2.5,-0.5"/>
                </g>
                <g id="arrowRight" xlink:href="#dirArrow" transform="rotate(90) translate(36 -43)" onmousedown="handlePan(1,0)">
                  <use xlink:href="#rim" fill="#404040">
                        <set attributeName="fill" to="#808080" begin="arrowRight.mouseover" end="arrowRight.mouseout"/>
                  </use>
                  <path fill="none" stroke="white" stroke-width="1.5" d="M0,-3.0v7 M-2.5,-0.5L0,-3.0L2.5,-0.5"/>
                </g>
                <g id="arrowDown" xlink:href="#dirArrow" transform="rotate(180) translate(-30 -48)" onmousedown="handlePan(0,1)">
                  <use xlink:href="#rim" fill="#404040">
                        <set attributeName="fill" to="#808080" begin="arrowDown.mouseover" end="arrowDown.mouseout"/>
                  </use>
                  <path fill="none" stroke="white" stroke-width="1.5" d="M0,-3.0v7 M-2.5,-0.5L0,-3.0L2.5,-0.5"/>
                </g>
                <g id="arrowLeft" xlink:href="#dirArrow" transform="rotate(270) translate(-36 17)" onmousedown="handlePan(-1,0)">
                  <use xlink:href="#rim" fill="#404040">
                        <set attributeName="fill" to="#808080" begin="arrowLeft.mouseover" end="arrowLeft.mouseout"/>
                  </use>
                  <path fill="none" stroke="white" stroke-width="1.5" d="M0,-3.0v7 M-2.5,-0.5L0,-3.0L2.5,-0.5"/>
                </g>
        </g>
        <svg viewBox="0 0 15 15" width="100%" height="30px" preserveAspectRatio="xMaxYMin meet">
         <g id="arrow_out" transform="scale(0.3 0.3)">
          <a xlink:href="_allocator_impl_8cpp__incl_org.svg" target="_base">
           <rect id="button" ry="5" rx="5" y="6" x="6" height="38" width="38"
                fill="#f2f5e9" fill-opacity="0.5" stroke="#606060" stroke-width="1.0"/>
           <path id="arrow"
             d="M 11.500037,31.436501 C 11.940474,20.09759 22.043105,11.32322 32.158766,21.979434 L 37.068811,17.246167 C 37.068811,17.246167 37.088388,32 37.088388,32 L 22.160133,31.978069 C 22.160133,31.978069 26.997745,27.140456 26.997745,27.140456 C 18.528582,18.264221 13.291696,25.230495 11.500037,31.436501 z"
             style="fill:#404040;"/>
          </a>
         </g>
        </svg>
</svg>
