<?xml version="1.0" encoding="UTF-8" standalone="no"?>
<!DOCTYPE svg PUBLIC "-//W3C//DTD SVG 1.1//EN"
 "http://www.w3.org/Graphics/SVG/1.1/DTD/svg11.dtd">
<!-- Generated by graphviz version 2.38.0 (20140413.2041)
 -->
<!-- Title: alloc/include/Allocator.hpp Pages: 1 -->
<svg width="557pt" height="140pt"
 viewBox="0.00 0.00 556.50 140.00" xmlns="http://www.w3.org/2000/svg" xmlns:xlink="http://www.w3.org/1999/xlink">
<g id="graph0" class="graph" transform="scale(1 1) rotate(0) translate(4 136)">
<title>alloc/include/Allocator.hpp</title>
<polygon fill="white" stroke="none" points="-4,4 -4,-136 552.5,-136 552.5,4 -4,4"/>
<!-- Node5 -->
<g id="node1" class="node"><title>Node5</title>
<polygon fill="#bfbfbf" stroke="black" points="171,-112.5 171,-131.5 302,-131.5 302,-112.5 171,-112.5"/>
<text text-anchor="middle" x="236.5" y="-119.5" font-family="Helvetica,sans-Serif" font-size="10.00">alloc/include/Allocator.hpp</text>
</g>
<!-- Node6 -->
<g id="node2" class="node"><title>Node6</title>
<g id="a_node2"><a xlink:href="_allocation_collection_8cpp.html" target="_top" xlink:title="alloc/src/AllocationCollection.cpp">
<polygon fill="white" stroke="black" points="0,-56.5 0,-75.5 161,-75.5 161,-56.5 0,-56.5"/>
<text text-anchor="middle" x="80.5" y="-63.5" font-family="Helvetica,sans-Serif" font-size="10.00">alloc/src/AllocationCollection.cpp</text>
</a>
</g>
</g>
<!-- Node5&#45;&gt;Node6 -->
<g id="edge1" class="edge"><title>Node5&#45;&gt;Node6</title>
<path fill="none" stroke="midnightblue" d="M202.33,-109.172C172.956,-99.0039 131.302,-84.5852 105.103,-75.5164"/>
<polygon fill="midnightblue" stroke="midnightblue" points="201.187,-112.48 211.781,-112.444 203.476,-105.865 201.187,-112.48"/>
</g>
<!-- Node7 -->
<g id="node3" class="node"><title>Node7</title>
<g id="a_node3"><a xlink:href="_allocator_8cpp.html" target="_top" xlink:title="alloc/src/Allocator.cpp">
<polygon fill="white" stroke="black" points="110,-0.5 110,-19.5 223,-19.5 223,-0.5 110,-0.5"/>
<text text-anchor="middle" x="166.5" y="-7.5" font-family="Helvetica,sans-Serif" font-size="10.00">alloc/src/Allocator.cpp</text>
</a>
</g>
</g>
<!-- Node5&#45;&gt;Node7 -->
<g id="edge2" class="edge"><title>Node5&#45;&gt;Node7</title>
<path fill="none" stroke="midnightblue" d="M225.452,-103.64C210.246,-79.7436 183.445,-37.6286 171.967,-19.5914"/>
<polygon fill="midnightblue" stroke="midnightblue" points="222.686,-105.811 231.007,-112.368 228.591,-102.053 222.686,-105.811"/>
</g>
<!-- Node8 -->
<g id="node4" class="node"><title>Node8</title>
<g id="a_node4"><a xlink:href="_allocator_impl_8hpp.html" target="_top" xlink:title="alloc/src/AllocatorImpl.hpp">
<polygon fill="white" stroke="black" points="218,-56.5 218,-75.5 349,-75.5 349,-56.5 218,-56.5"/>
<text text-anchor="middle" x="283.5" y="-63.5" font-family="Helvetica,sans-Serif" font-size="10.00">alloc/src/AllocatorImpl.hpp</text>
</a>
</g>
</g>
<!-- Node5&#45;&gt;Node8 -->
<g id="edge3" class="edge"><title>Node5&#45;&gt;Node8</title>
<path fill="none" stroke="midnightblue" d="M250.921,-104.431C259.158,-94.9673 269.154,-83.4827 275.883,-75.7511"/>
<polygon fill="midnightblue" stroke="midnightblue" points="248.186,-102.242 244.261,-112.083 253.466,-106.838 248.186,-102.242"/>
</g>
<!-- Node11 -->
<g id="node7" class="node"><title>Node11</title>
<g id="a_node7"><a xlink:href="_memory_block_8cpp.html" target="_top" xlink:title="alloc/src/MemoryBlock.cpp">
<polygon fill="white" stroke="black" points="367,-56.5 367,-75.5 502,-75.5 502,-56.5 367,-56.5"/>
<text text-anchor="middle" x="434.5" y="-63.5" font-family="Helvetica,sans-Serif" font-size="10.00">alloc/src/MemoryBlock.cpp</text>
</a>
</g>
</g>
<!-- Node5&#45;&gt;Node11 -->
<g id="edge7" class="edge"><title>Node5&#45;&gt;Node11</title>
<path fill="none" stroke="midnightblue" d="M277.938,-109.699C315.307,-99.507 369.443,-84.7429 403.273,-75.5164"/>
<polygon fill="midnightblue" stroke="midnightblue" points="276.6,-106.436 267.874,-112.444 278.442,-113.189 276.6,-106.436"/>
</g>
<!-- Node8&#45;&gt;Node7 -->
<g id="edge4" class="edge"><title>Node8&#45;&gt;Node7</title>
<path fill="none" stroke="midnightblue" d="M255.836,-52.2321C233.951,-42.1312 204.003,-28.3091 184.952,-19.5164"/>
<polygon fill="midnightblue" stroke="midnightblue" points="254.415,-55.4308 264.961,-56.4435 257.348,-49.075 254.415,-55.4308"/>
</g>
<!-- Node9 -->
<g id="node5" class="node"><title>Node9</title>
<g id="a_node5"><a xlink:href="_allocator_impl_8cpp.html" target="_top" xlink:title="alloc/src/AllocatorImpl.cpp">
<polygon fill="white" stroke="black" points="241,-0.5 241,-19.5 372,-19.5 372,-0.5 241,-0.5"/>
<text text-anchor="middle" x="306.5" y="-7.5" font-family="Helvetica,sans-Serif" font-size="10.00">alloc/src/AllocatorImpl.cpp</text>
</a>
</g>
</g>
<!-- Node8&#45;&gt;Node9 -->
<g id="edge5" class="edge"><title>Node8&#45;&gt;Node9</title>
<path fill="none" stroke="midnightblue" d="M291.299,-46.6897C295.175,-37.589 299.679,-27.0141 302.773,-19.7511"/>
<polygon fill="midnightblue" stroke="midnightblue" points="287.997,-45.5112 287.298,-56.083 294.437,-48.2543 287.997,-45.5112"/>
</g>
<!-- Node10 -->
<g id="node6" class="node"><title>Node10</title>
<g id="a_node6"><a xlink:href="_debug_visualization_8cpp.html" target="_top" xlink:title="alloc/src/DebugVisualization.cpp">
<polygon fill="white" stroke="black" points="390.5,-0.5 390.5,-19.5 548.5,-19.5 548.5,-0.5 390.5,-0.5"/>
<text text-anchor="middle" x="469.5" y="-7.5" font-family="Helvetica,sans-Serif" font-size="10.00">alloc/src/DebugVisualization.cpp</text>
</a>
</g>
</g>
<!-- Node8&#45;&gt;Node10 -->
<g id="edge6" class="edge"><title>Node8&#45;&gt;Node10</title>
<path fill="none" stroke="midnightblue" d="M322.878,-53.5677C357.966,-43.381 408.521,-28.7034 440.166,-19.5164"/>
<polygon fill="midnightblue" stroke="midnightblue" points="321.6,-50.2942 312.972,-56.4435 323.552,-57.0166 321.6,-50.2942"/>
</g>
</g>
</svg>
