<?xml version="1.0" encoding="UTF-8" standalone="no"?>
<!DOCTYPE svg PUBLIC "-//W3C//DTD SVG 1.1//EN"
 "http://www.w3.org/Graphics/SVG/1.1/DTD/svg11.dtd">
<!-- Generated by graphviz version 2.38.0 (20140413.2041)
 -->
<!-- Title: src/alloc/AllocationCollection.cpp Pages: 1 -->
<!--zoomable 364 -->
<svg id="main" version="1.1" xmlns="http://www.w3.org/2000/svg" xmlns:xlink="http://www.w3.org/1999/xlink" xml:space="preserve" onload="init(evt)">
<style type="text/css"><![CDATA[
.edge:hover path { stroke: red; }
.edge:hover polygon { stroke: red; fill: red; }
]]></style>
<script type="text/javascript"><![CDATA[
var edges = document.getElementsByTagName('g');
if (edges && edges.length) {
  for (var i=0;i<edges.length;i++) {
    if (edges[i].id.substr(0,4)=='edge') {
      edges[i].setAttribute('class','edge');
    }
  }
}
]]></script>
        <defs>
                <circle id="rim" cx="0" cy="0" r="7"/>
                <circle id="rim2" cx="0" cy="0" r="3.5"/>
                <g id="zoomPlus">
                        <use xlink:href="#rim" fill="#404040">
                                <set attributeName="fill" to="#808080" begin="zoomplus.mouseover" end="zoomplus.mouseout"/>
                        </use>
                        <path d="M-4,0h8M0,-4v8" fill="none" stroke="white" stroke-width="1.5" pointer-events="none"/>
                </g>
                <g id="zoomMin">
                        <use xlink:href="#rim" fill="#404040">
                                <set attributeName="fill" to="#808080" begin="zoomminus.mouseover" end="zoomminus.mouseout"/>
                        </use>
                        <path d="M-4,0h8" fill="none" stroke="white" stroke-width="1.5" pointer-events="none"/>
                </g>
                <g id="dirArrow">
                        <path fill="none" stroke="white" stroke-width="1.5" d="M0,-3.0v7 M-2.5,-0.5L0,-3.0L2.5,-0.5"/>
                </g>
               <g id="resetDef">
                       <use xlink:href="#rim2" fill="#404040">
                               <set attributeName="fill" to="#808080" begin="reset.mouseover" end="reset.mouseout"/>
                       </use>
               </g>
        </defs>

<script type="text/javascript">
var viewWidth = 1704;
var viewHeight = 364;
var sectionId = 'dynsection-0';
</script>
<script xlink:href="svgpan.js"/>
<svg id="graph" class="graph">
<g id="viewport">
<title>src/alloc/AllocationCollection.cpp</title>
<polygon fill="white" stroke="none" points="-4,4 -4,-360 1700,-360 1700,4 -4,4"/>
<!-- Node0 -->
<g id="node1" class="node"><title>Node0</title>
<polygon fill="#bfbfbf" stroke="black" points="379.5,-336.5 379.5,-355.5 540.5,-355.5 540.5,-336.5 379.5,-336.5"/>
<text text-anchor="middle" x="460" y="-343.5" font-family="Helvetica,sans-Serif" font-size="10.00">src/alloc/AllocationCollection.cpp</text>
</g>
<!-- Node1 -->
<g id="node2" class="node"><title>Node1</title>
<g id="a_node2"><a xlink:href="vpr__stdafx_8h.html" target="_top" xlink:title="vpr_stdafx.h">
<polygon fill="white" stroke="black" points="316,-112.5 316,-131.5 384,-131.5 384,-112.5 316,-112.5"/>
<text text-anchor="middle" x="350" y="-119.5" font-family="Helvetica,sans-Serif" font-size="10.00">vpr_stdafx.h</text>
</a>
</g>
</g>
<!-- Node0&#45;&gt;Node1 -->
<g id="edge1" class="edge"><title>Node0&#45;&gt;Node1</title>
<path fill="none" stroke="midnightblue" d="M417.412,-336.496C350.448,-320.577 222.556,-279.276 168,-188 136.611,-135.484 242.28,-124.803 305.68,-123.004"/>
<polygon fill="midnightblue" stroke="midnightblue" points="305.924,-126.5 315.845,-122.781 305.77,-119.502 305.924,-126.5"/>
</g>
<!-- Node13 -->
<g id="node14" class="node"><title>Node13</title>
<g id="a_node14"><a xlink:href="_allocation_collection_8hpp.html" target="_top" xlink:title="alloc/AllocationCollection.hpp">
<polygon fill="white" stroke="black" points="188,-168.5 188,-187.5 332,-187.5 332,-168.5 188,-168.5"/>
<text text-anchor="middle" x="260" y="-175.5" font-family="Helvetica,sans-Serif" font-size="10.00">alloc/AllocationCollection.hpp</text>
</a>
</g>
</g>
<!-- Node0&#45;&gt;Node13 -->
<g id="edge15" class="edge"><title>Node0&#45;&gt;Node13</title>
<path fill="none" stroke="midnightblue" d="M449.529,-336.309C417.263,-309.528 319.078,-228.035 278.181,-194.09"/>
<polygon fill="midnightblue" stroke="midnightblue" points="280.298,-191.299 270.368,-187.605 275.827,-196.685 280.298,-191.299"/>
</g>
<!-- Node15 -->
<g id="node16" class="node"><title>Node15</title>
<g id="a_node16"><a xlink:href="_allocator_8hpp.html" target="_top" xlink:title="alloc/Allocator.hpp">
<polygon fill="white" stroke="black" points="411.5,-224.5 411.5,-243.5 508.5,-243.5 508.5,-224.5 411.5,-224.5"/>
<text text-anchor="middle" x="460" y="-231.5" font-family="Helvetica,sans-Serif" font-size="10.00">alloc/Allocator.hpp</text>
</a>
</g>
</g>
<!-- Node0&#45;&gt;Node15 -->
<g id="edge18" class="edge"><title>Node0&#45;&gt;Node15</title>
<path fill="none" stroke="midnightblue" d="M460,-336.368C460,-318.617 460,-277.666 460,-253.597"/>
<polygon fill="midnightblue" stroke="midnightblue" points="463.5,-253.591 460,-243.591 456.5,-253.591 463.5,-253.591"/>
</g>
<!-- Node19 -->
<g id="node20" class="node"><title>Node19</title>
<g id="a_node20"><a xlink:href="_memory_block_8hpp.html" target="_top" xlink:title="alloc/MemoryBlock.hpp">
<polygon fill="white" stroke="black" points="576.5,-280.5 576.5,-299.5 695.5,-299.5 695.5,-280.5 576.5,-280.5"/>
<text text-anchor="middle" x="636" y="-287.5" font-family="Helvetica,sans-Serif" font-size="10.00">alloc/MemoryBlock.hpp</text>
</a>
</g>
</g>
<!-- Node0&#45;&gt;Node19 -->
<g id="edge27" class="edge"><title>Node0&#45;&gt;Node19</title>
<path fill="none" stroke="midnightblue" d="M487.888,-336.444C517.754,-327.28 565.315,-312.688 598.456,-302.519"/>
<polygon fill="midnightblue" stroke="midnightblue" points="599.709,-305.796 608.243,-299.516 597.656,-299.104 599.709,-305.796"/>
</g>
<!-- Node22 -->
<g id="node23" class="node"><title>Node22</title>
<g id="a_node23"><a xlink:href="easylogging_09_09_8h.html" target="_top" xlink:title="util/easylogging++.h">
<polygon fill="white" stroke="black" points="1020,-112.5 1020,-131.5 1124,-131.5 1124,-112.5 1020,-112.5"/>
<text text-anchor="middle" x="1072" y="-119.5" font-family="Helvetica,sans-Serif" font-size="10.00">util/easylogging++.h</text>
</a>
</g>
</g>
<!-- Node0&#45;&gt;Node22 -->
<g id="edge37" class="edge"><title>Node0&#45;&gt;Node22</title>
<path fill="none" stroke="midnightblue" d="M534.678,-336.47C583.645,-329.606 648.613,-318.069 704,-300 840.983,-255.312 992.411,-170.018 1049.01,-136.76"/>
<polygon fill="midnightblue" stroke="midnightblue" points="1051.03,-139.63 1057.86,-131.528 1047.47,-133.605 1051.03,-139.63"/>
</g>
<!-- Node2 -->
<g id="node3" class="node"><title>Node2</title>
<polygon fill="white" stroke="#bfbfbf" points="404.5,-0.5 404.5,-19.5 445.5,-19.5 445.5,-0.5 404.5,-0.5"/>
<text text-anchor="middle" x="425" y="-7.5" font-family="Helvetica,sans-Serif" font-size="10.00">string</text>
</g>
<!-- Node1&#45;&gt;Node2 -->
<g id="edge2" class="edge"><title>Node1&#45;&gt;Node2</title>
<path fill="none" stroke="midnightblue" d="M364.677,-112.46C377.111,-104.51 394.539,-91.5639 405,-76 414.365,-62.067 419.497,-43.5594 422.209,-29.857"/>
<polygon fill="midnightblue" stroke="midnightblue" points="425.713,-30.1316 423.958,-19.6832 418.814,-28.9457 425.713,-30.1316"/>
</g>
<!-- Node3 -->
<g id="node4" class="node"><title>Node3</title>
<polygon fill="white" stroke="#bfbfbf" points="515,-56.5 515,-75.5 557,-75.5 557,-56.5 515,-56.5"/>
<text text-anchor="middle" x="536" y="-63.5" font-family="Helvetica,sans-Serif" font-size="10.00">vector</text>
</g>
<!-- Node1&#45;&gt;Node3 -->
<g id="edge3" class="edge"><title>Node1&#45;&gt;Node3</title>
<path fill="none" stroke="midnightblue" d="M379.934,-112.467C409.395,-104.047 455.914,-90.6917 504.881,-76.3086"/>
<polygon fill="midnightblue" stroke="midnightblue" points="506.097,-79.5993 514.703,-73.4195 504.122,-72.8839 506.097,-79.5993"/>
</g>
<!-- Node4 -->
<g id="node5" class="node"><title>Node4</title>
<polygon fill="white" stroke="#bfbfbf" points="160,-56.5 160,-75.5 198,-75.5 198,-56.5 160,-56.5"/>
<text text-anchor="middle" x="179" y="-63.5" font-family="Helvetica,sans-Serif" font-size="10.00">array</text>
</g>
<!-- Node1&#45;&gt;Node4 -->
<g id="edge4" class="edge"><title>Node1&#45;&gt;Node4</title>
<path fill="none" stroke="midnightblue" d="M322.57,-112.423C295.684,-104.004 253.289,-90.6971 207.982,-76.2999"/>
<polygon fill="midnightblue" stroke="midnightblue" points="208.865,-72.908 198.275,-73.2125 206.744,-79.5788 208.865,-72.908"/>
</g>
<!-- Node5 -->
<g id="node6" class="node"><title>Node5</title>
<polygon fill="white" stroke="#bfbfbf" points="575,-56.5 575,-75.5 627,-75.5 627,-56.5 575,-56.5"/>
<text text-anchor="middle" x="601" y="-63.5" font-family="Helvetica,sans-Serif" font-size="10.00">memory</text>
</g>
<!-- Node1&#45;&gt;Node5 -->
<g id="edge5" class="edge"><title>Node1&#45;&gt;Node5</title>
<path fill="none" stroke="midnightblue" d="M384.151,-114.393C424.903,-106.397 495.325,-92.2298 564.857,-76.1882"/>
<polygon fill="midnightblue" stroke="midnightblue" points="565.709,-79.5834 574.659,-73.9127 564.126,-72.7647 565.709,-79.5834"/>
</g>
<!-- Node6 -->
<g id="node7" class="node"><title>Node6</title>
<polygon fill="white" stroke="#bfbfbf" points="216.5,-56.5 216.5,-75.5 265.5,-75.5 265.5,-56.5 216.5,-56.5"/>
<text text-anchor="middle" x="241" y="-63.5" font-family="Helvetica,sans-Serif" font-size="10.00">cassert</text>
</g>
<!-- Node1&#45;&gt;Node6 -->
<g id="edge6" class="edge"><title>Node1&#45;&gt;Node6</title>
<path fill="none" stroke="midnightblue" d="M332.487,-112.324C314.928,-103.625 287.669,-90.1202 267.469,-80.113"/>
<polygon fill="midnightblue" stroke="midnightblue" points="268.984,-76.9575 258.469,-75.6545 265.876,-83.23 268.984,-76.9575"/>
</g>
<!-- Node7 -->
<g id="node8" class="node"><title>Node7</title>
<polygon fill="white" stroke="#bfbfbf" points="453,-56.5 453,-75.5 497,-75.5 497,-56.5 453,-56.5"/>
<text text-anchor="middle" x="475" y="-63.5" font-family="Helvetica,sans-Serif" font-size="10.00">mutex</text>
</g>
<!-- Node1&#45;&gt;Node7 -->
<g id="edge7" class="edge"><title>Node1&#45;&gt;Node7</title>
<path fill="none" stroke="midnightblue" d="M369.807,-112.444C390.287,-103.596 422.483,-89.6875 445.865,-79.5865"/>
<polygon fill="midnightblue" stroke="midnightblue" points="447.494,-82.6953 455.286,-75.5164 444.718,-76.2692 447.494,-82.6953"/>
</g>
<!-- Node8 -->
<g id="node9" class="node"><title>Node8</title>
<g id="a_node9"><a xlink:href="_create_info_base_8hpp.html" target="_top" xlink:title="common/CreateInfoBase.hpp">
<polygon fill="white" stroke="black" points="0,-56.5 0,-75.5 142,-75.5 142,-56.5 0,-56.5"/>
<text text-anchor="middle" x="71" y="-63.5" font-family="Helvetica,sans-Serif" font-size="10.00">common/CreateInfoBase.hpp</text>
</a>
</g>
</g>
<!-- Node1&#45;&gt;Node8 -->
<g id="edge8" class="edge"><title>Node1&#45;&gt;Node8</title>
<path fill="none" stroke="midnightblue" d="M315.789,-114.379C268.256,-105.179 181.73,-88.4316 125.317,-77.5131"/>
<polygon fill="midnightblue" stroke="midnightblue" points="125.634,-74.0093 115.151,-75.5453 124.303,-80.8818 125.634,-74.0093"/>
</g>
<!-- Node11 -->
<g id="node12" class="node"><title>Node11</title>
<g id="a_node12"><a xlink:href="vk_assert_8hpp.html" target="_top" xlink:title="common/vkAssert.hpp">
<polygon fill="white" stroke="black" points="283.5,-56.5 283.5,-75.5 396.5,-75.5 396.5,-56.5 283.5,-56.5"/>
<text text-anchor="middle" x="340" y="-63.5" font-family="Helvetica,sans-Serif" font-size="10.00">common/vkAssert.hpp</text>
</a>
</g>
</g>
<!-- Node1&#45;&gt;Node11 -->
<g id="edge11" class="edge"><title>Node1&#45;&gt;Node11</title>
<path fill="none" stroke="midnightblue" d="M348.349,-112.083C347.024,-104.927 345.118,-94.6353 343.461,-85.6911"/>
<polygon fill="midnightblue" stroke="midnightblue" points="346.883,-84.9466 341.621,-75.7511 340,-86.2212 346.883,-84.9466"/>
</g>
<!-- Node9 -->
<g id="node10" class="node"><title>Node9</title>
<polygon fill="white" stroke="#bfbfbf" points="51,-0.5 51,-19.5 91,-19.5 91,-0.5 51,-0.5"/>
<text text-anchor="middle" x="71" y="-7.5" font-family="Helvetica,sans-Serif" font-size="10.00">limits</text>
</g>
<!-- Node8&#45;&gt;Node9 -->
<g id="edge9" class="edge"><title>Node8&#45;&gt;Node9</title>
<path fill="none" stroke="midnightblue" d="M71,-56.083C71,-49.0059 71,-38.8611 71,-29.9865"/>
<polygon fill="midnightblue" stroke="midnightblue" points="74.5001,-29.751 71,-19.7511 67.5001,-29.7511 74.5001,-29.751"/>
</g>
<!-- Node10 -->
<g id="node11" class="node"><title>Node10</title>
<polygon fill="white" stroke="#bfbfbf" points="204,-0.5 204,-19.5 286,-19.5 286,-0.5 204,-0.5"/>
<text text-anchor="middle" x="245" y="-7.5" font-family="Helvetica,sans-Serif" font-size="10.00">vulkan/vulkan.h</text>
</g>
<!-- Node8&#45;&gt;Node10 -->
<g id="edge10" class="edge"><title>Node8&#45;&gt;Node10</title>
<path fill="none" stroke="midnightblue" d="M98.5708,-56.4435C128.097,-47.2801 175.118,-32.6876 207.883,-22.5192"/>
<polygon fill="midnightblue" stroke="midnightblue" points="209.045,-25.8232 217.558,-19.5164 206.97,-19.1378 209.045,-25.8232"/>
</g>
<!-- Node11&#45;&gt;Node2 -->
<g id="edge13" class="edge"><title>Node11&#45;&gt;Node2</title>
<path fill="none" stroke="midnightblue" d="M353.657,-56.324C366.916,-47.9002 387.268,-34.9709 402.846,-25.0741"/>
<polygon fill="midnightblue" stroke="midnightblue" points="404.813,-27.9711 411.377,-19.6545 401.06,-22.0626 404.813,-27.9711"/>
</g>
<!-- Node11&#45;&gt;Node10 -->
<g id="edge14" class="edge"><title>Node11&#45;&gt;Node10</title>
<path fill="none" stroke="midnightblue" d="M324.737,-56.324C309.779,-47.8215 286.745,-34.7288 269.273,-24.7975"/>
<polygon fill="midnightblue" stroke="midnightblue" points="270.649,-21.5534 260.226,-19.6545 267.19,-27.639 270.649,-21.5534"/>
</g>
<!-- Node12 -->
<g id="node13" class="node"><title>Node12</title>
<polygon fill="white" stroke="#bfbfbf" points="839,-0.5 839,-19.5 893,-19.5 893,-0.5 839,-0.5"/>
<text text-anchor="middle" x="866" y="-7.5" font-family="Helvetica,sans-Serif" font-size="10.00">iostream</text>
</g>
<!-- Node11&#45;&gt;Node12 -->
<g id="edge12" class="edge"><title>Node11&#45;&gt;Node12</title>
<path fill="none" stroke="midnightblue" d="M396.541,-59.1954C504.632,-48.0986 737.911,-24.1499 828.74,-14.8252"/>
<polygon fill="midnightblue" stroke="midnightblue" points="829.252,-18.2911 838.842,-13.7881 828.537,-11.3277 829.252,-18.2911"/>
</g>
<!-- Node13&#45;&gt;Node1 -->
<g id="edge16" class="edge"><title>Node13&#45;&gt;Node1</title>
<path fill="none" stroke="midnightblue" d="M274.46,-168.324C288.5,-159.9 310.048,-146.971 326.543,-137.074"/>
<polygon fill="midnightblue" stroke="midnightblue" points="328.802,-139.801 335.576,-131.655 325.2,-133.798 328.802,-139.801"/>
</g>
<!-- Node14 -->
<g id="node15" class="node"><title>Node14</title>
<g id="a_node15"><a xlink:href="_forward_decl_8hpp.html" target="_top" xlink:title="ForwardDecl.hpp">
<polygon fill="white" stroke="black" points="507.5,-112.5 507.5,-131.5 596.5,-131.5 596.5,-112.5 507.5,-112.5"/>
<text text-anchor="middle" x="552" y="-119.5" font-family="Helvetica,sans-Serif" font-size="10.00">ForwardDecl.hpp</text>
</a>
</g>
</g>
<!-- Node13&#45;&gt;Node14 -->
<g id="edge17" class="edge"><title>Node13&#45;&gt;Node14</title>
<path fill="none" stroke="midnightblue" d="M306.268,-168.444C358.195,-158.841 442.363,-143.275 497.451,-133.088"/>
<polygon fill="midnightblue" stroke="midnightblue" points="498.188,-136.511 507.385,-131.251 496.915,-129.628 498.188,-136.511"/>
</g>
<!-- Node15&#45;&gt;Node1 -->
<g id="edge19" class="edge"><title>Node15&#45;&gt;Node1</title>
<path fill="none" stroke="midnightblue" d="M435.67,-224.352C417.993,-217.015 394.54,-204.962 379,-188 366.881,-174.772 359.18,-155.641 354.785,-141.558"/>
<polygon fill="midnightblue" stroke="midnightblue" points="358.043,-140.219 351.947,-131.554 351.309,-142.13 358.043,-140.219"/>
</g>
<!-- Node15&#45;&gt;Node13 -->
<g id="edge24" class="edge"><title>Node15&#45;&gt;Node13</title>
<path fill="none" stroke="midnightblue" d="M428.309,-224.444C393.932,-215.162 338.923,-200.309 301.211,-190.127"/>
<polygon fill="midnightblue" stroke="midnightblue" points="302.109,-186.744 291.542,-187.516 300.284,-193.502 302.109,-186.744"/>
</g>
<!-- Node15&#45;&gt;Node14 -->
<g id="edge20" class="edge"><title>Node15&#45;&gt;Node14</title>
<path fill="none" stroke="midnightblue" d="M467.117,-224.099C477.213,-211.514 496.322,-187.839 513,-168 521.083,-158.385 530.278,-147.761 537.71,-139.25"/>
<polygon fill="midnightblue" stroke="midnightblue" points="540.489,-141.389 544.446,-131.561 535.224,-136.776 540.489,-141.389"/>
</g>
<!-- Node16 -->
<g id="node17" class="node"><title>Node16</title>
<g id="a_node17"><a xlink:href="_alloc_common_8hpp.html" target="_top" xlink:title="AllocCommon.hpp">
<polygon fill="white" stroke="black" points="522,-168.5 522,-187.5 618,-187.5 618,-168.5 522,-168.5"/>
<text text-anchor="middle" x="570" y="-175.5" font-family="Helvetica,sans-Serif" font-size="10.00">AllocCommon.hpp</text>
</a>
</g>
</g>
<!-- Node15&#45;&gt;Node16 -->
<g id="edge21" class="edge"><title>Node15&#45;&gt;Node16</title>
<path fill="none" stroke="midnightblue" d="M477.673,-224.324C495.394,-215.625 522.903,-202.12 543.288,-192.113"/>
<polygon fill="midnightblue" stroke="midnightblue" points="544.936,-195.203 552.37,-187.655 541.851,-188.919 544.936,-195.203"/>
</g>
<!-- Node17 -->
<g id="node18" class="node"><title>Node17</title>
<polygon fill="white" stroke="#bfbfbf" points="388,-168.5 388,-187.5 466,-187.5 466,-168.5 388,-168.5"/>
<text text-anchor="middle" x="427" y="-175.5" font-family="Helvetica,sans-Serif" font-size="10.00">unordered_set</text>
</g>
<!-- Node15&#45;&gt;Node17 -->
<g id="edge25" class="edge"><title>Node15&#45;&gt;Node17</title>
<path fill="none" stroke="midnightblue" d="M454.551,-224.083C449.986,-216.613 443.332,-205.724 437.707,-196.52"/>
<polygon fill="midnightblue" stroke="midnightblue" points="440.549,-194.459 432.348,-187.751 434.576,-198.109 440.549,-194.459"/>
</g>
<!-- Node18 -->
<g id="node19" class="node"><title>Node18</title>
<polygon fill="white" stroke="#bfbfbf" points="645.5,-56.5 645.5,-75.5 680.5,-75.5 680.5,-56.5 645.5,-56.5"/>
<text text-anchor="middle" x="663" y="-63.5" font-family="Helvetica,sans-Serif" font-size="10.00">map</text>
</g>
<!-- Node15&#45;&gt;Node18 -->
<g id="edge26" class="edge"><title>Node15&#45;&gt;Node18</title>
<path fill="none" stroke="midnightblue" d="M508.611,-232.161C545.698,-228.928 595.601,-218.594 627,-188 655.032,-160.687 661.473,-112.602 662.805,-86.0143"/>
<polygon fill="midnightblue" stroke="midnightblue" points="666.311,-85.8611 663.114,-75.7601 659.315,-85.6501 666.311,-85.8611"/>
</g>
<!-- Node16&#45;&gt;Node1 -->
<g id="edge22" class="edge"><title>Node16&#45;&gt;Node1</title>
<path fill="none" stroke="midnightblue" d="M535.14,-168.444C496.972,-159.075 435.683,-144.031 394.174,-133.843"/>
<polygon fill="midnightblue" stroke="midnightblue" points="394.88,-130.412 384.334,-131.428 393.212,-137.211 394.88,-130.412"/>
</g>
<!-- Node16&#45;&gt;Node14 -->
<g id="edge23" class="edge"><title>Node16&#45;&gt;Node14</title>
<path fill="none" stroke="midnightblue" d="M567.028,-168.083C564.616,-160.849 561.136,-150.409 558.132,-141.397"/>
<polygon fill="midnightblue" stroke="midnightblue" points="561.4,-140.131 554.917,-131.751 554.759,-142.345 561.4,-140.131"/>
</g>
<!-- Node19&#45;&gt;Node1 -->
<g id="edge28" class="edge"><title>Node19&#45;&gt;Node1</title>
<path fill="none" stroke="midnightblue" d="M576.228,-284.964C463.702,-275.972 227.347,-249.99 179,-188 143.641,-142.664 243.797,-128.943 305.493,-124.794"/>
<polygon fill="midnightblue" stroke="midnightblue" points="306.013,-128.269 315.781,-124.166 305.586,-121.282 306.013,-128.269"/>
</g>
<!-- Node19&#45;&gt;Node7 -->
<g id="edge36" class="edge"><title>Node19&#45;&gt;Node7</title>
<path fill="none" stroke="midnightblue" d="M691.005,-280.446C715.964,-274.08 744.247,-263.05 764,-244 789.312,-219.59 806.671,-196.447 786,-168 777.477,-156.27 584.439,-98.9235 506.857,-76.2504"/>
<polygon fill="midnightblue" stroke="midnightblue" points="507.712,-72.8541 497.132,-73.4134 505.752,-79.574 507.712,-72.8541"/>
</g>
<!-- Node19&#45;&gt;Node14 -->
<g id="edge29" class="edge"><title>Node19&#45;&gt;Node14</title>
<path fill="none" stroke="midnightblue" d="M671.882,-280.366C693.79,-273.558 721.124,-262.12 740,-244 765.86,-219.177 789.602,-195.822 767,-168 761.889,-161.709 668.719,-143.923 606.721,-132.687"/>
<polygon fill="midnightblue" stroke="midnightblue" points="607.14,-129.206 596.678,-130.874 605.897,-136.095 607.14,-129.206"/>
</g>
<!-- Node19&#45;&gt;Node16 -->
<g id="edge30" class="edge"><title>Node19&#45;&gt;Node16</title>
<path fill="none" stroke="midnightblue" d="M630.821,-280.368C619.977,-262.296 594.706,-220.176 580.384,-196.307"/>
<polygon fill="midnightblue" stroke="midnightblue" points="583.301,-194.366 575.155,-187.591 577.299,-197.967 583.301,-194.366"/>
</g>
<!-- Node20 -->
<g id="node21" class="node"><title>Node20</title>
<g id="a_node21"><a xlink:href="_suballocation_8hpp.html" target="_top" xlink:title="Suballocation.hpp">
<polygon fill="white" stroke="black" points="637,-224.5 637,-243.5 731,-243.5 731,-224.5 637,-224.5"/>
<text text-anchor="middle" x="684" y="-231.5" font-family="Helvetica,sans-Serif" font-size="10.00">Suballocation.hpp</text>
</a>
</g>
</g>
<!-- Node19&#45;&gt;Node20 -->
<g id="edge31" class="edge"><title>Node19&#45;&gt;Node20</title>
<path fill="none" stroke="midnightblue" d="M643.926,-280.083C650.846,-272.298 661.065,-260.801 669.452,-251.367"/>
<polygon fill="midnightblue" stroke="midnightblue" points="672.194,-253.55 676.221,-243.751 666.962,-248.9 672.194,-253.55"/>
</g>
<!-- Node20&#45;&gt;Node1 -->
<g id="edge32" class="edge"><title>Node20&#45;&gt;Node1</title>
<path fill="none" stroke="midnightblue" d="M679.023,-224.113C670.444,-209.712 651.419,-181.53 627,-168 587.862,-146.315 462.294,-132.582 394.465,-126.553"/>
<polygon fill="midnightblue" stroke="midnightblue" points="394.363,-123.031 384.097,-125.652 393.756,-130.005 394.363,-123.031"/>
</g>
<!-- Node20&#45;&gt;Node14 -->
<g id="edge33" class="edge"><title>Node20&#45;&gt;Node14</title>
<path fill="none" stroke="midnightblue" d="M704.481,-224.405C729.841,-212.549 767.658,-190.121 750,-168 740.968,-156.685 661.995,-141.362 606.563,-131.834"/>
<polygon fill="midnightblue" stroke="midnightblue" points="606.954,-128.35 596.509,-130.124 605.781,-135.251 606.954,-128.35"/>
</g>
<!-- Node20&#45;&gt;Node16 -->
<g id="edge34" class="edge"><title>Node20&#45;&gt;Node16</title>
<path fill="none" stroke="midnightblue" d="M665.936,-224.444C647.425,-215.675 618.419,-201.935 597.145,-191.858"/>
<polygon fill="midnightblue" stroke="midnightblue" points="598.515,-188.634 587.979,-187.516 595.518,-194.96 598.515,-188.634"/>
</g>
<!-- Node21 -->
<g id="node22" class="node"><title>Node21</title>
<polygon fill="white" stroke="#bfbfbf" points="712.5,-168.5 712.5,-187.5 741.5,-187.5 741.5,-168.5 712.5,-168.5"/>
<text text-anchor="middle" x="727" y="-175.5" font-family="Helvetica,sans-Serif" font-size="10.00">list</text>
</g>
<!-- Node20&#45;&gt;Node21 -->
<g id="edge35" class="edge"><title>Node20&#45;&gt;Node21</title>
<path fill="none" stroke="midnightblue" d="M691.101,-224.083C697.237,-216.377 706.27,-205.033 713.739,-195.653"/>
<polygon fill="midnightblue" stroke="midnightblue" points="716.54,-197.754 720.032,-187.751 711.064,-193.394 716.54,-197.754"/>
</g>
<!-- Node22&#45;&gt;Node2 -->
<g id="edge46" class="edge"><title>Node22&#45;&gt;Node2</title>
<path fill="none" stroke="midnightblue" d="M1019.82,-119.713C951.374,-116.783 828.204,-107.212 728,-76 709.402,-70.2068 707.483,-62.1524 689,-56 607.419,-28.8433 505.938,-17.439 455.88,-13.1999"/>
<polygon fill="midnightblue" stroke="midnightblue" points="455.969,-9.69582 445.72,-12.3791 455.405,-16.6731 455.969,-9.69582"/>
</g>
<!-- Node22&#45;&gt;Node3 -->
<g id="edge47" class="edge"><title>Node22&#45;&gt;Node3</title>
<path fill="none" stroke="midnightblue" d="M1019.8,-119.838C929.237,-117.066 737.179,-107.853 567.055,-75.8226"/>
<polygon fill="midnightblue" stroke="midnightblue" points="567.652,-72.3736 557.173,-73.9313 566.337,-79.2488 567.652,-72.3736"/>
</g>
<!-- Node22&#45;&gt;Node5 -->
<g id="edge55" class="edge"><title>Node22&#45;&gt;Node5</title>
<path fill="none" stroke="midnightblue" d="M1019.97,-118.142C939.712,-113.182 780.793,-101.179 637.157,-75.9643"/>
<polygon fill="midnightblue" stroke="midnightblue" points="637.74,-72.5132 627.281,-74.2053 636.512,-79.4047 637.74,-72.5132"/>
</g>
<!-- Node22&#45;&gt;Node12 -->
<g id="edge53" class="edge"><title>Node22&#45;&gt;Node12</title>
<path fill="none" stroke="midnightblue" d="M1124.17,-115.918C1179.08,-108.583 1253.53,-91.7672 1222,-56 1201.14,-32.3361 990.424,-17.9477 903.346,-12.9711"/>
<polygon fill="midnightblue" stroke="midnightblue" points="903.299,-9.46298 893.119,-12.3975 902.907,-16.452 903.299,-9.46298"/>
</g>
<!-- Node22&#45;&gt;Node18 -->
<g id="edge48" class="edge"><title>Node22&#45;&gt;Node18</title>
<path fill="none" stroke="midnightblue" d="M1019.76,-117.344C946.616,-111.642 809.75,-98.8412 695,-76 693.55,-75.7113 692.069,-75.3902 690.579,-75.0461"/>
<polygon fill="midnightblue" stroke="midnightblue" points="691.378,-71.6378 680.821,-72.541 689.637,-78.4179 691.378,-71.6378"/>
</g>
<!-- Node23 -->
<g id="node24" class="node"><title>Node23</title>
<polygon fill="white" stroke="#bfbfbf" points="1269.5,-56.5 1269.5,-75.5 1310.5,-75.5 1310.5,-56.5 1269.5,-56.5"/>
<text text-anchor="middle" x="1290" y="-63.5" font-family="Helvetica,sans-Serif" font-size="10.00">ctime</text>
</g>
<!-- Node22&#45;&gt;Node23 -->
<g id="edge38" class="edge"><title>Node22&#45;&gt;Node23</title>
<path fill="none" stroke="midnightblue" d="M1107.11,-112.483C1143.97,-103.514 1203.6,-88.9281 1255,-76 1256.45,-75.6365 1257.92,-75.2631 1259.42,-74.8845"/>
<polygon fill="midnightblue" stroke="midnightblue" points="1260.46,-78.231 1269.28,-72.3663 1258.73,-71.4485 1260.46,-78.231"/>
</g>
<!-- Node24 -->
<g id="node25" class="node"><title>Node24</title>
<polygon fill="white" stroke="#bfbfbf" points="1329,-56.5 1329,-75.5 1375,-75.5 1375,-56.5 1329,-56.5"/>
<text text-anchor="middle" x="1352" y="-63.5" font-family="Helvetica,sans-Serif" font-size="10.00">cstring</text>
</g>
<!-- Node22&#45;&gt;Node24 -->
<g id="edge39" class="edge"><title>Node22&#45;&gt;Node24</title>
<path fill="none" stroke="midnightblue" d="M1124.07,-113.024C1172.29,-105.307 1246.16,-92.6464 1319.17,-76.0152"/>
<polygon fill="midnightblue" stroke="midnightblue" points="1320.04,-79.4071 1329,-73.7511 1318.46,-72.5859 1320.04,-79.4071"/>
</g>
<!-- Node25 -->
<g id="node26" class="node"><title>Node25</title>
<polygon fill="white" stroke="#bfbfbf" points="1393.5,-56.5 1393.5,-75.5 1438.5,-75.5 1438.5,-56.5 1393.5,-56.5"/>
<text text-anchor="middle" x="1416" y="-63.5" font-family="Helvetica,sans-Serif" font-size="10.00">cstdlib</text>
</g>
<!-- Node22&#45;&gt;Node25 -->
<g id="edge40" class="edge"><title>Node22&#45;&gt;Node25</title>
<path fill="none" stroke="midnightblue" d="M1124.26,-115.58C1184.46,-108.867 1286.46,-96.0506 1383.4,-75.8671"/>
<polygon fill="midnightblue" stroke="midnightblue" points="1384.3,-79.2529 1393.37,-73.7615 1382.86,-72.4041 1384.3,-79.2529"/>
</g>
<!-- Node26 -->
<g id="node27" class="node"><title>Node26</title>
<polygon fill="white" stroke="#bfbfbf" points="1457,-56.5 1457,-75.5 1503,-75.5 1503,-56.5 1457,-56.5"/>
<text text-anchor="middle" x="1480" y="-63.5" font-family="Helvetica,sans-Serif" font-size="10.00">cctype</text>
</g>
<!-- Node22&#45;&gt;Node26 -->
<g id="edge41" class="edge"><title>Node22&#45;&gt;Node26</title>
<path fill="none" stroke="midnightblue" d="M1124.1,-117.332C1195.06,-111.772 1326.14,-99.495 1446.55,-76.0158"/>
<polygon fill="midnightblue" stroke="midnightblue" points="1447.55,-79.3859 1456.68,-74.009 1446.19,-72.5193 1447.55,-79.3859"/>
</g>
<!-- Node27 -->
<g id="node28" class="node"><title>Node27</title>
<polygon fill="white" stroke="#bfbfbf" points="1521.5,-56.5 1521.5,-75.5 1568.5,-75.5 1568.5,-56.5 1521.5,-56.5"/>
<text text-anchor="middle" x="1545" y="-63.5" font-family="Helvetica,sans-Serif" font-size="10.00">cwchar</text>
</g>
<!-- Node22&#45;&gt;Node27 -->
<g id="edge42" class="edge"><title>Node22&#45;&gt;Node27</title>
<path fill="none" stroke="midnightblue" d="M1124.21,-118.442C1205.16,-113.867 1365.86,-102.36 1511.31,-75.8138"/>
<polygon fill="midnightblue" stroke="midnightblue" points="1512.12,-79.224 1521.31,-73.96 1510.84,-72.3413 1512.12,-79.224"/>
</g>
<!-- Node28 -->
<g id="node29" class="node"><title>Node28</title>
<polygon fill="white" stroke="#bfbfbf" points="1586.5,-56.5 1586.5,-75.5 1633.5,-75.5 1633.5,-56.5 1586.5,-56.5"/>
<text text-anchor="middle" x="1610" y="-63.5" font-family="Helvetica,sans-Serif" font-size="10.00">csignal</text>
</g>
<!-- Node22&#45;&gt;Node28 -->
<g id="edge43" class="edge"><title>Node22&#45;&gt;Node28</title>
<path fill="none" stroke="midnightblue" d="M1124.15,-119.547C1214.63,-116.333 1406.56,-106.463 1576.48,-75.9783"/>
<polygon fill="midnightblue" stroke="midnightblue" points="1577.14,-79.4158 1586.35,-74.1795 1575.88,-72.5292 1577.14,-79.4158"/>
</g>
<!-- Node29 -->
<g id="node30" class="node"><title>Node29</title>
<polygon fill="white" stroke="#bfbfbf" points="1652,-56.5 1652,-75.5 1696,-75.5 1696,-56.5 1652,-56.5"/>
<text text-anchor="middle" x="1674" y="-63.5" font-family="Helvetica,sans-Serif" font-size="10.00">cerrno</text>
</g>
<!-- Node22&#45;&gt;Node29 -->
<g id="edge44" class="edge"><title>Node22&#45;&gt;Node29</title>
<path fill="none" stroke="midnightblue" d="M1124.03,-120.436C1223.27,-118.596 1446.39,-110.783 1641.9,-75.833"/>
<polygon fill="midnightblue" stroke="midnightblue" points="1642.56,-79.2698 1651.78,-74.0397 1641.31,-72.3824 1642.56,-79.2698"/>
</g>
<!-- Node30 -->
<g id="node31" class="node"><title>Node30</title>
<polygon fill="white" stroke="#bfbfbf" points="737.5,-56.5 737.5,-75.5 786.5,-75.5 786.5,-56.5 737.5,-56.5"/>
<text text-anchor="middle" x="762" y="-63.5" font-family="Helvetica,sans-Serif" font-size="10.00">cstdarg</text>
</g>
<!-- Node22&#45;&gt;Node30 -->
<g id="edge45" class="edge"><title>Node22&#45;&gt;Node30</title>
<path fill="none" stroke="midnightblue" d="M1019.83,-114.036C966.246,-106.537 880.254,-93.5489 796.724,-75.9756"/>
<polygon fill="midnightblue" stroke="midnightblue" points="797.325,-72.5253 786.815,-73.8667 795.868,-79.3719 797.325,-72.5253"/>
</g>
<!-- Node31 -->
<g id="node32" class="node"><title>Node31</title>
<polygon fill="white" stroke="#bfbfbf" points="805,-56.5 805,-75.5 845,-75.5 845,-56.5 805,-56.5"/>
<text text-anchor="middle" x="825" y="-63.5" font-family="Helvetica,sans-Serif" font-size="10.00">utility</text>
</g>
<!-- Node22&#45;&gt;Node31 -->
<g id="edge49" class="edge"><title>Node22&#45;&gt;Node31</title>
<path fill="none" stroke="midnightblue" d="M1024.06,-112.494C981.853,-104.693 918.558,-92.2403 854.998,-76.0673"/>
<polygon fill="midnightblue" stroke="midnightblue" points="855.766,-72.6512 845.21,-73.5474 854.021,-79.4302 855.766,-72.6512"/>
</g>
<!-- Node32 -->
<g id="node33" class="node"><title>Node32</title>
<polygon fill="white" stroke="#bfbfbf" points="863,-56.5 863,-75.5 921,-75.5 921,-56.5 863,-56.5"/>
<text text-anchor="middle" x="892" y="-63.5" font-family="Helvetica,sans-Serif" font-size="10.00">functional</text>
</g>
<!-- Node22&#45;&gt;Node32 -->
<g id="edge50" class="edge"><title>Node22&#45;&gt;Node32</title>
<path fill="none" stroke="midnightblue" d="M1043.48,-112.444C1012.93,-103.28 964.292,-88.6876 930.397,-78.5192"/>
<polygon fill="midnightblue" stroke="midnightblue" points="930.972,-75.0376 920.388,-75.5164 928.961,-81.7424 930.972,-75.0376"/>
</g>
<!-- Node33 -->
<g id="node34" class="node"><title>Node33</title>
<polygon fill="white" stroke="#bfbfbf" points="939,-56.5 939,-75.5 995,-75.5 995,-56.5 939,-56.5"/>
<text text-anchor="middle" x="967" y="-63.5" font-family="Helvetica,sans-Serif" font-size="10.00">algorithm</text>
</g>
<!-- Node22&#45;&gt;Node33 -->
<g id="edge51" class="edge"><title>Node22&#45;&gt;Node33</title>
<path fill="none" stroke="midnightblue" d="M1055.13,-112.324C1038.29,-103.664 1012.19,-90.2424 992.762,-80.249"/>
<polygon fill="midnightblue" stroke="midnightblue" points="994.322,-77.1155 983.828,-75.6545 991.12,-83.3405 994.322,-77.1155"/>
</g>
<!-- Node34 -->
<g id="node35" class="node"><title>Node34</title>
<polygon fill="white" stroke="#bfbfbf" points="1013.5,-56.5 1013.5,-75.5 1062.5,-75.5 1062.5,-56.5 1013.5,-56.5"/>
<text text-anchor="middle" x="1038" y="-63.5" font-family="Helvetica,sans-Serif" font-size="10.00">fstream</text>
</g>
<!-- Node22&#45;&gt;Node34 -->
<g id="edge52" class="edge"><title>Node22&#45;&gt;Node34</title>
<path fill="none" stroke="midnightblue" d="M1066.39,-112.083C1061.63,-104.534 1054.68,-93.4948 1048.85,-84.2298"/>
<polygon fill="midnightblue" stroke="midnightblue" points="1051.8,-82.3486 1043.51,-75.7511 1045.88,-86.0783 1051.8,-82.3486"/>
</g>
<!-- Node35 -->
<g id="node36" class="node"><title>Node35</title>
<polygon fill="white" stroke="#bfbfbf" points="1081,-56.5 1081,-75.5 1133,-75.5 1133,-56.5 1081,-56.5"/>
<text text-anchor="middle" x="1107" y="-63.5" font-family="Helvetica,sans-Serif" font-size="10.00">sstream</text>
</g>
<!-- Node22&#45;&gt;Node35 -->
<g id="edge54" class="edge"><title>Node22&#45;&gt;Node35</title>
<path fill="none" stroke="midnightblue" d="M1077.78,-112.083C1082.67,-104.534 1089.83,-93.4948 1095.83,-84.2298"/>
<polygon fill="midnightblue" stroke="midnightblue" points="1098.83,-86.0463 1101.33,-75.7511 1092.95,-82.239 1098.83,-86.0463"/>
</g>
<!-- Node36 -->
<g id="node37" class="node"><title>Node36</title>
<polygon fill="white" stroke="#bfbfbf" points="1151,-56.5 1151,-75.5 1213,-75.5 1213,-56.5 1151,-56.5"/>
<text text-anchor="middle" x="1182" y="-63.5" font-family="Helvetica,sans-Serif" font-size="10.00">type_traits</text>
</g>
<!-- Node22&#45;&gt;Node36 -->
<g id="edge56" class="edge"><title>Node22&#45;&gt;Node36</title>
<path fill="none" stroke="midnightblue" d="M1089.67,-112.324C1107.39,-103.625 1134.9,-90.1202 1155.29,-80.113"/>
<polygon fill="midnightblue" stroke="midnightblue" points="1156.94,-83.2031 1164.37,-75.6545 1153.85,-76.9195 1156.94,-83.2031"/>
</g>
</g>
</svg>
        <g id="navigator" transform="translate(0 0)" fill="#404254">
                <rect fill="#f2f5e9" fill-opacity="0.5" stroke="#606060" stroke-width=".5" x="0" y="0" width="60" height="60"/>
                <use id="zoomplus" xlink:href="#zoomPlus" x="17" y="9" onmousedown="handleZoom(evt,'in')"/>
                <use id="zoomminus" xlink:href="#zoomMin" x="42" y="9" onmousedown="handleZoom(evt,'out')"/>
                <use id="reset" xlink:href="#resetDef" x="30" y="36" onmousedown="handleReset()"/>
                <g id="arrowUp" xlink:href="#dirArrow" transform="translate(30 24)" onmousedown="handlePan(0,-1)">
                  <use xlink:href="#rim" fill="#404040">
                        <set attributeName="fill" to="#808080" begin="arrowUp.mouseover" end="arrowUp.mouseout"/>
                  </use>
                  <path fill="none" stroke="white" stroke-width="1.5" d="M0,-3.0v7 M-2.5,-0.5L0,-3.0L2.5,-0.5"/>
                </g>
                <g id="arrowRight" xlink:href="#dirArrow" transform="rotate(90) translate(36 -43)" onmousedown="handlePan(1,0)">
                  <use xlink:href="#rim" fill="#404040">
                        <set attributeName="fill" to="#808080" begin="arrowRight.mouseover" end="arrowRight.mouseout"/>
                  </use>
                  <path fill="none" stroke="white" stroke-width="1.5" d="M0,-3.0v7 M-2.5,-0.5L0,-3.0L2.5,-0.5"/>
                </g>
                <g id="arrowDown" xlink:href="#dirArrow" transform="rotate(180) translate(-30 -48)" onmousedown="handlePan(0,1)">
                  <use xlink:href="#rim" fill="#404040">
                        <set attributeName="fill" to="#808080" begin="arrowDown.mouseover" end="arrowDown.mouseout"/>
                  </use>
                  <path fill="none" stroke="white" stroke-width="1.5" d="M0,-3.0v7 M-2.5,-0.5L0,-3.0L2.5,-0.5"/>
                </g>
                <g id="arrowLeft" xlink:href="#dirArrow" transform="rotate(270) translate(-36 17)" onmousedown="handlePan(-1,0)">
                  <use xlink:href="#rim" fill="#404040">
                        <set attributeName="fill" to="#808080" begin="arrowLeft.mouseover" end="arrowLeft.mouseout"/>
                  </use>
                  <path fill="none" stroke="white" stroke-width="1.5" d="M0,-3.0v7 M-2.5,-0.5L0,-3.0L2.5,-0.5"/>
                </g>
        </g>
        <svg viewBox="0 0 15 15" width="100%" height="30px" preserveAspectRatio="xMaxYMin meet">
         <g id="arrow_out" transform="scale(0.3 0.3)">
          <a xlink:href="_allocation_collection_8cpp__incl_org.svg" target="_base">
           <rect id="button" ry="5" rx="5" y="6" x="6" height="38" width="38"
                fill="#f2f5e9" fill-opacity="0.5" stroke="#606060" stroke-width="1.0"/>
           <path id="arrow"
             d="M 11.500037,31.436501 C 11.940474,20.09759 22.043105,11.32322 32.158766,21.979434 L 37.068811,17.246167 C 37.068811,17.246167 37.088388,32 37.088388,32 L 22.160133,31.978069 C 22.160133,31.978069 26.997745,27.140456 26.997745,27.140456 C 18.528582,18.264221 13.291696,25.230495 11.500037,31.436501 z"
             style="fill:#404040;"/>
          </a>
         </g>
        </svg>
</svg>
