<?xml version="1.0" encoding="UTF-8" standalone="no"?>
<!DOCTYPE svg PUBLIC "-//W3C//DTD SVG 1.1//EN"
 "http://www.w3.org/Graphics/SVG/1.1/DTD/svg11.dtd">
<!-- Generated by graphviz version 2.38.0 (20140413.2041)
 -->
<!-- Title: alloc/src/AllocationCollection.hpp Pages: 1 -->
<svg width="495pt" height="140pt"
 viewBox="0.00 0.00 494.50 140.00" xmlns="http://www.w3.org/2000/svg" xmlns:xlink="http://www.w3.org/1999/xlink">
<g id="graph0" class="graph" transform="scale(1 1) rotate(0) translate(4 136)">
<title>alloc/src/AllocationCollection.hpp</title>
<polygon fill="white" stroke="none" points="-4,4 -4,-136 490.5,-136 490.5,4 -4,4"/>
<!-- Node7 -->
<g id="node1" class="node"><title>Node7</title>
<polygon fill="#bfbfbf" stroke="black" points="82,-112.5 82,-131.5 243,-131.5 243,-112.5 82,-112.5"/>
<text text-anchor="middle" x="162.5" y="-119.5" font-family="Helvetica,sans-Serif" font-size="10.00">alloc/src/AllocationCollection.hpp</text>
</g>
<!-- Node8 -->
<g id="node2" class="node"><title>Node8</title>
<g id="a_node2"><a xlink:href="_allocation_collection_8cpp.html" target="_top" xlink:title="alloc/src/AllocationCollection.cpp">
<polygon fill="white" stroke="black" points="0,-56.5 0,-75.5 161,-75.5 161,-56.5 0,-56.5"/>
<text text-anchor="middle" x="80.5" y="-63.5" font-family="Helvetica,sans-Serif" font-size="10.00">alloc/src/AllocationCollection.cpp</text>
</a>
</g>
</g>
<!-- Node7&#45;&gt;Node8 -->
<g id="edge1" class="edge"><title>Node7&#45;&gt;Node8</title>
<path fill="none" stroke="midnightblue" d="M140.667,-106.622C125.687,-96.7574 106.303,-83.9919 93.642,-75.6545"/>
<polygon fill="midnightblue" stroke="midnightblue" points="139.049,-109.747 149.325,-112.324 142.899,-103.901 139.049,-109.747"/>
</g>
<!-- Node9 -->
<g id="node3" class="node"><title>Node9</title>
<g id="a_node3"><a xlink:href="_allocator_impl_8hpp.html" target="_top" xlink:title="alloc/src/AllocatorImpl.hpp">
<polygon fill="white" stroke="black" points="179,-56.5 179,-75.5 310,-75.5 310,-56.5 179,-56.5"/>
<text text-anchor="middle" x="244.5" y="-63.5" font-family="Helvetica,sans-Serif" font-size="10.00">alloc/src/AllocatorImpl.hpp</text>
</a>
</g>
</g>
<!-- Node7&#45;&gt;Node9 -->
<g id="edge2" class="edge"><title>Node7&#45;&gt;Node9</title>
<path fill="none" stroke="midnightblue" d="M184.333,-106.622C199.313,-96.7574 218.697,-83.9919 231.358,-75.6545"/>
<polygon fill="midnightblue" stroke="midnightblue" points="182.101,-103.901 175.675,-112.324 185.951,-109.747 182.101,-103.901"/>
</g>
<!-- Node10 -->
<g id="node4" class="node"><title>Node10</title>
<g id="a_node4"><a xlink:href="_allocator_8cpp.html" target="_top" xlink:title="alloc/src/Allocator.cpp">
<polygon fill="white" stroke="black" points="48,-0.5 48,-19.5 161,-19.5 161,-0.5 48,-0.5"/>
<text text-anchor="middle" x="104.5" y="-7.5" font-family="Helvetica,sans-Serif" font-size="10.00">alloc/src/Allocator.cpp</text>
</a>
</g>
</g>
<!-- Node9&#45;&gt;Node10 -->
<g id="edge3" class="edge"><title>Node9&#45;&gt;Node10</title>
<path fill="none" stroke="midnightblue" d="M212.798,-52.772C186.5,-42.6287 149.784,-28.4669 126.58,-19.5164"/>
<polygon fill="midnightblue" stroke="midnightblue" points="211.727,-56.1103 222.317,-56.4435 214.246,-49.5792 211.727,-56.1103"/>
</g>
<!-- Node11 -->
<g id="node5" class="node"><title>Node11</title>
<g id="a_node5"><a xlink:href="_allocator_impl_8cpp.html" target="_top" xlink:title="alloc/src/AllocatorImpl.cpp">
<polygon fill="white" stroke="black" points="179,-0.5 179,-19.5 310,-19.5 310,-0.5 179,-0.5"/>
<text text-anchor="middle" x="244.5" y="-7.5" font-family="Helvetica,sans-Serif" font-size="10.00">alloc/src/AllocatorImpl.cpp</text>
</a>
</g>
</g>
<!-- Node9&#45;&gt;Node11 -->
<g id="edge4" class="edge"><title>Node9&#45;&gt;Node11</title>
<path fill="none" stroke="midnightblue" d="M244.5,-45.8045C244.5,-36.9102 244.5,-26.7798 244.5,-19.7511"/>
<polygon fill="midnightblue" stroke="midnightblue" points="241,-46.083 244.5,-56.083 248,-46.083 241,-46.083"/>
</g>
<!-- Node12 -->
<g id="node6" class="node"><title>Node12</title>
<g id="a_node6"><a xlink:href="_debug_visualization_8cpp.html" target="_top" xlink:title="alloc/src/DebugVisualization.cpp">
<polygon fill="white" stroke="black" points="328.5,-0.5 328.5,-19.5 486.5,-19.5 486.5,-0.5 328.5,-0.5"/>
<text text-anchor="middle" x="407.5" y="-7.5" font-family="Helvetica,sans-Serif" font-size="10.00">alloc/src/DebugVisualization.cpp</text>
</a>
</g>
</g>
<!-- Node9&#45;&gt;Node12 -->
<g id="edge5" class="edge"><title>Node9&#45;&gt;Node12</title>
<path fill="none" stroke="midnightblue" d="M280.203,-53.172C310.896,-43.0039 354.419,-28.5852 381.793,-19.5164"/>
<polygon fill="midnightblue" stroke="midnightblue" points="278.72,-49.9762 270.328,-56.4435 280.921,-56.6211 278.72,-49.9762"/>
</g>
</g>
</svg>
