<?xml version="1.0" encoding="UTF-8" standalone="no"?>
<!DOCTYPE svg PUBLIC "-//W3C//DTD SVG 1.1//EN"
 "http://www.w3.org/Graphics/SVG/1.1/DTD/svg11.dtd">
<!-- Generated by graphviz version 2.38.0 (20140413.2041)
 -->
<!-- Title: resource/include/BufferDeprecated.hpp Pages: 1 -->
<svg width="261pt" height="196pt"
 viewBox="0.00 0.00 261.00 196.00" xmlns="http://www.w3.org/2000/svg" xmlns:xlink="http://www.w3.org/1999/xlink">
<g id="graph0" class="graph" transform="scale(1 1) rotate(0) translate(4 192)">
<title>resource/include/BufferDeprecated.hpp</title>
<polygon fill="white" stroke="none" points="-4,4 -4,-192 257,-192 257,4 -4,4"/>
<!-- Node0 -->
<g id="node1" class="node"><title>Node0</title>
<polygon fill="#bfbfbf" stroke="black" points="54,-168.5 54,-187.5 238,-187.5 238,-168.5 54,-168.5"/>
<text text-anchor="middle" x="146" y="-175.5" font-family="Helvetica,sans-Serif" font-size="10.00">resource/include/BufferDeprecated.hpp</text>
</g>
<!-- Node1 -->
<g id="node2" class="node"><title>Node1</title>
<g id="a_node2"><a xlink:href="vpr__stdafx_8h.html" target="_top" xlink:title="vpr_stdafx.h">
<polygon fill="white" stroke="black" points="7,-56.5 7,-75.5 75,-75.5 75,-56.5 7,-56.5"/>
<text text-anchor="middle" x="41" y="-63.5" font-family="Helvetica,sans-Serif" font-size="10.00">vpr_stdafx.h</text>
</a>
</g>
</g>
<!-- Node0&#45;&gt;Node1 -->
<g id="edge1" class="edge"><title>Node0&#45;&gt;Node1</title>
<path fill="none" stroke="midnightblue" d="M120.963,-168.494C103.163,-161.292 79.8676,-149.343 65,-132 53.6328,-118.74 47.4397,-99.6138 44.208,-85.54"/>
<polygon fill="midnightblue" stroke="midnightblue" points="47.6022,-84.6642 42.2089,-75.5449 40.7382,-86.0372 47.6022,-84.6642"/>
</g>
<!-- Node3 -->
<g id="node4" class="node"><title>Node3</title>
<g id="a_node4"><a xlink:href="_forward_decl_8hpp.html" target="_top" xlink:title="ForwardDecl.hpp">
<polygon fill="white" stroke="black" points="93.5,-56.5 93.5,-75.5 182.5,-75.5 182.5,-56.5 93.5,-56.5"/>
<text text-anchor="middle" x="138" y="-63.5" font-family="Helvetica,sans-Serif" font-size="10.00">ForwardDecl.hpp</text>
</a>
</g>
</g>
<!-- Node0&#45;&gt;Node3 -->
<g id="edge3" class="edge"><title>Node0&#45;&gt;Node3</title>
<path fill="none" stroke="midnightblue" d="M150.673,-168.156C156.688,-155.638 165.825,-132.042 161,-112 158.693,-102.418 153.983,-92.5813 149.422,-84.5579"/>
<polygon fill="midnightblue" stroke="midnightblue" points="152.289,-82.537 144.105,-75.8095 146.308,-86.1727 152.289,-82.537"/>
</g>
<!-- Node4 -->
<g id="node5" class="node"><title>Node4</title>
<g id="a_node5"><a xlink:href="_allocation_8hpp.html" target="_top" xlink:title="Allocation.hpp">
<polygon fill="white" stroke="black" points="74,-112.5 74,-131.5 152,-131.5 152,-112.5 74,-112.5"/>
<text text-anchor="middle" x="113" y="-119.5" font-family="Helvetica,sans-Serif" font-size="10.00">Allocation.hpp</text>
</a>
</g>
</g>
<!-- Node0&#45;&gt;Node4 -->
<g id="edge4" class="edge"><title>Node0&#45;&gt;Node4</title>
<path fill="none" stroke="midnightblue" d="M140.551,-168.083C135.986,-160.613 129.332,-149.724 123.707,-140.52"/>
<polygon fill="midnightblue" stroke="midnightblue" points="126.549,-138.459 118.348,-131.751 120.576,-142.109 126.549,-138.459"/>
</g>
<!-- Node5 -->
<g id="node6" class="node"><title>Node5</title>
<polygon fill="white" stroke="#bfbfbf" points="201,-56.5 201,-75.5 253,-75.5 253,-56.5 201,-56.5"/>
<text text-anchor="middle" x="227" y="-63.5" font-family="Helvetica,sans-Serif" font-size="10.00">memory</text>
</g>
<!-- Node0&#45;&gt;Node5 -->
<g id="edge8" class="edge"><title>Node0&#45;&gt;Node5</title>
<path fill="none" stroke="midnightblue" d="M152.356,-168.368C165.782,-150.135 197.232,-107.426 214.721,-83.6752"/>
<polygon fill="midnightblue" stroke="midnightblue" points="217.562,-85.7192 220.674,-75.5914 211.926,-81.5685 217.562,-85.7192"/>
</g>
<!-- Node2 -->
<g id="node3" class="node"><title>Node2</title>
<polygon fill="white" stroke="#bfbfbf" points="0,-0.5 0,-19.5 82,-19.5 82,-0.5 0,-0.5"/>
<text text-anchor="middle" x="41" y="-7.5" font-family="Helvetica,sans-Serif" font-size="10.00">vulkan/vulkan.h</text>
</g>
<!-- Node1&#45;&gt;Node2 -->
<g id="edge2" class="edge"><title>Node1&#45;&gt;Node2</title>
<path fill="none" stroke="midnightblue" d="M41,-56.083C41,-49.0059 41,-38.8611 41,-29.9865"/>
<polygon fill="midnightblue" stroke="midnightblue" points="44.5001,-29.751 41,-19.7511 37.5001,-29.7511 44.5001,-29.751"/>
</g>
<!-- Node4&#45;&gt;Node1 -->
<g id="edge5" class="edge"><title>Node4&#45;&gt;Node1</title>
<path fill="none" stroke="midnightblue" d="M101.432,-112.324C90.5798,-104.185 74.1193,-91.8395 61.1166,-82.0874"/>
<polygon fill="midnightblue" stroke="midnightblue" points="62.8786,-79.0339 52.7785,-75.8339 58.6785,-84.6339 62.8786,-79.0339"/>
</g>
<!-- Node4&#45;&gt;Node3 -->
<g id="edge6" class="edge"><title>Node4&#45;&gt;Node3</title>
<path fill="none" stroke="midnightblue" d="M117.128,-112.083C120.514,-104.77 125.416,-94.1814 129.619,-85.1034"/>
<polygon fill="midnightblue" stroke="midnightblue" points="132.923,-86.2962 133.949,-75.7511 126.571,-83.3553 132.923,-86.2962"/>
</g>
<!-- Node4&#45;&gt;Node5 -->
<g id="edge7" class="edge"><title>Node4&#45;&gt;Node5</title>
<path fill="none" stroke="midnightblue" d="M131.064,-112.444C149.575,-103.675 178.581,-89.9355 199.855,-79.8579"/>
<polygon fill="midnightblue" stroke="midnightblue" points="201.482,-82.9604 209.021,-75.5164 198.485,-76.6343 201.482,-82.9604"/>
</g>
</g>
</svg>
