<?xml version="1.0" encoding="UTF-8" standalone="no"?>
<!DOCTYPE svg PUBLIC "-//W3C//DTD SVG 1.1//EN"
 "http://www.w3.org/Graphics/SVG/1.1/DTD/svg11.dtd">
<!-- Generated by graphviz version 2.38.0 (20140413.2041)
 -->
<!-- Title: include/command/CommandPool.hpp Pages: 1 -->
<svg width="601pt" height="151pt"
 viewBox="0.00 0.00 600.50 151.00" xmlns="http://www.w3.org/2000/svg" xmlns:xlink="http://www.w3.org/1999/xlink">
<g id="graph0" class="graph" transform="scale(1 1) rotate(0) translate(4 147)">
<title>include/command/CommandPool.hpp</title>
<polygon fill="white" stroke="none" points="-4,4 -4,-147 596.5,-147 596.5,4 -4,4"/>
<!-- Node14 -->
<g id="node1" class="node"><title>Node14</title>
<polygon fill="#bfbfbf" stroke="black" points="228.5,-123.5 228.5,-142.5 407.5,-142.5 407.5,-123.5 228.5,-123.5"/>
<text text-anchor="middle" x="318" y="-130.5" font-family="Helvetica,sans-Serif" font-size="10.00">include/command/CommandPool.hpp</text>
</g>
<!-- Node15 -->
<g id="node2" class="node"><title>Node15</title>
<g id="a_node2"><a xlink:href="_transfer_pool_8hpp.html" target="_top" xlink:title="include/command/Transfer\lPool.hpp">
<polygon fill="white" stroke="black" points="10.5,-56.5 10.5,-86.5 141.5,-86.5 141.5,-56.5 10.5,-56.5"/>
<text text-anchor="start" x="18.5" y="-74.5" font-family="Helvetica,sans-Serif" font-size="10.00">include/command/Transfer</text>
<text text-anchor="middle" x="76" y="-63.5" font-family="Helvetica,sans-Serif" font-size="10.00">Pool.hpp</text>
</a>
</g>
</g>
<!-- Node14&#45;&gt;Node15 -->
<g id="edge1" class="edge"><title>Node14&#45;&gt;Node15</title>
<path fill="none" stroke="midnightblue" d="M273.445,-121.045C233.913,-111.326 175.943,-97.0727 133.035,-86.523"/>
<polygon fill="midnightblue" stroke="midnightblue" points="272.781,-124.486 283.327,-123.475 274.452,-117.689 272.781,-124.486"/>
</g>
<!-- Node17 -->
<g id="node4" class="node"><title>Node17</title>
<g id="a_node4"><a xlink:href="_command_pool_8cpp.html" target="_top" xlink:title="src/command/CommandPool.cpp">
<polygon fill="white" stroke="black" points="159.5,-62 159.5,-81 320.5,-81 320.5,-62 159.5,-62"/>
<text text-anchor="middle" x="240" y="-69" font-family="Helvetica,sans-Serif" font-size="10.00">src/command/CommandPool.cpp</text>
</a>
</g>
</g>
<!-- Node14&#45;&gt;Node17 -->
<g id="edge3" class="edge"><title>Node14&#45;&gt;Node17</title>
<path fill="none" stroke="midnightblue" d="M298.721,-117.294C283.759,-105.88 263.541,-90.4577 251.155,-81.0091"/>
<polygon fill="midnightblue" stroke="midnightblue" points="296.751,-120.193 306.825,-123.475 300.996,-114.627 296.751,-120.193"/>
</g>
<!-- Node18 -->
<g id="node5" class="node"><title>Node18</title>
<g id="a_node5"><a xlink:href="_buffer_8cpp.html" target="_top" xlink:title="src/resource/Buffer.cpp">
<polygon fill="white" stroke="black" points="338.5,-62 338.5,-81 455.5,-81 455.5,-62 338.5,-62"/>
<text text-anchor="middle" x="397" y="-69" font-family="Helvetica,sans-Serif" font-size="10.00">src/resource/Buffer.cpp</text>
</a>
</g>
</g>
<!-- Node14&#45;&gt;Node18 -->
<g id="edge4" class="edge"><title>Node14&#45;&gt;Node18</title>
<path fill="none" stroke="midnightblue" d="M337.526,-117.294C352.68,-105.88 373.157,-90.4577 385.702,-81.0091"/>
<polygon fill="midnightblue" stroke="midnightblue" points="335.201,-114.663 329.319,-123.475 339.412,-120.255 335.201,-114.663"/>
</g>
<!-- Node19 -->
<g id="node6" class="node"><title>Node19</title>
<g id="a_node6"><a xlink:href="_image_8cpp.html" target="_top" xlink:title="src/resource/Image.cpp">
<polygon fill="white" stroke="black" points="473.5,-62 473.5,-81 592.5,-81 592.5,-62 473.5,-62"/>
<text text-anchor="middle" x="533" y="-69" font-family="Helvetica,sans-Serif" font-size="10.00">src/resource/Image.cpp</text>
</a>
</g>
</g>
<!-- Node14&#45;&gt;Node19 -->
<g id="edge5" class="edge"><title>Node14&#45;&gt;Node19</title>
<path fill="none" stroke="midnightblue" d="M358.654,-120.749C400.425,-109.189 464.521,-91.4511 502.253,-81.0091"/>
<polygon fill="midnightblue" stroke="midnightblue" points="357.508,-117.435 348.804,-123.475 359.376,-124.181 357.508,-117.435"/>
</g>
<!-- Node16 -->
<g id="node3" class="node"><title>Node16</title>
<g id="a_node3"><a xlink:href="_transfer_pool_8cpp.html" target="_top" xlink:title="src/command/TransferPool.cpp">
<polygon fill="white" stroke="black" points="0,-0.5 0,-19.5 152,-19.5 152,-0.5 0,-0.5"/>
<text text-anchor="middle" x="76" y="-7.5" font-family="Helvetica,sans-Serif" font-size="10.00">src/command/TransferPool.cpp</text>
</a>
</g>
</g>
<!-- Node15&#45;&gt;Node16 -->
<g id="edge2" class="edge"><title>Node15&#45;&gt;Node16</title>
<path fill="none" stroke="midnightblue" d="M76,-46.2892C76,-36.857 76,-26.6548 76,-19.6578"/>
<polygon fill="midnightblue" stroke="midnightblue" points="72.5001,-46.3993 76,-56.3993 79.5001,-46.3994 72.5001,-46.3993"/>
</g>
</g>
</svg>
