<?xml version="1.0" encoding="UTF-8" standalone="no"?>
<!DOCTYPE svg PUBLIC "-//W3C//DTD SVG 1.1//EN"
 "http://www.w3.org/Graphics/SVG/1.1/DTD/svg11.dtd">
<!-- Generated by graphviz version 2.38.0 (20140413.2041)
 -->
<!-- Title: C:/Users/kjones/Documents/SoftwareDev/VulpesSceneKit/third_party/vulpesrender/src/command/CommandPool.cpp Pages: 1 -->
<!--zoomable 285 -->
<svg id="main" version="1.1" xmlns="http://www.w3.org/2000/svg" xmlns:xlink="http://www.w3.org/1999/xlink" xml:space="preserve" onload="init(evt)">
<style type="text/css"><![CDATA[
.edge:hover path { stroke: red; }
.edge:hover polygon { stroke: red; fill: red; }
]]></style>
<script type="text/javascript"><![CDATA[
var edges = document.getElementsByTagName('g');
if (edges && edges.length) {
  for (var i=0;i<edges.length;i++) {
    if (edges[i].id.substr(0,4)=='edge') {
      edges[i].setAttribute('class','edge');
    }
  }
}
]]></script>
        <defs>
                <circle id="rim" cx="0" cy="0" r="7"/>
                <circle id="rim2" cx="0" cy="0" r="3.5"/>
                <g id="zoomPlus">
                        <use xlink:href="#rim" fill="#404040">
                                <set attributeName="fill" to="#808080" begin="zoomplus.mouseover" end="zoomplus.mouseout"/>
                        </use>
                        <path d="M-4,0h8M0,-4v8" fill="none" stroke="white" stroke-width="1.5" pointer-events="none"/>
                </g>
                <g id="zoomMin">
                        <use xlink:href="#rim" fill="#404040">
                                <set attributeName="fill" to="#808080" begin="zoomminus.mouseover" end="zoomminus.mouseout"/>
                        </use>
                        <path d="M-4,0h8" fill="none" stroke="white" stroke-width="1.5" pointer-events="none"/>
                </g>
                <g id="dirArrow">
                        <path fill="none" stroke="white" stroke-width="1.5" d="M0,-3.0v7 M-2.5,-0.5L0,-3.0L2.5,-0.5"/>
                </g>
               <g id="resetDef">
                       <use xlink:href="#rim2" fill="#404040">
                               <set attributeName="fill" to="#808080" begin="reset.mouseover" end="reset.mouseout"/>
                       </use>
               </g>
        </defs>

<script type="text/javascript">
var viewWidth = 1704;
var viewHeight = 285;
var sectionId = 'dynsection-0';
</script>
<script xlink:href="svgpan.js"/>
<svg id="graph" class="graph">
<g id="viewport">
<title>C:/Users/kjones/Documents/SoftwareDev/VulpesSceneKit/third_party/vulpesrender/src/command/CommandPool.cpp</title>
<polygon fill="white" stroke="none" points="-4,4 -4,-281 1699.5,-281 1699.5,4 -4,4"/>
<!-- Node0 -->
<g id="node1" class="node"><title>Node0</title>
<polygon fill="#bfbfbf" stroke="black" points="411,-224.5 411,-276.5 575,-276.5 575,-224.5 411,-224.5"/>
<text text-anchor="start" x="419" y="-264.5" font-family="Helvetica,sans-Serif" font-size="10.00">C:/Users/kjones/Documents</text>
<text text-anchor="start" x="419" y="-253.5" font-family="Helvetica,sans-Serif" font-size="10.00">/SoftwareDev/VulpesSceneKit</text>
<text text-anchor="start" x="419" y="-242.5" font-family="Helvetica,sans-Serif" font-size="10.00">/third_party/vulpesrender</text>
<text text-anchor="middle" x="493" y="-231.5" font-family="Helvetica,sans-Serif" font-size="10.00">/src/command/CommandPool.cpp</text>
</g>
<!-- Node1 -->
<g id="node2" class="node"><title>Node1</title>
<g id="a_node2"><a xlink:href="vpr__stdafx_8h.html" target="_top" xlink:title="vpr_stdafx.h">
<polygon fill="white" stroke="black" points="316,-112.5 316,-131.5 384,-131.5 384,-112.5 316,-112.5"/>
<text text-anchor="middle" x="350" y="-119.5" font-family="Helvetica,sans-Serif" font-size="10.00">vpr_stdafx.h</text>
</a>
</g>
</g>
<!-- Node0&#45;&gt;Node1 -->
<g id="edge1" class="edge"><title>Node0&#45;&gt;Node1</title>
<path fill="none" stroke="midnightblue" d="M410.61,-245.262C370.086,-238.507 324.566,-222.925 299,-188 285.922,-170.134 307.157,-150.182 326.081,-137.154"/>
<polygon fill="midnightblue" stroke="midnightblue" points="328.008,-140.076 334.481,-131.688 324.191,-134.208 328.008,-140.076"/>
</g>
<!-- Node13 -->
<g id="node14" class="node"><title>Node13</title>
<g id="a_node14"><a xlink:href="_command_pool_8hpp.html" target="_top" xlink:title="command/CommandPool.hpp">
<polygon fill="white" stroke="black" points="420.5,-168.5 420.5,-187.5 565.5,-187.5 565.5,-168.5 420.5,-168.5"/>
<text text-anchor="middle" x="493" y="-175.5" font-family="Helvetica,sans-Serif" font-size="10.00">command/CommandPool.hpp</text>
</a>
</g>
</g>
<!-- Node0&#45;&gt;Node13 -->
<g id="edge15" class="edge"><title>Node0&#45;&gt;Node13</title>
<path fill="none" stroke="midnightblue" d="M493,-224.446C493,-215.73 493,-206.104 493,-197.964"/>
<polygon fill="midnightblue" stroke="midnightblue" points="496.5,-197.695 493,-187.695 489.5,-197.696 496.5,-197.695"/>
</g>
<!-- Node15 -->
<g id="node16" class="node"><title>Node15</title>
<g id="a_node16"><a xlink:href="_instance_8hpp.html" target="_top" xlink:title="core/Instance.hpp">
<polygon fill="white" stroke="black" points="308,-168.5 308,-187.5 402,-187.5 402,-168.5 308,-168.5"/>
<text text-anchor="middle" x="355" y="-175.5" font-family="Helvetica,sans-Serif" font-size="10.00">core/Instance.hpp</text>
</a>
</g>
</g>
<!-- Node0&#45;&gt;Node15 -->
<g id="edge18" class="edge"><title>Node0&#45;&gt;Node15</title>
<path fill="none" stroke="midnightblue" d="M443.958,-224.446C422.648,-213.56 398.56,-201.254 380.83,-192.196"/>
<polygon fill="midnightblue" stroke="midnightblue" points="382.189,-188.96 371.691,-187.527 379.004,-195.193 382.189,-188.96"/>
</g>
<!-- Node16 -->
<g id="node17" class="node"><title>Node16</title>
<g id="a_node17"><a xlink:href="_logical_device_8hpp.html" target="_top" xlink:title="core/LogicalDevice.hpp">
<polygon fill="white" stroke="black" points="584,-168.5 584,-187.5 700,-187.5 700,-168.5 584,-168.5"/>
<text text-anchor="middle" x="642" y="-175.5" font-family="Helvetica,sans-Serif" font-size="10.00">core/LogicalDevice.hpp</text>
</a>
</g>
</g>
<!-- Node0&#45;&gt;Node16 -->
<g id="edge21" class="edge"><title>Node0&#45;&gt;Node16</title>
<path fill="none" stroke="midnightblue" d="M545.951,-224.446C569.279,-213.408 595.69,-200.912 614.905,-191.82"/>
<polygon fill="midnightblue" stroke="midnightblue" points="616.436,-194.968 623.978,-187.527 613.442,-188.64 616.436,-194.968"/>
</g>
<!-- Node18 -->
<g id="node19" class="node"><title>Node18</title>
<g id="a_node19"><a xlink:href="easylogging_09_09_8h.html" target="_top" xlink:title="util/easylogging++.h">
<polygon fill="white" stroke="black" points="1024,-112.5 1024,-131.5 1128,-131.5 1128,-112.5 1024,-112.5"/>
<text text-anchor="middle" x="1076" y="-119.5" font-family="Helvetica,sans-Serif" font-size="10.00">util/easylogging++.h</text>
</a>
</g>
</g>
<!-- Node0&#45;&gt;Node18 -->
<g id="edge25" class="edge"><title>Node0&#45;&gt;Node18</title>
<path fill="none" stroke="midnightblue" d="M575.293,-231.644C698.344,-204.944 926.515,-155.435 1026.68,-133.701"/>
<polygon fill="midnightblue" stroke="midnightblue" points="1027.51,-137.103 1036.54,-131.562 1026.03,-130.262 1027.51,-137.103"/>
</g>
<!-- Node2 -->
<g id="node3" class="node"><title>Node2</title>
<polygon fill="white" stroke="#bfbfbf" points="419.5,-0.5 419.5,-19.5 460.5,-19.5 460.5,-0.5 419.5,-0.5"/>
<text text-anchor="middle" x="440" y="-7.5" font-family="Helvetica,sans-Serif" font-size="10.00">string</text>
</g>
<!-- Node1&#45;&gt;Node2 -->
<g id="edge2" class="edge"><title>Node1&#45;&gt;Node2</title>
<path fill="none" stroke="midnightblue" d="M315.683,-112.939C279.21,-102.745 229.526,-83.1874 251,-56 270.388,-31.4537 360.89,-18.8544 409.284,-13.7753"/>
<polygon fill="midnightblue" stroke="midnightblue" points="409.892,-17.2319 419.493,-12.7501 409.193,-10.267 409.892,-17.2319"/>
</g>
<!-- Node3 -->
<g id="node4" class="node"><title>Node3</title>
<polygon fill="white" stroke="#bfbfbf" points="585,-56.5 585,-75.5 627,-75.5 627,-56.5 585,-56.5"/>
<text text-anchor="middle" x="606" y="-63.5" font-family="Helvetica,sans-Serif" font-size="10.00">vector</text>
</g>
<!-- Node1&#45;&gt;Node3 -->
<g id="edge3" class="edge"><title>Node1&#45;&gt;Node3</title>
<path fill="none" stroke="midnightblue" d="M384.3,-115.216C426.869,-107.81 501.847,-94.0199 574.934,-76.0834"/>
<polygon fill="midnightblue" stroke="midnightblue" points="575.902,-79.4494 584.764,-73.6426 574.215,-72.6557 575.902,-79.4494"/>
</g>
<!-- Node4 -->
<g id="node5" class="node"><title>Node4</title>
<polygon fill="white" stroke="#bfbfbf" points="260,-56.5 260,-75.5 298,-75.5 298,-56.5 260,-56.5"/>
<text text-anchor="middle" x="279" y="-63.5" font-family="Helvetica,sans-Serif" font-size="10.00">array</text>
</g>
<!-- Node1&#45;&gt;Node4 -->
<g id="edge4" class="edge"><title>Node1&#45;&gt;Node4</title>
<path fill="none" stroke="midnightblue" d="M338.593,-112.324C327.891,-104.185 311.659,-91.8395 298.837,-82.0874"/>
<polygon fill="midnightblue" stroke="midnightblue" points="300.693,-79.1018 290.615,-75.8339 296.456,-84.6734 300.693,-79.1018"/>
</g>
<!-- Node5 -->
<g id="node6" class="node"><title>Node5</title>
<polygon fill="white" stroke="#bfbfbf" points="515,-56.5 515,-75.5 567,-75.5 567,-56.5 515,-56.5"/>
<text text-anchor="middle" x="541" y="-63.5" font-family="Helvetica,sans-Serif" font-size="10.00">memory</text>
</g>
<!-- Node1&#45;&gt;Node5 -->
<g id="edge5" class="edge"><title>Node1&#45;&gt;Node5</title>
<path fill="none" stroke="midnightblue" d="M380.265,-112.444C414.205,-102.848 469.204,-87.2984 505.239,-77.1104"/>
<polygon fill="midnightblue" stroke="midnightblue" points="506.196,-80.4771 514.867,-74.3884 504.292,-73.7411 506.196,-80.4771"/>
</g>
<!-- Node6 -->
<g id="node7" class="node"><title>Node6</title>
<polygon fill="white" stroke="#bfbfbf" points="316.5,-56.5 316.5,-75.5 365.5,-75.5 365.5,-56.5 316.5,-56.5"/>
<text text-anchor="middle" x="341" y="-63.5" font-family="Helvetica,sans-Serif" font-size="10.00">cassert</text>
</g>
<!-- Node1&#45;&gt;Node6 -->
<g id="edge6" class="edge"><title>Node1&#45;&gt;Node6</title>
<path fill="none" stroke="midnightblue" d="M348.514,-112.083C347.321,-104.927 345.606,-94.6353 344.115,-85.6911"/>
<polygon fill="midnightblue" stroke="midnightblue" points="347.555,-85.0396 342.459,-75.7511 340.65,-86.1904 347.555,-85.0396"/>
</g>
<!-- Node7 -->
<g id="node8" class="node"><title>Node7</title>
<polygon fill="white" stroke="#bfbfbf" points="0,-56.5 0,-75.5 44,-75.5 44,-56.5 0,-56.5"/>
<text text-anchor="middle" x="22" y="-63.5" font-family="Helvetica,sans-Serif" font-size="10.00">mutex</text>
</g>
<!-- Node1&#45;&gt;Node7 -->
<g id="edge7" class="edge"><title>Node1&#45;&gt;Node7</title>
<path fill="none" stroke="midnightblue" d="M315.88,-117.318C262.159,-111.198 154.46,-97.6332 54.2447,-76.0295"/>
<polygon fill="midnightblue" stroke="midnightblue" points="54.7775,-72.5633 44.2604,-73.8445 53.281,-79.4015 54.7775,-72.5633"/>
</g>
<!-- Node8 -->
<g id="node9" class="node"><title>Node8</title>
<g id="a_node9"><a xlink:href="_create_info_base_8hpp.html" target="_top" xlink:title="common/CreateInfoBase.hpp">
<polygon fill="white" stroke="black" points="62,-56.5 62,-75.5 204,-75.5 204,-56.5 62,-56.5"/>
<text text-anchor="middle" x="133" y="-63.5" font-family="Helvetica,sans-Serif" font-size="10.00">common/CreateInfoBase.hpp</text>
</a>
</g>
</g>
<!-- Node1&#45;&gt;Node8 -->
<g id="edge8" class="edge"><title>Node1&#45;&gt;Node8</title>
<path fill="none" stroke="midnightblue" d="M315.616,-112.444C278.078,-103.102 217.869,-88.1194 176.933,-77.9326"/>
<polygon fill="midnightblue" stroke="midnightblue" points="177.773,-74.5349 167.223,-75.5164 176.082,-81.3278 177.773,-74.5349"/>
</g>
<!-- Node11 -->
<g id="node12" class="node"><title>Node11</title>
<g id="a_node12"><a xlink:href="vk_assert_8hpp.html" target="_top" xlink:title="common/vkAssert.hpp">
<polygon fill="white" stroke="black" points="383.5,-56.5 383.5,-75.5 496.5,-75.5 496.5,-56.5 383.5,-56.5"/>
<text text-anchor="middle" x="440" y="-63.5" font-family="Helvetica,sans-Serif" font-size="10.00">common/vkAssert.hpp</text>
</a>
</g>
</g>
<!-- Node1&#45;&gt;Node11 -->
<g id="edge11" class="edge"><title>Node1&#45;&gt;Node11</title>
<path fill="none" stroke="midnightblue" d="M364.46,-112.324C378.5,-103.9 400.048,-90.9709 416.543,-81.0741"/>
<polygon fill="midnightblue" stroke="midnightblue" points="418.802,-83.8007 425.576,-75.6545 415.2,-77.7983 418.802,-83.8007"/>
</g>
<!-- Node9 -->
<g id="node10" class="node"><title>Node9</title>
<polygon fill="white" stroke="#bfbfbf" points="113,-0.5 113,-19.5 153,-19.5 153,-0.5 113,-0.5"/>
<text text-anchor="middle" x="133" y="-7.5" font-family="Helvetica,sans-Serif" font-size="10.00">limits</text>
</g>
<!-- Node8&#45;&gt;Node9 -->
<g id="edge9" class="edge"><title>Node8&#45;&gt;Node9</title>
<path fill="none" stroke="midnightblue" d="M133,-56.083C133,-49.0059 133,-38.8611 133,-29.9865"/>
<polygon fill="midnightblue" stroke="midnightblue" points="136.5,-29.751 133,-19.7511 129.5,-29.7511 136.5,-29.751"/>
</g>
<!-- Node10 -->
<g id="node11" class="node"><title>Node10</title>
<polygon fill="white" stroke="#bfbfbf" points="245,-0.5 245,-19.5 327,-19.5 327,-0.5 245,-0.5"/>
<text text-anchor="middle" x="286" y="-7.5" font-family="Helvetica,sans-Serif" font-size="10.00">vulkan/vulkan.h</text>
</g>
<!-- Node8&#45;&gt;Node10 -->
<g id="edge10" class="edge"><title>Node8&#45;&gt;Node10</title>
<path fill="none" stroke="midnightblue" d="M157.243,-56.4435C182.871,-47.3986 223.485,-33.064 252.238,-22.9158"/>
<polygon fill="midnightblue" stroke="midnightblue" points="253.605,-26.1452 261.87,-19.5164 251.275,-19.5442 253.605,-26.1452"/>
</g>
<!-- Node11&#45;&gt;Node2 -->
<g id="edge13" class="edge"><title>Node11&#45;&gt;Node2</title>
<path fill="none" stroke="midnightblue" d="M440,-56.083C440,-49.0059 440,-38.8611 440,-29.9865"/>
<polygon fill="midnightblue" stroke="midnightblue" points="443.5,-29.751 440,-19.7511 436.5,-29.7511 443.5,-29.751"/>
</g>
<!-- Node11&#45;&gt;Node10 -->
<g id="edge14" class="edge"><title>Node11&#45;&gt;Node10</title>
<path fill="none" stroke="midnightblue" d="M415.598,-56.4435C389.803,-47.3986 348.923,-33.064 319.982,-22.9158"/>
<polygon fill="midnightblue" stroke="midnightblue" points="320.882,-19.5226 310.288,-19.5164 318.566,-26.1283 320.882,-19.5226"/>
</g>
<!-- Node12 -->
<g id="node13" class="node"><title>Node12</title>
<polygon fill="white" stroke="#bfbfbf" points="812,-0.5 812,-19.5 866,-19.5 866,-0.5 812,-0.5"/>
<text text-anchor="middle" x="839" y="-7.5" font-family="Helvetica,sans-Serif" font-size="10.00">iostream</text>
</g>
<!-- Node11&#45;&gt;Node12 -->
<g id="edge12" class="edge"><title>Node11&#45;&gt;Node12</title>
<path fill="none" stroke="midnightblue" d="M496.525,-57.2875C499.73,-56.8515 502.906,-56.42 506,-56 613.38,-41.4232 740.254,-24.3079 801.796,-16.0126"/>
<polygon fill="midnightblue" stroke="midnightblue" points="802.362,-19.4681 811.805,-14.6637 801.427,-12.5309 802.362,-19.4681"/>
</g>
<!-- Node13&#45;&gt;Node1 -->
<g id="edge16" class="edge"><title>Node13&#45;&gt;Node1</title>
<path fill="none" stroke="midnightblue" d="M470.341,-168.444C446.598,-159.478 409.091,-145.314 382.262,-135.183"/>
<polygon fill="midnightblue" stroke="midnightblue" points="383.144,-131.775 372.553,-131.516 380.671,-138.324 383.144,-131.775"/>
</g>
<!-- Node14 -->
<g id="node15" class="node"><title>Node14</title>
<g id="a_node15"><a xlink:href="_forward_decl_8hpp.html" target="_top" xlink:title="ForwardDecl.hpp">
<polygon fill="white" stroke="black" points="448.5,-112.5 448.5,-131.5 537.5,-131.5 537.5,-112.5 448.5,-112.5"/>
<text text-anchor="middle" x="493" y="-119.5" font-family="Helvetica,sans-Serif" font-size="10.00">ForwardDecl.hpp</text>
</a>
</g>
</g>
<!-- Node13&#45;&gt;Node14 -->
<g id="edge17" class="edge"><title>Node13&#45;&gt;Node14</title>
<path fill="none" stroke="midnightblue" d="M493,-168.083C493,-161.006 493,-150.861 493,-141.986"/>
<polygon fill="midnightblue" stroke="midnightblue" points="496.5,-141.751 493,-131.751 489.5,-141.751 496.5,-141.751"/>
</g>
<!-- Node15&#45;&gt;Node1 -->
<g id="edge19" class="edge"><title>Node15&#45;&gt;Node1</title>
<path fill="none" stroke="midnightblue" d="M354.174,-168.083C353.519,-161.006 352.58,-150.861 351.758,-141.986"/>
<polygon fill="midnightblue" stroke="midnightblue" points="355.217,-141.386 350.81,-131.751 348.247,-142.031 355.217,-141.386"/>
</g>
<!-- Node15&#45;&gt;Node14 -->
<g id="edge20" class="edge"><title>Node15&#45;&gt;Node14</title>
<path fill="none" stroke="midnightblue" d="M376.867,-168.444C399.779,-159.478 435.975,-145.314 461.866,-135.183"/>
<polygon fill="midnightblue" stroke="midnightblue" points="463.199,-138.42 471.236,-131.516 460.648,-131.901 463.199,-138.42"/>
</g>
<!-- Node16&#45;&gt;Node1 -->
<g id="edge22" class="edge"><title>Node16&#45;&gt;Node1</title>
<path fill="none" stroke="midnightblue" d="M595.732,-168.444C540.438,-158.218 448.587,-141.232 394.216,-131.177"/>
<polygon fill="midnightblue" stroke="midnightblue" points="394.661,-127.7 384.191,-129.323 393.388,-134.583 394.661,-127.7"/>
</g>
<!-- Node16&#45;&gt;Node14 -->
<g id="edge23" class="edge"><title>Node16&#45;&gt;Node14</title>
<path fill="none" stroke="midnightblue" d="M618.391,-168.444C593.542,-159.438 554.226,-145.189 526.246,-135.049"/>
<polygon fill="midnightblue" stroke="midnightblue" points="527.093,-131.633 516.499,-131.516 524.708,-138.214 527.093,-131.633"/>
</g>
<!-- Node17 -->
<g id="node18" class="node"><title>Node17</title>
<polygon fill="white" stroke="#bfbfbf" points="645.5,-56.5 645.5,-75.5 680.5,-75.5 680.5,-56.5 645.5,-56.5"/>
<text text-anchor="middle" x="663" y="-63.5" font-family="Helvetica,sans-Serif" font-size="10.00">map</text>
</g>
<!-- Node16&#45;&gt;Node17 -->
<g id="edge24" class="edge"><title>Node16&#45;&gt;Node17</title>
<path fill="none" stroke="midnightblue" d="M643.648,-168.368C647.037,-150.617 654.855,-109.666 659.45,-85.5974"/>
<polygon fill="midnightblue" stroke="midnightblue" points="662.922,-86.0704 661.36,-75.5914 656.047,-84.7577 662.922,-86.0704"/>
</g>
<!-- Node18&#45;&gt;Node2 -->
<g id="edge34" class="edge"><title>Node18&#45;&gt;Node2</title>
<path fill="none" stroke="midnightblue" d="M1023.81,-119.823C954.689,-117.017 829.664,-107.585 728,-76 709.397,-70.2206 707.452,-62.2444 689,-56 612.79,-30.2089 518.179,-18.2885 470.503,-13.5927"/>
<polygon fill="midnightblue" stroke="midnightblue" points="470.804,-10.1057 460.519,-12.6483 470.145,-17.0746 470.804,-10.1057"/>
</g>
<!-- Node18&#45;&gt;Node3 -->
<g id="edge35" class="edge"><title>Node18&#45;&gt;Node3</title>
<path fill="none" stroke="midnightblue" d="M1023.71,-118.859C942.657,-114.84 781.81,-104.072 637.126,-75.8677"/>
<polygon fill="midnightblue" stroke="midnightblue" points="637.669,-72.4073 627.18,-73.8958 636.308,-79.2737 637.669,-72.4073"/>
</g>
<!-- Node18&#45;&gt;Node5 -->
<g id="edge43" class="edge"><title>Node18&#45;&gt;Node5</title>
<path fill="none" stroke="midnightblue" d="M1023.81,-119.086C934.251,-115.195 745.462,-104.347 577.299,-75.9602"/>
<polygon fill="midnightblue" stroke="midnightblue" points="577.722,-72.4818 567.274,-74.2428 576.54,-79.3813 577.722,-72.4818"/>
</g>
<!-- Node18&#45;&gt;Node12 -->
<g id="edge41" class="edge"><title>Node18&#45;&gt;Node12</title>
<path fill="none" stroke="midnightblue" d="M1100.81,-112.496C1130.59,-100.997 1174.15,-79.2375 1154,-56 1118.39,-14.9457 951.461,-10.4157 876.093,-10.5181"/>
<polygon fill="midnightblue" stroke="midnightblue" points="876.074,-7.01808 866.089,-10.56 876.103,-14.018 876.074,-7.01808"/>
</g>
<!-- Node18&#45;&gt;Node17 -->
<g id="edge36" class="edge"><title>Node18&#45;&gt;Node17</title>
<path fill="none" stroke="midnightblue" d="M1023.83,-117.439C950.063,-111.816 811.291,-99.0733 695,-76 693.549,-75.7122 692.069,-75.3918 690.578,-75.0483"/>
<polygon fill="midnightblue" stroke="midnightblue" points="691.377,-71.6399 680.82,-72.5449 689.637,-78.4203 691.377,-71.6399"/>
</g>
<!-- Node19 -->
<g id="node20" class="node"><title>Node19</title>
<polygon fill="white" stroke="#bfbfbf" points="1201.5,-56.5 1201.5,-75.5 1242.5,-75.5 1242.5,-56.5 1201.5,-56.5"/>
<text text-anchor="middle" x="1222" y="-63.5" font-family="Helvetica,sans-Serif" font-size="10.00">ctime</text>
</g>
<!-- Node18&#45;&gt;Node19 -->
<g id="edge26" class="edge"><title>Node18&#45;&gt;Node19</title>
<path fill="none" stroke="midnightblue" d="M1099.13,-112.444C1124.2,-103.173 1164.29,-88.3464 1191.81,-78.1652"/>
<polygon fill="midnightblue" stroke="midnightblue" points="1193.17,-81.395 1201.33,-74.6433 1190.74,-74.8297 1193.17,-81.395"/>
</g>
<!-- Node20 -->
<g id="node21" class="node"><title>Node20</title>
<polygon fill="white" stroke="#bfbfbf" points="1261,-56.5 1261,-75.5 1307,-75.5 1307,-56.5 1261,-56.5"/>
<text text-anchor="middle" x="1284" y="-63.5" font-family="Helvetica,sans-Serif" font-size="10.00">cstring</text>
</g>
<!-- Node18&#45;&gt;Node20 -->
<g id="edge27" class="edge"><title>Node18&#45;&gt;Node20</title>
<path fill="none" stroke="midnightblue" d="M1110.46,-112.447C1143.98,-104.071 1196.57,-90.7779 1251.11,-76.1947"/>
<polygon fill="midnightblue" stroke="midnightblue" points="1252.19,-79.5266 1260.95,-73.5547 1250.38,-72.7657 1252.19,-79.5266"/>
</g>
<!-- Node21 -->
<g id="node22" class="node"><title>Node21</title>
<polygon fill="white" stroke="#bfbfbf" points="1325.5,-56.5 1325.5,-75.5 1370.5,-75.5 1370.5,-56.5 1325.5,-56.5"/>
<text text-anchor="middle" x="1348" y="-63.5" font-family="Helvetica,sans-Serif" font-size="10.00">cstdlib</text>
</g>
<!-- Node18&#45;&gt;Node21 -->
<g id="edge28" class="edge"><title>Node18&#45;&gt;Node21</title>
<path fill="none" stroke="midnightblue" d="M1128.25,-112.581C1174.86,-104.759 1245.15,-92.2043 1315.42,-75.9586"/>
<polygon fill="midnightblue" stroke="midnightblue" points="1316.4,-79.3257 1325.34,-73.6419 1314.8,-72.5093 1316.4,-79.3257"/>
</g>
<!-- Node22 -->
<g id="node23" class="node"><title>Node22</title>
<polygon fill="white" stroke="#bfbfbf" points="1389,-56.5 1389,-75.5 1435,-75.5 1435,-56.5 1389,-56.5"/>
<text text-anchor="middle" x="1412" y="-63.5" font-family="Helvetica,sans-Serif" font-size="10.00">cctype</text>
</g>
<!-- Node18&#45;&gt;Node22 -->
<g id="edge29" class="edge"><title>Node18&#45;&gt;Node22</title>
<path fill="none" stroke="midnightblue" d="M1128.27,-115.313C1187.04,-108.462 1285.46,-95.6226 1378.78,-76.0373"/>
<polygon fill="midnightblue" stroke="midnightblue" points="1379.61,-79.4382 1388.67,-73.9326 1378.16,-72.5916 1379.61,-79.4382"/>
</g>
<!-- Node23 -->
<g id="node24" class="node"><title>Node23</title>
<polygon fill="white" stroke="#bfbfbf" points="1453.5,-56.5 1453.5,-75.5 1500.5,-75.5 1500.5,-56.5 1453.5,-56.5"/>
<text text-anchor="middle" x="1477" y="-63.5" font-family="Helvetica,sans-Serif" font-size="10.00">cwchar</text>
</g>
<!-- Node18&#45;&gt;Node23 -->
<g id="edge30" class="edge"><title>Node18&#45;&gt;Node23</title>
<path fill="none" stroke="midnightblue" d="M1128.18,-117.011C1197.88,-111.155 1325.32,-98.6081 1443.37,-75.8469"/>
<polygon fill="midnightblue" stroke="midnightblue" points="1444.16,-79.2585 1453.3,-73.9029 1442.82,-72.3888 1444.16,-79.2585"/>
</g>
<!-- Node24 -->
<g id="node25" class="node"><title>Node24</title>
<polygon fill="white" stroke="#bfbfbf" points="1518.5,-56.5 1518.5,-75.5 1565.5,-75.5 1565.5,-56.5 1518.5,-56.5"/>
<text text-anchor="middle" x="1542" y="-63.5" font-family="Helvetica,sans-Serif" font-size="10.00">csignal</text>
</g>
<!-- Node18&#45;&gt;Node24 -->
<g id="edge31" class="edge"><title>Node18&#45;&gt;Node24</title>
<path fill="none" stroke="midnightblue" d="M1128.19,-118.473C1208.2,-113.969 1366.03,-102.595 1508.14,-76.0758"/>
<polygon fill="midnightblue" stroke="midnightblue" points="1509.17,-79.4427 1518.34,-74.1401 1507.86,-72.5653 1509.17,-79.4427"/>
</g>
<!-- Node25 -->
<g id="node26" class="node"><title>Node25</title>
<polygon fill="white" stroke="#bfbfbf" points="1584,-56.5 1584,-75.5 1628,-75.5 1628,-56.5 1584,-56.5"/>
<text text-anchor="middle" x="1606" y="-63.5" font-family="Helvetica,sans-Serif" font-size="10.00">cerrno</text>
</g>
<!-- Node18&#45;&gt;Node25 -->
<g id="edge32" class="edge"><title>Node18&#45;&gt;Node25</title>
<path fill="none" stroke="midnightblue" d="M1128.17,-119.597C1217.7,-116.471 1406.32,-106.751 1573.79,-75.8791"/>
<polygon fill="midnightblue" stroke="midnightblue" points="1574.59,-79.2906 1583.77,-74.0089 1573.3,-72.4103 1574.59,-79.2906"/>
</g>
<!-- Node26 -->
<g id="node27" class="node"><title>Node26</title>
<polygon fill="white" stroke="#bfbfbf" points="1646.5,-56.5 1646.5,-75.5 1695.5,-75.5 1695.5,-56.5 1646.5,-56.5"/>
<text text-anchor="middle" x="1671" y="-63.5" font-family="Helvetica,sans-Serif" font-size="10.00">cstdarg</text>
</g>
<!-- Node18&#45;&gt;Node26 -->
<g id="edge33" class="edge"><title>Node18&#45;&gt;Node26</title>
<path fill="none" stroke="midnightblue" d="M1128.21,-119.921C1226.12,-117.223 1443.99,-108.033 1636.23,-75.8062"/>
<polygon fill="midnightblue" stroke="midnightblue" points="1636.96,-79.232 1646.23,-74.1042 1635.78,-72.3312 1636.96,-79.232"/>
</g>
<!-- Node27 -->
<g id="node28" class="node"><title>Node27</title>
<polygon fill="white" stroke="#bfbfbf" points="737,-56.5 737,-75.5 777,-75.5 777,-56.5 737,-56.5"/>
<text text-anchor="middle" x="757" y="-63.5" font-family="Helvetica,sans-Serif" font-size="10.00">utility</text>
</g>
<!-- Node18&#45;&gt;Node27 -->
<g id="edge37" class="edge"><title>Node18&#45;&gt;Node27</title>
<path fill="none" stroke="midnightblue" d="M1023.96,-115.265C967.689,-108.542 875.256,-95.9906 787.075,-75.9617"/>
<polygon fill="midnightblue" stroke="midnightblue" points="787.709,-72.5161 777.178,-73.6776 786.135,-79.3368 787.709,-72.5161"/>
</g>
<!-- Node28 -->
<g id="node29" class="node"><title>Node28</title>
<polygon fill="white" stroke="#bfbfbf" points="795,-56.5 795,-75.5 853,-75.5 853,-56.5 795,-56.5"/>
<text text-anchor="middle" x="824" y="-63.5" font-family="Helvetica,sans-Serif" font-size="10.00">functional</text>
</g>
<!-- Node18&#45;&gt;Node28 -->
<g id="edge38" class="edge"><title>Node18&#45;&gt;Node28</title>
<path fill="none" stroke="midnightblue" d="M1033.7,-112.435C992.595,-104.037 928.145,-90.6769 863.055,-76.1938"/>
<polygon fill="midnightblue" stroke="midnightblue" points="863.551,-72.7185 853.029,-73.955 862.026,-79.5502 863.551,-72.7185"/>
</g>
<!-- Node29 -->
<g id="node30" class="node"><title>Node29</title>
<polygon fill="white" stroke="#bfbfbf" points="871,-56.5 871,-75.5 927,-75.5 927,-56.5 871,-56.5"/>
<text text-anchor="middle" x="899" y="-63.5" font-family="Helvetica,sans-Serif" font-size="10.00">algorithm</text>
</g>
<!-- Node18&#45;&gt;Node29 -->
<g id="edge39" class="edge"><title>Node18&#45;&gt;Node29</title>
<path fill="none" stroke="midnightblue" d="M1047.95,-112.444C1017.92,-103.28 970.087,-88.6876 936.757,-78.5192"/>
<polygon fill="midnightblue" stroke="midnightblue" points="937.501,-75.0869 926.915,-75.5164 935.458,-81.7822 937.501,-75.0869"/>
</g>
<!-- Node30 -->
<g id="node31" class="node"><title>Node30</title>
<polygon fill="white" stroke="#bfbfbf" points="945.5,-56.5 945.5,-75.5 994.5,-75.5 994.5,-56.5 945.5,-56.5"/>
<text text-anchor="middle" x="970" y="-63.5" font-family="Helvetica,sans-Serif" font-size="10.00">fstream</text>
</g>
<!-- Node18&#45;&gt;Node30 -->
<g id="edge40" class="edge"><title>Node18&#45;&gt;Node30</title>
<path fill="none" stroke="midnightblue" d="M1058.97,-112.324C1041.97,-103.664 1015.62,-90.2424 996.007,-80.249"/>
<polygon fill="midnightblue" stroke="midnightblue" points="997.488,-77.0752 986.988,-75.6545 994.31,-83.3125 997.488,-77.0752"/>
</g>
<!-- Node31 -->
<g id="node32" class="node"><title>Node31</title>
<polygon fill="white" stroke="#bfbfbf" points="1013,-56.5 1013,-75.5 1065,-75.5 1065,-56.5 1013,-56.5"/>
<text text-anchor="middle" x="1039" y="-63.5" font-family="Helvetica,sans-Serif" font-size="10.00">sstream</text>
</g>
<!-- Node18&#45;&gt;Node31 -->
<g id="edge42" class="edge"><title>Node18&#45;&gt;Node31</title>
<path fill="none" stroke="midnightblue" d="M1069.89,-112.083C1064.72,-104.534 1057.15,-93.4948 1050.81,-84.2298"/>
<polygon fill="midnightblue" stroke="midnightblue" points="1053.54,-82.0221 1045,-75.7511 1047.76,-85.9787 1053.54,-82.0221"/>
</g>
<!-- Node32 -->
<g id="node33" class="node"><title>Node32</title>
<polygon fill="white" stroke="#bfbfbf" points="1083,-56.5 1083,-75.5 1145,-75.5 1145,-56.5 1083,-56.5"/>
<text text-anchor="middle" x="1114" y="-63.5" font-family="Helvetica,sans-Serif" font-size="10.00">type_traits</text>
</g>
<!-- Node18&#45;&gt;Node32 -->
<g id="edge44" class="edge"><title>Node18&#45;&gt;Node32</title>
<path fill="none" stroke="midnightblue" d="M1082.27,-112.083C1087.64,-104.455 1095.52,-93.2645 1102.08,-83.9408"/>
<polygon fill="midnightblue" stroke="midnightblue" points="1104.95,-85.9434 1107.84,-75.7511 1099.22,-81.9149 1104.95,-85.9434"/>
</g>
</g>
</svg>
        <g id="navigator" transform="translate(0 0)" fill="#404254">
                <rect fill="#f2f5e9" fill-opacity="0.5" stroke="#606060" stroke-width=".5" x="0" y="0" width="60" height="60"/>
                <use id="zoomplus" xlink:href="#zoomPlus" x="17" y="9" onmousedown="handleZoom(evt,'in')"/>
                <use id="zoomminus" xlink:href="#zoomMin" x="42" y="9" onmousedown="handleZoom(evt,'out')"/>
                <use id="reset" xlink:href="#resetDef" x="30" y="36" onmousedown="handleReset()"/>
                <g id="arrowUp" xlink:href="#dirArrow" transform="translate(30 24)" onmousedown="handlePan(0,-1)">
                  <use xlink:href="#rim" fill="#404040">
                        <set attributeName="fill" to="#808080" begin="arrowUp.mouseover" end="arrowUp.mouseout"/>
                  </use>
                  <path fill="none" stroke="white" stroke-width="1.5" d="M0,-3.0v7 M-2.5,-0.5L0,-3.0L2.5,-0.5"/>
                </g>
                <g id="arrowRight" xlink:href="#dirArrow" transform="rotate(90) translate(36 -43)" onmousedown="handlePan(1,0)">
                  <use xlink:href="#rim" fill="#404040">
                        <set attributeName="fill" to="#808080" begin="arrowRight.mouseover" end="arrowRight.mouseout"/>
                  </use>
                  <path fill="none" stroke="white" stroke-width="1.5" d="M0,-3.0v7 M-2.5,-0.5L0,-3.0L2.5,-0.5"/>
                </g>
                <g id="arrowDown" xlink:href="#dirArrow" transform="rotate(180) translate(-30 -48)" onmousedown="handlePan(0,1)">
                  <use xlink:href="#rim" fill="#404040">
                        <set attributeName="fill" to="#808080" begin="arrowDown.mouseover" end="arrowDown.mouseout"/>
                  </use>
                  <path fill="none" stroke="white" stroke-width="1.5" d="M0,-3.0v7 M-2.5,-0.5L0,-3.0L2.5,-0.5"/>
                </g>
                <g id="arrowLeft" xlink:href="#dirArrow" transform="rotate(270) translate(-36 17)" onmousedown="handlePan(-1,0)">
                  <use xlink:href="#rim" fill="#404040">
                        <set attributeName="fill" to="#808080" begin="arrowLeft.mouseover" end="arrowLeft.mouseout"/>
                  </use>
                  <path fill="none" stroke="white" stroke-width="1.5" d="M0,-3.0v7 M-2.5,-0.5L0,-3.0L2.5,-0.5"/>
                </g>
        </g>
        <svg viewBox="0 0 15 15" width="100%" height="30px" preserveAspectRatio="xMaxYMin meet">
         <g id="arrow_out" transform="scale(0.3 0.3)">
          <a xlink:href="_command_pool_8cpp__incl_org.svg" target="_base">
           <rect id="button" ry="5" rx="5" y="6" x="6" height="38" width="38"
                fill="#f2f5e9" fill-opacity="0.5" stroke="#606060" stroke-width="1.0"/>
           <path id="arrow"
             d="M 11.500037,31.436501 C 11.940474,20.09759 22.043105,11.32322 32.158766,21.979434 L 37.068811,17.246167 C 37.068811,17.246167 37.088388,32 37.088388,32 L 22.160133,31.978069 C 22.160133,31.978069 26.997745,27.140456 26.997745,27.140456 C 18.528582,18.264221 13.291696,25.230495 11.500037,31.436501 z"
             style="fill:#404040;"/>
          </a>
         </g>
        </svg>
</svg>
