<?xml version="1.0" encoding="UTF-8" standalone="no"?>
<!DOCTYPE svg PUBLIC "-//W3C//DTD SVG 1.1//EN"
 "http://www.w3.org/Graphics/SVG/1.1/DTD/svg11.dtd">
<!-- Generated by graphviz version 2.38.0 (20140413.2041)
 -->
<!-- Title: command/src/CommandPool.cpp Pages: 1 -->
<svg width="660pt" height="196pt"
 viewBox="0.00 0.00 660.00 196.00" xmlns="http://www.w3.org/2000/svg" xmlns:xlink="http://www.w3.org/1999/xlink">
<g id="graph0" class="graph" transform="scale(1 1) rotate(0) translate(4 192)">
<title>command/src/CommandPool.cpp</title>
<polygon fill="white" stroke="none" points="-4,4 -4,-192 656,-192 656,4 -4,4"/>
<!-- Node0 -->
<g id="node1" class="node"><title>Node0</title>
<polygon fill="#bfbfbf" stroke="black" points="300.5,-168.5 300.5,-187.5 461.5,-187.5 461.5,-168.5 300.5,-168.5"/>
<text text-anchor="middle" x="381" y="-175.5" font-family="Helvetica,sans-Serif" font-size="10.00">command/src/CommandPool.cpp</text>
</g>
<!-- Node1 -->
<g id="node2" class="node"><title>Node1</title>
<g id="a_node2"><a xlink:href="vpr__stdafx_8h.html" target="_top" xlink:title="vpr_stdafx.h">
<polygon fill="white" stroke="black" points="0,-56.5 0,-75.5 68,-75.5 68,-56.5 0,-56.5"/>
<text text-anchor="middle" x="34" y="-63.5" font-family="Helvetica,sans-Serif" font-size="10.00">vpr_stdafx.h</text>
</a>
</g>
</g>
<!-- Node0&#45;&gt;Node1 -->
<g id="edge1" class="edge"><title>Node0&#45;&gt;Node1</title>
<path fill="none" stroke="midnightblue" d="M300.363,-173.552C246.5,-168.81 175.143,-157.728 117,-132 90.4899,-120.269 65.0112,-98.172 49.4358,-83.0267"/>
<polygon fill="midnightblue" stroke="midnightblue" points="51.7868,-80.4279 42.2406,-75.8321 46.8372,-85.3779 51.7868,-80.4279"/>
</g>
<!-- Node3 -->
<g id="node4" class="node"><title>Node3</title>
<g id="a_node4"><a xlink:href="_command_pool_8hpp.html" target="_top" xlink:title="CommandPool.hpp">
<polygon fill="white" stroke="black" points="126.5,-112.5 126.5,-131.5 225.5,-131.5 225.5,-112.5 126.5,-112.5"/>
<text text-anchor="middle" x="176" y="-119.5" font-family="Helvetica,sans-Serif" font-size="10.00">CommandPool.hpp</text>
</a>
</g>
</g>
<!-- Node0&#45;&gt;Node3 -->
<g id="edge3" class="edge"><title>Node0&#45;&gt;Node3</title>
<path fill="none" stroke="midnightblue" d="M348.517,-168.444C313.28,-159.162 256.896,-144.309 218.241,-134.127"/>
<polygon fill="midnightblue" stroke="midnightblue" points="218.893,-130.679 208.331,-131.516 217.109,-137.448 218.893,-130.679"/>
</g>
<!-- Node6 -->
<g id="node7" class="node"><title>Node6</title>
<g id="a_node7"><a xlink:href="vk_assert_8hpp.html" target="_top" xlink:title="vkAssert.hpp">
<polygon fill="white" stroke="black" points="292.5,-112.5 292.5,-131.5 365.5,-131.5 365.5,-112.5 292.5,-112.5"/>
<text text-anchor="middle" x="329" y="-119.5" font-family="Helvetica,sans-Serif" font-size="10.00">vkAssert.hpp</text>
</a>
</g>
</g>
<!-- Node0&#45;&gt;Node6 -->
<g id="edge7" class="edge"><title>Node0&#45;&gt;Node6</title>
<path fill="none" stroke="midnightblue" d="M372.413,-168.083C364.841,-160.22 353.622,-148.569 344.486,-139.081"/>
<polygon fill="midnightblue" stroke="midnightblue" points="346.885,-136.527 337.427,-131.751 341.842,-141.382 346.885,-136.527"/>
</g>
<!-- Node9 -->
<g id="node10" class="node"><title>Node9</title>
<g id="a_node10"><a xlink:href="_create_info_base_8hpp.html" target="_top" xlink:title="CreateInfoBase.hpp">
<polygon fill="white" stroke="black" points="383.5,-112.5 383.5,-131.5 484.5,-131.5 484.5,-112.5 383.5,-112.5"/>
<text text-anchor="middle" x="434" y="-119.5" font-family="Helvetica,sans-Serif" font-size="10.00">CreateInfoBase.hpp</text>
</a>
</g>
</g>
<!-- Node0&#45;&gt;Node9 -->
<g id="edge11" class="edge"><title>Node0&#45;&gt;Node9</title>
<path fill="none" stroke="midnightblue" d="M389.752,-168.083C397.47,-160.22 408.905,-148.569 418.217,-139.081"/>
<polygon fill="midnightblue" stroke="midnightblue" points="420.904,-141.34 425.411,-131.751 415.908,-136.436 420.904,-141.34"/>
</g>
<!-- Node11 -->
<g id="node12" class="node"><title>Node11</title>
<polygon fill="white" stroke="#bfbfbf" points="502.5,-112.5 502.5,-131.5 591.5,-131.5 591.5,-112.5 502.5,-112.5"/>
<text text-anchor="middle" x="547" y="-119.5" font-family="Helvetica,sans-Serif" font-size="10.00">easylogging++.h</text>
</g>
<!-- Node0&#45;&gt;Node11 -->
<g id="edge14" class="edge"><title>Node0&#45;&gt;Node11</title>
<path fill="none" stroke="midnightblue" d="M407.303,-168.444C435.351,-159.32 479.944,-144.813 511.184,-134.651"/>
<polygon fill="midnightblue" stroke="midnightblue" points="512.393,-137.938 520.82,-131.516 510.228,-131.282 512.393,-137.938"/>
</g>
<!-- Node12 -->
<g id="node13" class="node"><title>Node12</title>
<polygon fill="white" stroke="#bfbfbf" points="610,-112.5 610,-131.5 652,-131.5 652,-112.5 610,-112.5"/>
<text text-anchor="middle" x="631" y="-119.5" font-family="Helvetica,sans-Serif" font-size="10.00">vector</text>
</g>
<!-- Node0&#45;&gt;Node12 -->
<g id="edge15" class="edge"><title>Node0&#45;&gt;Node12</title>
<path fill="none" stroke="midnightblue" d="M428.915,-168.482C471.485,-160.626 535.575,-148.098 599.861,-132.117"/>
<polygon fill="midnightblue" stroke="midnightblue" points="600.915,-135.461 609.76,-129.629 599.209,-128.672 600.915,-135.461"/>
</g>
<!-- Node2 -->
<g id="node3" class="node"><title>Node2</title>
<polygon fill="white" stroke="#bfbfbf" points="233,-0.5 233,-19.5 315,-19.5 315,-0.5 233,-0.5"/>
<text text-anchor="middle" x="274" y="-7.5" font-family="Helvetica,sans-Serif" font-size="10.00">vulkan/vulkan.h</text>
</g>
<!-- Node1&#45;&gt;Node2 -->
<g id="edge2" class="edge"><title>Node1&#45;&gt;Node2</title>
<path fill="none" stroke="midnightblue" d="M68.1313,-57.3205C109.486,-48.0157 179.412,-32.2823 226.137,-21.7693"/>
<polygon fill="midnightblue" stroke="midnightblue" points="227.039,-25.1538 236.027,-19.544 225.502,-18.3246 227.039,-25.1538"/>
</g>
<!-- Node3&#45;&gt;Node1 -->
<g id="edge4" class="edge"><title>Node3&#45;&gt;Node1</title>
<path fill="none" stroke="midnightblue" d="M153.5,-112.444C129.923,-103.478 92.6776,-89.314 66.036,-79.1827"/>
<polygon fill="midnightblue" stroke="midnightblue" points="66.9861,-75.7995 56.3951,-75.5164 64.4979,-82.3424 66.9861,-75.7995"/>
</g>
<!-- Node4 -->
<g id="node5" class="node"><title>Node4</title>
<g id="a_node5"><a xlink:href="_forward_decl_8hpp.html" target="_top" xlink:title="ForwardDecl.hpp">
<polygon fill="white" stroke="black" points="86.5,-56.5 86.5,-75.5 175.5,-75.5 175.5,-56.5 86.5,-56.5"/>
<text text-anchor="middle" x="131" y="-63.5" font-family="Helvetica,sans-Serif" font-size="10.00">ForwardDecl.hpp</text>
</a>
</g>
</g>
<!-- Node3&#45;&gt;Node4 -->
<g id="edge5" class="edge"><title>Node3&#45;&gt;Node4</title>
<path fill="none" stroke="midnightblue" d="M168.569,-112.083C162.147,-104.377 152.694,-93.0333 144.878,-83.6531"/>
<polygon fill="midnightblue" stroke="midnightblue" points="147.383,-81.1927 138.293,-75.7511 142.006,-85.674 147.383,-81.1927"/>
</g>
<!-- Node5 -->
<g id="node6" class="node"><title>Node5</title>
<polygon fill="white" stroke="#bfbfbf" points="194,-56.5 194,-75.5 246,-75.5 246,-56.5 194,-56.5"/>
<text text-anchor="middle" x="220" y="-63.5" font-family="Helvetica,sans-Serif" font-size="10.00">memory</text>
</g>
<!-- Node3&#45;&gt;Node5 -->
<g id="edge6" class="edge"><title>Node3&#45;&gt;Node5</title>
<path fill="none" stroke="midnightblue" d="M183.266,-112.083C189.545,-104.377 198.788,-93.0333 206.431,-83.6531"/>
<polygon fill="midnightblue" stroke="midnightblue" points="209.266,-85.7143 212.869,-75.7511 203.839,-81.2926 209.266,-85.7143"/>
</g>
<!-- Node6&#45;&gt;Node2 -->
<g id="edge10" class="edge"><title>Node6&#45;&gt;Node2</title>
<path fill="none" stroke="midnightblue" d="M320.419,-112.431C312.297,-103.879 300.294,-90.0246 293,-76 285.372,-61.3318 280.391,-43.1649 277.451,-29.7692"/>
<polygon fill="midnightblue" stroke="midnightblue" points="280.853,-28.933 275.448,-19.8206 273.99,-30.3147 280.853,-28.933"/>
</g>
<!-- Node7 -->
<g id="node8" class="node"><title>Node7</title>
<polygon fill="white" stroke="#bfbfbf" points="302,-56.5 302,-75.5 356,-75.5 356,-56.5 302,-56.5"/>
<text text-anchor="middle" x="329" y="-63.5" font-family="Helvetica,sans-Serif" font-size="10.00">iostream</text>
</g>
<!-- Node6&#45;&gt;Node7 -->
<g id="edge8" class="edge"><title>Node6&#45;&gt;Node7</title>
<path fill="none" stroke="midnightblue" d="M329,-112.083C329,-105.006 329,-94.8611 329,-85.9865"/>
<polygon fill="midnightblue" stroke="midnightblue" points="332.5,-85.751 329,-75.7511 325.5,-85.7511 332.5,-85.751"/>
</g>
<!-- Node8 -->
<g id="node9" class="node"><title>Node8</title>
<polygon fill="white" stroke="#bfbfbf" points="374.5,-56.5 374.5,-75.5 423.5,-75.5 423.5,-56.5 374.5,-56.5"/>
<text text-anchor="middle" x="399" y="-63.5" font-family="Helvetica,sans-Serif" font-size="10.00">cassert</text>
</g>
<!-- Node6&#45;&gt;Node8 -->
<g id="edge9" class="edge"><title>Node6&#45;&gt;Node8</title>
<path fill="none" stroke="midnightblue" d="M340.247,-112.324C350.797,-104.185 366.801,-91.8395 379.442,-82.0874"/>
<polygon fill="midnightblue" stroke="midnightblue" points="381.769,-84.7132 387.549,-75.8339 377.493,-79.1707 381.769,-84.7132"/>
</g>
<!-- Node9&#45;&gt;Node2 -->
<g id="edge13" class="edge"><title>Node9&#45;&gt;Node2</title>
<path fill="none" stroke="midnightblue" d="M436.81,-112.375C440.634,-98.8414 445.653,-72.4663 433,-56 419.758,-38.7675 366.499,-26.1706 325.227,-18.7583"/>
<polygon fill="midnightblue" stroke="midnightblue" points="325.743,-15.2956 315.292,-17.0308 324.544,-22.1922 325.743,-15.2956"/>
</g>
<!-- Node10 -->
<g id="node11" class="node"><title>Node10</title>
<polygon fill="white" stroke="#bfbfbf" points="480,-56.5 480,-75.5 520,-75.5 520,-56.5 480,-56.5"/>
<text text-anchor="middle" x="500" y="-63.5" font-family="Helvetica,sans-Serif" font-size="10.00">limits</text>
</g>
<!-- Node9&#45;&gt;Node10 -->
<g id="edge12" class="edge"><title>Node9&#45;&gt;Node10</title>
<path fill="none" stroke="midnightblue" d="M444.604,-112.324C454.456,-104.263 469.351,-92.0765 481.215,-82.3695"/>
<polygon fill="midnightblue" stroke="midnightblue" points="483.68,-84.8752 489.203,-75.8339 479.247,-79.4575 483.68,-84.8752"/>
</g>
</g>
</svg>
