<?xml version="1.0" encoding="UTF-8" standalone="no"?>
<!DOCTYPE svg PUBLIC "-//W3C//DTD SVG 1.1//EN"
 "http://www.w3.org/Graphics/SVG/1.1/DTD/svg11.dtd">
<!-- Generated by graphviz version 2.38.0 (20140413.2041)
 -->
<!-- Title: common/CreateInfoBase.hpp Pages: 1 -->
<svg width="160pt" height="84pt"
 viewBox="0.00 0.00 160.00 84.00" xmlns="http://www.w3.org/2000/svg" xmlns:xlink="http://www.w3.org/1999/xlink">
<g id="graph0" class="graph" transform="scale(1 1) rotate(0) translate(4 80)">
<title>common/CreateInfoBase.hpp</title>
<polygon fill="white" stroke="none" points="-4,4 -4,-80 156,-80 156,4 -4,4"/>
<!-- Node0 -->
<g id="node1" class="node"><title>Node0</title>
<polygon fill="#bfbfbf" stroke="black" points="0,-56.5 0,-75.5 142,-75.5 142,-56.5 0,-56.5"/>
<text text-anchor="middle" x="71" y="-63.5" font-family="Helvetica,sans-Serif" font-size="10.00">common/CreateInfoBase.hpp</text>
</g>
<!-- Node1 -->
<g id="node2" class="node"><title>Node1</title>
<polygon fill="white" stroke="#bfbfbf" points="12,-0.5 12,-19.5 52,-19.5 52,-0.5 12,-0.5"/>
<text text-anchor="middle" x="32" y="-7.5" font-family="Helvetica,sans-Serif" font-size="10.00">limits</text>
</g>
<!-- Node0&#45;&gt;Node1 -->
<g id="edge1" class="edge"><title>Node0&#45;&gt;Node1</title>
<path fill="none" stroke="midnightblue" d="M64.5599,-56.083C59.0511,-48.4554 50.9688,-37.2645 44.235,-27.9408"/>
<polygon fill="midnightblue" stroke="midnightblue" points="47.0126,-25.8087 38.3202,-19.7511 41.3378,-29.9071 47.0126,-25.8087"/>
</g>
<!-- Node2 -->
<g id="node3" class="node"><title>Node2</title>
<polygon fill="white" stroke="#bfbfbf" points="70,-0.5 70,-19.5 152,-19.5 152,-0.5 70,-0.5"/>
<text text-anchor="middle" x="111" y="-7.5" font-family="Helvetica,sans-Serif" font-size="10.00">vulkan/vulkan.h</text>
</g>
<!-- Node0&#45;&gt;Node2 -->
<g id="edge2" class="edge"><title>Node0&#45;&gt;Node2</title>
<path fill="none" stroke="midnightblue" d="M77.6052,-56.083C83.2552,-48.4554 91.5448,-37.2645 98.4512,-27.9408"/>
<polygon fill="midnightblue" stroke="midnightblue" points="101.378,-29.87 104.518,-19.7511 95.7529,-25.7034 101.378,-29.87"/>
</g>
</g>
</svg>
