<?xml version="1.0" encoding="UTF-8" standalone="no"?>
<!DOCTYPE svg PUBLIC "-//W3C//DTD SVG 1.1//EN"
 "http://www.w3.org/Graphics/SVG/1.1/DTD/svg11.dtd">
<!-- Generated by graphviz version 2.38.0 (20140413.2041)
 -->
<!-- Title: alloc/src/DebugVisualization.cpp Pages: 1 -->
<!--zoomable 364 -->
<svg id="main" version="1.1" xmlns="http://www.w3.org/2000/svg" xmlns:xlink="http://www.w3.org/1999/xlink" xml:space="preserve" onload="init(evt)">
<style type="text/css"><![CDATA[
.edge:hover path { stroke: red; }
.edge:hover polygon { stroke: red; fill: red; }
]]></style>
<script type="text/javascript"><![CDATA[
var edges = document.getElementsByTagName('g');
if (edges && edges.length) {
  for (var i=0;i<edges.length;i++) {
    if (edges[i].id.substr(0,4)=='edge') {
      edges[i].setAttribute('class','edge');
    }
  }
}
]]></script>
        <defs>
                <circle id="rim" cx="0" cy="0" r="7"/>
                <circle id="rim2" cx="0" cy="0" r="3.5"/>
                <g id="zoomPlus">
                        <use xlink:href="#rim" fill="#404040">
                                <set attributeName="fill" to="#808080" begin="zoomplus.mouseover" end="zoomplus.mouseout"/>
                        </use>
                        <path d="M-4,0h8M0,-4v8" fill="none" stroke="white" stroke-width="1.5" pointer-events="none"/>
                </g>
                <g id="zoomMin">
                        <use xlink:href="#rim" fill="#404040">
                                <set attributeName="fill" to="#808080" begin="zoomminus.mouseover" end="zoomminus.mouseout"/>
                        </use>
                        <path d="M-4,0h8" fill="none" stroke="white" stroke-width="1.5" pointer-events="none"/>
                </g>
                <g id="dirArrow">
                        <path fill="none" stroke="white" stroke-width="1.5" d="M0,-3.0v7 M-2.5,-0.5L0,-3.0L2.5,-0.5"/>
                </g>
               <g id="resetDef">
                       <use xlink:href="#rim2" fill="#404040">
                               <set attributeName="fill" to="#808080" begin="reset.mouseover" end="reset.mouseout"/>
                       </use>
               </g>
        </defs>

<script type="text/javascript">
var viewWidth = 1155;
var viewHeight = 364;
var sectionId = 'dynsection-0';
</script>
<script xlink:href="svgpan.js"/>
<svg id="graph" class="graph">
<g id="viewport">
<title>alloc/src/DebugVisualization.cpp</title>
<polygon fill="white" stroke="none" points="-4,4 -4,-360 1151.29,-360 1151.29,4 -4,4"/>
<!-- Node0 -->
<g id="node1" class="node"><title>Node0</title>
<polygon fill="#bfbfbf" stroke="black" points="713.787,-336.5 713.787,-355.5 871.787,-355.5 871.787,-336.5 713.787,-336.5"/>
<text text-anchor="middle" x="792.787" y="-343.5" font-family="Helvetica,sans-Serif" font-size="10.00">alloc/src/DebugVisualization.cpp</text>
</g>
<!-- Node1 -->
<g id="node2" class="node"><title>Node1</title>
<g id="a_node2"><a xlink:href="_debug_visualization_8hpp.html" target="_top" xlink:title="DebugVisualization.hpp">
<polygon fill="white" stroke="black" points="565.287,-280.5 565.287,-299.5 684.287,-299.5 684.287,-280.5 565.287,-280.5"/>
<text text-anchor="middle" x="624.787" y="-287.5" font-family="Helvetica,sans-Serif" font-size="10.00">DebugVisualization.hpp</text>
</a>
</g>
</g>
<!-- Node0&#45;&gt;Node1 -->
<g id="edge1" class="edge"><title>Node0&#45;&gt;Node1</title>
<path fill="none" stroke="midnightblue" d="M766.167,-336.444C737.781,-327.32 692.651,-312.813 661.034,-302.651"/>
<polygon fill="midnightblue" stroke="midnightblue" points="661.874,-299.244 651.283,-299.516 659.732,-305.909 661.874,-299.244"/>
</g>
<!-- Node2 -->
<g id="node3" class="node"><title>Node2</title>
<g id="a_node3"><a xlink:href="_allocator_impl_8hpp.html" target="_top" xlink:title="AllocatorImpl.hpp">
<polygon fill="white" stroke="black" points="702.787,-280.5 702.787,-299.5 794.787,-299.5 794.787,-280.5 702.787,-280.5"/>
<text text-anchor="middle" x="748.787" y="-287.5" font-family="Helvetica,sans-Serif" font-size="10.00">AllocatorImpl.hpp</text>
</a>
</g>
</g>
<!-- Node0&#45;&gt;Node2 -->
<g id="edge2" class="edge"><title>Node0&#45;&gt;Node2</title>
<path fill="none" stroke="midnightblue" d="M785.521,-336.083C779.242,-328.377 769.999,-317.033 762.356,-307.653"/>
<polygon fill="midnightblue" stroke="midnightblue" points="764.948,-305.293 755.918,-299.751 759.521,-309.714 764.948,-305.293"/>
</g>
<!-- Node26 -->
<g id="node27" class="node"><title>Node26</title>
<polygon fill="white" stroke="#bfbfbf" points="812.787,-280.5 812.787,-299.5 860.787,-299.5 860.787,-280.5 812.787,-280.5"/>
<text text-anchor="middle" x="836.787" y="-287.5" font-family="Helvetica,sans-Serif" font-size="10.00">imgui.h</text>
</g>
<!-- Node0&#45;&gt;Node26 -->
<g id="edge48" class="edge"><title>Node0&#45;&gt;Node26</title>
<path fill="none" stroke="midnightblue" d="M800.053,-336.083C806.332,-328.377 815.575,-317.033 823.218,-307.653"/>
<polygon fill="midnightblue" stroke="midnightblue" points="826.053,-309.714 829.657,-299.751 820.626,-305.293 826.053,-309.714"/>
</g>
<!-- Node27 -->
<g id="node28" class="node"><title>Node27</title>
<polygon fill="white" stroke="#bfbfbf" points="879.287,-280.5 879.287,-299.5 944.287,-299.5 944.287,-280.5 879.287,-280.5"/>
<text text-anchor="middle" x="911.787" y="-287.5" font-family="Helvetica,sans-Serif" font-size="10.00">forward_list</text>
</g>
<!-- Node0&#45;&gt;Node27 -->
<g id="edge49" class="edge"><title>Node0&#45;&gt;Node27</title>
<path fill="none" stroke="midnightblue" d="M811.643,-336.444C831.053,-327.636 861.517,-313.812 883.752,-303.722"/>
<polygon fill="midnightblue" stroke="midnightblue" points="885.359,-306.836 893.019,-299.516 882.467,-300.462 885.359,-306.836"/>
</g>
<!-- Node3 -->
<g id="node4" class="node"><title>Node3</title>
<g id="a_node4"><a xlink:href="_allocator_8hpp.html" target="_top" xlink:title="Allocator.hpp">
<polygon fill="white" stroke="black" points="109.787,-112.5 109.787,-131.5 183.787,-131.5 183.787,-112.5 109.787,-112.5"/>
<text text-anchor="middle" x="146.787" y="-119.5" font-family="Helvetica,sans-Serif" font-size="10.00">Allocator.hpp</text>
</a>
</g>
</g>
<!-- Node2&#45;&gt;Node3 -->
<g id="edge3" class="edge"><title>Node2&#45;&gt;Node3</title>
<path fill="none" stroke="midnightblue" d="M702.677,-281.345C699.333,-280.865 696.01,-280.411 692.787,-280 524.065,-258.494 476.954,-284.616 311.787,-244 247.911,-228.292 221.733,-234.076 174.787,-188 161.929,-175.38 154.615,-155.894 150.712,-141.546"/>
<polygon fill="midnightblue" stroke="midnightblue" points="154.102,-140.676 148.357,-131.775 147.297,-142.316 154.102,-140.676"/>
</g>
<!-- Node5 -->
<g id="node6" class="node"><title>Node5</title>
<polygon fill="white" stroke="#bfbfbf" points="798.787,-0.5 798.787,-19.5 880.787,-19.5 880.787,-0.5 798.787,-0.5"/>
<text text-anchor="middle" x="839.787" y="-7.5" font-family="Helvetica,sans-Serif" font-size="10.00">vulkan/vulkan.h</text>
</g>
<!-- Node2&#45;&gt;Node5 -->
<g id="edge44" class="edge"><title>Node2&#45;&gt;Node5</title>
<path fill="none" stroke="midnightblue" d="M758.823,-280.333C768.462,-271.708 783.099,-257.802 793.787,-244 829.164,-198.319 837,-185.095 859.787,-132 873.401,-100.28 887.213,-88.5724 875.787,-56 872.002,-45.2094 864.421,-35.084 857.187,-27.1808"/>
<polygon fill="midnightblue" stroke="midnightblue" points="859.454,-24.4943 849.949,-19.8145 854.461,-29.4005 859.454,-24.4943"/>
</g>
<!-- Node8 -->
<g id="node9" class="node"><title>Node8</title>
<g id="a_node9"><a xlink:href="_alloc_common_8hpp.html" target="_top" xlink:title="AllocCommon.hpp">
<polygon fill="white" stroke="black" points="637.787,-112.5 637.787,-131.5 733.787,-131.5 733.787,-112.5 637.787,-112.5"/>
<text text-anchor="middle" x="685.787" y="-119.5" font-family="Helvetica,sans-Serif" font-size="10.00">AllocCommon.hpp</text>
</a>
</g>
</g>
<!-- Node2&#45;&gt;Node8 -->
<g id="edge8" class="edge"><title>Node2&#45;&gt;Node8</title>
<path fill="none" stroke="midnightblue" d="M751.683,-280.438C758.154,-259.701 771.719,-205.714 751.787,-168 744.363,-153.953 730.366,-143.467 717.166,-136.167"/>
<polygon fill="midnightblue" stroke="midnightblue" points="718.744,-133.043 708.246,-131.618 715.564,-139.279 718.744,-133.043"/>
</g>
<!-- Node12 -->
<g id="node13" class="node"><title>Node12</title>
<g id="a_node13"><a xlink:href="_allocation_collection_8hpp.html" target="_top" xlink:title="AllocationCollection.hpp">
<polygon fill="white" stroke="black" points="184.287,-168.5 184.287,-187.5 305.287,-187.5 305.287,-168.5 184.287,-168.5"/>
<text text-anchor="middle" x="244.787" y="-175.5" font-family="Helvetica,sans-Serif" font-size="10.00">AllocationCollection.hpp</text>
</a>
</g>
</g>
<!-- Node2&#45;&gt;Node12 -->
<g id="edge14" class="edge"><title>Node2&#45;&gt;Node12</title>
<path fill="none" stroke="midnightblue" d="M702.67,-281.393C699.329,-280.901 696.008,-280.432 692.787,-280 544.367,-260.112 500.187,-290.326 357.787,-244 322.384,-232.482 285.821,-208.928 264.207,-193.561"/>
<polygon fill="midnightblue" stroke="midnightblue" points="266.055,-190.578 255.906,-187.536 261.943,-196.243 266.055,-190.578"/>
</g>
<!-- Node13 -->
<g id="node14" class="node"><title>Node13</title>
<polygon fill="white" stroke="#bfbfbf" points="339.787,-112.5 339.787,-131.5 381.787,-131.5 381.787,-112.5 339.787,-112.5"/>
<text text-anchor="middle" x="360.787" y="-119.5" font-family="Helvetica,sans-Serif" font-size="10.00">vector</text>
</g>
<!-- Node2&#45;&gt;Node13 -->
<g id="edge47" class="edge"><title>Node2&#45;&gt;Node13</title>
<path fill="none" stroke="midnightblue" d="M702.644,-281.574C699.308,-281.04 695.996,-280.511 692.787,-280 591.476,-263.861 555.556,-291.806 464.787,-244 419.603,-220.203 385.561,-167.928 370.047,-140.533"/>
<polygon fill="midnightblue" stroke="midnightblue" points="373.061,-138.75 365.183,-131.665 366.923,-142.116 373.061,-138.75"/>
</g>
<!-- Node15 -->
<g id="node16" class="node"><title>Node15</title>
<g id="a_node16"><a xlink:href="_allocation_8hpp.html" target="_top" xlink:title="Allocation.hpp">
<polygon fill="white" stroke="black" points="13.7871,-112.5 13.7871,-131.5 91.7871,-131.5 91.7871,-112.5 13.7871,-112.5"/>
<text text-anchor="middle" x="52.7871" y="-119.5" font-family="Helvetica,sans-Serif" font-size="10.00">Allocation.hpp</text>
</a>
</g>
</g>
<!-- Node2&#45;&gt;Node15 -->
<g id="edge20" class="edge"><title>Node2&#45;&gt;Node15</title>
<path fill="none" stroke="midnightblue" d="M702.685,-281.281C699.339,-280.816 696.014,-280.383 692.787,-280 589.206,-267.714 322.951,-279.268 224.787,-244 160.053,-220.742 97.4422,-166.182 68.8907,-138.99"/>
<polygon fill="midnightblue" stroke="midnightblue" points="71.0798,-136.237 61.4619,-131.793 66.2094,-141.265 71.0798,-136.237"/>
</g>
<!-- Node16 -->
<g id="node17" class="node"><title>Node16</title>
<g id="a_node17"><a xlink:href="_allocation_requirements_8hpp.html" target="_top" xlink:title="AllocationRequirements.hpp">
<polygon fill="white" stroke="black" points="587.787,-168.5 587.787,-187.5 725.787,-187.5 725.787,-168.5 587.787,-168.5"/>
<text text-anchor="middle" x="656.787" y="-175.5" font-family="Helvetica,sans-Serif" font-size="10.00">AllocationRequirements.hpp</text>
</a>
</g>
</g>
<!-- Node2&#45;&gt;Node16 -->
<g id="edge24" class="edge"><title>Node2&#45;&gt;Node16</title>
<path fill="none" stroke="midnightblue" d="M741.568,-280.368C726.251,-262.055 690.283,-219.049 670.472,-195.362"/>
<polygon fill="midnightblue" stroke="midnightblue" points="673.073,-193.017 663.973,-187.591 667.703,-197.508 673.073,-193.017"/>
</g>
<!-- Node17 -->
<g id="node18" class="node"><title>Node17</title>
<g id="a_node18"><a xlink:href="_memory_block_8hpp.html" target="_top" xlink:title="MemoryBlock.hpp">
<polygon fill="white" stroke="black" points="474.287,-224.5 474.287,-243.5 569.287,-243.5 569.287,-224.5 474.287,-224.5"/>
<text text-anchor="middle" x="521.787" y="-231.5" font-family="Helvetica,sans-Serif" font-size="10.00">MemoryBlock.hpp</text>
</a>
</g>
</g>
<!-- Node2&#45;&gt;Node17 -->
<g id="edge26" class="edge"><title>Node2&#45;&gt;Node17</title>
<path fill="none" stroke="midnightblue" d="M712.818,-280.444C673.468,-271.083 610.3,-256.056 567.473,-245.868"/>
<polygon fill="midnightblue" stroke="midnightblue" points="568.126,-242.426 557.588,-243.516 566.506,-249.236 568.126,-242.426"/>
</g>
<!-- Node20 -->
<g id="node21" class="node"><title>Node20</title>
<g id="a_node21"><a xlink:href="vk_assert_8hpp.html" target="_top" xlink:title="vkAssert.hpp">
<polygon fill="white" stroke="black" points="778.287,-112.5 778.287,-131.5 851.287,-131.5 851.287,-112.5 778.287,-112.5"/>
<text text-anchor="middle" x="814.787" y="-119.5" font-family="Helvetica,sans-Serif" font-size="10.00">vkAssert.hpp</text>
</a>
</g>
</g>
<!-- Node2&#45;&gt;Node20 -->
<g id="edge37" class="edge"><title>Node2&#45;&gt;Node20</title>
<path fill="none" stroke="midnightblue" d="M754.788,-280.362C760.721,-271.534 769.762,-257.274 775.787,-244 791.617,-209.127 803.905,-165.938 810.18,-141.728"/>
<polygon fill="midnightblue" stroke="midnightblue" points="813.642,-142.314 812.699,-131.762 806.855,-140.599 813.642,-142.314"/>
</g>
<!-- Node22 -->
<g id="node23" class="node"><title>Node22</title>
<g id="a_node23"><a xlink:href="_create_info_base_8hpp.html" target="_top" xlink:title="CreateInfoBase.hpp">
<polygon fill="white" stroke="black" points="896.287,-224.5 896.287,-243.5 997.287,-243.5 997.287,-224.5 896.287,-224.5"/>
<text text-anchor="middle" x="946.787" y="-231.5" font-family="Helvetica,sans-Serif" font-size="10.00">CreateInfoBase.hpp</text>
</a>
</g>
</g>
<!-- Node2&#45;&gt;Node22 -->
<g id="edge41" class="edge"><title>Node2&#45;&gt;Node22</title>
<path fill="none" stroke="midnightblue" d="M780.161,-280.444C814.05,-271.201 868.19,-256.436 905.511,-246.257"/>
<polygon fill="midnightblue" stroke="midnightblue" points="906.833,-249.524 915.56,-243.516 904.992,-242.771 906.833,-249.524"/>
</g>
<!-- Node24 -->
<g id="node25" class="node"><title>Node24</title>
<polygon fill="white" stroke="#bfbfbf" points="1015.79,-224.5 1015.79,-243.5 1093.79,-243.5 1093.79,-224.5 1015.79,-224.5"/>
<text text-anchor="middle" x="1054.79" y="-231.5" font-family="Helvetica,sans-Serif" font-size="10.00">unordered_set</text>
</g>
<!-- Node2&#45;&gt;Node24 -->
<g id="edge45" class="edge"><title>Node2&#45;&gt;Node24</title>
<path fill="none" stroke="midnightblue" d="M794.958,-281.128C844.486,-272.644 925.732,-258.61 1005.53,-244.209"/>
<polygon fill="midnightblue" stroke="midnightblue" points="1006.54,-247.583 1015.76,-242.36 1005.3,-240.695 1006.54,-247.583"/>
</g>
<!-- Node25 -->
<g id="node26" class="node"><title>Node25</title>
<polygon fill="white" stroke="#bfbfbf" points="1112.29,-224.5 1112.29,-243.5 1147.29,-243.5 1147.29,-224.5 1112.29,-224.5"/>
<text text-anchor="middle" x="1129.79" y="-231.5" font-family="Helvetica,sans-Serif" font-size="10.00">map</text>
</g>
<!-- Node2&#45;&gt;Node25 -->
<g id="edge46" class="edge"><title>Node2&#45;&gt;Node25</title>
<path fill="none" stroke="midnightblue" d="M794.979,-281.296C797.958,-280.844 800.913,-280.408 803.787,-280 933.072,-261.648 970.378,-272.739 1102.14,-243.683"/>
<polygon fill="midnightblue" stroke="midnightblue" points="1103.22,-247.028 1112.21,-241.425 1101.69,-240.197 1103.22,-247.028"/>
</g>
<!-- Node4 -->
<g id="node5" class="node"><title>Node4</title>
<g id="a_node5"><a xlink:href="vpr__stdafx_8h.html" target="_top" xlink:title="vpr_stdafx.h">
<polygon fill="white" stroke="black" points="485.787,-56.5 485.787,-75.5 553.787,-75.5 553.787,-56.5 485.787,-56.5"/>
<text text-anchor="middle" x="519.787" y="-63.5" font-family="Helvetica,sans-Serif" font-size="10.00">vpr_stdafx.h</text>
</a>
</g>
</g>
<!-- Node3&#45;&gt;Node4 -->
<g id="edge4" class="edge"><title>Node3&#45;&gt;Node4</title>
<path fill="none" stroke="midnightblue" d="M183.915,-115.625C253.08,-105.612 401.344,-84.1473 475.561,-73.4027"/>
<polygon fill="midnightblue" stroke="midnightblue" points="476.13,-76.8568 485.526,-71.9601 475.127,-69.9291 476.13,-76.8568"/>
</g>
<!-- Node6 -->
<g id="node7" class="node"><title>Node6</title>
<g id="a_node7"><a xlink:href="_forward_decl_8hpp.html" target="_top" xlink:title="ForwardDecl.hpp">
<polygon fill="white" stroke="black" points="266.287,-56.5 266.287,-75.5 355.287,-75.5 355.287,-56.5 266.287,-56.5"/>
<text text-anchor="middle" x="310.787" y="-63.5" font-family="Helvetica,sans-Serif" font-size="10.00">ForwardDecl.hpp</text>
</a>
</g>
</g>
<!-- Node3&#45;&gt;Node6 -->
<g id="edge6" class="edge"><title>Node3&#45;&gt;Node6</title>
<path fill="none" stroke="midnightblue" d="M172.773,-112.444C200.483,-103.32 244.539,-88.8133 275.403,-78.6509"/>
<polygon fill="midnightblue" stroke="midnightblue" points="276.519,-81.9684 284.922,-75.5164 274.329,-75.3196 276.519,-81.9684"/>
</g>
<!-- Node7 -->
<g id="node8" class="node"><title>Node7</title>
<polygon fill="white" stroke="#bfbfbf" points="26.7871,-56.5 26.7871,-75.5 78.7871,-75.5 78.7871,-56.5 26.7871,-56.5"/>
<text text-anchor="middle" x="52.7871" y="-63.5" font-family="Helvetica,sans-Serif" font-size="10.00">memory</text>
</g>
<!-- Node3&#45;&gt;Node7 -->
<g id="edge7" class="edge"><title>Node3&#45;&gt;Node7</title>
<path fill="none" stroke="midnightblue" d="M131.684,-112.324C116.884,-103.822 94.0928,-90.7288 76.8049,-80.7975"/>
<polygon fill="midnightblue" stroke="midnightblue" points="78.2668,-77.6009 67.8523,-75.6545 74.7799,-83.6707 78.2668,-77.6009"/>
</g>
<!-- Node4&#45;&gt;Node5 -->
<g id="edge5" class="edge"><title>Node4&#45;&gt;Node5</title>
<path fill="none" stroke="midnightblue" d="M554.027,-57.6877C556.987,-57.0999 559.938,-56.5294 562.787,-56 641.251,-41.4229 732.713,-27.0764 788.414,-18.6336"/>
<polygon fill="midnightblue" stroke="midnightblue" points="789.023,-22.0815 798.388,-17.1271 787.977,-15.1601 789.023,-22.0815"/>
</g>
<!-- Node8&#45;&gt;Node4 -->
<g id="edge9" class="edge"><title>Node8&#45;&gt;Node4</title>
<path fill="none" stroke="midnightblue" d="M659.484,-112.444C631.436,-103.32 586.843,-88.8133 555.603,-78.6509"/>
<polygon fill="midnightblue" stroke="midnightblue" points="556.559,-75.2816 545.967,-75.5164 554.394,-81.9383 556.559,-75.2816"/>
</g>
<!-- Node8&#45;&gt;Node6 -->
<g id="edge10" class="edge"><title>Node8&#45;&gt;Node6</title>
<path fill="none" stroke="midnightblue" d="M637.53,-114.051C567.626,-103.985 438.567,-85.4003 365.31,-74.8513"/>
<polygon fill="midnightblue" stroke="midnightblue" points="365.752,-71.3789 355.355,-73.4178 364.754,-78.3075 365.752,-71.3789"/>
</g>
<!-- Node9 -->
<g id="node10" class="node"><title>Node9</title>
<polygon fill="white" stroke="#bfbfbf" points="571.787,-56.5 571.787,-75.5 611.787,-75.5 611.787,-56.5 571.787,-56.5"/>
<text text-anchor="middle" x="591.787" y="-63.5" font-family="Helvetica,sans-Serif" font-size="10.00">utility</text>
</g>
<!-- Node8&#45;&gt;Node9 -->
<g id="edge11" class="edge"><title>Node8&#45;&gt;Node9</title>
<path fill="none" stroke="midnightblue" d="M670.684,-112.324C655.884,-103.822 633.093,-90.7288 615.805,-80.7975"/>
<polygon fill="midnightblue" stroke="midnightblue" points="617.267,-77.6009 606.852,-75.6545 613.78,-83.6707 617.267,-77.6009"/>
</g>
<!-- Node10 -->
<g id="node11" class="node"><title>Node10</title>
<polygon fill="white" stroke="#bfbfbf" points="630.287,-56.5 630.287,-75.5 689.287,-75.5 689.287,-56.5 630.287,-56.5"/>
<text text-anchor="middle" x="659.787" y="-63.5" font-family="Helvetica,sans-Serif" font-size="10.00">stdexcept</text>
</g>
<!-- Node8&#45;&gt;Node10 -->
<g id="edge12" class="edge"><title>Node8&#45;&gt;Node10</title>
<path fill="none" stroke="midnightblue" d="M681.494,-112.083C677.935,-104.691 672.765,-93.9533 668.363,-84.8111"/>
<polygon fill="midnightblue" stroke="midnightblue" points="671.492,-83.2427 664.001,-75.7511 665.185,-86.2795 671.492,-83.2427"/>
</g>
<!-- Node11 -->
<g id="node12" class="node"><title>Node11</title>
<polygon fill="white" stroke="#bfbfbf" points="707.287,-56.5 707.287,-75.5 756.287,-75.5 756.287,-56.5 707.287,-56.5"/>
<text text-anchor="middle" x="731.787" y="-63.5" font-family="Helvetica,sans-Serif" font-size="10.00">cassert</text>
</g>
<!-- Node8&#45;&gt;Node11 -->
<g id="edge13" class="edge"><title>Node8&#45;&gt;Node11</title>
<path fill="none" stroke="midnightblue" d="M693.383,-112.083C700.015,-104.298 709.808,-92.8015 717.845,-83.3665"/>
<polygon fill="midnightblue" stroke="midnightblue" points="720.512,-85.6332 724.332,-75.7511 715.183,-81.0939 720.512,-85.6332"/>
</g>
<!-- Node12&#45;&gt;Node4 -->
<g id="edge15" class="edge"><title>Node12&#45;&gt;Node4</title>
<path fill="none" stroke="midnightblue" d="M245.342,-168.301C246.737,-154.17 251.634,-126.367 268.787,-112 299.489,-86.2839 412.167,-74.4402 475.612,-69.7054"/>
<polygon fill="midnightblue" stroke="midnightblue" points="476.004,-73.1863 485.728,-68.9795 475.503,-66.2043 476.004,-73.1863"/>
</g>
<!-- Node12&#45;&gt;Node6 -->
<g id="edge16" class="edge"><title>Node12&#45;&gt;Node6</title>
<path fill="none" stroke="midnightblue" d="M240.405,-168.369C234.43,-155.284 225.571,-130.043 235.787,-112 244.134,-97.2584 259.449,-86.8192 274.074,-79.7321"/>
<polygon fill="midnightblue" stroke="midnightblue" points="275.784,-82.8025 283.505,-75.5474 272.945,-76.4041 275.784,-82.8025"/>
</g>
<!-- Node12&#45;&gt;Node7 -->
<g id="edge18" class="edge"><title>Node12&#45;&gt;Node7</title>
<path fill="none" stroke="midnightblue" d="M184.124,-174.206C120.65,-169.86 27.1566,-158.954 4.78706,-132 -9.07122,-115.302 11.3437,-95.0508 29.6727,-81.6373"/>
<polygon fill="midnightblue" stroke="midnightblue" points="32.1054,-84.2108 38.3437,-75.6473 28.1267,-78.4514 32.1054,-84.2108"/>
</g>
<!-- Node12&#45;&gt;Node13 -->
<g id="edge17" class="edge"><title>Node12&#45;&gt;Node13</title>
<path fill="none" stroke="midnightblue" d="M263.168,-168.444C282.004,-159.675 311.518,-145.935 333.166,-135.858"/>
<polygon fill="midnightblue" stroke="midnightblue" points="334.904,-138.91 342.493,-131.516 331.95,-132.564 334.904,-138.91"/>
</g>
<!-- Node14 -->
<g id="node15" class="node"><title>Node14</title>
<polygon fill="white" stroke="#bfbfbf" points="277.787,-112.5 277.787,-131.5 321.787,-131.5 321.787,-112.5 277.787,-112.5"/>
<text text-anchor="middle" x="299.787" y="-119.5" font-family="Helvetica,sans-Serif" font-size="10.00">mutex</text>
</g>
<!-- Node12&#45;&gt;Node14 -->
<g id="edge19" class="edge"><title>Node12&#45;&gt;Node14</title>
<path fill="none" stroke="midnightblue" d="M253.869,-168.083C261.958,-160.141 273.982,-148.335 283.697,-138.797"/>
<polygon fill="midnightblue" stroke="midnightblue" points="286.19,-141.254 290.874,-131.751 281.286,-136.26 286.19,-141.254"/>
</g>
<!-- Node15&#45;&gt;Node4 -->
<g id="edge21" class="edge"><title>Node15&#45;&gt;Node4</title>
<path fill="none" stroke="midnightblue" d="M92.0378,-113.381C94.994,-112.887 97.9351,-112.42 100.787,-112 236.8,-91.9765 398.895,-77.1027 475.498,-70.6072"/>
<polygon fill="midnightblue" stroke="midnightblue" points="476.057,-74.0726 485.728,-69.7466 475.47,-67.0973 476.057,-74.0726"/>
</g>
<!-- Node15&#45;&gt;Node6 -->
<g id="edge22" class="edge"><title>Node15&#45;&gt;Node6</title>
<path fill="none" stroke="midnightblue" d="M91.9717,-112.799C136.943,-103.386 210.825,-87.9223 260.13,-77.6026"/>
<polygon fill="midnightblue" stroke="midnightblue" points="260.882,-81.0212 269.953,-75.5467 259.448,-74.1696 260.882,-81.0212"/>
</g>
<!-- Node15&#45;&gt;Node7 -->
<g id="edge23" class="edge"><title>Node15&#45;&gt;Node7</title>
<path fill="none" stroke="midnightblue" d="M52.7871,-112.083C52.7871,-105.006 52.7871,-94.8611 52.7871,-85.9865"/>
<polygon fill="midnightblue" stroke="midnightblue" points="56.2872,-85.751 52.7871,-75.7511 49.2872,-85.7511 56.2872,-85.751"/>
</g>
<!-- Node16&#45;&gt;Node4 -->
<g id="edge25" class="edge"><title>Node16&#45;&gt;Node4</title>
<path fill="none" stroke="midnightblue" d="M647.965,-168.153C634.89,-155.224 609.368,-130.677 585.787,-112 571.878,-100.983 555.386,-89.7382 542.367,-81.2448"/>
<polygon fill="midnightblue" stroke="midnightblue" points="543.89,-78.0626 533.588,-75.5893 540.099,-83.9472 543.89,-78.0626"/>
</g>
<!-- Node17&#45;&gt;Node4 -->
<g id="edge27" class="edge"><title>Node17&#45;&gt;Node4</title>
<path fill="none" stroke="midnightblue" d="M526.663,-224.372C531.346,-215.552 538.095,-201.299 540.787,-188 548.161,-151.576 535.758,-108.657 527.091,-84.9745"/>
<polygon fill="midnightblue" stroke="midnightblue" points="530.317,-83.6124 523.456,-75.5392 523.785,-86.1289 530.317,-83.6124"/>
</g>
<!-- Node17&#45;&gt;Node6 -->
<g id="edge28" class="edge"><title>Node17&#45;&gt;Node6</title>
<path fill="none" stroke="midnightblue" d="M492.385,-224.369C472.424,-217.276 446.531,-205.515 428.787,-188 401.911,-161.47 416.832,-139.346 390.787,-112 377.59,-98.1439 359.173,-87.3858 343.335,-79.8679"/>
<polygon fill="midnightblue" stroke="midnightblue" points="344.432,-76.5235 333.877,-75.607 341.557,-82.9057 344.432,-76.5235"/>
</g>
<!-- Node17&#45;&gt;Node8 -->
<g id="edge29" class="edge"><title>Node17&#45;&gt;Node8</title>
<path fill="none" stroke="midnightblue" d="M569.415,-229.757C625.719,-224.815 714.376,-213.174 734.787,-188 748.617,-170.943 727.604,-150.644 708.951,-137.324"/>
<polygon fill="midnightblue" stroke="midnightblue" points="710.661,-134.255 700.415,-131.561 706.744,-140.057 710.661,-134.255"/>
</g>
<!-- Node17&#45;&gt;Node14 -->
<g id="edge36" class="edge"><title>Node17&#45;&gt;Node14</title>
<path fill="none" stroke="midnightblue" d="M491.115,-224.424C465.035,-216.579 426.969,-203.804 395.787,-188 367.269,-173.546 337.181,-152.004 318.451,-137.735"/>
<polygon fill="midnightblue" stroke="midnightblue" points="320.511,-134.904 310.458,-131.559 316.231,-140.443 320.511,-134.904"/>
</g>
<!-- Node18 -->
<g id="node19" class="node"><title>Node18</title>
<g id="a_node19"><a xlink:href="_suballocation_8hpp.html" target="_top" xlink:title="Suballocation.hpp">
<polygon fill="white" stroke="black" points="437.787,-168.5 437.787,-187.5 531.787,-187.5 531.787,-168.5 437.787,-168.5"/>
<text text-anchor="middle" x="484.787" y="-175.5" font-family="Helvetica,sans-Serif" font-size="10.00">Suballocation.hpp</text>
</a>
</g>
</g>
<!-- Node17&#45;&gt;Node18 -->
<g id="edge30" class="edge"><title>Node17&#45;&gt;Node18</title>
<path fill="none" stroke="midnightblue" d="M515.677,-224.083C510.505,-216.534 502.941,-205.495 496.593,-196.23"/>
<polygon fill="midnightblue" stroke="midnightblue" points="499.323,-194.022 490.783,-187.751 493.548,-197.979 499.323,-194.022"/>
</g>
<!-- Node18&#45;&gt;Node4 -->
<g id="edge31" class="edge"><title>Node18&#45;&gt;Node4</title>
<path fill="none" stroke="midnightblue" d="M492.177,-168.368C499.073,-159.77 508.997,-145.882 513.787,-132 518.933,-117.086 520.257,-99.1695 520.393,-85.9273"/>
<polygon fill="midnightblue" stroke="midnightblue" points="523.89,-85.6448 520.274,-75.6863 516.891,-85.7264 523.89,-85.6448"/>
</g>
<!-- Node18&#45;&gt;Node6 -->
<g id="edge32" class="edge"><title>Node18&#45;&gt;Node6</title>
<path fill="none" stroke="midnightblue" d="M478.61,-168.272C468.537,-154.598 447.32,-128.033 423.787,-112 402.049,-97.1899 374.711,-86.1381 352.37,-78.6936"/>
<polygon fill="midnightblue" stroke="midnightblue" points="353.405,-75.3502 342.814,-75.6252 351.265,-82.015 353.405,-75.3502"/>
</g>
<!-- Node18&#45;&gt;Node8 -->
<g id="edge33" class="edge"><title>Node18&#45;&gt;Node8</title>
<path fill="none" stroke="midnightblue" d="M516.636,-168.444C551.185,-159.162 606.469,-144.309 644.37,-134.127"/>
<polygon fill="midnightblue" stroke="midnightblue" points="645.338,-137.491 654.087,-131.516 643.521,-130.731 645.338,-137.491"/>
</g>
<!-- Node18&#45;&gt;Node13 -->
<g id="edge35" class="edge"><title>Node18&#45;&gt;Node13</title>
<path fill="none" stroke="midnightblue" d="M465.139,-168.444C444.823,-159.596 412.884,-145.687 389.689,-135.586"/>
<polygon fill="midnightblue" stroke="midnightblue" points="390.909,-132.3 380.343,-131.516 388.114,-138.718 390.909,-132.3"/>
</g>
<!-- Node19 -->
<g id="node20" class="node"><title>Node19</title>
<polygon fill="white" stroke="#bfbfbf" points="476.287,-112.5 476.287,-131.5 505.287,-131.5 505.287,-112.5 476.287,-112.5"/>
<text text-anchor="middle" x="490.787" y="-119.5" font-family="Helvetica,sans-Serif" font-size="10.00">list</text>
</g>
<!-- Node18&#45;&gt;Node19 -->
<g id="edge34" class="edge"><title>Node18&#45;&gt;Node19</title>
<path fill="none" stroke="midnightblue" d="M485.778,-168.083C486.573,-160.927 487.716,-150.635 488.71,-141.691"/>
<polygon fill="midnightblue" stroke="midnightblue" points="492.189,-142.076 489.815,-131.751 485.232,-141.303 492.189,-142.076"/>
</g>
<!-- Node20&#45;&gt;Node5 -->
<g id="edge40" class="edge"><title>Node20&#45;&gt;Node5</title>
<path fill="none" stroke="midnightblue" d="M810.651,-112.355C805.176,-99.6775 796.968,-75.44 803.787,-56 807.572,-45.2094 815.154,-35.084 822.387,-27.1808"/>
<polygon fill="midnightblue" stroke="midnightblue" points="825.113,-29.4005 829.625,-19.8145 820.12,-24.4943 825.113,-29.4005"/>
</g>
<!-- Node20&#45;&gt;Node11 -->
<g id="edge39" class="edge"><title>Node20&#45;&gt;Node11</title>
<path fill="none" stroke="midnightblue" d="M801.452,-112.324C788.625,-103.979 769.002,-91.2122 753.847,-81.3524"/>
<polygon fill="midnightblue" stroke="midnightblue" points="755.38,-78.1742 745.089,-75.6545 751.563,-84.0417 755.38,-78.1742"/>
</g>
<!-- Node21 -->
<g id="node22" class="node"><title>Node21</title>
<polygon fill="white" stroke="#bfbfbf" points="812.787,-56.5 812.787,-75.5 866.787,-75.5 866.787,-56.5 812.787,-56.5"/>
<text text-anchor="middle" x="839.787" y="-63.5" font-family="Helvetica,sans-Serif" font-size="10.00">iostream</text>
</g>
<!-- Node20&#45;&gt;Node21 -->
<g id="edge38" class="edge"><title>Node20&#45;&gt;Node21</title>
<path fill="none" stroke="midnightblue" d="M818.915,-112.083C822.301,-104.77 827.203,-94.1814 831.406,-85.1034"/>
<polygon fill="midnightblue" stroke="midnightblue" points="834.71,-86.2962 835.736,-75.7511 828.358,-83.3553 834.71,-86.2962"/>
</g>
<!-- Node22&#45;&gt;Node5 -->
<g id="edge43" class="edge"><title>Node22&#45;&gt;Node5</title>
<path fill="none" stroke="midnightblue" d="M947.369,-224.2C948.739,-196.41 949.405,-109.215 908.787,-56 898.494,-42.5142 882.924,-31.8641 869.178,-24.3173"/>
<polygon fill="midnightblue" stroke="midnightblue" points="870.531,-21.0765 860.041,-19.5917 867.315,-27.2943 870.531,-21.0765"/>
</g>
<!-- Node23 -->
<g id="node24" class="node"><title>Node23</title>
<polygon fill="white" stroke="#bfbfbf" points="895.787,-168.5 895.787,-187.5 935.787,-187.5 935.787,-168.5 895.787,-168.5"/>
<text text-anchor="middle" x="915.787" y="-175.5" font-family="Helvetica,sans-Serif" font-size="10.00">limits</text>
</g>
<!-- Node22&#45;&gt;Node23 -->
<g id="edge42" class="edge"><title>Node22&#45;&gt;Node23</title>
<path fill="none" stroke="midnightblue" d="M941.668,-224.083C937.38,-216.613 931.129,-205.724 925.845,-196.52"/>
<polygon fill="midnightblue" stroke="midnightblue" points="928.825,-194.681 920.811,-187.751 922.754,-198.166 928.825,-194.681"/>
</g>
</g>
</svg>
        <g id="navigator" transform="translate(0 0)" fill="#404254">
                <rect fill="#f2f5e9" fill-opacity="0.5" stroke="#606060" stroke-width=".5" x="0" y="0" width="60" height="60"/>
                <use id="zoomplus" xlink:href="#zoomPlus" x="17" y="9" onmousedown="handleZoom(evt,'in')"/>
                <use id="zoomminus" xlink:href="#zoomMin" x="42" y="9" onmousedown="handleZoom(evt,'out')"/>
                <use id="reset" xlink:href="#resetDef" x="30" y="36" onmousedown="handleReset()"/>
                <g id="arrowUp" xlink:href="#dirArrow" transform="translate(30 24)" onmousedown="handlePan(0,-1)">
                  <use xlink:href="#rim" fill="#404040">
                        <set attributeName="fill" to="#808080" begin="arrowUp.mouseover" end="arrowUp.mouseout"/>
                  </use>
                  <path fill="none" stroke="white" stroke-width="1.5" d="M0,-3.0v7 M-2.5,-0.5L0,-3.0L2.5,-0.5"/>
                </g>
                <g id="arrowRight" xlink:href="#dirArrow" transform="rotate(90) translate(36 -43)" onmousedown="handlePan(1,0)">
                  <use xlink:href="#rim" fill="#404040">
                        <set attributeName="fill" to="#808080" begin="arrowRight.mouseover" end="arrowRight.mouseout"/>
                  </use>
                  <path fill="none" stroke="white" stroke-width="1.5" d="M0,-3.0v7 M-2.5,-0.5L0,-3.0L2.5,-0.5"/>
                </g>
                <g id="arrowDown" xlink:href="#dirArrow" transform="rotate(180) translate(-30 -48)" onmousedown="handlePan(0,1)">
                  <use xlink:href="#rim" fill="#404040">
                        <set attributeName="fill" to="#808080" begin="arrowDown.mouseover" end="arrowDown.mouseout"/>
                  </use>
                  <path fill="none" stroke="white" stroke-width="1.5" d="M0,-3.0v7 M-2.5,-0.5L0,-3.0L2.5,-0.5"/>
                </g>
                <g id="arrowLeft" xlink:href="#dirArrow" transform="rotate(270) translate(-36 17)" onmousedown="handlePan(-1,0)">
                  <use xlink:href="#rim" fill="#404040">
                        <set attributeName="fill" to="#808080" begin="arrowLeft.mouseover" end="arrowLeft.mouseout"/>
                  </use>
                  <path fill="none" stroke="white" stroke-width="1.5" d="M0,-3.0v7 M-2.5,-0.5L0,-3.0L2.5,-0.5"/>
                </g>
        </g>
        <svg viewBox="0 0 15 15" width="100%" height="30px" preserveAspectRatio="xMaxYMin meet">
         <g id="arrow_out" transform="scale(0.3 0.3)">
          <a xlink:href="_debug_visualization_8cpp__incl_org.svg" target="_base">
           <rect id="button" ry="5" rx="5" y="6" x="6" height="38" width="38"
                fill="#f2f5e9" fill-opacity="0.5" stroke="#606060" stroke-width="1.0"/>
           <path id="arrow"
             d="M 11.500037,31.436501 C 11.940474,20.09759 22.043105,11.32322 32.158766,21.979434 L 37.068811,17.246167 C 37.068811,17.246167 37.088388,32 37.088388,32 L 22.160133,31.978069 C 22.160133,31.978069 26.997745,27.140456 26.997745,27.140456 C 18.528582,18.264221 13.291696,25.230495 11.500037,31.436501 z"
             style="fill:#404040;"/>
          </a>
         </g>
        </svg>
</svg>
