<?xml version="1.0" encoding="UTF-8" standalone="no"?>
<!DOCTYPE svg PUBLIC "-//W3C//DTD SVG 1.1//EN"
 "http://www.w3.org/Graphics/SVG/1.1/DTD/svg11.dtd">
<!-- Generated by graphviz version 2.38.0 (20140413.2041)
 -->
<!-- Title: src/render/DepthStencil.cpp Pages: 1 -->
<svg width="696pt" height="364pt"
 viewBox="0.00 0.00 695.50 364.00" xmlns="http://www.w3.org/2000/svg" xmlns:xlink="http://www.w3.org/1999/xlink">
<g id="graph0" class="graph" transform="scale(1 1) rotate(0) translate(4 360)">
<title>src/render/DepthStencil.cpp</title>
<polygon fill="white" stroke="none" points="-4,4 -4,-360 691.5,-360 691.5,4 -4,4"/>
<!-- Node0 -->
<g id="node1" class="node"><title>Node0</title>
<polygon fill="#bfbfbf" stroke="black" points="339,-336.5 339,-355.5 476,-355.5 476,-336.5 339,-336.5"/>
<text text-anchor="middle" x="407.5" y="-343.5" font-family="Helvetica,sans-Serif" font-size="10.00">src/render/DepthStencil.cpp</text>
</g>
<!-- Node1 -->
<g id="node2" class="node"><title>Node1</title>
<g id="a_node2"><a xlink:href="vpr__stdafx_8h.html" target="_top" xlink:title="vpr_stdafx.h">
<polygon fill="white" stroke="black" points="351.5,-112.5 351.5,-131.5 419.5,-131.5 419.5,-112.5 351.5,-112.5"/>
<text text-anchor="middle" x="385.5" y="-119.5" font-family="Helvetica,sans-Serif" font-size="10.00">vpr_stdafx.h</text>
</a>
</g>
</g>
<!-- Node0&#45;&gt;Node1 -->
<g id="edge1" class="edge"><title>Node0&#45;&gt;Node1</title>
<path fill="none" stroke="midnightblue" d="M383.031,-336.438C366.933,-329.378 347.123,-317.626 337.5,-300 308.061,-246.078 350.269,-172.887 372.843,-140.107"/>
<polygon fill="midnightblue" stroke="midnightblue" points="375.923,-141.816 378.867,-131.638 370.219,-137.759 375.923,-141.816"/>
</g>
<!-- Node13 -->
<g id="node14" class="node"><title>Node13</title>
<g id="a_node14"><a xlink:href="_depth_stencil_8hpp.html" target="_top" xlink:title="render/DepthStencil.hpp">
<polygon fill="white" stroke="black" points="347,-280.5 347,-299.5 468,-299.5 468,-280.5 347,-280.5"/>
<text text-anchor="middle" x="407.5" y="-287.5" font-family="Helvetica,sans-Serif" font-size="10.00">render/DepthStencil.hpp</text>
</a>
</g>
</g>
<!-- Node0&#45;&gt;Node13 -->
<g id="edge15" class="edge"><title>Node0&#45;&gt;Node13</title>
<path fill="none" stroke="midnightblue" d="M407.5,-336.083C407.5,-329.006 407.5,-318.861 407.5,-309.986"/>
<polygon fill="midnightblue" stroke="midnightblue" points="411,-309.751 407.5,-299.751 404,-309.751 411,-309.751"/>
</g>
<!-- Node18 -->
<g id="node19" class="node"><title>Node18</title>
<g id="a_node19"><a xlink:href="_logical_device_8hpp.html" target="_top" xlink:title="core/LogicalDevice.hpp">
<polygon fill="white" stroke="black" points="571.5,-168.5 571.5,-187.5 687.5,-187.5 687.5,-168.5 571.5,-168.5"/>
<text text-anchor="middle" x="629.5" y="-175.5" font-family="Helvetica,sans-Serif" font-size="10.00">core/LogicalDevice.hpp</text>
</a>
</g>
</g>
<!-- Node0&#45;&gt;Node18 -->
<g id="edge24" class="edge"><title>Node0&#45;&gt;Node18</title>
<path fill="none" stroke="midnightblue" d="M421.495,-336.398C435.614,-327.599 457.923,-313.361 476.5,-300 526.829,-263.802 583.415,-217.5 611.574,-194.054"/>
<polygon fill="midnightblue" stroke="midnightblue" points="613.931,-196.646 619.362,-187.548 609.444,-191.274 613.931,-196.646"/>
</g>
<!-- Node2 -->
<g id="node3" class="node"><title>Node2</title>
<polygon fill="white" stroke="#bfbfbf" points="0,-0.5 0,-19.5 41,-19.5 41,-0.5 0,-0.5"/>
<text text-anchor="middle" x="20.5" y="-7.5" font-family="Helvetica,sans-Serif" font-size="10.00">string</text>
</g>
<!-- Node1&#45;&gt;Node2 -->
<g id="edge2" class="edge"><title>Node1&#45;&gt;Node2</title>
<path fill="none" stroke="midnightblue" d="M351.335,-121.442C272.316,-121.729 80.1933,-117.981 34.5,-76 21.9007,-64.4243 19.1978,-44.4637 19.1552,-29.7079"/>
<polygon fill="midnightblue" stroke="midnightblue" points="22.6547,-29.7846 19.5214,-19.6637 15.6593,-29.5295 22.6547,-29.7846"/>
</g>
<!-- Node3 -->
<g id="node4" class="node"><title>Node3</title>
<polygon fill="white" stroke="#bfbfbf" points="335.5,-56.5 335.5,-75.5 377.5,-75.5 377.5,-56.5 335.5,-56.5"/>
<text text-anchor="middle" x="356.5" y="-63.5" font-family="Helvetica,sans-Serif" font-size="10.00">vector</text>
</g>
<!-- Node1&#45;&gt;Node3 -->
<g id="edge3" class="edge"><title>Node1&#45;&gt;Node3</title>
<path fill="none" stroke="midnightblue" d="M380.711,-112.083C376.742,-104.691 370.975,-93.9533 366.065,-84.8111"/>
<polygon fill="midnightblue" stroke="midnightblue" points="369.014,-82.9051 361.2,-75.7511 362.847,-86.217 369.014,-82.9051"/>
</g>
<!-- Node4 -->
<g id="node5" class="node"><title>Node4</title>
<polygon fill="white" stroke="#bfbfbf" points="395.5,-56.5 395.5,-75.5 433.5,-75.5 433.5,-56.5 395.5,-56.5"/>
<text text-anchor="middle" x="414.5" y="-63.5" font-family="Helvetica,sans-Serif" font-size="10.00">array</text>
</g>
<!-- Node1&#45;&gt;Node4 -->
<g id="edge4" class="edge"><title>Node1&#45;&gt;Node4</title>
<path fill="none" stroke="midnightblue" d="M390.289,-112.083C394.258,-104.691 400.025,-93.9533 404.935,-84.8111"/>
<polygon fill="midnightblue" stroke="midnightblue" points="408.153,-86.217 409.8,-75.7511 401.986,-82.9051 408.153,-86.217"/>
</g>
<!-- Node5 -->
<g id="node6" class="node"><title>Node5</title>
<polygon fill="white" stroke="#bfbfbf" points="451.5,-56.5 451.5,-75.5 503.5,-75.5 503.5,-56.5 451.5,-56.5"/>
<text text-anchor="middle" x="477.5" y="-63.5" font-family="Helvetica,sans-Serif" font-size="10.00">memory</text>
</g>
<!-- Node1&#45;&gt;Node5 -->
<g id="edge5" class="edge"><title>Node1&#45;&gt;Node5</title>
<path fill="none" stroke="midnightblue" d="M400.281,-112.324C414.767,-103.822 437.073,-90.7288 453.993,-80.7975"/>
<polygon fill="midnightblue" stroke="midnightblue" points="455.903,-83.735 462.755,-75.6545 452.359,-77.6981 455.903,-83.735"/>
</g>
<!-- Node6 -->
<g id="node7" class="node"><title>Node6</title>
<polygon fill="white" stroke="#bfbfbf" points="522,-56.5 522,-75.5 571,-75.5 571,-56.5 522,-56.5"/>
<text text-anchor="middle" x="546.5" y="-63.5" font-family="Helvetica,sans-Serif" font-size="10.00">cassert</text>
</g>
<!-- Node1&#45;&gt;Node6 -->
<g id="edge6" class="edge"><title>Node1&#45;&gt;Node6</title>
<path fill="none" stroke="midnightblue" d="M411.011,-112.444C438.335,-103.279 481.85,-88.6839 512.167,-78.5153"/>
<polygon fill="midnightblue" stroke="midnightblue" points="513.532,-81.7491 521.9,-75.2508 511.306,-75.1125 513.532,-81.7491"/>
</g>
<!-- Node7 -->
<g id="node8" class="node"><title>Node7</title>
<polygon fill="white" stroke="#bfbfbf" points="589.5,-56.5 589.5,-75.5 633.5,-75.5 633.5,-56.5 589.5,-56.5"/>
<text text-anchor="middle" x="611.5" y="-63.5" font-family="Helvetica,sans-Serif" font-size="10.00">mutex</text>
</g>
<!-- Node1&#45;&gt;Node7 -->
<g id="edge7" class="edge"><title>Node1&#45;&gt;Node7</title>
<path fill="none" stroke="midnightblue" d="M419.609,-113.589C456.474,-105.469 517.175,-91.7812 579.194,-75.98"/>
<polygon fill="midnightblue" stroke="midnightblue" points="580.338,-79.3 589.156,-73.4264 578.6,-72.5192 580.338,-79.3"/>
</g>
<!-- Node8 -->
<g id="node9" class="node"><title>Node8</title>
<g id="a_node9"><a xlink:href="_create_info_base_8hpp.html" target="_top" xlink:title="common/CreateInfoBase.hpp">
<polygon fill="white" stroke="black" points="175.5,-56.5 175.5,-75.5 317.5,-75.5 317.5,-56.5 175.5,-56.5"/>
<text text-anchor="middle" x="246.5" y="-63.5" font-family="Helvetica,sans-Serif" font-size="10.00">common/CreateInfoBase.hpp</text>
</a>
</g>
</g>
<!-- Node1&#45;&gt;Node8 -->
<g id="edge8" class="edge"><title>Node1&#45;&gt;Node8</title>
<path fill="none" stroke="midnightblue" d="M363.475,-112.444C340.396,-103.478 303.938,-89.314 277.859,-79.1827"/>
<polygon fill="midnightblue" stroke="midnightblue" points="279.011,-75.8753 268.422,-75.5164 276.476,-82.4002 279.011,-75.8753"/>
</g>
<!-- Node11 -->
<g id="node12" class="node"><title>Node11</title>
<g id="a_node12"><a xlink:href="vk_assert_8hpp.html" target="_top" xlink:title="common/vkAssert.hpp">
<polygon fill="white" stroke="black" points="44,-56.5 44,-75.5 157,-75.5 157,-56.5 44,-56.5"/>
<text text-anchor="middle" x="100.5" y="-63.5" font-family="Helvetica,sans-Serif" font-size="10.00">common/vkAssert.hpp</text>
</a>
</g>
</g>
<!-- Node1&#45;&gt;Node11 -->
<g id="edge11" class="edge"><title>Node1&#45;&gt;Node11</title>
<path fill="none" stroke="midnightblue" d="M351.405,-114.54C302.901,-105.35 213.444,-88.3999 155.493,-77.4197"/>
<polygon fill="midnightblue" stroke="midnightblue" points="155.888,-73.9323 145.411,-75.5095 154.585,-80.81 155.888,-73.9323"/>
</g>
<!-- Node9 -->
<g id="node10" class="node"><title>Node9</title>
<polygon fill="white" stroke="#bfbfbf" points="240.5,-0.5 240.5,-19.5 280.5,-19.5 280.5,-0.5 240.5,-0.5"/>
<text text-anchor="middle" x="260.5" y="-7.5" font-family="Helvetica,sans-Serif" font-size="10.00">limits</text>
</g>
<!-- Node8&#45;&gt;Node9 -->
<g id="edge9" class="edge"><title>Node8&#45;&gt;Node9</title>
<path fill="none" stroke="midnightblue" d="M248.812,-56.083C250.667,-48.9272 253.335,-38.6353 255.654,-29.6911"/>
<polygon fill="midnightblue" stroke="midnightblue" points="259.109,-30.3094 258.231,-19.7511 252.334,-28.5527 259.109,-30.3094"/>
</g>
<!-- Node10 -->
<g id="node11" class="node"><title>Node10</title>
<polygon fill="white" stroke="#bfbfbf" points="140.5,-0.5 140.5,-19.5 222.5,-19.5 222.5,-0.5 140.5,-0.5"/>
<text text-anchor="middle" x="181.5" y="-7.5" font-family="Helvetica,sans-Serif" font-size="10.00">vulkan/vulkan.h</text>
</g>
<!-- Node8&#45;&gt;Node10 -->
<g id="edge10" class="edge"><title>Node8&#45;&gt;Node10</title>
<path fill="none" stroke="midnightblue" d="M236.057,-56.324C226.354,-48.2631 211.685,-36.0765 200,-26.3695"/>
<polygon fill="midnightblue" stroke="midnightblue" points="202.062,-23.532 192.133,-19.8339 197.589,-28.9163 202.062,-23.532"/>
</g>
<!-- Node11&#45;&gt;Node2 -->
<g id="edge13" class="edge"><title>Node11&#45;&gt;Node2</title>
<path fill="none" stroke="midnightblue" d="M87.6466,-56.324C75.2836,-47.979 56.3699,-35.2122 41.7628,-25.3524"/>
<polygon fill="midnightblue" stroke="midnightblue" points="43.5682,-22.3483 33.3215,-19.6545 39.6518,-28.1503 43.5682,-22.3483"/>
</g>
<!-- Node11&#45;&gt;Node10 -->
<g id="edge14" class="edge"><title>Node11&#45;&gt;Node10</title>
<path fill="none" stroke="midnightblue" d="M113.514,-56.324C126.032,-47.979 145.182,-35.2122 159.971,-25.3524"/>
<polygon fill="midnightblue" stroke="midnightblue" points="162.139,-28.1137 168.518,-19.6545 158.256,-22.2894 162.139,-28.1137"/>
</g>
<!-- Node12 -->
<g id="node13" class="node"><title>Node12</title>
<polygon fill="white" stroke="#bfbfbf" points="68.5,-0.5 68.5,-19.5 122.5,-19.5 122.5,-0.5 68.5,-0.5"/>
<text text-anchor="middle" x="95.5" y="-7.5" font-family="Helvetica,sans-Serif" font-size="10.00">iostream</text>
</g>
<!-- Node11&#45;&gt;Node12 -->
<g id="edge12" class="edge"><title>Node11&#45;&gt;Node12</title>
<path fill="none" stroke="midnightblue" d="M99.6744,-56.083C99.0191,-49.0059 98.0797,-38.8611 97.258,-29.9865"/>
<polygon fill="midnightblue" stroke="midnightblue" points="100.717,-29.3858 96.3103,-19.7511 93.7473,-30.0312 100.717,-29.3858"/>
</g>
<!-- Node13&#45;&gt;Node1 -->
<g id="edge16" class="edge"><title>Node13&#45;&gt;Node1</title>
<path fill="none" stroke="midnightblue" d="M401.862,-280.481C396.446,-271.745 388.636,-257.556 385.5,-244 377.321,-208.648 380.179,-165.914 382.904,-141.855"/>
<polygon fill="midnightblue" stroke="midnightblue" points="386.411,-142.017 384.182,-131.659 379.466,-141.146 386.411,-142.017"/>
</g>
<!-- Node14 -->
<g id="node15" class="node"><title>Node14</title>
<g id="a_node15"><a xlink:href="_image_8hpp.html" target="_top" xlink:title="resource/Image.hpp">
<polygon fill="white" stroke="black" points="394.5,-224.5 394.5,-243.5 496.5,-243.5 496.5,-224.5 394.5,-224.5"/>
<text text-anchor="middle" x="445.5" y="-231.5" font-family="Helvetica,sans-Serif" font-size="10.00">resource/Image.hpp</text>
</a>
</g>
</g>
<!-- Node13&#45;&gt;Node14 -->
<g id="edge17" class="edge"><title>Node13&#45;&gt;Node14</title>
<path fill="none" stroke="midnightblue" d="M413.775,-280.083C419.142,-272.455 427.018,-261.264 433.579,-251.941"/>
<polygon fill="midnightblue" stroke="midnightblue" points="436.449,-253.943 439.342,-243.751 430.725,-249.915 436.449,-253.943"/>
</g>
<!-- Node14&#45;&gt;Node1 -->
<g id="edge18" class="edge"><title>Node14&#45;&gt;Node1</title>
<path fill="none" stroke="midnightblue" d="M435.315,-224.346C426.032,-215.941 412.573,-202.376 404.5,-188 396.405,-173.584 391.47,-155.392 388.666,-141.923"/>
<polygon fill="midnightblue" stroke="midnightblue" points="392.071,-141.09 386.79,-131.906 385.191,-142.379 392.071,-141.09"/>
</g>
<!-- Node15 -->
<g id="node16" class="node"><title>Node15</title>
<g id="a_node16"><a xlink:href="_forward_decl_8hpp.html" target="_top" xlink:title="ForwardDecl.hpp">
<polygon fill="white" stroke="black" points="503,-112.5 503,-131.5 592,-131.5 592,-112.5 503,-112.5"/>
<text text-anchor="middle" x="547.5" y="-119.5" font-family="Helvetica,sans-Serif" font-size="10.00">ForwardDecl.hpp</text>
</a>
</g>
</g>
<!-- Node14&#45;&gt;Node15 -->
<g id="edge19" class="edge"><title>Node14&#45;&gt;Node15</title>
<path fill="none" stroke="midnightblue" d="M469.251,-224.426C486.438,-217.129 509.087,-205.09 523.5,-188 534.76,-174.649 540.967,-155.535 544.232,-141.489"/>
<polygon fill="midnightblue" stroke="midnightblue" points="547.696,-142.014 546.259,-131.517 540.837,-140.62 547.696,-142.014"/>
</g>
<!-- Node16 -->
<g id="node17" class="node"><title>Node16</title>
<g id="a_node17"><a xlink:href="_allocation_8hpp.html" target="_top" xlink:title="alloc/Allocation.hpp">
<polygon fill="white" stroke="black" points="414,-168.5 414,-187.5 515,-187.5 515,-168.5 414,-168.5"/>
<text text-anchor="middle" x="464.5" y="-175.5" font-family="Helvetica,sans-Serif" font-size="10.00">alloc/Allocation.hpp</text>
</a>
</g>
</g>
<!-- Node14&#45;&gt;Node16 -->
<g id="edge20" class="edge"><title>Node14&#45;&gt;Node16</title>
<path fill="none" stroke="midnightblue" d="M448.637,-224.083C451.183,-216.849 454.856,-206.409 458.027,-197.397"/>
<polygon fill="midnightblue" stroke="midnightblue" points="461.403,-198.346 461.421,-187.751 454.8,-196.023 461.403,-198.346"/>
</g>
<!-- Node16&#45;&gt;Node1 -->
<g id="edge21" class="edge"><title>Node16&#45;&gt;Node1</title>
<path fill="none" stroke="midnightblue" d="M451.807,-168.324C439.599,-159.979 420.922,-147.212 406.497,-137.352"/>
<polygon fill="midnightblue" stroke="midnightblue" points="408.392,-134.408 398.161,-131.655 404.442,-140.187 408.392,-134.408"/>
</g>
<!-- Node16&#45;&gt;Node15 -->
<g id="edge22" class="edge"><title>Node16&#45;&gt;Node15</title>
<path fill="none" stroke="midnightblue" d="M477.835,-168.324C490.662,-159.979 510.285,-147.212 525.44,-137.352"/>
<polygon fill="midnightblue" stroke="midnightblue" points="527.724,-140.042 534.198,-131.655 523.907,-134.174 527.724,-140.042"/>
</g>
<!-- Node17 -->
<g id="node18" class="node"><title>Node17</title>
<polygon fill="white" stroke="#bfbfbf" points="440.5,-112.5 440.5,-131.5 484.5,-131.5 484.5,-112.5 440.5,-112.5"/>
<text text-anchor="middle" x="462.5" y="-119.5" font-family="Helvetica,sans-Serif" font-size="10.00">variant</text>
</g>
<!-- Node16&#45;&gt;Node17 -->
<g id="edge23" class="edge"><title>Node16&#45;&gt;Node17</title>
<path fill="none" stroke="midnightblue" d="M464.17,-168.083C463.908,-161.006 463.532,-150.861 463.203,-141.986"/>
<polygon fill="midnightblue" stroke="midnightblue" points="466.692,-141.615 462.824,-131.751 459.697,-141.874 466.692,-141.615"/>
</g>
<!-- Node18&#45;&gt;Node1 -->
<g id="edge25" class="edge"><title>Node18&#45;&gt;Node1</title>
<path fill="none" stroke="midnightblue" d="M590.837,-168.444C546.987,-158.739 475.623,-142.945 429.628,-132.766"/>
<polygon fill="midnightblue" stroke="midnightblue" points="430.171,-129.302 419.651,-130.558 428.658,-136.136 430.171,-129.302"/>
</g>
<!-- Node18&#45;&gt;Node15 -->
<g id="edge26" class="edge"><title>Node18&#45;&gt;Node15</title>
<path fill="none" stroke="midnightblue" d="M616.325,-168.324C603.653,-159.979 584.267,-147.212 569.294,-137.352"/>
<polygon fill="midnightblue" stroke="midnightblue" points="570.919,-134.231 560.642,-131.655 567.069,-140.078 570.919,-134.231"/>
</g>
<!-- Node19 -->
<g id="node20" class="node"><title>Node19</title>
<polygon fill="white" stroke="#bfbfbf" points="612,-112.5 612,-131.5 647,-131.5 647,-112.5 612,-112.5"/>
<text text-anchor="middle" x="629.5" y="-119.5" font-family="Helvetica,sans-Serif" font-size="10.00">map</text>
</g>
<!-- Node18&#45;&gt;Node19 -->
<g id="edge27" class="edge"><title>Node18&#45;&gt;Node19</title>
<path fill="none" stroke="midnightblue" d="M629.5,-168.083C629.5,-161.006 629.5,-150.861 629.5,-141.986"/>
<polygon fill="midnightblue" stroke="midnightblue" points="633,-141.751 629.5,-131.751 626,-141.751 633,-141.751"/>
</g>
</g>
</svg>
