<?xml version="1.0" encoding="UTF-8" standalone="no"?>
<!DOCTYPE svg PUBLIC "-//W3C//DTD SVG 1.1//EN"
 "http://www.w3.org/Graphics/SVG/1.1/DTD/svg11.dtd">
<!-- Generated by graphviz version 2.38.0 (20140413.2041)
 -->
<!-- Title: resource/src/DescriptorSetLayout.cpp Pages: 1 -->
<svg width="514pt" height="207pt"
 viewBox="0.00 0.00 513.50 207.00" xmlns="http://www.w3.org/2000/svg" xmlns:xlink="http://www.w3.org/1999/xlink">
<g id="graph0" class="graph" transform="scale(1 1) rotate(0) translate(4 203)">
<title>resource/src/DescriptorSetLayout.cpp</title>
<polygon fill="white" stroke="none" points="-4,4 -4,-203 509.5,-203 509.5,4 -4,4"/>
<!-- Node0 -->
<g id="node1" class="node"><title>Node0</title>
<polygon fill="#bfbfbf" stroke="black" points="274.5,-168.5 274.5,-198.5 407.5,-198.5 407.5,-168.5 274.5,-168.5"/>
<text text-anchor="start" x="282.5" y="-186.5" font-family="Helvetica,sans-Serif" font-size="10.00">resource/src/DescriptorSet</text>
<text text-anchor="middle" x="341" y="-175.5" font-family="Helvetica,sans-Serif" font-size="10.00">Layout.cpp</text>
</g>
<!-- Node1 -->
<g id="node2" class="node"><title>Node1</title>
<g id="a_node2"><a xlink:href="_descriptor_set_layout_8hpp.html" target="_top" xlink:title="DescriptorSetLayout.hpp">
<polygon fill="white" stroke="black" points="50,-112.5 50,-131.5 174,-131.5 174,-112.5 50,-112.5"/>
<text text-anchor="middle" x="112" y="-119.5" font-family="Helvetica,sans-Serif" font-size="10.00">DescriptorSetLayout.hpp</text>
</a>
</g>
</g>
<!-- Node0&#45;&gt;Node1 -->
<g id="edge1" class="edge"><title>Node0&#45;&gt;Node1</title>
<path fill="none" stroke="midnightblue" d="M287.02,-168.475C246.65,-157.986 192.195,-143.837 154.806,-134.122"/>
<polygon fill="midnightblue" stroke="midnightblue" points="155.298,-130.634 144.739,-131.506 153.537,-137.409 155.298,-130.634"/>
</g>
<!-- Node5 -->
<g id="node6" class="node"><title>Node5</title>
<g id="a_node6"><a xlink:href="vk_assert_8hpp.html" target="_top" xlink:title="vkAssert.hpp">
<polygon fill="white" stroke="black" points="194.5,-112.5 194.5,-131.5 267.5,-131.5 267.5,-112.5 194.5,-112.5"/>
<text text-anchor="middle" x="231" y="-119.5" font-family="Helvetica,sans-Serif" font-size="10.00">vkAssert.hpp</text>
</a>
</g>
</g>
<!-- Node0&#45;&gt;Node5 -->
<g id="edge5" class="edge"><title>Node0&#45;&gt;Node5</title>
<path fill="none" stroke="midnightblue" d="M314.932,-168.399C297.135,-158.773 273.688,-146.09 256.101,-136.577"/>
<polygon fill="midnightblue" stroke="midnightblue" points="257.467,-133.337 247.006,-131.658 254.136,-139.494 257.467,-133.337"/>
</g>
<!-- Node8 -->
<g id="node9" class="node"><title>Node8</title>
<g id="a_node9"><a xlink:href="_create_info_base_8hpp.html" target="_top" xlink:title="CreateInfoBase.hpp">
<polygon fill="white" stroke="black" points="290.5,-112.5 290.5,-131.5 391.5,-131.5 391.5,-112.5 290.5,-112.5"/>
<text text-anchor="middle" x="341" y="-119.5" font-family="Helvetica,sans-Serif" font-size="10.00">CreateInfoBase.hpp</text>
</a>
</g>
</g>
<!-- Node0&#45;&gt;Node8 -->
<g id="edge9" class="edge"><title>Node0&#45;&gt;Node8</title>
<path fill="none" stroke="midnightblue" d="M341,-168.399C341,-160.466 341,-150.458 341,-141.858"/>
<polygon fill="midnightblue" stroke="midnightblue" points="344.5,-141.658 341,-131.658 337.5,-141.658 344.5,-141.658"/>
</g>
<!-- Node10 -->
<g id="node11" class="node"><title>Node10</title>
<polygon fill="white" stroke="#bfbfbf" points="410,-112.5 410,-131.5 452,-131.5 452,-112.5 410,-112.5"/>
<text text-anchor="middle" x="431" y="-119.5" font-family="Helvetica,sans-Serif" font-size="10.00">vector</text>
</g>
<!-- Node0&#45;&gt;Node10 -->
<g id="edge12" class="edge"><title>Node0&#45;&gt;Node10</title>
<path fill="none" stroke="midnightblue" d="M362.329,-168.399C376.485,-159.04 395.011,-146.792 409.253,-137.377"/>
<polygon fill="midnightblue" stroke="midnightblue" points="411.493,-140.092 417.904,-131.658 407.632,-134.253 411.493,-140.092"/>
</g>
<!-- Node11 -->
<g id="node12" class="node"><title>Node11</title>
<polygon fill="white" stroke="#bfbfbf" points="470.5,-112.5 470.5,-131.5 505.5,-131.5 505.5,-112.5 470.5,-112.5"/>
<text text-anchor="middle" x="488" y="-119.5" font-family="Helvetica,sans-Serif" font-size="10.00">map</text>
</g>
<!-- Node0&#45;&gt;Node11 -->
<g id="edge13" class="edge"><title>Node0&#45;&gt;Node11</title>
<path fill="none" stroke="midnightblue" d="M375.837,-168.399C401.838,-157.875 436.864,-143.698 460.815,-134.003"/>
<polygon fill="midnightblue" stroke="midnightblue" points="462.387,-137.143 470.344,-130.147 459.761,-130.654 462.387,-137.143"/>
</g>
<!-- Node2 -->
<g id="node3" class="node"><title>Node2</title>
<g id="a_node3"><a xlink:href="vpr__stdafx_8h.html" target="_top" xlink:title="vpr_stdafx.h">
<polygon fill="white" stroke="black" points="0,-56.5 0,-75.5 68,-75.5 68,-56.5 0,-56.5"/>
<text text-anchor="middle" x="34" y="-63.5" font-family="Helvetica,sans-Serif" font-size="10.00">vpr_stdafx.h</text>
</a>
</g>
</g>
<!-- Node1&#45;&gt;Node2 -->
<g id="edge2" class="edge"><title>Node1&#45;&gt;Node2</title>
<path fill="none" stroke="midnightblue" d="M99.468,-112.324C87.4141,-103.979 68.9732,-91.2122 54.7313,-81.3524"/>
<polygon fill="midnightblue" stroke="midnightblue" points="56.7151,-78.469 46.5009,-75.6545 52.7306,-84.2243 56.7151,-78.469"/>
</g>
<!-- Node4 -->
<g id="node5" class="node"><title>Node4</title>
<polygon fill="white" stroke="#bfbfbf" points="86,-56.5 86,-75.5 138,-75.5 138,-56.5 86,-56.5"/>
<text text-anchor="middle" x="112" y="-63.5" font-family="Helvetica,sans-Serif" font-size="10.00">memory</text>
</g>
<!-- Node1&#45;&gt;Node4 -->
<g id="edge4" class="edge"><title>Node1&#45;&gt;Node4</title>
<path fill="none" stroke="midnightblue" d="M112,-112.083C112,-105.006 112,-94.8611 112,-85.9865"/>
<polygon fill="midnightblue" stroke="midnightblue" points="115.5,-85.751 112,-75.7511 108.5,-85.7511 115.5,-85.751"/>
</g>
<!-- Node3 -->
<g id="node4" class="node"><title>Node3</title>
<polygon fill="white" stroke="#bfbfbf" points="125,-0.5 125,-19.5 207,-19.5 207,-0.5 125,-0.5"/>
<text text-anchor="middle" x="166" y="-7.5" font-family="Helvetica,sans-Serif" font-size="10.00">vulkan/vulkan.h</text>
</g>
<!-- Node2&#45;&gt;Node3 -->
<g id="edge3" class="edge"><title>Node2&#45;&gt;Node3</title>
<path fill="none" stroke="midnightblue" d="M54.9158,-56.4435C76.736,-47.5171 111.15,-33.4387 135.892,-23.3168"/>
<polygon fill="midnightblue" stroke="midnightblue" points="137.252,-26.5422 145.182,-19.5164 134.601,-20.0634 137.252,-26.5422"/>
</g>
<!-- Node5&#45;&gt;Node3 -->
<g id="edge8" class="edge"><title>Node5&#45;&gt;Node3</title>
<path fill="none" stroke="midnightblue" d="M219.127,-112.288C208.7,-104.041 193.851,-90.7533 185,-76 176.4,-61.6651 171.492,-43.202 168.827,-29.6187"/>
<polygon fill="midnightblue" stroke="midnightblue" points="172.24,-28.8108 167.085,-19.5542 165.342,-30.0047 172.24,-28.8108"/>
</g>
<!-- Node6 -->
<g id="node7" class="node"><title>Node6</title>
<polygon fill="white" stroke="#bfbfbf" points="194,-56.5 194,-75.5 248,-75.5 248,-56.5 194,-56.5"/>
<text text-anchor="middle" x="221" y="-63.5" font-family="Helvetica,sans-Serif" font-size="10.00">iostream</text>
</g>
<!-- Node5&#45;&gt;Node6 -->
<g id="edge6" class="edge"><title>Node5&#45;&gt;Node6</title>
<path fill="none" stroke="midnightblue" d="M229.349,-112.083C228.024,-104.927 226.118,-94.6353 224.461,-85.6911"/>
<polygon fill="midnightblue" stroke="midnightblue" points="227.883,-84.9466 222.621,-75.7511 221,-86.2212 227.883,-84.9466"/>
</g>
<!-- Node7 -->
<g id="node8" class="node"><title>Node7</title>
<polygon fill="white" stroke="#bfbfbf" points="266.5,-56.5 266.5,-75.5 315.5,-75.5 315.5,-56.5 266.5,-56.5"/>
<text text-anchor="middle" x="291" y="-63.5" font-family="Helvetica,sans-Serif" font-size="10.00">cassert</text>
</g>
<!-- Node5&#45;&gt;Node7 -->
<g id="edge7" class="edge"><title>Node5&#45;&gt;Node7</title>
<path fill="none" stroke="midnightblue" d="M240.64,-112.324C249.51,-104.341 262.875,-92.3128 273.608,-82.6529"/>
<polygon fill="midnightblue" stroke="midnightblue" points="276.093,-85.1251 281.185,-75.8339 271.41,-79.922 276.093,-85.1251"/>
</g>
<!-- Node8&#45;&gt;Node3 -->
<g id="edge11" class="edge"><title>Node8&#45;&gt;Node3</title>
<path fill="none" stroke="midnightblue" d="M341.284,-112.107C341.226,-98.2076 339.011,-71.3396 324,-56 296.341,-27.7351 252.293,-16.8871 217.723,-12.8808"/>
<polygon fill="midnightblue" stroke="midnightblue" points="217.625,-9.35383 207.328,-11.8454 216.932,-16.3194 217.625,-9.35383"/>
</g>
<!-- Node9 -->
<g id="node10" class="node"><title>Node9</title>
<polygon fill="white" stroke="#bfbfbf" points="372,-56.5 372,-75.5 412,-75.5 412,-56.5 372,-56.5"/>
<text text-anchor="middle" x="392" y="-63.5" font-family="Helvetica,sans-Serif" font-size="10.00">limits</text>
</g>
<!-- Node8&#45;&gt;Node9 -->
<g id="edge10" class="edge"><title>Node8&#45;&gt;Node9</title>
<path fill="none" stroke="midnightblue" d="M349.422,-112.083C356.848,-104.22 367.852,-92.5688 376.812,-83.0813"/>
<polygon fill="midnightblue" stroke="midnightblue" points="379.413,-85.4244 383.735,-75.7511 374.324,-80.618 379.413,-85.4244"/>
</g>
</g>
</svg>
