<?xml version="1.0" encoding="UTF-8" standalone="no"?>
<!DOCTYPE svg PUBLIC "-//W3C//DTD SVG 1.1//EN"
 "http://www.w3.org/Graphics/SVG/1.1/DTD/svg11.dtd">
<!-- Generated by graphviz version 2.38.0 (20140413.2041)
 -->
<!-- Title: include/resource/DescriptorSetLayout.hpp Pages: 1 -->
<svg width="312pt" height="106pt"
 viewBox="0.00 0.00 311.50 106.00" xmlns="http://www.w3.org/2000/svg" xmlns:xlink="http://www.w3.org/1999/xlink">
<g id="graph0" class="graph" transform="scale(1 1) rotate(0) translate(4 102)">
<title>include/resource/DescriptorSetLayout.hpp</title>
<polygon fill="white" stroke="none" points="-4,4 -4,-102 307.5,-102 307.5,4 -4,4"/>
<!-- Node15 -->
<g id="node1" class="node"><title>Node15</title>
<polygon fill="#bfbfbf" stroke="black" points="88.5,-67.5 88.5,-97.5 223.5,-97.5 223.5,-67.5 88.5,-67.5"/>
<text text-anchor="start" x="96.5" y="-85.5" font-family="Helvetica,sans-Serif" font-size="10.00">include/resource/Descriptor</text>
<text text-anchor="middle" x="156" y="-74.5" font-family="Helvetica,sans-Serif" font-size="10.00">SetLayout.hpp</text>
</g>
<!-- Node16 -->
<g id="node2" class="node"><title>Node16</title>
<g id="a_node2"><a xlink:href="_descriptor_set_8cpp.html" target="_top" xlink:title="src/resource/DescriptorSet.cpp">
<polygon fill="white" stroke="black" points="0,-6 0,-25 152,-25 152,-6 0,-6"/>
<text text-anchor="middle" x="76" y="-13" font-family="Helvetica,sans-Serif" font-size="10.00">src/resource/DescriptorSet.cpp</text>
</a>
</g>
</g>
<!-- Node15&#45;&gt;Node16 -->
<g id="edge1" class="edge"><title>Node15&#45;&gt;Node16</title>
<path fill="none" stroke="midnightblue" d="M130.779,-61.008C115.928,-48.9412 97.9134,-34.3046 86.701,-25.1945"/>
<polygon fill="midnightblue" stroke="midnightblue" points="128.673,-63.8064 138.641,-67.396 133.087,-58.3736 128.673,-63.8064"/>
</g>
<!-- Node17 -->
<g id="node3" class="node"><title>Node17</title>
<g id="a_node3"><a xlink:href="_descriptor_set_layout_8cpp.html" target="_top" xlink:title="src/resource/DescriptorSet\lLayout.cpp">
<polygon fill="white" stroke="black" points="170.5,-0.5 170.5,-30.5 303.5,-30.5 303.5,-0.5 170.5,-0.5"/>
<text text-anchor="start" x="178.5" y="-18.5" font-family="Helvetica,sans-Serif" font-size="10.00">src/resource/DescriptorSet</text>
<text text-anchor="middle" x="237" y="-7.5" font-family="Helvetica,sans-Serif" font-size="10.00">Layout.cpp</text>
</a>
</g>
</g>
<!-- Node15&#45;&gt;Node17 -->
<g id="edge2" class="edge"><title>Node15&#45;&gt;Node17</title>
<path fill="none" stroke="midnightblue" d="M181.692,-60.8832C194.001,-51.0054 208.427,-39.4293 219.459,-30.5765"/>
<polygon fill="midnightblue" stroke="midnightblue" points="179.185,-58.4075 173.576,-67.396 183.566,-63.867 179.185,-58.4075"/>
</g>
</g>
</svg>
