<?xml version="1.0" encoding="UTF-8" standalone="no"?>
<!DOCTYPE svg PUBLIC "-//W3C//DTD SVG 1.1//EN"
 "http://www.w3.org/Graphics/SVG/1.1/DTD/svg11.dtd">
<!-- Generated by graphviz version 2.38.0 (20140413.2041)
 -->
<!-- Title: resource/src/DescriptorPool.cpp Pages: 1 -->
<svg width="691pt" height="196pt"
 viewBox="0.00 0.00 691.00 196.00" xmlns="http://www.w3.org/2000/svg" xmlns:xlink="http://www.w3.org/1999/xlink">
<g id="graph0" class="graph" transform="scale(1 1) rotate(0) translate(4 192)">
<title>resource/src/DescriptorPool.cpp</title>
<polygon fill="white" stroke="none" points="-4,4 -4,-192 687,-192 687,4 -4,4"/>
<!-- Node0 -->
<g id="node1" class="node"><title>Node0</title>
<polygon fill="#bfbfbf" stroke="black" points="325.5,-168.5 325.5,-187.5 481.5,-187.5 481.5,-168.5 325.5,-168.5"/>
<text text-anchor="middle" x="403.5" y="-175.5" font-family="Helvetica,sans-Serif" font-size="10.00">resource/src/DescriptorPool.cpp</text>
</g>
<!-- Node1 -->
<g id="node2" class="node"><title>Node1</title>
<g id="a_node2"><a xlink:href="vpr__stdafx_8h.html" target="_top" xlink:title="vpr_stdafx.h">
<polygon fill="white" stroke="black" points="195.5,-56.5 195.5,-75.5 263.5,-75.5 263.5,-56.5 195.5,-56.5"/>
<text text-anchor="middle" x="229.5" y="-63.5" font-family="Helvetica,sans-Serif" font-size="10.00">vpr_stdafx.h</text>
</a>
</g>
</g>
<!-- Node0&#45;&gt;Node1 -->
<g id="edge1" class="edge"><title>Node0&#45;&gt;Node1</title>
<path fill="none" stroke="midnightblue" d="M325.416,-172.217C266.18,-166.767 191.759,-155.373 172.5,-132 157.634,-113.959 181.956,-93.8105 203.284,-80.7969"/>
<polygon fill="midnightblue" stroke="midnightblue" points="205.217,-83.7221 212.118,-75.6833 201.71,-77.6637 205.217,-83.7221"/>
</g>
<!-- Node3 -->
<g id="node4" class="node"><title>Node3</title>
<g id="a_node4"><a xlink:href="_descriptor_pool_8hpp.html" target="_top" xlink:title="DescriptorPool.hpp">
<polygon fill="white" stroke="black" points="295,-112.5 295,-131.5 394,-131.5 394,-112.5 295,-112.5"/>
<text text-anchor="middle" x="344.5" y="-119.5" font-family="Helvetica,sans-Serif" font-size="10.00">DescriptorPool.hpp</text>
</a>
</g>
</g>
<!-- Node0&#45;&gt;Node3 -->
<g id="edge3" class="edge"><title>Node0&#45;&gt;Node3</title>
<path fill="none" stroke="midnightblue" d="M394.021,-168.324C385.299,-160.341 372.157,-148.313 361.602,-138.653"/>
<polygon fill="midnightblue" stroke="midnightblue" points="363.892,-136.004 354.152,-131.834 359.166,-141.167 363.892,-136.004"/>
</g>
<!-- Node5 -->
<g id="node6" class="node"><title>Node5</title>
<g id="a_node6"><a xlink:href="_descriptor_set_8hpp.html" target="_top" xlink:title="DescriptorSet.hpp">
<polygon fill="white" stroke="black" points="182,-112.5 182,-131.5 277,-131.5 277,-112.5 182,-112.5"/>
<text text-anchor="middle" x="229.5" y="-119.5" font-family="Helvetica,sans-Serif" font-size="10.00">DescriptorSet.hpp</text>
</a>
</g>
</g>
<!-- Node0&#45;&gt;Node5 -->
<g id="edge6" class="edge"><title>Node0&#45;&gt;Node5</title>
<path fill="none" stroke="midnightblue" d="M375.929,-168.444C346.403,-159.28 299.382,-144.688 266.617,-134.519"/>
<polygon fill="midnightblue" stroke="midnightblue" points="267.53,-131.138 256.942,-131.516 265.455,-137.823 267.53,-131.138"/>
</g>
<!-- Node6 -->
<g id="node7" class="node"><title>Node6</title>
<g id="a_node7"><a xlink:href="vk_assert_8hpp.html" target="_top" xlink:title="vkAssert.hpp">
<polygon fill="white" stroke="black" points="52,-112.5 52,-131.5 125,-131.5 125,-112.5 52,-112.5"/>
<text text-anchor="middle" x="88.5" y="-119.5" font-family="Helvetica,sans-Serif" font-size="10.00">vkAssert.hpp</text>
</a>
</g>
</g>
<!-- Node0&#45;&gt;Node6 -->
<g id="edge9" class="edge"><title>Node0&#45;&gt;Node6</title>
<path fill="none" stroke="midnightblue" d="M352.874,-168.461C299.719,-159.474 213.713,-144.873 139.5,-132 138.06,-131.75 136.598,-131.496 135.122,-131.239"/>
<polygon fill="midnightblue" stroke="midnightblue" points="135.72,-127.79 125.267,-129.515 134.514,-134.686 135.72,-127.79"/>
</g>
<!-- Node9 -->
<g id="node10" class="node"><title>Node9</title>
<g id="a_node10"><a xlink:href="_create_info_base_8hpp.html" target="_top" xlink:title="CreateInfoBase.hpp">
<polygon fill="white" stroke="black" points="412,-112.5 412,-131.5 513,-131.5 513,-112.5 412,-112.5"/>
<text text-anchor="middle" x="462.5" y="-119.5" font-family="Helvetica,sans-Serif" font-size="10.00">CreateInfoBase.hpp</text>
</a>
</g>
</g>
<!-- Node0&#45;&gt;Node9 -->
<g id="edge13" class="edge"><title>Node0&#45;&gt;Node9</title>
<path fill="none" stroke="midnightblue" d="M412.979,-168.324C421.701,-160.341 434.843,-148.313 445.398,-138.653"/>
<polygon fill="midnightblue" stroke="midnightblue" points="447.834,-141.167 452.848,-131.834 443.108,-136.004 447.834,-141.167"/>
</g>
<!-- Node11 -->
<g id="node12" class="node"><title>Node11</title>
<polygon fill="white" stroke="#bfbfbf" points="531.5,-112.5 531.5,-131.5 573.5,-131.5 573.5,-112.5 531.5,-112.5"/>
<text text-anchor="middle" x="552.5" y="-119.5" font-family="Helvetica,sans-Serif" font-size="10.00">vector</text>
</g>
<!-- Node0&#45;&gt;Node11 -->
<g id="edge16" class="edge"><title>Node0&#45;&gt;Node11</title>
<path fill="none" stroke="midnightblue" d="M427.109,-168.444C452.689,-159.173 493.6,-144.346 521.692,-134.165"/>
<polygon fill="midnightblue" stroke="midnightblue" points="523.201,-137.341 531.41,-130.643 520.816,-130.76 523.201,-137.341"/>
</g>
<!-- Node12 -->
<g id="node13" class="node"><title>Node12</title>
<polygon fill="white" stroke="#bfbfbf" points="591.5,-112.5 591.5,-131.5 629.5,-131.5 629.5,-112.5 591.5,-112.5"/>
<text text-anchor="middle" x="610.5" y="-119.5" font-family="Helvetica,sans-Serif" font-size="10.00">array</text>
</g>
<!-- Node0&#45;&gt;Node12 -->
<g id="edge17" class="edge"><title>Node0&#45;&gt;Node12</title>
<path fill="none" stroke="midnightblue" d="M440.367,-168.469C474.631,-160.377 527.282,-147.53 581.492,-132.157"/>
<polygon fill="midnightblue" stroke="midnightblue" points="582.618,-135.476 591.27,-129.362 580.693,-128.746 582.618,-135.476"/>
</g>
<!-- Node13 -->
<g id="node14" class="node"><title>Node13</title>
<polygon fill="white" stroke="#bfbfbf" points="648,-112.5 648,-131.5 683,-131.5 683,-112.5 648,-112.5"/>
<text text-anchor="middle" x="665.5" y="-119.5" font-family="Helvetica,sans-Serif" font-size="10.00">map</text>
</g>
<!-- Node0&#45;&gt;Node13 -->
<g id="edge18" class="edge"><title>Node0&#45;&gt;Node13</title>
<path fill="none" stroke="midnightblue" d="M459.042,-168.499C504.71,-161.026 571.218,-149.041 638.025,-131.824"/>
<polygon fill="midnightblue" stroke="midnightblue" points="639.093,-135.162 647.882,-129.245 637.322,-128.39 639.093,-135.162"/>
</g>
<!-- Node2 -->
<g id="node3" class="node"><title>Node2</title>
<polygon fill="white" stroke="#bfbfbf" points="188.5,-0.5 188.5,-19.5 270.5,-19.5 270.5,-0.5 188.5,-0.5"/>
<text text-anchor="middle" x="229.5" y="-7.5" font-family="Helvetica,sans-Serif" font-size="10.00">vulkan/vulkan.h</text>
</g>
<!-- Node1&#45;&gt;Node2 -->
<g id="edge2" class="edge"><title>Node1&#45;&gt;Node2</title>
<path fill="none" stroke="midnightblue" d="M229.5,-56.083C229.5,-49.0059 229.5,-38.8611 229.5,-29.9865"/>
<polygon fill="midnightblue" stroke="midnightblue" points="233,-29.751 229.5,-19.7511 226,-29.7511 233,-29.751"/>
</g>
<!-- Node3&#45;&gt;Node1 -->
<g id="edge4" class="edge"><title>Node3&#45;&gt;Node1</title>
<path fill="none" stroke="midnightblue" d="M326.278,-112.444C307.604,-103.675 278.344,-89.9355 256.883,-79.8579"/>
<polygon fill="midnightblue" stroke="midnightblue" points="258.176,-76.5988 247.637,-75.5164 255.201,-82.935 258.176,-76.5988"/>
</g>
<!-- Node4 -->
<g id="node5" class="node"><title>Node4</title>
<polygon fill="white" stroke="#bfbfbf" points="300.5,-56.5 300.5,-75.5 352.5,-75.5 352.5,-56.5 300.5,-56.5"/>
<text text-anchor="middle" x="326.5" y="-63.5" font-family="Helvetica,sans-Serif" font-size="10.00">memory</text>
</g>
<!-- Node3&#45;&gt;Node4 -->
<g id="edge5" class="edge"><title>Node3&#45;&gt;Node4</title>
<path fill="none" stroke="midnightblue" d="M341.528,-112.083C339.116,-104.849 335.636,-94.4087 332.632,-85.3968"/>
<polygon fill="midnightblue" stroke="midnightblue" points="335.9,-84.1311 329.417,-75.7511 329.259,-86.3447 335.9,-84.1311"/>
</g>
<!-- Node5&#45;&gt;Node1 -->
<g id="edge7" class="edge"><title>Node5&#45;&gt;Node1</title>
<path fill="none" stroke="midnightblue" d="M229.5,-112.083C229.5,-105.006 229.5,-94.8611 229.5,-85.9865"/>
<polygon fill="midnightblue" stroke="midnightblue" points="233,-85.751 229.5,-75.7511 226,-85.7511 233,-85.751"/>
</g>
<!-- Node5&#45;&gt;Node4 -->
<g id="edge8" class="edge"><title>Node5&#45;&gt;Node4</title>
<path fill="none" stroke="midnightblue" d="M245.085,-112.324C260.499,-103.743 284.312,-90.486 302.21,-80.5224"/>
<polygon fill="midnightblue" stroke="midnightblue" points="303.919,-83.5767 310.954,-75.6545 300.514,-77.4606 303.919,-83.5767"/>
</g>
<!-- Node6&#45;&gt;Node2 -->
<g id="edge12" class="edge"><title>Node6&#45;&gt;Node2</title>
<path fill="none" stroke="midnightblue" d="M99.564,-112.368C123.554,-93.6531 180.598,-49.1509 210.488,-25.8324"/>
<polygon fill="midnightblue" stroke="midnightblue" points="212.756,-28.502 218.487,-19.5914 208.45,-22.9829 212.756,-28.502"/>
</g>
<!-- Node7 -->
<g id="node8" class="node"><title>Node7</title>
<polygon fill="white" stroke="#bfbfbf" points="67.5,-56.5 67.5,-75.5 121.5,-75.5 121.5,-56.5 67.5,-56.5"/>
<text text-anchor="middle" x="94.5" y="-63.5" font-family="Helvetica,sans-Serif" font-size="10.00">iostream</text>
</g>
<!-- Node6&#45;&gt;Node7 -->
<g id="edge10" class="edge"><title>Node6&#45;&gt;Node7</title>
<path fill="none" stroke="midnightblue" d="M89.4908,-112.083C90.2859,-104.927 91.4294,-94.6353 92.4232,-85.6911"/>
<polygon fill="midnightblue" stroke="midnightblue" points="95.9018,-86.0765 93.5277,-75.7511 88.9447,-85.3034 95.9018,-86.0765"/>
</g>
<!-- Node8 -->
<g id="node9" class="node"><title>Node8</title>
<polygon fill="white" stroke="#bfbfbf" points="0,-56.5 0,-75.5 49,-75.5 49,-56.5 0,-56.5"/>
<text text-anchor="middle" x="24.5" y="-63.5" font-family="Helvetica,sans-Serif" font-size="10.00">cassert</text>
</g>
<!-- Node6&#45;&gt;Node8 -->
<g id="edge11" class="edge"><title>Node6&#45;&gt;Node8</title>
<path fill="none" stroke="midnightblue" d="M78.2173,-112.324C68.6637,-104.263 54.2203,-92.0765 42.7157,-82.3695"/>
<polygon fill="midnightblue" stroke="midnightblue" points="44.8698,-79.6076 34.9698,-75.8339 40.3557,-84.9577 44.8698,-79.6076"/>
</g>
<!-- Node9&#45;&gt;Node2 -->
<g id="edge15" class="edge"><title>Node9&#45;&gt;Node2</title>
<path fill="none" stroke="midnightblue" d="M451.224,-112.429C433.108,-98.9703 396.045,-72.6955 361.5,-56 332.409,-41.9402 297.777,-30.3104 271.287,-22.3977"/>
<polygon fill="midnightblue" stroke="midnightblue" points="272.142,-19.0012 261.561,-19.5498 270.175,-25.7191 272.142,-19.0012"/>
</g>
<!-- Node10 -->
<g id="node11" class="node"><title>Node10</title>
<polygon fill="white" stroke="#bfbfbf" points="442.5,-56.5 442.5,-75.5 482.5,-75.5 482.5,-56.5 442.5,-56.5"/>
<text text-anchor="middle" x="462.5" y="-63.5" font-family="Helvetica,sans-Serif" font-size="10.00">limits</text>
</g>
<!-- Node9&#45;&gt;Node10 -->
<g id="edge14" class="edge"><title>Node9&#45;&gt;Node10</title>
<path fill="none" stroke="midnightblue" d="M462.5,-112.083C462.5,-105.006 462.5,-94.8611 462.5,-85.9865"/>
<polygon fill="midnightblue" stroke="midnightblue" points="466,-85.751 462.5,-75.7511 459,-85.7511 466,-85.751"/>
</g>
</g>
</svg>
