<?xml version="1.0" encoding="UTF-8" standalone="no"?>
<!DOCTYPE svg PUBLIC "-//W3C//DTD SVG 1.1//EN"
 "http://www.w3.org/Graphics/SVG/1.1/DTD/svg11.dtd">
<!-- Generated by graphviz version 2.38.0 (20140413.2041)
 -->
<!-- Title: C:/Users/kjones/Documents/SoftwareDev/VulpesSceneKit/third_party/vulpesrender/src/sync/Fence.cpp Pages: 1 -->
<!--zoomable 285 -->
<svg id="main" version="1.1" xmlns="http://www.w3.org/2000/svg" xmlns:xlink="http://www.w3.org/1999/xlink" xml:space="preserve" onload="init(evt)">
<style type="text/css"><![CDATA[
.edge:hover path { stroke: red; }
.edge:hover polygon { stroke: red; fill: red; }
]]></style>
<script type="text/javascript"><![CDATA[
var edges = document.getElementsByTagName('g');
if (edges && edges.length) {
  for (var i=0;i<edges.length;i++) {
    if (edges[i].id.substr(0,4)=='edge') {
      edges[i].setAttribute('class','edge');
    }
  }
}
]]></script>
        <defs>
                <circle id="rim" cx="0" cy="0" r="7"/>
                <circle id="rim2" cx="0" cy="0" r="3.5"/>
                <g id="zoomPlus">
                        <use xlink:href="#rim" fill="#404040">
                                <set attributeName="fill" to="#808080" begin="zoomplus.mouseover" end="zoomplus.mouseout"/>
                        </use>
                        <path d="M-4,0h8M0,-4v8" fill="none" stroke="white" stroke-width="1.5" pointer-events="none"/>
                </g>
                <g id="zoomMin">
                        <use xlink:href="#rim" fill="#404040">
                                <set attributeName="fill" to="#808080" begin="zoomminus.mouseover" end="zoomminus.mouseout"/>
                        </use>
                        <path d="M-4,0h8" fill="none" stroke="white" stroke-width="1.5" pointer-events="none"/>
                </g>
                <g id="dirArrow">
                        <path fill="none" stroke="white" stroke-width="1.5" d="M0,-3.0v7 M-2.5,-0.5L0,-3.0L2.5,-0.5"/>
                </g>
               <g id="resetDef">
                       <use xlink:href="#rim2" fill="#404040">
                               <set attributeName="fill" to="#808080" begin="reset.mouseover" end="reset.mouseout"/>
                       </use>
               </g>
        </defs>

<script type="text/javascript">
var viewWidth = 613;
var viewHeight = 285;
var sectionId = 'dynsection-0';
</script>
<script xlink:href="svgpan.js"/>
<svg id="graph" class="graph">
<g id="viewport">
<title>C:/Users/kjones/Documents/SoftwareDev/VulpesSceneKit/third_party/vulpesrender/src/sync/Fence.cpp</title>
<polygon fill="white" stroke="none" points="-4,4 -4,-281 608.52,-281 608.52,4 -4,4"/>
<!-- Node0 -->
<g id="node1" class="node"><title>Node0</title>
<polygon fill="#bfbfbf" stroke="black" points="145.52,-224.5 145.52,-276.5 291.52,-276.5 291.52,-224.5 145.52,-224.5"/>
<text text-anchor="start" x="153.52" y="-264.5" font-family="Helvetica,sans-Serif" font-size="10.00">C:/Users/kjones/Documents</text>
<text text-anchor="start" x="153.52" y="-253.5" font-family="Helvetica,sans-Serif" font-size="10.00">/SoftwareDev/VulpesSceneKit</text>
<text text-anchor="start" x="153.52" y="-242.5" font-family="Helvetica,sans-Serif" font-size="10.00">/third_party/vulpesrender</text>
<text text-anchor="middle" x="218.52" y="-231.5" font-family="Helvetica,sans-Serif" font-size="10.00">/src/sync/Fence.cpp</text>
</g>
<!-- Node1 -->
<g id="node2" class="node"><title>Node1</title>
<g id="a_node2"><a xlink:href="_fence_8hpp.html" target="_top" xlink:title="sync/Fence.hpp">
<polygon fill="white" stroke="black" points="116.52,-168.5 116.52,-187.5 202.52,-187.5 202.52,-168.5 116.52,-168.5"/>
<text text-anchor="middle" x="159.52" y="-175.5" font-family="Helvetica,sans-Serif" font-size="10.00">sync/Fence.hpp</text>
</a>
</g>
</g>
<!-- Node0&#45;&gt;Node1 -->
<g id="edge1" class="edge"><title>Node0&#45;&gt;Node1</title>
<path fill="none" stroke="midnightblue" d="M197.552,-224.446C189.504,-214.828 180.528,-204.103 173.318,-195.488"/>
<polygon fill="midnightblue" stroke="midnightblue" points="175.899,-193.118 166.797,-187.695 170.531,-197.611 175.899,-193.118"/>
</g>
<!-- Node15 -->
<g id="node13" class="node"><title>Node15</title>
<g id="a_node13"><a xlink:href="_logical_device_8hpp.html" target="_top" xlink:title="core/LogicalDevice.hpp">
<polygon fill="white" stroke="black" points="220.52,-168.5 220.52,-187.5 336.52,-187.5 336.52,-168.5 220.52,-168.5"/>
<text text-anchor="middle" x="278.52" y="-175.5" font-family="Helvetica,sans-Serif" font-size="10.00">core/LogicalDevice.hpp</text>
</a>
</g>
</g>
<!-- Node0&#45;&gt;Node15 -->
<g id="edge13" class="edge"><title>Node0&#45;&gt;Node15</title>
<path fill="none" stroke="midnightblue" d="M239.842,-224.446C248.027,-214.828 257.155,-204.103 264.487,-195.488"/>
<polygon fill="midnightblue" stroke="midnightblue" points="267.304,-197.579 271.119,-187.695 261.973,-193.042 267.304,-197.579"/>
</g>
<!-- Node2 -->
<g id="node3" class="node"><title>Node2</title>
<g id="a_node3"><a xlink:href="vpr__stdafx_8h.html" target="_top" xlink:title="vpr_stdafx.h">
<polygon fill="white" stroke="black" points="222.52,-112.5 222.52,-131.5 290.52,-131.5 290.52,-112.5 222.52,-112.5"/>
<text text-anchor="middle" x="256.52" y="-119.5" font-family="Helvetica,sans-Serif" font-size="10.00">vpr_stdafx.h</text>
</a>
</g>
</g>
<!-- Node1&#45;&gt;Node2 -->
<g id="edge2" class="edge"><title>Node1&#45;&gt;Node2</title>
<path fill="none" stroke="midnightblue" d="M175.104,-168.324C190.519,-159.743 214.332,-146.486 232.229,-136.522"/>
<polygon fill="midnightblue" stroke="midnightblue" points="233.939,-139.577 240.974,-131.655 230.534,-133.461 233.939,-139.577"/>
</g>
<!-- Node14 -->
<g id="node12" class="node"><title>Node14</title>
<g id="a_node12"><a xlink:href="_forward_decl_8hpp.html" target="_top" xlink:title="ForwardDecl.hpp">
<polygon fill="white" stroke="black" points="115.02,-112.5 115.02,-131.5 204.02,-131.5 204.02,-112.5 115.02,-112.5"/>
<text text-anchor="middle" x="159.52" y="-119.5" font-family="Helvetica,sans-Serif" font-size="10.00">ForwardDecl.hpp</text>
</a>
</g>
</g>
<!-- Node1&#45;&gt;Node14 -->
<g id="edge12" class="edge"><title>Node1&#45;&gt;Node14</title>
<path fill="none" stroke="midnightblue" d="M159.52,-168.083C159.52,-161.006 159.52,-150.861 159.52,-141.986"/>
<polygon fill="midnightblue" stroke="midnightblue" points="163.02,-141.751 159.52,-131.751 156.02,-141.751 163.02,-141.751"/>
</g>
<!-- Node3 -->
<g id="node4" class="node"><title>Node3</title>
<polygon fill="white" stroke="#bfbfbf" points="8.01974,-0.5 8.01974,-19.5 49.0197,-19.5 49.0197,-0.5 8.01974,-0.5"/>
<text text-anchor="middle" x="28.5197" y="-7.5" font-family="Helvetica,sans-Serif" font-size="10.00">string</text>
</g>
<!-- Node2&#45;&gt;Node3 -->
<g id="edge3" class="edge"><title>Node2&#45;&gt;Node3</title>
<path fill="none" stroke="midnightblue" d="M222.43,-113.923C219.084,-113.26 215.737,-112.609 212.52,-112 166.643,-103.321 35.5737,-111.732 5.51974,-76 -6.22096,-62.0412 4.16328,-41.6711 14.4938,-27.4673"/>
<polygon fill="midnightblue" stroke="midnightblue" points="17.3004,-29.5602 20.7207,-19.5327 11.7936,-25.2386 17.3004,-29.5602"/>
</g>
<!-- Node4 -->
<g id="node5" class="node"><title>Node4</title>
<polygon fill="white" stroke="#bfbfbf" points="146.52,-56.5 146.52,-75.5 188.52,-75.5 188.52,-56.5 146.52,-56.5"/>
<text text-anchor="middle" x="167.52" y="-63.5" font-family="Helvetica,sans-Serif" font-size="10.00">vector</text>
</g>
<!-- Node2&#45;&gt;Node4 -->
<g id="edge4" class="edge"><title>Node2&#45;&gt;Node4</title>
<path fill="none" stroke="midnightblue" d="M242.22,-112.324C228.337,-103.9 207.027,-90.9709 190.716,-81.0741"/>
<polygon fill="midnightblue" stroke="midnightblue" points="192.149,-77.8495 181.784,-75.6545 188.517,-83.8341 192.149,-77.8495"/>
</g>
<!-- Node5 -->
<g id="node6" class="node"><title>Node5</title>
<polygon fill="white" stroke="#bfbfbf" points="206.52,-56.5 206.52,-75.5 244.52,-75.5 244.52,-56.5 206.52,-56.5"/>
<text text-anchor="middle" x="225.52" y="-63.5" font-family="Helvetica,sans-Serif" font-size="10.00">array</text>
</g>
<!-- Node2&#45;&gt;Node5 -->
<g id="edge5" class="edge"><title>Node2&#45;&gt;Node5</title>
<path fill="none" stroke="midnightblue" d="M251.401,-112.083C247.112,-104.613 240.862,-93.7244 235.577,-84.5199"/>
<polygon fill="midnightblue" stroke="midnightblue" points="238.558,-82.6811 230.544,-75.7511 232.487,-86.1662 238.558,-82.6811"/>
</g>
<!-- Node6 -->
<g id="node7" class="node"><title>Node6</title>
<polygon fill="white" stroke="#bfbfbf" points="262.52,-56.5 262.52,-75.5 314.52,-75.5 314.52,-56.5 262.52,-56.5"/>
<text text-anchor="middle" x="288.52" y="-63.5" font-family="Helvetica,sans-Serif" font-size="10.00">memory</text>
</g>
<!-- Node2&#45;&gt;Node6 -->
<g id="edge6" class="edge"><title>Node2&#45;&gt;Node6</title>
<path fill="none" stroke="midnightblue" d="M261.804,-112.083C266.231,-104.613 272.683,-93.7244 278.138,-84.5199"/>
<polygon fill="midnightblue" stroke="midnightblue" points="281.247,-86.1383 283.334,-75.7511 275.225,-82.5697 281.247,-86.1383"/>
</g>
<!-- Node7 -->
<g id="node8" class="node"><title>Node7</title>
<polygon fill="white" stroke="#bfbfbf" points="333.02,-56.5 333.02,-75.5 382.02,-75.5 382.02,-56.5 333.02,-56.5"/>
<text text-anchor="middle" x="357.52" y="-63.5" font-family="Helvetica,sans-Serif" font-size="10.00">cassert</text>
</g>
<!-- Node2&#45;&gt;Node7 -->
<g id="edge7" class="edge"><title>Node2&#45;&gt;Node7</title>
<path fill="none" stroke="midnightblue" d="M272.747,-112.324C288.871,-103.703 313.82,-90.3643 332.484,-80.3855"/>
<polygon fill="midnightblue" stroke="midnightblue" points="334.164,-83.456 341.333,-75.6545 330.864,-77.283 334.164,-83.456"/>
</g>
<!-- Node8 -->
<g id="node9" class="node"><title>Node8</title>
<polygon fill="white" stroke="#bfbfbf" points="400.52,-56.5 400.52,-75.5 444.52,-75.5 444.52,-56.5 400.52,-56.5"/>
<text text-anchor="middle" x="422.52" y="-63.5" font-family="Helvetica,sans-Serif" font-size="10.00">mutex</text>
</g>
<!-- Node2&#45;&gt;Node8 -->
<g id="edge8" class="edge"><title>Node2&#45;&gt;Node8</title>
<path fill="none" stroke="midnightblue" d="M282.823,-112.444C312.108,-102.917 359.431,-87.5228 390.758,-77.3321"/>
<polygon fill="midnightblue" stroke="midnightblue" points="391.897,-80.6422 400.324,-74.2203 389.732,-73.9855 391.897,-80.6422"/>
</g>
<!-- Node9 -->
<g id="node10" class="node"><title>Node9</title>
<g id="a_node10"><a xlink:href="_create_info_base_8hpp.html" target="_top" xlink:title="common/CreateInfoBase.hpp">
<polygon fill="white" stroke="red" points="462.52,-56.5 462.52,-75.5 604.52,-75.5 604.52,-56.5 462.52,-56.5"/>
<text text-anchor="middle" x="533.52" y="-63.5" font-family="Helvetica,sans-Serif" font-size="10.00">common/CreateInfoBase.hpp</text>
</a>
</g>
</g>
<!-- Node2&#45;&gt;Node9 -->
<g id="edge9" class="edge"><title>Node2&#45;&gt;Node9</title>
<path fill="none" stroke="midnightblue" d="M290.622,-113.986C293.966,-113.31 297.308,-112.639 300.52,-112 361.317,-99.9114 431.135,-86.4882 478.368,-77.4749"/>
<polygon fill="midnightblue" stroke="midnightblue" points="479.221,-80.8755 488.388,-75.5643 477.91,-73.9993 479.221,-80.8755"/>
</g>
<!-- Node12 -->
<g id="node11" class="node"><title>Node12</title>
<g id="a_node11"><a xlink:href="vk_assert_8hpp.html" target="_top" xlink:title="common/vkAssert.hpp">
<polygon fill="white" stroke="red" points="15.0197,-56.5 15.0197,-75.5 128.02,-75.5 128.02,-56.5 15.0197,-56.5"/>
<text text-anchor="middle" x="71.5197" y="-63.5" font-family="Helvetica,sans-Serif" font-size="10.00">common/vkAssert.hpp</text>
</a>
</g>
</g>
<!-- Node2&#45;&gt;Node12 -->
<g id="edge10" class="edge"><title>Node2&#45;&gt;Node12</title>
<path fill="none" stroke="midnightblue" d="M227.206,-112.444C195.677,-103.241 145.388,-88.5617 110.534,-78.3879"/>
<polygon fill="midnightblue" stroke="midnightblue" points="111.277,-74.9587 100.696,-75.5164 109.315,-81.6783 111.277,-74.9587"/>
</g>
<!-- Node12&#45;&gt;Node3 -->
<g id="edge11" class="edge"><title>Node12&#45;&gt;Node3</title>
<path fill="none" stroke="midnightblue" d="M64.4192,-56.083C58.2827,-48.3768 49.25,-37.0333 41.7805,-27.6531"/>
<polygon fill="midnightblue" stroke="midnightblue" points="44.4555,-25.3936 35.4882,-19.7511 38.9795,-29.7542 44.4555,-25.3936"/>
</g>
<!-- Node15&#45;&gt;Node2 -->
<g id="edge14" class="edge"><title>Node15&#45;&gt;Node2</title>
<path fill="none" stroke="midnightblue" d="M274.887,-168.083C271.908,-160.77 267.594,-150.181 263.895,-141.103"/>
<polygon fill="midnightblue" stroke="midnightblue" points="267.099,-139.691 260.085,-131.751 260.617,-142.333 267.099,-139.691"/>
</g>
<!-- Node15&#45;&gt;Node14 -->
<g id="edge15" class="edge"><title>Node15&#45;&gt;Node14</title>
<path fill="none" stroke="midnightblue" d="M259.664,-168.444C240.254,-159.636 209.79,-145.812 187.555,-135.722"/>
<polygon fill="midnightblue" stroke="midnightblue" points="188.84,-132.462 178.287,-131.516 185.947,-138.836 188.84,-132.462"/>
</g>
<!-- Node16 -->
<g id="node14" class="node"><title>Node16</title>
<polygon fill="white" stroke="#bfbfbf" points="309.02,-112.5 309.02,-131.5 344.02,-131.5 344.02,-112.5 309.02,-112.5"/>
<text text-anchor="middle" x="326.52" y="-119.5" font-family="Helvetica,sans-Serif" font-size="10.00">map</text>
</g>
<!-- Node15&#45;&gt;Node16 -->
<g id="edge16" class="edge"><title>Node15&#45;&gt;Node16</title>
<path fill="none" stroke="midnightblue" d="M286.446,-168.083C293.366,-160.298 303.585,-148.801 311.972,-139.367"/>
<polygon fill="midnightblue" stroke="midnightblue" points="314.713,-141.55 318.741,-131.751 309.481,-136.9 314.713,-141.55"/>
</g>
</g>
</svg>
        <g id="navigator" transform="translate(0 0)" fill="#404254">
                <rect fill="#f2f5e9" fill-opacity="0.5" stroke="#606060" stroke-width=".5" x="0" y="0" width="60" height="60"/>
                <use id="zoomplus" xlink:href="#zoomPlus" x="17" y="9" onmousedown="handleZoom(evt,'in')"/>
                <use id="zoomminus" xlink:href="#zoomMin" x="42" y="9" onmousedown="handleZoom(evt,'out')"/>
                <use id="reset" xlink:href="#resetDef" x="30" y="36" onmousedown="handleReset()"/>
                <g id="arrowUp" xlink:href="#dirArrow" transform="translate(30 24)" onmousedown="handlePan(0,-1)">
                  <use xlink:href="#rim" fill="#404040">
                        <set attributeName="fill" to="#808080" begin="arrowUp.mouseover" end="arrowUp.mouseout"/>
                  </use>
                  <path fill="none" stroke="white" stroke-width="1.5" d="M0,-3.0v7 M-2.5,-0.5L0,-3.0L2.5,-0.5"/>
                </g>
                <g id="arrowRight" xlink:href="#dirArrow" transform="rotate(90) translate(36 -43)" onmousedown="handlePan(1,0)">
                  <use xlink:href="#rim" fill="#404040">
                        <set attributeName="fill" to="#808080" begin="arrowRight.mouseover" end="arrowRight.mouseout"/>
                  </use>
                  <path fill="none" stroke="white" stroke-width="1.5" d="M0,-3.0v7 M-2.5,-0.5L0,-3.0L2.5,-0.5"/>
                </g>
                <g id="arrowDown" xlink:href="#dirArrow" transform="rotate(180) translate(-30 -48)" onmousedown="handlePan(0,1)">
                  <use xlink:href="#rim" fill="#404040">
                        <set attributeName="fill" to="#808080" begin="arrowDown.mouseover" end="arrowDown.mouseout"/>
                  </use>
                  <path fill="none" stroke="white" stroke-width="1.5" d="M0,-3.0v7 M-2.5,-0.5L0,-3.0L2.5,-0.5"/>
                </g>
                <g id="arrowLeft" xlink:href="#dirArrow" transform="rotate(270) translate(-36 17)" onmousedown="handlePan(-1,0)">
                  <use xlink:href="#rim" fill="#404040">
                        <set attributeName="fill" to="#808080" begin="arrowLeft.mouseover" end="arrowLeft.mouseout"/>
                  </use>
                  <path fill="none" stroke="white" stroke-width="1.5" d="M0,-3.0v7 M-2.5,-0.5L0,-3.0L2.5,-0.5"/>
                </g>
        </g>
        <svg viewBox="0 0 15 15" width="100%" height="30px" preserveAspectRatio="xMaxYMin meet">
         <g id="arrow_out" transform="scale(0.3 0.3)">
          <a xlink:href="_fence_8cpp__incl_org.svg" target="_base">
           <rect id="button" ry="5" rx="5" y="6" x="6" height="38" width="38"
                fill="#f2f5e9" fill-opacity="0.5" stroke="#606060" stroke-width="1.0"/>
           <path id="arrow"
             d="M 11.500037,31.436501 C 11.940474,20.09759 22.043105,11.32322 32.158766,21.979434 L 37.068811,17.246167 C 37.068811,17.246167 37.088388,32 37.088388,32 L 22.160133,31.978069 C 22.160133,31.978069 26.997745,27.140456 26.997745,27.140456 C 18.528582,18.264221 13.291696,25.230495 11.500037,31.436501 z"
             style="fill:#404040;"/>
          </a>
         </g>
        </svg>
</svg>
