<?xml version="1.0" encoding="UTF-8" standalone="no"?>
<!DOCTYPE svg PUBLIC "-//W3C//DTD SVG 1.1//EN"
 "http://www.w3.org/Graphics/SVG/1.1/DTD/svg11.dtd">
<!-- Generated by graphviz version 2.38.0 (20140413.2041)
 -->
<!-- Title: core/src/Instance.cpp Pages: 1 -->
<!--zoomable 196 -->
<svg id="main" version="1.1" xmlns="http://www.w3.org/2000/svg" xmlns:xlink="http://www.w3.org/1999/xlink" xml:space="preserve" onload="init(evt)">
<style type="text/css"><![CDATA[
.edge:hover path { stroke: red; }
.edge:hover polygon { stroke: red; fill: red; }
]]></style>
<script type="text/javascript"><![CDATA[
var edges = document.getElementsByTagName('g');
if (edges && edges.length) {
  for (var i=0;i<edges.length;i++) {
    if (edges[i].id.substr(0,4)=='edge') {
      edges[i].setAttribute('class','edge');
    }
  }
}
]]></script>
        <defs>
                <circle id="rim" cx="0" cy="0" r="7"/>
                <circle id="rim2" cx="0" cy="0" r="3.5"/>
                <g id="zoomPlus">
                        <use xlink:href="#rim" fill="#404040">
                                <set attributeName="fill" to="#808080" begin="zoomplus.mouseover" end="zoomplus.mouseout"/>
                        </use>
                        <path d="M-4,0h8M0,-4v8" fill="none" stroke="white" stroke-width="1.5" pointer-events="none"/>
                </g>
                <g id="zoomMin">
                        <use xlink:href="#rim" fill="#404040">
                                <set attributeName="fill" to="#808080" begin="zoomminus.mouseover" end="zoomminus.mouseout"/>
                        </use>
                        <path d="M-4,0h8" fill="none" stroke="white" stroke-width="1.5" pointer-events="none"/>
                </g>
                <g id="dirArrow">
                        <path fill="none" stroke="white" stroke-width="1.5" d="M0,-3.0v7 M-2.5,-0.5L0,-3.0L2.5,-0.5"/>
                </g>
               <g id="resetDef">
                       <use xlink:href="#rim2" fill="#404040">
                               <set attributeName="fill" to="#808080" begin="reset.mouseover" end="reset.mouseout"/>
                       </use>
               </g>
        </defs>

<script type="text/javascript">
var viewWidth = 863;
var viewHeight = 196;
var sectionId = 'dynsection-0';
</script>
<script xlink:href="svgpan.js"/>
<svg id="graph" class="graph">
<g id="viewport">
<title>core/src/Instance.cpp</title>
<polygon fill="white" stroke="none" points="-4,4 -4,-192 859,-192 859,4 -4,4"/>
<!-- Node0 -->
<g id="node1" class="node"><title>Node0</title>
<polygon fill="#bfbfbf" stroke="black" points="407.5,-168.5 407.5,-187.5 517.5,-187.5 517.5,-168.5 407.5,-168.5"/>
<text text-anchor="middle" x="462.5" y="-175.5" font-family="Helvetica,sans-Serif" font-size="10.00">core/src/Instance.cpp</text>
</g>
<!-- Node1 -->
<g id="node2" class="node"><title>Node1</title>
<g id="a_node2"><a xlink:href="vpr__stdafx_8h.html" target="_top" xlink:title="vpr_stdafx.h">
<polygon fill="white" stroke="black" points="382.5,-56.5 382.5,-75.5 450.5,-75.5 450.5,-56.5 382.5,-56.5"/>
<text text-anchor="middle" x="416.5" y="-63.5" font-family="Helvetica,sans-Serif" font-size="10.00">vpr_stdafx.h</text>
</a>
</g>
</g>
<!-- Node0&#45;&gt;Node1 -->
<g id="edge1" class="edge"><title>Node0&#45;&gt;Node1</title>
<path fill="none" stroke="midnightblue" d="M458.569,-168.415C454.464,-159.391 447.885,-144.76 442.5,-132 435.928,-116.428 428.824,-98.5939 423.705,-85.5499"/>
<polygon fill="midnightblue" stroke="midnightblue" points="426.825,-83.9168 419.927,-75.8746 420.304,-86.4627 426.825,-83.9168"/>
</g>
<!-- Node2 -->
<g id="node3" class="node"><title>Node2</title>
<polygon fill="white" stroke="#bfbfbf" points="290.5,-0.5 290.5,-19.5 372.5,-19.5 372.5,-0.5 290.5,-0.5"/>
<text text-anchor="middle" x="331.5" y="-7.5" font-family="Helvetica,sans-Serif" font-size="10.00">vulkan/vulkan.h</text>
</g>
<!-- Node0&#45;&gt;Node2 -->
<g id="edge21" class="edge"><title>Node0&#45;&gt;Node2</title>
<path fill="none" stroke="midnightblue" d="M506.506,-168.441C526.902,-162.034 549.286,-150.969 561.5,-132 576.707,-108.383 548.324,-64.9426 537.5,-56 514.301,-36.8341 435.939,-23.7258 382.834,-16.7993"/>
<polygon fill="midnightblue" stroke="midnightblue" points="383.264,-13.3259 372.903,-15.5371 382.381,-20.27 383.264,-13.3259"/>
</g>
<!-- Node3 -->
<g id="node4" class="node"><title>Node3</title>
<g id="a_node4"><a xlink:href="_instance_8hpp.html" target="_top" xlink:title="Instance.hpp">
<polygon fill="white" stroke="black" points="323.5,-112.5 323.5,-131.5 395.5,-131.5 395.5,-112.5 323.5,-112.5"/>
<text text-anchor="middle" x="359.5" y="-119.5" font-family="Helvetica,sans-Serif" font-size="10.00">Instance.hpp</text>
</a>
</g>
</g>
<!-- Node0&#45;&gt;Node3 -->
<g id="edge3" class="edge"><title>Node0&#45;&gt;Node3</title>
<path fill="none" stroke="midnightblue" d="M445.951,-168.324C429.508,-159.703 404.065,-146.364 385.032,-136.386"/>
<polygon fill="midnightblue" stroke="midnightblue" points="386.489,-133.198 376.008,-131.655 383.239,-139.398 386.489,-133.198"/>
</g>
<!-- Node5 -->
<g id="node6" class="node"><title>Node5</title>
<g id="a_node6"><a xlink:href="_physical_device_8hpp.html" target="_top" xlink:title="PhysicalDevice.hpp">
<polygon fill="white" stroke="black" points="452,-112.5 452,-131.5 553,-131.5 553,-112.5 452,-112.5"/>
<text text-anchor="middle" x="502.5" y="-119.5" font-family="Helvetica,sans-Serif" font-size="10.00">PhysicalDevice.hpp</text>
</a>
</g>
</g>
<!-- Node0&#45;&gt;Node5 -->
<g id="edge6" class="edge"><title>Node0&#45;&gt;Node5</title>
<path fill="none" stroke="midnightblue" d="M469.105,-168.083C474.755,-160.455 483.045,-149.264 489.951,-139.941"/>
<polygon fill="midnightblue" stroke="midnightblue" points="492.878,-141.87 496.018,-131.751 487.253,-137.703 492.878,-141.87"/>
</g>
<!-- Node7 -->
<g id="node8" class="node"><title>Node7</title>
<g id="a_node8"><a xlink:href="_logical_device_8hpp.html" target="_top" xlink:title="LogicalDevice.hpp">
<polygon fill="white" stroke="black" points="210,-112.5 210,-131.5 305,-131.5 305,-112.5 210,-112.5"/>
<text text-anchor="middle" x="257.5" y="-119.5" font-family="Helvetica,sans-Serif" font-size="10.00">LogicalDevice.hpp</text>
</a>
</g>
</g>
<!-- Node0&#45;&gt;Node7 -->
<g id="edge9" class="edge"><title>Node0&#45;&gt;Node7</title>
<path fill="none" stroke="midnightblue" d="M430.017,-168.444C394.78,-159.162 338.396,-144.309 299.741,-134.127"/>
<polygon fill="midnightblue" stroke="midnightblue" points="300.393,-130.679 289.831,-131.516 298.609,-137.448 300.393,-130.679"/>
</g>
<!-- Node8 -->
<g id="node9" class="node"><title>Node8</title>
<g id="a_node9"><a xlink:href="vk_assert_8hpp.html" target="_top" xlink:title="vkAssert.hpp">
<polygon fill="white" stroke="black" points="119,-112.5 119,-131.5 192,-131.5 192,-112.5 119,-112.5"/>
<text text-anchor="middle" x="155.5" y="-119.5" font-family="Helvetica,sans-Serif" font-size="10.00">vkAssert.hpp</text>
</a>
</g>
</g>
<!-- Node0&#45;&gt;Node8 -->
<g id="edge12" class="edge"><title>Node0&#45;&gt;Node8</title>
<path fill="none" stroke="midnightblue" d="M410.23,-168.454C359.465,-160.056 279.954,-146.648 202.276,-132.296"/>
<polygon fill="midnightblue" stroke="midnightblue" points="202.792,-128.832 192.321,-130.449 201.515,-135.714 202.792,-128.832"/>
</g>
<!-- Node11 -->
<g id="node12" class="node"><title>Node11</title>
<g id="a_node12"><a xlink:href="_create_info_base_8hpp.html" target="_top" xlink:title="CreateInfoBase.hpp">
<polygon fill="white" stroke="black" points="0,-112.5 0,-131.5 101,-131.5 101,-112.5 0,-112.5"/>
<text text-anchor="middle" x="50.5" y="-119.5" font-family="Helvetica,sans-Serif" font-size="10.00">CreateInfoBase.hpp</text>
</a>
</g>
</g>
<!-- Node0&#45;&gt;Node11 -->
<g id="edge16" class="edge"><title>Node0&#45;&gt;Node11</title>
<path fill="none" stroke="midnightblue" d="M407.414,-170.403C339.948,-162.228 221.908,-147.62 111.036,-132.189"/>
<polygon fill="midnightblue" stroke="midnightblue" points="111.407,-128.707 101.019,-130.79 110.438,-135.64 111.407,-128.707"/>
</g>
<!-- Node13 -->
<g id="node14" class="node"><title>Node13</title>
<polygon fill="white" stroke="#bfbfbf" points="610,-112.5 610,-131.5 699,-131.5 699,-112.5 610,-112.5"/>
<text text-anchor="middle" x="654.5" y="-119.5" font-family="Helvetica,sans-Serif" font-size="10.00">easylogging++.h</text>
</g>
<!-- Node0&#45;&gt;Node13 -->
<g id="edge19" class="edge"><title>Node0&#45;&gt;Node13</title>
<path fill="none" stroke="midnightblue" d="M492.923,-168.444C525.785,-159.201 578.285,-144.436 614.474,-134.257"/>
<polygon fill="midnightblue" stroke="midnightblue" points="615.54,-137.593 624.219,-131.516 613.645,-130.855 615.54,-137.593"/>
</g>
<!-- Node14 -->
<g id="node15" class="node"><title>Node14</title>
<polygon fill="white" stroke="#bfbfbf" points="717.5,-112.5 717.5,-131.5 795.5,-131.5 795.5,-112.5 717.5,-112.5"/>
<text text-anchor="middle" x="756.5" y="-119.5" font-family="Helvetica,sans-Serif" font-size="10.00">GLFW/glfw3.h</text>
</g>
<!-- Node0&#45;&gt;Node14 -->
<g id="edge20" class="edge"><title>Node0&#45;&gt;Node14</title>
<path fill="none" stroke="midnightblue" d="M509.671,-168.435C557.072,-159.814 632.51,-146.055 707.39,-132.199"/>
<polygon fill="midnightblue" stroke="midnightblue" points="708.274,-135.595 717.47,-130.333 707,-128.712 708.274,-135.595"/>
</g>
<!-- Node15 -->
<g id="node16" class="node"><title>Node15</title>
<polygon fill="white" stroke="#bfbfbf" points="814,-112.5 814,-131.5 855,-131.5 855,-112.5 814,-112.5"/>
<text text-anchor="middle" x="834.5" y="-119.5" font-family="Helvetica,sans-Serif" font-size="10.00">string</text>
</g>
<!-- Node0&#45;&gt;Node15 -->
<g id="edge22" class="edge"><title>Node0&#45;&gt;Node15</title>
<path fill="none" stroke="midnightblue" d="M517.755,-172.482C583.701,-166.48 697.371,-154.203 803.993,-131.768"/>
<polygon fill="midnightblue" stroke="midnightblue" points="804.909,-135.151 813.956,-129.637 803.445,-128.306 804.909,-135.151"/>
</g>
<!-- Node1&#45;&gt;Node2 -->
<g id="edge2" class="edge"><title>Node1&#45;&gt;Node2</title>
<path fill="none" stroke="midnightblue" d="M402.843,-56.324C389.584,-47.9002 369.232,-34.9709 353.654,-25.0741"/>
<polygon fill="midnightblue" stroke="midnightblue" points="355.44,-22.0626 345.123,-19.6545 351.687,-27.9711 355.44,-22.0626"/>
</g>
<!-- Node3&#45;&gt;Node1 -->
<g id="edge4" class="edge"><title>Node3&#45;&gt;Node1</title>
<path fill="none" stroke="midnightblue" d="M368.658,-112.324C377.001,-104.42 389.532,-92.5482 399.677,-82.9377"/>
<polygon fill="midnightblue" stroke="midnightblue" points="402.323,-85.2522 407.175,-75.8339 397.509,-80.1705 402.323,-85.2522"/>
</g>
<!-- Node4 -->
<g id="node5" class="node"><title>Node4</title>
<g id="a_node5"><a xlink:href="_forward_decl_8hpp.html" target="_top" xlink:title="ForwardDecl.hpp">
<polygon fill="white" stroke="black" points="275,-56.5 275,-75.5 364,-75.5 364,-56.5 275,-56.5"/>
<text text-anchor="middle" x="319.5" y="-63.5" font-family="Helvetica,sans-Serif" font-size="10.00">ForwardDecl.hpp</text>
</a>
</g>
</g>
<!-- Node3&#45;&gt;Node4 -->
<g id="edge5" class="edge"><title>Node3&#45;&gt;Node4</title>
<path fill="none" stroke="midnightblue" d="M352.895,-112.083C347.245,-104.455 338.955,-93.2645 332.049,-83.9408"/>
<polygon fill="midnightblue" stroke="midnightblue" points="334.747,-81.7034 325.982,-75.7511 329.122,-85.87 334.747,-81.7034"/>
</g>
<!-- Node5&#45;&gt;Node1 -->
<g id="edge7" class="edge"><title>Node5&#45;&gt;Node1</title>
<path fill="none" stroke="midnightblue" d="M488.683,-112.324C475.267,-103.9 454.676,-90.9709 438.914,-81.0741"/>
<polygon fill="midnightblue" stroke="midnightblue" points="440.613,-78.0081 430.283,-75.6545 436.891,-83.9364 440.613,-78.0081"/>
</g>
<!-- Node6 -->
<g id="node7" class="node"><title>Node6</title>
<polygon fill="white" stroke="#bfbfbf" points="476.5,-56.5 476.5,-75.5 528.5,-75.5 528.5,-56.5 476.5,-56.5"/>
<text text-anchor="middle" x="502.5" y="-63.5" font-family="Helvetica,sans-Serif" font-size="10.00">memory</text>
</g>
<!-- Node5&#45;&gt;Node6 -->
<g id="edge8" class="edge"><title>Node5&#45;&gt;Node6</title>
<path fill="none" stroke="midnightblue" d="M502.5,-112.083C502.5,-105.006 502.5,-94.8611 502.5,-85.9865"/>
<polygon fill="midnightblue" stroke="midnightblue" points="506,-85.751 502.5,-75.7511 499,-85.7511 506,-85.751"/>
</g>
<!-- Node7&#45;&gt;Node1 -->
<g id="edge10" class="edge"><title>Node7&#45;&gt;Node1</title>
<path fill="none" stroke="midnightblue" d="M282.694,-112.444C309.443,-103.359 351.903,-88.9388 381.805,-78.7831"/>
<polygon fill="midnightblue" stroke="midnightblue" points="383.081,-82.0464 391.424,-75.5164 380.829,-75.4182 383.081,-82.0464"/>
</g>
<!-- Node7&#45;&gt;Node4 -->
<g id="edge11" class="edge"><title>Node7&#45;&gt;Node4</title>
<path fill="none" stroke="midnightblue" d="M267.461,-112.324C276.627,-104.341 290.437,-92.3128 301.528,-82.6529"/>
<polygon fill="midnightblue" stroke="midnightblue" points="304.115,-85.041 309.357,-75.8339 299.518,-79.7624 304.115,-85.041"/>
</g>
<!-- Node8&#45;&gt;Node2 -->
<g id="edge15" class="edge"><title>Node8&#45;&gt;Node2</title>
<path fill="none" stroke="midnightblue" d="M169.31,-112.368C199.641,-93.4121 272.299,-48.0006 309.192,-24.9424"/>
<polygon fill="midnightblue" stroke="midnightblue" points="311.129,-27.8595 317.754,-19.5914 307.419,-21.9235 311.129,-27.8595"/>
</g>
<!-- Node9 -->
<g id="node10" class="node"><title>Node9</title>
<polygon fill="white" stroke="#bfbfbf" points="96.5,-56.5 96.5,-75.5 150.5,-75.5 150.5,-56.5 96.5,-56.5"/>
<text text-anchor="middle" x="123.5" y="-63.5" font-family="Helvetica,sans-Serif" font-size="10.00">iostream</text>
</g>
<!-- Node8&#45;&gt;Node9 -->
<g id="edge13" class="edge"><title>Node8&#45;&gt;Node9</title>
<path fill="none" stroke="midnightblue" d="M150.216,-112.083C145.789,-104.613 139.337,-93.7244 133.882,-84.5199"/>
<polygon fill="midnightblue" stroke="midnightblue" points="136.795,-82.5697 128.686,-75.7511 130.773,-86.1383 136.795,-82.5697"/>
</g>
<!-- Node10 -->
<g id="node11" class="node"><title>Node10</title>
<polygon fill="white" stroke="#bfbfbf" points="169,-56.5 169,-75.5 218,-75.5 218,-56.5 169,-56.5"/>
<text text-anchor="middle" x="193.5" y="-63.5" font-family="Helvetica,sans-Serif" font-size="10.00">cassert</text>
</g>
<!-- Node8&#45;&gt;Node10 -->
<g id="edge14" class="edge"><title>Node8&#45;&gt;Node10</title>
<path fill="none" stroke="midnightblue" d="M161.775,-112.083C167.142,-104.455 175.018,-93.2645 181.579,-83.9408"/>
<polygon fill="midnightblue" stroke="midnightblue" points="184.449,-85.9434 187.342,-75.7511 178.725,-81.9149 184.449,-85.9434"/>
</g>
<!-- Node11&#45;&gt;Node2 -->
<g id="edge18" class="edge"><title>Node11&#45;&gt;Node2</title>
<path fill="none" stroke="midnightblue" d="M43.0701,-112.389C32.3346,-98.8758 15.2528,-72.5275 29.5,-56 61.2576,-19.1597 202.67,-12.0129 280.209,-10.9194"/>
<polygon fill="midnightblue" stroke="midnightblue" points="280.291,-14.4188 290.251,-10.8066 280.212,-7.41923 280.291,-14.4188"/>
</g>
<!-- Node12 -->
<g id="node13" class="node"><title>Node12</title>
<polygon fill="white" stroke="#bfbfbf" points="38.5,-56.5 38.5,-75.5 78.5,-75.5 78.5,-56.5 38.5,-56.5"/>
<text text-anchor="middle" x="58.5" y="-63.5" font-family="Helvetica,sans-Serif" font-size="10.00">limits</text>
</g>
<!-- Node11&#45;&gt;Node12 -->
<g id="edge17" class="edge"><title>Node11&#45;&gt;Node12</title>
<path fill="none" stroke="midnightblue" d="M51.821,-112.083C52.8811,-104.927 54.4059,-94.6353 55.7309,-85.6911"/>
<polygon fill="midnightblue" stroke="midnightblue" points="59.2002,-86.1561 57.2035,-75.7511 52.2758,-85.1302 59.2002,-86.1561"/>
</g>
</g>
</svg>
        <g id="navigator" transform="translate(0 0)" fill="#404254">
                <rect fill="#f2f5e9" fill-opacity="0.5" stroke="#606060" stroke-width=".5" x="0" y="0" width="60" height="60"/>
                <use id="zoomplus" xlink:href="#zoomPlus" x="17" y="9" onmousedown="handleZoom(evt,'in')"/>
                <use id="zoomminus" xlink:href="#zoomMin" x="42" y="9" onmousedown="handleZoom(evt,'out')"/>
                <use id="reset" xlink:href="#resetDef" x="30" y="36" onmousedown="handleReset()"/>
                <g id="arrowUp" xlink:href="#dirArrow" transform="translate(30 24)" onmousedown="handlePan(0,-1)">
                  <use xlink:href="#rim" fill="#404040">
                        <set attributeName="fill" to="#808080" begin="arrowUp.mouseover" end="arrowUp.mouseout"/>
                  </use>
                  <path fill="none" stroke="white" stroke-width="1.5" d="M0,-3.0v7 M-2.5,-0.5L0,-3.0L2.5,-0.5"/>
                </g>
                <g id="arrowRight" xlink:href="#dirArrow" transform="rotate(90) translate(36 -43)" onmousedown="handlePan(1,0)">
                  <use xlink:href="#rim" fill="#404040">
                        <set attributeName="fill" to="#808080" begin="arrowRight.mouseover" end="arrowRight.mouseout"/>
                  </use>
                  <path fill="none" stroke="white" stroke-width="1.5" d="M0,-3.0v7 M-2.5,-0.5L0,-3.0L2.5,-0.5"/>
                </g>
                <g id="arrowDown" xlink:href="#dirArrow" transform="rotate(180) translate(-30 -48)" onmousedown="handlePan(0,1)">
                  <use xlink:href="#rim" fill="#404040">
                        <set attributeName="fill" to="#808080" begin="arrowDown.mouseover" end="arrowDown.mouseout"/>
                  </use>
                  <path fill="none" stroke="white" stroke-width="1.5" d="M0,-3.0v7 M-2.5,-0.5L0,-3.0L2.5,-0.5"/>
                </g>
                <g id="arrowLeft" xlink:href="#dirArrow" transform="rotate(270) translate(-36 17)" onmousedown="handlePan(-1,0)">
                  <use xlink:href="#rim" fill="#404040">
                        <set attributeName="fill" to="#808080" begin="arrowLeft.mouseover" end="arrowLeft.mouseout"/>
                  </use>
                  <path fill="none" stroke="white" stroke-width="1.5" d="M0,-3.0v7 M-2.5,-0.5L0,-3.0L2.5,-0.5"/>
                </g>
        </g>
        <svg viewBox="0 0 15 15" width="100%" height="30px" preserveAspectRatio="xMaxYMin meet">
         <g id="arrow_out" transform="scale(0.3 0.3)">
          <a xlink:href="_instance_8cpp__incl_org.svg" target="_base">
           <rect id="button" ry="5" rx="5" y="6" x="6" height="38" width="38"
                fill="#f2f5e9" fill-opacity="0.5" stroke="#606060" stroke-width="1.0"/>
           <path id="arrow"
             d="M 11.500037,31.436501 C 11.940474,20.09759 22.043105,11.32322 32.158766,21.979434 L 37.068811,17.246167 C 37.068811,17.246167 37.088388,32 37.088388,32 L 22.160133,31.978069 C 22.160133,31.978069 26.997745,27.140456 26.997745,27.140456 C 18.528582,18.264221 13.291696,25.230495 11.500037,31.436501 z"
             style="fill:#404040;"/>
          </a>
         </g>
        </svg>
</svg>
