<?xml version="1.0" encoding="UTF-8" standalone="no"?>
<!DOCTYPE svg PUBLIC "-//W3C//DTD SVG 1.1//EN"
 "http://www.w3.org/Graphics/SVG/1.1/DTD/svg11.dtd">
<!-- Generated by graphviz version 2.38.0 (20140413.2041)
 -->
<!-- Title: core/include/LogicalDevice.hpp Pages: 1 -->
<svg width="409pt" height="84pt"
 viewBox="0.00 0.00 408.50 84.00" xmlns="http://www.w3.org/2000/svg" xmlns:xlink="http://www.w3.org/1999/xlink">
<g id="graph0" class="graph" transform="scale(1 1) rotate(0) translate(4 80)">
<title>core/include/LogicalDevice.hpp</title>
<polygon fill="white" stroke="none" points="-4,4 -4,-80 404.5,-80 404.5,4 -4,4"/>
<!-- Node4 -->
<g id="node1" class="node"><title>Node4</title>
<polygon fill="#bfbfbf" stroke="black" points="120,-56.5 120,-75.5 270,-75.5 270,-56.5 120,-56.5"/>
<text text-anchor="middle" x="195" y="-63.5" font-family="Helvetica,sans-Serif" font-size="10.00">core/include/LogicalDevice.hpp</text>
</g>
<!-- Node5 -->
<g id="node2" class="node"><title>Node5</title>
<g id="a_node2"><a xlink:href="_instance_8cpp.html" target="_top" xlink:title="core/src/Instance.cpp">
<polygon fill="white" stroke="black" points="0,-0.5 0,-19.5 110,-19.5 110,-0.5 0,-0.5"/>
<text text-anchor="middle" x="55" y="-7.5" font-family="Helvetica,sans-Serif" font-size="10.00">core/src/Instance.cpp</text>
</a>
</g>
</g>
<!-- Node4&#45;&gt;Node5 -->
<g id="edge1" class="edge"><title>Node4&#45;&gt;Node5</title>
<path fill="none" stroke="midnightblue" d="M163.298,-52.772C137,-42.6287 100.284,-28.4669 77.0796,-19.5164"/>
<polygon fill="midnightblue" stroke="midnightblue" points="162.227,-56.1103 172.817,-56.4435 164.746,-49.5792 162.227,-56.1103"/>
</g>
<!-- Node6 -->
<g id="node3" class="node"><title>Node6</title>
<g id="a_node3"><a xlink:href="_logical_device_8cpp.html" target="_top" xlink:title="core/src/LogicalDevice.cpp">
<polygon fill="white" stroke="black" points="128.5,-0.5 128.5,-19.5 261.5,-19.5 261.5,-0.5 128.5,-0.5"/>
<text text-anchor="middle" x="195" y="-7.5" font-family="Helvetica,sans-Serif" font-size="10.00">core/src/LogicalDevice.cpp</text>
</a>
</g>
</g>
<!-- Node4&#45;&gt;Node6 -->
<g id="edge2" class="edge"><title>Node4&#45;&gt;Node6</title>
<path fill="none" stroke="midnightblue" d="M195,-45.8045C195,-36.9102 195,-26.7798 195,-19.7511"/>
<polygon fill="midnightblue" stroke="midnightblue" points="191.5,-46.083 195,-56.083 198.5,-46.083 191.5,-46.083"/>
</g>
<!-- Node7 -->
<g id="node4" class="node"><title>Node7</title>
<g id="a_node4"><a xlink:href="_swapchain_8cpp.html" target="_top" xlink:title="core/src/Swapchain.cpp">
<polygon fill="white" stroke="black" points="279.5,-0.5 279.5,-19.5 400.5,-19.5 400.5,-0.5 279.5,-0.5"/>
<text text-anchor="middle" x="340" y="-7.5" font-family="Helvetica,sans-Serif" font-size="10.00">core/src/Swapchain.cpp</text>
</a>
</g>
</g>
<!-- Node4&#45;&gt;Node7 -->
<g id="edge3" class="edge"><title>Node4&#45;&gt;Node7</title>
<path fill="none" stroke="midnightblue" d="M227.475,-52.9058C254.736,-42.7536 292.992,-28.5063 317.132,-19.5164"/>
<polygon fill="midnightblue" stroke="midnightblue" points="226.125,-49.6736 217.976,-56.4435 228.568,-56.2334 226.125,-49.6736"/>
</g>
</g>
</svg>
