<?xml version="1.0" encoding="UTF-8" standalone="no"?>
<!DOCTYPE svg PUBLIC "-//W3C//DTD SVG 1.1//EN"
 "http://www.w3.org/Graphics/SVG/1.1/DTD/svg11.dtd">
<!-- Generated by graphviz version 2.38.0 (20140413.2041)
 -->
<!-- Title: core/src/LogicalDevice.cpp Pages: 1 -->
<svg width="879pt" height="196pt"
 viewBox="0.00 0.00 878.63 196.00" xmlns="http://www.w3.org/2000/svg" xmlns:xlink="http://www.w3.org/1999/xlink">
<g id="graph0" class="graph" transform="scale(1 1) rotate(0) translate(4 192)">
<title>core/src/LogicalDevice.cpp</title>
<polygon fill="white" stroke="none" points="-4,4 -4,-192 874.627,-192 874.627,4 -4,4"/>
<!-- Node0 -->
<g id="node1" class="node"><title>Node0</title>
<polygon fill="#bfbfbf" stroke="black" points="437.627,-168.5 437.627,-187.5 570.627,-187.5 570.627,-168.5 437.627,-168.5"/>
<text text-anchor="middle" x="504.127" y="-175.5" font-family="Helvetica,sans-Serif" font-size="10.00">core/src/LogicalDevice.cpp</text>
</g>
<!-- Node1 -->
<g id="node2" class="node"><title>Node1</title>
<g id="a_node2"><a xlink:href="vpr__stdafx_8h.html" target="_top" xlink:title="vpr_stdafx.h">
<polygon fill="white" stroke="black" points="272.127,-56.5 272.127,-75.5 340.127,-75.5 340.127,-56.5 272.127,-56.5"/>
<text text-anchor="middle" x="306.127" y="-63.5" font-family="Helvetica,sans-Serif" font-size="10.00">vpr_stdafx.h</text>
</a>
</g>
</g>
<!-- Node0&#45;&gt;Node1 -->
<g id="edge1" class="edge"><title>Node0&#45;&gt;Node1</title>
<path fill="none" stroke="midnightblue" d="M444.095,-168.434C398.982,-160.831 342.152,-148.389 325.127,-132 312.695,-120.033 308.273,-100.424 306.762,-85.8678"/>
<polygon fill="midnightblue" stroke="midnightblue" points="310.23,-85.2674 306.078,-75.5203 303.246,-85.7296 310.23,-85.2674"/>
</g>
<!-- Node3 -->
<g id="node4" class="node"><title>Node3</title>
<g id="a_node4"><a xlink:href="_logical_device_8hpp.html" target="_top" xlink:title="LogicalDevice.hpp">
<polygon fill="white" stroke="black" points="182.627,-112.5 182.627,-131.5 277.627,-131.5 277.627,-112.5 182.627,-112.5"/>
<text text-anchor="middle" x="230.127" y="-119.5" font-family="Helvetica,sans-Serif" font-size="10.00">LogicalDevice.hpp</text>
</a>
</g>
</g>
<!-- Node0&#45;&gt;Node3 -->
<g id="edge3" class="edge"><title>Node0&#45;&gt;Node3</title>
<path fill="none" stroke="midnightblue" d="M460.711,-168.444C412.611,-158.964 335.032,-143.675 283.321,-133.483"/>
<polygon fill="midnightblue" stroke="midnightblue" points="283.828,-130.016 273.34,-131.516 282.474,-136.884 283.828,-130.016"/>
</g>
<!-- Node5 -->
<g id="node6" class="node"><title>Node5</title>
<g id="a_node6"><a xlink:href="_vk_debug_utils_8hpp.html" target="_top" xlink:title="VkDebugUtils.hpp">
<polygon fill="white" stroke="black" points="535.627,-56.5 535.627,-75.5 630.627,-75.5 630.627,-56.5 535.627,-56.5"/>
<text text-anchor="middle" x="583.127" y="-63.5" font-family="Helvetica,sans-Serif" font-size="10.00">VkDebugUtils.hpp</text>
</a>
</g>
</g>
<!-- Node0&#45;&gt;Node5 -->
<g id="edge6" class="edge"><title>Node0&#45;&gt;Node5</title>
<path fill="none" stroke="midnightblue" d="M520.412,-168.397C533.718,-160.576 552.075,-147.851 563.127,-132 572.728,-118.229 577.834,-99.7033 580.476,-85.953"/>
<polygon fill="midnightblue" stroke="midnightblue" points="583.987,-86.1713 582.16,-75.7351 577.08,-85.0326 583.987,-86.1713"/>
</g>
<!-- Node6 -->
<g id="node7" class="node"><title>Node6</title>
<g id="a_node7"><a xlink:href="_physical_device_8hpp.html" target="_top" xlink:title="PhysicalDevice.hpp">
<polygon fill="white" stroke="black" points="334.627,-112.5 334.627,-131.5 435.627,-131.5 435.627,-112.5 334.627,-112.5"/>
<text text-anchor="middle" x="385.127" y="-119.5" font-family="Helvetica,sans-Serif" font-size="10.00">PhysicalDevice.hpp</text>
</a>
</g>
</g>
<!-- Node0&#45;&gt;Node6 -->
<g id="edge8" class="edge"><title>Node0&#45;&gt;Node6</title>
<path fill="none" stroke="midnightblue" d="M485.271,-168.444C465.861,-159.636 435.397,-145.812 413.162,-135.722"/>
<polygon fill="midnightblue" stroke="midnightblue" points="414.447,-132.462 403.894,-131.516 411.554,-138.836 414.447,-132.462"/>
</g>
<!-- Node8 -->
<g id="node9" class="node"><title>Node8</title>
<g id="a_node9"><a xlink:href="_instance_8hpp.html" target="_top" xlink:title="Instance.hpp">
<polygon fill="white" stroke="black" points="92.1266,-112.5 92.1266,-131.5 164.127,-131.5 164.127,-112.5 92.1266,-112.5"/>
<text text-anchor="middle" x="128.127" y="-119.5" font-family="Helvetica,sans-Serif" font-size="10.00">Instance.hpp</text>
</a>
</g>
</g>
<!-- Node0&#45;&gt;Node8 -->
<g id="edge11" class="edge"><title>Node0&#45;&gt;Node8</title>
<path fill="none" stroke="midnightblue" d="M437.373,-169.164C372.616,-161.28 271.35,-148.212 174.411,-132.132"/>
<polygon fill="midnightblue" stroke="midnightblue" points="174.88,-128.662 164.44,-130.464 173.726,-135.566 174.88,-128.662"/>
</g>
<!-- Node9 -->
<g id="node10" class="node"><title>Node9</title>
<g id="a_node10"><a xlink:href="vk_assert_8hpp.html" target="_top" xlink:title="vkAssert.hpp">
<polygon fill="white" stroke="black" points="0.626627,-112.5 0.626627,-131.5 73.6266,-131.5 73.6266,-112.5 0.626627,-112.5"/>
<text text-anchor="middle" x="37.1266" y="-119.5" font-family="Helvetica,sans-Serif" font-size="10.00">vkAssert.hpp</text>
</a>
</g>
</g>
<!-- Node0&#45;&gt;Node9 -->
<g id="edge14" class="edge"><title>Node0&#45;&gt;Node9</title>
<path fill="none" stroke="midnightblue" d="M437.544,-171.679C356.471,-164.799 215.18,-151.516 83.9684,-131.998"/>
<polygon fill="midnightblue" stroke="midnightblue" points="84.1443,-128.485 73.7351,-130.46 83.1038,-135.407 84.1443,-128.485"/>
</g>
<!-- Node12 -->
<g id="node13" class="node"><title>Node12</title>
<g id="a_node13"><a xlink:href="_create_info_base_8hpp.html" target="_top" xlink:title="CreateInfoBase.hpp">
<polygon fill="white" stroke="black" points="453.627,-112.5 453.627,-131.5 554.627,-131.5 554.627,-112.5 453.627,-112.5"/>
<text text-anchor="middle" x="504.127" y="-119.5" font-family="Helvetica,sans-Serif" font-size="10.00">CreateInfoBase.hpp</text>
</a>
</g>
</g>
<!-- Node0&#45;&gt;Node12 -->
<g id="edge18" class="edge"><title>Node0&#45;&gt;Node12</title>
<path fill="none" stroke="midnightblue" d="M504.127,-168.083C504.127,-161.006 504.127,-150.861 504.127,-141.986"/>
<polygon fill="midnightblue" stroke="midnightblue" points="507.627,-141.751 504.127,-131.751 500.627,-141.751 507.627,-141.751"/>
</g>
<!-- Node14 -->
<g id="node15" class="node"><title>Node14</title>
<polygon fill="white" stroke="#bfbfbf" points="611.627,-112.5 611.627,-131.5 700.627,-131.5 700.627,-112.5 611.627,-112.5"/>
<text text-anchor="middle" x="656.127" y="-119.5" font-family="Helvetica,sans-Serif" font-size="10.00">easylogging++.h</text>
</g>
<!-- Node0&#45;&gt;Node14 -->
<g id="edge21" class="edge"><title>Node0&#45;&gt;Node14</title>
<path fill="none" stroke="midnightblue" d="M528.211,-168.444C553.671,-159.399 594.02,-145.064 622.586,-134.916"/>
<polygon fill="midnightblue" stroke="midnightblue" points="623.903,-138.162 632.154,-131.516 621.56,-131.566 623.903,-138.162"/>
</g>
<!-- Node15 -->
<g id="node16" class="node"><title>Node15</title>
<polygon fill="white" stroke="#bfbfbf" points="719.127,-112.5 719.127,-131.5 757.127,-131.5 757.127,-112.5 719.127,-112.5"/>
<text text-anchor="middle" x="738.127" y="-119.5" font-family="Helvetica,sans-Serif" font-size="10.00">array</text>
</g>
<!-- Node0&#45;&gt;Node15 -->
<g id="edge22" class="edge"><title>Node0&#45;&gt;Node15</title>
<path fill="none" stroke="midnightblue" d="M549.03,-168.483C588.834,-160.644 648.698,-148.151 709.205,-132.055"/>
<polygon fill="midnightblue" stroke="midnightblue" points="710.172,-135.42 718.919,-129.442 708.353,-128.66 710.172,-135.42"/>
</g>
<!-- Node16 -->
<g id="node17" class="node"><title>Node16</title>
<polygon fill="white" stroke="#bfbfbf" points="775.127,-112.5 775.127,-131.5 817.127,-131.5 817.127,-112.5 775.127,-112.5"/>
<text text-anchor="middle" x="796.127" y="-119.5" font-family="Helvetica,sans-Serif" font-size="10.00">vector</text>
</g>
<!-- Node0&#45;&gt;Node16 -->
<g id="edge23" class="edge"><title>Node0&#45;&gt;Node16</title>
<path fill="none" stroke="midnightblue" d="M566.49,-168.466C617.551,-160.984 691.795,-148.975 765.049,-132.026"/>
<polygon fill="midnightblue" stroke="midnightblue" points="765.971,-135.405 774.907,-129.713 764.372,-128.59 765.971,-135.405"/>
</g>
<!-- Node17 -->
<g id="node18" class="node"><title>Node17</title>
<polygon fill="white" stroke="#bfbfbf" points="835.627,-112.5 835.627,-131.5 870.627,-131.5 870.627,-112.5 835.627,-112.5"/>
<text text-anchor="middle" x="853.127" y="-119.5" font-family="Helvetica,sans-Serif" font-size="10.00">map</text>
</g>
<!-- Node0&#45;&gt;Node17 -->
<g id="edge24" class="edge"><title>Node0&#45;&gt;Node17</title>
<path fill="none" stroke="midnightblue" d="M570.766,-171.277C634.102,-165.028 732.046,-153.262 825.624,-131.702"/>
<polygon fill="midnightblue" stroke="midnightblue" points="826.604,-135.067 835.541,-129.376 825.006,-128.252 826.604,-135.067"/>
</g>
<!-- Node2 -->
<g id="node3" class="node"><title>Node2</title>
<polygon fill="white" stroke="#bfbfbf" points="334.127,-0.5 334.127,-19.5 416.127,-19.5 416.127,-0.5 334.127,-0.5"/>
<text text-anchor="middle" x="375.127" y="-7.5" font-family="Helvetica,sans-Serif" font-size="10.00">vulkan/vulkan.h</text>
</g>
<!-- Node1&#45;&gt;Node2 -->
<g id="edge2" class="edge"><title>Node1&#45;&gt;Node2</title>
<path fill="none" stroke="midnightblue" d="M317.213,-56.324C327.613,-48.1849 343.387,-35.8395 355.848,-26.0874"/>
<polygon fill="midnightblue" stroke="midnightblue" points="358.121,-28.7533 363.839,-19.8339 353.807,-23.2407 358.121,-28.7533"/>
</g>
<!-- Node3&#45;&gt;Node1 -->
<g id="edge4" class="edge"><title>Node3&#45;&gt;Node1</title>
<path fill="none" stroke="midnightblue" d="M242.337,-112.324C253.903,-104.107 271.502,-91.6017 285.287,-81.8069"/>
<polygon fill="midnightblue" stroke="midnightblue" points="287.569,-84.4791 293.694,-75.8339 283.515,-78.7729 287.569,-84.4791"/>
</g>
<!-- Node4 -->
<g id="node5" class="node"><title>Node4</title>
<g id="a_node5"><a xlink:href="_forward_decl_8hpp.html" target="_top" xlink:title="ForwardDecl.hpp">
<polygon fill="white" stroke="black" points="160.627,-56.5 160.627,-75.5 249.627,-75.5 249.627,-56.5 160.627,-56.5"/>
<text text-anchor="middle" x="205.127" y="-63.5" font-family="Helvetica,sans-Serif" font-size="10.00">ForwardDecl.hpp</text>
</a>
</g>
</g>
<!-- Node3&#45;&gt;Node4 -->
<g id="edge5" class="edge"><title>Node3&#45;&gt;Node4</title>
<path fill="none" stroke="midnightblue" d="M225.998,-112.083C222.613,-104.77 217.711,-94.1814 213.508,-85.1034"/>
<polygon fill="midnightblue" stroke="midnightblue" points="216.555,-83.3553 209.178,-75.7511 210.203,-86.2962 216.555,-83.3553"/>
</g>
<!-- Node5&#45;&gt;Node2 -->
<g id="edge7" class="edge"><title>Node5&#45;&gt;Node2</title>
<path fill="none" stroke="midnightblue" d="M550.168,-56.4435C514.34,-47.1419 456.963,-32.246 417.736,-22.062"/>
<polygon fill="midnightblue" stroke="midnightblue" points="418.489,-18.6417 407.931,-19.5164 416.73,-25.4171 418.489,-18.6417"/>
</g>
<!-- Node6&#45;&gt;Node1 -->
<g id="edge9" class="edge"><title>Node6&#45;&gt;Node1</title>
<path fill="none" stroke="midnightblue" d="M372.434,-112.324C360.225,-103.979 341.548,-91.2122 327.124,-81.3524"/>
<polygon fill="midnightblue" stroke="midnightblue" points="329.019,-78.4082 318.788,-75.6545 325.068,-84.1871 329.019,-78.4082"/>
</g>
<!-- Node7 -->
<g id="node8" class="node"><title>Node7</title>
<polygon fill="white" stroke="#bfbfbf" points="359.127,-56.5 359.127,-75.5 411.127,-75.5 411.127,-56.5 359.127,-56.5"/>
<text text-anchor="middle" x="385.127" y="-63.5" font-family="Helvetica,sans-Serif" font-size="10.00">memory</text>
</g>
<!-- Node6&#45;&gt;Node7 -->
<g id="edge10" class="edge"><title>Node6&#45;&gt;Node7</title>
<path fill="none" stroke="midnightblue" d="M385.127,-112.083C385.127,-105.006 385.127,-94.8611 385.127,-85.9865"/>
<polygon fill="midnightblue" stroke="midnightblue" points="388.627,-85.751 385.127,-75.7511 381.627,-85.7511 388.627,-85.751"/>
</g>
<!-- Node8&#45;&gt;Node1 -->
<g id="edge12" class="edge"><title>Node8&#45;&gt;Node1</title>
<path fill="none" stroke="midnightblue" d="M156.331,-112.444C186.537,-103.28 234.638,-88.6876 268.156,-78.5192"/>
<polygon fill="midnightblue" stroke="midnightblue" points="269.501,-81.7688 278.054,-75.5164 267.469,-75.0703 269.501,-81.7688"/>
</g>
<!-- Node8&#45;&gt;Node4 -->
<g id="edge13" class="edge"><title>Node8&#45;&gt;Node4</title>
<path fill="none" stroke="midnightblue" d="M140.498,-112.324C152.285,-104.058 170.259,-91.4527 184.262,-81.6322"/>
<polygon fill="midnightblue" stroke="midnightblue" points="186.608,-84.2619 192.786,-75.6545 182.589,-78.5307 186.608,-84.2619"/>
</g>
<!-- Node9&#45;&gt;Node2 -->
<g id="edge17" class="edge"><title>Node9&#45;&gt;Node2</title>
<path fill="none" stroke="midnightblue" d="M26.8461,-112.142C12.5253,-98.7601 -10.052,-73.1365 5.12663,-56 25.9028,-32.5439 227.05,-18.8214 323.734,-13.5311"/>
<polygon fill="midnightblue" stroke="midnightblue" points="324.075,-17.0179 333.872,-12.9863 323.699,-10.028 324.075,-17.0179"/>
</g>
<!-- Node10 -->
<g id="node11" class="node"><title>Node10</title>
<polygon fill="white" stroke="#bfbfbf" points="14.1266,-56.5 14.1266,-75.5 68.1266,-75.5 68.1266,-56.5 14.1266,-56.5"/>
<text text-anchor="middle" x="41.1266" y="-63.5" font-family="Helvetica,sans-Serif" font-size="10.00">iostream</text>
</g>
<!-- Node9&#45;&gt;Node10 -->
<g id="edge15" class="edge"><title>Node9&#45;&gt;Node10</title>
<path fill="none" stroke="midnightblue" d="M37.7871,-112.083C38.3114,-105.006 39.0628,-94.8611 39.7202,-85.9865"/>
<polygon fill="midnightblue" stroke="midnightblue" points="43.23,-85.9823 40.4784,-75.7511 36.2492,-85.4652 43.23,-85.9823"/>
</g>
<!-- Node11 -->
<g id="node12" class="node"><title>Node11</title>
<polygon fill="white" stroke="#bfbfbf" points="86.6266,-56.5 86.6266,-75.5 135.627,-75.5 135.627,-56.5 86.6266,-56.5"/>
<text text-anchor="middle" x="111.127" y="-63.5" font-family="Helvetica,sans-Serif" font-size="10.00">cassert</text>
</g>
<!-- Node9&#45;&gt;Node11 -->
<g id="edge16" class="edge"><title>Node9&#45;&gt;Node11</title>
<path fill="none" stroke="midnightblue" d="M49.016,-112.324C60.2768,-104.107 77.4132,-91.6017 90.8358,-81.8069"/>
<polygon fill="midnightblue" stroke="midnightblue" points="93.0061,-84.5559 99.0209,-75.8339 88.8798,-78.9014 93.0061,-84.5559"/>
</g>
<!-- Node12&#45;&gt;Node2 -->
<g id="edge20" class="edge"><title>Node12&#45;&gt;Node2</title>
<path fill="none" stroke="midnightblue" d="M494.004,-112.368C472.15,-93.7334 420.315,-49.5324 392.874,-26.1338"/>
<polygon fill="midnightblue" stroke="midnightblue" points="395.082,-23.4167 385.202,-19.5914 390.54,-28.7431 395.082,-23.4167"/>
</g>
<!-- Node13 -->
<g id="node14" class="node"><title>Node13</title>
<polygon fill="white" stroke="#bfbfbf" points="477.127,-56.5 477.127,-75.5 517.127,-75.5 517.127,-56.5 477.127,-56.5"/>
<text text-anchor="middle" x="497.127" y="-63.5" font-family="Helvetica,sans-Serif" font-size="10.00">limits</text>
</g>
<!-- Node12&#45;&gt;Node13 -->
<g id="edge19" class="edge"><title>Node12&#45;&gt;Node13</title>
<path fill="none" stroke="midnightblue" d="M502.971,-112.083C502.043,-104.927 500.709,-94.6353 499.55,-85.6911"/>
<polygon fill="midnightblue" stroke="midnightblue" points="503.018,-85.2181 498.261,-75.7511 496.076,-86.1181 503.018,-85.2181"/>
</g>
</g>
</svg>
