<?xml version="1.0" encoding="UTF-8" standalone="no"?>
<!DOCTYPE svg PUBLIC "-//W3C//DTD SVG 1.1//EN"
 "http://www.w3.org/Graphics/SVG/1.1/DTD/svg11.dtd">
<!-- Generated by graphviz version 2.38.0 (20140413.2041)
 -->
<!-- Title: C:/Users/kjones/Documents/SoftwareDev/VulpesSceneKit/third_party/vulpesrender/src/core/LogicalDevice.cpp Pages: 1 -->
<svg width="1705pt" height="341pt"
 viewBox="0.00 0.00 1704.50 341.00" xmlns="http://www.w3.org/2000/svg" xmlns:xlink="http://www.w3.org/1999/xlink">
<g id="graph0" class="graph" transform="scale(1 1) rotate(0) translate(4 337)">
<title>C:/Users/kjones/Documents/SoftwareDev/VulpesSceneKit/third_party/vulpesrender/src/core/LogicalDevice.cpp</title>
<polygon fill="white" stroke="none" points="-4,4 -4,-337 1700.5,-337 1700.5,4 -4,4"/>
<!-- Node0 -->
<g id="node1" class="node"><title>Node0</title>
<polygon fill="#bfbfbf" stroke="black" points="426,-280.5 426,-332.5 572,-332.5 572,-280.5 426,-280.5"/>
<text text-anchor="start" x="434" y="-320.5" font-family="Helvetica,sans-Serif" font-size="10.00">C:/Users/kjones/Documents</text>
<text text-anchor="start" x="434" y="-309.5" font-family="Helvetica,sans-Serif" font-size="10.00">/SoftwareDev/VulpesSceneKit</text>
<text text-anchor="start" x="434" y="-298.5" font-family="Helvetica,sans-Serif" font-size="10.00">/third_party/vulpesrender</text>
<text text-anchor="middle" x="499" y="-287.5" font-family="Helvetica,sans-Serif" font-size="10.00">/src/core/LogicalDevice.cpp</text>
</g>
<!-- Node1 -->
<g id="node2" class="node"><title>Node1</title>
<g id="a_node2"><a xlink:href="vpr__stdafx_8h.html" target="_top" xlink:title="vpr_stdafx.h">
<polygon fill="white" stroke="black" points="372,-112.5 372,-131.5 440,-131.5 440,-112.5 372,-112.5"/>
<text text-anchor="middle" x="406" y="-119.5" font-family="Helvetica,sans-Serif" font-size="10.00">vpr_stdafx.h</text>
</a>
</g>
</g>
<!-- Node0&#45;&gt;Node1 -->
<g id="edge1" class="edge"><title>Node0&#45;&gt;Node1</title>
<path fill="none" stroke="midnightblue" d="M425.821,-303.137C382.302,-297.489 330.232,-282.389 302,-244 291.673,-229.958 292.715,-191.353 310,-168 322.589,-150.991 343.231,-140.184 362.154,-133.438"/>
<polygon fill="midnightblue" stroke="midnightblue" points="363.425,-136.705 371.842,-130.27 361.249,-130.052 363.425,-136.705"/>
</g>
<!-- Node13 -->
<g id="node14" class="node"><title>Node13</title>
<g id="a_node14"><a xlink:href="_logical_device_8hpp.html" target="_top" xlink:title="core/LogicalDevice.hpp">
<polygon fill="white" stroke="black" points="471,-168.5 471,-187.5 587,-187.5 587,-168.5 471,-168.5"/>
<text text-anchor="middle" x="529" y="-175.5" font-family="Helvetica,sans-Serif" font-size="10.00">core/LogicalDevice.hpp</text>
</a>
</g>
</g>
<!-- Node0&#45;&gt;Node13 -->
<g id="edge15" class="edge"><title>Node0&#45;&gt;Node13</title>
<path fill="none" stroke="midnightblue" d="M504.999,-280.205C510.794,-255.768 519.434,-219.337 524.613,-197.499"/>
<polygon fill="midnightblue" stroke="midnightblue" points="528.07,-198.088 526.972,-187.55 521.259,-196.472 528.07,-198.088"/>
</g>
<!-- Node16 -->
<g id="node17" class="node"><title>Node16</title>
<g id="a_node17"><a xlink:href="_physical_device_8hpp.html" target="_top" xlink:title="core/PhysicalDevice.hpp">
<polygon fill="white" stroke="black" points="311.5,-224.5 311.5,-243.5 434.5,-243.5 434.5,-224.5 311.5,-224.5"/>
<text text-anchor="middle" x="373" y="-231.5" font-family="Helvetica,sans-Serif" font-size="10.00">core/PhysicalDevice.hpp</text>
</a>
</g>
</g>
<!-- Node0&#45;&gt;Node16 -->
<g id="edge19" class="edge"><title>Node0&#45;&gt;Node16</title>
<path fill="none" stroke="midnightblue" d="M454.222,-280.446C434.946,-269.66 413.18,-257.481 397.035,-248.448"/>
<polygon fill="midnightblue" stroke="midnightblue" points="398.676,-245.355 388.24,-243.527 395.258,-251.464 398.676,-245.355"/>
</g>
<!-- Node17 -->
<g id="node18" class="node"><title>Node17</title>
<g id="a_node18"><a xlink:href="_instance_8hpp.html" target="_top" xlink:title="core/Instance.hpp">
<polygon fill="white" stroke="black" points="359,-168.5 359,-187.5 453,-187.5 453,-168.5 359,-168.5"/>
<text text-anchor="middle" x="406" y="-175.5" font-family="Helvetica,sans-Serif" font-size="10.00">core/Instance.hpp</text>
</a>
</g>
</g>
<!-- Node0&#45;&gt;Node17 -->
<g id="edge21" class="edge"><title>Node0&#45;&gt;Node17</title>
<path fill="none" stroke="midnightblue" d="M482.391,-280.137C471.527,-263.85 456.832,-242.382 443,-224 435.778,-214.403 427.295,-204.027 420.275,-195.659"/>
<polygon fill="midnightblue" stroke="midnightblue" points="422.737,-193.151 413.602,-187.783 417.396,-197.675 422.737,-193.151"/>
</g>
<!-- Node18 -->
<g id="node19" class="node"><title>Node18</title>
<g id="a_node19"><a xlink:href="_allocator_8hpp.html" target="_top" xlink:title="alloc/Allocator.hpp">
<polygon fill="white" stroke="black" points="744.5,-224.5 744.5,-243.5 841.5,-243.5 841.5,-224.5 744.5,-224.5"/>
<text text-anchor="middle" x="793" y="-231.5" font-family="Helvetica,sans-Serif" font-size="10.00">alloc/Allocator.hpp</text>
</a>
</g>
</g>
<!-- Node0&#45;&gt;Node18 -->
<g id="edge24" class="edge"><title>Node0&#45;&gt;Node18</title>
<path fill="none" stroke="midnightblue" d="M572.052,-287.982C627.029,-274.799 700.667,-257.141 747.482,-245.915"/>
<polygon fill="midnightblue" stroke="midnightblue" points="748.428,-249.288 757.336,-243.552 746.795,-242.48 748.428,-249.288"/>
</g>
<!-- Node22 -->
<g id="node23" class="node"><title>Node22</title>
<g id="a_node23"><a xlink:href="easylogging_09_09_8h.html" target="_top" xlink:title="util/easylogging++.h">
<polygon fill="white" stroke="black" points="1031,-112.5 1031,-131.5 1135,-131.5 1135,-112.5 1031,-112.5"/>
<text text-anchor="middle" x="1083" y="-119.5" font-family="Helvetica,sans-Serif" font-size="10.00">util/easylogging++.h</text>
</a>
</g>
</g>
<!-- Node0&#45;&gt;Node22 -->
<g id="edge35" class="edge"><title>Node0&#45;&gt;Node22</title>
<path fill="none" stroke="midnightblue" d="M572.298,-297.82C644.322,-289.083 756.813,-272.236 851,-244 910.87,-226.052 924.742,-217.209 980,-188 1009.5,-172.404 1041.78,-151.333 1062.19,-137.465"/>
<polygon fill="midnightblue" stroke="midnightblue" points="1064.41,-140.185 1070.69,-131.646 1060.46,-134.411 1064.41,-140.185"/>
</g>
<!-- Node2 -->
<g id="node3" class="node"><title>Node2</title>
<polygon fill="white" stroke="#bfbfbf" points="467.5,-0.5 467.5,-19.5 508.5,-19.5 508.5,-0.5 467.5,-0.5"/>
<text text-anchor="middle" x="488" y="-7.5" font-family="Helvetica,sans-Serif" font-size="10.00">string</text>
</g>
<!-- Node1&#45;&gt;Node2 -->
<g id="edge2" class="edge"><title>Node1&#45;&gt;Node2</title>
<path fill="none" stroke="midnightblue" d="M424.028,-112.391C438.226,-104.726 457.483,-92.2196 469,-76 478.679,-62.3699 483.467,-43.8287 485.812,-30.0367"/>
<polygon fill="midnightblue" stroke="midnightblue" points="489.328,-30.1716 487.261,-19.7804 482.396,-29.1926 489.328,-30.1716"/>
</g>
<!-- Node3 -->
<g id="node4" class="node"><title>Node3</title>
<polygon fill="white" stroke="#bfbfbf" points="586,-56.5 586,-75.5 628,-75.5 628,-56.5 586,-56.5"/>
<text text-anchor="middle" x="607" y="-63.5" font-family="Helvetica,sans-Serif" font-size="10.00">vector</text>
</g>
<!-- Node1&#45;&gt;Node3 -->
<g id="edge3" class="edge"><title>Node1&#45;&gt;Node3</title>
<path fill="none" stroke="midnightblue" d="M439.836,-112.459C472.374,-104.165 523.178,-91.0071 575.865,-76.254"/>
<polygon fill="midnightblue" stroke="midnightblue" points="577.042,-79.5587 585.721,-73.4815 575.147,-72.8202 577.042,-79.5587"/>
</g>
<!-- Node4 -->
<g id="node5" class="node"><title>Node4</title>
<polygon fill="white" stroke="#bfbfbf" points="292,-56.5 292,-75.5 330,-75.5 330,-56.5 292,-56.5"/>
<text text-anchor="middle" x="311" y="-63.5" font-family="Helvetica,sans-Serif" font-size="10.00">array</text>
</g>
<!-- Node1&#45;&gt;Node4 -->
<g id="edge4" class="edge"><title>Node1&#45;&gt;Node4</title>
<path fill="none" stroke="midnightblue" d="M390.737,-112.324C375.779,-103.822 352.745,-90.7288 335.273,-80.7975"/>
<polygon fill="midnightblue" stroke="midnightblue" points="336.649,-77.5534 326.226,-75.6545 333.19,-83.639 336.649,-77.5534"/>
</g>
<!-- Node5 -->
<g id="node6" class="node"><title>Node5</title>
<polygon fill="white" stroke="#bfbfbf" points="516,-56.5 516,-75.5 568,-75.5 568,-56.5 516,-56.5"/>
<text text-anchor="middle" x="542" y="-63.5" font-family="Helvetica,sans-Serif" font-size="10.00">memory</text>
</g>
<!-- Node1&#45;&gt;Node5 -->
<g id="edge5" class="edge"><title>Node1&#45;&gt;Node5</title>
<path fill="none" stroke="midnightblue" d="M427.55,-112.444C450.031,-103.517 485.488,-89.4387 510.98,-79.3168"/>
<polygon fill="midnightblue" stroke="midnightblue" points="512.549,-82.4598 520.551,-75.5164 509.965,-75.9539 512.549,-82.4598"/>
</g>
<!-- Node6 -->
<g id="node7" class="node"><title>Node6</title>
<polygon fill="white" stroke="#bfbfbf" points="348.5,-56.5 348.5,-75.5 397.5,-75.5 397.5,-56.5 348.5,-56.5"/>
<text text-anchor="middle" x="373" y="-63.5" font-family="Helvetica,sans-Serif" font-size="10.00">cassert</text>
</g>
<!-- Node1&#45;&gt;Node6 -->
<g id="edge6" class="edge"><title>Node1&#45;&gt;Node6</title>
<path fill="none" stroke="midnightblue" d="M400.551,-112.083C395.986,-104.613 389.332,-93.7244 383.707,-84.5199"/>
<polygon fill="midnightblue" stroke="midnightblue" points="386.549,-82.4588 378.348,-75.7511 380.576,-86.109 386.549,-82.4588"/>
</g>
<!-- Node7 -->
<g id="node8" class="node"><title>Node7</title>
<polygon fill="white" stroke="#bfbfbf" points="416,-56.5 416,-75.5 460,-75.5 460,-56.5 416,-56.5"/>
<text text-anchor="middle" x="438" y="-63.5" font-family="Helvetica,sans-Serif" font-size="10.00">mutex</text>
</g>
<!-- Node1&#45;&gt;Node7 -->
<g id="edge7" class="edge"><title>Node1&#45;&gt;Node7</title>
<path fill="none" stroke="midnightblue" d="M411.284,-112.083C415.711,-104.613 422.163,-93.7244 427.618,-84.5199"/>
<polygon fill="midnightblue" stroke="midnightblue" points="430.727,-86.1383 432.814,-75.7511 424.705,-82.5697 430.727,-86.1383"/>
</g>
<!-- Node8 -->
<g id="node9" class="node"><title>Node8</title>
<g id="a_node9"><a xlink:href="_create_info_base_8hpp.html" target="_top" xlink:title="common/CreateInfoBase.hpp">
<polygon fill="white" stroke="black" points="0,-56.5 0,-75.5 142,-75.5 142,-56.5 0,-56.5"/>
<text text-anchor="middle" x="71" y="-63.5" font-family="Helvetica,sans-Serif" font-size="10.00">common/CreateInfoBase.hpp</text>
</a>
</g>
</g>
<!-- Node1&#45;&gt;Node8 -->
<g id="edge8" class="edge"><title>Node1&#45;&gt;Node8</title>
<path fill="none" stroke="midnightblue" d="M371.723,-115.475C315.856,-106.469 204.342,-88.4939 133.926,-77.1433"/>
<polygon fill="midnightblue" stroke="midnightblue" points="134.276,-73.6547 123.847,-75.5186 133.162,-80.5655 134.276,-73.6547"/>
</g>
<!-- Node11 -->
<g id="node12" class="node"><title>Node11</title>
<g id="a_node12"><a xlink:href="vk_assert_8hpp.html" target="_top" xlink:title="common/vkAssert.hpp">
<polygon fill="white" stroke="black" points="160.5,-56.5 160.5,-75.5 273.5,-75.5 273.5,-56.5 160.5,-56.5"/>
<text text-anchor="middle" x="217" y="-63.5" font-family="Helvetica,sans-Serif" font-size="10.00">common/vkAssert.hpp</text>
</a>
</g>
</g>
<!-- Node1&#45;&gt;Node11 -->
<g id="edge11" class="edge"><title>Node1&#45;&gt;Node11</title>
<path fill="none" stroke="midnightblue" d="M376.052,-112.444C343.842,-103.241 292.466,-88.5617 256.858,-78.3879"/>
<polygon fill="midnightblue" stroke="midnightblue" points="257.384,-74.8984 246.808,-75.5164 255.461,-81.629 257.384,-74.8984"/>
</g>
<!-- Node9 -->
<g id="node10" class="node"><title>Node9</title>
<polygon fill="white" stroke="#bfbfbf" points="51,-0.5 51,-19.5 91,-19.5 91,-0.5 51,-0.5"/>
<text text-anchor="middle" x="71" y="-7.5" font-family="Helvetica,sans-Serif" font-size="10.00">limits</text>
</g>
<!-- Node8&#45;&gt;Node9 -->
<g id="edge9" class="edge"><title>Node8&#45;&gt;Node9</title>
<path fill="none" stroke="midnightblue" d="M71,-56.083C71,-49.0059 71,-38.8611 71,-29.9865"/>
<polygon fill="midnightblue" stroke="midnightblue" points="74.5001,-29.751 71,-19.7511 67.5001,-29.7511 74.5001,-29.751"/>
</g>
<!-- Node10 -->
<g id="node11" class="node"><title>Node10</title>
<polygon fill="white" stroke="#bfbfbf" points="143,-0.5 143,-19.5 225,-19.5 225,-0.5 143,-0.5"/>
<text text-anchor="middle" x="184" y="-7.5" font-family="Helvetica,sans-Serif" font-size="10.00">vulkan/vulkan.h</text>
</g>
<!-- Node8&#45;&gt;Node10 -->
<g id="edge10" class="edge"><title>Node8&#45;&gt;Node10</title>
<path fill="none" stroke="midnightblue" d="M88.9052,-56.4435C107.254,-47.6751 136.005,-33.9355 157.094,-23.8579"/>
<polygon fill="midnightblue" stroke="midnightblue" points="158.665,-26.9862 166.179,-19.5164 155.647,-20.6703 158.665,-26.9862"/>
</g>
<!-- Node11&#45;&gt;Node2 -->
<g id="edge13" class="edge"><title>Node11&#45;&gt;Node2</title>
<path fill="none" stroke="midnightblue" d="M259.941,-56.4435C315.003,-45.4718 409.125,-26.7168 457.427,-17.092"/>
<polygon fill="midnightblue" stroke="midnightblue" points="458.163,-20.5142 467.286,-15.1274 456.795,-13.6492 458.163,-20.5142"/>
</g>
<!-- Node11&#45;&gt;Node10 -->
<g id="edge14" class="edge"><title>Node11&#45;&gt;Node10</title>
<path fill="none" stroke="midnightblue" d="M211.551,-56.083C206.986,-48.6127 200.332,-37.7244 194.707,-28.5199"/>
<polygon fill="midnightblue" stroke="midnightblue" points="197.549,-26.4588 189.348,-19.7511 191.576,-30.109 197.549,-26.4588"/>
</g>
<!-- Node12 -->
<g id="node13" class="node"><title>Node12</title>
<polygon fill="white" stroke="#bfbfbf" points="1063,-0.5 1063,-19.5 1117,-19.5 1117,-0.5 1063,-0.5"/>
<text text-anchor="middle" x="1090" y="-7.5" font-family="Helvetica,sans-Serif" font-size="10.00">iostream</text>
</g>
<!-- Node11&#45;&gt;Node12 -->
<g id="edge12" class="edge"><title>Node11&#45;&gt;Node12</title>
<path fill="none" stroke="midnightblue" d="M273.848,-56.9548C276.941,-56.6086 280.007,-56.2871 283,-56 578.963,-27.6146 937.837,-15.3899 1052.73,-12.0196"/>
<polygon fill="midnightblue" stroke="midnightblue" points="1052.88,-15.517 1062.77,-11.7296 1052.67,-8.51992 1052.88,-15.517"/>
</g>
<!-- Node13&#45;&gt;Node1 -->
<g id="edge16" class="edge"><title>Node13&#45;&gt;Node1</title>
<path fill="none" stroke="midnightblue" d="M509.51,-168.444C489.358,-159.596 457.677,-145.687 434.669,-135.586"/>
<polygon fill="midnightblue" stroke="midnightblue" points="435.962,-132.332 425.399,-131.516 433.148,-138.741 435.962,-132.332"/>
</g>
<!-- Node14 -->
<g id="node15" class="node"><title>Node14</title>
<g id="a_node15"><a xlink:href="_forward_decl_8hpp.html" target="_top" xlink:title="ForwardDecl.hpp">
<polygon fill="white" stroke="black" points="621.5,-112.5 621.5,-131.5 710.5,-131.5 710.5,-112.5 621.5,-112.5"/>
<text text-anchor="middle" x="666" y="-119.5" font-family="Helvetica,sans-Serif" font-size="10.00">ForwardDecl.hpp</text>
</a>
</g>
</g>
<!-- Node13&#45;&gt;Node14 -->
<g id="edge17" class="edge"><title>Node13&#45;&gt;Node14</title>
<path fill="none" stroke="midnightblue" d="M550.708,-168.444C573.355,-159.517 609.072,-145.439 634.752,-135.317"/>
<polygon fill="midnightblue" stroke="midnightblue" points="636.374,-138.44 644.394,-131.516 633.807,-131.927 636.374,-138.44"/>
</g>
<!-- Node15 -->
<g id="node16" class="node"><title>Node15</title>
<polygon fill="white" stroke="#bfbfbf" points="646.5,-56.5 646.5,-75.5 681.5,-75.5 681.5,-56.5 646.5,-56.5"/>
<text text-anchor="middle" x="664" y="-63.5" font-family="Helvetica,sans-Serif" font-size="10.00">map</text>
</g>
<!-- Node13&#45;&gt;Node15 -->
<g id="edge18" class="edge"><title>Node13&#45;&gt;Node15</title>
<path fill="none" stroke="midnightblue" d="M539.593,-168.368C562.464,-149.733 616.71,-105.532 645.427,-82.1338"/>
<polygon fill="midnightblue" stroke="midnightblue" points="647.914,-84.6215 653.456,-75.5914 643.493,-79.1949 647.914,-84.6215"/>
</g>
<!-- Node16&#45;&gt;Node1 -->
<g id="edge20" class="edge"><title>Node16&#45;&gt;Node1</title>
<path fill="none" stroke="midnightblue" d="M355.989,-224.467C334.886,-212.68 303.268,-190.331 317,-168 326.932,-151.849 344.652,-141.281 361.68,-134.476"/>
<polygon fill="midnightblue" stroke="midnightblue" points="363.356,-137.591 371.562,-130.89 360.968,-131.011 363.356,-137.591"/>
</g>
<!-- Node17&#45;&gt;Node1 -->
<g id="edge22" class="edge"><title>Node17&#45;&gt;Node1</title>
<path fill="none" stroke="midnightblue" d="M406,-168.083C406,-161.006 406,-150.861 406,-141.986"/>
<polygon fill="midnightblue" stroke="midnightblue" points="409.5,-141.751 406,-131.751 402.5,-141.751 409.5,-141.751"/>
</g>
<!-- Node17&#45;&gt;Node14 -->
<g id="edge23" class="edge"><title>Node17&#45;&gt;Node14</title>
<path fill="none" stroke="midnightblue" d="M447.198,-168.444C492.649,-159.004 565.842,-143.802 614.909,-133.611"/>
<polygon fill="midnightblue" stroke="midnightblue" points="615.916,-136.977 624.995,-131.516 614.492,-130.123 615.916,-136.977"/>
</g>
<!-- Node18&#45;&gt;Node1 -->
<g id="edge25" class="edge"><title>Node18&#45;&gt;Node1</title>
<path fill="none" stroke="midnightblue" d="M744.458,-231.666C634.93,-228.154 376.076,-216.859 350,-188 334.272,-170.593 359.093,-150.002 380.523,-136.733"/>
<polygon fill="midnightblue" stroke="midnightblue" points="382.528,-139.614 389.371,-131.525 378.978,-133.581 382.528,-139.614"/>
</g>
<!-- Node18&#45;&gt;Node14 -->
<g id="edge26" class="edge"><title>Node18&#45;&gt;Node14</title>
<path fill="none" stroke="midnightblue" d="M841.519,-228.859C897.595,-222.232 978.289,-205.893 946,-168 917.694,-134.782 794.315,-125.991 721.114,-123.725"/>
<polygon fill="midnightblue" stroke="midnightblue" points="720.788,-120.215 710.695,-123.436 720.594,-127.212 720.788,-120.215"/>
</g>
<!-- Node18&#45;&gt;Node15 -->
<g id="edge34" class="edge"><title>Node18&#45;&gt;Node15</title>
<path fill="none" stroke="midnightblue" d="M841.695,-231.159C902.708,-226.959 995.563,-213.179 963,-168 889.315,-65.7681 812.579,-117.232 691.129,-77.285"/>
<polygon fill="midnightblue" stroke="midnightblue" points="692.14,-73.9313 681.545,-73.9724 689.853,-80.5472 692.14,-73.9313"/>
</g>
<!-- Node19 -->
<g id="node20" class="node"><title>Node19</title>
<g id="a_node20"><a xlink:href="_alloc_common_8hpp.html" target="_top" xlink:title="AllocCommon.hpp">
<polygon fill="white" stroke="black" points="745,-168.5 745,-187.5 841,-187.5 841,-168.5 745,-168.5"/>
<text text-anchor="middle" x="793" y="-175.5" font-family="Helvetica,sans-Serif" font-size="10.00">AllocCommon.hpp</text>
</a>
</g>
</g>
<!-- Node18&#45;&gt;Node19 -->
<g id="edge27" class="edge"><title>Node18&#45;&gt;Node19</title>
<path fill="none" stroke="midnightblue" d="M793,-224.083C793,-217.006 793,-206.861 793,-197.986"/>
<polygon fill="midnightblue" stroke="midnightblue" points="796.5,-197.751 793,-187.751 789.5,-197.751 796.5,-197.751"/>
</g>
<!-- Node20 -->
<g id="node21" class="node"><title>Node20</title>
<g id="a_node21"><a xlink:href="_allocation_collection_8hpp.html" target="_top" xlink:title="AllocationCollection.hpp">
<polygon fill="white" stroke="black" points="605.5,-168.5 605.5,-187.5 726.5,-187.5 726.5,-168.5 605.5,-168.5"/>
<text text-anchor="middle" x="666" y="-175.5" font-family="Helvetica,sans-Serif" font-size="10.00">AllocationCollection.hpp</text>
</a>
</g>
</g>
<!-- Node18&#45;&gt;Node20 -->
<g id="edge30" class="edge"><title>Node18&#45;&gt;Node20</title>
<path fill="none" stroke="midnightblue" d="M772.876,-224.444C751.976,-215.557 719.065,-201.563 695.284,-191.451"/>
<polygon fill="midnightblue" stroke="midnightblue" points="696.602,-188.208 686.029,-187.516 693.862,-194.65 696.602,-188.208"/>
</g>
<!-- Node21 -->
<g id="node22" class="node"><title>Node21</title>
<polygon fill="white" stroke="#bfbfbf" points="859,-168.5 859,-187.5 937,-187.5 937,-168.5 859,-168.5"/>
<text text-anchor="middle" x="898" y="-175.5" font-family="Helvetica,sans-Serif" font-size="10.00">unordered_set</text>
</g>
<!-- Node18&#45;&gt;Node21 -->
<g id="edge33" class="edge"><title>Node18&#45;&gt;Node21</title>
<path fill="none" stroke="midnightblue" d="M809.87,-224.324C826.709,-215.664 852.807,-202.242 872.238,-192.249"/>
<polygon fill="midnightblue" stroke="midnightblue" points="873.88,-195.341 881.172,-187.655 870.678,-189.116 873.88,-195.341"/>
</g>
<!-- Node19&#45;&gt;Node1 -->
<g id="edge28" class="edge"><title>Node19&#45;&gt;Node1</title>
<path fill="none" stroke="midnightblue" d="M744.809,-169.318C741.829,-168.865 738.874,-168.423 736,-168 633.853,-152.973 513.654,-137.016 450.281,-128.737"/>
<polygon fill="midnightblue" stroke="midnightblue" points="450.607,-125.25 440.238,-127.427 449.702,-132.191 450.607,-125.25"/>
</g>
<!-- Node19&#45;&gt;Node14 -->
<g id="edge29" class="edge"><title>Node19&#45;&gt;Node14</title>
<path fill="none" stroke="midnightblue" d="M772.876,-168.444C751.976,-159.557 719.065,-145.563 695.284,-135.451"/>
<polygon fill="midnightblue" stroke="midnightblue" points="696.602,-132.208 686.029,-131.516 693.862,-138.65 696.602,-132.208"/>
</g>
<!-- Node20&#45;&gt;Node1 -->
<g id="edge31" class="edge"><title>Node20&#45;&gt;Node1</title>
<path fill="none" stroke="midnightblue" d="M624.802,-168.444C577.212,-158.559 499.208,-142.359 450.329,-132.207"/>
<polygon fill="midnightblue" stroke="midnightblue" points="450.865,-128.744 440.362,-130.137 449.442,-135.597 450.865,-128.744"/>
</g>
<!-- Node20&#45;&gt;Node14 -->
<g id="edge32" class="edge"><title>Node20&#45;&gt;Node14</title>
<path fill="none" stroke="midnightblue" d="M666,-168.083C666,-161.006 666,-150.861 666,-141.986"/>
<polygon fill="midnightblue" stroke="midnightblue" points="669.5,-141.751 666,-131.751 662.5,-141.751 669.5,-141.751"/>
</g>
<!-- Node22&#45;&gt;Node2 -->
<g id="edge44" class="edge"><title>Node22&#45;&gt;Node2</title>
<path fill="none" stroke="midnightblue" d="M1030.77,-113.823C1026.11,-113.2 1021.47,-112.584 1017,-112 889.091,-95.2852 852.065,-114.665 729,-76 710.792,-70.2795 708.92,-62.5678 691,-56 631.885,-34.3332 559.093,-21.3019 518.7,-15.1964"/>
<polygon fill="midnightblue" stroke="midnightblue" points="519.083,-11.7152 508.68,-13.7244 518.065,-18.6408 519.083,-11.7152"/>
</g>
<!-- Node22&#45;&gt;Node3 -->
<g id="edge45" class="edge"><title>Node22&#45;&gt;Node3</title>
<path fill="none" stroke="midnightblue" d="M1030.82,-118.8C947.243,-114.588 778.452,-103.255 638,-76 637.9,-75.9807 637.8,-75.9611 637.7,-75.9414"/>
<polygon fill="midnightblue" stroke="midnightblue" points="638.757,-72.5944 628.221,-73.7122 637.154,-79.4085 638.757,-72.5944"/>
</g>
<!-- Node22&#45;&gt;Node5 -->
<g id="edge53" class="edge"><title>Node22&#45;&gt;Node5</title>
<path fill="none" stroke="midnightblue" d="M1030.92,-119.168C940.544,-115.379 748.762,-104.652 578.183,-75.9385"/>
<polygon fill="midnightblue" stroke="midnightblue" points="578.72,-72.4796 568.274,-74.2459 577.542,-79.3797 578.72,-72.4796"/>
</g>
<!-- Node22&#45;&gt;Node12 -->
<g id="edge51" class="edge"><title>Node22&#45;&gt;Node12</title>
<path fill="none" stroke="midnightblue" d="M1135.28,-120.438C1261.8,-118.538 1576.45,-110.37 1608,-76 1614.01,-69.4517 1614.01,-62.5517 1608,-56 1575.64,-20.7105 1241.15,-13.0062 1127.53,-11.4024"/>
<polygon fill="midnightblue" stroke="midnightblue" points="1127.29,-7.89892 1117.24,-11.2655 1127.19,-14.8983 1127.29,-7.89892"/>
</g>
<!-- Node22&#45;&gt;Node15 -->
<g id="edge46" class="edge"><title>Node22&#45;&gt;Node15</title>
<path fill="none" stroke="midnightblue" d="M1030.78,-113.762C1026.12,-113.152 1021.48,-112.556 1017,-112 874.534,-94.3002 836.898,-103.525 696,-76 694.549,-75.7165 693.067,-75.3995 691.576,-75.0587"/>
<polygon fill="midnightblue" stroke="midnightblue" points="692.372,-71.6497 681.817,-72.5639 690.638,-78.4316 692.372,-71.6497"/>
</g>
<!-- Node23 -->
<g id="node24" class="node"><title>Node23</title>
<polygon fill="white" stroke="#bfbfbf" points="1655.5,-56.5 1655.5,-75.5 1696.5,-75.5 1696.5,-56.5 1655.5,-56.5"/>
<text text-anchor="middle" x="1676" y="-63.5" font-family="Helvetica,sans-Serif" font-size="10.00">ctime</text>
</g>
<!-- Node22&#45;&gt;Node23 -->
<g id="edge36" class="edge"><title>Node22&#45;&gt;Node23</title>
<path fill="none" stroke="midnightblue" d="M1135.29,-119.765C1234.53,-116.763 1456.72,-106.889 1641,-76 1642.47,-75.7537 1643.97,-75.4756 1645.48,-75.1737"/>
<polygon fill="midnightblue" stroke="midnightblue" points="1646.42,-78.5487 1655.4,-72.9222 1644.87,-71.7223 1646.42,-78.5487"/>
</g>
<!-- Node24 -->
<g id="node25" class="node"><title>Node24</title>
<polygon fill="white" stroke="#bfbfbf" points="738,-56.5 738,-75.5 784,-75.5 784,-56.5 738,-56.5"/>
<text text-anchor="middle" x="761" y="-63.5" font-family="Helvetica,sans-Serif" font-size="10.00">cstring</text>
</g>
<!-- Node22&#45;&gt;Node24 -->
<g id="edge37" class="edge"><title>Node22&#45;&gt;Node24</title>
<path fill="none" stroke="midnightblue" d="M1030.87,-113.598C964.443,-104.05 852.274,-87.5096 794.49,-75.837"/>
<polygon fill="midnightblue" stroke="midnightblue" points="794.862,-72.339 784.357,-73.7169 793.428,-79.1906 794.862,-72.339"/>
</g>
<!-- Node25 -->
<g id="node26" class="node"><title>Node25</title>
<polygon fill="white" stroke="#bfbfbf" points="802.5,-56.5 802.5,-75.5 847.5,-75.5 847.5,-56.5 802.5,-56.5"/>
<text text-anchor="middle" x="825" y="-63.5" font-family="Helvetica,sans-Serif" font-size="10.00">cstdlib</text>
</g>
<!-- Node22&#45;&gt;Node25 -->
<g id="edge38" class="edge"><title>Node22&#45;&gt;Node25</title>
<path fill="none" stroke="midnightblue" d="M1034.27,-112.427C990.489,-104.471 924.258,-91.8101 857.517,-75.9701"/>
<polygon fill="midnightblue" stroke="midnightblue" points="858.209,-72.537 847.669,-73.6102 856.578,-79.3442 858.209,-72.537"/>
</g>
<!-- Node26 -->
<g id="node27" class="node"><title>Node26</title>
<polygon fill="white" stroke="#bfbfbf" points="866,-56.5 866,-75.5 912,-75.5 912,-56.5 866,-56.5"/>
<text text-anchor="middle" x="889" y="-63.5" font-family="Helvetica,sans-Serif" font-size="10.00">cctype</text>
</g>
<!-- Node22&#45;&gt;Node26 -->
<g id="edge39" class="edge"><title>Node22&#45;&gt;Node26</title>
<path fill="none" stroke="midnightblue" d="M1052.26,-112.444C1016.61,-102.522 958.101,-86.2343 921.658,-76.0904"/>
<polygon fill="midnightblue" stroke="midnightblue" points="922.574,-72.7124 912.002,-73.4026 920.697,-79.4561 922.574,-72.7124"/>
</g>
<!-- Node27 -->
<g id="node28" class="node"><title>Node27</title>
<polygon fill="white" stroke="#bfbfbf" points="930.5,-56.5 930.5,-75.5 977.5,-75.5 977.5,-56.5 930.5,-56.5"/>
<text text-anchor="middle" x="954" y="-63.5" font-family="Helvetica,sans-Serif" font-size="10.00">cwchar</text>
</g>
<!-- Node22&#45;&gt;Node27 -->
<g id="edge40" class="edge"><title>Node22&#45;&gt;Node27</title>
<path fill="none" stroke="midnightblue" d="M1062.56,-112.444C1041.33,-103.557 1007.9,-89.5632 983.745,-79.4514"/>
<polygon fill="midnightblue" stroke="midnightblue" points="984.921,-76.1493 974.345,-75.5164 982.218,-82.6064 984.921,-76.1493"/>
</g>
<!-- Node28 -->
<g id="node29" class="node"><title>Node28</title>
<polygon fill="white" stroke="#bfbfbf" points="995.5,-56.5 995.5,-75.5 1042.5,-75.5 1042.5,-56.5 995.5,-56.5"/>
<text text-anchor="middle" x="1019" y="-63.5" font-family="Helvetica,sans-Serif" font-size="10.00">csignal</text>
</g>
<!-- Node22&#45;&gt;Node28 -->
<g id="edge41" class="edge"><title>Node22&#45;&gt;Node28</title>
<path fill="none" stroke="midnightblue" d="M1072.72,-112.324C1063.16,-104.263 1048.72,-92.0765 1037.22,-82.3695"/>
<polygon fill="midnightblue" stroke="midnightblue" points="1039.37,-79.6076 1029.47,-75.8339 1034.86,-84.9577 1039.37,-79.6076"/>
</g>
<!-- Node29 -->
<g id="node30" class="node"><title>Node29</title>
<polygon fill="white" stroke="#bfbfbf" points="1061,-56.5 1061,-75.5 1105,-75.5 1105,-56.5 1061,-56.5"/>
<text text-anchor="middle" x="1083" y="-63.5" font-family="Helvetica,sans-Serif" font-size="10.00">cerrno</text>
</g>
<!-- Node22&#45;&gt;Node29 -->
<g id="edge42" class="edge"><title>Node22&#45;&gt;Node29</title>
<path fill="none" stroke="midnightblue" d="M1083,-112.083C1083,-105.006 1083,-94.8611 1083,-85.9865"/>
<polygon fill="midnightblue" stroke="midnightblue" points="1086.5,-85.751 1083,-75.7511 1079.5,-85.7511 1086.5,-85.751"/>
</g>
<!-- Node30 -->
<g id="node31" class="node"><title>Node30</title>
<polygon fill="white" stroke="#bfbfbf" points="1123.5,-56.5 1123.5,-75.5 1172.5,-75.5 1172.5,-56.5 1123.5,-56.5"/>
<text text-anchor="middle" x="1148" y="-63.5" font-family="Helvetica,sans-Serif" font-size="10.00">cstdarg</text>
</g>
<!-- Node22&#45;&gt;Node30 -->
<g id="edge43" class="edge"><title>Node22&#45;&gt;Node30</title>
<path fill="none" stroke="midnightblue" d="M1093.44,-112.324C1103.15,-104.263 1117.82,-92.0765 1129.5,-82.3695"/>
<polygon fill="midnightblue" stroke="midnightblue" points="1131.91,-84.9163 1137.37,-75.8339 1127.44,-79.532 1131.91,-84.9163"/>
</g>
<!-- Node31 -->
<g id="node32" class="node"><title>Node31</title>
<polygon fill="white" stroke="#bfbfbf" points="1191,-56.5 1191,-75.5 1231,-75.5 1231,-56.5 1191,-56.5"/>
<text text-anchor="middle" x="1211" y="-63.5" font-family="Helvetica,sans-Serif" font-size="10.00">utility</text>
</g>
<!-- Node22&#45;&gt;Node31 -->
<g id="edge47" class="edge"><title>Node22&#45;&gt;Node31</title>
<path fill="none" stroke="midnightblue" d="M1103.28,-112.444C1124.35,-103.557 1157.52,-89.5632 1181.49,-79.4514"/>
<polygon fill="midnightblue" stroke="midnightblue" points="1182.96,-82.6283 1190.81,-75.5164 1180.24,-76.1787 1182.96,-82.6283"/>
</g>
<!-- Node32 -->
<g id="node33" class="node"><title>Node32</title>
<polygon fill="white" stroke="#bfbfbf" points="1249,-56.5 1249,-75.5 1307,-75.5 1307,-56.5 1249,-56.5"/>
<text text-anchor="middle" x="1278" y="-63.5" font-family="Helvetica,sans-Serif" font-size="10.00">functional</text>
</g>
<!-- Node22&#45;&gt;Node32 -->
<g id="edge48" class="edge"><title>Node22&#45;&gt;Node32</title>
<path fill="none" stroke="midnightblue" d="M1113.9,-112.444C1147.76,-103.065 1202.17,-88.0001 1238.96,-77.8112"/>
<polygon fill="midnightblue" stroke="midnightblue" points="1240.14,-81.1174 1248.84,-75.0755 1238.27,-74.3713 1240.14,-81.1174"/>
</g>
<!-- Node33 -->
<g id="node34" class="node"><title>Node33</title>
<polygon fill="white" stroke="#bfbfbf" points="1325,-56.5 1325,-75.5 1381,-75.5 1381,-56.5 1325,-56.5"/>
<text text-anchor="middle" x="1353" y="-63.5" font-family="Helvetica,sans-Serif" font-size="10.00">algorithm</text>
</g>
<!-- Node22&#45;&gt;Node33 -->
<g id="edge49" class="edge"><title>Node22&#45;&gt;Node33</title>
<path fill="none" stroke="midnightblue" d="M1130.88,-112.444C1175.96,-104.234 1245.59,-91.1535 1314.97,-76.1485"/>
<polygon fill="midnightblue" stroke="midnightblue" points="1315.72,-79.5657 1324.75,-74.0188 1314.23,-72.7258 1315.72,-79.5657"/>
</g>
<!-- Node34 -->
<g id="node35" class="node"><title>Node34</title>
<polygon fill="white" stroke="#bfbfbf" points="1399.5,-56.5 1399.5,-75.5 1448.5,-75.5 1448.5,-56.5 1399.5,-56.5"/>
<text text-anchor="middle" x="1424" y="-63.5" font-family="Helvetica,sans-Serif" font-size="10.00">fstream</text>
</g>
<!-- Node22&#45;&gt;Node34 -->
<g id="edge50" class="edge"><title>Node22&#45;&gt;Node34</title>
<path fill="none" stroke="midnightblue" d="M1135.19,-115.177C1194.43,-108.161 1294.11,-95.1276 1389.13,-75.9703"/>
<polygon fill="midnightblue" stroke="midnightblue" points="1390.1,-79.3442 1399.19,-73.9134 1388.7,-72.4858 1390.1,-79.3442"/>
</g>
<!-- Node35 -->
<g id="node36" class="node"><title>Node35</title>
<polygon fill="white" stroke="#bfbfbf" points="1467,-56.5 1467,-75.5 1519,-75.5 1519,-56.5 1467,-56.5"/>
<text text-anchor="middle" x="1493" y="-63.5" font-family="Helvetica,sans-Serif" font-size="10.00">sstream</text>
</g>
<!-- Node22&#45;&gt;Node35 -->
<g id="edge52" class="edge"><title>Node22&#45;&gt;Node35</title>
<path fill="none" stroke="midnightblue" d="M1135.2,-116.932C1205.96,-110.934 1336.39,-98.1663 1456.6,-76.0456"/>
<polygon fill="midnightblue" stroke="midnightblue" points="1457.52,-79.4336 1466.71,-74.1577 1456.24,-72.5524 1457.52,-79.4336"/>
</g>
<!-- Node36 -->
<g id="node37" class="node"><title>Node36</title>
<polygon fill="white" stroke="#bfbfbf" points="1537,-56.5 1537,-75.5 1599,-75.5 1599,-56.5 1537,-56.5"/>
<text text-anchor="middle" x="1568" y="-63.5" font-family="Helvetica,sans-Serif" font-size="10.00">type_traits</text>
</g>
<!-- Node22&#45;&gt;Node36 -->
<g id="edge54" class="edge"><title>Node22&#45;&gt;Node36</title>
<path fill="none" stroke="midnightblue" d="M1135.33,-117.76C1216.91,-112.261 1379.46,-99.501 1526.52,-76.0667"/>
<polygon fill="midnightblue" stroke="midnightblue" points="1527.31,-79.4835 1536.63,-74.4344 1526.2,-72.5729 1527.31,-79.4835"/>
</g>
</g>
</svg>
