<?xml version="1.0" encoding="UTF-8" standalone="no"?>
<!DOCTYPE svg PUBLIC "-//W3C//DTD SVG 1.1//EN"
 "http://www.w3.org/Graphics/SVG/1.1/DTD/svg11.dtd">
<!-- Generated by graphviz version 2.38.0 (20140413.2041)
 -->
<!-- Title: alloc/src/MemoryBlock.hpp Pages: 1 -->
<svg width="457pt" height="252pt"
 viewBox="0.00 0.00 457.00 252.00" xmlns="http://www.w3.org/2000/svg" xmlns:xlink="http://www.w3.org/1999/xlink">
<g id="graph0" class="graph" transform="scale(1 1) rotate(0) translate(4 248)">
<title>alloc/src/MemoryBlock.hpp</title>
<polygon fill="white" stroke="none" points="-4,4 -4,-248 453,-248 453,4 -4,4"/>
<!-- Node0 -->
<g id="node1" class="node"><title>Node0</title>
<polygon fill="#bfbfbf" stroke="black" points="174.5,-224.5 174.5,-243.5 309.5,-243.5 309.5,-224.5 174.5,-224.5"/>
<text text-anchor="middle" x="242" y="-231.5" font-family="Helvetica,sans-Serif" font-size="10.00">alloc/src/MemoryBlock.hpp</text>
</g>
<!-- Node1 -->
<g id="node2" class="node"><title>Node1</title>
<g id="a_node2"><a xlink:href="vpr__stdafx_8h.html" target="_top" xlink:title="vpr_stdafx.h">
<polygon fill="white" stroke="black" points="7,-56.5 7,-75.5 75,-75.5 75,-56.5 7,-56.5"/>
<text text-anchor="middle" x="41" y="-63.5" font-family="Helvetica,sans-Serif" font-size="10.00">vpr_stdafx.h</text>
</a>
</g>
</g>
<!-- Node0&#45;&gt;Node1 -->
<g id="edge1" class="edge"><title>Node0&#45;&gt;Node1</title>
<path fill="none" stroke="midnightblue" d="M218.536,-224.465C182.508,-210.31 113.305,-178.814 71,-132 58.9014,-118.612 50.8766,-99.5026 46.1962,-85.4678"/>
<polygon fill="midnightblue" stroke="midnightblue" points="49.4205,-84.0432 43.1457,-75.5063 42.7273,-86.0929 49.4205,-84.0432"/>
</g>
<!-- Node3 -->
<g id="node4" class="node"><title>Node3</title>
<g id="a_node4"><a xlink:href="_forward_decl_8hpp.html" target="_top" xlink:title="ForwardDecl.hpp">
<polygon fill="white" stroke="black" points="295.5,-56.5 295.5,-75.5 384.5,-75.5 384.5,-56.5 295.5,-56.5"/>
<text text-anchor="middle" x="340" y="-63.5" font-family="Helvetica,sans-Serif" font-size="10.00">ForwardDecl.hpp</text>
</a>
</g>
</g>
<!-- Node0&#45;&gt;Node3 -->
<g id="edge3" class="edge"><title>Node0&#45;&gt;Node3</title>
<path fill="none" stroke="midnightblue" d="M256.19,-224.337C279.448,-209.127 324.54,-175.102 339,-132 343.997,-117.104 343.855,-99.1859 342.685,-85.9385"/>
<polygon fill="midnightblue" stroke="midnightblue" points="346.126,-85.2222 341.496,-75.6924 339.173,-86.0292 346.126,-85.2222"/>
</g>
<!-- Node4 -->
<g id="node5" class="node"><title>Node4</title>
<g id="a_node5"><a xlink:href="_alloc_common_8hpp.html" target="_top" xlink:title="AllocCommon.hpp">
<polygon fill="white" stroke="black" points="107,-112.5 107,-131.5 203,-131.5 203,-112.5 107,-112.5"/>
<text text-anchor="middle" x="155" y="-119.5" font-family="Helvetica,sans-Serif" font-size="10.00">AllocCommon.hpp</text>
</a>
</g>
</g>
<!-- Node0&#45;&gt;Node4 -->
<g id="edge4" class="edge"><title>Node0&#45;&gt;Node4</title>
<path fill="none" stroke="midnightblue" d="M228.09,-224.434C215.763,-216.287 197.919,-203.062 186,-188 174.858,-173.921 166.461,-155.183 161.236,-141.443"/>
<polygon fill="midnightblue" stroke="midnightblue" points="164.405,-139.912 157.734,-131.681 157.816,-142.275 164.405,-139.912"/>
</g>
<!-- Node8 -->
<g id="node9" class="node"><title>Node8</title>
<g id="a_node9"><a xlink:href="_suballocation_8hpp.html" target="_top" xlink:title="Suballocation.hpp">
<polygon fill="white" stroke="black" points="195,-168.5 195,-187.5 289,-187.5 289,-168.5 195,-168.5"/>
<text text-anchor="middle" x="242" y="-175.5" font-family="Helvetica,sans-Serif" font-size="10.00">Suballocation.hpp</text>
</a>
</g>
</g>
<!-- Node0&#45;&gt;Node8 -->
<g id="edge10" class="edge"><title>Node0&#45;&gt;Node8</title>
<path fill="none" stroke="midnightblue" d="M242,-224.083C242,-217.006 242,-206.861 242,-197.986"/>
<polygon fill="midnightblue" stroke="midnightblue" points="245.5,-197.751 242,-187.751 238.5,-197.751 245.5,-197.751"/>
</g>
<!-- Node11 -->
<g id="node12" class="node"><title>Node11</title>
<polygon fill="white" stroke="#bfbfbf" points="405,-168.5 405,-187.5 449,-187.5 449,-168.5 405,-168.5"/>
<text text-anchor="middle" x="427" y="-175.5" font-family="Helvetica,sans-Serif" font-size="10.00">mutex</text>
</g>
<!-- Node0&#45;&gt;Node11 -->
<g id="edge16" class="edge"><title>Node0&#45;&gt;Node11</title>
<path fill="none" stroke="midnightblue" d="M271.314,-224.444C305.068,-214.591 360.324,-198.462 395.124,-188.304"/>
<polygon fill="midnightblue" stroke="midnightblue" points="396.172,-191.644 404.791,-185.483 394.211,-184.925 396.172,-191.644"/>
</g>
<!-- Node2 -->
<g id="node3" class="node"><title>Node2</title>
<polygon fill="white" stroke="#bfbfbf" points="0,-0.5 0,-19.5 82,-19.5 82,-0.5 0,-0.5"/>
<text text-anchor="middle" x="41" y="-7.5" font-family="Helvetica,sans-Serif" font-size="10.00">vulkan/vulkan.h</text>
</g>
<!-- Node1&#45;&gt;Node2 -->
<g id="edge2" class="edge"><title>Node1&#45;&gt;Node2</title>
<path fill="none" stroke="midnightblue" d="M41,-56.083C41,-49.0059 41,-38.8611 41,-29.9865"/>
<polygon fill="midnightblue" stroke="midnightblue" points="44.5001,-29.751 41,-19.7511 37.5001,-29.7511 44.5001,-29.751"/>
</g>
<!-- Node4&#45;&gt;Node1 -->
<g id="edge5" class="edge"><title>Node4&#45;&gt;Node1</title>
<path fill="none" stroke="midnightblue" d="M136.936,-112.444C118.425,-103.675 89.4193,-89.9355 68.1445,-79.8579"/>
<polygon fill="midnightblue" stroke="midnightblue" points="69.5148,-76.6343 58.9791,-75.5164 66.5182,-82.9604 69.5148,-76.6343"/>
</g>
<!-- Node4&#45;&gt;Node3 -->
<g id="edge6" class="edge"><title>Node4&#45;&gt;Node3</title>
<path fill="none" stroke="midnightblue" d="M184.314,-112.444C215.842,-103.241 266.131,-88.5617 300.986,-78.3879"/>
<polygon fill="midnightblue" stroke="midnightblue" points="302.205,-81.6783 310.823,-75.5164 300.243,-74.9587 302.205,-81.6783"/>
</g>
<!-- Node5 -->
<g id="node6" class="node"><title>Node5</title>
<polygon fill="white" stroke="#bfbfbf" points="93,-56.5 93,-75.5 133,-75.5 133,-56.5 93,-56.5"/>
<text text-anchor="middle" x="113" y="-63.5" font-family="Helvetica,sans-Serif" font-size="10.00">utility</text>
</g>
<!-- Node4&#45;&gt;Node5 -->
<g id="edge7" class="edge"><title>Node4&#45;&gt;Node5</title>
<path fill="none" stroke="midnightblue" d="M148.065,-112.083C142.071,-104.377 133.248,-93.0333 125.952,-83.6531"/>
<polygon fill="midnightblue" stroke="midnightblue" points="128.709,-81.4958 119.806,-75.7511 123.183,-85.7934 128.709,-81.4958"/>
</g>
<!-- Node6 -->
<g id="node7" class="node"><title>Node6</title>
<polygon fill="white" stroke="#bfbfbf" points="151.5,-56.5 151.5,-75.5 210.5,-75.5 210.5,-56.5 151.5,-56.5"/>
<text text-anchor="middle" x="181" y="-63.5" font-family="Helvetica,sans-Serif" font-size="10.00">stdexcept</text>
</g>
<!-- Node4&#45;&gt;Node6 -->
<g id="edge8" class="edge"><title>Node4&#45;&gt;Node6</title>
<path fill="none" stroke="midnightblue" d="M159.293,-112.083C162.852,-104.691 168.022,-93.9533 172.424,-84.8111"/>
<polygon fill="midnightblue" stroke="midnightblue" points="175.602,-86.2795 176.787,-75.7511 169.295,-83.2427 175.602,-86.2795"/>
</g>
<!-- Node7 -->
<g id="node8" class="node"><title>Node7</title>
<polygon fill="white" stroke="#bfbfbf" points="228.5,-56.5 228.5,-75.5 277.5,-75.5 277.5,-56.5 228.5,-56.5"/>
<text text-anchor="middle" x="253" y="-63.5" font-family="Helvetica,sans-Serif" font-size="10.00">cassert</text>
</g>
<!-- Node4&#45;&gt;Node7 -->
<g id="edge9" class="edge"><title>Node4&#45;&gt;Node7</title>
<path fill="none" stroke="midnightblue" d="M170.745,-112.324C186.319,-103.743 210.377,-90.486 228.459,-80.5224"/>
<polygon fill="midnightblue" stroke="midnightblue" points="230.224,-83.546 237.294,-75.6545 226.846,-77.4152 230.224,-83.546"/>
</g>
<!-- Node8&#45;&gt;Node1 -->
<g id="edge11" class="edge"><title>Node8&#45;&gt;Node1</title>
<path fill="none" stroke="midnightblue" d="M194.77,-169.05C165.209,-162.489 127.308,-151.071 98,-132 78.8055,-119.51 62.2433,-98.8184 51.994,-84.1387"/>
<polygon fill="midnightblue" stroke="midnightblue" points="54.6823,-81.8632 46.2062,-75.5067 48.8683,-85.7616 54.6823,-81.8632"/>
</g>
<!-- Node8&#45;&gt;Node3 -->
<g id="edge12" class="edge"><title>Node8&#45;&gt;Node3</title>
<path fill="none" stroke="midnightblue" d="M266.013,-168.37C283.038,-161.106 305.223,-149.135 319,-132 329.672,-118.727 334.979,-99.8911 337.582,-85.9099"/>
<polygon fill="midnightblue" stroke="midnightblue" points="341.054,-86.3578 339.141,-75.9373 334.138,-85.2768 341.054,-86.3578"/>
</g>
<!-- Node8&#45;&gt;Node4 -->
<g id="edge13" class="edge"><title>Node8&#45;&gt;Node4</title>
<path fill="none" stroke="midnightblue" d="M228.022,-168.324C214.45,-159.9 193.62,-146.971 177.675,-137.074"/>
<polygon fill="midnightblue" stroke="midnightblue" points="179.286,-133.954 168.943,-131.655 175.594,-139.902 179.286,-133.954"/>
</g>
<!-- Node9 -->
<g id="node10" class="node"><title>Node9</title>
<polygon fill="white" stroke="#bfbfbf" points="281.5,-112.5 281.5,-131.5 310.5,-131.5 310.5,-112.5 281.5,-112.5"/>
<text text-anchor="middle" x="296" y="-119.5" font-family="Helvetica,sans-Serif" font-size="10.00">list</text>
</g>
<!-- Node8&#45;&gt;Node9 -->
<g id="edge14" class="edge"><title>Node8&#45;&gt;Node9</title>
<path fill="none" stroke="midnightblue" d="M250.917,-168.083C258.78,-160.22 270.431,-148.569 279.919,-139.081"/>
<polygon fill="midnightblue" stroke="midnightblue" points="282.653,-141.297 287.249,-131.751 277.703,-136.347 282.653,-141.297"/>
</g>
<!-- Node10 -->
<g id="node11" class="node"><title>Node10</title>
<polygon fill="white" stroke="#bfbfbf" points="221,-112.5 221,-131.5 263,-131.5 263,-112.5 221,-112.5"/>
<text text-anchor="middle" x="242" y="-119.5" font-family="Helvetica,sans-Serif" font-size="10.00">vector</text>
</g>
<!-- Node8&#45;&gt;Node10 -->
<g id="edge15" class="edge"><title>Node8&#45;&gt;Node10</title>
<path fill="none" stroke="midnightblue" d="M242,-168.083C242,-161.006 242,-150.861 242,-141.986"/>
<polygon fill="midnightblue" stroke="midnightblue" points="245.5,-141.751 242,-131.751 238.5,-141.751 245.5,-141.751"/>
</g>
</g>
</svg>
