<?xml version="1.0" encoding="UTF-8" standalone="no"?>
<!DOCTYPE svg PUBLIC "-//W3C//DTD SVG 1.1//EN"
 "http://www.w3.org/Graphics/SVG/1.1/DTD/svg11.dtd">
<!-- Generated by graphviz version 2.38.0 (20140413.2041)
 -->
<!-- Title: include/core/PhysicalDevice.hpp Pages: 1 -->
<svg width="749pt" height="84pt"
 viewBox="0.00 0.00 748.50 84.00" xmlns="http://www.w3.org/2000/svg" xmlns:xlink="http://www.w3.org/1999/xlink">
<g id="graph0" class="graph" transform="scale(1 1) rotate(0) translate(4 80)">
<title>include/core/PhysicalDevice.hpp</title>
<polygon fill="white" stroke="none" points="-4,4 -4,-80 744.5,-80 744.5,4 -4,4"/>
<!-- Node13 -->
<g id="node1" class="node"><title>Node13</title>
<polygon fill="#bfbfbf" stroke="black" points="271.5,-56.5 271.5,-75.5 428.5,-75.5 428.5,-56.5 271.5,-56.5"/>
<text text-anchor="middle" x="350" y="-63.5" font-family="Helvetica,sans-Serif" font-size="10.00">include/core/PhysicalDevice.hpp</text>
</g>
<!-- Node14 -->
<g id="node2" class="node"><title>Node14</title>
<g id="a_node2"><a xlink:href="_instance_8cpp.html" target="_top" xlink:title="src/core/Instance.cpp">
<polygon fill="white" stroke="black" points="0,-0.5 0,-19.5 110,-19.5 110,-0.5 0,-0.5"/>
<text text-anchor="middle" x="55" y="-7.5" font-family="Helvetica,sans-Serif" font-size="10.00">src/core/Instance.cpp</text>
</a>
</g>
</g>
<!-- Node13&#45;&gt;Node14 -->
<g id="edge1" class="edge"><title>Node13&#45;&gt;Node14</title>
<path fill="none" stroke="midnightblue" d="M293.189,-54.6007C237.437,-44.3953 153.436,-29.0189 101.525,-19.5164"/>
<polygon fill="midnightblue" stroke="midnightblue" points="292.79,-58.0857 303.256,-56.4435 294.05,-51.2001 292.79,-58.0857"/>
</g>
<!-- Node15 -->
<g id="node3" class="node"><title>Node15</title>
<g id="a_node3"><a xlink:href="_logical_device_8cpp.html" target="_top" xlink:title="src/core/LogicalDevice.cpp">
<polygon fill="white" stroke="black" points="128.5,-0.5 128.5,-19.5 261.5,-19.5 261.5,-0.5 128.5,-0.5"/>
<text text-anchor="middle" x="195" y="-7.5" font-family="Helvetica,sans-Serif" font-size="10.00">src/core/LogicalDevice.cpp</text>
</a>
</g>
</g>
<!-- Node13&#45;&gt;Node15 -->
<g id="edge2" class="edge"><title>Node13&#45;&gt;Node15</title>
<path fill="none" stroke="midnightblue" d="M315.668,-53.0392C286.503,-42.8786 245.363,-28.5457 219.445,-19.5164"/>
<polygon fill="midnightblue" stroke="midnightblue" points="314.845,-56.4587 325.44,-56.4435 317.148,-49.8484 314.845,-56.4587"/>
</g>
<!-- Node16 -->
<g id="node4" class="node"><title>Node16</title>
<g id="a_node4"><a xlink:href="_physical_device_8cpp.html" target="_top" xlink:title="src/core/PhysicalDevice.cpp">
<polygon fill="white" stroke="black" points="280,-0.5 280,-19.5 420,-19.5 420,-0.5 280,-0.5"/>
<text text-anchor="middle" x="350" y="-7.5" font-family="Helvetica,sans-Serif" font-size="10.00">src/core/PhysicalDevice.cpp</text>
</a>
</g>
</g>
<!-- Node13&#45;&gt;Node16 -->
<g id="edge3" class="edge"><title>Node13&#45;&gt;Node16</title>
<path fill="none" stroke="midnightblue" d="M350,-45.8045C350,-36.9102 350,-26.7798 350,-19.7511"/>
<polygon fill="midnightblue" stroke="midnightblue" points="346.5,-46.083 350,-56.083 353.5,-46.083 346.5,-46.083"/>
</g>
<!-- Node17 -->
<g id="node5" class="node"><title>Node17</title>
<g id="a_node5"><a xlink:href="_swapchain_8cpp.html" target="_top" xlink:title="src/render/Swapchain.cpp">
<polygon fill="white" stroke="black" points="438.5,-0.5 438.5,-19.5 567.5,-19.5 567.5,-0.5 438.5,-0.5"/>
<text text-anchor="middle" x="503" y="-7.5" font-family="Helvetica,sans-Serif" font-size="10.00">src/render/Swapchain.cpp</text>
</a>
</g>
</g>
<!-- Node13&#45;&gt;Node17 -->
<g id="edge4" class="edge"><title>Node13&#45;&gt;Node17</title>
<path fill="none" stroke="midnightblue" d="M383.889,-53.0392C412.677,-42.8786 453.287,-28.5457 478.87,-19.5164"/>
<polygon fill="midnightblue" stroke="midnightblue" points="382.508,-49.8148 374.243,-56.4435 384.838,-56.4157 382.508,-49.8148"/>
</g>
<!-- Node18 -->
<g id="node6" class="node"><title>Node18</title>
<g id="a_node6"><a xlink:href="_pipeline_cache_8cpp.html" target="_top" xlink:title="src/resource/PipelineCache.cpp">
<polygon fill="white" stroke="black" points="585.5,-0.5 585.5,-19.5 740.5,-19.5 740.5,-0.5 585.5,-0.5"/>
<text text-anchor="middle" x="663" y="-7.5" font-family="Helvetica,sans-Serif" font-size="10.00">src/resource/PipelineCache.cpp</text>
</a>
</g>
</g>
<!-- Node13&#45;&gt;Node18 -->
<g id="edge5" class="edge"><title>Node13&#45;&gt;Node18</title>
<path fill="none" stroke="midnightblue" d="M409.542,-54.7275C468.691,-44.523 558.329,-29.0583 613.636,-19.5164"/>
<polygon fill="midnightblue" stroke="midnightblue" points="408.855,-51.2943 399.596,-56.4435 410.045,-58.1924 408.855,-51.2943"/>
</g>
</g>
</svg>
