<?xml version="1.0" encoding="UTF-8" standalone="no"?>
<!DOCTYPE svg PUBLIC "-//W3C//DTD SVG 1.1//EN"
 "http://www.w3.org/Graphics/SVG/1.1/DTD/svg11.dtd">
<!-- Generated by graphviz version 2.38.0 (20140413.2041)
 -->
<!-- Title: src/resource/PipelineCache.cpp Pages: 1 -->
<svg width="1704pt" height="252pt"
 viewBox="0.00 0.00 1703.50 252.00" xmlns="http://www.w3.org/2000/svg" xmlns:xlink="http://www.w3.org/1999/xlink">
<g id="graph0" class="graph" transform="scale(1 1) rotate(0) translate(4 248)">
<title>src/resource/PipelineCache.cpp</title>
<polygon fill="white" stroke="none" points="-4,4 -4,-248 1699.5,-248 1699.5,4 -4,4"/>
<!-- Node0 -->
<g id="node1" class="node"><title>Node0</title>
<polygon fill="#bfbfbf" stroke="black" points="380.5,-224.5 380.5,-243.5 535.5,-243.5 535.5,-224.5 380.5,-224.5"/>
<text text-anchor="middle" x="458" y="-231.5" font-family="Helvetica,sans-Serif" font-size="10.00">src/resource/PipelineCache.cpp</text>
</g>
<!-- Node1 -->
<g id="node2" class="node"><title>Node1</title>
<g id="a_node2"><a xlink:href="vpr__stdafx_8h.html" target="_top" xlink:title="vpr_stdafx.h">
<polygon fill="white" stroke="black" points="317,-112.5 317,-131.5 385,-131.5 385,-112.5 317,-112.5"/>
<text text-anchor="middle" x="351" y="-119.5" font-family="Helvetica,sans-Serif" font-size="10.00">vpr_stdafx.h</text>
</a>
</g>
</g>
<!-- Node0&#45;&gt;Node1 -->
<g id="edge1" class="edge"><title>Node0&#45;&gt;Node1</title>
<path fill="none" stroke="midnightblue" d="M435.284,-224.453C418.185,-217.038 395.178,-204.838 380,-188 367.988,-174.674 360.273,-155.556 355.845,-141.503"/>
<polygon fill="midnightblue" stroke="midnightblue" points="359.104,-140.17 352.979,-131.525 352.376,-142.103 359.104,-140.17"/>
</g>
<!-- Node13 -->
<g id="node14" class="node"><title>Node13</title>
<g id="a_node14"><a xlink:href="_pipeline_cache_8hpp.html" target="_top" xlink:title="resource/PipelineCache.hpp">
<polygon fill="white" stroke="black" points="389,-168.5 389,-187.5 527,-187.5 527,-168.5 389,-168.5"/>
<text text-anchor="middle" x="458" y="-175.5" font-family="Helvetica,sans-Serif" font-size="10.00">resource/PipelineCache.hpp</text>
</a>
</g>
</g>
<!-- Node0&#45;&gt;Node13 -->
<g id="edge15" class="edge"><title>Node0&#45;&gt;Node13</title>
<path fill="none" stroke="midnightblue" d="M458,-224.083C458,-217.006 458,-206.861 458,-197.986"/>
<polygon fill="midnightblue" stroke="midnightblue" points="461.5,-197.751 458,-187.751 454.5,-197.751 461.5,-197.751"/>
</g>
<!-- Node15 -->
<g id="node16" class="node"><title>Node15</title>
<g id="a_node16"><a xlink:href="_logical_device_8hpp.html" target="_top" xlink:title="core/LogicalDevice.hpp">
<polygon fill="white" stroke="black" points="545,-168.5 545,-187.5 661,-187.5 661,-168.5 545,-168.5"/>
<text text-anchor="middle" x="603" y="-175.5" font-family="Helvetica,sans-Serif" font-size="10.00">core/LogicalDevice.hpp</text>
</a>
</g>
</g>
<!-- Node0&#45;&gt;Node15 -->
<g id="edge18" class="edge"><title>Node0&#45;&gt;Node15</title>
<path fill="none" stroke="midnightblue" d="M480.976,-224.444C505.157,-215.438 543.418,-201.189 570.646,-191.049"/>
<polygon fill="midnightblue" stroke="midnightblue" points="571.982,-194.286 580.132,-187.516 569.539,-187.727 571.982,-194.286"/>
</g>
<!-- Node17 -->
<g id="node18" class="node"><title>Node17</title>
<g id="a_node18"><a xlink:href="_physical_device_8hpp.html" target="_top" xlink:title="core/PhysicalDevice.hpp">
<polygon fill="white" stroke="black" points="209.5,-168.5 209.5,-187.5 332.5,-187.5 332.5,-168.5 209.5,-168.5"/>
<text text-anchor="middle" x="271" y="-175.5" font-family="Helvetica,sans-Serif" font-size="10.00">core/PhysicalDevice.hpp</text>
</a>
</g>
</g>
<!-- Node0&#45;&gt;Node17 -->
<g id="edge22" class="edge"><title>Node0&#45;&gt;Node17</title>
<path fill="none" stroke="midnightblue" d="M428.369,-224.444C396.5,-215.241 345.667,-200.562 310.436,-190.388"/>
<polygon fill="midnightblue" stroke="midnightblue" points="311.071,-186.928 300.492,-187.516 309.128,-193.653 311.071,-186.928"/>
</g>
<!-- Node18 -->
<g id="node19" class="node"><title>Node18</title>
<g id="a_node19"><a xlink:href="easylogging_09_09_8h.html" target="_top" xlink:title="util/easylogging++.h">
<polygon fill="white" stroke="black" points="1024,-112.5 1024,-131.5 1128,-131.5 1128,-112.5 1024,-112.5"/>
<text text-anchor="middle" x="1076" y="-119.5" font-family="Helvetica,sans-Serif" font-size="10.00">util/easylogging++.h</text>
</a>
</g>
</g>
<!-- Node0&#45;&gt;Node18 -->
<g id="edge24" class="edge"><title>Node0&#45;&gt;Node18</title>
<path fill="none" stroke="midnightblue" d="M505.979,-224.46C617.997,-204.522 896.429,-154.963 1017.84,-133.352"/>
<polygon fill="midnightblue" stroke="midnightblue" points="1018.82,-136.733 1028.05,-131.535 1017.59,-129.841 1018.82,-136.733"/>
</g>
<!-- Node2 -->
<g id="node3" class="node"><title>Node2</title>
<polygon fill="white" stroke="#bfbfbf" points="419.5,-0.5 419.5,-19.5 460.5,-19.5 460.5,-0.5 419.5,-0.5"/>
<text text-anchor="middle" x="440" y="-7.5" font-family="Helvetica,sans-Serif" font-size="10.00">string</text>
</g>
<!-- Node1&#45;&gt;Node2 -->
<g id="edge2" class="edge"><title>Node1&#45;&gt;Node2</title>
<path fill="none" stroke="midnightblue" d="M316.687,-113.096C279.838,-102.992 229.31,-83.4608 251,-56 270.388,-31.4537 360.89,-18.8544 409.284,-13.7753"/>
<polygon fill="midnightblue" stroke="midnightblue" points="409.892,-17.2319 419.493,-12.7501 409.193,-10.267 409.892,-17.2319"/>
</g>
<!-- Node3 -->
<g id="node4" class="node"><title>Node3</title>
<polygon fill="white" stroke="#bfbfbf" points="585,-56.5 585,-75.5 627,-75.5 627,-56.5 585,-56.5"/>
<text text-anchor="middle" x="606" y="-63.5" font-family="Helvetica,sans-Serif" font-size="10.00">vector</text>
</g>
<!-- Node1&#45;&gt;Node3 -->
<g id="edge3" class="edge"><title>Node1&#45;&gt;Node3</title>
<path fill="none" stroke="midnightblue" d="M385.147,-115.203C427.526,-107.783 502.171,-93.9784 574.971,-76.0762"/>
<polygon fill="midnightblue" stroke="midnightblue" points="575.904,-79.451 584.763,-73.6403 574.214,-72.6581 575.904,-79.451"/>
</g>
<!-- Node4 -->
<g id="node5" class="node"><title>Node4</title>
<polygon fill="white" stroke="#bfbfbf" points="260,-56.5 260,-75.5 298,-75.5 298,-56.5 260,-56.5"/>
<text text-anchor="middle" x="279" y="-63.5" font-family="Helvetica,sans-Serif" font-size="10.00">array</text>
</g>
<!-- Node1&#45;&gt;Node4 -->
<g id="edge4" class="edge"><title>Node1&#45;&gt;Node4</title>
<path fill="none" stroke="midnightblue" d="M339.432,-112.324C328.58,-104.185 312.119,-91.8395 299.117,-82.0874"/>
<polygon fill="midnightblue" stroke="midnightblue" points="300.879,-79.0339 290.779,-75.8339 296.679,-84.6339 300.879,-79.0339"/>
</g>
<!-- Node5 -->
<g id="node6" class="node"><title>Node5</title>
<polygon fill="white" stroke="#bfbfbf" points="515,-56.5 515,-75.5 567,-75.5 567,-56.5 515,-56.5"/>
<text text-anchor="middle" x="541" y="-63.5" font-family="Helvetica,sans-Serif" font-size="10.00">memory</text>
</g>
<!-- Node1&#45;&gt;Node5 -->
<g id="edge5" class="edge"><title>Node1&#45;&gt;Node5</title>
<path fill="none" stroke="midnightblue" d="M381.106,-112.444C414.63,-102.916 468.805,-87.5187 504.661,-77.328"/>
<polygon fill="midnightblue" stroke="midnightblue" points="506.044,-80.5736 514.706,-74.473 504.13,-73.8403 506.044,-80.5736"/>
</g>
<!-- Node6 -->
<g id="node7" class="node"><title>Node6</title>
<polygon fill="white" stroke="#bfbfbf" points="316.5,-56.5 316.5,-75.5 365.5,-75.5 365.5,-56.5 316.5,-56.5"/>
<text text-anchor="middle" x="341" y="-63.5" font-family="Helvetica,sans-Serif" font-size="10.00">cassert</text>
</g>
<!-- Node1&#45;&gt;Node6 -->
<g id="edge6" class="edge"><title>Node1&#45;&gt;Node6</title>
<path fill="none" stroke="midnightblue" d="M349.349,-112.083C348.024,-104.927 346.118,-94.6353 344.461,-85.6911"/>
<polygon fill="midnightblue" stroke="midnightblue" points="347.883,-84.9466 342.621,-75.7511 341,-86.2212 347.883,-84.9466"/>
</g>
<!-- Node7 -->
<g id="node8" class="node"><title>Node7</title>
<polygon fill="white" stroke="#bfbfbf" points="0,-56.5 0,-75.5 44,-75.5 44,-56.5 0,-56.5"/>
<text text-anchor="middle" x="22" y="-63.5" font-family="Helvetica,sans-Serif" font-size="10.00">mutex</text>
</g>
<!-- Node1&#45;&gt;Node7 -->
<g id="edge7" class="edge"><title>Node1&#45;&gt;Node7</title>
<path fill="none" stroke="midnightblue" d="M316.765,-117.328C262.862,-111.223 154.8,-97.6766 54.2751,-76.0348"/>
<polygon fill="midnightblue" stroke="midnightblue" points="54.7769,-72.5619 44.2601,-73.8458 53.2821,-79.4005 54.7769,-72.5619"/>
</g>
<!-- Node8 -->
<g id="node9" class="node"><title>Node8</title>
<g id="a_node9"><a xlink:href="_create_info_base_8hpp.html" target="_top" xlink:title="common/CreateInfoBase.hpp">
<polygon fill="white" stroke="black" points="62,-56.5 62,-75.5 204,-75.5 204,-56.5 62,-56.5"/>
<text text-anchor="middle" x="133" y="-63.5" font-family="Helvetica,sans-Serif" font-size="10.00">common/CreateInfoBase.hpp</text>
</a>
</g>
</g>
<!-- Node1&#45;&gt;Node8 -->
<g id="edge8" class="edge"><title>Node1&#45;&gt;Node8</title>
<path fill="none" stroke="midnightblue" d="M316.938,-112.563C279.324,-103.245 218.634,-88.2121 177.338,-77.9829"/>
<polygon fill="midnightblue" stroke="midnightblue" points="178.091,-74.5636 167.543,-75.5565 176.408,-81.3583 178.091,-74.5636"/>
</g>
<!-- Node11 -->
<g id="node12" class="node"><title>Node11</title>
<g id="a_node12"><a xlink:href="vk_assert_8hpp.html" target="_top" xlink:title="common/vkAssert.hpp">
<polygon fill="white" stroke="black" points="383.5,-56.5 383.5,-75.5 496.5,-75.5 496.5,-56.5 383.5,-56.5"/>
<text text-anchor="middle" x="440" y="-63.5" font-family="Helvetica,sans-Serif" font-size="10.00">common/vkAssert.hpp</text>
</a>
</g>
</g>
<!-- Node1&#45;&gt;Node11 -->
<g id="edge11" class="edge"><title>Node1&#45;&gt;Node11</title>
<path fill="none" stroke="midnightblue" d="M365.299,-112.324C379.183,-103.9 400.492,-90.9709 416.804,-81.0741"/>
<polygon fill="midnightblue" stroke="midnightblue" points="419.002,-83.8341 425.736,-75.6545 415.371,-77.8495 419.002,-83.8341"/>
</g>
<!-- Node9 -->
<g id="node10" class="node"><title>Node9</title>
<polygon fill="white" stroke="#bfbfbf" points="113,-0.5 113,-19.5 153,-19.5 153,-0.5 113,-0.5"/>
<text text-anchor="middle" x="133" y="-7.5" font-family="Helvetica,sans-Serif" font-size="10.00">limits</text>
</g>
<!-- Node8&#45;&gt;Node9 -->
<g id="edge9" class="edge"><title>Node8&#45;&gt;Node9</title>
<path fill="none" stroke="midnightblue" d="M133,-56.083C133,-49.0059 133,-38.8611 133,-29.9865"/>
<polygon fill="midnightblue" stroke="midnightblue" points="136.5,-29.751 133,-19.7511 129.5,-29.7511 136.5,-29.751"/>
</g>
<!-- Node10 -->
<g id="node11" class="node"><title>Node10</title>
<polygon fill="white" stroke="#bfbfbf" points="245,-0.5 245,-19.5 327,-19.5 327,-0.5 245,-0.5"/>
<text text-anchor="middle" x="286" y="-7.5" font-family="Helvetica,sans-Serif" font-size="10.00">vulkan/vulkan.h</text>
</g>
<!-- Node8&#45;&gt;Node10 -->
<g id="edge10" class="edge"><title>Node8&#45;&gt;Node10</title>
<path fill="none" stroke="midnightblue" d="M157.243,-56.4435C182.871,-47.3986 223.485,-33.064 252.238,-22.9158"/>
<polygon fill="midnightblue" stroke="midnightblue" points="253.605,-26.1452 261.87,-19.5164 251.275,-19.5442 253.605,-26.1452"/>
</g>
<!-- Node11&#45;&gt;Node2 -->
<g id="edge13" class="edge"><title>Node11&#45;&gt;Node2</title>
<path fill="none" stroke="midnightblue" d="M440,-56.083C440,-49.0059 440,-38.8611 440,-29.9865"/>
<polygon fill="midnightblue" stroke="midnightblue" points="443.5,-29.751 440,-19.7511 436.5,-29.7511 443.5,-29.751"/>
</g>
<!-- Node11&#45;&gt;Node10 -->
<g id="edge14" class="edge"><title>Node11&#45;&gt;Node10</title>
<path fill="none" stroke="midnightblue" d="M415.598,-56.4435C389.803,-47.3986 348.923,-33.064 319.982,-22.9158"/>
<polygon fill="midnightblue" stroke="midnightblue" points="320.882,-19.5226 310.288,-19.5164 318.566,-26.1283 320.882,-19.5226"/>
</g>
<!-- Node12 -->
<g id="node13" class="node"><title>Node12</title>
<polygon fill="white" stroke="#bfbfbf" points="812,-0.5 812,-19.5 866,-19.5 866,-0.5 812,-0.5"/>
<text text-anchor="middle" x="839" y="-7.5" font-family="Helvetica,sans-Serif" font-size="10.00">iostream</text>
</g>
<!-- Node11&#45;&gt;Node12 -->
<g id="edge12" class="edge"><title>Node11&#45;&gt;Node12</title>
<path fill="none" stroke="midnightblue" d="M496.525,-57.2875C499.73,-56.8515 502.906,-56.42 506,-56 613.38,-41.4232 740.254,-24.3079 801.796,-16.0126"/>
<polygon fill="midnightblue" stroke="midnightblue" points="802.362,-19.4681 811.805,-14.6637 801.427,-12.5309 802.362,-19.4681"/>
</g>
<!-- Node13&#45;&gt;Node1 -->
<g id="edge16" class="edge"><title>Node13&#45;&gt;Node1</title>
<path fill="none" stroke="midnightblue" d="M440.809,-168.324C423.649,-159.664 397.054,-146.242 377.253,-136.249"/>
<polygon fill="midnightblue" stroke="midnightblue" points="378.653,-133.035 368.149,-131.655 375.499,-139.285 378.653,-133.035"/>
</g>
<!-- Node14 -->
<g id="node15" class="node"><title>Node14</title>
<g id="a_node15"><a xlink:href="_forward_decl_8hpp.html" target="_top" xlink:title="ForwardDecl.hpp">
<polygon fill="white" stroke="black" points="459.5,-112.5 459.5,-131.5 548.5,-131.5 548.5,-112.5 459.5,-112.5"/>
<text text-anchor="middle" x="504" y="-119.5" font-family="Helvetica,sans-Serif" font-size="10.00">ForwardDecl.hpp</text>
</a>
</g>
</g>
<!-- Node13&#45;&gt;Node14 -->
<g id="edge17" class="edge"><title>Node13&#45;&gt;Node14</title>
<path fill="none" stroke="midnightblue" d="M465.596,-168.083C472.227,-160.298 482.021,-148.801 490.058,-139.367"/>
<polygon fill="midnightblue" stroke="midnightblue" points="492.725,-141.633 496.545,-131.751 487.396,-137.094 492.725,-141.633"/>
</g>
<!-- Node15&#45;&gt;Node1 -->
<g id="edge19" class="edge"><title>Node15&#45;&gt;Node1</title>
<path fill="none" stroke="midnightblue" d="M563.07,-168.444C517.299,-158.635 442.502,-142.608 395.064,-132.442"/>
<polygon fill="midnightblue" stroke="midnightblue" points="395.598,-128.977 385.086,-130.304 394.131,-135.822 395.598,-128.977"/>
</g>
<!-- Node15&#45;&gt;Node14 -->
<g id="edge20" class="edge"><title>Node15&#45;&gt;Node14</title>
<path fill="none" stroke="midnightblue" d="M587.094,-168.324C571.362,-159.743 547.058,-146.486 528.791,-136.522"/>
<polygon fill="midnightblue" stroke="midnightblue" points="530.322,-133.37 519.867,-131.655 526.97,-139.516 530.322,-133.37"/>
</g>
<!-- Node16 -->
<g id="node17" class="node"><title>Node16</title>
<polygon fill="white" stroke="#bfbfbf" points="645.5,-56.5 645.5,-75.5 680.5,-75.5 680.5,-56.5 645.5,-56.5"/>
<text text-anchor="middle" x="663" y="-63.5" font-family="Helvetica,sans-Serif" font-size="10.00">map</text>
</g>
<!-- Node15&#45;&gt;Node16 -->
<g id="edge21" class="edge"><title>Node15&#45;&gt;Node16</title>
<path fill="none" stroke="midnightblue" d="M607.708,-168.368C617.522,-150.376 640.336,-108.55 653.385,-84.6267"/>
<polygon fill="midnightblue" stroke="midnightblue" points="656.598,-86.0464 658.314,-75.5914 650.453,-82.6944 656.598,-86.0464"/>
</g>
<!-- Node17&#45;&gt;Node1 -->
<g id="edge23" class="edge"><title>Node17&#45;&gt;Node1</title>
<path fill="none" stroke="midnightblue" d="M283.853,-168.324C296.216,-159.979 315.13,-147.212 329.737,-137.352"/>
<polygon fill="midnightblue" stroke="midnightblue" points="331.848,-140.15 338.179,-131.655 327.932,-134.348 331.848,-140.15"/>
</g>
<!-- Node18&#45;&gt;Node2 -->
<g id="edge33" class="edge"><title>Node18&#45;&gt;Node2</title>
<path fill="none" stroke="midnightblue" d="M1023.76,-119.986C954.582,-117.36 829.495,-108.124 728,-76 709.804,-70.2408 708.047,-62.2076 690,-56 613.623,-29.7292 518.572,-18.0155 470.659,-13.4761"/>
<polygon fill="midnightblue" stroke="midnightblue" points="470.9,-9.98376 460.625,-12.5661 470.268,-16.9551 470.9,-9.98376"/>
</g>
<!-- Node18&#45;&gt;Node3 -->
<g id="edge34" class="edge"><title>Node18&#45;&gt;Node3</title>
<path fill="none" stroke="midnightblue" d="M1023.86,-118.701C941.17,-114.375 775.183,-102.913 637,-76 636.9,-75.9806 636.8,-75.961 636.7,-75.9412"/>
<polygon fill="midnightblue" stroke="midnightblue" points="637.758,-72.5946 627.222,-73.7083 636.153,-79.4081 637.758,-72.5946"/>
</g>
<!-- Node18&#45;&gt;Node5 -->
<g id="edge42" class="edge"><title>Node18&#45;&gt;Node5</title>
<path fill="none" stroke="midnightblue" d="M1023.81,-119.086C934.251,-115.195 745.462,-104.347 577.299,-75.9602"/>
<polygon fill="midnightblue" stroke="midnightblue" points="577.722,-72.4818 567.274,-74.2428 576.54,-79.3813 577.722,-72.4818"/>
</g>
<!-- Node18&#45;&gt;Node12 -->
<g id="edge40" class="edge"><title>Node18&#45;&gt;Node12</title>
<path fill="none" stroke="midnightblue" d="M1100.81,-112.496C1130.59,-100.997 1174.15,-79.2375 1154,-56 1118.39,-14.9457 951.461,-10.4157 876.093,-10.5181"/>
<polygon fill="midnightblue" stroke="midnightblue" points="876.074,-7.01808 866.089,-10.56 876.103,-14.018 876.074,-7.01808"/>
</g>
<!-- Node18&#45;&gt;Node16 -->
<g id="edge35" class="edge"><title>Node18&#45;&gt;Node16</title>
<path fill="none" stroke="midnightblue" d="M1023.83,-117.439C950.063,-111.816 811.291,-99.0733 695,-76 693.549,-75.7122 692.069,-75.3918 690.578,-75.0483"/>
<polygon fill="midnightblue" stroke="midnightblue" points="691.377,-71.6399 680.82,-72.5449 689.637,-78.4203 691.377,-71.6399"/>
</g>
<!-- Node19 -->
<g id="node20" class="node"><title>Node19</title>
<polygon fill="white" stroke="#bfbfbf" points="1201.5,-56.5 1201.5,-75.5 1242.5,-75.5 1242.5,-56.5 1201.5,-56.5"/>
<text text-anchor="middle" x="1222" y="-63.5" font-family="Helvetica,sans-Serif" font-size="10.00">ctime</text>
</g>
<!-- Node18&#45;&gt;Node19 -->
<g id="edge25" class="edge"><title>Node18&#45;&gt;Node19</title>
<path fill="none" stroke="midnightblue" d="M1099.13,-112.444C1124.2,-103.173 1164.29,-88.3464 1191.81,-78.1652"/>
<polygon fill="midnightblue" stroke="midnightblue" points="1193.17,-81.395 1201.33,-74.6433 1190.74,-74.8297 1193.17,-81.395"/>
</g>
<!-- Node20 -->
<g id="node21" class="node"><title>Node20</title>
<polygon fill="white" stroke="#bfbfbf" points="1261,-56.5 1261,-75.5 1307,-75.5 1307,-56.5 1261,-56.5"/>
<text text-anchor="middle" x="1284" y="-63.5" font-family="Helvetica,sans-Serif" font-size="10.00">cstring</text>
</g>
<!-- Node18&#45;&gt;Node20 -->
<g id="edge26" class="edge"><title>Node18&#45;&gt;Node20</title>
<path fill="none" stroke="midnightblue" d="M1110.46,-112.447C1143.98,-104.071 1196.57,-90.7779 1251.11,-76.1947"/>
<polygon fill="midnightblue" stroke="midnightblue" points="1252.19,-79.5266 1260.95,-73.5547 1250.38,-72.7657 1252.19,-79.5266"/>
</g>
<!-- Node21 -->
<g id="node22" class="node"><title>Node21</title>
<polygon fill="white" stroke="#bfbfbf" points="1325.5,-56.5 1325.5,-75.5 1370.5,-75.5 1370.5,-56.5 1325.5,-56.5"/>
<text text-anchor="middle" x="1348" y="-63.5" font-family="Helvetica,sans-Serif" font-size="10.00">cstdlib</text>
</g>
<!-- Node18&#45;&gt;Node21 -->
<g id="edge27" class="edge"><title>Node18&#45;&gt;Node21</title>
<path fill="none" stroke="midnightblue" d="M1128.25,-112.581C1174.86,-104.759 1245.15,-92.2043 1315.42,-75.9586"/>
<polygon fill="midnightblue" stroke="midnightblue" points="1316.4,-79.3257 1325.34,-73.6419 1314.8,-72.5093 1316.4,-79.3257"/>
</g>
<!-- Node22 -->
<g id="node23" class="node"><title>Node22</title>
<polygon fill="white" stroke="#bfbfbf" points="1389,-56.5 1389,-75.5 1435,-75.5 1435,-56.5 1389,-56.5"/>
<text text-anchor="middle" x="1412" y="-63.5" font-family="Helvetica,sans-Serif" font-size="10.00">cctype</text>
</g>
<!-- Node18&#45;&gt;Node22 -->
<g id="edge28" class="edge"><title>Node18&#45;&gt;Node22</title>
<path fill="none" stroke="midnightblue" d="M1128.27,-115.313C1187.04,-108.462 1285.46,-95.6226 1378.78,-76.0373"/>
<polygon fill="midnightblue" stroke="midnightblue" points="1379.61,-79.4382 1388.67,-73.9326 1378.16,-72.5916 1379.61,-79.4382"/>
</g>
<!-- Node23 -->
<g id="node24" class="node"><title>Node23</title>
<polygon fill="white" stroke="#bfbfbf" points="1453.5,-56.5 1453.5,-75.5 1500.5,-75.5 1500.5,-56.5 1453.5,-56.5"/>
<text text-anchor="middle" x="1477" y="-63.5" font-family="Helvetica,sans-Serif" font-size="10.00">cwchar</text>
</g>
<!-- Node18&#45;&gt;Node23 -->
<g id="edge29" class="edge"><title>Node18&#45;&gt;Node23</title>
<path fill="none" stroke="midnightblue" d="M1128.18,-117.011C1197.88,-111.155 1325.32,-98.6081 1443.37,-75.8469"/>
<polygon fill="midnightblue" stroke="midnightblue" points="1444.16,-79.2585 1453.3,-73.9029 1442.82,-72.3888 1444.16,-79.2585"/>
</g>
<!-- Node24 -->
<g id="node25" class="node"><title>Node24</title>
<polygon fill="white" stroke="#bfbfbf" points="1518.5,-56.5 1518.5,-75.5 1565.5,-75.5 1565.5,-56.5 1518.5,-56.5"/>
<text text-anchor="middle" x="1542" y="-63.5" font-family="Helvetica,sans-Serif" font-size="10.00">csignal</text>
</g>
<!-- Node18&#45;&gt;Node24 -->
<g id="edge30" class="edge"><title>Node18&#45;&gt;Node24</title>
<path fill="none" stroke="midnightblue" d="M1128.19,-118.473C1208.2,-113.969 1366.03,-102.595 1508.14,-76.0758"/>
<polygon fill="midnightblue" stroke="midnightblue" points="1509.17,-79.4427 1518.34,-74.1401 1507.86,-72.5653 1509.17,-79.4427"/>
</g>
<!-- Node25 -->
<g id="node26" class="node"><title>Node25</title>
<polygon fill="white" stroke="#bfbfbf" points="1584,-56.5 1584,-75.5 1628,-75.5 1628,-56.5 1584,-56.5"/>
<text text-anchor="middle" x="1606" y="-63.5" font-family="Helvetica,sans-Serif" font-size="10.00">cerrno</text>
</g>
<!-- Node18&#45;&gt;Node25 -->
<g id="edge31" class="edge"><title>Node18&#45;&gt;Node25</title>
<path fill="none" stroke="midnightblue" d="M1128.17,-119.597C1217.7,-116.471 1406.32,-106.751 1573.79,-75.8791"/>
<polygon fill="midnightblue" stroke="midnightblue" points="1574.59,-79.2906 1583.77,-74.0089 1573.3,-72.4103 1574.59,-79.2906"/>
</g>
<!-- Node26 -->
<g id="node27" class="node"><title>Node26</title>
<polygon fill="white" stroke="#bfbfbf" points="1646.5,-56.5 1646.5,-75.5 1695.5,-75.5 1695.5,-56.5 1646.5,-56.5"/>
<text text-anchor="middle" x="1671" y="-63.5" font-family="Helvetica,sans-Serif" font-size="10.00">cstdarg</text>
</g>
<!-- Node18&#45;&gt;Node26 -->
<g id="edge32" class="edge"><title>Node18&#45;&gt;Node26</title>
<path fill="none" stroke="midnightblue" d="M1128.21,-119.921C1226.12,-117.223 1443.99,-108.033 1636.23,-75.8062"/>
<polygon fill="midnightblue" stroke="midnightblue" points="1636.96,-79.232 1646.23,-74.1042 1635.78,-72.3312 1636.96,-79.232"/>
</g>
<!-- Node27 -->
<g id="node28" class="node"><title>Node27</title>
<polygon fill="white" stroke="#bfbfbf" points="737,-56.5 737,-75.5 777,-75.5 777,-56.5 737,-56.5"/>
<text text-anchor="middle" x="757" y="-63.5" font-family="Helvetica,sans-Serif" font-size="10.00">utility</text>
</g>
<!-- Node18&#45;&gt;Node27 -->
<g id="edge36" class="edge"><title>Node18&#45;&gt;Node27</title>
<path fill="none" stroke="midnightblue" d="M1023.96,-115.265C967.689,-108.542 875.256,-95.9906 787.075,-75.9617"/>
<polygon fill="midnightblue" stroke="midnightblue" points="787.709,-72.5161 777.178,-73.6776 786.135,-79.3368 787.709,-72.5161"/>
</g>
<!-- Node28 -->
<g id="node29" class="node"><title>Node28</title>
<polygon fill="white" stroke="#bfbfbf" points="795,-56.5 795,-75.5 853,-75.5 853,-56.5 795,-56.5"/>
<text text-anchor="middle" x="824" y="-63.5" font-family="Helvetica,sans-Serif" font-size="10.00">functional</text>
</g>
<!-- Node18&#45;&gt;Node28 -->
<g id="edge37" class="edge"><title>Node18&#45;&gt;Node28</title>
<path fill="none" stroke="midnightblue" d="M1033.7,-112.435C992.595,-104.037 928.145,-90.6769 863.055,-76.1938"/>
<polygon fill="midnightblue" stroke="midnightblue" points="863.551,-72.7185 853.029,-73.955 862.026,-79.5502 863.551,-72.7185"/>
</g>
<!-- Node29 -->
<g id="node30" class="node"><title>Node29</title>
<polygon fill="white" stroke="#bfbfbf" points="871,-56.5 871,-75.5 927,-75.5 927,-56.5 871,-56.5"/>
<text text-anchor="middle" x="899" y="-63.5" font-family="Helvetica,sans-Serif" font-size="10.00">algorithm</text>
</g>
<!-- Node18&#45;&gt;Node29 -->
<g id="edge38" class="edge"><title>Node18&#45;&gt;Node29</title>
<path fill="none" stroke="midnightblue" d="M1047.95,-112.444C1017.92,-103.28 970.087,-88.6876 936.757,-78.5192"/>
<polygon fill="midnightblue" stroke="midnightblue" points="937.501,-75.0869 926.915,-75.5164 935.458,-81.7822 937.501,-75.0869"/>
</g>
<!-- Node30 -->
<g id="node31" class="node"><title>Node30</title>
<polygon fill="white" stroke="#bfbfbf" points="945.5,-56.5 945.5,-75.5 994.5,-75.5 994.5,-56.5 945.5,-56.5"/>
<text text-anchor="middle" x="970" y="-63.5" font-family="Helvetica,sans-Serif" font-size="10.00">fstream</text>
</g>
<!-- Node18&#45;&gt;Node30 -->
<g id="edge39" class="edge"><title>Node18&#45;&gt;Node30</title>
<path fill="none" stroke="midnightblue" d="M1058.97,-112.324C1041.97,-103.664 1015.62,-90.2424 996.007,-80.249"/>
<polygon fill="midnightblue" stroke="midnightblue" points="997.488,-77.0752 986.988,-75.6545 994.31,-83.3125 997.488,-77.0752"/>
</g>
<!-- Node31 -->
<g id="node32" class="node"><title>Node31</title>
<polygon fill="white" stroke="#bfbfbf" points="1013,-56.5 1013,-75.5 1065,-75.5 1065,-56.5 1013,-56.5"/>
<text text-anchor="middle" x="1039" y="-63.5" font-family="Helvetica,sans-Serif" font-size="10.00">sstream</text>
</g>
<!-- Node18&#45;&gt;Node31 -->
<g id="edge41" class="edge"><title>Node18&#45;&gt;Node31</title>
<path fill="none" stroke="midnightblue" d="M1069.89,-112.083C1064.72,-104.534 1057.15,-93.4948 1050.81,-84.2298"/>
<polygon fill="midnightblue" stroke="midnightblue" points="1053.54,-82.0221 1045,-75.7511 1047.76,-85.9787 1053.54,-82.0221"/>
</g>
<!-- Node32 -->
<g id="node33" class="node"><title>Node32</title>
<polygon fill="white" stroke="#bfbfbf" points="1083,-56.5 1083,-75.5 1145,-75.5 1145,-56.5 1083,-56.5"/>
<text text-anchor="middle" x="1114" y="-63.5" font-family="Helvetica,sans-Serif" font-size="10.00">type_traits</text>
</g>
<!-- Node18&#45;&gt;Node32 -->
<g id="edge43" class="edge"><title>Node18&#45;&gt;Node32</title>
<path fill="none" stroke="midnightblue" d="M1082.27,-112.083C1087.64,-104.455 1095.52,-93.2645 1102.08,-83.9408"/>
<polygon fill="midnightblue" stroke="midnightblue" points="1104.95,-85.9434 1107.84,-75.7511 1099.22,-81.9149 1104.95,-85.9434"/>
</g>
</g>
</svg>
