<?xml version="1.0" encoding="UTF-8" standalone="no"?>
<!DOCTYPE svg PUBLIC "-//W3C//DTD SVG 1.1//EN"
 "http://www.w3.org/Graphics/SVG/1.1/DTD/svg11.dtd">
<!-- Generated by graphviz version 2.38.0 (20140413.2041)
 -->
<!-- Title: resource/src/PipelineLayout.cpp Pages: 1 -->
<svg width="357pt" height="196pt"
 viewBox="0.00 0.00 356.88 196.00" xmlns="http://www.w3.org/2000/svg" xmlns:xlink="http://www.w3.org/1999/xlink">
<g id="graph0" class="graph" transform="scale(1 1) rotate(0) translate(4 192)">
<title>resource/src/PipelineLayout.cpp</title>
<polygon fill="white" stroke="none" points="-4,4 -4,-192 352.878,-192 352.878,4 -4,4"/>
<!-- Node0 -->
<g id="node1" class="node"><title>Node0</title>
<polygon fill="#bfbfbf" stroke="black" points="36.878,-168.5 36.878,-187.5 192.878,-187.5 192.878,-168.5 36.878,-168.5"/>
<text text-anchor="middle" x="114.878" y="-175.5" font-family="Helvetica,sans-Serif" font-size="10.00">resource/src/PipelineLayout.cpp</text>
</g>
<!-- Node1 -->
<g id="node2" class="node"><title>Node1</title>
<g id="a_node2"><a xlink:href="vpr__stdafx_8h.html" target="_top" xlink:title="vpr_stdafx.h">
<polygon fill="white" stroke="black" points="6.87805,-56.5 6.87805,-75.5 74.878,-75.5 74.878,-56.5 6.87805,-56.5"/>
<text text-anchor="middle" x="40.878" y="-63.5" font-family="Helvetica,sans-Serif" font-size="10.00">vpr_stdafx.h</text>
</a>
</g>
</g>
<!-- Node0&#45;&gt;Node1 -->
<g id="edge1" class="edge"><title>Node0&#45;&gt;Node1</title>
<path fill="none" stroke="midnightblue" d="M60.7979,-168.468C39.3549,-162.146 16.7738,-151.143 3.87805,-132 -7.14001,-115.644 7.93762,-95.8175 22.0257,-82.3949"/>
<polygon fill="midnightblue" stroke="midnightblue" points="24.4447,-84.9273 29.5786,-75.6594 19.7857,-79.7029 24.4447,-84.9273"/>
</g>
<!-- Node3 -->
<g id="node4" class="node"><title>Node3</title>
<g id="a_node4"><a xlink:href="_pipeline_layout_8hpp.html" target="_top" xlink:title="PipelineLayout.hpp">
<polygon fill="white" stroke="black" points="13.378,-112.5 13.378,-131.5 112.378,-131.5 112.378,-112.5 13.378,-112.5"/>
<text text-anchor="middle" x="62.878" y="-119.5" font-family="Helvetica,sans-Serif" font-size="10.00">PipelineLayout.hpp</text>
</a>
</g>
</g>
<!-- Node0&#45;&gt;Node3 -->
<g id="edge3" class="edge"><title>Node0&#45;&gt;Node3</title>
<path fill="none" stroke="midnightblue" d="M106.291,-168.083C98.7191,-160.22 87.4999,-148.569 78.3637,-139.081"/>
<polygon fill="midnightblue" stroke="midnightblue" points="80.7626,-136.527 71.305,-131.751 75.7203,-141.382 80.7626,-136.527"/>
</g>
<!-- Node4 -->
<g id="node5" class="node"><title>Node4</title>
<g id="a_node5"><a xlink:href="vk_assert_8hpp.html" target="_top" xlink:title="vkAssert.hpp">
<polygon fill="white" stroke="black" points="130.378,-112.5 130.378,-131.5 203.378,-131.5 203.378,-112.5 130.378,-112.5"/>
<text text-anchor="middle" x="166.878" y="-119.5" font-family="Helvetica,sans-Serif" font-size="10.00">vkAssert.hpp</text>
</a>
</g>
</g>
<!-- Node0&#45;&gt;Node4 -->
<g id="edge5" class="edge"><title>Node0&#45;&gt;Node4</title>
<path fill="none" stroke="midnightblue" d="M123.465,-168.083C131.037,-160.22 142.256,-148.569 151.392,-139.081"/>
<polygon fill="midnightblue" stroke="midnightblue" points="154.036,-141.382 158.451,-131.751 148.994,-136.527 154.036,-141.382"/>
</g>
<!-- Node7 -->
<g id="node8" class="node"><title>Node7</title>
<g id="a_node8"><a xlink:href="_create_info_base_8hpp.html" target="_top" xlink:title="CreateInfoBase.hpp">
<polygon fill="white" stroke="black" points="230.378,-112.5 230.378,-131.5 331.378,-131.5 331.378,-112.5 230.378,-112.5"/>
<text text-anchor="middle" x="280.878" y="-119.5" font-family="Helvetica,sans-Serif" font-size="10.00">CreateInfoBase.hpp</text>
</a>
</g>
</g>
<!-- Node0&#45;&gt;Node7 -->
<g id="edge9" class="edge"><title>Node0&#45;&gt;Node7</title>
<path fill="none" stroke="midnightblue" d="M141.181,-168.444C169.229,-159.32 213.822,-144.813 245.062,-134.651"/>
<polygon fill="midnightblue" stroke="midnightblue" points="246.271,-137.938 254.698,-131.516 244.106,-131.282 246.271,-137.938"/>
</g>
<!-- Node2 -->
<g id="node3" class="node"><title>Node2</title>
<polygon fill="white" stroke="#bfbfbf" points="61.878,-0.5 61.878,-19.5 143.878,-19.5 143.878,-0.5 61.878,-0.5"/>
<text text-anchor="middle" x="102.878" y="-7.5" font-family="Helvetica,sans-Serif" font-size="10.00">vulkan/vulkan.h</text>
</g>
<!-- Node1&#45;&gt;Node2 -->
<g id="edge2" class="edge"><title>Node1&#45;&gt;Node2</title>
<path fill="none" stroke="midnightblue" d="M50.8394,-56.324C60.0046,-48.3414 73.8153,-36.3128 84.9062,-26.6529"/>
<polygon fill="midnightblue" stroke="midnightblue" points="87.4933,-29.041 92.7354,-19.8339 82.8958,-23.7624 87.4933,-29.041"/>
</g>
<!-- Node3&#45;&gt;Node1 -->
<g id="edge4" class="edge"><title>Node3&#45;&gt;Node1</title>
<path fill="none" stroke="midnightblue" d="M59.2452,-112.083C56.2658,-104.77 51.9519,-94.1814 48.2535,-85.1034"/>
<polygon fill="midnightblue" stroke="midnightblue" points="51.4577,-83.6914 44.4433,-75.7511 44.975,-86.3326 51.4577,-83.6914"/>
</g>
<!-- Node4&#45;&gt;Node2 -->
<g id="edge8" class="edge"><title>Node4&#45;&gt;Node2</title>
<path fill="none" stroke="midnightblue" d="M155.27,-112.233C145.074,-103.949 130.551,-90.6382 121.878,-76 113.357,-61.618 108.44,-43.1602 105.752,-29.5908"/>
<polygon fill="midnightblue" stroke="midnightblue" points="109.164,-28.7839 103.989,-19.5391 102.27,-29.9935 109.164,-28.7839"/>
</g>
<!-- Node5 -->
<g id="node6" class="node"><title>Node5</title>
<polygon fill="white" stroke="#bfbfbf" points="130.878,-56.5 130.878,-75.5 184.878,-75.5 184.878,-56.5 130.878,-56.5"/>
<text text-anchor="middle" x="157.878" y="-63.5" font-family="Helvetica,sans-Serif" font-size="10.00">iostream</text>
</g>
<!-- Node4&#45;&gt;Node5 -->
<g id="edge6" class="edge"><title>Node4&#45;&gt;Node5</title>
<path fill="none" stroke="midnightblue" d="M165.392,-112.083C164.199,-104.927 162.484,-94.6353 160.993,-85.6911"/>
<polygon fill="midnightblue" stroke="midnightblue" points="164.433,-85.0396 159.337,-75.7511 157.528,-86.1904 164.433,-85.0396"/>
</g>
<!-- Node6 -->
<g id="node7" class="node"><title>Node6</title>
<polygon fill="white" stroke="#bfbfbf" points="203.378,-56.5 203.378,-75.5 252.378,-75.5 252.378,-56.5 203.378,-56.5"/>
<text text-anchor="middle" x="227.878" y="-63.5" font-family="Helvetica,sans-Serif" font-size="10.00">cassert</text>
</g>
<!-- Node4&#45;&gt;Node6 -->
<g id="edge7" class="edge"><title>Node4&#45;&gt;Node6</title>
<path fill="none" stroke="midnightblue" d="M176.679,-112.324C185.696,-104.341 199.284,-92.3128 210.196,-82.6529"/>
<polygon fill="midnightblue" stroke="midnightblue" points="212.731,-85.083 217.899,-75.8339 208.091,-79.8416 212.731,-85.083"/>
</g>
<!-- Node7&#45;&gt;Node2 -->
<g id="edge11" class="edge"><title>Node7&#45;&gt;Node2</title>
<path fill="none" stroke="midnightblue" d="M280.705,-112.074C279.941,-98.1286 276.4,-71.1992 260.878,-56 232.622,-28.3319 188.623,-17.4342 154.225,-13.257"/>
<polygon fill="midnightblue" stroke="midnightblue" points="154.198,-9.73477 143.886,-12.1652 153.463,-16.6961 154.198,-9.73477"/>
</g>
<!-- Node8 -->
<g id="node9" class="node"><title>Node8</title>
<polygon fill="white" stroke="#bfbfbf" points="308.878,-56.5 308.878,-75.5 348.878,-75.5 348.878,-56.5 308.878,-56.5"/>
<text text-anchor="middle" x="328.878" y="-63.5" font-family="Helvetica,sans-Serif" font-size="10.00">limits</text>
</g>
<!-- Node7&#45;&gt;Node8 -->
<g id="edge10" class="edge"><title>Node7&#45;&gt;Node8</title>
<path fill="none" stroke="midnightblue" d="M288.804,-112.083C295.724,-104.298 305.943,-92.8015 314.33,-83.3665"/>
<polygon fill="midnightblue" stroke="midnightblue" points="317.072,-85.5505 321.099,-75.7511 311.84,-80.8999 317.072,-85.5505"/>
</g>
</g>
</svg>
