<?xml version="1.0" encoding="UTF-8" standalone="no"?>
<!DOCTYPE svg PUBLIC "-//W3C//DTD SVG 1.1//EN"
 "http://www.w3.org/Graphics/SVG/1.1/DTD/svg11.dtd">
<!-- Generated by graphviz version 2.38.0 (20140413.2041)
 -->
<!-- Title: src/resource/Queue.cpp Pages: 1 -->
<!--zoomable 252 -->
<svg id="main" version="1.1" xmlns="http://www.w3.org/2000/svg" xmlns:xlink="http://www.w3.org/1999/xlink" xml:space="preserve" onload="init(evt)">
<style type="text/css"><![CDATA[
.edge:hover path { stroke: red; }
.edge:hover polygon { stroke: red; fill: red; }
]]></style>
<script type="text/javascript"><![CDATA[
var edges = document.getElementsByTagName('g');
if (edges && edges.length) {
  for (var i=0;i<edges.length;i++) {
    if (edges[i].id.substr(0,4)=='edge') {
      edges[i].setAttribute('class','edge');
    }
  }
}
]]></script>
        <defs>
                <circle id="rim" cx="0" cy="0" r="7"/>
                <circle id="rim2" cx="0" cy="0" r="3.5"/>
                <g id="zoomPlus">
                        <use xlink:href="#rim" fill="#404040">
                                <set attributeName="fill" to="#808080" begin="zoomplus.mouseover" end="zoomplus.mouseout"/>
                        </use>
                        <path d="M-4,0h8M0,-4v8" fill="none" stroke="white" stroke-width="1.5" pointer-events="none"/>
                </g>
                <g id="zoomMin">
                        <use xlink:href="#rim" fill="#404040">
                                <set attributeName="fill" to="#808080" begin="zoomminus.mouseover" end="zoomminus.mouseout"/>
                        </use>
                        <path d="M-4,0h8" fill="none" stroke="white" stroke-width="1.5" pointer-events="none"/>
                </g>
                <g id="dirArrow">
                        <path fill="none" stroke="white" stroke-width="1.5" d="M0,-3.0v7 M-2.5,-0.5L0,-3.0L2.5,-0.5"/>
                </g>
               <g id="resetDef">
                       <use xlink:href="#rim2" fill="#404040">
                               <set attributeName="fill" to="#808080" begin="reset.mouseover" end="reset.mouseout"/>
                       </use>
               </g>
        </defs>

<script type="text/javascript">
var viewWidth = 636;
var viewHeight = 252;
var sectionId = 'dynsection-0';
</script>
<script xlink:href="svgpan.js"/>
<svg id="graph" class="graph">
<g id="viewport">
<title>src/resource/Queue.cpp</title>
<polygon fill="white" stroke="none" points="-4,4 -4,-248 632,-248 632,4 -4,4"/>
<!-- Node0 -->
<g id="node1" class="node"><title>Node0</title>
<polygon fill="#bfbfbf" stroke="black" points="312.5,-224.5 312.5,-243.5 433.5,-243.5 433.5,-224.5 312.5,-224.5"/>
<text text-anchor="middle" x="373" y="-231.5" font-family="Helvetica,sans-Serif" font-size="10.00">src/resource/Queue.cpp</text>
</g>
<!-- Node1 -->
<g id="node2" class="node"><title>Node1</title>
<g id="a_node2"><a xlink:href="vpr__stdafx_8h.html" target="_top" xlink:title="vpr_stdafx.h">
<polygon fill="white" stroke="black" points="291,-112.5 291,-131.5 359,-131.5 359,-112.5 291,-112.5"/>
<text text-anchor="middle" x="325" y="-119.5" font-family="Helvetica,sans-Serif" font-size="10.00">vpr_stdafx.h</text>
</a>
</g>
</g>
<!-- Node0&#45;&gt;Node1 -->
<g id="edge1" class="edge"><title>Node0&#45;&gt;Node1</title>
<path fill="none" stroke="midnightblue" d="M369.234,-224.368C361.417,-206.456 343.294,-164.923 332.832,-140.948"/>
<polygon fill="midnightblue" stroke="midnightblue" points="335.956,-139.357 328.749,-131.591 329.541,-142.157 335.956,-139.357"/>
</g>
<!-- Node13 -->
<g id="node14" class="node"><title>Node13</title>
<g id="a_node14"><a xlink:href="_queue_8hpp.html" target="_top" xlink:title="resource/Queue.hpp">
<polygon fill="white" stroke="black" points="365,-168.5 365,-187.5 469,-187.5 469,-168.5 365,-168.5"/>
<text text-anchor="middle" x="417" y="-175.5" font-family="Helvetica,sans-Serif" font-size="10.00">resource/Queue.hpp</text>
</a>
</g>
</g>
<!-- Node0&#45;&gt;Node13 -->
<g id="edge15" class="edge"><title>Node0&#45;&gt;Node13</title>
<path fill="none" stroke="midnightblue" d="M380.266,-224.083C386.545,-216.377 395.788,-205.033 403.431,-195.653"/>
<polygon fill="midnightblue" stroke="midnightblue" points="406.266,-197.714 409.869,-187.751 400.839,-193.293 406.266,-197.714"/>
</g>
<!-- Node2 -->
<g id="node3" class="node"><title>Node2</title>
<polygon fill="white" stroke="#bfbfbf" points="526.5,-0.5 526.5,-19.5 567.5,-19.5 567.5,-0.5 526.5,-0.5"/>
<text text-anchor="middle" x="547" y="-7.5" font-family="Helvetica,sans-Serif" font-size="10.00">string</text>
</g>
<!-- Node1&#45;&gt;Node2 -->
<g id="edge2" class="edge"><title>Node1&#45;&gt;Node2</title>
<path fill="none" stroke="midnightblue" d="M359.219,-113.828C418.765,-101.33 535.229,-76.8049 536,-76 547.498,-64.0031 549.492,-44.707 549.064,-30.2498"/>
<polygon fill="midnightblue" stroke="midnightblue" points="552.531,-29.6541 548.337,-19.9247 545.548,-30.1459 552.531,-29.6541"/>
</g>
<!-- Node3 -->
<g id="node4" class="node"><title>Node3</title>
<polygon fill="white" stroke="#bfbfbf" points="0,-56.5 0,-75.5 42,-75.5 42,-56.5 0,-56.5"/>
<text text-anchor="middle" x="21" y="-63.5" font-family="Helvetica,sans-Serif" font-size="10.00">vector</text>
</g>
<!-- Node1&#45;&gt;Node3 -->
<g id="edge3" class="edge"><title>Node1&#45;&gt;Node3</title>
<path fill="none" stroke="midnightblue" d="M290.98,-116.846C240.739,-110.401 143.623,-96.7593 52.1849,-76.0271"/>
<polygon fill="midnightblue" stroke="midnightblue" points="52.7451,-72.5646 42.2148,-73.7326 51.1751,-79.3863 52.7451,-72.5646"/>
</g>
<!-- Node4 -->
<g id="node5" class="node"><title>Node4</title>
<polygon fill="white" stroke="#bfbfbf" points="60,-56.5 60,-75.5 98,-75.5 98,-56.5 60,-56.5"/>
<text text-anchor="middle" x="79" y="-63.5" font-family="Helvetica,sans-Serif" font-size="10.00">array</text>
</g>
<!-- Node1&#45;&gt;Node4 -->
<g id="edge4" class="edge"><title>Node1&#45;&gt;Node4</title>
<path fill="none" stroke="midnightblue" d="M290.752,-115.108C249.532,-107.759 178.071,-94.2023 108.065,-76.0611"/>
<polygon fill="midnightblue" stroke="midnightblue" points="108.761,-72.6252 98.1996,-73.4711 106.983,-79.3958 108.761,-72.6252"/>
</g>
<!-- Node5 -->
<g id="node6" class="node"><title>Node5</title>
<polygon fill="white" stroke="#bfbfbf" points="116,-56.5 116,-75.5 168,-75.5 168,-56.5 116,-56.5"/>
<text text-anchor="middle" x="142" y="-63.5" font-family="Helvetica,sans-Serif" font-size="10.00">memory</text>
</g>
<!-- Node1&#45;&gt;Node5 -->
<g id="edge5" class="edge"><title>Node1&#45;&gt;Node5</title>
<path fill="none" stroke="midnightblue" d="M296.003,-112.444C263.99,-102.997 212.424,-87.7807 177.887,-77.5897"/>
<polygon fill="midnightblue" stroke="midnightblue" points="178.775,-74.2024 168.193,-74.729 176.793,-80.9162 178.775,-74.2024"/>
</g>
<!-- Node6 -->
<g id="node7" class="node"><title>Node6</title>
<polygon fill="white" stroke="#bfbfbf" points="186.5,-56.5 186.5,-75.5 235.5,-75.5 235.5,-56.5 186.5,-56.5"/>
<text text-anchor="middle" x="211" y="-63.5" font-family="Helvetica,sans-Serif" font-size="10.00">cassert</text>
</g>
<!-- Node1&#45;&gt;Node6 -->
<g id="edge6" class="edge"><title>Node1&#45;&gt;Node6</title>
<path fill="none" stroke="midnightblue" d="M306.936,-112.444C288.425,-103.675 259.419,-89.9355 238.145,-79.8579"/>
<polygon fill="midnightblue" stroke="midnightblue" points="239.515,-76.6343 228.979,-75.5164 236.518,-82.9604 239.515,-76.6343"/>
</g>
<!-- Node7 -->
<g id="node8" class="node"><title>Node7</title>
<polygon fill="white" stroke="#bfbfbf" points="584,-56.5 584,-75.5 628,-75.5 628,-56.5 584,-56.5"/>
<text text-anchor="middle" x="606" y="-63.5" font-family="Helvetica,sans-Serif" font-size="10.00">mutex</text>
</g>
<!-- Node1&#45;&gt;Node7 -->
<g id="edge7" class="edge"><title>Node1&#45;&gt;Node7</title>
<path fill="none" stroke="midnightblue" d="M359.249,-113.735C362.207,-113.137 365.155,-112.551 368,-112 457.528,-94.6571 480.824,-95.0699 570,-76 571.276,-75.7272 572.575,-75.4412 573.886,-75.1459"/>
<polygon fill="midnightblue" stroke="midnightblue" points="575.045,-78.4685 583.971,-72.7614 573.434,-71.6563 575.045,-78.4685"/>
</g>
<!-- Node8 -->
<g id="node9" class="node"><title>Node8</title>
<g id="a_node9"><a xlink:href="_create_info_base_8hpp.html" target="_top" xlink:title="common/CreateInfoBase.hpp">
<polygon fill="white" stroke="black" points="254,-56.5 254,-75.5 396,-75.5 396,-56.5 254,-56.5"/>
<text text-anchor="middle" x="325" y="-63.5" font-family="Helvetica,sans-Serif" font-size="10.00">common/CreateInfoBase.hpp</text>
</a>
</g>
</g>
<!-- Node1&#45;&gt;Node8 -->
<g id="edge8" class="edge"><title>Node1&#45;&gt;Node8</title>
<path fill="none" stroke="midnightblue" d="M325,-112.083C325,-105.006 325,-94.8611 325,-85.9865"/>
<polygon fill="midnightblue" stroke="midnightblue" points="328.5,-85.751 325,-75.7511 321.5,-85.7511 328.5,-85.751"/>
</g>
<!-- Node11 -->
<g id="node12" class="node"><title>Node11</title>
<g id="a_node12"><a xlink:href="vk_assert_8hpp.html" target="_top" xlink:title="common/vkAssert.hpp">
<polygon fill="white" stroke="black" points="414.5,-56.5 414.5,-75.5 527.5,-75.5 527.5,-56.5 414.5,-56.5"/>
<text text-anchor="middle" x="471" y="-63.5" font-family="Helvetica,sans-Serif" font-size="10.00">common/vkAssert.hpp</text>
</a>
</g>
</g>
<!-- Node1&#45;&gt;Node11 -->
<g id="edge11" class="edge"><title>Node1&#45;&gt;Node11</title>
<path fill="none" stroke="midnightblue" d="M348.134,-112.444C372.482,-103.438 411.007,-89.1891 438.423,-79.049"/>
<polygon fill="midnightblue" stroke="midnightblue" points="439.809,-82.2681 447.974,-75.5164 437.381,-75.7028 439.809,-82.2681"/>
</g>
<!-- Node9 -->
<g id="node10" class="node"><title>Node9</title>
<polygon fill="white" stroke="#bfbfbf" points="291,-0.5 291,-19.5 331,-19.5 331,-0.5 291,-0.5"/>
<text text-anchor="middle" x="311" y="-7.5" font-family="Helvetica,sans-Serif" font-size="10.00">limits</text>
</g>
<!-- Node8&#45;&gt;Node9 -->
<g id="edge9" class="edge"><title>Node8&#45;&gt;Node9</title>
<path fill="none" stroke="midnightblue" d="M322.688,-56.083C320.833,-48.9272 318.165,-38.6353 315.846,-29.6911"/>
<polygon fill="midnightblue" stroke="midnightblue" points="319.166,-28.5527 313.269,-19.7511 312.391,-30.3094 319.166,-28.5527"/>
</g>
<!-- Node10 -->
<g id="node11" class="node"><title>Node10</title>
<polygon fill="white" stroke="#bfbfbf" points="349,-0.5 349,-19.5 431,-19.5 431,-0.5 349,-0.5"/>
<text text-anchor="middle" x="390" y="-7.5" font-family="Helvetica,sans-Serif" font-size="10.00">vulkan/vulkan.h</text>
</g>
<!-- Node8&#45;&gt;Node10 -->
<g id="edge10" class="edge"><title>Node8&#45;&gt;Node10</title>
<path fill="none" stroke="midnightblue" d="M335.443,-56.324C345.146,-48.2631 359.815,-36.0765 371.5,-26.3695"/>
<polygon fill="midnightblue" stroke="midnightblue" points="373.911,-28.9163 379.367,-19.8339 369.438,-23.532 373.911,-28.9163"/>
</g>
<!-- Node11&#45;&gt;Node2 -->
<g id="edge13" class="edge"><title>Node11&#45;&gt;Node2</title>
<path fill="none" stroke="midnightblue" d="M483.211,-56.324C494.776,-48.1066 512.375,-35.6017 526.161,-25.8069"/>
<polygon fill="midnightblue" stroke="midnightblue" points="528.443,-28.4791 534.567,-19.8339 524.388,-22.7729 528.443,-28.4791"/>
</g>
<!-- Node11&#45;&gt;Node10 -->
<g id="edge14" class="edge"><title>Node11&#45;&gt;Node10</title>
<path fill="none" stroke="midnightblue" d="M457.986,-56.324C445.468,-47.979 426.318,-35.2122 411.529,-25.3524"/>
<polygon fill="midnightblue" stroke="midnightblue" points="413.244,-22.2894 402.982,-19.6545 409.361,-28.1137 413.244,-22.2894"/>
</g>
<!-- Node12 -->
<g id="node13" class="node"><title>Node12</title>
<polygon fill="white" stroke="#bfbfbf" points="449,-0.5 449,-19.5 503,-19.5 503,-0.5 449,-0.5"/>
<text text-anchor="middle" x="476" y="-7.5" font-family="Helvetica,sans-Serif" font-size="10.00">iostream</text>
</g>
<!-- Node11&#45;&gt;Node12 -->
<g id="edge12" class="edge"><title>Node11&#45;&gt;Node12</title>
<path fill="none" stroke="midnightblue" d="M471.826,-56.083C472.481,-49.0059 473.42,-38.8611 474.242,-29.9865"/>
<polygon fill="midnightblue" stroke="midnightblue" points="477.753,-30.0312 475.19,-19.7511 470.783,-29.3858 477.753,-30.0312"/>
</g>
<!-- Node13&#45;&gt;Node1 -->
<g id="edge16" class="edge"><title>Node13&#45;&gt;Node1</title>
<path fill="none" stroke="midnightblue" d="M402.219,-168.324C387.733,-159.822 365.427,-146.729 348.507,-136.797"/>
<polygon fill="midnightblue" stroke="midnightblue" points="350.141,-133.698 339.745,-131.655 346.597,-139.735 350.141,-133.698"/>
</g>
<!-- Node13&#45;&gt;Node7 -->
<g id="edge18" class="edge"><title>Node13&#45;&gt;Node7</title>
<path fill="none" stroke="midnightblue" d="M431.831,-168.368C464.539,-149.332 543.088,-103.615 582.546,-80.6505"/>
<polygon fill="midnightblue" stroke="midnightblue" points="584.356,-83.6466 591.238,-75.5914 580.835,-77.5967 584.356,-83.6466"/>
</g>
<!-- Node14 -->
<g id="node15" class="node"><title>Node14</title>
<g id="a_node15"><a xlink:href="_forward_decl_8hpp.html" target="_top" xlink:title="ForwardDecl.hpp">
<polygon fill="white" stroke="black" points="377.5,-112.5 377.5,-131.5 466.5,-131.5 466.5,-112.5 377.5,-112.5"/>
<text text-anchor="middle" x="422" y="-119.5" font-family="Helvetica,sans-Serif" font-size="10.00">ForwardDecl.hpp</text>
</a>
</g>
</g>
<!-- Node13&#45;&gt;Node14 -->
<g id="edge17" class="edge"><title>Node13&#45;&gt;Node14</title>
<path fill="none" stroke="midnightblue" d="M417.826,-168.083C418.481,-161.006 419.42,-150.861 420.242,-141.986"/>
<polygon fill="midnightblue" stroke="midnightblue" points="423.753,-142.031 421.19,-131.751 416.783,-141.386 423.753,-142.031"/>
</g>
</g>
</svg>
        <g id="navigator" transform="translate(0 0)" fill="#404254">
                <rect fill="#f2f5e9" fill-opacity="0.5" stroke="#606060" stroke-width=".5" x="0" y="0" width="60" height="60"/>
                <use id="zoomplus" xlink:href="#zoomPlus" x="17" y="9" onmousedown="handleZoom(evt,'in')"/>
                <use id="zoomminus" xlink:href="#zoomMin" x="42" y="9" onmousedown="handleZoom(evt,'out')"/>
                <use id="reset" xlink:href="#resetDef" x="30" y="36" onmousedown="handleReset()"/>
                <g id="arrowUp" xlink:href="#dirArrow" transform="translate(30 24)" onmousedown="handlePan(0,-1)">
                  <use xlink:href="#rim" fill="#404040">
                        <set attributeName="fill" to="#808080" begin="arrowUp.mouseover" end="arrowUp.mouseout"/>
                  </use>
                  <path fill="none" stroke="white" stroke-width="1.5" d="M0,-3.0v7 M-2.5,-0.5L0,-3.0L2.5,-0.5"/>
                </g>
                <g id="arrowRight" xlink:href="#dirArrow" transform="rotate(90) translate(36 -43)" onmousedown="handlePan(1,0)">
                  <use xlink:href="#rim" fill="#404040">
                        <set attributeName="fill" to="#808080" begin="arrowRight.mouseover" end="arrowRight.mouseout"/>
                  </use>
                  <path fill="none" stroke="white" stroke-width="1.5" d="M0,-3.0v7 M-2.5,-0.5L0,-3.0L2.5,-0.5"/>
                </g>
                <g id="arrowDown" xlink:href="#dirArrow" transform="rotate(180) translate(-30 -48)" onmousedown="handlePan(0,1)">
                  <use xlink:href="#rim" fill="#404040">
                        <set attributeName="fill" to="#808080" begin="arrowDown.mouseover" end="arrowDown.mouseout"/>
                  </use>
                  <path fill="none" stroke="white" stroke-width="1.5" d="M0,-3.0v7 M-2.5,-0.5L0,-3.0L2.5,-0.5"/>
                </g>
                <g id="arrowLeft" xlink:href="#dirArrow" transform="rotate(270) translate(-36 17)" onmousedown="handlePan(-1,0)">
                  <use xlink:href="#rim" fill="#404040">
                        <set attributeName="fill" to="#808080" begin="arrowLeft.mouseover" end="arrowLeft.mouseout"/>
                  </use>
                  <path fill="none" stroke="white" stroke-width="1.5" d="M0,-3.0v7 M-2.5,-0.5L0,-3.0L2.5,-0.5"/>
                </g>
        </g>
        <svg viewBox="0 0 15 15" width="100%" height="30px" preserveAspectRatio="xMaxYMin meet">
         <g id="arrow_out" transform="scale(0.3 0.3)">
          <a xlink:href="_queue_8cpp__incl_org.svg" target="_base">
           <rect id="button" ry="5" rx="5" y="6" x="6" height="38" width="38"
                fill="#f2f5e9" fill-opacity="0.5" stroke="#606060" stroke-width="1.0"/>
           <path id="arrow"
             d="M 11.500037,31.436501 C 11.940474,20.09759 22.043105,11.32322 32.158766,21.979434 L 37.068811,17.246167 C 37.068811,17.246167 37.088388,32 37.088388,32 L 22.160133,31.978069 C 22.160133,31.978069 26.997745,27.140456 26.997745,27.140456 C 18.528582,18.264221 13.291696,25.230495 11.500037,31.436501 z"
             style="fill:#404040;"/>
          </a>
         </g>
        </svg>
</svg>
