<?xml version="1.0" encoding="UTF-8" standalone="no"?>
<!DOCTYPE svg PUBLIC "-//W3C//DTD SVG 1.1//EN"
 "http://www.w3.org/Graphics/SVG/1.1/DTD/svg11.dtd">
<!-- Generated by graphviz version 2.38.0 (20140413.2041)
 -->
<!-- Title: resource/src/Sampler.cpp Pages: 1 -->
<svg width="350pt" height="196pt"
 viewBox="0.00 0.00 350.00 196.00" xmlns="http://www.w3.org/2000/svg" xmlns:xlink="http://www.w3.org/1999/xlink">
<g id="graph0" class="graph" transform="scale(1 1) rotate(0) translate(4 192)">
<title>resource/src/Sampler.cpp</title>
<polygon fill="white" stroke="none" points="-4,4 -4,-192 346,-192 346,4 -4,4"/>
<!-- Node0 -->
<g id="node1" class="node"><title>Node0</title>
<polygon fill="#bfbfbf" stroke="black" points="87,-168.5 87,-187.5 215,-187.5 215,-168.5 87,-168.5"/>
<text text-anchor="middle" x="151" y="-175.5" font-family="Helvetica,sans-Serif" font-size="10.00">resource/src/Sampler.cpp</text>
</g>
<!-- Node1 -->
<g id="node2" class="node"><title>Node1</title>
<g id="a_node2"><a xlink:href="_sampler_8hpp.html" target="_top" xlink:title="Sampler.hpp">
<polygon fill="white" stroke="black" points="12.5,-112.5 12.5,-131.5 83.5,-131.5 83.5,-112.5 12.5,-112.5"/>
<text text-anchor="middle" x="48" y="-119.5" font-family="Helvetica,sans-Serif" font-size="10.00">Sampler.hpp</text>
</a>
</g>
</g>
<!-- Node0&#45;&gt;Node1 -->
<g id="edge1" class="edge"><title>Node0&#45;&gt;Node1</title>
<path fill="none" stroke="midnightblue" d="M134.451,-168.324C118.008,-159.703 92.5652,-146.364 73.5316,-136.386"/>
<polygon fill="midnightblue" stroke="midnightblue" points="74.9895,-133.198 64.5077,-131.655 71.7391,-139.398 74.9895,-133.198"/>
</g>
<!-- Node4 -->
<g id="node5" class="node"><title>Node4</title>
<g id="a_node5"><a xlink:href="vk_assert_8hpp.html" target="_top" xlink:title="vkAssert.hpp">
<polygon fill="white" stroke="black" points="114.5,-112.5 114.5,-131.5 187.5,-131.5 187.5,-112.5 114.5,-112.5"/>
<text text-anchor="middle" x="151" y="-119.5" font-family="Helvetica,sans-Serif" font-size="10.00">vkAssert.hpp</text>
</a>
</g>
</g>
<!-- Node0&#45;&gt;Node4 -->
<g id="edge4" class="edge"><title>Node0&#45;&gt;Node4</title>
<path fill="none" stroke="midnightblue" d="M151,-168.083C151,-161.006 151,-150.861 151,-141.986"/>
<polygon fill="midnightblue" stroke="midnightblue" points="154.5,-141.751 151,-131.751 147.5,-141.751 154.5,-141.751"/>
</g>
<!-- Node7 -->
<g id="node8" class="node"><title>Node7</title>
<g id="a_node8"><a xlink:href="_create_info_base_8hpp.html" target="_top" xlink:title="CreateInfoBase.hpp">
<polygon fill="white" stroke="black" points="223.5,-112.5 223.5,-131.5 324.5,-131.5 324.5,-112.5 223.5,-112.5"/>
<text text-anchor="middle" x="274" y="-119.5" font-family="Helvetica,sans-Serif" font-size="10.00">CreateInfoBase.hpp</text>
</a>
</g>
</g>
<!-- Node0&#45;&gt;Node7 -->
<g id="edge8" class="edge"><title>Node0&#45;&gt;Node7</title>
<path fill="none" stroke="midnightblue" d="M170.49,-168.444C190.642,-159.596 222.323,-145.687 245.331,-135.586"/>
<polygon fill="midnightblue" stroke="midnightblue" points="246.852,-138.741 254.601,-131.516 244.038,-132.332 246.852,-138.741"/>
</g>
<!-- Node2 -->
<g id="node3" class="node"><title>Node2</title>
<g id="a_node3"><a xlink:href="vpr__stdafx_8h.html" target="_top" xlink:title="vpr_stdafx.h">
<polygon fill="white" stroke="black" points="0,-56.5 0,-75.5 68,-75.5 68,-56.5 0,-56.5"/>
<text text-anchor="middle" x="34" y="-63.5" font-family="Helvetica,sans-Serif" font-size="10.00">vpr_stdafx.h</text>
</a>
</g>
</g>
<!-- Node1&#45;&gt;Node2 -->
<g id="edge2" class="edge"><title>Node1&#45;&gt;Node2</title>
<path fill="none" stroke="midnightblue" d="M45.6882,-112.083C43.833,-104.927 41.1647,-94.6353 38.8458,-85.6911"/>
<polygon fill="midnightblue" stroke="midnightblue" points="42.1665,-84.5527 36.2688,-75.7511 35.3905,-86.3094 42.1665,-84.5527"/>
</g>
<!-- Node3 -->
<g id="node4" class="node"><title>Node3</title>
<polygon fill="white" stroke="#bfbfbf" points="55,-0.5 55,-19.5 137,-19.5 137,-0.5 55,-0.5"/>
<text text-anchor="middle" x="96" y="-7.5" font-family="Helvetica,sans-Serif" font-size="10.00">vulkan/vulkan.h</text>
</g>
<!-- Node2&#45;&gt;Node3 -->
<g id="edge3" class="edge"><title>Node2&#45;&gt;Node3</title>
<path fill="none" stroke="midnightblue" d="M43.9614,-56.324C53.1266,-48.3414 66.9372,-36.3128 78.0282,-26.6529"/>
<polygon fill="midnightblue" stroke="midnightblue" points="80.6153,-29.041 85.8574,-19.8339 76.0178,-23.7624 80.6153,-29.041"/>
</g>
<!-- Node4&#45;&gt;Node3 -->
<g id="edge7" class="edge"><title>Node4&#45;&gt;Node3</title>
<path fill="none" stroke="midnightblue" d="M142.419,-112.431C134.297,-103.879 122.294,-90.0246 115,-76 107.372,-61.3318 102.391,-43.1649 99.4508,-29.7692"/>
<polygon fill="midnightblue" stroke="midnightblue" points="102.853,-28.933 97.4477,-19.8206 95.9904,-30.3147 102.853,-28.933"/>
</g>
<!-- Node5 -->
<g id="node6" class="node"><title>Node5</title>
<polygon fill="white" stroke="#bfbfbf" points="124,-56.5 124,-75.5 178,-75.5 178,-56.5 124,-56.5"/>
<text text-anchor="middle" x="151" y="-63.5" font-family="Helvetica,sans-Serif" font-size="10.00">iostream</text>
</g>
<!-- Node4&#45;&gt;Node5 -->
<g id="edge5" class="edge"><title>Node4&#45;&gt;Node5</title>
<path fill="none" stroke="midnightblue" d="M151,-112.083C151,-105.006 151,-94.8611 151,-85.9865"/>
<polygon fill="midnightblue" stroke="midnightblue" points="154.5,-85.751 151,-75.7511 147.5,-85.7511 154.5,-85.751"/>
</g>
<!-- Node6 -->
<g id="node7" class="node"><title>Node6</title>
<polygon fill="white" stroke="#bfbfbf" points="196.5,-56.5 196.5,-75.5 245.5,-75.5 245.5,-56.5 196.5,-56.5"/>
<text text-anchor="middle" x="221" y="-63.5" font-family="Helvetica,sans-Serif" font-size="10.00">cassert</text>
</g>
<!-- Node4&#45;&gt;Node6 -->
<g id="edge6" class="edge"><title>Node4&#45;&gt;Node6</title>
<path fill="none" stroke="midnightblue" d="M162.247,-112.324C172.797,-104.185 188.801,-91.8395 201.442,-82.0874"/>
<polygon fill="midnightblue" stroke="midnightblue" points="203.769,-84.7132 209.549,-75.8339 199.493,-79.1707 203.769,-84.7132"/>
</g>
<!-- Node7&#45;&gt;Node3 -->
<g id="edge10" class="edge"><title>Node7&#45;&gt;Node3</title>
<path fill="none" stroke="midnightblue" d="M273.827,-112.074C273.063,-98.1286 269.522,-71.1992 254,-56 225.744,-28.3319 181.745,-17.4342 147.347,-13.257"/>
<polygon fill="midnightblue" stroke="midnightblue" points="147.32,-9.73477 137.008,-12.1652 146.585,-16.6961 147.32,-9.73477"/>
</g>
<!-- Node8 -->
<g id="node9" class="node"><title>Node8</title>
<polygon fill="white" stroke="#bfbfbf" points="302,-56.5 302,-75.5 342,-75.5 342,-56.5 302,-56.5"/>
<text text-anchor="middle" x="322" y="-63.5" font-family="Helvetica,sans-Serif" font-size="10.00">limits</text>
</g>
<!-- Node7&#45;&gt;Node8 -->
<g id="edge9" class="edge"><title>Node7&#45;&gt;Node8</title>
<path fill="none" stroke="midnightblue" d="M281.926,-112.083C288.846,-104.298 299.065,-92.8015 307.452,-83.3665"/>
<polygon fill="midnightblue" stroke="midnightblue" points="310.194,-85.5505 314.221,-75.7511 304.962,-80.8999 310.194,-85.5505"/>
</g>
</g>
</svg>
