<?xml version="1.0" encoding="UTF-8" standalone="no"?>
<!DOCTYPE svg PUBLIC "-//W3C//DTD SVG 1.1//EN"
 "http://www.w3.org/Graphics/SVG/1.1/DTD/svg11.dtd">
<!-- Generated by graphviz version 2.38.0 (20140413.2041)
 -->
<!-- Title: sync/src/Semaphore.cpp Pages: 1 -->
<svg width="458pt" height="196pt"
 viewBox="0.00 0.00 458.00 196.00" xmlns="http://www.w3.org/2000/svg" xmlns:xlink="http://www.w3.org/1999/xlink">
<g id="graph0" class="graph" transform="scale(1 1) rotate(0) translate(4 192)">
<title>sync/src/Semaphore.cpp</title>
<polygon fill="white" stroke="none" points="-4,4 -4,-192 454,-192 454,4 -4,4"/>
<!-- Node0 -->
<g id="node1" class="node"><title>Node0</title>
<polygon fill="#bfbfbf" stroke="black" points="196.5,-168.5 196.5,-187.5 321.5,-187.5 321.5,-168.5 196.5,-168.5"/>
<text text-anchor="middle" x="259" y="-175.5" font-family="Helvetica,sans-Serif" font-size="10.00">sync/src/Semaphore.cpp</text>
</g>
<!-- Node1 -->
<g id="node2" class="node"><title>Node1</title>
<g id="a_node2"><a xlink:href="_semaphore_8hpp.html" target="_top" xlink:title="Semaphore.hpp">
<polygon fill="white" stroke="black" points="88.5,-112.5 88.5,-131.5 173.5,-131.5 173.5,-112.5 88.5,-112.5"/>
<text text-anchor="middle" x="131" y="-119.5" font-family="Helvetica,sans-Serif" font-size="10.00">Semaphore.hpp</text>
</a>
</g>
</g>
<!-- Node0&#45;&gt;Node1 -->
<g id="edge1" class="edge"><title>Node0&#45;&gt;Node1</title>
<path fill="none" stroke="midnightblue" d="M238.718,-168.444C217.653,-159.557 184.483,-145.563 160.514,-135.451"/>
<polygon fill="midnightblue" stroke="midnightblue" points="161.761,-132.179 151.187,-131.516 159.04,-138.628 161.761,-132.179"/>
</g>
<!-- Node5 -->
<g id="node6" class="node"><title>Node5</title>
<g id="a_node6"><a xlink:href="vk_assert_8hpp.html" target="_top" xlink:title="vkAssert.hpp">
<polygon fill="white" stroke="black" points="222.5,-112.5 222.5,-131.5 295.5,-131.5 295.5,-112.5 222.5,-112.5"/>
<text text-anchor="middle" x="259" y="-119.5" font-family="Helvetica,sans-Serif" font-size="10.00">vkAssert.hpp</text>
</a>
</g>
</g>
<!-- Node0&#45;&gt;Node5 -->
<g id="edge5" class="edge"><title>Node0&#45;&gt;Node5</title>
<path fill="none" stroke="midnightblue" d="M259,-168.083C259,-161.006 259,-150.861 259,-141.986"/>
<polygon fill="midnightblue" stroke="midnightblue" points="262.5,-141.751 259,-131.751 255.5,-141.751 262.5,-141.751"/>
</g>
<!-- Node8 -->
<g id="node9" class="node"><title>Node8</title>
<g id="a_node9"><a xlink:href="_create_info_base_8hpp.html" target="_top" xlink:title="CreateInfoBase.hpp">
<polygon fill="white" stroke="black" points="331.5,-112.5 331.5,-131.5 432.5,-131.5 432.5,-112.5 331.5,-112.5"/>
<text text-anchor="middle" x="382" y="-119.5" font-family="Helvetica,sans-Serif" font-size="10.00">CreateInfoBase.hpp</text>
</a>
</g>
</g>
<!-- Node0&#45;&gt;Node8 -->
<g id="edge9" class="edge"><title>Node0&#45;&gt;Node8</title>
<path fill="none" stroke="midnightblue" d="M278.49,-168.444C298.642,-159.596 330.323,-145.687 353.331,-135.586"/>
<polygon fill="midnightblue" stroke="midnightblue" points="354.852,-138.741 362.601,-131.516 352.038,-132.332 354.852,-138.741"/>
</g>
<!-- Node2 -->
<g id="node3" class="node"><title>Node2</title>
<g id="a_node3"><a xlink:href="vpr__stdafx_8h.html" target="_top" xlink:title="vpr_stdafx.h">
<polygon fill="white" stroke="black" points="0,-56.5 0,-75.5 68,-75.5 68,-56.5 0,-56.5"/>
<text text-anchor="middle" x="34" y="-63.5" font-family="Helvetica,sans-Serif" font-size="10.00">vpr_stdafx.h</text>
</a>
</g>
</g>
<!-- Node1&#45;&gt;Node2 -->
<g id="edge2" class="edge"><title>Node1&#45;&gt;Node2</title>
<path fill="none" stroke="midnightblue" d="M115.415,-112.324C100.001,-103.743 76.1878,-90.486 58.2903,-80.5224"/>
<polygon fill="midnightblue" stroke="midnightblue" points="59.9858,-77.4606 49.5461,-75.6545 56.5809,-83.5767 59.9858,-77.4606"/>
</g>
<!-- Node4 -->
<g id="node5" class="node"><title>Node4</title>
<g id="a_node5"><a xlink:href="_forward_decl_8hpp.html" target="_top" xlink:title="ForwardDecl.hpp">
<polygon fill="white" stroke="black" points="86.5,-56.5 86.5,-75.5 175.5,-75.5 175.5,-56.5 86.5,-56.5"/>
<text text-anchor="middle" x="131" y="-63.5" font-family="Helvetica,sans-Serif" font-size="10.00">ForwardDecl.hpp</text>
</a>
</g>
</g>
<!-- Node1&#45;&gt;Node4 -->
<g id="edge4" class="edge"><title>Node1&#45;&gt;Node4</title>
<path fill="none" stroke="midnightblue" d="M131,-112.083C131,-105.006 131,-94.8611 131,-85.9865"/>
<polygon fill="midnightblue" stroke="midnightblue" points="134.5,-85.751 131,-75.7511 127.5,-85.7511 134.5,-85.751"/>
</g>
<!-- Node3 -->
<g id="node4" class="node"><title>Node3</title>
<polygon fill="white" stroke="#bfbfbf" points="163,-0.5 163,-19.5 245,-19.5 245,-0.5 163,-0.5"/>
<text text-anchor="middle" x="204" y="-7.5" font-family="Helvetica,sans-Serif" font-size="10.00">vulkan/vulkan.h</text>
</g>
<!-- Node2&#45;&gt;Node3 -->
<g id="edge3" class="edge"><title>Node2&#45;&gt;Node3</title>
<path fill="none" stroke="midnightblue" d="M60.937,-56.4435C89.6605,-47.3196 135.329,-32.8133 167.321,-22.6509"/>
<polygon fill="midnightblue" stroke="midnightblue" points="168.718,-25.8797 177.189,-19.5164 166.599,-19.2081 168.718,-25.8797"/>
</g>
<!-- Node5&#45;&gt;Node3 -->
<g id="edge8" class="edge"><title>Node5&#45;&gt;Node3</title>
<path fill="none" stroke="midnightblue" d="M250.419,-112.431C242.297,-103.879 230.294,-90.0246 223,-76 215.372,-61.3318 210.391,-43.1649 207.451,-29.7692"/>
<polygon fill="midnightblue" stroke="midnightblue" points="210.853,-28.933 205.448,-19.8206 203.99,-30.3147 210.853,-28.933"/>
</g>
<!-- Node6 -->
<g id="node7" class="node"><title>Node6</title>
<polygon fill="white" stroke="#bfbfbf" points="232,-56.5 232,-75.5 286,-75.5 286,-56.5 232,-56.5"/>
<text text-anchor="middle" x="259" y="-63.5" font-family="Helvetica,sans-Serif" font-size="10.00">iostream</text>
</g>
<!-- Node5&#45;&gt;Node6 -->
<g id="edge6" class="edge"><title>Node5&#45;&gt;Node6</title>
<path fill="none" stroke="midnightblue" d="M259,-112.083C259,-105.006 259,-94.8611 259,-85.9865"/>
<polygon fill="midnightblue" stroke="midnightblue" points="262.5,-85.751 259,-75.7511 255.5,-85.7511 262.5,-85.751"/>
</g>
<!-- Node7 -->
<g id="node8" class="node"><title>Node7</title>
<polygon fill="white" stroke="#bfbfbf" points="304.5,-56.5 304.5,-75.5 353.5,-75.5 353.5,-56.5 304.5,-56.5"/>
<text text-anchor="middle" x="329" y="-63.5" font-family="Helvetica,sans-Serif" font-size="10.00">cassert</text>
</g>
<!-- Node5&#45;&gt;Node7 -->
<g id="edge7" class="edge"><title>Node5&#45;&gt;Node7</title>
<path fill="none" stroke="midnightblue" d="M270.247,-112.324C280.797,-104.185 296.801,-91.8395 309.442,-82.0874"/>
<polygon fill="midnightblue" stroke="midnightblue" points="311.769,-84.7132 317.549,-75.8339 307.493,-79.1707 311.769,-84.7132"/>
</g>
<!-- Node8&#45;&gt;Node3 -->
<g id="edge11" class="edge"><title>Node8&#45;&gt;Node3</title>
<path fill="none" stroke="midnightblue" d="M381.827,-112.074C381.063,-98.1286 377.522,-71.1992 362,-56 333.744,-28.3319 289.745,-17.4342 255.347,-13.257"/>
<polygon fill="midnightblue" stroke="midnightblue" points="255.32,-9.73477 245.008,-12.1652 254.585,-16.6961 255.32,-9.73477"/>
</g>
<!-- Node9 -->
<g id="node10" class="node"><title>Node9</title>
<polygon fill="white" stroke="#bfbfbf" points="410,-56.5 410,-75.5 450,-75.5 450,-56.5 410,-56.5"/>
<text text-anchor="middle" x="430" y="-63.5" font-family="Helvetica,sans-Serif" font-size="10.00">limits</text>
</g>
<!-- Node8&#45;&gt;Node9 -->
<g id="edge10" class="edge"><title>Node8&#45;&gt;Node9</title>
<path fill="none" stroke="midnightblue" d="M389.926,-112.083C396.846,-104.298 407.065,-92.8015 415.452,-83.3665"/>
<polygon fill="midnightblue" stroke="midnightblue" points="418.194,-85.5505 422.221,-75.7511 412.962,-80.8999 418.194,-85.5505"/>
</g>
</g>
</svg>
