<?xml version="1.0" encoding="UTF-8" standalone="no"?>
<!DOCTYPE svg PUBLIC "-//W3C//DTD SVG 1.1//EN"
 "http://www.w3.org/Graphics/SVG/1.1/DTD/svg11.dtd">
<!-- Generated by graphviz version 2.38.0 (20140413.2041)
 -->
<!-- Title: C:/Users/kjones/Documents/SoftwareDev/VulpesSceneKit/third_party/vulpesrender/src/sync/Semaphore.cpp Pages: 1 -->
<!--zoomable 285 -->
<svg id="main" version="1.1" xmlns="http://www.w3.org/2000/svg" xmlns:xlink="http://www.w3.org/1999/xlink" xml:space="preserve" onload="init(evt)">
<style type="text/css"><![CDATA[
.edge:hover path { stroke: red; }
.edge:hover polygon { stroke: red; fill: red; }
]]></style>
<script type="text/javascript"><![CDATA[
var edges = document.getElementsByTagName('g');
if (edges && edges.length) {
  for (var i=0;i<edges.length;i++) {
    if (edges[i].id.substr(0,4)=='edge') {
      edges[i].setAttribute('class','edge');
    }
  }
}
]]></script>
        <defs>
                <circle id="rim" cx="0" cy="0" r="7"/>
                <circle id="rim2" cx="0" cy="0" r="3.5"/>
                <g id="zoomPlus">
                        <use xlink:href="#rim" fill="#404040">
                                <set attributeName="fill" to="#808080" begin="zoomplus.mouseover" end="zoomplus.mouseout"/>
                        </use>
                        <path d="M-4,0h8M0,-4v8" fill="none" stroke="white" stroke-width="1.5" pointer-events="none"/>
                </g>
                <g id="zoomMin">
                        <use xlink:href="#rim" fill="#404040">
                                <set attributeName="fill" to="#808080" begin="zoomminus.mouseover" end="zoomminus.mouseout"/>
                        </use>
                        <path d="M-4,0h8" fill="none" stroke="white" stroke-width="1.5" pointer-events="none"/>
                </g>
                <g id="dirArrow">
                        <path fill="none" stroke="white" stroke-width="1.5" d="M0,-3.0v7 M-2.5,-0.5L0,-3.0L2.5,-0.5"/>
                </g>
               <g id="resetDef">
                       <use xlink:href="#rim2" fill="#404040">
                               <set attributeName="fill" to="#808080" begin="reset.mouseover" end="reset.mouseout"/>
                       </use>
               </g>
        </defs>

<script type="text/javascript">
var viewWidth = 615;
var viewHeight = 285;
var sectionId = 'dynsection-0';
</script>
<script xlink:href="svgpan.js"/>
<svg id="graph" class="graph">
<g id="viewport">
<title>C:/Users/kjones/Documents/SoftwareDev/VulpesSceneKit/third_party/vulpesrender/src/sync/Semaphore.cpp</title>
<polygon fill="white" stroke="none" points="-4,4 -4,-281 611.129,-281 611.129,4 -4,4"/>
<!-- Node0 -->
<g id="node1" class="node"><title>Node0</title>
<polygon fill="#bfbfbf" stroke="black" points="147.629,-224.5 147.629,-276.5 293.629,-276.5 293.629,-224.5 147.629,-224.5"/>
<text text-anchor="start" x="155.629" y="-264.5" font-family="Helvetica,sans-Serif" font-size="10.00">C:/Users/kjones/Documents</text>
<text text-anchor="start" x="155.629" y="-253.5" font-family="Helvetica,sans-Serif" font-size="10.00">/SoftwareDev/VulpesSceneKit</text>
<text text-anchor="start" x="155.629" y="-242.5" font-family="Helvetica,sans-Serif" font-size="10.00">/third_party/vulpesrender</text>
<text text-anchor="middle" x="220.629" y="-231.5" font-family="Helvetica,sans-Serif" font-size="10.00">/src/sync/Semaphore.cpp</text>
</g>
<!-- Node1 -->
<g id="node2" class="node"><title>Node1</title>
<polygon fill="white" stroke="#bfbfbf" points="89.1288,-168.5 89.1288,-187.5 214.129,-187.5 214.129,-168.5 89.1288,-168.5"/>
<text text-anchor="middle" x="151.629" y="-175.5" font-family="Helvetica,sans-Serif" font-size="10.00">resource/Semaphore.hpp</text>
</g>
<!-- Node0&#45;&gt;Node1 -->
<g id="edge1" class="edge"><title>Node0&#45;&gt;Node1</title>
<path fill="none" stroke="midnightblue" d="M196.108,-224.446C186.499,-214.628 175.76,-203.656 167.242,-194.952"/>
<polygon fill="midnightblue" stroke="midnightblue" points="169.635,-192.394 160.139,-187.695 164.633,-197.29 169.635,-192.394"/>
</g>
<!-- Node2 -->
<g id="node3" class="node"><title>Node2</title>
<g id="a_node3"><a xlink:href="_logical_device_8hpp.html" target="_top" xlink:title="core/LogicalDevice.hpp">
<polygon fill="white" stroke="black" points="232.629,-168.5 232.629,-187.5 348.629,-187.5 348.629,-168.5 232.629,-168.5"/>
<text text-anchor="middle" x="290.629" y="-175.5" font-family="Helvetica,sans-Serif" font-size="10.00">core/LogicalDevice.hpp</text>
</a>
</g>
</g>
<!-- Node0&#45;&gt;Node2 -->
<g id="edge2" class="edge"><title>Node0&#45;&gt;Node2</title>
<path fill="none" stroke="midnightblue" d="M245.505,-224.446C255.253,-214.628 266.148,-203.656 274.79,-194.952"/>
<polygon fill="midnightblue" stroke="midnightblue" points="277.433,-197.258 281.995,-187.695 272.465,-192.326 277.433,-197.258"/>
</g>
<!-- Node3 -->
<g id="node4" class="node"><title>Node3</title>
<g id="a_node4"><a xlink:href="vpr__stdafx_8h.html" target="_top" xlink:title="vpr_stdafx.h">
<polygon fill="white" stroke="black" points="159.629,-112.5 159.629,-131.5 227.629,-131.5 227.629,-112.5 159.629,-112.5"/>
<text text-anchor="middle" x="193.629" y="-119.5" font-family="Helvetica,sans-Serif" font-size="10.00">vpr_stdafx.h</text>
</a>
</g>
</g>
<!-- Node2&#45;&gt;Node3 -->
<g id="edge3" class="edge"><title>Node2&#45;&gt;Node3</title>
<path fill="none" stroke="midnightblue" d="M275.044,-168.324C259.63,-159.743 235.817,-146.486 217.919,-136.522"/>
<polygon fill="midnightblue" stroke="midnightblue" points="219.615,-133.461 209.175,-131.655 216.21,-139.577 219.615,-133.461"/>
</g>
<!-- Node15 -->
<g id="node13" class="node"><title>Node15</title>
<g id="a_node13"><a xlink:href="_forward_decl_8hpp.html" target="_top" xlink:title="ForwardDecl.hpp">
<polygon fill="white" stroke="black" points="246.129,-112.5 246.129,-131.5 335.129,-131.5 335.129,-112.5 246.129,-112.5"/>
<text text-anchor="middle" x="290.629" y="-119.5" font-family="Helvetica,sans-Serif" font-size="10.00">ForwardDecl.hpp</text>
</a>
</g>
</g>
<!-- Node2&#45;&gt;Node15 -->
<g id="edge13" class="edge"><title>Node2&#45;&gt;Node15</title>
<path fill="none" stroke="midnightblue" d="M290.629,-168.083C290.629,-161.006 290.629,-150.861 290.629,-141.986"/>
<polygon fill="midnightblue" stroke="midnightblue" points="294.129,-141.751 290.629,-131.751 287.129,-141.751 294.129,-141.751"/>
</g>
<!-- Node16 -->
<g id="node14" class="node"><title>Node16</title>
<polygon fill="white" stroke="#bfbfbf" points="353.129,-112.5 353.129,-131.5 388.129,-131.5 388.129,-112.5 353.129,-112.5"/>
<text text-anchor="middle" x="370.629" y="-119.5" font-family="Helvetica,sans-Serif" font-size="10.00">map</text>
</g>
<!-- Node2&#45;&gt;Node16 -->
<g id="edge14" class="edge"><title>Node2&#45;&gt;Node16</title>
<path fill="none" stroke="midnightblue" d="M303.482,-168.324C315.845,-159.979 334.759,-147.212 349.366,-137.352"/>
<polygon fill="midnightblue" stroke="midnightblue" points="351.477,-140.15 357.807,-131.655 347.561,-134.348 351.477,-140.15"/>
</g>
<!-- Node4 -->
<g id="node5" class="node"><title>Node4</title>
<polygon fill="white" stroke="#bfbfbf" points="249.129,-0.5 249.129,-19.5 290.129,-19.5 290.129,-0.5 249.129,-0.5"/>
<text text-anchor="middle" x="269.629" y="-7.5" font-family="Helvetica,sans-Serif" font-size="10.00">string</text>
</g>
<!-- Node3&#45;&gt;Node4 -->
<g id="edge4" class="edge"><title>Node3&#45;&gt;Node4</title>
<path fill="none" stroke="midnightblue" d="M159.343,-120.316C94.9234,-117.852 -34.0285,-106.641 8.62883,-56 37.7518,-21.4261 176.109,-13.4156 238.721,-11.5597"/>
<polygon fill="midnightblue" stroke="midnightblue" points="238.887,-15.0566 248.792,-11.2954 238.703,-8.05904 238.887,-15.0566"/>
</g>
<!-- Node5 -->
<g id="node6" class="node"><title>Node5</title>
<polygon fill="white" stroke="#bfbfbf" points="17.6288,-56.5 17.6288,-75.5 59.6288,-75.5 59.6288,-56.5 17.6288,-56.5"/>
<text text-anchor="middle" x="38.6288" y="-63.5" font-family="Helvetica,sans-Serif" font-size="10.00">vector</text>
</g>
<!-- Node3&#45;&gt;Node5 -->
<g id="edge5" class="edge"><title>Node3&#45;&gt;Node5</title>
<path fill="none" stroke="midnightblue" d="M169.069,-112.444C142.19,-103.079 99.0375,-88.0456 69.7936,-77.8574"/>
<polygon fill="midnightblue" stroke="midnightblue" points="70.674,-74.4578 60.0791,-74.473 68.371,-81.0682 70.674,-74.4578"/>
</g>
<!-- Node6 -->
<g id="node7" class="node"><title>Node6</title>
<polygon fill="white" stroke="#bfbfbf" points="77.6288,-56.5 77.6288,-75.5 115.629,-75.5 115.629,-56.5 77.6288,-56.5"/>
<text text-anchor="middle" x="96.6288" y="-63.5" font-family="Helvetica,sans-Serif" font-size="10.00">array</text>
</g>
<!-- Node3&#45;&gt;Node6 -->
<g id="edge6" class="edge"><title>Node3&#45;&gt;Node6</title>
<path fill="none" stroke="midnightblue" d="M178.044,-112.324C162.63,-103.743 138.817,-90.486 120.919,-80.5224"/>
<polygon fill="midnightblue" stroke="midnightblue" points="122.615,-77.4606 112.175,-75.6545 119.21,-83.5767 122.615,-77.4606"/>
</g>
<!-- Node7 -->
<g id="node8" class="node"><title>Node7</title>
<polygon fill="white" stroke="#bfbfbf" points="133.629,-56.5 133.629,-75.5 185.629,-75.5 185.629,-56.5 133.629,-56.5"/>
<text text-anchor="middle" x="159.629" y="-63.5" font-family="Helvetica,sans-Serif" font-size="10.00">memory</text>
</g>
<!-- Node3&#45;&gt;Node7 -->
<g id="edge7" class="edge"><title>Node3&#45;&gt;Node7</title>
<path fill="none" stroke="midnightblue" d="M188.014,-112.083C183.261,-104.534 176.311,-93.4948 170.477,-84.2298"/>
<polygon fill="midnightblue" stroke="midnightblue" points="173.429,-82.3486 165.139,-75.7511 167.505,-86.0783 173.429,-82.3486"/>
</g>
<!-- Node8 -->
<g id="node9" class="node"><title>Node8</title>
<polygon fill="white" stroke="#bfbfbf" points="204.129,-56.5 204.129,-75.5 253.129,-75.5 253.129,-56.5 204.129,-56.5"/>
<text text-anchor="middle" x="228.629" y="-63.5" font-family="Helvetica,sans-Serif" font-size="10.00">cassert</text>
</g>
<!-- Node3&#45;&gt;Node8 -->
<g id="edge8" class="edge"><title>Node3&#45;&gt;Node8</title>
<path fill="none" stroke="midnightblue" d="M199.408,-112.083C204.301,-104.534 211.456,-93.4948 217.461,-84.2298"/>
<polygon fill="midnightblue" stroke="midnightblue" points="220.455,-86.0463 222.957,-75.7511 214.581,-82.239 220.455,-86.0463"/>
</g>
<!-- Node9 -->
<g id="node10" class="node"><title>Node9</title>
<polygon fill="white" stroke="#bfbfbf" points="271.629,-56.5 271.629,-75.5 315.629,-75.5 315.629,-56.5 271.629,-56.5"/>
<text text-anchor="middle" x="293.629" y="-63.5" font-family="Helvetica,sans-Serif" font-size="10.00">mutex</text>
</g>
<!-- Node3&#45;&gt;Node9 -->
<g id="edge9" class="edge"><title>Node3&#45;&gt;Node9</title>
<path fill="none" stroke="midnightblue" d="M209.696,-112.324C225.587,-103.743 250.136,-90.486 268.587,-80.5224"/>
<polygon fill="midnightblue" stroke="midnightblue" points="270.466,-83.4857 277.602,-75.6545 267.14,-77.3264 270.466,-83.4857"/>
</g>
<!-- Node10 -->
<g id="node11" class="node"><title>Node10</title>
<g id="a_node11"><a xlink:href="_create_info_base_8hpp.html" target="_top" xlink:title="common/CreateInfoBase.hpp">
<polygon fill="white" stroke="red" points="333.629,-56.5 333.629,-75.5 475.629,-75.5 475.629,-56.5 333.629,-56.5"/>
<text text-anchor="middle" x="404.629" y="-63.5" font-family="Helvetica,sans-Serif" font-size="10.00">common/CreateInfoBase.hpp</text>
</a>
</g>
</g>
<!-- Node3&#45;&gt;Node10 -->
<g id="edge10" class="edge"><title>Node3&#45;&gt;Node10</title>
<path fill="none" stroke="midnightblue" d="M227.062,-112.444C263.485,-103.122 321.859,-88.1828 361.658,-77.9972"/>
<polygon fill="midnightblue" stroke="midnightblue" points="362.532,-81.3866 371.352,-75.5164 360.796,-74.6051 362.532,-81.3866"/>
</g>
<!-- Node13 -->
<g id="node12" class="node"><title>Node13</title>
<g id="a_node12"><a xlink:href="vk_assert_8hpp.html" target="_top" xlink:title="common/vkAssert.hpp">
<polygon fill="white" stroke="red" points="494.129,-56.5 494.129,-75.5 607.129,-75.5 607.129,-56.5 494.129,-56.5"/>
<text text-anchor="middle" x="550.629" y="-63.5" font-family="Helvetica,sans-Serif" font-size="10.00">common/vkAssert.hpp</text>
</a>
</g>
</g>
<!-- Node3&#45;&gt;Node13 -->
<g id="edge11" class="edge"><title>Node3&#45;&gt;Node13</title>
<path fill="none" stroke="midnightblue" d="M227.858,-113.63C230.82,-113.054 233.774,-112.503 236.629,-112 260.407,-107.812 398.963,-88.2442 483.882,-76.3335"/>
<polygon fill="midnightblue" stroke="midnightblue" points="484.543,-79.7751 493.96,-74.9205 483.571,-72.8429 484.543,-79.7751"/>
</g>
<!-- Node13&#45;&gt;Node4 -->
<g id="edge12" class="edge"><title>Node13&#45;&gt;Node4</title>
<path fill="none" stroke="midnightblue" d="M506.104,-56.4435C448.601,-45.3933 350.015,-26.4479 300.261,-16.8867"/>
<polygon fill="midnightblue" stroke="midnightblue" points="300.899,-13.4452 290.418,-14.9951 299.578,-20.3194 300.899,-13.4452"/>
</g>
</g>
</svg>
        <g id="navigator" transform="translate(0 0)" fill="#404254">
                <rect fill="#f2f5e9" fill-opacity="0.5" stroke="#606060" stroke-width=".5" x="0" y="0" width="60" height="60"/>
                <use id="zoomplus" xlink:href="#zoomPlus" x="17" y="9" onmousedown="handleZoom(evt,'in')"/>
                <use id="zoomminus" xlink:href="#zoomMin" x="42" y="9" onmousedown="handleZoom(evt,'out')"/>
                <use id="reset" xlink:href="#resetDef" x="30" y="36" onmousedown="handleReset()"/>
                <g id="arrowUp" xlink:href="#dirArrow" transform="translate(30 24)" onmousedown="handlePan(0,-1)">
                  <use xlink:href="#rim" fill="#404040">
                        <set attributeName="fill" to="#808080" begin="arrowUp.mouseover" end="arrowUp.mouseout"/>
                  </use>
                  <path fill="none" stroke="white" stroke-width="1.5" d="M0,-3.0v7 M-2.5,-0.5L0,-3.0L2.5,-0.5"/>
                </g>
                <g id="arrowRight" xlink:href="#dirArrow" transform="rotate(90) translate(36 -43)" onmousedown="handlePan(1,0)">
                  <use xlink:href="#rim" fill="#404040">
                        <set attributeName="fill" to="#808080" begin="arrowRight.mouseover" end="arrowRight.mouseout"/>
                  </use>
                  <path fill="none" stroke="white" stroke-width="1.5" d="M0,-3.0v7 M-2.5,-0.5L0,-3.0L2.5,-0.5"/>
                </g>
                <g id="arrowDown" xlink:href="#dirArrow" transform="rotate(180) translate(-30 -48)" onmousedown="handlePan(0,1)">
                  <use xlink:href="#rim" fill="#404040">
                        <set attributeName="fill" to="#808080" begin="arrowDown.mouseover" end="arrowDown.mouseout"/>
                  </use>
                  <path fill="none" stroke="white" stroke-width="1.5" d="M0,-3.0v7 M-2.5,-0.5L0,-3.0L2.5,-0.5"/>
                </g>
                <g id="arrowLeft" xlink:href="#dirArrow" transform="rotate(270) translate(-36 17)" onmousedown="handlePan(-1,0)">
                  <use xlink:href="#rim" fill="#404040">
                        <set attributeName="fill" to="#808080" begin="arrowLeft.mouseover" end="arrowLeft.mouseout"/>
                  </use>
                  <path fill="none" stroke="white" stroke-width="1.5" d="M0,-3.0v7 M-2.5,-0.5L0,-3.0L2.5,-0.5"/>
                </g>
        </g>
        <svg viewBox="0 0 15 15" width="100%" height="30px" preserveAspectRatio="xMaxYMin meet">
         <g id="arrow_out" transform="scale(0.3 0.3)">
          <a xlink:href="_semaphore_8cpp__incl_org.svg" target="_base">
           <rect id="button" ry="5" rx="5" y="6" x="6" height="38" width="38"
                fill="#f2f5e9" fill-opacity="0.5" stroke="#606060" stroke-width="1.0"/>
           <path id="arrow"
             d="M 11.500037,31.436501 C 11.940474,20.09759 22.043105,11.32322 32.158766,21.979434 L 37.068811,17.246167 C 37.068811,17.246167 37.088388,32 37.088388,32 L 22.160133,31.978069 C 22.160133,31.978069 26.997745,27.140456 26.997745,27.140456 C 18.528582,18.264221 13.291696,25.230495 11.500037,31.436501 z"
             style="fill:#404040;"/>
          </a>
         </g>
        </svg>
</svg>
