<?xml version="1.0" encoding="UTF-8" standalone="no"?>
<!DOCTYPE svg PUBLIC "-//W3C//DTD SVG 1.1//EN"
 "http://www.w3.org/Graphics/SVG/1.1/DTD/svg11.dtd">
<!-- Generated by graphviz version 2.38.0 (20140413.2041)
 -->
<!-- Title: resource/src/ShaderModule.cpp Pages: 1 -->
<svg width="501pt" height="196pt"
 viewBox="0.00 0.00 500.50 196.00" xmlns="http://www.w3.org/2000/svg" xmlns:xlink="http://www.w3.org/1999/xlink">
<g id="graph0" class="graph" transform="scale(1 1) rotate(0) translate(4 192)">
<title>resource/src/ShaderModule.cpp</title>
<polygon fill="white" stroke="none" points="-4,4 -4,-192 496.5,-192 496.5,4 -4,4"/>
<!-- Node0 -->
<g id="node1" class="node"><title>Node0</title>
<polygon fill="#bfbfbf" stroke="black" points="143.5,-168.5 143.5,-187.5 298.5,-187.5 298.5,-168.5 143.5,-168.5"/>
<text text-anchor="middle" x="221" y="-175.5" font-family="Helvetica,sans-Serif" font-size="10.00">resource/src/ShaderModule.cpp</text>
</g>
<!-- Node1 -->
<g id="node2" class="node"><title>Node1</title>
<g id="a_node2"><a xlink:href="vpr__stdafx_8h.html" target="_top" xlink:title="vpr_stdafx.h">
<polygon fill="white" stroke="black" points="0,-56.5 0,-75.5 68,-75.5 68,-56.5 0,-56.5"/>
<text text-anchor="middle" x="34" y="-63.5" font-family="Helvetica,sans-Serif" font-size="10.00">vpr_stdafx.h</text>
</a>
</g>
</g>
<!-- Node0&#45;&gt;Node1 -->
<g id="edge1" class="edge"><title>Node0&#45;&gt;Node1</title>
<path fill="none" stroke="midnightblue" d="M143.191,-172.169C111.939,-166.474 77.7641,-154.94 54,-132 41.5327,-119.965 36.787,-100.366 35.0069,-85.8305"/>
<polygon fill="midnightblue" stroke="midnightblue" points="38.463,-85.1666 34.1243,-75.5009 31.4884,-85.7626 38.463,-85.1666"/>
</g>
<!-- Node3 -->
<g id="node4" class="node"><title>Node3</title>
<g id="a_node4"><a xlink:href="_shader_module_8hpp.html" target="_top" xlink:title="ShaderModule.hpp">
<polygon fill="white" stroke="black" points="63,-112.5 63,-131.5 161,-131.5 161,-112.5 63,-112.5"/>
<text text-anchor="middle" x="112" y="-119.5" font-family="Helvetica,sans-Serif" font-size="10.00">ShaderModule.hpp</text>
</a>
</g>
</g>
<!-- Node0&#45;&gt;Node3 -->
<g id="edge3" class="edge"><title>Node0&#45;&gt;Node3</title>
<path fill="none" stroke="midnightblue" d="M203.487,-168.324C185.928,-159.625 158.669,-146.12 138.469,-136.113"/>
<polygon fill="midnightblue" stroke="midnightblue" points="139.984,-132.958 129.469,-131.655 136.876,-139.23 139.984,-132.958"/>
</g>
<!-- Node5 -->
<g id="node6" class="node"><title>Node5</title>
<g id="a_node6"><a xlink:href="vk_assert_8hpp.html" target="_top" xlink:title="vkAssert.hpp">
<polygon fill="white" stroke="black" points="184.5,-112.5 184.5,-131.5 257.5,-131.5 257.5,-112.5 184.5,-112.5"/>
<text text-anchor="middle" x="221" y="-119.5" font-family="Helvetica,sans-Serif" font-size="10.00">vkAssert.hpp</text>
</a>
</g>
</g>
<!-- Node0&#45;&gt;Node5 -->
<g id="edge6" class="edge"><title>Node0&#45;&gt;Node5</title>
<path fill="none" stroke="midnightblue" d="M221,-168.083C221,-161.006 221,-150.861 221,-141.986"/>
<polygon fill="midnightblue" stroke="midnightblue" points="224.5,-141.751 221,-131.751 217.5,-141.751 224.5,-141.751"/>
</g>
<!-- Node8 -->
<g id="node9" class="node"><title>Node8</title>
<g id="a_node9"><a xlink:href="_create_info_base_8hpp.html" target="_top" xlink:title="CreateInfoBase.hpp">
<polygon fill="white" stroke="black" points="284.5,-112.5 284.5,-131.5 385.5,-131.5 385.5,-112.5 284.5,-112.5"/>
<text text-anchor="middle" x="335" y="-119.5" font-family="Helvetica,sans-Serif" font-size="10.00">CreateInfoBase.hpp</text>
</a>
</g>
</g>
<!-- Node0&#45;&gt;Node8 -->
<g id="edge10" class="edge"><title>Node0&#45;&gt;Node8</title>
<path fill="none" stroke="midnightblue" d="M239.064,-168.444C257.575,-159.675 286.581,-145.935 307.855,-135.858"/>
<polygon fill="midnightblue" stroke="midnightblue" points="309.482,-138.96 317.021,-131.516 306.485,-132.634 309.482,-138.96"/>
</g>
<!-- Node10 -->
<g id="node11" class="node"><title>Node10</title>
<polygon fill="white" stroke="#bfbfbf" points="403.5,-112.5 403.5,-131.5 492.5,-131.5 492.5,-112.5 403.5,-112.5"/>
<text text-anchor="middle" x="448" y="-119.5" font-family="Helvetica,sans-Serif" font-size="10.00">easylogging++.h</text>
</g>
<!-- Node0&#45;&gt;Node10 -->
<g id="edge13" class="edge"><title>Node0&#45;&gt;Node10</title>
<path fill="none" stroke="midnightblue" d="M256.969,-168.444C296.319,-159.083 359.487,-144.056 402.314,-133.868"/>
<polygon fill="midnightblue" stroke="midnightblue" points="403.281,-137.236 412.199,-131.516 401.661,-130.426 403.281,-137.236"/>
</g>
<!-- Node2 -->
<g id="node3" class="node"><title>Node2</title>
<polygon fill="white" stroke="#bfbfbf" points="125,-0.5 125,-19.5 207,-19.5 207,-0.5 125,-0.5"/>
<text text-anchor="middle" x="166" y="-7.5" font-family="Helvetica,sans-Serif" font-size="10.00">vulkan/vulkan.h</text>
</g>
<!-- Node1&#45;&gt;Node2 -->
<g id="edge2" class="edge"><title>Node1&#45;&gt;Node2</title>
<path fill="none" stroke="midnightblue" d="M54.9158,-56.4435C76.736,-47.5171 111.15,-33.4387 135.892,-23.3168"/>
<polygon fill="midnightblue" stroke="midnightblue" points="137.252,-26.5422 145.182,-19.5164 134.601,-20.0634 137.252,-26.5422"/>
</g>
<!-- Node3&#45;&gt;Node1 -->
<g id="edge4" class="edge"><title>Node3&#45;&gt;Node1</title>
<path fill="none" stroke="midnightblue" d="M99.468,-112.324C87.4141,-103.979 68.9732,-91.2122 54.7313,-81.3524"/>
<polygon fill="midnightblue" stroke="midnightblue" points="56.7151,-78.469 46.5009,-75.6545 52.7306,-84.2243 56.7151,-78.469"/>
</g>
<!-- Node4 -->
<g id="node5" class="node"><title>Node4</title>
<polygon fill="white" stroke="#bfbfbf" points="86,-56.5 86,-75.5 138,-75.5 138,-56.5 86,-56.5"/>
<text text-anchor="middle" x="112" y="-63.5" font-family="Helvetica,sans-Serif" font-size="10.00">memory</text>
</g>
<!-- Node3&#45;&gt;Node4 -->
<g id="edge5" class="edge"><title>Node3&#45;&gt;Node4</title>
<path fill="none" stroke="midnightblue" d="M112,-112.083C112,-105.006 112,-94.8611 112,-85.9865"/>
<polygon fill="midnightblue" stroke="midnightblue" points="115.5,-85.751 112,-75.7511 108.5,-85.7511 115.5,-85.751"/>
</g>
<!-- Node5&#45;&gt;Node2 -->
<g id="edge9" class="edge"><title>Node5&#45;&gt;Node2</title>
<path fill="none" stroke="midnightblue" d="M212.419,-112.431C204.297,-103.879 192.294,-90.0246 185,-76 177.372,-61.3318 172.391,-43.1649 169.451,-29.7692"/>
<polygon fill="midnightblue" stroke="midnightblue" points="172.853,-28.933 167.448,-19.8206 165.99,-30.3147 172.853,-28.933"/>
</g>
<!-- Node6 -->
<g id="node7" class="node"><title>Node6</title>
<polygon fill="white" stroke="#bfbfbf" points="194,-56.5 194,-75.5 248,-75.5 248,-56.5 194,-56.5"/>
<text text-anchor="middle" x="221" y="-63.5" font-family="Helvetica,sans-Serif" font-size="10.00">iostream</text>
</g>
<!-- Node5&#45;&gt;Node6 -->
<g id="edge7" class="edge"><title>Node5&#45;&gt;Node6</title>
<path fill="none" stroke="midnightblue" d="M221,-112.083C221,-105.006 221,-94.8611 221,-85.9865"/>
<polygon fill="midnightblue" stroke="midnightblue" points="224.5,-85.751 221,-75.7511 217.5,-85.7511 224.5,-85.751"/>
</g>
<!-- Node7 -->
<g id="node8" class="node"><title>Node7</title>
<polygon fill="white" stroke="#bfbfbf" points="266.5,-56.5 266.5,-75.5 315.5,-75.5 315.5,-56.5 266.5,-56.5"/>
<text text-anchor="middle" x="291" y="-63.5" font-family="Helvetica,sans-Serif" font-size="10.00">cassert</text>
</g>
<!-- Node5&#45;&gt;Node7 -->
<g id="edge8" class="edge"><title>Node5&#45;&gt;Node7</title>
<path fill="none" stroke="midnightblue" d="M232.247,-112.324C242.797,-104.185 258.801,-91.8395 271.442,-82.0874"/>
<polygon fill="midnightblue" stroke="midnightblue" points="273.769,-84.7132 279.549,-75.8339 269.493,-79.1707 273.769,-84.7132"/>
</g>
<!-- Node8&#45;&gt;Node2 -->
<g id="edge12" class="edge"><title>Node8&#45;&gt;Node2</title>
<path fill="none" stroke="midnightblue" d="M336.373,-112.203C337.992,-98.4334 338.913,-71.741 325,-56 298.284,-25.7729 252.944,-15.1754 217.501,-11.7628"/>
<polygon fill="midnightblue" stroke="midnightblue" points="217.568,-8.25717 207.321,-10.9503 217.011,-15.235 217.568,-8.25717"/>
</g>
<!-- Node9 -->
<g id="node10" class="node"><title>Node9</title>
<polygon fill="white" stroke="#bfbfbf" points="372,-56.5 372,-75.5 412,-75.5 412,-56.5 372,-56.5"/>
<text text-anchor="middle" x="392" y="-63.5" font-family="Helvetica,sans-Serif" font-size="10.00">limits</text>
</g>
<!-- Node8&#45;&gt;Node9 -->
<g id="edge11" class="edge"><title>Node8&#45;&gt;Node9</title>
<path fill="none" stroke="midnightblue" d="M344.158,-112.324C352.501,-104.42 365.032,-92.5482 375.177,-82.9377"/>
<polygon fill="midnightblue" stroke="midnightblue" points="377.823,-85.2522 382.675,-75.8339 373.009,-80.1705 377.823,-85.2522"/>
</g>
</g>
</svg>
