<?xml version="1.0" encoding="UTF-8" standalone="no"?>
<!DOCTYPE svg PUBLIC "-//W3C//DTD SVG 1.1//EN"
 "http://www.w3.org/Graphics/SVG/1.1/DTD/svg11.dtd">
<!-- Generated by graphviz version 2.38.0 (20140413.2041)
 -->
<!-- Title: core/include/SurfaceKHR.hpp Pages: 1 -->
<svg width="274pt" height="84pt"
 viewBox="0.00 0.00 274.00 84.00" xmlns="http://www.w3.org/2000/svg" xmlns:xlink="http://www.w3.org/1999/xlink">
<g id="graph0" class="graph" transform="scale(1 1) rotate(0) translate(4 80)">
<title>core/include/SurfaceKHR.hpp</title>
<polygon fill="white" stroke="none" points="-4,4 -4,-80 270,-80 270,4 -4,4"/>
<!-- Node4 -->
<g id="node1" class="node"><title>Node4</title>
<polygon fill="#bfbfbf" stroke="black" points="62.5,-56.5 62.5,-75.5 206.5,-75.5 206.5,-56.5 62.5,-56.5"/>
<text text-anchor="middle" x="134.5" y="-63.5" font-family="Helvetica,sans-Serif" font-size="10.00">core/include/SurfaceKHR.hpp</text>
</g>
<!-- Node5 -->
<g id="node2" class="node"><title>Node5</title>
<g id="a_node2"><a xlink:href="_surface_k_h_r_8cpp.html" target="_top" xlink:title="core/src/SurfaceKHR.cpp">
<polygon fill="white" stroke="black" points="0,-0.5 0,-19.5 127,-19.5 127,-0.5 0,-0.5"/>
<text text-anchor="middle" x="63.5" y="-7.5" font-family="Helvetica,sans-Serif" font-size="10.00">core/src/SurfaceKHR.cpp</text>
</a>
</g>
</g>
<!-- Node4&#45;&gt;Node5 -->
<g id="edge1" class="edge"><title>Node4&#45;&gt;Node5</title>
<path fill="none" stroke="midnightblue" d="M114.91,-50.1008C102.132,-40.3824 85.8873,-28.0269 75.1149,-19.8339"/>
<polygon fill="midnightblue" stroke="midnightblue" points="113.014,-53.0561 123.093,-56.324 117.252,-47.4844 113.014,-53.0561"/>
</g>
<!-- Node6 -->
<g id="node3" class="node"><title>Node6</title>
<g id="a_node3"><a xlink:href="_swapchain_8cpp.html" target="_top" xlink:title="core/src/Swapchain.cpp">
<polygon fill="white" stroke="black" points="145,-0.5 145,-19.5 266,-19.5 266,-0.5 145,-0.5"/>
<text text-anchor="middle" x="205.5" y="-7.5" font-family="Helvetica,sans-Serif" font-size="10.00">core/src/Swapchain.cpp</text>
</a>
</g>
</g>
<!-- Node4&#45;&gt;Node6 -->
<g id="edge2" class="edge"><title>Node4&#45;&gt;Node6</title>
<path fill="none" stroke="midnightblue" d="M154.09,-50.1008C166.868,-40.3824 183.113,-28.0269 193.885,-19.8339"/>
<polygon fill="midnightblue" stroke="midnightblue" points="151.748,-47.4844 145.907,-56.324 155.986,-53.0561 151.748,-47.4844"/>
</g>
</g>
</svg>
