<?xml version="1.0" encoding="UTF-8" standalone="no"?>
<!DOCTYPE svg PUBLIC "-//W3C//DTD SVG 1.1//EN"
 "http://www.w3.org/Graphics/SVG/1.1/DTD/svg11.dtd">
<!-- Generated by graphviz version 2.38.0 (20140413.2041)
 -->
<!-- Title: src/render/SurfaceKHR.cpp Pages: 1 -->
<svg width="661pt" height="252pt"
 viewBox="0.00 0.00 660.50 252.00" xmlns="http://www.w3.org/2000/svg" xmlns:xlink="http://www.w3.org/1999/xlink">
<g id="graph0" class="graph" transform="scale(1 1) rotate(0) translate(4 248)">
<title>src/render/SurfaceKHR.cpp</title>
<polygon fill="white" stroke="none" points="-4,4 -4,-248 656.5,-248 656.5,4 -4,4"/>
<!-- Node0 -->
<g id="node1" class="node"><title>Node0</title>
<polygon fill="#bfbfbf" stroke="black" points="429,-224.5 429,-243.5 564,-243.5 564,-224.5 429,-224.5"/>
<text text-anchor="middle" x="496.5" y="-231.5" font-family="Helvetica,sans-Serif" font-size="10.00">src/render/SurfaceKHR.cpp</text>
</g>
<!-- Node1 -->
<g id="node2" class="node"><title>Node1</title>
<g id="a_node2"><a xlink:href="_surface_k_h_r_8hpp.html" target="_top" xlink:title="render/SurfaceKHR.hpp">
<polygon fill="white" stroke="black" points="437,-168.5 437,-187.5 556,-187.5 556,-168.5 437,-168.5"/>
<text text-anchor="middle" x="496.5" y="-175.5" font-family="Helvetica,sans-Serif" font-size="10.00">render/SurfaceKHR.hpp</text>
</a>
</g>
</g>
<!-- Node0&#45;&gt;Node1 -->
<g id="edge1" class="edge"><title>Node0&#45;&gt;Node1</title>
<path fill="none" stroke="midnightblue" d="M496.5,-224.083C496.5,-217.006 496.5,-206.861 496.5,-197.986"/>
<polygon fill="midnightblue" stroke="midnightblue" points="500,-197.751 496.5,-187.751 493,-197.751 500,-197.751"/>
</g>
<!-- Node15 -->
<g id="node16" class="node"><title>Node15</title>
<g id="a_node16"><a xlink:href="_instance_8hpp.html" target="_top" xlink:title="core/Instance.hpp">
<polygon fill="white" stroke="black" points="324.5,-168.5 324.5,-187.5 418.5,-187.5 418.5,-168.5 324.5,-168.5"/>
<text text-anchor="middle" x="371.5" y="-175.5" font-family="Helvetica,sans-Serif" font-size="10.00">core/Instance.hpp</text>
</a>
</g>
</g>
<!-- Node0&#45;&gt;Node15 -->
<g id="edge17" class="edge"><title>Node0&#45;&gt;Node15</title>
<path fill="none" stroke="midnightblue" d="M476.693,-224.444C456.213,-215.596 424.017,-201.687 400.635,-191.586"/>
<polygon fill="midnightblue" stroke="midnightblue" points="401.782,-188.269 391.214,-187.516 399.006,-194.695 401.782,-188.269"/>
</g>
<!-- Node16 -->
<g id="node17" class="node"><title>Node16</title>
<polygon fill="white" stroke="#bfbfbf" points="574.5,-168.5 574.5,-187.5 652.5,-187.5 652.5,-168.5 574.5,-168.5"/>
<text text-anchor="middle" x="613.5" y="-175.5" font-family="Helvetica,sans-Serif" font-size="10.00">GLFW/glfw3.h</text>
</g>
<!-- Node0&#45;&gt;Node16 -->
<g id="edge20" class="edge"><title>Node0&#45;&gt;Node16</title>
<path fill="none" stroke="midnightblue" d="M515.039,-224.444C534.123,-215.636 564.075,-201.812 585.936,-191.722"/>
<polygon fill="midnightblue" stroke="midnightblue" points="587.435,-194.885 595.048,-187.516 584.501,-188.529 587.435,-194.885"/>
</g>
<!-- Node2 -->
<g id="node3" class="node"><title>Node2</title>
<g id="a_node3"><a xlink:href="vpr__stdafx_8h.html" target="_top" xlink:title="vpr_stdafx.h">
<polygon fill="white" stroke="black" points="351.5,-112.5 351.5,-131.5 419.5,-131.5 419.5,-112.5 351.5,-112.5"/>
<text text-anchor="middle" x="385.5" y="-119.5" font-family="Helvetica,sans-Serif" font-size="10.00">vpr_stdafx.h</text>
</a>
</g>
</g>
<!-- Node1&#45;&gt;Node2 -->
<g id="edge2" class="edge"><title>Node1&#45;&gt;Node2</title>
<path fill="none" stroke="midnightblue" d="M478.666,-168.324C460.784,-159.625 433.025,-146.12 412.454,-136.113"/>
<polygon fill="midnightblue" stroke="midnightblue" points="413.813,-132.882 403.29,-131.655 410.751,-139.177 413.813,-132.882"/>
</g>
<!-- Node14 -->
<g id="node15" class="node"><title>Node14</title>
<g id="a_node15"><a xlink:href="_forward_decl_8hpp.html" target="_top" xlink:title="ForwardDecl.hpp">
<polygon fill="white" stroke="black" points="445,-112.5 445,-131.5 534,-131.5 534,-112.5 445,-112.5"/>
<text text-anchor="middle" x="489.5" y="-119.5" font-family="Helvetica,sans-Serif" font-size="10.00">ForwardDecl.hpp</text>
</a>
</g>
</g>
<!-- Node1&#45;&gt;Node14 -->
<g id="edge16" class="edge"><title>Node1&#45;&gt;Node14</title>
<path fill="none" stroke="midnightblue" d="M495.344,-168.083C494.416,-160.927 493.082,-150.635 491.923,-141.691"/>
<polygon fill="midnightblue" stroke="midnightblue" points="495.391,-141.218 490.634,-131.751 488.449,-142.118 495.391,-141.218"/>
</g>
<!-- Node3 -->
<g id="node4" class="node"><title>Node3</title>
<polygon fill="white" stroke="#bfbfbf" points="0,-0.5 0,-19.5 41,-19.5 41,-0.5 0,-0.5"/>
<text text-anchor="middle" x="20.5" y="-7.5" font-family="Helvetica,sans-Serif" font-size="10.00">string</text>
</g>
<!-- Node2&#45;&gt;Node3 -->
<g id="edge3" class="edge"><title>Node2&#45;&gt;Node3</title>
<path fill="none" stroke="midnightblue" d="M351.335,-121.442C272.316,-121.729 80.1933,-117.981 34.5,-76 21.9007,-64.4243 19.1978,-44.4637 19.1552,-29.7079"/>
<polygon fill="midnightblue" stroke="midnightblue" points="22.6547,-29.7846 19.5214,-19.6637 15.6593,-29.5295 22.6547,-29.7846"/>
</g>
<!-- Node4 -->
<g id="node5" class="node"><title>Node4</title>
<polygon fill="white" stroke="#bfbfbf" points="335.5,-56.5 335.5,-75.5 377.5,-75.5 377.5,-56.5 335.5,-56.5"/>
<text text-anchor="middle" x="356.5" y="-63.5" font-family="Helvetica,sans-Serif" font-size="10.00">vector</text>
</g>
<!-- Node2&#45;&gt;Node4 -->
<g id="edge4" class="edge"><title>Node2&#45;&gt;Node4</title>
<path fill="none" stroke="midnightblue" d="M380.711,-112.083C376.742,-104.691 370.975,-93.9533 366.065,-84.8111"/>
<polygon fill="midnightblue" stroke="midnightblue" points="369.014,-82.9051 361.2,-75.7511 362.847,-86.217 369.014,-82.9051"/>
</g>
<!-- Node5 -->
<g id="node6" class="node"><title>Node5</title>
<polygon fill="white" stroke="#bfbfbf" points="395.5,-56.5 395.5,-75.5 433.5,-75.5 433.5,-56.5 395.5,-56.5"/>
<text text-anchor="middle" x="414.5" y="-63.5" font-family="Helvetica,sans-Serif" font-size="10.00">array</text>
</g>
<!-- Node2&#45;&gt;Node5 -->
<g id="edge5" class="edge"><title>Node2&#45;&gt;Node5</title>
<path fill="none" stroke="midnightblue" d="M390.289,-112.083C394.258,-104.691 400.025,-93.9533 404.935,-84.8111"/>
<polygon fill="midnightblue" stroke="midnightblue" points="408.153,-86.217 409.8,-75.7511 401.986,-82.9051 408.153,-86.217"/>
</g>
<!-- Node6 -->
<g id="node7" class="node"><title>Node6</title>
<polygon fill="white" stroke="#bfbfbf" points="451.5,-56.5 451.5,-75.5 503.5,-75.5 503.5,-56.5 451.5,-56.5"/>
<text text-anchor="middle" x="477.5" y="-63.5" font-family="Helvetica,sans-Serif" font-size="10.00">memory</text>
</g>
<!-- Node2&#45;&gt;Node6 -->
<g id="edge6" class="edge"><title>Node2&#45;&gt;Node6</title>
<path fill="none" stroke="midnightblue" d="M400.281,-112.324C414.767,-103.822 437.073,-90.7288 453.993,-80.7975"/>
<polygon fill="midnightblue" stroke="midnightblue" points="455.903,-83.735 462.755,-75.6545 452.359,-77.6981 455.903,-83.735"/>
</g>
<!-- Node7 -->
<g id="node8" class="node"><title>Node7</title>
<polygon fill="white" stroke="#bfbfbf" points="522,-56.5 522,-75.5 571,-75.5 571,-56.5 522,-56.5"/>
<text text-anchor="middle" x="546.5" y="-63.5" font-family="Helvetica,sans-Serif" font-size="10.00">cassert</text>
</g>
<!-- Node2&#45;&gt;Node7 -->
<g id="edge7" class="edge"><title>Node2&#45;&gt;Node7</title>
<path fill="none" stroke="midnightblue" d="M411.011,-112.444C438.335,-103.279 481.85,-88.6839 512.167,-78.5153"/>
<polygon fill="midnightblue" stroke="midnightblue" points="513.532,-81.7491 521.9,-75.2508 511.306,-75.1125 513.532,-81.7491"/>
</g>
<!-- Node8 -->
<g id="node9" class="node"><title>Node8</title>
<polygon fill="white" stroke="#bfbfbf" points="589.5,-56.5 589.5,-75.5 633.5,-75.5 633.5,-56.5 589.5,-56.5"/>
<text text-anchor="middle" x="611.5" y="-63.5" font-family="Helvetica,sans-Serif" font-size="10.00">mutex</text>
</g>
<!-- Node2&#45;&gt;Node8 -->
<g id="edge8" class="edge"><title>Node2&#45;&gt;Node8</title>
<path fill="none" stroke="midnightblue" d="M419.609,-113.589C456.474,-105.469 517.175,-91.7812 579.194,-75.98"/>
<polygon fill="midnightblue" stroke="midnightblue" points="580.338,-79.3 589.156,-73.4264 578.6,-72.5192 580.338,-79.3"/>
</g>
<!-- Node9 -->
<g id="node10" class="node"><title>Node9</title>
<g id="a_node10"><a xlink:href="_create_info_base_8hpp.html" target="_top" xlink:title="common/CreateInfoBase.hpp">
<polygon fill="white" stroke="black" points="175.5,-56.5 175.5,-75.5 317.5,-75.5 317.5,-56.5 175.5,-56.5"/>
<text text-anchor="middle" x="246.5" y="-63.5" font-family="Helvetica,sans-Serif" font-size="10.00">common/CreateInfoBase.hpp</text>
</a>
</g>
</g>
<!-- Node2&#45;&gt;Node9 -->
<g id="edge9" class="edge"><title>Node2&#45;&gt;Node9</title>
<path fill="none" stroke="midnightblue" d="M363.475,-112.444C340.396,-103.478 303.938,-89.314 277.859,-79.1827"/>
<polygon fill="midnightblue" stroke="midnightblue" points="279.011,-75.8753 268.422,-75.5164 276.476,-82.4002 279.011,-75.8753"/>
</g>
<!-- Node12 -->
<g id="node13" class="node"><title>Node12</title>
<g id="a_node13"><a xlink:href="vk_assert_8hpp.html" target="_top" xlink:title="common/vkAssert.hpp">
<polygon fill="white" stroke="black" points="44,-56.5 44,-75.5 157,-75.5 157,-56.5 44,-56.5"/>
<text text-anchor="middle" x="100.5" y="-63.5" font-family="Helvetica,sans-Serif" font-size="10.00">common/vkAssert.hpp</text>
</a>
</g>
</g>
<!-- Node2&#45;&gt;Node12 -->
<g id="edge12" class="edge"><title>Node2&#45;&gt;Node12</title>
<path fill="none" stroke="midnightblue" d="M351.405,-114.54C302.901,-105.35 213.444,-88.3999 155.493,-77.4197"/>
<polygon fill="midnightblue" stroke="midnightblue" points="155.888,-73.9323 145.411,-75.5095 154.585,-80.81 155.888,-73.9323"/>
</g>
<!-- Node10 -->
<g id="node11" class="node"><title>Node10</title>
<polygon fill="white" stroke="#bfbfbf" points="240.5,-0.5 240.5,-19.5 280.5,-19.5 280.5,-0.5 240.5,-0.5"/>
<text text-anchor="middle" x="260.5" y="-7.5" font-family="Helvetica,sans-Serif" font-size="10.00">limits</text>
</g>
<!-- Node9&#45;&gt;Node10 -->
<g id="edge10" class="edge"><title>Node9&#45;&gt;Node10</title>
<path fill="none" stroke="midnightblue" d="M248.812,-56.083C250.667,-48.9272 253.335,-38.6353 255.654,-29.6911"/>
<polygon fill="midnightblue" stroke="midnightblue" points="259.109,-30.3094 258.231,-19.7511 252.334,-28.5527 259.109,-30.3094"/>
</g>
<!-- Node11 -->
<g id="node12" class="node"><title>Node11</title>
<polygon fill="white" stroke="#bfbfbf" points="140.5,-0.5 140.5,-19.5 222.5,-19.5 222.5,-0.5 140.5,-0.5"/>
<text text-anchor="middle" x="181.5" y="-7.5" font-family="Helvetica,sans-Serif" font-size="10.00">vulkan/vulkan.h</text>
</g>
<!-- Node9&#45;&gt;Node11 -->
<g id="edge11" class="edge"><title>Node9&#45;&gt;Node11</title>
<path fill="none" stroke="midnightblue" d="M236.057,-56.324C226.354,-48.2631 211.685,-36.0765 200,-26.3695"/>
<polygon fill="midnightblue" stroke="midnightblue" points="202.062,-23.532 192.133,-19.8339 197.589,-28.9163 202.062,-23.532"/>
</g>
<!-- Node12&#45;&gt;Node3 -->
<g id="edge14" class="edge"><title>Node12&#45;&gt;Node3</title>
<path fill="none" stroke="midnightblue" d="M87.6466,-56.324C75.2836,-47.979 56.3699,-35.2122 41.7628,-25.3524"/>
<polygon fill="midnightblue" stroke="midnightblue" points="43.5682,-22.3483 33.3215,-19.6545 39.6518,-28.1503 43.5682,-22.3483"/>
</g>
<!-- Node12&#45;&gt;Node11 -->
<g id="edge15" class="edge"><title>Node12&#45;&gt;Node11</title>
<path fill="none" stroke="midnightblue" d="M113.514,-56.324C126.032,-47.979 145.182,-35.2122 159.971,-25.3524"/>
<polygon fill="midnightblue" stroke="midnightblue" points="162.139,-28.1137 168.518,-19.6545 158.256,-22.2894 162.139,-28.1137"/>
</g>
<!-- Node13 -->
<g id="node14" class="node"><title>Node13</title>
<polygon fill="white" stroke="#bfbfbf" points="68.5,-0.5 68.5,-19.5 122.5,-19.5 122.5,-0.5 68.5,-0.5"/>
<text text-anchor="middle" x="95.5" y="-7.5" font-family="Helvetica,sans-Serif" font-size="10.00">iostream</text>
</g>
<!-- Node12&#45;&gt;Node13 -->
<g id="edge13" class="edge"><title>Node12&#45;&gt;Node13</title>
<path fill="none" stroke="midnightblue" d="M99.6744,-56.083C99.0191,-49.0059 98.0797,-38.8611 97.258,-29.9865"/>
<polygon fill="midnightblue" stroke="midnightblue" points="100.717,-29.3858 96.3103,-19.7511 93.7473,-30.0312 100.717,-29.3858"/>
</g>
<!-- Node15&#45;&gt;Node2 -->
<g id="edge18" class="edge"><title>Node15&#45;&gt;Node2</title>
<path fill="none" stroke="midnightblue" d="M373.812,-168.083C375.667,-160.927 378.335,-150.635 380.654,-141.691"/>
<polygon fill="midnightblue" stroke="midnightblue" points="384.109,-142.309 383.231,-131.751 377.334,-140.553 384.109,-142.309"/>
</g>
<!-- Node15&#45;&gt;Node14 -->
<g id="edge19" class="edge"><title>Node15&#45;&gt;Node14</title>
<path fill="none" stroke="midnightblue" d="M390.197,-168.444C409.444,-159.636 439.652,-145.812 461.7,-135.722"/>
<polygon fill="midnightblue" stroke="midnightblue" points="463.253,-138.86 470.89,-131.516 460.34,-132.495 463.253,-138.86"/>
</g>
</g>
</svg>
