<?xml version="1.0" encoding="UTF-8" standalone="no"?>
<!DOCTYPE svg PUBLIC "-//W3C//DTD SVG 1.1//EN"
 "http://www.w3.org/Graphics/SVG/1.1/DTD/svg11.dtd">
<!-- Generated by graphviz version 2.38.0 (20140413.2041)
 -->
<!-- Title: core/src/SurfaceKHR.cpp Pages: 1 -->
<svg width="507pt" height="196pt"
 viewBox="0.00 0.00 506.50 196.00" xmlns="http://www.w3.org/2000/svg" xmlns:xlink="http://www.w3.org/1999/xlink">
<g id="graph0" class="graph" transform="scale(1 1) rotate(0) translate(4 192)">
<title>core/src/SurfaceKHR.cpp</title>
<polygon fill="white" stroke="none" points="-4,4 -4,-192 502.5,-192 502.5,4 -4,4"/>
<!-- Node0 -->
<g id="node1" class="node"><title>Node0</title>
<polygon fill="#bfbfbf" stroke="black" points="245,-168.5 245,-187.5 372,-187.5 372,-168.5 245,-168.5"/>
<text text-anchor="middle" x="308.5" y="-175.5" font-family="Helvetica,sans-Serif" font-size="10.00">core/src/SurfaceKHR.cpp</text>
</g>
<!-- Node1 -->
<g id="node2" class="node"><title>Node1</title>
<g id="a_node2"><a xlink:href="_surface_k_h_r_8hpp.html" target="_top" xlink:title="SurfaceKHR.hpp">
<polygon fill="white" stroke="black" points="165,-112.5 165,-131.5 254,-131.5 254,-112.5 165,-112.5"/>
<text text-anchor="middle" x="209.5" y="-119.5" font-family="Helvetica,sans-Serif" font-size="10.00">SurfaceKHR.hpp</text>
</a>
</g>
</g>
<!-- Node0&#45;&gt;Node1 -->
<g id="edge1" class="edge"><title>Node0&#45;&gt;Node1</title>
<path fill="none" stroke="midnightblue" d="M292.594,-168.324C276.862,-159.743 252.558,-146.486 234.291,-136.522"/>
<polygon fill="midnightblue" stroke="midnightblue" points="235.822,-133.37 225.367,-131.655 232.47,-139.516 235.822,-133.37"/>
</g>
<!-- Node5 -->
<g id="node6" class="node"><title>Node5</title>
<g id="a_node6"><a xlink:href="_instance_8hpp.html" target="_top" xlink:title="Instance.hpp">
<polygon fill="white" stroke="black" points="272.5,-112.5 272.5,-131.5 344.5,-131.5 344.5,-112.5 272.5,-112.5"/>
<text text-anchor="middle" x="308.5" y="-119.5" font-family="Helvetica,sans-Serif" font-size="10.00">Instance.hpp</text>
</a>
</g>
</g>
<!-- Node0&#45;&gt;Node5 -->
<g id="edge5" class="edge"><title>Node0&#45;&gt;Node5</title>
<path fill="none" stroke="midnightblue" d="M308.5,-168.083C308.5,-161.006 308.5,-150.861 308.5,-141.986"/>
<polygon fill="midnightblue" stroke="midnightblue" points="312,-141.751 308.5,-131.751 305,-141.751 312,-141.751"/>
</g>
<!-- Node6 -->
<g id="node7" class="node"><title>Node6</title>
<polygon fill="white" stroke="#bfbfbf" points="362.5,-112.5 362.5,-131.5 440.5,-131.5 440.5,-112.5 362.5,-112.5"/>
<text text-anchor="middle" x="401.5" y="-119.5" font-family="Helvetica,sans-Serif" font-size="10.00">GLFW/glfw3.h</text>
</g>
<!-- Node0&#45;&gt;Node6 -->
<g id="edge8" class="edge"><title>Node0&#45;&gt;Node6</title>
<path fill="none" stroke="midnightblue" d="M323.442,-168.324C338.085,-159.822 360.634,-146.729 377.738,-136.797"/>
<polygon fill="midnightblue" stroke="midnightblue" points="379.705,-139.703 386.595,-131.655 376.19,-133.649 379.705,-139.703"/>
</g>
<!-- Node7 -->
<g id="node8" class="node"><title>Node7</title>
<g id="a_node8"><a xlink:href="vk_assert_8hpp.html" target="_top" xlink:title="vkAssert.hpp">
<polygon fill="white" stroke="black" points="66,-112.5 66,-131.5 139,-131.5 139,-112.5 66,-112.5"/>
<text text-anchor="middle" x="102.5" y="-119.5" font-family="Helvetica,sans-Serif" font-size="10.00">vkAssert.hpp</text>
</a>
</g>
</g>
<!-- Node0&#45;&gt;Node7 -->
<g id="edge9" class="edge"><title>Node0&#45;&gt;Node7</title>
<path fill="none" stroke="midnightblue" d="M275.859,-168.444C240.45,-159.162 183.791,-144.309 144.947,-134.127"/>
<polygon fill="midnightblue" stroke="midnightblue" points="145.549,-130.667 134.989,-131.516 143.774,-137.438 145.549,-130.667"/>
</g>
<!-- Node10 -->
<g id="node11" class="node"><title>Node10</title>
<polygon fill="white" stroke="#bfbfbf" points="458.5,-112.5 458.5,-131.5 498.5,-131.5 498.5,-112.5 458.5,-112.5"/>
<text text-anchor="middle" x="478.5" y="-119.5" font-family="Helvetica,sans-Serif" font-size="10.00">utility</text>
</g>
<!-- Node0&#45;&gt;Node10 -->
<g id="edge13" class="edge"><title>Node0&#45;&gt;Node10</title>
<path fill="none" stroke="midnightblue" d="M335.437,-168.444C366.273,-158.649 416.636,-142.651 448.644,-132.484"/>
<polygon fill="midnightblue" stroke="midnightblue" points="449.873,-135.766 458.344,-129.403 447.753,-129.094 449.873,-135.766"/>
</g>
<!-- Node2 -->
<g id="node3" class="node"><title>Node2</title>
<g id="a_node3"><a xlink:href="vpr__stdafx_8h.html" target="_top" xlink:title="vpr_stdafx.h">
<polygon fill="white" stroke="black" points="177.5,-56.5 177.5,-75.5 245.5,-75.5 245.5,-56.5 177.5,-56.5"/>
<text text-anchor="middle" x="211.5" y="-63.5" font-family="Helvetica,sans-Serif" font-size="10.00">vpr_stdafx.h</text>
</a>
</g>
</g>
<!-- Node1&#45;&gt;Node2 -->
<g id="edge2" class="edge"><title>Node1&#45;&gt;Node2</title>
<path fill="none" stroke="midnightblue" d="M209.83,-112.083C210.092,-105.006 210.468,-94.8611 210.797,-85.9865"/>
<polygon fill="midnightblue" stroke="midnightblue" points="214.303,-85.8738 211.176,-75.7511 207.308,-85.6147 214.303,-85.8738"/>
</g>
<!-- Node4 -->
<g id="node5" class="node"><title>Node4</title>
<g id="a_node5"><a xlink:href="_forward_decl_8hpp.html" target="_top" xlink:title="ForwardDecl.hpp">
<polygon fill="white" stroke="black" points="264,-56.5 264,-75.5 353,-75.5 353,-56.5 264,-56.5"/>
<text text-anchor="middle" x="308.5" y="-63.5" font-family="Helvetica,sans-Serif" font-size="10.00">ForwardDecl.hpp</text>
</a>
</g>
</g>
<!-- Node1&#45;&gt;Node4 -->
<g id="edge4" class="edge"><title>Node1&#45;&gt;Node4</title>
<path fill="none" stroke="midnightblue" d="M225.406,-112.324C241.138,-103.743 265.442,-90.486 283.709,-80.5224"/>
<polygon fill="midnightblue" stroke="midnightblue" points="285.53,-83.5157 292.633,-75.6545 282.178,-77.3704 285.53,-83.5157"/>
</g>
<!-- Node3 -->
<g id="node4" class="node"><title>Node3</title>
<polygon fill="white" stroke="#bfbfbf" points="139.5,-0.5 139.5,-19.5 221.5,-19.5 221.5,-0.5 139.5,-0.5"/>
<text text-anchor="middle" x="180.5" y="-7.5" font-family="Helvetica,sans-Serif" font-size="10.00">vulkan/vulkan.h</text>
</g>
<!-- Node2&#45;&gt;Node3 -->
<g id="edge3" class="edge"><title>Node2&#45;&gt;Node3</title>
<path fill="none" stroke="midnightblue" d="M206.381,-56.083C202.092,-48.6127 195.842,-37.7244 190.558,-28.5199"/>
<polygon fill="midnightblue" stroke="midnightblue" points="193.538,-26.6811 185.524,-19.7511 187.467,-30.1662 193.538,-26.6811"/>
</g>
<!-- Node5&#45;&gt;Node2 -->
<g id="edge6" class="edge"><title>Node5&#45;&gt;Node2</title>
<path fill="none" stroke="midnightblue" d="M292.915,-112.324C277.501,-103.743 253.688,-90.486 235.79,-80.5224"/>
<polygon fill="midnightblue" stroke="midnightblue" points="237.486,-77.4606 227.046,-75.6545 234.081,-83.5767 237.486,-77.4606"/>
</g>
<!-- Node5&#45;&gt;Node4 -->
<g id="edge7" class="edge"><title>Node5&#45;&gt;Node4</title>
<path fill="none" stroke="midnightblue" d="M308.5,-112.083C308.5,-105.006 308.5,-94.8611 308.5,-85.9865"/>
<polygon fill="midnightblue" stroke="midnightblue" points="312,-85.751 308.5,-75.7511 305,-85.7511 312,-85.751"/>
</g>
<!-- Node7&#45;&gt;Node3 -->
<g id="edge12" class="edge"><title>Node7&#45;&gt;Node3</title>
<path fill="none" stroke="midnightblue" d="M108.621,-112.368C121.493,-94.2153 151.568,-51.8015 168.452,-27.9902"/>
<polygon fill="midnightblue" stroke="midnightblue" points="171.479,-29.7733 174.408,-19.5914 165.769,-25.7243 171.479,-29.7733"/>
</g>
<!-- Node8 -->
<g id="node9" class="node"><title>Node8</title>
<polygon fill="white" stroke="#bfbfbf" points="67.5,-56.5 67.5,-75.5 121.5,-75.5 121.5,-56.5 67.5,-56.5"/>
<text text-anchor="middle" x="94.5" y="-63.5" font-family="Helvetica,sans-Serif" font-size="10.00">iostream</text>
</g>
<!-- Node7&#45;&gt;Node8 -->
<g id="edge10" class="edge"><title>Node7&#45;&gt;Node8</title>
<path fill="none" stroke="midnightblue" d="M101.179,-112.083C100.119,-104.927 98.5941,-94.6353 97.2691,-85.6911"/>
<polygon fill="midnightblue" stroke="midnightblue" points="100.724,-85.1302 95.7965,-75.7511 93.7998,-86.1561 100.724,-85.1302"/>
</g>
<!-- Node9 -->
<g id="node10" class="node"><title>Node9</title>
<polygon fill="white" stroke="#bfbfbf" points="0,-56.5 0,-75.5 49,-75.5 49,-56.5 0,-56.5"/>
<text text-anchor="middle" x="24.5" y="-63.5" font-family="Helvetica,sans-Serif" font-size="10.00">cassert</text>
</g>
<!-- Node7&#45;&gt;Node9 -->
<g id="edge11" class="edge"><title>Node7&#45;&gt;Node9</title>
<path fill="none" stroke="midnightblue" d="M89.968,-112.324C77.9141,-103.979 59.4732,-91.2122 45.2313,-81.3524"/>
<polygon fill="midnightblue" stroke="midnightblue" points="47.2151,-78.469 37.0009,-75.6545 43.2306,-84.2243 47.2151,-78.469"/>
</g>
</g>
</svg>
