<?xml version="1.0" encoding="UTF-8" standalone="no"?>
<!DOCTYPE svg PUBLIC "-//W3C//DTD SVG 1.1//EN"
 "http://www.w3.org/Graphics/SVG/1.1/DTD/svg11.dtd">
<!-- Generated by graphviz version 2.38.0 (20140413.2041)
 -->
<!-- Title: src/render/Swapchain.cpp Pages: 1 -->
<!--zoomable 252 -->
<svg id="main" version="1.1" xmlns="http://www.w3.org/2000/svg" xmlns:xlink="http://www.w3.org/1999/xlink" xml:space="preserve" onload="init(evt)">
<style type="text/css"><![CDATA[
.edge:hover path { stroke: red; }
.edge:hover polygon { stroke: red; fill: red; }
]]></style>
<script type="text/javascript"><![CDATA[
var edges = document.getElementsByTagName('g');
if (edges && edges.length) {
  for (var i=0;i<edges.length;i++) {
    if (edges[i].id.substr(0,4)=='edge') {
      edges[i].setAttribute('class','edge');
    }
  }
}
]]></script>
        <defs>
                <circle id="rim" cx="0" cy="0" r="7"/>
                <circle id="rim2" cx="0" cy="0" r="3.5"/>
                <g id="zoomPlus">
                        <use xlink:href="#rim" fill="#404040">
                                <set attributeName="fill" to="#808080" begin="zoomplus.mouseover" end="zoomplus.mouseout"/>
                        </use>
                        <path d="M-4,0h8M0,-4v8" fill="none" stroke="white" stroke-width="1.5" pointer-events="none"/>
                </g>
                <g id="zoomMin">
                        <use xlink:href="#rim" fill="#404040">
                                <set attributeName="fill" to="#808080" begin="zoomminus.mouseover" end="zoomminus.mouseout"/>
                        </use>
                        <path d="M-4,0h8" fill="none" stroke="white" stroke-width="1.5" pointer-events="none"/>
                </g>
                <g id="dirArrow">
                        <path fill="none" stroke="white" stroke-width="1.5" d="M0,-3.0v7 M-2.5,-0.5L0,-3.0L2.5,-0.5"/>
                </g>
               <g id="resetDef">
                       <use xlink:href="#rim2" fill="#404040">
                               <set attributeName="fill" to="#808080" begin="reset.mouseover" end="reset.mouseout"/>
                       </use>
               </g>
        </defs>

<script type="text/javascript">
var viewWidth = 793;
var viewHeight = 252;
var sectionId = 'dynsection-0';
</script>
<script xlink:href="svgpan.js"/>
<svg id="graph" class="graph">
<g id="viewport">
<title>src/render/Swapchain.cpp</title>
<polygon fill="white" stroke="none" points="-4,4 -4,-248 788.5,-248 788.5,4 -4,4"/>
<!-- Node0 -->
<g id="node1" class="node"><title>Node0</title>
<polygon fill="#bfbfbf" stroke="black" points="382,-224.5 382,-243.5 511,-243.5 511,-224.5 382,-224.5"/>
<text text-anchor="middle" x="446.5" y="-231.5" font-family="Helvetica,sans-Serif" font-size="10.00">src/render/Swapchain.cpp</text>
</g>
<!-- Node1 -->
<g id="node2" class="node"><title>Node1</title>
<g id="a_node2"><a xlink:href="vpr__stdafx_8h.html" target="_top" xlink:title="vpr_stdafx.h">
<polygon fill="white" stroke="black" points="351.5,-112.5 351.5,-131.5 419.5,-131.5 419.5,-112.5 351.5,-112.5"/>
<text text-anchor="middle" x="385.5" y="-119.5" font-family="Helvetica,sans-Serif" font-size="10.00">vpr_stdafx.h</text>
</a>
</g>
</g>
<!-- Node0&#45;&gt;Node1 -->
<g id="edge1" class="edge"><title>Node0&#45;&gt;Node1</title>
<path fill="none" stroke="midnightblue" d="M381.709,-231.399C310.878,-228.12 204.022,-218.164 178.5,-188 132.527,-133.664 267.196,-124.127 340.886,-122.859"/>
<polygon fill="midnightblue" stroke="midnightblue" points="341.332,-126.354 351.287,-122.728 341.243,-119.354 341.332,-126.354"/>
</g>
<!-- Node13 -->
<g id="node14" class="node"><title>Node13</title>
<g id="a_node14"><a xlink:href="_swapchain_8hpp.html" target="_top" xlink:title="render/Swapchain.hpp">
<polygon fill="white" stroke="black" points="329,-168.5 329,-187.5 442,-187.5 442,-168.5 329,-168.5"/>
<text text-anchor="middle" x="385.5" y="-175.5" font-family="Helvetica,sans-Serif" font-size="10.00">render/Swapchain.hpp</text>
</a>
</g>
</g>
<!-- Node0&#45;&gt;Node13 -->
<g id="edge15" class="edge"><title>Node0&#45;&gt;Node13</title>
<path fill="none" stroke="midnightblue" d="M436.699,-224.324C427.682,-216.341 414.094,-204.313 403.182,-194.653"/>
<polygon fill="midnightblue" stroke="midnightblue" points="405.287,-191.842 395.479,-187.834 400.647,-197.083 405.287,-191.842"/>
</g>
<!-- Node15 -->
<g id="node16" class="node"><title>Node15</title>
<g id="a_node16"><a xlink:href="_instance_8hpp.html" target="_top" xlink:title="core/Instance.hpp">
<polygon fill="white" stroke="black" points="460.5,-168.5 460.5,-187.5 554.5,-187.5 554.5,-168.5 460.5,-168.5"/>
<text text-anchor="middle" x="507.5" y="-175.5" font-family="Helvetica,sans-Serif" font-size="10.00">core/Instance.hpp</text>
</a>
</g>
</g>
<!-- Node0&#45;&gt;Node15 -->
<g id="edge18" class="edge"><title>Node0&#45;&gt;Node15</title>
<path fill="none" stroke="midnightblue" d="M456.301,-224.324C465.318,-216.341 478.906,-204.313 489.818,-194.653"/>
<polygon fill="midnightblue" stroke="midnightblue" points="492.353,-197.083 497.521,-187.834 487.713,-191.842 492.353,-197.083"/>
</g>
<!-- Node16 -->
<g id="node17" class="node"><title>Node16</title>
<g id="a_node17"><a xlink:href="_physical_device_8hpp.html" target="_top" xlink:title="core/PhysicalDevice.hpp">
<polygon fill="white" stroke="black" points="188,-168.5 188,-187.5 311,-187.5 311,-168.5 188,-168.5"/>
<text text-anchor="middle" x="249.5" y="-175.5" font-family="Helvetica,sans-Serif" font-size="10.00">core/PhysicalDevice.hpp</text>
</a>
</g>
</g>
<!-- Node0&#45;&gt;Node16 -->
<g id="edge21" class="edge"><title>Node0&#45;&gt;Node16</title>
<path fill="none" stroke="midnightblue" d="M415.285,-224.444C381.567,-215.201 327.7,-200.436 290.568,-190.257"/>
<polygon fill="midnightblue" stroke="midnightblue" points="291.139,-186.785 280.569,-187.516 289.288,-193.536 291.139,-186.785"/>
</g>
<!-- Node17 -->
<g id="node18" class="node"><title>Node17</title>
<g id="a_node18"><a xlink:href="_logical_device_8hpp.html" target="_top" xlink:title="core/LogicalDevice.hpp">
<polygon fill="white" stroke="black" points="572.5,-168.5 572.5,-187.5 688.5,-187.5 688.5,-168.5 572.5,-168.5"/>
<text text-anchor="middle" x="630.5" y="-175.5" font-family="Helvetica,sans-Serif" font-size="10.00">core/LogicalDevice.hpp</text>
</a>
</g>
</g>
<!-- Node0&#45;&gt;Node17 -->
<g id="edge23" class="edge"><title>Node0&#45;&gt;Node17</title>
<path fill="none" stroke="midnightblue" d="M475.655,-224.444C507.013,-215.241 557.031,-200.562 591.697,-190.388"/>
<polygon fill="midnightblue" stroke="midnightblue" points="592.871,-193.691 601.481,-187.516 590.9,-186.974 592.871,-193.691"/>
</g>
<!-- Node19 -->
<g id="node20" class="node"><title>Node19</title>
<polygon fill="white" stroke="#bfbfbf" points="706.5,-168.5 706.5,-187.5 784.5,-187.5 784.5,-168.5 706.5,-168.5"/>
<text text-anchor="middle" x="745.5" y="-175.5" font-family="Helvetica,sans-Serif" font-size="10.00">GLFW/glfw3.h</text>
</g>
<!-- Node0&#45;&gt;Node19 -->
<g id="edge27" class="edge"><title>Node0&#45;&gt;Node19</title>
<path fill="none" stroke="midnightblue" d="M494.639,-224.487C543.01,-215.906 619.987,-202.18 696.212,-188.225"/>
<polygon fill="midnightblue" stroke="midnightblue" points="697.267,-191.59 706.472,-186.345 696.005,-184.705 697.267,-191.59"/>
</g>
<!-- Node2 -->
<g id="node3" class="node"><title>Node2</title>
<polygon fill="white" stroke="#bfbfbf" points="0,-0.5 0,-19.5 41,-19.5 41,-0.5 0,-0.5"/>
<text text-anchor="middle" x="20.5" y="-7.5" font-family="Helvetica,sans-Serif" font-size="10.00">string</text>
</g>
<!-- Node1&#45;&gt;Node2 -->
<g id="edge2" class="edge"><title>Node1&#45;&gt;Node2</title>
<path fill="none" stroke="midnightblue" d="M351.335,-121.442C272.316,-121.729 80.1933,-117.981 34.5,-76 21.9007,-64.4243 19.1978,-44.4637 19.1552,-29.7079"/>
<polygon fill="midnightblue" stroke="midnightblue" points="22.6547,-29.7846 19.5214,-19.6637 15.6593,-29.5295 22.6547,-29.7846"/>
</g>
<!-- Node3 -->
<g id="node4" class="node"><title>Node3</title>
<polygon fill="white" stroke="#bfbfbf" points="335.5,-56.5 335.5,-75.5 377.5,-75.5 377.5,-56.5 335.5,-56.5"/>
<text text-anchor="middle" x="356.5" y="-63.5" font-family="Helvetica,sans-Serif" font-size="10.00">vector</text>
</g>
<!-- Node1&#45;&gt;Node3 -->
<g id="edge3" class="edge"><title>Node1&#45;&gt;Node3</title>
<path fill="none" stroke="midnightblue" d="M380.711,-112.083C376.742,-104.691 370.975,-93.9533 366.065,-84.8111"/>
<polygon fill="midnightblue" stroke="midnightblue" points="369.014,-82.9051 361.2,-75.7511 362.847,-86.217 369.014,-82.9051"/>
</g>
<!-- Node4 -->
<g id="node5" class="node"><title>Node4</title>
<polygon fill="white" stroke="#bfbfbf" points="395.5,-56.5 395.5,-75.5 433.5,-75.5 433.5,-56.5 395.5,-56.5"/>
<text text-anchor="middle" x="414.5" y="-63.5" font-family="Helvetica,sans-Serif" font-size="10.00">array</text>
</g>
<!-- Node1&#45;&gt;Node4 -->
<g id="edge4" class="edge"><title>Node1&#45;&gt;Node4</title>
<path fill="none" stroke="midnightblue" d="M390.289,-112.083C394.258,-104.691 400.025,-93.9533 404.935,-84.8111"/>
<polygon fill="midnightblue" stroke="midnightblue" points="408.153,-86.217 409.8,-75.7511 401.986,-82.9051 408.153,-86.217"/>
</g>
<!-- Node5 -->
<g id="node6" class="node"><title>Node5</title>
<polygon fill="white" stroke="#bfbfbf" points="451.5,-56.5 451.5,-75.5 503.5,-75.5 503.5,-56.5 451.5,-56.5"/>
<text text-anchor="middle" x="477.5" y="-63.5" font-family="Helvetica,sans-Serif" font-size="10.00">memory</text>
</g>
<!-- Node1&#45;&gt;Node5 -->
<g id="edge5" class="edge"><title>Node1&#45;&gt;Node5</title>
<path fill="none" stroke="midnightblue" d="M400.281,-112.324C414.767,-103.822 437.073,-90.7288 453.993,-80.7975"/>
<polygon fill="midnightblue" stroke="midnightblue" points="455.903,-83.735 462.755,-75.6545 452.359,-77.6981 455.903,-83.735"/>
</g>
<!-- Node6 -->
<g id="node7" class="node"><title>Node6</title>
<polygon fill="white" stroke="#bfbfbf" points="522,-56.5 522,-75.5 571,-75.5 571,-56.5 522,-56.5"/>
<text text-anchor="middle" x="546.5" y="-63.5" font-family="Helvetica,sans-Serif" font-size="10.00">cassert</text>
</g>
<!-- Node1&#45;&gt;Node6 -->
<g id="edge6" class="edge"><title>Node1&#45;&gt;Node6</title>
<path fill="none" stroke="midnightblue" d="M411.011,-112.444C438.335,-103.279 481.85,-88.6839 512.167,-78.5153"/>
<polygon fill="midnightblue" stroke="midnightblue" points="513.532,-81.7491 521.9,-75.2508 511.306,-75.1125 513.532,-81.7491"/>
</g>
<!-- Node7 -->
<g id="node8" class="node"><title>Node7</title>
<polygon fill="white" stroke="#bfbfbf" points="589.5,-56.5 589.5,-75.5 633.5,-75.5 633.5,-56.5 589.5,-56.5"/>
<text text-anchor="middle" x="611.5" y="-63.5" font-family="Helvetica,sans-Serif" font-size="10.00">mutex</text>
</g>
<!-- Node1&#45;&gt;Node7 -->
<g id="edge7" class="edge"><title>Node1&#45;&gt;Node7</title>
<path fill="none" stroke="midnightblue" d="M419.81,-113.689C456.886,-105.656 517.918,-92.0461 579.334,-76.2001"/>
<polygon fill="midnightblue" stroke="midnightblue" points="580.392,-79.5413 589.19,-73.6382 578.631,-72.7665 580.392,-79.5413"/>
</g>
<!-- Node8 -->
<g id="node9" class="node"><title>Node8</title>
<g id="a_node9"><a xlink:href="_create_info_base_8hpp.html" target="_top" xlink:title="common/CreateInfoBase.hpp">
<polygon fill="white" stroke="black" points="175.5,-56.5 175.5,-75.5 317.5,-75.5 317.5,-56.5 175.5,-56.5"/>
<text text-anchor="middle" x="246.5" y="-63.5" font-family="Helvetica,sans-Serif" font-size="10.00">common/CreateInfoBase.hpp</text>
</a>
</g>
</g>
<!-- Node1&#45;&gt;Node8 -->
<g id="edge8" class="edge"><title>Node1&#45;&gt;Node8</title>
<path fill="none" stroke="midnightblue" d="M363.475,-112.444C340.396,-103.478 303.938,-89.314 277.859,-79.1827"/>
<polygon fill="midnightblue" stroke="midnightblue" points="279.011,-75.8753 268.422,-75.5164 276.476,-82.4002 279.011,-75.8753"/>
</g>
<!-- Node11 -->
<g id="node12" class="node"><title>Node11</title>
<g id="a_node12"><a xlink:href="vk_assert_8hpp.html" target="_top" xlink:title="common/vkAssert.hpp">
<polygon fill="white" stroke="black" points="44,-56.5 44,-75.5 157,-75.5 157,-56.5 44,-56.5"/>
<text text-anchor="middle" x="100.5" y="-63.5" font-family="Helvetica,sans-Serif" font-size="10.00">common/vkAssert.hpp</text>
</a>
</g>
</g>
<!-- Node1&#45;&gt;Node11 -->
<g id="edge11" class="edge"><title>Node1&#45;&gt;Node11</title>
<path fill="none" stroke="midnightblue" d="M351.405,-114.54C302.901,-105.35 213.444,-88.3999 155.493,-77.4197"/>
<polygon fill="midnightblue" stroke="midnightblue" points="155.888,-73.9323 145.411,-75.5095 154.585,-80.81 155.888,-73.9323"/>
</g>
<!-- Node9 -->
<g id="node10" class="node"><title>Node9</title>
<polygon fill="white" stroke="#bfbfbf" points="240.5,-0.5 240.5,-19.5 280.5,-19.5 280.5,-0.5 240.5,-0.5"/>
<text text-anchor="middle" x="260.5" y="-7.5" font-family="Helvetica,sans-Serif" font-size="10.00">limits</text>
</g>
<!-- Node8&#45;&gt;Node9 -->
<g id="edge9" class="edge"><title>Node8&#45;&gt;Node9</title>
<path fill="none" stroke="midnightblue" d="M248.812,-56.083C250.667,-48.9272 253.335,-38.6353 255.654,-29.6911"/>
<polygon fill="midnightblue" stroke="midnightblue" points="259.109,-30.3094 258.231,-19.7511 252.334,-28.5527 259.109,-30.3094"/>
</g>
<!-- Node10 -->
<g id="node11" class="node"><title>Node10</title>
<polygon fill="white" stroke="#bfbfbf" points="140.5,-0.5 140.5,-19.5 222.5,-19.5 222.5,-0.5 140.5,-0.5"/>
<text text-anchor="middle" x="181.5" y="-7.5" font-family="Helvetica,sans-Serif" font-size="10.00">vulkan/vulkan.h</text>
</g>
<!-- Node8&#45;&gt;Node10 -->
<g id="edge10" class="edge"><title>Node8&#45;&gt;Node10</title>
<path fill="none" stroke="midnightblue" d="M236.057,-56.324C226.354,-48.2631 211.685,-36.0765 200,-26.3695"/>
<polygon fill="midnightblue" stroke="midnightblue" points="202.062,-23.532 192.133,-19.8339 197.589,-28.9163 202.062,-23.532"/>
</g>
<!-- Node11&#45;&gt;Node2 -->
<g id="edge13" class="edge"><title>Node11&#45;&gt;Node2</title>
<path fill="none" stroke="midnightblue" d="M87.6466,-56.324C75.2836,-47.979 56.3699,-35.2122 41.7628,-25.3524"/>
<polygon fill="midnightblue" stroke="midnightblue" points="43.5682,-22.3483 33.3215,-19.6545 39.6518,-28.1503 43.5682,-22.3483"/>
</g>
<!-- Node11&#45;&gt;Node10 -->
<g id="edge14" class="edge"><title>Node11&#45;&gt;Node10</title>
<path fill="none" stroke="midnightblue" d="M113.514,-56.324C126.032,-47.979 145.182,-35.2122 159.971,-25.3524"/>
<polygon fill="midnightblue" stroke="midnightblue" points="162.139,-28.1137 168.518,-19.6545 158.256,-22.2894 162.139,-28.1137"/>
</g>
<!-- Node12 -->
<g id="node13" class="node"><title>Node12</title>
<polygon fill="white" stroke="#bfbfbf" points="68.5,-0.5 68.5,-19.5 122.5,-19.5 122.5,-0.5 68.5,-0.5"/>
<text text-anchor="middle" x="95.5" y="-7.5" font-family="Helvetica,sans-Serif" font-size="10.00">iostream</text>
</g>
<!-- Node11&#45;&gt;Node12 -->
<g id="edge12" class="edge"><title>Node11&#45;&gt;Node12</title>
<path fill="none" stroke="midnightblue" d="M99.6744,-56.083C99.0191,-49.0059 98.0797,-38.8611 97.258,-29.9865"/>
<polygon fill="midnightblue" stroke="midnightblue" points="100.717,-29.3858 96.3103,-19.7511 93.7473,-30.0312 100.717,-29.3858"/>
</g>
<!-- Node13&#45;&gt;Node1 -->
<g id="edge16" class="edge"><title>Node13&#45;&gt;Node1</title>
<path fill="none" stroke="midnightblue" d="M385.5,-168.083C385.5,-161.006 385.5,-150.861 385.5,-141.986"/>
<polygon fill="midnightblue" stroke="midnightblue" points="389,-141.751 385.5,-131.751 382,-141.751 389,-141.751"/>
</g>
<!-- Node14 -->
<g id="node15" class="node"><title>Node14</title>
<g id="a_node15"><a xlink:href="_forward_decl_8hpp.html" target="_top" xlink:title="ForwardDecl.hpp">
<polygon fill="white" stroke="black" points="463,-112.5 463,-131.5 552,-131.5 552,-112.5 463,-112.5"/>
<text text-anchor="middle" x="507.5" y="-119.5" font-family="Helvetica,sans-Serif" font-size="10.00">ForwardDecl.hpp</text>
</a>
</g>
</g>
<!-- Node13&#45;&gt;Node14 -->
<g id="edge17" class="edge"><title>Node13&#45;&gt;Node14</title>
<path fill="none" stroke="midnightblue" d="M404.831,-168.444C424.82,-159.596 456.243,-145.687 479.064,-135.586"/>
<polygon fill="midnightblue" stroke="midnightblue" points="480.532,-138.764 488.259,-131.516 477.698,-132.363 480.532,-138.764"/>
</g>
<!-- Node15&#45;&gt;Node1 -->
<g id="edge19" class="edge"><title>Node15&#45;&gt;Node1</title>
<path fill="none" stroke="midnightblue" d="M488.169,-168.444C468.18,-159.596 436.757,-145.687 413.936,-135.586"/>
<polygon fill="midnightblue" stroke="midnightblue" points="415.302,-132.363 404.741,-131.516 412.468,-138.764 415.302,-132.363"/>
</g>
<!-- Node15&#45;&gt;Node14 -->
<g id="edge20" class="edge"><title>Node15&#45;&gt;Node14</title>
<path fill="none" stroke="midnightblue" d="M507.5,-168.083C507.5,-161.006 507.5,-150.861 507.5,-141.986"/>
<polygon fill="midnightblue" stroke="midnightblue" points="511,-141.751 507.5,-131.751 504,-141.751 511,-141.751"/>
</g>
<!-- Node16&#45;&gt;Node1 -->
<g id="edge22" class="edge"><title>Node16&#45;&gt;Node1</title>
<path fill="none" stroke="midnightblue" d="M271.05,-168.444C293.531,-159.517 328.988,-145.439 354.48,-135.317"/>
<polygon fill="midnightblue" stroke="midnightblue" points="356.049,-138.46 364.051,-131.516 353.465,-131.954 356.049,-138.46"/>
</g>
<!-- Node17&#45;&gt;Node1 -->
<g id="edge24" class="edge"><title>Node17&#45;&gt;Node1</title>
<path fill="none" stroke="midnightblue" d="M591.679,-168.444C547.649,-158.739 475.992,-142.945 429.809,-132.766"/>
<polygon fill="midnightblue" stroke="midnightblue" points="430.31,-129.293 419.791,-130.558 428.803,-136.128 430.31,-129.293"/>
</g>
<!-- Node17&#45;&gt;Node14 -->
<g id="edge25" class="edge"><title>Node17&#45;&gt;Node14</title>
<path fill="none" stroke="midnightblue" d="M611.01,-168.444C590.858,-159.596 559.177,-145.687 536.169,-135.586"/>
<polygon fill="midnightblue" stroke="midnightblue" points="537.462,-132.332 526.899,-131.516 534.648,-138.741 537.462,-132.332"/>
</g>
<!-- Node18 -->
<g id="node19" class="node"><title>Node18</title>
<polygon fill="white" stroke="#bfbfbf" points="613,-112.5 613,-131.5 648,-131.5 648,-112.5 613,-112.5"/>
<text text-anchor="middle" x="630.5" y="-119.5" font-family="Helvetica,sans-Serif" font-size="10.00">map</text>
</g>
<!-- Node17&#45;&gt;Node18 -->
<g id="edge26" class="edge"><title>Node17&#45;&gt;Node18</title>
<path fill="none" stroke="midnightblue" d="M630.5,-168.083C630.5,-161.006 630.5,-150.861 630.5,-141.986"/>
<polygon fill="midnightblue" stroke="midnightblue" points="634,-141.751 630.5,-131.751 627,-141.751 634,-141.751"/>
</g>
</g>
</svg>
        <g id="navigator" transform="translate(0 0)" fill="#404254">
                <rect fill="#f2f5e9" fill-opacity="0.5" stroke="#606060" stroke-width=".5" x="0" y="0" width="60" height="60"/>
                <use id="zoomplus" xlink:href="#zoomPlus" x="17" y="9" onmousedown="handleZoom(evt,'in')"/>
                <use id="zoomminus" xlink:href="#zoomMin" x="42" y="9" onmousedown="handleZoom(evt,'out')"/>
                <use id="reset" xlink:href="#resetDef" x="30" y="36" onmousedown="handleReset()"/>
                <g id="arrowUp" xlink:href="#dirArrow" transform="translate(30 24)" onmousedown="handlePan(0,-1)">
                  <use xlink:href="#rim" fill="#404040">
                        <set attributeName="fill" to="#808080" begin="arrowUp.mouseover" end="arrowUp.mouseout"/>
                  </use>
                  <path fill="none" stroke="white" stroke-width="1.5" d="M0,-3.0v7 M-2.5,-0.5L0,-3.0L2.5,-0.5"/>
                </g>
                <g id="arrowRight" xlink:href="#dirArrow" transform="rotate(90) translate(36 -43)" onmousedown="handlePan(1,0)">
                  <use xlink:href="#rim" fill="#404040">
                        <set attributeName="fill" to="#808080" begin="arrowRight.mouseover" end="arrowRight.mouseout"/>
                  </use>
                  <path fill="none" stroke="white" stroke-width="1.5" d="M0,-3.0v7 M-2.5,-0.5L0,-3.0L2.5,-0.5"/>
                </g>
                <g id="arrowDown" xlink:href="#dirArrow" transform="rotate(180) translate(-30 -48)" onmousedown="handlePan(0,1)">
                  <use xlink:href="#rim" fill="#404040">
                        <set attributeName="fill" to="#808080" begin="arrowDown.mouseover" end="arrowDown.mouseout"/>
                  </use>
                  <path fill="none" stroke="white" stroke-width="1.5" d="M0,-3.0v7 M-2.5,-0.5L0,-3.0L2.5,-0.5"/>
                </g>
                <g id="arrowLeft" xlink:href="#dirArrow" transform="rotate(270) translate(-36 17)" onmousedown="handlePan(-1,0)">
                  <use xlink:href="#rim" fill="#404040">
                        <set attributeName="fill" to="#808080" begin="arrowLeft.mouseover" end="arrowLeft.mouseout"/>
                  </use>
                  <path fill="none" stroke="white" stroke-width="1.5" d="M0,-3.0v7 M-2.5,-0.5L0,-3.0L2.5,-0.5"/>
                </g>
        </g>
        <svg viewBox="0 0 15 15" width="100%" height="30px" preserveAspectRatio="xMaxYMin meet">
         <g id="arrow_out" transform="scale(0.3 0.3)">
          <a xlink:href="_swapchain_8cpp__incl_org.svg" target="_base">
           <rect id="button" ry="5" rx="5" y="6" x="6" height="38" width="38"
                fill="#f2f5e9" fill-opacity="0.5" stroke="#606060" stroke-width="1.0"/>
           <path id="arrow"
             d="M 11.500037,31.436501 C 11.940474,20.09759 22.043105,11.32322 32.158766,21.979434 L 37.068811,17.246167 C 37.068811,17.246167 37.088388,32 37.088388,32 L 22.160133,31.978069 C 22.160133,31.978069 26.997745,27.140456 26.997745,27.140456 C 18.528582,18.264221 13.291696,25.230495 11.500037,31.436501 z"
             style="fill:#404040;"/>
          </a>
         </g>
        </svg>
</svg>
