<?xml version="1.0" encoding="UTF-8" standalone="no"?>
<!DOCTYPE svg PUBLIC "-//W3C//DTD SVG 1.1//EN"
 "http://www.w3.org/Graphics/SVG/1.1/DTD/svg11.dtd">
<!-- Generated by graphviz version 2.38.0 (20140413.2041)
 -->
<!-- Title: include/render/Swapchain.hpp Pages: 1 -->
<svg width="266pt" height="84pt"
 viewBox="0.00 0.00 265.50 84.00" xmlns="http://www.w3.org/2000/svg" xmlns:xlink="http://www.w3.org/1999/xlink">
<g id="graph0" class="graph" transform="scale(1 1) rotate(0) translate(4 80)">
<title>include/render/Swapchain.hpp</title>
<polygon fill="white" stroke="none" points="-4,4 -4,-80 261.5,-80 261.5,4 -4,4"/>
<!-- Node14 -->
<g id="node1" class="node"><title>Node14</title>
<polygon fill="#bfbfbf" stroke="black" points="51,-56.5 51,-75.5 197,-75.5 197,-56.5 51,-56.5"/>
<text text-anchor="middle" x="124" y="-63.5" font-family="Helvetica,sans-Serif" font-size="10.00">include/render/Swapchain.hpp</text>
</g>
<!-- Node15 -->
<g id="node2" class="node"><title>Node15</title>
<g id="a_node2"><a xlink:href="_instance_8cpp.html" target="_top" xlink:title="src/core/Instance.cpp">
<polygon fill="white" stroke="black" points="0,-0.5 0,-19.5 110,-19.5 110,-0.5 0,-0.5"/>
<text text-anchor="middle" x="55" y="-7.5" font-family="Helvetica,sans-Serif" font-size="10.00">src/core/Instance.cpp</text>
</a>
</g>
</g>
<!-- Node14&#45;&gt;Node15 -->
<g id="edge1" class="edge"><title>Node14&#45;&gt;Node15</title>
<path fill="none" stroke="midnightblue" d="M104.962,-50.1008C92.5442,-40.3824 76.7566,-28.0269 66.2878,-19.8339"/>
<polygon fill="midnightblue" stroke="midnightblue" points="102.882,-52.9171 112.914,-56.324 107.196,-47.4046 102.882,-52.9171"/>
</g>
<!-- Node16 -->
<g id="node3" class="node"><title>Node16</title>
<g id="a_node3"><a xlink:href="_swapchain_8cpp.html" target="_top" xlink:title="src/render/Swapchain.cpp">
<polygon fill="white" stroke="black" points="128.5,-0.5 128.5,-19.5 257.5,-19.5 257.5,-0.5 128.5,-0.5"/>
<text text-anchor="middle" x="193" y="-7.5" font-family="Helvetica,sans-Serif" font-size="10.00">src/render/Swapchain.cpp</text>
</a>
</g>
</g>
<!-- Node14&#45;&gt;Node16 -->
<g id="edge2" class="edge"><title>Node14&#45;&gt;Node16</title>
<path fill="none" stroke="midnightblue" d="M143.038,-50.1008C155.456,-40.3824 171.243,-28.0269 181.712,-19.8339"/>
<polygon fill="midnightblue" stroke="midnightblue" points="140.804,-47.4046 135.086,-56.324 145.118,-52.9171 140.804,-47.4046"/>
</g>
</g>
</svg>
