<?xml version="1.0" encoding="UTF-8" standalone="no"?>
<!DOCTYPE svg PUBLIC "-//W3C//DTD SVG 1.1//EN"
 "http://www.w3.org/Graphics/SVG/1.1/DTD/svg11.dtd">
<!-- Generated by graphviz version 2.38.0 (20140413.2041)
 -->
<!-- Title: src/resource/DescriptorPool.cpp Pages: 1 -->
<svg width="522pt" height="84pt"
 viewBox="0.00 0.00 521.50 84.00" xmlns="http://www.w3.org/2000/svg" xmlns:xlink="http://www.w3.org/1999/xlink">
<g id="graph0" class="graph" transform="scale(1 1) rotate(0) translate(4 80)">
<title>src/resource/DescriptorPool.cpp</title>
<polygon fill="white" stroke="none" points="-4,4 -4,-80 517.5,-80 517.5,4 -4,4"/>
<!-- Node0 -->
<g id="node1" class="node"><title>Node0</title>
<polygon fill="#bfbfbf" stroke="black" points="151,-56.5 151,-75.5 307,-75.5 307,-56.5 151,-56.5"/>
<text text-anchor="middle" x="229" y="-63.5" font-family="Helvetica,sans-Serif" font-size="10.00">src/resource/DescriptorPool.cpp</text>
</g>
<!-- Node1 -->
<g id="node2" class="node"><title>Node1</title>
<polygon fill="white" stroke="#bfbfbf" points="0,-0.5 0,-19.5 68,-19.5 68,-0.5 0,-0.5"/>
<text text-anchor="middle" x="34" y="-7.5" font-family="Helvetica,sans-Serif" font-size="10.00">vpr_stdafx.h</text>
</g>
<!-- Node0&#45;&gt;Node1 -->
<g id="edge1" class="edge"><title>Node0&#45;&gt;Node1</title>
<path fill="none" stroke="midnightblue" d="M198.102,-56.4435C164.726,-47.2011 111.406,-32.4356 74.651,-22.2572"/>
<polygon fill="midnightblue" stroke="midnightblue" points="75.3252,-18.8122 64.7538,-19.5164 73.457,-25.5583 75.3252,-18.8122"/>
</g>
<!-- Node2 -->
<g id="node3" class="node"><title>Node2</title>
<polygon fill="white" stroke="#bfbfbf" points="86,-0.5 86,-19.5 226,-19.5 226,-0.5 86,-0.5"/>
<text text-anchor="middle" x="156" y="-7.5" font-family="Helvetica,sans-Serif" font-size="10.00">resource/DescriptorPool.hpp</text>
</g>
<!-- Node0&#45;&gt;Node2 -->
<g id="edge2" class="edge"><title>Node0&#45;&gt;Node2</title>
<path fill="none" stroke="midnightblue" d="M217.271,-56.324C206.163,-48.1066 189.258,-35.6017 176.017,-25.8069"/>
<polygon fill="midnightblue" stroke="midnightblue" points="178.063,-22.9671 167.942,-19.8339 173.9,-28.5948 178.063,-22.9671"/>
</g>
<!-- Node3 -->
<g id="node4" class="node"><title>Node3</title>
<polygon fill="white" stroke="#bfbfbf" points="244,-0.5 244,-19.5 360,-19.5 360,-0.5 244,-0.5"/>
<text text-anchor="middle" x="302" y="-7.5" font-family="Helvetica,sans-Serif" font-size="10.00">core/LogicalDevice.hpp</text>
</g>
<!-- Node0&#45;&gt;Node3 -->
<g id="edge3" class="edge"><title>Node0&#45;&gt;Node3</title>
<path fill="none" stroke="midnightblue" d="M240.729,-56.324C251.837,-48.1066 268.742,-35.6017 281.983,-25.8069"/>
<polygon fill="midnightblue" stroke="midnightblue" points="284.1,-28.5948 290.058,-19.8339 279.937,-22.9671 284.1,-28.5948"/>
</g>
<!-- Node4 -->
<g id="node5" class="node"><title>Node4</title>
<polygon fill="white" stroke="#bfbfbf" points="378.5,-0.5 378.5,-19.5 513.5,-19.5 513.5,-0.5 378.5,-0.5"/>
<text text-anchor="middle" x="446" y="-7.5" font-family="Helvetica,sans-Serif" font-size="10.00">resource/DescriptorSet.hpp</text>
</g>
<!-- Node0&#45;&gt;Node4 -->
<g id="edge4" class="edge"><title>Node0&#45;&gt;Node4</title>
<path fill="none" stroke="midnightblue" d="M263.384,-56.4435C300.922,-47.1024 361.131,-32.1194 402.067,-21.9326"/>
<polygon fill="midnightblue" stroke="midnightblue" points="402.918,-25.3278 411.777,-19.5164 401.227,-18.5349 402.918,-25.3278"/>
</g>
</g>
</svg>
