<?xml version="1.0" encoding="UTF-8" standalone="no"?>
<!DOCTYPE svg PUBLIC "-//W3C//DTD SVG 1.1//EN"
 "http://www.w3.org/Graphics/SVG/1.1/DTD/svg11.dtd">
<!-- Generated by graphviz version 2.38.0 (20140413.2041)
 -->
<!-- Title: include/resource/Semaphore.hpp Pages: 1 -->
<svg width="184pt" height="84pt"
 viewBox="0.00 0.00 183.50 84.00" xmlns="http://www.w3.org/2000/svg" xmlns:xlink="http://www.w3.org/1999/xlink">
<g id="graph0" class="graph" transform="scale(1 1) rotate(0) translate(4 80)">
<title>include/resource/Semaphore.hpp</title>
<polygon fill="white" stroke="none" points="-4,4 -4,-80 179.5,-80 179.5,4 -4,4"/>
<!-- Node0 -->
<g id="node1" class="node"><title>Node0</title>
<polygon fill="#bfbfbf" stroke="black" points="2.5,-56.5 2.5,-75.5 161.5,-75.5 161.5,-56.5 2.5,-56.5"/>
<text text-anchor="middle" x="82" y="-63.5" font-family="Helvetica,sans-Serif" font-size="10.00">include/resource/Semaphore.hpp</text>
</g>
<!-- Node1 -->
<g id="node2" class="node"><title>Node1</title>
<polygon fill="white" stroke="#bfbfbf" points="0,-0.5 0,-19.5 68,-19.5 68,-0.5 0,-0.5"/>
<text text-anchor="middle" x="34" y="-7.5" font-family="Helvetica,sans-Serif" font-size="10.00">vpr_stdafx.h</text>
</g>
<!-- Node0&#45;&gt;Node1 -->
<g id="edge1" class="edge"><title>Node0&#45;&gt;Node1</title>
<path fill="none" stroke="midnightblue" d="M74.0738,-56.083C67.1539,-48.2982 56.9346,-36.8015 48.548,-27.3665"/>
<polygon fill="midnightblue" stroke="midnightblue" points="51.0383,-24.8999 41.7787,-19.7511 45.8065,-29.5505 51.0383,-24.8999"/>
</g>
<!-- Node2 -->
<g id="node3" class="node"><title>Node2</title>
<polygon fill="white" stroke="#bfbfbf" points="86.5,-0.5 86.5,-19.5 175.5,-19.5 175.5,-0.5 86.5,-0.5"/>
<text text-anchor="middle" x="131" y="-7.5" font-family="Helvetica,sans-Serif" font-size="10.00">ForwardDecl.hpp</text>
</g>
<!-- Node0&#45;&gt;Node2 -->
<g id="edge2" class="edge"><title>Node0&#45;&gt;Node2</title>
<path fill="none" stroke="midnightblue" d="M90.0914,-56.083C97.1554,-48.2982 107.588,-36.8015 116.149,-27.3665"/>
<polygon fill="midnightblue" stroke="midnightblue" points="118.931,-29.5087 123.059,-19.7511 113.747,-24.8047 118.931,-29.5087"/>
</g>
</g>
</svg>
