<?xml version="1.0" encoding="UTF-8" standalone="no"?>
<!DOCTYPE svg PUBLIC "-//W3C//DTD SVG 1.1//EN"
 "http://www.w3.org/Graphics/SVG/1.1/DTD/svg11.dtd">
<!-- Generated by graphviz version 2.38.0 (20140413.2041)
 -->
<!-- Title: src/render/Framebuffer.cpp Pages: 1 -->
<svg width="344pt" height="84pt"
 viewBox="0.00 0.00 344.00 84.00" xmlns="http://www.w3.org/2000/svg" xmlns:xlink="http://www.w3.org/1999/xlink">
<g id="graph0" class="graph" transform="scale(1 1) rotate(0) translate(4 80)">
<title>src/render/Framebuffer.cpp</title>
<polygon fill="white" stroke="none" points="-4,4 -4,-80 340,-80 340,4 -4,4"/>
<!-- Node0 -->
<g id="node1" class="node"><title>Node0</title>
<polygon fill="#bfbfbf" stroke="black" points="77.5,-56.5 77.5,-75.5 210.5,-75.5 210.5,-56.5 77.5,-56.5"/>
<text text-anchor="middle" x="144" y="-63.5" font-family="Helvetica,sans-Serif" font-size="10.00">src/render/Framebuffer.cpp</text>
</g>
<!-- Node1 -->
<g id="node2" class="node"><title>Node1</title>
<polygon fill="white" stroke="#bfbfbf" points="0,-0.5 0,-19.5 68,-19.5 68,-0.5 0,-0.5"/>
<text text-anchor="middle" x="34" y="-7.5" font-family="Helvetica,sans-Serif" font-size="10.00">vpr_stdafx.h</text>
</g>
<!-- Node0&#45;&gt;Node1 -->
<g id="edge1" class="edge"><title>Node0&#45;&gt;Node1</title>
<path fill="none" stroke="midnightblue" d="M126.327,-56.324C108.606,-47.6247 81.0968,-34.1202 60.7116,-24.113"/>
<polygon fill="midnightblue" stroke="midnightblue" points="62.1486,-20.9195 51.6295,-19.6545 59.0639,-27.2031 62.1486,-20.9195"/>
</g>
<!-- Node2 -->
<g id="node3" class="node"><title>Node2</title>
<polygon fill="white" stroke="#bfbfbf" points="86,-0.5 86,-19.5 202,-19.5 202,-0.5 86,-0.5"/>
<text text-anchor="middle" x="144" y="-7.5" font-family="Helvetica,sans-Serif" font-size="10.00">render/Framebuffer.hpp</text>
</g>
<!-- Node0&#45;&gt;Node2 -->
<g id="edge2" class="edge"><title>Node0&#45;&gt;Node2</title>
<path fill="none" stroke="midnightblue" d="M144,-56.083C144,-49.0059 144,-38.8611 144,-29.9865"/>
<polygon fill="midnightblue" stroke="midnightblue" points="147.5,-29.751 144,-19.7511 140.5,-29.7511 147.5,-29.751"/>
</g>
<!-- Node3 -->
<g id="node4" class="node"><title>Node3</title>
<polygon fill="white" stroke="#bfbfbf" points="220,-0.5 220,-19.5 336,-19.5 336,-0.5 220,-0.5"/>
<text text-anchor="middle" x="278" y="-7.5" font-family="Helvetica,sans-Serif" font-size="10.00">core/LogicalDevice.hpp</text>
</g>
<!-- Node0&#45;&gt;Node3 -->
<g id="edge3" class="edge"><title>Node0&#45;&gt;Node3</title>
<path fill="none" stroke="midnightblue" d="M165.233,-56.4435C187.384,-47.5171 222.319,-33.4387 247.436,-23.3168"/>
<polygon fill="midnightblue" stroke="midnightblue" points="248.9,-26.5006 256.867,-19.5164 246.283,-20.0079 248.9,-26.5006"/>
</g>
</g>
</svg>
