<?xml version="1.0" encoding="UTF-8" standalone="no"?>
<!DOCTYPE svg PUBLIC "-//W3C//DTD SVG 1.1//EN"
 "http://www.w3.org/Graphics/SVG/1.1/DTD/svg11.dtd">
<!-- Generated by graphviz version 2.38.0 (20140413.2041)
 -->
<!-- Title: src/core/Instance.cpp Pages: 1 -->
<svg width="816pt" height="84pt"
 viewBox="0.00 0.00 816.00 84.00" xmlns="http://www.w3.org/2000/svg" xmlns:xlink="http://www.w3.org/1999/xlink">
<g id="graph0" class="graph" transform="scale(1 1) rotate(0) translate(4 80)">
<title>src/core/Instance.cpp</title>
<polygon fill="white" stroke="none" points="-4,4 -4,-80 812,-80 812,4 -4,4"/>
<!-- Node0 -->
<g id="node1" class="node"><title>Node0</title>
<polygon fill="#bfbfbf" stroke="black" points="344,-56.5 344,-75.5 454,-75.5 454,-56.5 344,-56.5"/>
<text text-anchor="middle" x="399" y="-63.5" font-family="Helvetica,sans-Serif" font-size="10.00">src/core/Instance.cpp</text>
</g>
<!-- Node1 -->
<g id="node2" class="node"><title>Node1</title>
<polygon fill="white" stroke="#bfbfbf" points="0,-0.5 0,-19.5 68,-19.5 68,-0.5 0,-0.5"/>
<text text-anchor="middle" x="34" y="-7.5" font-family="Helvetica,sans-Serif" font-size="10.00">vpr_stdafx.h</text>
</g>
<!-- Node0&#45;&gt;Node1 -->
<g id="edge1" class="edge"><title>Node0&#45;&gt;Node1</title>
<path fill="none" stroke="midnightblue" d="M343.842,-58.4412C281.646,-50.7883 177.279,-37.1743 78.1148,-20.0985"/>
<polygon fill="midnightblue" stroke="midnightblue" points="78.6789,-16.6441 68.2275,-18.3812 77.481,-23.5409 78.6789,-16.6441"/>
</g>
<!-- Node2 -->
<g id="node3" class="node"><title>Node2</title>
<polygon fill="white" stroke="#bfbfbf" points="86,-0.5 86,-19.5 180,-19.5 180,-0.5 86,-0.5"/>
<text text-anchor="middle" x="133" y="-7.5" font-family="Helvetica,sans-Serif" font-size="10.00">core/Instance.hpp</text>
</g>
<!-- Node0&#45;&gt;Node2 -->
<g id="edge2" class="edge"><title>Node0&#45;&gt;Node2</title>
<path fill="none" stroke="midnightblue" d="M356.852,-56.4435C310.254,-46.9839 235.156,-31.7384 184.955,-21.5472"/>
<polygon fill="midnightblue" stroke="midnightblue" points="185.448,-18.076 174.951,-19.5164 184.055,-24.936 185.448,-18.076"/>
</g>
<!-- Node3 -->
<g id="node4" class="node"><title>Node3</title>
<polygon fill="white" stroke="#bfbfbf" points="198.5,-0.5 198.5,-19.5 321.5,-19.5 321.5,-0.5 198.5,-0.5"/>
<text text-anchor="middle" x="260" y="-7.5" font-family="Helvetica,sans-Serif" font-size="10.00">core/PhysicalDevice.hpp</text>
</g>
<!-- Node0&#45;&gt;Node3 -->
<g id="edge3" class="edge"><title>Node0&#45;&gt;Node3</title>
<path fill="none" stroke="midnightblue" d="M376.975,-56.4435C353.896,-47.4776 317.438,-33.314 291.359,-23.1827"/>
<polygon fill="midnightblue" stroke="midnightblue" points="292.511,-19.8753 281.922,-19.5164 289.976,-26.4002 292.511,-19.8753"/>
</g>
<!-- Node4 -->
<g id="node5" class="node"><title>Node4</title>
<polygon fill="white" stroke="#bfbfbf" points="339.5,-0.5 339.5,-19.5 458.5,-19.5 458.5,-0.5 339.5,-0.5"/>
<text text-anchor="middle" x="399" y="-7.5" font-family="Helvetica,sans-Serif" font-size="10.00">render/SurfaceKHR.hpp</text>
</g>
<!-- Node0&#45;&gt;Node4 -->
<g id="edge4" class="edge"><title>Node0&#45;&gt;Node4</title>
<path fill="none" stroke="midnightblue" d="M399,-56.083C399,-49.0059 399,-38.8611 399,-29.9865"/>
<polygon fill="midnightblue" stroke="midnightblue" points="402.5,-29.751 399,-19.7511 395.5,-29.7511 402.5,-29.751"/>
</g>
<!-- Node5 -->
<g id="node6" class="node"><title>Node5</title>
<polygon fill="white" stroke="#bfbfbf" points="476.5,-0.5 476.5,-19.5 589.5,-19.5 589.5,-0.5 476.5,-0.5"/>
<text text-anchor="middle" x="533" y="-7.5" font-family="Helvetica,sans-Serif" font-size="10.00">render/Swapchain.hpp</text>
</g>
<!-- Node0&#45;&gt;Node5 -->
<g id="edge5" class="edge"><title>Node0&#45;&gt;Node5</title>
<path fill="none" stroke="midnightblue" d="M420.233,-56.4435C442.384,-47.5171 477.319,-33.4387 502.436,-23.3168"/>
<polygon fill="midnightblue" stroke="midnightblue" points="503.9,-26.5006 511.867,-19.5164 501.283,-20.0079 503.9,-26.5006"/>
</g>
<!-- Node6 -->
<g id="node7" class="node"><title>Node6</title>
<polygon fill="white" stroke="#bfbfbf" points="608,-0.5 608,-19.5 712,-19.5 712,-0.5 608,-0.5"/>
<text text-anchor="middle" x="660" y="-7.5" font-family="Helvetica,sans-Serif" font-size="10.00">util/easylogging++.h</text>
</g>
<!-- Node0&#45;&gt;Node6 -->
<g id="edge6" class="edge"><title>Node0&#45;&gt;Node6</title>
<path fill="none" stroke="midnightblue" d="M440.356,-56.4435C486.078,-46.9839 559.764,-31.7384 609.022,-21.5472"/>
<polygon fill="midnightblue" stroke="midnightblue" points="609.754,-24.97 618.837,-19.5164 608.336,-18.1152 609.754,-24.97"/>
</g>
<!-- Node7 -->
<g id="node8" class="node"><title>Node7</title>
<polygon fill="white" stroke="#bfbfbf" points="730,-0.5 730,-19.5 808,-19.5 808,-0.5 730,-0.5"/>
<text text-anchor="middle" x="769" y="-7.5" font-family="Helvetica,sans-Serif" font-size="10.00">GLFW/glfw3.h</text>
</g>
<!-- Node0&#45;&gt;Node7 -->
<g id="edge7" class="edge"><title>Node0&#45;&gt;Node7</title>
<path fill="none" stroke="midnightblue" d="M454.099,-58.0921C516.242,-50.1237 620.559,-36.2148 720.071,-20.0888"/>
<polygon fill="midnightblue" stroke="midnightblue" points="720.688,-23.5344 729.994,-18.4705 719.561,-16.6257 720.688,-23.5344"/>
</g>
</g>
</svg>
