<?xml version="1.0" encoding="UTF-8" standalone="no"?>
<!DOCTYPE svg PUBLIC "-//W3C//DTD SVG 1.1//EN"
 "http://www.w3.org/Graphics/SVG/1.1/DTD/svg11.dtd">
<!-- Generated by graphviz version 2.38.0 (20140413.2041)
 -->
<!-- Title: src/core/PhysicalDevice.cpp Pages: 1 -->
<svg width="388pt" height="84pt"
 viewBox="0.00 0.00 388.00 84.00" xmlns="http://www.w3.org/2000/svg" xmlns:xlink="http://www.w3.org/1999/xlink">
<g id="graph0" class="graph" transform="scale(1 1) rotate(0) translate(4 80)">
<title>src/core/PhysicalDevice.cpp</title>
<polygon fill="white" stroke="none" points="-4,4 -4,-80 384,-80 384,4 -4,4"/>
<!-- Node0 -->
<g id="node1" class="node"><title>Node0</title>
<polygon fill="#bfbfbf" stroke="black" points="144,-56.5 144,-75.5 284,-75.5 284,-56.5 144,-56.5"/>
<text text-anchor="middle" x="214" y="-63.5" font-family="Helvetica,sans-Serif" font-size="10.00">src/core/PhysicalDevice.cpp</text>
</g>
<!-- Node1 -->
<g id="node2" class="node"><title>Node1</title>
<polygon fill="white" stroke="#bfbfbf" points="0,-0.5 0,-19.5 68,-19.5 68,-0.5 0,-0.5"/>
<text text-anchor="middle" x="34" y="-7.5" font-family="Helvetica,sans-Serif" font-size="10.00">vpr_stdafx.h</text>
</g>
<!-- Node0&#45;&gt;Node1 -->
<g id="edge1" class="edge"><title>Node0&#45;&gt;Node1</title>
<path fill="none" stroke="midnightblue" d="M185.478,-56.4435C154.934,-47.2801 106.292,-32.6876 72.3973,-22.5192"/>
<polygon fill="midnightblue" stroke="midnightblue" points="72.9721,-19.0376 62.3881,-19.5164 70.9606,-25.7424 72.9721,-19.0376"/>
</g>
<!-- Node2 -->
<g id="node3" class="node"><title>Node2</title>
<polygon fill="white" stroke="#bfbfbf" points="86.5,-0.5 86.5,-19.5 209.5,-19.5 209.5,-0.5 86.5,-0.5"/>
<text text-anchor="middle" x="148" y="-7.5" font-family="Helvetica,sans-Serif" font-size="10.00">core/PhysicalDevice.hpp</text>
</g>
<!-- Node0&#45;&gt;Node2 -->
<g id="edge2" class="edge"><title>Node0&#45;&gt;Node2</title>
<path fill="none" stroke="midnightblue" d="M203.396,-56.324C193.544,-48.2631 178.649,-36.0765 166.785,-26.3695"/>
<polygon fill="midnightblue" stroke="midnightblue" points="168.753,-23.4575 158.797,-19.8339 164.32,-28.8752 168.753,-23.4575"/>
</g>
<!-- Node3 -->
<g id="node4" class="node"><title>Node3</title>
<polygon fill="white" stroke="#bfbfbf" points="228,-0.5 228,-19.5 332,-19.5 332,-0.5 228,-0.5"/>
<text text-anchor="middle" x="280" y="-7.5" font-family="Helvetica,sans-Serif" font-size="10.00">util/easylogging++.h</text>
</g>
<!-- Node0&#45;&gt;Node3 -->
<g id="edge3" class="edge"><title>Node0&#45;&gt;Node3</title>
<path fill="none" stroke="midnightblue" d="M224.604,-56.324C234.456,-48.2631 249.351,-36.0765 261.215,-26.3695"/>
<polygon fill="midnightblue" stroke="midnightblue" points="263.68,-28.8752 269.203,-19.8339 259.247,-23.4575 263.68,-28.8752"/>
</g>
<!-- Node4 -->
<g id="node5" class="node"><title>Node4</title>
<polygon fill="white" stroke="#bfbfbf" points="350,-0.5 350,-19.5 380,-19.5 380,-0.5 350,-0.5"/>
<text text-anchor="middle" x="365" y="-7.5" font-family="Helvetica,sans-Serif" font-size="10.00">set</text>
</g>
<!-- Node0&#45;&gt;Node4 -->
<g id="edge4" class="edge"><title>Node0&#45;&gt;Node4</title>
<path fill="none" stroke="midnightblue" d="M238.87,-56.3384C262.656,-48.0216 299.757,-34.9643 340.258,-20.2279"/>
<polygon fill="midnightblue" stroke="midnightblue" points="341.585,-23.4698 349.78,-16.7552 339.186,-16.8935 341.585,-23.4698"/>
</g>
</g>
</svg>
