<?xml version="1.0" encoding="UTF-8" standalone="no"?>
<!DOCTYPE svg PUBLIC "-//W3C//DTD SVG 1.1//EN"
 "http://www.w3.org/Graphics/SVG/1.1/DTD/svg11.dtd">
<!-- Generated by graphviz version 2.38.0 (20140413.2041)
 -->
<!-- Title: src/resource/PipelineCache.cpp Pages: 1 -->
<svg width="630pt" height="84pt"
 viewBox="0.00 0.00 630.00 84.00" xmlns="http://www.w3.org/2000/svg" xmlns:xlink="http://www.w3.org/1999/xlink">
<g id="graph0" class="graph" transform="scale(1 1) rotate(0) translate(4 80)">
<title>src/resource/PipelineCache.cpp</title>
<polygon fill="white" stroke="none" points="-4,4 -4,-80 626,-80 626,4 -4,4"/>
<!-- Node0 -->
<g id="node1" class="node"><title>Node0</title>
<polygon fill="#bfbfbf" stroke="black" points="222.5,-56.5 222.5,-75.5 377.5,-75.5 377.5,-56.5 222.5,-56.5"/>
<text text-anchor="middle" x="300" y="-63.5" font-family="Helvetica,sans-Serif" font-size="10.00">src/resource/PipelineCache.cpp</text>
</g>
<!-- Node1 -->
<g id="node2" class="node"><title>Node1</title>
<polygon fill="white" stroke="#bfbfbf" points="0,-0.5 0,-19.5 68,-19.5 68,-0.5 0,-0.5"/>
<text text-anchor="middle" x="34" y="-7.5" font-family="Helvetica,sans-Serif" font-size="10.00">vpr_stdafx.h</text>
</g>
<!-- Node0&#45;&gt;Node1 -->
<g id="edge1" class="edge"><title>Node0&#45;&gt;Node1</title>
<path fill="none" stroke="midnightblue" d="M257.231,-56.4645C214.431,-47.9017 146.423,-34.2384 78.3101,-20.2588"/>
<polygon fill="midnightblue" stroke="midnightblue" points="78.7627,-16.7787 68.2629,-18.1945 77.3539,-23.6355 78.7627,-16.7787"/>
</g>
<!-- Node2 -->
<g id="node3" class="node"><title>Node2</title>
<polygon fill="white" stroke="#bfbfbf" points="86,-0.5 86,-19.5 224,-19.5 224,-0.5 86,-0.5"/>
<text text-anchor="middle" x="155" y="-7.5" font-family="Helvetica,sans-Serif" font-size="10.00">resource/PipelineCache.hpp</text>
</g>
<!-- Node0&#45;&gt;Node2 -->
<g id="edge2" class="edge"><title>Node0&#45;&gt;Node2</title>
<path fill="none" stroke="midnightblue" d="M277.024,-56.4435C252.843,-47.4381 214.582,-33.1891 187.354,-23.049"/>
<polygon fill="midnightblue" stroke="midnightblue" points="188.461,-19.7265 177.868,-19.5164 186.018,-26.2864 188.461,-19.7265"/>
</g>
<!-- Node3 -->
<g id="node4" class="node"><title>Node3</title>
<polygon fill="white" stroke="#bfbfbf" points="242,-0.5 242,-19.5 358,-19.5 358,-0.5 242,-0.5"/>
<text text-anchor="middle" x="300" y="-7.5" font-family="Helvetica,sans-Serif" font-size="10.00">core/LogicalDevice.hpp</text>
</g>
<!-- Node0&#45;&gt;Node3 -->
<g id="edge3" class="edge"><title>Node0&#45;&gt;Node3</title>
<path fill="none" stroke="midnightblue" d="M300,-56.083C300,-49.0059 300,-38.8611 300,-29.9865"/>
<polygon fill="midnightblue" stroke="midnightblue" points="303.5,-29.751 300,-19.7511 296.5,-29.7511 303.5,-29.751"/>
</g>
<!-- Node4 -->
<g id="node5" class="node"><title>Node4</title>
<polygon fill="white" stroke="#bfbfbf" points="376.5,-0.5 376.5,-19.5 499.5,-19.5 499.5,-0.5 376.5,-0.5"/>
<text text-anchor="middle" x="438" y="-7.5" font-family="Helvetica,sans-Serif" font-size="10.00">core/PhysicalDevice.hpp</text>
</g>
<!-- Node0&#45;&gt;Node4 -->
<g id="edge4" class="edge"><title>Node0&#45;&gt;Node4</title>
<path fill="none" stroke="midnightblue" d="M321.867,-56.4435C344.779,-47.4776 380.975,-33.314 406.866,-23.1827"/>
<polygon fill="midnightblue" stroke="midnightblue" points="408.199,-26.4198 416.236,-19.5164 405.648,-19.9011 408.199,-26.4198"/>
</g>
<!-- Node5 -->
<g id="node6" class="node"><title>Node5</title>
<polygon fill="white" stroke="#bfbfbf" points="518,-0.5 518,-19.5 622,-19.5 622,-0.5 518,-0.5"/>
<text text-anchor="middle" x="570" y="-7.5" font-family="Helvetica,sans-Serif" font-size="10.00">util/easylogging++.h</text>
</g>
<!-- Node0&#45;&gt;Node5 -->
<g id="edge5" class="edge"><title>Node0&#45;&gt;Node5</title>
<path fill="none" stroke="midnightblue" d="M342.782,-56.4435C390.179,-46.9641 466.626,-31.6747 517.583,-21.4835"/>
<polygon fill="midnightblue" stroke="midnightblue" points="518.298,-24.9097 527.418,-19.5164 516.926,-18.0456 518.298,-24.9097"/>
</g>
</g>
</svg>
