<?xml version="1.0" encoding="UTF-8" standalone="no"?>
<!DOCTYPE svg PUBLIC "-//W3C//DTD SVG 1.1//EN"
 "http://www.w3.org/Graphics/SVG/1.1/DTD/svg11.dtd">
<!-- Generated by graphviz version 2.38.0 (20140413.2041)
 -->
<!-- Title: src/resource/Buffer.cpp Pages: 1 -->
<svg width="732pt" height="84pt"
 viewBox="0.00 0.00 731.50 84.00" xmlns="http://www.w3.org/2000/svg" xmlns:xlink="http://www.w3.org/1999/xlink">
<g id="graph0" class="graph" transform="scale(1 1) rotate(0) translate(4 80)">
<title>src/resource/Buffer.cpp</title>
<polygon fill="white" stroke="none" points="-4,4 -4,-80 727.5,-80 727.5,4 -4,4"/>
<!-- Node0 -->
<g id="node1" class="node"><title>Node0</title>
<polygon fill="#bfbfbf" stroke="black" points="279.5,-56.5 279.5,-75.5 396.5,-75.5 396.5,-56.5 279.5,-56.5"/>
<text text-anchor="middle" x="338" y="-63.5" font-family="Helvetica,sans-Serif" font-size="10.00">src/resource/Buffer.cpp</text>
</g>
<!-- Node1 -->
<g id="node2" class="node"><title>Node1</title>
<polygon fill="white" stroke="#bfbfbf" points="0,-0.5 0,-19.5 68,-19.5 68,-0.5 0,-0.5"/>
<text text-anchor="middle" x="34" y="-7.5" font-family="Helvetica,sans-Serif" font-size="10.00">vpr_stdafx.h</text>
</g>
<!-- Node0&#45;&gt;Node1 -->
<g id="edge1" class="edge"><title>Node0&#45;&gt;Node1</title>
<path fill="none" stroke="midnightblue" d="M285.41,-56.4972C234.793,-48.1863 155.845,-34.8913 78.1988,-20.1777"/>
<polygon fill="midnightblue" stroke="midnightblue" points="78.7238,-16.7148 68.2455,-18.2823 77.4142,-23.5913 78.7238,-16.7148"/>
</g>
<!-- Node2 -->
<g id="node3" class="node"><title>Node2</title>
<polygon fill="white" stroke="#bfbfbf" points="86.5,-0.5 86.5,-19.5 187.5,-19.5 187.5,-0.5 86.5,-0.5"/>
<text text-anchor="middle" x="137" y="-7.5" font-family="Helvetica,sans-Serif" font-size="10.00">resource/Buffer.hpp</text>
</g>
<!-- Node0&#45;&gt;Node2 -->
<g id="edge2" class="edge"><title>Node0&#45;&gt;Node2</title>
<path fill="none" stroke="midnightblue" d="M306.151,-56.4435C271.602,-47.1616 216.318,-32.3093 178.417,-22.127"/>
<polygon fill="midnightblue" stroke="midnightblue" points="179.266,-18.7309 168.7,-19.5164 177.449,-25.4912 179.266,-18.7309"/>
</g>
<!-- Node3 -->
<g id="node4" class="node"><title>Node3</title>
<polygon fill="white" stroke="#bfbfbf" points="206,-0.5 206,-19.5 322,-19.5 322,-0.5 206,-0.5"/>
<text text-anchor="middle" x="264" y="-7.5" font-family="Helvetica,sans-Serif" font-size="10.00">core/LogicalDevice.hpp</text>
</g>
<!-- Node0&#45;&gt;Node3 -->
<g id="edge3" class="edge"><title>Node0&#45;&gt;Node3</title>
<path fill="none" stroke="midnightblue" d="M326.111,-56.324C314.85,-48.1066 297.713,-35.6017 284.291,-25.8069"/>
<polygon fill="midnightblue" stroke="midnightblue" points="286.247,-22.9014 276.106,-19.8339 282.12,-28.5559 286.247,-22.9014"/>
</g>
<!-- Node4 -->
<g id="node5" class="node"><title>Node4</title>
<polygon fill="white" stroke="#bfbfbf" points="340.5,-0.5 340.5,-19.5 485.5,-19.5 485.5,-0.5 340.5,-0.5"/>
<text text-anchor="middle" x="413" y="-7.5" font-family="Helvetica,sans-Serif" font-size="10.00">command/CommandPool.hpp</text>
</g>
<!-- Node0&#45;&gt;Node4 -->
<g id="edge4" class="edge"><title>Node0&#45;&gt;Node4</title>
<path fill="none" stroke="midnightblue" d="M350.05,-56.324C361.463,-48.1066 378.831,-35.6017 392.435,-25.8069"/>
<polygon fill="midnightblue" stroke="midnightblue" points="394.66,-28.5174 400.731,-19.8339 390.57,-22.8366 394.66,-28.5174"/>
</g>
<!-- Node5 -->
<g id="node6" class="node"><title>Node5</title>
<polygon fill="white" stroke="#bfbfbf" points="504,-0.5 504,-19.5 608,-19.5 608,-0.5 504,-0.5"/>
<text text-anchor="middle" x="556" y="-7.5" font-family="Helvetica,sans-Serif" font-size="10.00">util/easylogging++.h</text>
</g>
<!-- Node0&#45;&gt;Node5 -->
<g id="edge5" class="edge"><title>Node0&#45;&gt;Node5</title>
<path fill="none" stroke="midnightblue" d="M372.543,-56.4435C410.253,-47.1024 470.74,-32.1194 511.865,-21.9326"/>
<polygon fill="midnightblue" stroke="midnightblue" points="512.754,-25.3182 521.619,-19.5164 511.071,-18.5236 512.754,-25.3182"/>
</g>
<!-- Node6 -->
<g id="node7" class="node"><title>Node6</title>
<polygon fill="white" stroke="#bfbfbf" points="626.5,-0.5 626.5,-19.5 723.5,-19.5 723.5,-0.5 626.5,-0.5"/>
<text text-anchor="middle" x="675" y="-7.5" font-family="Helvetica,sans-Serif" font-size="10.00">alloc/Allocator.hpp</text>
</g>
<!-- Node0&#45;&gt;Node6 -->
<g id="edge6" class="edge"><title>Node0&#45;&gt;Node6</title>
<path fill="none" stroke="midnightblue" d="M391.399,-56.4435C452.668,-46.6259 552.829,-30.5764 616.258,-20.4127"/>
<polygon fill="midnightblue" stroke="midnightblue" points="617.177,-23.8102 626.497,-18.772 616.069,-16.8984 617.177,-23.8102"/>
</g>
</g>
</svg>
