<?xml version="1.0" encoding="UTF-8" standalone="no"?>
<!DOCTYPE svg PUBLIC "-//W3C//DTD SVG 1.1//EN"
 "http://www.w3.org/Graphics/SVG/1.1/DTD/svg11.dtd">
<!-- Generated by graphviz version 2.38.0 (20140413.2041)
 -->
<!-- Title: include/alloc/AllocCommon.hpp Pages: 1 -->
<svg width="347pt" height="140pt"
 viewBox="0.00 0.00 347.00 140.00" xmlns="http://www.w3.org/2000/svg" xmlns:xlink="http://www.w3.org/1999/xlink">
<g id="graph0" class="graph" transform="scale(1 1) rotate(0) translate(4 136)">
<title>include/alloc/AllocCommon.hpp</title>
<polygon fill="white" stroke="none" points="-4,4 -4,-136 343,-136 343,4 -4,4"/>
<!-- Node3 -->
<g id="node1" class="node"><title>Node3</title>
<polygon fill="#bfbfbf" stroke="black" points="83,-112.5 83,-131.5 236,-131.5 236,-112.5 83,-112.5"/>
<text text-anchor="middle" x="159.5" y="-119.5" font-family="Helvetica,sans-Serif" font-size="10.00">include/alloc/AllocCommon.hpp</text>
</g>
<!-- Node4 -->
<g id="node2" class="node"><title>Node4</title>
<g id="a_node2"><a xlink:href="child_2include_2alloc_2_allocator_8hpp.html" target="_top" xlink:title="include/alloc/Allocator.hpp">
<polygon fill="white" stroke="black" points="0,-56.5 0,-75.5 131,-75.5 131,-56.5 0,-56.5"/>
<text text-anchor="middle" x="65.5" y="-63.5" font-family="Helvetica,sans-Serif" font-size="10.00">include/alloc/Allocator.hpp</text>
</a>
</g>
</g>
<!-- Node3&#45;&gt;Node4 -->
<g id="edge1" class="edge"><title>Node3&#45;&gt;Node4</title>
<path fill="none" stroke="midnightblue" d="M135.438,-107.177C118.141,-97.2407 95.3523,-84.1492 80.5652,-75.6545"/>
<polygon fill="midnightblue" stroke="midnightblue" points="133.983,-110.378 144.397,-112.324 137.47,-104.308 133.983,-110.378"/>
</g>
<!-- Node5 -->
<g id="node3" class="node"><title>Node5</title>
<g id="a_node3"><a xlink:href="child_2include_2alloc_2_memory_block_8hpp.html" target="_top" xlink:title="include/alloc/MemoryBlock.hpp">
<polygon fill="white" stroke="black" points="135.5,-0.5 135.5,-19.5 287.5,-19.5 287.5,-0.5 135.5,-0.5"/>
<text text-anchor="middle" x="211.5" y="-7.5" font-family="Helvetica,sans-Serif" font-size="10.00">include/alloc/MemoryBlock.hpp</text>
</a>
</g>
</g>
<!-- Node3&#45;&gt;Node5 -->
<g id="edge2" class="edge"><title>Node3&#45;&gt;Node5</title>
<path fill="none" stroke="midnightblue" d="M163.549,-102.366C166.844,-89.0349 172.154,-70.8898 179.5,-56 186.201,-42.4166 196.82,-28.4588 203.968,-19.7629"/>
<polygon fill="midnightblue" stroke="midnightblue" points="160.105,-101.722 161.255,-112.254 166.924,-103.304 160.105,-101.722"/>
</g>
<!-- Node6 -->
<g id="node4" class="node"><title>Node6</title>
<g id="a_node4"><a xlink:href="child_2include_2alloc_2_suballocation_8hpp.html" target="_top" xlink:title="include/alloc/Suballocation.hpp">
<polygon fill="white" stroke="black" points="188,-56.5 188,-75.5 339,-75.5 339,-56.5 188,-56.5"/>
<text text-anchor="middle" x="263.5" y="-63.5" font-family="Helvetica,sans-Serif" font-size="10.00">include/alloc/Suballocation.hpp</text>
</a>
</g>
</g>
<!-- Node3&#45;&gt;Node6 -->
<g id="edge3" class="edge"><title>Node3&#45;&gt;Node6</title>
<path fill="none" stroke="midnightblue" d="M185.328,-107.59C204.557,-97.6052 230.245,-84.2672 246.832,-75.6545"/>
<polygon fill="midnightblue" stroke="midnightblue" points="183.471,-104.61 176.209,-112.324 186.697,-110.822 183.471,-104.61"/>
</g>
<!-- Node6&#45;&gt;Node5 -->
<g id="edge4" class="edge"><title>Node6&#45;&gt;Node5</title>
<path fill="none" stroke="midnightblue" d="M247.821,-48.7175C238.655,-39.1997 227.447,-27.5608 219.927,-19.7511"/>
<polygon fill="midnightblue" stroke="midnightblue" points="245.456,-51.3075 254.913,-56.083 250.498,-46.452 245.456,-51.3075"/>
</g>
</g>
</svg>
