<?xml version="1.0" encoding="UTF-8" standalone="no"?>
<!DOCTYPE svg PUBLIC "-//W3C//DTD SVG 1.1//EN"
 "http://www.w3.org/Graphics/SVG/1.1/DTD/svg11.dtd">
<!-- Generated by graphviz version 2.38.0 (20140413.2041)
 -->
<!-- Title: src/resource/Image.cpp Pages: 1 -->
<svg width="609pt" height="84pt"
 viewBox="0.00 0.00 608.50 84.00" xmlns="http://www.w3.org/2000/svg" xmlns:xlink="http://www.w3.org/1999/xlink">
<g id="graph0" class="graph" transform="scale(1 1) rotate(0) translate(4 80)">
<title>src/resource/Image.cpp</title>
<polygon fill="white" stroke="none" points="-4,4 -4,-80 604.5,-80 604.5,4 -4,4"/>
<!-- Node0 -->
<g id="node1" class="node"><title>Node0</title>
<polygon fill="#bfbfbf" stroke="black" points="204.5,-56.5 204.5,-75.5 323.5,-75.5 323.5,-56.5 204.5,-56.5"/>
<text text-anchor="middle" x="264" y="-63.5" font-family="Helvetica,sans-Serif" font-size="10.00">src/resource/Image.cpp</text>
</g>
<!-- Node1 -->
<g id="node2" class="node"><title>Node1</title>
<polygon fill="white" stroke="#bfbfbf" points="0,-0.5 0,-19.5 68,-19.5 68,-0.5 0,-0.5"/>
<text text-anchor="middle" x="34" y="-7.5" font-family="Helvetica,sans-Serif" font-size="10.00">vpr_stdafx.h</text>
</g>
<!-- Node0&#45;&gt;Node1 -->
<g id="edge1" class="edge"><title>Node0&#45;&gt;Node1</title>
<path fill="none" stroke="midnightblue" d="M227.556,-56.4435C186.982,-46.9174 121.417,-31.5239 78.0119,-21.3332"/>
<polygon fill="midnightblue" stroke="midnightblue" points="78.5596,-17.8667 68.0243,-18.9883 76.9596,-24.6814 78.5596,-17.8667"/>
</g>
<!-- Node2 -->
<g id="node3" class="node"><title>Node2</title>
<polygon fill="white" stroke="#bfbfbf" points="86,-0.5 86,-19.5 188,-19.5 188,-0.5 86,-0.5"/>
<text text-anchor="middle" x="137" y="-7.5" font-family="Helvetica,sans-Serif" font-size="10.00">resource/Image.hpp</text>
</g>
<!-- Node0&#45;&gt;Node2 -->
<g id="edge2" class="edge"><title>Node0&#45;&gt;Node2</title>
<path fill="none" stroke="midnightblue" d="M243.876,-56.4435C222.976,-47.5566 190.065,-33.5632 166.284,-23.4514"/>
<polygon fill="midnightblue" stroke="midnightblue" points="167.602,-20.2085 157.029,-19.5164 164.862,-26.6504 167.602,-20.2085"/>
</g>
<!-- Node3 -->
<g id="node4" class="node"><title>Node3</title>
<polygon fill="white" stroke="#bfbfbf" points="206,-0.5 206,-19.5 322,-19.5 322,-0.5 206,-0.5"/>
<text text-anchor="middle" x="264" y="-7.5" font-family="Helvetica,sans-Serif" font-size="10.00">core/LogicalDevice.hpp</text>
</g>
<!-- Node0&#45;&gt;Node3 -->
<g id="edge3" class="edge"><title>Node0&#45;&gt;Node3</title>
<path fill="none" stroke="midnightblue" d="M264,-56.083C264,-49.0059 264,-38.8611 264,-29.9865"/>
<polygon fill="midnightblue" stroke="midnightblue" points="267.5,-29.751 264,-19.7511 260.5,-29.7511 267.5,-29.751"/>
</g>
<!-- Node4 -->
<g id="node5" class="node"><title>Node4</title>
<polygon fill="white" stroke="#bfbfbf" points="340.5,-0.5 340.5,-19.5 485.5,-19.5 485.5,-0.5 340.5,-0.5"/>
<text text-anchor="middle" x="413" y="-7.5" font-family="Helvetica,sans-Serif" font-size="10.00">command/CommandPool.hpp</text>
</g>
<!-- Node0&#45;&gt;Node4 -->
<g id="edge4" class="edge"><title>Node0&#45;&gt;Node4</title>
<path fill="none" stroke="midnightblue" d="M287.609,-56.4435C312.458,-47.4381 351.774,-33.1891 379.754,-23.049"/>
<polygon fill="midnightblue" stroke="midnightblue" points="381.292,-26.2144 389.501,-19.5164 378.907,-19.6332 381.292,-26.2144"/>
</g>
<!-- Node5 -->
<g id="node6" class="node"><title>Node5</title>
<polygon fill="white" stroke="#bfbfbf" points="503.5,-0.5 503.5,-19.5 600.5,-19.5 600.5,-0.5 503.5,-0.5"/>
<text text-anchor="middle" x="552" y="-7.5" font-family="Helvetica,sans-Serif" font-size="10.00">alloc/Allocator.hpp</text>
</g>
<!-- Node0&#45;&gt;Node5 -->
<g id="edge5" class="edge"><title>Node0&#45;&gt;Node5</title>
<path fill="none" stroke="midnightblue" d="M309.634,-56.4435C360.297,-46.9444 442.075,-31.611 496.428,-21.4198"/>
<polygon fill="midnightblue" stroke="midnightblue" points="497.395,-24.7994 506.579,-19.5164 496.105,-17.9193 497.395,-24.7994"/>
</g>
</g>
</svg>
