<?xml version="1.0" encoding="UTF-8" standalone="no"?>
<!DOCTYPE svg PUBLIC "-//W3C//DTD SVG 1.1//EN"
 "http://www.w3.org/Graphics/SVG/1.1/DTD/svg11.dtd">
<!-- Generated by graphviz version 2.38.0 (20140413.2041)
 -->
<!-- Title: src/resource/ShaderModule.cpp Pages: 1 -->
<svg width="488pt" height="84pt"
 viewBox="0.00 0.00 488.00 84.00" xmlns="http://www.w3.org/2000/svg" xmlns:xlink="http://www.w3.org/1999/xlink">
<g id="graph0" class="graph" transform="scale(1 1) rotate(0) translate(4 80)">
<title>src/resource/ShaderModule.cpp</title>
<polygon fill="white" stroke="none" points="-4,4 -4,-80 484,-80 484,4 -4,4"/>
<!-- Node0 -->
<g id="node1" class="node"><title>Node0</title>
<polygon fill="#bfbfbf" stroke="black" points="149.5,-56.5 149.5,-75.5 304.5,-75.5 304.5,-56.5 149.5,-56.5"/>
<text text-anchor="middle" x="227" y="-63.5" font-family="Helvetica,sans-Serif" font-size="10.00">src/resource/ShaderModule.cpp</text>
</g>
<!-- Node1 -->
<g id="node2" class="node"><title>Node1</title>
<polygon fill="white" stroke="#bfbfbf" points="0,-0.5 0,-19.5 68,-19.5 68,-0.5 0,-0.5"/>
<text text-anchor="middle" x="34" y="-7.5" font-family="Helvetica,sans-Serif" font-size="10.00">vpr_stdafx.h</text>
</g>
<!-- Node0&#45;&gt;Node1 -->
<g id="edge1" class="edge"><title>Node0&#45;&gt;Node1</title>
<path fill="none" stroke="midnightblue" d="M196.419,-56.4435C163.385,-47.2011 110.612,-32.4356 74.2341,-22.2572"/>
<polygon fill="midnightblue" stroke="midnightblue" points="75.0116,-18.8404 64.4383,-19.5164 73.1254,-25.5815 75.0116,-18.8404"/>
</g>
<!-- Node2 -->
<g id="node3" class="node"><title>Node2</title>
<polygon fill="white" stroke="#bfbfbf" points="86,-0.5 86,-19.5 224,-19.5 224,-0.5 86,-0.5"/>
<text text-anchor="middle" x="155" y="-7.5" font-family="Helvetica,sans-Serif" font-size="10.00">resource/ShaderModule.hpp</text>
</g>
<!-- Node0&#45;&gt;Node2 -->
<g id="edge2" class="edge"><title>Node0&#45;&gt;Node2</title>
<path fill="none" stroke="midnightblue" d="M215.432,-56.324C204.58,-48.1849 188.119,-35.8395 175.117,-26.0874"/>
<polygon fill="midnightblue" stroke="midnightblue" points="176.879,-23.0339 166.779,-19.8339 172.679,-28.6339 176.879,-23.0339"/>
</g>
<!-- Node3 -->
<g id="node4" class="node"><title>Node3</title>
<polygon fill="white" stroke="#bfbfbf" points="242,-0.5 242,-19.5 358,-19.5 358,-0.5 242,-0.5"/>
<text text-anchor="middle" x="300" y="-7.5" font-family="Helvetica,sans-Serif" font-size="10.00">core/LogicalDevice.hpp</text>
</g>
<!-- Node0&#45;&gt;Node3 -->
<g id="edge3" class="edge"><title>Node0&#45;&gt;Node3</title>
<path fill="none" stroke="midnightblue" d="M238.729,-56.324C249.837,-48.1066 266.742,-35.6017 279.983,-25.8069"/>
<polygon fill="midnightblue" stroke="midnightblue" points="282.1,-28.5948 288.058,-19.8339 277.937,-22.9671 282.1,-28.5948"/>
</g>
<!-- Node4 -->
<g id="node5" class="node"><title>Node4</title>
<polygon fill="white" stroke="#bfbfbf" points="376,-0.5 376,-19.5 480,-19.5 480,-0.5 376,-0.5"/>
<text text-anchor="middle" x="428" y="-7.5" font-family="Helvetica,sans-Serif" font-size="10.00">util/easylogging++.h</text>
</g>
<!-- Node0&#45;&gt;Node4 -->
<g id="edge4" class="edge"><title>Node0&#45;&gt;Node4</title>
<path fill="none" stroke="midnightblue" d="M258.849,-56.4435C293.398,-47.1616 348.682,-32.3093 386.583,-22.127"/>
<polygon fill="midnightblue" stroke="midnightblue" points="387.551,-25.4912 396.3,-19.5164 385.734,-18.7309 387.551,-25.4912"/>
</g>
</g>
</svg>
