<?xml version="1.0" encoding="UTF-8" standalone="no"?>
<!DOCTYPE svg PUBLIC "-//W3C//DTD SVG 1.1//EN"
 "http://www.w3.org/Graphics/SVG/1.1/DTD/svg11.dtd">
<!-- Generated by graphviz version 2.38.0 (20140413.2041)
 -->
<!-- Title: src/alloc/MemoryBlock.cpp Pages: 1 -->
<svg width="570pt" height="84pt"
 viewBox="0.00 0.00 570.00 84.00" xmlns="http://www.w3.org/2000/svg" xmlns:xlink="http://www.w3.org/1999/xlink">
<g id="graph0" class="graph" transform="scale(1 1) rotate(0) translate(4 80)">
<title>src/alloc/MemoryBlock.cpp</title>
<polygon fill="white" stroke="none" points="-4,4 -4,-80 566,-80 566,4 -4,4"/>
<!-- Node0 -->
<g id="node1" class="node"><title>Node0</title>
<polygon fill="#bfbfbf" stroke="black" points="206.5,-56.5 206.5,-75.5 341.5,-75.5 341.5,-56.5 206.5,-56.5"/>
<text text-anchor="middle" x="274" y="-63.5" font-family="Helvetica,sans-Serif" font-size="10.00">src/alloc/MemoryBlock.cpp</text>
</g>
<!-- Node1 -->
<g id="node2" class="node"><title>Node1</title>
<polygon fill="white" stroke="#bfbfbf" points="0,-0.5 0,-19.5 68,-19.5 68,-0.5 0,-0.5"/>
<text text-anchor="middle" x="34" y="-7.5" font-family="Helvetica,sans-Serif" font-size="10.00">vpr_stdafx.h</text>
</g>
<!-- Node0&#45;&gt;Node1 -->
<g id="edge1" class="edge"><title>Node0&#45;&gt;Node1</title>
<path fill="none" stroke="midnightblue" d="M235.971,-56.4435C193.086,-46.7943 123.444,-31.125 78.1807,-20.9407"/>
<polygon fill="midnightblue" stroke="midnightblue" points="78.8757,-17.5096 68.3513,-18.729 77.339,-24.3389 78.8757,-17.5096"/>
</g>
<!-- Node2 -->
<g id="node3" class="node"><title>Node2</title>
<polygon fill="white" stroke="#bfbfbf" points="86.5,-0.5 86.5,-19.5 205.5,-19.5 205.5,-0.5 86.5,-0.5"/>
<text text-anchor="middle" x="146" y="-7.5" font-family="Helvetica,sans-Serif" font-size="10.00">alloc/MemoryBlock.hpp</text>
</g>
<!-- Node0&#45;&gt;Node2 -->
<g id="edge2" class="edge"><title>Node0&#45;&gt;Node2</title>
<path fill="none" stroke="midnightblue" d="M253.718,-56.4435C232.653,-47.5566 199.483,-33.5632 175.514,-23.4514"/>
<polygon fill="midnightblue" stroke="midnightblue" points="176.761,-20.1787 166.187,-19.5164 174.04,-26.6283 176.761,-20.1787"/>
</g>
<!-- Node3 -->
<g id="node4" class="node"><title>Node3</title>
<polygon fill="white" stroke="#bfbfbf" points="223.5,-0.5 223.5,-19.5 324.5,-19.5 324.5,-0.5 223.5,-0.5"/>
<text text-anchor="middle" x="274" y="-7.5" font-family="Helvetica,sans-Serif" font-size="10.00">alloc/Allocation.hpp</text>
</g>
<!-- Node0&#45;&gt;Node3 -->
<g id="edge3" class="edge"><title>Node0&#45;&gt;Node3</title>
<path fill="none" stroke="midnightblue" d="M274,-56.083C274,-49.0059 274,-38.8611 274,-29.9865"/>
<polygon fill="midnightblue" stroke="midnightblue" points="277.5,-29.751 274,-19.7511 270.5,-29.7511 277.5,-29.751"/>
</g>
<!-- Node4 -->
<g id="node5" class="node"><title>Node4</title>
<polygon fill="white" stroke="#bfbfbf" points="342.5,-0.5 342.5,-19.5 439.5,-19.5 439.5,-0.5 342.5,-0.5"/>
<text text-anchor="middle" x="391" y="-7.5" font-family="Helvetica,sans-Serif" font-size="10.00">alloc/Allocator.hpp</text>
</g>
<!-- Node0&#45;&gt;Node4 -->
<g id="edge4" class="edge"><title>Node0&#45;&gt;Node4</title>
<path fill="none" stroke="midnightblue" d="M292.539,-56.4435C311.623,-47.6356 341.575,-33.8116 363.436,-23.722"/>
<polygon fill="midnightblue" stroke="midnightblue" points="364.935,-26.8849 372.548,-19.5164 362.001,-20.5292 364.935,-26.8849"/>
</g>
<!-- Node5 -->
<g id="node6" class="node"><title>Node5</title>
<polygon fill="white" stroke="#bfbfbf" points="458,-0.5 458,-19.5 562,-19.5 562,-0.5 458,-0.5"/>
<text text-anchor="middle" x="510" y="-7.5" font-family="Helvetica,sans-Serif" font-size="10.00">util/easylogging++.h</text>
</g>
<!-- Node0&#45;&gt;Node5 -->
<g id="edge5" class="edge"><title>Node0&#45;&gt;Node5</title>
<path fill="none" stroke="midnightblue" d="M311.395,-56.4435C352.392,-47.0629 418.254,-31.9926 462.784,-21.8036"/>
<polygon fill="midnightblue" stroke="midnightblue" points="463.813,-25.1588 472.78,-19.5164 462.251,-18.3352 463.813,-25.1588"/>
</g>
</g>
</svg>
