<?xml version="1.0" encoding="UTF-8" standalone="no"?>
<!DOCTYPE svg PUBLIC "-//W3C//DTD SVG 1.1//EN"
 "http://www.w3.org/Graphics/SVG/1.1/DTD/svg11.dtd">
<!-- Generated by graphviz version 2.38.0 (20140413.2041)
 -->
<!-- Title: include/command/TransferPool.hpp Pages: 1 -->
<svg width="255pt" height="151pt"
 viewBox="0.00 0.00 255.00 151.00" xmlns="http://www.w3.org/2000/svg" xmlns:xlink="http://www.w3.org/1999/xlink">
<g id="graph0" class="graph" transform="scale(1 1) rotate(0) translate(4 147)">
<title>include/command/TransferPool.hpp</title>
<polygon fill="white" stroke="none" points="-4,4 -4,-147 251,-147 251,4 -4,4"/>
<!-- Node0 -->
<g id="node1" class="node"><title>Node0</title>
<polygon fill="#bfbfbf" stroke="black" points="70.5,-112.5 70.5,-142.5 201.5,-142.5 201.5,-112.5 70.5,-112.5"/>
<text text-anchor="start" x="78.5" y="-130.5" font-family="Helvetica,sans-Serif" font-size="10.00">include/command/Transfer</text>
<text text-anchor="middle" x="136" y="-119.5" font-family="Helvetica,sans-Serif" font-size="10.00">Pool.hpp</text>
</g>
<!-- Node1 -->
<g id="node2" class="node"><title>Node1</title>
<polygon fill="white" stroke="#bfbfbf" points="0,-0.5 0,-19.5 68,-19.5 68,-0.5 0,-0.5"/>
<text text-anchor="middle" x="34" y="-7.5" font-family="Helvetica,sans-Serif" font-size="10.00">vpr_stdafx.h</text>
</g>
<!-- Node0&#45;&gt;Node1 -->
<g id="edge1" class="edge"><title>Node0&#45;&gt;Node1</title>
<path fill="none" stroke="midnightblue" d="M86.1685,-112.413C67.9726,-104.678 49.1406,-93.0704 38,-76 29.214,-62.5375 28.9539,-43.9778 30.4592,-30.136"/>
<polygon fill="midnightblue" stroke="midnightblue" points="33.9821,-30.2401 31.9904,-19.8342 27.0581,-29.2109 33.9821,-30.2401"/>
</g>
<!-- Node2 -->
<g id="node3" class="node"><title>Node2</title>
<polygon fill="white" stroke="#bfbfbf" points="115.5,-0.5 115.5,-19.5 204.5,-19.5 204.5,-0.5 115.5,-0.5"/>
<text text-anchor="middle" x="160" y="-7.5" font-family="Helvetica,sans-Serif" font-size="10.00">ForwardDecl.hpp</text>
</g>
<!-- Node0&#45;&gt;Node2 -->
<g id="edge2" class="edge"><title>Node0&#45;&gt;Node2</title>
<path fill="none" stroke="midnightblue" d="M142.604,-112.247C146.898,-102.309 152.2,-88.6201 155,-76 158.413,-60.6171 159.592,-42.7421 159.958,-29.6348"/>
<polygon fill="midnightblue" stroke="midnightblue" points="163.459,-29.5763 160.106,-19.5261 156.46,-29.4738 163.459,-29.5763"/>
</g>
<!-- Node3 -->
<g id="node4" class="node"><title>Node3</title>
<g id="a_node4"><a xlink:href="child_2include_2command_2_command_pool_8hpp.html" target="_top" xlink:title="CommandPool.hpp">
<polygon fill="white" stroke="black" points="47.5,-56.5 47.5,-75.5 146.5,-75.5 146.5,-56.5 47.5,-56.5"/>
<text text-anchor="middle" x="97" y="-63.5" font-family="Helvetica,sans-Serif" font-size="10.00">CommandPool.hpp</text>
</a>
</g>
</g>
<!-- Node0&#45;&gt;Node3 -->
<g id="edge3" class="edge"><title>Node0&#45;&gt;Node3</title>
<path fill="none" stroke="midnightblue" d="M126.758,-112.399C121.207,-103.932 114.107,-93.0991 108.234,-84.1393"/>
<polygon fill="midnightblue" stroke="midnightblue" points="111.084,-82.1026 102.675,-75.6578 105.23,-85.94 111.084,-82.1026"/>
</g>
<!-- Node4 -->
<g id="node5" class="node"><title>Node4</title>
<polygon fill="white" stroke="#bfbfbf" points="203,-56.5 203,-75.5 247,-75.5 247,-56.5 203,-56.5"/>
<text text-anchor="middle" x="225" y="-63.5" font-family="Helvetica,sans-Serif" font-size="10.00">mutex</text>
</g>
<!-- Node0&#45;&gt;Node4 -->
<g id="edge6" class="edge"><title>Node0&#45;&gt;Node4</title>
<path fill="none" stroke="midnightblue" d="M157.092,-112.399C171.091,-103.04 189.411,-90.7924 203.495,-81.3771"/>
<polygon fill="midnightblue" stroke="midnightblue" points="205.682,-84.1253 212.05,-75.6578 201.791,-78.3059 205.682,-84.1253"/>
</g>
<!-- Node3&#45;&gt;Node1 -->
<g id="edge4" class="edge"><title>Node3&#45;&gt;Node1</title>
<path fill="none" stroke="midnightblue" d="M86.878,-56.324C77.4736,-48.2631 63.2559,-36.0765 51.931,-26.3695"/>
<polygon fill="midnightblue" stroke="midnightblue" points="54.1766,-23.6844 44.3062,-19.8339 49.621,-28.9993 54.1766,-23.6844"/>
</g>
<!-- Node3&#45;&gt;Node2 -->
<g id="edge5" class="edge"><title>Node3&#45;&gt;Node2</title>
<path fill="none" stroke="midnightblue" d="M107.122,-56.324C116.526,-48.2631 130.744,-36.0765 142.069,-26.3695"/>
<polygon fill="midnightblue" stroke="midnightblue" points="144.379,-28.9993 149.694,-19.8339 139.823,-23.6844 144.379,-28.9993"/>
</g>
</g>
</svg>
