<?xml version="1.0" encoding="UTF-8" standalone="no"?>
<!DOCTYPE svg PUBLIC "-//W3C//DTD SVG 1.1//EN"
 "http://www.w3.org/Graphics/SVG/1.1/DTD/svg11.dtd">
<!-- Generated by graphviz version 2.38.0 (20140413.2041)
 -->
<!-- Title: src/render/SurfaceKHR.cpp Pages: 1 -->
<svg width="336pt" height="84pt"
 viewBox="0.00 0.00 335.50 84.00" xmlns="http://www.w3.org/2000/svg" xmlns:xlink="http://www.w3.org/1999/xlink">
<g id="graph0" class="graph" transform="scale(1 1) rotate(0) translate(4 80)">
<title>src/render/SurfaceKHR.cpp</title>
<polygon fill="white" stroke="none" points="-4,4 -4,-80 331.5,-80 331.5,4 -4,4"/>
<!-- Node0 -->
<g id="node1" class="node"><title>Node0</title>
<polygon fill="#bfbfbf" stroke="black" points="117,-56.5 117,-75.5 252,-75.5 252,-56.5 117,-56.5"/>
<text text-anchor="middle" x="184.5" y="-63.5" font-family="Helvetica,sans-Serif" font-size="10.00">src/render/SurfaceKHR.cpp</text>
</g>
<!-- Node1 -->
<g id="node2" class="node"><title>Node1</title>
<polygon fill="white" stroke="#bfbfbf" points="0,-0.5 0,-19.5 119,-19.5 119,-0.5 0,-0.5"/>
<text text-anchor="middle" x="59.5" y="-7.5" font-family="Helvetica,sans-Serif" font-size="10.00">render/SurfaceKHR.hpp</text>
</g>
<!-- Node0&#45;&gt;Node1 -->
<g id="edge1" class="edge"><title>Node0&#45;&gt;Node1</title>
<path fill="none" stroke="midnightblue" d="M164.693,-56.4435C144.213,-47.5961 112.017,-33.6875 88.6353,-23.5865"/>
<polygon fill="midnightblue" stroke="midnightblue" points="89.782,-20.2692 79.214,-19.5164 87.0059,-26.6953 89.782,-20.2692"/>
</g>
<!-- Node2 -->
<g id="node3" class="node"><title>Node2</title>
<polygon fill="white" stroke="#bfbfbf" points="137.5,-0.5 137.5,-19.5 231.5,-19.5 231.5,-0.5 137.5,-0.5"/>
<text text-anchor="middle" x="184.5" y="-7.5" font-family="Helvetica,sans-Serif" font-size="10.00">core/Instance.hpp</text>
</g>
<!-- Node0&#45;&gt;Node2 -->
<g id="edge2" class="edge"><title>Node0&#45;&gt;Node2</title>
<path fill="none" stroke="midnightblue" d="M184.5,-56.083C184.5,-49.0059 184.5,-38.8611 184.5,-29.9865"/>
<polygon fill="midnightblue" stroke="midnightblue" points="188,-29.751 184.5,-19.7511 181,-29.7511 188,-29.751"/>
</g>
<!-- Node3 -->
<g id="node4" class="node"><title>Node3</title>
<polygon fill="white" stroke="#bfbfbf" points="249.5,-0.5 249.5,-19.5 327.5,-19.5 327.5,-0.5 249.5,-0.5"/>
<text text-anchor="middle" x="288.5" y="-7.5" font-family="Helvetica,sans-Serif" font-size="10.00">GLFW/glfw3.h</text>
</g>
<!-- Node0&#45;&gt;Node3 -->
<g id="edge3" class="edge"><title>Node0&#45;&gt;Node3</title>
<path fill="none" stroke="midnightblue" d="M201.209,-56.324C217.812,-47.7034 243.502,-34.3643 262.72,-24.3855"/>
<polygon fill="midnightblue" stroke="midnightblue" points="264.57,-27.3689 271.832,-19.6545 261.344,-21.1565 264.57,-27.3689"/>
</g>
</g>
</svg>
