<?xml version="1.0" encoding="UTF-8" standalone="no"?>
<!DOCTYPE svg PUBLIC "-//W3C//DTD SVG 1.1//EN"
 "http://www.w3.org/Graphics/SVG/1.1/DTD/svg11.dtd">
<!-- Generated by graphviz version 2.38.0 (20140413.2041)
 -->
<!-- Title: el::Configurations::unsafeSetIfNotExist Pages: 1 -->
<svg width="605pt" height="242pt"
 viewBox="0.00 0.00 605.00 241.50" xmlns="http://www.w3.org/2000/svg" xmlns:xlink="http://www.w3.org/1999/xlink">
<g id="graph0" class="graph" transform="scale(1 1) rotate(0) translate(4 237.5)">
<title>el::Configurations::unsafeSetIfNotExist</title>
<polygon fill="white" stroke="none" points="-4,4 -4,-237.5 601,-237.5 601,4 -4,4"/>
<!-- Node198 -->
<g id="node1" class="node"><title>Node198</title>
<polygon fill="#bfbfbf" stroke="black" points="0,-133.5 0,-163.5 108,-163.5 108,-133.5 0,-133.5"/>
<text text-anchor="start" x="8" y="-151.5" font-family="Helvetica,sans-Serif" font-size="10.00">el::Configurations</text>
<text text-anchor="middle" x="54" y="-140.5" font-family="Helvetica,sans-Serif" font-size="10.00">::unsafeSetIfNotExist</text>
</g>
<!-- Node199 -->
<g id="node2" class="node"><title>Node199</title>
<g id="a_node2"><a xlink:href="classel_1_1base_1_1utils_1_1_registry_with_pred.html#a811d9cc011d945bc7237e6ae1cf2f096" target="_top" xlink:title="Gets pointer from repository with speicifed arguments. ">
<polygon fill="white" stroke="black" points="272,-192 272,-233 424,-233 424,-192 272,-192"/>
<text text-anchor="start" x="280" y="-221" font-family="Helvetica,sans-Serif" font-size="10.00">el::base::utils::Registry</text>
<text text-anchor="start" x="280" y="-210" font-family="Helvetica,sans-Serif" font-size="10.00">WithPred&lt; Configuration,</text>
<text text-anchor="middle" x="348" y="-199" font-family="Helvetica,sans-Serif" font-size="10.00"> Configuration::Predicate &gt;::get</text>
</a>
</g>
</g>
<!-- Node198&#45;&gt;Node199 -->
<g id="edge1" class="edge"><title>Node198&#45;&gt;Node199</title>
<path fill="none" stroke="midnightblue" d="M108.218,-160.164C151.167,-169.578 212.407,-183 262.115,-193.895"/>
<polygon fill="midnightblue" stroke="midnightblue" points="261.376,-197.316 271.894,-196.038 262.875,-190.478 261.376,-197.316"/>
</g>
<!-- Node200 -->
<g id="node3" class="node"><title>Node200</title>
<g id="a_node3"><a xlink:href="classel_1_1_configurations.html#a05c373510ca513e4f61999c84d512831" target="_top" xlink:title="Thread unsafe set. ">
<polygon fill="white" stroke="black" points="144,-91.5 144,-121.5 236,-121.5 236,-91.5 144,-91.5"/>
<text text-anchor="start" x="152" y="-109.5" font-family="Helvetica,sans-Serif" font-size="10.00">el::Configurations</text>
<text text-anchor="middle" x="190" y="-98.5" font-family="Helvetica,sans-Serif" font-size="10.00">::unsafeSet</text>
</a>
</g>
</g>
<!-- Node198&#45;&gt;Node200 -->
<g id="edge2" class="edge"><title>Node198&#45;&gt;Node200</title>
<path fill="none" stroke="midnightblue" d="M102.999,-133.456C113.015,-130.316 123.648,-126.983 133.898,-123.771"/>
<polygon fill="midnightblue" stroke="midnightblue" points="135.08,-127.068 143.575,-120.738 132.986,-120.389 135.08,-127.068"/>
</g>
<!-- Node200&#45;&gt;Node199 -->
<g id="edge3" class="edge"><title>Node200&#45;&gt;Node199</title>
<path fill="none" stroke="midnightblue" d="M203.983,-121.7C218.957,-138.455 244.999,-165.306 272,-182.5 274.578,-184.142 277.261,-185.722 280.013,-187.238"/>
<polygon fill="midnightblue" stroke="midnightblue" points="278.494,-190.393 288.986,-191.863 281.701,-184.171 278.494,-190.393"/>
</g>
<!-- Node201 -->
<g id="node4" class="node"><title>Node201</title>
<g id="a_node4"><a xlink:href="classel_1_1base_1_1utils_1_1_registry_with_pred.html#a561a5d418106a16473ff94d43a4b6b04" target="_top" xlink:title="el::base::utils::Registry\lWithPred\&lt; Configuration,\l Configuration::Predicate\l \&gt;::registerNew">
<polygon fill="white" stroke="black" points="285.5,-120.5 285.5,-172.5 410.5,-172.5 410.5,-120.5 285.5,-120.5"/>
<text text-anchor="start" x="293.5" y="-160.5" font-family="Helvetica,sans-Serif" font-size="10.00">el::base::utils::Registry</text>
<text text-anchor="start" x="293.5" y="-149.5" font-family="Helvetica,sans-Serif" font-size="10.00">WithPred&lt; Configuration,</text>
<text text-anchor="start" x="293.5" y="-138.5" font-family="Helvetica,sans-Serif" font-size="10.00"> Configuration::Predicate</text>
<text text-anchor="middle" x="348" y="-127.5" font-family="Helvetica,sans-Serif" font-size="10.00"> &gt;::registerNew</text>
</a>
</g>
</g>
<!-- Node200&#45;&gt;Node201 -->
<g id="edge4" class="edge"><title>Node200&#45;&gt;Node201</title>
<path fill="none" stroke="midnightblue" d="M236.122,-118.07C248.504,-121.245 262.239,-124.766 275.706,-128.219"/>
<polygon fill="midnightblue" stroke="midnightblue" points="274.885,-131.622 285.441,-130.716 276.624,-124.841 274.885,-131.622"/>
</g>
<!-- Node202 -->
<g id="node5" class="node"><title>Node202</title>
<g id="a_node5"><a xlink:href="classel_1_1_configuration.html#a04755de11422d7570869433ea157b705" target="_top" xlink:title="Set string based configuration value. ">
<polygon fill="white" stroke="black" points="302,-71.5 302,-101.5 394,-101.5 394,-71.5 302,-71.5"/>
<text text-anchor="start" x="310" y="-89.5" font-family="Helvetica,sans-Serif" font-size="10.00">el::Configuration::</text>
<text text-anchor="middle" x="348" y="-78.5" font-family="Helvetica,sans-Serif" font-size="10.00">setValue</text>
</a>
</g>
</g>
<!-- Node200&#45;&gt;Node202 -->
<g id="edge5" class="edge"><title>Node200&#45;&gt;Node202</title>
<path fill="none" stroke="midnightblue" d="M236.122,-100.715C253.585,-98.4763 273.739,-95.8925 292.035,-93.5468"/>
<polygon fill="midnightblue" stroke="midnightblue" points="292.506,-97.0151 301.98,-92.2718 291.616,-90.072 292.506,-97.0151"/>
</g>
<!-- Node203 -->
<g id="node6" class="node"><title>Node203</title>
<g id="a_node6"><a xlink:href="classel_1_1_configurations.html#a800efb58724eb771027135b282eae512" target="_top" xlink:title="Sets configurations (Unsafely) for all levels including Level::Global if includeGlobalLevel is true...">
<polygon fill="white" stroke="black" points="297.5,-22.5 297.5,-52.5 398.5,-52.5 398.5,-22.5 297.5,-22.5"/>
<text text-anchor="start" x="305.5" y="-40.5" font-family="Helvetica,sans-Serif" font-size="10.00">el::Configurations</text>
<text text-anchor="middle" x="348" y="-29.5" font-family="Helvetica,sans-Serif" font-size="10.00">::unsafeSetGlobally</text>
</a>
</g>
</g>
<!-- Node200&#45;&gt;Node203 -->
<g id="edge6" class="edge"><title>Node200&#45;&gt;Node203</title>
<path fill="none" stroke="midnightblue" d="M204.96,-91.3864C220.809,-79.4409 247.633,-64.0815 272,-53.5 277.036,-51.3132 282.329,-49.1994 287.676,-47.2236"/>
<polygon fill="midnightblue" stroke="midnightblue" points="289.045,-50.4523 297.315,-43.83 286.72,-43.8495 289.045,-50.4523"/>
</g>
<!-- Node203&#45;&gt;Node200 -->
<g id="edge9" class="edge"><title>Node203&#45;&gt;Node200</title>
<path fill="none" stroke="midnightblue" d="M321.586,-52.6267C306.864,-58.2523 288.114,-64.5023 272,-71.5 261.441,-76.0851 250.422,-81.5673 240.033,-86.8808"/>
<polygon fill="midnightblue" stroke="midnightblue" points="238.385,-83.7927 231.094,-91.48 241.587,-90.0172 238.385,-83.7927"/>
</g>
<!-- Node204 -->
<g id="node7" class="node"><title>Node204</title>
<g id="a_node7"><a xlink:href="classel_1_1_level_helper.html#a1279f27df29a003df5ecc3d0bf4dacbb" target="_top" xlink:title="Casts int(ushort) to level, useful for iterating through enum. ">
<polygon fill="white" stroke="black" points="460,-50 460,-69 597,-69 597,-50 460,-50"/>
<text text-anchor="middle" x="528.5" y="-57" font-family="Helvetica,sans-Serif" font-size="10.00">el::LevelHelper::castFromInt</text>
</a>
</g>
</g>
<!-- Node203&#45;&gt;Node204 -->
<g id="edge7" class="edge"><title>Node203&#45;&gt;Node204</title>
<path fill="none" stroke="midnightblue" d="M398.722,-43.6282C414.503,-45.5732 432.35,-47.7728 449.619,-49.9013"/>
<polygon fill="midnightblue" stroke="midnightblue" points="449.348,-53.3942 459.701,-51.1438 450.204,-46.4467 449.348,-53.3942"/>
</g>
<!-- Node205 -->
<g id="node8" class="node"><title>Node205</title>
<g id="a_node8"><a xlink:href="classel_1_1_level_helper.html#a7f0dbfceb2354a72c2802d02c300430d" target="_top" xlink:title="Applies specified function to each level starting from startIndex. ">
<polygon fill="white" stroke="black" points="469,-0.5 469,-30.5 588,-30.5 588,-0.5 469,-0.5"/>
<text text-anchor="start" x="477" y="-18.5" font-family="Helvetica,sans-Serif" font-size="10.00">el::LevelHelper::forEach</text>
<text text-anchor="middle" x="528.5" y="-7.5" font-family="Helvetica,sans-Serif" font-size="10.00">Level</text>
</a>
</g>
</g>
<!-- Node203&#45;&gt;Node205 -->
<g id="edge8" class="edge"><title>Node203&#45;&gt;Node205</title>
<path fill="none" stroke="midnightblue" d="M398.722,-31.3718C417.343,-29.0768 438.84,-26.4273 458.87,-23.9585"/>
<polygon fill="midnightblue" stroke="midnightblue" points="459.38,-27.4223 468.877,-22.7253 458.524,-20.4749 459.38,-27.4223"/>
</g>
</g>
</svg>
