<?xml version="1.0" encoding="UTF-8" standalone="no"?>
<!DOCTYPE svg PUBLIC "-//W3C//DTD SVG 1.1//EN"
 "http://www.w3.org/Graphics/SVG/1.1/DTD/svg11.dtd">
<!-- Generated by graphviz version 2.38.0 (20140413.2041)
 -->
<!-- Title: el::base::TypedConfigurations::unsafeValidateFileRolling Pages: 1 -->
<svg width="305pt" height="88pt"
 viewBox="0.00 0.00 305.00 88.00" xmlns="http://www.w3.org/2000/svg" xmlns:xlink="http://www.w3.org/1999/xlink">
<g id="graph0" class="graph" transform="scale(1 1) rotate(0) translate(4 84)">
<title>el::base::TypedConfigurations::unsafeValidateFileRolling</title>
<polygon fill="white" stroke="none" points="-4,4 -4,-84 301,-84 301,4 -4,4"/>
<!-- Node151 -->
<g id="node1" class="node"><title>Node151</title>
<polygon fill="#bfbfbf" stroke="black" points="0,-24.5 0,-54.5 145,-54.5 145,-24.5 0,-24.5"/>
<text text-anchor="start" x="8" y="-42.5" font-family="Helvetica,sans-Serif" font-size="10.00">el::base::TypedConfigurations</text>
<text text-anchor="middle" x="72.5" y="-31.5" font-family="Helvetica,sans-Serif" font-size="10.00">::unsafeValidateFileRolling</text>
</g>
<!-- Node152 -->
<g id="node2" class="node"><title>Node152</title>
<g id="a_node2"><a xlink:href="classel_1_1_level_helper.html#ad8a9958d58a2912ef58d00ab0ade7587" target="_top" xlink:title="Converts level to associated const char*. ">
<polygon fill="white" stroke="black" points="181,-49.5 181,-79.5 297,-79.5 297,-49.5 181,-49.5"/>
<text text-anchor="start" x="189" y="-67.5" font-family="Helvetica,sans-Serif" font-size="10.00">el::LevelHelper::convert</text>
<text text-anchor="middle" x="239" y="-56.5" font-family="Helvetica,sans-Serif" font-size="10.00">ToString</text>
</a>
</g>
</g>
<!-- Node151&#45;&gt;Node152 -->
<g id="edge1" class="edge"><title>Node151&#45;&gt;Node152</title>
<path fill="none" stroke="midnightblue" d="M145.174,-50.3926C153.668,-51.6836 162.315,-52.9978 170.745,-54.2789"/>
<polygon fill="midnightblue" stroke="midnightblue" points="170.483,-57.7791 180.895,-55.8214 171.535,-50.8586 170.483,-57.7791"/>
</g>
<!-- Node153 -->
<g id="node3" class="node"><title>Node153</title>
<g id="a_node3"><a xlink:href="classel_1_1base_1_1utils_1_1_file.html#a9d6a7a5203667fffcbba62fc9ddd40c4" target="_top" xlink:title="Gets size of file provided in stream. ">
<polygon fill="white" stroke="black" points="190.5,-0.5 190.5,-30.5 287.5,-30.5 287.5,-0.5 190.5,-0.5"/>
<text text-anchor="start" x="198.5" y="-18.5" font-family="Helvetica,sans-Serif" font-size="10.00">el::base::utils::File</text>
<text text-anchor="middle" x="239" y="-7.5" font-family="Helvetica,sans-Serif" font-size="10.00">::getSizeOfFile</text>
</a>
</g>
</g>
<!-- Node151&#45;&gt;Node153 -->
<g id="edge2" class="edge"><title>Node151&#45;&gt;Node153</title>
<path fill="none" stroke="midnightblue" d="M145.174,-29.0431C156.84,-27.3409 168.796,-25.5967 180.08,-23.9504"/>
<polygon fill="midnightblue" stroke="midnightblue" points="180.837,-27.3771 190.226,-22.47 179.826,-20.4504 180.837,-27.3771"/>
</g>
</g>
</svg>
