<?xml version="1.0" encoding="UTF-8" standalone="no"?>
<!DOCTYPE svg PUBLIC "-//W3C//DTD SVG 1.1//EN"
 "http://www.w3.org/Graphics/SVG/1.1/DTD/svg11.dtd">
<!-- Generated by graphviz version 2.38.0 (20140413.2041)
 -->
<!-- Title: vpr::Device::setupTransferQueues Pages: 1 -->
<svg width="479pt" height="100pt"
 viewBox="0.00 0.00 479.00 99.50" xmlns="http://www.w3.org/2000/svg" xmlns:xlink="http://www.w3.org/1999/xlink">
<g id="graph0" class="graph" transform="scale(1 1) rotate(0) translate(4 95.5)">
<title>vpr::Device::setupTransferQueues</title>
<polygon fill="white" stroke="none" points="-4,4 -4,-95.5 475,-95.5 475,4 -4,4"/>
<!-- Node205 -->
<g id="node1" class="node"><title>Node205</title>
<polygon fill="#bfbfbf" stroke="black" points="0,-39 0,-69 128,-69 128,-39 0,-39"/>
<text text-anchor="start" x="8" y="-57" font-family="Helvetica,sans-Serif" font-size="10.00">vpr::Device::setupTransfer</text>
<text text-anchor="middle" x="64" y="-46" font-family="Helvetica,sans-Serif" font-size="10.00">Queues</text>
</g>
<!-- Node206 -->
<g id="node2" class="node"><title>Node206</title>
<g id="a_node2"><a xlink:href="classvpr_1_1_physical_device.html#af443c2a585d182166c464f252782a57b" target="_top" xlink:title="! Attempts to find a Queue family that supports the full bitfield given: this can be multiple types...">
<polygon fill="white" stroke="black" points="352,-61 352,-91 471,-91 471,-61 352,-61"/>
<text text-anchor="start" x="360" y="-79" font-family="Helvetica,sans-Serif" font-size="10.00">vpr::PhysicalDevice</text>
<text text-anchor="middle" x="411.5" y="-68" font-family="Helvetica,sans-Serif" font-size="10.00">::GetQueueFamilyIndex</text>
</a>
</g>
</g>
<!-- Node205&#45;&gt;Node206 -->
<g id="edge1" class="edge"><title>Node205&#45;&gt;Node206</title>
<path fill="none" stroke="midnightblue" d="M114.399,-69.0256C130.101,-73.1108 147.64,-76.9662 164,-79 223.675,-86.4183 292.099,-84.7898 341.693,-81.8105"/>
<polygon fill="midnightblue" stroke="midnightblue" points="342.222,-85.2841 351.98,-81.157 341.778,-78.2981 342.222,-85.2841"/>
</g>
<!-- Node207 -->
<g id="node3" class="node"><title>Node207</title>
<g id="a_node3"><a xlink:href="classvpr_1_1_physical_device.html#a2ee4f96b16a9762953ecad3b658d84e6" target="_top" xlink:title="vpr::PhysicalDevice\l::GetQueueFamilyProperties">
<polygon fill="white" stroke="black" points="170,-39 170,-69 310,-69 310,-39 170,-39"/>
<text text-anchor="start" x="178" y="-57" font-family="Helvetica,sans-Serif" font-size="10.00">vpr::PhysicalDevice</text>
<text text-anchor="middle" x="240" y="-46" font-family="Helvetica,sans-Serif" font-size="10.00">::GetQueueFamilyProperties</text>
</a>
</g>
</g>
<!-- Node205&#45;&gt;Node207 -->
<g id="edge2" class="edge"><title>Node205&#45;&gt;Node207</title>
<path fill="none" stroke="midnightblue" d="M128.31,-54C138.546,-54 149.255,-54 159.809,-54"/>
<polygon fill="midnightblue" stroke="midnightblue" points="159.861,-57.5001 169.861,-54 159.861,-50.5001 159.861,-57.5001"/>
</g>
<!-- Node208 -->
<g id="node4" class="node"><title>Node208</title>
<g id="a_node4"><a xlink:href="classvpr_1_1_device.html#af043c9b7994791cc4ae4b8a76a8d8918" target="_top" xlink:title="vpr::Device::SetupQueueFamily">
<polygon fill="white" stroke="black" points="164,-0.5 164,-19.5 316,-19.5 316,-0.5 164,-0.5"/>
<text text-anchor="middle" x="240" y="-7.5" font-family="Helvetica,sans-Serif" font-size="10.00">vpr::Device::SetupQueueFamily</text>
</a>
</g>
</g>
<!-- Node205&#45;&gt;Node208 -->
<g id="edge4" class="edge"><title>Node205&#45;&gt;Node208</title>
<path fill="none" stroke="midnightblue" d="M124.394,-38.9808C146.307,-33.4396 170.827,-27.2393 191.545,-22.0001"/>
<polygon fill="midnightblue" stroke="midnightblue" points="192.546,-25.3573 201.383,-19.5124 190.83,-18.5709 192.546,-25.3573"/>
</g>
<!-- Node207&#45;&gt;Node206 -->
<g id="edge3" class="edge"><title>Node207&#45;&gt;Node206</title>
<path fill="none" stroke="midnightblue" d="M310.431,-63.0117C320.785,-64.3556 331.455,-65.7404 341.793,-67.0823"/>
<polygon fill="midnightblue" stroke="midnightblue" points="341.631,-70.5905 351.998,-68.4068 342.532,-63.6487 341.631,-70.5905"/>
</g>
</g>
</svg>
