<?xml version="1.0" encoding="UTF-8" standalone="no"?>
<!DOCTYPE svg PUBLIC "-//W3C//DTD SVG 1.1//EN"
 "http://www.w3.org/Graphics/SVG/1.1/DTD/svg11.dtd">
<!-- Generated by graphviz version 2.38.0 (20140413.2041)
 -->
<!-- Title: vpr::DescriptorSet::allocate Pages: 1 -->
<svg width="232pt" height="88pt"
 viewBox="0.00 0.00 232.00 88.00" xmlns="http://www.w3.org/2000/svg" xmlns:xlink="http://www.w3.org/1999/xlink">
<g id="graph0" class="graph" transform="scale(1 1) rotate(0) translate(4 84)">
<title>vpr::DescriptorSet::allocate</title>
<polygon fill="white" stroke="none" points="-4,4 -4,-84 228,-84 228,4 -4,4"/>
<!-- Node15 -->
<g id="node1" class="node"><title>Node15</title>
<polygon fill="#bfbfbf" stroke="black" points="0,-24.5 0,-54.5 94,-54.5 94,-24.5 0,-24.5"/>
<text text-anchor="start" x="8" y="-42.5" font-family="Helvetica,sans-Serif" font-size="10.00">vpr::DescriptorSet</text>
<text text-anchor="middle" x="47" y="-31.5" font-family="Helvetica,sans-Serif" font-size="10.00">::allocate</text>
</g>
<!-- Node16 -->
<g id="node2" class="node"><title>Node16</title>
<g id="a_node2"><a xlink:href="classvpr_1_1_descriptor_set.html#a8d58aaafd1c068f4921ccdbf1ad692d8" target="_top" xlink:title="Call after all descriptor bindings and infos required have been added, and make sure you have enough ...">
<polygon fill="white" stroke="black" points="130,-49.5 130,-79.5 224,-79.5 224,-49.5 130,-49.5"/>
<text text-anchor="start" x="138" y="-67.5" font-family="Helvetica,sans-Serif" font-size="10.00">vpr::DescriptorSet</text>
<text text-anchor="middle" x="177" y="-56.5" font-family="Helvetica,sans-Serif" font-size="10.00">::Init</text>
</a>
</g>
</g>
<!-- Node15&#45;&gt;Node16 -->
<g id="edge1" class="edge"><title>Node15&#45;&gt;Node16</title>
<path fill="none" stroke="midnightblue" d="M104.162,-50.4692C112.746,-52.1458 121.521,-53.8596 129.857,-55.4877"/>
<polygon fill="midnightblue" stroke="midnightblue" points="104.696,-47.0075 94.2109,-48.5256 103.355,-53.8777 104.696,-47.0075"/>
</g>
<!-- Node17 -->
<g id="node3" class="node"><title>Node17</title>
<g id="a_node3"><a xlink:href="classvpr_1_1_descriptor_set.html#a10bd2e1ea290ca2a02a8b878d92d47dd" target="_top" xlink:title="vpr::DescriptorSet\l::vkHandle">
<polygon fill="white" stroke="black" points="130,-0.5 130,-30.5 224,-30.5 224,-0.5 130,-0.5"/>
<text text-anchor="start" x="138" y="-18.5" font-family="Helvetica,sans-Serif" font-size="10.00">vpr::DescriptorSet</text>
<text text-anchor="middle" x="177" y="-7.5" font-family="Helvetica,sans-Serif" font-size="10.00">::vkHandle</text>
</a>
</g>
</g>
<!-- Node15&#45;&gt;Node17 -->
<g id="edge2" class="edge"><title>Node15&#45;&gt;Node17</title>
<path fill="none" stroke="midnightblue" d="M104.162,-28.9696C112.746,-27.3601 121.521,-25.7148 129.857,-24.1518"/>
<polygon fill="midnightblue" stroke="midnightblue" points="103.395,-25.5524 94.2109,-30.8354 104.685,-32.4325 103.395,-25.5524"/>
</g>
</g>
</svg>
