<?xml version="1.0" encoding="UTF-8" standalone="no"?>
<!DOCTYPE svg PUBLIC "-//W3C//DTD SVG 1.1//EN"
 "http://www.w3.org/Graphics/SVG/1.1/DTD/svg11.dtd">
<!-- Generated by graphviz version 2.38.0 (20140413.2041)
 -->
<!-- Title: vpr::Device::Device Pages: 1 -->
<!--zoomable 470 -->
<svg id="main" version="1.1" xmlns="http://www.w3.org/2000/svg" xmlns:xlink="http://www.w3.org/1999/xlink" xml:space="preserve" onload="init(evt)">
<style type="text/css"><![CDATA[
.edge:hover path { stroke: red; }
.edge:hover polygon { stroke: red; fill: red; }
]]></style>
<script type="text/javascript"><![CDATA[
var edges = document.getElementsByTagName('g');
if (edges && edges.length) {
  for (var i=0;i<edges.length;i++) {
    if (edges[i].id.substr(0,4)=='edge') {
      edges[i].setAttribute('class','edge');
    }
  }
}
]]></script>
        <defs>
                <circle id="rim" cx="0" cy="0" r="7"/>
                <circle id="rim2" cx="0" cy="0" r="3.5"/>
                <g id="zoomPlus">
                        <use xlink:href="#rim" fill="#404040">
                                <set attributeName="fill" to="#808080" begin="zoomplus.mouseover" end="zoomplus.mouseout"/>
                        </use>
                        <path d="M-4,0h8M0,-4v8" fill="none" stroke="white" stroke-width="1.5" pointer-events="none"/>
                </g>
                <g id="zoomMin">
                        <use xlink:href="#rim" fill="#404040">
                                <set attributeName="fill" to="#808080" begin="zoomminus.mouseover" end="zoomminus.mouseout"/>
                        </use>
                        <path d="M-4,0h8" fill="none" stroke="white" stroke-width="1.5" pointer-events="none"/>
                </g>
                <g id="dirArrow">
                        <path fill="none" stroke="white" stroke-width="1.5" d="M0,-3.0v7 M-2.5,-0.5L0,-3.0L2.5,-0.5"/>
                </g>
               <g id="resetDef">
                       <use xlink:href="#rim2" fill="#404040">
                               <set attributeName="fill" to="#808080" begin="reset.mouseover" end="reset.mouseout"/>
                       </use>
               </g>
        </defs>

<script type="text/javascript">
var viewWidth = 961;
var viewHeight = 470;
var sectionId = 'dynsection-1';
</script>
<script xlink:href="svgpan.js"/>
<svg id="graph" class="graph">
<g id="viewport">
<title>vpr::Device::Device</title>
<polygon fill="white" stroke="none" points="-4,4 -4,-466 957,-466 957,4 -4,4"/>
<!-- Node4 -->
<g id="node1" class="node"><title>Node4</title>
<polygon fill="#bfbfbf" stroke="black" points="0,-214 0,-233 98,-233 98,-214 0,-214"/>
<text text-anchor="middle" x="49" y="-221" font-family="Helvetica,sans-Serif" font-size="10.00">vpr::Device::Device</text>
</g>
<!-- Node5 -->
<g id="node2" class="node"><title>Node5</title>
<g id="a_node2"><a xlink:href="classvpr_1_1_device.html#a3b0734cd598d9a64f3c459e9dc4e84ce" target="_top" xlink:title="vpr::Device::create">
<polygon fill="white" stroke="black" points="134,-214 134,-233 230,-233 230,-214 134,-214"/>
<text text-anchor="middle" x="182" y="-221" font-family="Helvetica,sans-Serif" font-size="10.00">vpr::Device::create</text>
</a>
</g>
</g>
<!-- Node4&#45;&gt;Node5 -->
<g id="edge1" class="edge"><title>Node4&#45;&gt;Node5</title>
<path fill="none" stroke="midnightblue" d="M98.0357,-223.5C106.342,-223.5 115.052,-223.5 123.578,-223.5"/>
<polygon fill="midnightblue" stroke="midnightblue" points="123.845,-227 133.845,-223.5 123.845,-220 123.845,-227"/>
</g>
<!-- Node6 -->
<g id="node3" class="node"><title>Node6</title>
<g id="a_node3"><a xlink:href="classvpr_1_1_device.html#ac71413f7f9988d9479e27f51fc6de197" target="_top" xlink:title="vpr::Device::verifyPresentation\lSupport">
<polygon fill="white" stroke="black" points="266,-414.5 266,-444.5 412,-444.5 412,-414.5 266,-414.5"/>
<text text-anchor="start" x="274" y="-432.5" font-family="Helvetica,sans-Serif" font-size="10.00">vpr::Device::verifyPresentation</text>
<text text-anchor="middle" x="339" y="-421.5" font-family="Helvetica,sans-Serif" font-size="10.00">Support</text>
</a>
</g>
</g>
<!-- Node5&#45;&gt;Node6 -->
<g id="edge2" class="edge"><title>Node5&#45;&gt;Node6</title>
<path fill="none" stroke="midnightblue" d="M186.029,-233.198C194.741,-259.857 222.092,-335.451 266,-383.5 275.08,-393.436 286.769,-402.108 298.077,-409.163"/>
<polygon fill="midnightblue" stroke="midnightblue" points="296.622,-412.37 307.007,-414.468 300.197,-406.352 296.622,-412.37"/>
</g>
<!-- Node7 -->
<g id="node4" class="node"><title>Node7</title>
<g id="a_node4"><a xlink:href="classvpr_1_1_physical_device.html#a00de7d3556d98b1cfda28d1f769f8fa8" target="_top" xlink:title="vpr::PhysicalDevice\l::vkHandle">
<polygon fill="white" stroke="black" points="479,-431.5 479,-461.5 580,-461.5 580,-431.5 479,-431.5"/>
<text text-anchor="start" x="487" y="-449.5" font-family="Helvetica,sans-Serif" font-size="10.00">vpr::PhysicalDevice</text>
<text text-anchor="middle" x="529.5" y="-438.5" font-family="Helvetica,sans-Serif" font-size="10.00">::vkHandle</text>
</a>
</g>
</g>
<!-- Node5&#45;&gt;Node7 -->
<g id="edge29" class="edge"><title>Node5&#45;&gt;Node7</title>
<path fill="none" stroke="midnightblue" d="M189.663,-233.064C202.726,-251.327 233.291,-291.727 266,-318.5 302.047,-348.005 405.176,-404.17 448,-422.5 454.729,-425.38 461.913,-428.053 469.116,-430.49"/>
<polygon fill="midnightblue" stroke="midnightblue" points="468.316,-433.91 478.908,-433.664 470.474,-427.251 468.316,-433.91"/>
</g>
<!-- Node8 -->
<g id="node5" class="node"><title>Node8</title>
<g id="a_node5"><a xlink:href="classvpr_1_1_device.html#af52c3b24f6bca1308a5170eb3acfeb11" target="_top" xlink:title="vpr::Device::setupQueues">
<polygon fill="white" stroke="black" points="275.5,-290 275.5,-309 402.5,-309 402.5,-290 275.5,-290"/>
<text text-anchor="middle" x="339" y="-297" font-family="Helvetica,sans-Serif" font-size="10.00">vpr::Device::setupQueues</text>
</a>
</g>
</g>
<!-- Node5&#45;&gt;Node8 -->
<g id="edge4" class="edge"><title>Node5&#45;&gt;Node8</title>
<path fill="none" stroke="midnightblue" d="M202.631,-233.125C229.651,-246.374 278.474,-270.313 309.511,-285.531"/>
<polygon fill="midnightblue" stroke="midnightblue" points="308.009,-288.693 318.529,-289.953 311.091,-282.408 308.009,-288.693"/>
</g>
<!-- Node16 -->
<g id="node13" class="node"><title>Node16</title>
<g id="a_node13"><a xlink:href="classvpr_1_1_device.html#a158d56e75fab365778e07a84d090b3f7" target="_top" xlink:title="vpr::Device::setupValidation">
<polygon fill="white" stroke="black" points="271,-214 271,-233 407,-233 407,-214 271,-214"/>
<text text-anchor="middle" x="339" y="-221" font-family="Helvetica,sans-Serif" font-size="10.00">vpr::Device::setupValidation</text>
</a>
</g>
</g>
<!-- Node5&#45;&gt;Node16 -->
<g id="edge22" class="edge"><title>Node5&#45;&gt;Node16</title>
<path fill="none" stroke="midnightblue" d="M230.347,-223.5C239.962,-223.5 250.311,-223.5 260.656,-223.5"/>
<polygon fill="midnightblue" stroke="midnightblue" points="260.973,-227 270.973,-223.5 260.973,-220 260.973,-227"/>
</g>
<!-- Node18 -->
<g id="node15" class="node"><title>Node18</title>
<g id="a_node15"><a xlink:href="classvpr_1_1_device.html#a165976c19ab59de329855485a9dab5aa" target="_top" xlink:title="vpr::Device::setupExtensions">
<polygon fill="white" stroke="black" points="268,-104 268,-123 410,-123 410,-104 268,-104"/>
<text text-anchor="middle" x="339" y="-111" font-family="Helvetica,sans-Serif" font-size="10.00">vpr::Device::setupExtensions</text>
</a>
</g>
</g>
<!-- Node5&#45;&gt;Node18 -->
<g id="edge24" class="edge"><title>Node5&#45;&gt;Node18</title>
<path fill="none" stroke="midnightblue" d="M193.27,-213.944C208.501,-200.013 238.269,-173.701 266,-154.5 280.029,-144.786 296.516,-135.271 310.172,-127.857"/>
<polygon fill="midnightblue" stroke="midnightblue" points="311.937,-130.882 319.108,-123.082 308.638,-124.708 311.937,-130.882"/>
</g>
<!-- Node22 -->
<g id="node19" class="node"><title>Node22</title>
<g id="a_node19"><a xlink:href="classvpr_1_1_physical_device.html#addc7471aceef1ca343cc1b6e5c242278" target="_top" xlink:title="vpr::PhysicalDevice\l::GetFeatures">
<polygon fill="white" stroke="black" points="288.5,-54.5 288.5,-84.5 389.5,-84.5 389.5,-54.5 288.5,-54.5"/>
<text text-anchor="start" x="296.5" y="-72.5" font-family="Helvetica,sans-Serif" font-size="10.00">vpr::PhysicalDevice</text>
<text text-anchor="middle" x="339" y="-61.5" font-family="Helvetica,sans-Serif" font-size="10.00">::GetFeatures</text>
</a>
</g>
</g>
<!-- Node5&#45;&gt;Node22 -->
<g id="edge28" class="edge"><title>Node5&#45;&gt;Node22</title>
<path fill="none" stroke="midnightblue" d="M186.598,-213.853C195.949,-190.063 223.304,-128.093 266,-94.5 270.056,-91.309 274.547,-88.5101 279.246,-86.0578"/>
<polygon fill="midnightblue" stroke="midnightblue" points="280.893,-89.1517 288.481,-81.7572 277.938,-82.806 280.893,-89.1517"/>
</g>
<!-- Node23 -->
<g id="node20" class="node"><title>Node23</title>
<g id="a_node20"><a xlink:href="classvpr_1_1_device.html#aca69dbf04470b2119a9960047035dc57" target="_top" xlink:title="vpr::Device::setupDebugUtils\lHandler">
<polygon fill="white" stroke="black" points="269,-164.5 269,-194.5 409,-194.5 409,-164.5 269,-164.5"/>
<text text-anchor="start" x="277" y="-182.5" font-family="Helvetica,sans-Serif" font-size="10.00">vpr::Device::setupDebugUtils</text>
<text text-anchor="middle" x="339" y="-171.5" font-family="Helvetica,sans-Serif" font-size="10.00">Handler</text>
</a>
</g>
</g>
<!-- Node5&#45;&gt;Node23 -->
<g id="edge30" class="edge"><title>Node5&#45;&gt;Node23</title>
<path fill="none" stroke="midnightblue" d="M216.633,-213.953C233.772,-209.087 255.18,-203.01 275.224,-197.32"/>
<polygon fill="midnightblue" stroke="midnightblue" points="276.265,-200.663 284.929,-194.565 274.353,-193.929 276.265,-200.663"/>
</g>
<!-- Node6&#45;&gt;Node7 -->
<g id="edge3" class="edge"><title>Node6&#45;&gt;Node7</title>
<path fill="none" stroke="midnightblue" d="M412.071,-436C430.838,-437.692 450.849,-439.497 468.892,-441.124"/>
<polygon fill="midnightblue" stroke="midnightblue" points="468.703,-444.621 478.977,-442.034 469.332,-437.65 468.703,-444.621"/>
</g>
<!-- Node9 -->
<g id="node6" class="node"><title>Node9</title>
<g id="a_node6"><a xlink:href="classvpr_1_1_device.html#adbe15d529a11af4d7034a2135255e773" target="_top" xlink:title="vpr::Device::setupGraphics\lQueues">
<polygon fill="white" stroke="black" points="463.5,-333.5 463.5,-363.5 595.5,-363.5 595.5,-333.5 463.5,-333.5"/>
<text text-anchor="start" x="471.5" y="-351.5" font-family="Helvetica,sans-Serif" font-size="10.00">vpr::Device::setupGraphics</text>
<text text-anchor="middle" x="529.5" y="-340.5" font-family="Helvetica,sans-Serif" font-size="10.00">Queues</text>
</a>
</g>
</g>
<!-- Node8&#45;&gt;Node9 -->
<g id="edge5" class="edge"><title>Node8&#45;&gt;Node9</title>
<path fill="none" stroke="midnightblue" d="M376.792,-309.064C400.657,-315.268 432.469,-323.537 460.798,-330.901"/>
<polygon fill="midnightblue" stroke="midnightblue" points="460.095,-334.335 470.654,-333.463 461.856,-327.56 460.095,-334.335"/>
</g>
<!-- Node13 -->
<g id="node10" class="node"><title>Node13</title>
<g id="a_node10"><a xlink:href="classvpr_1_1_device.html#abdb29331fbcc15a242b3f0e82b02beef" target="_top" xlink:title="vpr::Device::setupCompute\lQueues">
<polygon fill="white" stroke="black" points="463.5,-284.5 463.5,-314.5 595.5,-314.5 595.5,-284.5 463.5,-284.5"/>
<text text-anchor="start" x="471.5" y="-302.5" font-family="Helvetica,sans-Serif" font-size="10.00">vpr::Device::setupCompute</text>
<text text-anchor="middle" x="529.5" y="-291.5" font-family="Helvetica,sans-Serif" font-size="10.00">Queues</text>
</a>
</g>
</g>
<!-- Node8&#45;&gt;Node13 -->
<g id="edge10" class="edge"><title>Node8&#45;&gt;Node13</title>
<path fill="none" stroke="midnightblue" d="M402.506,-299.5C418.658,-299.5 436.219,-299.5 452.959,-299.5"/>
<polygon fill="midnightblue" stroke="midnightblue" points="453.257,-303 463.257,-299.5 453.257,-296 453.257,-303"/>
</g>
<!-- Node14 -->
<g id="node11" class="node"><title>Node14</title>
<g id="a_node11"><a xlink:href="classvpr_1_1_device.html#aa64b2412561fa0950722c2dc4997da9f" target="_top" xlink:title="vpr::Device::setupTransfer\lQueues">
<polygon fill="white" stroke="black" points="465.5,-235.5 465.5,-265.5 593.5,-265.5 593.5,-235.5 465.5,-235.5"/>
<text text-anchor="start" x="473.5" y="-253.5" font-family="Helvetica,sans-Serif" font-size="10.00">vpr::Device::setupTransfer</text>
<text text-anchor="middle" x="529.5" y="-242.5" font-family="Helvetica,sans-Serif" font-size="10.00">Queues</text>
</a>
</g>
</g>
<!-- Node8&#45;&gt;Node14 -->
<g id="edge14" class="edge"><title>Node8&#45;&gt;Node14</title>
<path fill="none" stroke="midnightblue" d="M376.792,-289.936C400.657,-283.732 432.469,-275.463 460.798,-268.099"/>
<polygon fill="midnightblue" stroke="midnightblue" points="461.856,-271.44 470.654,-265.537 460.095,-264.665 461.856,-271.44"/>
</g>
<!-- Node15 -->
<g id="node12" class="node"><title>Node15</title>
<g id="a_node12"><a xlink:href="classvpr_1_1_device.html#a22ee8e6517d4898282d9d6385545100a" target="_top" xlink:title="vpr::Device::setupSparse\lBindingQueues">
<polygon fill="white" stroke="black" points="467.5,-382.5 467.5,-412.5 591.5,-412.5 591.5,-382.5 467.5,-382.5"/>
<text text-anchor="start" x="475.5" y="-400.5" font-family="Helvetica,sans-Serif" font-size="10.00">vpr::Device::setupSparse</text>
<text text-anchor="middle" x="529.5" y="-389.5" font-family="Helvetica,sans-Serif" font-size="10.00">BindingQueues</text>
</a>
</g>
</g>
<!-- Node8&#45;&gt;Node15 -->
<g id="edge18" class="edge"><title>Node8&#45;&gt;Node15</title>
<path fill="none" stroke="midnightblue" d="M351.605,-309.048C370.664,-324.323 410.259,-354.374 448,-372.5 452.662,-374.739 457.572,-376.837 462.571,-378.789"/>
<polygon fill="midnightblue" stroke="midnightblue" points="461.661,-382.184 472.255,-382.363 464.085,-375.617 461.661,-382.184"/>
</g>
<!-- Node10 -->
<g id="node7" class="node"><title>Node10</title>
<g id="a_node7"><a xlink:href="classvpr_1_1_physical_device.html#af443c2a585d182166c464f252782a57b" target="_top" xlink:title="! Attempts to find a Queue family that supports the full bitfield given: this can be multiple types...">
<polygon fill="white" stroke="black" points="834,-287.5 834,-317.5 953,-317.5 953,-287.5 834,-287.5"/>
<text text-anchor="start" x="842" y="-305.5" font-family="Helvetica,sans-Serif" font-size="10.00">vpr::PhysicalDevice</text>
<text text-anchor="middle" x="893.5" y="-294.5" font-family="Helvetica,sans-Serif" font-size="10.00">::GetQueueFamilyIndex</text>
</a>
</g>
</g>
<!-- Node9&#45;&gt;Node10 -->
<g id="edge6" class="edge"><title>Node9&#45;&gt;Node10</title>
<path fill="none" stroke="midnightblue" d="M587.676,-363.546C642.767,-375.409 727.853,-386.739 798,-365.5 824.676,-357.423 850.704,-339.059 868.667,-324.23"/>
<polygon fill="midnightblue" stroke="midnightblue" points="870.976,-326.86 876.326,-317.715 866.441,-321.528 870.976,-326.86"/>
</g>
<!-- Node11 -->
<g id="node8" class="node"><title>Node11</title>
<g id="a_node8"><a xlink:href="classvpr_1_1_device.html#a4884447888b9c8aacc288591056db19d" target="_top" xlink:title="vpr::Device::setupQueueFamily">
<polygon fill="white" stroke="black" points="647,-337 647,-356 798,-356 798,-337 647,-337"/>
<text text-anchor="middle" x="722.5" y="-344" font-family="Helvetica,sans-Serif" font-size="10.00">vpr::Device::setupQueueFamily</text>
</a>
</g>
</g>
<!-- Node9&#45;&gt;Node11 -->
<g id="edge7" class="edge"><title>Node9&#45;&gt;Node11</title>
<path fill="none" stroke="midnightblue" d="M595.697,-347.817C608.787,-347.68 622.724,-347.534 636.375,-347.391"/>
<polygon fill="midnightblue" stroke="midnightblue" points="636.777,-350.887 646.74,-347.283 636.704,-343.888 636.777,-350.887"/>
</g>
<!-- Node12 -->
<g id="node9" class="node"><title>Node12</title>
<g id="a_node9"><a xlink:href="classvpr_1_1_physical_device.html#a2ee4f96b16a9762953ecad3b658d84e6" target="_top" xlink:title="vpr::PhysicalDevice\l::GetQueueFamilyProperties">
<polygon fill="white" stroke="black" points="652.5,-287.5 652.5,-317.5 792.5,-317.5 792.5,-287.5 652.5,-287.5"/>
<text text-anchor="start" x="660.5" y="-305.5" font-family="Helvetica,sans-Serif" font-size="10.00">vpr::PhysicalDevice</text>
<text text-anchor="middle" x="722.5" y="-294.5" font-family="Helvetica,sans-Serif" font-size="10.00">::GetQueueFamilyProperties</text>
</a>
</g>
</g>
<!-- Node9&#45;&gt;Node12 -->
<g id="edge8" class="edge"><title>Node9&#45;&gt;Node12</title>
<path fill="none" stroke="midnightblue" d="M593.041,-333.438C611.024,-329.107 630.784,-324.348 649.3,-319.888"/>
<polygon fill="midnightblue" stroke="midnightblue" points="650.243,-323.262 659.145,-317.517 648.604,-316.456 650.243,-323.262"/>
</g>
<!-- Node12&#45;&gt;Node10 -->
<g id="edge9" class="edge"><title>Node12&#45;&gt;Node10</title>
<path fill="none" stroke="midnightblue" d="M792.726,-302.5C802.981,-302.5 813.547,-302.5 823.791,-302.5"/>
<polygon fill="midnightblue" stroke="midnightblue" points="823.905,-306 833.905,-302.5 823.905,-299 823.905,-306"/>
</g>
<!-- Node13&#45;&gt;Node10 -->
<g id="edge11" class="edge"><title>Node13&#45;&gt;Node10</title>
<path fill="none" stroke="midnightblue" d="M595.508,-285.005C612.203,-281.895 630.195,-279.073 647,-277.5 713.819,-271.246 731.449,-268.846 798,-277.5 810.35,-279.106 823.384,-281.845 835.696,-284.937"/>
<polygon fill="midnightblue" stroke="midnightblue" points="834.828,-288.327 845.388,-287.476 836.602,-281.556 834.828,-288.327"/>
</g>
<!-- Node13&#45;&gt;Node11 -->
<g id="edge12" class="edge"><title>Node13&#45;&gt;Node11</title>
<path fill="none" stroke="midnightblue" d="M591.459,-314.5C617.75,-320.97 648.078,-328.433 672.829,-334.523"/>
<polygon fill="midnightblue" stroke="midnightblue" points="672.17,-337.966 682.717,-336.957 673.843,-331.168 672.17,-337.966"/>
</g>
<!-- Node13&#45;&gt;Node12 -->
<g id="edge13" class="edge"><title>Node13&#45;&gt;Node12</title>
<path fill="none" stroke="midnightblue" d="M595.697,-300.524C610.679,-300.759 626.771,-301.012 642.273,-301.256"/>
<polygon fill="midnightblue" stroke="midnightblue" points="642.304,-304.756 652.358,-301.414 642.414,-297.757 642.304,-304.756"/>
</g>
<!-- Node14&#45;&gt;Node10 -->
<g id="edge15" class="edge"><title>Node14&#45;&gt;Node10</title>
<path fill="none" stroke="midnightblue" d="M593.598,-249.832C648.232,-250.417 729.092,-254.081 798,-268.5 814.818,-272.019 832.692,-277.867 848.316,-283.73"/>
<polygon fill="midnightblue" stroke="midnightblue" points="847.134,-287.025 857.724,-287.361 849.655,-280.495 847.134,-287.025"/>
</g>
<!-- Node14&#45;&gt;Node11 -->
<g id="edge16" class="edge"><title>Node14&#45;&gt;Node11</title>
<path fill="none" stroke="midnightblue" d="M593.586,-264.683C599.755,-267.407 605.688,-270.647 611,-274.5 633.754,-291.003 624.021,-310.311 647,-326.5 650.449,-328.93 654.176,-331.064 658.063,-332.939"/>
<polygon fill="midnightblue" stroke="midnightblue" points="656.787,-336.2 667.361,-336.861 659.507,-329.75 656.787,-336.2"/>
</g>
<!-- Node14&#45;&gt;Node12 -->
<g id="edge17" class="edge"><title>Node14&#45;&gt;Node12</title>
<path fill="none" stroke="midnightblue" d="M585.745,-265.541C607.918,-271.577 633.634,-278.578 656.683,-284.853"/>
<polygon fill="midnightblue" stroke="midnightblue" points="655.811,-288.243 666.379,-287.493 657.65,-281.489 655.811,-288.243"/>
</g>
<!-- Node15&#45;&gt;Node10 -->
<g id="edge19" class="edge"><title>Node15&#45;&gt;Node10</title>
<path fill="none" stroke="midnightblue" d="M591.616,-405.962C647.465,-411.138 731.266,-412.369 798,-385.5 829.333,-372.885 857.304,-345.21 874.535,-325.282"/>
<polygon fill="midnightblue" stroke="midnightblue" points="877.28,-327.456 881.027,-317.545 871.918,-322.956 877.28,-327.456"/>
</g>
<!-- Node15&#45;&gt;Node11 -->
<g id="edge20" class="edge"><title>Node15&#45;&gt;Node11</title>
<path fill="none" stroke="midnightblue" d="M586.773,-382.474C615.167,-374.892 649.161,-365.816 675.898,-358.676"/>
<polygon fill="midnightblue" stroke="midnightblue" points="677.005,-362.004 685.763,-356.042 675.199,-355.241 677.005,-362.004"/>
</g>
<!-- Node15&#45;&gt;Node12 -->
<g id="edge21" class="edge"><title>Node15&#45;&gt;Node12</title>
<path fill="none" stroke="midnightblue" d="M591.662,-382.822C598.471,-379.95 605.076,-376.541 611,-372.5 632.159,-358.068 626.005,-342.171 647,-327.5 649.74,-325.585 652.638,-323.808 655.638,-322.16"/>
<polygon fill="midnightblue" stroke="midnightblue" points="657.474,-325.157 664.892,-317.592 654.375,-318.88 657.474,-325.157"/>
</g>
<!-- Node17 -->
<g id="node14" class="node"><title>Node17</title>
<g id="a_node14"><a xlink:href="classvpr_1_1_instance.html#a34466d6fcc286ef1281b7bdb091ea754" target="_top" xlink:title="vpr::Instance::Validation\lEnabled">
<polygon fill="white" stroke="black" points="469.5,-186.5 469.5,-216.5 589.5,-216.5 589.5,-186.5 469.5,-186.5"/>
<text text-anchor="start" x="477.5" y="-204.5" font-family="Helvetica,sans-Serif" font-size="10.00">vpr::Instance::Validation</text>
<text text-anchor="middle" x="529.5" y="-193.5" font-family="Helvetica,sans-Serif" font-size="10.00">Enabled</text>
</a>
</g>
</g>
<!-- Node16&#45;&gt;Node17 -->
<g id="edge23" class="edge"><title>Node16&#45;&gt;Node17</title>
<path fill="none" stroke="midnightblue" d="M407.254,-215.651C424.066,-213.689 442.129,-211.58 459.044,-209.606"/>
<polygon fill="midnightblue" stroke="midnightblue" points="459.88,-213.033 469.407,-208.397 459.069,-206.08 459.88,-213.033"/>
</g>
<!-- Node19 -->
<g id="node16" class="node"><title>Node19</title>
<g id="a_node16"><a xlink:href="structvpr_1_1_device_data_members.html#a3d083fd1add161c9cc785e0a57aa6583" target="_top" xlink:title="vpr::DeviceDataMembers\l::prepareRequiredExtensions">
<polygon fill="white" stroke="black" points="458.5,-98.5 458.5,-128.5 600.5,-128.5 600.5,-98.5 458.5,-98.5"/>
<text text-anchor="start" x="466.5" y="-116.5" font-family="Helvetica,sans-Serif" font-size="10.00">vpr::DeviceDataMembers</text>
<text text-anchor="middle" x="529.5" y="-105.5" font-family="Helvetica,sans-Serif" font-size="10.00">::prepareRequiredExtensions</text>
</a>
</g>
</g>
<!-- Node18&#45;&gt;Node19 -->
<g id="edge25" class="edge"><title>Node18&#45;&gt;Node19</title>
<path fill="none" stroke="midnightblue" d="M410.19,-113.5C422.58,-113.5 435.563,-113.5 448.204,-113.5"/>
<polygon fill="midnightblue" stroke="midnightblue" points="448.251,-117 458.251,-113.5 448.251,-110 448.251,-117"/>
</g>
<!-- Node20 -->
<g id="node17" class="node"><title>Node20</title>
<g id="a_node17"><a xlink:href="structvpr_1_1_device_data_members.html#a9e4b2ed2f540350ec9642dbf2e24b1d4" target="_top" xlink:title="vpr::DeviceDataMembers\l::prepareOptionalExtensions">
<polygon fill="white" stroke="black" points="459.5,-49.5 459.5,-79.5 599.5,-79.5 599.5,-49.5 459.5,-49.5"/>
<text text-anchor="start" x="467.5" y="-67.5" font-family="Helvetica,sans-Serif" font-size="10.00">vpr::DeviceDataMembers</text>
<text text-anchor="middle" x="529.5" y="-56.5" font-family="Helvetica,sans-Serif" font-size="10.00">::prepareOptionalExtensions</text>
</a>
</g>
</g>
<!-- Node18&#45;&gt;Node20 -->
<g id="edge26" class="edge"><title>Node18&#45;&gt;Node20</title>
<path fill="none" stroke="midnightblue" d="M376.792,-103.936C400.657,-97.7324 432.469,-89.4629 460.798,-82.099"/>
<polygon fill="midnightblue" stroke="midnightblue" points="461.856,-85.4403 470.654,-79.537 460.095,-78.6655 461.856,-85.4403"/>
</g>
<!-- Node21 -->
<g id="node18" class="node"><title>Node21</title>
<g id="a_node18"><a xlink:href="structvpr_1_1_device_data_members.html#a74aa0fff140d4e0d31d913975a186f31" target="_top" xlink:title="vpr::DeviceDataMembers\l::checkDedicatedAllocExtensions">
<polygon fill="white" stroke="black" points="448,-0.5 448,-30.5 611,-30.5 611,-0.5 448,-0.5"/>
<text text-anchor="start" x="456" y="-18.5" font-family="Helvetica,sans-Serif" font-size="10.00">vpr::DeviceDataMembers</text>
<text text-anchor="middle" x="529.5" y="-7.5" font-family="Helvetica,sans-Serif" font-size="10.00">::checkDedicatedAllocExtensions</text>
</a>
</g>
</g>
<!-- Node18&#45;&gt;Node21 -->
<g id="edge27" class="edge"><title>Node18&#45;&gt;Node21</title>
<path fill="none" stroke="midnightblue" d="M392.025,-103.897C399.12,-101.236 406.011,-97.8379 412,-93.5 435.36,-76.5795 424.8,-56.6393 448,-39.5 450.053,-37.9835 452.201,-36.5622 454.422,-35.2302"/>
<polygon fill="midnightblue" stroke="midnightblue" points="456.107,-38.2986 463.303,-30.5223 452.828,-32.1139 456.107,-38.2986"/>
</g>
<!-- Node23&#45;&gt;Node17 -->
<g id="edge31" class="edge"><title>Node23&#45;&gt;Node17</title>
<path fill="none" stroke="midnightblue" d="M409.12,-187.567C425.479,-189.476 442.927,-191.513 459.29,-193.422"/>
<polygon fill="midnightblue" stroke="midnightblue" points="458.98,-196.91 469.318,-194.593 459.791,-189.957 458.98,-196.91"/>
</g>
<!-- Node24 -->
<g id="node21" class="node"><title>Node24</title>
<g id="a_node21"><a xlink:href="classvpr_1_1_instance.html#ab9f92d523b1cc59715c6d1b237be3cea" target="_top" xlink:title="vpr::Instance::HasExtension">
<polygon fill="white" stroke="black" points="460.5,-148 460.5,-167 598.5,-167 598.5,-148 460.5,-148"/>
<text text-anchor="middle" x="529.5" y="-155" font-family="Helvetica,sans-Serif" font-size="10.00">vpr::Instance::HasExtension</text>
</a>
</g>
</g>
<!-- Node23&#45;&gt;Node24 -->
<g id="edge32" class="edge"><title>Node23&#45;&gt;Node24</title>
<path fill="none" stroke="midnightblue" d="M409.12,-171.433C422.433,-169.879 436.468,-168.241 450.052,-166.656"/>
<polygon fill="midnightblue" stroke="midnightblue" points="450.806,-170.092 460.333,-165.456 449.994,-163.139 450.806,-170.092"/>
</g>
</g>
</svg>
        <g id="navigator" transform="translate(0 0)" fill="#404254">
                <rect fill="#f2f5e9" fill-opacity="0.5" stroke="#606060" stroke-width=".5" x="0" y="0" width="60" height="60"/>
                <use id="zoomplus" xlink:href="#zoomPlus" x="17" y="9" onmousedown="handleZoom(evt,'in')"/>
                <use id="zoomminus" xlink:href="#zoomMin" x="42" y="9" onmousedown="handleZoom(evt,'out')"/>
                <use id="reset" xlink:href="#resetDef" x="30" y="36" onmousedown="handleReset()"/>
                <g id="arrowUp" xlink:href="#dirArrow" transform="translate(30 24)" onmousedown="handlePan(0,-1)">
                  <use xlink:href="#rim" fill="#404040">
                        <set attributeName="fill" to="#808080" begin="arrowUp.mouseover" end="arrowUp.mouseout"/>
                  </use>
                  <path fill="none" stroke="white" stroke-width="1.5" d="M0,-3.0v7 M-2.5,-0.5L0,-3.0L2.5,-0.5"/>
                </g>
                <g id="arrowRight" xlink:href="#dirArrow" transform="rotate(90) translate(36 -43)" onmousedown="handlePan(1,0)">
                  <use xlink:href="#rim" fill="#404040">
                        <set attributeName="fill" to="#808080" begin="arrowRight.mouseover" end="arrowRight.mouseout"/>
                  </use>
                  <path fill="none" stroke="white" stroke-width="1.5" d="M0,-3.0v7 M-2.5,-0.5L0,-3.0L2.5,-0.5"/>
                </g>
                <g id="arrowDown" xlink:href="#dirArrow" transform="rotate(180) translate(-30 -48)" onmousedown="handlePan(0,1)">
                  <use xlink:href="#rim" fill="#404040">
                        <set attributeName="fill" to="#808080" begin="arrowDown.mouseover" end="arrowDown.mouseout"/>
                  </use>
                  <path fill="none" stroke="white" stroke-width="1.5" d="M0,-3.0v7 M-2.5,-0.5L0,-3.0L2.5,-0.5"/>
                </g>
                <g id="arrowLeft" xlink:href="#dirArrow" transform="rotate(270) translate(-36 17)" onmousedown="handlePan(-1,0)">
                  <use xlink:href="#rim" fill="#404040">
                        <set attributeName="fill" to="#808080" begin="arrowLeft.mouseover" end="arrowLeft.mouseout"/>
                  </use>
                  <path fill="none" stroke="white" stroke-width="1.5" d="M0,-3.0v7 M-2.5,-0.5L0,-3.0L2.5,-0.5"/>
                </g>
        </g>
        <svg viewBox="0 0 15 15" width="100%" height="30px" preserveAspectRatio="xMaxYMin meet">
         <g id="arrow_out" transform="scale(0.3 0.3)">
          <a xlink:href="classvpr_1_1_device_ad1a8ebd06d5d8b3de5ce0c8d1ce93277_cgraph_org.svg" target="_base">
           <rect id="button" ry="5" rx="5" y="6" x="6" height="38" width="38"
                fill="#f2f5e9" fill-opacity="0.5" stroke="#606060" stroke-width="1.0"/>
           <path id="arrow"
             d="M 11.500037,31.436501 C 11.940474,20.09759 22.043105,11.32322 32.158766,21.979434 L 37.068811,17.246167 C 37.068811,17.246167 37.088388,32 37.088388,32 L 22.160133,31.978069 C 22.160133,31.978069 26.997745,27.140456 26.997745,27.140456 C 18.528582,18.264221 13.291696,25.230495 11.500037,31.436501 z"
             style="fill:#404040;"/>
          </a>
         </g>
        </svg>
</svg>
