<?xml version="1.0" encoding="UTF-8" standalone="no"?>
<!DOCTYPE svg PUBLIC "-//W3C//DTD SVG 1.1//EN"
 "http://www.w3.org/Graphics/SVG/1.1/DTD/svg11.dtd">
<!-- Generated by graphviz version 2.38.0 (20140413.2041)
 -->
<!-- Title: el::base::LogFormat Pages: 1 -->
<svg width="196pt" height="207pt"
 viewBox="0.00 0.00 195.50 207.00" xmlns="http://www.w3.org/2000/svg" xmlns:xlink="http://www.w3.org/1999/xlink">
<g id="graph0" class="graph" transform="scale(1 1) rotate(0) translate(4 203)">
<title>el::base::LogFormat</title>
<polygon fill="white" stroke="none" points="-4,4 -4,-203 191.5,-203 191.5,4 -4,4"/>
<!-- Node2 -->
<g id="node1" class="node"><title>Node2</title>
<polygon fill="#bfbfbf" stroke="black" points="11.5,-0.5 11.5,-19.5 115.5,-19.5 115.5,-0.5 11.5,-0.5"/>
<text text-anchor="middle" x="63.5" y="-7.5" font-family="Helvetica,sans-Serif" font-size="10.00">el::base::LogFormat</text>
</g>
<!-- Node3 -->
<g id="node2" class="node"><title>Node3</title>
<g id="a_node2"><a xlink:href="classel_1_1_loggable.html" target="_top" xlink:title="Base of Easylogging++ friendly class. ">
<polygon fill="white" stroke="black" points="0,-111.5 0,-130.5 69,-130.5 69,-111.5 0,-111.5"/>
<text text-anchor="middle" x="34.5" y="-118.5" font-family="Helvetica,sans-Serif" font-size="10.00">el::Loggable</text>
</a>
</g>
</g>
<!-- Node3&#45;&gt;Node2 -->
<g id="edge1" class="edge"><title>Node3&#45;&gt;Node2</title>
<path fill="none" stroke="midnightblue" d="M39.4173,-101.518C45.7695,-77.6424 56.5643,-37.0688 61.235,-19.5133"/>
<polygon fill="midnightblue" stroke="midnightblue" points="35.9644,-100.883 36.7756,-111.447 42.7291,-102.683 35.9644,-100.883"/>
</g>
<!-- Node4 -->
<g id="node3" class="node"><title>Node4</title>
<g id="a_node3"><a xlink:title="STL class. ">
<polygon fill="white" stroke="#bfbfbf" points="87.5,-111.5 87.5,-130.5 147.5,-130.5 147.5,-111.5 87.5,-111.5"/>
<text text-anchor="middle" x="117.5" y="-118.5" font-family="Helvetica,sans-Serif" font-size="10.00">std::string</text>
</a>
</g>
</g>
<!-- Node4&#45;&gt;Node2 -->
<g id="edge2" class="edge"><title>Node4&#45;&gt;Node2</title>
<path fill="none" stroke="#9a32cd" stroke-dasharray="5,2" d="M108.821,-102.481C97.0633,-78.7481 76.5329,-37.3071 67.7176,-19.5133"/>
<polygon fill="#9a32cd" stroke="#9a32cd" points="105.687,-104.04 113.263,-111.447 111.96,-100.933 105.687,-104.04"/>
<text text-anchor="middle" x="145" y="-85" font-family="Helvetica,sans-Serif" font-size="10.00"> m_format</text>
<text text-anchor="middle" x="145" y="-74" font-family="Helvetica,sans-Serif" font-size="10.00">m_currentHost</text>
<text text-anchor="middle" x="145" y="-63" font-family="Helvetica,sans-Serif" font-size="10.00">m_userFormat</text>
<text text-anchor="middle" x="145" y="-52" font-family="Helvetica,sans-Serif" font-size="10.00">m_currentUser</text>
<text text-anchor="middle" x="145" y="-41" font-family="Helvetica,sans-Serif" font-size="10.00">m_dateTimeFormat</text>
</g>
<!-- Node5 -->
<g id="node4" class="node"><title>Node5</title>
<g id="a_node4"><a xlink:title="STL class. ">
<polygon fill="white" stroke="#bfbfbf" points="70,-168.5 70,-198.5 165,-198.5 165,-168.5 70,-168.5"/>
<text text-anchor="start" x="78" y="-186.5" font-family="Helvetica,sans-Serif" font-size="10.00">std::basic_string&lt;</text>
<text text-anchor="middle" x="117.5" y="-175.5" font-family="Helvetica,sans-Serif" font-size="10.00"> char &gt;</text>
</a>
</g>
</g>
<!-- Node5&#45;&gt;Node4 -->
<g id="edge3" class="edge"><title>Node5&#45;&gt;Node4</title>
<path fill="none" stroke="midnightblue" d="M117.5,-158.352C117.5,-148.513 117.5,-137.775 117.5,-130.54"/>
<polygon fill="midnightblue" stroke="midnightblue" points="114,-158.468 117.5,-168.468 121,-158.468 114,-158.468"/>
</g>
</g>
</svg>
