<?xml version="1.0" encoding="UTF-8" standalone="no"?>
<!DOCTYPE svg PUBLIC "-//W3C//DTD SVG 1.1//EN"
 "http://www.w3.org/Graphics/SVG/1.1/DTD/svg11.dtd">
<!-- Generated by graphviz version 2.38.0 (20140413.2041)
 -->
<!-- Title: vpr::CommandPool::AllocateCmdBuffers Pages: 1 -->
<svg width="279pt" height="39pt"
 viewBox="0.00 0.00 279.00 39.00" xmlns="http://www.w3.org/2000/svg" xmlns:xlink="http://www.w3.org/1999/xlink">
<g id="graph0" class="graph" transform="scale(1 1) rotate(0) translate(4 35)">
<title>vpr::CommandPool::AllocateCmdBuffers</title>
<polygon fill="white" stroke="none" points="-4,4 -4,-35 275,-35 275,4 -4,4"/>
<!-- Node19 -->
<g id="node1" class="node"><title>Node19</title>
<polygon fill="#bfbfbf" stroke="black" points="0,-0.5 0,-30.5 140,-30.5 140,-0.5 0,-0.5"/>
<text text-anchor="start" x="8" y="-18.5" font-family="Helvetica,sans-Serif" font-size="10.00">vpr::CommandPool::Allocate</text>
<text text-anchor="middle" x="70" y="-7.5" font-family="Helvetica,sans-Serif" font-size="10.00">CmdBuffers</text>
</g>
<!-- Node20 -->
<g id="node2" class="node"><title>Node20</title>
<g id="a_node2"><a xlink:href="classvpr_1_1_transfer_pool.html#a9aadc7aea8431163190c298754870f2e" target="_top" xlink:title="vpr::TransferPool::\lTransferPool">
<polygon fill="white" stroke="black" points="176,-0.5 176,-30.5 271,-30.5 271,-0.5 176,-0.5"/>
<text text-anchor="start" x="184" y="-18.5" font-family="Helvetica,sans-Serif" font-size="10.00">vpr::TransferPool::</text>
<text text-anchor="middle" x="223.5" y="-7.5" font-family="Helvetica,sans-Serif" font-size="10.00">TransferPool</text>
</a>
</g>
</g>
<!-- Node19&#45;&gt;Node20 -->
<g id="edge1" class="edge"><title>Node19&#45;&gt;Node20</title>
<path fill="none" stroke="midnightblue" d="M150.266,-15.5C158.926,-15.5 167.524,-15.5 175.607,-15.5"/>
<polygon fill="midnightblue" stroke="midnightblue" points="150.1,-12.0001 140.1,-15.5 150.1,-19.0001 150.1,-12.0001"/>
</g>
</g>
</svg>
