<?xml version="1.0" encoding="UTF-8" standalone="no"?>
<!DOCTYPE svg PUBLIC "-//W3C//DTD SVG 1.1//EN"
 "http://www.w3.org/Graphics/SVG/1.1/DTD/svg11.dtd">
<!-- Generated by graphviz version 2.38.0 (20140413.2041)
 -->
<!-- Title: vpr::Allocation::IsPrivateAllocation Pages: 1 -->
<svg width="298pt" height="116pt"
 viewBox="0.00 0.00 298.00 116.00" xmlns="http://www.w3.org/2000/svg" xmlns:xlink="http://www.w3.org/1999/xlink">
<g id="graph0" class="graph" transform="scale(1 1) rotate(0) translate(4 112)">
<title>vpr::Allocation::IsPrivateAllocation</title>
<polygon fill="white" stroke="none" points="-4,4 -4,-112 294,-112 294,4 -4,4"/>
<!-- Node18 -->
<g id="node1" class="node"><title>Node18</title>
<polygon fill="#bfbfbf" stroke="black" points="0,-39 0,-69 120,-69 120,-39 0,-39"/>
<text text-anchor="start" x="8" y="-57" font-family="Helvetica,sans-Serif" font-size="10.00">vpr::Allocation::IsPrivate</text>
<text text-anchor="middle" x="60" y="-46" font-family="Helvetica,sans-Serif" font-size="10.00">Allocation</text>
</g>
<!-- Node19 -->
<g id="node2" class="node"><title>Node19</title>
<g id="a_node2"><a xlink:href="classvpr_1_1_allocator.html#a438bbd88a3f18c741f7de90f528300b1" target="_top" xlink:title="vpr::Allocator::FreeMemory">
<polygon fill="white" stroke="black" points="156,-88.5 156,-107.5 290,-107.5 290,-88.5 156,-88.5"/>
<text text-anchor="middle" x="223" y="-95.5" font-family="Helvetica,sans-Serif" font-size="10.00">vpr::Allocator::FreeMemory</text>
</a>
</g>
</g>
<!-- Node18&#45;&gt;Node19 -->
<g id="edge1" class="edge"><title>Node18&#45;&gt;Node19</title>
<path fill="none" stroke="midnightblue" d="M125.755,-71.6969C146.66,-77.4101 169.039,-83.5262 186.952,-88.4217"/>
<polygon fill="midnightblue" stroke="midnightblue" points="126.526,-68.2794 115.957,-69.0192 124.68,-75.0317 126.526,-68.2794"/>
</g>
<!-- Node20 -->
<g id="node3" class="node"><title>Node20</title>
<g id="a_node3"><a xlink:href="structvpr_1_1_allocator_impl.html#a4d132f78ac784684f0384127ff5c8624" target="_top" xlink:title="vpr::AllocatorImpl\l::freePrivateMemory">
<polygon fill="white" stroke="black" points="171.5,-39 171.5,-69 274.5,-69 274.5,-39 171.5,-39"/>
<text text-anchor="start" x="179.5" y="-57" font-family="Helvetica,sans-Serif" font-size="10.00">vpr::AllocatorImpl</text>
<text text-anchor="middle" x="223" y="-46" font-family="Helvetica,sans-Serif" font-size="10.00">::freePrivateMemory</text>
</a>
</g>
</g>
<!-- Node18&#45;&gt;Node20 -->
<g id="edge2" class="edge"><title>Node18&#45;&gt;Node20</title>
<path fill="none" stroke="midnightblue" d="M130.053,-54C143.956,-54 158.324,-54 171.452,-54"/>
<polygon fill="midnightblue" stroke="midnightblue" points="130.036,-50.5001 120.036,-54 130.036,-57.5001 130.036,-50.5001"/>
</g>
<!-- Node21 -->
<g id="node4" class="node"><title>Node21</title>
<g id="a_node4"><a xlink:href="classvpr_1_1_allocation.html#add3be5fd7fee67744d380e74b0c5bfb3" target="_top" xlink:title="vpr::Allocation::operator==">
<polygon fill="white" stroke="black" points="157.5,-0.5 157.5,-19.5 288.5,-19.5 288.5,-0.5 157.5,-0.5"/>
<text text-anchor="middle" x="223" y="-7.5" font-family="Helvetica,sans-Serif" font-size="10.00">vpr::Allocation::operator==</text>
</a>
</g>
</g>
<!-- Node18&#45;&gt;Node21 -->
<g id="edge3" class="edge"><title>Node18&#45;&gt;Node21</title>
<path fill="none" stroke="midnightblue" d="M125.755,-36.3031C146.66,-30.5899 169.039,-24.4738 186.952,-19.5783"/>
<polygon fill="midnightblue" stroke="midnightblue" points="124.68,-32.9683 115.957,-38.9808 126.526,-39.7206 124.68,-32.9683"/>
</g>
</g>
</svg>
