<?xml version="1.0" encoding="UTF-8" standalone="no"?>
<!DOCTYPE svg PUBLIC "-//W3C//DTD SVG 1.1//EN"
 "http://www.w3.org/Graphics/SVG/1.1/DTD/svg11.dtd">
<!-- Generated by graphviz version 2.38.0 (20140413.2041)
 -->
<!-- Title: vpr::Allocator::clearAllocationMaps Pages: 1 -->
<svg width="502pt" height="79pt"
 viewBox="0.00 0.00 502.00 78.62" xmlns="http://www.w3.org/2000/svg" xmlns:xlink="http://www.w3.org/1999/xlink">
<g id="graph0" class="graph" transform="scale(1 1) rotate(0) translate(4 74.6228)">
<title>vpr::Allocator::clearAllocationMaps</title>
<polygon fill="white" stroke="none" points="-4,4 -4,-74.6228 498,-74.6228 498,4 -4,4"/>
<!-- Node116 -->
<g id="node1" class="node"><title>Node116</title>
<polygon fill="#bfbfbf" stroke="black" points="0,-38.5 0,-57.5 167,-57.5 167,-38.5 0,-38.5"/>
<text text-anchor="middle" x="83.5" y="-45.5" font-family="Helvetica,sans-Serif" font-size="10.00">vpr::Allocator::clearAllocationMaps</text>
</g>
<!-- Node117 -->
<g id="node2" class="node"><title>Node117</title>
<g id="a_node2"><a xlink:href="structvpr_1_1raw__equal__comparator.html#a987586395c413fe2f54c4f2ec4ec1925" target="_top" xlink:title="vpr::raw_equal_comparator\l::operator()">
<polygon fill="white" stroke="black" points="362,-33 362,-63 494,-63 494,-33 362,-33"/>
<text text-anchor="start" x="370" y="-51" font-family="Helvetica,sans-Serif" font-size="10.00">vpr::raw_equal_comparator</text>
<text text-anchor="middle" x="428" y="-40" font-family="Helvetica,sans-Serif" font-size="10.00">::operator()</text>
</a>
</g>
</g>
<!-- Node116&#45;&gt;Node117 -->
<g id="edge1" class="edge"><title>Node116&#45;&gt;Node117</title>
<path fill="none" stroke="midnightblue" d="M142.781,-59.2337C161.891,-62.4104 183.282,-65.4292 203,-67 257.494,-71.341 271.569,-72.0752 326,-67 337.636,-65.915 349.93,-64.1414 361.783,-62.1026"/>
<polygon fill="midnightblue" stroke="midnightblue" points="143.167,-55.7491 132.721,-57.513 141.987,-62.6489 143.167,-55.7491"/>
</g>
<!-- Node118 -->
<g id="node3" class="node"><title>Node118</title>
<g id="a_node3"><a xlink:href="classvpr_1_1_allocator.html#a4fb24600d3edbff034389a4ea111513f" target="_top" xlink:title="vpr::Allocator::Recreate">
<polygon fill="white" stroke="black" points="205.5,-38.5 205.5,-57.5 323.5,-57.5 323.5,-38.5 205.5,-38.5"/>
<text text-anchor="middle" x="264.5" y="-45.5" font-family="Helvetica,sans-Serif" font-size="10.00">vpr::Allocator::Recreate</text>
</a>
</g>
</g>
<!-- Node116&#45;&gt;Node118 -->
<g id="edge2" class="edge"><title>Node116&#45;&gt;Node118</title>
<path fill="none" stroke="midnightblue" d="M177.198,-48C186.803,-48 196.36,-48 205.423,-48"/>
<polygon fill="midnightblue" stroke="midnightblue" points="177.189,-44.5001 167.188,-48 177.188,-51.5001 177.189,-44.5001"/>
</g>
<!-- Node119 -->
<g id="node4" class="node"><title>Node119</title>
<g id="a_node4"><a xlink:href="classvpr_1_1_allocator.html#a9db2082e4275074f63a5e1257a89825f" target="_top" xlink:title="vpr::Allocator::~Allocator">
<polygon fill="white" stroke="black" points="203,-0.5 203,-19.5 326,-19.5 326,-0.5 203,-0.5"/>
<text text-anchor="middle" x="264.5" y="-7.5" font-family="Helvetica,sans-Serif" font-size="10.00">vpr::Allocator::~Allocator</text>
</a>
</g>
</g>
<!-- Node116&#45;&gt;Node119 -->
<g id="edge4" class="edge"><title>Node116&#45;&gt;Node119</title>
<path fill="none" stroke="midnightblue" d="M139.524,-36.319C164.908,-30.9301 194.661,-24.6139 218.656,-19.5201"/>
<polygon fill="midnightblue" stroke="midnightblue" points="138.724,-32.9106 129.669,-38.411 140.178,-39.758 138.724,-32.9106"/>
</g>
<!-- Node118&#45;&gt;Node117 -->
<g id="edge3" class="edge"><title>Node118&#45;&gt;Node117</title>
<path fill="none" stroke="midnightblue" d="M333.807,-48C343.128,-48 352.676,-48 361.937,-48"/>
<polygon fill="midnightblue" stroke="midnightblue" points="333.805,-44.5001 323.805,-48 333.805,-51.5001 333.805,-44.5001"/>
</g>
<!-- Node119&#45;&gt;Node117 -->
<g id="edge5" class="edge"><title>Node119&#45;&gt;Node117</title>
<path fill="none" stroke="midnightblue" d="M316.236,-21.9379C331.062,-25.4264 347.462,-29.2852 362.997,-32.9405"/>
<polygon fill="midnightblue" stroke="midnightblue" points="316.789,-18.4725 306.253,-19.589 315.186,-25.2864 316.789,-18.4725"/>
</g>
</g>
</svg>
