<?xml version="1.0" encoding="UTF-8" standalone="no"?>
<!DOCTYPE svg PUBLIC "-//W3C//DTD SVG 1.1//EN"
 "http://www.w3.org/Graphics/SVG/1.1/DTD/svg11.dtd">
<!-- Generated by graphviz version 2.38.0 (20140413.2041)
 -->
<!-- Title: vpr::Instance::GetGLFWwindow Pages: 1 -->
<svg width="845pt" height="72pt"
 viewBox="0.00 0.00 845.00 71.50" xmlns="http://www.w3.org/2000/svg" xmlns:xlink="http://www.w3.org/1999/xlink">
<g id="graph0" class="graph" transform="scale(1 1) rotate(0) translate(4 67.5)">
<title>vpr::Instance::GetGLFWwindow</title>
<polygon fill="white" stroke="none" points="-4,4 -4,-67.5 841,-67.5 841,4 -4,4"/>
<!-- Node64 -->
<g id="node1" class="node"><title>Node64</title>
<polygon fill="#bfbfbf" stroke="black" points="0,-25 0,-44 153,-44 153,-25 0,-25"/>
<text text-anchor="middle" x="76.5" y="-32" font-family="Helvetica,sans-Serif" font-size="10.00">vpr::Instance::GetGLFWwindow</text>
</g>
<!-- Node65 -->
<g id="node2" class="node"><title>Node65</title>
<g id="a_node2"><a xlink:href="classvpr_1_1_swapchain.html#a72f010b980cf7b7c49bfd63d1548114e" target="_top" xlink:title="vpr::Swapchain::setParameters">
<polygon fill="white" stroke="black" points="189,-25 189,-44 341,-44 341,-25 189,-25"/>
<text text-anchor="middle" x="265" y="-32" font-family="Helvetica,sans-Serif" font-size="10.00">vpr::Swapchain::setParameters</text>
</a>
</g>
</g>
<!-- Node64&#45;&gt;Node65 -->
<g id="edge1" class="edge"><title>Node64&#45;&gt;Node65</title>
<path fill="none" stroke="midnightblue" d="M163.131,-34.5C171.736,-34.5 180.427,-34.5 188.91,-34.5"/>
<polygon fill="midnightblue" stroke="midnightblue" points="163.088,-31.0001 153.088,-34.5 163.088,-38.0001 163.088,-31.0001"/>
</g>
<!-- Node66 -->
<g id="node3" class="node"><title>Node66</title>
<g id="a_node3"><a xlink:href="classvpr_1_1_swapchain.html#ad75f5394aaa57d86286a71e5d54ab3c6" target="_top" xlink:title="vpr::Swapchain::create">
<polygon fill="white" stroke="black" points="377,-25 377,-44 492,-44 492,-25 377,-25"/>
<text text-anchor="middle" x="434.5" y="-32" font-family="Helvetica,sans-Serif" font-size="10.00">vpr::Swapchain::create</text>
</a>
</g>
</g>
<!-- Node65&#45;&gt;Node66 -->
<g id="edge2" class="edge"><title>Node65&#45;&gt;Node66</title>
<path fill="none" stroke="midnightblue" d="M351.694,-34.5C360.125,-34.5 368.529,-34.5 376.566,-34.5"/>
<polygon fill="midnightblue" stroke="midnightblue" points="351.42,-31.0001 341.42,-34.5 351.42,-38.0001 351.42,-31.0001"/>
</g>
<!-- Node67 -->
<g id="node4" class="node"><title>Node67</title>
<g id="a_node4"><a xlink:href="classvpr_1_1_swapchain.html#a49bc91a7423fe49320b0375e78653439" target="_top" xlink:title="vpr::Swapchain::Swapchain">
<polygon fill="white" stroke="black" points="528,-44 528,-63 663,-63 663,-44 528,-44"/>
<text text-anchor="middle" x="595.5" y="-51" font-family="Helvetica,sans-Serif" font-size="10.00">vpr::Swapchain::Swapchain</text>
</a>
</g>
</g>
<!-- Node66&#45;&gt;Node67 -->
<g id="edge3" class="edge"><title>Node66&#45;&gt;Node67</title>
<path fill="none" stroke="midnightblue" d="M501.941,-42.4395C510.507,-43.4631 519.281,-44.5116 527.851,-45.5356"/>
<polygon fill="midnightblue" stroke="midnightblue" points="502.35,-38.9635 492.005,-41.2522 501.519,-45.9141 502.35,-38.9635"/>
</g>
<!-- Node68 -->
<g id="node5" class="node"><title>Node68</title>
<g id="a_node5"><a xlink:href="classvpr_1_1_swapchain.html#acf014a8530f47418adba1c9e62c0c78e" target="_top" xlink:title="vpr::Swapchain::Recreate">
<polygon fill="white" stroke="black" points="532,-6 532,-25 659,-25 659,-6 532,-6"/>
<text text-anchor="middle" x="595.5" y="-13" font-family="Helvetica,sans-Serif" font-size="10.00">vpr::Swapchain::Recreate</text>
</a>
</g>
</g>
<!-- Node66&#45;&gt;Node68 -->
<g id="edge4" class="edge"><title>Node66&#45;&gt;Node68</title>
<path fill="none" stroke="midnightblue" d="M502.167,-26.5336C512.037,-25.3541 522.178,-24.1422 531.96,-22.9733"/>
<polygon fill="midnightblue" stroke="midnightblue" points="501.519,-23.0859 492.005,-27.7478 502.35,-30.0365 501.519,-23.0859"/>
</g>
<!-- Node69 -->
<g id="node6" class="node"><title>Node69</title>
<g id="a_node6"><a xlink:href="namespacevpr.html#a94afd8081f855771118d14af569f9bba" target="_top" xlink:title="Pass a swapchain and instance pointer to this to have the swapchain and surface destroyed and recreat...">
<polygon fill="white" stroke="black" points="699,-0.5 699,-30.5 837,-30.5 837,-0.5 699,-0.5"/>
<text text-anchor="start" x="707" y="-18.5" font-family="Helvetica,sans-Serif" font-size="10.00">vpr::RecreateSwapchainAnd</text>
<text text-anchor="middle" x="768" y="-7.5" font-family="Helvetica,sans-Serif" font-size="10.00">Surface</text>
</a>
</g>
</g>
<!-- Node68&#45;&gt;Node69 -->
<g id="edge5" class="edge"><title>Node68&#45;&gt;Node69</title>
<path fill="none" stroke="midnightblue" d="M669.144,-15.5C678.961,-15.5 689.005,-15.5 698.741,-15.5"/>
<polygon fill="midnightblue" stroke="midnightblue" points="669.02,-12.0001 659.02,-15.5 669.02,-19.0001 669.02,-12.0001"/>
</g>
</g>
</svg>
