<?xml version="1.0" encoding="UTF-8" standalone="no"?>
<!DOCTYPE svg PUBLIC "-//W3C//DTD SVG 1.1//EN"
 "http://www.w3.org/Graphics/SVG/1.1/DTD/svg11.dtd">
<!-- Generated by graphviz version 2.38.0 (20140413.2041)
 -->
<!-- Title: vpr::Swapchain::~Swapchain Pages: 1 -->
<svg width="451pt" height="28pt"
 viewBox="0.00 0.00 451.00 28.00" xmlns="http://www.w3.org/2000/svg" xmlns:xlink="http://www.w3.org/1999/xlink">
<g id="graph0" class="graph" transform="scale(1 1) rotate(0) translate(4 24)">
<title>vpr::Swapchain::~Swapchain</title>
<polygon fill="white" stroke="none" points="-4,4 -4,-24 447,-24 447,4 -4,4"/>
<!-- Node15 -->
<g id="node1" class="node"><title>Node15</title>
<polygon fill="#bfbfbf" stroke="black" points="0,-0.5 0,-19.5 141,-19.5 141,-0.5 0,-0.5"/>
<text text-anchor="middle" x="70.5" y="-7.5" font-family="Helvetica,sans-Serif" font-size="10.00">vpr::Swapchain::~Swapchain</text>
</g>
<!-- Node16 -->
<g id="node2" class="node"><title>Node16</title>
<g id="a_node2"><a xlink:href="classvpr_1_1_swapchain.html#af29e2c4245bd5694afadc579783e5432" target="_top" xlink:title="vpr::Swapchain::Destroy">
<polygon fill="white" stroke="black" points="177,-0.5 177,-19.5 299,-19.5 299,-0.5 177,-0.5"/>
<text text-anchor="middle" x="238" y="-7.5" font-family="Helvetica,sans-Serif" font-size="10.00">vpr::Swapchain::Destroy</text>
</a>
</g>
</g>
<!-- Node15&#45;&gt;Node16 -->
<g id="edge1" class="edge"><title>Node15&#45;&gt;Node16</title>
<path fill="none" stroke="midnightblue" d="M141.207,-10C149.623,-10 158.223,-10 166.648,-10"/>
<polygon fill="midnightblue" stroke="midnightblue" points="166.814,-13.5001 176.814,-10 166.814,-6.5001 166.814,-13.5001"/>
</g>
<!-- Node17 -->
<g id="node3" class="node"><title>Node17</title>
<g id="a_node3"><a xlink:href="classvpr_1_1_device.html#a59882855173bef0b13a17b376ea01d45" target="_top" xlink:title="vpr::Device::vkHandle">
<polygon fill="white" stroke="black" points="335,-0.5 335,-19.5 443,-19.5 443,-0.5 335,-0.5"/>
<text text-anchor="middle" x="389" y="-7.5" font-family="Helvetica,sans-Serif" font-size="10.00">vpr::Device::vkHandle</text>
</a>
</g>
</g>
<!-- Node16&#45;&gt;Node17 -->
<g id="edge2" class="edge"><title>Node16&#45;&gt;Node17</title>
<path fill="none" stroke="midnightblue" d="M299.175,-10C307.558,-10 316.193,-10 324.633,-10"/>
<polygon fill="midnightblue" stroke="midnightblue" points="324.801,-13.5001 334.801,-10 324.801,-6.5001 324.801,-13.5001"/>
</g>
</g>
</svg>
