<?xml version="1.0" encoding="UTF-8" standalone="no"?>
<!DOCTYPE svg PUBLIC "-//W3C//DTD SVG 1.1//EN"
 "http://www.w3.org/Graphics/SVG/1.1/DTD/svg11.dtd">
<!-- Generated by graphviz version 2.38.0 (20140413.2041)
 -->
<!-- Title: vpr::SurfaceKHR::VerifyPresentationSupport Pages: 1 -->
<svg width="695pt" height="72pt"
 viewBox="0.00 0.00 695.00 71.50" xmlns="http://www.w3.org/2000/svg" xmlns:xlink="http://www.w3.org/1999/xlink">
<g id="graph0" class="graph" transform="scale(1 1) rotate(0) translate(4 67.5)">
<title>vpr::SurfaceKHR::VerifyPresentationSupport</title>
<polygon fill="white" stroke="none" points="-4,4 -4,-67.5 691,-67.5 691,4 -4,4"/>
<!-- Node38 -->
<g id="node1" class="node"><title>Node38</title>
<polygon fill="#bfbfbf" stroke="black" points="0,-14 0,-44 173,-44 173,-14 0,-14"/>
<text text-anchor="start" x="8" y="-32" font-family="Helvetica,sans-Serif" font-size="10.00">vpr::SurfaceKHR::VerifyPresentation</text>
<text text-anchor="middle" x="86.5" y="-21" font-family="Helvetica,sans-Serif" font-size="10.00">Support</text>
</g>
<!-- Node39 -->
<g id="node2" class="node"><title>Node39</title>
<g id="a_node2"><a xlink:href="classvpr_1_1_surface_k_h_r.html#a2c27a5198682d3069e0936dbeb0f24b4" target="_top" xlink:title="vpr::SurfaceKHR::create">
<polygon fill="white" stroke="black" points="209,-19.5 209,-38.5 330,-38.5 330,-19.5 209,-19.5"/>
<text text-anchor="middle" x="269.5" y="-26.5" font-family="Helvetica,sans-Serif" font-size="10.00">vpr::SurfaceKHR::create</text>
</a>
</g>
</g>
<!-- Node38&#45;&gt;Node39 -->
<g id="edge1" class="edge"><title>Node38&#45;&gt;Node39</title>
<path fill="none" stroke="midnightblue" d="M183.414,-29C192.08,-29 200.679,-29 208.893,-29"/>
<polygon fill="midnightblue" stroke="midnightblue" points="183.23,-25.5001 173.23,-29 183.229,-32.5001 183.23,-25.5001"/>
</g>
<!-- Node40 -->
<g id="node3" class="node"><title>Node40</title>
<g id="a_node3"><a xlink:href="classvpr_1_1_surface_k_h_r.html#a35b9db127a998f70bea3ebbdeef97f5d" target="_top" xlink:title="vpr::SurfaceKHR::Recreate">
<polygon fill="white" stroke="black" points="373,-38.5 373,-57.5 506,-57.5 506,-38.5 373,-38.5"/>
<text text-anchor="middle" x="439.5" y="-45.5" font-family="Helvetica,sans-Serif" font-size="10.00">vpr::SurfaceKHR::Recreate</text>
</a>
</g>
</g>
<!-- Node39&#45;&gt;Node40 -->
<g id="edge2" class="edge"><title>Node39&#45;&gt;Node40</title>
<path fill="none" stroke="midnightblue" d="M340.422,-36.9079C351.208,-38.1277 362.312,-39.3835 372.996,-40.5918"/>
<polygon fill="midnightblue" stroke="midnightblue" points="340.534,-33.3982 330.204,-35.7522 339.747,-40.3539 340.534,-33.3982"/>
</g>
<!-- Node42 -->
<g id="node5" class="node"><title>Node42</title>
<g id="a_node5"><a xlink:href="classvpr_1_1_surface_k_h_r.html#a8b7186af8af5eac045a42acb6e6302b6" target="_top" xlink:title="vpr::SurfaceKHR::SurfaceKHR">
<polygon fill="white" stroke="black" points="366,-0.5 366,-19.5 513,-19.5 513,-0.5 366,-0.5"/>
<text text-anchor="middle" x="439.5" y="-7.5" font-family="Helvetica,sans-Serif" font-size="10.00">vpr::SurfaceKHR::SurfaceKHR</text>
</a>
</g>
</g>
<!-- Node39&#45;&gt;Node42 -->
<g id="edge4" class="edge"><title>Node39&#45;&gt;Node42</title>
<path fill="none" stroke="midnightblue" d="M340.325,-21.1031C348.721,-20.1536 357.311,-19.182 365.748,-18.2279"/>
<polygon fill="midnightblue" stroke="midnightblue" points="339.747,-17.6461 330.204,-22.2478 340.534,-24.6018 339.747,-17.6461"/>
</g>
<!-- Node41 -->
<g id="node4" class="node"><title>Node41</title>
<g id="a_node4"><a xlink:href="namespacevpr.html#a812ad3570ad63ddcbc18e03988bd60bd" target="_top" xlink:title="Pass a swapchain and surface pointer to this to have the swapchain and surface destroyed and recreate...">
<polygon fill="white" stroke="black" points="549,-33 549,-63 687,-63 687,-33 549,-33"/>
<text text-anchor="start" x="557" y="-51" font-family="Helvetica,sans-Serif" font-size="10.00">vpr::RecreateSwapchainAnd</text>
<text text-anchor="middle" x="618" y="-40" font-family="Helvetica,sans-Serif" font-size="10.00">Surface</text>
</a>
</g>
</g>
<!-- Node40&#45;&gt;Node41 -->
<g id="edge3" class="edge"><title>Node40&#45;&gt;Node41</title>
<path fill="none" stroke="midnightblue" d="M516.453,-48C527.227,-48 538.25,-48 548.863,-48"/>
<polygon fill="midnightblue" stroke="midnightblue" points="516.222,-44.5001 506.222,-48 516.222,-51.5001 516.222,-44.5001"/>
</g>
</g>
</svg>
