<?xml version="1.0" encoding="UTF-8" standalone="no"?>
<!DOCTYPE svg PUBLIC "-//W3C//DTD SVG 1.1//EN"
 "http://www.w3.org/Graphics/SVG/1.1/DTD/svg11.dtd">
<!-- Generated by graphviz version 2.38.0 (20140413.2041)
 -->
<!-- Title: vpr::PipelineCache::PipelineCache Pages: 1 -->
<svg width="542pt" height="78pt"
 viewBox="0.00 0.00 542.00 77.50" xmlns="http://www.w3.org/2000/svg" xmlns:xlink="http://www.w3.org/1999/xlink">
<g id="graph0" class="graph" transform="scale(1 1) rotate(0) translate(4 73.5)">
<title>vpr::PipelineCache::PipelineCache</title>
<polygon fill="white" stroke="none" points="-4,4 -4,-73.5 538,-73.5 538,4 -4,4"/>
<!-- Node2 -->
<g id="node1" class="node"><title>Node2</title>
<polygon fill="#bfbfbf" stroke="black" points="0,-17 0,-47 97,-47 97,-17 0,-17"/>
<text text-anchor="start" x="8" y="-35" font-family="Helvetica,sans-Serif" font-size="10.00">vpr::PipelineCache</text>
<text text-anchor="middle" x="48.5" y="-24" font-family="Helvetica,sans-Serif" font-size="10.00">::PipelineCache</text>
</g>
<!-- Node3 -->
<g id="node2" class="node"><title>Node3</title>
<g id="a_node2"><a xlink:href="classvpr_1_1_pipeline_cache.html#aa982f664e3dd6c95682bfa1084cf9a80" target="_top" xlink:title="vpr::PipelineCache\l::LoadCacheFromFile">
<polygon fill="white" stroke="black" points="133,-39 133,-69 243,-69 243,-39 133,-39"/>
<text text-anchor="start" x="141" y="-57" font-family="Helvetica,sans-Serif" font-size="10.00">vpr::PipelineCache</text>
<text text-anchor="middle" x="188" y="-46" font-family="Helvetica,sans-Serif" font-size="10.00">::LoadCacheFromFile</text>
</a>
</g>
</g>
<!-- Node2&#45;&gt;Node3 -->
<g id="edge1" class="edge"><title>Node2&#45;&gt;Node3</title>
<path fill="none" stroke="midnightblue" d="M97.2049,-39.6328C105.456,-40.9529 114.154,-42.3447 122.758,-43.7213"/>
<polygon fill="midnightblue" stroke="midnightblue" points="122.355,-47.2013 132.783,-45.3253 123.461,-40.2892 122.355,-47.2013"/>
</g>
<!-- Node6 -->
<g id="node5" class="node"><title>Node6</title>
<g id="a_node5"><a xlink:href="classvpr_1_1_device.html#a59882855173bef0b13a17b376ea01d45" target="_top" xlink:title="vpr::Device::vkHandle">
<polygon fill="white" stroke="black" points="134,-0.5 134,-19.5 242,-19.5 242,-0.5 134,-0.5"/>
<text text-anchor="middle" x="188" y="-7.5" font-family="Helvetica,sans-Serif" font-size="10.00">vpr::Device::vkHandle</text>
</a>
</g>
</g>
<!-- Node2&#45;&gt;Node6 -->
<g id="edge4" class="edge"><title>Node2&#45;&gt;Node6</title>
<path fill="none" stroke="midnightblue" d="M97.2049,-24.3672C105.771,-22.9966 114.82,-21.5489 123.744,-20.121"/>
<polygon fill="midnightblue" stroke="midnightblue" points="124.413,-23.5585 133.734,-18.5225 123.307,-16.6464 124.413,-23.5585"/>
</g>
<!-- Node4 -->
<g id="node3" class="node"><title>Node4</title>
<g id="a_node3"><a xlink:href="classvpr_1_1_pipeline_cache.html#a21856493d10e08b915ce8278c2bc08b0" target="_top" xlink:title="Takes a pipeline cache header and checks it for validity. ">
<polygon fill="white" stroke="black" points="279,-39 279,-69 376,-69 376,-39 279,-39"/>
<text text-anchor="start" x="287" y="-57" font-family="Helvetica,sans-Serif" font-size="10.00">vpr::PipelineCache</text>
<text text-anchor="middle" x="327.5" y="-46" font-family="Helvetica,sans-Serif" font-size="10.00">::Verify</text>
</a>
</g>
</g>
<!-- Node3&#45;&gt;Node4 -->
<g id="edge2" class="edge"><title>Node3&#45;&gt;Node4</title>
<path fill="none" stroke="midnightblue" d="M243.344,-54C251.669,-54 260.289,-54 268.686,-54"/>
<polygon fill="midnightblue" stroke="midnightblue" points="268.783,-57.5001 278.783,-54 268.783,-50.5001 268.783,-57.5001"/>
</g>
<!-- Node5 -->
<g id="node4" class="node"><title>Node5</title>
<g id="a_node4"><a xlink:href="classvpr_1_1_device.html#a25e0b05bb662b335ec214295c46654cc" target="_top" xlink:title="vpr::Device::GetPhysical\lDevice">
<polygon fill="white" stroke="black" points="412,-39 412,-69 534,-69 534,-39 412,-39"/>
<text text-anchor="start" x="420" y="-57" font-family="Helvetica,sans-Serif" font-size="10.00">vpr::Device::GetPhysical</text>
<text text-anchor="middle" x="473" y="-46" font-family="Helvetica,sans-Serif" font-size="10.00">Device</text>
</a>
</g>
</g>
<!-- Node4&#45;&gt;Node5 -->
<g id="edge3" class="edge"><title>Node4&#45;&gt;Node5</title>
<path fill="none" stroke="midnightblue" d="M376.283,-54C384.488,-54 393.164,-54 401.81,-54"/>
<polygon fill="midnightblue" stroke="midnightblue" points="401.916,-57.5001 411.916,-54 401.916,-50.5001 401.916,-57.5001"/>
</g>
</g>
</svg>
