<?xml version="1.0" encoding="UTF-8" standalone="no"?>
<!DOCTYPE svg PUBLIC "-//W3C//DTD SVG 1.1//EN"
 "http://www.w3.org/Graphics/SVG/1.1/DTD/svg11.dtd">
<!-- Generated by graphviz version 2.38.0 (20140413.2041)
 -->
<!-- Title: vpr::Allocator Pages: 1 -->
<svg width="2138pt" height="200pt"
 viewBox="0.00 0.00 2138.00 200.00" xmlns="http://www.w3.org/2000/svg" xmlns:xlink="http://www.w3.org/1999/xlink">
<g id="graph0" class="graph" transform="scale(1 1) rotate(0) translate(4 196)">
<title>vpr::Allocator</title>
<polygon fill="white" stroke="none" points="-4,4 -4,-196 2134,-196 2134,4 -4,4"/>
<!-- Node1 -->
<g id="node1" class="node"><title>Node1</title>
<polygon fill="#bfbfbf" stroke="black" points="796.5,-163.5 796.5,-182.5 869.5,-182.5 869.5,-163.5 796.5,-163.5"/>
<text text-anchor="middle" x="833" y="-170.5" font-family="Helvetica,sans-Serif" font-size="10.00">vpr::Allocator</text>
</g>
<!-- Node7 -->
<g id="node7" class="node"><title>Node7</title>
<g id="a_node7"><a xlink:href="classvpr_1_1_allocation_collection.html" target="_top" xlink:title="An allocation collection is just a vector of MemoryBlocks of the same type. ">
<polygon fill="white" stroke="black" points="988,-119.5 988,-138.5 1108,-138.5 1108,-119.5 988,-119.5"/>
<text text-anchor="middle" x="1048" y="-126.5" font-family="Helvetica,sans-Serif" font-size="10.00">vpr::AllocationCollection</text>
</a>
</g>
</g>
<!-- Node1&#45;&gt;Node7 -->
<g id="edge7" class="edge"><title>Node1&#45;&gt;Node7</title>
<path fill="none" stroke="#9a32cd" stroke-dasharray="5,2" d="M879.808,-163.537C915.543,-156.155 964.963,-145.947 1000.8,-138.544"/>
<polygon fill="#9a32cd" stroke="#9a32cd" points="878.737,-160.185 869.651,-165.635 880.153,-167.04 878.737,-160.185"/>
<text text-anchor="middle" x="945" y="-158" font-family="Helvetica,sans-Serif" font-size="10.00"> allocator</text>
</g>
<!-- Node2 -->
<g id="node2" class="node"><title>Node2</title>
<polygon fill="white" stroke="#bfbfbf" points="2028,-135 2028,-165 2130,-165 2130,-135 2028,-135"/>
<text text-anchor="start" x="2036" y="-153" font-family="Helvetica,sans-Serif" font-size="10.00">std::unique_ptr&lt; vpr</text>
<text text-anchor="middle" x="2079" y="-142" font-family="Helvetica,sans-Serif" font-size="10.00">::AllocatorImpl &gt;</text>
</g>
<!-- Node2&#45;&gt;Node1 -->
<g id="edge1" class="edge"><title>Node2&#45;&gt;Node1</title>
<path fill="none" stroke="#9a32cd" stroke-dasharray="5,2" d="M2021.73,-167.724C1994.98,-174.666 1962.39,-181 1932.5,-181 1047,-181 1047,-181 1047,-181 984.646,-181 912.097,-177.534 869.787,-175.165"/>
<polygon fill="#9a32cd" stroke="#9a32cd" points="2022.94,-171.025 2031.68,-165.046 2021.12,-164.266 2022.94,-171.025"/>
<text text-anchor="middle" x="1437" y="-184" font-family="Helvetica,sans-Serif" font-size="10.00"> impl</text>
</g>
<!-- Node3 -->
<g id="node3" class="node"><title>Node3</title>
<g id="a_node3"><a xlink:href="structvpr_1_1_allocator_impl.html" target="_top" xlink:title="vpr::AllocatorImpl">
<polygon fill="white" stroke="black" points="1886,-90.5 1886,-109.5 1977,-109.5 1977,-90.5 1886,-90.5"/>
<text text-anchor="middle" x="1931.5" y="-97.5" font-family="Helvetica,sans-Serif" font-size="10.00">vpr::AllocatorImpl</text>
</a>
</g>
</g>
<!-- Node3&#45;&gt;Node2 -->
<g id="edge2" class="edge"><title>Node3&#45;&gt;Node2</title>
<path fill="none" stroke="#9a32cd" stroke-dasharray="5,2" d="M1969.73,-112.792C1989.35,-119.536 2013.55,-127.851 2034.08,-134.909"/>
<polygon fill="#9a32cd" stroke="#9a32cd" points="1970.8,-109.462 1960.21,-109.522 1968.53,-116.082 1970.8,-109.462"/>
<text text-anchor="middle" x="2002.5" y="-130" font-family="Helvetica,sans-Serif" font-size="10.00"> ptr</text>
</g>
<!-- Node4 -->
<g id="node4" class="node"><title>Node4</title>
<polygon fill="white" stroke="#bfbfbf" points="1598,-110.5 1598,-151.5 1771,-151.5 1771,-110.5 1598,-110.5"/>
<text text-anchor="start" x="1606" y="-139.5" font-family="Helvetica,sans-Serif" font-size="10.00">std::map&lt; AllocationSize,</text>
<text text-anchor="start" x="1606" y="-128.5" font-family="Helvetica,sans-Serif" font-size="10.00"> std::vector&lt; std::unique</text>
<text text-anchor="middle" x="1684.5" y="-117.5" font-family="Helvetica,sans-Serif" font-size="10.00">_ptr&lt; vpr::AllocationCollection &gt; &gt; &gt;</text>
</g>
<!-- Node4&#45;&gt;Node3 -->
<g id="edge3" class="edge"><title>Node4&#45;&gt;Node3</title>
<path fill="none" stroke="#9a32cd" stroke-dasharray="5,2" d="M1781.26,-118.884C1817.3,-114.323 1856.6,-109.351 1885.81,-105.654"/>
<polygon fill="#9a32cd" stroke="#9a32cd" points="1780.67,-115.43 1771.19,-120.158 1781.55,-122.375 1780.67,-115.43"/>
<text text-anchor="middle" x="1828.5" y="-121" font-family="Helvetica,sans-Serif" font-size="10.00"> allocations</text>
</g>
<!-- Node5 -->
<g id="node5" class="node"><title>Node5</title>
<polygon fill="white" stroke="#bfbfbf" points="1355,-114 1355,-144 1519,-144 1519,-114 1355,-114"/>
<text text-anchor="start" x="1363" y="-132" font-family="Helvetica,sans-Serif" font-size="10.00">std::vector&lt; std::unique</text>
<text text-anchor="middle" x="1437" y="-121" font-family="Helvetica,sans-Serif" font-size="10.00">_ptr&lt; vpr::AllocationCollection &gt; &gt;</text>
</g>
<!-- Node5&#45;&gt;Node4 -->
<g id="edge4" class="edge"><title>Node5&#45;&gt;Node4</title>
<path fill="none" stroke="#9a32cd" stroke-dasharray="5,2" d="M1529.27,-129.744C1551.73,-129.927 1575.7,-130.122 1597.88,-130.303"/>
<polygon fill="#9a32cd" stroke="#9a32cd" points="1529.09,-126.242 1519.07,-129.66 1529.04,-133.242 1529.09,-126.242"/>
<text text-anchor="middle" x="1558.5" y="-134" font-family="Helvetica,sans-Serif" font-size="10.00"> elements</text>
</g>
<!-- Node6 -->
<g id="node6" class="node"><title>Node6</title>
<polygon fill="white" stroke="#bfbfbf" points="1159,-114 1159,-144 1276,-144 1276,-114 1159,-114"/>
<text text-anchor="start" x="1167" y="-132" font-family="Helvetica,sans-Serif" font-size="10.00">std::unique_ptr&lt; vpr</text>
<text text-anchor="middle" x="1217.5" y="-121" font-family="Helvetica,sans-Serif" font-size="10.00">::AllocationCollection &gt;</text>
</g>
<!-- Node6&#45;&gt;Node5 -->
<g id="edge5" class="edge"><title>Node6&#45;&gt;Node5</title>
<path fill="none" stroke="#9a32cd" stroke-dasharray="5,2" d="M1286.3,-129C1307.96,-129 1332.16,-129 1354.68,-129"/>
<polygon fill="#9a32cd" stroke="#9a32cd" points="1286.22,-125.5 1276.21,-129 1286.21,-132.5 1286.22,-125.5"/>
<text text-anchor="middle" x="1315.5" y="-132" font-family="Helvetica,sans-Serif" font-size="10.00"> elements</text>
</g>
<!-- Node7&#45;&gt;Node6 -->
<g id="edge6" class="edge"><title>Node7&#45;&gt;Node6</title>
<path fill="none" stroke="#9a32cd" stroke-dasharray="5,2" d="M1118.25,-129C1131.74,-129 1145.75,-129 1158.82,-129"/>
<polygon fill="#9a32cd" stroke="#9a32cd" points="1118.05,-125.5 1108.05,-129 1118.05,-132.5 1118.05,-125.5"/>
<text text-anchor="middle" x="1133.5" y="-132" font-family="Helvetica,sans-Serif" font-size="10.00"> ptr</text>
</g>
<!-- Node8 -->
<g id="node8" class="node"><title>Node8</title>
<polygon fill="white" stroke="#bfbfbf" points="764,-106 764,-136 902,-136 902,-106 764,-106"/>
<text text-anchor="start" x="772" y="-124" font-family="Helvetica,sans-Serif" font-size="10.00">std::vector&lt; std::unique</text>
<text text-anchor="middle" x="833" y="-113" font-family="Helvetica,sans-Serif" font-size="10.00">_ptr&lt; vpr::MemoryBlock &gt; &gt;</text>
</g>
<!-- Node8&#45;&gt;Node7 -->
<g id="edge8" class="edge"><title>Node8&#45;&gt;Node7</title>
<path fill="none" stroke="#9a32cd" stroke-dasharray="5,2" d="M912.237,-120.461C931.156,-120.638 951.309,-121.083 970,-122 975.765,-122.283 981.766,-122.668 987.761,-123.113"/>
<polygon fill="#9a32cd" stroke="#9a32cd" points="912.197,-116.961 902.172,-120.39 912.147,-123.96 912.197,-116.961"/>
<text text-anchor="middle" x="945" y="-125" font-family="Helvetica,sans-Serif" font-size="10.00"> allocations</text>
</g>
<!-- Node9 -->
<g id="node9" class="node"><title>Node9</title>
<polygon fill="white" stroke="#bfbfbf" points="583,-106 583,-136 685,-136 685,-106 583,-106"/>
<text text-anchor="start" x="591" y="-124" font-family="Helvetica,sans-Serif" font-size="10.00">std::unique_ptr&lt; vpr</text>
<text text-anchor="middle" x="634" y="-113" font-family="Helvetica,sans-Serif" font-size="10.00">::MemoryBlock &gt;</text>
</g>
<!-- Node9&#45;&gt;Node8 -->
<g id="edge9" class="edge"><title>Node9&#45;&gt;Node8</title>
<path fill="none" stroke="#9a32cd" stroke-dasharray="5,2" d="M695.253,-121C716.873,-121 741.403,-121 763.659,-121"/>
<polygon fill="#9a32cd" stroke="#9a32cd" points="695.221,-117.5 685.221,-121 695.221,-124.5 695.221,-117.5"/>
<text text-anchor="middle" x="724.5" y="-124" font-family="Helvetica,sans-Serif" font-size="10.00"> elements</text>
</g>
<!-- Node10 -->
<g id="node10" class="node"><title>Node10</title>
<g id="a_node10"><a xlink:href="classvpr_1_1_memory_block.html" target="_top" xlink:title="A MemoryBlock is a large contiguous region of Vulkan memory of a uniform type (device local...">
<polygon fill="white" stroke="black" points="437,-111.5 437,-130.5 532,-130.5 532,-111.5 437,-111.5"/>
<text text-anchor="middle" x="484.5" y="-118.5" font-family="Helvetica,sans-Serif" font-size="10.00">vpr::MemoryBlock</text>
</a>
</g>
</g>
<!-- Node10&#45;&gt;Node9 -->
<g id="edge10" class="edge"><title>Node10&#45;&gt;Node9</title>
<path fill="none" stroke="#9a32cd" stroke-dasharray="5,2" d="M542.21,-121C555.582,-121 569.745,-121 582.806,-121"/>
<polygon fill="#9a32cd" stroke="#9a32cd" points="542.17,-117.5 532.17,-121 542.17,-124.5 542.17,-117.5"/>
<text text-anchor="middle" x="557.5" y="-124" font-family="Helvetica,sans-Serif" font-size="10.00"> ptr</text>
</g>
<!-- Node11 -->
<g id="node11" class="node"><title>Node11</title>
<polygon fill="white" stroke="#bfbfbf" points="188.5,-132.5 188.5,-151.5 313.5,-151.5 313.5,-132.5 188.5,-132.5"/>
<text text-anchor="middle" x="251" y="-139.5" font-family="Helvetica,sans-Serif" font-size="10.00">std::list&lt; Suballocation &gt;</text>
</g>
<!-- Node11&#45;&gt;Node10 -->
<g id="edge11" class="edge"><title>Node11&#45;&gt;Node10</title>
<path fill="none" stroke="#9a32cd" stroke-dasharray="5,2" d="M323.928,-135.475C360.781,-132.132 404.586,-128.158 436.968,-125.221"/>
<polygon fill="#9a32cd" stroke="#9a32cd" points="323.377,-132.011 313.734,-136.4 324.009,-138.982 323.377,-132.011"/>
<text text-anchor="middle" x="376" y="-138" font-family="Helvetica,sans-Serif" font-size="10.00"> Suballocations</text>
</g>
<!-- Node12 -->
<g id="node12" class="node"><title>Node12</title>
<g id="a_node12"><a xlink:href="structvpr_1_1_suballocation.html" target="_top" xlink:title="During the process of finding a suitable region to bind to, we need to store things like &quot;Suballocati...">
<polygon fill="white" stroke="black" points="7.5,-132.5 7.5,-151.5 100.5,-151.5 100.5,-132.5 7.5,-132.5"/>
<text text-anchor="middle" x="54" y="-139.5" font-family="Helvetica,sans-Serif" font-size="10.00">vpr::Suballocation</text>
</a>
</g>
</g>
<!-- Node12&#45;&gt;Node11 -->
<g id="edge12" class="edge"><title>Node12&#45;&gt;Node11</title>
<path fill="none" stroke="#9a32cd" stroke-dasharray="5,2" d="M110.817,-142C135.036,-142 163.483,-142 188.326,-142"/>
<polygon fill="#9a32cd" stroke="#9a32cd" points="110.719,-138.5 100.719,-142 110.719,-145.5 110.719,-138.5"/>
<text text-anchor="middle" x="147.5" y="-145" font-family="Helvetica,sans-Serif" font-size="10.00"> elements</text>
</g>
<!-- Node13 -->
<g id="node13" class="node"><title>Node13</title>
<polygon fill="white" stroke="#bfbfbf" points="187,-83 187,-113 315,-113 315,-83 187,-83"/>
<text text-anchor="start" x="195" y="-101" font-family="Helvetica,sans-Serif" font-size="10.00">std::vector&lt; suballocation</text>
<text text-anchor="middle" x="251" y="-90" font-family="Helvetica,sans-Serif" font-size="10.00">List::iterator &gt;</text>
</g>
<!-- Node13&#45;&gt;Node10 -->
<g id="edge13" class="edge"><title>Node13&#45;&gt;Node10</title>
<path fill="none" stroke="#9a32cd" stroke-dasharray="5,2" d="M325.213,-104.036C354.412,-106.585 388.318,-109.72 419,-113 424.722,-113.612 430.724,-114.297 436.668,-115.003"/>
<polygon fill="#9a32cd" stroke="#9a32cd" points="325.359,-100.536 315.094,-103.16 324.755,-107.51 325.359,-100.536"/>
<text text-anchor="middle" x="376" y="-116" font-family="Helvetica,sans-Serif" font-size="10.00"> availSuballocations</text>
</g>
<!-- Node14 -->
<g id="node14" class="node"><title>Node14</title>
<g id="a_node14"><a xlink:title="STL iterator class. ">
<polygon fill="white" stroke="#bfbfbf" points="0,-88.5 0,-107.5 108,-107.5 108,-88.5 0,-88.5"/>
<text text-anchor="middle" x="54" y="-95.5" font-family="Helvetica,sans-Serif" font-size="10.00">std::list&lt; T &gt;::iterator</text>
</a>
</g>
</g>
<!-- Node14&#45;&gt;Node13 -->
<g id="edge14" class="edge"><title>Node14&#45;&gt;Node13</title>
<path fill="none" stroke="#9a32cd" stroke-dasharray="5,2" d="M118.262,-98C140.27,-98 164.945,-98 186.937,-98"/>
<polygon fill="#9a32cd" stroke="#9a32cd" points="118.027,-94.5001 108.027,-98 118.027,-101.5 118.027,-94.5001"/>
<text text-anchor="middle" x="147.5" y="-101" font-family="Helvetica,sans-Serif" font-size="10.00"> elements</text>
</g>
<!-- Node15 -->
<g id="node15" class="node"><title>Node15</title>
<polygon fill="white" stroke="#bfbfbf" points="1620,-61 1620,-91 1749,-91 1749,-61 1620,-61"/>
<text text-anchor="start" x="1628" y="-79" font-family="Helvetica,sans-Serif" font-size="10.00">std::map&lt; AllocationSize,</text>
<text text-anchor="middle" x="1684.5" y="-68" font-family="Helvetica,sans-Serif" font-size="10.00"> std::vector&lt; bool &gt; &gt;</text>
</g>
<!-- Node15&#45;&gt;Node3 -->
<g id="edge15" class="edge"><title>Node15&#45;&gt;Node3</title>
<path fill="none" stroke="#9a32cd" stroke-dasharray="5,2" d="M1759.38,-82.5668C1792.6,-85.6003 1832.28,-89.3368 1868,-93 1873.76,-93.5904 1879.81,-94.2364 1885.79,-94.8897"/>
<polygon fill="#9a32cd" stroke="#9a32cd" points="1759.57,-79.0695 1749.3,-81.6488 1758.94,-86.0407 1759.57,-79.0695"/>
<text text-anchor="middle" x="1828.5" y="-96" font-family="Helvetica,sans-Serif" font-size="10.00"> emptyAllocations</text>
</g>
<!-- Node16 -->
<g id="node16" class="node"><title>Node16</title>
<polygon fill="white" stroke="#bfbfbf" points="1388,-66.5 1388,-85.5 1486,-85.5 1486,-66.5 1388,-66.5"/>
<text text-anchor="middle" x="1437" y="-73.5" font-family="Helvetica,sans-Serif" font-size="10.00">std::vector&lt; bool &gt;</text>
</g>
<!-- Node16&#45;&gt;Node15 -->
<g id="edge16" class="edge"><title>Node16&#45;&gt;Node15</title>
<path fill="none" stroke="#9a32cd" stroke-dasharray="5,2" d="M1496.36,-76C1533.45,-76 1581.47,-76 1619.59,-76"/>
<polygon fill="#9a32cd" stroke="#9a32cd" points="1496.21,-72.5001 1486.21,-76 1496.21,-79.5001 1496.21,-72.5001"/>
<text text-anchor="middle" x="1558.5" y="-79" font-family="Helvetica,sans-Serif" font-size="10.00"> elements</text>
</g>
<!-- Node17 -->
<g id="node17" class="node"><title>Node17</title>
<polygon fill="white" stroke="#bfbfbf" points="1632.5,-0.5 1632.5,-41.5 1736.5,-41.5 1736.5,-0.5 1632.5,-0.5"/>
<text text-anchor="start" x="1640.5" y="-29.5" font-family="Helvetica,sans-Serif" font-size="10.00">std::unordered_set</text>
<text text-anchor="start" x="1640.5" y="-18.5" font-family="Helvetica,sans-Serif" font-size="10.00">&lt; vpr::Allocation, vpr</text>
<text text-anchor="middle" x="1684.5" y="-7.5" font-family="Helvetica,sans-Serif" font-size="10.00">::AllocationHash &gt;</text>
</g>
<!-- Node17&#45;&gt;Node3 -->
<g id="edge17" class="edge"><title>Node17&#45;&gt;Node3</title>
<path fill="none" stroke="#9a32cd" stroke-dasharray="5,2" d="M1746.4,-34.9752C1782.26,-43.8723 1828.24,-56.445 1868,-71 1883.16,-76.5513 1899.72,-84.3124 1911.97,-90.4088"/>
<polygon fill="#9a32cd" stroke="#9a32cd" points="1747.11,-31.5463 1736.56,-32.5646 1745.44,-38.345 1747.11,-31.5463"/>
<text text-anchor="middle" x="1828.5" y="-74" font-family="Helvetica,sans-Serif" font-size="10.00"> privateAllocations</text>
</g>
<!-- Node18 -->
<g id="node18" class="node"><title>Node18</title>
<g id="a_node18"><a xlink:href="classvpr_1_1_allocation.html" target="_top" xlink:title="Allocation class represents a singular allocation: can be a private allocation (i.e, only user of attached DeviceMemory) or a block allocation (bound to sub&#45;region of device memory) ">
<polygon fill="white" stroke="black" points="1398.5,-11.5 1398.5,-30.5 1475.5,-30.5 1475.5,-11.5 1398.5,-11.5"/>
<text text-anchor="middle" x="1437" y="-18.5" font-family="Helvetica,sans-Serif" font-size="10.00">vpr::Allocation</text>
</a>
</g>
</g>
<!-- Node18&#45;&gt;Node17 -->
<g id="edge18" class="edge"><title>Node18&#45;&gt;Node17</title>
<path fill="none" stroke="#9a32cd" stroke-dasharray="5,2" d="M1485.56,-21C1527.7,-21 1589.07,-21 1632.28,-21"/>
<polygon fill="#9a32cd" stroke="#9a32cd" points="1485.55,-17.5001 1475.55,-21 1485.55,-24.5001 1485.55,-17.5001"/>
<text text-anchor="middle" x="1558.5" y="-24" font-family="Helvetica,sans-Serif" font-size="10.00"> keys</text>
</g>
<!-- Node19 -->
<g id="node19" class="node"><title>Node19</title>
<polygon fill="white" stroke="#bfbfbf" points="1166.5,-6 1166.5,-36 1268.5,-36 1268.5,-6 1166.5,-6"/>
<text text-anchor="start" x="1174.5" y="-24" font-family="Helvetica,sans-Serif" font-size="10.00">std::unique_ptr&lt; vpr</text>
<text text-anchor="middle" x="1217.5" y="-13" font-family="Helvetica,sans-Serif" font-size="10.00">::AllocationImpl &gt;</text>
</g>
<!-- Node19&#45;&gt;Node18 -->
<g id="edge19" class="edge"><title>Node19&#45;&gt;Node18</title>
<path fill="none" stroke="#9a32cd" stroke-dasharray="5,2" d="M1278.68,-21C1316.96,-21 1365.36,-21 1398.3,-21"/>
<polygon fill="#9a32cd" stroke="#9a32cd" points="1278.67,-17.5001 1268.67,-21 1278.67,-24.5001 1278.67,-17.5001"/>
<text text-anchor="middle" x="1315.5" y="-24" font-family="Helvetica,sans-Serif" font-size="10.00"> impl</text>
</g>
<!-- Node20 -->
<g id="node20" class="node"><title>Node20</title>
<g id="a_node20"><a xlink:href="namespacevpr.html#structvpr_1_1_allocation_impl" target="_top" xlink:title="vpr::AllocationImpl">
<polygon fill="white" stroke="black" points="1000.5,-11.5 1000.5,-30.5 1095.5,-30.5 1095.5,-11.5 1000.5,-11.5"/>
<text text-anchor="middle" x="1048" y="-18.5" font-family="Helvetica,sans-Serif" font-size="10.00">vpr::AllocationImpl</text>
</a>
</g>
</g>
<!-- Node20&#45;&gt;Node19 -->
<g id="edge20" class="edge"><title>Node20&#45;&gt;Node19</title>
<path fill="none" stroke="#9a32cd" stroke-dasharray="5,2" d="M1105.7,-21C1125.34,-21 1147.2,-21 1166.28,-21"/>
<polygon fill="#9a32cd" stroke="#9a32cd" points="1105.66,-17.5001 1095.66,-21 1105.66,-24.5001 1105.66,-17.5001"/>
<text text-anchor="middle" x="1133.5" y="-24" font-family="Helvetica,sans-Serif" font-size="10.00"> ptr</text>
</g>
</g>
</svg>
