<?xml version="1.0" encoding="UTF-8" standalone="no"?>
<!DOCTYPE svg PUBLIC "-//W3C//DTD SVG 1.1//EN"
 "http://www.w3.org/Graphics/SVG/1.1/DTD/svg11.dtd">
<!-- Generated by graphviz version 2.38.0 (20140413.2041)
 -->
<!-- Title: vpr::DescriptorPool Pages: 1 -->
<svg width="152pt" height="251pt"
 viewBox="0.00 0.00 152.00 251.00" xmlns="http://www.w3.org/2000/svg" xmlns:xlink="http://www.w3.org/1999/xlink">
<g id="graph0" class="graph" transform="scale(1 1) rotate(0) translate(4 247)">
<title>vpr::DescriptorPool</title>
<polygon fill="white" stroke="none" points="-4,4 -4,-247 148,-247 148,4 -4,4"/>
<!-- Node1 -->
<g id="node1" class="node"><title>Node1</title>
<polygon fill="#bfbfbf" stroke="black" points="23,-0.5 23,-19.5 121,-19.5 121,-0.5 23,-0.5"/>
<text text-anchor="middle" x="72" y="-7.5" font-family="Helvetica,sans-Serif" font-size="10.00">vpr::DescriptorPool</text>
</g>
<!-- Node2 -->
<g id="node2" class="node"><title>Node2</title>
<polygon fill="white" stroke="#bfbfbf" points="15.5,-67.5 15.5,-97.5 128.5,-97.5 128.5,-67.5 15.5,-67.5"/>
<text text-anchor="start" x="23.5" y="-85.5" font-family="Helvetica,sans-Serif" font-size="10.00">std::unique_ptr&lt; vpr</text>
<text text-anchor="middle" x="72" y="-74.5" font-family="Helvetica,sans-Serif" font-size="10.00">::ResourceTypeMap &gt;</text>
</g>
<!-- Node2&#45;&gt;Node1 -->
<g id="edge1" class="edge"><title>Node2&#45;&gt;Node1</title>
<path fill="none" stroke="#9a32cd" stroke-dasharray="5,2" d="M72,-57.0913C72,-44.2136 72,-29.1974 72,-19.8932"/>
<polygon fill="#9a32cd" stroke="#9a32cd" points="68.5001,-57.2332 72,-67.2333 75.5001,-57.2333 68.5001,-57.2332"/>
<text text-anchor="middle" x="92.5" y="-41" font-family="Helvetica,sans-Serif" font-size="10.00"> typeMap</text>
</g>
<!-- Node3 -->
<g id="node3" class="node"><title>Node3</title>
<g id="a_node3"><a xlink:href="namespacevpr.html#structvpr_1_1_resource_type_map" target="_top" xlink:title="vpr::ResourceTypeMap">
<polygon fill="white" stroke="black" points="14,-145.5 14,-164.5 130,-164.5 130,-145.5 14,-145.5"/>
<text text-anchor="middle" x="72" y="-152.5" font-family="Helvetica,sans-Serif" font-size="10.00">vpr::ResourceTypeMap</text>
</a>
</g>
</g>
<!-- Node3&#45;&gt;Node2 -->
<g id="edge2" class="edge"><title>Node3&#45;&gt;Node2</title>
<path fill="none" stroke="#9a32cd" stroke-dasharray="5,2" d="M72,-135.236C72,-123.408 72,-108.383 72,-97.5762"/>
<polygon fill="#9a32cd" stroke="#9a32cd" points="68.5001,-135.355 72,-145.355 75.5001,-135.355 68.5001,-135.355"/>
<text text-anchor="middle" x="79.5" y="-119" font-family="Helvetica,sans-Serif" font-size="10.00"> ptr</text>
</g>
<!-- Node4 -->
<g id="node4" class="node"><title>Node4</title>
<polygon fill="white" stroke="#bfbfbf" points="0,-212.5 0,-242.5 144,-242.5 144,-212.5 0,-212.5"/>
<text text-anchor="start" x="8" y="-230.5" font-family="Helvetica,sans-Serif" font-size="10.00">std::map&lt; VkDescriptorType,</text>
<text text-anchor="middle" x="72" y="-219.5" font-family="Helvetica,sans-Serif" font-size="10.00"> size_t &gt;</text>
</g>
<!-- Node4&#45;&gt;Node3 -->
<g id="edge3" class="edge"><title>Node4&#45;&gt;Node3</title>
<path fill="none" stroke="#9a32cd" stroke-dasharray="5,2" d="M72,-202.091C72,-189.214 72,-174.197 72,-164.893"/>
<polygon fill="#9a32cd" stroke="#9a32cd" points="68.5001,-202.233 72,-212.233 75.5001,-202.233 68.5001,-202.233"/>
<text text-anchor="middle" x="97" y="-186" font-family="Helvetica,sans-Serif" font-size="10.00"> Resources</text>
</g>
</g>
</svg>
