<?xml version="1.0" encoding="UTF-8" standalone="no"?>
<!DOCTYPE svg PUBLIC "-//W3C//DTD SVG 1.1//EN"
 "http://www.w3.org/Graphics/SVG/1.1/DTD/svg11.dtd">
<!-- Generated by graphviz version 2.38.0 (20140413.2041)
 -->
<!-- Title: el::base::Storage Pages: 1 -->
<!--zoomable 632 -->
<svg id="main" version="1.1" xmlns="http://www.w3.org/2000/svg" xmlns:xlink="http://www.w3.org/1999/xlink" xml:space="preserve" onload="init(evt)">
<style type="text/css"><![CDATA[
.edge:hover path { stroke: red; }
.edge:hover polygon { stroke: red; fill: red; }
]]></style>
<script type="text/javascript"><![CDATA[
var edges = document.getElementsByTagName('g');
if (edges && edges.length) {
  for (var i=0;i<edges.length;i++) {
    if (edges[i].id.substr(0,4)=='edge') {
      edges[i].setAttribute('class','edge');
    }
  }
}
]]></script>
        <defs>
                <circle id="rim" cx="0" cy="0" r="7"/>
                <circle id="rim2" cx="0" cy="0" r="3.5"/>
                <g id="zoomPlus">
                        <use xlink:href="#rim" fill="#404040">
                                <set attributeName="fill" to="#808080" begin="zoomplus.mouseover" end="zoomplus.mouseout"/>
                        </use>
                        <path d="M-4,0h8M0,-4v8" fill="none" stroke="white" stroke-width="1.5" pointer-events="none"/>
                </g>
                <g id="zoomMin">
                        <use xlink:href="#rim" fill="#404040">
                                <set attributeName="fill" to="#808080" begin="zoomminus.mouseover" end="zoomminus.mouseout"/>
                        </use>
                        <path d="M-4,0h8" fill="none" stroke="white" stroke-width="1.5" pointer-events="none"/>
                </g>
                <g id="dirArrow">
                        <path fill="none" stroke="white" stroke-width="1.5" d="M0,-3.0v7 M-2.5,-0.5L0,-3.0L2.5,-0.5"/>
                </g>
               <g id="resetDef">
                       <use xlink:href="#rim2" fill="#404040">
                               <set attributeName="fill" to="#808080" begin="reset.mouseover" end="reset.mouseout"/>
                       </use>
               </g>
        </defs>

<script type="text/javascript">
var viewWidth = 1498;
var viewHeight = 632;
var sectionId = 'dynsection-1';
</script>
<script xlink:href="svgpan.js"/>
<svg id="graph" class="graph">
<g id="viewport">
<title>el::base::Storage</title>
<polygon fill="white" stroke="none" points="-4,4 -4,-628 1494,-628 1494,4 -4,4"/>
<!-- Node3 -->
<g id="node1" class="node"><title>Node3</title>
<polygon fill="#bfbfbf" stroke="black" points="1399,-347.5 1399,-366.5 1490,-366.5 1490,-347.5 1399,-347.5"/>
<text text-anchor="middle" x="1444.5" y="-354.5" font-family="Helvetica,sans-Serif" font-size="10.00">el::base::Storage</text>
</g>
<!-- Node4 -->
<g id="node2" class="node"><title>Node4</title>
<g id="a_node2"><a xlink:href="classel_1_1base_1_1_no_copy.html" target="_top" xlink:title="Internal helper class that prevent copy constructor for class. ">
<polygon fill="white" stroke="black" points="0,-576.5 0,-595.5 92,-595.5 92,-576.5 0,-576.5"/>
<text text-anchor="middle" x="46" y="-583.5" font-family="Helvetica,sans-Serif" font-size="10.00">el::base::NoCopy</text>
</a>
</g>
</g>
<!-- Node4&#45;&gt;Node3 -->
<g id="edge1" class="edge"><title>Node4&#45;&gt;Node3</title>
<path fill="none" stroke="#8b1a1a" d="M76.0906,-599.608C102.085,-610.512 141.511,-624 177.5,-624 177.5,-624 177.5,-624 1163.5,-624 1266.19,-624 1309.3,-619.517 1381,-546 1432.4,-493.302 1441.53,-397.457 1443.15,-366.745"/>
<polygon fill="#8b1a1a" stroke="#8b1a1a" points="77.3881,-596.356 66.8211,-595.589 74.6034,-602.778 77.3881,-596.356"/>
</g>
<!-- Node6 -->
<g id="node4" class="node"><title>Node6</title>
<g id="a_node4"><a xlink:href="classel_1_1base_1_1threading_1_1internal_1_1_no_mutex.html" target="_top" xlink:title="Mutex wrapper used when multi&#45;threading is disabled. ">
<polygon fill="white" stroke="black" points="129,-514 129,-544 228,-544 228,-514 129,-514"/>
<text text-anchor="start" x="137" y="-532" font-family="Helvetica,sans-Serif" font-size="10.00">el::base::threading</text>
<text text-anchor="middle" x="178.5" y="-521" font-family="Helvetica,sans-Serif" font-size="10.00">::internal::NoMutex</text>
</a>
</g>
</g>
<!-- Node4&#45;&gt;Node6 -->
<g id="edge4" class="edge"><title>Node4&#45;&gt;Node6</title>
<path fill="none" stroke="#8b1a1a" d="M78.208,-572.369C97.7427,-563.837 122.932,-552.834 143.051,-544.047"/>
<polygon fill="#8b1a1a" stroke="#8b1a1a" points="76.6058,-569.249 68.8428,-576.459 79.4077,-575.664 76.6058,-569.249"/>
</g>
<!-- Node46 -->
<g id="node19" class="node"><title>Node46</title>
<g id="a_node19"><a xlink:href="classel_1_1base_1_1_v_registry.html" target="_top" xlink:title="Represents registries for verbose logging. ">
<polygon fill="white" stroke="black" points="1112.5,-468.5 1112.5,-487.5 1212.5,-487.5 1212.5,-468.5 1112.5,-468.5"/>
<text text-anchor="middle" x="1162.5" y="-475.5" font-family="Helvetica,sans-Serif" font-size="10.00">el::base::VRegistry</text>
</a>
</g>
</g>
<!-- Node4&#45;&gt;Node46 -->
<g id="edge28" class="edge"><title>Node4&#45;&gt;Node46</title>
<path fill="none" stroke="#8b1a1a" d="M102.316,-586C125.537,-586 152.83,-586 177.5,-586 177.5,-586 177.5,-586 811,-586 844.27,-586 1056.83,-514.016 1133.76,-487.584"/>
<polygon fill="#8b1a1a" stroke="#8b1a1a" points="102.296,-582.5 92.296,-586 102.296,-589.5 102.296,-582.5"/>
</g>
<!-- Node5 -->
<g id="node3" class="node"><title>Node5</title>
<g id="a_node3"><a xlink:href="classel_1_1base_1_1threading_1_1_thread_safe.html" target="_top" xlink:title="Base of thread safe class, this class is inheritable&#45;only. ">
<polygon fill="white" stroke="black" points="308,-473 308,-503 405,-503 405,-473 308,-473"/>
<text text-anchor="start" x="316" y="-491" font-family="Helvetica,sans-Serif" font-size="10.00">el::base::threading</text>
<text text-anchor="middle" x="356.5" y="-480" font-family="Helvetica,sans-Serif" font-size="10.00">::ThreadSafe</text>
</a>
</g>
</g>
<!-- Node5&#45;&gt;Node3 -->
<g id="edge2" class="edge"><title>Node5&#45;&gt;Node3</title>
<path fill="none" stroke="midnightblue" d="M360.533,-462.757C373.237,-362.782 426.144,-0 525,-0 525,-0 525,-0 1163.5,-0 1280.93,-0 1311.81,-55.126 1381,-150 1428.34,-214.907 1440.21,-315.947 1442.83,-347.354"/>
<polygon fill="midnightblue" stroke="midnightblue" points="357.038,-462.504 359.274,-472.86 363.984,-463.37 357.038,-462.504"/>
</g>
<!-- Node14 -->
<g id="node11" class="node"><title>Node14</title>
<g id="a_node11"><a xlink:href="classel_1_1base_1_1utils_1_1_abstract_registry.html" target="_top" xlink:title="el::base::utils::Abstract\lRegistry\&lt; Logger, std::\lmap\&lt; std::string, Logger *\&gt; \&gt;">
<polygon fill="white" stroke="red" points="453.5,-139.5 453.5,-180.5 598.5,-180.5 598.5,-139.5 453.5,-139.5"/>
<text text-anchor="start" x="461.5" y="-168.5" font-family="Helvetica,sans-Serif" font-size="10.00">el::base::utils::Abstract</text>
<text text-anchor="start" x="461.5" y="-157.5" font-family="Helvetica,sans-Serif" font-size="10.00">Registry&lt; Logger, std::</text>
<text text-anchor="middle" x="526" y="-146.5" font-family="Helvetica,sans-Serif" font-size="10.00">map&lt; std::string, Logger *&gt; &gt;</text>
</a>
</g>
</g>
<!-- Node5&#45;&gt;Node14 -->
<g id="edge13" class="edge"><title>Node5&#45;&gt;Node14</title>
<path fill="none" stroke="midnightblue" d="M365.255,-463.342C378.382,-423.069 406.999,-341.227 442,-277 461.544,-241.136 490.111,-203.206 508.119,-180.576"/>
<polygon fill="midnightblue" stroke="midnightblue" points="361.919,-462.284 362.185,-472.876 368.582,-464.43 361.919,-462.284"/>
</g>
<!-- Node5&#45;&gt;Node46 -->
<g id="edge29" class="edge"><title>Node5&#45;&gt;Node46</title>
<path fill="none" stroke="midnightblue" d="M415.538,-487.278C566.844,-485.396 971.376,-480.365 1112.28,-478.612"/>
<polygon fill="midnightblue" stroke="midnightblue" points="415.044,-483.784 405.089,-487.408 415.132,-490.783 415.044,-483.784"/>
</g>
<!-- Node50 -->
<g id="node23" class="node"><title>Node50</title>
<g id="a_node23"><a xlink:href="classel_1_1base_1_1utils_1_1_abstract_registry.html" target="_top" xlink:title="el::base::utils::Abstract\lRegistry\&lt; base::HitCounter,\l std::vector\&lt; base::HitCounter *\&gt; \&gt;">
<polygon fill="white" stroke="red" points="442,-516.5 442,-557.5 610,-557.5 610,-516.5 442,-516.5"/>
<text text-anchor="start" x="450" y="-545.5" font-family="Helvetica,sans-Serif" font-size="10.00">el::base::utils::Abstract</text>
<text text-anchor="start" x="450" y="-534.5" font-family="Helvetica,sans-Serif" font-size="10.00">Registry&lt; base::HitCounter,</text>
<text text-anchor="middle" x="526" y="-523.5" font-family="Helvetica,sans-Serif" font-size="10.00"> std::vector&lt; base::HitCounter *&gt; &gt;</text>
</a>
</g>
</g>
<!-- Node5&#45;&gt;Node50 -->
<g id="edge35" class="edge"><title>Node5&#45;&gt;Node50</title>
<path fill="none" stroke="midnightblue" d="M414.71,-504.736C427.611,-508.51 441.449,-512.558 454.814,-516.468"/>
<polygon fill="midnightblue" stroke="midnightblue" points="415.631,-501.359 405.051,-501.91 413.666,-508.077 415.631,-501.359"/>
</g>
<!-- Node6&#45;&gt;Node5 -->
<g id="edge3" class="edge"><title>Node6&#45;&gt;Node5</title>
<path fill="none" stroke="#9a32cd" stroke-dasharray="5,2" d="M237.9,-515.395C260.558,-510.117 286.178,-504.149 307.709,-499.133"/>
<polygon fill="#9a32cd" stroke="#9a32cd" points="237.004,-512.01 228.059,-517.688 238.592,-518.828 237.004,-512.01"/>
<text text-anchor="middle" x="268" y="-517" font-family="Helvetica,sans-Serif" font-size="10.00"> m_mutex</text>
</g>
<!-- Node7 -->
<g id="node5" class="node"><title>Node7</title>
<g id="a_node5"><a xlink:href="classel_1_1base_1_1utils_1_1_command_line_args.html" target="_top" xlink:title="Command line arguments for application if specified using el::Helpers::setArgs(..) or START_EASYLOGGI...">
<polygon fill="white" stroke="black" points="1100,-267 1100,-297 1225,-297 1225,-267 1100,-267"/>
<text text-anchor="start" x="1108" y="-285" font-family="Helvetica,sans-Serif" font-size="10.00">el::base::utils::Command</text>
<text text-anchor="middle" x="1162.5" y="-274" font-family="Helvetica,sans-Serif" font-size="10.00">LineArgs</text>
</a>
</g>
</g>
<!-- Node7&#45;&gt;Node3 -->
<g id="edge5" class="edge"><title>Node7&#45;&gt;Node3</title>
<path fill="none" stroke="#9a32cd" stroke-dasharray="5,2" d="M1235.44,-281.497C1279.01,-283.459 1334.88,-290.086 1381,-309 1402.52,-317.826 1423.02,-336.097 1434.36,-347.377"/>
<polygon fill="#9a32cd" stroke="#9a32cd" points="1235.34,-277.99 1225.21,-281.111 1235.07,-284.985 1235.34,-277.99"/>
<text text-anchor="middle" x="1319.5" y="-312" font-family="Helvetica,sans-Serif" font-size="10.00"> m_commandLineArgs</text>
</g>
<!-- Node8 -->
<g id="node6" class="node"><title>Node8</title>
<polygon fill="white" stroke="#bfbfbf" points="755,-303 755,-333 865,-333 865,-303 755,-303"/>
<text text-anchor="start" x="763" y="-321" font-family="Helvetica,sans-Serif" font-size="10.00">std::map&lt; std::string,</text>
<text text-anchor="middle" x="810" y="-310" font-family="Helvetica,sans-Serif" font-size="10.00"> std::string &gt;</text>
</g>
<!-- Node8&#45;&gt;Node3 -->
<g id="edge24" class="edge"><title>Node8&#45;&gt;Node3</title>
<path fill="none" stroke="#9a32cd" stroke-dasharray="5,2" d="M875.273,-321.963C1003.59,-329.875 1288.62,-347.45 1398.81,-354.244"/>
<polygon fill="#9a32cd" stroke="#9a32cd" points="875.396,-318.464 865.2,-321.342 874.966,-325.451 875.396,-318.464"/>
<text text-anchor="middle" x="1162.5" y="-347" font-family="Helvetica,sans-Serif" font-size="10.00"> m_threadNames</text>
</g>
<!-- Node8&#45;&gt;Node7 -->
<g id="edge6" class="edge"><title>Node8&#45;&gt;Node7</title>
<path fill="none" stroke="#9a32cd" stroke-dasharray="5,2" d="M875.356,-311.39C939.367,-304.815 1036.88,-294.8 1099.9,-288.327"/>
<polygon fill="#9a32cd" stroke="#9a32cd" points="874.971,-307.911 865.381,-312.414 875.686,-314.874 874.971,-307.911"/>
<text text-anchor="middle" x="985.5" y="-312" font-family="Helvetica,sans-Serif" font-size="10.00"> m_paramsWithValue</text>
</g>
<!-- Node9 -->
<g id="node7" class="node"><title>Node9</title>
<g id="a_node7"><a xlink:title="STL class. ">
<polygon fill="white" stroke="#bfbfbf" points="496,-286.5 496,-305.5 556,-305.5 556,-286.5 496,-286.5"/>
<text text-anchor="middle" x="526" y="-293.5" font-family="Helvetica,sans-Serif" font-size="10.00">std::string</text>
</a>
</g>
</g>
<!-- Node9&#45;&gt;Node8 -->
<g id="edge7" class="edge"><title>Node9&#45;&gt;Node8</title>
<path fill="none" stroke="#9a32cd" stroke-dasharray="5,2" d="M566.33,-299.068C615.421,-302.898 699.624,-309.467 754.801,-313.772"/>
<polygon fill="#9a32cd" stroke="#9a32cd" points="566.359,-295.56 556.117,-298.272 565.814,-302.539 566.359,-295.56"/>
<text text-anchor="middle" x="672" y="-325" font-family="Helvetica,sans-Serif" font-size="10.00"> keys</text>
<text text-anchor="middle" x="672" y="-314" font-family="Helvetica,sans-Serif" font-size="10.00">elements</text>
</g>
<!-- Node11 -->
<g id="node8" class="node"><title>Node11</title>
<polygon fill="white" stroke="#bfbfbf" points="748.5,-264.5 748.5,-283.5 871.5,-283.5 871.5,-264.5 748.5,-264.5"/>
<text text-anchor="middle" x="810" y="-271.5" font-family="Helvetica,sans-Serif" font-size="10.00">std::vector&lt; std::string &gt;</text>
</g>
<!-- Node9&#45;&gt;Node11 -->
<g id="edge9" class="edge"><title>Node9&#45;&gt;Node11</title>
<path fill="none" stroke="#9a32cd" stroke-dasharray="5,2" d="M566.238,-292.939C613.415,-289.258 693.117,-283.041 748.262,-278.738"/>
<polygon fill="#9a32cd" stroke="#9a32cd" points="565.814,-289.461 556.117,-293.728 566.359,-296.44 565.814,-289.461"/>
<text text-anchor="middle" x="672" y="-291" font-family="Helvetica,sans-Serif" font-size="10.00"> elements</text>
</g>
<!-- Node19 -->
<g id="node12" class="node"><title>Node19</title>
<polygon fill="white" stroke="#bfbfbf" points="755,-117 755,-147 865,-147 865,-117 755,-117"/>
<text text-anchor="start" x="763" y="-135" font-family="Helvetica,sans-Serif" font-size="10.00">std::map&lt; std::string,</text>
<text text-anchor="middle" x="810" y="-124" font-family="Helvetica,sans-Serif" font-size="10.00"> FileStreamPtr &gt;</text>
</g>
<!-- Node9&#45;&gt;Node19 -->
<g id="edge15" class="edge"><title>Node9&#45;&gt;Node19</title>
<path fill="none" stroke="#9a32cd" stroke-dasharray="5,2" d="M544.134,-279.458C563.485,-261.298 596.41,-231.941 628,-211 672.069,-181.787 685.229,-177.417 734,-157 742.356,-153.502 751.388,-150.146 760.193,-147.091"/>
<polygon fill="#9a32cd" stroke="#9a32cd" points="541.559,-277.076 536.714,-286.499 546.377,-282.154 541.559,-277.076"/>
<text text-anchor="middle" x="672" y="-214" font-family="Helvetica,sans-Serif" font-size="10.00"> keys</text>
</g>
<!-- Node24 -->
<g id="node13" class="node"><title>Node24</title>
<g id="a_node13"><a xlink:href="classel_1_1_configurations.html" target="_top" xlink:title="Thread&#45;safe Configuration repository. ">
<polygon fill="white" stroke="red" points="764,-78.5 764,-97.5 856,-97.5 856,-78.5 764,-78.5"/>
<text text-anchor="middle" x="810" y="-85.5" font-family="Helvetica,sans-Serif" font-size="10.00">el::Configurations</text>
</a>
</g>
</g>
<!-- Node9&#45;&gt;Node24 -->
<g id="edge17" class="edge"><title>Node9&#45;&gt;Node24</title>
<path fill="none" stroke="#9a32cd" stroke-dasharray="5,2" d="M542.76,-278.632C560.599,-258.389 589.797,-223.432 610,-190 620.083,-173.315 613.959,-163.524 628,-150 648.395,-130.356 721.91,-109.377 768.742,-97.5542"/>
<polygon fill="#9a32cd" stroke="#9a32cd" points="539.913,-276.566 535.87,-286.359 545.137,-281.225 539.913,-276.566"/>
<text text-anchor="middle" x="672" y="-153" font-family="Helvetica,sans-Serif" font-size="10.00"> m_configurationFile</text>
</g>
<!-- Node41 -->
<g id="node14" class="node"><title>Node41</title>
<polygon fill="white" stroke="#bfbfbf" points="734,-166.5 734,-207.5 886,-207.5 886,-166.5 734,-166.5"/>
<text text-anchor="start" x="742" y="-195.5" font-family="Helvetica,sans-Serif" font-size="10.00">std::map&lt; std::string,</text>
<text text-anchor="start" x="742" y="-184.5" font-family="Helvetica,sans-Serif" font-size="10.00"> base::type::LoggerRegistration</text>
<text text-anchor="middle" x="810" y="-173.5" font-family="Helvetica,sans-Serif" font-size="10.00">CallbackPtr &gt;</text>
</g>
<!-- Node9&#45;&gt;Node41 -->
<g id="edge19" class="edge"><title>Node9&#45;&gt;Node41</title>
<path fill="none" stroke="#9a32cd" stroke-dasharray="5,2" d="M561.458,-282.681C609.991,-263.922 698.912,-229.552 755.922,-207.516"/>
<polygon fill="#9a32cd" stroke="#9a32cd" points="560.091,-279.457 552.026,-286.327 562.615,-285.986 560.091,-279.457"/>
<text text-anchor="middle" x="672" y="-258" font-family="Helvetica,sans-Serif" font-size="10.00"> keys</text>
</g>
<!-- Node44 -->
<g id="node17" class="node"><title>Node44</title>
<polygon fill="white" stroke="#bfbfbf" points="904,-397.5 904,-438.5 1067,-438.5 1067,-397.5 904,-397.5"/>
<text text-anchor="start" x="912" y="-426.5" font-family="Helvetica,sans-Serif" font-size="10.00">std::map&lt; std::string,</text>
<text text-anchor="start" x="912" y="-415.5" font-family="Helvetica,sans-Serif" font-size="10.00"> base::type::LogDispatchCallback</text>
<text text-anchor="middle" x="985.5" y="-404.5" font-family="Helvetica,sans-Serif" font-size="10.00">Ptr &gt;</text>
</g>
<!-- Node9&#45;&gt;Node44 -->
<g id="edge23" class="edge"><title>Node9&#45;&gt;Node44</title>
<path fill="none" stroke="#9a32cd" stroke-dasharray="5,2" d="M544.077,-312.466C562.97,-329.627 595.112,-355.818 628,-369 717.883,-405.028 829.614,-415.391 903.785,-417.961"/>
<polygon fill="#9a32cd" stroke="#9a32cd" points="546.307,-309.76 536.601,-305.512 541.54,-314.886 546.307,-309.76"/>
<text text-anchor="middle" x="672" y="-399" font-family="Helvetica,sans-Serif" font-size="10.00"> keys</text>
</g>
<!-- Node45 -->
<g id="node18" class="node"><title>Node45</title>
<polygon fill="white" stroke="#bfbfbf" points="904,-350.5 904,-391.5 1067,-391.5 1067,-350.5 904,-350.5"/>
<text text-anchor="start" x="912" y="-379.5" font-family="Helvetica,sans-Serif" font-size="10.00">std::map&lt; std::string,</text>
<text text-anchor="start" x="912" y="-368.5" font-family="Helvetica,sans-Serif" font-size="10.00"> base::type::PerformanceTracking</text>
<text text-anchor="middle" x="985.5" y="-357.5" font-family="Helvetica,sans-Serif" font-size="10.00">CallbackPtr &gt;</text>
</g>
<!-- Node9&#45;&gt;Node45 -->
<g id="edge26" class="edge"><title>Node9&#45;&gt;Node45</title>
<path fill="none" stroke="#9a32cd" stroke-dasharray="5,2" d="M554.903,-309.896C574.784,-319.153 602.411,-330.728 628,-337 720.843,-359.755 830.757,-367.441 903.747,-369.951"/>
<polygon fill="#9a32cd" stroke="#9a32cd" points="556.342,-306.705 545.808,-305.572 553.336,-313.027 556.342,-306.705"/>
<text text-anchor="middle" x="672" y="-357" font-family="Helvetica,sans-Serif" font-size="10.00"> keys</text>
</g>
<!-- Node47 -->
<g id="node20" class="node"><title>Node47</title>
<polygon fill="white" stroke="#bfbfbf" points="741,-429 741,-459 879,-459 879,-429 741,-429"/>
<text text-anchor="start" x="749" y="-447" font-family="Helvetica,sans-Serif" font-size="10.00">std::map&lt; std::string,</text>
<text text-anchor="middle" x="810" y="-436" font-family="Helvetica,sans-Serif" font-size="10.00"> base::type::VerboseLevel &gt;</text>
</g>
<!-- Node9&#45;&gt;Node47 -->
<g id="edge31" class="edge"><title>Node9&#45;&gt;Node47</title>
<path fill="none" stroke="#9a32cd" stroke-dasharray="5,2" d="M536.976,-314.55C552.545,-341.52 585.313,-390.957 628,-415 662.106,-434.21 705.222,-441.655 740.817,-444.206"/>
<polygon fill="#9a32cd" stroke="#9a32cd" points="539.971,-312.734 532.032,-305.719 533.863,-316.154 539.971,-312.734"/>
<text text-anchor="middle" x="672" y="-445" font-family="Helvetica,sans-Serif" font-size="10.00"> keys</text>
</g>
<!-- Node11&#45;&gt;Node7 -->
<g id="edge8" class="edge"><title>Node11&#45;&gt;Node7</title>
<path fill="none" stroke="#9a32cd" stroke-dasharray="5,2" d="M881.555,-272.949C932.985,-272.506 1004.34,-272.56 1067,-275 1077.6,-275.413 1088.86,-276.062 1099.77,-276.802"/>
<polygon fill="#9a32cd" stroke="#9a32cd" points="881.51,-269.449 871.543,-273.043 881.576,-276.449 881.51,-269.449"/>
<text text-anchor="middle" x="985.5" y="-278" font-family="Helvetica,sans-Serif" font-size="10.00"> m_params</text>
</g>
<!-- Node12 -->
<g id="node9" class="node"><title>Node12</title>
<g id="a_node9"><a xlink:href="classel_1_1base_1_1_registered_loggers.html" target="_top" xlink:title="Loggers repository. ">
<polygon fill="white" stroke="black" points="1093.5,-122.5 1093.5,-141.5 1231.5,-141.5 1231.5,-122.5 1093.5,-122.5"/>
<text text-anchor="middle" x="1162.5" y="-129.5" font-family="Helvetica,sans-Serif" font-size="10.00">el::base::RegisteredLoggers</text>
</a>
</g>
</g>
<!-- Node12&#45;&gt;Node3 -->
<g id="edge10" class="edge"><title>Node12&#45;&gt;Node3</title>
<path fill="none" stroke="#9a32cd" stroke-dasharray="5,2" d="M1226.96,-143.971C1274.52,-155.838 1338.47,-178.327 1381,-219 1419.97,-256.262 1436.6,-322.339 1441.69,-347.188"/>
<polygon fill="#9a32cd" stroke="#9a32cd" points="1227.62,-140.528 1217.08,-141.597 1225.98,-147.335 1227.62,-140.528"/>
<text text-anchor="middle" x="1319.5" y="-222" font-family="Helvetica,sans-Serif" font-size="10.00"> m_registeredLoggers</text>
</g>
<!-- Node13 -->
<g id="node10" class="node"><title>Node13</title>
<g id="a_node10"><a xlink:href="classel_1_1base_1_1utils_1_1_registry.html" target="_top" xlink:title="el::base::utils::Registry\l\&lt; Logger, std::string \&gt;">
<polygon fill="white" stroke="black" points="751.5,-29 751.5,-59 868.5,-59 868.5,-29 751.5,-29"/>
<text text-anchor="start" x="759.5" y="-47" font-family="Helvetica,sans-Serif" font-size="10.00">el::base::utils::Registry</text>
<text text-anchor="middle" x="810" y="-36" font-family="Helvetica,sans-Serif" font-size="10.00">&lt; Logger, std::string &gt;</text>
</a>
</g>
</g>
<!-- Node13&#45;&gt;Node12 -->
<g id="edge11" class="edge"><title>Node13&#45;&gt;Node12</title>
<path fill="none" stroke="midnightblue" d="M878.757,-54.144C930.82,-62.7416 1004.21,-76.6098 1067,-95 1092.7,-102.527 1121.2,-114.16 1140.11,-122.369"/>
<polygon fill="midnightblue" stroke="midnightblue" points="879.071,-50.6491 868.639,-52.495 877.945,-57.5579 879.071,-50.6491"/>
</g>
<!-- Node14&#45;&gt;Node13 -->
<g id="edge12" class="edge"><title>Node14&#45;&gt;Node13</title>
<path fill="none" stroke="midnightblue" d="M578.139,-134.987C594.027,-127.407 611.66,-119.19 628,-112 674.534,-91.5245 686.305,-86.603 734,-69 743.142,-65.6259 752.982,-62.2004 762.43,-59.0115"/>
<polygon fill="midnightblue" stroke="midnightblue" points="576.513,-131.885 569.009,-139.363 579.539,-138.197 576.513,-131.885"/>
</g>
<!-- Node19&#45;&gt;Node12 -->
<g id="edge14" class="edge"><title>Node19&#45;&gt;Node12</title>
<path fill="none" stroke="#9a32cd" stroke-dasharray="5,2" d="M875.412,-132C937.277,-132 1030.4,-132 1093.45,-132"/>
<polygon fill="#9a32cd" stroke="#9a32cd" points="875.381,-128.5 865.381,-132 875.381,-135.5 875.381,-128.5"/>
<text text-anchor="middle" x="985.5" y="-135" font-family="Helvetica,sans-Serif" font-size="10.00"> m_logStreamsReference</text>
</g>
<!-- Node24&#45;&gt;Node12 -->
<g id="edge16" class="edge"><title>Node24&#45;&gt;Node12</title>
<path fill="none" stroke="#9a32cd" stroke-dasharray="5,2" d="M866.395,-93.5545C918.305,-98.9303 998.025,-107.624 1067,-117 1079.02,-118.633 1091.86,-120.555 1104.09,-122.468"/>
<polygon fill="#9a32cd" stroke="#9a32cd" points="866.701,-90.0675 856.395,-92.5243 865.983,-97.0307 866.701,-90.0675"/>
<text text-anchor="middle" x="985.5" y="-120" font-family="Helvetica,sans-Serif" font-size="10.00"> m_defaultConfigurations</text>
</g>
<!-- Node41&#45;&gt;Node12 -->
<g id="edge18" class="edge"><title>Node41&#45;&gt;Node12</title>
<path fill="none" stroke="#9a32cd" stroke-dasharray="5,2" d="M896.143,-173.749C945.952,-165.984 1010.05,-155.97 1067,-147 1078.24,-145.23 1090.23,-143.333 1101.77,-141.504"/>
<polygon fill="#9a32cd" stroke="#9a32cd" points="895.401,-170.323 886.059,-175.321 896.479,-177.239 895.401,-170.323"/>
<text text-anchor="middle" x="985.5" y="-175" font-family="Helvetica,sans-Serif" font-size="10.00"> m_loggerRegistrationCallbacks</text>
</g>
<!-- Node42 -->
<g id="node15" class="node"><title>Node42</title>
<polygon fill="white" stroke="#bfbfbf" points="1088,-218 1088,-248 1237,-248 1237,-218 1088,-218"/>
<text text-anchor="start" x="1096" y="-236" font-family="Helvetica,sans-Serif" font-size="10.00">std::vector&lt; el::CustomFormat</text>
<text text-anchor="middle" x="1162.5" y="-225" font-family="Helvetica,sans-Serif" font-size="10.00">Specifier &gt;</text>
</g>
<!-- Node42&#45;&gt;Node3 -->
<g id="edge20" class="edge"><title>Node42&#45;&gt;Node3</title>
<path fill="none" stroke="#9a32cd" stroke-dasharray="5,2" d="M1247.37,-231.924C1290.17,-234.919 1341.41,-244.256 1381,-269 1411.83,-288.268 1431.82,-328.87 1439.7,-347.406"/>
<polygon fill="#9a32cd" stroke="#9a32cd" points="1247.44,-228.422 1237.25,-231.321 1247.03,-235.409 1247.44,-228.422"/>
<text text-anchor="middle" x="1319.5" y="-272" font-family="Helvetica,sans-Serif" font-size="10.00"> m_customFormatSpecifiers</text>
</g>
<!-- Node43 -->
<g id="node16" class="node"><title>Node43</title>
<g id="a_node16"><a xlink:href="classel_1_1_custom_format_specifier.html" target="_top" xlink:title="User&#45;provided custom format specifier. ">
<polygon fill="white" stroke="black" points="744,-226.5 744,-245.5 876,-245.5 876,-226.5 744,-226.5"/>
<text text-anchor="middle" x="810" y="-233.5" font-family="Helvetica,sans-Serif" font-size="10.00">el::CustomFormatSpecifier</text>
</a>
</g>
</g>
<!-- Node43&#45;&gt;Node42 -->
<g id="edge21" class="edge"><title>Node43&#45;&gt;Node42</title>
<path fill="none" stroke="#9a32cd" stroke-dasharray="5,2" d="M886.214,-235.356C945.859,-234.846 1028.75,-234.136 1087.95,-233.629"/>
<polygon fill="#9a32cd" stroke="#9a32cd" points="886.075,-231.857 876.105,-235.443 886.135,-238.857 886.075,-231.857"/>
<text text-anchor="middle" x="985.5" y="-239" font-family="Helvetica,sans-Serif" font-size="10.00"> elements</text>
</g>
<!-- Node44&#45;&gt;Node3 -->
<g id="edge22" class="edge"><title>Node44&#45;&gt;Node3</title>
<path fill="none" stroke="#9a32cd" stroke-dasharray="5,2" d="M1077.29,-412.552C1157.69,-406.675 1277.93,-395.303 1381,-375 1391.97,-372.84 1403.8,-369.658 1414.19,-366.568"/>
<polygon fill="#9a32cd" stroke="#9a32cd" points="1076.93,-409.07 1067.2,-413.276 1077.43,-416.052 1076.93,-409.07"/>
<text text-anchor="middle" x="1162.5" y="-415" font-family="Helvetica,sans-Serif" font-size="10.00"> m_logDispatchCallbacks</text>
</g>
<!-- Node45&#45;&gt;Node3 -->
<g id="edge25" class="edge"><title>Node45&#45;&gt;Node3</title>
<path fill="none" stroke="#9a32cd" stroke-dasharray="5,2" d="M1077.27,-368.219C1174.49,-365.241 1324.77,-360.637 1398.95,-358.365"/>
<polygon fill="#9a32cd" stroke="#9a32cd" points="1077.04,-364.725 1067.15,-368.529 1077.25,-371.721 1077.04,-364.725"/>
<text text-anchor="middle" x="1162.5" y="-371" font-family="Helvetica,sans-Serif" font-size="10.00"> m_performanceTrackingCallbacks</text>
</g>
<!-- Node46&#45;&gt;Node3 -->
<g id="edge27" class="edge"><title>Node46&#45;&gt;Node3</title>
<path fill="none" stroke="#9a32cd" stroke-dasharray="5,2" d="M1222.68,-479.97C1268.95,-478.87 1333.23,-471.312 1381,-442 1411.13,-423.51 1431.35,-384.588 1439.48,-366.55"/>
<polygon fill="#9a32cd" stroke="#9a32cd" points="1222.45,-476.473 1212.5,-480.116 1222.55,-483.472 1222.45,-476.473"/>
<text text-anchor="middle" x="1319.5" y="-481" font-family="Helvetica,sans-Serif" font-size="10.00"> m_vRegistry</text>
</g>
<!-- Node47&#45;&gt;Node46 -->
<g id="edge30" class="edge"><title>Node47&#45;&gt;Node46</title>
<path fill="none" stroke="#9a32cd" stroke-dasharray="5,2" d="M889.305,-448.116C940.068,-451.202 1007.57,-456.09 1067,-463 1081.69,-464.707 1097.58,-467.041 1112.07,-469.358"/>
<polygon fill="#9a32cd" stroke="#9a32cd" points="889.251,-444.607 879.06,-447.504 888.833,-451.594 889.251,-444.607"/>
<text text-anchor="middle" x="985.5" y="-466" font-family="Helvetica,sans-Serif" font-size="10.00"> m_modules</text>
</g>
<!-- Node48 -->
<g id="node21" class="node"><title>Node48</title>
<g id="a_node21"><a xlink:href="classel_1_1base_1_1_registered_hit_counters.html" target="_top" xlink:title="Repository for hit counters used across the application. ">
<polygon fill="white" stroke="black" points="1085,-516.5 1085,-535.5 1240,-535.5 1240,-516.5 1085,-516.5"/>
<text text-anchor="middle" x="1162.5" y="-523.5" font-family="Helvetica,sans-Serif" font-size="10.00">el::base::RegisteredHitCounters</text>
</a>
</g>
</g>
<!-- Node48&#45;&gt;Node3 -->
<g id="edge32" class="edge"><title>Node48&#45;&gt;Node3</title>
<path fill="none" stroke="#9a32cd" stroke-dasharray="5,2" d="M1250.31,-531.338C1293.43,-529.693 1344.07,-520.805 1381,-493 1423.77,-460.806 1438.18,-392.361 1442.17,-366.853"/>
<polygon fill="#9a32cd" stroke="#9a32cd" points="1250,-527.844 1240.1,-531.6 1250.18,-534.842 1250,-527.844"/>
<text text-anchor="middle" x="1319.5" y="-534" font-family="Helvetica,sans-Serif" font-size="10.00"> m_registeredHitCounters</text>
</g>
<!-- Node49 -->
<g id="node22" class="node"><title>Node49</title>
<g id="a_node22"><a xlink:href="classel_1_1base_1_1utils_1_1_registry_with_pred.html" target="_top" xlink:title="el::base::utils::Registry\lWithPred\&lt; base::HitCounter,\l base::HitCounter::Predicate \&gt;">
<polygon fill="white" stroke="black" points="735.5,-516.5 735.5,-557.5 884.5,-557.5 884.5,-516.5 735.5,-516.5"/>
<text text-anchor="start" x="743.5" y="-545.5" font-family="Helvetica,sans-Serif" font-size="10.00">el::base::utils::Registry</text>
<text text-anchor="start" x="743.5" y="-534.5" font-family="Helvetica,sans-Serif" font-size="10.00">WithPred&lt; base::HitCounter,</text>
<text text-anchor="middle" x="810" y="-523.5" font-family="Helvetica,sans-Serif" font-size="10.00"> base::HitCounter::Predicate &gt;</text>
</a>
</g>
</g>
<!-- Node49&#45;&gt;Node48 -->
<g id="edge33" class="edge"><title>Node49&#45;&gt;Node48</title>
<path fill="none" stroke="midnightblue" d="M895.101,-534.361C952.856,-532.548 1028.91,-530.161 1084.97,-528.402"/>
<polygon fill="midnightblue" stroke="midnightblue" points="894.789,-530.869 884.904,-534.681 895.009,-537.865 894.789,-530.869"/>
</g>
<!-- Node50&#45;&gt;Node49 -->
<g id="edge34" class="edge"><title>Node50&#45;&gt;Node49</title>
<path fill="none" stroke="midnightblue" d="M620.458,-537C657.746,-537 700.058,-537 735.138,-537"/>
<polygon fill="midnightblue" stroke="midnightblue" points="620.084,-533.5 610.084,-537 620.084,-540.5 620.084,-533.5"/>
</g>
</g>
</svg>
        <g id="navigator" transform="translate(0 0)" fill="#404254">
                <rect fill="#f2f5e9" fill-opacity="0.5" stroke="#606060" stroke-width=".5" x="0" y="0" width="60" height="60"/>
                <use id="zoomplus" xlink:href="#zoomPlus" x="17" y="9" onmousedown="handleZoom(evt,'in')"/>
                <use id="zoomminus" xlink:href="#zoomMin" x="42" y="9" onmousedown="handleZoom(evt,'out')"/>
                <use id="reset" xlink:href="#resetDef" x="30" y="36" onmousedown="handleReset()"/>
                <g id="arrowUp" xlink:href="#dirArrow" transform="translate(30 24)" onmousedown="handlePan(0,-1)">
                  <use xlink:href="#rim" fill="#404040">
                        <set attributeName="fill" to="#808080" begin="arrowUp.mouseover" end="arrowUp.mouseout"/>
                  </use>
                  <path fill="none" stroke="white" stroke-width="1.5" d="M0,-3.0v7 M-2.5,-0.5L0,-3.0L2.5,-0.5"/>
                </g>
                <g id="arrowRight" xlink:href="#dirArrow" transform="rotate(90) translate(36 -43)" onmousedown="handlePan(1,0)">
                  <use xlink:href="#rim" fill="#404040">
                        <set attributeName="fill" to="#808080" begin="arrowRight.mouseover" end="arrowRight.mouseout"/>
                  </use>
                  <path fill="none" stroke="white" stroke-width="1.5" d="M0,-3.0v7 M-2.5,-0.5L0,-3.0L2.5,-0.5"/>
                </g>
                <g id="arrowDown" xlink:href="#dirArrow" transform="rotate(180) translate(-30 -48)" onmousedown="handlePan(0,1)">
                  <use xlink:href="#rim" fill="#404040">
                        <set attributeName="fill" to="#808080" begin="arrowDown.mouseover" end="arrowDown.mouseout"/>
                  </use>
                  <path fill="none" stroke="white" stroke-width="1.5" d="M0,-3.0v7 M-2.5,-0.5L0,-3.0L2.5,-0.5"/>
                </g>
                <g id="arrowLeft" xlink:href="#dirArrow" transform="rotate(270) translate(-36 17)" onmousedown="handlePan(-1,0)">
                  <use xlink:href="#rim" fill="#404040">
                        <set attributeName="fill" to="#808080" begin="arrowLeft.mouseover" end="arrowLeft.mouseout"/>
                  </use>
                  <path fill="none" stroke="white" stroke-width="1.5" d="M0,-3.0v7 M-2.5,-0.5L0,-3.0L2.5,-0.5"/>
                </g>
        </g>
        <svg viewBox="0 0 15 15" width="100%" height="30px" preserveAspectRatio="xMaxYMin meet">
         <g id="arrow_out" transform="scale(0.3 0.3)">
          <a xlink:href="classel_1_1base_1_1_storage__coll__graph_org.svg" target="_base">
           <rect id="button" ry="5" rx="5" y="6" x="6" height="38" width="38"
                fill="#f2f5e9" fill-opacity="0.5" stroke="#606060" stroke-width="1.0"/>
           <path id="arrow"
             d="M 11.500037,31.436501 C 11.940474,20.09759 22.043105,11.32322 32.158766,21.979434 L 37.068811,17.246167 C 37.068811,17.246167 37.088388,32 37.088388,32 L 22.160133,31.978069 C 22.160133,31.978069 26.997745,27.140456 26.997745,27.140456 C 18.528582,18.264221 13.291696,25.230495 11.500037,31.436501 z"
             style="fill:#404040;"/>
          </a>
         </g>
        </svg>
</svg>
