<?xml version="1.0" encoding="UTF-8" standalone="no"?>
<!DOCTYPE svg PUBLIC "-//W3C//DTD SVG 1.1//EN"
 "http://www.w3.org/Graphics/SVG/1.1/DTD/svg11.dtd">
<!-- Generated by graphviz version 2.38.0 (20140413.2041)
 -->
<!-- Title: vpr::Device::SetupQueueFamily Pages: 1 -->
<svg width="757pt" height="186pt"
 viewBox="0.00 0.00 757.00 186.00" xmlns="http://www.w3.org/2000/svg" xmlns:xlink="http://www.w3.org/1999/xlink">
<g id="graph0" class="graph" transform="scale(1 1) rotate(0) translate(4 182)">
<title>vpr::Device::SetupQueueFamily</title>
<polygon fill="white" stroke="none" points="-4,4 -4,-182 753,-182 753,4 -4,4"/>
<!-- Node178 -->
<g id="node1" class="node"><title>Node178</title>
<polygon fill="#bfbfbf" stroke="black" points="0,-79 0,-98 152,-98 152,-79 0,-79"/>
<text text-anchor="middle" x="76" y="-86" font-family="Helvetica,sans-Serif" font-size="10.00">vpr::Device::SetupQueueFamily</text>
</g>
<!-- Node179 -->
<g id="node2" class="node"><title>Node179</title>
<g id="a_node2"><a xlink:href="classvpr_1_1_device.html#abdb29331fbcc15a242b3f0e82b02beef" target="_top" xlink:title="vpr::Device::setupCompute\lQueues">
<polygon fill="white" stroke="black" points="188,-147.5 188,-177.5 320,-177.5 320,-147.5 188,-147.5"/>
<text text-anchor="start" x="196" y="-165.5" font-family="Helvetica,sans-Serif" font-size="10.00">vpr::Device::setupCompute</text>
<text text-anchor="middle" x="254" y="-154.5" font-family="Helvetica,sans-Serif" font-size="10.00">Queues</text>
</a>
</g>
</g>
<!-- Node178&#45;&gt;Node179 -->
<g id="edge1" class="edge"><title>Node178&#45;&gt;Node179</title>
<path fill="none" stroke="midnightblue" d="M106.504,-102.465C128.733,-112.82 160.055,-127.063 188,-138.5 195.348,-141.507 203.227,-144.559 210.876,-147.433"/>
<polygon fill="midnightblue" stroke="midnightblue" points="107.815,-99.2136 97.2739,-98.1443 104.847,-105.554 107.815,-99.2136"/>
</g>
<!-- Node183 -->
<g id="node6" class="node"><title>Node183</title>
<g id="a_node6"><a xlink:href="classvpr_1_1_device.html#adbe15d529a11af4d7034a2135255e773" target="_top" xlink:title="vpr::Device::setupGraphics\lQueues">
<polygon fill="white" stroke="black" points="188,-98.5 188,-128.5 320,-128.5 320,-98.5 188,-98.5"/>
<text text-anchor="start" x="196" y="-116.5" font-family="Helvetica,sans-Serif" font-size="10.00">vpr::Device::setupGraphics</text>
<text text-anchor="middle" x="254" y="-105.5" font-family="Helvetica,sans-Serif" font-size="10.00">Queues</text>
</a>
</g>
</g>
<!-- Node178&#45;&gt;Node183 -->
<g id="edge5" class="edge"><title>Node178&#45;&gt;Node183</title>
<path fill="none" stroke="midnightblue" d="M154.258,-99.4742C165.481,-101.068 176.939,-102.696 187.89,-104.251"/>
<polygon fill="midnightblue" stroke="midnightblue" points="154.433,-95.964 144.04,-98.0227 153.448,-102.894 154.433,-95.964"/>
</g>
<!-- Node184 -->
<g id="node7" class="node"><title>Node184</title>
<g id="a_node7"><a xlink:href="classvpr_1_1_device.html#a22ee8e6517d4898282d9d6385545100a" target="_top" xlink:title="vpr::Device::setupSparse\lBindingQueues">
<polygon fill="white" stroke="black" points="192,-49.5 192,-79.5 316,-79.5 316,-49.5 192,-49.5"/>
<text text-anchor="start" x="200" y="-67.5" font-family="Helvetica,sans-Serif" font-size="10.00">vpr::Device::setupSparse</text>
<text text-anchor="middle" x="254" y="-56.5" font-family="Helvetica,sans-Serif" font-size="10.00">BindingQueues</text>
</a>
</g>
</g>
<!-- Node178&#45;&gt;Node184 -->
<g id="edge7" class="edge"><title>Node178&#45;&gt;Node184</title>
<path fill="none" stroke="midnightblue" d="M157.014,-77.589C168.702,-75.9951 180.58,-74.3755 191.813,-72.8437"/>
<polygon fill="midnightblue" stroke="midnightblue" points="156.248,-74.161 146.813,-78.9801 157.194,-81.0968 156.248,-74.161"/>
</g>
<!-- Node185 -->
<g id="node8" class="node"><title>Node185</title>
<g id="a_node8"><a xlink:href="classvpr_1_1_device.html#aa64b2412561fa0950722c2dc4997da9f" target="_top" xlink:title="vpr::Device::setupTransfer\lQueues">
<polygon fill="white" stroke="black" points="190,-0.5 190,-30.5 318,-30.5 318,-0.5 190,-0.5"/>
<text text-anchor="start" x="198" y="-18.5" font-family="Helvetica,sans-Serif" font-size="10.00">vpr::Device::setupTransfer</text>
<text text-anchor="middle" x="254" y="-7.5" font-family="Helvetica,sans-Serif" font-size="10.00">Queues</text>
</a>
</g>
</g>
<!-- Node178&#45;&gt;Node185 -->
<g id="edge9" class="edge"><title>Node178&#45;&gt;Node185</title>
<path fill="none" stroke="midnightblue" d="M107.839,-74.761C130.034,-64.9721 160.74,-51.631 188,-40.5 196.059,-37.2092 204.727,-33.7919 213.023,-30.5797"/>
<polygon fill="midnightblue" stroke="midnightblue" points="106.313,-71.6087 98.5839,-78.8547 109.145,-78.0105 106.313,-71.6087"/>
</g>
<!-- Node180 -->
<g id="node3" class="node"><title>Node180</title>
<g id="a_node3"><a xlink:href="classvpr_1_1_device.html#af52c3b24f6bca1308a5170eb3acfeb11" target="_top" xlink:title="vpr::Device::setupQueues">
<polygon fill="white" stroke="black" points="356,-79 356,-98 483,-98 483,-79 356,-79"/>
<text text-anchor="middle" x="419.5" y="-86" font-family="Helvetica,sans-Serif" font-size="10.00">vpr::Device::setupQueues</text>
</a>
</g>
</g>
<!-- Node179&#45;&gt;Node180 -->
<g id="edge2" class="edge"><title>Node179&#45;&gt;Node180</title>
<path fill="none" stroke="midnightblue" d="M307.364,-143.77C311.663,-142.049 315.921,-140.281 320,-138.5 348.999,-125.837 381.535,-108.726 401.003,-98.1619"/>
<polygon fill="midnightblue" stroke="midnightblue" points="305.98,-140.552 297.938,-147.449 308.526,-147.073 305.98,-140.552"/>
</g>
<!-- Node181 -->
<g id="node4" class="node"><title>Node181</title>
<g id="a_node4"><a xlink:href="classvpr_1_1_device.html#a3b0734cd598d9a64f3c459e9dc4e84ce" target="_top" xlink:title="vpr::Device::create">
<polygon fill="white" stroke="black" points="519,-79 519,-98 615,-98 615,-79 519,-79"/>
<text text-anchor="middle" x="567" y="-86" font-family="Helvetica,sans-Serif" font-size="10.00">vpr::Device::create</text>
</a>
</g>
</g>
<!-- Node180&#45;&gt;Node181 -->
<g id="edge3" class="edge"><title>Node180&#45;&gt;Node181</title>
<path fill="none" stroke="midnightblue" d="M493.248,-88.5C501.96,-88.5 510.673,-88.5 518.886,-88.5"/>
<polygon fill="midnightblue" stroke="midnightblue" points="493.05,-85.0001 483.05,-88.5 493.049,-92.0001 493.05,-85.0001"/>
</g>
<!-- Node182 -->
<g id="node5" class="node"><title>Node182</title>
<g id="a_node5"><a xlink:href="classvpr_1_1_device.html#a870f832d4e57cf09fc0705718a498aff" target="_top" xlink:title="vpr::Device::Device">
<polygon fill="white" stroke="black" points="651,-79 651,-98 749,-98 749,-79 651,-79"/>
<text text-anchor="middle" x="700" y="-86" font-family="Helvetica,sans-Serif" font-size="10.00">vpr::Device::Device</text>
</a>
</g>
</g>
<!-- Node181&#45;&gt;Node182 -->
<g id="edge4" class="edge"><title>Node181&#45;&gt;Node182</title>
<path fill="none" stroke="midnightblue" d="M625.503,-88.5C633.979,-88.5 642.636,-88.5 650.895,-88.5"/>
<polygon fill="midnightblue" stroke="midnightblue" points="625.294,-85.0001 615.294,-88.5 625.294,-92.0001 625.294,-85.0001"/>
</g>
<!-- Node183&#45;&gt;Node180 -->
<g id="edge6" class="edge"><title>Node183&#45;&gt;Node180</title>
<path fill="none" stroke="midnightblue" d="M330.251,-101.994C338.967,-100.661 347.782,-99.3132 356.296,-98.0113"/>
<polygon fill="midnightblue" stroke="midnightblue" points="329.445,-98.5761 320.089,-103.548 330.503,-105.496 329.445,-98.5761"/>
</g>
<!-- Node184&#45;&gt;Node180 -->
<g id="edge8" class="edge"><title>Node184&#45;&gt;Node180</title>
<path fill="none" stroke="midnightblue" d="M326.49,-74.9939C336.316,-76.4364 346.344,-77.9083 355.992,-79.3246"/>
<polygon fill="midnightblue" stroke="midnightblue" points="326.749,-71.4945 316.347,-73.505 325.732,-78.4203 326.749,-71.4945"/>
</g>
<!-- Node185&#45;&gt;Node180 -->
<g id="edge10" class="edge"><title>Node185&#45;&gt;Node180</title>
<path fill="none" stroke="midnightblue" d="M305.334,-34.3626C310.313,-36.377 315.271,-38.4428 320,-40.5 348.434,-52.8687 380.592,-68.9464 400.204,-78.9954"/>
<polygon fill="midnightblue" stroke="midnightblue" points="306.373,-31.0094 295.787,-30.5681 303.787,-37.5144 306.373,-31.0094"/>
</g>
</g>
</svg>
