<?xml version="1.0" encoding="UTF-8" standalone="no"?>
<!DOCTYPE svg PUBLIC "-//W3C//DTD SVG 1.1//EN"
 "http://www.w3.org/Graphics/SVG/1.1/DTD/svg11.dtd">
<!-- Generated by graphviz version 2.38.0 (20140413.2041)
 -->
<!-- Title: vpr::Device::create Pages: 1 -->
<svg width="827pt" height="489pt"
 viewBox="0.00 0.00 827.00 489.00" xmlns="http://www.w3.org/2000/svg" xmlns:xlink="http://www.w3.org/1999/xlink">
<g id="graph0" class="graph" transform="scale(1 1) rotate(0) translate(4 485)">
<title>vpr::Device::create</title>
<polygon fill="white" stroke="none" points="-4,4 -4,-485 823,-485 823,4 -4,4"/>
<!-- Node34 -->
<g id="node1" class="node"><title>Node34</title>
<polygon fill="#bfbfbf" stroke="black" points="0,-300 0,-319 96,-319 96,-300 0,-300"/>
<text text-anchor="middle" x="48" y="-307" font-family="Helvetica,sans-Serif" font-size="10.00">vpr::Device::create</text>
</g>
<!-- Node35 -->
<g id="node2" class="node"><title>Node35</title>
<g id="a_node2"><a xlink:href="classvpr_1_1_physical_device.html#addc7471aceef1ca343cc1b6e5c242278" target="_top" xlink:title="vpr::PhysicalDevice\l::GetFeatures">
<polygon fill="white" stroke="black" points="154.5,-450.5 154.5,-480.5 255.5,-480.5 255.5,-450.5 154.5,-450.5"/>
<text text-anchor="start" x="162.5" y="-468.5" font-family="Helvetica,sans-Serif" font-size="10.00">vpr::PhysicalDevice</text>
<text text-anchor="middle" x="205" y="-457.5" font-family="Helvetica,sans-Serif" font-size="10.00">::GetFeatures</text>
</a>
</g>
</g>
<!-- Node34&#45;&gt;Node35 -->
<g id="edge1" class="edge"><title>Node34&#45;&gt;Node35</title>
<path fill="none" stroke="midnightblue" d="M52.5542,-319.297C61.8064,-343.456 88.9532,-406.387 132,-440.5 136.045,-443.705 140.528,-446.514 145.222,-448.973"/>
<polygon fill="midnightblue" stroke="midnightblue" points="143.909,-452.222 154.45,-453.282 146.87,-445.879 143.909,-452.222"/>
</g>
<!-- Node36 -->
<g id="node3" class="node"><title>Node36</title>
<g id="a_node3"><a xlink:href="classvpr_1_1_device.html#aca69dbf04470b2119a9960047035dc57" target="_top" xlink:title="vpr::Device::setupDebugUtils\lHandler">
<polygon fill="white" stroke="black" points="135,-362.5 135,-392.5 275,-392.5 275,-362.5 135,-362.5"/>
<text text-anchor="start" x="143" y="-380.5" font-family="Helvetica,sans-Serif" font-size="10.00">vpr::Device::setupDebugUtils</text>
<text text-anchor="middle" x="205" y="-369.5" font-family="Helvetica,sans-Serif" font-size="10.00">Handler</text>
</a>
</g>
</g>
<!-- Node34&#45;&gt;Node36 -->
<g id="edge2" class="edge"><title>Node34&#45;&gt;Node36</title>
<path fill="none" stroke="midnightblue" d="M70.879,-319.099C94.0712,-329.273 131.309,-345.61 160.511,-358.421"/>
<polygon fill="midnightblue" stroke="midnightblue" points="159.118,-361.632 169.682,-362.444 161.93,-355.222 159.118,-361.632"/>
</g>
<!-- Node39 -->
<g id="node6" class="node"><title>Node39</title>
<g id="a_node6"><a xlink:href="classvpr_1_1_device.html#a165976c19ab59de329855485a9dab5aa" target="_top" xlink:title="vpr::Device::setupExtensions">
<polygon fill="white" stroke="black" points="134,-300 134,-319 276,-319 276,-300 134,-300"/>
<text text-anchor="middle" x="205" y="-307" font-family="Helvetica,sans-Serif" font-size="10.00">vpr::Device::setupExtensions</text>
</a>
</g>
</g>
<!-- Node34&#45;&gt;Node39 -->
<g id="edge5" class="edge"><title>Node34&#45;&gt;Node39</title>
<path fill="none" stroke="midnightblue" d="M96.3473,-309.5C105.043,-309.5 114.339,-309.5 123.689,-309.5"/>
<polygon fill="midnightblue" stroke="midnightblue" points="123.83,-313 133.83,-309.5 123.83,-306 123.83,-313"/>
</g>
<!-- Node43 -->
<g id="node10" class="node"><title>Node43</title>
<g id="a_node10"><a xlink:href="classvpr_1_1_device.html#af52c3b24f6bca1308a5170eb3acfeb11" target="_top" xlink:title="vpr::Device::setupQueues">
<polygon fill="white" stroke="black" points="141.5,-153 141.5,-172 268.5,-172 268.5,-153 141.5,-153"/>
<text text-anchor="middle" x="205" y="-160" font-family="Helvetica,sans-Serif" font-size="10.00">vpr::Device::setupQueues</text>
</a>
</g>
</g>
<!-- Node34&#45;&gt;Node43 -->
<g id="edge9" class="edge"><title>Node34&#45;&gt;Node43</title>
<path fill="none" stroke="midnightblue" d="M59.17,-299.855C84.9988,-275.359 153.39,-210.498 186.092,-179.484"/>
<polygon fill="midnightblue" stroke="midnightblue" points="188.742,-181.794 193.589,-172.373 183.925,-176.715 188.742,-181.794"/>
</g>
<!-- Node51 -->
<g id="node18" class="node"><title>Node51</title>
<g id="a_node18"><a xlink:href="classvpr_1_1_device.html#a158d56e75fab365778e07a84d090b3f7" target="_top" xlink:title="vpr::Device::setupValidation">
<polygon fill="white" stroke="black" points="137,-412 137,-431 273,-431 273,-412 137,-412"/>
<text text-anchor="middle" x="205" y="-419" font-family="Helvetica,sans-Serif" font-size="10.00">vpr::Device::setupValidation</text>
</a>
</g>
</g>
<!-- Node34&#45;&gt;Node51 -->
<g id="edge27" class="edge"><title>Node34&#45;&gt;Node51</title>
<path fill="none" stroke="midnightblue" d="M54.7642,-319.067C66.698,-338.027 96.0255,-380.44 132,-402.5 135.435,-404.607 139.102,-406.482 142.892,-408.151"/>
<polygon fill="midnightblue" stroke="midnightblue" points="141.918,-411.528 152.507,-411.889 144.455,-405.003 141.918,-411.528"/>
</g>
<!-- Node52 -->
<g id="node19" class="node"><title>Node52</title>
<g id="a_node19"><a xlink:href="classvpr_1_1_device.html#ac71413f7f9988d9479e27f51fc6de197" target="_top" xlink:title="vpr::Device::verifyPresentation\lSupport">
<polygon fill="white" stroke="black" points="132,-88.5 132,-118.5 278,-118.5 278,-88.5 132,-88.5"/>
<text text-anchor="start" x="140" y="-106.5" font-family="Helvetica,sans-Serif" font-size="10.00">vpr::Device::verifyPresentation</text>
<text text-anchor="middle" x="205" y="-95.5" font-family="Helvetica,sans-Serif" font-size="10.00">Support</text>
</a>
</g>
</g>
<!-- Node34&#45;&gt;Node52 -->
<g id="edge29" class="edge"><title>Node34&#45;&gt;Node52</title>
<path fill="none" stroke="midnightblue" d="M51.6563,-299.687C59.5781,-272.003 85.4276,-192.141 132,-143.5 139.419,-135.751 148.674,-129.109 158.05,-123.59"/>
<polygon fill="midnightblue" stroke="midnightblue" points="159.955,-126.536 167.022,-118.643 156.575,-120.406 159.955,-126.536"/>
</g>
<!-- Node53 -->
<g id="node20" class="node"><title>Node53</title>
<g id="a_node20"><a xlink:href="classvpr_1_1_physical_device.html#a00de7d3556d98b1cfda28d1f769f8fa8" target="_top" xlink:title="vpr::PhysicalDevice\l::vkHandle">
<polygon fill="white" stroke="black" points="345,-0.5 345,-30.5 446,-30.5 446,-0.5 345,-0.5"/>
<text text-anchor="start" x="353" y="-18.5" font-family="Helvetica,sans-Serif" font-size="10.00">vpr::PhysicalDevice</text>
<text text-anchor="middle" x="395.5" y="-7.5" font-family="Helvetica,sans-Serif" font-size="10.00">::vkHandle</text>
</a>
</g>
</g>
<!-- Node34&#45;&gt;Node53 -->
<g id="edge31" class="edge"><title>Node34&#45;&gt;Node53</title>
<path fill="none" stroke="midnightblue" d="M49.3704,-299.84C51.2732,-264.418 62.8172,-140.5 132,-78.5 187.726,-28.5594 276.049,-16.4073 334.632,-14.3335"/>
<polygon fill="midnightblue" stroke="midnightblue" points="334.946,-17.8265 344.85,-14.0629 334.76,-10.829 334.946,-17.8265"/>
</g>
<!-- Node37 -->
<g id="node4" class="node"><title>Node37</title>
<g id="a_node4"><a xlink:href="classvpr_1_1_instance.html#a34466d6fcc286ef1281b7bdb091ea754" target="_top" xlink:title="vpr::Instance::Validation\lEnabled">
<polygon fill="white" stroke="black" points="335.5,-431.5 335.5,-461.5 455.5,-461.5 455.5,-431.5 335.5,-431.5"/>
<text text-anchor="start" x="343.5" y="-449.5" font-family="Helvetica,sans-Serif" font-size="10.00">vpr::Instance::Validation</text>
<text text-anchor="middle" x="395.5" y="-438.5" font-family="Helvetica,sans-Serif" font-size="10.00">Enabled</text>
</a>
</g>
</g>
<!-- Node36&#45;&gt;Node37 -->
<g id="edge3" class="edge"><title>Node36&#45;&gt;Node37</title>
<path fill="none" stroke="midnightblue" d="M252.874,-392.62C261.325,-395.672 269.99,-399.02 278,-402.5 294.593,-409.71 297.29,-414.565 314,-421.5 319.677,-423.856 325.658,-426.112 331.69,-428.237"/>
<polygon fill="midnightblue" stroke="midnightblue" points="330.581,-431.557 341.176,-431.464 332.836,-424.93 330.581,-431.557"/>
</g>
<!-- Node38 -->
<g id="node5" class="node"><title>Node38</title>
<g id="a_node5"><a xlink:href="classvpr_1_1_instance.html#ab9f92d523b1cc59715c6d1b237be3cea" target="_top" xlink:title="vpr::Instance::HasExtension">
<polygon fill="white" stroke="black" points="326.5,-393 326.5,-412 464.5,-412 464.5,-393 326.5,-393"/>
<text text-anchor="middle" x="395.5" y="-400" font-family="Helvetica,sans-Serif" font-size="10.00">vpr::Instance::HasExtension</text>
</a>
</g>
</g>
<!-- Node36&#45;&gt;Node38 -->
<g id="edge4" class="edge"><title>Node36&#45;&gt;Node38</title>
<path fill="none" stroke="midnightblue" d="M275.12,-386.667C288.433,-388.433 302.468,-390.294 316.052,-392.096"/>
<polygon fill="midnightblue" stroke="midnightblue" points="315.959,-395.614 326.333,-393.459 316.88,-388.675 315.959,-395.614"/>
</g>
<!-- Node40 -->
<g id="node7" class="node"><title>Node40</title>
<g id="a_node7"><a xlink:href="structvpr_1_1_device_data_members.html#a3d083fd1add161c9cc785e0a57aa6583" target="_top" xlink:title="vpr::DeviceDataMembers\l::prepareRequiredExtensions">
<polygon fill="white" stroke="black" points="324.5,-343.5 324.5,-373.5 466.5,-373.5 466.5,-343.5 324.5,-343.5"/>
<text text-anchor="start" x="332.5" y="-361.5" font-family="Helvetica,sans-Serif" font-size="10.00">vpr::DeviceDataMembers</text>
<text text-anchor="middle" x="395.5" y="-350.5" font-family="Helvetica,sans-Serif" font-size="10.00">::prepareRequiredExtensions</text>
</a>
</g>
</g>
<!-- Node39&#45;&gt;Node40 -->
<g id="edge6" class="edge"><title>Node39&#45;&gt;Node40</title>
<path fill="none" stroke="midnightblue" d="M242.792,-319.064C266.657,-325.268 298.469,-333.537 326.798,-340.901"/>
<polygon fill="midnightblue" stroke="midnightblue" points="326.095,-344.335 336.654,-343.463 327.856,-337.56 326.095,-344.335"/>
</g>
<!-- Node41 -->
<g id="node8" class="node"><title>Node41</title>
<g id="a_node8"><a xlink:href="structvpr_1_1_device_data_members.html#a9e4b2ed2f540350ec9642dbf2e24b1d4" target="_top" xlink:title="vpr::DeviceDataMembers\l::prepareOptionalExtensions">
<polygon fill="white" stroke="black" points="325.5,-294.5 325.5,-324.5 465.5,-324.5 465.5,-294.5 325.5,-294.5"/>
<text text-anchor="start" x="333.5" y="-312.5" font-family="Helvetica,sans-Serif" font-size="10.00">vpr::DeviceDataMembers</text>
<text text-anchor="middle" x="395.5" y="-301.5" font-family="Helvetica,sans-Serif" font-size="10.00">::prepareOptionalExtensions</text>
</a>
</g>
</g>
<!-- Node39&#45;&gt;Node41 -->
<g id="edge7" class="edge"><title>Node39&#45;&gt;Node41</title>
<path fill="none" stroke="midnightblue" d="M276.19,-309.5C288.827,-309.5 302.083,-309.5 314.962,-309.5"/>
<polygon fill="midnightblue" stroke="midnightblue" points="315.192,-313 325.192,-309.5 315.192,-306 315.192,-313"/>
</g>
<!-- Node42 -->
<g id="node9" class="node"><title>Node42</title>
<g id="a_node9"><a xlink:href="structvpr_1_1_device_data_members.html#a74aa0fff140d4e0d31d913975a186f31" target="_top" xlink:title="vpr::DeviceDataMembers\l::checkDedicatedAllocExtensions">
<polygon fill="white" stroke="black" points="314,-245.5 314,-275.5 477,-275.5 477,-245.5 314,-245.5"/>
<text text-anchor="start" x="322" y="-263.5" font-family="Helvetica,sans-Serif" font-size="10.00">vpr::DeviceDataMembers</text>
<text text-anchor="middle" x="395.5" y="-252.5" font-family="Helvetica,sans-Serif" font-size="10.00">::checkDedicatedAllocExtensions</text>
</a>
</g>
</g>
<!-- Node39&#45;&gt;Node42 -->
<g id="edge8" class="edge"><title>Node39&#45;&gt;Node42</title>
<path fill="none" stroke="midnightblue" d="M242.792,-299.936C266.657,-293.732 298.469,-285.463 326.798,-278.099"/>
<polygon fill="midnightblue" stroke="midnightblue" points="327.856,-281.44 336.654,-275.537 326.095,-274.665 327.856,-281.44"/>
</g>
<!-- Node44 -->
<g id="node11" class="node"><title>Node44</title>
<g id="a_node11"><a xlink:href="classvpr_1_1_device.html#adbe15d529a11af4d7034a2135255e773" target="_top" xlink:title="vpr::Device::setupGraphics\lQueues">
<polygon fill="white" stroke="black" points="329.5,-147.5 329.5,-177.5 461.5,-177.5 461.5,-147.5 329.5,-147.5"/>
<text text-anchor="start" x="337.5" y="-165.5" font-family="Helvetica,sans-Serif" font-size="10.00">vpr::Device::setupGraphics</text>
<text text-anchor="middle" x="395.5" y="-154.5" font-family="Helvetica,sans-Serif" font-size="10.00">Queues</text>
</a>
</g>
</g>
<!-- Node43&#45;&gt;Node44 -->
<g id="edge10" class="edge"><title>Node43&#45;&gt;Node44</title>
<path fill="none" stroke="midnightblue" d="M268.506,-162.5C284.658,-162.5 302.219,-162.5 318.959,-162.5"/>
<polygon fill="midnightblue" stroke="midnightblue" points="319.257,-166 329.257,-162.5 319.257,-159 319.257,-166"/>
</g>
<!-- Node48 -->
<g id="node15" class="node"><title>Node48</title>
<g id="a_node15"><a xlink:href="classvpr_1_1_device.html#abdb29331fbcc15a242b3f0e82b02beef" target="_top" xlink:title="vpr::Device::setupCompute\lQueues">
<polygon fill="white" stroke="black" points="329.5,-98.5 329.5,-128.5 461.5,-128.5 461.5,-98.5 329.5,-98.5"/>
<text text-anchor="start" x="337.5" y="-116.5" font-family="Helvetica,sans-Serif" font-size="10.00">vpr::Device::setupCompute</text>
<text text-anchor="middle" x="395.5" y="-105.5" font-family="Helvetica,sans-Serif" font-size="10.00">Queues</text>
</a>
</g>
</g>
<!-- Node43&#45;&gt;Node48 -->
<g id="edge15" class="edge"><title>Node43&#45;&gt;Node48</title>
<path fill="none" stroke="midnightblue" d="M242.792,-152.936C266.657,-146.732 298.469,-138.463 326.798,-131.099"/>
<polygon fill="midnightblue" stroke="midnightblue" points="327.856,-134.44 336.654,-128.537 326.095,-127.665 327.856,-134.44"/>
</g>
<!-- Node49 -->
<g id="node16" class="node"><title>Node49</title>
<g id="a_node16"><a xlink:href="classvpr_1_1_device.html#aa64b2412561fa0950722c2dc4997da9f" target="_top" xlink:title="vpr::Device::setupTransfer\lQueues">
<polygon fill="white" stroke="black" points="331.5,-49.5 331.5,-79.5 459.5,-79.5 459.5,-49.5 331.5,-49.5"/>
<text text-anchor="start" x="339.5" y="-67.5" font-family="Helvetica,sans-Serif" font-size="10.00">vpr::Device::setupTransfer</text>
<text text-anchor="middle" x="395.5" y="-56.5" font-family="Helvetica,sans-Serif" font-size="10.00">Queues</text>
</a>
</g>
</g>
<!-- Node43&#45;&gt;Node49 -->
<g id="edge19" class="edge"><title>Node43&#45;&gt;Node49</title>
<path fill="none" stroke="midnightblue" d="M231.289,-152.957C245.719,-146.859 263.719,-138.109 278,-127.5 296.936,-113.433 293.984,-100.981 314,-88.5 316.637,-86.8554 319.394,-85.3183 322.231,-83.8823"/>
<polygon fill="midnightblue" stroke="midnightblue" points="323.882,-86.9754 331.519,-79.6315 320.969,-80.6103 323.882,-86.9754"/>
</g>
<!-- Node50 -->
<g id="node17" class="node"><title>Node50</title>
<g id="a_node17"><a xlink:href="classvpr_1_1_device.html#a22ee8e6517d4898282d9d6385545100a" target="_top" xlink:title="vpr::Device::setupSparse\lBindingQueues">
<polygon fill="white" stroke="black" points="333.5,-196.5 333.5,-226.5 457.5,-226.5 457.5,-196.5 333.5,-196.5"/>
<text text-anchor="start" x="341.5" y="-214.5" font-family="Helvetica,sans-Serif" font-size="10.00">vpr::Device::setupSparse</text>
<text text-anchor="middle" x="395.5" y="-203.5" font-family="Helvetica,sans-Serif" font-size="10.00">BindingQueues</text>
</a>
</g>
</g>
<!-- Node43&#45;&gt;Node50 -->
<g id="edge23" class="edge"><title>Node43&#45;&gt;Node50</title>
<path fill="none" stroke="midnightblue" d="M242.792,-172.064C266.657,-178.268 298.469,-186.537 326.798,-193.901"/>
<polygon fill="midnightblue" stroke="midnightblue" points="326.095,-197.335 336.654,-196.463 327.856,-190.56 326.095,-197.335"/>
</g>
<!-- Node45 -->
<g id="node12" class="node"><title>Node45</title>
<g id="a_node12"><a xlink:href="classvpr_1_1_physical_device.html#af443c2a585d182166c464f252782a57b" target="_top" xlink:title="! Attempts to find a Queue family that supports the full bitfield given: this can be multiple types...">
<polygon fill="white" stroke="black" points="700,-101.5 700,-131.5 819,-131.5 819,-101.5 700,-101.5"/>
<text text-anchor="start" x="708" y="-119.5" font-family="Helvetica,sans-Serif" font-size="10.00">vpr::PhysicalDevice</text>
<text text-anchor="middle" x="759.5" y="-108.5" font-family="Helvetica,sans-Serif" font-size="10.00">::GetQueueFamilyIndex</text>
</a>
</g>
</g>
<!-- Node44&#45;&gt;Node45 -->
<g id="edge11" class="edge"><title>Node44&#45;&gt;Node45</title>
<path fill="none" stroke="midnightblue" d="M453.676,-177.546C508.767,-189.409 593.853,-200.739 664,-179.5 690.676,-171.423 716.704,-153.059 734.667,-138.23"/>
<polygon fill="midnightblue" stroke="midnightblue" points="736.976,-140.86 742.326,-131.715 732.441,-135.528 736.976,-140.86"/>
</g>
<!-- Node46 -->
<g id="node13" class="node"><title>Node46</title>
<g id="a_node13"><a xlink:href="classvpr_1_1_device.html#a4884447888b9c8aacc288591056db19d" target="_top" xlink:title="vpr::Device::setupQueueFamily">
<polygon fill="white" stroke="black" points="513,-151 513,-170 664,-170 664,-151 513,-151"/>
<text text-anchor="middle" x="588.5" y="-158" font-family="Helvetica,sans-Serif" font-size="10.00">vpr::Device::setupQueueFamily</text>
</a>
</g>
</g>
<!-- Node44&#45;&gt;Node46 -->
<g id="edge12" class="edge"><title>Node44&#45;&gt;Node46</title>
<path fill="none" stroke="midnightblue" d="M461.697,-161.817C474.787,-161.68 488.724,-161.534 502.375,-161.391"/>
<polygon fill="midnightblue" stroke="midnightblue" points="502.777,-164.887 512.74,-161.283 502.704,-157.888 502.777,-164.887"/>
</g>
<!-- Node47 -->
<g id="node14" class="node"><title>Node47</title>
<g id="a_node14"><a xlink:href="classvpr_1_1_physical_device.html#a2ee4f96b16a9762953ecad3b658d84e6" target="_top" xlink:title="vpr::PhysicalDevice\l::GetQueueFamilyProperties">
<polygon fill="white" stroke="black" points="518.5,-101.5 518.5,-131.5 658.5,-131.5 658.5,-101.5 518.5,-101.5"/>
<text text-anchor="start" x="526.5" y="-119.5" font-family="Helvetica,sans-Serif" font-size="10.00">vpr::PhysicalDevice</text>
<text text-anchor="middle" x="588.5" y="-108.5" font-family="Helvetica,sans-Serif" font-size="10.00">::GetQueueFamilyProperties</text>
</a>
</g>
</g>
<!-- Node44&#45;&gt;Node47 -->
<g id="edge13" class="edge"><title>Node44&#45;&gt;Node47</title>
<path fill="none" stroke="midnightblue" d="M459.041,-147.438C477.024,-143.107 496.784,-138.348 515.3,-133.888"/>
<polygon fill="midnightblue" stroke="midnightblue" points="516.243,-137.262 525.145,-131.517 514.604,-130.456 516.243,-137.262"/>
</g>
<!-- Node47&#45;&gt;Node45 -->
<g id="edge14" class="edge"><title>Node47&#45;&gt;Node45</title>
<path fill="none" stroke="midnightblue" d="M658.726,-116.5C668.981,-116.5 679.547,-116.5 689.791,-116.5"/>
<polygon fill="midnightblue" stroke="midnightblue" points="689.905,-120 699.905,-116.5 689.905,-113 689.905,-120"/>
</g>
<!-- Node48&#45;&gt;Node45 -->
<g id="edge16" class="edge"><title>Node48&#45;&gt;Node45</title>
<path fill="none" stroke="midnightblue" d="M461.508,-99.0054C478.203,-95.8952 496.195,-93.0728 513,-91.5 579.819,-85.2462 597.449,-82.8458 664,-91.5 676.35,-93.1059 689.384,-95.8454 701.696,-98.9366"/>
<polygon fill="midnightblue" stroke="midnightblue" points="700.828,-102.327 711.388,-101.476 702.602,-95.5557 700.828,-102.327"/>
</g>
<!-- Node48&#45;&gt;Node46 -->
<g id="edge17" class="edge"><title>Node48&#45;&gt;Node46</title>
<path fill="none" stroke="midnightblue" d="M457.459,-128.5C483.75,-134.97 514.078,-142.433 538.829,-148.523"/>
<polygon fill="midnightblue" stroke="midnightblue" points="538.17,-151.966 548.717,-150.957 539.843,-145.168 538.17,-151.966"/>
</g>
<!-- Node48&#45;&gt;Node47 -->
<g id="edge18" class="edge"><title>Node48&#45;&gt;Node47</title>
<path fill="none" stroke="midnightblue" d="M461.697,-114.524C476.679,-114.759 492.771,-115.012 508.273,-115.256"/>
<polygon fill="midnightblue" stroke="midnightblue" points="508.304,-118.756 518.358,-115.414 508.414,-111.757 508.304,-118.756"/>
</g>
<!-- Node49&#45;&gt;Node45 -->
<g id="edge20" class="edge"><title>Node49&#45;&gt;Node45</title>
<path fill="none" stroke="midnightblue" d="M459.598,-63.8322C514.232,-64.4165 595.092,-68.0806 664,-82.5 680.818,-86.0193 698.692,-91.8674 714.316,-97.7299"/>
<polygon fill="midnightblue" stroke="midnightblue" points="713.134,-101.025 723.724,-101.361 715.655,-94.495 713.134,-101.025"/>
</g>
<!-- Node49&#45;&gt;Node46 -->
<g id="edge21" class="edge"><title>Node49&#45;&gt;Node46</title>
<path fill="none" stroke="midnightblue" d="M459.586,-78.6834C465.755,-81.4069 471.688,-84.6469 477,-88.5 499.754,-105.003 490.021,-124.311 513,-140.5 516.449,-142.93 520.176,-145.064 524.063,-146.939"/>
<polygon fill="midnightblue" stroke="midnightblue" points="522.787,-150.2 533.361,-150.861 525.507,-143.75 522.787,-150.2"/>
</g>
<!-- Node49&#45;&gt;Node47 -->
<g id="edge22" class="edge"><title>Node49&#45;&gt;Node47</title>
<path fill="none" stroke="midnightblue" d="M451.745,-79.5406C473.918,-85.5771 499.634,-92.5784 522.683,-98.8534"/>
<polygon fill="midnightblue" stroke="midnightblue" points="521.811,-102.243 532.379,-101.493 523.65,-95.4892 521.811,-102.243"/>
</g>
<!-- Node50&#45;&gt;Node45 -->
<g id="edge24" class="edge"><title>Node50&#45;&gt;Node45</title>
<path fill="none" stroke="midnightblue" d="M457.616,-219.962C513.465,-225.138 597.266,-226.369 664,-199.5 695.333,-186.885 723.304,-159.21 740.535,-139.282"/>
<polygon fill="midnightblue" stroke="midnightblue" points="743.28,-141.456 747.027,-131.545 737.918,-136.956 743.28,-141.456"/>
</g>
<!-- Node50&#45;&gt;Node46 -->
<g id="edge25" class="edge"><title>Node50&#45;&gt;Node46</title>
<path fill="none" stroke="midnightblue" d="M452.773,-196.474C481.167,-188.892 515.161,-179.816 541.898,-172.676"/>
<polygon fill="midnightblue" stroke="midnightblue" points="543.005,-176.004 551.763,-170.042 541.199,-169.241 543.005,-176.004"/>
</g>
<!-- Node50&#45;&gt;Node47 -->
<g id="edge26" class="edge"><title>Node50&#45;&gt;Node47</title>
<path fill="none" stroke="midnightblue" d="M457.662,-196.822C464.471,-193.95 471.076,-190.541 477,-186.5 498.159,-172.068 492.005,-156.171 513,-141.5 515.74,-139.585 518.638,-137.808 521.638,-136.16"/>
<polygon fill="midnightblue" stroke="midnightblue" points="523.474,-139.157 530.892,-131.592 520.375,-132.88 523.474,-139.157"/>
</g>
<!-- Node51&#45;&gt;Node37 -->
<g id="edge28" class="edge"><title>Node51&#45;&gt;Node37</title>
<path fill="none" stroke="midnightblue" d="M273.254,-430.42C290.066,-432.649 308.129,-435.045 325.044,-437.288"/>
<polygon fill="midnightblue" stroke="midnightblue" points="325.034,-440.818 335.407,-438.663 325.954,-433.878 325.034,-440.818"/>
</g>
<!-- Node52&#45;&gt;Node53 -->
<g id="edge30" class="edge"><title>Node52&#45;&gt;Node53</title>
<path fill="none" stroke="midnightblue" d="M227.897,-88.3415C249.132,-74.1777 282.65,-53.2134 314,-39.5 320.706,-36.5668 327.876,-33.8612 335.071,-31.4068"/>
<polygon fill="midnightblue" stroke="midnightblue" points="336.433,-34.6441 344.857,-28.2177 334.264,-27.9886 336.433,-34.6441"/>
</g>
</g>
</svg>
