<?xml version="1.0" encoding="UTF-8" standalone="no"?>
<!DOCTYPE svg PUBLIC "-//W3C//DTD SVG 1.1//EN"
 "http://www.w3.org/Graphics/SVG/1.1/DTD/svg11.dtd">
<!-- Generated by graphviz version 2.38.0 (20140413.2041)
 -->
<!-- Title: el::Logger::initUnflushedCount Pages: 1 -->
<svg width="803pt" height="243pt"
 viewBox="0.00 0.00 803.00 243.00" xmlns="http://www.w3.org/2000/svg" xmlns:xlink="http://www.w3.org/1999/xlink">
<g id="graph0" class="graph" transform="scale(1 1) rotate(0) translate(4 239)">
<title>el::Logger::initUnflushedCount</title>
<polygon fill="white" stroke="none" points="-4,4 -4,-239 799,-239 799,4 -4,4"/>
<!-- Node101 -->
<g id="node1" class="node"><title>Node101</title>
<polygon fill="#bfbfbf" stroke="black" points="0,-122.5 0,-152.5 121,-152.5 121,-122.5 0,-122.5"/>
<text text-anchor="start" x="8" y="-140.5" font-family="Helvetica,sans-Serif" font-size="10.00">el::Logger::initUnflushed</text>
<text text-anchor="middle" x="60.5" y="-129.5" font-family="Helvetica,sans-Serif" font-size="10.00">Count</text>
</g>
<!-- Node102 -->
<g id="node2" class="node"><title>Node102</title>
<g id="a_node2"><a xlink:href="classel_1_1_logger.html#ad9db621dbf8977bf814dc7baea8dcee4" target="_top" xlink:title="Configures the logger using specified configurations. ">
<polygon fill="white" stroke="black" points="157,-147 157,-166 261,-166 261,-147 157,-147"/>
<text text-anchor="middle" x="209" y="-154" font-family="Helvetica,sans-Serif" font-size="10.00">el::Logger::configure</text>
</a>
</g>
</g>
<!-- Node101&#45;&gt;Node102 -->
<g id="edge1" class="edge"><title>Node101&#45;&gt;Node102</title>
<path fill="none" stroke="midnightblue" d="M131.202,-146.54C139.869,-147.664 148.603,-148.797 156.916,-149.875"/>
<polygon fill="midnightblue" stroke="midnightblue" points="131.454,-143.043 121.087,-145.228 130.554,-149.985 131.454,-143.043"/>
</g>
<!-- Node113 -->
<g id="node13" class="node"><title>Node113</title>
<g id="a_node13"><a xlink:href="classel_1_1_logger.html#a59b1c5a0f8c5c670e59d2f69f9e39fbb" target="_top" xlink:title="el::Logger::Logger">
<polygon fill="white" stroke="black" points="161.5,-109 161.5,-128 256.5,-128 256.5,-109 161.5,-109"/>
<text text-anchor="middle" x="209" y="-116" font-family="Helvetica,sans-Serif" font-size="10.00">el::Logger::Logger</text>
</a>
</g>
</g>
<!-- Node101&#45;&gt;Node113 -->
<g id="edge12" class="edge"><title>Node101&#45;&gt;Node113</title>
<path fill="none" stroke="midnightblue" d="M131.277,-128.45C141.528,-127.121 151.869,-125.78 161.496,-124.531"/>
<polygon fill="midnightblue" stroke="midnightblue" points="130.554,-125.015 121.087,-129.772 131.454,-131.957 130.554,-125.015"/>
</g>
<!-- Node103 -->
<g id="node3" class="node"><title>Node103</title>
<g id="a_node3"><a xlink:href="classel_1_1_loggers.html#adedfcc17831fe3d3f14026c91e8df88c" target="_top" xlink:title="Sets configurations from global configuration file. ">
<polygon fill="white" stroke="black" points="297,-204.5 297,-234.5 429,-234.5 429,-204.5 297,-204.5"/>
<text text-anchor="start" x="305" y="-222.5" font-family="Helvetica,sans-Serif" font-size="10.00">el::Loggers::configureFrom</text>
<text text-anchor="middle" x="363" y="-211.5" font-family="Helvetica,sans-Serif" font-size="10.00">Global</text>
</a>
</g>
</g>
<!-- Node102&#45;&gt;Node103 -->
<g id="edge2" class="edge"><title>Node102&#45;&gt;Node103</title>
<path fill="none" stroke="midnightblue" d="M240.571,-170.251C257.186,-177.623 278.136,-186.757 297,-194.5 305.053,-197.806 313.718,-201.229 322.014,-204.443"/>
<polygon fill="midnightblue" stroke="midnightblue" points="241.897,-167.01 231.339,-166.137 239.049,-173.404 241.897,-167.01"/>
</g>
<!-- Node104 -->
<g id="node4" class="node"><title>Node104</title>
<g id="a_node4"><a xlink:href="classel_1_1_logger.html#a43abea8865d7316f05c8a676a8c04896" target="_top" xlink:title="el::Logger::Logger">
<polygon fill="white" stroke="black" points="315.5,-166 315.5,-185 410.5,-185 410.5,-166 315.5,-166"/>
<text text-anchor="middle" x="363" y="-173" font-family="Helvetica,sans-Serif" font-size="10.00">el::Logger::Logger</text>
</a>
</g>
</g>
<!-- Node102&#45;&gt;Node104 -->
<g id="edge3" class="edge"><title>Node102&#45;&gt;Node104</title>
<path fill="none" stroke="midnightblue" d="M271.116,-164.14C285.898,-165.987 301.461,-167.933 315.449,-169.681"/>
<polygon fill="midnightblue" stroke="midnightblue" points="271.394,-160.647 261.037,-162.88 270.525,-167.593 271.394,-160.647"/>
</g>
<!-- Node105 -->
<g id="node5" class="node"><title>Node105</title>
<g id="a_node5"><a xlink:href="classel_1_1_logger.html#adfd57ab27fb398cc980a3edfab92927e" target="_top" xlink:title="Reconfigures logger using existing configurations. ">
<polygon fill="white" stroke="black" points="306.5,-128 306.5,-147 419.5,-147 419.5,-128 306.5,-128"/>
<text text-anchor="middle" x="363" y="-135" font-family="Helvetica,sans-Serif" font-size="10.00">el::Logger::reconfigure</text>
</a>
</g>
</g>
<!-- Node102&#45;&gt;Node105 -->
<g id="edge4" class="edge"><title>Node102&#45;&gt;Node105</title>
<path fill="none" stroke="midnightblue" d="M271.127,-148.859C282.784,-147.402 294.926,-145.884 306.399,-144.45"/>
<polygon fill="midnightblue" stroke="midnightblue" points="270.525,-145.407 261.037,-150.12 271.394,-152.353 270.525,-145.407"/>
</g>
<!-- Node109 -->
<g id="node9" class="node"><title>Node109</title>
<g id="a_node9"><a xlink:href="classel_1_1_loggers.html#a02223004494a404a2c3e7cd0c4380d3b" target="_top" xlink:title="Reconfigures specified logger with new configurations. ">
<polygon fill="white" stroke="black" points="304,-49.5 304,-79.5 422,-79.5 422,-49.5 304,-49.5"/>
<text text-anchor="start" x="312" y="-67.5" font-family="Helvetica,sans-Serif" font-size="10.00">el::Loggers::reconfigure</text>
<text text-anchor="middle" x="363" y="-56.5" font-family="Helvetica,sans-Serif" font-size="10.00">Logger</text>
</a>
</g>
</g>
<!-- Node102&#45;&gt;Node109 -->
<g id="edge8" class="edge"><title>Node102&#45;&gt;Node109</title>
<path fill="none" stroke="midnightblue" d="M249.186,-143.142C253.244,-141.393 257.251,-139.506 261,-137.5 292.286,-120.763 324.937,-95.5108 344.365,-79.5227"/>
<polygon fill="midnightblue" stroke="midnightblue" points="247.684,-139.974 239.72,-146.963 250.304,-146.466 247.684,-139.974"/>
</g>
<!-- Node106 -->
<g id="node6" class="node"><title>Node106</title>
<g id="a_node6"><a xlink:href="classel_1_1base_1_1_storage.html#a4932a8f8a55c3b00467cf2feed6acf59" target="_top" xlink:title="el::base::Storage::\lStorage">
<polygon fill="white" stroke="black" points="475.5,-196.5 475.5,-226.5 572.5,-226.5 572.5,-196.5 475.5,-196.5"/>
<text text-anchor="start" x="483.5" y="-214.5" font-family="Helvetica,sans-Serif" font-size="10.00">el::base::Storage::</text>
<text text-anchor="middle" x="524" y="-203.5" font-family="Helvetica,sans-Serif" font-size="10.00">Storage</text>
</a>
</g>
</g>
<!-- Node105&#45;&gt;Node106 -->
<g id="edge5" class="edge"><title>Node105&#45;&gt;Node106</title>
<path fill="none" stroke="midnightblue" d="M415.782,-150.409C420.357,-152.21 424.829,-154.234 429,-156.5 447.554,-166.579 447.017,-176.434 465,-187.5 470.29,-190.755 476.1,-193.751 481.936,-196.441"/>
<polygon fill="midnightblue" stroke="midnightblue" points="416.906,-147.094 406.312,-147.016 414.546,-153.683 416.906,-147.094"/>
</g>
<!-- Node107 -->
<g id="node7" class="node"><title>Node107</title>
<g id="a_node7"><a xlink:href="classel_1_1_loggers.html#a89ec21259cfcfee3f761fca68c4ec043" target="_top" xlink:title="Reconfigures logger&#39;s single configuration. ">
<polygon fill="white" stroke="black" points="465,-147.5 465,-177.5 583,-177.5 583,-147.5 465,-147.5"/>
<text text-anchor="start" x="473" y="-165.5" font-family="Helvetica,sans-Serif" font-size="10.00">el::Loggers::reconfigure</text>
<text text-anchor="middle" x="524" y="-154.5" font-family="Helvetica,sans-Serif" font-size="10.00">Logger</text>
</a>
</g>
</g>
<!-- Node105&#45;&gt;Node107 -->
<g id="edge6" class="edge"><title>Node105&#45;&gt;Node107</title>
<path fill="none" stroke="midnightblue" d="M429.751,-147.838C441.44,-149.676 453.538,-151.578 464.993,-153.379"/>
<polygon fill="midnightblue" stroke="midnightblue" points="430.033,-144.34 419.61,-146.244 428.945,-151.255 430.033,-144.34"/>
</g>
<!-- Node108 -->
<g id="node8" class="node"><title>Node108</title>
<g id="a_node8"><a xlink:href="classel_1_1_loggers.html#a396b601e204ede36f5a9acc76a8c5585" target="_top" xlink:title="Reconfigures single configuration for all the loggers for specified level. ">
<polygon fill="white" stroke="black" points="465,-98.5 465,-128.5 583,-128.5 583,-98.5 465,-98.5"/>
<text text-anchor="start" x="473" y="-116.5" font-family="Helvetica,sans-Serif" font-size="10.00">el::Loggers::reconfigure</text>
<text text-anchor="middle" x="524" y="-105.5" font-family="Helvetica,sans-Serif" font-size="10.00">AllLoggers</text>
</a>
</g>
</g>
<!-- Node105&#45;&gt;Node108 -->
<g id="edge7" class="edge"><title>Node105&#45;&gt;Node108</title>
<path fill="none" stroke="midnightblue" d="M429.751,-127.575C441.44,-125.811 453.538,-123.985 464.993,-122.256"/>
<polygon fill="midnightblue" stroke="midnightblue" points="428.976,-124.153 419.61,-129.106 430.021,-131.074 428.976,-124.153"/>
</g>
<!-- Node110 -->
<g id="node10" class="node"><title>Node110</title>
<g id="a_node10"><a xlink:href="classel_1_1_loggers.html#af3252cc39fa4ac17b4abf50acf6b4c5e" target="_top" xlink:title="Reconfigures logger with new configurations after looking it up using identity. ">
<polygon fill="white" stroke="black" points="465,-49.5 465,-79.5 583,-79.5 583,-49.5 465,-49.5"/>
<text text-anchor="start" x="473" y="-67.5" font-family="Helvetica,sans-Serif" font-size="10.00">el::Loggers::reconfigure</text>
<text text-anchor="middle" x="524" y="-56.5" font-family="Helvetica,sans-Serif" font-size="10.00">Logger</text>
</a>
</g>
</g>
<!-- Node109&#45;&gt;Node110 -->
<g id="edge9" class="edge"><title>Node109&#45;&gt;Node110</title>
<path fill="none" stroke="midnightblue" d="M432.551,-64.5C443.355,-64.5 454.434,-64.5 464.97,-64.5"/>
<polygon fill="midnightblue" stroke="midnightblue" points="432.303,-61.0001 422.303,-64.5 432.303,-68.0001 432.303,-61.0001"/>
</g>
<!-- Node111 -->
<g id="node11" class="node"><title>Node111</title>
<g id="a_node11"><a xlink:href="classel_1_1_loggers.html#a42f99e79d72d391df563df8d09272194" target="_top" xlink:title="Reconfigures all the existing loggers with new configurations. ">
<polygon fill="white" stroke="black" points="465,-0.5 465,-30.5 583,-30.5 583,-0.5 465,-0.5"/>
<text text-anchor="start" x="473" y="-18.5" font-family="Helvetica,sans-Serif" font-size="10.00">el::Loggers::reconfigure</text>
<text text-anchor="middle" x="524" y="-7.5" font-family="Helvetica,sans-Serif" font-size="10.00">AllLoggers</text>
</a>
</g>
</g>
<!-- Node109&#45;&gt;Node111 -->
<g id="edge10" class="edge"><title>Node109&#45;&gt;Node111</title>
<path fill="none" stroke="midnightblue" d="M422.775,-46.3871C439.678,-41.1778 457.926,-35.5543 474.159,-30.5516"/>
<polygon fill="midnightblue" stroke="midnightblue" points="421.528,-43.1086 413.003,-49.3986 423.59,-49.7982 421.528,-43.1086"/>
</g>
<!-- Node112 -->
<g id="node12" class="node"><title>Node112</title>
<g id="a_node12"><a xlink:href="classel_1_1_loggers.html#a3f478b619f82cab39244ed8cde4778e2" target="_top" xlink:title="Sets default configurations. This configuration is used for future (and conditionally for existing) l...">
<polygon fill="white" stroke="black" points="619,-6 619,-25 795,-25 795,-6 619,-6"/>
<text text-anchor="middle" x="707" y="-13" font-family="Helvetica,sans-Serif" font-size="10.00">el::Loggers::setDefaultConfigurations</text>
</a>
</g>
</g>
<!-- Node111&#45;&gt;Node112 -->
<g id="edge11" class="edge"><title>Node111&#45;&gt;Node112</title>
<path fill="none" stroke="midnightblue" d="M593.299,-15.5C601.65,-15.5 610.271,-15.5 618.851,-15.5"/>
<polygon fill="midnightblue" stroke="midnightblue" points="593.266,-12.0001 583.266,-15.5 593.266,-19.0001 593.266,-12.0001"/>
</g>
</g>
</svg>
