<?xml version="1.0" encoding="UTF-8" standalone="no"?>
<!DOCTYPE svg PUBLIC "-//W3C//DTD SVG 1.1//EN"
 "http://www.w3.org/Graphics/SVG/1.1/DTD/svg11.dtd">
<!-- Generated by graphviz version 2.38.0 (20140413.2041)
 -->
<!-- Title: vpr::Allocator::GetPreferredBlockSize Pages: 1 -->
<svg width="761pt" height="88pt"
 viewBox="0.00 0.00 761.00 88.00" xmlns="http://www.w3.org/2000/svg" xmlns:xlink="http://www.w3.org/1999/xlink">
<g id="graph0" class="graph" transform="scale(1 1) rotate(0) translate(4 84)">
<title>vpr::Allocator::GetPreferredBlockSize</title>
<polygon fill="white" stroke="none" points="-4,4 -4,-84 757,-84 757,4 -4,4"/>
<!-- Node230 -->
<g id="node1" class="node"><title>Node230</title>
<polygon fill="#bfbfbf" stroke="black" points="0,-24.5 0,-54.5 134,-54.5 134,-24.5 0,-24.5"/>
<text text-anchor="start" x="8" y="-42.5" font-family="Helvetica,sans-Serif" font-size="10.00">vpr::Allocator::GetPreferred</text>
<text text-anchor="middle" x="67" y="-31.5" font-family="Helvetica,sans-Serif" font-size="10.00">BlockSize</text>
</g>
<!-- Node231 -->
<g id="node2" class="node"><title>Node231</title>
<g id="a_node2"><a xlink:href="classvpr_1_1_allocator.html#a40618202c2c86027ee1915cadbc18afd" target="_top" xlink:title="vpr::Allocator::allocate\lMemoryType">
<polygon fill="white" stroke="black" points="170,-24.5 170,-54.5 283,-54.5 283,-24.5 170,-24.5"/>
<text text-anchor="start" x="178" y="-42.5" font-family="Helvetica,sans-Serif" font-size="10.00">vpr::Allocator::allocate</text>
<text text-anchor="middle" x="226.5" y="-31.5" font-family="Helvetica,sans-Serif" font-size="10.00">MemoryType</text>
</a>
</g>
</g>
<!-- Node230&#45;&gt;Node231 -->
<g id="edge1" class="edge"><title>Node230&#45;&gt;Node231</title>
<path fill="none" stroke="midnightblue" d="M144.613,-39.5C153.072,-39.5 161.564,-39.5 169.698,-39.5"/>
<polygon fill="midnightblue" stroke="midnightblue" points="144.338,-36.0001 134.338,-39.5 144.338,-43.0001 144.338,-36.0001"/>
</g>
<!-- Node232 -->
<g id="node3" class="node"><title>Node232</title>
<g id="a_node3"><a xlink:href="classvpr_1_1_allocator.html#a1d36e3567e4fd7ef8bf1395942f6c714" target="_top" xlink:title="vpr::Allocator::Allocate\lMemory">
<polygon fill="white" stroke="black" points="319,-24.5 319,-54.5 433,-54.5 433,-24.5 319,-24.5"/>
<text text-anchor="start" x="327" y="-42.5" font-family="Helvetica,sans-Serif" font-size="10.00">vpr::Allocator::Allocate</text>
<text text-anchor="middle" x="376" y="-31.5" font-family="Helvetica,sans-Serif" font-size="10.00">Memory</text>
</a>
</g>
</g>
<!-- Node231&#45;&gt;Node232 -->
<g id="edge2" class="edge"><title>Node231&#45;&gt;Node232</title>
<path fill="none" stroke="midnightblue" d="M293.437,-39.5C301.859,-39.5 310.417,-39.5 318.668,-39.5"/>
<polygon fill="midnightblue" stroke="midnightblue" points="293.263,-36.0001 283.263,-39.5 293.263,-43.0001 293.263,-36.0001"/>
</g>
<!-- Node233 -->
<g id="node4" class="node"><title>Node233</title>
<g id="a_node4"><a xlink:href="classvpr_1_1_allocator.html#aa8aad8539721142d8dfa92a3196ab90b" target="_top" xlink:title="vpr::Allocator::Allocate\lForBuffer">
<polygon fill="white" stroke="black" points="469,-49.5 469,-79.5 583,-79.5 583,-49.5 469,-49.5"/>
<text text-anchor="start" x="477" y="-67.5" font-family="Helvetica,sans-Serif" font-size="10.00">vpr::Allocator::Allocate</text>
<text text-anchor="middle" x="526" y="-56.5" font-family="Helvetica,sans-Serif" font-size="10.00">ForBuffer</text>
</a>
</g>
</g>
<!-- Node232&#45;&gt;Node233 -->
<g id="edge3" class="edge"><title>Node232&#45;&gt;Node233</title>
<path fill="none" stroke="midnightblue" d="M443.28,-50.696C451.796,-52.1344 460.449,-53.5961 468.782,-55.0037"/>
<polygon fill="midnightblue" stroke="midnightblue" points="443.818,-47.2373 433.375,-49.0227 442.652,-54.1395 443.818,-47.2373"/>
</g>
<!-- Node235 -->
<g id="node6" class="node"><title>Node235</title>
<g id="a_node6"><a xlink:href="classvpr_1_1_allocator.html#a79b5ace2d3d620783793593c99d50d4e" target="_top" xlink:title="vpr::Allocator::Allocate\lForImage">
<polygon fill="white" stroke="black" points="469,-0.5 469,-30.5 583,-30.5 583,-0.5 469,-0.5"/>
<text text-anchor="start" x="477" y="-18.5" font-family="Helvetica,sans-Serif" font-size="10.00">vpr::Allocator::Allocate</text>
<text text-anchor="middle" x="526" y="-7.5" font-family="Helvetica,sans-Serif" font-size="10.00">ForImage</text>
</a>
</g>
</g>
<!-- Node232&#45;&gt;Node235 -->
<g id="edge5" class="edge"><title>Node232&#45;&gt;Node235</title>
<path fill="none" stroke="midnightblue" d="M443.28,-28.7519C451.796,-27.371 460.449,-25.9678 468.782,-24.6164"/>
<polygon fill="midnightblue" stroke="midnightblue" points="442.685,-25.3025 433.375,-30.3582 443.806,-32.2122 442.685,-25.3025"/>
</g>
<!-- Node234 -->
<g id="node5" class="node"><title>Node234</title>
<g id="a_node5"><a xlink:href="classvpr_1_1_allocator.html#a98ce3e7a210998e2e6723079ae2bb8ff" target="_top" xlink:title="vpr::Allocator::CreateBuffer">
<polygon fill="white" stroke="black" points="620,-55 620,-74 752,-74 752,-55 620,-55"/>
<text text-anchor="middle" x="686" y="-62" font-family="Helvetica,sans-Serif" font-size="10.00">vpr::Allocator::CreateBuffer</text>
</a>
</g>
</g>
<!-- Node233&#45;&gt;Node234 -->
<g id="edge4" class="edge"><title>Node233&#45;&gt;Node234</title>
<path fill="none" stroke="midnightblue" d="M593.331,-64.5C602.11,-64.5 611.103,-64.5 619.862,-64.5"/>
<polygon fill="midnightblue" stroke="midnightblue" points="593.15,-61.0001 583.15,-64.5 593.15,-68.0001 593.15,-61.0001"/>
</g>
<!-- Node236 -->
<g id="node7" class="node"><title>Node236</title>
<g id="a_node7"><a xlink:href="classvpr_1_1_allocator.html#a2fe7722a4b3f19bd7705a80be50171bb" target="_top" xlink:title="vpr::Allocator::CreateImage">
<polygon fill="white" stroke="black" points="619,-6 619,-25 753,-25 753,-6 619,-6"/>
<text text-anchor="middle" x="686" y="-13" font-family="Helvetica,sans-Serif" font-size="10.00">vpr::Allocator::CreateImage</text>
</a>
</g>
</g>
<!-- Node235&#45;&gt;Node236 -->
<g id="edge6" class="edge"><title>Node235&#45;&gt;Node236</title>
<path fill="none" stroke="midnightblue" d="M593.301,-15.5C601.725,-15.5 610.347,-15.5 618.77,-15.5"/>
<polygon fill="midnightblue" stroke="midnightblue" points="593.15,-12.0001 583.15,-15.5 593.15,-19.0001 593.15,-12.0001"/>
</g>
</g>
</svg>
