<?xml version="1.0" encoding="UTF-8" standalone="no"?>
<!DOCTYPE svg PUBLIC "-//W3C//DTD SVG 1.1//EN"
 "http://www.w3.org/Graphics/SVG/1.1/DTD/svg11.dtd">
<!-- Generated by graphviz version 2.38.0 (20140413.2041)
 -->
<!-- Title: el::base::TypedConfigurations::subsecondPrecision Pages: 1 -->
<svg width="322pt" height="39pt"
 viewBox="0.00 0.00 322.00 39.00" xmlns="http://www.w3.org/2000/svg" xmlns:xlink="http://www.w3.org/1999/xlink">
<g id="graph0" class="graph" transform="scale(1 1) rotate(0) translate(4 35)">
<title>el::base::TypedConfigurations::subsecondPrecision</title>
<polygon fill="white" stroke="none" points="-4,4 -4,-35 318,-35 318,4 -4,4"/>
<!-- Node134 -->
<g id="node1" class="node"><title>Node134</title>
<polygon fill="#bfbfbf" stroke="black" points="0,-0.5 0,-30.5 145,-30.5 145,-0.5 0,-0.5"/>
<text text-anchor="start" x="8" y="-18.5" font-family="Helvetica,sans-Serif" font-size="10.00">el::base::TypedConfigurations</text>
<text text-anchor="middle" x="72.5" y="-7.5" font-family="Helvetica,sans-Serif" font-size="10.00">::subsecondPrecision</text>
</g>
<!-- Node135 -->
<g id="node2" class="node"><title>Node135</title>
<g id="a_node2"><a xlink:href="classel_1_1base_1_1_default_log_builder.html#a9ee7983bc51f1fac887806e909ecbbbd" target="_top" xlink:title="el::base::DefaultLogBuilder\l::build">
<polygon fill="white" stroke="black" points="181,-0.5 181,-30.5 314,-30.5 314,-0.5 181,-0.5"/>
<text text-anchor="start" x="189" y="-18.5" font-family="Helvetica,sans-Serif" font-size="10.00">el::base::DefaultLogBuilder</text>
<text text-anchor="middle" x="247.5" y="-7.5" font-family="Helvetica,sans-Serif" font-size="10.00">::build</text>
</a>
</g>
</g>
<!-- Node134&#45;&gt;Node135 -->
<g id="edge1" class="edge"><title>Node134&#45;&gt;Node135</title>
<path fill="none" stroke="midnightblue" d="M155.145,-15.5C163.733,-15.5 172.384,-15.5 180.759,-15.5"/>
<polygon fill="midnightblue" stroke="midnightblue" points="155.115,-12.0001 145.115,-15.5 155.114,-19.0001 155.115,-12.0001"/>
</g>
</g>
</svg>
