<?xml version="1.0" encoding="UTF-8" standalone="no"?>
<!DOCTYPE svg PUBLIC "-//W3C//DTD SVG 1.1//EN"
 "http://www.w3.org/Graphics/SVG/1.1/DTD/svg11.dtd">
<!-- Generated by graphviz version 2.38.0 (20140413.2041)
 -->
<!-- Title: vpr::MemoryBlock Pages: 1 -->
<svg width="280pt" height="173pt"
 viewBox="0.00 0.00 279.50 173.00" xmlns="http://www.w3.org/2000/svg" xmlns:xlink="http://www.w3.org/1999/xlink">
<g id="graph0" class="graph" transform="scale(1 1) rotate(0) translate(4 169)">
<title>vpr::MemoryBlock</title>
<polygon fill="white" stroke="none" points="-4,4 -4,-169 275.5,-169 275.5,4 -4,4"/>
<!-- Node1 -->
<g id="node1" class="node"><title>Node1</title>
<polygon fill="#bfbfbf" stroke="black" points="94,-0.5 94,-19.5 189,-19.5 189,-0.5 94,-0.5"/>
<text text-anchor="middle" x="141.5" y="-7.5" font-family="Helvetica,sans-Serif" font-size="10.00">vpr::MemoryBlock</text>
</g>
<!-- Node2 -->
<g id="node2" class="node"><title>Node2</title>
<polygon fill="white" stroke="#bfbfbf" points="0,-73 0,-92 125,-92 125,-73 0,-73"/>
<text text-anchor="middle" x="62.5" y="-80" font-family="Helvetica,sans-Serif" font-size="10.00">std::list&lt; Suballocation &gt;</text>
</g>
<!-- Node2&#45;&gt;Node1 -->
<g id="edge1" class="edge"><title>Node2&#45;&gt;Node1</title>
<path fill="none" stroke="#9a32cd" stroke-dasharray="5,2" d="M74.42,-64.645C80.9515,-56.0884 89.5301,-45.8684 98.5,-38 106.585,-30.9082 116.729,-24.4438 125.135,-19.6194"/>
<polygon fill="#9a32cd" stroke="#9a32cd" points="71.5329,-62.6631 68.4238,-72.7915 77.1705,-66.8126 71.5329,-62.6631"/>
<text text-anchor="middle" x="132" y="-41" font-family="Helvetica,sans-Serif" font-size="10.00"> Suballocations</text>
</g>
<!-- Node3 -->
<g id="node3" class="node"><title>Node3</title>
<g id="a_node3"><a xlink:href="structvpr_1_1_suballocation.html" target="_top" xlink:title="During the process of finding a suitable region to bind to, we need to store things like &quot;Suballocati...">
<polygon fill="white" stroke="black" points="16,-145.5 16,-164.5 109,-164.5 109,-145.5 16,-145.5"/>
<text text-anchor="middle" x="62.5" y="-152.5" font-family="Helvetica,sans-Serif" font-size="10.00">vpr::Suballocation</text>
</a>
</g>
</g>
<!-- Node3&#45;&gt;Node2 -->
<g id="edge2" class="edge"><title>Node3&#45;&gt;Node2</title>
<path fill="none" stroke="#9a32cd" stroke-dasharray="5,2" d="M62.5,-134.942C62.5,-121.03 62.5,-102.82 62.5,-92.2154"/>
<polygon fill="#9a32cd" stroke="#9a32cd" points="59.0001,-135.355 62.5,-145.355 66.0001,-135.355 59.0001,-135.355"/>
<text text-anchor="middle" x="84" y="-119" font-family="Helvetica,sans-Serif" font-size="10.00"> elements</text>
</g>
<!-- Node4 -->
<g id="node4" class="node"><title>Node4</title>
<polygon fill="white" stroke="#bfbfbf" points="143.5,-67.5 143.5,-97.5 271.5,-97.5 271.5,-67.5 143.5,-67.5"/>
<text text-anchor="start" x="151.5" y="-85.5" font-family="Helvetica,sans-Serif" font-size="10.00">std::vector&lt; suballocation</text>
<text text-anchor="middle" x="207.5" y="-74.5" font-family="Helvetica,sans-Serif" font-size="10.00">List::iterator &gt;</text>
</g>
<!-- Node4&#45;&gt;Node1 -->
<g id="edge3" class="edge"><title>Node4&#45;&gt;Node1</title>
<path fill="none" stroke="#9a32cd" stroke-dasharray="5,2" d="M187.149,-59.7615C174.588,-46.3439 159.146,-29.8487 149.826,-19.8932"/>
<polygon fill="#9a32cd" stroke="#9a32cd" points="184.755,-62.325 194.144,-67.2333 189.865,-57.541 184.755,-62.325"/>
<text text-anchor="middle" x="219.5" y="-41" font-family="Helvetica,sans-Serif" font-size="10.00"> availSuballocations</text>
</g>
<!-- Node5 -->
<g id="node5" class="node"><title>Node5</title>
<g id="a_node5"><a xlink:title="STL iterator class. ">
<polygon fill="white" stroke="#bfbfbf" points="153.5,-145.5 153.5,-164.5 261.5,-164.5 261.5,-145.5 153.5,-145.5"/>
<text text-anchor="middle" x="207.5" y="-152.5" font-family="Helvetica,sans-Serif" font-size="10.00">std::list&lt; T &gt;::iterator</text>
</a>
</g>
</g>
<!-- Node5&#45;&gt;Node4 -->
<g id="edge4" class="edge"><title>Node5&#45;&gt;Node4</title>
<path fill="none" stroke="#9a32cd" stroke-dasharray="5,2" d="M207.5,-135.236C207.5,-123.408 207.5,-108.383 207.5,-97.5762"/>
<polygon fill="#9a32cd" stroke="#9a32cd" points="204,-135.355 207.5,-145.355 211,-135.355 204,-135.355"/>
<text text-anchor="middle" x="229" y="-119" font-family="Helvetica,sans-Serif" font-size="10.00"> elements</text>
</g>
</g>
</svg>
