<?xml version="1.0" encoding="UTF-8" standalone="no"?>
<!DOCTYPE svg PUBLIC "-//W3C//DTD SVG 1.1//EN"
 "http://www.w3.org/Graphics/SVG/1.1/DTD/svg11.dtd">
<!-- Generated by graphviz version 2.38.0 (20140413.2041)
 -->
<!-- Title: el::Loggers::configureFromGlobal Pages: 1 -->
<!--zoomable 514 -->
<svg id="main" version="1.1" xmlns="http://www.w3.org/2000/svg" xmlns:xlink="http://www.w3.org/1999/xlink" xml:space="preserve" onload="init(evt)">
<style type="text/css"><![CDATA[
.edge:hover path { stroke: red; }
.edge:hover polygon { stroke: red; fill: red; }
]]></style>
<script type="text/javascript"><![CDATA[
var edges = document.getElementsByTagName('g');
if (edges && edges.length) {
  for (var i=0;i<edges.length;i++) {
    if (edges[i].id.substr(0,4)=='edge') {
      edges[i].setAttribute('class','edge');
    }
  }
}
]]></script>
        <defs>
                <circle id="rim" cx="0" cy="0" r="7"/>
                <circle id="rim2" cx="0" cy="0" r="3.5"/>
                <g id="zoomPlus">
                        <use xlink:href="#rim" fill="#404040">
                                <set attributeName="fill" to="#808080" begin="zoomplus.mouseover" end="zoomplus.mouseout"/>
                        </use>
                        <path d="M-4,0h8M0,-4v8" fill="none" stroke="white" stroke-width="1.5" pointer-events="none"/>
                </g>
                <g id="zoomMin">
                        <use xlink:href="#rim" fill="#404040">
                                <set attributeName="fill" to="#808080" begin="zoomminus.mouseover" end="zoomminus.mouseout"/>
                        </use>
                        <path d="M-4,0h8" fill="none" stroke="white" stroke-width="1.5" pointer-events="none"/>
                </g>
                <g id="dirArrow">
                        <path fill="none" stroke="white" stroke-width="1.5" d="M0,-3.0v7 M-2.5,-0.5L0,-3.0L2.5,-0.5"/>
                </g>
               <g id="resetDef">
                       <use xlink:href="#rim2" fill="#404040">
                               <set attributeName="fill" to="#808080" begin="reset.mouseover" end="reset.mouseout"/>
                       </use>
               </g>
        </defs>

<script type="text/javascript">
var viewWidth = 967;
var viewHeight = 514;
var sectionId = 'dynsection-4';
</script>
<script xlink:href="svgpan.js"/>
<svg id="graph" class="graph">
<g id="viewport">
<title>el::Loggers::configureFromGlobal</title>
<polygon fill="white" stroke="none" points="-4,4 -4,-510 963,-510 963,4 -4,4"/>
<!-- Node9 -->
<g id="node1" class="node"><title>Node9</title>
<polygon fill="#bfbfbf" stroke="black" points="0,-137.5 0,-167.5 132,-167.5 132,-137.5 0,-137.5"/>
<text text-anchor="start" x="8" y="-155.5" font-family="Helvetica,sans-Serif" font-size="10.00">el::Loggers::configureFrom</text>
<text text-anchor="middle" x="66" y="-144.5" font-family="Helvetica,sans-Serif" font-size="10.00">Global</text>
</g>
<!-- Node10 -->
<g id="node2" class="node"><title>Node10</title>
<g id="a_node2"><a xlink:href="classel_1_1_logger.html#ad9db621dbf8977bf814dc7baea8dcee4" target="_top" xlink:title="Configures the logger using specified configurations. ">
<polygon fill="white" stroke="black" points="344,-295 344,-314 448,-314 448,-295 344,-295"/>
<text text-anchor="middle" x="396" y="-302" font-family="Helvetica,sans-Serif" font-size="10.00">el::Logger::configure</text>
</a>
</g>
</g>
<!-- Node9&#45;&gt;Node10 -->
<g id="edge1" class="edge"><title>Node9&#45;&gt;Node10</title>
<path fill="none" stroke="midnightblue" d="M75.9685,-167.751C91.3833,-192.474 125.395,-240.908 168,-264.5 219.042,-292.764 285.576,-301.808 333.399,-304.357"/>
<polygon fill="midnightblue" stroke="midnightblue" points="333.463,-307.864 343.61,-304.818 333.779,-300.871 333.463,-307.864"/>
</g>
<!-- Node25 -->
<g id="node17" class="node"><title>Node25</title>
<g id="a_node17"><a xlink:href="classel_1_1_logger.html#a8583bfdeea4cb781396fd635addd64e9" target="_top" xlink:title="el::Logger::id">
<polygon fill="white" stroke="black" points="197,-187 197,-206 270,-206 270,-187 197,-187"/>
<text text-anchor="middle" x="233.5" y="-194" font-family="Helvetica,sans-Serif" font-size="10.00">el::Logger::id</text>
</a>
</g>
</g>
<!-- Node9&#45;&gt;Node25 -->
<g id="edge24" class="edge"><title>Node9&#45;&gt;Node25</title>
<path fill="none" stroke="midnightblue" d="M123.493,-167.519C144.225,-173.031 167.411,-179.195 187.052,-184.417"/>
<polygon fill="midnightblue" stroke="midnightblue" points="186.404,-187.866 196.968,-187.053 188.203,-181.101 186.404,-187.866"/>
</g>
<!-- Node26 -->
<g id="node18" class="node"><title>Node26</title>
<g id="a_node18"><a xlink:href="classel_1_1_configurations_1_1_parser.html#abe21625425296ecefde02d43f3ed69b5" target="_top" xlink:title="el::Configurations\l::Parser::ignoreComments">
<polygon fill="white" stroke="black" points="168,-137.5 168,-167.5 299,-167.5 299,-137.5 168,-137.5"/>
<text text-anchor="start" x="176" y="-155.5" font-family="Helvetica,sans-Serif" font-size="10.00">el::Configurations</text>
<text text-anchor="middle" x="233.5" y="-144.5" font-family="Helvetica,sans-Serif" font-size="10.00">::Parser::ignoreComments</text>
</a>
</g>
</g>
<!-- Node9&#45;&gt;Node26 -->
<g id="edge25" class="edge"><title>Node9&#45;&gt;Node26</title>
<path fill="none" stroke="midnightblue" d="M132.41,-152.5C140.696,-152.5 149.225,-152.5 157.644,-152.5"/>
<polygon fill="midnightblue" stroke="midnightblue" points="157.836,-156 167.836,-152.5 157.836,-149 157.836,-156"/>
</g>
<!-- Node27 -->
<g id="node19" class="node"><title>Node27</title>
<g id="a_node19"><a xlink:href="classel_1_1_configurations_1_1_parser.html#afbf7fb724d1a1a9f0040c966023cc04b" target="_top" xlink:title="el::Configurations\l::Parser::isComment">
<polygon fill="white" stroke="black" points="180,-88.5 180,-118.5 287,-118.5 287,-88.5 180,-88.5"/>
<text text-anchor="start" x="188" y="-106.5" font-family="Helvetica,sans-Serif" font-size="10.00">el::Configurations</text>
<text text-anchor="middle" x="233.5" y="-95.5" font-family="Helvetica,sans-Serif" font-size="10.00">::Parser::isComment</text>
</a>
</g>
</g>
<!-- Node9&#45;&gt;Node27 -->
<g id="edge26" class="edge"><title>Node9&#45;&gt;Node27</title>
<path fill="none" stroke="midnightblue" d="M118.006,-137.399C135.075,-132.345 154.268,-126.662 171.991,-121.415"/>
<polygon fill="midnightblue" stroke="midnightblue" points="173.068,-124.747 181.663,-118.552 171.08,-118.035 173.068,-124.747"/>
</g>
<!-- Node28 -->
<g id="node20" class="node"><title>Node28</title>
<g id="a_node20"><a xlink:href="classel_1_1base_1_1utils_1_1_str.html#a87b8a192300657c907b0678a8d715da2" target="_top" xlink:title="Determines whether or not str starts with specified string. ">
<polygon fill="white" stroke="black" points="349,-66.5 349,-96.5 443,-96.5 443,-66.5 349,-66.5"/>
<text text-anchor="start" x="357" y="-84.5" font-family="Helvetica,sans-Serif" font-size="10.00">el::base::utils::Str</text>
<text text-anchor="middle" x="396" y="-73.5" font-family="Helvetica,sans-Serif" font-size="10.00">::startsWith</text>
</a>
</g>
</g>
<!-- Node9&#45;&gt;Node28 -->
<g id="edge31" class="edge"><title>Node9&#45;&gt;Node28</title>
<path fill="none" stroke="midnightblue" d="M81.3256,-137.266C99.4751,-119.192 132.671,-90.0572 168,-78.5 224.013,-60.1764 292.037,-64.2817 338.931,-70.8662"/>
<polygon fill="midnightblue" stroke="midnightblue" points="338.493,-74.3395 348.899,-72.3477 339.523,-67.4155 338.493,-74.3395"/>
</g>
<!-- Node29 -->
<g id="node21" class="node"><title>Node29</title>
<g id="a_node21"><a xlink:href="classel_1_1_configurations.html#af262a41dff665a11889261137b62af4a" target="_top" xlink:title="Parse configurations from configuration string. ">
<polygon fill="white" stroke="black" points="187.5,-225.5 187.5,-255.5 279.5,-255.5 279.5,-225.5 187.5,-225.5"/>
<text text-anchor="start" x="195.5" y="-243.5" font-family="Helvetica,sans-Serif" font-size="10.00">el::Configurations</text>
<text text-anchor="middle" x="233.5" y="-232.5" font-family="Helvetica,sans-Serif" font-size="10.00">::parseFromText</text>
</a>
</g>
</g>
<!-- Node9&#45;&gt;Node29 -->
<g id="edge28" class="edge"><title>Node9&#45;&gt;Node29</title>
<path fill="none" stroke="midnightblue" d="M88.7683,-167.755C108.767,-181.358 139.535,-201.264 168,-215.5 172.209,-217.605 176.641,-219.652 181.129,-221.608"/>
<polygon fill="midnightblue" stroke="midnightblue" points="179.791,-224.842 190.366,-225.487 182.501,-218.388 179.791,-224.842"/>
</g>
<!-- Node31 -->
<g id="node23" class="node"><title>Node31</title>
<g id="a_node23"><a xlink:href="classel_1_1base_1_1utils_1_1_str.html#a2f1d427fb0893861961dee5c79d05e10" target="_top" xlink:title="el::base::utils::Str\l::trim">
<polygon fill="white" stroke="black" points="186.5,-0.5 186.5,-30.5 280.5,-30.5 280.5,-0.5 186.5,-0.5"/>
<text text-anchor="start" x="194.5" y="-18.5" font-family="Helvetica,sans-Serif" font-size="10.00">el::base::utils::Str</text>
<text text-anchor="middle" x="233.5" y="-7.5" font-family="Helvetica,sans-Serif" font-size="10.00">::trim</text>
</a>
</g>
</g>
<!-- Node9&#45;&gt;Node31 -->
<g id="edge32" class="edge"><title>Node9&#45;&gt;Node31</title>
<path fill="none" stroke="midnightblue" d="M78.2709,-137.293C95.5372,-114.835 130.498,-72.5452 168,-45.5 173.193,-41.7549 178.928,-38.2963 184.773,-35.1618"/>
<polygon fill="midnightblue" stroke="midnightblue" points="186.637,-38.1412 193.985,-30.5082 183.481,-31.8931 186.637,-38.1412"/>
</g>
<!-- Node11 -->
<g id="node3" class="node"><title>Node11</title>
<g id="a_node3"><a xlink:href="classel_1_1base_1_1_typed_configurations.html#a52bd4cc5e6684bc40391c096a8df3c2d" target="_top" xlink:title="el::base::TypedConfigurations\l::configurations">
<polygon fill="white" stroke="black" points="493,-338.5 493,-368.5 638,-368.5 638,-338.5 493,-338.5"/>
<text text-anchor="start" x="501" y="-356.5" font-family="Helvetica,sans-Serif" font-size="10.00">el::base::TypedConfigurations</text>
<text text-anchor="middle" x="565.5" y="-345.5" font-family="Helvetica,sans-Serif" font-size="10.00">::configurations</text>
</a>
</g>
</g>
<!-- Node10&#45;&gt;Node11 -->
<g id="edge2" class="edge"><title>Node10&#45;&gt;Node11</title>
<path fill="none" stroke="midnightblue" d="M429.693,-314.064C450.622,-320.186 478.428,-328.321 503.349,-335.611"/>
<polygon fill="midnightblue" stroke="midnightblue" points="502.518,-339.014 513.098,-338.463 504.483,-332.296 502.518,-339.014"/>
</g>
<!-- Node12 -->
<g id="node4" class="node"><title>Node12</title>
<g id="a_node4"><a xlink:href="classel_1_1_logger.html#a9a89d454008b1ee1a197eec4b92ce22a" target="_top" xlink:title="Flushes logger to sync all log files for all levels. ">
<polygon fill="white" stroke="black" points="522.5,-251 522.5,-270 608.5,-270 608.5,-251 522.5,-251"/>
<text text-anchor="middle" x="565.5" y="-258" font-family="Helvetica,sans-Serif" font-size="10.00">el::Logger::flush</text>
</a>
</g>
</g>
<!-- Node10&#45;&gt;Node12 -->
<g id="edge3" class="edge"><title>Node10&#45;&gt;Node12</title>
<path fill="none" stroke="midnightblue" d="M433.345,-294.953C458.258,-288.408 491.515,-279.672 518.306,-272.635"/>
<polygon fill="midnightblue" stroke="midnightblue" points="519.443,-275.955 528.226,-270.029 517.665,-269.184 519.443,-275.955"/>
</g>
<!-- Node15 -->
<g id="node7" class="node"><title>Node15</title>
<g id="a_node7"><a xlink:href="classel_1_1base_1_1threading_1_1_thread_safe.html#affb45b35790a7305d0a659562c8104fc" target="_top" xlink:title="el::base::threading\l::ThreadSafe::lock">
<polygon fill="white" stroke="black" points="698,-210.5 698,-240.5 795,-240.5 795,-210.5 698,-210.5"/>
<text text-anchor="start" x="706" y="-228.5" font-family="Helvetica,sans-Serif" font-size="10.00">el::base::threading</text>
<text text-anchor="middle" x="746.5" y="-217.5" font-family="Helvetica,sans-Serif" font-size="10.00">::ThreadSafe::lock</text>
</a>
</g>
</g>
<!-- Node10&#45;&gt;Node15 -->
<g id="edge13" class="edge"><title>Node10&#45;&gt;Node15</title>
<path fill="none" stroke="midnightblue" d="M407.525,-294.87C424.208,-280.278 458.394,-253.046 493,-241.5 557.063,-220.127 635.253,-218.655 687.493,-220.889"/>
<polygon fill="midnightblue" stroke="midnightblue" points="687.425,-224.39 697.583,-221.381 687.765,-217.398 687.425,-224.39"/>
</g>
<!-- Node16 -->
<g id="node8" class="node"><title>Node16</title>
<g id="a_node8"><a xlink:href="classel_1_1_configurations.html#a1e812370f896b6429bf46b31fcd4e3e0" target="_top" xlink:title="Determines whether or not specified configuration type exists in the repository. ">
<polygon fill="white" stroke="black" points="518,-475.5 518,-505.5 613,-505.5 613,-475.5 518,-475.5"/>
<text text-anchor="start" x="526" y="-493.5" font-family="Helvetica,sans-Serif" font-size="10.00">el::Configurations</text>
<text text-anchor="middle" x="565.5" y="-482.5" font-family="Helvetica,sans-Serif" font-size="10.00">::hasConfiguration</text>
</a>
</g>
</g>
<!-- Node10&#45;&gt;Node16 -->
<g id="edge7" class="edge"><title>Node10&#45;&gt;Node16</title>
<path fill="none" stroke="midnightblue" d="M400.013,-314.131C409.213,-341.977 439.61,-423.339 493,-466.5 497.632,-470.244 502.874,-473.415 508.365,-476.099"/>
<polygon fill="midnightblue" stroke="midnightblue" points="507.208,-479.412 517.775,-480.171 509.987,-472.988 507.208,-479.412"/>
</g>
<!-- Node17 -->
<g id="node9" class="node"><title>Node17</title>
<g id="a_node9"><a xlink:href="classel_1_1_logger.html#ae7c1d538f6163b6be5d37dafcaf24610" target="_top" xlink:title="el::Logger::initUnflushed\lCount">
<polygon fill="white" stroke="black" points="505,-426.5 505,-456.5 626,-456.5 626,-426.5 505,-426.5"/>
<text text-anchor="start" x="513" y="-444.5" font-family="Helvetica,sans-Serif" font-size="10.00">el::Logger::initUnflushed</text>
<text text-anchor="middle" x="565.5" y="-433.5" font-family="Helvetica,sans-Serif" font-size="10.00">Count</text>
</a>
</g>
</g>
<!-- Node10&#45;&gt;Node17 -->
<g id="edge10" class="edge"><title>Node10&#45;&gt;Node17</title>
<path fill="none" stroke="midnightblue" d="M402.7,-314.086C415.902,-335.501 450.705,-387.61 493,-416.5 495.855,-418.45 498.879,-420.264 502.005,-421.948"/>
<polygon fill="midnightblue" stroke="midnightblue" points="500.514,-425.115 511.036,-426.358 503.586,-418.825 500.514,-425.115"/>
</g>
<!-- Node18 -->
<g id="node10" class="node"><title>Node18</title>
<g id="a_node10"><a xlink:href="classel_1_1_logger.html#acfb9ef869b9b4dc3efd78d7f64b8bebd" target="_top" xlink:title="el::Logger::resolveLogger\lFormatSpec">
<polygon fill="white" stroke="black" points="503,-289.5 503,-319.5 628,-319.5 628,-289.5 503,-289.5"/>
<text text-anchor="start" x="511" y="-307.5" font-family="Helvetica,sans-Serif" font-size="10.00">el::Logger::resolveLogger</text>
<text text-anchor="middle" x="565.5" y="-296.5" font-family="Helvetica,sans-Serif" font-size="10.00">FormatSpec</text>
</a>
</g>
</g>
<!-- Node10&#45;&gt;Node18 -->
<g id="edge14" class="edge"><title>Node10&#45;&gt;Node18</title>
<path fill="none" stroke="midnightblue" d="M448.166,-304.5C462.158,-304.5 477.588,-304.5 492.51,-304.5"/>
<polygon fill="midnightblue" stroke="midnightblue" points="492.735,-308 502.735,-304.5 492.735,-301 492.735,-308"/>
</g>
<!-- Node22 -->
<g id="node14" class="node"><title>Node22</title>
<g id="a_node14"><a xlink:href="namespaceel_1_1base_1_1utils.html#a8cad5c357a7913cdbe69add3d6a4e8ac" target="_top" xlink:title="Deletes memory safely and points to null. ">
<polygon fill="white" stroke="black" points="502,-388 502,-407 629,-407 629,-388 502,-388"/>
<text text-anchor="middle" x="565.5" y="-395" font-family="Helvetica,sans-Serif" font-size="10.00">el::base::utils::safeDelete</text>
</a>
</g>
</g>
<!-- Node10&#45;&gt;Node22 -->
<g id="edge20" class="edge"><title>Node10&#45;&gt;Node22</title>
<path fill="none" stroke="midnightblue" d="M406.734,-314.189C423.125,-329.967 457.897,-361.186 493,-378.5 497.824,-380.879 502.982,-382.988 508.237,-384.852"/>
<polygon fill="midnightblue" stroke="midnightblue" points="507.157,-388.181 517.749,-387.948 509.323,-381.525 507.157,-388.181"/>
</g>
<!-- Node23 -->
<g id="node15" class="node"><title>Node23</title>
<g id="a_node15"><a xlink:href="classel_1_1_configurations.html#a4c6db218908b39d23cc09b1a16a18e83" target="_top" xlink:title="Sets configuration based&#45;off an existing configurations. ">
<polygon fill="white" stroke="black" points="519.5,-163.5 519.5,-193.5 611.5,-193.5 611.5,-163.5 519.5,-163.5"/>
<text text-anchor="start" x="527.5" y="-181.5" font-family="Helvetica,sans-Serif" font-size="10.00">el::Configurations</text>
<text text-anchor="middle" x="565.5" y="-170.5" font-family="Helvetica,sans-Serif" font-size="10.00">::setFromBase</text>
</a>
</g>
</g>
<!-- Node10&#45;&gt;Node23 -->
<g id="edge21" class="edge"><title>Node10&#45;&gt;Node23</title>
<path fill="none" stroke="midnightblue" d="M406.315,-294.989C429.442,-271.402 487.986,-211.867 493,-208.5 498.782,-204.618 505.147,-201.079 511.623,-197.904"/>
<polygon fill="midnightblue" stroke="midnightblue" points="513.522,-200.883 521.136,-193.515 510.59,-194.527 513.522,-200.883"/>
</g>
<!-- Node13 -->
<g id="node5" class="node"><title>Node13</title>
<g id="a_node5"><a xlink:href="classel_1_1_level_helper.html#a1279f27df29a003df5ecc3d0bf4dacbb" target="_top" xlink:title="Casts int(ushort) to level, useful for iterating through enum. ">
<polygon fill="white" stroke="black" points="678,-428 678,-447 815,-447 815,-428 678,-428"/>
<text text-anchor="middle" x="746.5" y="-435" font-family="Helvetica,sans-Serif" font-size="10.00">el::LevelHelper::castFromInt</text>
</a>
</g>
</g>
<!-- Node12&#45;&gt;Node13 -->
<g id="edge4" class="edge"><title>Node12&#45;&gt;Node13</title>
<path fill="none" stroke="midnightblue" d="M608.514,-264.073C619.315,-266.868 630.102,-271.595 638,-279.5 682.191,-323.734 630.674,-370.418 674,-415.5 676.805,-418.419 679.987,-420.953 683.413,-423.153"/>
<polygon fill="midnightblue" stroke="midnightblue" points="681.89,-426.308 692.354,-427.962 685.205,-420.143 681.89,-426.308"/>
</g>
<!-- Node14 -->
<g id="node6" class="node"><title>Node14</title>
<g id="a_node6"><a xlink:href="classel_1_1_level_helper.html#a7f0dbfceb2354a72c2802d02c300430d" target="_top" xlink:title="Applies specified function to each level starting from startIndex. ">
<polygon fill="white" stroke="black" points="687,-375.5 687,-405.5 806,-405.5 806,-375.5 687,-375.5"/>
<text text-anchor="start" x="695" y="-393.5" font-family="Helvetica,sans-Serif" font-size="10.00">el::LevelHelper::forEach</text>
<text text-anchor="middle" x="746.5" y="-382.5" font-family="Helvetica,sans-Serif" font-size="10.00">Level</text>
</a>
</g>
</g>
<!-- Node12&#45;&gt;Node14 -->
<g id="edge5" class="edge"><title>Node12&#45;&gt;Node14</title>
<path fill="none" stroke="midnightblue" d="M608.841,-265.224C619.271,-268.047 629.791,-272.499 638,-279.5 667.975,-305.064 645.853,-332.937 674,-360.5 677.751,-364.173 682.019,-367.424 686.558,-370.295"/>
<polygon fill="midnightblue" stroke="midnightblue" points="685.128,-373.506 695.559,-375.36 688.561,-367.405 685.128,-373.506"/>
</g>
<!-- Node12&#45;&gt;Node15 -->
<g id="edge6" class="edge"><title>Node12&#45;&gt;Node15</title>
<path fill="none" stroke="midnightblue" d="M608.921,-252.205C632.468,-247.601 662.093,-241.809 687.729,-236.796"/>
<polygon fill="midnightblue" stroke="midnightblue" points="688.562,-240.2 697.704,-234.846 687.218,-233.33 688.562,-240.2"/>
</g>
<!-- Node16&#45;&gt;Node13 -->
<g id="edge8" class="edge"><title>Node16&#45;&gt;Node13</title>
<path fill="none" stroke="midnightblue" d="M613.063,-476.713C641.109,-468.409 676.528,-457.922 703.679,-449.883"/>
<polygon fill="midnightblue" stroke="midnightblue" points="704.684,-453.235 713.279,-447.04 702.696,-446.524 704.684,-453.235"/>
</g>
<!-- Node16&#45;&gt;Node14 -->
<g id="edge9" class="edge"><title>Node16&#45;&gt;Node14</title>
<path fill="none" stroke="midnightblue" d="M613.119,-479.402C621.857,-476.093 630.57,-471.867 638,-466.5 659.617,-450.885 652.776,-434.644 674,-418.5 678.073,-415.402 682.533,-412.603 687.172,-410.083"/>
<polygon fill="midnightblue" stroke="midnightblue" points="688.854,-413.156 696.257,-405.578 685.743,-406.885 688.854,-413.156"/>
</g>
<!-- Node17&#45;&gt;Node13 -->
<g id="edge11" class="edge"><title>Node17&#45;&gt;Node13</title>
<path fill="none" stroke="midnightblue" d="M626.104,-440.168C639.444,-439.87 653.785,-439.55 667.738,-439.238"/>
<polygon fill="midnightblue" stroke="midnightblue" points="667.891,-442.735 677.81,-439.013 667.734,-435.737 667.891,-442.735"/>
</g>
<!-- Node17&#45;&gt;Node14 -->
<g id="edge12" class="edge"><title>Node17&#45;&gt;Node14</title>
<path fill="none" stroke="midnightblue" d="M619.238,-426.474C639.269,-420.767 662.273,-414.213 683.113,-408.275"/>
<polygon fill="midnightblue" stroke="midnightblue" points="684.172,-411.613 692.83,-405.506 682.254,-404.881 684.172,-411.613"/>
</g>
<!-- Node18&#45;&gt;Node13 -->
<g id="edge15" class="edge"><title>Node18&#45;&gt;Node13</title>
<path fill="none" stroke="midnightblue" d="M625.83,-319.683C630.231,-322.188 634.363,-325.104 638,-328.5 668.586,-357.059 643.055,-387.331 674,-415.5 677.387,-418.583 681.198,-421.234 685.251,-423.514"/>
<polygon fill="midnightblue" stroke="midnightblue" points="683.913,-426.754 694.442,-427.935 686.947,-420.446 683.913,-426.754"/>
</g>
<!-- Node18&#45;&gt;Node14 -->
<g id="edge16" class="edge"><title>Node18&#45;&gt;Node14</title>
<path fill="none" stroke="midnightblue" d="M619.503,-319.58C625.909,-322.185 632.222,-325.152 638,-328.5 656.522,-339.234 655.885,-349.093 674,-360.5 680.187,-364.396 686.967,-367.989 693.81,-371.232"/>
<polygon fill="midnightblue" stroke="midnightblue" points="692.576,-374.515 703.13,-375.434 695.452,-368.133 692.576,-374.515"/>
</g>
<!-- Node19 -->
<g id="node11" class="node"><title>Node19</title>
<g id="a_node11"><a xlink:href="classel_1_1base_1_1_typed_configurations.html#a05b8ea32f63c3246a68dbc9085b7e847" target="_top" xlink:title="el::base::TypedConfigurations\l::logFormat">
<polygon fill="white" stroke="black" points="674,-320.5 674,-350.5 819,-350.5 819,-320.5 674,-320.5"/>
<text text-anchor="start" x="682" y="-338.5" font-family="Helvetica,sans-Serif" font-size="10.00">el::base::TypedConfigurations</text>
<text text-anchor="middle" x="746.5" y="-327.5" font-family="Helvetica,sans-Serif" font-size="10.00">::logFormat</text>
</a>
</g>
</g>
<!-- Node18&#45;&gt;Node19 -->
<g id="edge17" class="edge"><title>Node18&#45;&gt;Node19</title>
<path fill="none" stroke="midnightblue" d="M628.102,-315.168C639.637,-317.166 651.859,-319.283 663.889,-321.366"/>
<polygon fill="midnightblue" stroke="midnightblue" points="663.48,-324.847 673.93,-323.105 664.674,-317.95 663.48,-324.847"/>
</g>
<!-- Node21 -->
<g id="node13" class="node"><title>Node21</title>
<g id="a_node13"><a xlink:href="classel_1_1base_1_1utils_1_1_str.html#a0f271d7da2bb3c1f2fa062219c0e0ba2" target="_top" xlink:title="el::base::utils::Str\l::replaceFirstWithEscape">
<polygon fill="white" stroke="black" points="683,-271.5 683,-301.5 810,-301.5 810,-271.5 683,-271.5"/>
<text text-anchor="start" x="691" y="-289.5" font-family="Helvetica,sans-Serif" font-size="10.00">el::base::utils::Str</text>
<text text-anchor="middle" x="746.5" y="-278.5" font-family="Helvetica,sans-Serif" font-size="10.00">::replaceFirstWithEscape</text>
</a>
</g>
</g>
<!-- Node18&#45;&gt;Node21 -->
<g id="edge19" class="edge"><title>Node18&#45;&gt;Node21</title>
<path fill="none" stroke="midnightblue" d="M628.102,-298.305C642.481,-296.859 657.928,-295.306 672.74,-293.817"/>
<polygon fill="midnightblue" stroke="midnightblue" points="673.273,-297.281 682.873,-292.798 672.573,-290.316 673.273,-297.281"/>
</g>
<!-- Node20 -->
<g id="node12" class="node"><title>Node20</title>
<g id="a_node12"><a xlink:href="classel_1_1base_1_1_log_format.html#aeacb2c9d313ce5713b3e85e03a4baab5" target="_top" xlink:title="el::base::LogFormat\l::level">
<polygon fill="white" stroke="black" points="855,-320.5 855,-350.5 959,-350.5 959,-320.5 855,-320.5"/>
<text text-anchor="start" x="863" y="-338.5" font-family="Helvetica,sans-Serif" font-size="10.00">el::base::LogFormat</text>
<text text-anchor="middle" x="907" y="-327.5" font-family="Helvetica,sans-Serif" font-size="10.00">::level</text>
</a>
</g>
</g>
<!-- Node19&#45;&gt;Node20 -->
<g id="edge18" class="edge"><title>Node19&#45;&gt;Node20</title>
<path fill="none" stroke="midnightblue" d="M819.33,-335.5C827.832,-335.5 836.449,-335.5 844.784,-335.5"/>
<polygon fill="midnightblue" stroke="midnightblue" points="844.786,-339 854.786,-335.5 844.786,-332 844.786,-339"/>
</g>
<!-- Node23&#45;&gt;Node15 -->
<g id="edge23" class="edge"><title>Node23&#45;&gt;Node15</title>
<path fill="none" stroke="midnightblue" d="M611.669,-190.36C634.79,-196.431 663.192,-203.888 687.873,-210.369"/>
<polygon fill="midnightblue" stroke="midnightblue" points="687.279,-213.831 697.84,-212.986 689.057,-207.061 687.279,-213.831"/>
</g>
<!-- Node24 -->
<g id="node16" class="node"><title>Node24</title>
<g id="a_node16"><a xlink:href="classel_1_1base_1_1utils_1_1_abstract_registry.html#a072859d3728a75f910c2898f62fd12da" target="_top" xlink:title="Returns underlying container by reference. ">
<polygon fill="white" stroke="black" points="687.5,-161.5 687.5,-191.5 805.5,-191.5 805.5,-161.5 687.5,-161.5"/>
<text text-anchor="start" x="695.5" y="-179.5" font-family="Helvetica,sans-Serif" font-size="10.00">el::base::utils::Abstract</text>
<text text-anchor="middle" x="746.5" y="-168.5" font-family="Helvetica,sans-Serif" font-size="10.00">Registry::list</text>
</a>
</g>
</g>
<!-- Node23&#45;&gt;Node24 -->
<g id="edge22" class="edge"><title>Node23&#45;&gt;Node24</title>
<path fill="none" stroke="midnightblue" d="M611.669,-177.995C631.518,-177.774 655.259,-177.508 677.196,-177.263"/>
<polygon fill="midnightblue" stroke="midnightblue" points="677.501,-180.76 687.461,-177.148 677.423,-173.761 677.501,-180.76"/>
</g>
<!-- Node27&#45;&gt;Node28 -->
<g id="edge27" class="edge"><title>Node27&#45;&gt;Node28</title>
<path fill="none" stroke="midnightblue" d="M287.054,-96.2964C303.558,-94.034 321.845,-91.5275 338.604,-89.2303"/>
<polygon fill="midnightblue" stroke="midnightblue" points="339.38,-92.6567 348.812,-87.831 338.43,-85.7216 339.38,-92.6567"/>
</g>
<!-- Node30 -->
<g id="node22" class="node"><title>Node30</title>
<g id="a_node22"><a xlink:href="classel_1_1_configurations_1_1_parser.html#ae4efa4823ce108eb35bc69442155a037" target="_top" xlink:title="Parse configurations from configuration string. ">
<polygon fill="white" stroke="black" points="335,-204.5 335,-234.5 457,-234.5 457,-204.5 335,-204.5"/>
<text text-anchor="start" x="343" y="-222.5" font-family="Helvetica,sans-Serif" font-size="10.00">el::Configurations</text>
<text text-anchor="middle" x="396" y="-211.5" font-family="Helvetica,sans-Serif" font-size="10.00">::Parser::parseFromText</text>
</a>
</g>
</g>
<!-- Node29&#45;&gt;Node30 -->
<g id="edge29" class="edge"><title>Node29&#45;&gt;Node30</title>
<path fill="none" stroke="midnightblue" d="M279.635,-234.594C293.706,-232.753 309.571,-230.678 324.93,-228.668"/>
<polygon fill="midnightblue" stroke="midnightblue" points="325.465,-232.128 334.926,-227.36 324.557,-225.187 325.465,-232.128"/>
</g>
<!-- Node30&#45;&gt;Node23 -->
<g id="edge30" class="edge"><title>Node30&#45;&gt;Node23</title>
<path fill="none" stroke="midnightblue" d="M457.471,-204.698C474.389,-200.557 492.682,-196.079 509.278,-192.017"/>
<polygon fill="midnightblue" stroke="midnightblue" points="510.484,-195.325 519.365,-189.548 508.82,-188.526 510.484,-195.325"/>
</g>
</g>
</svg>
        <g id="navigator" transform="translate(0 0)" fill="#404254">
                <rect fill="#f2f5e9" fill-opacity="0.5" stroke="#606060" stroke-width=".5" x="0" y="0" width="60" height="60"/>
                <use id="zoomplus" xlink:href="#zoomPlus" x="17" y="9" onmousedown="handleZoom(evt,'in')"/>
                <use id="zoomminus" xlink:href="#zoomMin" x="42" y="9" onmousedown="handleZoom(evt,'out')"/>
                <use id="reset" xlink:href="#resetDef" x="30" y="36" onmousedown="handleReset()"/>
                <g id="arrowUp" xlink:href="#dirArrow" transform="translate(30 24)" onmousedown="handlePan(0,-1)">
                  <use xlink:href="#rim" fill="#404040">
                        <set attributeName="fill" to="#808080" begin="arrowUp.mouseover" end="arrowUp.mouseout"/>
                  </use>
                  <path fill="none" stroke="white" stroke-width="1.5" d="M0,-3.0v7 M-2.5,-0.5L0,-3.0L2.5,-0.5"/>
                </g>
                <g id="arrowRight" xlink:href="#dirArrow" transform="rotate(90) translate(36 -43)" onmousedown="handlePan(1,0)">
                  <use xlink:href="#rim" fill="#404040">
                        <set attributeName="fill" to="#808080" begin="arrowRight.mouseover" end="arrowRight.mouseout"/>
                  </use>
                  <path fill="none" stroke="white" stroke-width="1.5" d="M0,-3.0v7 M-2.5,-0.5L0,-3.0L2.5,-0.5"/>
                </g>
                <g id="arrowDown" xlink:href="#dirArrow" transform="rotate(180) translate(-30 -48)" onmousedown="handlePan(0,1)">
                  <use xlink:href="#rim" fill="#404040">
                        <set attributeName="fill" to="#808080" begin="arrowDown.mouseover" end="arrowDown.mouseout"/>
                  </use>
                  <path fill="none" stroke="white" stroke-width="1.5" d="M0,-3.0v7 M-2.5,-0.5L0,-3.0L2.5,-0.5"/>
                </g>
                <g id="arrowLeft" xlink:href="#dirArrow" transform="rotate(270) translate(-36 17)" onmousedown="handlePan(-1,0)">
                  <use xlink:href="#rim" fill="#404040">
                        <set attributeName="fill" to="#808080" begin="arrowLeft.mouseover" end="arrowLeft.mouseout"/>
                  </use>
                  <path fill="none" stroke="white" stroke-width="1.5" d="M0,-3.0v7 M-2.5,-0.5L0,-3.0L2.5,-0.5"/>
                </g>
        </g>
        <svg viewBox="0 0 15 15" width="100%" height="30px" preserveAspectRatio="xMaxYMin meet">
         <g id="arrow_out" transform="scale(0.3 0.3)">
          <a xlink:href="classel_1_1_loggers_adedfcc17831fe3d3f14026c91e8df88c_cgraph_org.svg" target="_base">
           <rect id="button" ry="5" rx="5" y="6" x="6" height="38" width="38"
                fill="#f2f5e9" fill-opacity="0.5" stroke="#606060" stroke-width="1.0"/>
           <path id="arrow"
             d="M 11.500037,31.436501 C 11.940474,20.09759 22.043105,11.32322 32.158766,21.979434 L 37.068811,17.246167 C 37.068811,17.246167 37.088388,32 37.088388,32 L 22.160133,31.978069 C 22.160133,31.978069 26.997745,27.140456 26.997745,27.140456 C 18.528582,18.264221 13.291696,25.230495 11.500037,31.436501 z"
             style="fill:#404040;"/>
          </a>
         </g>
        </svg>
</svg>
