<?xml version="1.0" encoding="UTF-8" standalone="no"?>
<!DOCTYPE svg PUBLIC "-//W3C//DTD SVG 1.1//EN"
 "http://www.w3.org/Graphics/SVG/1.1/DTD/svg11.dtd">
<!-- Generated by graphviz version 2.38.0 (20140413.2041)
 -->
<!-- Title: el::Configurations::Parser::parseLine Pages: 1 -->
<svg width="599pt" height="261pt"
 viewBox="0.00 0.00 599.00 260.50" xmlns="http://www.w3.org/2000/svg" xmlns:xlink="http://www.w3.org/1999/xlink">
<g id="graph0" class="graph" transform="scale(1 1) rotate(0) translate(4 256.5)">
<title>el::Configurations::Parser::parseLine</title>
<polygon fill="white" stroke="none" points="-4,4 -4,-256.5 595,-256.5 595,4 -4,4"/>
<!-- Node26 -->
<g id="node1" class="node"><title>Node26</title>
<polygon fill="#bfbfbf" stroke="black" points="0,-93.5 0,-123.5 99,-123.5 99,-93.5 0,-93.5"/>
<text text-anchor="start" x="8" y="-111.5" font-family="Helvetica,sans-Serif" font-size="10.00">el::Configurations</text>
<text text-anchor="middle" x="49.5" y="-100.5" font-family="Helvetica,sans-Serif" font-size="10.00">::Parser::parseLine</text>
</g>
<!-- Node27 -->
<g id="node2" class="node"><title>Node27</title>
<g id="a_node2"><a xlink:href="classel_1_1_level_helper.html#a3dcd4cba95cdf58f223b196f814a9205" target="_top" xlink:title="Converts from levelStr to Level. ">
<polygon fill="white" stroke="black" points="144.5,-186.5 144.5,-216.5 260.5,-216.5 260.5,-186.5 144.5,-186.5"/>
<text text-anchor="start" x="152.5" y="-204.5" font-family="Helvetica,sans-Serif" font-size="10.00">el::LevelHelper::convert</text>
<text text-anchor="middle" x="202.5" y="-193.5" font-family="Helvetica,sans-Serif" font-size="10.00">FromString</text>
</a>
</g>
</g>
<!-- Node26&#45;&gt;Node27 -->
<g id="edge1" class="edge"><title>Node26&#45;&gt;Node27</title>
<path fill="none" stroke="midnightblue" d="M65.813,-123.743C81.8885,-139.051 108.471,-162.466 135,-177.5 137.883,-179.134 140.898,-180.69 143.984,-182.167"/>
<polygon fill="midnightblue" stroke="midnightblue" points="142.84,-185.488 153.399,-186.357 145.686,-179.093 142.84,-185.488"/>
</g>
<!-- Node29 -->
<g id="node4" class="node"><title>Node29</title>
<g id="a_node4"><a xlink:href="classel_1_1_configuration_type_helper.html#a83a46879f2cfe2b417a187d8d8623cff" target="_top" xlink:title="Converts from configStr to ConfigurationType. ">
<polygon fill="white" stroke="black" points="135,-137.5 135,-167.5 270,-167.5 270,-137.5 135,-137.5"/>
<text text-anchor="start" x="143" y="-155.5" font-family="Helvetica,sans-Serif" font-size="10.00">el::ConfigurationTypeHelper</text>
<text text-anchor="middle" x="202.5" y="-144.5" font-family="Helvetica,sans-Serif" font-size="10.00">::convertFromString</text>
</a>
</g>
</g>
<!-- Node26&#45;&gt;Node29 -->
<g id="edge3" class="edge"><title>Node26&#45;&gt;Node29</title>
<path fill="none" stroke="midnightblue" d="M99.1085,-122.664C112.151,-126.465 126.426,-130.624 140.065,-134.598"/>
<polygon fill="midnightblue" stroke="midnightblue" points="139.278,-138.015 149.858,-137.452 141.236,-131.294 139.278,-138.015"/>
</g>
<!-- Node30 -->
<g id="node5" class="node"><title>Node30</title>
<g id="a_node5"><a xlink:href="classel_1_1_configurations.html#a332717de96efc851a202b7afcc5e395c" target="_top" xlink:title="Sets value of configuration for specified level. ">
<polygon fill="white" stroke="black" points="147,-99 147,-118 258,-118 258,-99 147,-99"/>
<text text-anchor="middle" x="202.5" y="-106" font-family="Helvetica,sans-Serif" font-size="10.00">el::Configurations::set</text>
</a>
</g>
</g>
<!-- Node26&#45;&gt;Node30 -->
<g id="edge5" class="edge"><title>Node26&#45;&gt;Node30</title>
<path fill="none" stroke="midnightblue" d="M99.1085,-108.5C111.15,-108.5 124.241,-108.5 136.912,-108.5"/>
<polygon fill="midnightblue" stroke="midnightblue" points="136.957,-112 146.957,-108.5 136.957,-105 136.957,-112"/>
</g>
<!-- Node39 -->
<g id="node12" class="node"><title>Node39</title>
<g id="a_node12"><a xlink:href="classel_1_1base_1_1utils_1_1_str.html#ae2a0878bab54634c297414677b526f28" target="_top" xlink:title="Converts string to uppercase. ">
<polygon fill="white" stroke="black" points="155.5,-49.5 155.5,-79.5 249.5,-79.5 249.5,-49.5 155.5,-49.5"/>
<text text-anchor="start" x="163.5" y="-67.5" font-family="Helvetica,sans-Serif" font-size="10.00">el::base::utils::Str</text>
<text text-anchor="middle" x="202.5" y="-56.5" font-family="Helvetica,sans-Serif" font-size="10.00">::toUpper</text>
</a>
</g>
</g>
<!-- Node26&#45;&gt;Node39 -->
<g id="edge14" class="edge"><title>Node26&#45;&gt;Node39</title>
<path fill="none" stroke="midnightblue" d="M99.1085,-94.3359C113.89,-90.0288 130.253,-85.2608 145.481,-80.8235"/>
<polygon fill="midnightblue" stroke="midnightblue" points="146.674,-84.1213 155.296,-77.9635 144.716,-77.4008 146.674,-84.1213"/>
</g>
<!-- Node40 -->
<g id="node13" class="node"><title>Node40</title>
<g id="a_node13"><a xlink:href="classel_1_1base_1_1utils_1_1_str.html#a2f1d427fb0893861961dee5c79d05e10" target="_top" xlink:title="el::base::utils::Str\l::trim">
<polygon fill="white" stroke="black" points="155.5,-0.5 155.5,-30.5 249.5,-30.5 249.5,-0.5 155.5,-0.5"/>
<text text-anchor="start" x="163.5" y="-18.5" font-family="Helvetica,sans-Serif" font-size="10.00">el::base::utils::Str</text>
<text text-anchor="middle" x="202.5" y="-7.5" font-family="Helvetica,sans-Serif" font-size="10.00">::trim</text>
</a>
</g>
</g>
<!-- Node26&#45;&gt;Node40 -->
<g id="edge15" class="edge"><title>Node26&#45;&gt;Node40</title>
<path fill="none" stroke="midnightblue" d="M65.813,-93.2571C81.8885,-77.9489 108.471,-54.5337 135,-39.5 138.446,-37.5475 142.079,-35.7059 145.798,-33.9783"/>
<polygon fill="midnightblue" stroke="midnightblue" points="147.378,-37.1084 155.161,-29.9205 144.594,-30.6856 147.378,-37.1084"/>
</g>
<!-- Node28 -->
<g id="node3" class="node"><title>Node28</title>
<g id="a_node3"><a xlink:href="classel_1_1base_1_1utils_1_1_str.html#a7e47930ab4ebdcb0b50aa34fe992793f" target="_top" xlink:title="Compares cstring equality (case&#45;insensitive) &#45; uses toupper(char) Dont use strcasecmp because of CRT ...">
<polygon fill="white" stroke="black" points="307.5,-186.5 307.5,-216.5 401.5,-216.5 401.5,-186.5 307.5,-186.5"/>
<text text-anchor="start" x="315.5" y="-204.5" font-family="Helvetica,sans-Serif" font-size="10.00">el::base::utils::Str</text>
<text text-anchor="middle" x="354.5" y="-193.5" font-family="Helvetica,sans-Serif" font-size="10.00">::cStringCaseEq</text>
</a>
</g>
</g>
<!-- Node27&#45;&gt;Node28 -->
<g id="edge2" class="edge"><title>Node27&#45;&gt;Node28</title>
<path fill="none" stroke="midnightblue" d="M260.636,-201.5C272.547,-201.5 285.096,-201.5 296.984,-201.5"/>
<polygon fill="midnightblue" stroke="midnightblue" points="297.228,-205 307.228,-201.5 297.228,-198 297.228,-205"/>
</g>
<!-- Node29&#45;&gt;Node28 -->
<g id="edge4" class="edge"><title>Node29&#45;&gt;Node28</title>
<path fill="none" stroke="midnightblue" d="M249.729,-167.601C264.913,-172.562 281.951,-178.127 297.764,-183.293"/>
<polygon fill="midnightblue" stroke="midnightblue" points="296.831,-186.67 307.424,-186.448 299.005,-180.016 296.831,-186.67"/>
</g>
<!-- Node31 -->
<g id="node6" class="node"><title>Node31</title>
<g id="a_node6"><a xlink:href="classel_1_1base_1_1threading_1_1_thread_safe.html#affb45b35790a7305d0a659562c8104fc" target="_top" xlink:title="el::base::threading\l::ThreadSafe::lock">
<polygon fill="white" stroke="black" points="306,-137.5 306,-167.5 403,-167.5 403,-137.5 306,-137.5"/>
<text text-anchor="start" x="314" y="-155.5" font-family="Helvetica,sans-Serif" font-size="10.00">el::base::threading</text>
<text text-anchor="middle" x="354.5" y="-144.5" font-family="Helvetica,sans-Serif" font-size="10.00">::ThreadSafe::lock</text>
</a>
</g>
</g>
<!-- Node30&#45;&gt;Node31 -->
<g id="edge6" class="edge"><title>Node30&#45;&gt;Node31</title>
<path fill="none" stroke="midnightblue" d="M236.048,-118.047C253.597,-123.195 275.77,-129.699 296.111,-135.666"/>
<polygon fill="midnightblue" stroke="midnightblue" points="295.341,-139.087 305.922,-138.544 297.311,-132.37 295.341,-139.087"/>
</g>
<!-- Node32 -->
<g id="node7" class="node"><title>Node32</title>
<g id="a_node7"><a xlink:href="classel_1_1_configurations.html#a05c373510ca513e4f61999c84d512831" target="_top" xlink:title="Thread unsafe set. ">
<polygon fill="white" stroke="black" points="308.5,-88.5 308.5,-118.5 400.5,-118.5 400.5,-88.5 308.5,-88.5"/>
<text text-anchor="start" x="316.5" y="-106.5" font-family="Helvetica,sans-Serif" font-size="10.00">el::Configurations</text>
<text text-anchor="middle" x="354.5" y="-95.5" font-family="Helvetica,sans-Serif" font-size="10.00">::unsafeSet</text>
</a>
</g>
</g>
<!-- Node30&#45;&gt;Node32 -->
<g id="edge7" class="edge"><title>Node30&#45;&gt;Node32</title>
<path fill="none" stroke="midnightblue" d="M258.078,-106.681C271.033,-106.249 284.868,-105.788 297.869,-105.354"/>
<polygon fill="midnightblue" stroke="midnightblue" points="298.207,-108.845 308.085,-105.014 297.974,-101.849 298.207,-108.845"/>
</g>
<!-- Node36 -->
<g id="node11" class="node"><title>Node36</title>
<g id="a_node11"><a xlink:href="classel_1_1_configurations.html#a800efb58724eb771027135b282eae512" target="_top" xlink:title="Sets configurations (Unsafely) for all levels including Level::Global if includeGlobalLevel is true...">
<polygon fill="white" stroke="red" points="464.5,-41.5 464.5,-71.5 565.5,-71.5 565.5,-41.5 464.5,-41.5"/>
<text text-anchor="start" x="472.5" y="-59.5" font-family="Helvetica,sans-Serif" font-size="10.00">el::Configurations</text>
<text text-anchor="middle" x="515" y="-48.5" font-family="Helvetica,sans-Serif" font-size="10.00">::unsafeSetGlobally</text>
</a>
</g>
</g>
<!-- Node30&#45;&gt;Node36 -->
<g id="edge13" class="edge"><title>Node30&#45;&gt;Node36</title>
<path fill="none" stroke="midnightblue" d="M236.832,-98.9995C266.071,-90.6764 304.219,-79.8479 306,-79.5 355.576,-69.815 412.655,-63.8658 454.464,-60.4512"/>
<polygon fill="midnightblue" stroke="midnightblue" points="454.789,-63.9365 464.481,-59.6576 454.236,-56.9584 454.789,-63.9365"/>
</g>
<!-- Node33 -->
<g id="node8" class="node"><title>Node33</title>
<g id="a_node8"><a xlink:href="classel_1_1base_1_1utils_1_1_registry_with_pred.html#a811d9cc011d945bc7237e6ae1cf2f096" target="_top" xlink:title="Gets pointer from repository with speicifed arguments. ">
<polygon fill="white" stroke="black" points="439,-211 439,-252 591,-252 591,-211 439,-211"/>
<text text-anchor="start" x="447" y="-240" font-family="Helvetica,sans-Serif" font-size="10.00">el::base::utils::Registry</text>
<text text-anchor="start" x="447" y="-229" font-family="Helvetica,sans-Serif" font-size="10.00">WithPred&lt; Configuration,</text>
<text text-anchor="middle" x="515" y="-218" font-family="Helvetica,sans-Serif" font-size="10.00"> Configuration::Predicate &gt;::get</text>
</a>
</g>
</g>
<!-- Node32&#45;&gt;Node33 -->
<g id="edge8" class="edge"><title>Node32&#45;&gt;Node33</title>
<path fill="none" stroke="midnightblue" d="M390.508,-118.589C395.038,-121.463 399.359,-124.762 403,-128.5 428.241,-154.414 412.447,-176.932 439,-201.5 440.309,-202.711 441.674,-203.876 443.084,-204.997"/>
<polygon fill="midnightblue" stroke="midnightblue" points="441.403,-208.091 451.609,-210.936 445.405,-202.348 441.403,-208.091"/>
</g>
<!-- Node34 -->
<g id="node9" class="node"><title>Node34</title>
<g id="a_node9"><a xlink:href="classel_1_1base_1_1utils_1_1_registry_with_pred.html#a561a5d418106a16473ff94d43a4b6b04" target="_top" xlink:title="el::base::utils::Registry\lWithPred\&lt; Configuration,\l Configuration::Predicate\l \&gt;::registerNew">
<polygon fill="white" stroke="black" points="452.5,-139.5 452.5,-191.5 577.5,-191.5 577.5,-139.5 452.5,-139.5"/>
<text text-anchor="start" x="460.5" y="-179.5" font-family="Helvetica,sans-Serif" font-size="10.00">el::base::utils::Registry</text>
<text text-anchor="start" x="460.5" y="-168.5" font-family="Helvetica,sans-Serif" font-size="10.00">WithPred&lt; Configuration,</text>
<text text-anchor="start" x="460.5" y="-157.5" font-family="Helvetica,sans-Serif" font-size="10.00"> Configuration::Predicate</text>
<text text-anchor="middle" x="515" y="-146.5" font-family="Helvetica,sans-Serif" font-size="10.00"> &gt;::registerNew</text>
</a>
</g>
</g>
<!-- Node32&#45;&gt;Node34 -->
<g id="edge9" class="edge"><title>Node32&#45;&gt;Node34</title>
<path fill="none" stroke="midnightblue" d="M393.868,-118.508C408.711,-124.314 426.187,-131.15 443.145,-137.784"/>
<polygon fill="midnightblue" stroke="midnightblue" points="441.905,-141.057 452.493,-141.44 444.455,-134.538 441.905,-141.057"/>
</g>
<!-- Node35 -->
<g id="node10" class="node"><title>Node35</title>
<g id="a_node10"><a xlink:href="classel_1_1_configuration.html#a04755de11422d7570869433ea157b705" target="_top" xlink:title="Set string based configuration value. ">
<polygon fill="white" stroke="black" points="469,-90.5 469,-120.5 561,-120.5 561,-90.5 469,-90.5"/>
<text text-anchor="start" x="477" y="-108.5" font-family="Helvetica,sans-Serif" font-size="10.00">el::Configuration::</text>
<text text-anchor="middle" x="515" y="-97.5" font-family="Helvetica,sans-Serif" font-size="10.00">setValue</text>
</a>
</g>
</g>
<!-- Node32&#45;&gt;Node35 -->
<g id="edge10" class="edge"><title>Node32&#45;&gt;Node35</title>
<path fill="none" stroke="midnightblue" d="M400.92,-104.073C418.904,-104.3 439.749,-104.563 458.607,-104.801"/>
<polygon fill="midnightblue" stroke="midnightblue" points="458.804,-108.304 468.848,-104.93 458.893,-101.304 458.804,-108.304"/>
</g>
<!-- Node32&#45;&gt;Node36 -->
<g id="edge11" class="edge"><title>Node32&#45;&gt;Node36</title>
<path fill="none" stroke="midnightblue" d="M387.575,-88.4402C406.801,-81.6184 431.852,-73.8535 454.578,-67.5618"/>
<polygon fill="midnightblue" stroke="midnightblue" points="455.753,-70.8695 464.488,-64.8732 453.92,-64.1137 455.753,-70.8695"/>
</g>
<!-- Node36&#45;&gt;Node32 -->
<g id="edge12" class="edge"><title>Node36&#45;&gt;Node32</title>
<path fill="none" stroke="midnightblue" d="M481.661,-71.6535C461.308,-78.8641 434.506,-87.1135 410.841,-93.5588"/>
<polygon fill="midnightblue" stroke="midnightblue" points="409.682,-90.2457 400.92,-96.2023 411.484,-97.0097 409.682,-90.2457"/>
</g>
</g>
</svg>
