<?xml version="1.0" encoding="UTF-8" standalone="no"?>
<!DOCTYPE svg PUBLIC "-//W3C//DTD SVG 1.1//EN"
 "http://www.w3.org/Graphics/SVG/1.1/DTD/svg11.dtd">
<!-- Generated by graphviz version 2.38.0 (20140413.2041)
 -->
<!-- Title: vpr::AllocationCollection Pages: 1 -->
<svg width="1550pt" height="374pt"
 viewBox="0.00 0.00 1550.00 374.00" xmlns="http://www.w3.org/2000/svg" xmlns:xlink="http://www.w3.org/1999/xlink">
<g id="graph0" class="graph" transform="scale(1 1) rotate(0) translate(4 370)">
<title>vpr::AllocationCollection</title>
<polygon fill="white" stroke="none" points="-4,4 -4,-370 1546,-370 1546,4 -4,4"/>
<!-- Node1 -->
<g id="node1" class="node"><title>Node1</title>
<polygon fill="#bfbfbf" stroke="black" points="1422,-9.5 1422,-28.5 1542,-28.5 1542,-9.5 1422,-9.5"/>
<text text-anchor="middle" x="1482" y="-16.5" font-family="Helvetica,sans-Serif" font-size="10.00">vpr::AllocationCollection</text>
</g>
<!-- Node2 -->
<g id="node2" class="node"><title>Node2</title>
<g id="a_node2"><a xlink:href="classvpr_1_1_allocator.html" target="_top" xlink:title="The primary interface and class of this subsystem. ">
<polygon fill="white" stroke="black" points="542,-66.5 542,-85.5 615,-85.5 615,-66.5 542,-66.5"/>
<text text-anchor="middle" x="578.5" y="-73.5" font-family="Helvetica,sans-Serif" font-size="10.00">vpr::Allocator</text>
</a>
</g>
</g>
<!-- Node2&#45;&gt;Node1 -->
<g id="edge1" class="edge"><title>Node2&#45;&gt;Node1</title>
<path fill="none" stroke="#9a32cd" stroke-dasharray="5,2" d="M605.744,-61.7078C648.691,-39.693 737.253,-0 817.5,-0 817.5,-0 817.5,-0 1268,-0 1320.16,-0 1379.23,-5.72303 1421.9,-10.8872"/>
<polygon fill="#9a32cd" stroke="#9a32cd" points="604.05,-58.6437 596.805,-66.3745 607.29,-64.8488 604.05,-58.6437"/>
<text text-anchor="middle" x="1068" y="-3" font-family="Helvetica,sans-Serif" font-size="10.00"> allocator</text>
</g>
<!-- Node14 -->
<g id="node10" class="node"><title>Node14</title>
<polygon fill="white" stroke="#bfbfbf" points="767.5,-108 767.5,-138 869.5,-138 869.5,-108 767.5,-108"/>
<text text-anchor="start" x="775.5" y="-126" font-family="Helvetica,sans-Serif" font-size="10.00">std::unique_ptr&lt; vpr</text>
<text text-anchor="middle" x="818.5" y="-115" font-family="Helvetica,sans-Serif" font-size="10.00">::Allocator &gt;</text>
</g>
<!-- Node2&#45;&gt;Node14 -->
<g id="edge10" class="edge"><title>Node2&#45;&gt;Node14</title>
<path fill="none" stroke="#9a32cd" stroke-dasharray="5,2" d="M625.031,-84.9915C665.648,-93.0125 725.025,-104.738 767.068,-113.041"/>
<polygon fill="#9a32cd" stroke="#9a32cd" points="625.62,-81.5401 615.131,-83.0364 624.263,-88.4075 625.62,-81.5401"/>
<text text-anchor="middle" x="687" y="-109" font-family="Helvetica,sans-Serif" font-size="10.00"> ptr</text>
</g>
<!-- Node26 -->
<g id="node18" class="node"><title>Node26</title>
<g id="a_node18"><a xlink:href="classvpr_1_1_memory_block.html" target="_top" xlink:title="A MemoryBlock is a large contiguous region of Vulkan memory of a uniform type (device local...">
<polygon fill="white" stroke="red" points="771,-31.5 771,-50.5 866,-50.5 866,-31.5 771,-31.5"/>
<text text-anchor="middle" x="818.5" y="-38.5" font-family="Helvetica,sans-Serif" font-size="10.00">vpr::MemoryBlock</text>
</a>
</g>
</g>
<!-- Node2&#45;&gt;Node26 -->
<g id="edge20" class="edge"><title>Node2&#45;&gt;Node26</title>
<path fill="none" stroke="#9a32cd" stroke-dasharray="5,2" d="M625.586,-68.7934C631.775,-67.8436 638.041,-66.8912 644,-66 686.889,-59.5854 735.79,-52.5658 770.72,-47.6024"/>
<polygon fill="#9a32cd" stroke="#9a32cd" points="624.662,-65.3945 615.312,-70.3779 625.729,-72.3127 624.662,-65.3945"/>
<text text-anchor="middle" x="687" y="-69" font-family="Helvetica,sans-Serif" font-size="10.00"> allocator</text>
</g>
<!-- Node3 -->
<g id="node3" class="node"><title>Node3</title>
<polygon fill="white" stroke="#bfbfbf" points="243,-115.5 243,-156.5 416,-156.5 416,-115.5 243,-115.5"/>
<text text-anchor="start" x="251" y="-144.5" font-family="Helvetica,sans-Serif" font-size="10.00">std::map&lt; AllocationSize,</text>
<text text-anchor="start" x="251" y="-133.5" font-family="Helvetica,sans-Serif" font-size="10.00"> std::vector&lt; std::unique</text>
<text text-anchor="middle" x="329.5" y="-122.5" font-family="Helvetica,sans-Serif" font-size="10.00">_ptr&lt; vpr::AllocationCollection &gt; &gt; &gt;</text>
</g>
<!-- Node3&#45;&gt;Node2 -->
<g id="edge2" class="edge"><title>Node3&#45;&gt;Node2</title>
<path fill="none" stroke="#9a32cd" stroke-dasharray="5,2" d="M424.904,-113.068C465.833,-103.126 511.282,-92.0854 541.847,-84.6607"/>
<polygon fill="#9a32cd" stroke="#9a32cd" points="424.049,-109.674 415.158,-115.435 425.701,-116.476 424.049,-109.674"/>
<text text-anchor="middle" x="473.5" y="-113" font-family="Helvetica,sans-Serif" font-size="10.00"> allocations</text>
</g>
<!-- Node4 -->
<g id="node4" class="node"><title>Node4</title>
<polygon fill="white" stroke="#bfbfbf" points="0,-121 0,-151 164,-151 164,-121 0,-121"/>
<text text-anchor="start" x="8" y="-139" font-family="Helvetica,sans-Serif" font-size="10.00">std::vector&lt; std::unique</text>
<text text-anchor="middle" x="82" y="-128" font-family="Helvetica,sans-Serif" font-size="10.00">_ptr&lt; vpr::AllocationCollection &gt; &gt;</text>
</g>
<!-- Node4&#45;&gt;Node3 -->
<g id="edge3" class="edge"><title>Node4&#45;&gt;Node3</title>
<path fill="none" stroke="#9a32cd" stroke-dasharray="5,2" d="M174.268,-136C196.73,-136 220.699,-136 242.882,-136"/>
<polygon fill="#9a32cd" stroke="#9a32cd" points="174.066,-132.5 164.066,-136 174.066,-139.5 174.066,-132.5"/>
<text text-anchor="middle" x="203.5" y="-139" font-family="Helvetica,sans-Serif" font-size="10.00"> elements</text>
</g>
<!-- Node6 -->
<g id="node5" class="node"><title>Node6</title>
<g id="a_node5"><a xlink:href="classvpr_1_1_device.html" target="_top" xlink:title="!The Device class is a wrapper around the vkLogicalDevice object. ">
<polygon fill="white" stroke="black" points="1036.5,-204.5 1036.5,-223.5 1099.5,-223.5 1099.5,-204.5 1036.5,-204.5"/>
<text text-anchor="middle" x="1068" y="-211.5" font-family="Helvetica,sans-Serif" font-size="10.00">vpr::Device</text>
</a>
</g>
</g>
<!-- Node6&#45;&gt;Node2 -->
<g id="edge4" class="edge"><title>Node6&#45;&gt;Node2</title>
<path fill="none" stroke="#9a32cd" stroke-dasharray="5,2" d="M1026.34,-207.302C934.328,-191.783 712.781,-152.301 644,-121 623.619,-111.725 602.88,-95.8655 590.607,-85.6645"/>
<polygon fill="#9a32cd" stroke="#9a32cd" points="1025.95,-210.784 1036.39,-208.987 1027.11,-203.88 1025.95,-210.784"/>
<text text-anchor="middle" x="818.5" y="-186" font-family="Helvetica,sans-Serif" font-size="10.00"> parent</text>
</g>
<!-- Node7 -->
<g id="node6" class="node"><title>Node7</title>
<polygon fill="white" stroke="#bfbfbf" points="748,-243 748,-273 889,-273 889,-243 748,-243"/>
<text text-anchor="start" x="756" y="-261" font-family="Helvetica,sans-Serif" font-size="10.00">std::map&lt; VkQueueFlags,</text>
<text text-anchor="middle" x="818.5" y="-250" font-family="Helvetica,sans-Serif" font-size="10.00"> VkDeviceQueueCreateInfo &gt;</text>
</g>
<!-- Node7&#45;&gt;Node6 -->
<g id="edge5" class="edge"><title>Node7&#45;&gt;Node6</title>
<path fill="none" stroke="#9a32cd" stroke-dasharray="5,2" d="M899.089,-246.139C930.311,-241.225 966.404,-235.223 999,-229 1011.23,-226.665 1024.63,-223.781 1036.27,-221.167"/>
<polygon fill="#9a32cd" stroke="#9a32cd" points="898.473,-242.692 889.133,-247.695 899.554,-249.608 898.473,-242.692"/>
<text text-anchor="middle" x="953" y="-248" font-family="Helvetica,sans-Serif" font-size="10.00"> queueInfos</text>
</g>
<!-- Node8 -->
<g id="node7" class="node"><title>Node8</title>
<g id="a_node7"><a xlink:href="namespacevpr.html#structvpr_1_1vk_queue_family_indices" target="_top" xlink:title="vpr::vkQueueFamilyIndices">
<polygon fill="white" stroke="black" points="752.5,-204.5 752.5,-223.5 884.5,-223.5 884.5,-204.5 752.5,-204.5"/>
<text text-anchor="middle" x="818.5" y="-211.5" font-family="Helvetica,sans-Serif" font-size="10.00">vpr::vkQueueFamilyIndices</text>
</a>
</g>
</g>
<!-- Node8&#45;&gt;Node6 -->
<g id="edge6" class="edge"><title>Node8&#45;&gt;Node6</title>
<path fill="none" stroke="#9a32cd" stroke-dasharray="5,2" d="M894.783,-214C942.264,-214 1001.05,-214 1036.21,-214"/>
<polygon fill="#9a32cd" stroke="#9a32cd" points="894.528,-210.5 884.528,-214 894.528,-217.5 894.528,-210.5"/>
<text text-anchor="middle" x="953" y="-217" font-family="Helvetica,sans-Serif" font-size="10.00"> QueueFamilyIndices</text>
</g>
<!-- Node9 -->
<g id="node8" class="node"><title>Node9</title>
<polygon fill="white" stroke="#bfbfbf" points="531,-320 531,-350 626,-350 626,-320 531,-320"/>
<text text-anchor="start" x="539" y="-338" font-family="Helvetica,sans-Serif" font-size="10.00">std::vector&lt; const</text>
<text text-anchor="middle" x="578.5" y="-327" font-family="Helvetica,sans-Serif" font-size="10.00"> char *&gt;</text>
</g>
<!-- Node9&#45;&gt;Node6 -->
<g id="edge7" class="edge"><title>Node9&#45;&gt;Node6</title>
<path fill="none" stroke="#9a32cd" stroke-dasharray="5,2" d="M636.04,-345.544C721.376,-358.349 885.184,-370.531 999,-302 1031.09,-282.679 1053.59,-242.105 1062.61,-223.585"/>
<polygon fill="#9a32cd" stroke="#9a32cd" points="636.45,-342.066 626.03,-343.985 635.373,-348.983 636.45,-342.066"/>
<text text-anchor="middle" x="818.5" y="-358" font-family="Helvetica,sans-Serif" font-size="10.00"> enabledExtensions</text>
</g>
<!-- Node15 -->
<g id="node11" class="node"><title>Node15</title>
<g id="a_node11"><a xlink:href="classvpr_1_1_instance.html" target="_top" xlink:title="Instance is a wrapper around the base Vulkan object that must be initialized first. ">
<polygon fill="white" stroke="red" points="783,-292.5 783,-311.5 854,-311.5 854,-292.5 783,-292.5"/>
<text text-anchor="middle" x="818.5" y="-299.5" font-family="Helvetica,sans-Serif" font-size="10.00">vpr::Instance</text>
</a>
</g>
</g>
<!-- Node9&#45;&gt;Node15 -->
<g id="edge12" class="edge"><title>Node9&#45;&gt;Node15</title>
<path fill="none" stroke="#9a32cd" stroke-dasharray="5,2" d="M636.336,-324.221C638.924,-323.795 641.488,-323.385 644,-323 691.985,-315.64 747.762,-309.277 782.847,-305.539"/>
<polygon fill="#9a32cd" stroke="#9a32cd" points="635.564,-320.802 626.295,-325.933 636.741,-327.702 635.564,-320.802"/>
<text text-anchor="middle" x="687" y="-326" font-family="Helvetica,sans-Serif" font-size="10.00"> enabledExtensions</text>
</g>
<!-- Node10 -->
<g id="node9" class="node"><title>Node10</title>
<g id="a_node9"><a xlink:href="classvpr_1_1_physical_device.html" target="_top" xlink:title="! PhysicalDevice is a wrapper around a VkPhysicalDevice object, which is itself merely a handle repre...">
<polygon fill="white" stroke="red" points="768,-69.5 768,-88.5 869,-88.5 869,-69.5 768,-69.5"/>
<text text-anchor="middle" x="818.5" y="-76.5" font-family="Helvetica,sans-Serif" font-size="10.00">vpr::PhysicalDevice</text>
</a>
</g>
</g>
<!-- Node10&#45;&gt;Node6 -->
<g id="edge8" class="edge"><title>Node10&#45;&gt;Node6</title>
<path fill="none" stroke="#9a32cd" stroke-dasharray="5,2" d="M879.256,-78.018C916.431,-80.0767 963.707,-87.7838 999,-111 1034.62,-134.434 1055.95,-183.675 1063.69,-204.44"/>
<polygon fill="#9a32cd" stroke="#9a32cd" points="879.198,-74.5124 869.057,-77.579 878.897,-81.5059 879.198,-74.5124"/>
<text text-anchor="middle" x="953" y="-114" font-family="Helvetica,sans-Serif" font-size="10.00"> parent</text>
</g>
<!-- Node14&#45;&gt;Node6 -->
<g id="edge9" class="edge"><title>Node14&#45;&gt;Node6</title>
<path fill="none" stroke="#9a32cd" stroke-dasharray="5,2" d="M880.239,-123.166C916.33,-125.401 962.107,-132.078 999,-150 1025.54,-162.892 1048.71,-189.801 1059.89,-204.28"/>
<polygon fill="#9a32cd" stroke="#9a32cd" points="880.02,-119.65 869.852,-122.628 879.658,-126.641 880.02,-119.65"/>
<text text-anchor="middle" x="953" y="-153" font-family="Helvetica,sans-Serif" font-size="10.00"> vkAllocator</text>
</g>
<!-- Node15&#45;&gt;Node6 -->
<g id="edge11" class="edge"><title>Node15&#45;&gt;Node6</title>
<path fill="none" stroke="#9a32cd" stroke-dasharray="5,2" d="M864.127,-296.19C901.346,-290.269 955.177,-279.167 999,-260 1020.68,-250.519 1042.83,-233.992 1055.73,-223.543"/>
<polygon fill="#9a32cd" stroke="#9a32cd" points="863.448,-292.753 854.092,-297.725 864.506,-299.673 863.448,-292.753"/>
<text text-anchor="middle" x="953" y="-290" font-family="Helvetica,sans-Serif" font-size="10.00"> parentInstance</text>
</g>
<!-- Node19 -->
<g id="node12" class="node"><title>Node19</title>
<polygon fill="white" stroke="#bfbfbf" points="274,-55.5 274,-96.5 385,-96.5 385,-55.5 274,-55.5"/>
<text text-anchor="start" x="282" y="-84.5" font-family="Helvetica,sans-Serif" font-size="10.00">std::unordered_set</text>
<text text-anchor="start" x="282" y="-73.5" font-family="Helvetica,sans-Serif" font-size="10.00">&lt; std::unique_ptr&lt; vpr</text>
<text text-anchor="middle" x="329.5" y="-62.5" font-family="Helvetica,sans-Serif" font-size="10.00">::Allocation &gt; &gt;</text>
</g>
<!-- Node19&#45;&gt;Node2 -->
<g id="edge13" class="edge"><title>Node19&#45;&gt;Node2</title>
<path fill="none" stroke="#9a32cd" stroke-dasharray="5,2" d="M395.069,-76C441.914,-76 503.536,-76 541.823,-76"/>
<polygon fill="#9a32cd" stroke="#9a32cd" points="395.011,-72.5001 385.011,-76 395.011,-79.5001 395.011,-72.5001"/>
<text text-anchor="middle" x="473.5" y="-79" font-family="Helvetica,sans-Serif" font-size="10.00"> privateAllocations</text>
</g>
<!-- Node20 -->
<g id="node13" class="node"><title>Node20</title>
<polygon fill="white" stroke="#bfbfbf" points="31,-61 31,-91 133,-91 133,-61 31,-61"/>
<text text-anchor="start" x="39" y="-79" font-family="Helvetica,sans-Serif" font-size="10.00">std::unique_ptr&lt; vpr</text>
<text text-anchor="middle" x="82" y="-68" font-family="Helvetica,sans-Serif" font-size="10.00">::Allocation &gt;</text>
</g>
<!-- Node20&#45;&gt;Node19 -->
<g id="edge14" class="edge"><title>Node20&#45;&gt;Node19</title>
<path fill="none" stroke="#9a32cd" stroke-dasharray="5,2" d="M143.384,-76C183.202,-76 234.943,-76 273.597,-76"/>
<polygon fill="#9a32cd" stroke="#9a32cd" points="143.273,-72.5001 133.273,-76 143.273,-79.5001 143.273,-72.5001"/>
<text text-anchor="middle" x="203.5" y="-79" font-family="Helvetica,sans-Serif" font-size="10.00"> keys</text>
</g>
<!-- Node22 -->
<g id="node14" class="node"><title>Node22</title>
<polygon fill="white" stroke="#bfbfbf" points="265,-6 265,-36 394,-36 394,-6 265,-6"/>
<text text-anchor="start" x="273" y="-24" font-family="Helvetica,sans-Serif" font-size="10.00">std::map&lt; AllocationSize,</text>
<text text-anchor="middle" x="329.5" y="-13" font-family="Helvetica,sans-Serif" font-size="10.00"> std::vector&lt; bool &gt; &gt;</text>
</g>
<!-- Node22&#45;&gt;Node2 -->
<g id="edge15" class="edge"><title>Node22&#45;&gt;Node2</title>
<path fill="none" stroke="#9a32cd" stroke-dasharray="5,2" d="M404.401,-36.9738C437.621,-44.2118 477.302,-52.9373 513,-61 522.308,-63.1023 532.36,-65.4181 541.696,-67.588"/>
<polygon fill="#9a32cd" stroke="#9a32cd" points="404.827,-33.4845 394.311,-34.7777 403.338,-40.3243 404.827,-33.4845"/>
<text text-anchor="middle" x="473.5" y="-64" font-family="Helvetica,sans-Serif" font-size="10.00"> emptyAllocations</text>
</g>
<!-- Node23 -->
<g id="node15" class="node"><title>Node23</title>
<polygon fill="white" stroke="#bfbfbf" points="33,-11.5 33,-30.5 131,-30.5 131,-11.5 33,-11.5"/>
<text text-anchor="middle" x="82" y="-18.5" font-family="Helvetica,sans-Serif" font-size="10.00">std::vector&lt; bool &gt;</text>
</g>
<!-- Node23&#45;&gt;Node22 -->
<g id="edge16" class="edge"><title>Node23&#45;&gt;Node22</title>
<path fill="none" stroke="#9a32cd" stroke-dasharray="5,2" d="M141.363,-21C178.45,-21 226.474,-21 264.587,-21"/>
<polygon fill="#9a32cd" stroke="#9a32cd" points="141.21,-17.5001 131.21,-21 141.21,-24.5001 141.21,-17.5001"/>
<text text-anchor="middle" x="203.5" y="-24" font-family="Helvetica,sans-Serif" font-size="10.00"> elements</text>
</g>
<!-- Node24 -->
<g id="node16" class="node"><title>Node24</title>
<polygon fill="white" stroke="#bfbfbf" points="1198,-29 1198,-59 1336,-59 1336,-29 1198,-29"/>
<text text-anchor="start" x="1206" y="-47" font-family="Helvetica,sans-Serif" font-size="10.00">std::vector&lt; std::unique</text>
<text text-anchor="middle" x="1267" y="-36" font-family="Helvetica,sans-Serif" font-size="10.00">_ptr&lt; vpr::MemoryBlock &gt; &gt;</text>
</g>
<!-- Node24&#45;&gt;Node1 -->
<g id="edge17" class="edge"><title>Node24&#45;&gt;Node1</title>
<path fill="none" stroke="#9a32cd" stroke-dasharray="5,2" d="M1346.42,-34.7957C1371.31,-31.8742 1398.41,-28.6941 1421.72,-25.9581"/>
<polygon fill="#9a32cd" stroke="#9a32cd" points="1345.8,-31.3448 1336.27,-35.9867 1346.61,-38.297 1345.8,-31.3448"/>
<text text-anchor="middle" x="1379" y="-37" font-family="Helvetica,sans-Serif" font-size="10.00"> allocations</text>
</g>
<!-- Node25 -->
<g id="node17" class="node"><title>Node25</title>
<polygon fill="white" stroke="#bfbfbf" points="1017,-30 1017,-60 1119,-60 1119,-30 1017,-30"/>
<text text-anchor="start" x="1025" y="-48" font-family="Helvetica,sans-Serif" font-size="10.00">std::unique_ptr&lt; vpr</text>
<text text-anchor="middle" x="1068" y="-37" font-family="Helvetica,sans-Serif" font-size="10.00">::MemoryBlock &gt;</text>
</g>
<!-- Node25&#45;&gt;Node24 -->
<g id="edge18" class="edge"><title>Node25&#45;&gt;Node24</title>
<path fill="none" stroke="#9a32cd" stroke-dasharray="5,2" d="M1129.25,-44.6941C1150.87,-44.5844 1175.4,-44.4599 1197.66,-44.3469"/>
<polygon fill="#9a32cd" stroke="#9a32cd" points="1129.2,-41.1943 1119.22,-44.7451 1129.24,-48.1942 1129.2,-41.1943"/>
<text text-anchor="middle" x="1158.5" y="-48" font-family="Helvetica,sans-Serif" font-size="10.00"> elements</text>
</g>
<!-- Node26&#45;&gt;Node25 -->
<g id="edge19" class="edge"><title>Node26&#45;&gt;Node25</title>
<path fill="none" stroke="#9a32cd" stroke-dasharray="5,2" d="M876.219,-41.9167C918.63,-42.6021 976.084,-43.5306 1016.83,-44.1891"/>
<polygon fill="#9a32cd" stroke="#9a32cd" points="876.108,-38.4145 866.053,-41.7524 875.995,-45.4136 876.108,-38.4145"/>
<text text-anchor="middle" x="953" y="-47" font-family="Helvetica,sans-Serif" font-size="10.00"> ptr</text>
</g>
</g>
</svg>
