<?xml version="1.0" encoding="UTF-8" standalone="no"?>
<!DOCTYPE svg PUBLIC "-//W3C//DTD SVG 1.1//EN"
 "http://www.w3.org/Graphics/SVG/1.1/DTD/svg11.dtd">
<!-- Generated by graphviz version 2.38.0 (20140413.2041)
 -->
<!-- Title: vpr::MemoryBlock Pages: 1 -->
<!--zoomable 417 -->
<svg id="main" version="1.1" xmlns="http://www.w3.org/2000/svg" xmlns:xlink="http://www.w3.org/1999/xlink" xml:space="preserve" onload="init(evt)">
<style type="text/css"><![CDATA[
.edge:hover path { stroke: red; }
.edge:hover polygon { stroke: red; fill: red; }
]]></style>
<script type="text/javascript"><![CDATA[
var edges = document.getElementsByTagName('g');
if (edges && edges.length) {
  for (var i=0;i<edges.length;i++) {
    if (edges[i].id.substr(0,4)=='edge') {
      edges[i].setAttribute('class','edge');
    }
  }
}
]]></script>
        <defs>
                <circle id="rim" cx="0" cy="0" r="7"/>
                <circle id="rim2" cx="0" cy="0" r="3.5"/>
                <g id="zoomPlus">
                        <use xlink:href="#rim" fill="#404040">
                                <set attributeName="fill" to="#808080" begin="zoomplus.mouseover" end="zoomplus.mouseout"/>
                        </use>
                        <path d="M-4,0h8M0,-4v8" fill="none" stroke="white" stroke-width="1.5" pointer-events="none"/>
                </g>
                <g id="zoomMin">
                        <use xlink:href="#rim" fill="#404040">
                                <set attributeName="fill" to="#808080" begin="zoomminus.mouseover" end="zoomminus.mouseout"/>
                        </use>
                        <path d="M-4,0h8" fill="none" stroke="white" stroke-width="1.5" pointer-events="none"/>
                </g>
                <g id="dirArrow">
                        <path fill="none" stroke="white" stroke-width="1.5" d="M0,-3.0v7 M-2.5,-0.5L0,-3.0L2.5,-0.5"/>
                </g>
               <g id="resetDef">
                       <use xlink:href="#rim2" fill="#404040">
                               <set attributeName="fill" to="#808080" begin="reset.mouseover" end="reset.mouseout"/>
                       </use>
               </g>
        </defs>

<script type="text/javascript">
var viewWidth = 2738;
var viewHeight = 417;
var sectionId = 'dynsection-0';
</script>
<script xlink:href="svgpan.js"/>
<svg id="graph" class="graph">
<g id="viewport">
<title>vpr::MemoryBlock</title>
<polygon fill="white" stroke="none" points="-4,4 -4,-412.5 2734,-412.5 2734,4 -4,4"/>
<!-- Node1 -->
<g id="node1" class="node"><title>Node1</title>
<polygon fill="#bfbfbf" stroke="black" points="437,-367 437,-386 532,-386 532,-367 437,-367"/>
<text text-anchor="middle" x="484.5" y="-374" font-family="Helvetica,sans-Serif" font-size="10.00">vpr::MemoryBlock</text>
</g>
<!-- Node12 -->
<g id="node12" class="node"><title>Node12</title>
<polygon fill="white" stroke="#bfbfbf" points="583,-330.5 583,-360.5 685,-360.5 685,-330.5 583,-330.5"/>
<text text-anchor="start" x="591" y="-348.5" font-family="Helvetica,sans-Serif" font-size="10.00">std::unique_ptr&lt; vpr</text>
<text text-anchor="middle" x="634" y="-337.5" font-family="Helvetica,sans-Serif" font-size="10.00">::MemoryBlock &gt;</text>
</g>
<!-- Node1&#45;&gt;Node12 -->
<g id="edge13" class="edge"><title>Node1&#45;&gt;Node12</title>
<path fill="none" stroke="#9a32cd" stroke-dasharray="5,2" d="M540.803,-364.877C554.587,-361.98 569.289,-358.89 582.811,-356.048"/>
<polygon fill="#9a32cd" stroke="#9a32cd" points="540.025,-361.464 530.958,-366.946 541.465,-368.314 540.025,-361.464"/>
<text text-anchor="middle" x="557.5" y="-366.5" font-family="Helvetica,sans-Serif" font-size="10.00"> ptr</text>
</g>
<!-- Node2 -->
<g id="node2" class="node"><title>Node2</title>
<polygon fill="white" stroke="#bfbfbf" points="188.5,-388 188.5,-407 313.5,-407 313.5,-388 188.5,-388"/>
<text text-anchor="middle" x="251" y="-395" font-family="Helvetica,sans-Serif" font-size="10.00">std::list&lt; Suballocation &gt;</text>
</g>
<!-- Node2&#45;&gt;Node1 -->
<g id="edge1" class="edge"><title>Node2&#45;&gt;Node1</title>
<path fill="none" stroke="#9a32cd" stroke-dasharray="5,2" d="M323.928,-390.975C360.781,-387.632 404.586,-383.658 436.968,-380.721"/>
<polygon fill="#9a32cd" stroke="#9a32cd" points="323.377,-387.511 313.734,-391.9 324.009,-394.482 323.377,-387.511"/>
<text text-anchor="middle" x="376" y="-393.5" font-family="Helvetica,sans-Serif" font-size="10.00"> Suballocations</text>
</g>
<!-- Node3 -->
<g id="node3" class="node"><title>Node3</title>
<g id="a_node3"><a xlink:href="structvpr_1_1_suballocation.html" target="_top" xlink:title="During the process of finding a suitable region to bind to, we need to store things like &quot;Suballocati...">
<polygon fill="white" stroke="black" points="7.5,-388 7.5,-407 100.5,-407 100.5,-388 7.5,-388"/>
<text text-anchor="middle" x="54" y="-395" font-family="Helvetica,sans-Serif" font-size="10.00">vpr::Suballocation</text>
</a>
</g>
</g>
<!-- Node3&#45;&gt;Node2 -->
<g id="edge2" class="edge"><title>Node3&#45;&gt;Node2</title>
<path fill="none" stroke="#9a32cd" stroke-dasharray="5,2" d="M110.817,-397.5C135.036,-397.5 163.483,-397.5 188.326,-397.5"/>
<polygon fill="#9a32cd" stroke="#9a32cd" points="110.719,-394 100.719,-397.5 110.719,-401 110.719,-394"/>
<text text-anchor="middle" x="147.5" y="-400.5" font-family="Helvetica,sans-Serif" font-size="10.00"> elements</text>
</g>
<!-- Node4 -->
<g id="node4" class="node"><title>Node4</title>
<polygon fill="white" stroke="#bfbfbf" points="187,-338.5 187,-368.5 315,-368.5 315,-338.5 187,-338.5"/>
<text text-anchor="start" x="195" y="-356.5" font-family="Helvetica,sans-Serif" font-size="10.00">std::vector&lt; suballocation</text>
<text text-anchor="middle" x="251" y="-345.5" font-family="Helvetica,sans-Serif" font-size="10.00">List::iterator &gt;</text>
</g>
<!-- Node4&#45;&gt;Node1 -->
<g id="edge3" class="edge"><title>Node4&#45;&gt;Node1</title>
<path fill="none" stroke="#9a32cd" stroke-dasharray="5,2" d="M325.213,-359.536C354.412,-362.085 388.318,-365.22 419,-368.5 424.722,-369.112 430.724,-369.797 436.668,-370.503"/>
<polygon fill="#9a32cd" stroke="#9a32cd" points="325.359,-356.036 315.094,-358.66 324.755,-363.01 325.359,-356.036"/>
<text text-anchor="middle" x="376" y="-371.5" font-family="Helvetica,sans-Serif" font-size="10.00"> availSuballocations</text>
</g>
<!-- Node5 -->
<g id="node5" class="node"><title>Node5</title>
<g id="a_node5"><a xlink:title="STL iterator class. ">
<polygon fill="white" stroke="#bfbfbf" points="0,-344 0,-363 108,-363 108,-344 0,-344"/>
<text text-anchor="middle" x="54" y="-351" font-family="Helvetica,sans-Serif" font-size="10.00">std::list&lt; T &gt;::iterator</text>
</a>
</g>
</g>
<!-- Node5&#45;&gt;Node4 -->
<g id="edge4" class="edge"><title>Node5&#45;&gt;Node4</title>
<path fill="none" stroke="#9a32cd" stroke-dasharray="5,2" d="M118.262,-353.5C140.27,-353.5 164.945,-353.5 186.937,-353.5"/>
<polygon fill="#9a32cd" stroke="#9a32cd" points="118.027,-350 108.027,-353.5 118.027,-357 118.027,-350"/>
<text text-anchor="middle" x="147.5" y="-356.5" font-family="Helvetica,sans-Serif" font-size="10.00"> elements</text>
</g>
<!-- Node6 -->
<g id="node6" class="node"><title>Node6</title>
<g id="a_node6"><a xlink:href="classvpr_1_1_allocator.html" target="_top" xlink:title="The primary interface and class of this subsystem. ">
<polygon fill="white" stroke="black" points="2010.5,-273 2010.5,-292 2083.5,-292 2083.5,-273 2010.5,-273"/>
<text text-anchor="middle" x="2047" y="-280" font-family="Helvetica,sans-Serif" font-size="10.00">vpr::Allocator</text>
</a>
</g>
</g>
<!-- Node6&#45;&gt;Node1 -->
<g id="edge5" class="edge"><title>Node6&#45;&gt;Node1</title>
<path fill="none" stroke="#9a32cd" stroke-dasharray="5,2" d="M2026.6,-298.274C2013.41,-308.545 1995.27,-321.79 1978,-331.5 1903.57,-373.342 1880.88,-391.5 1795.5,-391.5 633,-391.5 633,-391.5 633,-391.5 599.152,-391.5 561.159,-387.542 532.209,-383.692"/>
<polygon fill="#9a32cd" stroke="#9a32cd" points="2028.84,-300.973 2034.5,-292.021 2024.49,-295.484 2028.84,-300.973"/>
<text text-anchor="middle" x="1197.5" y="-394.5" font-family="Helvetica,sans-Serif" font-size="10.00"> allocator</text>
</g>
<!-- Node10 -->
<g id="node10" class="node"><title>Node10</title>
<g id="a_node10"><a xlink:href="classvpr_1_1_allocation_collection.html" target="_top" xlink:title="An allocation collection is just a vector of MemoryBlocks of the same type. ">
<polygon fill="white" stroke="black" points="998,-333 998,-352 1118,-352 1118,-333 998,-333"/>
<text text-anchor="middle" x="1058" y="-340" font-family="Helvetica,sans-Serif" font-size="10.00">vpr::AllocationCollection</text>
</a>
</g>
</g>
<!-- Node6&#45;&gt;Node10 -->
<g id="edge10" class="edge"><title>Node6&#45;&gt;Node10</title>
<path fill="none" stroke="#9a32cd" stroke-dasharray="5,2" d="M2023.95,-267.198C1981.68,-239.41 1885.46,-183.5 1795.5,-183.5 1325.5,-183.5 1325.5,-183.5 1325.5,-183.5 1208.59,-183.5 1098.39,-297.745 1067.53,-332.554"/>
<polygon fill="#9a32cd" stroke="#9a32cd" points="2022.1,-270.172 2032.36,-272.827 2025.99,-264.356 2022.1,-270.172"/>
<text text-anchor="middle" x="1547" y="-186.5" font-family="Helvetica,sans-Serif" font-size="10.00"> allocator</text>
</g>
<!-- Node21 -->
<g id="node21" class="node"><title>Node21</title>
<polygon fill="white" stroke="#bfbfbf" points="2239.5,-296.5 2239.5,-326.5 2341.5,-326.5 2341.5,-296.5 2239.5,-296.5"/>
<text text-anchor="start" x="2247.5" y="-314.5" font-family="Helvetica,sans-Serif" font-size="10.00">std::unique_ptr&lt; vpr</text>
<text text-anchor="middle" x="2290.5" y="-303.5" font-family="Helvetica,sans-Serif" font-size="10.00">::Allocator &gt;</text>
</g>
<!-- Node6&#45;&gt;Node21 -->
<g id="edge23" class="edge"><title>Node6&#45;&gt;Node21</title>
<path fill="none" stroke="#9a32cd" stroke-dasharray="5,2" d="M2093.76,-287.995C2135.34,-292.988 2196.56,-300.34 2239.43,-305.488"/>
<polygon fill="#9a32cd" stroke="#9a32cd" points="2093.98,-284.496 2083.63,-286.779 2093.15,-291.446 2093.98,-284.496"/>
<text text-anchor="middle" x="2159" y="-303.5" font-family="Helvetica,sans-Serif" font-size="10.00"> ptr</text>
</g>
<!-- Node7 -->
<g id="node7" class="node"><title>Node7</title>
<polygon fill="white" stroke="#bfbfbf" points="1708,-322 1708,-363 1881,-363 1881,-322 1708,-322"/>
<text text-anchor="start" x="1716" y="-351" font-family="Helvetica,sans-Serif" font-size="10.00">std::map&lt; AllocationSize,</text>
<text text-anchor="start" x="1716" y="-340" font-family="Helvetica,sans-Serif" font-size="10.00"> std::vector&lt; std::unique</text>
<text text-anchor="middle" x="1794.5" y="-329" font-family="Helvetica,sans-Serif" font-size="10.00">_ptr&lt; vpr::AllocationCollection &gt; &gt; &gt;</text>
</g>
<!-- Node7&#45;&gt;Node6 -->
<g id="edge6" class="edge"><title>Node7&#45;&gt;Node6</title>
<path fill="none" stroke="#9a32cd" stroke-dasharray="5,2" d="M1890.96,-319.634C1932.79,-309.617 1979.31,-298.473 2010.38,-291.031"/>
<polygon fill="#9a32cd" stroke="#9a32cd" points="1889.92,-316.286 1881.01,-322.019 1891.55,-323.094 1889.92,-316.286"/>
<text text-anchor="middle" x="1938.5" y="-319.5" font-family="Helvetica,sans-Serif" font-size="10.00"> allocations</text>
</g>
<!-- Node8 -->
<g id="node8" class="node"><title>Node8</title>
<polygon fill="white" stroke="#bfbfbf" points="1465,-327.5 1465,-357.5 1629,-357.5 1629,-327.5 1465,-327.5"/>
<text text-anchor="start" x="1473" y="-345.5" font-family="Helvetica,sans-Serif" font-size="10.00">std::vector&lt; std::unique</text>
<text text-anchor="middle" x="1547" y="-334.5" font-family="Helvetica,sans-Serif" font-size="10.00">_ptr&lt; vpr::AllocationCollection &gt; &gt;</text>
</g>
<!-- Node8&#45;&gt;Node7 -->
<g id="edge7" class="edge"><title>Node8&#45;&gt;Node7</title>
<path fill="none" stroke="#9a32cd" stroke-dasharray="5,2" d="M1639.27,-342.5C1661.73,-342.5 1685.7,-342.5 1707.88,-342.5"/>
<polygon fill="#9a32cd" stroke="#9a32cd" points="1639.07,-339 1629.07,-342.5 1639.07,-346 1639.07,-339"/>
<text text-anchor="middle" x="1668.5" y="-345.5" font-family="Helvetica,sans-Serif" font-size="10.00"> elements</text>
</g>
<!-- Node9 -->
<g id="node9" class="node"><title>Node9</title>
<polygon fill="white" stroke="#bfbfbf" points="1268,-327.5 1268,-357.5 1385,-357.5 1385,-327.5 1268,-327.5"/>
<text text-anchor="start" x="1276" y="-345.5" font-family="Helvetica,sans-Serif" font-size="10.00">std::unique_ptr&lt; vpr</text>
<text text-anchor="middle" x="1326.5" y="-334.5" font-family="Helvetica,sans-Serif" font-size="10.00">::AllocationCollection &gt;</text>
</g>
<!-- Node9&#45;&gt;Node8 -->
<g id="edge8" class="edge"><title>Node9&#45;&gt;Node8</title>
<path fill="none" stroke="#9a32cd" stroke-dasharray="5,2" d="M1395.44,-342.5C1417.44,-342.5 1442.07,-342.5 1464.93,-342.5"/>
<polygon fill="#9a32cd" stroke="#9a32cd" points="1395.19,-339 1385.19,-342.5 1395.19,-346 1395.19,-339"/>
<text text-anchor="middle" x="1425.5" y="-345.5" font-family="Helvetica,sans-Serif" font-size="10.00"> elements</text>
</g>
<!-- Node10&#45;&gt;Node9 -->
<g id="edge9" class="edge"><title>Node10&#45;&gt;Node9</title>
<path fill="none" stroke="#9a32cd" stroke-dasharray="5,2" d="M1128.34,-342.5C1171.71,-342.5 1226.93,-342.5 1267.89,-342.5"/>
<polygon fill="#9a32cd" stroke="#9a32cd" points="1128.15,-339 1118.14,-342.5 1128.14,-346 1128.15,-339"/>
<text text-anchor="middle" x="1197.5" y="-345.5" font-family="Helvetica,sans-Serif" font-size="10.00"> ptr</text>
</g>
<!-- Node11 -->
<g id="node11" class="node"><title>Node11</title>
<polygon fill="white" stroke="#bfbfbf" points="764,-328.5 764,-358.5 902,-358.5 902,-328.5 764,-328.5"/>
<text text-anchor="start" x="772" y="-346.5" font-family="Helvetica,sans-Serif" font-size="10.00">std::vector&lt; std::unique</text>
<text text-anchor="middle" x="833" y="-335.5" font-family="Helvetica,sans-Serif" font-size="10.00">_ptr&lt; vpr::MemoryBlock &gt; &gt;</text>
</g>
<!-- Node11&#45;&gt;Node10 -->
<g id="edge11" class="edge"><title>Node11&#45;&gt;Node10</title>
<path fill="none" stroke="#9a32cd" stroke-dasharray="5,2" d="M912.334,-343.149C940.483,-343.022 971.735,-342.882 997.967,-342.765"/>
<polygon fill="#9a32cd" stroke="#9a32cd" points="912.103,-339.65 902.119,-343.195 912.135,-346.65 912.103,-339.65"/>
<text text-anchor="middle" x="945" y="-346.5" font-family="Helvetica,sans-Serif" font-size="10.00"> allocations</text>
</g>
<!-- Node12&#45;&gt;Node11 -->
<g id="edge12" class="edge"><title>Node12&#45;&gt;Node11</title>
<path fill="none" stroke="#9a32cd" stroke-dasharray="5,2" d="M695.253,-344.888C716.873,-344.669 741.403,-344.42 763.659,-344.194"/>
<polygon fill="#9a32cd" stroke="#9a32cd" points="695.185,-341.389 685.221,-344.99 695.256,-348.388 695.185,-341.389"/>
<text text-anchor="middle" x="724.5" y="-348.5" font-family="Helvetica,sans-Serif" font-size="10.00"> elements</text>
</g>
<!-- Node13 -->
<g id="node13" class="node"><title>Node13</title>
<g id="a_node13"><a xlink:href="classvpr_1_1_device.html" target="_top" xlink:title="!The Device class is a wrapper around the vkLogicalDevice object. ">
<polygon fill="white" stroke="black" points="2501.5,-161 2501.5,-180 2564.5,-180 2564.5,-161 2501.5,-161"/>
<text text-anchor="middle" x="2533" y="-168" font-family="Helvetica,sans-Serif" font-size="10.00">vpr::Device</text>
</a>
</g>
</g>
<!-- Node13&#45;&gt;Node6 -->
<g id="edge14" class="edge"><title>Node13&#45;&gt;Node6</title>
<path fill="none" stroke="#9a32cd" stroke-dasharray="5,2" d="M2514.58,-187.022C2503.07,-197.039 2487.17,-209.247 2471,-216.5 2401.58,-247.649 2172.62,-271.191 2083.72,-279.369"/>
<polygon fill="#9a32cd" stroke="#9a32cd" points="2517.05,-189.512 2522.13,-180.217 2512.36,-184.312 2517.05,-189.512"/>
<text text-anchor="middle" x="2290.5" y="-268.5" font-family="Helvetica,sans-Serif" font-size="10.00"> parent</text>
</g>
<!-- Node14 -->
<g id="node14" class="node"><title>Node14</title>
<polygon fill="white" stroke="#bfbfbf" points="2220,-199.5 2220,-229.5 2361,-229.5 2361,-199.5 2220,-199.5"/>
<text text-anchor="start" x="2228" y="-217.5" font-family="Helvetica,sans-Serif" font-size="10.00">std::map&lt; VkQueueFlags,</text>
<text text-anchor="middle" x="2290.5" y="-206.5" font-family="Helvetica,sans-Serif" font-size="10.00"> VkDeviceQueueCreateInfo &gt;</text>
</g>
<!-- Node14&#45;&gt;Node13 -->
<g id="edge15" class="edge"><title>Node14&#45;&gt;Node13</title>
<path fill="none" stroke="#9a32cd" stroke-dasharray="5,2" d="M2371.17,-203.046C2402.4,-198.186 2438.48,-192.114 2471,-185.5 2480.94,-183.479 2491.71,-180.946 2501.39,-178.541"/>
<polygon fill="#9a32cd" stroke="#9a32cd" points="2370.56,-199.598 2361.21,-204.58 2371.63,-206.517 2370.56,-199.598"/>
<text text-anchor="middle" x="2425" y="-204.5" font-family="Helvetica,sans-Serif" font-size="10.00"> queueInfos</text>
</g>
<!-- Node15 -->
<g id="node15" class="node"><title>Node15</title>
<g id="a_node15"><a xlink:href="namespacevpr.html#structvpr_1_1vk_queue_family_indices" target="_top" xlink:title="vpr::vkQueueFamilyIndices">
<polygon fill="white" stroke="black" points="2224.5,-161 2224.5,-180 2356.5,-180 2356.5,-161 2224.5,-161"/>
<text text-anchor="middle" x="2290.5" y="-168" font-family="Helvetica,sans-Serif" font-size="10.00">vpr::vkQueueFamilyIndices</text>
</a>
</g>
</g>
<!-- Node15&#45;&gt;Node13 -->
<g id="edge16" class="edge"><title>Node15&#45;&gt;Node13</title>
<path fill="none" stroke="#9a32cd" stroke-dasharray="5,2" d="M2366.7,-170.5C2412.11,-170.5 2467.54,-170.5 2501.28,-170.5"/>
<polygon fill="#9a32cd" stroke="#9a32cd" points="2366.58,-167 2356.58,-170.5 2366.58,-174 2366.58,-167"/>
<text text-anchor="middle" x="2425" y="-173.5" font-family="Helvetica,sans-Serif" font-size="10.00"> QueueFamilyIndices</text>
</g>
<!-- Node16 -->
<g id="node16" class="node"><title>Node16</title>
<polygon fill="white" stroke="#bfbfbf" points="1999.5,-72.5 1999.5,-102.5 2094.5,-102.5 2094.5,-72.5 1999.5,-72.5"/>
<text text-anchor="start" x="2007.5" y="-90.5" font-family="Helvetica,sans-Serif" font-size="10.00">std::vector&lt; const</text>
<text text-anchor="middle" x="2047" y="-79.5" font-family="Helvetica,sans-Serif" font-size="10.00"> char *&gt;</text>
</g>
<!-- Node16&#45;&gt;Node13 -->
<g id="edge17" class="edge"><title>Node16&#45;&gt;Node13</title>
<path fill="none" stroke="#9a32cd" stroke-dasharray="5,2" d="M2104.98,-87.1512C2204.76,-87.284 2406.64,-91.0756 2471,-118.5 2493.28,-127.992 2513.45,-148.603 2524.09,-160.834"/>
<polygon fill="#9a32cd" stroke="#9a32cd" points="2104.78,-83.6513 2094.78,-87.15 2104.78,-90.6513 2104.78,-83.6513"/>
<text text-anchor="middle" x="2290.5" y="-100.5" font-family="Helvetica,sans-Serif" font-size="10.00"> enabledExtensions</text>
</g>
<!-- Node22 -->
<g id="node22" class="node"><title>Node22</title>
<g id="a_node22"><a xlink:href="classvpr_1_1_instance.html" target="_top" xlink:title="Instance is a wrapper around the base Vulkan object that must be initialized first. ">
<polygon fill="white" stroke="black" points="2255,-24 2255,-43 2326,-43 2326,-24 2255,-24"/>
<text text-anchor="middle" x="2290.5" y="-31" font-family="Helvetica,sans-Serif" font-size="10.00">vpr::Instance</text>
</a>
</g>
</g>
<!-- Node16&#45;&gt;Node22 -->
<g id="edge27" class="edge"><title>Node16&#45;&gt;Node22</title>
<path fill="none" stroke="#9a32cd" stroke-dasharray="5,2" d="M2104.42,-71.3939C2108.33,-70.383 2112.22,-69.4082 2116,-68.5 2163.81,-57.0159 2219.63,-46.215 2254.77,-39.7293"/>
<polygon fill="#9a32cd" stroke="#9a32cd" points="2103.48,-68.0235 2094.7,-73.9641 2105.27,-74.7908 2103.48,-68.0235"/>
<text text-anchor="middle" x="2159" y="-71.5" font-family="Helvetica,sans-Serif" font-size="10.00"> enabledExtensions</text>
</g>
<!-- Node17 -->
<g id="node17" class="node"><title>Node17</title>
<g id="a_node17"><a xlink:href="classvpr_1_1_physical_device.html" target="_top" xlink:title="! PhysicalDevice is a wrapper around a VkPhysicalDevice object, which is itself merely a handle repre...">
<polygon fill="white" stroke="black" points="1744,-84 1744,-103 1845,-103 1845,-84 1744,-84"/>
<text text-anchor="middle" x="1794.5" y="-91" font-family="Helvetica,sans-Serif" font-size="10.00">vpr::PhysicalDevice</text>
</a>
</g>
</g>
<!-- Node17&#45;&gt;Node13 -->
<g id="edge18" class="edge"><title>Node17&#45;&gt;Node13</title>
<path fill="none" stroke="#9a32cd" stroke-dasharray="5,2" d="M1855.28,-99.4637C1958.48,-109.796 2176.7,-131.811 2361,-151.5 2410.16,-156.752 2467.22,-163.154 2501.43,-167.024"/>
<polygon fill="#9a32cd" stroke="#9a32cd" points="1855.36,-95.9543 1845.06,-98.4411 1854.66,-102.919 1855.36,-95.9543"/>
<text text-anchor="middle" x="2159" y="-138.5" font-family="Helvetica,sans-Serif" font-size="10.00"> parent</text>
</g>
<!-- Node23 -->
<g id="node23" class="node"><title>Node23</title>
<polygon fill="white" stroke="#bfbfbf" points="1996,-20.5 1996,-50.5 2098,-50.5 2098,-20.5 1996,-20.5"/>
<text text-anchor="start" x="2004" y="-38.5" font-family="Helvetica,sans-Serif" font-size="10.00">std::unique_ptr&lt; vpr</text>
<text text-anchor="middle" x="2047" y="-27.5" font-family="Helvetica,sans-Serif" font-size="10.00">::PhysicalDevice &gt;</text>
</g>
<!-- Node17&#45;&gt;Node23 -->
<g id="edge26" class="edge"><title>Node17&#45;&gt;Node23</title>
<path fill="none" stroke="#9a32cd" stroke-dasharray="5,2" d="M1846.41,-81.712C1890.01,-71.6176 1952.44,-57.1633 1995.82,-47.1182"/>
<polygon fill="#9a32cd" stroke="#9a32cd" points="1845.54,-78.3219 1836.58,-83.9874 1847.12,-85.1415 1845.54,-78.3219"/>
<text text-anchor="middle" x="1938.5" y="-71.5" font-family="Helvetica,sans-Serif" font-size="10.00"> ptr</text>
</g>
<!-- Node18 -->
<g id="node18" class="node"><title>Node18</title>
<polygon fill="white" stroke="#bfbfbf" points="1489,-78.5 1489,-108.5 1605,-108.5 1605,-78.5 1489,-78.5"/>
<text text-anchor="start" x="1497" y="-96.5" font-family="Helvetica,sans-Serif" font-size="10.00">std::unique_ptr&lt; vpr</text>
<text text-anchor="middle" x="1547" y="-85.5" font-family="Helvetica,sans-Serif" font-size="10.00">::PhysicalDeviceImpl &gt;</text>
</g>
<!-- Node18&#45;&gt;Node17 -->
<g id="edge19" class="edge"><title>Node18&#45;&gt;Node17</title>
<path fill="none" stroke="#9a32cd" stroke-dasharray="5,2" d="M1615.33,-93.5C1655.9,-93.5 1706.69,-93.5 1743.65,-93.5"/>
<polygon fill="#9a32cd" stroke="#9a32cd" points="1615.25,-90.0001 1605.25,-93.5 1615.25,-97.0001 1615.25,-90.0001"/>
<text text-anchor="middle" x="1668.5" y="-96.5" font-family="Helvetica,sans-Serif" font-size="10.00"> impl</text>
</g>
<!-- Node19 -->
<g id="node19" class="node"><title>Node19</title>
<g id="a_node19"><a xlink:href="classvpr_1_1_physical_device_impl.html" target="_top" xlink:title="vpr::PhysicalDeviceImpl">
<polygon fill="white" stroke="black" points="1267,-84 1267,-103 1386,-103 1386,-84 1267,-84"/>
<text text-anchor="middle" x="1326.5" y="-91" font-family="Helvetica,sans-Serif" font-size="10.00">vpr::PhysicalDeviceImpl</text>
</a>
</g>
</g>
<!-- Node19&#45;&gt;Node18 -->
<g id="edge20" class="edge"><title>Node19&#45;&gt;Node18</title>
<path fill="none" stroke="#9a32cd" stroke-dasharray="5,2" d="M1396.36,-93.5C1426.1,-93.5 1460.49,-93.5 1488.8,-93.5"/>
<polygon fill="#9a32cd" stroke="#9a32cd" points="1396.05,-90.0001 1386.05,-93.5 1396.05,-97.0001 1396.05,-90.0001"/>
<text text-anchor="middle" x="1425.5" y="-96.5" font-family="Helvetica,sans-Serif" font-size="10.00"> ptr</text>
</g>
<!-- Node20 -->
<g id="node20" class="node"><title>Node20</title>
<polygon fill="white" stroke="#bfbfbf" points="988,-78.5 988,-108.5 1128,-108.5 1128,-78.5 988,-78.5"/>
<text text-anchor="start" x="996" y="-96.5" font-family="Helvetica,sans-Serif" font-size="10.00">std::vector&lt; VkQueueFamily</text>
<text text-anchor="middle" x="1058" y="-85.5" font-family="Helvetica,sans-Serif" font-size="10.00">Properties &gt;</text>
</g>
<!-- Node20&#45;&gt;Node19 -->
<g id="edge21" class="edge"><title>Node20&#45;&gt;Node19</title>
<path fill="none" stroke="#9a32cd" stroke-dasharray="5,2" d="M1138.35,-93.5C1179.6,-93.5 1229.15,-93.5 1266.9,-93.5"/>
<polygon fill="#9a32cd" stroke="#9a32cd" points="1138.32,-90.0001 1128.32,-93.5 1138.32,-97.0001 1138.32,-90.0001"/>
<text text-anchor="middle" x="1197.5" y="-96.5" font-family="Helvetica,sans-Serif" font-size="10.00"> queueFamilyProperties</text>
</g>
<!-- Node21&#45;&gt;Node13 -->
<g id="edge22" class="edge"><title>Node21&#45;&gt;Node13</title>
<path fill="none" stroke="#9a32cd" stroke-dasharray="5,2" d="M2351.87,-313.794C2389.28,-312.327 2436.6,-304.944 2471,-280.5 2506.78,-255.078 2523.98,-201.765 2529.72,-180.03"/>
<polygon fill="#9a32cd" stroke="#9a32cd" points="2351.5,-310.303 2341.6,-314.061 2351.68,-317.3 2351.5,-310.303"/>
<text text-anchor="middle" x="2425" y="-315.5" font-family="Helvetica,sans-Serif" font-size="10.00"> vkAllocator</text>
</g>
<!-- Node22&#45;&gt;Node13 -->
<g id="edge24" class="edge"><title>Node22&#45;&gt;Node13</title>
<path fill="none" stroke="#9a32cd" stroke-dasharray="5,2" d="M2336.23,-40.2759C2385.74,-48.0807 2460.05,-60.8134 2471,-68.5 2504.43,-91.9775 2522.64,-140.155 2529.17,-160.781"/>
<polygon fill="#9a32cd" stroke="#9a32cd" points="2336.49,-36.7746 2326.07,-38.6888 2335.41,-43.6906 2336.49,-36.7746"/>
<text text-anchor="middle" x="2425" y="-71.5" font-family="Helvetica,sans-Serif" font-size="10.00"> parentInstance</text>
</g>
<!-- Node25 -->
<g id="node25" class="node"><title>Node25</title>
<g id="a_node25"><a xlink:href="classvpr_1_1_surface_k_h_r.html" target="_top" xlink:title="The bare&#45;minimum required to wrap a VkSurfaceKHR object. ">
<polygon fill="white" stroke="black" points="2489,-27 2489,-46 2577,-46 2577,-27 2489,-27"/>
<text text-anchor="middle" x="2533" y="-34" font-family="Helvetica,sans-Serif" font-size="10.00">vpr::SurfaceKHR</text>
</a>
</g>
</g>
<!-- Node22&#45;&gt;Node25 -->
<g id="edge30" class="edge"><title>Node22&#45;&gt;Node25</title>
<path fill="none" stroke="#9a32cd" stroke-dasharray="5,2" d="M2336.51,-33.4118C2372.82,-33.4224 2425.2,-33.6218 2471,-34.5 2476.72,-34.6097 2482.74,-34.7621 2488.68,-34.9343"/>
<polygon fill="#9a32cd" stroke="#9a32cd" points="2336.25,-29.9118 2326.25,-33.4137 2336.25,-36.9118 2336.25,-29.9118"/>
<text text-anchor="middle" x="2425" y="-37.5" font-family="Helvetica,sans-Serif" font-size="10.00"> parent</text>
</g>
<!-- Node23&#45;&gt;Node22 -->
<g id="edge25" class="edge"><title>Node23&#45;&gt;Node22</title>
<path fill="none" stroke="#9a32cd" stroke-dasharray="5,2" d="M2108.27,-34.5851C2110.89,-34.5545 2113.47,-34.5259 2116,-34.5 2164.19,-34.0068 2219.92,-33.7395 2254.93,-33.6083"/>
<polygon fill="#9a32cd" stroke="#9a32cd" points="2108.09,-31.0871 2098.13,-34.712 2108.18,-38.0865 2108.09,-31.0871"/>
<text text-anchor="middle" x="2159" y="-37.5" font-family="Helvetica,sans-Serif" font-size="10.00"> physicalDevice</text>
</g>
<!-- Node24 -->
<g id="node24" class="node"><title>Node24</title>
<polygon fill="white" stroke="#bfbfbf" points="2628,-0.5 2628,-30.5 2730,-30.5 2730,-0.5 2628,-0.5"/>
<text text-anchor="start" x="2636" y="-18.5" font-family="Helvetica,sans-Serif" font-size="10.00">std::unique_ptr&lt; vpr</text>
<text text-anchor="middle" x="2679" y="-7.5" font-family="Helvetica,sans-Serif" font-size="10.00">::SurfaceKHR &gt;</text>
</g>
<!-- Node24&#45;&gt;Node22 -->
<g id="edge28" class="edge"><title>Node24&#45;&gt;Node22</title>
<path fill="none" stroke="#9a32cd" stroke-dasharray="5,2" d="M2617.87,-9.25832C2604.44,-8.1101 2590.24,-7.0889 2577,-6.5 2537.93,-4.76259 2528.02,-3.8451 2489,-6.5 2431.68,-10.3996 2365.66,-20.5946 2326.32,-27.281"/>
<polygon fill="#9a32cd" stroke="#9a32cd" points="2617.7,-12.7568 2627.97,-10.1561 2618.32,-5.78428 2617.7,-12.7568"/>
<text text-anchor="middle" x="2533" y="-9.5" font-family="Helvetica,sans-Serif" font-size="10.00"> surface</text>
</g>
<!-- Node25&#45;&gt;Node24 -->
<g id="edge29" class="edge"><title>Node25&#45;&gt;Node24</title>
<path fill="none" stroke="#9a32cd" stroke-dasharray="5,2" d="M2587.2,-28.7423C2600.54,-26.7963 2614.81,-24.715 2627.99,-22.7925"/>
<polygon fill="#9a32cd" stroke="#9a32cd" points="2586.59,-25.2928 2577.2,-30.1993 2587.61,-32.2195 2586.59,-25.2928"/>
<text text-anchor="middle" x="2602.5" y="-30.5" font-family="Helvetica,sans-Serif" font-size="10.00"> ptr</text>
</g>
<!-- Node26 -->
<g id="node26" class="node"><title>Node26</title>
<polygon fill="white" stroke="#bfbfbf" points="1739,-262 1739,-303 1850,-303 1850,-262 1739,-262"/>
<text text-anchor="start" x="1747" y="-291" font-family="Helvetica,sans-Serif" font-size="10.00">std::unordered_set</text>
<text text-anchor="start" x="1747" y="-280" font-family="Helvetica,sans-Serif" font-size="10.00">&lt; std::unique_ptr&lt; vpr</text>
<text text-anchor="middle" x="1794.5" y="-269" font-family="Helvetica,sans-Serif" font-size="10.00">::Allocation &gt; &gt;</text>
</g>
<!-- Node26&#45;&gt;Node6 -->
<g id="edge31" class="edge"><title>Node26&#45;&gt;Node6</title>
<path fill="none" stroke="#9a32cd" stroke-dasharray="5,2" d="M1860.42,-282.5C1908.23,-282.5 1971.44,-282.5 2010.38,-282.5"/>
<polygon fill="#9a32cd" stroke="#9a32cd" points="1860.16,-279 1850.16,-282.5 1860.16,-286 1860.16,-279"/>
<text text-anchor="middle" x="1938.5" y="-285.5" font-family="Helvetica,sans-Serif" font-size="10.00"> privateAllocations</text>
</g>
<!-- Node27 -->
<g id="node27" class="node"><title>Node27</title>
<polygon fill="white" stroke="#bfbfbf" points="1496,-267.5 1496,-297.5 1598,-297.5 1598,-267.5 1496,-267.5"/>
<text text-anchor="start" x="1504" y="-285.5" font-family="Helvetica,sans-Serif" font-size="10.00">std::unique_ptr&lt; vpr</text>
<text text-anchor="middle" x="1547" y="-274.5" font-family="Helvetica,sans-Serif" font-size="10.00">::Allocation &gt;</text>
</g>
<!-- Node27&#45;&gt;Node26 -->
<g id="edge32" class="edge"><title>Node27&#45;&gt;Node26</title>
<path fill="none" stroke="#9a32cd" stroke-dasharray="5,2" d="M1608.38,-282.5C1648.2,-282.5 1699.94,-282.5 1738.6,-282.5"/>
<polygon fill="#9a32cd" stroke="#9a32cd" points="1608.27,-279 1598.27,-282.5 1608.27,-286 1608.27,-279"/>
<text text-anchor="middle" x="1668.5" y="-285.5" font-family="Helvetica,sans-Serif" font-size="10.00"> keys</text>
</g>
<!-- Node28 -->
<g id="node28" class="node"><title>Node28</title>
<g id="a_node28"><a xlink:href="classvpr_1_1_allocation.html" target="_top" xlink:title="Allocation class represents a singular allocation: can be a private allocation (i.e, only user of attached DeviceMemory) or a block allocation (bound to sub&#45;region of device memory) ">
<polygon fill="white" stroke="black" points="1288,-273 1288,-292 1365,-292 1365,-273 1288,-273"/>
<text text-anchor="middle" x="1326.5" y="-280" font-family="Helvetica,sans-Serif" font-size="10.00">vpr::Allocation</text>
</a>
</g>
</g>
<!-- Node28&#45;&gt;Node27 -->
<g id="edge33" class="edge"><title>Node28&#45;&gt;Node27</title>
<path fill="none" stroke="#9a32cd" stroke-dasharray="5,2" d="M1375.22,-282.5C1410.91,-282.5 1459.59,-282.5 1495.85,-282.5"/>
<polygon fill="#9a32cd" stroke="#9a32cd" points="1375.06,-279 1365.06,-282.5 1375.06,-286 1375.06,-279"/>
<text text-anchor="middle" x="1425.5" y="-285.5" font-family="Helvetica,sans-Serif" font-size="10.00"> ptr</text>
</g>
<!-- Node29 -->
<g id="node29" class="node"><title>Node29</title>
<polygon fill="white" stroke="#bfbfbf" points="1730,-212.5 1730,-242.5 1859,-242.5 1859,-212.5 1730,-212.5"/>
<text text-anchor="start" x="1738" y="-230.5" font-family="Helvetica,sans-Serif" font-size="10.00">std::map&lt; AllocationSize,</text>
<text text-anchor="middle" x="1794.5" y="-219.5" font-family="Helvetica,sans-Serif" font-size="10.00"> std::vector&lt; bool &gt; &gt;</text>
</g>
<!-- Node29&#45;&gt;Node6 -->
<g id="edge34" class="edge"><title>Node29&#45;&gt;Node6</title>
<path fill="none" stroke="#9a32cd" stroke-dasharray="5,2" d="M1869.36,-243.665C1902.57,-250.939 1942.26,-259.641 1978,-267.5 1988.51,-269.811 1999.93,-272.328 2010.36,-274.628"/>
<polygon fill="#9a32cd" stroke="#9a32cd" points="1869.79,-240.176 1859.27,-241.455 1868.29,-247.014 1869.79,-240.176"/>
<text text-anchor="middle" x="1938.5" y="-270.5" font-family="Helvetica,sans-Serif" font-size="10.00"> emptyAllocations</text>
</g>
<!-- Node30 -->
<g id="node30" class="node"><title>Node30</title>
<polygon fill="white" stroke="#bfbfbf" points="1498,-218 1498,-237 1596,-237 1596,-218 1498,-218"/>
<text text-anchor="middle" x="1547" y="-225" font-family="Helvetica,sans-Serif" font-size="10.00">std::vector&lt; bool &gt;</text>
</g>
<!-- Node30&#45;&gt;Node29 -->
<g id="edge35" class="edge"><title>Node30&#45;&gt;Node29</title>
<path fill="none" stroke="#9a32cd" stroke-dasharray="5,2" d="M1606.36,-227.5C1643.45,-227.5 1691.47,-227.5 1729.59,-227.5"/>
<polygon fill="#9a32cd" stroke="#9a32cd" points="1606.21,-224 1596.21,-227.5 1606.21,-231 1606.21,-224"/>
<text text-anchor="middle" x="1668.5" y="-230.5" font-family="Helvetica,sans-Serif" font-size="10.00"> elements</text>
</g>
</g>
</svg>
        <g id="navigator" transform="translate(0 0)" fill="#404254">
                <rect fill="#f2f5e9" fill-opacity="0.5" stroke="#606060" stroke-width=".5" x="0" y="0" width="60" height="60"/>
                <use id="zoomplus" xlink:href="#zoomPlus" x="17" y="9" onmousedown="handleZoom(evt,'in')"/>
                <use id="zoomminus" xlink:href="#zoomMin" x="42" y="9" onmousedown="handleZoom(evt,'out')"/>
                <use id="reset" xlink:href="#resetDef" x="30" y="36" onmousedown="handleReset()"/>
                <g id="arrowUp" xlink:href="#dirArrow" transform="translate(30 24)" onmousedown="handlePan(0,-1)">
                  <use xlink:href="#rim" fill="#404040">
                        <set attributeName="fill" to="#808080" begin="arrowUp.mouseover" end="arrowUp.mouseout"/>
                  </use>
                  <path fill="none" stroke="white" stroke-width="1.5" d="M0,-3.0v7 M-2.5,-0.5L0,-3.0L2.5,-0.5"/>
                </g>
                <g id="arrowRight" xlink:href="#dirArrow" transform="rotate(90) translate(36 -43)" onmousedown="handlePan(1,0)">
                  <use xlink:href="#rim" fill="#404040">
                        <set attributeName="fill" to="#808080" begin="arrowRight.mouseover" end="arrowRight.mouseout"/>
                  </use>
                  <path fill="none" stroke="white" stroke-width="1.5" d="M0,-3.0v7 M-2.5,-0.5L0,-3.0L2.5,-0.5"/>
                </g>
                <g id="arrowDown" xlink:href="#dirArrow" transform="rotate(180) translate(-30 -48)" onmousedown="handlePan(0,1)">
                  <use xlink:href="#rim" fill="#404040">
                        <set attributeName="fill" to="#808080" begin="arrowDown.mouseover" end="arrowDown.mouseout"/>
                  </use>
                  <path fill="none" stroke="white" stroke-width="1.5" d="M0,-3.0v7 M-2.5,-0.5L0,-3.0L2.5,-0.5"/>
                </g>
                <g id="arrowLeft" xlink:href="#dirArrow" transform="rotate(270) translate(-36 17)" onmousedown="handlePan(-1,0)">
                  <use xlink:href="#rim" fill="#404040">
                        <set attributeName="fill" to="#808080" begin="arrowLeft.mouseover" end="arrowLeft.mouseout"/>
                  </use>
                  <path fill="none" stroke="white" stroke-width="1.5" d="M0,-3.0v7 M-2.5,-0.5L0,-3.0L2.5,-0.5"/>
                </g>
        </g>
        <svg viewBox="0 0 15 15" width="100%" height="30px" preserveAspectRatio="xMaxYMin meet">
         <g id="arrow_out" transform="scale(0.3 0.3)">
          <a xlink:href="classvpr_1_1_memory_block__coll__graph_org.svg" target="_base">
           <rect id="button" ry="5" rx="5" y="6" x="6" height="38" width="38"
                fill="#f2f5e9" fill-opacity="0.5" stroke="#606060" stroke-width="1.0"/>
           <path id="arrow"
             d="M 11.500037,31.436501 C 11.940474,20.09759 22.043105,11.32322 32.158766,21.979434 L 37.068811,17.246167 C 37.068811,17.246167 37.088388,32 37.088388,32 L 22.160133,31.978069 C 22.160133,31.978069 26.997745,27.140456 26.997745,27.140456 C 18.528582,18.264221 13.291696,25.230495 11.500037,31.436501 z"
             style="fill:#404040;"/>
          </a>
         </g>
        </svg>
</svg>
