<?xml version="1.0" encoding="UTF-8" standalone="no"?>
<!DOCTYPE svg PUBLIC "-//W3C//DTD SVG 1.1//EN"
 "http://www.w3.org/Graphics/SVG/1.1/DTD/svg11.dtd">
<!-- Generated by graphviz version 2.38.0 (20140413.2041)
 -->
<!-- Title: el::base::utils::Str::wildCardMatch Pages: 1 -->
<svg width="238pt" height="39pt"
 viewBox="0.00 0.00 238.00 39.00" xmlns="http://www.w3.org/2000/svg" xmlns:xlink="http://www.w3.org/1999/xlink">
<g id="graph0" class="graph" transform="scale(1 1) rotate(0) translate(4 35)">
<title>el::base::utils::Str::wildCardMatch</title>
<polygon fill="white" stroke="none" points="-4,4 -4,-35 234,-35 234,4 -4,4"/>
<!-- Node75 -->
<g id="node1" class="node"><title>Node75</title>
<polygon fill="#bfbfbf" stroke="black" points="0,-0.5 0,-30.5 94,-30.5 94,-0.5 0,-0.5"/>
<text text-anchor="start" x="8" y="-18.5" font-family="Helvetica,sans-Serif" font-size="10.00">el::base::utils::Str</text>
<text text-anchor="middle" x="47" y="-7.5" font-family="Helvetica,sans-Serif" font-size="10.00">::wildCardMatch</text>
</g>
<!-- Node76 -->
<g id="node2" class="node"><title>Node76</title>
<g id="a_node2"><a xlink:href="classel_1_1base_1_1_v_registry.html#a13b725e3da8935fce5cf3c16fd3a2ff9" target="_top" xlink:title="el::base::VRegistry\l::allowed">
<polygon fill="white" stroke="black" points="130,-0.5 130,-30.5 230,-30.5 230,-0.5 130,-0.5"/>
<text text-anchor="start" x="138" y="-18.5" font-family="Helvetica,sans-Serif" font-size="10.00">el::base::VRegistry</text>
<text text-anchor="middle" x="180" y="-7.5" font-family="Helvetica,sans-Serif" font-size="10.00">::allowed</text>
</a>
</g>
</g>
<!-- Node75&#45;&gt;Node76 -->
<g id="edge1" class="edge"><title>Node75&#45;&gt;Node76</title>
<path fill="none" stroke="midnightblue" d="M104.331,-15.5C112.764,-15.5 121.403,-15.5 129.676,-15.5"/>
<polygon fill="midnightblue" stroke="midnightblue" points="104.186,-12.0001 94.1857,-15.5 104.186,-19.0001 104.186,-12.0001"/>
</g>
</g>
</svg>
