<?xml version="1.0" encoding="UTF-8" standalone="no"?>
<!DOCTYPE svg PUBLIC "-//W3C//DTD SVG 1.1//EN"
 "http://www.w3.org/Graphics/SVG/1.1/DTD/svg11.dtd">
<!-- Generated by graphviz version 2.38.0 (20140413.2041)
 -->
<!-- Title: el::base::DefaultLogDispatchCallback Pages: 1 -->
<svg width="2741pt" height="665pt"
 viewBox="0.00 0.00 2741.00 664.50" xmlns="http://www.w3.org/2000/svg" xmlns:xlink="http://www.w3.org/1999/xlink">
<g id="graph0" class="graph" transform="scale(1 1) rotate(0) translate(4 660.5)">
<title>el::base::DefaultLogDispatchCallback</title>
<polygon fill="white" stroke="none" points="-4,4 -4,-660.5 2737,-660.5 2737,4 -4,4"/>
<!-- Node4 -->
<g id="node1" class="node"><title>Node4</title>
<polygon fill="#bfbfbf" stroke="black" points="2592,-614 2592,-644 2733,-644 2733,-614 2592,-614"/>
<text text-anchor="start" x="2600" y="-632" font-family="Helvetica,sans-Serif" font-size="10.00">el::base::DefaultLogDispatch</text>
<text text-anchor="middle" x="2662.5" y="-621" font-family="Helvetica,sans-Serif" font-size="10.00">Callback</text>
</g>
<!-- Node5 -->
<g id="node2" class="node"><title>Node5</title>
<g id="a_node2"><a xlink:href="classel_1_1_log_dispatch_callback.html" target="_top" xlink:title="el::LogDispatchCallback">
<polygon fill="white" stroke="black" points="1354,-635.5 1354,-654.5 1476,-654.5 1476,-635.5 1354,-635.5"/>
<text text-anchor="middle" x="1415" y="-642.5" font-family="Helvetica,sans-Serif" font-size="10.00">el::LogDispatchCallback</text>
</a>
</g>
</g>
<!-- Node5&#45;&gt;Node4 -->
<g id="edge1" class="edge"><title>Node5&#45;&gt;Node4</title>
<path fill="none" stroke="midnightblue" d="M1486.2,-648.608C1548,-651.473 1640.45,-655 1721,-655 1721,-655 1721,-655 2469,-655 2509.97,-655 2555.42,-649.143 2591.86,-642.989"/>
<polygon fill="midnightblue" stroke="midnightblue" points="1486.32,-645.11 1476.17,-648.137 1485.99,-652.102 1486.32,-645.11"/>
</g>
<!-- Node6 -->
<g id="node3" class="node"><title>Node6</title>
<g id="a_node3"><a xlink:href="classel_1_1_callback.html" target="_top" xlink:title="el::Callback\&lt; LogDispatch\lData \&gt;">
<polygon fill="white" stroke="black" points="1041,-626 1041,-656 1172,-656 1172,-626 1041,-626"/>
<text text-anchor="start" x="1049" y="-644" font-family="Helvetica,sans-Serif" font-size="10.00">el::Callback&lt; LogDispatch</text>
<text text-anchor="middle" x="1106.5" y="-633" font-family="Helvetica,sans-Serif" font-size="10.00">Data &gt;</text>
</a>
</g>
</g>
<!-- Node6&#45;&gt;Node5 -->
<g id="edge2" class="edge"><title>Node6&#45;&gt;Node5</title>
<path fill="none" stroke="midnightblue" d="M1182.43,-641.978C1235.16,-642.666 1304.79,-643.575 1353.89,-644.215"/>
<polygon fill="midnightblue" stroke="midnightblue" points="1182.17,-638.474 1172.13,-641.843 1182.08,-645.474 1182.17,-638.474"/>
</g>
<!-- Node7 -->
<g id="node4" class="node"><title>Node7</title>
<g id="a_node4"><a xlink:href="classel_1_1base_1_1threading_1_1_thread_safe.html" target="_top" xlink:title="Base of thread safe class, this class is inheritable&#45;only. ">
<polygon fill="white" stroke="black" points="611.5,-568 611.5,-598 708.5,-598 708.5,-568 611.5,-568"/>
<text text-anchor="start" x="619.5" y="-586" font-family="Helvetica,sans-Serif" font-size="10.00">el::base::threading</text>
<text text-anchor="middle" x="660" y="-575" font-family="Helvetica,sans-Serif" font-size="10.00">::ThreadSafe</text>
</a>
</g>
</g>
<!-- Node7&#45;&gt;Node6 -->
<g id="edge3" class="edge"><title>Node7&#45;&gt;Node6</title>
<path fill="none" stroke="darkgreen" d="M712.865,-601.086C724.32,-604.519 736.477,-607.74 748,-610 849.176,-629.848 968.949,-636.989 1040.99,-639.558"/>
<polygon fill="darkgreen" stroke="darkgreen" points="713.602,-597.65 703.014,-598.032 711.529,-604.336 713.602,-597.65"/>
</g>
<!-- Node14 -->
<g id="node11" class="node"><title>Node14</title>
<g id="a_node11"><a xlink:href="classel_1_1_logger.html" target="_top" xlink:title="Represents a logger holding ID and configurations we need to write logs. ">
<polygon fill="white" stroke="black" points="2086,-447.5 2086,-466.5 2145,-466.5 2145,-447.5 2086,-447.5"/>
<text text-anchor="middle" x="2115.5" y="-454.5" font-family="Helvetica,sans-Serif" font-size="10.00">el::Logger</text>
</a>
</g>
</g>
<!-- Node7&#45;&gt;Node14 -->
<g id="edge11" class="edge"><title>Node7&#45;&gt;Node14</title>
<path fill="none" stroke="midnightblue" d="M718.616,-587.171C776.159,-590.973 867.151,-596 946,-596 946,-596 946,-596 1416,-596 1488.77,-596 2006.39,-572.727 2068,-534 2093.12,-518.21 2106.57,-483.443 2111.83,-466.566"/>
<polygon fill="midnightblue" stroke="midnightblue" points="718.835,-583.678 708.623,-586.501 718.366,-590.662 718.835,-583.678"/>
</g>
<!-- Node18 -->
<g id="node15" class="node"><title>Node18</title>
<g id="a_node15"><a xlink:href="classel_1_1base_1_1_typed_configurations.html" target="_top" xlink:title="Configurations with data types. ">
<polygon fill="white" stroke="black" points="1802,-300.5 1802,-319.5 1947,-319.5 1947,-300.5 1802,-300.5"/>
<text text-anchor="middle" x="1874.5" y="-307.5" font-family="Helvetica,sans-Serif" font-size="10.00">el::base::TypedConfigurations</text>
</a>
</g>
</g>
<!-- Node7&#45;&gt;Node18 -->
<g id="edge17" class="edge"><title>Node7&#45;&gt;Node18</title>
<path fill="none" stroke="midnightblue" d="M719.004,-580.648C902.225,-572.764 1466.8,-544.861 1642,-494 1708.84,-474.598 1729.82,-471.679 1784,-428 1824.24,-395.564 1856.46,-341.319 1868.45,-319.508"/>
<polygon fill="midnightblue" stroke="midnightblue" points="718.612,-577.161 708.771,-581.085 718.911,-584.155 718.612,-577.161"/>
</g>
<!-- Node24 -->
<g id="node21" class="node"><title>Node24</title>
<g id="a_node21"><a xlink:href="classel_1_1base_1_1utils_1_1_abstract_registry.html" target="_top" xlink:title="el::base::utils::Abstract\lRegistry\&lt; Configuration,\l std::vector\&lt; Configuration *\&gt; \&gt;">
<polygon fill="white" stroke="black" points="871,-351.5 871,-392.5 1023,-392.5 1023,-351.5 871,-351.5"/>
<text text-anchor="start" x="879" y="-380.5" font-family="Helvetica,sans-Serif" font-size="10.00">el::base::utils::Abstract</text>
<text text-anchor="start" x="879" y="-369.5" font-family="Helvetica,sans-Serif" font-size="10.00">Registry&lt; Configuration,</text>
<text text-anchor="middle" x="947" y="-358.5" font-family="Helvetica,sans-Serif" font-size="10.00"> std::vector&lt; Configuration *&gt; &gt;</text>
</a>
</g>
</g>
<!-- Node7&#45;&gt;Node24 -->
<g id="edge26" class="edge"><title>Node7&#45;&gt;Node24</title>
<path fill="none" stroke="midnightblue" d="M681.94,-560.658C717.711,-523.545 794.193,-448.663 871,-402 876.513,-398.651 882.467,-395.536 888.524,-392.681"/>
<polygon fill="midnightblue" stroke="midnightblue" points="679.32,-558.334 674.94,-567.981 684.38,-563.171 679.32,-558.334"/>
</g>
<!-- Node8 -->
<g id="node5" class="node"><title>Node8</title>
<g id="a_node5"><a xlink:href="classel_1_1base_1_1threading_1_1internal_1_1_no_mutex.html" target="_top" xlink:title="Mutex wrapper used when multi&#45;threading is disabled. ">
<polygon fill="white" stroke="black" points="347.5,-568 347.5,-598 446.5,-598 446.5,-568 347.5,-568"/>
<text text-anchor="start" x="355.5" y="-586" font-family="Helvetica,sans-Serif" font-size="10.00">el::base::threading</text>
<text text-anchor="middle" x="397" y="-575" font-family="Helvetica,sans-Serif" font-size="10.00">::internal::NoMutex</text>
</a>
</g>
</g>
<!-- Node8&#45;&gt;Node7 -->
<g id="edge4" class="edge"><title>Node8&#45;&gt;Node7</title>
<path fill="none" stroke="#9a32cd" stroke-dasharray="5,2" d="M457.049,-583C503.689,-583 567.931,-583 611.334,-583"/>
<polygon fill="#9a32cd" stroke="#9a32cd" points="456.786,-579.5 446.786,-583 456.786,-586.5 456.786,-579.5"/>
<text text-anchor="middle" x="519.5" y="-586" font-family="Helvetica,sans-Serif" font-size="10.00"> m_mutex</text>
</g>
<!-- Node9 -->
<g id="node6" class="node"><title>Node9</title>
<g id="a_node6"><a xlink:href="classel_1_1base_1_1_no_copy.html" target="_top" xlink:title="Internal helper class that prevent copy constructor for class. ">
<polygon fill="white" stroke="black" points="132,-573.5 132,-592.5 224,-592.5 224,-573.5 132,-573.5"/>
<text text-anchor="middle" x="178" y="-580.5" font-family="Helvetica,sans-Serif" font-size="10.00">el::base::NoCopy</text>
</a>
</g>
</g>
<!-- Node9&#45;&gt;Node8 -->
<g id="edge5" class="edge"><title>Node9&#45;&gt;Node8</title>
<path fill="none" stroke="#8b1a1a" d="M234.261,-583C269.182,-583 313.884,-583 347.439,-583"/>
<polygon fill="#8b1a1a" stroke="#8b1a1a" points="234.226,-579.5 224.226,-583 234.226,-586.5 234.226,-579.5"/>
</g>
<!-- Node10 -->
<g id="node7" class="node"><title>Node10</title>
<g id="a_node7"><a xlink:href="classel_1_1_log_dispatch_data.html" target="_top" xlink:title="el::LogDispatchData">
<polygon fill="white" stroke="black" points="2416,-567.5 2416,-586.5 2520,-586.5 2520,-567.5 2416,-567.5"/>
<text text-anchor="middle" x="2468" y="-574.5" font-family="Helvetica,sans-Serif" font-size="10.00">el::LogDispatchData</text>
</a>
</g>
</g>
<!-- Node10&#45;&gt;Node4 -->
<g id="edge6" class="edge"><title>Node10&#45;&gt;Node4</title>
<path fill="none" stroke="#9a32cd" stroke-dasharray="5,2" d="M2514.01,-589.158C2541.36,-596.547 2576.51,-606.041 2605.63,-613.908"/>
<polygon fill="#9a32cd" stroke="#9a32cd" points="2514.87,-585.767 2504.31,-586.538 2513.05,-592.524 2514.87,-585.767"/>
<text text-anchor="middle" x="2556" y="-608" font-family="Helvetica,sans-Serif" font-size="10.00"> m_data</text>
</g>
<!-- Node11 -->
<g id="node8" class="node"><title>Node11</title>
<g id="a_node8"><a xlink:href="classel_1_1_log_message.html" target="_top" xlink:title="el::LogMessage">
<polygon fill="white" stroke="black" points="2224,-447.5 2224,-466.5 2310,-466.5 2310,-447.5 2224,-447.5"/>
<text text-anchor="middle" x="2267" y="-454.5" font-family="Helvetica,sans-Serif" font-size="10.00">el::LogMessage</text>
</a>
</g>
</g>
<!-- Node11&#45;&gt;Node10 -->
<g id="edge7" class="edge"><title>Node11&#45;&gt;Node10</title>
<path fill="none" stroke="#9a32cd" stroke-dasharray="5,2" d="M2292.59,-471.827C2333.94,-496.76 2416.26,-546.406 2450.98,-567.337"/>
<polygon fill="#9a32cd" stroke="#9a32cd" points="2294.32,-468.784 2283.95,-466.617 2290.7,-474.778 2294.32,-468.784"/>
<text text-anchor="middle" x="2363" y="-538" font-family="Helvetica,sans-Serif" font-size="10.00"> m_logMessage</text>
</g>
<!-- Node12 -->
<g id="node9" class="node"><title>Node12</title>
<g id="a_node9"><a xlink:title="STL class. ">
<polygon fill="white" stroke="#bfbfbf" points="148,-189.5 148,-208.5 208,-208.5 208,-189.5 148,-189.5"/>
<text text-anchor="middle" x="178" y="-196.5" font-family="Helvetica,sans-Serif" font-size="10.00">std::string</text>
</a>
</g>
</g>
<!-- Node12&#45;&gt;Node11 -->
<g id="edge8" class="edge"><title>Node12&#45;&gt;Node11</title>
<path fill="none" stroke="#9a32cd" stroke-dasharray="5,2" d="M184.512,-179.666C192.962,-153.063 211.431,-105.057 242,-75 296.284,-21.6242 319.87,-0 396,-0 396,-0 396,-0 2116.5,-0 2214.17,-0 2258.2,-381.828 2265.04,-447.455"/>
<polygon fill="#9a32cd" stroke="#9a32cd" points="181.131,-178.755 181.584,-189.341 187.831,-180.783 181.131,-178.755"/>
<text text-anchor="middle" x="1263" y="-25" font-family="Helvetica,sans-Serif" font-size="10.00"> m_message</text>
<text text-anchor="middle" x="1263" y="-14" font-family="Helvetica,sans-Serif" font-size="10.00">m_func</text>
<text text-anchor="middle" x="1263" y="-3" font-family="Helvetica,sans-Serif" font-size="10.00">m_file</text>
</g>
<!-- Node12&#45;&gt;Node14 -->
<g id="edge48" class="edge"><title>Node12&#45;&gt;Node14</title>
<path fill="none" stroke="#9a32cd" stroke-dasharray="5,2" d="M193.699,-181.025C226.037,-143.65 307.548,-61 396,-61 396,-61 396,-61 1875.5,-61 1990.23,-61 2010.68,-133.612 2068,-233 2110.66,-306.973 2114.46,-414.69 2114.59,-447.296"/>
<polygon fill="#9a32cd" stroke="#9a32cd" points="190.676,-179.18 186.891,-189.075 196.021,-183.7 190.676,-179.18"/>
<text text-anchor="middle" x="1106.5" y="-75" font-family="Helvetica,sans-Serif" font-size="10.00"> m_parentApplicationName</text>
<text text-anchor="middle" x="1106.5" y="-64" font-family="Helvetica,sans-Serif" font-size="10.00">m_id</text>
</g>
<!-- Node17 -->
<g id="node14" class="node"><title>Node17</title>
<polygon fill="white" stroke="#bfbfbf" points="1513,-184 1513,-214 1623,-214 1623,-184 1513,-184"/>
<text text-anchor="start" x="1521" y="-202" font-family="Helvetica,sans-Serif" font-size="10.00">std::map&lt; std::string,</text>
<text text-anchor="middle" x="1568" y="-191" font-family="Helvetica,sans-Serif" font-size="10.00"> FileStreamPtr &gt;</text>
</g>
<!-- Node12&#45;&gt;Node17 -->
<g id="edge15" class="edge"><title>Node12&#45;&gt;Node17</title>
<path fill="none" stroke="#9a32cd" stroke-dasharray="5,2" d="M218.278,-199C261.745,-199 333.875,-199 396,-199 396,-199 396,-199 1264,-199 1351.06,-199 1452.19,-199 1512.81,-199"/>
<polygon fill="#9a32cd" stroke="#9a32cd" points="218.132,-195.5 208.132,-199 218.132,-202.5 218.132,-195.5"/>
<text text-anchor="middle" x="800.5" y="-202" font-family="Helvetica,sans-Serif" font-size="10.00"> keys</text>
</g>
<!-- Node21 -->
<g id="node18" class="node"><title>Node21</title>
<polygon fill="white" stroke="#bfbfbf" points="467,-105 467,-135 572,-135 572,-105 467,-105"/>
<text text-anchor="start" x="475" y="-123" font-family="Helvetica,sans-Serif" font-size="10.00">std::map&lt; Level, std</text>
<text text-anchor="middle" x="519.5" y="-112" font-family="Helvetica,sans-Serif" font-size="10.00">::string &gt;</text>
</g>
<!-- Node12&#45;&gt;Node21 -->
<g id="edge22" class="edge"><title>Node12&#45;&gt;Node21</title>
<path fill="none" stroke="#9a32cd" stroke-dasharray="5,2" d="M209.528,-185.569C219.715,-181.444 231.218,-177.162 242,-174 318.97,-151.423 410.798,-135.611 466.859,-127.162"/>
<polygon fill="#9a32cd" stroke="#9a32cd" points="208.121,-182.364 200.232,-189.435 210.809,-188.827 208.121,-182.364"/>
<text text-anchor="middle" x="284.5" y="-177" font-family="Helvetica,sans-Serif" font-size="10.00"> elements</text>
</g>
<!-- Node22 -->
<g id="node19" class="node"><title>Node22</title>
<g id="a_node19"><a xlink:href="classel_1_1_configurations.html" target="_top" xlink:title="Thread&#45;safe Configuration repository. ">
<polygon fill="white" stroke="black" points="1522,-408.5 1522,-427.5 1614,-427.5 1614,-408.5 1522,-408.5"/>
<text text-anchor="middle" x="1568" y="-415.5" font-family="Helvetica,sans-Serif" font-size="10.00">el::Configurations</text>
</a>
</g>
</g>
<!-- Node12&#45;&gt;Node22 -->
<g id="edge31" class="edge"><title>Node12&#45;&gt;Node22</title>
<path fill="none" stroke="#9a32cd" stroke-dasharray="5,2" d="M184.079,-218.437C191.875,-243.993 209.427,-288.091 242,-309 299.836,-346.126 327.273,-323 396,-323 396,-323 396,-323 801.5,-323 871.576,-323 1335.65,-373.949 1336,-374 1401.44,-383.56 1476.56,-398.64 1522.91,-408.426"/>
<polygon fill="#9a32cd" stroke="#9a32cd" points="187.423,-217.402 181.32,-208.742 180.691,-219.318 187.423,-217.402"/>
<text text-anchor="middle" x="800.5" y="-326" font-family="Helvetica,sans-Serif" font-size="10.00"> m_configurationFile</text>
</g>
<!-- Node26 -->
<g id="node23" class="node"><title>Node26</title>
<g id="a_node23"><a xlink:href="classel_1_1_configuration.html" target="_top" xlink:title="Represents single configuration that has representing level, configuration type and a string based va...">
<polygon fill="white" stroke="black" points="354,-371.5 354,-390.5 440,-390.5 440,-371.5 354,-371.5"/>
<text text-anchor="middle" x="397" y="-378.5" font-family="Helvetica,sans-Serif" font-size="10.00">el::Configuration</text>
</a>
</g>
</g>
<!-- Node12&#45;&gt;Node26 -->
<g id="edge30" class="edge"><title>Node12&#45;&gt;Node26</title>
<path fill="none" stroke="#9a32cd" stroke-dasharray="5,2" d="M182.569,-218.762C189.03,-248.765 205.53,-305.626 242,-337 273.303,-363.928 320.109,-374.421 353.899,-378.485"/>
<polygon fill="#9a32cd" stroke="#9a32cd" points="185.949,-217.812 180.564,-208.687 179.084,-219.178 185.949,-217.812"/>
<text text-anchor="middle" x="284.5" y="-377" font-family="Helvetica,sans-Serif" font-size="10.00"> m_value</text>
</g>
<!-- Node31 -->
<g id="node28" class="node"><title>Node31</title>
<g id="a_node28"><a xlink:href="classel_1_1base_1_1_log_format.html" target="_top" xlink:title="Represents log format containing flags and date format. This is used internally to start initial log...">
<polygon fill="white" stroke="black" points="345,-274.5 345,-293.5 449,-293.5 449,-274.5 345,-274.5"/>
<text text-anchor="middle" x="397" y="-281.5" font-family="Helvetica,sans-Serif" font-size="10.00">el::base::LogFormat</text>
</a>
</g>
</g>
<!-- Node12&#45;&gt;Node31 -->
<g id="edge38" class="edge"><title>Node12&#45;&gt;Node31</title>
<path fill="none" stroke="#9a32cd" stroke-dasharray="5,2" d="M215.558,-211.96C245.641,-222.774 289.308,-238.816 327,-254 343.115,-260.492 361.109,-268.336 374.681,-274.374"/>
<polygon fill="#9a32cd" stroke="#9a32cd" points="216.499,-208.579 205.905,-208.502 214.138,-215.169 216.499,-208.579"/>
<text text-anchor="middle" x="284.5" y="-301" font-family="Helvetica,sans-Serif" font-size="10.00"> m_format</text>
<text text-anchor="middle" x="284.5" y="-290" font-family="Helvetica,sans-Serif" font-size="10.00">m_currentHost</text>
<text text-anchor="middle" x="284.5" y="-279" font-family="Helvetica,sans-Serif" font-size="10.00">m_userFormat</text>
<text text-anchor="middle" x="284.5" y="-268" font-family="Helvetica,sans-Serif" font-size="10.00">m_currentUser</text>
<text text-anchor="middle" x="284.5" y="-257" font-family="Helvetica,sans-Serif" font-size="10.00">m_dateTimeFormat</text>
</g>
<!-- Node13 -->
<g id="node10" class="node"><title>Node13</title>
<g id="a_node10"><a xlink:title="STL class. ">
<polygon fill="white" stroke="#bfbfbf" points="0,-184 0,-214 95,-214 95,-184 0,-184"/>
<text text-anchor="start" x="8" y="-202" font-family="Helvetica,sans-Serif" font-size="10.00">std::basic_string&lt;</text>
<text text-anchor="middle" x="47.5" y="-191" font-family="Helvetica,sans-Serif" font-size="10.00"> char &gt;</text>
</a>
</g>
</g>
<!-- Node13&#45;&gt;Node12 -->
<g id="edge9" class="edge"><title>Node13&#45;&gt;Node12</title>
<path fill="none" stroke="midnightblue" d="M105.264,-199C119.898,-199 135.056,-199 147.648,-199"/>
<polygon fill="midnightblue" stroke="midnightblue" points="105.255,-195.5 95.255,-199 105.255,-202.5 105.255,-195.5"/>
</g>
<!-- Node14&#45;&gt;Node11 -->
<g id="edge10" class="edge"><title>Node14&#45;&gt;Node11</title>
<path fill="none" stroke="#9a32cd" stroke-dasharray="5,2" d="M2155.51,-457C2176.54,-457 2202.5,-457 2223.97,-457"/>
<polygon fill="#9a32cd" stroke="#9a32cd" points="2155.33,-453.5 2145.33,-457 2155.33,-460.5 2155.33,-453.5"/>
<text text-anchor="middle" x="2184.5" y="-460" font-family="Helvetica,sans-Serif" font-size="10.00"> m_logger</text>
</g>
<!-- Node15 -->
<g id="node12" class="node"><title>Node15</title>
<g id="a_node12"><a xlink:href="classel_1_1_loggable.html" target="_top" xlink:title="Base of Easylogging++ friendly class. ">
<polygon fill="white" stroke="black" points="143.5,-397.5 143.5,-416.5 212.5,-416.5 212.5,-397.5 143.5,-397.5"/>
<text text-anchor="middle" x="178" y="-404.5" font-family="Helvetica,sans-Serif" font-size="10.00">el::Loggable</text>
</a>
</g>
</g>
<!-- Node15&#45;&gt;Node14 -->
<g id="edge12" class="edge"><title>Node15&#45;&gt;Node14</title>
<path fill="none" stroke="midnightblue" d="M206.534,-421.1C238.78,-436.858 294.258,-461.649 345,-473 675.477,-546.927 766.855,-520 1105.5,-520 1105.5,-520 1105.5,-520 1875.5,-520 1962.46,-520 1986.64,-515.709 2068,-485 2079.99,-480.474 2092.36,-472.855 2101.33,-466.706"/>
<polygon fill="midnightblue" stroke="midnightblue" points="207.817,-417.829 197.303,-416.524 204.708,-424.101 207.817,-417.829"/>
</g>
<!-- Node15&#45;&gt;Node26 -->
<g id="edge29" class="edge"><title>Node15&#45;&gt;Node26</title>
<path fill="none" stroke="midnightblue" d="M222.579,-403.775C252.113,-401.37 291.99,-397.693 327,-393 335.677,-391.837 344.931,-390.379 353.751,-388.884"/>
<polygon fill="midnightblue" stroke="midnightblue" points="222.279,-400.288 212.589,-404.573 222.836,-407.266 222.279,-400.288"/>
</g>
<!-- Node15&#45;&gt;Node31 -->
<g id="edge37" class="edge"><title>Node15&#45;&gt;Node31</title>
<path fill="none" stroke="midnightblue" d="M199.251,-391.343C211.349,-382.294 227.197,-370.965 242,-362 287.631,-334.365 344.259,-307.45 374.531,-293.614"/>
<polygon fill="midnightblue" stroke="midnightblue" points="197.031,-388.634 191.173,-397.462 201.258,-394.213 197.031,-388.634"/>
</g>
<!-- Node16 -->
<g id="node13" class="node"><title>Node16</title>
<polygon fill="white" stroke="#bfbfbf" points="1809,-596 1809,-626 1940,-626 1940,-596 1809,-596"/>
<text text-anchor="start" x="1817" y="-614" font-family="Helvetica,sans-Serif" font-size="10.00">std::map&lt; Level, unsigned</text>
<text text-anchor="middle" x="1874.5" y="-603" font-family="Helvetica,sans-Serif" font-size="10.00"> int &gt;</text>
</g>
<!-- Node16&#45;&gt;Node14 -->
<g id="edge13" class="edge"><title>Node16&#45;&gt;Node14</title>
<path fill="none" stroke="#9a32cd" stroke-dasharray="5,2" d="M1950.39,-616.416C1989.35,-615.337 2035.49,-607.464 2068,-581 2104.37,-551.387 2112.3,-490.229 2114.03,-466.605"/>
<polygon fill="#9a32cd" stroke="#9a32cd" points="1950.08,-612.92 1940.13,-616.551 1950.18,-619.919 1950.08,-612.92"/>
<text text-anchor="middle" x="2016.5" y="-619" font-family="Helvetica,sans-Serif" font-size="10.00"> m_unflushedCount</text>
</g>
<!-- Node17&#45;&gt;Node14 -->
<g id="edge14" class="edge"><title>Node17&#45;&gt;Node14</title>
<path fill="none" stroke="#9a32cd" stroke-dasharray="5,2" d="M1632.49,-180.37C1635.83,-178.444 1639.03,-176.327 1642,-174 1653.64,-164.875 1647.02,-153.089 1660,-146 1708.37,-119.591 1731.52,-129.173 1784,-146 1931.74,-193.373 1970.64,-228.201 2068,-349 2093.24,-380.311 2107.17,-427.388 2112.25,-447.424"/>
<polygon fill="#9a32cd" stroke="#9a32cd" points="1630.68,-177.365 1623.37,-185.032 1633.86,-183.598 1630.68,-177.365"/>
<text text-anchor="middle" x="1874.5" y="-223" font-family="Helvetica,sans-Serif" font-size="10.00"> m_logStreamsReference</text>
</g>
<!-- Node17&#45;&gt;Node18 -->
<g id="edge19" class="edge"><title>Node17&#45;&gt;Node18</title>
<path fill="none" stroke="#9a32cd" stroke-dasharray="5,2" d="M1633.26,-197.734C1677.53,-199.188 1736.69,-205.849 1784,-228 1820.64,-245.157 1852.67,-282.703 1866.39,-300.404"/>
<polygon fill="#9a32cd" stroke="#9a32cd" points="1633.28,-194.234 1623.19,-197.484 1633.1,-201.232 1633.28,-194.234"/>
<text text-anchor="middle" x="1722" y="-231" font-family="Helvetica,sans-Serif" font-size="10.00"> m_logStreamsReference</text>
</g>
<!-- Node18&#45;&gt;Node14 -->
<g id="edge16" class="edge"><title>Node18&#45;&gt;Node14</title>
<path fill="none" stroke="#9a32cd" stroke-dasharray="5,2" d="M1906.64,-323.844C1945.92,-341.958 2014.74,-375.908 2068,-414 2082.13,-424.106 2096.53,-438.117 2105.49,-447.363"/>
<polygon fill="#9a32cd" stroke="#9a32cd" points="1907.87,-320.558 1897.32,-319.588 1904.97,-326.926 1907.87,-320.558"/>
<text text-anchor="middle" x="2016.5" y="-417" font-family="Helvetica,sans-Serif" font-size="10.00"> m_typedConfigurations</text>
</g>
<!-- Node19 -->
<g id="node16" class="node"><title>Node19</title>
<polygon fill="white" stroke="#bfbfbf" points="1515.5,-321 1515.5,-351 1620.5,-351 1620.5,-321 1515.5,-321"/>
<text text-anchor="start" x="1523.5" y="-339" font-family="Helvetica,sans-Serif" font-size="10.00">std::map&lt; Level, std</text>
<text text-anchor="middle" x="1568" y="-328" font-family="Helvetica,sans-Serif" font-size="10.00">::size_t &gt;</text>
</g>
<!-- Node19&#45;&gt;Node18 -->
<g id="edge18" class="edge"><title>Node19&#45;&gt;Node18</title>
<path fill="none" stroke="#9a32cd" stroke-dasharray="5,2" d="M1630.79,-332.554C1673.8,-329.944 1732.45,-325.963 1784,-321 1789.77,-320.445 1795.73,-319.821 1801.73,-319.158"/>
<polygon fill="#9a32cd" stroke="#9a32cd" points="1630.53,-329.063 1620.76,-333.155 1630.95,-336.05 1630.53,-329.063"/>
<text text-anchor="middle" x="1722" y="-345" font-family="Helvetica,sans-Serif" font-size="10.00"> m_maxLogFileSizeMap</text>
<text text-anchor="middle" x="1722" y="-334" font-family="Helvetica,sans-Serif" font-size="10.00">m_logFlushThresholdMap</text>
</g>
<!-- Node20 -->
<g id="node17" class="node"><title>Node20</title>
<polygon fill="white" stroke="#bfbfbf" points="1508.5,-282.5 1508.5,-301.5 1627.5,-301.5 1627.5,-282.5 1508.5,-282.5"/>
<text text-anchor="middle" x="1568" y="-289.5" font-family="Helvetica,sans-Serif" font-size="10.00">std::map&lt; Level, bool &gt;</text>
</g>
<!-- Node20&#45;&gt;Node18 -->
<g id="edge20" class="edge"><title>Node20&#45;&gt;Node18</title>
<path fill="none" stroke="#9a32cd" stroke-dasharray="5,2" d="M1624.36,-280.727C1668.02,-273.614 1730.29,-267.414 1784,-277 1808.94,-281.452 1836.04,-292.37 1853.81,-300.435"/>
<polygon fill="#9a32cd" stroke="#9a32cd" points="1623.5,-277.322 1614.23,-282.448 1624.67,-284.223 1623.5,-277.322"/>
<text text-anchor="middle" x="1722" y="-313" font-family="Helvetica,sans-Serif" font-size="10.00"> m_toFileMap</text>
<text text-anchor="middle" x="1722" y="-302" font-family="Helvetica,sans-Serif" font-size="10.00">m_performanceTrackingMap</text>
<text text-anchor="middle" x="1722" y="-291" font-family="Helvetica,sans-Serif" font-size="10.00">m_toStandardOutputMap</text>
<text text-anchor="middle" x="1722" y="-280" font-family="Helvetica,sans-Serif" font-size="10.00">m_enabledMap</text>
</g>
<!-- Node21&#45;&gt;Node18 -->
<g id="edge21" class="edge"><title>Node21&#45;&gt;Node18</title>
<path fill="none" stroke="#9a32cd" stroke-dasharray="5,2" d="M582.339,-115.116C638.846,-111.077 724.737,-106 799.5,-106 799.5,-106 799.5,-106 1416,-106 1580.52,-106 1664.64,-32.7749 1784,-146 1813.28,-173.774 1783.35,-199.214 1802,-235 1816.47,-262.757 1844.3,-287.43 1860.65,-300.388"/>
<polygon fill="#9a32cd" stroke="#9a32cd" points="581.86,-111.641 572.139,-115.856 582.367,-118.623 581.86,-111.641"/>
<text text-anchor="middle" x="1106.5" y="-109" font-family="Helvetica,sans-Serif" font-size="10.00"> m_filenameMap</text>
</g>
<!-- Node22&#45;&gt;Node14 -->
<g id="edge39" class="edge"><title>Node22&#45;&gt;Node14</title>
<path fill="none" stroke="#9a32cd" stroke-dasharray="5,2" d="M1624.48,-422.325C1636.21,-423.223 1648.51,-424.154 1660,-425 1820.93,-436.855 2013.99,-450.136 2085.78,-455.043"/>
<polygon fill="#9a32cd" stroke="#9a32cd" points="1624.6,-418.824 1614.36,-421.547 1624.06,-425.803 1624.6,-418.824"/>
<text text-anchor="middle" x="1874.5" y="-449" font-family="Helvetica,sans-Serif" font-size="10.00"> m_configurations</text>
</g>
<!-- Node22&#45;&gt;Node18 -->
<g id="edge23" class="edge"><title>Node22&#45;&gt;Node18</title>
<path fill="none" stroke="#9a32cd" stroke-dasharray="5,2" d="M1624.36,-414.832C1678.42,-411.065 1756.46,-403.641 1784,-391 1820.57,-374.217 1852.63,-337.046 1866.37,-319.509"/>
<polygon fill="#9a32cd" stroke="#9a32cd" points="1623.97,-411.35 1614.23,-415.515 1624.44,-418.334 1623.97,-411.35"/>
<text text-anchor="middle" x="1722" y="-416" font-family="Helvetica,sans-Serif" font-size="10.00"> m_configurations</text>
</g>
<!-- Node23 -->
<g id="node20" class="node"><title>Node23</title>
<g id="a_node20"><a xlink:href="classel_1_1base_1_1utils_1_1_registry_with_pred.html" target="_top" xlink:title="el::base::utils::Registry\lWithPred\&lt; Configuration,\l Configuration::Predicate \&gt;">
<polygon fill="white" stroke="black" points="1197,-383.5 1197,-424.5 1329,-424.5 1329,-383.5 1197,-383.5"/>
<text text-anchor="start" x="1205" y="-412.5" font-family="Helvetica,sans-Serif" font-size="10.00">el::base::utils::Registry</text>
<text text-anchor="start" x="1205" y="-401.5" font-family="Helvetica,sans-Serif" font-size="10.00">WithPred&lt; Configuration,</text>
<text text-anchor="middle" x="1263" y="-390.5" font-family="Helvetica,sans-Serif" font-size="10.00"> Configuration::Predicate &gt;</text>
</a>
</g>
</g>
<!-- Node23&#45;&gt;Node22 -->
<g id="edge24" class="edge"><title>Node23&#45;&gt;Node22</title>
<path fill="none" stroke="midnightblue" d="M1339.1,-407.47C1396.44,-410.12 1473.56,-413.683 1521.76,-415.91"/>
<polygon fill="midnightblue" stroke="midnightblue" points="1339.15,-403.969 1329,-407.003 1338.83,-410.961 1339.15,-403.969"/>
</g>
<!-- Node24&#45;&gt;Node23 -->
<g id="edge25" class="edge"><title>Node24&#45;&gt;Node23</title>
<path fill="none" stroke="midnightblue" d="M1033.34,-380.697C1084.89,-385.951 1149.57,-392.542 1196.97,-397.373"/>
<polygon fill="midnightblue" stroke="midnightblue" points="1033.51,-377.197 1023.21,-379.665 1032.8,-384.161 1033.51,-377.197"/>
</g>
<!-- Node25 -->
<g id="node22" class="node"><title>Node25</title>
<polygon fill="white" stroke="#bfbfbf" points="590,-365.5 590,-384.5 730,-384.5 730,-365.5 590,-365.5"/>
<text text-anchor="middle" x="660" y="-372.5" font-family="Helvetica,sans-Serif" font-size="10.00">std::vector&lt; Configuration *&gt;</text>
</g>
<!-- Node25&#45;&gt;Node24 -->
<g id="edge27" class="edge"><title>Node25&#45;&gt;Node24</title>
<path fill="none" stroke="#9a32cd" stroke-dasharray="5,2" d="M740.525,-374.163C781.302,-373.734 830.691,-373.214 870.827,-372.791"/>
<polygon fill="#9a32cd" stroke="#9a32cd" points="740.317,-370.665 730.354,-374.27 740.391,-377.664 740.317,-370.665"/>
<text text-anchor="middle" x="800.5" y="-378" font-family="Helvetica,sans-Serif" font-size="10.00"> m_list</text>
</g>
<!-- Node26&#45;&gt;Node25 -->
<g id="edge28" class="edge"><title>Node26&#45;&gt;Node25</title>
<path fill="none" stroke="#9a32cd" stroke-dasharray="5,2" d="M450.32,-379.797C490.403,-378.876 546.073,-377.596 589.833,-376.59"/>
<polygon fill="#9a32cd" stroke="#9a32cd" points="450.141,-376.3 440.224,-380.029 450.302,-383.298 450.141,-376.3"/>
<text text-anchor="middle" x="519.5" y="-383" font-family="Helvetica,sans-Serif" font-size="10.00"> elements</text>
</g>
<!-- Node27 -->
<g id="node24" class="node"><title>Node27</title>
<polygon fill="white" stroke="#bfbfbf" points="1494,-233 1494,-263 1642,-263 1642,-233 1494,-233"/>
<text text-anchor="start" x="1502" y="-251" font-family="Helvetica,sans-Serif" font-size="10.00">std::map&lt; Level, el</text>
<text text-anchor="middle" x="1568" y="-240" font-family="Helvetica,sans-Serif" font-size="10.00">::base::SubsecondPrecision &gt;</text>
</g>
<!-- Node27&#45;&gt;Node18 -->
<g id="edge32" class="edge"><title>Node27&#45;&gt;Node18</title>
<path fill="none" stroke="#9a32cd" stroke-dasharray="5,2" d="M1652.2,-242.726C1692.72,-242.446 1741.7,-245.543 1784,-258 1814.17,-266.884 1844.91,-287.922 1861.35,-300.345"/>
<polygon fill="#9a32cd" stroke="#9a32cd" points="1652.04,-239.227 1642.09,-242.866 1652.14,-246.227 1652.04,-239.227"/>
<text text-anchor="middle" x="1722" y="-261" font-family="Helvetica,sans-Serif" font-size="10.00"> m_subsecondPrecisionMap</text>
</g>
<!-- Node28 -->
<g id="node25" class="node"><title>Node28</title>
<g id="a_node25"><a xlink:href="classel_1_1base_1_1_subsecond_precision.html" target="_top" xlink:title="A subsecond precision class containing actual width and offset of the subsecond part. ">
<polygon fill="white" stroke="black" points="1190,-229.5 1190,-248.5 1336,-248.5 1336,-229.5 1190,-229.5"/>
<text text-anchor="middle" x="1263" y="-236.5" font-family="Helvetica,sans-Serif" font-size="10.00">el::base::SubsecondPrecision</text>
</a>
</g>
</g>
<!-- Node28&#45;&gt;Node27 -->
<g id="edge33" class="edge"><title>Node28&#45;&gt;Node27</title>
<path fill="none" stroke="#9a32cd" stroke-dasharray="5,2" d="M1346.44,-241.449C1392.47,-242.816 1449.33,-244.505 1493.78,-245.825"/>
<polygon fill="#9a32cd" stroke="#9a32cd" points="1346.29,-237.943 1336.19,-241.144 1346.08,-244.94 1346.29,-237.943"/>
<text text-anchor="middle" x="1415" y="-249" font-family="Helvetica,sans-Serif" font-size="10.00"> elements</text>
</g>
<!-- Node29 -->
<g id="node26" class="node"><title>Node29</title>
<polygon fill="white" stroke="#bfbfbf" points="1511.5,-135 1511.5,-165 1624.5,-165 1624.5,-135 1511.5,-135"/>
<text text-anchor="start" x="1519.5" y="-153" font-family="Helvetica,sans-Serif" font-size="10.00">std::map&lt; Level, base</text>
<text text-anchor="middle" x="1568" y="-142" font-family="Helvetica,sans-Serif" font-size="10.00">::FileStreamPtr &gt;</text>
</g>
<!-- Node29&#45;&gt;Node18 -->
<g id="edge34" class="edge"><title>Node29&#45;&gt;Node18</title>
<path fill="none" stroke="#9a32cd" stroke-dasharray="5,2" d="M1634.98,-147.891C1680.05,-149.381 1739.43,-157.343 1784,-185 1830.26,-213.71 1859.63,-276.04 1869.65,-300.176"/>
<polygon fill="#9a32cd" stroke="#9a32cd" points="1634.81,-144.386 1624.73,-147.654 1634.64,-151.384 1634.81,-144.386"/>
<text text-anchor="middle" x="1722" y="-188" font-family="Helvetica,sans-Serif" font-size="10.00"> m_fileStreamMap</text>
</g>
<!-- Node30 -->
<g id="node27" class="node"><title>Node30</title>
<polygon fill="white" stroke="#bfbfbf" points="748,-269 748,-299 853,-299 853,-269 748,-269"/>
<text text-anchor="start" x="756" y="-287" font-family="Helvetica,sans-Serif" font-size="10.00">std::map&lt; Level, el</text>
<text text-anchor="middle" x="800.5" y="-276" font-family="Helvetica,sans-Serif" font-size="10.00">::base::LogFormat &gt;</text>
</g>
<!-- Node30&#45;&gt;Node18 -->
<g id="edge35" class="edge"><title>Node30&#45;&gt;Node18</title>
<path fill="none" stroke="#9a32cd" stroke-dasharray="5,2" d="M863.293,-277.679C1011.38,-263.868 1381.27,-237.712 1476,-310 1494.78,-324.328 1474.68,-346.419 1494,-360 1547.82,-397.823 1576.23,-360.695 1642,-360 1705.12,-359.333 1722.87,-372.761 1784,-357 1813.06,-349.507 1843.23,-331.054 1860.06,-319.626"/>
<polygon fill="#9a32cd" stroke="#9a32cd" points="862.647,-274.224 853.021,-278.65 863.306,-281.193 862.647,-274.224"/>
<text text-anchor="middle" x="1263" y="-272" font-family="Helvetica,sans-Serif" font-size="10.00"> m_logFormatMap</text>
</g>
<!-- Node31&#45;&gt;Node30 -->
<g id="edge36" class="edge"><title>Node31&#45;&gt;Node30</title>
<path fill="none" stroke="#9a32cd" stroke-dasharray="5,2" d="M459.541,-284C538.508,-284 674.084,-284 747.913,-284"/>
<polygon fill="#9a32cd" stroke="#9a32cd" points="459.258,-280.5 449.258,-284 459.258,-287.5 459.258,-280.5"/>
<text text-anchor="middle" x="519.5" y="-287" font-family="Helvetica,sans-Serif" font-size="10.00"> elements</text>
</g>
<!-- Node32 -->
<g id="node29" class="node"><title>Node32</title>
<g id="a_node29"><a xlink:title="STL class. ">
<polygon fill="white" stroke="#bfbfbf" points="1829.5,-468.5 1829.5,-487.5 1919.5,-487.5 1919.5,-468.5 1829.5,-468.5"/>
<text text-anchor="middle" x="1874.5" y="-475.5" font-family="Helvetica,sans-Serif" font-size="10.00">std::stringstream</text>
</a>
</g>
</g>
<!-- Node32&#45;&gt;Node14 -->
<g id="edge40" class="edge"><title>Node32&#45;&gt;Node14</title>
<path fill="none" stroke="#9a32cd" stroke-dasharray="5,2" d="M1929.61,-473.245C1978.02,-468.992 2047.11,-462.921 2085.66,-459.534"/>
<polygon fill="#9a32cd" stroke="#9a32cd" points="1929.27,-469.762 1919.61,-474.124 1929.88,-476.735 1929.27,-469.762"/>
<text text-anchor="middle" x="2016.5" y="-473" font-family="Helvetica,sans-Serif" font-size="10.00"> m_stream</text>
</g>
<!-- Node33 -->
<g id="node30" class="node"><title>Node33</title>
<g id="a_node30"><a xlink:title="STL class. ">
<polygon fill="white" stroke="#bfbfbf" points="1508.5,-455 1508.5,-485 1627.5,-485 1627.5,-455 1508.5,-455"/>
<text text-anchor="start" x="1516.5" y="-473" font-family="Helvetica,sans-Serif" font-size="10.00">std::basic_stringstream</text>
<text text-anchor="middle" x="1568" y="-462" font-family="Helvetica,sans-Serif" font-size="10.00">&lt; char &gt;</text>
</a>
</g>
</g>
<!-- Node33&#45;&gt;Node32 -->
<g id="edge41" class="edge"><title>Node33&#45;&gt;Node32</title>
<path fill="none" stroke="midnightblue" d="M1638.01,-471.813C1696.66,-473.354 1779.11,-475.52 1829.28,-476.838"/>
<polygon fill="midnightblue" stroke="midnightblue" points="1637.8,-468.306 1627.71,-471.542 1637.62,-475.304 1637.8,-468.306"/>
</g>
<!-- Node34 -->
<g id="node31" class="node"><title>Node34</title>
<g id="a_node31"><a xlink:title="STL class. ">
<polygon fill="white" stroke="#bfbfbf" points="1212,-455 1212,-485 1314,-485 1314,-455 1212,-455"/>
<text text-anchor="start" x="1220" y="-473" font-family="Helvetica,sans-Serif" font-size="10.00">std::basic_iostream</text>
<text text-anchor="middle" x="1263" y="-462" font-family="Helvetica,sans-Serif" font-size="10.00">&lt; Char &gt;</text>
</a>
</g>
</g>
<!-- Node34&#45;&gt;Node33 -->
<g id="edge42" class="edge"><title>Node34&#45;&gt;Node33</title>
<path fill="none" stroke="midnightblue" d="M1324.06,-470C1377.53,-470 1455.28,-470 1508.32,-470"/>
<polygon fill="midnightblue" stroke="midnightblue" points="1324.03,-466.5 1314.03,-470 1324.03,-473.5 1324.03,-466.5"/>
</g>
<!-- Node35 -->
<g id="node32" class="node"><title>Node35</title>
<g id="a_node32"><a xlink:title="STL class. ">
<polygon fill="white" stroke="#bfbfbf" points="898.5,-412 898.5,-442 995.5,-442 995.5,-412 898.5,-412"/>
<text text-anchor="start" x="906.5" y="-430" font-family="Helvetica,sans-Serif" font-size="10.00">std::basic_istream</text>
<text text-anchor="middle" x="947" y="-419" font-family="Helvetica,sans-Serif" font-size="10.00">&lt; Char &gt;</text>
</a>
</g>
</g>
<!-- Node35&#45;&gt;Node34 -->
<g id="edge43" class="edge"><title>Node35&#45;&gt;Node34</title>
<path fill="none" stroke="midnightblue" d="M1005.61,-434.889C1064.66,-442.975 1155.57,-455.425 1211.78,-463.123"/>
<polygon fill="midnightblue" stroke="midnightblue" points="1006.07,-431.42 995.69,-433.531 1005.12,-438.355 1006.07,-431.42"/>
</g>
<!-- Node36 -->
<g id="node33" class="node"><title>Node36</title>
<g id="a_node33"><a xlink:title="STL class. ">
<polygon fill="white" stroke="#bfbfbf" points="602,-444.5 602,-463.5 718,-463.5 718,-444.5 602,-444.5"/>
<text text-anchor="middle" x="660" y="-451.5" font-family="Helvetica,sans-Serif" font-size="10.00">std::basic_ios&lt; Char &gt;</text>
</a>
</g>
</g>
<!-- Node36&#45;&gt;Node35 -->
<g id="edge44" class="edge"><title>Node36&#45;&gt;Node35</title>
<path fill="none" stroke="midnightblue" d="M728.513,-447.604C780.737,-442.656 851.752,-435.929 898.215,-431.527"/>
<polygon fill="midnightblue" stroke="midnightblue" points="727.956,-444.141 718.331,-448.569 728.617,-451.11 727.956,-444.141"/>
</g>
<!-- Node38 -->
<g id="node35" class="node"><title>Node38</title>
<g id="a_node35"><a xlink:title="STL class. ">
<polygon fill="white" stroke="#bfbfbf" points="897,-461 897,-491 997,-491 997,-461 897,-461"/>
<text text-anchor="start" x="905" y="-479" font-family="Helvetica,sans-Serif" font-size="10.00">std::basic_ostream</text>
<text text-anchor="middle" x="947" y="-468" font-family="Helvetica,sans-Serif" font-size="10.00">&lt; Char &gt;</text>
</a>
</g>
</g>
<!-- Node36&#45;&gt;Node38 -->
<g id="edge47" class="edge"><title>Node36&#45;&gt;Node38</title>
<path fill="none" stroke="midnightblue" d="M728.416,-459.204C780.136,-463.196 850.327,-468.615 896.836,-472.205"/>
<polygon fill="midnightblue" stroke="midnightblue" points="728.571,-455.706 718.331,-458.426 728.032,-462.685 728.571,-455.706"/>
</g>
<!-- Node37 -->
<g id="node34" class="node"><title>Node37</title>
<g id="a_node34"><a xlink:title="STL class. ">
<polygon fill="white" stroke="#bfbfbf" points="359.5,-444.5 359.5,-463.5 434.5,-463.5 434.5,-444.5 359.5,-444.5"/>
<text text-anchor="middle" x="397" y="-451.5" font-family="Helvetica,sans-Serif" font-size="10.00">std::ios_base</text>
</a>
</g>
</g>
<!-- Node37&#45;&gt;Node36 -->
<g id="edge45" class="edge"><title>Node37&#45;&gt;Node36</title>
<path fill="none" stroke="midnightblue" d="M444.683,-454C488.598,-454 554.465,-454 601.578,-454"/>
<polygon fill="midnightblue" stroke="midnightblue" points="444.566,-450.5 434.566,-454 444.566,-457.5 444.566,-450.5"/>
</g>
<!-- Node38&#45;&gt;Node34 -->
<g id="edge46" class="edge"><title>Node38&#45;&gt;Node34</title>
<path fill="none" stroke="midnightblue" d="M1007.37,-474.865C1066.53,-473.735 1156.35,-472.019 1211.99,-470.956"/>
<polygon fill="midnightblue" stroke="midnightblue" points="1006.99,-471.372 997.063,-475.063 1007.13,-478.371 1006.99,-471.372"/>
</g>
</g>
</svg>
