<?xml version="1.0" encoding="UTF-8" standalone="no"?>
<!DOCTYPE svg PUBLIC "-//W3C//DTD SVG 1.1//EN"
 "http://www.w3.org/Graphics/SVG/1.1/DTD/svg11.dtd">
<!-- Generated by graphviz version 2.38.0 (20140413.2041)
 -->
<!-- Title: vpr::Allocation::InitPrivate Pages: 1 -->
<svg width="439pt" height="39pt"
 viewBox="0.00 0.00 439.00 39.00" xmlns="http://www.w3.org/2000/svg" xmlns:xlink="http://www.w3.org/1999/xlink">
<g id="graph0" class="graph" transform="scale(1 1) rotate(0) translate(4 35)">
<title>vpr::Allocation::InitPrivate</title>
<polygon fill="white" stroke="none" points="-4,4 -4,-35 435,-35 435,4 -4,4"/>
<!-- Node14 -->
<g id="node1" class="node"><title>Node14</title>
<polygon fill="#bfbfbf" stroke="black" points="0,-6 0,-25 125,-25 125,-6 0,-6"/>
<text text-anchor="middle" x="62.5" y="-13" font-family="Helvetica,sans-Serif" font-size="10.00">vpr::Allocation::InitPrivate</text>
</g>
<!-- Node15 -->
<g id="node2" class="node"><title>Node15</title>
<g id="a_node2"><a xlink:href="structvpr_1_1_allocator_impl.html#a2ec18969e688b4cb472a16535482208d" target="_top" xlink:title="vpr::AllocatorImpl\l::allocatePrivateMemory">
<polygon fill="white" stroke="black" points="161,-0.5 161,-30.5 282,-30.5 282,-0.5 161,-0.5"/>
<text text-anchor="start" x="169" y="-18.5" font-family="Helvetica,sans-Serif" font-size="10.00">vpr::AllocatorImpl</text>
<text text-anchor="middle" x="221.5" y="-7.5" font-family="Helvetica,sans-Serif" font-size="10.00">::allocatePrivateMemory</text>
</a>
</g>
</g>
<!-- Node14&#45;&gt;Node15 -->
<g id="edge1" class="edge"><title>Node14&#45;&gt;Node15</title>
<path fill="none" stroke="midnightblue" d="M135.131,-15.5C143.742,-15.5 152.463,-15.5 160.877,-15.5"/>
<polygon fill="midnightblue" stroke="midnightblue" points="135.1,-12.0001 125.1,-15.5 135.1,-19.0001 135.1,-12.0001"/>
</g>
<!-- Node16 -->
<g id="node3" class="node"><title>Node16</title>
<g id="a_node3"><a xlink:href="structvpr_1_1_allocator_impl.html#a25d6e4d4fe1d7c4adf83e95915a0a810" target="_top" xlink:title="vpr::AllocatorImpl\l::allocateMemoryType">
<polygon fill="white" stroke="black" points="318,-0.5 318,-30.5 431,-30.5 431,-0.5 318,-0.5"/>
<text text-anchor="start" x="326" y="-18.5" font-family="Helvetica,sans-Serif" font-size="10.00">vpr::AllocatorImpl</text>
<text text-anchor="middle" x="374.5" y="-7.5" font-family="Helvetica,sans-Serif" font-size="10.00">::allocateMemoryType</text>
</a>
</g>
</g>
<!-- Node15&#45;&gt;Node16 -->
<g id="edge2" class="edge"><title>Node15&#45;&gt;Node16</title>
<path fill="none" stroke="midnightblue" d="M292.435,-15.5C300.904,-15.5 309.468,-15.5 317.695,-15.5"/>
<polygon fill="midnightblue" stroke="midnightblue" points="292.179,-12.0001 282.179,-15.5 292.179,-19.0001 292.179,-12.0001"/>
</g>
</g>
</svg>
