<?xml version="1.0" encoding="UTF-8" standalone="no"?>
<!DOCTYPE svg PUBLIC "-//W3C//DTD SVG 1.1//EN"
 "http://www.w3.org/Graphics/SVG/1.1/DTD/svg11.dtd">
<!-- Generated by graphviz version 2.38.0 (20140413.2041)
 -->
<!-- Title: vpr::Buffer::Unmap Pages: 1 -->
<svg width="259pt" height="66pt"
 viewBox="0.00 0.00 259.00 66.00" xmlns="http://www.w3.org/2000/svg" xmlns:xlink="http://www.w3.org/1999/xlink">
<g id="graph0" class="graph" transform="scale(1 1) rotate(0) translate(4 62)">
<title>vpr::Buffer::Unmap</title>
<polygon fill="white" stroke="none" points="-4,4 -4,-62 255,-62 255,4 -4,4"/>
<!-- Node89 -->
<g id="node1" class="node"><title>Node89</title>
<polygon fill="#bfbfbf" stroke="black" points="0,-19.5 0,-38.5 96,-38.5 96,-19.5 0,-19.5"/>
<text text-anchor="middle" x="48" y="-26.5" font-family="Helvetica,sans-Serif" font-size="10.00">vpr::Buffer::Unmap</text>
</g>
<!-- Node90 -->
<g id="node2" class="node"><title>Node90</title>
<g id="a_node2"><a xlink:href="classvpr_1_1_allocation.html#a1a223e41ca865271544ece71d18edce2" target="_top" xlink:title="vpr::Allocation::Memory">
<polygon fill="white" stroke="black" points="132,-38.5 132,-57.5 251,-57.5 251,-38.5 132,-38.5"/>
<text text-anchor="middle" x="191.5" y="-45.5" font-family="Helvetica,sans-Serif" font-size="10.00">vpr::Allocation::Memory</text>
</a>
</g>
</g>
<!-- Node89&#45;&gt;Node90 -->
<g id="edge1" class="edge"><title>Node89&#45;&gt;Node90</title>
<path fill="none" stroke="midnightblue" d="M96.1175,-35.3267C104.323,-36.4285 113.007,-37.5946 121.654,-38.7556"/>
<polygon fill="midnightblue" stroke="midnightblue" points="121.379,-42.25 131.756,-40.1121 122.31,-35.3123 121.379,-42.25"/>
</g>
<!-- Node91 -->
<g id="node3" class="node"><title>Node91</title>
<g id="a_node3"><a xlink:href="classvpr_1_1_device.html#a59882855173bef0b13a17b376ea01d45" target="_top" xlink:title="vpr::Device::vkHandle">
<polygon fill="white" stroke="black" points="137.5,-0.5 137.5,-19.5 245.5,-19.5 245.5,-0.5 137.5,-0.5"/>
<text text-anchor="middle" x="191.5" y="-7.5" font-family="Helvetica,sans-Serif" font-size="10.00">vpr::Device::vkHandle</text>
</a>
</g>
</g>
<!-- Node89&#45;&gt;Node91 -->
<g id="edge2" class="edge"><title>Node89&#45;&gt;Node91</title>
<path fill="none" stroke="midnightblue" d="M96.1175,-22.6733C106.109,-21.3316 116.811,-19.8946 127.29,-18.4875"/>
<polygon fill="midnightblue" stroke="midnightblue" points="127.793,-21.9515 137.238,-17.1518 126.861,-15.0138 127.793,-21.9515"/>
</g>
</g>
</svg>
