<?xml version="1.0" encoding="UTF-8" standalone="no"?>
<!DOCTYPE svg PUBLIC "-//W3C//DTD SVG 1.1//EN"
 "http://www.w3.org/Graphics/SVG/1.1/DTD/svg11.dtd">
<!-- Generated by graphviz version 2.38.0 (20140413.2041)
 -->
<!-- Title: vpr::Allocator::freePrivateMemory Pages: 1 -->
<svg width="288pt" height="78pt"
 viewBox="0.00 0.00 288.00 77.50" xmlns="http://www.w3.org/2000/svg" xmlns:xlink="http://www.w3.org/1999/xlink">
<g id="graph0" class="graph" transform="scale(1 1) rotate(0) translate(4 73.5)">
<title>vpr::Allocator::freePrivateMemory</title>
<polygon fill="white" stroke="none" points="-4,4 -4,-73.5 284,-73.5 284,4 -4,4"/>
<!-- Node180 -->
<g id="node1" class="node"><title>Node180</title>
<polygon fill="#bfbfbf" stroke="black" points="0,-17 0,-47 124,-47 124,-17 0,-17"/>
<text text-anchor="start" x="8" y="-35" font-family="Helvetica,sans-Serif" font-size="10.00">vpr::Allocator::freePrivate</text>
<text text-anchor="middle" x="62" y="-24" font-family="Helvetica,sans-Serif" font-size="10.00">Memory</text>
</g>
<!-- Node181 -->
<g id="node2" class="node"><title>Node181</title>
<g id="a_node2"><a xlink:href="classvpr_1_1_allocation.html#ad23615cd9f84e8e2354cf1f1e7e8f162" target="_top" xlink:title="vpr::Allocation::IsPrivate\lAllocation">
<polygon fill="white" stroke="black" points="160,-39 160,-69 280,-69 280,-39 160,-39"/>
<text text-anchor="start" x="168" y="-57" font-family="Helvetica,sans-Serif" font-size="10.00">vpr::Allocation::IsPrivate</text>
<text text-anchor="middle" x="220" y="-46" font-family="Helvetica,sans-Serif" font-size="10.00">Allocation</text>
</a>
</g>
</g>
<!-- Node180&#45;&gt;Node181 -->
<g id="edge1" class="edge"><title>Node180&#45;&gt;Node181</title>
<path fill="none" stroke="midnightblue" d="M124.208,-40.6318C132.613,-41.8172 141.291,-43.0411 149.827,-44.2448"/>
<polygon fill="midnightblue" stroke="midnightblue" points="149.366,-47.7143 159.756,-45.6451 150.343,-40.7829 149.366,-47.7143"/>
</g>
<!-- Node182 -->
<g id="node3" class="node"><title>Node182</title>
<g id="a_node3"><a xlink:href="classvpr_1_1_device.html#a59882855173bef0b13a17b376ea01d45" target="_top" xlink:title="vpr::Device::vkHandle">
<polygon fill="white" stroke="black" points="166,-0.5 166,-19.5 274,-19.5 274,-0.5 166,-0.5"/>
<text text-anchor="middle" x="220" y="-7.5" font-family="Helvetica,sans-Serif" font-size="10.00">vpr::Device::vkHandle</text>
</a>
</g>
</g>
<!-- Node180&#45;&gt;Node182 -->
<g id="edge2" class="edge"><title>Node180&#45;&gt;Node182</title>
<path fill="none" stroke="midnightblue" d="M124.208,-23.3682C134.451,-21.9236 145.1,-20.4219 155.401,-18.9691"/>
<polygon fill="midnightblue" stroke="midnightblue" points="156.146,-22.3988 165.559,-17.5365 155.168,-15.4673 156.146,-22.3988"/>
</g>
</g>
</svg>
