<?xml version="1.0" encoding="UTF-8" standalone="no"?>
<!DOCTYPE svg PUBLIC "-//W3C//DTD SVG 1.1//EN"
 "http://www.w3.org/Graphics/SVG/1.1/DTD/svg11.dtd">
<!-- Generated by graphviz version 2.38.0 (20140413.2041)
 -->
<!-- Title: el::LevelHelper::convertToString Pages: 1 -->
<svg width="305pt" height="274pt"
 viewBox="0.00 0.00 305.00 274.00" xmlns="http://www.w3.org/2000/svg" xmlns:xlink="http://www.w3.org/1999/xlink">
<g id="graph0" class="graph" transform="scale(1 1) rotate(0) translate(4 270)">
<title>el::LevelHelper::convertToString</title>
<polygon fill="white" stroke="none" points="-4,4 -4,-270 301,-270 301,4 -4,4"/>
<!-- Node35 -->
<g id="node1" class="node"><title>Node35</title>
<polygon fill="#bfbfbf" stroke="black" points="0,-120.5 0,-150.5 116,-150.5 116,-120.5 0,-120.5"/>
<text text-anchor="start" x="8" y="-138.5" font-family="Helvetica,sans-Serif" font-size="10.00">el::LevelHelper::convert</text>
<text text-anchor="middle" x="58" y="-127.5" font-family="Helvetica,sans-Serif" font-size="10.00">ToString</text>
</g>
<!-- Node36 -->
<g id="node2" class="node"><title>Node36</title>
<g id="a_node2"><a xlink:href="classel_1_1base_1_1_default_log_dispatch_callback.html#adc7c200395c99534d55cb23cfabafcb1" target="_top" xlink:title="el::base::DefaultLogDispatch\lCallback::dispatch">
<polygon fill="white" stroke="black" points="154,-235.5 154,-265.5 295,-265.5 295,-235.5 154,-235.5"/>
<text text-anchor="start" x="162" y="-253.5" font-family="Helvetica,sans-Serif" font-size="10.00">el::base::DefaultLogDispatch</text>
<text text-anchor="middle" x="224.5" y="-242.5" font-family="Helvetica,sans-Serif" font-size="10.00">Callback::dispatch</text>
</a>
</g>
</g>
<!-- Node35&#45;&gt;Node36 -->
<g id="edge1" class="edge"><title>Node35&#45;&gt;Node36</title>
<path fill="none" stroke="midnightblue" d="M77.1641,-158.406C94.4537,-178.837 122.195,-208.26 152,-226.5 157.473,-229.849 163.47,-232.795 169.59,-235.37"/>
<polygon fill="midnightblue" stroke="midnightblue" points="79.7102,-155.993 70.6349,-150.526 74.32,-160.459 79.7102,-155.993"/>
</g>
<!-- Node37 -->
<g id="node3" class="node"><title>Node37</title>
<g id="a_node3"><a xlink:href="classel_1_1base_1_1_typed_configurations.html#a858bb6bc3328dc87a5ff31a42f16ee74" target="_top" xlink:title="el::base::TypedConfigurations\l::insertFile">
<polygon fill="white" stroke="black" points="152,-186.5 152,-216.5 297,-216.5 297,-186.5 152,-186.5"/>
<text text-anchor="start" x="160" y="-204.5" font-family="Helvetica,sans-Serif" font-size="10.00">el::base::TypedConfigurations</text>
<text text-anchor="middle" x="224.5" y="-193.5" font-family="Helvetica,sans-Serif" font-size="10.00">::insertFile</text>
</a>
</g>
</g>
<!-- Node35&#45;&gt;Node37 -->
<g id="edge2" class="edge"><title>Node35&#45;&gt;Node37</title>
<path fill="none" stroke="midnightblue" d="M100.978,-154.846C116.848,-161.938 135.145,-169.85 152,-176.5 160.563,-179.878 169.789,-183.278 178.675,-186.436"/>
<polygon fill="midnightblue" stroke="midnightblue" points="102.001,-151.468 91.4451,-150.556 99.1274,-157.852 102.001,-151.468"/>
</g>
<!-- Node38 -->
<g id="node4" class="node"><title>Node38</title>
<g id="a_node4"><a xlink:href="classel_1_1_configuration.html#a3ee4f08cfefa57e7b9b3700c2fb1fa05" target="_top" xlink:title="el::Configuration::log">
<polygon fill="white" stroke="black" points="172,-148 172,-167 277,-167 277,-148 172,-148"/>
<text text-anchor="middle" x="224.5" y="-155" font-family="Helvetica,sans-Serif" font-size="10.00">el::Configuration::log</text>
</a>
</g>
</g>
<!-- Node35&#45;&gt;Node38 -->
<g id="edge3" class="edge"><title>Node35&#45;&gt;Node38</title>
<path fill="none" stroke="midnightblue" d="M126.414,-144.516C141.551,-146.54 157.381,-148.657 171.761,-150.58"/>
<polygon fill="midnightblue" stroke="midnightblue" points="126.448,-140.989 116.072,-143.133 125.52,-147.928 126.448,-140.989"/>
</g>
<!-- Node39 -->
<g id="node5" class="node"><title>Node39</title>
<g id="a_node5"><a xlink:href="classel_1_1base_1_1_typed_configurations.html#a2d2d0d016fefa24b1b8e801cb35aec91" target="_top" xlink:title="el::base::TypedConfigurations\l::unsafeGetConfigByRef">
<polygon fill="white" stroke="black" points="152,-98.5 152,-128.5 297,-128.5 297,-98.5 152,-98.5"/>
<text text-anchor="start" x="160" y="-116.5" font-family="Helvetica,sans-Serif" font-size="10.00">el::base::TypedConfigurations</text>
<text text-anchor="middle" x="224.5" y="-105.5" font-family="Helvetica,sans-Serif" font-size="10.00">::unsafeGetConfigByRef</text>
</a>
</g>
</g>
<!-- Node35&#45;&gt;Node39 -->
<g id="edge4" class="edge"><title>Node35&#45;&gt;Node39</title>
<path fill="none" stroke="midnightblue" d="M126.208,-126.512C134.627,-125.386 143.263,-124.231 151.748,-123.096"/>
<polygon fill="midnightblue" stroke="midnightblue" points="125.52,-123.072 116.072,-127.867 126.448,-130.011 125.52,-123.072"/>
</g>
<!-- Node40 -->
<g id="node6" class="node"><title>Node40</title>
<g id="a_node6"><a xlink:href="classel_1_1base_1_1_typed_configurations.html#a78a9b966a06baafd55c49bdfe457c4a4" target="_top" xlink:title="el::base::TypedConfigurations\l::unsafeGetConfigByVal">
<polygon fill="white" stroke="black" points="152,-49.5 152,-79.5 297,-79.5 297,-49.5 152,-49.5"/>
<text text-anchor="start" x="160" y="-67.5" font-family="Helvetica,sans-Serif" font-size="10.00">el::base::TypedConfigurations</text>
<text text-anchor="middle" x="224.5" y="-56.5" font-family="Helvetica,sans-Serif" font-size="10.00">::unsafeGetConfigByVal</text>
</a>
</g>
</g>
<!-- Node35&#45;&gt;Node40 -->
<g id="edge5" class="edge"><title>Node35&#45;&gt;Node40</title>
<path fill="none" stroke="midnightblue" d="M96.0431,-115.872C112.894,-107.284 133.225,-97.3905 152,-89.5 160.244,-86.0355 169.153,-82.6476 177.792,-79.5401"/>
<polygon fill="midnightblue" stroke="midnightblue" points="94.3625,-112.8 87.0717,-120.488 97.5651,-119.025 94.3625,-112.8"/>
</g>
<!-- Node41 -->
<g id="node7" class="node"><title>Node41</title>
<g id="a_node7"><a xlink:href="classel_1_1base_1_1_typed_configurations.html#a39b254514a300352fb6e2852a93621f9" target="_top" xlink:title="el::base::TypedConfigurations\l::unsafeValidateFileRolling">
<polygon fill="white" stroke="black" points="152,-0.5 152,-30.5 297,-30.5 297,-0.5 152,-0.5"/>
<text text-anchor="start" x="160" y="-18.5" font-family="Helvetica,sans-Serif" font-size="10.00">el::base::TypedConfigurations</text>
<text text-anchor="middle" x="224.5" y="-7.5" font-family="Helvetica,sans-Serif" font-size="10.00">::unsafeValidateFileRolling</text>
</a>
</g>
</g>
<!-- Node35&#45;&gt;Node41 -->
<g id="edge6" class="edge"><title>Node35&#45;&gt;Node41</title>
<path fill="none" stroke="midnightblue" d="M76.4907,-112.284C93.6338,-90.9692 121.563,-59.8463 152,-40.5 157.993,-36.6908 164.639,-33.3762 171.396,-30.5171"/>
<polygon fill="midnightblue" stroke="midnightblue" points="73.6911,-110.182 70.2533,-120.204 79.1903,-114.513 73.6911,-110.182"/>
</g>
</g>
</svg>
