<?xml version="1.0" encoding="UTF-8" standalone="no"?>
<!DOCTYPE svg PUBLIC "-//W3C//DTD SVG 1.1//EN"
 "http://www.w3.org/Graphics/SVG/1.1/DTD/svg11.dtd">
<!-- Generated by graphviz version 2.38.0 (20140413.2041)
 -->
<!-- Title: el::base::HitCounter::hitCounts Pages: 1 -->
<svg width="302pt" height="137pt"
 viewBox="0.00 0.00 302.00 137.00" xmlns="http://www.w3.org/2000/svg" xmlns:xlink="http://www.w3.org/1999/xlink">
<g id="graph0" class="graph" transform="scale(1 1) rotate(0) translate(4 133)">
<title>el::base::HitCounter::hitCounts</title>
<polygon fill="white" stroke="none" points="-4,4 -4,-133 298,-133 298,4 -4,4"/>
<!-- Node11 -->
<g id="node1" class="node"><title>Node11</title>
<polygon fill="#bfbfbf" stroke="black" points="0,-49.5 0,-79.5 103,-79.5 103,-49.5 0,-49.5"/>
<text text-anchor="start" x="8" y="-67.5" font-family="Helvetica,sans-Serif" font-size="10.00">el::base::HitCounter</text>
<text text-anchor="middle" x="51.5" y="-56.5" font-family="Helvetica,sans-Serif" font-size="10.00">::hitCounts</text>
</g>
<!-- Node12 -->
<g id="node2" class="node"><title>Node12</title>
<g id="a_node2"><a xlink:href="classel_1_1base_1_1_registered_hit_counters.html#ad17bfabd59d2142b57282156483708ef" target="_top" xlink:title="Validates counter for hits &gt;= N, i.e, registers new if does not exist otherwise updates original one...">
<polygon fill="white" stroke="black" points="139,-98.5 139,-128.5 294,-128.5 294,-98.5 139,-98.5"/>
<text text-anchor="start" x="147" y="-116.5" font-family="Helvetica,sans-Serif" font-size="10.00">el::base::RegisteredHitCounters</text>
<text text-anchor="middle" x="216.5" y="-105.5" font-family="Helvetica,sans-Serif" font-size="10.00">::validateAfterN</text>
</a>
</g>
</g>
<!-- Node11&#45;&gt;Node12 -->
<g id="edge1" class="edge"><title>Node11&#45;&gt;Node12</title>
<path fill="none" stroke="midnightblue" d="M112.753,-82.6129C130.082,-87.8222 148.789,-93.4457 165.43,-98.4484"/>
<polygon fill="midnightblue" stroke="midnightblue" points="113.32,-79.1285 102.735,-79.6014 111.304,-85.8322 113.32,-79.1285"/>
</g>
<!-- Node13 -->
<g id="node3" class="node"><title>Node13</title>
<g id="a_node3"><a xlink:href="classel_1_1base_1_1_registered_hit_counters.html#a586bb8c5e2722e08a255039bb41e03fa" target="_top" xlink:title="Validates counter for every N, i.e, registers new if does not exist otherwise updates original one...">
<polygon fill="white" stroke="black" points="139,-49.5 139,-79.5 294,-79.5 294,-49.5 139,-49.5"/>
<text text-anchor="start" x="147" y="-67.5" font-family="Helvetica,sans-Serif" font-size="10.00">el::base::RegisteredHitCounters</text>
<text text-anchor="middle" x="216.5" y="-56.5" font-family="Helvetica,sans-Serif" font-size="10.00">::validateEveryN</text>
</a>
</g>
</g>
<!-- Node11&#45;&gt;Node13 -->
<g id="edge2" class="edge"><title>Node11&#45;&gt;Node13</title>
<path fill="none" stroke="midnightblue" d="M113.194,-64.5C121.551,-64.5 130.221,-64.5 138.82,-64.5"/>
<polygon fill="midnightblue" stroke="midnightblue" points="113.181,-61.0001 103.181,-64.5 113.181,-68.0001 113.181,-61.0001"/>
</g>
<!-- Node14 -->
<g id="node4" class="node"><title>Node14</title>
<g id="a_node4"><a xlink:href="classel_1_1base_1_1_registered_hit_counters.html#acc7e50a6b720a90714e60d2710fdfbe6" target="_top" xlink:title="Validates counter for hits are &lt;= n, i.e, registers new if does not exist otherwise updates original ...">
<polygon fill="white" stroke="black" points="139,-0.5 139,-30.5 294,-30.5 294,-0.5 139,-0.5"/>
<text text-anchor="start" x="147" y="-18.5" font-family="Helvetica,sans-Serif" font-size="10.00">el::base::RegisteredHitCounters</text>
<text text-anchor="middle" x="216.5" y="-7.5" font-family="Helvetica,sans-Serif" font-size="10.00">::validateNTimes</text>
</a>
</g>
</g>
<!-- Node11&#45;&gt;Node14 -->
<g id="edge3" class="edge"><title>Node11&#45;&gt;Node14</title>
<path fill="none" stroke="midnightblue" d="M112.753,-46.3871C130.082,-41.1778 148.789,-35.5543 165.43,-30.5516"/>
<polygon fill="midnightblue" stroke="midnightblue" points="111.304,-43.1678 102.735,-49.3986 113.32,-49.8715 111.304,-43.1678"/>
</g>
</g>
</svg>
