<?xml version="1.0" encoding="UTF-8" standalone="no"?>
<!DOCTYPE svg PUBLIC "-//W3C//DTD SVG 1.1//EN"
 "http://www.w3.org/Graphics/SVG/1.1/DTD/svg11.dtd">
<!-- Generated by graphviz version 2.38.0 (20140413.2041)
 -->
<!-- Title: vpr::Allocator::AllocateMemory Pages: 1 -->
<!--zoomable 342 -->
<svg id="main" version="1.1" xmlns="http://www.w3.org/2000/svg" xmlns:xlink="http://www.w3.org/1999/xlink" xml:space="preserve" onload="init(evt)">
<style type="text/css"><![CDATA[
.edge:hover path { stroke: red; }
.edge:hover polygon { stroke: red; fill: red; }
]]></style>
<script type="text/javascript"><![CDATA[
var edges = document.getElementsByTagName('g');
if (edges && edges.length) {
  for (var i=0;i<edges.length;i++) {
    if (edges[i].id.substr(0,4)=='edge') {
      edges[i].setAttribute('class','edge');
    }
  }
}
]]></script>
        <defs>
                <circle id="rim" cx="0" cy="0" r="7"/>
                <circle id="rim2" cx="0" cy="0" r="3.5"/>
                <g id="zoomPlus">
                        <use xlink:href="#rim" fill="#404040">
                                <set attributeName="fill" to="#808080" begin="zoomplus.mouseover" end="zoomplus.mouseout"/>
                        </use>
                        <path d="M-4,0h8M0,-4v8" fill="none" stroke="white" stroke-width="1.5" pointer-events="none"/>
                </g>
                <g id="zoomMin">
                        <use xlink:href="#rim" fill="#404040">
                                <set attributeName="fill" to="#808080" begin="zoomminus.mouseover" end="zoomminus.mouseout"/>
                        </use>
                        <path d="M-4,0h8" fill="none" stroke="white" stroke-width="1.5" pointer-events="none"/>
                </g>
                <g id="dirArrow">
                        <path fill="none" stroke="white" stroke-width="1.5" d="M0,-3.0v7 M-2.5,-0.5L0,-3.0L2.5,-0.5"/>
                </g>
               <g id="resetDef">
                       <use xlink:href="#rim2" fill="#404040">
                               <set attributeName="fill" to="#808080" begin="reset.mouseover" end="reset.mouseout"/>
                       </use>
               </g>
        </defs>

<script type="text/javascript">
var viewWidth = 620;
var viewHeight = 342;
var sectionId = 'dynsection-7';
</script>
<script xlink:href="svgpan.js"/>
<svg id="graph" class="graph">
<g id="viewport">
<title>vpr::Allocator::AllocateMemory</title>
<polygon fill="white" stroke="none" points="-4,4 -4,-337.5 616,-337.5 616,4 -4,4"/>
<!-- Node49 -->
<g id="node1" class="node"><title>Node49</title>
<polygon fill="#bfbfbf" stroke="black" points="0,-105 0,-135 114,-135 114,-105 0,-105"/>
<text text-anchor="start" x="8" y="-123" font-family="Helvetica,sans-Serif" font-size="10.00">vpr::Allocator::Allocate</text>
<text text-anchor="middle" x="57" y="-112" font-family="Helvetica,sans-Serif" font-size="10.00">Memory</text>
</g>
<!-- Node50 -->
<g id="node2" class="node"><title>Node50</title>
<g id="a_node2"><a xlink:href="classvpr_1_1_allocator.html#a40618202c2c86027ee1915cadbc18afd" target="_top" xlink:title="vpr::Allocator::allocate\lMemoryType">
<polygon fill="white" stroke="black" points="158,-171 158,-201 271,-201 271,-171 158,-171"/>
<text text-anchor="start" x="166" y="-189" font-family="Helvetica,sans-Serif" font-size="10.00">vpr::Allocator::allocate</text>
<text text-anchor="middle" x="214.5" y="-178" font-family="Helvetica,sans-Serif" font-size="10.00">MemoryType</text>
</a>
</g>
</g>
<!-- Node49&#45;&gt;Node50 -->
<g id="edge1" class="edge"><title>Node49&#45;&gt;Node50</title>
<path fill="none" stroke="midnightblue" d="M93.6748,-135.142C115.899,-144.574 144.686,-156.793 168.474,-166.889"/>
<polygon fill="midnightblue" stroke="midnightblue" points="167.419,-170.243 177.991,-170.929 170.153,-163.8 167.419,-170.243"/>
</g>
<!-- Node58 -->
<g id="node10" class="node"><title>Node58</title>
<g id="a_node10"><a xlink:href="classvpr_1_1_allocator.html#a12b2ce29d3b6b28131cc9c5a331d2286" target="_top" xlink:title="vpr::Allocator::findMemory\lTypeIdx">
<polygon fill="white" stroke="black" points="150,-39 150,-69 279,-69 279,-39 150,-39"/>
<text text-anchor="start" x="158" y="-57" font-family="Helvetica,sans-Serif" font-size="10.00">vpr::Allocator::findMemory</text>
<text text-anchor="middle" x="214.5" y="-46" font-family="Helvetica,sans-Serif" font-size="10.00">TypeIdx</text>
</a>
</g>
</g>
<!-- Node49&#45;&gt;Node58 -->
<g id="edge10" class="edge"><title>Node49&#45;&gt;Node58</title>
<path fill="none" stroke="midnightblue" d="M93.6748,-104.858C115.899,-95.4256 144.686,-83.2074 168.474,-73.1108"/>
<polygon fill="midnightblue" stroke="midnightblue" points="170.153,-76.2002 177.991,-69.0713 167.419,-69.7565 170.153,-76.2002"/>
</g>
<!-- Node51 -->
<g id="node3" class="node"><title>Node51</title>
<g id="a_node3"><a xlink:href="classvpr_1_1_allocator.html#aee9903438ded8311fd11f757f80002d6" target="_top" xlink:title="vpr::Allocator::GetPreferred\lBlockSize">
<polygon fill="white" stroke="black" points="316,-303 316,-333 450,-333 450,-303 316,-303"/>
<text text-anchor="start" x="324" y="-321" font-family="Helvetica,sans-Serif" font-size="10.00">vpr::Allocator::GetPreferred</text>
<text text-anchor="middle" x="383" y="-310" font-family="Helvetica,sans-Serif" font-size="10.00">BlockSize</text>
</a>
</g>
</g>
<!-- Node50&#45;&gt;Node51 -->
<g id="edge2" class="edge"><title>Node50&#45;&gt;Node51</title>
<path fill="none" stroke="midnightblue" d="M227.235,-201.253C244.511,-222.885 278.689,-262.654 315,-288 320.477,-291.823 326.519,-295.338 332.666,-298.511"/>
<polygon fill="midnightblue" stroke="midnightblue" points="331.17,-301.675 341.692,-302.911 334.237,-295.383 331.17,-301.675"/>
</g>
<!-- Node52 -->
<g id="node4" class="node"><title>Node52</title>
<g id="a_node4"><a xlink:href="classvpr_1_1_allocator.html#ad4d7daf9b55d81a4fab0cb4a657d6508" target="_top" xlink:title="vpr::Allocator::allocate\lPrivateMemory">
<polygon fill="white" stroke="black" points="326.5,-215 326.5,-245 439.5,-245 439.5,-215 326.5,-215"/>
<text text-anchor="start" x="334.5" y="-233" font-family="Helvetica,sans-Serif" font-size="10.00">vpr::Allocator::allocate</text>
<text text-anchor="middle" x="383" y="-222" font-family="Helvetica,sans-Serif" font-size="10.00">PrivateMemory</text>
</a>
</g>
</g>
<!-- Node50&#45;&gt;Node52 -->
<g id="edge3" class="edge"><title>Node50&#45;&gt;Node52</title>
<path fill="none" stroke="midnightblue" d="M271.405,-200.774C285.897,-204.603 301.633,-208.762 316.566,-212.708"/>
<polygon fill="midnightblue" stroke="midnightblue" points="315.68,-216.094 326.242,-215.265 317.468,-209.326 315.68,-216.094"/>
</g>
<!-- Node53 -->
<g id="node5" class="node"><title>Node53</title>
<g id="a_node5"><a xlink:href="classvpr_1_1_device.html#a59882855173bef0b13a17b376ea01d45" target="_top" xlink:title="vpr::Device::vkHandle">
<polygon fill="white" stroke="black" points="495.5,-261.5 495.5,-280.5 603.5,-280.5 603.5,-261.5 495.5,-261.5"/>
<text text-anchor="middle" x="549.5" y="-268.5" font-family="Helvetica,sans-Serif" font-size="10.00">vpr::Device::vkHandle</text>
</a>
</g>
</g>
<!-- Node50&#45;&gt;Node53 -->
<g id="edge9" class="edge"><title>Node50&#45;&gt;Node53</title>
<path fill="none" stroke="midnightblue" d="M231.589,-201.057C250.108,-217.354 282.211,-242.545 315,-254 370.231,-273.295 437.172,-276.267 485.193,-275.171"/>
<polygon fill="midnightblue" stroke="midnightblue" points="485.554,-278.662 495.447,-274.869 485.348,-271.665 485.554,-278.662"/>
</g>
<!-- Node55 -->
<g id="node7" class="node"><title>Node55</title>
<g id="a_node7"><a xlink:href="classvpr_1_1_allocator.html#a32c2e59911a888c64b7d56005014865b" target="_top" xlink:title="vpr::Allocator::GetAllocSize">
<polygon fill="white" stroke="black" points="315,-176.5 315,-195.5 451,-195.5 451,-176.5 315,-176.5"/>
<text text-anchor="middle" x="383" y="-183.5" font-family="Helvetica,sans-Serif" font-size="10.00">vpr::Allocator::GetAllocSize</text>
</a>
</g>
</g>
<!-- Node50&#45;&gt;Node55 -->
<g id="edge6" class="edge"><title>Node50&#45;&gt;Node55</title>
<path fill="none" stroke="midnightblue" d="M271.405,-186C282.11,-186 293.494,-186 304.731,-186"/>
<polygon fill="midnightblue" stroke="midnightblue" points="304.987,-189.5 314.987,-186 304.987,-182.5 304.987,-189.5"/>
</g>
<!-- Node56 -->
<g id="node8" class="node"><title>Node56</title>
<g id="a_node8"><a xlink:href="classvpr_1_1_allocator.html#af89f4383e7e9eb534e1ddc76081c43fd" target="_top" xlink:title="vpr::Allocator::GetBuffer\lImageGranularity">
<polygon fill="white" stroke="black" points="323.5,-127 323.5,-157 442.5,-157 442.5,-127 323.5,-127"/>
<text text-anchor="start" x="331.5" y="-145" font-family="Helvetica,sans-Serif" font-size="10.00">vpr::Allocator::GetBuffer</text>
<text text-anchor="middle" x="383" y="-134" font-family="Helvetica,sans-Serif" font-size="10.00">ImageGranularity</text>
</a>
</g>
</g>
<!-- Node50&#45;&gt;Node56 -->
<g id="edge7" class="edge"><title>Node50&#45;&gt;Node56</title>
<path fill="none" stroke="midnightblue" d="M271.405,-171.226C285.452,-167.514 300.668,-163.493 315.188,-159.656"/>
<polygon fill="midnightblue" stroke="midnightblue" points="316.333,-162.974 325.107,-157.035 314.544,-156.206 316.333,-162.974"/>
</g>
<!-- Node57 -->
<g id="node9" class="node"><title>Node57</title>
<g id="a_node9"><a xlink:href="classvpr_1_1_allocation.html#ad5d461398f23e593c58f70a8cac78922" target="_top" xlink:title="vpr::Allocation::Init">
<polygon fill="white" stroke="black" points="335,-88.5 335,-107.5 431,-107.5 431,-88.5 335,-88.5"/>
<text text-anchor="middle" x="383" y="-95.5" font-family="Helvetica,sans-Serif" font-size="10.00">vpr::Allocation::Init</text>
</a>
</g>
</g>
<!-- Node50&#45;&gt;Node57 -->
<g id="edge8" class="edge"><title>Node50&#45;&gt;Node57</title>
<path fill="none" stroke="midnightblue" d="M233.439,-170.806C252.542,-155.314 284.208,-131.546 315,-117 319.919,-114.676 325.18,-112.582 330.509,-110.709"/>
<polygon fill="midnightblue" stroke="midnightblue" points="331.696,-114.003 340.117,-107.574 329.525,-107.348 331.696,-114.003"/>
</g>
<!-- Node52&#45;&gt;Node53 -->
<g id="edge4" class="edge"><title>Node52&#45;&gt;Node53</title>
<path fill="none" stroke="midnightblue" d="M439.692,-243.881C459.365,-248.784 481.309,-254.253 500.309,-258.989"/>
<polygon fill="midnightblue" stroke="midnightblue" points="499.687,-262.441 510.237,-261.463 501.38,-255.649 499.687,-262.441"/>
</g>
<!-- Node54 -->
<g id="node6" class="node"><title>Node54</title>
<g id="a_node6"><a xlink:href="classvpr_1_1_allocation.html#ad680abfd77facfe5efcc222b154b595d" target="_top" xlink:title="vpr::Allocation::InitPrivate">
<polygon fill="white" stroke="black" points="487,-220.5 487,-239.5 612,-239.5 612,-220.5 487,-220.5"/>
<text text-anchor="middle" x="549.5" y="-227.5" font-family="Helvetica,sans-Serif" font-size="10.00">vpr::Allocation::InitPrivate</text>
</a>
</g>
</g>
<!-- Node52&#45;&gt;Node54 -->
<g id="edge5" class="edge"><title>Node52&#45;&gt;Node54</title>
<path fill="none" stroke="midnightblue" d="M439.692,-230C451.562,-230 464.258,-230 476.635,-230"/>
<polygon fill="midnightblue" stroke="midnightblue" points="476.932,-233.5 486.932,-230 476.932,-226.5 476.932,-233.5"/>
</g>
<!-- Node59 -->
<g id="node11" class="node"><title>Node59</title>
<g id="a_node11"><a xlink:href="classvpr_1_1_allocator.html#a4277250f2867fd5b729bc78e7dc5eb6f" target="_top" xlink:title="vpr::Allocator::GetMemory\lTypeCount">
<polygon fill="white" stroke="black" points="318,-39 318,-69 448,-69 448,-39 318,-39"/>
<text text-anchor="start" x="326" y="-57" font-family="Helvetica,sans-Serif" font-size="10.00">vpr::Allocator::GetMemory</text>
<text text-anchor="middle" x="383" y="-46" font-family="Helvetica,sans-Serif" font-size="10.00">TypeCount</text>
</a>
</g>
</g>
<!-- Node58&#45;&gt;Node59 -->
<g id="edge11" class="edge"><title>Node58&#45;&gt;Node59</title>
<path fill="none" stroke="midnightblue" d="M279.397,-54C288.691,-54 298.326,-54 307.802,-54"/>
<polygon fill="midnightblue" stroke="midnightblue" points="307.999,-57.5001 317.999,-54 307.999,-50.5001 307.999,-57.5001"/>
</g>
<!-- Node60 -->
<g id="node12" class="node"><title>Node60</title>
<g id="a_node12"><a xlink:href="namespacevpr.html#a4670febea81bc9a6a25fb8b1cf1afaaa" target="_top" xlink:title="vpr::countBitsSet">
<polygon fill="white" stroke="black" points="337.5,-0.5 337.5,-19.5 428.5,-19.5 428.5,-0.5 337.5,-0.5"/>
<text text-anchor="middle" x="383" y="-7.5" font-family="Helvetica,sans-Serif" font-size="10.00">vpr::countBitsSet</text>
</a>
</g>
</g>
<!-- Node58&#45;&gt;Node60 -->
<g id="edge12" class="edge"><title>Node58&#45;&gt;Node60</title>
<path fill="none" stroke="midnightblue" d="M272.334,-38.9808C293.032,-33.5112 316.159,-27.3993 335.821,-22.2036"/>
<polygon fill="midnightblue" stroke="midnightblue" points="336.981,-25.5171 345.755,-19.5783 335.193,-18.7495 336.981,-25.5171"/>
</g>
</g>
</svg>
        <g id="navigator" transform="translate(0 0)" fill="#404254">
                <rect fill="#f2f5e9" fill-opacity="0.5" stroke="#606060" stroke-width=".5" x="0" y="0" width="60" height="60"/>
                <use id="zoomplus" xlink:href="#zoomPlus" x="17" y="9" onmousedown="handleZoom(evt,'in')"/>
                <use id="zoomminus" xlink:href="#zoomMin" x="42" y="9" onmousedown="handleZoom(evt,'out')"/>
                <use id="reset" xlink:href="#resetDef" x="30" y="36" onmousedown="handleReset()"/>
                <g id="arrowUp" xlink:href="#dirArrow" transform="translate(30 24)" onmousedown="handlePan(0,-1)">
                  <use xlink:href="#rim" fill="#404040">
                        <set attributeName="fill" to="#808080" begin="arrowUp.mouseover" end="arrowUp.mouseout"/>
                  </use>
                  <path fill="none" stroke="white" stroke-width="1.5" d="M0,-3.0v7 M-2.5,-0.5L0,-3.0L2.5,-0.5"/>
                </g>
                <g id="arrowRight" xlink:href="#dirArrow" transform="rotate(90) translate(36 -43)" onmousedown="handlePan(1,0)">
                  <use xlink:href="#rim" fill="#404040">
                        <set attributeName="fill" to="#808080" begin="arrowRight.mouseover" end="arrowRight.mouseout"/>
                  </use>
                  <path fill="none" stroke="white" stroke-width="1.5" d="M0,-3.0v7 M-2.5,-0.5L0,-3.0L2.5,-0.5"/>
                </g>
                <g id="arrowDown" xlink:href="#dirArrow" transform="rotate(180) translate(-30 -48)" onmousedown="handlePan(0,1)">
                  <use xlink:href="#rim" fill="#404040">
                        <set attributeName="fill" to="#808080" begin="arrowDown.mouseover" end="arrowDown.mouseout"/>
                  </use>
                  <path fill="none" stroke="white" stroke-width="1.5" d="M0,-3.0v7 M-2.5,-0.5L0,-3.0L2.5,-0.5"/>
                </g>
                <g id="arrowLeft" xlink:href="#dirArrow" transform="rotate(270) translate(-36 17)" onmousedown="handlePan(-1,0)">
                  <use xlink:href="#rim" fill="#404040">
                        <set attributeName="fill" to="#808080" begin="arrowLeft.mouseover" end="arrowLeft.mouseout"/>
                  </use>
                  <path fill="none" stroke="white" stroke-width="1.5" d="M0,-3.0v7 M-2.5,-0.5L0,-3.0L2.5,-0.5"/>
                </g>
        </g>
        <svg viewBox="0 0 15 15" width="100%" height="30px" preserveAspectRatio="xMaxYMin meet">
         <g id="arrow_out" transform="scale(0.3 0.3)">
          <a xlink:href="classvpr_1_1_allocator_a1d36e3567e4fd7ef8bf1395942f6c714_cgraph_org.svg" target="_base">
           <rect id="button" ry="5" rx="5" y="6" x="6" height="38" width="38"
                fill="#f2f5e9" fill-opacity="0.5" stroke="#606060" stroke-width="1.0"/>
           <path id="arrow"
             d="M 11.500037,31.436501 C 11.940474,20.09759 22.043105,11.32322 32.158766,21.979434 L 37.068811,17.246167 C 37.068811,17.246167 37.088388,32 37.088388,32 L 22.160133,31.978069 C 22.160133,31.978069 26.997745,27.140456 26.997745,27.140456 C 18.528582,18.264221 13.291696,25.230495 11.500037,31.436501 z"
             style="fill:#404040;"/>
          </a>
         </g>
        </svg>
</svg>
