<?xml version="1.0" encoding="UTF-8" standalone="no"?>
<!DOCTYPE svg PUBLIC "-//W3C//DTD SVG 1.1//EN"
 "http://www.w3.org/Graphics/SVG/1.1/DTD/svg11.dtd">
<!-- Generated by graphviz version 2.38.0 (20140413.2041)
 -->
<!-- Title: vpr::Framebuffer::~Framebuffer Pages: 1 -->
<svg width="405pt" height="39pt"
 viewBox="0.00 0.00 405.00 39.00" xmlns="http://www.w3.org/2000/svg" xmlns:xlink="http://www.w3.org/1999/xlink">
<g id="graph0" class="graph" transform="scale(1 1) rotate(0) translate(4 35)">
<title>vpr::Framebuffer::~Framebuffer</title>
<polygon fill="white" stroke="none" points="-4,4 -4,-35 401,-35 401,4 -4,4"/>
<!-- Node2 -->
<g id="node1" class="node"><title>Node2</title>
<polygon fill="#bfbfbf" stroke="black" points="0,-0.5 0,-30.5 92,-30.5 92,-0.5 0,-0.5"/>
<text text-anchor="start" x="8" y="-18.5" font-family="Helvetica,sans-Serif" font-size="10.00">vpr::Framebuffer::</text>
<text text-anchor="middle" x="46" y="-7.5" font-family="Helvetica,sans-Serif" font-size="10.00">~Framebuffer</text>
</g>
<!-- Node3 -->
<g id="node2" class="node"><title>Node3</title>
<g id="a_node2"><a xlink:href="classvpr_1_1_framebuffer.html#a23680b07a937e5dc08995dc88ebeb091" target="_top" xlink:title="vpr::Framebuffer::Destroy">
<polygon fill="white" stroke="black" points="128,-6 128,-25 253,-25 253,-6 128,-6"/>
<text text-anchor="middle" x="190.5" y="-13" font-family="Helvetica,sans-Serif" font-size="10.00">vpr::Framebuffer::Destroy</text>
</a>
</g>
</g>
<!-- Node2&#45;&gt;Node3 -->
<g id="edge1" class="edge"><title>Node2&#45;&gt;Node3</title>
<path fill="none" stroke="midnightblue" d="M92.0879,-15.5C100.234,-15.5 108.91,-15.5 117.599,-15.5"/>
<polygon fill="midnightblue" stroke="midnightblue" points="117.774,-19.0001 127.774,-15.5 117.774,-12.0001 117.774,-19.0001"/>
</g>
<!-- Node4 -->
<g id="node3" class="node"><title>Node4</title>
<g id="a_node3"><a xlink:href="classvpr_1_1_device.html#a59882855173bef0b13a17b376ea01d45" target="_top" xlink:title="vpr::Device::vkHandle">
<polygon fill="white" stroke="black" points="289,-6 289,-25 397,-25 397,-6 289,-6"/>
<text text-anchor="middle" x="343" y="-13" font-family="Helvetica,sans-Serif" font-size="10.00">vpr::Device::vkHandle</text>
</a>
</g>
</g>
<!-- Node3&#45;&gt;Node4 -->
<g id="edge2" class="edge"><title>Node3&#45;&gt;Node4</title>
<path fill="none" stroke="midnightblue" d="M253.148,-15.5C261.574,-15.5 270.236,-15.5 278.69,-15.5"/>
<polygon fill="midnightblue" stroke="midnightblue" points="278.872,-19.0001 288.872,-15.5 278.871,-12.0001 278.872,-19.0001"/>
</g>
</g>
</svg>
