<?xml version="1.0" encoding="UTF-8" standalone="no"?>
<!DOCTYPE svg PUBLIC "-//W3C//DTD SVG 1.1//EN"
 "http://www.w3.org/Graphics/SVG/1.1/DTD/svg11.dtd">
<!-- Generated by graphviz version 2.38.0 (20140413.2041)
 -->
<!-- Title: vpr::Allocator::AllocateForBuffer Pages: 1 -->
<!--zoomable 382 -->
<svg id="main" version="1.1" xmlns="http://www.w3.org/2000/svg" xmlns:xlink="http://www.w3.org/1999/xlink" xml:space="preserve" onload="init(evt)">
<style type="text/css"><![CDATA[
.edge:hover path { stroke: red; }
.edge:hover polygon { stroke: red; fill: red; }
]]></style>
<script type="text/javascript"><![CDATA[
var edges = document.getElementsByTagName('g');
if (edges && edges.length) {
  for (var i=0;i<edges.length;i++) {
    if (edges[i].id.substr(0,4)=='edge') {
      edges[i].setAttribute('class','edge');
    }
  }
}
]]></script>
        <defs>
                <circle id="rim" cx="0" cy="0" r="7"/>
                <circle id="rim2" cx="0" cy="0" r="3.5"/>
                <g id="zoomPlus">
                        <use xlink:href="#rim" fill="#404040">
                                <set attributeName="fill" to="#808080" begin="zoomplus.mouseover" end="zoomplus.mouseout"/>
                        </use>
                        <path d="M-4,0h8M0,-4v8" fill="none" stroke="white" stroke-width="1.5" pointer-events="none"/>
                </g>
                <g id="zoomMin">
                        <use xlink:href="#rim" fill="#404040">
                                <set attributeName="fill" to="#808080" begin="zoomminus.mouseover" end="zoomminus.mouseout"/>
                        </use>
                        <path d="M-4,0h8" fill="none" stroke="white" stroke-width="1.5" pointer-events="none"/>
                </g>
                <g id="dirArrow">
                        <path fill="none" stroke="white" stroke-width="1.5" d="M0,-3.0v7 M-2.5,-0.5L0,-3.0L2.5,-0.5"/>
                </g>
               <g id="resetDef">
                       <use xlink:href="#rim2" fill="#404040">
                               <set attributeName="fill" to="#808080" begin="reset.mouseover" end="reset.mouseout"/>
                       </use>
               </g>
        </defs>

<script type="text/javascript">
var viewWidth = 773;
var viewHeight = 382;
var sectionId = 'dynsection-3';
</script>
<script xlink:href="svgpan.js"/>
<svg id="graph" class="graph">
<g id="viewport">
<title>vpr::Allocator::AllocateForBuffer</title>
<polygon fill="white" stroke="none" points="-4,4 -4,-377.604 769,-377.604 769,4 -4,4"/>
<!-- Node17 -->
<g id="node1" class="node"><title>Node17</title>
<polygon fill="#bfbfbf" stroke="black" points="0,-45.6038 0,-75.6038 114,-75.6038 114,-45.6038 0,-45.6038"/>
<text text-anchor="start" x="8" y="-63.6038" font-family="Helvetica,sans-Serif" font-size="10.00">vpr::Allocator::Allocate</text>
<text text-anchor="middle" x="57" y="-52.6038" font-family="Helvetica,sans-Serif" font-size="10.00">ForBuffer</text>
</g>
<!-- Node18 -->
<g id="node2" class="node"><title>Node18</title>
<g id="a_node2"><a xlink:href="classvpr_1_1_allocator.html#a1d36e3567e4fd7ef8bf1395942f6c714" target="_top" xlink:title="vpr::Allocator::Allocate\lMemory">
<polygon fill="white" stroke="black" points="151.5,-75.6038 151.5,-105.604 265.5,-105.604 265.5,-75.6038 151.5,-75.6038"/>
<text text-anchor="start" x="159.5" y="-93.6038" font-family="Helvetica,sans-Serif" font-size="10.00">vpr::Allocator::Allocate</text>
<text text-anchor="middle" x="208.5" y="-82.6038" font-family="Helvetica,sans-Serif" font-size="10.00">Memory</text>
</a>
</g>
</g>
<!-- Node17&#45;&gt;Node18 -->
<g id="edge1" class="edge"><title>Node17&#45;&gt;Node18</title>
<path fill="none" stroke="midnightblue" d="M114.094,-71.86C122.883,-73.6237 132.039,-75.4611 141.034,-77.2661"/>
<polygon fill="midnightblue" stroke="midnightblue" points="140.599,-80.7485 151.092,-79.2844 141.976,-73.8853 140.599,-80.7485"/>
</g>
<!-- Node30 -->
<g id="node14" class="node"><title>Node30</title>
<g id="a_node14"><a xlink:href="classvpr_1_1_allocator.html#a9e7a1ff1daa157cd1f74d1437a8384de" target="_top" xlink:title="vpr::Allocator::getBuffer\lMemReqs">
<polygon fill="white" stroke="black" points="150,-16.6038 150,-46.6038 267,-46.6038 267,-16.6038 150,-16.6038"/>
<text text-anchor="start" x="158" y="-34.6038" font-family="Helvetica,sans-Serif" font-size="10.00">vpr::Allocator::getBuffer</text>
<text text-anchor="middle" x="208.5" y="-23.6038" font-family="Helvetica,sans-Serif" font-size="10.00">MemReqs</text>
</a>
</g>
</g>
<!-- Node17&#45;&gt;Node30 -->
<g id="edge14" class="edge"><title>Node17&#45;&gt;Node30</title>
<path fill="none" stroke="midnightblue" d="M114.094,-49.7227C122.431,-48.1055 131.099,-46.4241 139.645,-44.7662"/>
<polygon fill="midnightblue" stroke="midnightblue" points="140.445,-48.1763 149.596,-42.836 139.112,-41.3044 140.445,-48.1763"/>
</g>
<!-- Node19 -->
<g id="node3" class="node"><title>Node19</title>
<g id="a_node3"><a xlink:href="classvpr_1_1_allocator.html#a12b2ce29d3b6b28131cc9c5a331d2286" target="_top" xlink:title="vpr::Allocator::findMemory\lTypeIdx">
<polygon fill="white" stroke="black" points="303,-75.6038 303,-105.604 432,-105.604 432,-75.6038 303,-75.6038"/>
<text text-anchor="start" x="311" y="-93.6038" font-family="Helvetica,sans-Serif" font-size="10.00">vpr::Allocator::findMemory</text>
<text text-anchor="middle" x="367.5" y="-82.6038" font-family="Helvetica,sans-Serif" font-size="10.00">TypeIdx</text>
</a>
</g>
</g>
<!-- Node18&#45;&gt;Node19 -->
<g id="edge2" class="edge"><title>Node18&#45;&gt;Node19</title>
<path fill="none" stroke="midnightblue" d="M265.737,-90.6038C274.495,-90.6038 283.657,-90.6038 292.733,-90.6038"/>
<polygon fill="midnightblue" stroke="midnightblue" points="292.919,-94.1039 302.919,-90.6038 292.919,-87.1039 292.919,-94.1039"/>
</g>
<!-- Node22 -->
<g id="node6" class="node"><title>Node22</title>
<g id="a_node6"><a xlink:href="classvpr_1_1_allocator.html#a40618202c2c86027ee1915cadbc18afd" target="_top" xlink:title="vpr::Allocator::allocate\lMemoryType">
<polygon fill="white" stroke="black" points="311,-216.604 311,-246.604 424,-246.604 424,-216.604 311,-216.604"/>
<text text-anchor="start" x="319" y="-234.604" font-family="Helvetica,sans-Serif" font-size="10.00">vpr::Allocator::allocate</text>
<text text-anchor="middle" x="367.5" y="-223.604" font-family="Helvetica,sans-Serif" font-size="10.00">MemoryType</text>
</a>
</g>
</g>
<!-- Node18&#45;&gt;Node22 -->
<g id="edge5" class="edge"><title>Node18&#45;&gt;Node22</title>
<path fill="none" stroke="midnightblue" d="M226.302,-105.693C254.013,-130.581 309.436,-180.355 341.677,-209.31"/>
<polygon fill="midnightblue" stroke="midnightblue" points="339.564,-212.118 349.343,-216.195 344.242,-206.909 339.564,-212.118"/>
</g>
<!-- Node20 -->
<g id="node4" class="node"><title>Node20</title>
<g id="a_node4"><a xlink:href="classvpr_1_1_allocator.html#a4277250f2867fd5b729bc78e7dc5eb6f" target="_top" xlink:title="vpr::Allocator::GetMemory\lTypeCount">
<polygon fill="white" stroke="black" points="471,-41.6038 471,-71.6038 601,-71.6038 601,-41.6038 471,-41.6038"/>
<text text-anchor="start" x="479" y="-59.6038" font-family="Helvetica,sans-Serif" font-size="10.00">vpr::Allocator::GetMemory</text>
<text text-anchor="middle" x="536" y="-48.6038" font-family="Helvetica,sans-Serif" font-size="10.00">TypeCount</text>
</a>
</g>
</g>
<!-- Node19&#45;&gt;Node20 -->
<g id="edge3" class="edge"><title>Node19&#45;&gt;Node20</title>
<path fill="none" stroke="midnightblue" d="M432.397,-77.5557C441.79,-75.6377 451.531,-73.6486 461.104,-71.6936"/>
<polygon fill="midnightblue" stroke="midnightblue" points="461.901,-75.1031 470.999,-69.6731 460.501,-68.2447 461.901,-75.1031"/>
</g>
<!-- Node21 -->
<g id="node5" class="node"><title>Node21</title>
<g id="a_node5"><a xlink:href="namespacevpr.html#a4670febea81bc9a6a25fb8b1cf1afaaa" target="_top" xlink:title="vpr::countBitsSet">
<polygon fill="white" stroke="black" points="490.5,-91.1038 490.5,-110.104 581.5,-110.104 581.5,-91.1038 490.5,-91.1038"/>
<text text-anchor="middle" x="536" y="-98.1038" font-family="Helvetica,sans-Serif" font-size="10.00">vpr::countBitsSet</text>
</a>
</g>
</g>
<!-- Node19&#45;&gt;Node21 -->
<g id="edge4" class="edge"><title>Node19&#45;&gt;Node21</title>
<path fill="none" stroke="midnightblue" d="M432.397,-94.4414C448.119,-95.3857 464.816,-96.3885 480.072,-97.3048"/>
<polygon fill="midnightblue" stroke="midnightblue" points="480.182,-100.818 490.374,-97.9235 480.602,-93.8302 480.182,-100.818"/>
</g>
<!-- Node23 -->
<g id="node7" class="node"><title>Node23</title>
<g id="a_node7"><a xlink:href="classvpr_1_1_allocator.html#aee9903438ded8311fd11f757f80002d6" target="_top" xlink:title="vpr::Allocator::GetPreferred\lBlockSize">
<polygon fill="white" stroke="black" points="469,-216.604 469,-246.604 603,-246.604 603,-216.604 469,-216.604"/>
<text text-anchor="start" x="477" y="-234.604" font-family="Helvetica,sans-Serif" font-size="10.00">vpr::Allocator::GetPreferred</text>
<text text-anchor="middle" x="536" y="-223.604" font-family="Helvetica,sans-Serif" font-size="10.00">BlockSize</text>
</a>
</g>
</g>
<!-- Node22&#45;&gt;Node23 -->
<g id="edge6" class="edge"><title>Node22&#45;&gt;Node23</title>
<path fill="none" stroke="midnightblue" d="M424.405,-231.604C435.439,-231.604 447.193,-231.604 458.765,-231.604"/>
<polygon fill="midnightblue" stroke="midnightblue" points="458.865,-235.104 468.865,-231.604 458.865,-228.104 458.865,-235.104"/>
</g>
<!-- Node24 -->
<g id="node8" class="node"><title>Node24</title>
<g id="a_node8"><a xlink:href="classvpr_1_1_allocator.html#ad4d7daf9b55d81a4fab0cb4a657d6508" target="_top" xlink:title="vpr::Allocator::allocate\lPrivateMemory">
<polygon fill="white" stroke="black" points="479.5,-167.604 479.5,-197.604 592.5,-197.604 592.5,-167.604 479.5,-167.604"/>
<text text-anchor="start" x="487.5" y="-185.604" font-family="Helvetica,sans-Serif" font-size="10.00">vpr::Allocator::allocate</text>
<text text-anchor="middle" x="536" y="-174.604" font-family="Helvetica,sans-Serif" font-size="10.00">PrivateMemory</text>
</a>
</g>
</g>
<!-- Node22&#45;&gt;Node24 -->
<g id="edge7" class="edge"><title>Node22&#45;&gt;Node24</title>
<path fill="none" stroke="midnightblue" d="M419.814,-216.502C436.986,-211.449 456.295,-205.766 474.125,-200.519"/>
<polygon fill="midnightblue" stroke="midnightblue" points="475.25,-203.836 483.855,-197.655 473.274,-197.121 475.25,-203.836"/>
</g>
<!-- Node25 -->
<g id="node9" class="node"><title>Node25</title>
<g id="a_node9"><a xlink:href="classvpr_1_1_device.html#a59882855173bef0b13a17b376ea01d45" target="_top" xlink:title="vpr::Device::vkHandle">
<polygon fill="white" stroke="black" points="648.5,-129.104 648.5,-148.104 756.5,-148.104 756.5,-129.104 648.5,-129.104"/>
<text text-anchor="middle" x="702.5" y="-136.104" font-family="Helvetica,sans-Serif" font-size="10.00">vpr::Device::vkHandle</text>
</a>
</g>
</g>
<!-- Node22&#45;&gt;Node25 -->
<g id="edge13" class="edge"><title>Node22&#45;&gt;Node25</title>
<path fill="none" stroke="midnightblue" d="M383.419,-216.451C401.598,-199.069 434.103,-171.332 468,-158.604 522.826,-138.017 589.817,-134.258 637.96,-134.911"/>
<polygon fill="midnightblue" stroke="midnightblue" points="638.172,-138.416 648.241,-135.121 638.315,-131.418 638.172,-138.416"/>
</g>
<!-- Node27 -->
<g id="node11" class="node"><title>Node27</title>
<g id="a_node11"><a xlink:href="classvpr_1_1_allocator.html#a32c2e59911a888c64b7d56005014865b" target="_top" xlink:title="vpr::Allocator::GetAllocSize">
<polygon fill="white" stroke="black" points="468,-354.104 468,-373.104 604,-373.104 604,-354.104 468,-354.104"/>
<text text-anchor="middle" x="536" y="-361.104" font-family="Helvetica,sans-Serif" font-size="10.00">vpr::Allocator::GetAllocSize</text>
</a>
</g>
</g>
<!-- Node22&#45;&gt;Node27 -->
<g id="edge10" class="edge"><title>Node22&#45;&gt;Node27</title>
<path fill="none" stroke="midnightblue" d="M377.776,-246.906C393.348,-271.285 427.095,-318.811 468,-344.604 471.356,-346.72 474.952,-348.605 478.672,-350.285"/>
<polygon fill="midnightblue" stroke="midnightblue" points="477.522,-353.595 488.107,-354.05 480.116,-347.093 477.522,-353.595"/>
</g>
<!-- Node28 -->
<g id="node12" class="node"><title>Node28</title>
<g id="a_node12"><a xlink:href="classvpr_1_1_allocator.html#af89f4383e7e9eb534e1ddc76081c43fd" target="_top" xlink:title="vpr::Allocator::GetBuffer\lImageGranularity">
<polygon fill="white" stroke="black" points="476.5,-304.604 476.5,-334.604 595.5,-334.604 595.5,-304.604 476.5,-304.604"/>
<text text-anchor="start" x="484.5" y="-322.604" font-family="Helvetica,sans-Serif" font-size="10.00">vpr::Allocator::GetBuffer</text>
<text text-anchor="middle" x="536" y="-311.604" font-family="Helvetica,sans-Serif" font-size="10.00">ImageGranularity</text>
</a>
</g>
</g>
<!-- Node22&#45;&gt;Node28 -->
<g id="edge11" class="edge"><title>Node22&#45;&gt;Node28</title>
<path fill="none" stroke="midnightblue" d="M389.487,-246.704C409.126,-260.389 439.614,-280.512 468,-294.604 472.226,-296.702 476.673,-298.727 481.184,-300.656"/>
<polygon fill="midnightblue" stroke="midnightblue" points="479.899,-303.912 490.479,-304.472 482.557,-297.437 479.899,-303.912"/>
</g>
<!-- Node29 -->
<g id="node13" class="node"><title>Node29</title>
<g id="a_node13"><a xlink:href="classvpr_1_1_allocation.html#ad5d461398f23e593c58f70a8cac78922" target="_top" xlink:title="vpr::Allocation::Init">
<polygon fill="white" stroke="black" points="488,-266.104 488,-285.104 584,-285.104 584,-266.104 488,-266.104"/>
<text text-anchor="middle" x="536" y="-273.104" font-family="Helvetica,sans-Serif" font-size="10.00">vpr::Allocation::Init</text>
</a>
</g>
</g>
<!-- Node22&#45;&gt;Node29 -->
<g id="edge12" class="edge"><title>Node22&#45;&gt;Node29</title>
<path fill="none" stroke="midnightblue" d="M424.405,-246.378C445.418,-251.93 469.045,-258.174 489.05,-263.461"/>
<polygon fill="midnightblue" stroke="midnightblue" points="488.287,-266.879 498.85,-266.05 490.076,-260.112 488.287,-266.879"/>
</g>
<!-- Node24&#45;&gt;Node25 -->
<g id="edge8" class="edge"><title>Node24&#45;&gt;Node25</title>
<path fill="none" stroke="midnightblue" d="M592.692,-167.707C613.17,-162.23 636.109,-156.094 655.626,-150.874"/>
<polygon fill="midnightblue" stroke="midnightblue" points="656.733,-154.201 665.489,-148.236 654.924,-147.439 656.733,-154.201"/>
</g>
<!-- Node26 -->
<g id="node10" class="node"><title>Node26</title>
<g id="a_node10"><a xlink:href="classvpr_1_1_allocation.html#ad680abfd77facfe5efcc222b154b595d" target="_top" xlink:title="vpr::Allocation::InitPrivate">
<polygon fill="white" stroke="black" points="640,-173.104 640,-192.104 765,-192.104 765,-173.104 640,-173.104"/>
<text text-anchor="middle" x="702.5" y="-180.104" font-family="Helvetica,sans-Serif" font-size="10.00">vpr::Allocation::InitPrivate</text>
</a>
</g>
</g>
<!-- Node24&#45;&gt;Node26 -->
<g id="edge9" class="edge"><title>Node24&#45;&gt;Node26</title>
<path fill="none" stroke="midnightblue" d="M592.692,-182.604C604.562,-182.604 617.258,-182.604 629.635,-182.604"/>
<polygon fill="midnightblue" stroke="midnightblue" points="629.932,-186.104 639.932,-182.604 629.932,-179.104 629.932,-186.104"/>
</g>
<!-- Node30&#45;&gt;Node25 -->
<g id="edge15" class="edge"><title>Node30&#45;&gt;Node25</title>
<path fill="none" stroke="midnightblue" d="M267,-17.6799C346.558,-1.4281 492.951,17.4437 604,-31.6038 645.178,-49.791 676.464,-94.9094 691.542,-120.369"/>
<polygon fill="midnightblue" stroke="midnightblue" points="688.513,-122.123 696.514,-129.067 694.59,-118.649 688.513,-122.123"/>
</g>
</g>
</svg>
        <g id="navigator" transform="translate(0 0)" fill="#404254">
                <rect fill="#f2f5e9" fill-opacity="0.5" stroke="#606060" stroke-width=".5" x="0" y="0" width="60" height="60"/>
                <use id="zoomplus" xlink:href="#zoomPlus" x="17" y="9" onmousedown="handleZoom(evt,'in')"/>
                <use id="zoomminus" xlink:href="#zoomMin" x="42" y="9" onmousedown="handleZoom(evt,'out')"/>
                <use id="reset" xlink:href="#resetDef" x="30" y="36" onmousedown="handleReset()"/>
                <g id="arrowUp" xlink:href="#dirArrow" transform="translate(30 24)" onmousedown="handlePan(0,-1)">
                  <use xlink:href="#rim" fill="#404040">
                        <set attributeName="fill" to="#808080" begin="arrowUp.mouseover" end="arrowUp.mouseout"/>
                  </use>
                  <path fill="none" stroke="white" stroke-width="1.5" d="M0,-3.0v7 M-2.5,-0.5L0,-3.0L2.5,-0.5"/>
                </g>
                <g id="arrowRight" xlink:href="#dirArrow" transform="rotate(90) translate(36 -43)" onmousedown="handlePan(1,0)">
                  <use xlink:href="#rim" fill="#404040">
                        <set attributeName="fill" to="#808080" begin="arrowRight.mouseover" end="arrowRight.mouseout"/>
                  </use>
                  <path fill="none" stroke="white" stroke-width="1.5" d="M0,-3.0v7 M-2.5,-0.5L0,-3.0L2.5,-0.5"/>
                </g>
                <g id="arrowDown" xlink:href="#dirArrow" transform="rotate(180) translate(-30 -48)" onmousedown="handlePan(0,1)">
                  <use xlink:href="#rim" fill="#404040">
                        <set attributeName="fill" to="#808080" begin="arrowDown.mouseover" end="arrowDown.mouseout"/>
                  </use>
                  <path fill="none" stroke="white" stroke-width="1.5" d="M0,-3.0v7 M-2.5,-0.5L0,-3.0L2.5,-0.5"/>
                </g>
                <g id="arrowLeft" xlink:href="#dirArrow" transform="rotate(270) translate(-36 17)" onmousedown="handlePan(-1,0)">
                  <use xlink:href="#rim" fill="#404040">
                        <set attributeName="fill" to="#808080" begin="arrowLeft.mouseover" end="arrowLeft.mouseout"/>
                  </use>
                  <path fill="none" stroke="white" stroke-width="1.5" d="M0,-3.0v7 M-2.5,-0.5L0,-3.0L2.5,-0.5"/>
                </g>
        </g>
        <svg viewBox="0 0 15 15" width="100%" height="30px" preserveAspectRatio="xMaxYMin meet">
         <g id="arrow_out" transform="scale(0.3 0.3)">
          <a xlink:href="classvpr_1_1_allocator_aa8aad8539721142d8dfa92a3196ab90b_cgraph_org.svg" target="_base">
           <rect id="button" ry="5" rx="5" y="6" x="6" height="38" width="38"
                fill="#f2f5e9" fill-opacity="0.5" stroke="#606060" stroke-width="1.0"/>
           <path id="arrow"
             d="M 11.500037,31.436501 C 11.940474,20.09759 22.043105,11.32322 32.158766,21.979434 L 37.068811,17.246167 C 37.068811,17.246167 37.088388,32 37.088388,32 L 22.160133,31.978069 C 22.160133,31.978069 26.997745,27.140456 26.997745,27.140456 C 18.528582,18.264221 13.291696,25.230495 11.500037,31.436501 z"
             style="fill:#404040;"/>
          </a>
         </g>
        </svg>
</svg>
