<?xml version="1.0" encoding="UTF-8" standalone="no"?>
<!DOCTYPE svg PUBLIC "-//W3C//DTD SVG 1.1//EN"
 "http://www.w3.org/Graphics/SVG/1.1/DTD/svg11.dtd">
<!-- Generated by graphviz version 2.38.0 (20140413.2041)
 -->
<!-- Title: el::base::LogFormat::updateDateFormat Pages: 1 -->
<svg width="404pt" height="39pt"
 viewBox="0.00 0.00 404.00 39.00" xmlns="http://www.w3.org/2000/svg" xmlns:xlink="http://www.w3.org/1999/xlink">
<g id="graph0" class="graph" transform="scale(1 1) rotate(0) translate(4 35)">
<title>el::base::LogFormat::updateDateFormat</title>
<polygon fill="white" stroke="none" points="-4,4 -4,-35 400,-35 400,4 -4,4"/>
<!-- Node87 -->
<g id="node1" class="node"><title>Node87</title>
<polygon fill="#bfbfbf" stroke="black" points="0,-0.5 0,-30.5 104,-30.5 104,-0.5 0,-0.5"/>
<text text-anchor="start" x="8" y="-18.5" font-family="Helvetica,sans-Serif" font-size="10.00">el::base::LogFormat</text>
<text text-anchor="middle" x="52" y="-7.5" font-family="Helvetica,sans-Serif" font-size="10.00">::updateDateFormat</text>
</g>
<!-- Node88 -->
<g id="node2" class="node"><title>Node88</title>
<g id="a_node2"><a xlink:href="classel_1_1base_1_1_log_format.html#ab52a480241cd721b553f43bd75686a80" target="_top" xlink:title="el::base::LogFormat\l::hasFlag">
<polygon fill="white" stroke="black" points="140,-0.5 140,-30.5 244,-30.5 244,-0.5 140,-0.5"/>
<text text-anchor="start" x="148" y="-18.5" font-family="Helvetica,sans-Serif" font-size="10.00">el::base::LogFormat</text>
<text text-anchor="middle" x="192" y="-7.5" font-family="Helvetica,sans-Serif" font-size="10.00">::hasFlag</text>
</a>
</g>
</g>
<!-- Node87&#45;&gt;Node88 -->
<g id="edge1" class="edge"><title>Node87&#45;&gt;Node88</title>
<path fill="none" stroke="midnightblue" d="M104.386,-15.5C112.558,-15.5 121.083,-15.5 129.46,-15.5"/>
<polygon fill="midnightblue" stroke="midnightblue" points="129.571,-19.0001 139.571,-15.5 129.571,-12.0001 129.571,-19.0001"/>
</g>
<!-- Node89 -->
<g id="node3" class="node"><title>Node89</title>
<g id="a_node3"><a xlink:href="namespaceel_1_1base_1_1utils.html#a51e93c9ba0ac509b2b7a933147349891" target="_top" xlink:title="el::base::utils::hasFlag">
<polygon fill="white" stroke="black" points="280,-6 280,-25 396,-25 396,-6 280,-6"/>
<text text-anchor="middle" x="338" y="-13" font-family="Helvetica,sans-Serif" font-size="10.00">el::base::utils::hasFlag</text>
</a>
</g>
</g>
<!-- Node88&#45;&gt;Node89 -->
<g id="edge2" class="edge"><title>Node88&#45;&gt;Node89</title>
<path fill="none" stroke="midnightblue" d="M244.174,-15.5C252.335,-15.5 260.887,-15.5 269.358,-15.5"/>
<polygon fill="midnightblue" stroke="midnightblue" points="269.619,-19.0001 279.619,-15.5 269.619,-12.0001 269.619,-19.0001"/>
</g>
</g>
</svg>
