<?xml version="1.0" encoding="UTF-8" standalone="no"?>
<!DOCTYPE svg PUBLIC "-//W3C//DTD SVG 1.1//EN"
 "http://www.w3.org/Graphics/SVG/1.1/DTD/svg11.dtd">
<!-- Generated by graphviz version 2.38.0 (20140413.2041)
 -->
<!-- Title: el::base::VRegistry Pages: 1 -->
<svg width="647pt" height="114pt"
 viewBox="0.00 0.00 647.00 113.50" xmlns="http://www.w3.org/2000/svg" xmlns:xlink="http://www.w3.org/1999/xlink">
<g id="graph0" class="graph" transform="scale(1 1) rotate(0) translate(4 109.5)">
<title>el::base::VRegistry</title>
<polygon fill="white" stroke="none" points="-4,4 -4,-109.5 643,-109.5 643,4 -4,4"/>
<!-- Node3 -->
<g id="node1" class="node"><title>Node3</title>
<polygon fill="#bfbfbf" stroke="black" points="539,-55 539,-74 639,-74 639,-55 539,-55"/>
<text text-anchor="middle" x="589" y="-62" font-family="Helvetica,sans-Serif" font-size="10.00">el::base::VRegistry</text>
</g>
<!-- Node4 -->
<g id="node2" class="node"><title>Node4</title>
<g id="a_node2"><a xlink:href="classel_1_1base_1_1_no_copy.html" target="_top" xlink:title="Internal helper class that prevent copy constructor for class. ">
<polygon fill="white" stroke="black" points="1.5,-86 1.5,-105 93.5,-105 93.5,-86 1.5,-86"/>
<text text-anchor="middle" x="47.5" y="-93" font-family="Helvetica,sans-Serif" font-size="10.00">el::base::NoCopy</text>
</a>
</g>
</g>
<!-- Node4&#45;&gt;Node3 -->
<g id="edge1" class="edge"><title>Node4&#45;&gt;Node3</title>
<path fill="none" stroke="#8b1a1a" d="M103.644,-97.0494C180.977,-98.682 325.976,-99.7708 449,-89.5 482.23,-86.7257 519.383,-79.8435 546.912,-74.0009"/>
<polygon fill="#8b1a1a" stroke="#8b1a1a" points="103.721,-93.5504 93.6452,-96.8272 103.565,-100.549 103.721,-93.5504"/>
</g>
<!-- Node6 -->
<g id="node4" class="node"><title>Node6</title>
<g id="a_node4"><a xlink:href="classel_1_1base_1_1threading_1_1internal_1_1_no_mutex.html" target="_top" xlink:title="Mutex wrapper used when multi&#45;threading is disabled. ">
<polygon fill="white" stroke="black" points="132,-49.5 132,-79.5 231,-79.5 231,-49.5 132,-49.5"/>
<text text-anchor="start" x="140" y="-67.5" font-family="Helvetica,sans-Serif" font-size="10.00">el::base::threading</text>
<text text-anchor="middle" x="181.5" y="-56.5" font-family="Helvetica,sans-Serif" font-size="10.00">::internal::NoMutex</text>
</a>
</g>
</g>
<!-- Node4&#45;&gt;Node6 -->
<g id="edge4" class="edge"><title>Node4&#45;&gt;Node6</title>
<path fill="none" stroke="#8b1a1a" d="M99.2311,-83.5859C109.935,-81.072 121.207,-78.4249 131.833,-75.9294"/>
<polygon fill="#8b1a1a" stroke="#8b1a1a" points="98.1163,-80.2524 89.1814,-85.946 99.7168,-87.067 98.1163,-80.2524"/>
</g>
<!-- Node5 -->
<g id="node3" class="node"><title>Node5</title>
<g id="a_node3"><a xlink:href="classel_1_1base_1_1threading_1_1_thread_safe.html" target="_top" xlink:title="Base of thread safe class, this class is inheritable&#45;only. ">
<polygon fill="white" stroke="black" points="331.5,-49.5 331.5,-79.5 428.5,-79.5 428.5,-49.5 331.5,-49.5"/>
<text text-anchor="start" x="339.5" y="-67.5" font-family="Helvetica,sans-Serif" font-size="10.00">el::base::threading</text>
<text text-anchor="middle" x="380" y="-56.5" font-family="Helvetica,sans-Serif" font-size="10.00">::ThreadSafe</text>
</a>
</g>
</g>
<!-- Node5&#45;&gt;Node3 -->
<g id="edge2" class="edge"><title>Node5&#45;&gt;Node3</title>
<path fill="none" stroke="midnightblue" d="M439.101,-64.5C470.473,-64.5 508.786,-64.5 538.692,-64.5"/>
<polygon fill="midnightblue" stroke="midnightblue" points="438.75,-61.0001 428.75,-64.5 438.75,-68.0001 438.75,-61.0001"/>
</g>
<!-- Node6&#45;&gt;Node5 -->
<g id="edge3" class="edge"><title>Node6&#45;&gt;Node5</title>
<path fill="none" stroke="#9a32cd" stroke-dasharray="5,2" d="M241.394,-64.5C270.132,-64.5 304.251,-64.5 331.325,-64.5"/>
<polygon fill="#9a32cd" stroke="#9a32cd" points="241.073,-61.0001 231.073,-64.5 241.073,-68.0001 241.073,-61.0001"/>
<text text-anchor="middle" x="271" y="-67.5" font-family="Helvetica,sans-Serif" font-size="10.00"> m_mutex</text>
</g>
<!-- Node7 -->
<g id="node5" class="node"><title>Node7</title>
<polygon fill="white" stroke="#bfbfbf" points="311,-0.5 311,-30.5 449,-30.5 449,-0.5 311,-0.5"/>
<text text-anchor="start" x="319" y="-18.5" font-family="Helvetica,sans-Serif" font-size="10.00">std::map&lt; std::string,</text>
<text text-anchor="middle" x="380" y="-7.5" font-family="Helvetica,sans-Serif" font-size="10.00"> base::type::VerboseLevel &gt;</text>
</g>
<!-- Node7&#45;&gt;Node3 -->
<g id="edge5" class="edge"><title>Node7&#45;&gt;Node3</title>
<path fill="none" stroke="#9a32cd" stroke-dasharray="5,2" d="M454.541,-32.9083C485.911,-40.334 521.299,-48.7109 547.749,-54.972"/>
<polygon fill="#9a32cd" stroke="#9a32cd" points="455.051,-29.4323 444.514,-30.5346 453.438,-36.2441 455.051,-29.4323"/>
<text text-anchor="middle" x="494" y="-50.5" font-family="Helvetica,sans-Serif" font-size="10.00"> m_modules</text>
</g>
<!-- Node8 -->
<g id="node6" class="node"><title>Node8</title>
<g id="a_node6"><a xlink:title="STL class. ">
<polygon fill="white" stroke="#bfbfbf" points="151.5,-6 151.5,-25 211.5,-25 211.5,-6 151.5,-6"/>
<text text-anchor="middle" x="181.5" y="-13" font-family="Helvetica,sans-Serif" font-size="10.00">std::string</text>
</a>
</g>
</g>
<!-- Node8&#45;&gt;Node7 -->
<g id="edge6" class="edge"><title>Node8&#45;&gt;Node7</title>
<path fill="none" stroke="#9a32cd" stroke-dasharray="5,2" d="M222.245,-15.5C247.593,-15.5 281.111,-15.5 310.646,-15.5"/>
<polygon fill="#9a32cd" stroke="#9a32cd" points="221.918,-12.0001 211.918,-15.5 221.918,-19.0001 221.918,-12.0001"/>
<text text-anchor="middle" x="271" y="-18.5" font-family="Helvetica,sans-Serif" font-size="10.00"> keys</text>
</g>
<!-- Node9 -->
<g id="node7" class="node"><title>Node9</title>
<g id="a_node7"><a xlink:title="STL class. ">
<polygon fill="white" stroke="#bfbfbf" points="0,-0.5 0,-30.5 95,-30.5 95,-0.5 0,-0.5"/>
<text text-anchor="start" x="8" y="-18.5" font-family="Helvetica,sans-Serif" font-size="10.00">std::basic_string&lt;</text>
<text text-anchor="middle" x="47.5" y="-7.5" font-family="Helvetica,sans-Serif" font-size="10.00"> char &gt;</text>
</a>
</g>
</g>
<!-- Node9&#45;&gt;Node8 -->
<g id="edge7" class="edge"><title>Node9&#45;&gt;Node8</title>
<path fill="none" stroke="midnightblue" d="M105.304,-15.5C121.143,-15.5 137.703,-15.5 151.238,-15.5"/>
<polygon fill="midnightblue" stroke="midnightblue" points="105.038,-12.0001 95.0383,-15.5 105.038,-19.0001 105.038,-12.0001"/>
</g>
</g>
</svg>
