<?xml version="1.0" encoding="UTF-8" standalone="no"?>
<!DOCTYPE svg PUBLIC "-//W3C//DTD SVG 1.1//EN"
 "http://www.w3.org/Graphics/SVG/1.1/DTD/svg11.dtd">
<!-- Generated by graphviz version 2.38.0 (20140413.2041)
 -->
<!-- Title: el::base::NoCopy Pages: 1 -->
<svg width="431pt" height="328pt"
 viewBox="0.00 0.00 431.00 328.00" xmlns="http://www.w3.org/2000/svg" xmlns:xlink="http://www.w3.org/1999/xlink">
<g id="graph0" class="graph" transform="scale(1 1) rotate(0) translate(4 324)">
<title>el::base::NoCopy</title>
<polygon fill="white" stroke="none" points="-4,4 -4,-324 427,-324 427,4 -4,4"/>
<!-- Node0 -->
<g id="node1" class="node"><title>Node0</title>
<polygon fill="#bfbfbf" stroke="black" points="0,-152.5 0,-171.5 92,-171.5 92,-152.5 0,-152.5"/>
<text text-anchor="middle" x="46" y="-159.5" font-family="Helvetica,sans-Serif" font-size="10.00">el::base::NoCopy</text>
</g>
<!-- Node1 -->
<g id="node2" class="node"><title>Node1</title>
<g id="a_node2"><a xlink:href="classel_1_1base_1_1_log_dispatcher.html" target="_top" xlink:title="Dispatches log messages. ">
<polygon fill="white" stroke="black" points="131.5,-300.5 131.5,-319.5 250.5,-319.5 250.5,-300.5 131.5,-300.5"/>
<text text-anchor="middle" x="191" y="-307.5" font-family="Helvetica,sans-Serif" font-size="10.00">el::base::LogDispatcher</text>
</a>
</g>
</g>
<!-- Node0&#45;&gt;Node1 -->
<g id="edge1" class="edge"><title>Node0&#45;&gt;Node1</title>
<path fill="none" stroke="#8b1a1a" d="M54.02,-181.285C65.2752,-209.521 90.0269,-261.908 128,-291 133.094,-294.903 138.993,-298.009 145.087,-300.481"/>
<polygon fill="#8b1a1a" stroke="#8b1a1a" points="57.2116,-179.832 50.3677,-171.744 50.6743,-182.335 57.2116,-179.832"/>
</g>
<!-- Node2 -->
<g id="node3" class="node"><title>Node2</title>
<g id="a_node3"><a xlink:href="classel_1_1base_1_1_null_writer.html" target="_top" xlink:title="Writes nothing &#45; Used when certain log is disabled. ">
<polygon fill="white" stroke="black" points="141,-262.5 141,-281.5 241,-281.5 241,-262.5 141,-262.5"/>
<text text-anchor="middle" x="191" y="-269.5" font-family="Helvetica,sans-Serif" font-size="10.00">el::base::NullWriter</text>
</a>
</g>
</g>
<!-- Node0&#45;&gt;Node2 -->
<g id="edge2" class="edge"><title>Node0&#45;&gt;Node2</title>
<path fill="none" stroke="#8b1a1a" d="M58.4731,-179.978C72.4837,-200.526 98.051,-233.786 128,-253 133.97,-256.83 140.756,-259.925 147.595,-262.416"/>
<polygon fill="#8b1a1a" stroke="#8b1a1a" points="61.3157,-177.932 52.8748,-171.529 55.4802,-181.798 61.3157,-177.932"/>
</g>
<!-- Node3 -->
<g id="node4" class="node"><title>Node3</title>
<g id="a_node4"><a xlink:href="classel_1_1base_1_1_storage.html" target="_top" xlink:title="Easylogging++ management storage. ">
<polygon fill="white" stroke="black" points="145.5,-224.5 145.5,-243.5 236.5,-243.5 236.5,-224.5 145.5,-224.5"/>
<text text-anchor="middle" x="191" y="-231.5" font-family="Helvetica,sans-Serif" font-size="10.00">el::base::Storage</text>
</a>
</g>
</g>
<!-- Node0&#45;&gt;Node3 -->
<g id="edge3" class="edge"><title>Node0&#45;&gt;Node3</title>
<path fill="none" stroke="#8b1a1a" d="M67.713,-177.914C83.5339,-189.469 106.249,-204.803 128,-215 135.747,-218.632 144.359,-221.782 152.639,-224.416"/>
<polygon fill="#8b1a1a" stroke="#8b1a1a" points="69.3648,-174.78 59.2539,-171.614 65.1839,-180.394 69.3648,-174.78"/>
</g>
<!-- Node4 -->
<g id="node5" class="node"><title>Node4</title>
<g id="a_node5"><a xlink:href="classel_1_1base_1_1threading_1_1internal_1_1_no_mutex.html" target="_top" xlink:title="Mutex wrapper used when multi&#45;threading is disabled. ">
<polygon fill="white" stroke="black" points="141.5,-175 141.5,-205 240.5,-205 240.5,-175 141.5,-175"/>
<text text-anchor="start" x="149.5" y="-193" font-family="Helvetica,sans-Serif" font-size="10.00">el::base::threading</text>
<text text-anchor="middle" x="191" y="-182" font-family="Helvetica,sans-Serif" font-size="10.00">::internal::NoMutex</text>
</a>
</g>
</g>
<!-- Node0&#45;&gt;Node4 -->
<g id="edge4" class="edge"><title>Node0&#45;&gt;Node4</title>
<path fill="none" stroke="#8b1a1a" d="M102.361,-172.84C115.213,-175.356 128.799,-178.017 141.337,-180.472"/>
<polygon fill="#8b1a1a" stroke="#8b1a1a" points="102.732,-169.346 92.2461,-170.859 101.387,-176.216 102.732,-169.346"/>
</g>
<!-- Node5 -->
<g id="node6" class="node"><title>Node5</title>
<g id="a_node6"><a xlink:href="classel_1_1base_1_1threading_1_1internal_1_1_no_scoped_lock.html" target="_top" xlink:title="Lock guard wrapper used when multi&#45;threading is disabled. ">
<polygon fill="white" stroke="black" points="128,-114.5 128,-155.5 254,-155.5 254,-114.5 128,-114.5"/>
<text text-anchor="start" x="136" y="-143.5" font-family="Helvetica,sans-Serif" font-size="10.00">el::base::threading</text>
<text text-anchor="start" x="136" y="-132.5" font-family="Helvetica,sans-Serif" font-size="10.00">::internal::NoScopedLock</text>
<text text-anchor="middle" x="191" y="-121.5" font-family="Helvetica,sans-Serif" font-size="10.00">&lt; Mutex &gt;</text>
</a>
</g>
</g>
<!-- Node0&#45;&gt;Node5 -->
<g id="edge5" class="edge"><title>Node0&#45;&gt;Node5</title>
<path fill="none" stroke="#8b1a1a" d="M102.26,-151.566C110.623,-149.987 119.3,-148.349 127.798,-146.744"/>
<polygon fill="#8b1a1a" stroke="#8b1a1a" points="101.423,-148.162 92.2461,-153.457 102.722,-155.041 101.423,-148.162"/>
</g>
<!-- Node6 -->
<g id="node7" class="node"><title>Node6</title>
<g id="a_node7"><a xlink:href="classel_1_1base_1_1_v_registry.html" target="_top" xlink:title="Represents registries for verbose logging. ">
<polygon fill="white" stroke="black" points="141,-76.5 141,-95.5 241,-95.5 241,-76.5 141,-76.5"/>
<text text-anchor="middle" x="191" y="-83.5" font-family="Helvetica,sans-Serif" font-size="10.00">el::base::VRegistry</text>
</a>
</g>
</g>
<!-- Node0&#45;&gt;Node6 -->
<g id="edge6" class="edge"><title>Node0&#45;&gt;Node6</title>
<path fill="none" stroke="#8b1a1a" d="M65.9909,-146.012C81.7512,-133.413 105.196,-116.165 128,-105 135.482,-101.337 143.819,-98.2037 151.892,-95.6005"/>
<polygon fill="#8b1a1a" stroke="#8b1a1a" points="63.6158,-143.433 58.0787,-152.466 68.0402,-148.858 63.6158,-143.433"/>
</g>
<!-- Node7 -->
<g id="node8" class="node"><title>Node7</title>
<g id="a_node8"><a xlink:href="classel_1_1base_1_1_writer.html" target="_top" xlink:title="Main entry point of each logging. ">
<polygon fill="white" stroke="black" points="149.5,-38.5 149.5,-57.5 232.5,-57.5 232.5,-38.5 149.5,-38.5"/>
<text text-anchor="middle" x="191" y="-45.5" font-family="Helvetica,sans-Serif" font-size="10.00">el::base::Writer</text>
</a>
</g>
</g>
<!-- Node0&#45;&gt;Node7 -->
<g id="edge7" class="edge"><title>Node0&#45;&gt;Node7</title>
<path fill="none" stroke="#8b1a1a" d="M57.8876,-143.836C71.6289,-122.425 97.2259,-87.2094 128,-67 134.493,-62.736 141.99,-59.3903 149.478,-56.7776"/>
<polygon fill="#8b1a1a" stroke="#8b1a1a" points="54.9061,-142.002 52.5877,-152.341 60.847,-145.705 54.9061,-142.002"/>
</g>
<!-- Node9 -->
<g id="node10" class="node"><title>Node9</title>
<g id="a_node10"><a xlink:href="classel_1_1_log_builder.html" target="_top" xlink:title="el::LogBuilder">
<polygon fill="white" stroke="black" points="153,-0.5 153,-19.5 229,-19.5 229,-0.5 153,-0.5"/>
<text text-anchor="middle" x="191" y="-7.5" font-family="Helvetica,sans-Serif" font-size="10.00">el::LogBuilder</text>
</a>
</g>
</g>
<!-- Node0&#45;&gt;Node9 -->
<g id="edge9" class="edge"><title>Node0&#45;&gt;Node9</title>
<path fill="none" stroke="#8b1a1a" d="M53.6922,-142.547C64.6576,-113.543 89.1935,-59.1532 128,-29 135.201,-23.4049 144.052,-19.4483 152.788,-16.6535"/>
<polygon fill="#8b1a1a" stroke="#8b1a1a" points="50.2684,-141.722 50.1526,-152.316 56.8497,-144.107 50.2684,-141.722"/>
</g>
<!-- Node8 -->
<g id="node9" class="node"><title>Node8</title>
<g id="a_node9"><a xlink:href="classel_1_1base_1_1_p_error_writer.html" target="_top" xlink:title="el::base::PErrorWriter">
<polygon fill="white" stroke="black" points="301,-38.5 301,-57.5 412,-57.5 412,-38.5 301,-38.5"/>
<text text-anchor="middle" x="356.5" y="-45.5" font-family="Helvetica,sans-Serif" font-size="10.00">el::base::PErrorWriter</text>
</a>
</g>
</g>
<!-- Node7&#45;&gt;Node8 -->
<g id="edge8" class="edge"><title>Node7&#45;&gt;Node8</title>
<path fill="none" stroke="midnightblue" d="M243.023,-48C261.344,-48 282.074,-48 300.702,-48"/>
<polygon fill="midnightblue" stroke="midnightblue" points="242.836,-44.5001 232.836,-48 242.836,-51.5001 242.836,-44.5001"/>
</g>
<!-- Node10 -->
<g id="node11" class="node"><title>Node10</title>
<g id="a_node11"><a xlink:href="classel_1_1base_1_1_default_log_builder.html" target="_top" xlink:title="el::base::DefaultLogBuilder">
<polygon fill="white" stroke="black" points="290,-0.5 290,-19.5 423,-19.5 423,-0.5 290,-0.5"/>
<text text-anchor="middle" x="356.5" y="-7.5" font-family="Helvetica,sans-Serif" font-size="10.00">el::base::DefaultLogBuilder</text>
</a>
</g>
</g>
<!-- Node9&#45;&gt;Node10 -->
<g id="edge10" class="edge"><title>Node9&#45;&gt;Node10</title>
<path fill="none" stroke="midnightblue" d="M239.172,-10C255.013,-10 272.977,-10 289.968,-10"/>
<polygon fill="midnightblue" stroke="midnightblue" points="239.101,-6.5001 229.101,-10 239.101,-13.5001 239.101,-6.5001"/>
</g>
</g>
</svg>
