<?xml version="1.0" encoding="UTF-8" standalone="no"?>
<!DOCTYPE svg PUBLIC "-//W3C//DTD SVG 1.1//EN"
 "http://www.w3.org/Graphics/SVG/1.1/DTD/svg11.dtd">
<!-- Generated by graphviz version 2.38.0 (20140413.2041)
 -->
<!-- Title: vpr::Event::IsReset Pages: 1 -->
<svg width="395pt" height="28pt"
 viewBox="0.00 0.00 395.00 28.00" xmlns="http://www.w3.org/2000/svg" xmlns:xlink="http://www.w3.org/1999/xlink">
<g id="graph0" class="graph" transform="scale(1 1) rotate(0) translate(4 24)">
<title>vpr::Event::IsReset</title>
<polygon fill="white" stroke="none" points="-4,4 -4,-24 391,-24 391,4 -4,4"/>
<!-- Node15 -->
<g id="node1" class="node"><title>Node15</title>
<polygon fill="#bfbfbf" stroke="black" points="0,-0.5 0,-19.5 98,-19.5 98,-0.5 0,-0.5"/>
<text text-anchor="middle" x="49" y="-7.5" font-family="Helvetica,sans-Serif" font-size="10.00">vpr::Event::IsReset</text>
</g>
<!-- Node16 -->
<g id="node2" class="node"><title>Node16</title>
<g id="a_node2"><a xlink:href="classvpr_1_1_event.html#ac3ba488b1703ded001e55af5ada50849" target="_top" xlink:title="Retrieves current status of the event &#45; either VK_EVENT_SET or VK_EVENT_RESET. ">
<polygon fill="white" stroke="black" points="134,-0.5 134,-19.5 243,-19.5 243,-0.5 134,-0.5"/>
<text text-anchor="middle" x="188.5" y="-7.5" font-family="Helvetica,sans-Serif" font-size="10.00">vpr::Event::GetStatus</text>
</a>
</g>
</g>
<!-- Node15&#45;&gt;Node16 -->
<g id="edge1" class="edge"><title>Node15&#45;&gt;Node16</title>
<path fill="none" stroke="midnightblue" d="M98.0908,-10C106.239,-10 114.815,-10 123.297,-10"/>
<polygon fill="midnightblue" stroke="midnightblue" points="123.563,-13.5001 133.563,-10 123.563,-6.5001 123.563,-13.5001"/>
</g>
<!-- Node17 -->
<g id="node3" class="node"><title>Node17</title>
<g id="a_node3"><a xlink:href="classvpr_1_1_device.html#a59882855173bef0b13a17b376ea01d45" target="_top" xlink:title="vpr::Device::vkHandle">
<polygon fill="white" stroke="black" points="279,-0.5 279,-19.5 387,-19.5 387,-0.5 279,-0.5"/>
<text text-anchor="middle" x="333" y="-7.5" font-family="Helvetica,sans-Serif" font-size="10.00">vpr::Device::vkHandle</text>
</a>
</g>
</g>
<!-- Node16&#45;&gt;Node17 -->
<g id="edge2" class="edge"><title>Node16&#45;&gt;Node17</title>
<path fill="none" stroke="midnightblue" d="M243.373,-10C251.666,-10 260.293,-10 268.767,-10"/>
<polygon fill="midnightblue" stroke="midnightblue" points="268.995,-13.5001 278.995,-10 268.995,-6.5001 268.995,-13.5001"/>
</g>
</g>
</svg>
