<?xml version="1.0" encoding="UTF-8" standalone="no"?>
<!DOCTYPE svg PUBLIC "-//W3C//DTD SVG 1.1//EN"
 "http://www.w3.org/Graphics/SVG/1.1/DTD/svg11.dtd">
<!-- Generated by graphviz version 2.38.0 (20140413.2041)
 -->
<!-- Title: vpr::PhysicalDevice Pages: 1 -->
<svg width="181pt" height="251pt"
 viewBox="0.00 0.00 181.00 251.00" xmlns="http://www.w3.org/2000/svg" xmlns:xlink="http://www.w3.org/1999/xlink">
<g id="graph0" class="graph" transform="scale(1 1) rotate(0) translate(4 247)">
<title>vpr::PhysicalDevice</title>
<polygon fill="white" stroke="none" points="-4,4 -4,-247 177,-247 177,4 -4,4"/>
<!-- Node1 -->
<g id="node1" class="node"><title>Node1</title>
<polygon fill="#bfbfbf" stroke="black" points="19.5,-0.5 19.5,-19.5 120.5,-19.5 120.5,-0.5 19.5,-0.5"/>
<text text-anchor="middle" x="70" y="-7.5" font-family="Helvetica,sans-Serif" font-size="10.00">vpr::PhysicalDevice</text>
</g>
<!-- Node2 -->
<g id="node2" class="node"><title>Node2</title>
<polygon fill="white" stroke="#bfbfbf" points="12,-67.5 12,-97.5 128,-97.5 128,-67.5 12,-67.5"/>
<text text-anchor="start" x="20" y="-85.5" font-family="Helvetica,sans-Serif" font-size="10.00">std::unique_ptr&lt; vpr</text>
<text text-anchor="middle" x="70" y="-74.5" font-family="Helvetica,sans-Serif" font-size="10.00">::PhysicalDeviceImpl &gt;</text>
</g>
<!-- Node2&#45;&gt;Node1 -->
<g id="edge1" class="edge"><title>Node2&#45;&gt;Node1</title>
<path fill="none" stroke="#9a32cd" stroke-dasharray="5,2" d="M70,-57.0913C70,-44.2136 70,-29.1974 70,-19.8932"/>
<polygon fill="#9a32cd" stroke="#9a32cd" points="66.5001,-57.2332 70,-67.2333 73.5001,-57.2333 66.5001,-57.2332"/>
<text text-anchor="middle" x="81" y="-41" font-family="Helvetica,sans-Serif" font-size="10.00"> impl</text>
</g>
<!-- Node3 -->
<g id="node3" class="node"><title>Node3</title>
<g id="a_node3"><a xlink:href="classvpr_1_1_physical_device_impl.html" target="_top" xlink:title="vpr::PhysicalDeviceImpl">
<polygon fill="white" stroke="black" points="10.5,-145.5 10.5,-164.5 129.5,-164.5 129.5,-145.5 10.5,-145.5"/>
<text text-anchor="middle" x="70" y="-152.5" font-family="Helvetica,sans-Serif" font-size="10.00">vpr::PhysicalDeviceImpl</text>
</a>
</g>
</g>
<!-- Node3&#45;&gt;Node2 -->
<g id="edge2" class="edge"><title>Node3&#45;&gt;Node2</title>
<path fill="none" stroke="#9a32cd" stroke-dasharray="5,2" d="M70,-135.236C70,-123.408 70,-108.383 70,-97.5762"/>
<polygon fill="#9a32cd" stroke="#9a32cd" points="66.5001,-135.355 70,-145.355 73.5001,-135.355 66.5001,-135.355"/>
<text text-anchor="middle" x="77.5" y="-119" font-family="Helvetica,sans-Serif" font-size="10.00"> ptr</text>
</g>
<!-- Node4 -->
<g id="node4" class="node"><title>Node4</title>
<polygon fill="white" stroke="#bfbfbf" points="0,-212.5 0,-242.5 140,-242.5 140,-212.5 0,-212.5"/>
<text text-anchor="start" x="8" y="-230.5" font-family="Helvetica,sans-Serif" font-size="10.00">std::vector&lt; VkQueueFamily</text>
<text text-anchor="middle" x="70" y="-219.5" font-family="Helvetica,sans-Serif" font-size="10.00">Properties &gt;</text>
</g>
<!-- Node4&#45;&gt;Node3 -->
<g id="edge3" class="edge"><title>Node4&#45;&gt;Node3</title>
<path fill="none" stroke="#9a32cd" stroke-dasharray="5,2" d="M70,-202.091C70,-189.214 70,-174.197 70,-164.893"/>
<polygon fill="#9a32cd" stroke="#9a32cd" points="66.5001,-202.233 70,-212.233 73.5001,-202.233 66.5001,-202.233"/>
<text text-anchor="middle" x="121.5" y="-186" font-family="Helvetica,sans-Serif" font-size="10.00"> queueFamilyProperties</text>
</g>
</g>
</svg>
