<?xml version="1.0" encoding="UTF-8" standalone="no"?>
<!DOCTYPE svg PUBLIC "-//W3C//DTD SVG 1.1//EN"
 "http://www.w3.org/Graphics/SVG/1.1/DTD/svg11.dtd">
<!-- Generated by graphviz version 2.38.0 (20140413.2041)
 -->
<!-- Title: vpr::Buffer::Map Pages: 1 -->
<svg width="247pt" height="104pt"
 viewBox="0.00 0.00 247.00 104.00" xmlns="http://www.w3.org/2000/svg" xmlns:xlink="http://www.w3.org/1999/xlink">
<g id="graph0" class="graph" transform="scale(1 1) rotate(0) translate(4 100)">
<title>vpr::Buffer::Map</title>
<polygon fill="white" stroke="none" points="-4,4 -4,-100 243,-100 243,4 -4,4"/>
<!-- Node65 -->
<g id="node1" class="node"><title>Node65</title>
<polygon fill="#bfbfbf" stroke="black" points="0,-38.5 0,-57.5 84,-57.5 84,-38.5 0,-38.5"/>
<text text-anchor="middle" x="42" y="-45.5" font-family="Helvetica,sans-Serif" font-size="10.00">vpr::Buffer::Map</text>
</g>
<!-- Node66 -->
<g id="node2" class="node"><title>Node66</title>
<g id="a_node2"><a xlink:href="classvpr_1_1_allocation.html#a1a223e41ca865271544ece71d18edce2" target="_top" xlink:title="vpr::Allocation::Memory">
<polygon fill="white" stroke="black" points="120,-76.5 120,-95.5 239,-95.5 239,-76.5 120,-76.5"/>
<text text-anchor="middle" x="179.5" y="-83.5" font-family="Helvetica,sans-Serif" font-size="10.00">vpr::Allocation::Memory</text>
</a>
</g>
</g>
<!-- Node65&#45;&gt;Node66 -->
<g id="edge1" class="edge"><title>Node65&#45;&gt;Node66</title>
<path fill="none" stroke="midnightblue" d="M77.1924,-57.589C94.6039,-62.4719 115.971,-68.4643 134.587,-73.685"/>
<polygon fill="midnightblue" stroke="midnightblue" points="133.745,-77.0837 144.319,-76.4141 135.635,-70.3438 133.745,-77.0837"/>
</g>
<!-- Node67 -->
<g id="node3" class="node"><title>Node67</title>
<g id="a_node3"><a xlink:href="classvpr_1_1_allocation.html#acb642a53c185ac6530ed60959b0e4397" target="_top" xlink:title="vpr::Allocation::Offset">
<polygon fill="white" stroke="black" points="125,-38.5 125,-57.5 234,-57.5 234,-38.5 125,-38.5"/>
<text text-anchor="middle" x="179.5" y="-45.5" font-family="Helvetica,sans-Serif" font-size="10.00">vpr::Allocation::Offset</text>
</a>
</g>
</g>
<!-- Node65&#45;&gt;Node67 -->
<g id="edge2" class="edge"><title>Node65&#45;&gt;Node67</title>
<path fill="none" stroke="midnightblue" d="M84.0222,-48C93.603,-48 104.033,-48 114.351,-48"/>
<polygon fill="midnightblue" stroke="midnightblue" points="114.597,-51.5001 124.597,-48 114.597,-44.5001 114.597,-51.5001"/>
</g>
<!-- Node68 -->
<g id="node4" class="node"><title>Node68</title>
<g id="a_node4"><a xlink:href="classvpr_1_1_device.html#a59882855173bef0b13a17b376ea01d45" target="_top" xlink:title="vpr::Device::vkHandle">
<polygon fill="white" stroke="black" points="125.5,-0.5 125.5,-19.5 233.5,-19.5 233.5,-0.5 125.5,-0.5"/>
<text text-anchor="middle" x="179.5" y="-7.5" font-family="Helvetica,sans-Serif" font-size="10.00">vpr::Device::vkHandle</text>
</a>
</g>
</g>
<!-- Node65&#45;&gt;Node68 -->
<g id="edge3" class="edge"><title>Node65&#45;&gt;Node68</title>
<path fill="none" stroke="midnightblue" d="M77.1924,-38.411C94.6039,-33.5281 115.971,-27.5357 134.587,-22.315"/>
<polygon fill="midnightblue" stroke="midnightblue" points="135.635,-25.6562 144.319,-19.5859 133.745,-18.9163 135.635,-25.6562"/>
</g>
</g>
</svg>
