<?xml version="1.0" encoding="UTF-8" standalone="no"?>
<!DOCTYPE svg PUBLIC "-//W3C//DTD SVG 1.1//EN"
 "http://www.w3.org/Graphics/SVG/1.1/DTD/svg11.dtd">
<!-- Generated by graphviz version 2.38.0 (20140413.2041)
 -->
<!-- Title: vpr::Instance::vkHandle Pages: 1 -->
<svg width="649pt" height="104pt"
 viewBox="0.00 0.00 649.00 104.00" xmlns="http://www.w3.org/2000/svg" xmlns:xlink="http://www.w3.org/1999/xlink">
<g id="graph0" class="graph" transform="scale(1 1) rotate(0) translate(4 100)">
<title>vpr::Instance::vkHandle</title>
<polygon fill="white" stroke="none" points="-4,4 -4,-100 645,-100 645,4 -4,4"/>
<!-- Node39 -->
<g id="node1" class="node"><title>Node39</title>
<polygon fill="#bfbfbf" stroke="black" points="0,-38.5 0,-57.5 116,-57.5 116,-38.5 0,-38.5"/>
<text text-anchor="middle" x="58" y="-45.5" font-family="Helvetica,sans-Serif" font-size="10.00">vpr::Instance::vkHandle</text>
</g>
<!-- Node40 -->
<g id="node2" class="node"><title>Node40</title>
<g id="a_node2"><a xlink:href="classvpr_1_1_surface_k_h_r.html#a2c27a5198682d3069e0936dbeb0f24b4" target="_top" xlink:title="vpr::SurfaceKHR::create">
<polygon fill="white" stroke="black" points="154.5,-57.5 154.5,-76.5 275.5,-76.5 275.5,-57.5 154.5,-57.5"/>
<text text-anchor="middle" x="215" y="-64.5" font-family="Helvetica,sans-Serif" font-size="10.00">vpr::SurfaceKHR::create</text>
</a>
</g>
</g>
<!-- Node39&#45;&gt;Node40 -->
<g id="edge1" class="edge"><title>Node39&#45;&gt;Node40</title>
<path fill="none" stroke="midnightblue" d="M126.303,-56.2501C135.641,-57.3947 145.179,-58.5639 154.364,-59.6898"/>
<polygon fill="midnightblue" stroke="midnightblue" points="126.627,-52.7637 116.276,-55.0209 125.776,-59.7117 126.627,-52.7637"/>
</g>
<!-- Node44 -->
<g id="node6" class="node"><title>Node44</title>
<g id="a_node6"><a xlink:href="classvpr_1_1_surface_k_h_r.html#a1083d46de78e533a1cabba07b62e1950" target="_top" xlink:title="vpr::SurfaceKHR::destroy">
<polygon fill="white" stroke="black" points="152,-19.5 152,-38.5 278,-38.5 278,-19.5 152,-19.5"/>
<text text-anchor="middle" x="215" y="-26.5" font-family="Helvetica,sans-Serif" font-size="10.00">vpr::SurfaceKHR::destroy</text>
</a>
</g>
</g>
<!-- Node39&#45;&gt;Node44 -->
<g id="edge5" class="edge"><title>Node39&#45;&gt;Node44</title>
<path fill="none" stroke="midnightblue" d="M126.431,-39.7342C134.845,-38.7029 143.419,-37.6518 151.749,-36.6307"/>
<polygon fill="midnightblue" stroke="midnightblue" points="125.776,-36.2883 116.276,-40.9791 126.627,-43.2363 125.776,-36.2883"/>
</g>
<!-- Node41 -->
<g id="node3" class="node"><title>Node41</title>
<g id="a_node3"><a xlink:href="classvpr_1_1_surface_k_h_r.html#a8b7186af8af5eac045a42acb6e6302b6" target="_top" xlink:title="vpr::SurfaceKHR::SurfaceKHR">
<polygon fill="white" stroke="black" points="317,-76.5 317,-95.5 464,-95.5 464,-76.5 317,-76.5"/>
<text text-anchor="middle" x="390.5" y="-83.5" font-family="Helvetica,sans-Serif" font-size="10.00">vpr::SurfaceKHR::SurfaceKHR</text>
</a>
</g>
</g>
<!-- Node40&#45;&gt;Node41 -->
<g id="edge2" class="edge"><title>Node40&#45;&gt;Node41</title>
<path fill="none" stroke="midnightblue" d="M285.786,-74.6423C295.995,-75.7602 306.529,-76.9139 316.794,-78.038"/>
<polygon fill="midnightblue" stroke="midnightblue" points="286.03,-71.1482 275.709,-73.5387 285.268,-78.1066 286.03,-71.1482"/>
</g>
<!-- Node42 -->
<g id="node4" class="node"><title>Node42</title>
<g id="a_node4"><a xlink:href="classvpr_1_1_surface_k_h_r.html#a35b9db127a998f70bea3ebbdeef97f5d" target="_top" xlink:title="vpr::SurfaceKHR::Recreate">
<polygon fill="white" stroke="black" points="324,-38.5 324,-57.5 457,-57.5 457,-38.5 324,-38.5"/>
<text text-anchor="middle" x="390.5" y="-45.5" font-family="Helvetica,sans-Serif" font-size="10.00">vpr::SurfaceKHR::Recreate</text>
</a>
</g>
</g>
<!-- Node40&#45;&gt;Node42 -->
<g id="edge3" class="edge"><title>Node40&#45;&gt;Node42</title>
<path fill="none" stroke="midnightblue" d="M285.659,-59.3717C298.225,-57.9955 311.29,-56.5648 323.741,-55.2013"/>
<polygon fill="midnightblue" stroke="midnightblue" points="285.268,-55.8934 275.709,-60.4613 286.03,-62.8518 285.268,-55.8934"/>
</g>
<!-- Node43 -->
<g id="node5" class="node"><title>Node43</title>
<g id="a_node5"><a xlink:href="namespacevpr.html#a812ad3570ad63ddcbc18e03988bd60bd" target="_top" xlink:title="Pass a swapchain and surface pointer to this to have the swapchain and surface destroyed and recreate...">
<polygon fill="white" stroke="black" points="503,-33 503,-63 641,-63 641,-33 503,-33"/>
<text text-anchor="start" x="511" y="-51" font-family="Helvetica,sans-Serif" font-size="10.00">vpr::RecreateSwapchainAnd</text>
<text text-anchor="middle" x="572" y="-40" font-family="Helvetica,sans-Serif" font-size="10.00">Surface</text>
</a>
</g>
</g>
<!-- Node42&#45;&gt;Node43 -->
<g id="edge4" class="edge"><title>Node42&#45;&gt;Node43</title>
<path fill="none" stroke="midnightblue" d="M467.335,-48C479.142,-48 491.278,-48 502.899,-48"/>
<polygon fill="midnightblue" stroke="midnightblue" points="467.066,-44.5001 457.066,-48 467.066,-51.5001 467.066,-44.5001"/>
</g>
<!-- Node44&#45;&gt;Node42 -->
<g id="edge7" class="edge"><title>Node44&#45;&gt;Node42</title>
<path fill="none" stroke="midnightblue" d="M288.398,-36.9283C300.196,-38.2203 312.357,-39.5521 323.978,-40.8246"/>
<polygon fill="midnightblue" stroke="midnightblue" points="288.469,-33.4152 278.147,-35.8058 287.707,-40.3736 288.469,-33.4152"/>
</g>
<!-- Node45 -->
<g id="node7" class="node"><title>Node45</title>
<g id="a_node7"><a xlink:href="classvpr_1_1_surface_k_h_r.html#ae87cbdf79cb326650e1b146f53d6d394" target="_top" xlink:title="vpr::SurfaceKHR::~SurfaceKHR">
<polygon fill="white" stroke="black" points="314,-0.5 314,-19.5 467,-19.5 467,-0.5 314,-0.5"/>
<text text-anchor="middle" x="390.5" y="-7.5" font-family="Helvetica,sans-Serif" font-size="10.00">vpr::SurfaceKHR::~SurfaceKHR</text>
</a>
</g>
</g>
<!-- Node44&#45;&gt;Node45 -->
<g id="edge6" class="edge"><title>Node44&#45;&gt;Node45</title>
<path fill="none" stroke="midnightblue" d="M288.319,-21.0804C296.752,-20.1568 305.372,-19.2128 313.849,-18.2846"/>
<polygon fill="midnightblue" stroke="midnightblue" points="287.707,-17.6263 278.147,-22.1942 288.469,-24.5848 287.707,-17.6263"/>
</g>
</g>
</svg>
