<?xml version="1.0" encoding="UTF-8" standalone="no"?>
<!DOCTYPE svg PUBLIC "-//W3C//DTD SVG 1.1//EN"
 "http://www.w3.org/Graphics/SVG/1.1/DTD/svg11.dtd">
<!-- Generated by graphviz version 2.38.0 (20140413.2041)
 -->
<!-- Title: el::Configurations::unsafeSet Pages: 1 -->
<svg width="556pt" height="186pt"
 viewBox="0.00 0.00 556.00 186.00" xmlns="http://www.w3.org/2000/svg" xmlns:xlink="http://www.w3.org/1999/xlink">
<g id="graph0" class="graph" transform="scale(1 1) rotate(0) translate(4 182)">
<title>el::Configurations::unsafeSet</title>
<polygon fill="white" stroke="none" points="-4,4 -4,-182 552,-182 552,4 -4,4"/>
<!-- Node173 -->
<g id="node1" class="node"><title>Node173</title>
<polygon fill="#bfbfbf" stroke="black" points="0,-53.5 0,-83.5 92,-83.5 92,-53.5 0,-53.5"/>
<text text-anchor="start" x="8" y="-71.5" font-family="Helvetica,sans-Serif" font-size="10.00">el::Configurations</text>
<text text-anchor="middle" x="46" y="-60.5" font-family="Helvetica,sans-Serif" font-size="10.00">::unsafeSet</text>
</g>
<!-- Node174 -->
<g id="node2" class="node"><title>Node174</title>
<g id="a_node2"><a xlink:href="classel_1_1_configurations.html#a332717de96efc851a202b7afcc5e395c" target="_top" xlink:title="Sets value of configuration for specified level. ">
<polygon fill="white" stroke="black" points="277.5,-103 277.5,-122 388.5,-122 388.5,-103 277.5,-103"/>
<text text-anchor="middle" x="333" y="-110" font-family="Helvetica,sans-Serif" font-size="10.00">el::Configurations::set</text>
</a>
</g>
</g>
<!-- Node173&#45;&gt;Node174 -->
<g id="edge1" class="edge"><title>Node173&#45;&gt;Node174</title>
<path fill="none" stroke="midnightblue" d="M99.5048,-86.4246C108.907,-89.1401 118.679,-91.6482 128,-93.5 178.064,-103.446 236.101,-108.212 277.442,-110.48"/>
<polygon fill="midnightblue" stroke="midnightblue" points="100.458,-83.0566 89.8744,-83.5385 98.4487,-89.762 100.458,-83.0566"/>
</g>
<!-- Node178 -->
<g id="node6" class="node"><title>Node178</title>
<g id="a_node6"><a xlink:href="classel_1_1_configurations.html#a800efb58724eb771027135b282eae512" target="_top" xlink:title="Sets configurations (Unsafely) for all levels including Level::Global if includeGlobalLevel is true...">
<polygon fill="white" stroke="black" points="131.5,-53.5 131.5,-83.5 232.5,-83.5 232.5,-53.5 131.5,-53.5"/>
<text text-anchor="start" x="139.5" y="-71.5" font-family="Helvetica,sans-Serif" font-size="10.00">el::Configurations</text>
<text text-anchor="middle" x="182" y="-60.5" font-family="Helvetica,sans-Serif" font-size="10.00">::unsafeSetGlobally</text>
</a>
</g>
</g>
<!-- Node173&#45;&gt;Node178 -->
<g id="edge5" class="edge"><title>Node173&#45;&gt;Node178</title>
<path fill="none" stroke="midnightblue" d="M102.488,-61.8394C111.965,-61.6909 121.758,-61.7274 131.08,-61.9488"/>
<polygon fill="midnightblue" stroke="midnightblue" points="102.283,-58.3431 92.3663,-62.073 102.444,-65.3412 102.283,-58.3431"/>
</g>
<!-- Node179 -->
<g id="node7" class="node"><title>Node179</title>
<g id="a_node7"><a xlink:href="classel_1_1_configurations.html#a84c06d47e550b5eda3060f399698ec28" target="_top" xlink:title="Unsafely sets configuration if does not already exist. ">
<polygon fill="white" stroke="black" points="128,-3.5 128,-33.5 236,-33.5 236,-3.5 128,-3.5"/>
<text text-anchor="start" x="136" y="-21.5" font-family="Helvetica,sans-Serif" font-size="10.00">el::Configurations</text>
<text text-anchor="middle" x="182" y="-10.5" font-family="Helvetica,sans-Serif" font-size="10.00">::unsafeSetIfNotExist</text>
</a>
</g>
</g>
<!-- Node173&#45;&gt;Node179 -->
<g id="edge8" class="edge"><title>Node173&#45;&gt;Node179</title>
<path fill="none" stroke="midnightblue" d="M96.9065,-49.8782C111.229,-44.5339 126.669,-38.7729 140.361,-33.6639"/>
<polygon fill="midnightblue" stroke="midnightblue" points="95.3499,-46.7232 87.2044,-53.4984 97.797,-53.2815 95.3499,-46.7232"/>
</g>
<!-- Node175 -->
<g id="node3" class="node"><title>Node175</title>
<g id="a_node3"><a xlink:href="classel_1_1_configurations_1_1_parser.html#a70e0d8b27e7c1b5dd94e6838c304a751" target="_top" xlink:title="el::Configurations\l::Parser::parseLine">
<polygon fill="white" stroke="black" points="439.5,-147.5 439.5,-177.5 538.5,-177.5 538.5,-147.5 439.5,-147.5"/>
<text text-anchor="start" x="447.5" y="-165.5" font-family="Helvetica,sans-Serif" font-size="10.00">el::Configurations</text>
<text text-anchor="middle" x="489" y="-154.5" font-family="Helvetica,sans-Serif" font-size="10.00">::Parser::parseLine</text>
</a>
</g>
</g>
<!-- Node174&#45;&gt;Node175 -->
<g id="edge2" class="edge"><title>Node174&#45;&gt;Node175</title>
<path fill="none" stroke="midnightblue" d="M373.116,-125.2C393.938,-131.96 419.681,-140.319 441.518,-147.409"/>
<polygon fill="midnightblue" stroke="midnightblue" points="373.921,-121.782 363.329,-122.022 371.759,-128.439 373.921,-121.782"/>
</g>
<!-- Node176 -->
<g id="node4" class="node"><title>Node176</title>
<g id="a_node4"><a xlink:href="classel_1_1_loggers.html#a396b601e204ede36f5a9acc76a8c5585" target="_top" xlink:title="Reconfigures single configuration for all the loggers for specified level. ">
<polygon fill="white" stroke="black" points="430,-98.5 430,-128.5 548,-128.5 548,-98.5 430,-98.5"/>
<text text-anchor="start" x="438" y="-116.5" font-family="Helvetica,sans-Serif" font-size="10.00">el::Loggers::reconfigure</text>
<text text-anchor="middle" x="489" y="-105.5" font-family="Helvetica,sans-Serif" font-size="10.00">AllLoggers</text>
</a>
</g>
</g>
<!-- Node174&#45;&gt;Node176 -->
<g id="edge3" class="edge"><title>Node174&#45;&gt;Node176</title>
<path fill="none" stroke="midnightblue" d="M398.868,-112.921C409.134,-112.988 419.695,-113.056 429.796,-113.122"/>
<polygon fill="midnightblue" stroke="midnightblue" points="398.751,-109.42 388.728,-112.855 398.705,-116.42 398.751,-109.42"/>
</g>
<!-- Node177 -->
<g id="node5" class="node"><title>Node177</title>
<g id="a_node5"><a xlink:href="classel_1_1_loggers.html#a89ec21259cfcfee3f761fca68c4ec043" target="_top" xlink:title="Reconfigures logger&#39;s single configuration. ">
<polygon fill="white" stroke="black" points="430,-49.5 430,-79.5 548,-79.5 548,-49.5 430,-49.5"/>
<text text-anchor="start" x="438" y="-67.5" font-family="Helvetica,sans-Serif" font-size="10.00">el::Loggers::reconfigure</text>
<text text-anchor="middle" x="489" y="-56.5" font-family="Helvetica,sans-Serif" font-size="10.00">Logger</text>
</a>
</g>
</g>
<!-- Node174&#45;&gt;Node177 -->
<g id="edge4" class="edge"><title>Node174&#45;&gt;Node177</title>
<path fill="none" stroke="midnightblue" d="M374.518,-99.8709C394.496,-93.6442 418.734,-86.0893 439.673,-79.563"/>
<polygon fill="midnightblue" stroke="midnightblue" points="373.3,-96.5846 364.794,-102.902 375.383,-103.268 373.3,-96.5846"/>
</g>
<!-- Node178&#45;&gt;Node173 -->
<g id="edge7" class="edge"><title>Node178&#45;&gt;Node173</title>
<path fill="none" stroke="midnightblue" d="M120.817,-75.2188C111.257,-75.3065 101.511,-75.2092 92.3663,-74.927"/>
<polygon fill="midnightblue" stroke="midnightblue" points="121.138,-78.7142 131.08,-75.0512 121.024,-71.7151 121.138,-78.7142"/>
</g>
<!-- Node178&#45;&gt;Node174 -->
<g id="edge6" class="edge"><title>Node178&#45;&gt;Node174</title>
<path fill="none" stroke="midnightblue" d="M242.337,-86.0222C261.815,-91.7742 282.737,-97.9526 299.468,-102.893"/>
<polygon fill="midnightblue" stroke="midnightblue" points="243.197,-82.6268 232.615,-83.1514 241.214,-89.3403 243.197,-82.6268"/>
</g>
<!-- Node180 -->
<g id="node8" class="node"><title>Node180</title>
<g id="a_node8"><a xlink:href="classel_1_1_configurations.html#ad89b7d2dd750e4d1b3deff800e278fdb" target="_top" xlink:title="Lets you set the remaining configurations to default. ">
<polygon fill="white" stroke="black" points="272,-2.5 272,-32.5 394,-32.5 394,-2.5 272,-2.5"/>
<text text-anchor="start" x="280" y="-20.5" font-family="Helvetica,sans-Serif" font-size="10.00">el::Configurations</text>
<text text-anchor="middle" x="333" y="-9.5" font-family="Helvetica,sans-Serif" font-size="10.00">::setRemainingToDefault</text>
</a>
</g>
</g>
<!-- Node179&#45;&gt;Node180 -->
<g id="edge9" class="edge"><title>Node179&#45;&gt;Node180</title>
<path fill="none" stroke="midnightblue" d="M246.519,-18.0737C254.941,-18.0172 263.553,-17.9594 271.914,-17.9033"/>
<polygon fill="midnightblue" stroke="midnightblue" points="246.348,-14.5747 236.372,-18.1418 246.395,-21.5745 246.348,-14.5747"/>
</g>
<!-- Node181 -->
<g id="node9" class="node"><title>Node181</title>
<g id="a_node9"><a xlink:href="classel_1_1_configurations.html#ae341bd647734d1180a5a138222d2f1ea" target="_top" xlink:title="Constructor used to set configurations using configuration file. ">
<polygon fill="white" stroke="black" points="443,-0.5 443,-30.5 535,-30.5 535,-0.5 443,-0.5"/>
<text text-anchor="start" x="451" y="-18.5" font-family="Helvetica,sans-Serif" font-size="10.00">el::Configurations</text>
<text text-anchor="middle" x="489" y="-7.5" font-family="Helvetica,sans-Serif" font-size="10.00">::Configurations</text>
</a>
</g>
</g>
<!-- Node180&#45;&gt;Node181 -->
<g id="edge10" class="edge"><title>Node180&#45;&gt;Node181</title>
<path fill="none" stroke="midnightblue" d="M404.769,-16.5809C417.77,-16.4121 431.009,-16.2401 442.991,-16.0845"/>
<polygon fill="midnightblue" stroke="midnightblue" points="404.377,-13.0856 394.423,-16.7153 404.468,-20.085 404.377,-13.0856"/>
</g>
</g>
</svg>
