<?xml version="1.0" encoding="UTF-8" standalone="no"?>
<!DOCTYPE svg PUBLIC "-//W3C//DTD SVG 1.1//EN"
 "http://www.w3.org/Graphics/SVG/1.1/DTD/svg11.dtd">
<!-- Generated by graphviz version 2.38.0 (20140413.2041)
 -->
<!-- Title: vpr::Allocation::MemoryTypeIdx Pages: 1 -->
<!--zoomable 66 -->
<svg id="main" version="1.1" xmlns="http://www.w3.org/2000/svg" xmlns:xlink="http://www.w3.org/1999/xlink" xml:space="preserve" onload="init(evt)">
<style type="text/css"><![CDATA[
.edge:hover path { stroke: red; }
.edge:hover polygon { stroke: red; fill: red; }
]]></style>
<script type="text/javascript"><![CDATA[
var edges = document.getElementsByTagName('g');
if (edges && edges.length) {
  for (var i=0;i<edges.length;i++) {
    if (edges[i].id.substr(0,4)=='edge') {
      edges[i].setAttribute('class','edge');
    }
  }
}
]]></script>
        <defs>
                <circle id="rim" cx="0" cy="0" r="7"/>
                <circle id="rim2" cx="0" cy="0" r="3.5"/>
                <g id="zoomPlus">
                        <use xlink:href="#rim" fill="#404040">
                                <set attributeName="fill" to="#808080" begin="zoomplus.mouseover" end="zoomplus.mouseout"/>
                        </use>
                        <path d="M-4,0h8M0,-4v8" fill="none" stroke="white" stroke-width="1.5" pointer-events="none"/>
                </g>
                <g id="zoomMin">
                        <use xlink:href="#rim" fill="#404040">
                                <set attributeName="fill" to="#808080" begin="zoomminus.mouseover" end="zoomminus.mouseout"/>
                        </use>
                        <path d="M-4,0h8" fill="none" stroke="white" stroke-width="1.5" pointer-events="none"/>
                </g>
                <g id="dirArrow">
                        <path fill="none" stroke="white" stroke-width="1.5" d="M0,-3.0v7 M-2.5,-0.5L0,-3.0L2.5,-0.5"/>
                </g>
               <g id="resetDef">
                       <use xlink:href="#rim2" fill="#404040">
                               <set attributeName="fill" to="#808080" begin="reset.mouseover" end="reset.mouseout"/>
                       </use>
               </g>
        </defs>

<script type="text/javascript">
var viewWidth = 505;
var viewHeight = 66;
var sectionId = 'dynsection-4';
</script>
<script xlink:href="svgpan.js"/>
<svg id="graph" class="graph">
<g id="viewport">
<title>vpr::Allocation::MemoryTypeIdx</title>
<polygon fill="white" stroke="none" points="-4,4 -4,-62 501,-62 501,4 -4,4"/>
<!-- Node45 -->
<g id="node1" class="node"><title>Node45</title>
<polygon fill="#bfbfbf" stroke="black" points="0,-19.5 0,-38.5 152,-38.5 152,-19.5 0,-19.5"/>
<text text-anchor="middle" x="76" y="-26.5" font-family="Helvetica,sans-Serif" font-size="10.00">vpr::Allocation::MemoryTypeIdx</text>
</g>
<!-- Node46 -->
<g id="node2" class="node"><title>Node46</title>
<g id="a_node2"><a xlink:href="classvpr_1_1_allocator.html#a438bbd88a3f18c741f7de90f528300b1" target="_top" xlink:title="vpr::Allocator::FreeMemory">
<polygon fill="white" stroke="black" points="188,-19.5 188,-38.5 322,-38.5 322,-19.5 188,-19.5"/>
<text text-anchor="middle" x="255" y="-26.5" font-family="Helvetica,sans-Serif" font-size="10.00">vpr::Allocator::FreeMemory</text>
</a>
</g>
</g>
<!-- Node45&#45;&gt;Node46 -->
<g id="edge1" class="edge"><title>Node45&#45;&gt;Node46</title>
<path fill="none" stroke="midnightblue" d="M162.14,-29C170.756,-29 179.415,-29 187.789,-29"/>
<polygon fill="midnightblue" stroke="midnightblue" points="162.064,-25.5001 152.064,-29 162.064,-32.5001 162.064,-25.5001"/>
</g>
<!-- Node47 -->
<g id="node3" class="node"><title>Node47</title>
<g id="a_node3"><a xlink:href="classvpr_1_1_allocator.html#a9c04f050d22a383fd21f02e036bf2572" target="_top" xlink:title="vpr::Allocator::DestroyImage">
<polygon fill="white" stroke="black" points="358,-38.5 358,-57.5 497,-57.5 497,-38.5 358,-38.5"/>
<text text-anchor="middle" x="427.5" y="-45.5" font-family="Helvetica,sans-Serif" font-size="10.00">vpr::Allocator::DestroyImage</text>
</a>
</g>
</g>
<!-- Node46&#45;&gt;Node47 -->
<g id="edge2" class="edge"><title>Node46&#45;&gt;Node47</title>
<path fill="none" stroke="midnightblue" d="M332.563,-37.5319C340.953,-38.4669 349.456,-39.4144 357.742,-40.3379"/>
<polygon fill="midnightblue" stroke="midnightblue" points="332.734,-34.0294 322.408,-36.4003 331.959,-40.9864 332.734,-34.0294"/>
</g>
<!-- Node48 -->
<g id="node4" class="node"><title>Node48</title>
<g id="a_node4"><a xlink:href="classvpr_1_1_allocator.html#aba5e7b8623bceb91e2eb3551d55afb86" target="_top" xlink:title="vpr::Allocator::DestroyBuffer">
<polygon fill="white" stroke="black" points="359,-0.5 359,-19.5 496,-19.5 496,-0.5 359,-0.5"/>
<text text-anchor="middle" x="427.5" y="-7.5" font-family="Helvetica,sans-Serif" font-size="10.00">vpr::Allocator::DestroyBuffer</text>
</a>
</g>
</g>
<!-- Node46&#45;&gt;Node48 -->
<g id="edge3" class="edge"><title>Node46&#45;&gt;Node48</title>
<path fill="none" stroke="midnightblue" d="M332.608,-20.4631C341.363,-19.4874 350.242,-18.498 358.869,-17.5366"/>
<polygon fill="midnightblue" stroke="midnightblue" points="331.959,-17.0136 322.408,-21.5997 332.734,-23.9706 331.959,-17.0136"/>
</g>
</g>
</svg>
        <g id="navigator" transform="translate(0 0)" fill="#404254">
                <rect fill="#f2f5e9" fill-opacity="0.5" stroke="#606060" stroke-width=".5" x="0" y="0" width="60" height="60"/>
                <use id="zoomplus" xlink:href="#zoomPlus" x="17" y="9" onmousedown="handleZoom(evt,'in')"/>
                <use id="zoomminus" xlink:href="#zoomMin" x="42" y="9" onmousedown="handleZoom(evt,'out')"/>
                <use id="reset" xlink:href="#resetDef" x="30" y="36" onmousedown="handleReset()"/>
                <g id="arrowUp" xlink:href="#dirArrow" transform="translate(30 24)" onmousedown="handlePan(0,-1)">
                  <use xlink:href="#rim" fill="#404040">
                        <set attributeName="fill" to="#808080" begin="arrowUp.mouseover" end="arrowUp.mouseout"/>
                  </use>
                  <path fill="none" stroke="white" stroke-width="1.5" d="M0,-3.0v7 M-2.5,-0.5L0,-3.0L2.5,-0.5"/>
                </g>
                <g id="arrowRight" xlink:href="#dirArrow" transform="rotate(90) translate(36 -43)" onmousedown="handlePan(1,0)">
                  <use xlink:href="#rim" fill="#404040">
                        <set attributeName="fill" to="#808080" begin="arrowRight.mouseover" end="arrowRight.mouseout"/>
                  </use>
                  <path fill="none" stroke="white" stroke-width="1.5" d="M0,-3.0v7 M-2.5,-0.5L0,-3.0L2.5,-0.5"/>
                </g>
                <g id="arrowDown" xlink:href="#dirArrow" transform="rotate(180) translate(-30 -48)" onmousedown="handlePan(0,1)">
                  <use xlink:href="#rim" fill="#404040">
                        <set attributeName="fill" to="#808080" begin="arrowDown.mouseover" end="arrowDown.mouseout"/>
                  </use>
                  <path fill="none" stroke="white" stroke-width="1.5" d="M0,-3.0v7 M-2.5,-0.5L0,-3.0L2.5,-0.5"/>
                </g>
                <g id="arrowLeft" xlink:href="#dirArrow" transform="rotate(270) translate(-36 17)" onmousedown="handlePan(-1,0)">
                  <use xlink:href="#rim" fill="#404040">
                        <set attributeName="fill" to="#808080" begin="arrowLeft.mouseover" end="arrowLeft.mouseout"/>
                  </use>
                  <path fill="none" stroke="white" stroke-width="1.5" d="M0,-3.0v7 M-2.5,-0.5L0,-3.0L2.5,-0.5"/>
                </g>
        </g>
        <svg viewBox="0 0 15 15" width="100%" height="30px" preserveAspectRatio="xMaxYMin meet">
         <g id="arrow_out" transform="scale(0.3 0.3)">
          <a xlink:href="classvpr_1_1_allocation_ab07876bad87d1c3e085ab02c1c608179_icgraph_org.svg" target="_base">
           <rect id="button" ry="5" rx="5" y="6" x="6" height="38" width="38"
                fill="#f2f5e9" fill-opacity="0.5" stroke="#606060" stroke-width="1.0"/>
           <path id="arrow"
             d="M 11.500037,31.436501 C 11.940474,20.09759 22.043105,11.32322 32.158766,21.979434 L 37.068811,17.246167 C 37.068811,17.246167 37.088388,32 37.088388,32 L 22.160133,31.978069 C 22.160133,31.978069 26.997745,27.140456 26.997745,27.140456 C 18.528582,18.264221 13.291696,25.230495 11.500037,31.436501 z"
             style="fill:#404040;"/>
          </a>
         </g>
        </svg>
</svg>
