<?xml version="1.0" encoding="UTF-8" standalone="no"?>
<!DOCTYPE svg PUBLIC "-//W3C//DTD SVG 1.1//EN"
 "http://www.w3.org/Graphics/SVG/1.1/DTD/svg11.dtd">
<!-- Generated by graphviz version 2.38.0 (20140413.2041)
 -->
<!-- Title: vpr::Allocator::AllocateForBuffer Pages: 1 -->
<!--zoomable 380 -->
<svg id="main" version="1.1" xmlns="http://www.w3.org/2000/svg" xmlns:xlink="http://www.w3.org/1999/xlink" xml:space="preserve" onload="init(evt)">
<style type="text/css"><![CDATA[
.edge:hover path { stroke: red; }
.edge:hover polygon { stroke: red; fill: red; }
]]></style>
<script type="text/javascript"><![CDATA[
var edges = document.getElementsByTagName('g');
if (edges && edges.length) {
  for (var i=0;i<edges.length;i++) {
    if (edges[i].id.substr(0,4)=='edge') {
      edges[i].setAttribute('class','edge');
    }
  }
}
]]></script>
        <defs>
                <circle id="rim" cx="0" cy="0" r="7"/>
                <circle id="rim2" cx="0" cy="0" r="3.5"/>
                <g id="zoomPlus">
                        <use xlink:href="#rim" fill="#404040">
                                <set attributeName="fill" to="#808080" begin="zoomplus.mouseover" end="zoomplus.mouseout"/>
                        </use>
                        <path d="M-4,0h8M0,-4v8" fill="none" stroke="white" stroke-width="1.5" pointer-events="none"/>
                </g>
                <g id="zoomMin">
                        <use xlink:href="#rim" fill="#404040">
                                <set attributeName="fill" to="#808080" begin="zoomminus.mouseover" end="zoomminus.mouseout"/>
                        </use>
                        <path d="M-4,0h8" fill="none" stroke="white" stroke-width="1.5" pointer-events="none"/>
                </g>
                <g id="dirArrow">
                        <path fill="none" stroke="white" stroke-width="1.5" d="M0,-3.0v7 M-2.5,-0.5L0,-3.0L2.5,-0.5"/>
                </g>
               <g id="resetDef">
                       <use xlink:href="#rim2" fill="#404040">
                               <set attributeName="fill" to="#808080" begin="reset.mouseover" end="reset.mouseout"/>
                       </use>
               </g>
        </defs>

<script type="text/javascript">
var viewWidth = 756;
var viewHeight = 380;
var sectionId = 'dynsection-3';
</script>
<script xlink:href="svgpan.js"/>
<svg id="graph" class="graph">
<g id="viewport">
<title>vpr::Allocator::AllocateForBuffer</title>
<polygon fill="white" stroke="none" points="-4,4 -4,-376.079 752,-376.079 752,4 -4,4"/>
<!-- Node17 -->
<g id="node1" class="node"><title>Node17</title>
<polygon fill="#bfbfbf" stroke="black" points="0,-97.5791 0,-127.579 114,-127.579 114,-97.5791 0,-97.5791"/>
<text text-anchor="start" x="8" y="-115.579" font-family="Helvetica,sans-Serif" font-size="10.00">vpr::Allocator::Allocate</text>
<text text-anchor="middle" x="57" y="-104.579" font-family="Helvetica,sans-Serif" font-size="10.00">ForBuffer</text>
</g>
<!-- Node18 -->
<g id="node2" class="node"><title>Node18</title>
<g id="a_node2"><a xlink:href="classvpr_1_1_allocator.html#a1d36e3567e4fd7ef8bf1395942f6c714" target="_top" xlink:title="vpr::Allocator::Allocate\lMemory">
<polygon fill="white" stroke="black" points="151.5,-141.579 151.5,-171.579 265.5,-171.579 265.5,-141.579 151.5,-141.579"/>
<text text-anchor="start" x="159.5" y="-159.579" font-family="Helvetica,sans-Serif" font-size="10.00">vpr::Allocator::Allocate</text>
<text text-anchor="middle" x="208.5" y="-148.579" font-family="Helvetica,sans-Serif" font-size="10.00">Memory</text>
</a>
</g>
</g>
<!-- Node17&#45;&gt;Node18 -->
<g id="edge1" class="edge"><title>Node17&#45;&gt;Node18</title>
<path fill="none" stroke="midnightblue" d="M109.031,-127.598C121.112,-131.154 134.115,-134.981 146.586,-138.651"/>
<polygon fill="midnightblue" stroke="midnightblue" points="145.864,-142.087 156.445,-141.553 147.84,-135.372 145.864,-142.087"/>
</g>
<!-- Node30 -->
<g id="node13" class="node"><title>Node30</title>
<g id="a_node13"><a xlink:href="classvpr_1_1_allocator.html#a9e7a1ff1daa157cd1f74d1437a8384de" target="_top" xlink:title="vpr::Allocator::getBuffer\lMemReqs">
<polygon fill="white" stroke="black" points="150,-54.5791 150,-84.5791 267,-84.5791 267,-54.5791 150,-54.5791"/>
<text text-anchor="start" x="158" y="-72.5791" font-family="Helvetica,sans-Serif" font-size="10.00">vpr::Allocator::getBuffer</text>
<text text-anchor="middle" x="208.5" y="-61.5791" font-family="Helvetica,sans-Serif" font-size="10.00">MemReqs</text>
</a>
</g>
</g>
<!-- Node17&#45;&gt;Node30 -->
<g id="edge13" class="edge"><title>Node17&#45;&gt;Node30</title>
<path fill="none" stroke="midnightblue" d="M110.288,-97.5397C121.668,-94.2664 133.814,-90.7729 145.529,-87.4034"/>
<polygon fill="midnightblue" stroke="midnightblue" points="146.599,-90.7378 155.242,-84.6099 144.664,-84.0105 146.599,-90.7378"/>
</g>
<!-- Node19 -->
<g id="node3" class="node"><title>Node19</title>
<g id="a_node3"><a xlink:href="classvpr_1_1_allocator.html#a12b2ce29d3b6b28131cc9c5a331d2286" target="_top" xlink:title="vpr::Allocator::findMemory\lTypeIdx">
<polygon fill="white" stroke="black" points="303,-297.579 303,-327.579 432,-327.579 432,-297.579 303,-297.579"/>
<text text-anchor="start" x="311" y="-315.579" font-family="Helvetica,sans-Serif" font-size="10.00">vpr::Allocator::findMemory</text>
<text text-anchor="middle" x="367.5" y="-304.579" font-family="Helvetica,sans-Serif" font-size="10.00">TypeIdx</text>
</a>
</g>
</g>
<!-- Node18&#45;&gt;Node19 -->
<g id="edge2" class="edge"><title>Node18&#45;&gt;Node19</title>
<path fill="none" stroke="midnightblue" d="M224.84,-171.821C252.698,-199.502 311.712,-258.14 344.086,-290.308"/>
<polygon fill="midnightblue" stroke="midnightblue" points="341.769,-292.939 351.329,-297.505 346.703,-287.974 341.769,-292.939"/>
</g>
<!-- Node22 -->
<g id="node6" class="node"><title>Node22</title>
<g id="a_node6"><a xlink:href="classvpr_1_1_allocator.html#a40618202c2c86027ee1915cadbc18afd" target="_top" xlink:title="vpr::Allocator::allocate\lMemoryType">
<polygon fill="white" stroke="black" points="311,-141.579 311,-171.579 424,-171.579 424,-141.579 311,-141.579"/>
<text text-anchor="start" x="319" y="-159.579" font-family="Helvetica,sans-Serif" font-size="10.00">vpr::Allocator::allocate</text>
<text text-anchor="middle" x="367.5" y="-148.579" font-family="Helvetica,sans-Serif" font-size="10.00">MemoryType</text>
</a>
</g>
</g>
<!-- Node18&#45;&gt;Node22 -->
<g id="edge5" class="edge"><title>Node18&#45;&gt;Node22</title>
<path fill="none" stroke="midnightblue" d="M265.737,-156.579C277.102,-156.579 289.145,-156.579 300.802,-156.579"/>
<polygon fill="midnightblue" stroke="midnightblue" points="300.919,-160.079 310.919,-156.579 300.919,-153.079 300.919,-160.079"/>
</g>
<!-- Node20 -->
<g id="node4" class="node"><title>Node20</title>
<g id="a_node4"><a xlink:href="classvpr_1_1_allocator.html#a4277250f2867fd5b729bc78e7dc5eb6f" target="_top" xlink:title="vpr::Allocator::GetMemory\lTypeCount">
<polygon fill="white" stroke="black" points="471,-341.579 471,-371.579 601,-371.579 601,-341.579 471,-341.579"/>
<text text-anchor="start" x="479" y="-359.579" font-family="Helvetica,sans-Serif" font-size="10.00">vpr::Allocator::GetMemory</text>
<text text-anchor="middle" x="536" y="-348.579" font-family="Helvetica,sans-Serif" font-size="10.00">TypeCount</text>
</a>
</g>
</g>
<!-- Node19&#45;&gt;Node20 -->
<g id="edge3" class="edge"><title>Node19&#45;&gt;Node20</title>
<path fill="none" stroke="midnightblue" d="M425.334,-327.598C439.188,-331.259 454.132,-335.208 468.395,-338.978"/>
<polygon fill="midnightblue" stroke="midnightblue" points="467.577,-342.382 478.139,-341.553 469.366,-335.614 467.577,-342.382"/>
</g>
<!-- Node21 -->
<g id="node5" class="node"><title>Node21</title>
<g id="a_node5"><a xlink:href="namespacevpr.html#a4670febea81bc9a6a25fb8b1cf1afaaa" target="_top" xlink:title="vpr::countBitsSet">
<polygon fill="white" stroke="black" points="490.5,-303.079 490.5,-322.079 581.5,-322.079 581.5,-303.079 490.5,-303.079"/>
<text text-anchor="middle" x="536" y="-310.079" font-family="Helvetica,sans-Serif" font-size="10.00">vpr::countBitsSet</text>
</a>
</g>
</g>
<!-- Node19&#45;&gt;Node21 -->
<g id="edge4" class="edge"><title>Node19&#45;&gt;Node21</title>
<path fill="none" stroke="midnightblue" d="M432.397,-312.579C448.119,-312.579 464.816,-312.579 480.072,-312.579"/>
<polygon fill="midnightblue" stroke="midnightblue" points="480.374,-316.079 490.374,-312.579 480.374,-309.079 480.374,-316.079"/>
</g>
<!-- Node23 -->
<g id="node7" class="node"><title>Node23</title>
<g id="a_node7"><a xlink:href="classvpr_1_1_allocator.html#aee9903438ded8311fd11f757f80002d6" target="_top" xlink:title="vpr::Allocator::GetPreferred\lBlockSize">
<polygon fill="white" stroke="black" points="469,-253.579 469,-283.579 603,-283.579 603,-253.579 469,-253.579"/>
<text text-anchor="start" x="477" y="-271.579" font-family="Helvetica,sans-Serif" font-size="10.00">vpr::Allocator::GetPreferred</text>
<text text-anchor="middle" x="536" y="-260.579" font-family="Helvetica,sans-Serif" font-size="10.00">BlockSize</text>
</a>
</g>
</g>
<!-- Node22&#45;&gt;Node23 -->
<g id="edge6" class="edge"><title>Node22&#45;&gt;Node23</title>
<path fill="none" stroke="midnightblue" d="M381.955,-171.594C399.907,-190.84 433.461,-224.154 468,-244.579 470.818,-246.246 473.771,-247.825 476.8,-249.316"/>
<polygon fill="midnightblue" stroke="midnightblue" points="475.507,-252.573 486.059,-253.527 478.406,-246.201 475.507,-252.573"/>
</g>
<!-- Node24 -->
<g id="node8" class="node"><title>Node24</title>
<g id="a_node8"><a xlink:href="classvpr_1_1_allocator.html#ad4d7daf9b55d81a4fab0cb4a657d6508" target="_top" xlink:title="vpr::Allocator::allocate\lPrivateMemory">
<polygon fill="white" stroke="red" points="479.5,-204.579 479.5,-234.579 592.5,-234.579 592.5,-204.579 479.5,-204.579"/>
<text text-anchor="start" x="487.5" y="-222.579" font-family="Helvetica,sans-Serif" font-size="10.00">vpr::Allocator::allocate</text>
<text text-anchor="middle" x="536" y="-211.579" font-family="Helvetica,sans-Serif" font-size="10.00">PrivateMemory</text>
</a>
</g>
</g>
<!-- Node22&#45;&gt;Node24 -->
<g id="edge7" class="edge"><title>Node22&#45;&gt;Node24</title>
<path fill="none" stroke="midnightblue" d="M408.381,-171.669C431.567,-180.442 460.981,-191.572 485.622,-200.895"/>
<polygon fill="midnightblue" stroke="midnightblue" points="484.565,-204.238 495.156,-204.503 487.042,-197.691 484.565,-204.238"/>
</g>
<!-- Node25 -->
<g id="node9" class="node"><title>Node25</title>
<g id="a_node9"><a xlink:href="classvpr_1_1_device.html#a59882855173bef0b13a17b376ea01d45" target="_top" xlink:title="vpr::Device::vkHandle">
<polygon fill="white" stroke="black" points="640,-166.079 640,-185.079 748,-185.079 748,-166.079 640,-166.079"/>
<text text-anchor="middle" x="694" y="-173.079" font-family="Helvetica,sans-Serif" font-size="10.00">vpr::Device::vkHandle</text>
</a>
</g>
</g>
<!-- Node22&#45;&gt;Node25 -->
<g id="edge12" class="edge"><title>Node22&#45;&gt;Node25</title>
<path fill="none" stroke="midnightblue" d="M424.284,-159.845C481.412,-163.19 570.069,-168.381 629.768,-171.877"/>
<polygon fill="midnightblue" stroke="midnightblue" points="629.639,-175.375 639.826,-172.466 630.048,-168.387 629.639,-175.375"/>
</g>
<!-- Node27 -->
<g id="node10" class="node"><title>Node27</title>
<g id="a_node10"><a xlink:href="classvpr_1_1_allocator.html#a32c2e59911a888c64b7d56005014865b" target="_top" xlink:title="vpr::Allocator::GetAllocSize">
<polygon fill="white" stroke="black" points="468,-128.079 468,-147.079 604,-147.079 604,-128.079 468,-128.079"/>
<text text-anchor="middle" x="536" y="-135.079" font-family="Helvetica,sans-Serif" font-size="10.00">vpr::Allocator::GetAllocSize</text>
</a>
</g>
</g>
<!-- Node22&#45;&gt;Node27 -->
<g id="edge9" class="edge"><title>Node22&#45;&gt;Node27</title>
<path fill="none" stroke="midnightblue" d="M424.405,-150.199C435.11,-148.978 446.494,-147.679 457.731,-146.397"/>
<polygon fill="midnightblue" stroke="midnightblue" points="458.448,-149.838 467.987,-145.226 457.654,-142.883 458.448,-149.838"/>
</g>
<!-- Node28 -->
<g id="node11" class="node"><title>Node28</title>
<g id="a_node11"><a xlink:href="classvpr_1_1_allocator.html#af89f4383e7e9eb534e1ddc76081c43fd" target="_top" xlink:title="vpr::Allocator::GetBuffer\lImageGranularity">
<polygon fill="white" stroke="black" points="476.5,-78.5791 476.5,-108.579 595.5,-108.579 595.5,-78.5791 476.5,-78.5791"/>
<text text-anchor="start" x="484.5" y="-96.5791" font-family="Helvetica,sans-Serif" font-size="10.00">vpr::Allocator::GetBuffer</text>
<text text-anchor="middle" x="536" y="-85.5791" font-family="Helvetica,sans-Serif" font-size="10.00">ImageGranularity</text>
</a>
</g>
</g>
<!-- Node22&#45;&gt;Node28 -->
<g id="edge10" class="edge"><title>Node22&#45;&gt;Node28</title>
<path fill="none" stroke="midnightblue" d="M407.698,-141.53C426.006,-134.521 448.106,-126.09 468,-118.579 473.506,-116.5 479.271,-114.334 485.009,-112.184"/>
<polygon fill="midnightblue" stroke="midnightblue" points="486.452,-115.382 494.591,-108.6 483.999,-108.825 486.452,-115.382"/>
</g>
<!-- Node29 -->
<g id="node12" class="node"><title>Node29</title>
<g id="a_node12"><a xlink:href="classvpr_1_1_allocation.html#ad5d461398f23e593c58f70a8cac78922" target="_top" xlink:title="vpr::Allocation::Init">
<polygon fill="white" stroke="black" points="488,-40.0791 488,-59.0791 584,-59.0791 584,-40.0791 488,-40.0791"/>
<text text-anchor="middle" x="536" y="-47.0791" font-family="Helvetica,sans-Serif" font-size="10.00">vpr::Allocation::Init</text>
</a>
</g>
</g>
<!-- Node22&#45;&gt;Node29 -->
<g id="edge11" class="edge"><title>Node22&#45;&gt;Node29</title>
<path fill="none" stroke="midnightblue" d="M381.445,-141.538C399.095,-121.95 432.588,-87.9355 468,-68.5791 472.157,-66.3066 476.612,-64.2846 481.175,-62.4897"/>
<polygon fill="midnightblue" stroke="midnightblue" points="482.391,-65.7721 490.635,-59.1168 480.04,-59.1787 482.391,-65.7721"/>
</g>
<!-- Node24&#45;&gt;Node25 -->
<g id="edge8" class="edge"><title>Node24&#45;&gt;Node25</title>
<path fill="none" stroke="midnightblue" d="M590.25,-204.56C609.464,-199.14 630.914,-193.09 649.225,-187.926"/>
<polygon fill="midnightblue" stroke="midnightblue" points="650.366,-191.241 659.041,-185.157 648.466,-184.503 650.366,-191.241"/>
</g>
<!-- Node30&#45;&gt;Node25 -->
<g id="edge14" class="edge"><title>Node30&#45;&gt;Node25</title>
<path fill="none" stroke="midnightblue" d="M241.955,-54.5787C312.827,-24.2116 484.63,36.2148 604,-30.5791 652.401,-57.6622 677.682,-123.026 687.719,-155.943"/>
<polygon fill="midnightblue" stroke="midnightblue" points="684.416,-157.121 690.549,-165.76 691.142,-155.181 684.416,-157.121"/>
</g>
</g>
</svg>
        <g id="navigator" transform="translate(0 0)" fill="#404254">
                <rect fill="#f2f5e9" fill-opacity="0.5" stroke="#606060" stroke-width=".5" x="0" y="0" width="60" height="60"/>
                <use id="zoomplus" xlink:href="#zoomPlus" x="17" y="9" onmousedown="handleZoom(evt,'in')"/>
                <use id="zoomminus" xlink:href="#zoomMin" x="42" y="9" onmousedown="handleZoom(evt,'out')"/>
                <use id="reset" xlink:href="#resetDef" x="30" y="36" onmousedown="handleReset()"/>
                <g id="arrowUp" xlink:href="#dirArrow" transform="translate(30 24)" onmousedown="handlePan(0,-1)">
                  <use xlink:href="#rim" fill="#404040">
                        <set attributeName="fill" to="#808080" begin="arrowUp.mouseover" end="arrowUp.mouseout"/>
                  </use>
                  <path fill="none" stroke="white" stroke-width="1.5" d="M0,-3.0v7 M-2.5,-0.5L0,-3.0L2.5,-0.5"/>
                </g>
                <g id="arrowRight" xlink:href="#dirArrow" transform="rotate(90) translate(36 -43)" onmousedown="handlePan(1,0)">
                  <use xlink:href="#rim" fill="#404040">
                        <set attributeName="fill" to="#808080" begin="arrowRight.mouseover" end="arrowRight.mouseout"/>
                  </use>
                  <path fill="none" stroke="white" stroke-width="1.5" d="M0,-3.0v7 M-2.5,-0.5L0,-3.0L2.5,-0.5"/>
                </g>
                <g id="arrowDown" xlink:href="#dirArrow" transform="rotate(180) translate(-30 -48)" onmousedown="handlePan(0,1)">
                  <use xlink:href="#rim" fill="#404040">
                        <set attributeName="fill" to="#808080" begin="arrowDown.mouseover" end="arrowDown.mouseout"/>
                  </use>
                  <path fill="none" stroke="white" stroke-width="1.5" d="M0,-3.0v7 M-2.5,-0.5L0,-3.0L2.5,-0.5"/>
                </g>
                <g id="arrowLeft" xlink:href="#dirArrow" transform="rotate(270) translate(-36 17)" onmousedown="handlePan(-1,0)">
                  <use xlink:href="#rim" fill="#404040">
                        <set attributeName="fill" to="#808080" begin="arrowLeft.mouseover" end="arrowLeft.mouseout"/>
                  </use>
                  <path fill="none" stroke="white" stroke-width="1.5" d="M0,-3.0v7 M-2.5,-0.5L0,-3.0L2.5,-0.5"/>
                </g>
        </g>
        <svg viewBox="0 0 15 15" width="100%" height="30px" preserveAspectRatio="xMaxYMin meet">
         <g id="arrow_out" transform="scale(0.3 0.3)">
          <a xlink:href="classvpr_1_1_allocator_aa8aad8539721142d8dfa92a3196ab90b_cgraph_org.svg" target="_base">
           <rect id="button" ry="5" rx="5" y="6" x="6" height="38" width="38"
                fill="#f2f5e9" fill-opacity="0.5" stroke="#606060" stroke-width="1.0"/>
           <path id="arrow"
             d="M 11.500037,31.436501 C 11.940474,20.09759 22.043105,11.32322 32.158766,21.979434 L 37.068811,17.246167 C 37.068811,17.246167 37.088388,32 37.088388,32 L 22.160133,31.978069 C 22.160133,31.978069 26.997745,27.140456 26.997745,27.140456 C 18.528582,18.264221 13.291696,25.230495 11.500037,31.436501 z"
             style="fill:#404040;"/>
          </a>
         </g>
        </svg>
</svg>
