<?xml version="1.0" encoding="UTF-8" standalone="no"?>
<!DOCTYPE svg PUBLIC "-//W3C//DTD SVG 1.1//EN"
 "http://www.w3.org/Graphics/SVG/1.1/DTD/svg11.dtd">
<!-- Generated by graphviz version 2.38.0 (20140413.2041)
 -->
<!-- Title: vpr::Instance::prepareValidationCallbacks Pages: 1 -->
<svg width="468pt" height="39pt"
 viewBox="0.00 0.00 468.00 39.00" xmlns="http://www.w3.org/2000/svg" xmlns:xlink="http://www.w3.org/1999/xlink">
<g id="graph0" class="graph" transform="scale(1 1) rotate(0) translate(4 35)">
<title>vpr::Instance::prepareValidationCallbacks</title>
<polygon fill="white" stroke="none" points="-4,4 -4,-35 464,-35 464,4 -4,4"/>
<!-- Node90 -->
<g id="node1" class="node"><title>Node90</title>
<polygon fill="#bfbfbf" stroke="black" points="0,-0.5 0,-30.5 152,-30.5 152,-0.5 0,-0.5"/>
<text text-anchor="start" x="8" y="-18.5" font-family="Helvetica,sans-Serif" font-size="10.00">vpr::Instance::prepareValidation</text>
<text text-anchor="middle" x="76" y="-7.5" font-family="Helvetica,sans-Serif" font-size="10.00">Callbacks</text>
</g>
<!-- Node91 -->
<g id="node2" class="node"><title>Node91</title>
<g id="a_node2"><a xlink:href="namespacevpr.html#ae727cdb4a6ce21df09e8c12b5b5a8844" target="_top" xlink:title="vpr::VkDebugCallbackFn">
<polygon fill="white" stroke="black" points="188,-6 188,-25 311,-25 311,-6 188,-6"/>
<text text-anchor="middle" x="249.5" y="-13" font-family="Helvetica,sans-Serif" font-size="10.00">vpr::VkDebugCallbackFn</text>
</a>
</g>
</g>
<!-- Node90&#45;&gt;Node91 -->
<g id="edge1" class="edge"><title>Node90&#45;&gt;Node91</title>
<path fill="none" stroke="midnightblue" d="M152.222,-15.5C160.668,-15.5 169.253,-15.5 177.641,-15.5"/>
<polygon fill="midnightblue" stroke="midnightblue" points="177.753,-19.0001 187.753,-15.5 177.753,-12.0001 177.753,-19.0001"/>
</g>
<!-- Node92 -->
<g id="node3" class="node"><title>Node92</title>
<g id="a_node3"><a xlink:href="namespacevpr.html#a96427d3519084ed32543b56a621d1df7" target="_top" xlink:title="vpr::GetObjectTypeStr">
<polygon fill="white" stroke="black" points="347,-6 347,-25 460,-25 460,-6 347,-6"/>
<text text-anchor="middle" x="403.5" y="-13" font-family="Helvetica,sans-Serif" font-size="10.00">vpr::GetObjectTypeStr</text>
</a>
</g>
</g>
<!-- Node91&#45;&gt;Node92 -->
<g id="edge2" class="edge"><title>Node91&#45;&gt;Node92</title>
<path fill="none" stroke="midnightblue" d="M311.011,-15.5C319.369,-15.5 327.988,-15.5 336.44,-15.5"/>
<polygon fill="midnightblue" stroke="midnightblue" points="336.638,-19.0001 346.638,-15.5 336.638,-12.0001 336.638,-19.0001"/>
</g>
</g>
</svg>
