<?xml version="1.0" encoding="UTF-8" standalone="no"?>
<!DOCTYPE svg PUBLIC "-//W3C//DTD SVG 1.1//EN"
 "http://www.w3.org/Graphics/SVG/1.1/DTD/svg11.dtd">
<!-- Generated by graphviz version 2.38.0 (20140413.2041)
 -->
<!-- Title: vpr::CommandPool::FreeCommandBuffers Pages: 1 -->
<svg width="489pt" height="39pt"
 viewBox="0.00 0.00 489.00 39.00" xmlns="http://www.w3.org/2000/svg" xmlns:xlink="http://www.w3.org/1999/xlink">
<g id="graph0" class="graph" transform="scale(1 1) rotate(0) translate(4 35)">
<title>vpr::CommandPool::FreeCommandBuffers</title>
<polygon fill="white" stroke="none" points="-4,4 -4,-35 485,-35 485,4 -4,4"/>
<!-- Node52 -->
<g id="node1" class="node"><title>Node52</title>
<polygon fill="#bfbfbf" stroke="black" points="0,-0.5 0,-30.5 168,-30.5 168,-0.5 0,-0.5"/>
<text text-anchor="start" x="8" y="-18.5" font-family="Helvetica,sans-Serif" font-size="10.00">vpr::CommandPool::FreeCommand</text>
<text text-anchor="middle" x="84" y="-7.5" font-family="Helvetica,sans-Serif" font-size="10.00">Buffers</text>
</g>
<!-- Node53 -->
<g id="node2" class="node"><title>Node53</title>
<g id="a_node2"><a xlink:href="classvpr_1_1_command_pool.html#ad40b0becc578d8291780202126f119ee" target="_top" xlink:title="vpr::CommandPool::destroy">
<polygon fill="white" stroke="black" points="204,-6 204,-25 341,-25 341,-6 204,-6"/>
<text text-anchor="middle" x="272.5" y="-13" font-family="Helvetica,sans-Serif" font-size="10.00">vpr::CommandPool::destroy</text>
</a>
</g>
</g>
<!-- Node52&#45;&gt;Node53 -->
<g id="edge1" class="edge"><title>Node52&#45;&gt;Node53</title>
<path fill="none" stroke="midnightblue" d="M178.276,-15.5C186.908,-15.5 195.54,-15.5 203.876,-15.5"/>
<polygon fill="midnightblue" stroke="midnightblue" points="178.159,-12.0001 168.159,-15.5 178.159,-19.0001 178.159,-12.0001"/>
</g>
<!-- Node54 -->
<g id="node3" class="node"><title>Node54</title>
<g id="a_node3"><a xlink:href="classvpr_1_1_command_pool.html#a726585b12ac4f21b74de94c757136c4c" target="_top" xlink:title="vpr::CommandPool::\l~CommandPool">
<polygon fill="white" stroke="black" points="377,-0.5 377,-30.5 481,-30.5 481,-0.5 377,-0.5"/>
<text text-anchor="start" x="385" y="-18.5" font-family="Helvetica,sans-Serif" font-size="10.00">vpr::CommandPool::</text>
<text text-anchor="middle" x="429" y="-7.5" font-family="Helvetica,sans-Serif" font-size="10.00">~CommandPool</text>
</a>
</g>
</g>
<!-- Node53&#45;&gt;Node54 -->
<g id="edge2" class="edge"><title>Node53&#45;&gt;Node54</title>
<path fill="none" stroke="midnightblue" d="M351.3,-15.5C359.866,-15.5 368.422,-15.5 376.549,-15.5"/>
<polygon fill="midnightblue" stroke="midnightblue" points="351.266,-12.0001 341.266,-15.5 351.266,-19.0001 351.266,-12.0001"/>
</g>
</g>
</svg>
