<?xml version="1.0" encoding="UTF-8" standalone="no"?>
<!DOCTYPE svg PUBLIC "-//W3C//DTD SVG 1.1//EN"
 "http://www.w3.org/Graphics/SVG/1.1/DTD/svg11.dtd">
<!-- Generated by graphviz version 2.38.0 (20140413.2041)
 -->
<!-- Title: vpr::Instance Pages: 1 -->
<svg width="262pt" height="308pt"
 viewBox="0.00 0.00 261.50 308.00" xmlns="http://www.w3.org/2000/svg" xmlns:xlink="http://www.w3.org/1999/xlink">
<g id="graph0" class="graph" transform="scale(1 1) rotate(0) translate(4 304)">
<title>vpr::Instance</title>
<polygon fill="white" stroke="none" points="-4,4 -4,-304 257.5,-304 257.5,4 -4,4"/>
<!-- Node1 -->
<g id="node1" class="node"><title>Node1</title>
<polygon fill="#bfbfbf" stroke="black" points="68,-0.5 68,-19.5 139,-19.5 139,-0.5 68,-0.5"/>
<text text-anchor="middle" x="103.5" y="-7.5" font-family="Helvetica,sans-Serif" font-size="10.00">vpr::Instance</text>
</g>
<!-- Node2 -->
<g id="node2" class="node"><title>Node2</title>
<g id="a_node2"><a xlink:href="structvpr_1_1_instance_extension_handler.html" target="_top" xlink:title="vpr::InstanceExtensionHandler">
<polygon fill="white" stroke="black" points="29.5,-67.5 29.5,-86.5 177.5,-86.5 177.5,-67.5 29.5,-67.5"/>
<text text-anchor="middle" x="103.5" y="-74.5" font-family="Helvetica,sans-Serif" font-size="10.00">vpr::InstanceExtensionHandler</text>
</a>
</g>
</g>
<!-- Node2&#45;&gt;Node1 -->
<g id="edge1" class="edge"><title>Node2&#45;&gt;Node1</title>
<path fill="none" stroke="#9a32cd" stroke-dasharray="5,2" d="M103.5,-57.037C103.5,-44.6703 103.5,-29.1198 103.5,-19.6273"/>
<polygon fill="#9a32cd" stroke="#9a32cd" points="100,-57.2338 103.5,-67.2338 107,-57.2338 100,-57.2338"/>
<text text-anchor="middle" x="143" y="-41" font-family="Helvetica,sans-Serif" font-size="10.00"> extensionHandler</text>
</g>
<!-- Node3 -->
<g id="node3" class="node"><title>Node3</title>
<polygon fill="white" stroke="#bfbfbf" points="0,-134.5 0,-164.5 95,-164.5 95,-134.5 0,-134.5"/>
<text text-anchor="start" x="8" y="-152.5" font-family="Helvetica,sans-Serif" font-size="10.00">std::vector&lt; const</text>
<text text-anchor="middle" x="47.5" y="-141.5" font-family="Helvetica,sans-Serif" font-size="10.00"> char *&gt;</text>
</g>
<!-- Node3&#45;&gt;Node2 -->
<g id="edge2" class="edge"><title>Node3&#45;&gt;Node2</title>
<path fill="none" stroke="#9a32cd" stroke-dasharray="5,2" d="M52.7359,-124.343C54.9803,-117.623 58.1272,-110.631 62.5,-105 68.459,-97.3259 77.2412,-91.1323 85.1505,-86.6225"/>
<polygon fill="#9a32cd" stroke="#9a32cd" points="49.2338,-123.869 49.9055,-134.443 55.9741,-125.758 49.2338,-123.869"/>
<text text-anchor="middle" x="100.5" y="-108" font-family="Helvetica,sans-Serif" font-size="10.00"> extensionStrings</text>
</g>
<!-- Node4 -->
<g id="node4" class="node"><title>Node4</title>
<polygon fill="white" stroke="#bfbfbf" points="113,-140 113,-159 236,-159 236,-140 113,-140"/>
<text text-anchor="middle" x="174.5" y="-147" font-family="Helvetica,sans-Serif" font-size="10.00">std::vector&lt; std::string &gt;</text>
</g>
<!-- Node4&#45;&gt;Node2 -->
<g id="edge3" class="edge"><title>Node4&#45;&gt;Node2</title>
<path fill="none" stroke="#9a32cd" stroke-dasharray="5,2" d="M162.016,-131.684C155.431,-123.283 146.976,-113.19 138.5,-105 131.546,-98.2807 122.959,-91.635 116.031,-86.6182"/>
<polygon fill="#9a32cd" stroke="#9a32cd" points="159.27,-133.855 168.122,-139.676 164.832,-129.605 159.27,-133.855"/>
<text text-anchor="middle" x="200.5" y="-108" font-family="Helvetica,sans-Serif" font-size="10.00"> copiedExtensionStrings</text>
</g>
<!-- Node5 -->
<g id="node5" class="node"><title>Node5</title>
<g id="a_node5"><a xlink:title="STL class. ">
<polygon fill="white" stroke="#bfbfbf" points="144.5,-212.5 144.5,-231.5 204.5,-231.5 204.5,-212.5 144.5,-212.5"/>
<text text-anchor="middle" x="174.5" y="-219.5" font-family="Helvetica,sans-Serif" font-size="10.00">std::string</text>
</a>
</g>
</g>
<!-- Node5&#45;&gt;Node4 -->
<g id="edge4" class="edge"><title>Node5&#45;&gt;Node4</title>
<path fill="none" stroke="#9a32cd" stroke-dasharray="5,2" d="M174.5,-201.942C174.5,-188.03 174.5,-169.82 174.5,-159.215"/>
<polygon fill="#9a32cd" stroke="#9a32cd" points="171,-202.355 174.5,-212.355 178,-202.355 171,-202.355"/>
<text text-anchor="middle" x="196" y="-186" font-family="Helvetica,sans-Serif" font-size="10.00"> elements</text>
</g>
<!-- Node6 -->
<g id="node6" class="node"><title>Node6</title>
<g id="a_node6"><a xlink:title="STL class. ">
<polygon fill="white" stroke="#bfbfbf" points="127,-269.5 127,-299.5 222,-299.5 222,-269.5 127,-269.5"/>
<text text-anchor="start" x="135" y="-287.5" font-family="Helvetica,sans-Serif" font-size="10.00">std::basic_string&lt;</text>
<text text-anchor="middle" x="174.5" y="-276.5" font-family="Helvetica,sans-Serif" font-size="10.00"> char &gt;</text>
</a>
</g>
</g>
<!-- Node6&#45;&gt;Node5 -->
<g id="edge5" class="edge"><title>Node6&#45;&gt;Node5</title>
<path fill="none" stroke="midnightblue" d="M174.5,-259.352C174.5,-249.513 174.5,-238.775 174.5,-231.54"/>
<polygon fill="midnightblue" stroke="midnightblue" points="171,-259.468 174.5,-269.468 178,-259.468 171,-259.468"/>
</g>
</g>
</svg>
