<?xml version="1.0" encoding="UTF-8" standalone="no"?>
<!DOCTYPE svg PUBLIC "-//W3C//DTD SVG 1.1//EN"
 "http://www.w3.org/Graphics/SVG/1.1/DTD/svg11.dtd">
<!-- Generated by graphviz version 2.38.0 (20140413.2041)
 -->
<!-- Title: el::base::threading::ThreadSafe::lock Pages: 1 -->
<!--zoomable 667 -->
<svg id="main" version="1.1" xmlns="http://www.w3.org/2000/svg" xmlns:xlink="http://www.w3.org/1999/xlink" xml:space="preserve" onload="init(evt)">
<style type="text/css"><![CDATA[
.edge:hover path { stroke: red; }
.edge:hover polygon { stroke: red; fill: red; }
]]></style>
<script type="text/javascript"><![CDATA[
var edges = document.getElementsByTagName('g');
if (edges && edges.length) {
  for (var i=0;i<edges.length;i++) {
    if (edges[i].id.substr(0,4)=='edge') {
      edges[i].setAttribute('class','edge');
    }
  }
}
]]></script>
        <defs>
                <circle id="rim" cx="0" cy="0" r="7"/>
                <circle id="rim2" cx="0" cy="0" r="3.5"/>
                <g id="zoomPlus">
                        <use xlink:href="#rim" fill="#404040">
                                <set attributeName="fill" to="#808080" begin="zoomplus.mouseover" end="zoomplus.mouseout"/>
                        </use>
                        <path d="M-4,0h8M0,-4v8" fill="none" stroke="white" stroke-width="1.5" pointer-events="none"/>
                </g>
                <g id="zoomMin">
                        <use xlink:href="#rim" fill="#404040">
                                <set attributeName="fill" to="#808080" begin="zoomminus.mouseover" end="zoomminus.mouseout"/>
                        </use>
                        <path d="M-4,0h8" fill="none" stroke="white" stroke-width="1.5" pointer-events="none"/>
                </g>
                <g id="dirArrow">
                        <path fill="none" stroke="white" stroke-width="1.5" d="M0,-3.0v7 M-2.5,-0.5L0,-3.0L2.5,-0.5"/>
                </g>
               <g id="resetDef">
                       <use xlink:href="#rim2" fill="#404040">
                               <set attributeName="fill" to="#808080" begin="reset.mouseover" end="reset.mouseout"/>
                       </use>
               </g>
        </defs>

<script type="text/javascript">
var viewWidth = 798;
var viewHeight = 667;
var sectionId = 'dynsection-5';
</script>
<script xlink:href="svgpan.js"/>
<svg id="graph" class="graph">
<g id="viewport">
<title>el::base::threading::ThreadSafe::lock</title>
<polygon fill="white" stroke="none" points="-4,4 -4,-663 794,-663 794,4 -4,4"/>
<!-- Node14 -->
<g id="node1" class="node"><title>Node14</title>
<polygon fill="#bfbfbf" stroke="black" points="0,-316.5 0,-346.5 97,-346.5 97,-316.5 0,-316.5"/>
<text text-anchor="start" x="8" y="-334.5" font-family="Helvetica,sans-Serif" font-size="10.00">el::base::threading</text>
<text text-anchor="middle" x="48.5" y="-323.5" font-family="Helvetica,sans-Serif" font-size="10.00">::ThreadSafe::lock</text>
</g>
<!-- Node15 -->
<g id="node2" class="node"><title>Node15</title>
<g id="a_node2"><a xlink:href="classel_1_1base_1_1_v_registry.html#a13b725e3da8935fce5cf3c16fd3a2ff9" target="_top" xlink:title="el::base::VRegistry\l::allowed">
<polygon fill="white" stroke="black" points="162,-584.5 162,-614.5 262,-614.5 262,-584.5 162,-584.5"/>
<text text-anchor="start" x="170" y="-602.5" font-family="Helvetica,sans-Serif" font-size="10.00">el::base::VRegistry</text>
<text text-anchor="middle" x="212" y="-591.5" font-family="Helvetica,sans-Serif" font-size="10.00">::allowed</text>
</a>
</g>
</g>
<!-- Node14&#45;&gt;Node15 -->
<g id="edge1" class="edge"><title>Node14&#45;&gt;Node15</title>
<path fill="none" stroke="midnightblue" d="M51.4896,-356.653C56.5745,-404.414 74.146,-508.868 133,-569.5 140.882,-577.62 151.202,-583.577 161.743,-587.936"/>
<polygon fill="midnightblue" stroke="midnightblue" points="54.9611,-356.188 50.515,-346.571 47.9936,-356.861 54.9611,-356.188"/>
</g>
<!-- Node16 -->
<g id="node3" class="node"><title>Node16</title>
<g id="a_node3"><a xlink:href="classel_1_1_logger.html#ad9db621dbf8977bf814dc7baea8dcee4" target="_top" xlink:title="Configures the logger using specified configurations. ">
<polygon fill="white" stroke="black" points="345.5,-464 345.5,-483 449.5,-483 449.5,-464 345.5,-464"/>
<text text-anchor="middle" x="397.5" y="-471" font-family="Helvetica,sans-Serif" font-size="10.00">el::Logger::configure</text>
</a>
</g>
</g>
<!-- Node14&#45;&gt;Node16 -->
<g id="edge2" class="edge"><title>Node14&#45;&gt;Node16</title>
<path fill="none" stroke="midnightblue" d="M59.3661,-355.889C71.9702,-383.55 96.6043,-427.527 133,-448.5 198.794,-486.413 289.442,-485.797 345.442,-480.596"/>
<polygon fill="midnightblue" stroke="midnightblue" points="62.4786,-354.27 55.2672,-346.508 56.0642,-357.073 62.4786,-354.27"/>
</g>
<!-- Node27 -->
<g id="node13" class="node"><title>Node27</title>
<g id="a_node13"><a xlink:href="classel_1_1_logger.html#a9a89d454008b1ee1a197eec4b92ce22a" target="_top" xlink:title="Flushes logger to sync all log files for all levels. ">
<polygon fill="white" stroke="black" points="169,-420 169,-439 255,-439 255,-420 169,-420"/>
<text text-anchor="middle" x="212" y="-427" font-family="Helvetica,sans-Serif" font-size="10.00">el::Logger::flush</text>
</a>
</g>
</g>
<!-- Node14&#45;&gt;Node27 -->
<g id="edge12" class="edge"><title>Node14&#45;&gt;Node27</title>
<path fill="none" stroke="midnightblue" d="M69.9429,-354.214C85.7378,-370.537 108.908,-391.966 133,-405.5 143.994,-411.676 156.771,-416.458 168.763,-420.07"/>
<polygon fill="midnightblue" stroke="midnightblue" points="72.2228,-351.531 62.8098,-346.668 67.1359,-356.34 72.2228,-351.531"/>
</g>
<!-- Node29 -->
<g id="node15" class="node"><title>Node29</title>
<g id="a_node15"><a xlink:href="classel_1_1base_1_1_registered_loggers.html#a1ca66763d892f3d2dc62926eb9dc56d3" target="_top" xlink:title="el::base::RegisteredLoggers::get">
<polygon fill="white" stroke="black" points="133,-344 133,-363 291,-363 291,-344 133,-344"/>
<text text-anchor="middle" x="212" y="-351" font-family="Helvetica,sans-Serif" font-size="10.00">el::base::RegisteredLoggers::get</text>
</a>
</g>
</g>
<!-- Node14&#45;&gt;Node29 -->
<g id="edge15" class="edge"><title>Node14&#45;&gt;Node29</title>
<path fill="none" stroke="midnightblue" d="M106.994,-339.332C118.01,-340.833 129.657,-342.419 141.015,-343.966"/>
<polygon fill="midnightblue" stroke="midnightblue" points="107.463,-335.864 97.0818,-337.982 106.518,-342.8 107.463,-335.864"/>
</g>
<!-- Node30 -->
<g id="node16" class="node"><title>Node30</title>
<g id="a_node16"><a xlink:href="classel_1_1_configurations.html#a5313557efac3b0c78f973a5a1d685277" target="_top" xlink:title="Determines whether or not specified configuration type exists for specified level. ">
<polygon fill="white" stroke="black" points="164.5,-294.5 164.5,-324.5 259.5,-324.5 259.5,-294.5 164.5,-294.5"/>
<text text-anchor="start" x="172.5" y="-312.5" font-family="Helvetica,sans-Serif" font-size="10.00">el::Configurations</text>
<text text-anchor="middle" x="212" y="-301.5" font-family="Helvetica,sans-Serif" font-size="10.00">::hasConfiguration</text>
</a>
</g>
</g>
<!-- Node14&#45;&gt;Node30 -->
<g id="edge16" class="edge"><title>Node14&#45;&gt;Node30</title>
<path fill="none" stroke="midnightblue" d="M107.008,-323.666C125.798,-321.107 146.422,-318.297 164.315,-315.86"/>
<polygon fill="midnightblue" stroke="midnightblue" points="106.518,-320.2 97.0818,-325.018 107.463,-327.136 106.518,-320.2"/>
</g>
<!-- Node31 -->
<g id="node17" class="node"><title>Node31</title>
<g id="a_node17"><a xlink:href="classel_1_1base_1_1_storage.html#ae953cb6e8acafa96c5c1ab2f4826a4a5" target="_top" xlink:title="el::base::Storage::\lhasCustomFormatSpecifier">
<polygon fill="white" stroke="black" points="145,-245.5 145,-275.5 279,-275.5 279,-245.5 145,-245.5"/>
<text text-anchor="start" x="153" y="-263.5" font-family="Helvetica,sans-Serif" font-size="10.00">el::base::Storage::</text>
<text text-anchor="middle" x="212" y="-252.5" font-family="Helvetica,sans-Serif" font-size="10.00">hasCustomFormatSpecifier</text>
</a>
</g>
</g>
<!-- Node14&#45;&gt;Node31 -->
<g id="edge17" class="edge"><title>Node14&#45;&gt;Node31</title>
<path fill="none" stroke="midnightblue" d="M82.9597,-311.126C97.9316,-302.522 116.007,-292.822 133,-285.5 141.358,-281.899 150.412,-278.535 159.292,-275.516"/>
<polygon fill="midnightblue" stroke="midnightblue" points="80.9486,-308.247 74.0761,-316.311 84.477,-314.293 80.9486,-308.247"/>
</g>
<!-- Node32 -->
<g id="node18" class="node"><title>Node32</title>
<g id="a_node18"><a xlink:href="classel_1_1base_1_1_storage.html#a355aac8191ab98869a52394cc868a315" target="_top" xlink:title="el::base::Storage::\linstallCustomFormatSpecifier">
<polygon fill="white" stroke="black" points="140,-196.5 140,-226.5 284,-226.5 284,-196.5 140,-196.5"/>
<text text-anchor="start" x="148" y="-214.5" font-family="Helvetica,sans-Serif" font-size="10.00">el::base::Storage::</text>
<text text-anchor="middle" x="212" y="-203.5" font-family="Helvetica,sans-Serif" font-size="10.00">installCustomFormatSpecifier</text>
</a>
</g>
</g>
<!-- Node14&#45;&gt;Node32 -->
<g id="edge18" class="edge"><title>Node14&#45;&gt;Node32</title>
<path fill="none" stroke="midnightblue" d="M64.7245,-307.827C79.6867,-286.342 104.392,-255.241 133,-236.5 138.829,-232.682 145.284,-229.409 151.912,-226.613"/>
<polygon fill="midnightblue" stroke="midnightblue" points="61.6395,-306.14 58.9257,-316.382 67.4338,-310.068 61.6395,-306.14"/>
</g>
<!-- Node33 -->
<g id="node19" class="node"><title>Node33</title>
<g id="a_node19"><a xlink:href="classel_1_1_configurations.html#a332717de96efc851a202b7afcc5e395c" target="_top" xlink:title="Sets value of configuration for specified level. ">
<polygon fill="white" stroke="black" points="507.5,-304 507.5,-323 618.5,-323 618.5,-304 507.5,-304"/>
<text text-anchor="middle" x="563" y="-311" font-family="Helvetica,sans-Serif" font-size="10.00">el::Configurations::set</text>
</a>
</g>
</g>
<!-- Node14&#45;&gt;Node33 -->
<g id="edge19" class="edge"><title>Node14&#45;&gt;Node33</title>
<path fill="none" stroke="midnightblue" d="M81.7357,-351.624C96.7245,-359.831 115.153,-368.355 133,-372.5 284.588,-407.709 471.52,-347.403 537.527,-323.027"/>
<polygon fill="midnightblue" stroke="midnightblue" points="83.3074,-348.491 72.8834,-346.597 79.8506,-354.578 83.3074,-348.491"/>
</g>
<!-- Node35 -->
<g id="node21" class="node"><title>Node35</title>
<g id="a_node21"><a xlink:href="classel_1_1_configurations.html#a4c6db218908b39d23cc09b1a16a18e83" target="_top" xlink:title="Sets configuration based&#45;off an existing configurations. ">
<polygon fill="white" stroke="black" points="166,-496.5 166,-526.5 258,-526.5 258,-496.5 166,-496.5"/>
<text text-anchor="start" x="174" y="-514.5" font-family="Helvetica,sans-Serif" font-size="10.00">el::Configurations</text>
<text text-anchor="middle" x="212" y="-503.5" font-family="Helvetica,sans-Serif" font-size="10.00">::setFromBase</text>
</a>
</g>
</g>
<!-- Node14&#45;&gt;Node35 -->
<g id="edge23" class="edge"><title>Node14&#45;&gt;Node35</title>
<path fill="none" stroke="midnightblue" d="M57.2707,-356.238C68.7896,-389.135 93.4007,-447.117 133,-481.5 142.422,-489.681 154.316,-495.75 165.958,-500.205"/>
<polygon fill="midnightblue" stroke="midnightblue" points="60.4993,-354.859 53.9884,-346.501 53.866,-357.095 60.4993,-354.859"/>
</g>
<!-- Node41 -->
<g id="node27" class="node"><title>Node41</title>
<g id="a_node27"><a xlink:href="classel_1_1base_1_1_v_registry.html#aea4fb84a03363080ee2501193084f71f" target="_top" xlink:title="Sets verbose level. Accepted range is 0&#45;9. ">
<polygon fill="white" stroke="black" points="162,-147.5 162,-177.5 262,-177.5 262,-147.5 162,-147.5"/>
<text text-anchor="start" x="170" y="-165.5" font-family="Helvetica,sans-Serif" font-size="10.00">el::base::VRegistry</text>
<text text-anchor="middle" x="212" y="-154.5" font-family="Helvetica,sans-Serif" font-size="10.00">::setLevel</text>
</a>
</g>
</g>
<!-- Node14&#45;&gt;Node41 -->
<g id="edge31" class="edge"><title>Node14&#45;&gt;Node41</title>
<path fill="none" stroke="midnightblue" d="M57.4453,-306.928C69.0348,-274.893 93.5917,-219.221 133,-187.5 141.308,-180.813 151.443,-175.898 161.621,-172.291"/>
<polygon fill="midnightblue" stroke="midnightblue" points="54.117,-305.843 54.1358,-316.438 60.7281,-308.144 54.117,-305.843"/>
</g>
<!-- Node43 -->
<g id="node29" class="node"><title>Node43</title>
<g id="a_node29"><a xlink:href="classel_1_1base_1_1_v_registry.html#a65e202cc547cd11231d3ea0fb70765d0" target="_top" xlink:title="el::base::VRegistry\l::setModules">
<polygon fill="white" stroke="black" points="162,-98.5 162,-128.5 262,-128.5 262,-98.5 162,-98.5"/>
<text text-anchor="start" x="170" y="-116.5" font-family="Helvetica,sans-Serif" font-size="10.00">el::base::VRegistry</text>
<text text-anchor="middle" x="212" y="-105.5" font-family="Helvetica,sans-Serif" font-size="10.00">::setModules</text>
</a>
</g>
</g>
<!-- Node14&#45;&gt;Node43 -->
<g id="edge33" class="edge"><title>Node14&#45;&gt;Node43</title>
<path fill="none" stroke="midnightblue" d="M53.5436,-306.256C61.4307,-265.225 82.7157,-184.076 133,-138.5 141.113,-131.147 151.402,-125.955 161.824,-122.29"/>
<polygon fill="midnightblue" stroke="midnightblue" points="50.0735,-305.778 51.739,-316.241 56.9619,-307.023 50.0735,-305.778"/>
</g>
<!-- Node44 -->
<g id="node30" class="node"><title>Node44</title>
<g id="a_node30"><a xlink:href="classel_1_1_configurations.html#ad89b7d2dd750e4d1b3deff800e278fdb" target="_top" xlink:title="Lets you set the remaining configurations to default. ">
<polygon fill="white" stroke="black" points="336.5,-628.5 336.5,-658.5 458.5,-658.5 458.5,-628.5 336.5,-628.5"/>
<text text-anchor="start" x="344.5" y="-646.5" font-family="Helvetica,sans-Serif" font-size="10.00">el::Configurations</text>
<text text-anchor="middle" x="397.5" y="-635.5" font-family="Helvetica,sans-Serif" font-size="10.00">::setRemainingToDefault</text>
</a>
</g>
</g>
<!-- Node14&#45;&gt;Node44 -->
<g id="edge35" class="edge"><title>Node14&#45;&gt;Node44</title>
<path fill="none" stroke="midnightblue" d="M52.3768,-356.524C58.7337,-399.91 78.0657,-488.995 133,-536.5 187.711,-583.811 228.962,-538.313 291,-575.5 311.514,-587.797 307.403,-601.789 327,-615.5 334.141,-620.496 342.305,-624.795 350.467,-628.42"/>
<polygon fill="midnightblue" stroke="midnightblue" points="55.8342,-355.972 51.0265,-346.531 48.8973,-356.91 55.8342,-355.972"/>
</g>
<!-- Node45 -->
<g id="node31" class="node"><title>Node45</title>
<g id="a_node31"><a xlink:href="classel_1_1base_1_1_storage.html#a68e1d3e0b657418ddb0f62f60fe979d2" target="_top" xlink:title="el::base::Storage::\luninstallCustomFormatSpecifier">
<polygon fill="white" stroke="black" points="134.5,-49.5 134.5,-79.5 289.5,-79.5 289.5,-49.5 134.5,-49.5"/>
<text text-anchor="start" x="142.5" y="-67.5" font-family="Helvetica,sans-Serif" font-size="10.00">el::base::Storage::</text>
<text text-anchor="middle" x="212" y="-56.5" font-family="Helvetica,sans-Serif" font-size="10.00">uninstallCustomFormatSpecifier</text>
</a>
</g>
</g>
<!-- Node14&#45;&gt;Node45 -->
<g id="edge37" class="edge"><title>Node14&#45;&gt;Node45</title>
<path fill="none" stroke="midnightblue" d="M50.9851,-306.28C55.2185,-257.501 71.413,-149.742 133,-89.5 136.965,-85.622 141.531,-82.3454 146.425,-79.5769"/>
<polygon fill="midnightblue" stroke="midnightblue" points="47.4925,-306.051 50.2154,-316.29 54.4719,-306.588 47.4925,-306.051"/>
</g>
<!-- Node46 -->
<g id="node32" class="node"><title>Node46</title>
<g id="a_node32"><a xlink:href="classel_1_1base_1_1_p_error_writer.html#adc8b5fe696977395f0e8b0ee5d5caf60" target="_top" xlink:title="el::base::PErrorWriter\l::~PErrorWriter">
<polygon fill="white" stroke="black" points="156.5,-0.5 156.5,-30.5 267.5,-30.5 267.5,-0.5 156.5,-0.5"/>
<text text-anchor="start" x="164.5" y="-18.5" font-family="Helvetica,sans-Serif" font-size="10.00">el::base::PErrorWriter</text>
<text text-anchor="middle" x="212" y="-7.5" font-family="Helvetica,sans-Serif" font-size="10.00">::~PErrorWriter</text>
</a>
</g>
</g>
<!-- Node14&#45;&gt;Node46 -->
<g id="edge38" class="edge"><title>Node14&#45;&gt;Node46</title>
<path fill="none" stroke="midnightblue" d="M49.2372,-306.39C50.0504,-250.705 59.9349,-115.846 133,-40.5 139.435,-33.8644 147.63,-28.9868 156.278,-25.4022"/>
<polygon fill="midnightblue" stroke="midnightblue" points="45.7372,-306.41 49.1795,-316.43 52.7371,-306.45 45.7372,-306.41"/>
</g>
<!-- Node17 -->
<g id="node4" class="node"><title>Node17</title>
<g id="a_node4"><a xlink:href="classel_1_1_loggers.html#adedfcc17831fe3d3f14026c91e8df88c" target="_top" xlink:title="Sets configurations from global configuration file. ">
<polygon fill="white" stroke="black" points="658,-538.5 658,-568.5 790,-568.5 790,-538.5 658,-538.5"/>
<text text-anchor="start" x="666" y="-556.5" font-family="Helvetica,sans-Serif" font-size="10.00">el::Loggers::configureFrom</text>
<text text-anchor="middle" x="724" y="-545.5" font-family="Helvetica,sans-Serif" font-size="10.00">Global</text>
</a>
</g>
</g>
<!-- Node16&#45;&gt;Node17 -->
<g id="edge3" class="edge"><title>Node16&#45;&gt;Node17</title>
<path fill="none" stroke="midnightblue" d="M447.223,-485.512C504.562,-499.648 599.822,-523.132 662.012,-538.465"/>
<polygon fill="midnightblue" stroke="midnightblue" points="447.867,-482.066 437.32,-483.07 446.191,-488.862 447.867,-482.066"/>
</g>
<!-- Node18 -->
<g id="node5" class="node"><title>Node18</title>
<g id="a_node5"><a xlink:href="classel_1_1_logger.html#a43abea8865d7316f05c8a676a8c04896" target="_top" xlink:title="el::Logger::Logger">
<polygon fill="white" stroke="black" points="515.5,-462 515.5,-481 610.5,-481 610.5,-462 515.5,-462"/>
<text text-anchor="middle" x="563" y="-469" font-family="Helvetica,sans-Serif" font-size="10.00">el::Logger::Logger</text>
</a>
</g>
</g>
<!-- Node16&#45;&gt;Node18 -->
<g id="edge4" class="edge"><title>Node16&#45;&gt;Node18</title>
<path fill="none" stroke="midnightblue" d="M459.82,-472.75C478.205,-472.525 498.062,-472.282 515.339,-472.071"/>
<polygon fill="midnightblue" stroke="midnightblue" points="459.74,-469.251 449.784,-472.873 459.826,-476.25 459.74,-469.251"/>
</g>
<!-- Node19 -->
<g id="node6" class="node"><title>Node19</title>
<g id="a_node6"><a xlink:href="classel_1_1_logger.html#adfd57ab27fb398cc980a3edfab92927e" target="_top" xlink:title="Reconfigures logger using existing configurations. ">
<polygon fill="white" stroke="black" points="506.5,-347 506.5,-366 619.5,-366 619.5,-347 506.5,-347"/>
<text text-anchor="middle" x="563" y="-354" font-family="Helvetica,sans-Serif" font-size="10.00">el::Logger::reconfigure</text>
</a>
</g>
</g>
<!-- Node16&#45;&gt;Node19 -->
<g id="edge5" class="edge"><title>Node16&#45;&gt;Node19</title>
<path fill="none" stroke="midnightblue" d="M458.917,-459.89C462.095,-458.289 465.148,-456.5 468,-454.5 490.717,-438.572 485.043,-423.759 504,-403.5 517.46,-389.116 535.384,-375.243 547.725,-366.346"/>
<polygon fill="midnightblue" stroke="midnightblue" points="457.456,-456.709 449.697,-463.923 460.261,-463.122 457.456,-456.709"/>
</g>
<!-- Node23 -->
<g id="node10" class="node"><title>Node23</title>
<g id="a_node10"><a xlink:href="classel_1_1_loggers.html#a02223004494a404a2c3e7cd0c4380d3b" target="_top" xlink:title="Reconfigures specified logger with new configurations. ">
<polygon fill="white" stroke="black" points="504,-412.5 504,-442.5 622,-442.5 622,-412.5 504,-412.5"/>
<text text-anchor="start" x="512" y="-430.5" font-family="Helvetica,sans-Serif" font-size="10.00">el::Loggers::reconfigure</text>
<text text-anchor="middle" x="563" y="-419.5" font-family="Helvetica,sans-Serif" font-size="10.00">Logger</text>
</a>
</g>
</g>
<!-- Node16&#45;&gt;Node23 -->
<g id="edge9" class="edge"><title>Node16&#45;&gt;Node23</title>
<path fill="none" stroke="midnightblue" d="M443.608,-461.259C451.733,-459.028 460.122,-456.708 468,-454.5 481.57,-450.696 496.222,-446.521 509.827,-442.615"/>
<polygon fill="midnightblue" stroke="midnightblue" points="442.602,-457.906 433.881,-463.922 444.45,-464.657 442.602,-457.906"/>
</g>
<!-- Node20 -->
<g id="node7" class="node"><title>Node20</title>
<g id="a_node7"><a xlink:href="classel_1_1_loggers.html#a396b601e204ede36f5a9acc76a8c5585" target="_top" xlink:title="Reconfigures single configuration for all the loggers for specified level. ">
<polygon fill="white" stroke="black" points="665,-328.5 665,-358.5 783,-358.5 783,-328.5 665,-328.5"/>
<text text-anchor="start" x="673" y="-346.5" font-family="Helvetica,sans-Serif" font-size="10.00">el::Loggers::reconfigure</text>
<text text-anchor="middle" x="724" y="-335.5" font-family="Helvetica,sans-Serif" font-size="10.00">AllLoggers</text>
</a>
</g>
</g>
<!-- Node19&#45;&gt;Node20 -->
<g id="edge6" class="edge"><title>Node19&#45;&gt;Node20</title>
<path fill="none" stroke="midnightblue" d="M629.751,-351.124C641.44,-350.168 653.538,-349.179 664.993,-348.243"/>
<polygon fill="midnightblue" stroke="midnightblue" points="629.292,-347.65 619.61,-351.953 629.862,-354.627 629.292,-347.65"/>
</g>
<!-- Node21 -->
<g id="node8" class="node"><title>Node21</title>
<g id="a_node8"><a xlink:href="classel_1_1_loggers.html#a89ec21259cfcfee3f761fca68c4ec043" target="_top" xlink:title="Reconfigures logger&#39;s single configuration. ">
<polygon fill="white" stroke="black" points="665,-279.5 665,-309.5 783,-309.5 783,-279.5 665,-279.5"/>
<text text-anchor="start" x="673" y="-297.5" font-family="Helvetica,sans-Serif" font-size="10.00">el::Loggers::reconfigure</text>
<text text-anchor="middle" x="724" y="-286.5" font-family="Helvetica,sans-Serif" font-size="10.00">Logger</text>
</a>
</g>
</g>
<!-- Node19&#45;&gt;Node21 -->
<g id="edge7" class="edge"><title>Node19&#45;&gt;Node21</title>
<path fill="none" stroke="midnightblue" d="M597.761,-343.137C615.651,-336.075 638.004,-327.281 658,-319.5 666.338,-316.256 675.287,-312.798 683.797,-309.521"/>
<polygon fill="midnightblue" stroke="midnightblue" points="596.34,-339.936 588.325,-346.865 598.912,-346.446 596.34,-339.936"/>
</g>
<!-- Node22 -->
<g id="node9" class="node"><title>Node22</title>
<g id="a_node9"><a xlink:href="classel_1_1base_1_1_storage.html#a4932a8f8a55c3b00467cf2feed6acf59" target="_top" xlink:title="el::base::Storage::\lStorage">
<polygon fill="white" stroke="black" points="675.5,-377.5 675.5,-407.5 772.5,-407.5 772.5,-377.5 675.5,-377.5"/>
<text text-anchor="start" x="683.5" y="-395.5" font-family="Helvetica,sans-Serif" font-size="10.00">el::base::Storage::</text>
<text text-anchor="middle" x="724" y="-384.5" font-family="Helvetica,sans-Serif" font-size="10.00">Storage</text>
</a>
</g>
</g>
<!-- Node19&#45;&gt;Node22 -->
<g id="edge8" class="edge"><title>Node19&#45;&gt;Node22</title>
<path fill="none" stroke="midnightblue" d="M616.195,-368.318C635.231,-372.628 656.644,-377.476 675.272,-381.694"/>
<polygon fill="midnightblue" stroke="midnightblue" points="616.718,-364.848 606.192,-366.053 615.172,-371.675 616.718,-364.848"/>
</g>
<!-- Node24 -->
<g id="node11" class="node"><title>Node24</title>
<g id="a_node11"><a xlink:href="classel_1_1_loggers.html#a42f99e79d72d391df563df8d09272194" target="_top" xlink:title="Reconfigures all the existing loggers with new configurations. ">
<polygon fill="white" stroke="red" points="665,-475.5 665,-505.5 783,-505.5 783,-475.5 665,-475.5"/>
<text text-anchor="start" x="673" y="-493.5" font-family="Helvetica,sans-Serif" font-size="10.00">el::Loggers::reconfigure</text>
<text text-anchor="middle" x="724" y="-482.5" font-family="Helvetica,sans-Serif" font-size="10.00">AllLoggers</text>
</a>
</g>
</g>
<!-- Node23&#45;&gt;Node24 -->
<g id="edge10" class="edge"><title>Node23&#45;&gt;Node24</title>
<path fill="none" stroke="midnightblue" d="M608.932,-446.566C624.426,-453.028 641.925,-460.2 658,-466.5 665.504,-469.441 673.532,-472.486 681.297,-475.38"/>
<polygon fill="midnightblue" stroke="midnightblue" points="610.15,-443.282 599.575,-442.649 607.447,-449.739 610.15,-443.282"/>
</g>
<!-- Node26 -->
<g id="node12" class="node"><title>Node26</title>
<g id="a_node12"><a xlink:href="classel_1_1_loggers.html#af3252cc39fa4ac17b4abf50acf6b4c5e" target="_top" xlink:title="Reconfigures logger with new configurations after looking it up using identity. ">
<polygon fill="white" stroke="black" points="665,-426.5 665,-456.5 783,-456.5 783,-426.5 665,-426.5"/>
<text text-anchor="start" x="673" y="-444.5" font-family="Helvetica,sans-Serif" font-size="10.00">el::Loggers::reconfigure</text>
<text text-anchor="middle" x="724" y="-433.5" font-family="Helvetica,sans-Serif" font-size="10.00">Logger</text>
</a>
</g>
</g>
<!-- Node23&#45;&gt;Node26 -->
<g id="edge11" class="edge"><title>Node23&#45;&gt;Node26</title>
<path fill="none" stroke="midnightblue" d="M632.551,-433.536C643.355,-434.487 654.434,-435.463 664.97,-436.39"/>
<polygon fill="midnightblue" stroke="midnightblue" points="632.571,-430.024 622.303,-432.634 631.957,-436.997 632.571,-430.024"/>
</g>
<!-- Node27&#45;&gt;Node16 -->
<g id="edge13" class="edge"><title>Node27&#45;&gt;Node16</title>
<path fill="none" stroke="midnightblue" d="M262.916,-441.469C292.411,-448.541 329.246,-457.374 356.761,-463.971"/>
<polygon fill="midnightblue" stroke="midnightblue" points="263.357,-437.976 252.817,-439.047 261.725,-444.783 263.357,-437.976"/>
</g>
<!-- Node28 -->
<g id="node14" class="node"><title>Node28</title>
<g id="a_node14"><a xlink:href="classel_1_1base_1_1_default_log_dispatch_callback.html#adc7c200395c99534d55cb23cfabafcb1" target="_top" xlink:title="el::base::DefaultLogDispatch\lCallback::dispatch">
<polygon fill="white" stroke="black" points="327,-414.5 327,-444.5 468,-444.5 468,-414.5 327,-414.5"/>
<text text-anchor="start" x="335" y="-432.5" font-family="Helvetica,sans-Serif" font-size="10.00">el::base::DefaultLogDispatch</text>
<text text-anchor="middle" x="397.5" y="-421.5" font-family="Helvetica,sans-Serif" font-size="10.00">Callback::dispatch</text>
</a>
</g>
</g>
<!-- Node27&#45;&gt;Node28 -->
<g id="edge14" class="edge"><title>Node27&#45;&gt;Node28</title>
<path fill="none" stroke="midnightblue" d="M265.148,-429.5C284.348,-429.5 306.412,-429.5 326.907,-429.5"/>
<polygon fill="midnightblue" stroke="midnightblue" points="265.099,-426 255.099,-429.5 265.099,-433 265.099,-426"/>
</g>
<!-- Node33&#45;&gt;Node20 -->
<g id="edge21" class="edge"><title>Node33&#45;&gt;Node20</title>
<path fill="none" stroke="midnightblue" d="M624.689,-324.951C637.914,-327.446 651.875,-330.08 664.993,-332.555"/>
<polygon fill="midnightblue" stroke="midnightblue" points="625.221,-321.49 614.746,-323.075 623.923,-328.368 625.221,-321.49"/>
</g>
<!-- Node33&#45;&gt;Node21 -->
<g id="edge22" class="edge"><title>Node33&#45;&gt;Node21</title>
<path fill="none" stroke="midnightblue" d="M628.665,-305.773C640.667,-304.339 653.136,-302.849 664.926,-301.44"/>
<polygon fill="midnightblue" stroke="midnightblue" points="628.233,-302.299 618.719,-306.961 629.063,-309.25 628.233,-302.299"/>
</g>
<!-- Node34 -->
<g id="node20" class="node"><title>Node34</title>
<g id="a_node20"><a xlink:href="classel_1_1_configurations_1_1_parser.html#a70e0d8b27e7c1b5dd94e6838c304a751" target="_top" xlink:title="el::Configurations\l::Parser::parseLine">
<polygon fill="white" stroke="black" points="674.5,-230.5 674.5,-260.5 773.5,-260.5 773.5,-230.5 674.5,-230.5"/>
<text text-anchor="start" x="682.5" y="-248.5" font-family="Helvetica,sans-Serif" font-size="10.00">el::Configurations</text>
<text text-anchor="middle" x="724" y="-237.5" font-family="Helvetica,sans-Serif" font-size="10.00">::Parser::parseLine</text>
</a>
</g>
</g>
<!-- Node33&#45;&gt;Node34 -->
<g id="edge20" class="edge"><title>Node33&#45;&gt;Node34</title>
<path fill="none" stroke="midnightblue" d="M593.075,-299.637C611.544,-290.971 636.024,-279.742 658,-270.5 665.913,-267.172 674.437,-263.767 682.623,-260.584"/>
<polygon fill="midnightblue" stroke="midnightblue" points="591.563,-296.48 584.011,-303.91 594.549,-302.812 591.563,-296.48"/>
</g>
<!-- Node35&#45;&gt;Node16 -->
<g id="edge24" class="edge"><title>Node35&#45;&gt;Node16</title>
<path fill="none" stroke="midnightblue" d="M268.161,-500.077C294.402,-494.643 325.42,-488.22 350.388,-483.049"/>
<polygon fill="midnightblue" stroke="midnightblue" points="267.442,-496.652 258.36,-502.107 268.862,-503.506 267.442,-496.652"/>
</g>
<!-- Node36 -->
<g id="node22" class="node"><title>Node36</title>
<g id="a_node22"><a xlink:href="classel_1_1_configurations_1_1_parser.html#ab8e266318b9feaeee4d3169e4a7ca275" target="_top" xlink:title="Parses configuration from file. ">
<polygon fill="white" stroke="black" points="338,-575.5 338,-605.5 457,-605.5 457,-575.5 338,-575.5"/>
<text text-anchor="start" x="346" y="-593.5" font-family="Helvetica,sans-Serif" font-size="10.00">el::Configurations</text>
<text text-anchor="middle" x="397.5" y="-582.5" font-family="Helvetica,sans-Serif" font-size="10.00">::Parser::parseFromFile</text>
</a>
</g>
</g>
<!-- Node35&#45;&gt;Node36 -->
<g id="edge25" class="edge"><title>Node35&#45;&gt;Node36</title>
<path fill="none" stroke="midnightblue" d="M263.238,-530.193C272.519,-533.824 282.089,-537.689 291,-541.5 307.269,-548.458 310.964,-551.022 327,-558.5 338.919,-564.058 352.013,-570.103 363.591,-575.427"/>
<polygon fill="midnightblue" stroke="midnightblue" points="264.302,-526.852 253.713,-526.506 261.775,-533.38 264.302,-526.852"/>
</g>
<!-- Node39 -->
<g id="node25" class="node"><title>Node39</title>
<g id="a_node25"><a xlink:href="classel_1_1_configurations_1_1_parser.html#ae4efa4823ce108eb35bc69442155a037" target="_top" xlink:title="Parse configurations from configuration string. ">
<polygon fill="white" stroke="black" points="336.5,-518.5 336.5,-548.5 458.5,-548.5 458.5,-518.5 336.5,-518.5"/>
<text text-anchor="start" x="344.5" y="-536.5" font-family="Helvetica,sans-Serif" font-size="10.00">el::Configurations</text>
<text text-anchor="middle" x="397.5" y="-525.5" font-family="Helvetica,sans-Serif" font-size="10.00">::Parser::parseFromText</text>
</a>
</g>
</g>
<!-- Node35&#45;&gt;Node39 -->
<g id="edge28" class="edge"><title>Node35&#45;&gt;Node39</title>
<path fill="none" stroke="midnightblue" d="M268.31,-518.131C289.809,-520.709 314.494,-523.668 336.427,-526.298"/>
<polygon fill="midnightblue" stroke="midnightblue" points="268.705,-514.654 258.36,-516.938 267.872,-521.604 268.705,-514.654"/>
</g>
<!-- Node37 -->
<g id="node23" class="node"><title>Node37</title>
<g id="a_node23"><a xlink:href="classel_1_1_configurations.html#aaa098126d64a5ee04a3944b1a65dcdca" target="_top" xlink:title="Parses configuration from file. ">
<polygon fill="white" stroke="black" points="517,-587.5 517,-617.5 609,-617.5 609,-587.5 517,-587.5"/>
<text text-anchor="start" x="525" y="-605.5" font-family="Helvetica,sans-Serif" font-size="10.00">el::Configurations</text>
<text text-anchor="middle" x="563" y="-594.5" font-family="Helvetica,sans-Serif" font-size="10.00">::parseFromFile</text>
</a>
</g>
</g>
<!-- Node36&#45;&gt;Node37 -->
<g id="edge26" class="edge"><title>Node36&#45;&gt;Node37</title>
<path fill="none" stroke="midnightblue" d="M467.371,-595.555C484.118,-596.784 501.604,-598.067 516.923,-599.192"/>
<polygon fill="midnightblue" stroke="midnightblue" points="467.295,-592.04 457.065,-594.798 466.782,-599.021 467.295,-592.04"/>
</g>
<!-- Node38 -->
<g id="node24" class="node"><title>Node38</title>
<g id="a_node24"><a xlink:href="classel_1_1_configurations.html#ae341bd647734d1180a5a138222d2f1ea" target="_top" xlink:title="Constructor used to set configurations using configuration file. ">
<polygon fill="white" stroke="black" points="678,-609.5 678,-639.5 770,-639.5 770,-609.5 678,-609.5"/>
<text text-anchor="start" x="686" y="-627.5" font-family="Helvetica,sans-Serif" font-size="10.00">el::Configurations</text>
<text text-anchor="middle" x="724" y="-616.5" font-family="Helvetica,sans-Serif" font-size="10.00">::Configurations</text>
</a>
</g>
</g>
<!-- Node37&#45;&gt;Node38 -->
<g id="edge27" class="edge"><title>Node37&#45;&gt;Node38</title>
<path fill="none" stroke="midnightblue" d="M619.216,-610.14C638.335,-612.785 659.526,-615.717 677.749,-618.239"/>
<polygon fill="midnightblue" stroke="midnightblue" points="619.523,-606.649 609.138,-608.745 618.564,-613.583 619.523,-606.649"/>
</g>
<!-- Node40 -->
<g id="node26" class="node"><title>Node40</title>
<g id="a_node26"><a xlink:href="classel_1_1_configurations.html#af262a41dff665a11889261137b62af4a" target="_top" xlink:title="Parse configurations from configuration string. ">
<polygon fill="white" stroke="black" points="517,-538.5 517,-568.5 609,-568.5 609,-538.5 517,-538.5"/>
<text text-anchor="start" x="525" y="-556.5" font-family="Helvetica,sans-Serif" font-size="10.00">el::Configurations</text>
<text text-anchor="middle" x="563" y="-545.5" font-family="Helvetica,sans-Serif" font-size="10.00">::parseFromText</text>
</a>
</g>
</g>
<!-- Node39&#45;&gt;Node40 -->
<g id="edge29" class="edge"><title>Node39&#45;&gt;Node40</title>
<path fill="none" stroke="midnightblue" d="M468.94,-542.116C485.201,-544.106 502.071,-546.169 516.91,-547.984"/>
<polygon fill="midnightblue" stroke="midnightblue" points="469.268,-538.631 458.917,-540.89 468.418,-545.579 469.268,-538.631"/>
</g>
<!-- Node40&#45;&gt;Node17 -->
<g id="edge30" class="edge"><title>Node40&#45;&gt;Node17</title>
<path fill="none" stroke="midnightblue" d="M619.345,-553.5C631.776,-553.5 645.078,-553.5 657.866,-553.5"/>
<polygon fill="midnightblue" stroke="midnightblue" points="619.138,-550 609.138,-553.5 619.138,-557 619.138,-550"/>
</g>
<!-- Node42 -->
<g id="node28" class="node"><title>Node42</title>
<g id="a_node28"><a xlink:href="classel_1_1base_1_1_v_registry.html#a811e62d7d016a0714b4363f47216a9da" target="_top" xlink:title="el::base::VRegistry\l::setFromArgs">
<polygon fill="white" stroke="black" points="347.5,-123.5 347.5,-153.5 447.5,-153.5 447.5,-123.5 347.5,-123.5"/>
<text text-anchor="start" x="355.5" y="-141.5" font-family="Helvetica,sans-Serif" font-size="10.00">el::base::VRegistry</text>
<text text-anchor="middle" x="397.5" y="-130.5" font-family="Helvetica,sans-Serif" font-size="10.00">::setFromArgs</text>
</a>
</g>
</g>
<!-- Node41&#45;&gt;Node42 -->
<g id="edge32" class="edge"><title>Node41&#45;&gt;Node42</title>
<path fill="none" stroke="midnightblue" d="M272.306,-154.743C296.494,-151.58 324.134,-147.965 347.19,-144.949"/>
<polygon fill="midnightblue" stroke="midnightblue" points="271.636,-151.301 262.175,-156.068 272.544,-158.242 271.636,-151.301"/>
</g>
<!-- Node43&#45;&gt;Node42 -->
<g id="edge34" class="edge"><title>Node43&#45;&gt;Node42</title>
<path fill="none" stroke="midnightblue" d="M272.306,-121.58C296.494,-124.875 324.134,-128.641 347.19,-131.782"/>
<polygon fill="midnightblue" stroke="midnightblue" points="272.556,-118.082 262.175,-120.2 271.611,-125.018 272.556,-118.082"/>
</g>
<!-- Node44&#45;&gt;Node38 -->
<g id="edge36" class="edge"><title>Node44&#45;&gt;Node38</title>
<path fill="none" stroke="midnightblue" d="M469.089,-639.367C532.453,-635.657 623.576,-630.321 677.685,-627.153"/>
<polygon fill="midnightblue" stroke="midnightblue" points="468.554,-635.892 458.775,-639.971 468.963,-642.88 468.554,-635.892"/>
</g>
</g>
</svg>
        <g id="navigator" transform="translate(0 0)" fill="#404254">
                <rect fill="#f2f5e9" fill-opacity="0.5" stroke="#606060" stroke-width=".5" x="0" y="0" width="60" height="60"/>
                <use id="zoomplus" xlink:href="#zoomPlus" x="17" y="9" onmousedown="handleZoom(evt,'in')"/>
                <use id="zoomminus" xlink:href="#zoomMin" x="42" y="9" onmousedown="handleZoom(evt,'out')"/>
                <use id="reset" xlink:href="#resetDef" x="30" y="36" onmousedown="handleReset()"/>
                <g id="arrowUp" xlink:href="#dirArrow" transform="translate(30 24)" onmousedown="handlePan(0,-1)">
                  <use xlink:href="#rim" fill="#404040">
                        <set attributeName="fill" to="#808080" begin="arrowUp.mouseover" end="arrowUp.mouseout"/>
                  </use>
                  <path fill="none" stroke="white" stroke-width="1.5" d="M0,-3.0v7 M-2.5,-0.5L0,-3.0L2.5,-0.5"/>
                </g>
                <g id="arrowRight" xlink:href="#dirArrow" transform="rotate(90) translate(36 -43)" onmousedown="handlePan(1,0)">
                  <use xlink:href="#rim" fill="#404040">
                        <set attributeName="fill" to="#808080" begin="arrowRight.mouseover" end="arrowRight.mouseout"/>
                  </use>
                  <path fill="none" stroke="white" stroke-width="1.5" d="M0,-3.0v7 M-2.5,-0.5L0,-3.0L2.5,-0.5"/>
                </g>
                <g id="arrowDown" xlink:href="#dirArrow" transform="rotate(180) translate(-30 -48)" onmousedown="handlePan(0,1)">
                  <use xlink:href="#rim" fill="#404040">
                        <set attributeName="fill" to="#808080" begin="arrowDown.mouseover" end="arrowDown.mouseout"/>
                  </use>
                  <path fill="none" stroke="white" stroke-width="1.5" d="M0,-3.0v7 M-2.5,-0.5L0,-3.0L2.5,-0.5"/>
                </g>
                <g id="arrowLeft" xlink:href="#dirArrow" transform="rotate(270) translate(-36 17)" onmousedown="handlePan(-1,0)">
                  <use xlink:href="#rim" fill="#404040">
                        <set attributeName="fill" to="#808080" begin="arrowLeft.mouseover" end="arrowLeft.mouseout"/>
                  </use>
                  <path fill="none" stroke="white" stroke-width="1.5" d="M0,-3.0v7 M-2.5,-0.5L0,-3.0L2.5,-0.5"/>
                </g>
        </g>
        <svg viewBox="0 0 15 15" width="100%" height="30px" preserveAspectRatio="xMaxYMin meet">
         <g id="arrow_out" transform="scale(0.3 0.3)">
          <a xlink:href="classel_1_1base_1_1threading_1_1_thread_safe_affb45b35790a7305d0a659562c8104fc_icgraph_org.svg" target="_base">
           <rect id="button" ry="5" rx="5" y="6" x="6" height="38" width="38"
                fill="#f2f5e9" fill-opacity="0.5" stroke="#606060" stroke-width="1.0"/>
           <path id="arrow"
             d="M 11.500037,31.436501 C 11.940474,20.09759 22.043105,11.32322 32.158766,21.979434 L 37.068811,17.246167 C 37.068811,17.246167 37.088388,32 37.088388,32 L 22.160133,31.978069 C 22.160133,31.978069 26.997745,27.140456 26.997745,27.140456 C 18.528582,18.264221 13.291696,25.230495 11.500037,31.436501 z"
             style="fill:#404040;"/>
          </a>
         </g>
        </svg>
</svg>
