<?xml version="1.0" encoding="UTF-8" standalone="no"?>
<!DOCTYPE svg PUBLIC "-//W3C//DTD SVG 1.1//EN"
 "http://www.w3.org/Graphics/SVG/1.1/DTD/svg11.dtd">
<!-- Generated by graphviz version 2.38.0 (20140413.2041)
 -->
<!-- Title: el::base::LogDispatcher Pages: 1 -->
<svg width="1327pt" height="399pt"
 viewBox="0.00 0.00 1327.00 399.47" xmlns="http://www.w3.org/2000/svg" xmlns:xlink="http://www.w3.org/1999/xlink">
<g id="graph0" class="graph" transform="scale(1 1) rotate(0) translate(4 395.468)">
<title>el::base::LogDispatcher</title>
<polygon fill="white" stroke="none" points="-4,4 -4,-395.468 1323,-395.468 1323,4 -4,4"/>
<!-- Node2 -->
<g id="node1" class="node"><title>Node2</title>
<polygon fill="#bfbfbf" stroke="black" points="1200,-321.968 1200,-340.968 1319,-340.968 1319,-321.968 1200,-321.968"/>
<text text-anchor="middle" x="1259.5" y="-328.968" font-family="Helvetica,sans-Serif" font-size="10.00">el::base::LogDispatcher</text>
</g>
<!-- Node3 -->
<g id="node2" class="node"><title>Node3</title>
<g id="a_node2"><a xlink:href="classel_1_1base_1_1_no_copy.html" target="_top" xlink:title="Internal helper class that prevent copy constructor for class. ">
<polygon fill="white" stroke="black" points="1002,-337.968 1002,-356.968 1094,-356.968 1094,-337.968 1002,-337.968"/>
<text text-anchor="middle" x="1048" y="-344.968" font-family="Helvetica,sans-Serif" font-size="10.00">el::base::NoCopy</text>
</a>
</g>
</g>
<!-- Node3&#45;&gt;Node2 -->
<g id="edge1" class="edge"><title>Node3&#45;&gt;Node2</title>
<path fill="none" stroke="#8b1a1a" d="M1104.31,-343.244C1133.73,-340.997 1169.92,-338.233 1199.84,-335.948"/>
<polygon fill="#8b1a1a" stroke="#8b1a1a" points="1103.9,-339.765 1094.2,-344.016 1104.44,-346.744 1103.9,-339.765"/>
</g>
<!-- Node4 -->
<g id="node3" class="node"><title>Node4</title>
<g id="a_node3"><a xlink:href="classel_1_1_log_message.html" target="_top" xlink:title="el::LogMessage">
<polygon fill="white" stroke="black" points="1005,-299.968 1005,-318.968 1091,-318.968 1091,-299.968 1005,-299.968"/>
<text text-anchor="middle" x="1048" y="-306.968" font-family="Helvetica,sans-Serif" font-size="10.00">el::LogMessage</text>
</a>
</g>
</g>
<!-- Node4&#45;&gt;Node2 -->
<g id="edge2" class="edge"><title>Node4&#45;&gt;Node2</title>
<path fill="none" stroke="#9a32cd" stroke-dasharray="5,2" d="M1101.38,-314.968C1131.28,-318.109 1168.85,-322.054 1199.76,-325.299"/>
<polygon fill="#9a32cd" stroke="#9a32cd" points="1101.45,-311.457 1091.14,-313.894 1100.72,-318.419 1101.45,-311.457"/>
<text text-anchor="middle" x="1147" y="-326.468" font-family="Helvetica,sans-Serif" font-size="10.00"> m_logMessage</text>
</g>
<!-- Node5 -->
<g id="node4" class="node"><title>Node5</title>
<g id="a_node4"><a xlink:title="STL class. ">
<polygon fill="white" stroke="#bfbfbf" points="132,-289.968 132,-308.968 192,-308.968 192,-289.968 132,-289.968"/>
<text text-anchor="middle" x="162" y="-296.968" font-family="Helvetica,sans-Serif" font-size="10.00">std::string</text>
</a>
</g>
</g>
<!-- Node5&#45;&gt;Node4 -->
<g id="edge3" class="edge"><title>Node5&#45;&gt;Node4</title>
<path fill="none" stroke="#9a32cd" stroke-dasharray="5,2" d="M190.73,-313.623C196.968,-316.475 203.629,-319.268 210,-321.468 278.99,-345.293 297.012,-358.468 370,-358.468 370,-358.468 370,-358.468 894.5,-358.468 920.015,-358.468 987.306,-333.292 1023.37,-319.032"/>
<polygon fill="#9a32cd" stroke="#9a32cd" points="191.913,-310.31 181.379,-309.171 188.903,-316.63 191.913,-310.31"/>
<text text-anchor="middle" x="652.5" y="-383.468" font-family="Helvetica,sans-Serif" font-size="10.00"> m_message</text>
<text text-anchor="middle" x="652.5" y="-372.468" font-family="Helvetica,sans-Serif" font-size="10.00">m_func</text>
<text text-anchor="middle" x="652.5" y="-361.468" font-family="Helvetica,sans-Serif" font-size="10.00">m_file</text>
</g>
<!-- Node7 -->
<g id="node6" class="node"><title>Node7</title>
<g id="a_node6"><a xlink:href="classel_1_1_logger.html" target="_top" xlink:title="Represents a logger holding ID and configurations we need to write logs. ">
<polygon fill="white" stroke="black" points="864,-178.968 864,-197.968 923,-197.968 923,-178.968 864,-178.968"/>
<text text-anchor="middle" x="893.5" y="-185.968" font-family="Helvetica,sans-Serif" font-size="10.00">el::Logger</text>
</a>
</g>
</g>
<!-- Node5&#45;&gt;Node7 -->
<g id="edge18" class="edge"><title>Node5&#45;&gt;Node7</title>
<path fill="none" stroke="#9a32cd" stroke-dasharray="5,2" d="M202.391,-303.049C294.417,-310.623 530.475,-325.455 725,-298.468 780.331,-290.792 801.457,-298.177 846,-264.468 869.189,-246.92 883.397,-214.158 889.309,-197.992"/>
<polygon fill="#9a32cd" stroke="#9a32cd" points="202.407,-299.539 192.149,-302.187 201.82,-306.514 202.407,-299.539"/>
<text text-anchor="middle" x="503" y="-328.468" font-family="Helvetica,sans-Serif" font-size="10.00"> m_parentApplicationName</text>
<text text-anchor="middle" x="503" y="-317.468" font-family="Helvetica,sans-Serif" font-size="10.00">m_id</text>
</g>
<!-- Node12 -->
<g id="node10" class="node"><title>Node12</title>
<polygon fill="white" stroke="#bfbfbf" points="316,-253.468 316,-283.468 426,-283.468 426,-253.468 316,-253.468"/>
<text text-anchor="start" x="324" y="-271.468" font-family="Helvetica,sans-Serif" font-size="10.00">std::map&lt; std::string,</text>
<text text-anchor="middle" x="371" y="-260.468" font-family="Helvetica,sans-Serif" font-size="10.00"> FileStreamPtr &gt;</text>
</g>
<!-- Node5&#45;&gt;Node12 -->
<g id="edge10" class="edge"><title>Node5&#45;&gt;Node12</title>
<path fill="none" stroke="#9a32cd" stroke-dasharray="5,2" d="M201.967,-289.101C204.677,-288.509 207.374,-287.957 210,-287.468 244.925,-280.965 284.576,-276.238 315.667,-273.126"/>
<polygon fill="#9a32cd" stroke="#9a32cd" points="201.145,-285.699 192.201,-291.378 202.735,-292.516 201.145,-285.699"/>
<text text-anchor="middle" x="254" y="-290.468" font-family="Helvetica,sans-Serif" font-size="10.00"> keys</text>
</g>
<!-- Node17 -->
<g id="node12" class="node"><title>Node17</title>
<g id="a_node12"><a xlink:href="classel_1_1_configurations.html" target="_top" xlink:title="Thread&#45;safe Configuration repository. ">
<polygon fill="white" stroke="red" points="325,-178.968 325,-197.968 417,-197.968 417,-178.968 325,-178.968"/>
<text text-anchor="middle" x="371" y="-185.968" font-family="Helvetica,sans-Serif" font-size="10.00">el::Configurations</text>
</a>
</g>
</g>
<!-- Node5&#45;&gt;Node17 -->
<g id="edge15" class="edge"><title>Node5&#45;&gt;Node17</title>
<path fill="none" stroke="#9a32cd" stroke-dasharray="5,2" d="M180.278,-283.211C188.807,-275.7 199.501,-267.017 210,-260.468 254.065,-232.98 310.406,-210.169 343.125,-197.999"/>
<polygon fill="#9a32cd" stroke="#9a32cd" points="177.905,-280.638 172.84,-289.944 182.603,-285.827 177.905,-280.638"/>
<text text-anchor="middle" x="254" y="-263.468" font-family="Helvetica,sans-Serif" font-size="10.00"> m_configurationFile</text>
</g>
<!-- Node6 -->
<g id="node5" class="node"><title>Node6</title>
<g id="a_node5"><a xlink:title="STL class. ">
<polygon fill="white" stroke="#bfbfbf" points="0,-284.468 0,-314.468 95,-314.468 95,-284.468 0,-284.468"/>
<text text-anchor="start" x="8" y="-302.468" font-family="Helvetica,sans-Serif" font-size="10.00">std::basic_string&lt;</text>
<text text-anchor="middle" x="47.5" y="-291.468" font-family="Helvetica,sans-Serif" font-size="10.00"> char &gt;</text>
</a>
</g>
</g>
<!-- Node6&#45;&gt;Node5 -->
<g id="edge4" class="edge"><title>Node6&#45;&gt;Node5</title>
<path fill="none" stroke="midnightblue" d="M105.526,-299.468C114.678,-299.468 123.803,-299.468 131.931,-299.468"/>
<polygon fill="midnightblue" stroke="midnightblue" points="105.233,-295.968 95.2328,-299.468 105.233,-302.968 105.233,-295.968"/>
</g>
<!-- Node7&#45;&gt;Node4 -->
<g id="edge5" class="edge"><title>Node7&#45;&gt;Node4</title>
<path fill="none" stroke="#9a32cd" stroke-dasharray="5,2" d="M914.556,-204.381C946.613,-229.817 1008.46,-278.885 1034.72,-299.724"/>
<polygon fill="#9a32cd" stroke="#9a32cd" points="916.731,-201.639 906.722,-198.165 912.38,-207.123 916.731,-201.639"/>
<text text-anchor="middle" x="962.5" y="-259.468" font-family="Helvetica,sans-Serif" font-size="10.00"> m_logger</text>
</g>
<!-- Node8 -->
<g id="node7" class="node"><title>Node8</title>
<g id="a_node7"><a xlink:href="classel_1_1base_1_1threading_1_1_thread_safe.html" target="_top" xlink:title="Base of thread safe class, this class is inheritable&#45;only. ">
<polygon fill="white" stroke="red" points="322.5,-57.468 322.5,-87.468 419.5,-87.468 419.5,-57.468 322.5,-57.468"/>
<text text-anchor="start" x="330.5" y="-75.468" font-family="Helvetica,sans-Serif" font-size="10.00">el::base::threading</text>
<text text-anchor="middle" x="371" y="-64.468" font-family="Helvetica,sans-Serif" font-size="10.00">::ThreadSafe</text>
</a>
</g>
</g>
<!-- Node8&#45;&gt;Node7 -->
<g id="edge6" class="edge"><title>Node8&#45;&gt;Node7</title>
<path fill="none" stroke="midnightblue" d="M416.2,-53.7155C508.298,-17.933 722.43,47.6278 846,-57.468 883.687,-89.5202 890.834,-154.243 892.186,-178.758"/>
<polygon fill="midnightblue" stroke="midnightblue" points="414.904,-50.4641 406.89,-57.3937 417.476,-56.9744 414.904,-50.4641"/>
</g>
<!-- Node13 -->
<g id="node11" class="node"><title>Node13</title>
<g id="a_node11"><a xlink:href="classel_1_1base_1_1_typed_configurations.html" target="_top" xlink:title="Configurations with data types. ">
<polygon fill="white" stroke="red" points="580,-132.968 580,-151.968 725,-151.968 725,-132.968 580,-132.968"/>
<text text-anchor="middle" x="652.5" y="-139.968" font-family="Helvetica,sans-Serif" font-size="10.00">el::base::TypedConfigurations</text>
</a>
</g>
</g>
<!-- Node8&#45;&gt;Node13 -->
<g id="edge12" class="edge"><title>Node8&#45;&gt;Node13</title>
<path fill="none" stroke="midnightblue" d="M429.685,-86.915C484.71,-100.696 566.022,-121.06 613.394,-132.925"/>
<polygon fill="midnightblue" stroke="midnightblue" points="430.281,-83.4563 419.73,-84.4219 428.58,-90.2466 430.281,-83.4563"/>
</g>
<!-- Node10 -->
<g id="node8" class="node"><title>Node10</title>
<g id="a_node8"><a xlink:href="classel_1_1_loggable.html" target="_top" xlink:title="Base of Easylogging++ friendly class. ">
<polygon fill="white" stroke="black" points="618,-94.968 618,-113.968 687,-113.968 687,-94.968 618,-94.968"/>
<text text-anchor="middle" x="652.5" y="-101.968" font-family="Helvetica,sans-Serif" font-size="10.00">el::Loggable</text>
</a>
</g>
</g>
<!-- Node10&#45;&gt;Node7 -->
<g id="edge7" class="edge"><title>Node10&#45;&gt;Node7</title>
<path fill="none" stroke="midnightblue" d="M697.236,-105.944C737.893,-108.92 799.07,-117.59 846,-142.468 862.655,-151.297 877.262,-168.018 885.475,-178.683"/>
<polygon fill="midnightblue" stroke="midnightblue" points="697.313,-102.441 687.108,-105.289 696.861,-109.427 697.313,-102.441"/>
</g>
<!-- Node11 -->
<g id="node9" class="node"><title>Node11</title>
<polygon fill="white" stroke="#bfbfbf" points="587,-45.468 587,-75.468 718,-75.468 718,-45.468 587,-45.468"/>
<text text-anchor="start" x="595" y="-63.468" font-family="Helvetica,sans-Serif" font-size="10.00">std::map&lt; Level, unsigned</text>
<text text-anchor="middle" x="652.5" y="-52.468" font-family="Helvetica,sans-Serif" font-size="10.00"> int &gt;</text>
</g>
<!-- Node11&#45;&gt;Node7 -->
<g id="edge8" class="edge"><title>Node11&#45;&gt;Node7</title>
<path fill="none" stroke="#9a32cd" stroke-dasharray="5,2" d="M728.296,-59.1947C766.802,-62.0725 812.551,-71.3633 846,-96.468 873.911,-117.416 886.282,-159.831 890.592,-178.855"/>
<polygon fill="#9a32cd" stroke="#9a32cd" points="728.357,-55.6919 718.161,-58.5701 727.927,-62.6786 728.357,-55.6919"/>
<text text-anchor="middle" x="794.5" y="-99.468" font-family="Helvetica,sans-Serif" font-size="10.00"> m_unflushedCount</text>
</g>
<!-- Node12&#45;&gt;Node7 -->
<g id="edge9" class="edge"><title>Node12&#45;&gt;Node7</title>
<path fill="none" stroke="#9a32cd" stroke-dasharray="5,2" d="M436.288,-277.628C530.948,-288.137 711.175,-296.614 846,-233.468 862.888,-225.558 877.426,-208.985 885.561,-198.31"/>
<polygon fill="#9a32cd" stroke="#9a32cd" points="436.622,-274.143 426.287,-276.474 435.82,-281.097 436.622,-274.143"/>
<text text-anchor="middle" x="652.5" y="-288.468" font-family="Helvetica,sans-Serif" font-size="10.00"> m_logStreamsReference</text>
</g>
<!-- Node12&#45;&gt;Node13 -->
<g id="edge13" class="edge"><title>Node12&#45;&gt;Node13</title>
<path fill="none" stroke="#9a32cd" stroke-dasharray="5,2" d="M417.32,-249.235C456.411,-232.122 513.98,-205.657 562,-178.468 570.367,-173.731 571.367,-170.701 580,-166.468 591.639,-160.761 604.969,-155.878 616.941,-152.036"/>
<polygon fill="#9a32cd" stroke="#9a32cd" points="415.569,-246.179 407.796,-253.379 418.362,-252.598 415.569,-246.179"/>
<text text-anchor="middle" x="503" y="-240.468" font-family="Helvetica,sans-Serif" font-size="10.00"> m_logStreamsReference</text>
</g>
<!-- Node13&#45;&gt;Node7 -->
<g id="edge11" class="edge"><title>Node13&#45;&gt;Node7</title>
<path fill="none" stroke="#9a32cd" stroke-dasharray="5,2" d="M735.335,-144.462C770.079,-147.073 810.641,-152.492 846,-163.468 857.38,-167 869.193,-173.392 878.065,-178.828"/>
<polygon fill="#9a32cd" stroke="#9a32cd" points="735.443,-140.961 725.226,-143.768 734.963,-147.945 735.443,-140.961"/>
<text text-anchor="middle" x="794.5" y="-166.468" font-family="Helvetica,sans-Serif" font-size="10.00"> m_typedConfigurations</text>
</g>
<!-- Node17&#45;&gt;Node7 -->
<g id="edge16" class="edge"><title>Node17&#45;&gt;Node7</title>
<path fill="none" stroke="#9a32cd" stroke-dasharray="5,2" d="M427.523,-188.468C537.743,-188.468 780.702,-188.468 863.898,-188.468"/>
<polygon fill="#9a32cd" stroke="#9a32cd" points="427.28,-184.968 417.28,-188.468 427.28,-191.968 427.28,-184.968"/>
<text text-anchor="middle" x="652.5" y="-191.468" font-family="Helvetica,sans-Serif" font-size="10.00"> m_configurations</text>
</g>
<!-- Node17&#45;&gt;Node13 -->
<g id="edge14" class="edge"><title>Node17&#45;&gt;Node13</title>
<path fill="none" stroke="#9a32cd" stroke-dasharray="5,2" d="M404.668,-175.317C416.835,-170.902 430.878,-166.368 444,-163.468 488.547,-153.622 539.51,-148.381 579.781,-145.597"/>
<polygon fill="#9a32cd" stroke="#9a32cd" points="403.085,-172.172 394.95,-178.959 405.542,-178.727 403.085,-172.172"/>
<text text-anchor="middle" x="503" y="-166.468" font-family="Helvetica,sans-Serif" font-size="10.00"> m_configurations</text>
</g>
<!-- Node27 -->
<g id="node13" class="node"><title>Node27</title>
<g id="a_node13"><a xlink:title="STL class. ">
<polygon fill="white" stroke="#bfbfbf" points="607.5,-217.968 607.5,-236.968 697.5,-236.968 697.5,-217.968 607.5,-217.968"/>
<text text-anchor="middle" x="652.5" y="-224.968" font-family="Helvetica,sans-Serif" font-size="10.00">std::stringstream</text>
</a>
</g>
</g>
<!-- Node27&#45;&gt;Node7 -->
<g id="edge17" class="edge"><title>Node27&#45;&gt;Node7</title>
<path fill="none" stroke="#9a32cd" stroke-dasharray="5,2" d="M707.844,-222.801C746.625,-218.89 799.866,-212.339 846,-202.468 851.771,-201.233 857.863,-199.627 863.668,-197.945"/>
<polygon fill="#9a32cd" stroke="#9a32cd" points="707.419,-219.326 697.809,-223.786 708.103,-226.292 707.419,-219.326"/>
<text text-anchor="middle" x="794.5" y="-221.468" font-family="Helvetica,sans-Serif" font-size="10.00"> m_stream</text>
</g>
</g>
</svg>
