<?xml version="1.0" encoding="UTF-8" standalone="no"?>
<!DOCTYPE svg PUBLIC "-//W3C//DTD SVG 1.1//EN"
 "http://www.w3.org/Graphics/SVG/1.1/DTD/svg11.dtd">
<!-- Generated by graphviz version 2.38.0 (20140413.2041)
 -->
<!-- Title: vpr::Allocator::AllocateMemory Pages: 1 -->
<svg width="272pt" height="88pt"
 viewBox="0.00 0.00 272.00 88.00" xmlns="http://www.w3.org/2000/svg" xmlns:xlink="http://www.w3.org/1999/xlink">
<g id="graph0" class="graph" transform="scale(1 1) rotate(0) translate(4 84)">
<title>vpr::Allocator::AllocateMemory</title>
<polygon fill="white" stroke="none" points="-4,4 -4,-84 268,-84 268,4 -4,4"/>
<!-- Node22 -->
<g id="node1" class="node"><title>Node22</title>
<polygon fill="#bfbfbf" stroke="black" points="0,-24.5 0,-54.5 114,-54.5 114,-24.5 0,-24.5"/>
<text text-anchor="start" x="8" y="-42.5" font-family="Helvetica,sans-Serif" font-size="10.00">vpr::Allocator::Allocate</text>
<text text-anchor="middle" x="57" y="-31.5" font-family="Helvetica,sans-Serif" font-size="10.00">Memory</text>
</g>
<!-- Node23 -->
<g id="node2" class="node"><title>Node23</title>
<g id="a_node2"><a xlink:href="classvpr_1_1_allocator.html#ae8c982057f90fad764d25d8b081e5603" target="_top" xlink:title="vpr::Allocator::Allocate\lForBuffer">
<polygon fill="white" stroke="black" points="150,-49.5 150,-79.5 264,-79.5 264,-49.5 150,-49.5"/>
<text text-anchor="start" x="158" y="-67.5" font-family="Helvetica,sans-Serif" font-size="10.00">vpr::Allocator::Allocate</text>
<text text-anchor="middle" x="207" y="-56.5" font-family="Helvetica,sans-Serif" font-size="10.00">ForBuffer</text>
</a>
</g>
</g>
<!-- Node22&#45;&gt;Node23 -->
<g id="edge1" class="edge"><title>Node22&#45;&gt;Node23</title>
<path fill="none" stroke="midnightblue" d="M124.28,-50.696C132.796,-52.1344 141.449,-53.5961 149.782,-55.0037"/>
<polygon fill="midnightblue" stroke="midnightblue" points="124.818,-47.2373 114.375,-49.0227 123.652,-54.1395 124.818,-47.2373"/>
</g>
<!-- Node24 -->
<g id="node3" class="node"><title>Node24</title>
<g id="a_node3"><a xlink:href="classvpr_1_1_allocator.html#a74d845e760e100129d83bc40cd4fb12e" target="_top" xlink:title="vpr::Allocator::Allocate\lForImage">
<polygon fill="white" stroke="black" points="150,-0.5 150,-30.5 264,-30.5 264,-0.5 150,-0.5"/>
<text text-anchor="start" x="158" y="-18.5" font-family="Helvetica,sans-Serif" font-size="10.00">vpr::Allocator::Allocate</text>
<text text-anchor="middle" x="207" y="-7.5" font-family="Helvetica,sans-Serif" font-size="10.00">ForImage</text>
</a>
</g>
</g>
<!-- Node22&#45;&gt;Node24 -->
<g id="edge2" class="edge"><title>Node22&#45;&gt;Node24</title>
<path fill="none" stroke="midnightblue" d="M124.28,-28.7519C132.796,-27.371 141.449,-25.9678 149.782,-24.6164"/>
<polygon fill="midnightblue" stroke="midnightblue" points="123.685,-25.3025 114.375,-30.3582 124.806,-32.2122 123.685,-25.3025"/>
</g>
</g>
</svg>
