<?xml version="1.0" encoding="UTF-8" standalone="no"?>
<!DOCTYPE svg PUBLIC "-//W3C//DTD SVG 1.1//EN"
 "http://www.w3.org/Graphics/SVG/1.1/DTD/svg11.dtd">
<!-- Generated by graphviz version 2.38.0 (20140413.2041)
 -->
<!-- Title: vpr::MemoryBlock::mergeFreeWithNext Pages: 1 -->
<svg width="522pt" height="39pt"
 viewBox="0.00 0.00 522.00 39.00" xmlns="http://www.w3.org/2000/svg" xmlns:xlink="http://www.w3.org/1999/xlink">
<g id="graph0" class="graph" transform="scale(1 1) rotate(0) translate(4 35)">
<title>vpr::MemoryBlock::mergeFreeWithNext</title>
<polygon fill="white" stroke="none" points="-4,4 -4,-35 518,-35 518,4 -4,4"/>
<!-- Node71 -->
<g id="node1" class="node"><title>Node71</title>
<polygon fill="#bfbfbf" stroke="black" points="0,-0.5 0,-30.5 147,-30.5 147,-0.5 0,-0.5"/>
<text text-anchor="start" x="8" y="-18.5" font-family="Helvetica,sans-Serif" font-size="10.00">vpr::MemoryBlock::mergeFree</text>
<text text-anchor="middle" x="73.5" y="-7.5" font-family="Helvetica,sans-Serif" font-size="10.00">WithNext</text>
</g>
<!-- Node72 -->
<g id="node2" class="node"><title>Node72</title>
<g id="a_node2"><a xlink:href="classvpr_1_1_memory_block.html#a3aa9297d61b2cd0d71588c7bf8e7b47e" target="_top" xlink:title="Changes the item pointed to by the iterator to be a free type, then adds the now&#45;available size to av...">
<polygon fill="white" stroke="black" points="183,-6 183,-25 358,-25 358,-6 183,-6"/>
<text text-anchor="middle" x="270.5" y="-13" font-family="Helvetica,sans-Serif" font-size="10.00">vpr::MemoryBlock::freeSuballocation</text>
</a>
</g>
</g>
<!-- Node71&#45;&gt;Node72 -->
<g id="edge1" class="edge"><title>Node71&#45;&gt;Node72</title>
<path fill="none" stroke="midnightblue" d="M157.363,-15.5C165.844,-15.5 174.476,-15.5 182.994,-15.5"/>
<polygon fill="midnightblue" stroke="midnightblue" points="157.111,-12.0001 147.111,-15.5 157.111,-19.0001 157.111,-12.0001"/>
</g>
<!-- Node73 -->
<g id="node3" class="node"><title>Node73</title>
<g id="a_node3"><a xlink:href="classvpr_1_1_memory_block.html#a88cde43def4e7d21b8a782554497b064" target="_top" xlink:title="Frees memory in region specified (i.e frees/destroys a suballocation) ">
<polygon fill="white" stroke="black" points="394,-6 394,-25 514,-25 514,-6 394,-6"/>
<text text-anchor="middle" x="454" y="-13" font-family="Helvetica,sans-Serif" font-size="10.00">vpr::MemoryBlock::Free</text>
</a>
</g>
</g>
<!-- Node72&#45;&gt;Node73 -->
<g id="edge2" class="edge"><title>Node72&#45;&gt;Node73</title>
<path fill="none" stroke="midnightblue" d="M368.417,-15.5C377.054,-15.5 385.616,-15.5 393.788,-15.5"/>
<polygon fill="midnightblue" stroke="midnightblue" points="368.263,-12.0001 358.263,-15.5 368.263,-19.0001 368.263,-12.0001"/>
</g>
</g>
</svg>
