<?xml version="1.0" encoding="UTF-8" standalone="no"?>
<!DOCTYPE svg PUBLIC "-//W3C//DTD SVG 1.1//EN"
 "http://www.w3.org/Graphics/SVG/1.1/DTD/svg11.dtd">
<!-- Generated by graphviz version 2.38.0 (20140413.2041)
 -->
<!-- Title: el::LevelHelper::forEachLevel Pages: 1 -->
<svg width="787pt" height="284pt"
 viewBox="0.00 0.00 787.00 284.00" xmlns="http://www.w3.org/2000/svg" xmlns:xlink="http://www.w3.org/1999/xlink">
<g id="graph0" class="graph" transform="scale(1 1) rotate(0) translate(4 280)">
<title>el::LevelHelper::forEachLevel</title>
<polygon fill="white" stroke="none" points="-4,4 -4,-280 783,-280 783,4 -4,4"/>
<!-- Node43 -->
<g id="node1" class="node"><title>Node43</title>
<polygon fill="#bfbfbf" stroke="black" points="0,-127.5 0,-157.5 119,-157.5 119,-127.5 0,-127.5"/>
<text text-anchor="start" x="8" y="-145.5" font-family="Helvetica,sans-Serif" font-size="10.00">el::LevelHelper::forEach</text>
<text text-anchor="middle" x="59.5" y="-134.5" font-family="Helvetica,sans-Serif" font-size="10.00">Level</text>
</g>
<!-- Node44 -->
<g id="node2" class="node"><title>Node44</title>
<g id="a_node2"><a xlink:href="classel_1_1_logger.html#a9a89d454008b1ee1a197eec4b92ce22a" target="_top" xlink:title="Flushes logger to sync all log files for all levels. ">
<polygon fill="white" stroke="black" points="174.5,-251 174.5,-270 260.5,-270 260.5,-251 174.5,-251"/>
<text text-anchor="middle" x="217.5" y="-258" font-family="Helvetica,sans-Serif" font-size="10.00">el::Logger::flush</text>
</a>
</g>
</g>
<!-- Node43&#45;&gt;Node44 -->
<g id="edge1" class="edge"><title>Node43&#45;&gt;Node44</title>
<path fill="none" stroke="midnightblue" d="M77.1139,-165.846C94.2343,-188.284 122.893,-221.631 155,-241.5 161.177,-245.322 168.182,-248.429 175.196,-250.936"/>
<polygon fill="midnightblue" stroke="midnightblue" points="79.708,-163.47 70.9249,-157.545 74.0959,-167.654 79.708,-163.47"/>
</g>
<!-- Node57 -->
<g id="node11" class="node"><title>Node57</title>
<g id="a_node11"><a xlink:href="classel_1_1_configurations.html#a1e812370f896b6429bf46b31fcd4e3e0" target="_top" xlink:title="Determines whether or not specified configuration type exists in the repository. ">
<polygon fill="white" stroke="black" points="170,-201.5 170,-231.5 265,-231.5 265,-201.5 170,-201.5"/>
<text text-anchor="start" x="178" y="-219.5" font-family="Helvetica,sans-Serif" font-size="10.00">el::Configurations</text>
<text text-anchor="middle" x="217.5" y="-208.5" font-family="Helvetica,sans-Serif" font-size="10.00">::hasConfiguration</text>
</a>
</g>
</g>
<!-- Node43&#45;&gt;Node57 -->
<g id="edge10" class="edge"><title>Node43&#45;&gt;Node57</title>
<path fill="none" stroke="midnightblue" d="M95.7518,-162.386C113.318,-171.976 135.024,-183.354 155,-192.5 161.669,-195.554 168.848,-198.58 175.864,-201.403"/>
<polygon fill="midnightblue" stroke="midnightblue" points="97.4229,-159.311 86.9745,-157.555 94.0476,-165.443 97.4229,-159.311"/>
</g>
<!-- Node58 -->
<g id="node12" class="node"><title>Node58</title>
<g id="a_node12"><a xlink:href="classel_1_1_logger.html#ae7c1d538f6163b6be5d37dafcaf24610" target="_top" xlink:title="el::Logger::initUnflushed\lCount">
<polygon fill="white" stroke="black" points="157,-103.5 157,-133.5 278,-133.5 278,-103.5 157,-103.5"/>
<text text-anchor="start" x="165" y="-121.5" font-family="Helvetica,sans-Serif" font-size="10.00">el::Logger::initUnflushed</text>
<text text-anchor="middle" x="217.5" y="-110.5" font-family="Helvetica,sans-Serif" font-size="10.00">Count</text>
</a>
</g>
</g>
<!-- Node43&#45;&gt;Node58 -->
<g id="edge12" class="edge"><title>Node43&#45;&gt;Node58</title>
<path fill="none" stroke="midnightblue" d="M129.007,-131.961C138.288,-130.533 147.751,-129.077 156.86,-127.675"/>
<polygon fill="midnightblue" stroke="midnightblue" points="128.384,-128.515 119.032,-133.495 129.448,-135.434 128.384,-128.515"/>
</g>
<!-- Node60 -->
<g id="node14" class="node"><title>Node60</title>
<g id="a_node14"><a xlink:href="classel_1_1_logger.html#acfb9ef869b9b4dc3efd78d7f64b8bebd" target="_top" xlink:title="el::Logger::resolveLogger\lFormatSpec">
<polygon fill="white" stroke="black" points="155,-152.5 155,-182.5 280,-182.5 280,-152.5 155,-152.5"/>
<text text-anchor="start" x="163" y="-170.5" font-family="Helvetica,sans-Serif" font-size="10.00">el::Logger::resolveLogger</text>
<text text-anchor="middle" x="217.5" y="-159.5" font-family="Helvetica,sans-Serif" font-size="10.00">FormatSpec</text>
</a>
</g>
</g>
<!-- Node43&#45;&gt;Node60 -->
<g id="edge15" class="edge"><title>Node43&#45;&gt;Node60</title>
<path fill="none" stroke="midnightblue" d="M129.002,-153.478C137.578,-154.852 146.309,-156.251 154.772,-157.608"/>
<polygon fill="midnightblue" stroke="midnightblue" points="129.46,-150.007 119.032,-151.88 128.353,-156.919 129.46,-150.007"/>
</g>
<!-- Node61 -->
<g id="node15" class="node"><title>Node61</title>
<g id="a_node15"><a xlink:href="classel_1_1_configurations.html#ac658068ac7454b47284e211e16da5b18" target="_top" xlink:title="Sets configurations for all levels including Level::Global if includeGlobalLevel is true...">
<polygon fill="white" stroke="black" points="171.5,-5.5 171.5,-35.5 263.5,-35.5 263.5,-5.5 171.5,-5.5"/>
<text text-anchor="start" x="179.5" y="-23.5" font-family="Helvetica,sans-Serif" font-size="10.00">el::Configurations</text>
<text text-anchor="middle" x="217.5" y="-12.5" font-family="Helvetica,sans-Serif" font-size="10.00">::setGlobally</text>
</a>
</g>
</g>
<!-- Node43&#45;&gt;Node61 -->
<g id="edge17" class="edge"><title>Node43&#45;&gt;Node61</title>
<path fill="none" stroke="midnightblue" d="M78.0661,-119.159C95.523,-97.3327 124.093,-65.0966 155,-44.5 160.055,-41.1314 165.653,-38.1289 171.352,-35.4853"/>
<polygon fill="midnightblue" stroke="midnightblue" points="75.1389,-117.219 71.7223,-127.248 80.6473,-121.539 75.1389,-117.219"/>
</g>
<!-- Node62 -->
<g id="node16" class="node"><title>Node62</title>
<g id="a_node16"><a xlink:href="classel_1_1_configurations.html#a800efb58724eb771027135b282eae512" target="_top" xlink:title="Sets configurations (Unsafely) for all levels including Level::Global if includeGlobalLevel is true...">
<polygon fill="white" stroke="black" points="167,-54.5 167,-84.5 268,-84.5 268,-54.5 167,-54.5"/>
<text text-anchor="start" x="175" y="-72.5" font-family="Helvetica,sans-Serif" font-size="10.00">el::Configurations</text>
<text text-anchor="middle" x="217.5" y="-61.5" font-family="Helvetica,sans-Serif" font-size="10.00">::unsafeSetGlobally</text>
</a>
</g>
</g>
<!-- Node43&#45;&gt;Node62 -->
<g id="edge18" class="edge"><title>Node43&#45;&gt;Node62</title>
<path fill="none" stroke="midnightblue" d="M97.8975,-122.593C115.122,-113.661 135.931,-103.2 155,-94.5 162.34,-91.1511 170.264,-87.7645 177.904,-84.6111"/>
<polygon fill="midnightblue" stroke="midnightblue" points="95.9765,-119.648 88.7307,-127.378 99.2153,-125.854 95.9765,-119.648"/>
</g>
<!-- Node45 -->
<g id="node3" class="node"><title>Node45</title>
<g id="a_node3"><a xlink:href="classel_1_1_logger.html#ad9db621dbf8977bf814dc7baea8dcee4" target="_top" xlink:title="Configures the logger using specified configurations. ">
<polygon fill="white" stroke="black" points="334.5,-172 334.5,-191 438.5,-191 438.5,-172 334.5,-172"/>
<text text-anchor="middle" x="386.5" y="-179" font-family="Helvetica,sans-Serif" font-size="10.00">el::Logger::configure</text>
</a>
</g>
</g>
<!-- Node44&#45;&gt;Node45 -->
<g id="edge2" class="edge"><title>Node44&#45;&gt;Node45</title>
<path fill="none" stroke="midnightblue" d="M263.917,-247.702C269.401,-245.796 274.872,-243.719 280,-241.5 314.035,-226.773 351.137,-203.936 371.002,-191.101"/>
<polygon fill="midnightblue" stroke="midnightblue" points="262.501,-244.483 254.102,-250.941 264.695,-251.13 262.501,-244.483"/>
</g>
<!-- Node56 -->
<g id="node10" class="node"><title>Node56</title>
<g id="a_node10"><a xlink:href="classel_1_1base_1_1_default_log_dispatch_callback.html#adc7c200395c99534d55cb23cfabafcb1" target="_top" xlink:title="el::base::DefaultLogDispatch\lCallback::dispatch">
<polygon fill="white" stroke="black" points="316,-245.5 316,-275.5 457,-275.5 457,-245.5 316,-245.5"/>
<text text-anchor="start" x="324" y="-263.5" font-family="Helvetica,sans-Serif" font-size="10.00">el::base::DefaultLogDispatch</text>
<text text-anchor="middle" x="386.5" y="-252.5" font-family="Helvetica,sans-Serif" font-size="10.00">Callback::dispatch</text>
</a>
</g>
</g>
<!-- Node44&#45;&gt;Node56 -->
<g id="edge9" class="edge"><title>Node44&#45;&gt;Node56</title>
<path fill="none" stroke="midnightblue" d="M270.745,-260.5C285.007,-260.5 300.69,-260.5 315.758,-260.5"/>
<polygon fill="midnightblue" stroke="midnightblue" points="270.641,-257 260.641,-260.5 270.641,-264 270.641,-257"/>
</g>
<!-- Node46 -->
<g id="node4" class="node"><title>Node46</title>
<g id="a_node4"><a xlink:href="classel_1_1_logger.html#a43abea8865d7316f05c8a676a8c04896" target="_top" xlink:title="el::Logger::Logger">
<polygon fill="white" stroke="black" points="511.5,-142 511.5,-161 606.5,-161 606.5,-142 511.5,-142"/>
<text text-anchor="middle" x="559" y="-149" font-family="Helvetica,sans-Serif" font-size="10.00">el::Logger::Logger</text>
</a>
</g>
</g>
<!-- Node45&#45;&gt;Node46 -->
<g id="edge3" class="edge"><title>Node45&#45;&gt;Node46</title>
<path fill="none" stroke="midnightblue" d="M448.593,-170.751C469.22,-167.121 491.904,-163.13 511.243,-159.727"/>
<polygon fill="midnightblue" stroke="midnightblue" points="447.898,-167.319 438.656,-172.499 449.111,-174.213 447.898,-167.319"/>
</g>
<!-- Node47 -->
<g id="node5" class="node"><title>Node47</title>
<g id="a_node5"><a xlink:href="classel_1_1_logger.html#adfd57ab27fb398cc980a3edfab92927e" target="_top" xlink:title="Reconfigures logger using existing configurations. ">
<polygon fill="white" stroke="red" points="502.5,-104 502.5,-123 615.5,-123 615.5,-104 502.5,-104"/>
<text text-anchor="middle" x="559" y="-111" font-family="Helvetica,sans-Serif" font-size="10.00">el::Logger::reconfigure</text>
</a>
</g>
</g>
<!-- Node45&#45;&gt;Node47 -->
<g id="edge4" class="edge"><title>Node45&#45;&gt;Node47</title>
<path fill="none" stroke="midnightblue" d="M414.801,-167.436C435.82,-156.949 465.788,-142.73 493,-132.5 502.134,-129.066 512.178,-125.862 521.582,-123.099"/>
<polygon fill="midnightblue" stroke="midnightblue" points="413.17,-164.338 405.815,-171.964 416.32,-170.589 413.17,-164.338"/>
</g>
<!-- Node51 -->
<g id="node8" class="node"><title>Node51</title>
<g id="a_node8"><a xlink:href="classel_1_1_loggers.html#a02223004494a404a2c3e7cd0c4380d3b" target="_top" xlink:title="Reconfigures specified logger with new configurations. ">
<polygon fill="white" stroke="red" points="500,-229.5 500,-259.5 618,-259.5 618,-229.5 500,-229.5"/>
<text text-anchor="start" x="508" y="-247.5" font-family="Helvetica,sans-Serif" font-size="10.00">el::Loggers::reconfigure</text>
<text text-anchor="middle" x="559" y="-236.5" font-family="Helvetica,sans-Serif" font-size="10.00">Logger</text>
</a>
</g>
</g>
<!-- Node45&#45;&gt;Node51 -->
<g id="edge7" class="edge"><title>Node45&#45;&gt;Node51</title>
<path fill="none" stroke="midnightblue" d="M423.057,-194.648C443.514,-202.212 469.703,-211.893 493,-220.5 500.786,-223.376 509.097,-226.446 517.084,-229.395"/>
<polygon fill="midnightblue" stroke="midnightblue" points="424.106,-191.304 413.513,-191.119 421.678,-197.87 424.106,-191.304"/>
</g>
<!-- Node55 -->
<g id="node9" class="node"><title>Node55</title>
<g id="a_node9"><a xlink:href="classel_1_1_loggers.html#adedfcc17831fe3d3f14026c91e8df88c" target="_top" xlink:title="Sets configurations from global configuration file. ">
<polygon fill="white" stroke="black" points="493,-180.5 493,-210.5 625,-210.5 625,-180.5 493,-180.5"/>
<text text-anchor="start" x="501" y="-198.5" font-family="Helvetica,sans-Serif" font-size="10.00">el::Loggers::configureFrom</text>
<text text-anchor="middle" x="559" y="-187.5" font-family="Helvetica,sans-Serif" font-size="10.00">Global</text>
</a>
</g>
</g>
<!-- Node45&#45;&gt;Node55 -->
<g id="edge8" class="edge"><title>Node45&#45;&gt;Node55</title>
<path fill="none" stroke="midnightblue" d="M448.88,-186.54C463.194,-187.715 478.485,-188.971 492.952,-190.159"/>
<polygon fill="midnightblue" stroke="midnightblue" points="448.909,-183.031 438.656,-185.7 448.336,-190.007 448.909,-183.031"/>
</g>
<!-- Node49 -->
<g id="node6" class="node"><title>Node49</title>
<g id="a_node6"><a xlink:href="classel_1_1_loggers.html#a89ec21259cfcfee3f761fca68c4ec043" target="_top" xlink:title="Reconfigures logger&#39;s single configuration. ">
<polygon fill="white" stroke="black" points="661,-49.5 661,-79.5 779,-79.5 779,-49.5 661,-49.5"/>
<text text-anchor="start" x="669" y="-67.5" font-family="Helvetica,sans-Serif" font-size="10.00">el::Loggers::reconfigure</text>
<text text-anchor="middle" x="720" y="-56.5" font-family="Helvetica,sans-Serif" font-size="10.00">Logger</text>
</a>
</g>
</g>
<!-- Node47&#45;&gt;Node49 -->
<g id="edge5" class="edge"><title>Node47&#45;&gt;Node49</title>
<path fill="none" stroke="midnightblue" d="M602.712,-101.177C610.151,-98.9846 617.808,-96.6985 625,-94.5 640.563,-89.7427 657.52,-84.3849 672.694,-79.5274"/>
<polygon fill="midnightblue" stroke="midnightblue" points="601.726,-97.8191 593.114,-103.991 603.695,-104.536 601.726,-97.8191"/>
</g>
<!-- Node50 -->
<g id="node7" class="node"><title>Node50</title>
<g id="a_node7"><a xlink:href="classel_1_1_loggers.html#a396b601e204ede36f5a9acc76a8c5585" target="_top" xlink:title="Reconfigures single configuration for all the loggers for specified level. ">
<polygon fill="white" stroke="black" points="661,-98.5 661,-128.5 779,-128.5 779,-98.5 661,-98.5"/>
<text text-anchor="start" x="669" y="-116.5" font-family="Helvetica,sans-Serif" font-size="10.00">el::Loggers::reconfigure</text>
<text text-anchor="middle" x="720" y="-105.5" font-family="Helvetica,sans-Serif" font-size="10.00">AllLoggers</text>
</a>
</g>
</g>
<!-- Node47&#45;&gt;Node50 -->
<g id="edge6" class="edge"><title>Node47&#45;&gt;Node50</title>
<path fill="none" stroke="midnightblue" d="M625.751,-113.5C637.44,-113.5 649.538,-113.5 660.993,-113.5"/>
<polygon fill="midnightblue" stroke="midnightblue" points="625.611,-110 615.61,-113.5 625.61,-117 625.611,-110"/>
</g>
<!-- Node57&#45;&gt;Node45 -->
<g id="edge11" class="edge"><title>Node57&#45;&gt;Node45</title>
<path fill="none" stroke="midnightblue" d="M274.886,-204.683C296.123,-200.232 319.986,-195.231 340.096,-191.016"/>
<polygon fill="midnightblue" stroke="midnightblue" points="274.088,-201.274 265.019,-206.751 275.524,-208.125 274.088,-201.274"/>
</g>
<!-- Node58&#45;&gt;Node45 -->
<g id="edge14" class="edge"><title>Node58&#45;&gt;Node45</title>
<path fill="none" stroke="midnightblue" d="M268.018,-137.181C298.183,-148.56 335.481,-162.63 359.851,-171.824"/>
<polygon fill="midnightblue" stroke="midnightblue" points="269.092,-133.845 258.501,-133.59 266.622,-140.395 269.092,-133.845"/>
</g>
<!-- Node59 -->
<g id="node13" class="node"><title>Node59</title>
<g id="a_node13"><a xlink:href="classel_1_1_logger.html#a59b1c5a0f8c5c670e59d2f69f9e39fbb" target="_top" xlink:title="el::Logger::Logger">
<polygon fill="white" stroke="black" points="339,-109 339,-128 434,-128 434,-109 339,-109"/>
<text text-anchor="middle" x="386.5" y="-116" font-family="Helvetica,sans-Serif" font-size="10.00">el::Logger::Logger</text>
</a>
</g>
</g>
<!-- Node58&#45;&gt;Node59 -->
<g id="edge13" class="edge"><title>Node58&#45;&gt;Node59</title>
<path fill="none" stroke="midnightblue" d="M288.746,-118.5C305.689,-118.5 323.38,-118.5 338.93,-118.5"/>
<polygon fill="midnightblue" stroke="midnightblue" points="288.319,-115 278.319,-118.5 288.319,-122 288.319,-115"/>
</g>
<!-- Node60&#45;&gt;Node45 -->
<g id="edge16" class="edge"><title>Node60&#45;&gt;Node45</title>
<path fill="none" stroke="midnightblue" d="M290.372,-173.525C305.199,-174.768 320.525,-176.053 334.43,-177.219"/>
<polygon fill="midnightblue" stroke="midnightblue" points="290.468,-170.021 280.21,-172.673 289.883,-176.997 290.468,-170.021"/>
</g>
<!-- Node63 -->
<g id="node17" class="node"><title>Node63</title>
<g id="a_node17"><a xlink:href="classel_1_1_configurations.html#a332717de96efc851a202b7afcc5e395c" target="_top" xlink:title="Sets value of configuration for specified level. ">
<polygon fill="white" stroke="black" points="503.5,-16 503.5,-35 614.5,-35 614.5,-16 503.5,-16"/>
<text text-anchor="middle" x="559" y="-23" font-family="Helvetica,sans-Serif" font-size="10.00">el::Configurations::set</text>
</a>
</g>
</g>
<!-- Node62&#45;&gt;Node63 -->
<g id="edge19" class="edge"><title>Node62&#45;&gt;Node63</title>
<path fill="none" stroke="midnightblue" d="M278.067,-52.4918C290.517,-49.4269 303.622,-46.557 316,-44.5 379.815,-33.8952 454.108,-29.1767 503.371,-27.0984"/>
<polygon fill="midnightblue" stroke="midnightblue" points="277.083,-49.1305 268.249,-54.9799 278.802,-55.916 277.083,-49.1305"/>
</g>
<!-- Node65 -->
<g id="node19" class="node"><title>Node65</title>
<g id="a_node19"><a xlink:href="classel_1_1_configurations.html#a05c373510ca513e4f61999c84d512831" target="_top" xlink:title="Thread unsafe set. ">
<polygon fill="white" stroke="black" points="340.5,-54.5 340.5,-84.5 432.5,-84.5 432.5,-54.5 340.5,-54.5"/>
<text text-anchor="start" x="348.5" y="-72.5" font-family="Helvetica,sans-Serif" font-size="10.00">el::Configurations</text>
<text text-anchor="middle" x="386.5" y="-61.5" font-family="Helvetica,sans-Serif" font-size="10.00">::unsafeSet</text>
</a>
</g>
</g>
<!-- Node62&#45;&gt;Node65 -->
<g id="edge23" class="edge"><title>Node62&#45;&gt;Node65</title>
<path fill="none" stroke="midnightblue" d="M278.305,-62.9976C298.734,-62.5598 321.226,-62.7026 340.309,-63.4258"/>
<polygon fill="midnightblue" stroke="midnightblue" points="278.056,-59.5029 268.153,-63.2692 278.243,-66.5004 278.056,-59.5029"/>
</g>
<!-- Node63&#45;&gt;Node49 -->
<g id="edge22" class="edge"><title>Node63&#45;&gt;Node49</title>
<path fill="none" stroke="midnightblue" d="M608.849,-37.4819C625.316,-41.5208 643.853,-46.0678 660.958,-50.2634"/>
<polygon fill="midnightblue" stroke="midnightblue" points="609.442,-34.0235 598.896,-35.0405 607.774,-40.822 609.442,-34.0235"/>
</g>
<!-- Node63&#45;&gt;Node50 -->
<g id="edge21" class="edge"><title>Node63&#45;&gt;Node50</title>
<path fill="none" stroke="midnightblue" d="M615.242,-38.977C618.652,-40.6156 621.938,-42.4491 625,-44.5 646.279,-58.7545 640.521,-74.1182 661,-89.5 665.444,-92.8377 670.419,-95.7981 675.537,-98.399"/>
<polygon fill="midnightblue" stroke="midnightblue" points="616.57,-35.7385 605.996,-35.0792 613.851,-42.1888 616.57,-35.7385"/>
</g>
<!-- Node64 -->
<g id="node18" class="node"><title>Node64</title>
<g id="a_node18"><a xlink:href="classel_1_1_configurations_1_1_parser.html#a70e0d8b27e7c1b5dd94e6838c304a751" target="_top" xlink:title="el::Configurations\l::Parser::parseLine">
<polygon fill="white" stroke="black" points="670.5,-0.5 670.5,-30.5 769.5,-30.5 769.5,-0.5 670.5,-0.5"/>
<text text-anchor="start" x="678.5" y="-18.5" font-family="Helvetica,sans-Serif" font-size="10.00">el::Configurations</text>
<text text-anchor="middle" x="720" y="-7.5" font-family="Helvetica,sans-Serif" font-size="10.00">::Parser::parseLine</text>
</a>
</g>
</g>
<!-- Node63&#45;&gt;Node64 -->
<g id="edge20" class="edge"><title>Node63&#45;&gt;Node64</title>
<path fill="none" stroke="midnightblue" d="M625.047,-21.409C640.173,-20.4577 656.021,-19.461 670.301,-18.5629"/>
<polygon fill="midnightblue" stroke="midnightblue" points="624.479,-17.9377 614.719,-22.0586 624.919,-24.9239 624.479,-17.9377"/>
</g>
<!-- Node65&#45;&gt;Node62 -->
<g id="edge25" class="edge"><title>Node65&#45;&gt;Node62</title>
<path fill="none" stroke="midnightblue" d="M330.096,-75.8982C310.086,-76.4177 287.64,-76.3618 268.153,-75.7308"/>
<polygon fill="midnightblue" stroke="midnightblue" points="330.425,-79.3896 340.309,-75.5742 330.203,-72.3932 330.425,-79.3896"/>
</g>
<!-- Node65&#45;&gt;Node63 -->
<g id="edge24" class="edge"><title>Node65&#45;&gt;Node63</title>
<path fill="none" stroke="midnightblue" d="M442.727,-55.2478C468.417,-48.6182 498.277,-40.9125 521.168,-35.005"/>
<polygon fill="midnightblue" stroke="midnightblue" points="441.551,-51.9365 432.743,-57.8243 443.301,-58.7144 441.551,-51.9365"/>
</g>
<!-- Node66 -->
<g id="node20" class="node"><title>Node66</title>
<g id="a_node20"><a xlink:href="classel_1_1_configurations.html#a84c06d47e550b5eda3060f399698ec28" target="_top" xlink:title="Unsafely sets configuration if does not already exist. ">
<polygon fill="white" stroke="red" points="505,-54.5 505,-84.5 613,-84.5 613,-54.5 505,-54.5"/>
<text text-anchor="start" x="513" y="-72.5" font-family="Helvetica,sans-Serif" font-size="10.00">el::Configurations</text>
<text text-anchor="middle" x="559" y="-61.5" font-family="Helvetica,sans-Serif" font-size="10.00">::unsafeSetIfNotExist</text>
</a>
</g>
</g>
<!-- Node65&#45;&gt;Node66 -->
<g id="edge26" class="edge"><title>Node65&#45;&gt;Node66</title>
<path fill="none" stroke="midnightblue" d="M442.91,-69.5C462.838,-69.5 485.256,-69.5 504.976,-69.5"/>
<polygon fill="midnightblue" stroke="midnightblue" points="442.743,-66.0001 432.743,-69.5 442.743,-73.0001 442.743,-66.0001"/>
</g>
</g>
</svg>
