<?xml version="1.0" encoding="UTF-8" standalone="no"?>
<!DOCTYPE svg PUBLIC "-//W3C//DTD SVG 1.1//EN"
 "http://www.w3.org/Graphics/SVG/1.1/DTD/svg11.dtd">
<!-- Generated by graphviz version 2.38.0 (20140413.2041)
 -->
<!-- Title: vpr::Instance::CreateSurfaceKHR Pages: 1 -->
<svg width="341pt" height="78pt"
 viewBox="0.00 0.00 341.00 77.50" xmlns="http://www.w3.org/2000/svg" xmlns:xlink="http://www.w3.org/1999/xlink">
<g id="graph0" class="graph" transform="scale(1 1) rotate(0) translate(4 73.5)">
<title>vpr::Instance::CreateSurfaceKHR</title>
<polygon fill="white" stroke="none" points="-4,4 -4,-73.5 337,-73.5 337,4 -4,4"/>
<!-- Node40 -->
<g id="node1" class="node"><title>Node40</title>
<polygon fill="#bfbfbf" stroke="black" points="0,-28 0,-47 159,-47 159,-28 0,-28"/>
<text text-anchor="middle" x="79.5" y="-35" font-family="Helvetica,sans-Serif" font-size="10.00">vpr::Instance::CreateSurfaceKHR</text>
</g>
<!-- Node41 -->
<g id="node2" class="node"><title>Node41</title>
<g id="a_node2"><a xlink:href="classvpr_1_1_instance.html#a875cd0ca8909a26c346b9d83b85280a2" target="_top" xlink:title="vpr::Instance::Instance">
<polygon fill="white" stroke="black" points="207,-50 207,-69 321,-69 321,-50 207,-50"/>
<text text-anchor="middle" x="264" y="-57" font-family="Helvetica,sans-Serif" font-size="10.00">vpr::Instance::Instance</text>
</a>
</g>
</g>
<!-- Node40&#45;&gt;Node41 -->
<g id="edge1" class="edge"><title>Node40&#45;&gt;Node41</title>
<path fill="none" stroke="midnightblue" d="M169.406,-48.2174C182.146,-49.7532 194.947,-51.2963 206.814,-52.7269"/>
<polygon fill="midnightblue" stroke="midnightblue" points="169.568,-44.7117 159.221,-46.9896 168.73,-51.6614 169.568,-44.7117"/>
</g>
<!-- Node42 -->
<g id="node3" class="node"><title>Node42</title>
<g id="a_node3"><a xlink:href="namespacevpr.html#a94afd8081f855771118d14af569f9bba" target="_top" xlink:title="Pass a swapchain and instance pointer to this to have the swapchain and surface destroyed and recreat...">
<polygon fill="white" stroke="black" points="195,-0.5 195,-30.5 333,-30.5 333,-0.5 195,-0.5"/>
<text text-anchor="start" x="203" y="-18.5" font-family="Helvetica,sans-Serif" font-size="10.00">vpr::RecreateSwapchainAnd</text>
<text text-anchor="middle" x="264" y="-7.5" font-family="Helvetica,sans-Serif" font-size="10.00">Surface</text>
</a>
</g>
</g>
<!-- Node40&#45;&gt;Node42 -->
<g id="edge2" class="edge"><title>Node40&#45;&gt;Node42</title>
<path fill="none" stroke="midnightblue" d="M169.283,-26.7974C177.881,-25.7609 186.509,-24.7209 194.86,-23.7142"/>
<polygon fill="midnightblue" stroke="midnightblue" points="168.73,-23.3386 159.221,-28.0104 169.568,-30.2883 168.73,-23.3386"/>
</g>
</g>
</svg>
