<?xml version="1.0" encoding="UTF-8" standalone="no"?>
<!DOCTYPE svg PUBLIC "-//W3C//DTD SVG 1.1//EN"
 "http://www.w3.org/Graphics/SVG/1.1/DTD/svg11.dtd">
<!-- Generated by graphviz version 2.38.0 (20140413.2041)
 -->
<!-- Title: el::base::utils::Str::convertAndAddToBuff Pages: 1 -->
<svg width="292pt" height="88pt"
 viewBox="0.00 0.00 292.00 88.00" xmlns="http://www.w3.org/2000/svg" xmlns:xlink="http://www.w3.org/1999/xlink">
<g id="graph0" class="graph" transform="scale(1 1) rotate(0) translate(4 84)">
<title>el::base::utils::Str::convertAndAddToBuff</title>
<polygon fill="white" stroke="none" points="-4,4 -4,-84 288,-84 288,4 -4,4"/>
<!-- Node12 -->
<g id="node1" class="node"><title>Node12</title>
<polygon fill="#bfbfbf" stroke="black" points="0,-24.5 0,-54.5 115,-54.5 115,-24.5 0,-24.5"/>
<text text-anchor="start" x="8" y="-42.5" font-family="Helvetica,sans-Serif" font-size="10.00">el::base::utils::Str</text>
<text text-anchor="middle" x="57.5" y="-31.5" font-family="Helvetica,sans-Serif" font-size="10.00">::convertAndAddToBuff</text>
</g>
<!-- Node13 -->
<g id="node2" class="node"><title>Node13</title>
<g id="a_node2"><a xlink:href="classel_1_1base_1_1_default_log_builder.html#a9ee7983bc51f1fac887806e909ecbbbd" target="_top" xlink:title="el::base::DefaultLogBuilder\l::build">
<polygon fill="white" stroke="black" points="151,-49.5 151,-79.5 284,-79.5 284,-49.5 151,-49.5"/>
<text text-anchor="start" x="159" y="-67.5" font-family="Helvetica,sans-Serif" font-size="10.00">el::base::DefaultLogBuilder</text>
<text text-anchor="middle" x="217.5" y="-56.5" font-family="Helvetica,sans-Serif" font-size="10.00">::build</text>
</a>
</g>
</g>
<!-- Node12&#45;&gt;Node13 -->
<g id="edge1" class="edge"><title>Node12&#45;&gt;Node13</title>
<path fill="none" stroke="midnightblue" d="M125.024,-50.026C133.582,-51.3801 142.34,-52.7659 150.883,-54.1176"/>
<polygon fill="midnightblue" stroke="midnightblue" points="125.519,-46.5609 115.095,-48.455 124.425,-53.4749 125.519,-46.5609"/>
</g>
<!-- Node14 -->
<g id="node3" class="node"><title>Node14</title>
<g id="a_node3"><a xlink:href="classel_1_1base_1_1utils_1_1_date_time.html#ae9e46f004059acb5447885e1103c3ea8" target="_top" xlink:title="el::base::utils::DateTime\l::parseFormat">
<polygon fill="white" stroke="black" points="156.5,-0.5 156.5,-30.5 278.5,-30.5 278.5,-0.5 156.5,-0.5"/>
<text text-anchor="start" x="164.5" y="-18.5" font-family="Helvetica,sans-Serif" font-size="10.00">el::base::utils::DateTime</text>
<text text-anchor="middle" x="217.5" y="-7.5" font-family="Helvetica,sans-Serif" font-size="10.00">::parseFormat</text>
</a>
</g>
</g>
<!-- Node12&#45;&gt;Node14 -->
<g id="edge2" class="edge"><title>Node12&#45;&gt;Node14</title>
<path fill="none" stroke="midnightblue" d="M125.272,-29.3575C135.569,-27.7933 146.151,-26.1859 156.294,-24.6452"/>
<polygon fill="midnightblue" stroke="midnightblue" points="124.456,-25.9411 115.095,-30.9032 125.508,-32.8617 124.456,-25.9411"/>
</g>
</g>
</svg>
