<?xml version="1.0" encoding="UTF-8" standalone="no"?>
<!DOCTYPE svg PUBLIC "-//W3C//DTD SVG 1.1//EN"
 "http://www.w3.org/Graphics/SVG/1.1/DTD/svg11.dtd">
<!-- Generated by graphviz version 2.38.0 (20140413.2041)
 -->
<!-- Title: vpr::DescriptorSet::allocate Pages: 1 -->
<svg width="564pt" height="108pt"
 viewBox="0.00 0.00 564.00 107.72" xmlns="http://www.w3.org/2000/svg" xmlns:xlink="http://www.w3.org/1999/xlink">
<g id="graph0" class="graph" transform="scale(1 1) rotate(0) translate(4 103.721)">
<title>vpr::DescriptorSet::allocate</title>
<polygon fill="white" stroke="none" points="-4,4 -4,-103.721 560,-103.721 560,4 -4,4"/>
<!-- Node16 -->
<g id="node1" class="node"><title>Node16</title>
<polygon fill="#bfbfbf" stroke="black" points="0,-20.2213 0,-50.2213 94,-50.2213 94,-20.2213 0,-20.2213"/>
<text text-anchor="start" x="8" y="-38.2213" font-family="Helvetica,sans-Serif" font-size="10.00">vpr::DescriptorSet</text>
<text text-anchor="middle" x="47" y="-27.2213" font-family="Helvetica,sans-Serif" font-size="10.00">::allocate</text>
</g>
<!-- Node17 -->
<g id="node2" class="node"><title>Node17</title>
<g id="a_node2"><a xlink:href="classvpr_1_1_descriptor_pool.html#ad9e6ae11354daa77e3f62c941b9b98eb" target="_top" xlink:title="vpr::DescriptorPool\l::vkHandle">
<polygon fill="white" stroke="black" points="142.5,-69.2213 142.5,-99.2213 240.5,-99.2213 240.5,-69.2213 142.5,-69.2213"/>
<text text-anchor="start" x="150.5" y="-87.2213" font-family="Helvetica,sans-Serif" font-size="10.00">vpr::DescriptorPool</text>
<text text-anchor="middle" x="191.5" y="-76.2213" font-family="Helvetica,sans-Serif" font-size="10.00">::vkHandle</text>
</a>
</g>
</g>
<!-- Node16&#45;&gt;Node17 -->
<g id="edge1" class="edge"><title>Node16&#45;&gt;Node17</title>
<path fill="none" stroke="midnightblue" d="M91.9175,-50.3228C106.139,-55.213 122.073,-60.692 136.915,-65.7957"/>
<polygon fill="midnightblue" stroke="midnightblue" points="135.888,-69.1434 146.482,-69.0854 138.164,-62.5238 135.888,-69.1434"/>
</g>
<!-- Node18 -->
<g id="node3" class="node"><title>Node18</title>
<g id="a_node3"><a xlink:href="classvpr_1_1_descriptor_set_layout.html#ac798e1138e8a7a380653b27fe7e06058" target="_top" xlink:title="vpr::DescriptorSetLayout\l::vkHandle">
<polygon fill="white" stroke="black" points="130,-20.2213 130,-50.2213 253,-50.2213 253,-20.2213 130,-20.2213"/>
<text text-anchor="start" x="138" y="-38.2213" font-family="Helvetica,sans-Serif" font-size="10.00">vpr::DescriptorSetLayout</text>
<text text-anchor="middle" x="191.5" y="-27.2213" font-family="Helvetica,sans-Serif" font-size="10.00">::vkHandle</text>
</a>
</g>
</g>
<!-- Node16&#45;&gt;Node18 -->
<g id="edge2" class="edge"><title>Node16&#45;&gt;Node18</title>
<path fill="none" stroke="midnightblue" d="M94.2657,-35.2213C102.443,-35.2213 111.124,-35.2213 119.793,-35.2213"/>
<polygon fill="midnightblue" stroke="midnightblue" points="119.935,-38.7214 129.935,-35.2213 119.935,-31.7214 119.935,-38.7214"/>
</g>
<!-- Node20 -->
<g id="node5" class="node"><title>Node20</title>
<g id="a_node5"><a xlink:href="classvpr_1_1_device.html#a59882855173bef0b13a17b376ea01d45" target="_top" xlink:title="vpr::Device::vkHandle">
<polygon fill="white" stroke="black" points="448,-3.72133 448,-22.7213 556,-22.7213 556,-3.72133 448,-3.72133"/>
<text text-anchor="middle" x="502" y="-10.7213" font-family="Helvetica,sans-Serif" font-size="10.00">vpr::Device::vkHandle</text>
</a>
</g>
</g>
<!-- Node16&#45;&gt;Node20 -->
<g id="edge5" class="edge"><title>Node16&#45;&gt;Node20</title>
<path fill="none" stroke="midnightblue" d="M88.7471,-20.2039C101.745,-16.1191 116.31,-12.2619 130,-10.2213 237.089,5.74057 363.5,-0.55265 437.688,-6.75674"/>
<polygon fill="midnightblue" stroke="midnightblue" points="437.538,-10.2567 447.802,-7.62924 438.14,-3.28264 437.538,-10.2567"/>
</g>
<!-- Node19 -->
<g id="node4" class="node"><title>Node19</title>
<g id="a_node4"><a xlink:href="classvpr_1_1_descriptor_set_layout.html#a1e22c5f5bab22786c71d280940b92b63" target="_top" xlink:title="vpr::DescriptorSetLayout\l::create">
<polygon fill="white" stroke="black" points="289,-20.2213 289,-50.2213 412,-50.2213 412,-20.2213 289,-20.2213"/>
<text text-anchor="start" x="297" y="-38.2213" font-family="Helvetica,sans-Serif" font-size="10.00">vpr::DescriptorSetLayout</text>
<text text-anchor="middle" x="350.5" y="-27.2213" font-family="Helvetica,sans-Serif" font-size="10.00">::create</text>
</a>
</g>
</g>
<!-- Node18&#45;&gt;Node19 -->
<g id="edge3" class="edge"><title>Node18&#45;&gt;Node19</title>
<path fill="none" stroke="midnightblue" d="M253.2,-35.2213C261.635,-35.2213 270.359,-35.2213 278.955,-35.2213"/>
<polygon fill="midnightblue" stroke="midnightblue" points="278.961,-38.7214 288.961,-35.2213 278.961,-31.7214 278.961,-38.7214"/>
</g>
<!-- Node19&#45;&gt;Node20 -->
<g id="edge4" class="edge"><title>Node19&#45;&gt;Node20</title>
<path fill="none" stroke="midnightblue" d="M412.307,-26.2731C420.698,-25.0383 429.332,-23.7678 437.766,-22.5267"/>
<polygon fill="midnightblue" stroke="midnightblue" points="438.54,-25.9506 447.924,-21.0319 437.521,-19.0252 438.54,-25.9506"/>
</g>
</g>
</svg>
