<?xml version="1.0" encoding="UTF-8" standalone="no"?>
<!DOCTYPE svg PUBLIC "-//W3C//DTD SVG 1.1//EN"
 "http://www.w3.org/Graphics/SVG/1.1/DTD/svg11.dtd">
<!-- Generated by graphviz version 2.38.0 (20140413.2041)
 -->
<!-- Title: vpr::Instance::ValidationEnabled Pages: 1 -->
<svg width="566pt" height="39pt"
 viewBox="0.00 0.00 566.00 39.00" xmlns="http://www.w3.org/2000/svg" xmlns:xlink="http://www.w3.org/1999/xlink">
<g id="graph0" class="graph" transform="scale(1 1) rotate(0) translate(4 35)">
<title>vpr::Instance::ValidationEnabled</title>
<polygon fill="white" stroke="none" points="-4,4 -4,-35 562,-35 562,4 -4,4"/>
<!-- Node100 -->
<g id="node1" class="node"><title>Node100</title>
<polygon fill="#bfbfbf" stroke="black" points="0,-0.5 0,-30.5 120,-30.5 120,-0.5 0,-0.5"/>
<text text-anchor="start" x="8" y="-18.5" font-family="Helvetica,sans-Serif" font-size="10.00">vpr::Instance::Validation</text>
<text text-anchor="middle" x="60" y="-7.5" font-family="Helvetica,sans-Serif" font-size="10.00">Enabled</text>
</g>
<!-- Node101 -->
<g id="node2" class="node"><title>Node101</title>
<g id="a_node2"><a xlink:href="classvpr_1_1_device.html#a158d56e75fab365778e07a84d090b3f7" target="_top" xlink:title="vpr::Device::setupValidation">
<polygon fill="white" stroke="black" points="156,-6 156,-25 292,-25 292,-6 156,-6"/>
<text text-anchor="middle" x="224" y="-13" font-family="Helvetica,sans-Serif" font-size="10.00">vpr::Device::setupValidation</text>
</a>
</g>
</g>
<!-- Node100&#45;&gt;Node101 -->
<g id="edge1" class="edge"><title>Node100&#45;&gt;Node101</title>
<path fill="none" stroke="midnightblue" d="M130.56,-15.5C138.976,-15.5 147.56,-15.5 155.939,-15.5"/>
<polygon fill="midnightblue" stroke="midnightblue" points="130.403,-12.0001 120.403,-15.5 130.403,-19.0001 130.403,-12.0001"/>
</g>
<!-- Node102 -->
<g id="node3" class="node"><title>Node102</title>
<g id="a_node3"><a xlink:href="classvpr_1_1_device.html#a3b0734cd598d9a64f3c459e9dc4e84ce" target="_top" xlink:title="vpr::Device::create">
<polygon fill="white" stroke="black" points="328,-6 328,-25 424,-25 424,-6 328,-6"/>
<text text-anchor="middle" x="376" y="-13" font-family="Helvetica,sans-Serif" font-size="10.00">vpr::Device::create</text>
</a>
</g>
</g>
<!-- Node101&#45;&gt;Node102 -->
<g id="edge2" class="edge"><title>Node101&#45;&gt;Node102</title>
<path fill="none" stroke="midnightblue" d="M302.276,-15.5C310.949,-15.5 319.582,-15.5 327.71,-15.5"/>
<polygon fill="midnightblue" stroke="midnightblue" points="302.103,-12.0001 292.103,-15.5 302.103,-19.0001 302.103,-12.0001"/>
</g>
<!-- Node103 -->
<g id="node4" class="node"><title>Node103</title>
<g id="a_node4"><a xlink:href="classvpr_1_1_device.html#a870f832d4e57cf09fc0705718a498aff" target="_top" xlink:title="vpr::Device::Device">
<polygon fill="white" stroke="black" points="460,-6 460,-25 558,-25 558,-6 460,-6"/>
<text text-anchor="middle" x="509" y="-13" font-family="Helvetica,sans-Serif" font-size="10.00">vpr::Device::Device</text>
</a>
</g>
</g>
<!-- Node102&#45;&gt;Node103 -->
<g id="edge3" class="edge"><title>Node102&#45;&gt;Node103</title>
<path fill="none" stroke="midnightblue" d="M434.503,-15.5C442.979,-15.5 451.636,-15.5 459.895,-15.5"/>
<polygon fill="midnightblue" stroke="midnightblue" points="434.294,-12.0001 424.294,-15.5 434.294,-19.0001 434.294,-12.0001"/>
</g>
</g>
</svg>
