<?xml version="1.0" encoding="UTF-8" standalone="no"?>
<!DOCTYPE svg PUBLIC "-//W3C//DTD SVG 1.1//EN"
 "http://www.w3.org/Graphics/SVG/1.1/DTD/svg11.dtd">
<!-- Generated by graphviz version 2.38.0 (20140413.2041)
 -->
<!-- Title: el::Loggers::removeFlag Pages: 1 -->
<svg width="304pt" height="88pt"
 viewBox="0.00 0.00 304.00 88.00" xmlns="http://www.w3.org/2000/svg" xmlns:xlink="http://www.w3.org/1999/xlink">
<g id="graph0" class="graph" transform="scale(1 1) rotate(0) translate(4 84)">
<title>el::Loggers::removeFlag</title>
<polygon fill="white" stroke="none" points="-4,4 -4,-84 300,-84 300,4 -4,4"/>
<!-- Node166 -->
<g id="node1" class="node"><title>Node166</title>
<polygon fill="#bfbfbf" stroke="black" points="0,-30 0,-49 120,-49 120,-30 0,-30"/>
<text text-anchor="middle" x="60" y="-37" font-family="Helvetica,sans-Serif" font-size="10.00">el::Loggers::removeFlag</text>
</g>
<!-- Node167 -->
<g id="node2" class="node"><title>Node167</title>
<g id="a_node2"><a xlink:href="classel_1_1_loggers_1_1_scoped_remove_flag.html#a7ae9a1cde34e1145d8b90b639cc12dc1" target="_top" xlink:title="el::Loggers::ScopedRemove\lFlag::ScopedRemoveFlag">
<polygon fill="white" stroke="black" points="157,-49.5 157,-79.5 295,-79.5 295,-49.5 157,-49.5"/>
<text text-anchor="start" x="165" y="-67.5" font-family="Helvetica,sans-Serif" font-size="10.00">el::Loggers::ScopedRemove</text>
<text text-anchor="middle" x="226" y="-56.5" font-family="Helvetica,sans-Serif" font-size="10.00">Flag::ScopedRemoveFlag</text>
</a>
</g>
</g>
<!-- Node166&#45;&gt;Node167 -->
<g id="edge1" class="edge"><title>Node166&#45;&gt;Node167</title>
<path fill="none" stroke="midnightblue" d="M130.126,-50.0375C139.008,-51.3915 148.098,-52.7771 156.963,-54.1285"/>
<polygon fill="midnightblue" stroke="midnightblue" points="130.621,-46.5726 120.208,-48.5256 129.566,-53.4927 130.621,-46.5726"/>
</g>
<!-- Node168 -->
<g id="node3" class="node"><title>Node168</title>
<g id="a_node3"><a xlink:href="classel_1_1_loggers_1_1_scoped_add_flag.html#a81902a30dc450a8f9b154ae72e0250d7" target="_top" xlink:title="el::Loggers::ScopedAddFlag\l::~ScopedAddFlag">
<polygon fill="white" stroke="black" points="156,-0.5 156,-30.5 296,-30.5 296,-0.5 156,-0.5"/>
<text text-anchor="start" x="164" y="-18.5" font-family="Helvetica,sans-Serif" font-size="10.00">el::Loggers::ScopedAddFlag</text>
<text text-anchor="middle" x="226" y="-7.5" font-family="Helvetica,sans-Serif" font-size="10.00">::~ScopedAddFlag</text>
</a>
</g>
</g>
<!-- Node166&#45;&gt;Node168 -->
<g id="edge2" class="edge"><title>Node166&#45;&gt;Node168</title>
<path fill="none" stroke="midnightblue" d="M130.373,-29.3479C138.801,-28.1146 147.411,-26.8545 155.835,-25.6216"/>
<polygon fill="midnightblue" stroke="midnightblue" points="129.596,-25.9243 120.208,-30.8354 130.609,-32.8505 129.596,-25.9243"/>
</g>
</g>
</svg>
