<?xml version="1.0" encoding="UTF-8" standalone="no"?>
<!DOCTYPE svg PUBLIC "-//W3C//DTD SVG 1.1//EN"
 "http://www.w3.org/Graphics/SVG/1.1/DTD/svg11.dtd">
<!-- Generated by graphviz version 2.38.0 (20140413.2041)
 -->
<!-- Title: el::base::VRegistry::setFromArgs Pages: 1 -->
<svg width="446pt" height="323pt"
 viewBox="0.00 0.00 446.00 322.50" xmlns="http://www.w3.org/2000/svg" xmlns:xlink="http://www.w3.org/1999/xlink">
<g id="graph0" class="graph" transform="scale(1 1) rotate(0) translate(4 318.5)">
<title>el::base::VRegistry::setFromArgs</title>
<polygon fill="white" stroke="none" points="-4,4 -4,-318.5 442,-318.5 442,4 -4,4"/>
<!-- Node60 -->
<g id="node1" class="node"><title>Node60</title>
<polygon fill="#bfbfbf" stroke="black" points="0,-161 0,-191 100,-191 100,-161 0,-161"/>
<text text-anchor="start" x="8" y="-179" font-family="Helvetica,sans-Serif" font-size="10.00">el::base::VRegistry</text>
<text text-anchor="middle" x="50" y="-168" font-family="Helvetica,sans-Serif" font-size="10.00">::setFromArgs</text>
</g>
<!-- Node61 -->
<g id="node2" class="node"><title>Node61</title>
<g id="a_node2"><a xlink:href="classel_1_1base_1_1utils_1_1_command_line_args.html#aaf9b11a61b3e1445c81408fdc4d6cc9d" target="_top" xlink:title="Returns value of arguments. ">
<polygon fill="white" stroke="black" points="147,-284 147,-314 275,-314 275,-284 147,-284"/>
<text text-anchor="start" x="155" y="-302" font-family="Helvetica,sans-Serif" font-size="10.00">el::base::utils::Command</text>
<text text-anchor="middle" x="211" y="-291" font-family="Helvetica,sans-Serif" font-size="10.00">LineArgs::getParamValue</text>
</a>
</g>
</g>
<!-- Node60&#45;&gt;Node61 -->
<g id="edge1" class="edge"><title>Node60&#45;&gt;Node61</title>
<path fill="none" stroke="midnightblue" d="M60.0525,-191.02C73.8256,-212.637 102.06,-252.399 136,-275 138.424,-276.614 140.965,-278.127 143.585,-279.543"/>
<polygon fill="midnightblue" stroke="midnightblue" points="142.225,-282.773 152.748,-283.998 145.285,-276.478 142.225,-282.773"/>
</g>
<!-- Node62 -->
<g id="node3" class="node"><title>Node62</title>
<g id="a_node3"><a xlink:href="classel_1_1base_1_1utils_1_1_command_line_args.html#a77ceaf1c151c30f6362cfbac5ddbdaa6" target="_top" xlink:title="Return true if arguments has a param (not having a value) i,e without &#39;=&#39;. ">
<polygon fill="white" stroke="black" points="148.5,-235 148.5,-265 273.5,-265 273.5,-235 148.5,-235"/>
<text text-anchor="start" x="156.5" y="-253" font-family="Helvetica,sans-Serif" font-size="10.00">el::base::utils::Command</text>
<text text-anchor="middle" x="211" y="-242" font-family="Helvetica,sans-Serif" font-size="10.00">LineArgs::hasParam</text>
</a>
</g>
</g>
<!-- Node60&#45;&gt;Node62 -->
<g id="edge2" class="edge"><title>Node60&#45;&gt;Node62</title>
<path fill="none" stroke="midnightblue" d="M73.7195,-191.21C90.4346,-201.935 113.984,-216.098 136,-226 140.13,-227.858 144.448,-229.64 148.833,-231.336"/>
<polygon fill="midnightblue" stroke="midnightblue" points="147.902,-234.723 158.495,-234.904 150.327,-228.157 147.902,-234.723"/>
</g>
<!-- Node63 -->
<g id="node4" class="node"><title>Node63</title>
<g id="a_node4"><a xlink:href="classel_1_1base_1_1utils_1_1_command_line_args.html#a4028414c53fbd2ebffbc2b88c6d13b09" target="_top" xlink:title="Returns true if arguments contain paramKey with a value (seperated by &#39;=&#39;) ">
<polygon fill="white" stroke="black" points="136,-186 136,-216 286,-216 286,-186 136,-186"/>
<text text-anchor="start" x="144" y="-204" font-family="Helvetica,sans-Serif" font-size="10.00">el::base::utils::Command</text>
<text text-anchor="middle" x="211" y="-193" font-family="Helvetica,sans-Serif" font-size="10.00">LineArgs::hasParamWithValue</text>
</a>
</g>
</g>
<!-- Node60&#45;&gt;Node63 -->
<g id="edge3" class="edge"><title>Node60&#45;&gt;Node63</title>
<path fill="none" stroke="midnightblue" d="M100.003,-183.705C108.223,-184.997 116.957,-186.371 125.768,-187.756"/>
<polygon fill="midnightblue" stroke="midnightblue" points="125.304,-191.226 135.726,-189.322 126.391,-184.311 125.304,-191.226"/>
</g>
<!-- Node64 -->
<g id="node5" class="node"><title>Node64</title>
<g id="a_node5"><a xlink:href="classel_1_1base_1_1_v_registry.html#aea4fb84a03363080ee2501193084f71f" target="_top" xlink:title="Sets verbose level. Accepted range is 0&#45;9. ">
<polygon fill="white" stroke="black" points="161,-137 161,-167 261,-167 261,-137 161,-137"/>
<text text-anchor="start" x="169" y="-155" font-family="Helvetica,sans-Serif" font-size="10.00">el::base::VRegistry</text>
<text text-anchor="middle" x="211" y="-144" font-family="Helvetica,sans-Serif" font-size="10.00">::setLevel</text>
</a>
</g>
</g>
<!-- Node60&#45;&gt;Node64 -->
<g id="edge4" class="edge"><title>Node60&#45;&gt;Node64</title>
<path fill="none" stroke="midnightblue" d="M100.003,-168.603C116.022,-166.185 133.989,-163.473 150.684,-160.953"/>
<polygon fill="midnightblue" stroke="midnightblue" points="151.52,-164.367 160.885,-159.414 150.475,-157.445 151.52,-164.367"/>
</g>
<!-- Node67 -->
<g id="node8" class="node"><title>Node67</title>
<g id="a_node8"><a xlink:href="classel_1_1base_1_1_v_registry.html#a65e202cc547cd11231d3ea0fb70765d0" target="_top" xlink:title="el::base::VRegistry\l::setModules">
<polygon fill="white" stroke="black" points="161,-88 161,-118 261,-118 261,-88 161,-88"/>
<text text-anchor="start" x="169" y="-106" font-family="Helvetica,sans-Serif" font-size="10.00">el::base::VRegistry</text>
<text text-anchor="middle" x="211" y="-95" font-family="Helvetica,sans-Serif" font-size="10.00">::setModules</text>
</a>
</g>
</g>
<!-- Node60&#45;&gt;Node67 -->
<g id="edge7" class="edge"><title>Node60&#45;&gt;Node67</title>
<path fill="none" stroke="midnightblue" d="M74.918,-160.884C91.613,-150.738 114.645,-137.535 136,-128 140.953,-125.789 146.165,-123.658 151.434,-121.637"/>
<polygon fill="midnightblue" stroke="midnightblue" points="152.77,-124.874 160.935,-118.123 150.342,-118.309 152.77,-124.874"/>
</g>
<!-- Node71 -->
<g id="node12" class="node"><title>Node71</title>
<g id="a_node12"><a xlink:href="classel_1_1base_1_1_v_registry.html#ad7a8e939daf6b3d6b949def0a9f65a1f" target="_top" xlink:title="Whether or not vModules enabled. ">
<polygon fill="white" stroke="black" points="161,-17 161,-47 261,-47 261,-17 161,-17"/>
<text text-anchor="start" x="169" y="-35" font-family="Helvetica,sans-Serif" font-size="10.00">el::base::VRegistry</text>
<text text-anchor="middle" x="211" y="-24" font-family="Helvetica,sans-Serif" font-size="10.00">::vModulesEnabled</text>
</a>
</g>
</g>
<!-- Node60&#45;&gt;Node71 -->
<g id="edge13" class="edge"><title>Node60&#45;&gt;Node71</title>
<path fill="none" stroke="midnightblue" d="M61.8792,-160.807C76.9759,-140.398 105.843,-103.725 136,-78 147.113,-68.5203 160.371,-59.6473 172.575,-52.272"/>
<polygon fill="midnightblue" stroke="midnightblue" points="174.386,-55.2674 181.229,-47.179 170.835,-49.2346 174.386,-55.2674"/>
</g>
<!-- Node65 -->
<g id="node6" class="node"><title>Node65</title>
<g id="a_node6"><a xlink:href="classel_1_1base_1_1threading_1_1_thread_safe.html#affb45b35790a7305d0a659562c8104fc" target="_top" xlink:title="el::base::threading\l::ThreadSafe::lock">
<polygon fill="white" stroke="black" points="331.5,-137 331.5,-167 428.5,-167 428.5,-137 331.5,-137"/>
<text text-anchor="start" x="339.5" y="-155" font-family="Helvetica,sans-Serif" font-size="10.00">el::base::threading</text>
<text text-anchor="middle" x="380" y="-144" font-family="Helvetica,sans-Serif" font-size="10.00">::ThreadSafe::lock</text>
</a>
</g>
</g>
<!-- Node64&#45;&gt;Node65 -->
<g id="edge5" class="edge"><title>Node64&#45;&gt;Node65</title>
<path fill="none" stroke="midnightblue" d="M261.202,-152C280.046,-152 301.711,-152 321.281,-152"/>
<polygon fill="midnightblue" stroke="midnightblue" points="321.298,-155.5 331.298,-152 321.298,-148.5 321.298,-155.5"/>
</g>
<!-- Node66 -->
<g id="node7" class="node"><title>Node66</title>
<g id="a_node7"><a xlink:href="classel_1_1base_1_1_v_registry.html#aa39f3774ffc25a2ad18bb86c8c4b8b7c" target="_top" xlink:title="el::base::VRegistry\l::level">
<polygon fill="white" stroke="black" points="330,-186 330,-216 430,-216 430,-186 330,-186"/>
<text text-anchor="start" x="338" y="-204" font-family="Helvetica,sans-Serif" font-size="10.00">el::base::VRegistry</text>
<text text-anchor="middle" x="380" y="-193" font-family="Helvetica,sans-Serif" font-size="10.00">::level</text>
</a>
</g>
</g>
<!-- Node64&#45;&gt;Node66 -->
<g id="edge6" class="edge"><title>Node64&#45;&gt;Node66</title>
<path fill="none" stroke="midnightblue" d="M261.202,-166.437C279.637,-171.846 300.771,-178.046 320.002,-183.689"/>
<polygon fill="midnightblue" stroke="midnightblue" points="319.28,-187.125 329.861,-186.582 321.251,-180.408 319.28,-187.125"/>
</g>
<!-- Node67&#45;&gt;Node65 -->
<g id="edge8" class="edge"><title>Node67&#45;&gt;Node65</title>
<path fill="none" stroke="midnightblue" d="M261.202,-117.437C280.133,-122.991 301.91,-129.381 321.55,-135.144"/>
<polygon fill="midnightblue" stroke="midnightblue" points="320.717,-138.547 331.298,-138.004 322.688,-131.83 320.717,-138.547"/>
</g>
<!-- Node67&#45;&gt;Node66 -->
<g id="edge10" class="edge"><title>Node67&#45;&gt;Node66</title>
<path fill="none" stroke="midnightblue" d="M261.068,-114.838C269.847,-118.241 278.557,-122.556 286,-128 307.812,-143.953 300.782,-160.264 322,-177 323.581,-178.247 325.236,-179.44 326.945,-180.58"/>
<polygon fill="midnightblue" stroke="midnightblue" points="325.472,-183.775 335.862,-185.848 329.033,-177.748 325.472,-183.775"/>
</g>
<!-- Node68 -->
<g id="node9" class="node"><title>Node68</title>
<g id="a_node9"><a xlink:href="classel_1_1base_1_1utils_1_1_str.html#a8116fdf0f0308f78a42989da9df52377" target="_top" xlink:title="Determines whether or not str ends with specified string. ">
<polygon fill="white" stroke="black" points="333,-39 333,-69 427,-69 427,-39 333,-39"/>
<text text-anchor="start" x="341" y="-57" font-family="Helvetica,sans-Serif" font-size="10.00">el::base::utils::Str</text>
<text text-anchor="middle" x="380" y="-46" font-family="Helvetica,sans-Serif" font-size="10.00">::endsWith</text>
</a>
</g>
</g>
<!-- Node67&#45;&gt;Node68 -->
<g id="edge9" class="edge"><title>Node67&#45;&gt;Node68</title>
<path fill="none" stroke="midnightblue" d="M261.202,-88.5634C280.633,-82.8623 303.062,-76.2812 323.102,-70.4013"/>
<polygon fill="midnightblue" stroke="midnightblue" points="324.114,-73.752 332.724,-67.5781 322.143,-67.0352 324.114,-73.752"/>
</g>
<!-- Node69 -->
<g id="node10" class="node"><title>Node69</title>
<g id="a_node10"><a xlink:href="namespaceel_1_1base_1_1utils.html#a51e93c9ba0ac509b2b7a933147349891" target="_top" xlink:title="el::base::utils::hasFlag">
<polygon fill="white" stroke="black" points="322,-0.5 322,-19.5 438,-19.5 438,-0.5 322,-0.5"/>
<text text-anchor="middle" x="380" y="-7.5" font-family="Helvetica,sans-Serif" font-size="10.00">el::base::utils::hasFlag</text>
</a>
</g>
</g>
<!-- Node67&#45;&gt;Node69 -->
<g id="edge11" class="edge"><title>Node67&#45;&gt;Node69</title>
<path fill="none" stroke="midnightblue" d="M236.98,-87.8061C251.473,-78.8248 269.973,-67.0748 286,-56 302.454,-44.6301 304.284,-38.2821 322,-29 326.06,-26.8729 330.405,-24.9163 334.818,-23.1343"/>
<polygon fill="midnightblue" stroke="midnightblue" points="336.362,-26.2938 344.503,-19.5137 333.911,-19.737 336.362,-26.2938"/>
</g>
<!-- Node70 -->
<g id="node11" class="node"><title>Node70</title>
<g id="a_node11"><a xlink:href="classel_1_1base_1_1_v_registry.html#a72ed42bb862bb45880b9f7ffc4c2bc90" target="_top" xlink:title="el::base::VRegistry\l::modules">
<polygon fill="white" stroke="black" points="330,-88 330,-118 430,-118 430,-88 330,-88"/>
<text text-anchor="start" x="338" y="-106" font-family="Helvetica,sans-Serif" font-size="10.00">el::base::VRegistry</text>
<text text-anchor="middle" x="380" y="-95" font-family="Helvetica,sans-Serif" font-size="10.00">::modules</text>
</a>
</g>
</g>
<!-- Node67&#45;&gt;Node70 -->
<g id="edge12" class="edge"><title>Node67&#45;&gt;Node70</title>
<path fill="none" stroke="midnightblue" d="M261.202,-103C279.552,-103 300.577,-103 319.737,-103"/>
<polygon fill="midnightblue" stroke="midnightblue" points="319.861,-106.5 329.861,-103 319.861,-99.5001 319.861,-106.5"/>
</g>
<!-- Node71&#45;&gt;Node69 -->
<g id="edge14" class="edge"><title>Node71&#45;&gt;Node69</title>
<path fill="none" stroke="midnightblue" d="M261.202,-25.5183C276.978,-23.44 294.731,-21.1013 311.577,-18.8821"/>
<polygon fill="midnightblue" stroke="midnightblue" points="312.465,-22.2954 321.922,-17.5192 311.551,-15.3554 312.465,-22.2954"/>
</g>
</g>
</svg>
