<?xml version="1.0" encoding="UTF-8" standalone="no"?>
<!DOCTYPE svg PUBLIC "-//W3C//DTD SVG 1.1//EN"
 "http://www.w3.org/Graphics/SVG/1.1/DTD/svg11.dtd">
<!-- Generated by graphviz version 2.38.0 (20140413.2041)
 -->
<!-- Title: vpr::Allocator::FreeMemory Pages: 1 -->
<svg width="486pt" height="160pt"
 viewBox="0.00 0.00 486.00 159.50" xmlns="http://www.w3.org/2000/svg" xmlns:xlink="http://www.w3.org/1999/xlink">
<g id="graph0" class="graph" transform="scale(1 1) rotate(0) translate(4 155.5)">
<title>vpr::Allocator::FreeMemory</title>
<polygon fill="white" stroke="none" points="-4,4 -4,-155.5 482,-155.5 482,4 -4,4"/>
<!-- Node171 -->
<g id="node1" class="node"><title>Node171</title>
<polygon fill="#bfbfbf" stroke="black" points="0,-60.5 0,-79.5 134,-79.5 134,-60.5 0,-60.5"/>
<text text-anchor="middle" x="67" y="-67.5" font-family="Helvetica,sans-Serif" font-size="10.00">vpr::Allocator::FreeMemory</text>
</g>
<!-- Node172 -->
<g id="node2" class="node"><title>Node172</title>
<g id="a_node2"><a xlink:href="classvpr_1_1_allocator.html#ab9d7b854a663fa66385938506f0676d3" target="_top" xlink:title="vpr::Allocator::freePrivate\lMemory">
<polygon fill="white" stroke="black" points="184,-77 184,-107 308,-107 308,-77 184,-77"/>
<text text-anchor="start" x="192" y="-95" font-family="Helvetica,sans-Serif" font-size="10.00">vpr::Allocator::freePrivate</text>
<text text-anchor="middle" x="246" y="-84" font-family="Helvetica,sans-Serif" font-size="10.00">Memory</text>
</a>
</g>
</g>
<!-- Node171&#45;&gt;Node172 -->
<g id="edge1" class="edge"><title>Node171&#45;&gt;Node172</title>
<path fill="none" stroke="midnightblue" d="M134.16,-78.2233C147.149,-79.8377 160.825,-81.5376 173.966,-83.1709"/>
<polygon fill="midnightblue" stroke="midnightblue" points="173.535,-86.6442 183.89,-84.4044 174.398,-79.6976 173.535,-86.6442"/>
</g>
<!-- Node173 -->
<g id="node3" class="node"><title>Node173</title>
<g id="a_node3"><a xlink:href="classvpr_1_1_allocation.html#ad23615cd9f84e8e2354cf1f1e7e8f162" target="_top" xlink:title="vpr::Allocation::IsPrivate\lAllocation">
<polygon fill="white" stroke="black" points="358,-121 358,-151 478,-151 478,-121 358,-121"/>
<text text-anchor="start" x="366" y="-139" font-family="Helvetica,sans-Serif" font-size="10.00">vpr::Allocation::IsPrivate</text>
<text text-anchor="middle" x="418" y="-128" font-family="Helvetica,sans-Serif" font-size="10.00">Allocation</text>
</a>
</g>
</g>
<!-- Node171&#45;&gt;Node173 -->
<g id="edge5" class="edge"><title>Node171&#45;&gt;Node173</title>
<path fill="none" stroke="midnightblue" d="M83.9381,-79.5258C103.466,-90.672 137.919,-108.662 170,-117 228.706,-132.258 297.694,-136.471 347.818,-137.178"/>
<polygon fill="midnightblue" stroke="midnightblue" points="347.865,-140.678 357.899,-137.276 347.934,-133.679 347.865,-140.678"/>
</g>
<!-- Node175 -->
<g id="node5" class="node"><title>Node175</title>
<g id="a_node5"><a xlink:href="classvpr_1_1_allocator.html#a32c2e59911a888c64b7d56005014865b" target="_top" xlink:title="vpr::Allocator::GetAllocSize">
<polygon fill="white" stroke="black" points="178,-38.5 178,-57.5 314,-57.5 314,-38.5 178,-38.5"/>
<text text-anchor="middle" x="246" y="-45.5" font-family="Helvetica,sans-Serif" font-size="10.00">vpr::Allocator::GetAllocSize</text>
</a>
</g>
</g>
<!-- Node171&#45;&gt;Node175 -->
<g id="edge4" class="edge"><title>Node171&#45;&gt;Node175</title>
<path fill="none" stroke="midnightblue" d="M134.16,-61.7767C145.061,-60.4218 156.446,-59.0068 167.592,-57.6214"/>
<polygon fill="midnightblue" stroke="midnightblue" points="168.248,-61.0668 177.74,-56.36 167.385,-54.1202 168.248,-61.0668"/>
</g>
<!-- Node176 -->
<g id="node6" class="node"><title>Node176</title>
<g id="a_node6"><a xlink:href="classvpr_1_1_allocation.html#ab07876bad87d1c3e085ab02c1c608179" target="_top" xlink:title="vpr::Allocation::MemoryTypeIdx">
<polygon fill="white" stroke="black" points="170,-0.5 170,-19.5 322,-19.5 322,-0.5 170,-0.5"/>
<text text-anchor="middle" x="246" y="-7.5" font-family="Helvetica,sans-Serif" font-size="10.00">vpr::Allocation::MemoryTypeIdx</text>
</a>
</g>
</g>
<!-- Node171&#45;&gt;Node176 -->
<g id="edge6" class="edge"><title>Node171&#45;&gt;Node176</title>
<path fill="none" stroke="midnightblue" d="M89.5747,-60.3438C110.009,-51.4347 141.693,-38.2286 170,-29 177.453,-26.5702 185.405,-24.2609 193.242,-22.1433"/>
<polygon fill="midnightblue" stroke="midnightblue" points="194.276,-25.4907 203.061,-19.5689 192.5,-18.7195 194.276,-25.4907"/>
</g>
<!-- Node172&#45;&gt;Node173 -->
<g id="edge2" class="edge"><title>Node172&#45;&gt;Node173</title>
<path fill="none" stroke="midnightblue" d="M305.029,-107.019C319.174,-110.68 334.432,-114.629 348.995,-118.399"/>
<polygon fill="midnightblue" stroke="midnightblue" points="348.386,-121.856 358.944,-120.974 350.14,-115.08 348.386,-121.856"/>
</g>
<!-- Node174 -->
<g id="node4" class="node"><title>Node174</title>
<g id="a_node4"><a xlink:href="classvpr_1_1_device.html#a59882855173bef0b13a17b376ea01d45" target="_top" xlink:title="vpr::Device::vkHandle">
<polygon fill="white" stroke="black" points="364,-82.5 364,-101.5 472,-101.5 472,-82.5 364,-82.5"/>
<text text-anchor="middle" x="418" y="-89.5" font-family="Helvetica,sans-Serif" font-size="10.00">vpr::Device::vkHandle</text>
</a>
</g>
</g>
<!-- Node172&#45;&gt;Node174 -->
<g id="edge3" class="edge"><title>Node172&#45;&gt;Node174</title>
<path fill="none" stroke="midnightblue" d="M308.374,-92C323.133,-92 338.925,-92 353.767,-92"/>
<polygon fill="midnightblue" stroke="midnightblue" points="353.867,-95.5001 363.867,-92 353.867,-88.5001 353.867,-95.5001"/>
</g>
</g>
</svg>
