<?xml version="1.0" encoding="UTF-8" standalone="no"?>
<!DOCTYPE svg PUBLIC "-//W3C//DTD SVG 1.1//EN"
 "http://www.w3.org/Graphics/SVG/1.1/DTD/svg11.dtd">
<!-- Generated by graphviz version 2.38.0 (20140413.2041)
 -->
<!-- Title: vpr::Allocator::getImageMemReqs Pages: 1 -->
<svg width="447pt" height="39pt"
 viewBox="0.00 0.00 447.00 39.00" xmlns="http://www.w3.org/2000/svg" xmlns:xlink="http://www.w3.org/1999/xlink">
<g id="graph0" class="graph" transform="scale(1 1) rotate(0) translate(4 35)">
<title>vpr::Allocator::getImageMemReqs</title>
<polygon fill="white" stroke="none" points="-4,4 -4,-35 443,-35 443,4 -4,4"/>
<!-- Node213 -->
<g id="node1" class="node"><title>Node213</title>
<polygon fill="#bfbfbf" stroke="black" points="0,-0.5 0,-30.5 119,-30.5 119,-0.5 0,-0.5"/>
<text text-anchor="start" x="8" y="-18.5" font-family="Helvetica,sans-Serif" font-size="10.00">vpr::Allocator::getImage</text>
<text text-anchor="middle" x="59.5" y="-7.5" font-family="Helvetica,sans-Serif" font-size="10.00">MemReqs</text>
</g>
<!-- Node214 -->
<g id="node2" class="node"><title>Node214</title>
<g id="a_node2"><a xlink:href="classvpr_1_1_allocator.html#a79b5ace2d3d620783793593c99d50d4e" target="_top" xlink:title="vpr::Allocator::Allocate\lForImage">
<polygon fill="white" stroke="black" points="155,-0.5 155,-30.5 269,-30.5 269,-0.5 155,-0.5"/>
<text text-anchor="start" x="163" y="-18.5" font-family="Helvetica,sans-Serif" font-size="10.00">vpr::Allocator::Allocate</text>
<text text-anchor="middle" x="212" y="-7.5" font-family="Helvetica,sans-Serif" font-size="10.00">ForImage</text>
</a>
</g>
</g>
<!-- Node213&#45;&gt;Node214 -->
<g id="edge1" class="edge"><title>Node213&#45;&gt;Node214</title>
<path fill="none" stroke="midnightblue" d="M129.394,-15.5C137.887,-15.5 146.489,-15.5 154.762,-15.5"/>
<polygon fill="midnightblue" stroke="midnightblue" points="129.118,-12.0001 119.118,-15.5 129.118,-19.0001 129.118,-12.0001"/>
</g>
<!-- Node215 -->
<g id="node3" class="node"><title>Node215</title>
<g id="a_node3"><a xlink:href="classvpr_1_1_allocator.html#a2fe7722a4b3f19bd7705a80be50171bb" target="_top" xlink:title="vpr::Allocator::CreateImage">
<polygon fill="white" stroke="black" points="305,-6 305,-25 439,-25 439,-6 305,-6"/>
<text text-anchor="middle" x="372" y="-13" font-family="Helvetica,sans-Serif" font-size="10.00">vpr::Allocator::CreateImage</text>
</a>
</g>
</g>
<!-- Node214&#45;&gt;Node215 -->
<g id="edge2" class="edge"><title>Node214&#45;&gt;Node215</title>
<path fill="none" stroke="midnightblue" d="M279.301,-15.5C287.725,-15.5 296.347,-15.5 304.77,-15.5"/>
<polygon fill="midnightblue" stroke="midnightblue" points="279.15,-12.0001 269.15,-15.5 279.15,-19.0001 279.15,-12.0001"/>
</g>
</g>
</svg>
