<?xml version="1.0" encoding="UTF-8" standalone="no"?>
<!DOCTYPE svg PUBLIC "-//W3C//DTD SVG 1.1//EN"
 "http://www.w3.org/Graphics/SVG/1.1/DTD/svg11.dtd">
<!-- Generated by graphviz version 2.38.0 (20140413.2041)
 -->
<!-- Title: el::base::TypedConfigurations::insertFile Pages: 1 -->
<svg width="487pt" height="235pt"
 viewBox="0.00 0.00 487.00 235.00" xmlns="http://www.w3.org/2000/svg" xmlns:xlink="http://www.w3.org/1999/xlink">
<g id="graph0" class="graph" transform="scale(1 1) rotate(0) translate(4 231)">
<title>el::base::TypedConfigurations::insertFile</title>
<polygon fill="white" stroke="none" points="-4,4 -4,-231 483,-231 483,4 -4,4"/>
<!-- Node51 -->
<g id="node1" class="node"><title>Node51</title>
<polygon fill="#bfbfbf" stroke="black" points="0,-98.5 0,-128.5 145,-128.5 145,-98.5 0,-98.5"/>
<text text-anchor="start" x="8" y="-116.5" font-family="Helvetica,sans-Serif" font-size="10.00">el::base::TypedConfigurations</text>
<text text-anchor="middle" x="72.5" y="-105.5" font-family="Helvetica,sans-Serif" font-size="10.00">::insertFile</text>
</g>
<!-- Node52 -->
<g id="node2" class="node"><title>Node52</title>
<g id="a_node2"><a xlink:href="classel_1_1_level_helper.html#ad8a9958d58a2912ef58d00ab0ade7587" target="_top" xlink:title="Converts level to associated const char*. ">
<polygon fill="white" stroke="black" points="190.5,-196.5 190.5,-226.5 306.5,-226.5 306.5,-196.5 190.5,-196.5"/>
<text text-anchor="start" x="198.5" y="-214.5" font-family="Helvetica,sans-Serif" font-size="10.00">el::LevelHelper::convert</text>
<text text-anchor="middle" x="248.5" y="-203.5" font-family="Helvetica,sans-Serif" font-size="10.00">ToString</text>
</a>
</g>
</g>
<!-- Node51&#45;&gt;Node52 -->
<g id="edge1" class="edge"><title>Node51&#45;&gt;Node52</title>
<path fill="none" stroke="midnightblue" d="M92.3664,-128.723C113.126,-144.925 147.949,-170.519 181,-187.5 184.463,-189.279 188.088,-190.986 191.783,-192.611"/>
<polygon fill="midnightblue" stroke="midnightblue" points="190.48,-195.86 201.057,-196.476 193.173,-189.398 190.48,-195.86"/>
</g>
<!-- Node53 -->
<g id="node3" class="node"><title>Node53</title>
<g id="a_node3"><a xlink:href="classel_1_1base_1_1utils_1_1_file.html#a9a8445ed13931bbdeedc9bcee6b1370e" target="_top" xlink:title="Creates specified path on file system. ">
<polygon fill="white" stroke="black" points="200,-147.5 200,-177.5 297,-177.5 297,-147.5 200,-147.5"/>
<text text-anchor="start" x="208" y="-165.5" font-family="Helvetica,sans-Serif" font-size="10.00">el::base::utils::File</text>
<text text-anchor="middle" x="248.5" y="-154.5" font-family="Helvetica,sans-Serif" font-size="10.00">::createPath</text>
</a>
</g>
</g>
<!-- Node51&#45;&gt;Node53 -->
<g id="edge2" class="edge"><title>Node51&#45;&gt;Node53</title>
<path fill="none" stroke="midnightblue" d="M127.126,-128.601C147.12,-134.232 169.886,-140.643 190.198,-146.363"/>
<polygon fill="midnightblue" stroke="midnightblue" points="189.375,-149.768 199.949,-149.109 191.272,-143.03 189.375,-149.768"/>
</g>
<!-- Node55 -->
<g id="node5" class="node"><title>Node55</title>
<g id="a_node5"><a xlink:href="classel_1_1base_1_1utils_1_1_file.html#aeb03bbb8d34b7ac37bcec1ab493926e6" target="_top" xlink:title="Extracts path of filename with leading slash. ">
<polygon fill="white" stroke="black" points="181,-98.5 181,-128.5 316,-128.5 316,-98.5 181,-98.5"/>
<text text-anchor="start" x="189" y="-116.5" font-family="Helvetica,sans-Serif" font-size="10.00">el::base::utils::File</text>
<text text-anchor="middle" x="248.5" y="-105.5" font-family="Helvetica,sans-Serif" font-size="10.00">::extractPathFromFilename</text>
</a>
</g>
</g>
<!-- Node51&#45;&gt;Node55 -->
<g id="edge4" class="edge"><title>Node51&#45;&gt;Node55</title>
<path fill="none" stroke="midnightblue" d="M145.026,-113.5C153.422,-113.5 162.017,-113.5 170.485,-113.5"/>
<polygon fill="midnightblue" stroke="midnightblue" points="170.728,-117 180.728,-113.5 170.728,-110 170.728,-117"/>
</g>
<!-- Node56 -->
<g id="node6" class="node"><title>Node56</title>
<g id="a_node6"><a xlink:href="classel_1_1base_1_1_log_format.html#aeacb2c9d313ce5713b3e85e03a4baab5" target="_top" xlink:title="el::base::LogFormat\l::level">
<polygon fill="white" stroke="black" points="196.5,-49.5 196.5,-79.5 300.5,-79.5 300.5,-49.5 196.5,-49.5"/>
<text text-anchor="start" x="204.5" y="-67.5" font-family="Helvetica,sans-Serif" font-size="10.00">el::base::LogFormat</text>
<text text-anchor="middle" x="248.5" y="-56.5" font-family="Helvetica,sans-Serif" font-size="10.00">::level</text>
</a>
</g>
</g>
<!-- Node51&#45;&gt;Node56 -->
<g id="edge5" class="edge"><title>Node51&#45;&gt;Node56</title>
<path fill="none" stroke="midnightblue" d="M127.126,-98.3986C146.004,-93.0823 167.353,-87.0701 186.775,-81.6008"/>
<polygon fill="midnightblue" stroke="midnightblue" points="187.756,-84.9608 196.432,-78.8811 185.858,-78.2229 187.756,-84.9608"/>
</g>
<!-- Node57 -->
<g id="node7" class="node"><title>Node57</title>
<g id="a_node7"><a xlink:href="classel_1_1base_1_1utils_1_1_file.html#a0fabd4453ec4df237bbc9cca63bf6f13" target="_top" xlink:title="Creates new out file stream for specified filename. ">
<polygon fill="white" stroke="black" points="200,-0.5 200,-30.5 297,-30.5 297,-0.5 200,-0.5"/>
<text text-anchor="start" x="208" y="-18.5" font-family="Helvetica,sans-Serif" font-size="10.00">el::base::utils::File</text>
<text text-anchor="middle" x="248.5" y="-7.5" font-family="Helvetica,sans-Serif" font-size="10.00">::newFileStream</text>
</a>
</g>
</g>
<!-- Node51&#45;&gt;Node57 -->
<g id="edge6" class="edge"><title>Node51&#45;&gt;Node57</title>
<path fill="none" stroke="midnightblue" d="M92.3664,-98.2772C113.126,-82.0749 147.949,-56.4813 181,-39.5 184.463,-37.7208 188.088,-36.0141 191.783,-34.3892"/>
<polygon fill="midnightblue" stroke="midnightblue" points="193.173,-37.6017 201.057,-30.5239 190.48,-31.1405 193.173,-37.6017"/>
</g>
<!-- Node54 -->
<g id="node4" class="node"><title>Node54</title>
<g id="a_node4"><a xlink:href="classel_1_1base_1_1utils_1_1_file.html#a43ffda98fdd01d23af20459fa1a65cac" target="_top" xlink:title="Determines whether or not provided path exist in current file system. ">
<polygon fill="white" stroke="black" points="367,-147.5 367,-177.5 464,-177.5 464,-147.5 367,-147.5"/>
<text text-anchor="start" x="375" y="-165.5" font-family="Helvetica,sans-Serif" font-size="10.00">el::base::utils::File</text>
<text text-anchor="middle" x="415.5" y="-154.5" font-family="Helvetica,sans-Serif" font-size="10.00">::pathExists</text>
</a>
</g>
</g>
<!-- Node53&#45;&gt;Node54 -->
<g id="edge3" class="edge"><title>Node53&#45;&gt;Node54</title>
<path fill="none" stroke="midnightblue" d="M297.225,-162.5C315.781,-162.5 337.209,-162.5 356.633,-162.5"/>
<polygon fill="midnightblue" stroke="midnightblue" points="356.882,-166 366.882,-162.5 356.882,-159 356.882,-166"/>
</g>
<!-- Node58 -->
<g id="node8" class="node"><title>Node58</title>
<g id="a_node8"><a xlink:href="namespaceel_1_1base_1_1utils.html#a8cad5c357a7913cdbe69add3d6a4e8ac" target="_top" xlink:title="Deletes memory safely and points to null. ">
<polygon fill="white" stroke="black" points="352,-6 352,-25 479,-25 479,-6 352,-6"/>
<text text-anchor="middle" x="415.5" y="-13" font-family="Helvetica,sans-Serif" font-size="10.00">el::base::utils::safeDelete</text>
</a>
</g>
</g>
<!-- Node57&#45;&gt;Node58 -->
<g id="edge7" class="edge"><title>Node57&#45;&gt;Node58</title>
<path fill="none" stroke="midnightblue" d="M297.225,-15.5C311.067,-15.5 326.508,-15.5 341.523,-15.5"/>
<polygon fill="midnightblue" stroke="midnightblue" points="341.825,-19.0001 351.825,-15.5 341.825,-12.0001 341.825,-19.0001"/>
</g>
</g>
</svg>
