<?xml version="1.0" encoding="UTF-8" standalone="no"?>
<!DOCTYPE svg PUBLIC "-//W3C//DTD SVG 1.1//EN"
 "http://www.w3.org/Graphics/SVG/1.1/DTD/svg11.dtd">
<!-- Generated by graphviz version 2.38.0 (20140413.2041)
 -->
<!-- Title: el::Configurations::setRemainingToDefault Pages: 1 -->
<svg width="590pt" height="220pt"
 viewBox="0.00 0.00 590.00 219.50" xmlns="http://www.w3.org/2000/svg" xmlns:xlink="http://www.w3.org/1999/xlink">
<g id="graph0" class="graph" transform="scale(1 1) rotate(0) translate(4 215.5)">
<title>el::Configurations::setRemainingToDefault</title>
<polygon fill="white" stroke="none" points="-4,4 -4,-215.5 586,-215.5 586,4 -4,4"/>
<!-- Node150 -->
<g id="node1" class="node"><title>Node150</title>
<polygon fill="#bfbfbf" stroke="black" points="0,-135.5 0,-165.5 122,-165.5 122,-135.5 0,-135.5"/>
<text text-anchor="start" x="8" y="-153.5" font-family="Helvetica,sans-Serif" font-size="10.00">el::Configurations</text>
<text text-anchor="middle" x="61" y="-142.5" font-family="Helvetica,sans-Serif" font-size="10.00">::setRemainingToDefault</text>
</g>
<!-- Node151 -->
<g id="node2" class="node"><title>Node151</title>
<g id="a_node2"><a xlink:href="classel_1_1base_1_1threading_1_1_thread_safe.html#affb45b35790a7305d0a659562c8104fc" target="_top" xlink:title="el::base::threading\l::ThreadSafe::lock">
<polygon fill="white" stroke="black" points="163.5,-160.5 163.5,-190.5 260.5,-190.5 260.5,-160.5 163.5,-160.5"/>
<text text-anchor="start" x="171.5" y="-178.5" font-family="Helvetica,sans-Serif" font-size="10.00">el::base::threading</text>
<text text-anchor="middle" x="212" y="-167.5" font-family="Helvetica,sans-Serif" font-size="10.00">::ThreadSafe::lock</text>
</a>
</g>
</g>
<!-- Node150&#45;&gt;Node151 -->
<g id="edge1" class="edge"><title>Node150&#45;&gt;Node151</title>
<path fill="none" stroke="midnightblue" d="M122.175,-160.596C132.472,-162.324 143.15,-164.116 153.379,-165.832"/>
<polygon fill="midnightblue" stroke="midnightblue" points="152.987,-169.315 163.428,-167.518 154.145,-162.412 152.987,-169.315"/>
</g>
<!-- Node152 -->
<g id="node3" class="node"><title>Node152</title>
<g id="a_node3"><a xlink:href="classel_1_1_configurations.html#a84c06d47e550b5eda3060f399698ec28" target="_top" xlink:title="Unsafely sets configuration if does not already exist. ">
<polygon fill="white" stroke="black" points="158,-111.5 158,-141.5 266,-141.5 266,-111.5 158,-111.5"/>
<text text-anchor="start" x="166" y="-129.5" font-family="Helvetica,sans-Serif" font-size="10.00">el::Configurations</text>
<text text-anchor="middle" x="212" y="-118.5" font-family="Helvetica,sans-Serif" font-size="10.00">::unsafeSetIfNotExist</text>
</a>
</g>
</g>
<!-- Node150&#45;&gt;Node152 -->
<g id="edge2" class="edge"><title>Node150&#45;&gt;Node152</title>
<path fill="none" stroke="midnightblue" d="M122.175,-140.807C130.65,-139.442 139.383,-138.036 147.911,-136.662"/>
<polygon fill="midnightblue" stroke="midnightblue" points="148.485,-140.115 157.801,-135.069 147.372,-133.204 148.485,-140.115"/>
</g>
<!-- Node153 -->
<g id="node4" class="node"><title>Node153</title>
<g id="a_node4"><a xlink:href="classel_1_1base_1_1utils_1_1_registry_with_pred.html#a811d9cc011d945bc7237e6ae1cf2f096" target="_top" xlink:title="Gets pointer from repository with speicifed arguments. ">
<polygon fill="white" stroke="black" points="430,-170 430,-211 582,-211 582,-170 430,-170"/>
<text text-anchor="start" x="438" y="-199" font-family="Helvetica,sans-Serif" font-size="10.00">el::base::utils::Registry</text>
<text text-anchor="start" x="438" y="-188" font-family="Helvetica,sans-Serif" font-size="10.00">WithPred&lt; Configuration,</text>
<text text-anchor="middle" x="506" y="-177" font-family="Helvetica,sans-Serif" font-size="10.00"> Configuration::Predicate &gt;::get</text>
</a>
</g>
</g>
<!-- Node152&#45;&gt;Node153 -->
<g id="edge3" class="edge"><title>Node152&#45;&gt;Node153</title>
<path fill="none" stroke="midnightblue" d="M266.218,-138.164C309.167,-147.578 370.407,-161 420.115,-171.895"/>
<polygon fill="midnightblue" stroke="midnightblue" points="419.376,-175.316 429.894,-174.038 420.875,-168.478 419.376,-175.316"/>
</g>
<!-- Node154 -->
<g id="node5" class="node"><title>Node154</title>
<g id="a_node5"><a xlink:href="classel_1_1_configurations.html#a05c373510ca513e4f61999c84d512831" target="_top" xlink:title="Thread unsafe set. ">
<polygon fill="white" stroke="black" points="302,-69.5 302,-99.5 394,-99.5 394,-69.5 302,-69.5"/>
<text text-anchor="start" x="310" y="-87.5" font-family="Helvetica,sans-Serif" font-size="10.00">el::Configurations</text>
<text text-anchor="middle" x="348" y="-76.5" font-family="Helvetica,sans-Serif" font-size="10.00">::unsafeSet</text>
</a>
</g>
</g>
<!-- Node152&#45;&gt;Node154 -->
<g id="edge4" class="edge"><title>Node152&#45;&gt;Node154</title>
<path fill="none" stroke="midnightblue" d="M260.999,-111.456C271.015,-108.316 281.648,-104.983 291.898,-101.771"/>
<polygon fill="midnightblue" stroke="midnightblue" points="293.08,-105.068 301.575,-98.7376 290.986,-98.3887 293.08,-105.068"/>
</g>
<!-- Node154&#45;&gt;Node153 -->
<g id="edge5" class="edge"><title>Node154&#45;&gt;Node153</title>
<path fill="none" stroke="midnightblue" d="M361.983,-99.7C376.957,-116.455 402.999,-143.306 430,-160.5 432.578,-162.142 435.261,-163.722 438.013,-165.238"/>
<polygon fill="midnightblue" stroke="midnightblue" points="436.494,-168.393 446.986,-169.863 439.701,-162.171 436.494,-168.393"/>
</g>
<!-- Node155 -->
<g id="node6" class="node"><title>Node155</title>
<g id="a_node6"><a xlink:href="classel_1_1base_1_1utils_1_1_registry_with_pred.html#a561a5d418106a16473ff94d43a4b6b04" target="_top" xlink:title="el::base::utils::Registry\lWithPred\&lt; Configuration,\l Configuration::Predicate\l \&gt;::registerNew">
<polygon fill="white" stroke="black" points="443.5,-98.5 443.5,-150.5 568.5,-150.5 568.5,-98.5 443.5,-98.5"/>
<text text-anchor="start" x="451.5" y="-138.5" font-family="Helvetica,sans-Serif" font-size="10.00">el::base::utils::Registry</text>
<text text-anchor="start" x="451.5" y="-127.5" font-family="Helvetica,sans-Serif" font-size="10.00">WithPred&lt; Configuration,</text>
<text text-anchor="start" x="451.5" y="-116.5" font-family="Helvetica,sans-Serif" font-size="10.00"> Configuration::Predicate</text>
<text text-anchor="middle" x="506" y="-105.5" font-family="Helvetica,sans-Serif" font-size="10.00"> &gt;::registerNew</text>
</a>
</g>
</g>
<!-- Node154&#45;&gt;Node155 -->
<g id="edge6" class="edge"><title>Node154&#45;&gt;Node155</title>
<path fill="none" stroke="midnightblue" d="M394.122,-96.0697C406.504,-99.2446 420.239,-102.766 433.706,-106.219"/>
<polygon fill="midnightblue" stroke="midnightblue" points="432.885,-109.622 443.441,-108.716 434.624,-102.841 432.885,-109.622"/>
</g>
<!-- Node156 -->
<g id="node7" class="node"><title>Node156</title>
<g id="a_node7"><a xlink:href="classel_1_1_configuration.html#a04755de11422d7570869433ea157b705" target="_top" xlink:title="Set string based configuration value. ">
<polygon fill="white" stroke="black" points="460,-49.5 460,-79.5 552,-79.5 552,-49.5 460,-49.5"/>
<text text-anchor="start" x="468" y="-67.5" font-family="Helvetica,sans-Serif" font-size="10.00">el::Configuration::</text>
<text text-anchor="middle" x="506" y="-56.5" font-family="Helvetica,sans-Serif" font-size="10.00">setValue</text>
</a>
</g>
</g>
<!-- Node154&#45;&gt;Node156 -->
<g id="edge7" class="edge"><title>Node154&#45;&gt;Node156</title>
<path fill="none" stroke="midnightblue" d="M394.122,-78.7152C411.585,-76.4763 431.739,-73.8925 450.035,-71.5468"/>
<polygon fill="midnightblue" stroke="midnightblue" points="450.506,-75.0151 459.98,-70.2718 449.616,-68.072 450.506,-75.0151"/>
</g>
<!-- Node157 -->
<g id="node8" class="node"><title>Node157</title>
<g id="a_node8"><a xlink:href="classel_1_1_configurations.html#a800efb58724eb771027135b282eae512" target="_top" xlink:title="Sets configurations (Unsafely) for all levels including Level::Global if includeGlobalLevel is true...">
<polygon fill="white" stroke="red" points="455.5,-0.5 455.5,-30.5 556.5,-30.5 556.5,-0.5 455.5,-0.5"/>
<text text-anchor="start" x="463.5" y="-18.5" font-family="Helvetica,sans-Serif" font-size="10.00">el::Configurations</text>
<text text-anchor="middle" x="506" y="-7.5" font-family="Helvetica,sans-Serif" font-size="10.00">::unsafeSetGlobally</text>
</a>
</g>
</g>
<!-- Node154&#45;&gt;Node157 -->
<g id="edge8" class="edge"><title>Node154&#45;&gt;Node157</title>
<path fill="none" stroke="midnightblue" d="M362.623,-69.3321C378.387,-57.0683 405.344,-41.1693 430,-30.5 435.019,-28.3282 440.3,-26.2492 445.64,-24.3213"/>
<polygon fill="midnightblue" stroke="midnightblue" points="446.941,-27.5754 455.269,-21.0268 444.675,-20.9523 446.941,-27.5754"/>
</g>
<!-- Node157&#45;&gt;Node154 -->
<g id="edge9" class="edge"><title>Node157&#45;&gt;Node154</title>
<path fill="none" stroke="midnightblue" d="M478.502,-30.5426C463.933,-35.8321 445.684,-41.7132 430,-48.5 418.927,-53.2916 407.39,-59.138 396.611,-64.7836"/>
<polygon fill="midnightblue" stroke="midnightblue" points="394.974,-61.6899 387.762,-69.4511 398.24,-67.8815 394.974,-61.6899"/>
</g>
</g>
</svg>
