<?xml version="1.0" encoding="UTF-8" standalone="no"?>
<!DOCTYPE svg PUBLIC "-//W3C//DTD SVG 1.1//EN"
 "http://www.w3.org/Graphics/SVG/1.1/DTD/svg11.dtd">
<!-- Generated by graphviz version 2.38.0 (20140413.2041)
 -->
<!-- Title: vpr::DescriptorSet::Update Pages: 1 -->
<svg width="232pt" height="39pt"
 viewBox="0.00 0.00 232.00 39.00" xmlns="http://www.w3.org/2000/svg" xmlns:xlink="http://www.w3.org/1999/xlink">
<g id="graph0" class="graph" transform="scale(1 1) rotate(0) translate(4 35)">
<title>vpr::DescriptorSet::Update</title>
<polygon fill="white" stroke="none" points="-4,4 -4,-35 228,-35 228,4 -4,4"/>
<!-- Node28 -->
<g id="node1" class="node"><title>Node28</title>
<polygon fill="#bfbfbf" stroke="black" points="0,-0.5 0,-30.5 94,-30.5 94,-0.5 0,-0.5"/>
<text text-anchor="start" x="8" y="-18.5" font-family="Helvetica,sans-Serif" font-size="10.00">vpr::DescriptorSet</text>
<text text-anchor="middle" x="47" y="-7.5" font-family="Helvetica,sans-Serif" font-size="10.00">::Update</text>
</g>
<!-- Node29 -->
<g id="node2" class="node"><title>Node29</title>
<g id="a_node2"><a xlink:href="classvpr_1_1_descriptor_set.html#af60aebdf9d7c13a45e5bb2f87f8dc952" target="_top" xlink:title="vpr::DescriptorSet\l::update">
<polygon fill="white" stroke="black" points="130,-0.5 130,-30.5 224,-30.5 224,-0.5 130,-0.5"/>
<text text-anchor="start" x="138" y="-18.5" font-family="Helvetica,sans-Serif" font-size="10.00">vpr::DescriptorSet</text>
<text text-anchor="middle" x="177" y="-7.5" font-family="Helvetica,sans-Serif" font-size="10.00">::update</text>
</a>
</g>
</g>
<!-- Node28&#45;&gt;Node29 -->
<g id="edge1" class="edge"><title>Node28&#45;&gt;Node29</title>
<path fill="none" stroke="midnightblue" d="M94.2109,-15.5C102.458,-15.5 111.134,-15.5 119.628,-15.5"/>
<polygon fill="midnightblue" stroke="midnightblue" points="119.857,-19.0001 129.857,-15.5 119.857,-12.0001 119.857,-19.0001"/>
</g>
</g>
</svg>
