<?xml version="1.0" encoding="UTF-8" standalone="no"?>
<!DOCTYPE svg PUBLIC "-//W3C//DTD SVG 1.1//EN"
 "http://www.w3.org/Graphics/SVG/1.1/DTD/svg11.dtd">
<!-- Generated by graphviz version 2.38.0 (20140413.2041)
 -->
<!-- Title: vpr::Buffer::setMappedMemoryRange Pages: 1 -->
<svg width="312pt" height="66pt"
 viewBox="0.00 0.00 312.00 66.00" xmlns="http://www.w3.org/2000/svg" xmlns:xlink="http://www.w3.org/1999/xlink">
<g id="graph0" class="graph" transform="scale(1 1) rotate(0) translate(4 62)">
<title>vpr::Buffer::setMappedMemoryRange</title>
<polygon fill="white" stroke="none" points="-4,4 -4,-62 308,-62 308,4 -4,4"/>
<!-- Node83 -->
<g id="node1" class="node"><title>Node83</title>
<polygon fill="#bfbfbf" stroke="black" points="0,-14 0,-44 149,-44 149,-14 0,-14"/>
<text text-anchor="start" x="8" y="-32" font-family="Helvetica,sans-Serif" font-size="10.00">vpr::Buffer::setMappedMemory</text>
<text text-anchor="middle" x="74.5" y="-21" font-family="Helvetica,sans-Serif" font-size="10.00">Range</text>
</g>
<!-- Node84 -->
<g id="node2" class="node"><title>Node84</title>
<g id="a_node2"><a xlink:href="classvpr_1_1_allocation.html#a1a223e41ca865271544ece71d18edce2" target="_top" xlink:title="vpr::Allocation::Memory">
<polygon fill="white" stroke="black" points="185,-38.5 185,-57.5 304,-57.5 304,-38.5 185,-38.5"/>
<text text-anchor="middle" x="244.5" y="-45.5" font-family="Helvetica,sans-Serif" font-size="10.00">vpr::Allocation::Memory</text>
</a>
</g>
</g>
<!-- Node83&#45;&gt;Node84 -->
<g id="edge1" class="edge"><title>Node83&#45;&gt;Node84</title>
<path fill="none" stroke="midnightblue" d="M149.187,-37.3337C157.649,-38.2906 166.252,-39.2636 174.647,-40.213"/>
<polygon fill="midnightblue" stroke="midnightblue" points="174.429,-43.7107 184.759,-41.3567 175.216,-36.755 174.429,-43.7107"/>
</g>
<!-- Node85 -->
<g id="node3" class="node"><title>Node85</title>
<g id="a_node3"><a xlink:href="classvpr_1_1_allocation.html#acb642a53c185ac6530ed60959b0e4397" target="_top" xlink:title="vpr::Allocation::Offset">
<polygon fill="white" stroke="black" points="190,-0.5 190,-19.5 299,-19.5 299,-0.5 190,-0.5"/>
<text text-anchor="middle" x="244.5" y="-7.5" font-family="Helvetica,sans-Serif" font-size="10.00">vpr::Allocation::Offset</text>
</a>
</g>
</g>
<!-- Node83&#45;&gt;Node85 -->
<g id="edge2" class="edge"><title>Node83&#45;&gt;Node85</title>
<path fill="none" stroke="midnightblue" d="M149.187,-20.6663C159.329,-19.5193 169.675,-18.3492 179.621,-17.2244"/>
<polygon fill="midnightblue" stroke="midnightblue" points="180.273,-20.6731 189.816,-16.0714 179.486,-13.7175 180.273,-20.6731"/>
</g>
</g>
</svg>
