<?xml version="1.0" encoding="UTF-8" standalone="no"?>
<!DOCTYPE svg PUBLIC "-//W3C//DTD SVG 1.1//EN"
 "http://www.w3.org/Graphics/SVG/1.1/DTD/svg11.dtd">
<!-- Generated by graphviz version 2.38.0 (20140413.2041)
 -->
<!-- Title: vpr::AllocationCollection Pages: 1 -->
<svg width="1854pt" height="564pt"
 viewBox="0.00 0.00 1854.00 564.00" xmlns="http://www.w3.org/2000/svg" xmlns:xlink="http://www.w3.org/1999/xlink">
<g id="graph0" class="graph" transform="scale(1 1) rotate(0) translate(4 560)">
<title>vpr::AllocationCollection</title>
<polygon fill="white" stroke="none" points="-4,4 -4,-560 1850,-560 1850,4 -4,4"/>
<!-- Node1 -->
<g id="node1" class="node"><title>Node1</title>
<polygon fill="#bfbfbf" stroke="black" points="10,-137.5 10,-156.5 130,-156.5 130,-137.5 10,-137.5"/>
<text text-anchor="middle" x="70" y="-144.5" font-family="Helvetica,sans-Serif" font-size="10.00">vpr::AllocationCollection</text>
</g>
<!-- Node5 -->
<g id="node5" class="node"><title>Node5</title>
<polygon fill="white" stroke="#bfbfbf" points="280,-132 280,-162 397,-162 397,-132 280,-132"/>
<text text-anchor="start" x="288" y="-150" font-family="Helvetica,sans-Serif" font-size="10.00">std::unique_ptr&lt; vpr</text>
<text text-anchor="middle" x="338.5" y="-139" font-family="Helvetica,sans-Serif" font-size="10.00">::AllocationCollection &gt;</text>
</g>
<!-- Node1&#45;&gt;Node5 -->
<g id="edge5" class="edge"><title>Node1&#45;&gt;Node5</title>
<path fill="none" stroke="#9a32cd" stroke-dasharray="5,2" d="M140.336,-147C183.714,-147 238.934,-147 279.894,-147"/>
<polygon fill="#9a32cd" stroke="#9a32cd" points="140.145,-143.5 130.145,-147 140.145,-150.5 140.145,-143.5"/>
<text text-anchor="middle" x="209.5" y="-150" font-family="Helvetica,sans-Serif" font-size="10.00"> ptr</text>
</g>
<!-- Node2 -->
<g id="node2" class="node"><title>Node2</title>
<g id="a_node2"><a xlink:href="classvpr_1_1_allocator.html" target="_top" xlink:title="The primary interface and class of this subsystem. ">
<polygon fill="white" stroke="black" points="1035.5,-230.5 1035.5,-249.5 1108.5,-249.5 1108.5,-230.5 1035.5,-230.5"/>
<text text-anchor="middle" x="1072" y="-237.5" font-family="Helvetica,sans-Serif" font-size="10.00">vpr::Allocator</text>
</a>
</g>
</g>
<!-- Node2&#45;&gt;Node1 -->
<g id="edge1" class="edge"><title>Node2&#45;&gt;Node1</title>
<path fill="none" stroke="#9a32cd" stroke-dasharray="5,2" d="M1039.16,-253.368C990.264,-272.655 893.314,-306 807.5,-306 337.5,-306 337.5,-306 337.5,-306 220.588,-306 110.393,-191.755 79.5307,-156.946"/>
<polygon fill="#9a32cd" stroke="#9a32cd" points="1040.59,-256.567 1048.57,-249.597 1037.98,-250.07 1040.59,-256.567"/>
<text text-anchor="middle" x="559" y="-309" font-family="Helvetica,sans-Serif" font-size="10.00"> allocator</text>
</g>
<!-- Node14 -->
<g id="node14" class="node"><title>Node14</title>
<polygon fill="white" stroke="#bfbfbf" points="1277.5,-225 1277.5,-255 1379.5,-255 1379.5,-225 1277.5,-225"/>
<text text-anchor="start" x="1285.5" y="-243" font-family="Helvetica,sans-Serif" font-size="10.00">std::unique_ptr&lt; vpr</text>
<text text-anchor="middle" x="1328.5" y="-232" font-family="Helvetica,sans-Serif" font-size="10.00">::Allocator &gt;</text>
</g>
<!-- Node2&#45;&gt;Node14 -->
<g id="edge15" class="edge"><title>Node2&#45;&gt;Node14</title>
<path fill="none" stroke="#9a32cd" stroke-dasharray="5,2" d="M1118.92,-240C1163.54,-240 1231.13,-240 1277.19,-240"/>
<polygon fill="#9a32cd" stroke="#9a32cd" points="1118.66,-236.5 1108.66,-240 1118.66,-243.5 1118.66,-236.5"/>
<text text-anchor="middle" x="1197" y="-243" font-family="Helvetica,sans-Serif" font-size="10.00"> ptr</text>
</g>
<!-- Node26 -->
<g id="node26" class="node"><title>Node26</title>
<g id="a_node26"><a xlink:href="classvpr_1_1_memory_block.html" target="_top" xlink:title="A MemoryBlock is a large contiguous region of Vulkan memory of a uniform type (device local...">
<polygon fill="white" stroke="black" points="1281,-44.5 1281,-63.5 1376,-63.5 1376,-44.5 1281,-44.5"/>
<text text-anchor="middle" x="1328.5" y="-51.5" font-family="Helvetica,sans-Serif" font-size="10.00">vpr::MemoryBlock</text>
</a>
</g>
</g>
<!-- Node2&#45;&gt;Node26 -->
<g id="edge35" class="edge"><title>Node2&#45;&gt;Node26</title>
<path fill="none" stroke="#9a32cd" stroke-dasharray="5,2" d="M1094.69,-224.149C1145.88,-186.737 1273,-93.8298 1314.31,-63.6419"/>
<polygon fill="#9a32cd" stroke="#9a32cd" points="1092.33,-221.535 1086.32,-230.262 1096.46,-227.187 1092.33,-221.535"/>
<text text-anchor="middle" x="1197" y="-183" font-family="Helvetica,sans-Serif" font-size="10.00"> allocator</text>
</g>
<!-- Node3 -->
<g id="node3" class="node"><title>Node3</title>
<polygon fill="white" stroke="#bfbfbf" points="720,-126.5 720,-167.5 893,-167.5 893,-126.5 720,-126.5"/>
<text text-anchor="start" x="728" y="-155.5" font-family="Helvetica,sans-Serif" font-size="10.00">std::map&lt; AllocationSize,</text>
<text text-anchor="start" x="728" y="-144.5" font-family="Helvetica,sans-Serif" font-size="10.00"> std::vector&lt; std::unique</text>
<text text-anchor="middle" x="806.5" y="-133.5" font-family="Helvetica,sans-Serif" font-size="10.00">_ptr&lt; vpr::AllocationCollection &gt; &gt; &gt;</text>
</g>
<!-- Node3&#45;&gt;Node2 -->
<g id="edge2" class="edge"><title>Node3&#45;&gt;Node2</title>
<path fill="none" stroke="#9a32cd" stroke-dasharray="5,2" d="M892.309,-170.512C923.345,-179.772 958.55,-191.05 990,-203 1011.68,-211.237 1035.76,-222.524 1051.99,-230.459"/>
<polygon fill="#9a32cd" stroke="#9a32cd" points="892.971,-167.058 882.389,-167.578 890.986,-173.77 892.971,-167.058"/>
<text text-anchor="middle" x="950.5" y="-206" font-family="Helvetica,sans-Serif" font-size="10.00"> allocations</text>
</g>
<!-- Node4 -->
<g id="node4" class="node"><title>Node4</title>
<polygon fill="white" stroke="#bfbfbf" points="477,-132 477,-162 641,-162 641,-132 477,-132"/>
<text text-anchor="start" x="485" y="-150" font-family="Helvetica,sans-Serif" font-size="10.00">std::vector&lt; std::unique</text>
<text text-anchor="middle" x="559" y="-139" font-family="Helvetica,sans-Serif" font-size="10.00">_ptr&lt; vpr::AllocationCollection &gt; &gt;</text>
</g>
<!-- Node4&#45;&gt;Node3 -->
<g id="edge3" class="edge"><title>Node4&#45;&gt;Node3</title>
<path fill="none" stroke="#9a32cd" stroke-dasharray="5,2" d="M651.268,-147C673.73,-147 697.699,-147 719.882,-147"/>
<polygon fill="#9a32cd" stroke="#9a32cd" points="651.066,-143.5 641.066,-147 651.066,-150.5 651.066,-143.5"/>
<text text-anchor="middle" x="680.5" y="-150" font-family="Helvetica,sans-Serif" font-size="10.00"> elements</text>
</g>
<!-- Node5&#45;&gt;Node4 -->
<g id="edge4" class="edge"><title>Node5&#45;&gt;Node4</title>
<path fill="none" stroke="#9a32cd" stroke-dasharray="5,2" d="M407.435,-147C429.442,-147 454.072,-147 476.934,-147"/>
<polygon fill="#9a32cd" stroke="#9a32cd" points="407.194,-143.5 397.194,-147 407.194,-150.5 407.194,-143.5"/>
<text text-anchor="middle" x="437.5" y="-150" font-family="Helvetica,sans-Serif" font-size="10.00"> elements</text>
</g>
<!-- Node6 -->
<g id="node6" class="node"><title>Node6</title>
<g id="a_node6"><a xlink:href="classvpr_1_1_device.html" target="_top" xlink:title="!The Device class is a wrapper around the vkLogicalDevice object. ">
<polygon fill="white" stroke="black" points="1546.5,-367.5 1546.5,-386.5 1609.5,-386.5 1609.5,-367.5 1546.5,-367.5"/>
<text text-anchor="middle" x="1578" y="-374.5" font-family="Helvetica,sans-Serif" font-size="10.00">vpr::Device</text>
</a>
</g>
</g>
<!-- Node6&#45;&gt;Node2 -->
<g id="edge6" class="edge"><title>Node6&#45;&gt;Node2</title>
<path fill="none" stroke="#9a32cd" stroke-dasharray="5,2" d="M1561.97,-359.196C1549.29,-345.421 1529.92,-327.052 1509,-317 1364.64,-247.63 1311.64,-283.36 1154,-255 1139.22,-252.341 1122.94,-249.34 1108.87,-246.724"/>
<polygon fill="#9a32cd" stroke="#9a32cd" points="1559.69,-361.905 1568.94,-367.064 1564.93,-357.261 1559.69,-361.905"/>
<text text-anchor="middle" x="1328.5" y="-282" font-family="Helvetica,sans-Serif" font-size="10.00"> parent</text>
</g>
<!-- Node7 -->
<g id="node7" class="node"><title>Node7</title>
<polygon fill="white" stroke="#bfbfbf" points="1258,-445 1258,-475 1399,-475 1399,-445 1258,-445"/>
<text text-anchor="start" x="1266" y="-463" font-family="Helvetica,sans-Serif" font-size="10.00">std::map&lt; VkQueueFlags,</text>
<text text-anchor="middle" x="1328.5" y="-452" font-family="Helvetica,sans-Serif" font-size="10.00"> VkDeviceQueueCreateInfo &gt;</text>
</g>
<!-- Node7&#45;&gt;Node6 -->
<g id="edge7" class="edge"><title>Node7&#45;&gt;Node6</title>
<path fill="none" stroke="#9a32cd" stroke-dasharray="5,2" d="M1409.44,-447.587C1441.16,-441.169 1477.51,-431.906 1509,-419 1529.54,-410.581 1550.97,-396.28 1564.15,-386.737"/>
<polygon fill="#9a32cd" stroke="#9a32cd" points="1408.46,-444.213 1399.32,-449.572 1409.81,-451.082 1408.46,-444.213"/>
<text text-anchor="middle" x="1463" y="-448" font-family="Helvetica,sans-Serif" font-size="10.00"> queueInfos</text>
</g>
<!-- Node8 -->
<g id="node8" class="node"><title>Node8</title>
<g id="a_node8"><a xlink:href="namespacevpr.html#structvpr_1_1vk_queue_family_indices" target="_top" xlink:title="vpr::vkQueueFamilyIndices">
<polygon fill="white" stroke="black" points="1262.5,-406.5 1262.5,-425.5 1394.5,-425.5 1394.5,-406.5 1262.5,-406.5"/>
<text text-anchor="middle" x="1328.5" y="-413.5" font-family="Helvetica,sans-Serif" font-size="10.00">vpr::vkQueueFamilyIndices</text>
</a>
</g>
</g>
<!-- Node8&#45;&gt;Node6 -->
<g id="edge8" class="edge"><title>Node8&#45;&gt;Node6</title>
<path fill="none" stroke="#9a32cd" stroke-dasharray="5,2" d="M1405.1,-406.575C1437.21,-402.286 1475.01,-396.86 1509,-391 1521.23,-388.891 1534.63,-386.213 1546.28,-383.765"/>
<polygon fill="#9a32cd" stroke="#9a32cd" points="1404.34,-403.145 1394.88,-407.927 1405.26,-410.085 1404.34,-403.145"/>
<text text-anchor="middle" x="1463" y="-407" font-family="Helvetica,sans-Serif" font-size="10.00"> QueueFamilyIndices</text>
</g>
<!-- Node9 -->
<g id="node9" class="node"><title>Node9</title>
<polygon fill="white" stroke="#bfbfbf" points="1024.5,-366 1024.5,-396 1119.5,-396 1119.5,-366 1024.5,-366"/>
<text text-anchor="start" x="1032.5" y="-384" font-family="Helvetica,sans-Serif" font-size="10.00">std::vector&lt; const</text>
<text text-anchor="middle" x="1072" y="-373" font-family="Helvetica,sans-Serif" font-size="10.00"> char *&gt;</text>
</g>
<!-- Node9&#45;&gt;Node6 -->
<g id="edge9" class="edge"><title>Node9&#45;&gt;Node6</title>
<path fill="none" stroke="#9a32cd" stroke-dasharray="5,2" d="M1129.77,-380.549C1236.56,-379.702 1464.01,-377.897 1546.4,-377.243"/>
<polygon fill="#9a32cd" stroke="#9a32cd" points="1129.48,-377.052 1119.51,-380.631 1129.54,-384.051 1129.48,-377.052"/>
<text text-anchor="middle" x="1328.5" y="-382" font-family="Helvetica,sans-Serif" font-size="10.00"> enabledExtensions</text>
</g>
<!-- Node15 -->
<g id="node15" class="node"><title>Node15</title>
<g id="a_node15"><a xlink:href="classvpr_1_1_instance.html" target="_top" xlink:title="Instance is a wrapper around the base Vulkan object that must be initialized first. ">
<polygon fill="white" stroke="black" points="1293,-494.5 1293,-513.5 1364,-513.5 1364,-494.5 1293,-494.5"/>
<text text-anchor="middle" x="1328.5" y="-501.5" font-family="Helvetica,sans-Serif" font-size="10.00">vpr::Instance</text>
</a>
</g>
</g>
<!-- Node9&#45;&gt;Node15 -->
<g id="edge19" class="edge"><title>Node9&#45;&gt;Node15</title>
<path fill="none" stroke="#9a32cd" stroke-dasharray="5,2" d="M1129.37,-391.121C1164.87,-400.034 1209.57,-416.253 1240,-445 1254.17,-458.387 1243.18,-472.331 1258,-485 1267.7,-493.292 1280.7,-497.992 1292.84,-500.647"/>
<polygon fill="#9a32cd" stroke="#9a32cd" points="1130.17,-387.711 1119.63,-388.796 1128.54,-394.52 1130.17,-387.711"/>
<text text-anchor="middle" x="1197" y="-448" font-family="Helvetica,sans-Serif" font-size="10.00"> enabledExtensions</text>
</g>
<!-- Node10 -->
<g id="node10" class="node"><title>Node10</title>
<g id="a_node10"><a xlink:href="classvpr_1_1_physical_device.html" target="_top" xlink:title="! PhysicalDevice is a wrapper around a VkPhysicalDevice object, which is itself merely a handle repre...">
<polygon fill="white" stroke="black" points="756,-363.5 756,-382.5 857,-382.5 857,-363.5 756,-363.5"/>
<text text-anchor="middle" x="806.5" y="-370.5" font-family="Helvetica,sans-Serif" font-size="10.00">vpr::PhysicalDevice</text>
</a>
</g>
</g>
<!-- Node10&#45;&gt;Node6 -->
<g id="edge10" class="edge"><title>Node10&#45;&gt;Node6</title>
<path fill="none" stroke="#9a32cd" stroke-dasharray="5,2" d="M867.358,-366.97C907.172,-363.268 960.656,-358.886 1008,-357 1213.68,-348.806 1461.26,-367.178 1546.46,-374.317"/>
<polygon fill="#9a32cd" stroke="#9a32cd" points="866.912,-363.496 857.284,-367.919 867.568,-370.465 866.912,-363.496"/>
<text text-anchor="middle" x="1197" y="-359" font-family="Helvetica,sans-Serif" font-size="10.00"> parent</text>
</g>
<!-- Node16 -->
<g id="node16" class="node"><title>Node16</title>
<polygon fill="white" stroke="#bfbfbf" points="1021,-424 1021,-454 1123,-454 1123,-424 1021,-424"/>
<text text-anchor="start" x="1029" y="-442" font-family="Helvetica,sans-Serif" font-size="10.00">std::unique_ptr&lt; vpr</text>
<text text-anchor="middle" x="1072" y="-431" font-family="Helvetica,sans-Serif" font-size="10.00">::PhysicalDevice &gt;</text>
</g>
<!-- Node10&#45;&gt;Node16 -->
<g id="edge18" class="edge"><title>Node10&#45;&gt;Node16</title>
<path fill="none" stroke="#9a32cd" stroke-dasharray="5,2" d="M855.431,-385.006C902.252,-396.733 973.225,-414.51 1020.81,-426.428"/>
<polygon fill="#9a32cd" stroke="#9a32cd" points="856.085,-381.561 845.534,-382.526 854.384,-388.351 856.085,-381.561"/>
<text text-anchor="middle" x="950.5" y="-420" font-family="Helvetica,sans-Serif" font-size="10.00"> ptr</text>
</g>
<!-- Node11 -->
<g id="node11" class="node"><title>Node11</title>
<polygon fill="white" stroke="#bfbfbf" points="501,-358 501,-388 617,-388 617,-358 501,-358"/>
<text text-anchor="start" x="509" y="-376" font-family="Helvetica,sans-Serif" font-size="10.00">std::unique_ptr&lt; vpr</text>
<text text-anchor="middle" x="559" y="-365" font-family="Helvetica,sans-Serif" font-size="10.00">::PhysicalDeviceImpl &gt;</text>
</g>
<!-- Node11&#45;&gt;Node10 -->
<g id="edge11" class="edge"><title>Node11&#45;&gt;Node10</title>
<path fill="none" stroke="#9a32cd" stroke-dasharray="5,2" d="M627.328,-373C667.896,-373 718.686,-373 755.648,-373"/>
<polygon fill="#9a32cd" stroke="#9a32cd" points="627.249,-369.5 617.249,-373 627.249,-376.5 627.249,-369.5"/>
<text text-anchor="middle" x="680.5" y="-376" font-family="Helvetica,sans-Serif" font-size="10.00"> impl</text>
</g>
<!-- Node12 -->
<g id="node12" class="node"><title>Node12</title>
<g id="a_node12"><a xlink:href="classvpr_1_1_physical_device_impl.html" target="_top" xlink:title="vpr::PhysicalDeviceImpl">
<polygon fill="white" stroke="black" points="279,-363.5 279,-382.5 398,-382.5 398,-363.5 279,-363.5"/>
<text text-anchor="middle" x="338.5" y="-370.5" font-family="Helvetica,sans-Serif" font-size="10.00">vpr::PhysicalDeviceImpl</text>
</a>
</g>
</g>
<!-- Node12&#45;&gt;Node11 -->
<g id="edge12" class="edge"><title>Node12&#45;&gt;Node11</title>
<path fill="none" stroke="#9a32cd" stroke-dasharray="5,2" d="M408.362,-373C438.103,-373 472.491,-373 500.797,-373"/>
<polygon fill="#9a32cd" stroke="#9a32cd" points="408.054,-369.5 398.054,-373 408.054,-376.5 408.054,-369.5"/>
<text text-anchor="middle" x="437.5" y="-376" font-family="Helvetica,sans-Serif" font-size="10.00"> ptr</text>
</g>
<!-- Node13 -->
<g id="node13" class="node"><title>Node13</title>
<polygon fill="white" stroke="#bfbfbf" points="0,-358 0,-388 140,-388 140,-358 0,-358"/>
<text text-anchor="start" x="8" y="-376" font-family="Helvetica,sans-Serif" font-size="10.00">std::vector&lt; VkQueueFamily</text>
<text text-anchor="middle" x="70" y="-365" font-family="Helvetica,sans-Serif" font-size="10.00">Properties &gt;</text>
</g>
<!-- Node13&#45;&gt;Node12 -->
<g id="edge13" class="edge"><title>Node13&#45;&gt;Node12</title>
<path fill="none" stroke="#9a32cd" stroke-dasharray="5,2" d="M150.348,-373C191.603,-373 241.148,-373 278.896,-373"/>
<polygon fill="#9a32cd" stroke="#9a32cd" points="150.324,-369.5 140.324,-373 150.324,-376.5 150.324,-369.5"/>
<text text-anchor="middle" x="209.5" y="-376" font-family="Helvetica,sans-Serif" font-size="10.00"> queueFamilyProperties</text>
</g>
<!-- Node14&#45;&gt;Node6 -->
<g id="edge14" class="edge"><title>Node14&#45;&gt;Node6</title>
<path fill="none" stroke="#9a32cd" stroke-dasharray="5,2" d="M1389.77,-236.724C1426.93,-237.533 1474.02,-243.919 1509,-267 1546.67,-291.852 1567.11,-345.49 1574.15,-367.391"/>
<polygon fill="#9a32cd" stroke="#9a32cd" points="1389.6,-233.223 1379.57,-236.635 1389.54,-240.222 1389.6,-233.223"/>
<text text-anchor="middle" x="1463" y="-270" font-family="Helvetica,sans-Serif" font-size="10.00"> vkAllocator</text>
</g>
<!-- Node15&#45;&gt;Node6 -->
<g id="edge16" class="edge"><title>Node15&#45;&gt;Node6</title>
<path fill="none" stroke="#9a32cd" stroke-dasharray="5,2" d="M1374.13,-492.766C1387.88,-489.309 1403.06,-485.494 1417,-482 1457.88,-471.75 1473.33,-481.449 1509,-459 1538.9,-440.185 1562.03,-403.8 1571.86,-386.536"/>
<polygon fill="#9a32cd" stroke="#9a32cd" points="1373.26,-489.377 1364.41,-495.211 1374.96,-496.166 1373.26,-489.377"/>
<text text-anchor="middle" x="1463" y="-485" font-family="Helvetica,sans-Serif" font-size="10.00"> parentInstance</text>
</g>
<!-- Node18 -->
<g id="node18" class="node"><title>Node18</title>
<g id="a_node18"><a xlink:href="classvpr_1_1_surface_k_h_r.html" target="_top" xlink:title="The bare&#45;minimum required to wrap a VkSurfaceKHR object. ">
<polygon fill="white" stroke="black" points="1534,-536.5 1534,-555.5 1622,-555.5 1622,-536.5 1534,-536.5"/>
<text text-anchor="middle" x="1578" y="-543.5" font-family="Helvetica,sans-Serif" font-size="10.00">vpr::SurfaceKHR</text>
</a>
</g>
</g>
<!-- Node15&#45;&gt;Node18 -->
<g id="edge22" class="edge"><title>Node15&#45;&gt;Node18</title>
<path fill="none" stroke="#9a32cd" stroke-dasharray="5,2" d="M1374.47,-513.068C1388.11,-515.729 1403.15,-518.574 1417,-521 1456.46,-527.914 1501.57,-534.877 1533.81,-539.692"/>
<polygon fill="#9a32cd" stroke="#9a32cd" points="1374.85,-509.574 1364.36,-511.079 1373.5,-516.443 1374.85,-509.574"/>
<text text-anchor="middle" x="1463" y="-538" font-family="Helvetica,sans-Serif" font-size="10.00"> parent</text>
</g>
<!-- Node16&#45;&gt;Node15 -->
<g id="edge17" class="edge"><title>Node16&#45;&gt;Node15</title>
<path fill="none" stroke="#9a32cd" stroke-dasharray="5,2" d="M1133.28,-454.394C1183.02,-467.1 1251.87,-484.683 1292.83,-495.144"/>
<polygon fill="#9a32cd" stroke="#9a32cd" points="1133.84,-450.925 1123.28,-451.842 1132.1,-457.708 1133.84,-450.925"/>
<text text-anchor="middle" x="1197" y="-484" font-family="Helvetica,sans-Serif" font-size="10.00"> physicalDevice</text>
</g>
<!-- Node17 -->
<g id="node17" class="node"><title>Node17</title>
<polygon fill="white" stroke="#bfbfbf" points="1726,-510 1726,-540 1828,-540 1828,-510 1726,-510"/>
<text text-anchor="start" x="1734" y="-528" font-family="Helvetica,sans-Serif" font-size="10.00">std::unique_ptr&lt; vpr</text>
<text text-anchor="middle" x="1777" y="-517" font-family="Helvetica,sans-Serif" font-size="10.00">::SurfaceKHR &gt;</text>
</g>
<!-- Node17&#45;&gt;Node15 -->
<g id="edge20" class="edge"><title>Node17&#45;&gt;Node15</title>
<path fill="none" stroke="#9a32cd" stroke-dasharray="5,2" d="M1715.39,-521.001C1688.88,-519.326 1657.4,-517.438 1629,-516 1533.11,-511.144 1419.87,-507.055 1364.1,-505.149"/>
<polygon fill="#9a32cd" stroke="#9a32cd" points="1715.47,-524.513 1725.67,-521.655 1715.91,-517.527 1715.47,-524.513"/>
<text text-anchor="middle" x="1578" y="-519" font-family="Helvetica,sans-Serif" font-size="10.00"> surface</text>
</g>
<!-- Node18&#45;&gt;Node17 -->
<g id="edge21" class="edge"><title>Node18&#45;&gt;Node17</title>
<path fill="none" stroke="#9a32cd" stroke-dasharray="5,2" d="M1632.24,-540.325C1661.38,-537.218 1697.28,-533.392 1725.91,-530.339"/>
<polygon fill="#9a32cd" stroke="#9a32cd" points="1631.81,-536.851 1622.23,-541.391 1632.55,-543.812 1631.81,-536.851"/>
<text text-anchor="middle" x="1668.5" y="-541" font-family="Helvetica,sans-Serif" font-size="10.00"> ptr</text>
</g>
<!-- Node19 -->
<g id="node19" class="node"><title>Node19</title>
<polygon fill="white" stroke="#bfbfbf" points="751,-236.5 751,-277.5 862,-277.5 862,-236.5 751,-236.5"/>
<text text-anchor="start" x="759" y="-265.5" font-family="Helvetica,sans-Serif" font-size="10.00">std::unordered_set</text>
<text text-anchor="start" x="759" y="-254.5" font-family="Helvetica,sans-Serif" font-size="10.00">&lt; std::unique_ptr&lt; vpr</text>
<text text-anchor="middle" x="806.5" y="-243.5" font-family="Helvetica,sans-Serif" font-size="10.00">::Allocation &gt; &gt;</text>
</g>
<!-- Node19&#45;&gt;Node2 -->
<g id="edge23" class="edge"><title>Node19&#45;&gt;Node2</title>
<path fill="none" stroke="#9a32cd" stroke-dasharray="5,2" d="M872.125,-252.831C923.574,-249.511 993.659,-244.99 1035.42,-242.295"/>
<polygon fill="#9a32cd" stroke="#9a32cd" points="871.851,-249.341 862.097,-253.478 872.302,-256.326 871.851,-249.341"/>
<text text-anchor="middle" x="950.5" y="-254" font-family="Helvetica,sans-Serif" font-size="10.00"> privateAllocations</text>
</g>
<!-- Node20 -->
<g id="node20" class="node"><title>Node20</title>
<polygon fill="white" stroke="#bfbfbf" points="508,-239 508,-269 610,-269 610,-239 508,-239"/>
<text text-anchor="start" x="516" y="-257" font-family="Helvetica,sans-Serif" font-size="10.00">std::unique_ptr&lt; vpr</text>
<text text-anchor="middle" x="559" y="-246" font-family="Helvetica,sans-Serif" font-size="10.00">::Allocation &gt;</text>
</g>
<!-- Node20&#45;&gt;Node19 -->
<g id="edge24" class="edge"><title>Node20&#45;&gt;Node19</title>
<path fill="none" stroke="#9a32cd" stroke-dasharray="5,2" d="M620.384,-254.738C660.202,-255.224 711.943,-255.857 750.597,-256.329"/>
<polygon fill="#9a32cd" stroke="#9a32cd" points="620.315,-251.237 610.273,-254.614 620.229,-258.236 620.315,-251.237"/>
<text text-anchor="middle" x="680.5" y="-259" font-family="Helvetica,sans-Serif" font-size="10.00"> keys</text>
</g>
<!-- Node21 -->
<g id="node21" class="node"><title>Node21</title>
<g id="a_node21"><a xlink:href="classvpr_1_1_allocation.html" target="_top" xlink:title="Allocation class represents a singular allocation: can be a private allocation (i.e, only user of attached DeviceMemory) or a block allocation (bound to sub&#45;region of device memory) ">
<polygon fill="white" stroke="black" points="300,-244.5 300,-263.5 377,-263.5 377,-244.5 300,-244.5"/>
<text text-anchor="middle" x="338.5" y="-251.5" font-family="Helvetica,sans-Serif" font-size="10.00">vpr::Allocation</text>
</a>
</g>
</g>
<!-- Node21&#45;&gt;Node20 -->
<g id="edge25" class="edge"><title>Node21&#45;&gt;Node20</title>
<path fill="none" stroke="#9a32cd" stroke-dasharray="5,2" d="M387.225,-254C422.91,-254 471.589,-254 507.846,-254"/>
<polygon fill="#9a32cd" stroke="#9a32cd" points="387.062,-250.5 377.061,-254 387.061,-257.5 387.062,-250.5"/>
<text text-anchor="middle" x="437.5" y="-257" font-family="Helvetica,sans-Serif" font-size="10.00"> ptr</text>
</g>
<!-- Node22 -->
<g id="node22" class="node"><title>Node22</title>
<polygon fill="white" stroke="#bfbfbf" points="742,-187 742,-217 871,-217 871,-187 742,-187"/>
<text text-anchor="start" x="750" y="-205" font-family="Helvetica,sans-Serif" font-size="10.00">std::map&lt; AllocationSize,</text>
<text text-anchor="middle" x="806.5" y="-194" font-family="Helvetica,sans-Serif" font-size="10.00"> std::vector&lt; bool &gt; &gt;</text>
</g>
<!-- Node22&#45;&gt;Node2 -->
<g id="edge26" class="edge"><title>Node22&#45;&gt;Node2</title>
<path fill="none" stroke="#9a32cd" stroke-dasharray="5,2" d="M881.465,-212.667C931.743,-219.917 996.021,-229.187 1035.32,-234.854"/>
<polygon fill="#9a32cd" stroke="#9a32cd" points="881.683,-209.162 871.286,-211.199 880.684,-216.09 881.683,-209.162"/>
<text text-anchor="middle" x="950.5" y="-231" font-family="Helvetica,sans-Serif" font-size="10.00"> emptyAllocations</text>
</g>
<!-- Node23 -->
<g id="node23" class="node"><title>Node23</title>
<polygon fill="white" stroke="#bfbfbf" points="510,-192.5 510,-211.5 608,-211.5 608,-192.5 510,-192.5"/>
<text text-anchor="middle" x="559" y="-199.5" font-family="Helvetica,sans-Serif" font-size="10.00">std::vector&lt; bool &gt;</text>
</g>
<!-- Node23&#45;&gt;Node22 -->
<g id="edge27" class="edge"><title>Node23&#45;&gt;Node22</title>
<path fill="none" stroke="#9a32cd" stroke-dasharray="5,2" d="M618.363,-202C655.45,-202 703.474,-202 741.587,-202"/>
<polygon fill="#9a32cd" stroke="#9a32cd" points="618.21,-198.5 608.21,-202 618.21,-205.5 618.21,-198.5"/>
<text text-anchor="middle" x="680.5" y="-205" font-family="Helvetica,sans-Serif" font-size="10.00"> elements</text>
</g>
<!-- Node24 -->
<g id="node24" class="node"><title>Node24</title>
<polygon fill="white" stroke="#bfbfbf" points="1708,-66 1708,-96 1846,-96 1846,-66 1708,-66"/>
<text text-anchor="start" x="1716" y="-84" font-family="Helvetica,sans-Serif" font-size="10.00">std::vector&lt; std::unique</text>
<text text-anchor="middle" x="1777" y="-73" font-family="Helvetica,sans-Serif" font-size="10.00">_ptr&lt; vpr::MemoryBlock &gt; &gt;</text>
</g>
<!-- Node24&#45;&gt;Node1 -->
<g id="edge28" class="edge"><title>Node24&#45;&gt;Node1</title>
<path fill="none" stroke="#9a32cd" stroke-dasharray="5,2" d="M1697.77,-90.8636C1661.68,-94.6136 1618.22,-98 1579,-98 337.5,-98 337.5,-98 337.5,-98 251.176,-98 151.679,-123.176 102.246,-137.436"/>
<polygon fill="#9a32cd" stroke="#9a32cd" points="1698.17,-94.3405 1707.75,-89.7988 1697.43,-87.38 1698.17,-94.3405"/>
<text text-anchor="middle" x="950.5" y="-101" font-family="Helvetica,sans-Serif" font-size="10.00"> allocations</text>
</g>
<!-- Node25 -->
<g id="node25" class="node"><title>Node25</title>
<polygon fill="white" stroke="#bfbfbf" points="1527,-39 1527,-69 1629,-69 1629,-39 1527,-39"/>
<text text-anchor="start" x="1535" y="-57" font-family="Helvetica,sans-Serif" font-size="10.00">std::unique_ptr&lt; vpr</text>
<text text-anchor="middle" x="1578" y="-46" font-family="Helvetica,sans-Serif" font-size="10.00">::MemoryBlock &gt;</text>
</g>
<!-- Node25&#45;&gt;Node24 -->
<g id="edge29" class="edge"><title>Node25&#45;&gt;Node24</title>
<path fill="none" stroke="#9a32cd" stroke-dasharray="5,2" d="M1639.25,-62.2581C1660.87,-65.2212 1685.4,-68.5832 1707.66,-71.6335"/>
<polygon fill="#9a32cd" stroke="#9a32cd" points="1639.6,-58.7735 1629.22,-60.8831 1638.65,-65.7086 1639.6,-58.7735"/>
<text text-anchor="middle" x="1668.5" y="-73" font-family="Helvetica,sans-Serif" font-size="10.00"> elements</text>
</g>
<!-- Node26&#45;&gt;Node25 -->
<g id="edge30" class="edge"><title>Node26&#45;&gt;Node25</title>
<path fill="none" stroke="#9a32cd" stroke-dasharray="5,2" d="M1386.22,-54C1428.63,-54 1486.08,-54 1526.83,-54"/>
<polygon fill="#9a32cd" stroke="#9a32cd" points="1386.05,-50.5001 1376.05,-54 1386.05,-57.5001 1386.05,-50.5001"/>
<text text-anchor="middle" x="1463" y="-57" font-family="Helvetica,sans-Serif" font-size="10.00"> ptr</text>
</g>
<!-- Node27 -->
<g id="node27" class="node"><title>Node27</title>
<polygon fill="white" stroke="#bfbfbf" points="1009.5,-0.5 1009.5,-19.5 1134.5,-19.5 1134.5,-0.5 1009.5,-0.5"/>
<text text-anchor="middle" x="1072" y="-7.5" font-family="Helvetica,sans-Serif" font-size="10.00">std::list&lt; Suballocation &gt;</text>
</g>
<!-- Node27&#45;&gt;Node26 -->
<g id="edge31" class="edge"><title>Node27&#45;&gt;Node26</title>
<path fill="none" stroke="#9a32cd" stroke-dasharray="5,2" d="M1138.1,-21.2556C1182.73,-28.9717 1240.88,-39.0251 1280.91,-45.9457"/>
<polygon fill="#9a32cd" stroke="#9a32cd" points="1138.67,-17.8022 1128.22,-19.5473 1137.48,-24.6999 1138.67,-17.8022"/>
<text text-anchor="middle" x="1197" y="-42" font-family="Helvetica,sans-Serif" font-size="10.00"> Suballocations</text>
</g>
<!-- Node28 -->
<g id="node28" class="node"><title>Node28</title>
<g id="a_node28"><a xlink:href="structvpr_1_1_suballocation.html" target="_top" xlink:title="During the process of finding a suitable region to bind to, we need to store things like &quot;Suballocati...">
<polygon fill="white" stroke="black" points="760,-0.5 760,-19.5 853,-19.5 853,-0.5 760,-0.5"/>
<text text-anchor="middle" x="806.5" y="-7.5" font-family="Helvetica,sans-Serif" font-size="10.00">vpr::Suballocation</text>
</a>
</g>
</g>
<!-- Node28&#45;&gt;Node27 -->
<g id="edge32" class="edge"><title>Node28&#45;&gt;Node27</title>
<path fill="none" stroke="#9a32cd" stroke-dasharray="5,2" d="M863.325,-10C906.077,-10 965.021,-10 1009.19,-10"/>
<polygon fill="#9a32cd" stroke="#9a32cd" points="863.097,-6.5001 853.097,-10 863.097,-13.5001 863.097,-6.5001"/>
<text text-anchor="middle" x="950.5" y="-13" font-family="Helvetica,sans-Serif" font-size="10.00"> elements</text>
</g>
<!-- Node29 -->
<g id="node29" class="node"><title>Node29</title>
<polygon fill="white" stroke="#bfbfbf" points="1008,-39 1008,-69 1136,-69 1136,-39 1008,-39"/>
<text text-anchor="start" x="1016" y="-57" font-family="Helvetica,sans-Serif" font-size="10.00">std::vector&lt; suballocation</text>
<text text-anchor="middle" x="1072" y="-46" font-family="Helvetica,sans-Serif" font-size="10.00">List::iterator &gt;</text>
</g>
<!-- Node29&#45;&gt;Node26 -->
<g id="edge33" class="edge"><title>Node29&#45;&gt;Node26</title>
<path fill="none" stroke="#9a32cd" stroke-dasharray="5,2" d="M1146.42,-54C1189.65,-54 1243.04,-54 1280.61,-54"/>
<polygon fill="#9a32cd" stroke="#9a32cd" points="1146.24,-50.5001 1136.24,-54 1146.24,-57.5001 1146.24,-50.5001"/>
<text text-anchor="middle" x="1197" y="-57" font-family="Helvetica,sans-Serif" font-size="10.00"> availSuballocations</text>
</g>
<!-- Node30 -->
<g id="node30" class="node"><title>Node30</title>
<g id="a_node30"><a xlink:title="STL iterator class. ">
<polygon fill="white" stroke="#bfbfbf" points="752.5,-44.5 752.5,-63.5 860.5,-63.5 860.5,-44.5 752.5,-44.5"/>
<text text-anchor="middle" x="806.5" y="-51.5" font-family="Helvetica,sans-Serif" font-size="10.00">std::list&lt; T &gt;::iterator</text>
</a>
</g>
</g>
<!-- Node30&#45;&gt;Node29 -->
<g id="edge34" class="edge"><title>Node30&#45;&gt;Node29</title>
<path fill="none" stroke="#9a32cd" stroke-dasharray="5,2" d="M870.512,-54C912.065,-54 966.289,-54 1007.87,-54"/>
<polygon fill="#9a32cd" stroke="#9a32cd" points="870.506,-50.5001 860.506,-54 870.506,-57.5001 870.506,-50.5001"/>
<text text-anchor="middle" x="950.5" y="-57" font-family="Helvetica,sans-Serif" font-size="10.00"> elements</text>
</g>
</g>
</svg>
