<?xml version="1.0" encoding="UTF-8" standalone="no"?>
<!DOCTYPE svg PUBLIC "-//W3C//DTD SVG 1.1//EN"
 "http://www.w3.org/Graphics/SVG/1.1/DTD/svg11.dtd">
<!-- Generated by graphviz version 2.38.0 (20140413.2041)
 -->
<!-- Title: el::base::VRegistry::level Pages: 1 -->
<svg width="391pt" height="137pt"
 viewBox="0.00 0.00 391.00 137.00" xmlns="http://www.w3.org/2000/svg" xmlns:xlink="http://www.w3.org/1999/xlink">
<g id="graph0" class="graph" transform="scale(1 1) rotate(0) translate(4 133)">
<title>el::base::VRegistry::level</title>
<polygon fill="white" stroke="none" points="-4,4 -4,-133 387,-133 387,4 -4,4"/>
<!-- Node14 -->
<g id="node1" class="node"><title>Node14</title>
<polygon fill="#bfbfbf" stroke="black" points="0,-49.5 0,-79.5 100,-79.5 100,-49.5 0,-49.5"/>
<text text-anchor="start" x="8" y="-67.5" font-family="Helvetica,sans-Serif" font-size="10.00">el::base::VRegistry</text>
<text text-anchor="middle" x="50" y="-56.5" font-family="Helvetica,sans-Serif" font-size="10.00">::level</text>
</g>
<!-- Node15 -->
<g id="node2" class="node"><title>Node15</title>
<g id="a_node2"><a xlink:href="classel_1_1base_1_1_v_registry.html#aea4fb84a03363080ee2501193084f71f" target="_top" xlink:title="Sets verbose level. Accepted range is 0&#45;9. ">
<polygon fill="white" stroke="black" points="141.5,-98.5 141.5,-128.5 241.5,-128.5 241.5,-98.5 141.5,-98.5"/>
<text text-anchor="start" x="149.5" y="-116.5" font-family="Helvetica,sans-Serif" font-size="10.00">el::base::VRegistry</text>
<text text-anchor="middle" x="191.5" y="-105.5" font-family="Helvetica,sans-Serif" font-size="10.00">::setLevel</text>
</a>
</g>
</g>
<!-- Node14&#45;&gt;Node15 -->
<g id="edge1" class="edge"><title>Node14&#45;&gt;Node15</title>
<path fill="none" stroke="midnightblue" d="M103.769,-83.0355C118.176,-88.0959 133.612,-93.5177 147.409,-98.3641"/>
<polygon fill="midnightblue" stroke="midnightblue" points="104.588,-79.6133 93.9929,-79.6014 102.268,-86.2178 104.588,-79.6133"/>
</g>
<!-- Node17 -->
<g id="node4" class="node"><title>Node17</title>
<g id="a_node4"><a xlink:href="classel_1_1base_1_1_v_registry.html#a65e202cc547cd11231d3ea0fb70765d0" target="_top" xlink:title="el::base::VRegistry\l::setModules">
<polygon fill="white" stroke="black" points="141.5,-49.5 141.5,-79.5 241.5,-79.5 241.5,-49.5 141.5,-49.5"/>
<text text-anchor="start" x="149.5" y="-67.5" font-family="Helvetica,sans-Serif" font-size="10.00">el::base::VRegistry</text>
<text text-anchor="middle" x="191.5" y="-56.5" font-family="Helvetica,sans-Serif" font-size="10.00">::setModules</text>
</a>
</g>
</g>
<!-- Node14&#45;&gt;Node17 -->
<g id="edge3" class="edge"><title>Node14&#45;&gt;Node17</title>
<path fill="none" stroke="midnightblue" d="M110.356,-64.5C120.667,-64.5 131.289,-64.5 141.291,-64.5"/>
<polygon fill="midnightblue" stroke="midnightblue" points="110.183,-61.0001 100.182,-64.5 110.182,-68.0001 110.183,-61.0001"/>
</g>
<!-- Node18 -->
<g id="node5" class="node"><title>Node18</title>
<g id="a_node5"><a xlink:href="classel_1_1base_1_1_p_error_writer.html#adc8b5fe696977395f0e8b0ee5d5caf60" target="_top" xlink:title="el::base::PErrorWriter\l::~PErrorWriter">
<polygon fill="white" stroke="black" points="136,-0.5 136,-30.5 247,-30.5 247,-0.5 136,-0.5"/>
<text text-anchor="start" x="144" y="-18.5" font-family="Helvetica,sans-Serif" font-size="10.00">el::base::PErrorWriter</text>
<text text-anchor="middle" x="191.5" y="-7.5" font-family="Helvetica,sans-Serif" font-size="10.00">::~PErrorWriter</text>
</a>
</g>
</g>
<!-- Node14&#45;&gt;Node18 -->
<g id="edge5" class="edge"><title>Node14&#45;&gt;Node18</title>
<path fill="none" stroke="midnightblue" d="M103.769,-45.9645C118.176,-40.9041 133.612,-35.4823 147.409,-30.6359"/>
<polygon fill="midnightblue" stroke="midnightblue" points="102.268,-42.7822 93.9929,-49.3986 104.588,-49.3867 102.268,-42.7822"/>
</g>
<!-- Node16 -->
<g id="node3" class="node"><title>Node16</title>
<g id="a_node3"><a xlink:href="classel_1_1base_1_1_v_registry.html#a811e62d7d016a0714b4363f47216a9da" target="_top" xlink:title="el::base::VRegistry\l::setFromArgs">
<polygon fill="white" stroke="black" points="283,-73.5 283,-103.5 383,-103.5 383,-73.5 283,-73.5"/>
<text text-anchor="start" x="291" y="-91.5" font-family="Helvetica,sans-Serif" font-size="10.00">el::base::VRegistry</text>
<text text-anchor="middle" x="333" y="-80.5" font-family="Helvetica,sans-Serif" font-size="10.00">::setFromArgs</text>
</a>
</g>
</g>
<!-- Node15&#45;&gt;Node16 -->
<g id="edge2" class="edge"><title>Node15&#45;&gt;Node16</title>
<path fill="none" stroke="midnightblue" d="M251.534,-102.92C261.946,-101.054 272.685,-99.13 282.791,-97.3187"/>
<polygon fill="midnightblue" stroke="midnightblue" points="250.908,-99.4767 241.682,-104.686 252.143,-106.367 250.908,-99.4767"/>
</g>
<!-- Node17&#45;&gt;Node16 -->
<g id="edge4" class="edge"><title>Node17&#45;&gt;Node16</title>
<path fill="none" stroke="midnightblue" d="M251.856,-74.7118C262.167,-76.4858 272.789,-78.3131 282.791,-80.034"/>
<polygon fill="midnightblue" stroke="midnightblue" points="252.131,-71.2078 241.682,-72.9615 250.944,-78.1064 252.131,-71.2078"/>
</g>
</g>
</svg>
