<?xml version="1.0" encoding="UTF-8" standalone="no"?>
<!DOCTYPE svg PUBLIC "-//W3C//DTD SVG 1.1//EN"
 "http://www.w3.org/Graphics/SVG/1.1/DTD/svg11.dtd">
<!-- Generated by graphviz version 2.38.0 (20140413.2041)
 -->
<!-- Title: el::base::utils::Str::cStringCaseEq Pages: 1 -->
<svg width="408pt" height="88pt"
 viewBox="0.00 0.00 408.00 88.00" xmlns="http://www.w3.org/2000/svg" xmlns:xlink="http://www.w3.org/1999/xlink">
<g id="graph0" class="graph" transform="scale(1 1) rotate(0) translate(4 84)">
<title>el::base::utils::Str::cStringCaseEq</title>
<polygon fill="white" stroke="none" points="-4,4 -4,-84 404,-84 404,4 -4,4"/>
<!-- Node16 -->
<g id="node1" class="node"><title>Node16</title>
<polygon fill="#bfbfbf" stroke="black" points="0,-24.5 0,-54.5 94,-54.5 94,-24.5 0,-24.5"/>
<text text-anchor="start" x="8" y="-42.5" font-family="Helvetica,sans-Serif" font-size="10.00">el::base::utils::Str</text>
<text text-anchor="middle" x="47" y="-31.5" font-family="Helvetica,sans-Serif" font-size="10.00">::cStringCaseEq</text>
</g>
<!-- Node17 -->
<g id="node2" class="node"><title>Node17</title>
<g id="a_node2"><a xlink:href="classel_1_1_level_helper.html#a3dcd4cba95cdf58f223b196f814a9205" target="_top" xlink:title="Converts from levelStr to Level. ">
<polygon fill="white" stroke="black" points="139.5,-49.5 139.5,-79.5 255.5,-79.5 255.5,-49.5 139.5,-49.5"/>
<text text-anchor="start" x="147.5" y="-67.5" font-family="Helvetica,sans-Serif" font-size="10.00">el::LevelHelper::convert</text>
<text text-anchor="middle" x="197.5" y="-56.5" font-family="Helvetica,sans-Serif" font-size="10.00">FromString</text>
</a>
</g>
</g>
<!-- Node16&#45;&gt;Node17 -->
<g id="edge1" class="edge"><title>Node16&#45;&gt;Node17</title>
<path fill="none" stroke="midnightblue" d="M104.115,-48.947C115.646,-50.8882 127.798,-52.9341 139.365,-54.8813"/>
<polygon fill="midnightblue" stroke="midnightblue" points="104.615,-45.4819 94.1723,-47.2731 103.452,-52.3848 104.615,-45.4819"/>
</g>
<!-- Node19 -->
<g id="node4" class="node"><title>Node19</title>
<g id="a_node4"><a xlink:href="classel_1_1_configuration_type_helper.html#a83a46879f2cfe2b417a187d8d8623cff" target="_top" xlink:title="Converts from configStr to ConfigurationType. ">
<polygon fill="white" stroke="black" points="130,-0.5 130,-30.5 265,-30.5 265,-0.5 130,-0.5"/>
<text text-anchor="start" x="138" y="-18.5" font-family="Helvetica,sans-Serif" font-size="10.00">el::ConfigurationTypeHelper</text>
<text text-anchor="middle" x="197.5" y="-7.5" font-family="Helvetica,sans-Serif" font-size="10.00">::convertFromString</text>
</a>
</g>
</g>
<!-- Node16&#45;&gt;Node19 -->
<g id="edge3" class="edge"><title>Node16&#45;&gt;Node19</title>
<path fill="none" stroke="midnightblue" d="M104.217,-30.4144C112.611,-29.0579 121.331,-27.6484 129.914,-26.2613"/>
<polygon fill="midnightblue" stroke="midnightblue" points="103.486,-26.9871 94.1723,-32.0378 104.603,-33.8974 103.486,-26.9871"/>
</g>
<!-- Node18 -->
<g id="node3" class="node"><title>Node18</title>
<g id="a_node3"><a xlink:href="classel_1_1_configurations_1_1_parser.html#a70e0d8b27e7c1b5dd94e6838c304a751" target="_top" xlink:title="el::Configurations\l::Parser::parseLine">
<polygon fill="white" stroke="black" points="301,-24.5 301,-54.5 400,-54.5 400,-24.5 301,-24.5"/>
<text text-anchor="start" x="309" y="-42.5" font-family="Helvetica,sans-Serif" font-size="10.00">el::Configurations</text>
<text text-anchor="middle" x="350.5" y="-31.5" font-family="Helvetica,sans-Serif" font-size="10.00">::Parser::parseLine</text>
</a>
</g>
</g>
<!-- Node17&#45;&gt;Node18 -->
<g id="edge2" class="edge"><title>Node17&#45;&gt;Node18</title>
<path fill="none" stroke="midnightblue" d="M265.462,-53.4136C277.329,-51.4488 289.481,-49.4369 300.725,-47.5753"/>
<polygon fill="midnightblue" stroke="midnightblue" points="264.881,-49.9621 255.587,-55.0486 266.024,-56.8681 264.881,-49.9621"/>
</g>
<!-- Node19&#45;&gt;Node18 -->
<g id="edge4" class="edge"><title>Node19&#45;&gt;Node18</title>
<path fill="none" stroke="midnightblue" d="M275.064,-27.6691C283.842,-29.0643 292.601,-30.4564 300.865,-31.77"/>
<polygon fill="midnightblue" stroke="midnightblue" points="275.596,-24.2098 265.17,-26.0966 274.497,-31.123 275.596,-24.2098"/>
</g>
</g>
</svg>
