<?xml version="1.0" encoding="UTF-8" standalone="no"?>
<!DOCTYPE svg PUBLIC "-//W3C//DTD SVG 1.1//EN"
 "http://www.w3.org/Graphics/SVG/1.1/DTD/svg11.dtd">
<!-- Generated by graphviz version 2.38.0 (20140413.2041)
 -->
<!-- Title: vpr::Allocator::Recreate Pages: 1 -->
<svg width="501pt" height="72pt"
 viewBox="0.00 0.00 501.00 71.50" xmlns="http://www.w3.org/2000/svg" xmlns:xlink="http://www.w3.org/1999/xlink">
<g id="graph0" class="graph" transform="scale(1 1) rotate(0) translate(4 67.5)">
<title>vpr::Allocator::Recreate</title>
<polygon fill="white" stroke="none" points="-4,4 -4,-67.5 497,-67.5 497,4 -4,4"/>
<!-- Node241 -->
<g id="node1" class="node"><title>Node241</title>
<polygon fill="#bfbfbf" stroke="black" points="0,-25 0,-44 118,-44 118,-25 0,-25"/>
<text text-anchor="middle" x="59" y="-32" font-family="Helvetica,sans-Serif" font-size="10.00">vpr::Allocator::Recreate</text>
</g>
<!-- Node242 -->
<g id="node2" class="node"><title>Node242</title>
<g id="a_node2"><a xlink:href="classvpr_1_1_allocator.html#a3c37dadb79cd49b8764f977bcb31ad26" target="_top" xlink:title="vpr::Allocator::clearAllocationMaps">
<polygon fill="white" stroke="black" points="157,-44 157,-63 324,-63 324,-44 157,-44"/>
<text text-anchor="middle" x="240.5" y="-51" font-family="Helvetica,sans-Serif" font-size="10.00">vpr::Allocator::clearAllocationMaps</text>
</a>
</g>
</g>
<!-- Node241&#45;&gt;Node242 -->
<g id="edge1" class="edge"><title>Node241&#45;&gt;Node242</title>
<path fill="none" stroke="midnightblue" d="M118.279,-40.6688C127.396,-41.6338 137.009,-42.6514 146.67,-43.674"/>
<polygon fill="midnightblue" stroke="midnightblue" points="146.423,-47.1673 156.736,-44.7395 147.16,-40.2062 146.423,-47.1673"/>
</g>
<!-- Node243 -->
<g id="node3" class="node"><title>Node243</title>
<g id="a_node3"><a xlink:href="classvpr_1_1_allocator.html#ae35a57af9edd668c0bd7e135de1973f8" target="_top" xlink:title="vpr::Allocator::createAllocationMaps">
<polygon fill="white" stroke="black" points="154,-6 154,-25 327,-25 327,-6 154,-6"/>
<text text-anchor="middle" x="240.5" y="-13" font-family="Helvetica,sans-Serif" font-size="10.00">vpr::Allocator::createAllocationMaps</text>
</a>
</g>
</g>
<!-- Node241&#45;&gt;Node243 -->
<g id="edge2" class="edge"><title>Node241&#45;&gt;Node243</title>
<path fill="none" stroke="midnightblue" d="M118.279,-28.3312C126.446,-27.4668 135.011,-26.5601 143.652,-25.6455"/>
<polygon fill="midnightblue" stroke="midnightblue" points="144.235,-29.1034 153.811,-24.5701 143.498,-22.1423 144.235,-29.1034"/>
</g>
<!-- Node244 -->
<g id="node4" class="node"><title>Node244</title>
<g id="a_node4"><a xlink:href="classvpr_1_1_allocator.html#a4277250f2867fd5b729bc78e7dc5eb6f" target="_top" xlink:title="vpr::Allocator::GetMemory\lTypeCount">
<polygon fill="white" stroke="black" points="363,-0.5 363,-30.5 493,-30.5 493,-0.5 363,-0.5"/>
<text text-anchor="start" x="371" y="-18.5" font-family="Helvetica,sans-Serif" font-size="10.00">vpr::Allocator::GetMemory</text>
<text text-anchor="middle" x="428" y="-7.5" font-family="Helvetica,sans-Serif" font-size="10.00">TypeCount</text>
</a>
</g>
</g>
<!-- Node243&#45;&gt;Node244 -->
<g id="edge3" class="edge"><title>Node243&#45;&gt;Node244</title>
<path fill="none" stroke="midnightblue" d="M327.191,-15.5C335.695,-15.5 344.278,-15.5 352.653,-15.5"/>
<polygon fill="midnightblue" stroke="midnightblue" points="352.745,-19.0001 362.745,-15.5 352.745,-12.0001 352.745,-19.0001"/>
</g>
</g>
</svg>
