<?xml version="1.0" encoding="UTF-8" standalone="no"?>
<!DOCTYPE svg PUBLIC "-//W3C//DTD SVG 1.1//EN"
 "http://www.w3.org/Graphics/SVG/1.1/DTD/svg11.dtd">
<!-- Generated by graphviz version 2.38.0 (20140413.2041)
 -->
<!-- Title: el::Helpers::convertTemplateToStdString Pages: 1 -->
<svg width="314pt" height="176pt"
 viewBox="0.00 0.00 314.00 175.50" xmlns="http://www.w3.org/2000/svg" xmlns:xlink="http://www.w3.org/1999/xlink">
<g id="graph0" class="graph" transform="scale(1 1) rotate(0) translate(4 171.5)">
<title>el::Helpers::convertTemplateToStdString</title>
<polygon fill="white" stroke="none" points="-4,4 -4,-171.5 310,-171.5 310,4 -4,4"/>
<!-- Node3 -->
<g id="node1" class="node"><title>Node3</title>
<polygon fill="#bfbfbf" stroke="black" points="0,-63 0,-93 140,-93 140,-63 0,-63"/>
<text text-anchor="start" x="8" y="-81" font-family="Helvetica,sans-Serif" font-size="10.00">el::Helpers::convertTemplate</text>
<text text-anchor="middle" x="70" y="-70" font-family="Helvetica,sans-Serif" font-size="10.00">ToStdString</text>
</g>
<!-- Node4 -->
<g id="node2" class="node"><title>Node4</title>
<g id="a_node2"><a xlink:href="classel_1_1base_1_1threading_1_1_thread_safe.html#a59db719b214f7118f0919846a85077bf" target="_top" xlink:title="el::base::threading\l::ThreadSafe::acquireLock">
<polygon fill="white" stroke="black" points="176,-137 176,-167 306,-167 306,-137 176,-137"/>
<text text-anchor="start" x="184" y="-155" font-family="Helvetica,sans-Serif" font-size="10.00">el::base::threading</text>
<text text-anchor="middle" x="241" y="-144" font-family="Helvetica,sans-Serif" font-size="10.00">::ThreadSafe::acquireLock</text>
</a>
</g>
</g>
<!-- Node3&#45;&gt;Node4 -->
<g id="edge1" class="edge"><title>Node3&#45;&gt;Node4</title>
<path fill="none" stroke="midnightblue" d="M101.014,-93.1343C121.846,-103.43 150.354,-117.109 176,-128 180.104,-129.743 184.383,-131.492 188.696,-133.206"/>
<polygon fill="midnightblue" stroke="midnightblue" points="187.551,-136.516 198.139,-136.891 190.095,-129.995 187.551,-136.516"/>
</g>
<!-- Node5 -->
<g id="node3" class="node"><title>Node5</title>
<g id="a_node3"><a xlink:href="classel_1_1base_1_1_message_builder.html#a61729d9b620eb7b3e6ac1af69364553c" target="_top" xlink:title="el::base::MessageBuilder\l::initialize">
<polygon fill="white" stroke="black" points="177.5,-88 177.5,-118 304.5,-118 304.5,-88 177.5,-88"/>
<text text-anchor="start" x="185.5" y="-106" font-family="Helvetica,sans-Serif" font-size="10.00">el::base::MessageBuilder</text>
<text text-anchor="middle" x="241" y="-95" font-family="Helvetica,sans-Serif" font-size="10.00">::initialize</text>
</a>
</g>
</g>
<!-- Node3&#45;&gt;Node5 -->
<g id="edge2" class="edge"><title>Node3&#45;&gt;Node5</title>
<path fill="none" stroke="midnightblue" d="M140.226,-88.2406C149.167,-89.5632 158.345,-90.9208 167.339,-92.2513"/>
<polygon fill="midnightblue" stroke="midnightblue" points="166.99,-95.7377 177.394,-93.7388 168.014,-88.813 166.99,-95.7377"/>
</g>
<!-- Node6 -->
<g id="node4" class="node"><title>Node6</title>
<g id="a_node4"><a xlink:href="classel_1_1base_1_1threading_1_1_thread_safe.html#a95bb166242b9691f861274a9b8ced2d9" target="_top" xlink:title="el::base::threading\l::ThreadSafe::releaseLock">
<polygon fill="white" stroke="black" points="176,-39 176,-69 306,-69 306,-39 176,-39"/>
<text text-anchor="start" x="184" y="-57" font-family="Helvetica,sans-Serif" font-size="10.00">el::base::threading</text>
<text text-anchor="middle" x="241" y="-46" font-family="Helvetica,sans-Serif" font-size="10.00">::ThreadSafe::releaseLock</text>
</a>
</g>
</g>
<!-- Node3&#45;&gt;Node6 -->
<g id="edge3" class="edge"><title>Node3&#45;&gt;Node6</title>
<path fill="none" stroke="midnightblue" d="M140.226,-68.169C148.678,-66.9688 157.341,-65.7386 165.861,-64.5286"/>
<polygon fill="midnightblue" stroke="midnightblue" points="166.367,-67.9919 175.776,-63.1206 165.383,-61.0614 166.367,-67.9919"/>
</g>
<!-- Node7 -->
<g id="node5" class="node"><title>Node7</title>
<g id="a_node5"><a xlink:href="classel_1_1_logger.html#add143e52020c9df44b0d40cd6006a65f" target="_top" xlink:title="el::Logger::stream">
<polygon fill="white" stroke="black" points="193.5,-0.5 193.5,-19.5 288.5,-19.5 288.5,-0.5 193.5,-0.5"/>
<text text-anchor="middle" x="241" y="-7.5" font-family="Helvetica,sans-Serif" font-size="10.00">el::Logger::stream</text>
</a>
</g>
</g>
<!-- Node3&#45;&gt;Node7 -->
<g id="edge4" class="edge"><title>Node3&#45;&gt;Node7</title>
<path fill="none" stroke="midnightblue" d="M101.349,-62.8948C122.089,-52.8792 150.357,-39.8231 176,-30 182.573,-27.4819 189.612,-25.0375 196.53,-22.7725"/>
<polygon fill="midnightblue" stroke="midnightblue" points="198.043,-25.9639 206.51,-19.5947 195.919,-19.2938 198.043,-25.9639"/>
</g>
</g>
</svg>
