<?xml version="1.0" encoding="UTF-8" standalone="no"?>
<!DOCTYPE svg PUBLIC "-//W3C//DTD SVG 1.1//EN"
 "http://www.w3.org/Graphics/SVG/1.1/DTD/svg11.dtd">
<!-- Generated by graphviz version 2.38.0 (20140413.2041)
 -->
<!-- Title: vpr::PipelineCache::Verify Pages: 1 -->
<svg width="384pt" height="39pt"
 viewBox="0.00 0.00 384.00 39.00" xmlns="http://www.w3.org/2000/svg" xmlns:xlink="http://www.w3.org/1999/xlink">
<g id="graph0" class="graph" transform="scale(1 1) rotate(0) translate(4 35)">
<title>vpr::PipelineCache::Verify</title>
<polygon fill="white" stroke="none" points="-4,4 -4,-35 380,-35 380,4 -4,4"/>
<!-- Node29 -->
<g id="node1" class="node"><title>Node29</title>
<polygon fill="#bfbfbf" stroke="black" points="0,-0.5 0,-30.5 97,-30.5 97,-0.5 0,-0.5"/>
<text text-anchor="start" x="8" y="-18.5" font-family="Helvetica,sans-Serif" font-size="10.00">vpr::PipelineCache</text>
<text text-anchor="middle" x="48.5" y="-7.5" font-family="Helvetica,sans-Serif" font-size="10.00">::Verify</text>
</g>
<!-- Node30 -->
<g id="node2" class="node"><title>Node30</title>
<g id="a_node2"><a xlink:href="classvpr_1_1_pipeline_cache.html#aa982f664e3dd6c95682bfa1084cf9a80" target="_top" xlink:title="vpr::PipelineCache\l::LoadCacheFromFile">
<polygon fill="white" stroke="black" points="133,-0.5 133,-30.5 243,-30.5 243,-0.5 133,-0.5"/>
<text text-anchor="start" x="141" y="-18.5" font-family="Helvetica,sans-Serif" font-size="10.00">vpr::PipelineCache</text>
<text text-anchor="middle" x="188" y="-7.5" font-family="Helvetica,sans-Serif" font-size="10.00">::LoadCacheFromFile</text>
</a>
</g>
</g>
<!-- Node29&#45;&gt;Node30 -->
<g id="edge1" class="edge"><title>Node29&#45;&gt;Node30</title>
<path fill="none" stroke="midnightblue" d="M107.342,-15.5C115.772,-15.5 124.428,-15.5 132.783,-15.5"/>
<polygon fill="midnightblue" stroke="midnightblue" points="107.205,-12.0001 97.2049,-15.5 107.205,-19.0001 107.205,-12.0001"/>
</g>
<!-- Node31 -->
<g id="node3" class="node"><title>Node31</title>
<g id="a_node3"><a xlink:href="classvpr_1_1_pipeline_cache.html#aeddb8ba50e50cd84f19e30484b8736d2" target="_top" xlink:title="Creates a pipeline cache, or loads a pre&#45;existing one from file. ">
<polygon fill="white" stroke="black" points="279,-0.5 279,-30.5 376,-30.5 376,-0.5 279,-0.5"/>
<text text-anchor="start" x="287" y="-18.5" font-family="Helvetica,sans-Serif" font-size="10.00">vpr::PipelineCache</text>
<text text-anchor="middle" x="327.5" y="-7.5" font-family="Helvetica,sans-Serif" font-size="10.00">::PipelineCache</text>
</a>
</g>
</g>
<!-- Node30&#45;&gt;Node31 -->
<g id="edge2" class="edge"><title>Node30&#45;&gt;Node31</title>
<path fill="none" stroke="midnightblue" d="M253.61,-15.5C262.09,-15.5 270.653,-15.5 278.783,-15.5"/>
<polygon fill="midnightblue" stroke="midnightblue" points="253.344,-12.0001 243.344,-15.5 253.344,-19.0001 253.344,-12.0001"/>
</g>
</g>
</svg>
