<?xml version="1.0" encoding="UTF-8" standalone="no"?>
<!DOCTYPE svg PUBLIC "-//W3C//DTD SVG 1.1//EN"
 "http://www.w3.org/Graphics/SVG/1.1/DTD/svg11.dtd">
<!-- Generated by graphviz version 2.38.0 (20140413.2041)
 -->
<!-- Title: vpr::Instance::Instance Pages: 1 -->
<svg width="492pt" height="132pt"
 viewBox="0.00 0.00 492.00 132.00" xmlns="http://www.w3.org/2000/svg" xmlns:xlink="http://www.w3.org/1999/xlink">
<g id="graph0" class="graph" transform="scale(1 1) rotate(0) translate(4 128)">
<title>vpr::Instance::Instance</title>
<polygon fill="white" stroke="none" points="-4,4 -4,-128 488,-128 488,4 -4,4"/>
<!-- Node4 -->
<g id="node1" class="node"><title>Node4</title>
<polygon fill="#bfbfbf" stroke="black" points="0,-50 0,-69 114,-69 114,-50 0,-50"/>
<text text-anchor="middle" x="57" y="-57" font-family="Helvetica,sans-Serif" font-size="10.00">vpr::Instance::Instance</text>
</g>
<!-- Node5 -->
<g id="node2" class="node"><title>Node5</title>
<g id="a_node2"><a xlink:href="classvpr_1_1_instance.html#a6f41bf0cdb803f57e3f2e97c8e9884c5" target="_top" xlink:title="vpr::Instance::checkApiVersion\lSupport">
<polygon fill="white" stroke="black" points="150.5,-93.5 150.5,-123.5 301.5,-123.5 301.5,-93.5 150.5,-93.5"/>
<text text-anchor="start" x="158.5" y="-111.5" font-family="Helvetica,sans-Serif" font-size="10.00">vpr::Instance::checkApiVersion</text>
<text text-anchor="middle" x="226" y="-100.5" font-family="Helvetica,sans-Serif" font-size="10.00">Support</text>
</a>
</g>
</g>
<!-- Node4&#45;&gt;Node5 -->
<g id="edge1" class="edge"><title>Node4&#45;&gt;Node5</title>
<path fill="none" stroke="midnightblue" d="M90.5957,-69.064C111.462,-75.1863 139.185,-83.3208 164.032,-90.6111"/>
<polygon fill="midnightblue" stroke="midnightblue" points="163.171,-94.0059 173.752,-93.463 165.142,-87.2891 163.171,-94.0059"/>
</g>
<!-- Node6 -->
<g id="node3" class="node"><title>Node6</title>
<g id="a_node3"><a xlink:href="structvpr_1_1_instance_extension_handler.html#a05d1f04435599c61498469a134d239e2" target="_top" xlink:title="vpr::InstanceExtensionHandler\l::extensionSetup">
<polygon fill="white" stroke="black" points="152,-44.5 152,-74.5 300,-74.5 300,-44.5 152,-44.5"/>
<text text-anchor="start" x="160" y="-62.5" font-family="Helvetica,sans-Serif" font-size="10.00">vpr::InstanceExtensionHandler</text>
<text text-anchor="middle" x="226" y="-51.5" font-family="Helvetica,sans-Serif" font-size="10.00">::extensionSetup</text>
</a>
</g>
</g>
<!-- Node4&#45;&gt;Node6 -->
<g id="edge2" class="edge"><title>Node4&#45;&gt;Node6</title>
<path fill="none" stroke="midnightblue" d="M114.073,-59.5C122.98,-59.5 132.356,-59.5 141.727,-59.5"/>
<polygon fill="midnightblue" stroke="midnightblue" points="141.873,-63.0001 151.873,-59.5 141.873,-56.0001 141.873,-63.0001"/>
</g>
<!-- Node7 -->
<g id="node4" class="node"><title>Node7</title>
<g id="a_node4"><a xlink:href="classvpr_1_1_instance.html#a8e32fee4f0a877997ee6e75ea3d3c3a1" target="_top" xlink:title="vpr::Instance::prepareValidation">
<polygon fill="white" stroke="black" points="150,-6 150,-25 302,-25 302,-6 150,-6"/>
<text text-anchor="middle" x="226" y="-13" font-family="Helvetica,sans-Serif" font-size="10.00">vpr::Instance::prepareValidation</text>
</a>
</g>
</g>
<!-- Node4&#45;&gt;Node7 -->
<g id="edge3" class="edge"><title>Node4&#45;&gt;Node7</title>
<path fill="none" stroke="midnightblue" d="M94.2365,-49.9527C119.075,-43.4084 152.233,-34.6722 178.943,-27.6346"/>
<polygon fill="midnightblue" stroke="midnightblue" points="180.056,-30.9611 188.834,-25.0287 178.272,-24.1921 180.056,-30.9611"/>
</g>
<!-- Node8 -->
<g id="node5" class="node"><title>Node8</title>
<g id="a_node5"><a xlink:href="classvpr_1_1_instance.html#ad6d5590582b6b4487544954c9d10be5f" target="_top" xlink:title="vpr::Instance::checkValidation\lSupport">
<polygon fill="white" stroke="black" points="338,-0.5 338,-30.5 484,-30.5 484,-0.5 338,-0.5"/>
<text text-anchor="start" x="346" y="-18.5" font-family="Helvetica,sans-Serif" font-size="10.00">vpr::Instance::checkValidation</text>
<text text-anchor="middle" x="411" y="-7.5" font-family="Helvetica,sans-Serif" font-size="10.00">Support</text>
</a>
</g>
</g>
<!-- Node7&#45;&gt;Node8 -->
<g id="edge4" class="edge"><title>Node7&#45;&gt;Node8</title>
<path fill="none" stroke="midnightblue" d="M302.225,-15.5C310.565,-15.5 319.092,-15.5 327.516,-15.5"/>
<polygon fill="midnightblue" stroke="midnightblue" points="327.72,-19.0001 337.72,-15.5 327.72,-12.0001 327.72,-19.0001"/>
</g>
</g>
</svg>
