<?xml version="1.0" encoding="UTF-8" standalone="no"?>
<!DOCTYPE svg PUBLIC "-//W3C//DTD SVG 1.1//EN"
 "http://www.w3.org/Graphics/SVG/1.1/DTD/svg11.dtd">
<!-- Generated by graphviz version 2.38.0 (20140413.2041)
 -->
<!-- Title: vpr::Instance Pages: 1 -->
<!--zoomable 88 -->
<svg id="main" version="1.1" xmlns="http://www.w3.org/2000/svg" xmlns:xlink="http://www.w3.org/1999/xlink" xml:space="preserve" onload="init(evt)">
<style type="text/css"><![CDATA[
.edge:hover path { stroke: red; }
.edge:hover polygon { stroke: red; fill: red; }
]]></style>
<script type="text/javascript"><![CDATA[
var edges = document.getElementsByTagName('g');
if (edges && edges.length) {
  for (var i=0;i<edges.length;i++) {
    if (edges[i].id.substr(0,4)=='edge') {
      edges[i].setAttribute('class','edge');
    }
  }
}
]]></script>
        <defs>
                <circle id="rim" cx="0" cy="0" r="7"/>
                <circle id="rim2" cx="0" cy="0" r="3.5"/>
                <g id="zoomPlus">
                        <use xlink:href="#rim" fill="#404040">
                                <set attributeName="fill" to="#808080" begin="zoomplus.mouseover" end="zoomplus.mouseout"/>
                        </use>
                        <path d="M-4,0h8M0,-4v8" fill="none" stroke="white" stroke-width="1.5" pointer-events="none"/>
                </g>
                <g id="zoomMin">
                        <use xlink:href="#rim" fill="#404040">
                                <set attributeName="fill" to="#808080" begin="zoomminus.mouseover" end="zoomminus.mouseout"/>
                        </use>
                        <path d="M-4,0h8" fill="none" stroke="white" stroke-width="1.5" pointer-events="none"/>
                </g>
                <g id="dirArrow">
                        <path fill="none" stroke="white" stroke-width="1.5" d="M0,-3.0v7 M-2.5,-0.5L0,-3.0L2.5,-0.5"/>
                </g>
               <g id="resetDef">
                       <use xlink:href="#rim2" fill="#404040">
                               <set attributeName="fill" to="#808080" begin="reset.mouseover" end="reset.mouseout"/>
                       </use>
               </g>
        </defs>

<script type="text/javascript">
var viewWidth = 937;
var viewHeight = 88;
var sectionId = 'dynsection-0';
</script>
<script xlink:href="svgpan.js"/>
<svg id="graph" class="graph">
<g id="viewport">
<title>vpr::Instance</title>
<polygon fill="white" stroke="none" points="-4,4 -4,-84 933,-84 933,4 -4,4"/>
<!-- Node1 -->
<g id="node1" class="node"><title>Node1</title>
<polygon fill="#bfbfbf" stroke="black" points="550,-26 550,-45 621,-45 621,-26 550,-26"/>
<text text-anchor="middle" x="585.5" y="-33" font-family="Helvetica,sans-Serif" font-size="10.00">vpr::Instance</text>
</g>
<!-- Node9 -->
<g id="node7" class="node"><title>Node9</title>
<g id="a_node7"><a xlink:href="classvpr_1_1_surface_k_h_r.html" target="_top" xlink:title="The bare&#45;minimum required to wrap a VkSurfaceKHR object. ">
<polygon fill="white" stroke="black" points="688,-49 688,-68 776,-68 776,-49 688,-49"/>
<text text-anchor="middle" x="732" y="-56" font-family="Helvetica,sans-Serif" font-size="10.00">vpr::SurfaceKHR</text>
</a>
</g>
</g>
<!-- Node1&#45;&gt;Node9 -->
<g id="edge7" class="edge"><title>Node1&#45;&gt;Node9</title>
<path fill="none" stroke="#9a32cd" stroke-dasharray="5,2" d="M631.113,-42.601C649.181,-45.4769 669.964,-48.7849 687.878,-51.6362"/>
<polygon fill="#9a32cd" stroke="#9a32cd" points="631.537,-39.1246 621.111,-41.0091 630.437,-46.0376 631.537,-39.1246"/>
<text text-anchor="middle" x="654.5" y="-51.5" font-family="Helvetica,sans-Serif" font-size="10.00"> parent</text>
</g>
<!-- Node2 -->
<g id="node2" class="node"><title>Node2</title>
<polygon fill="white" stroke="#bfbfbf" points="326,-49.5 326,-79.5 428,-79.5 428,-49.5 326,-49.5"/>
<text text-anchor="start" x="334" y="-67.5" font-family="Helvetica,sans-Serif" font-size="10.00">std::unique_ptr&lt; vpr</text>
<text text-anchor="middle" x="377" y="-56.5" font-family="Helvetica,sans-Serif" font-size="10.00">::PhysicalDevice &gt;</text>
</g>
<!-- Node2&#45;&gt;Node1 -->
<g id="edge1" class="edge"><title>Node2&#45;&gt;Node1</title>
<path fill="none" stroke="#9a32cd" stroke-dasharray="5,2" d="M438.245,-56.0394C474.558,-50.9398 519.512,-44.6266 549.924,-40.3557"/>
<polygon fill="#9a32cd" stroke="#9a32cd" points="437.668,-52.5861 428.252,-57.4429 438.641,-59.5181 437.668,-52.5861"/>
<text text-anchor="middle" x="489" y="-57.5" font-family="Helvetica,sans-Serif" font-size="10.00"> physicalDevice</text>
</g>
<!-- Node3 -->
<g id="node3" class="node"><title>Node3</title>
<g id="a_node3"><a xlink:href="classvpr_1_1_physical_device.html" target="_top" xlink:title="! PhysicalDevice is a wrapper around a VkPhysicalDevice object, which is itself merely a handle repre...">
<polygon fill="white" stroke="black" points="174,-55 174,-74 275,-74 275,-55 174,-55"/>
<text text-anchor="middle" x="224.5" y="-62" font-family="Helvetica,sans-Serif" font-size="10.00">vpr::PhysicalDevice</text>
</a>
</g>
</g>
<!-- Node3&#45;&gt;Node2 -->
<g id="edge2" class="edge"><title>Node3&#45;&gt;Node2</title>
<path fill="none" stroke="#9a32cd" stroke-dasharray="5,2" d="M285.303,-64.5C298.734,-64.5 312.851,-64.5 325.842,-64.5"/>
<polygon fill="#9a32cd" stroke="#9a32cd" points="285.196,-61.0001 275.196,-64.5 285.196,-68.0001 285.196,-61.0001"/>
<text text-anchor="middle" x="300.5" y="-67.5" font-family="Helvetica,sans-Serif" font-size="10.00"> ptr</text>
</g>
<!-- Node4 -->
<g id="node4" class="node"><title>Node4</title>
<polygon fill="white" stroke="#bfbfbf" points="0,-49.5 0,-79.5 116,-79.5 116,-49.5 0,-49.5"/>
<text text-anchor="start" x="8" y="-67.5" font-family="Helvetica,sans-Serif" font-size="10.00">std::unique_ptr&lt; vpr</text>
<text text-anchor="middle" x="58" y="-56.5" font-family="Helvetica,sans-Serif" font-size="10.00">::PhysicalDeviceImpl &gt;</text>
</g>
<!-- Node4&#45;&gt;Node3 -->
<g id="edge3" class="edge"><title>Node4&#45;&gt;Node3</title>
<path fill="none" stroke="#9a32cd" stroke-dasharray="5,2" d="M126.39,-64.5C142.298,-64.5 158.973,-64.5 173.928,-64.5"/>
<polygon fill="#9a32cd" stroke="#9a32cd" points="126.072,-61.0001 116.072,-64.5 126.072,-68.0001 126.072,-61.0001"/>
<text text-anchor="middle" x="145" y="-67.5" font-family="Helvetica,sans-Serif" font-size="10.00"> impl</text>
</g>
<!-- Node7 -->
<g id="node5" class="node"><title>Node7</title>
<polygon fill="white" stroke="#bfbfbf" points="329.5,-0.5 329.5,-30.5 424.5,-30.5 424.5,-0.5 329.5,-0.5"/>
<text text-anchor="start" x="337.5" y="-18.5" font-family="Helvetica,sans-Serif" font-size="10.00">std::vector&lt; const</text>
<text text-anchor="middle" x="377" y="-7.5" font-family="Helvetica,sans-Serif" font-size="10.00"> char *&gt;</text>
</g>
<!-- Node7&#45;&gt;Node1 -->
<g id="edge4" class="edge"><title>Node7&#45;&gt;Node1</title>
<path fill="none" stroke="#9a32cd" stroke-dasharray="5,2" d="M434.715,-16.1072C463.899,-17.0105 499.978,-19.0427 532,-23.5 537.834,-24.3121 543.976,-25.4512 549.921,-26.7072"/>
<polygon fill="#9a32cd" stroke="#9a32cd" points="434.79,-12.608 424.698,-15.8327 434.598,-19.6054 434.79,-12.608"/>
<text text-anchor="middle" x="489" y="-26.5" font-family="Helvetica,sans-Serif" font-size="10.00"> enabledExtensions</text>
</g>
<!-- Node8 -->
<g id="node6" class="node"><title>Node8</title>
<polygon fill="white" stroke="#bfbfbf" points="827,-22.5 827,-52.5 929,-52.5 929,-22.5 827,-22.5"/>
<text text-anchor="start" x="835" y="-40.5" font-family="Helvetica,sans-Serif" font-size="10.00">std::unique_ptr&lt; vpr</text>
<text text-anchor="middle" x="878" y="-29.5" font-family="Helvetica,sans-Serif" font-size="10.00">::SurfaceKHR &gt;</text>
</g>
<!-- Node8&#45;&gt;Node1 -->
<g id="edge5" class="edge"><title>Node8&#45;&gt;Node1</title>
<path fill="none" stroke="#9a32cd" stroke-dasharray="5,2" d="M816.871,-31.2583C803.435,-30.1101 789.244,-29.0889 776,-28.5 736.927,-26.7626 727.088,-27.1537 688,-28.5 665.757,-29.2661 640.822,-30.9738 621.232,-32.5106"/>
<polygon fill="#9a32cd" stroke="#9a32cd" points="816.7,-34.7568 826.97,-32.1561 817.32,-27.7843 816.7,-34.7568"/>
<text text-anchor="middle" x="732" y="-31.5" font-family="Helvetica,sans-Serif" font-size="10.00"> surface</text>
</g>
<!-- Node9&#45;&gt;Node8 -->
<g id="edge6" class="edge"><title>Node9&#45;&gt;Node8</title>
<path fill="none" stroke="#9a32cd" stroke-dasharray="5,2" d="M786.195,-50.7423C799.54,-48.7963 813.811,-46.715 826.994,-44.7925"/>
<polygon fill="#9a32cd" stroke="#9a32cd" points="785.595,-47.2928 776.205,-52.1993 786.605,-54.2195 785.595,-47.2928"/>
<text text-anchor="middle" x="801.5" y="-52.5" font-family="Helvetica,sans-Serif" font-size="10.00"> ptr</text>
</g>
</g>
</svg>
        <g id="navigator" transform="translate(0 0)" fill="#404254">
                <rect fill="#f2f5e9" fill-opacity="0.5" stroke="#606060" stroke-width=".5" x="0" y="0" width="60" height="60"/>
                <use id="zoomplus" xlink:href="#zoomPlus" x="17" y="9" onmousedown="handleZoom(evt,'in')"/>
                <use id="zoomminus" xlink:href="#zoomMin" x="42" y="9" onmousedown="handleZoom(evt,'out')"/>
                <use id="reset" xlink:href="#resetDef" x="30" y="36" onmousedown="handleReset()"/>
                <g id="arrowUp" xlink:href="#dirArrow" transform="translate(30 24)" onmousedown="handlePan(0,-1)">
                  <use xlink:href="#rim" fill="#404040">
                        <set attributeName="fill" to="#808080" begin="arrowUp.mouseover" end="arrowUp.mouseout"/>
                  </use>
                  <path fill="none" stroke="white" stroke-width="1.5" d="M0,-3.0v7 M-2.5,-0.5L0,-3.0L2.5,-0.5"/>
                </g>
                <g id="arrowRight" xlink:href="#dirArrow" transform="rotate(90) translate(36 -43)" onmousedown="handlePan(1,0)">
                  <use xlink:href="#rim" fill="#404040">
                        <set attributeName="fill" to="#808080" begin="arrowRight.mouseover" end="arrowRight.mouseout"/>
                  </use>
                  <path fill="none" stroke="white" stroke-width="1.5" d="M0,-3.0v7 M-2.5,-0.5L0,-3.0L2.5,-0.5"/>
                </g>
                <g id="arrowDown" xlink:href="#dirArrow" transform="rotate(180) translate(-30 -48)" onmousedown="handlePan(0,1)">
                  <use xlink:href="#rim" fill="#404040">
                        <set attributeName="fill" to="#808080" begin="arrowDown.mouseover" end="arrowDown.mouseout"/>
                  </use>
                  <path fill="none" stroke="white" stroke-width="1.5" d="M0,-3.0v7 M-2.5,-0.5L0,-3.0L2.5,-0.5"/>
                </g>
                <g id="arrowLeft" xlink:href="#dirArrow" transform="rotate(270) translate(-36 17)" onmousedown="handlePan(-1,0)">
                  <use xlink:href="#rim" fill="#404040">
                        <set attributeName="fill" to="#808080" begin="arrowLeft.mouseover" end="arrowLeft.mouseout"/>
                  </use>
                  <path fill="none" stroke="white" stroke-width="1.5" d="M0,-3.0v7 M-2.5,-0.5L0,-3.0L2.5,-0.5"/>
                </g>
        </g>
        <svg viewBox="0 0 15 15" width="100%" height="30px" preserveAspectRatio="xMaxYMin meet">
         <g id="arrow_out" transform="scale(0.3 0.3)">
          <a xlink:href="classvpr_1_1_instance__coll__graph_org.svg" target="_base">
           <rect id="button" ry="5" rx="5" y="6" x="6" height="38" width="38"
                fill="#f2f5e9" fill-opacity="0.5" stroke="#606060" stroke-width="1.0"/>
           <path id="arrow"
             d="M 11.500037,31.436501 C 11.940474,20.09759 22.043105,11.32322 32.158766,21.979434 L 37.068811,17.246167 C 37.068811,17.246167 37.088388,32 37.088388,32 L 22.160133,31.978069 C 22.160133,31.978069 26.997745,27.140456 26.997745,27.140456 C 18.528582,18.264221 13.291696,25.230495 11.500037,31.436501 z"
             style="fill:#404040;"/>
          </a>
         </g>
        </svg>
</svg>
