<?xml version="1.0" encoding="UTF-8" standalone="no"?>
<!DOCTYPE svg PUBLIC "-//W3C//DTD SVG 1.1//EN"
 "http://www.w3.org/Graphics/SVG/1.1/DTD/svg11.dtd">
<!-- Generated by graphviz version 2.38.0 (20140413.2041)
 -->
<!-- Title: vpr::Queue Pages: 1 -->
<svg width="1139pt" height="1120pt"
 viewBox="0.00 0.00 1138.50 1120.00" xmlns="http://www.w3.org/2000/svg" xmlns:xlink="http://www.w3.org/1999/xlink">
<g id="graph0" class="graph" transform="scale(1 1) rotate(0) translate(4 1116)">
<title>vpr::Queue</title>
<polygon fill="white" stroke="none" points="-4,4 -4,-1116 1134.5,-1116 1134.5,4 -4,4"/>
<!-- Node1 -->
<g id="node1" class="node"><title>Node1</title>
<polygon fill="#bfbfbf" stroke="black" points="604,-552 604,-571 667,-571 667,-552 604,-552"/>
<text text-anchor="middle" x="635.5" y="-559" font-family="Helvetica,sans-Serif" font-size="10.00">vpr::Queue</text>
</g>
<!-- Node2 -->
<g id="node2" class="node"><title>Node2</title>
<g id="a_node2"><a xlink:href="classvpr_1_1_device.html" target="_top" xlink:title="!The Device class is a wrapper around the vkLogicalDevice object. ">
<polygon fill="white" stroke="black" points="672,-635.5 672,-654.5 735,-654.5 735,-635.5 672,-635.5"/>
<text text-anchor="middle" x="703.5" y="-642.5" font-family="Helvetica,sans-Serif" font-size="10.00">vpr::Device</text>
</a>
</g>
</g>
<!-- Node2&#45;&gt;Node1 -->
<g id="edge1" class="edge"><title>Node2&#45;&gt;Node1</title>
<path fill="none" stroke="#9a32cd" stroke-dasharray="5,2" d="M682.796,-629.272C674.578,-622.762 665.449,-614.63 658.5,-606 649.713,-595.088 642.745,-580.305 638.872,-571.088"/>
<polygon fill="#9a32cd" stroke="#9a32cd" points="680.819,-632.166 690.901,-635.422 685.05,-626.589 680.819,-632.166"/>
<text text-anchor="middle" x="674" y="-598" font-family="Helvetica,sans-Serif" font-size="10.00"> parent</text>
</g>
<!-- Node11 -->
<g id="node11" class="node"><title>Node11</title>
<g id="a_node11"><a xlink:href="classvpr_1_1_allocator.html" target="_top" xlink:title="The primary interface and class of this subsystem. ">
<polygon fill="white" stroke="black" points="406,-552 406,-571 479,-571 479,-552 406,-552"/>
<text text-anchor="middle" x="442.5" y="-559" font-family="Helvetica,sans-Serif" font-size="10.00">vpr::Allocator</text>
</a>
</g>
</g>
<!-- Node2&#45;&gt;Node11 -->
<g id="edge24" class="edge"><title>Node2&#45;&gt;Node11</title>
<path fill="none" stroke="#9a32cd" stroke-dasharray="5,2" d="M666.369,-632.405C613.324,-615.841 517.071,-585.786 469.962,-571.075"/>
<polygon fill="#9a32cd" stroke="#9a32cd" points="665.473,-635.792 676.062,-635.432 667.56,-629.11 665.473,-635.792"/>
<text text-anchor="middle" x="597" y="-598" font-family="Helvetica,sans-Serif" font-size="10.00"> parent</text>
</g>
<!-- Node3 -->
<g id="node3" class="node"><title>Node3</title>
<polygon fill="white" stroke="#bfbfbf" points="491,-713.5 491,-743.5 632,-743.5 632,-713.5 491,-713.5"/>
<text text-anchor="start" x="499" y="-731.5" font-family="Helvetica,sans-Serif" font-size="10.00">std::map&lt; VkQueueFlags,</text>
<text text-anchor="middle" x="561.5" y="-720.5" font-family="Helvetica,sans-Serif" font-size="10.00"> VkDeviceQueueCreateInfo &gt;</text>
</g>
<!-- Node3&#45;&gt;Node2 -->
<g id="edge2" class="edge"><title>Node3&#45;&gt;Node2</title>
<path fill="none" stroke="#9a32cd" stroke-dasharray="5,2" d="M594.678,-708.458C624.328,-691.44 666.408,-667.289 688.549,-654.581"/>
<polygon fill="#9a32cd" stroke="#9a32cd" points="592.841,-705.476 585.911,-713.49 596.326,-711.547 592.841,-705.476"/>
<text text-anchor="middle" x="662.5" y="-687" font-family="Helvetica,sans-Serif" font-size="10.00"> queueInfos</text>
</g>
<!-- Node4 -->
<g id="node4" class="node"><title>Node4</title>
<g id="a_node4"><a xlink:href="namespacevpr.html#structvpr_1_1vk_queue_family_indices" target="_top" xlink:title="vpr::vkQueueFamilyIndices">
<polygon fill="white" stroke="black" points="650.5,-719 650.5,-738 782.5,-738 782.5,-719 650.5,-719"/>
<text text-anchor="middle" x="716.5" y="-726" font-family="Helvetica,sans-Serif" font-size="10.00">vpr::vkQueueFamilyIndices</text>
</a>
</g>
</g>
<!-- Node4&#45;&gt;Node2 -->
<g id="edge3" class="edge"><title>Node4&#45;&gt;Node2</title>
<path fill="none" stroke="#9a32cd" stroke-dasharray="5,2" d="M708.682,-709.6C706.982,-704.934 705.418,-699.852 704.5,-695 701.873,-681.122 702.233,-664.639 702.81,-654.765"/>
<polygon fill="#9a32cd" stroke="#9a32cd" points="705.444,-710.929 712.425,-718.898 711.937,-708.314 705.444,-710.929"/>
<text text-anchor="middle" x="750.5" y="-687" font-family="Helvetica,sans-Serif" font-size="10.00"> QueueFamilyIndices</text>
</g>
<!-- Node5 -->
<g id="node5" class="node"><title>Node5</title>
<polygon fill="white" stroke="#bfbfbf" points="839,-791.5 839,-821.5 934,-821.5 934,-791.5 839,-791.5"/>
<text text-anchor="start" x="847" y="-809.5" font-family="Helvetica,sans-Serif" font-size="10.00">std::vector&lt; const</text>
<text text-anchor="middle" x="886.5" y="-798.5" font-family="Helvetica,sans-Serif" font-size="10.00"> char *&gt;</text>
</g>
<!-- Node5&#45;&gt;Node2 -->
<g id="edge4" class="edge"><title>Node5&#45;&gt;Node2</title>
<path fill="none" stroke="#9a32cd" stroke-dasharray="5,2" d="M876.973,-781.72C863.981,-750.347 840.495,-697.517 824.5,-684 799.105,-662.54 761.571,-653.175 735.053,-649.103"/>
<polygon fill="#9a32cd" stroke="#9a32cd" points="873.775,-783.144 880.8,-791.075 880.253,-780.494 873.775,-783.144"/>
<text text-anchor="middle" x="903.5" y="-726" font-family="Helvetica,sans-Serif" font-size="10.00"> enabledExtensions</text>
</g>
<!-- Node28 -->
<g id="node28" class="node"><title>Node28</title>
<g id="a_node28"><a xlink:href="classvpr_1_1_instance.html" target="_top" xlink:title="Instance is a wrapper around the base Vulkan object that must be initialized first. ">
<polygon fill="white" stroke="black" points="961,-719 961,-738 1032,-738 1032,-719 961,-719"/>
<text text-anchor="middle" x="996.5" y="-726" font-family="Helvetica,sans-Serif" font-size="10.00">vpr::Instance</text>
</a>
</g>
</g>
<!-- Node5&#45;&gt;Node28 -->
<g id="edge33" class="edge"><title>Node5&#45;&gt;Node28</title>
<path fill="none" stroke="#9a32cd" stroke-dasharray="5,2" d="M895.704,-781.864C899.419,-774.72 904.315,-767.359 910.5,-762 919.306,-754.37 946.04,-744.872 967.388,-738.119"/>
<polygon fill="#9a32cd" stroke="#9a32cd" points="892.379,-780.716 891.363,-791.262 898.734,-783.652 892.379,-780.716"/>
<text text-anchor="middle" x="953.5" y="-765" font-family="Helvetica,sans-Serif" font-size="10.00"> enabledExtensions</text>
</g>
<!-- Node6 -->
<g id="node6" class="node"><title>Node6</title>
<g id="a_node6"><a xlink:href="classvpr_1_1_physical_device.html" target="_top" xlink:title="! PhysicalDevice is a wrapper around a VkPhysicalDevice object, which is itself merely a handle repre...">
<polygon fill="white" stroke="black" points="776,-869.5 776,-888.5 877,-888.5 877,-869.5 776,-869.5"/>
<text text-anchor="middle" x="826.5" y="-876.5" font-family="Helvetica,sans-Serif" font-size="10.00">vpr::PhysicalDevice</text>
</a>
</g>
</g>
<!-- Node6&#45;&gt;Node2 -->
<g id="edge5" class="edge"><title>Node6&#45;&gt;Node2</title>
<path fill="none" stroke="#9a32cd" stroke-dasharray="5,2" d="M825.893,-859.046C824.145,-815.691 817.775,-710.956 796.5,-684 781.588,-665.106 755.728,-655.54 735.057,-650.735"/>
<polygon fill="#9a32cd" stroke="#9a32cd" points="822.405,-859.449 826.265,-869.316 829.401,-859.195 822.405,-859.449"/>
<text text-anchor="middle" x="835" y="-765" font-family="Helvetica,sans-Serif" font-size="10.00"> parent</text>
</g>
<!-- Node29 -->
<g id="node29" class="node"><title>Node29</title>
<polygon fill="white" stroke="#bfbfbf" points="952.5,-791.5 952.5,-821.5 1054.5,-821.5 1054.5,-791.5 952.5,-791.5"/>
<text text-anchor="start" x="960.5" y="-809.5" font-family="Helvetica,sans-Serif" font-size="10.00">std::unique_ptr&lt; vpr</text>
<text text-anchor="middle" x="1003.5" y="-798.5" font-family="Helvetica,sans-Serif" font-size="10.00">::PhysicalDevice &gt;</text>
</g>
<!-- Node6&#45;&gt;Node29 -->
<g id="edge32" class="edge"><title>Node6&#45;&gt;Node29</title>
<path fill="none" stroke="#9a32cd" stroke-dasharray="5,2" d="M857.273,-865.743C888.23,-853.412 935.904,-834.424 968.336,-821.506"/>
<polygon fill="#9a32cd" stroke="#9a32cd" points="855.845,-862.544 847.85,-869.496 858.436,-869.047 855.845,-862.544"/>
<text text-anchor="middle" x="928" y="-843" font-family="Helvetica,sans-Serif" font-size="10.00"> ptr</text>
</g>
<!-- Node7 -->
<g id="node7" class="node"><title>Node7</title>
<polygon fill="white" stroke="#bfbfbf" points="768.5,-936.5 768.5,-966.5 884.5,-966.5 884.5,-936.5 768.5,-936.5"/>
<text text-anchor="start" x="776.5" y="-954.5" font-family="Helvetica,sans-Serif" font-size="10.00">std::unique_ptr&lt; vpr</text>
<text text-anchor="middle" x="826.5" y="-943.5" font-family="Helvetica,sans-Serif" font-size="10.00">::PhysicalDeviceImpl &gt;</text>
</g>
<!-- Node7&#45;&gt;Node6 -->
<g id="edge6" class="edge"><title>Node7&#45;&gt;Node6</title>
<path fill="none" stroke="#9a32cd" stroke-dasharray="5,2" d="M826.5,-926.091C826.5,-913.214 826.5,-898.197 826.5,-888.893"/>
<polygon fill="#9a32cd" stroke="#9a32cd" points="823,-926.233 826.5,-936.233 830,-926.233 823,-926.233"/>
<text text-anchor="middle" x="837.5" y="-910" font-family="Helvetica,sans-Serif" font-size="10.00"> impl</text>
</g>
<!-- Node8 -->
<g id="node8" class="node"><title>Node8</title>
<g id="a_node8"><a xlink:href="classvpr_1_1_physical_device_impl.html" target="_top" xlink:title="vpr::PhysicalDeviceImpl">
<polygon fill="white" stroke="black" points="767,-1014.5 767,-1033.5 886,-1033.5 886,-1014.5 767,-1014.5"/>
<text text-anchor="middle" x="826.5" y="-1021.5" font-family="Helvetica,sans-Serif" font-size="10.00">vpr::PhysicalDeviceImpl</text>
</a>
</g>
</g>
<!-- Node8&#45;&gt;Node7 -->
<g id="edge7" class="edge"><title>Node8&#45;&gt;Node7</title>
<path fill="none" stroke="#9a32cd" stroke-dasharray="5,2" d="M826.5,-1004.24C826.5,-992.408 826.5,-977.383 826.5,-966.576"/>
<polygon fill="#9a32cd" stroke="#9a32cd" points="823,-1004.36 826.5,-1014.36 830,-1004.36 823,-1004.36"/>
<text text-anchor="middle" x="834" y="-988" font-family="Helvetica,sans-Serif" font-size="10.00"> ptr</text>
</g>
<!-- Node9 -->
<g id="node9" class="node"><title>Node9</title>
<polygon fill="white" stroke="#bfbfbf" points="756.5,-1081.5 756.5,-1111.5 896.5,-1111.5 896.5,-1081.5 756.5,-1081.5"/>
<text text-anchor="start" x="764.5" y="-1099.5" font-family="Helvetica,sans-Serif" font-size="10.00">std::vector&lt; VkQueueFamily</text>
<text text-anchor="middle" x="826.5" y="-1088.5" font-family="Helvetica,sans-Serif" font-size="10.00">Properties &gt;</text>
</g>
<!-- Node9&#45;&gt;Node8 -->
<g id="edge8" class="edge"><title>Node9&#45;&gt;Node8</title>
<path fill="none" stroke="#9a32cd" stroke-dasharray="5,2" d="M826.5,-1071.09C826.5,-1058.21 826.5,-1043.2 826.5,-1033.89"/>
<polygon fill="#9a32cd" stroke="#9a32cd" points="823,-1071.23 826.5,-1081.23 830,-1071.23 823,-1071.23"/>
<text text-anchor="middle" x="878" y="-1055" font-family="Helvetica,sans-Serif" font-size="10.00"> queueFamilyProperties</text>
</g>
<!-- Node10 -->
<g id="node10" class="node"><title>Node10</title>
<polygon fill="white" stroke="#bfbfbf" points="546.5,-468.5 546.5,-498.5 648.5,-498.5 648.5,-468.5 546.5,-468.5"/>
<text text-anchor="start" x="554.5" y="-486.5" font-family="Helvetica,sans-Serif" font-size="10.00">std::unique_ptr&lt; vpr</text>
<text text-anchor="middle" x="597.5" y="-475.5" font-family="Helvetica,sans-Serif" font-size="10.00">::Allocator &gt;</text>
</g>
<!-- Node10&#45;&gt;Node2 -->
<g id="edge9" class="edge"><title>Node10&#45;&gt;Node2</title>
<path fill="none" stroke="#9a32cd" stroke-dasharray="5,2" d="M631.132,-504.079C646.672,-514.682 664.155,-529.082 675.5,-546 694.915,-574.952 701.03,-617.378 702.817,-635.397"/>
<polygon fill="#9a32cd" stroke="#9a32cd" points="633.032,-501.14 622.749,-498.587 629.196,-506.995 633.032,-501.14"/>
<text text-anchor="middle" x="716" y="-559" font-family="Helvetica,sans-Serif" font-size="10.00"> vkAllocator</text>
</g>
<!-- Node11&#45;&gt;Node10 -->
<g id="edge10" class="edge"><title>Node11&#45;&gt;Node10</title>
<path fill="none" stroke="#9a32cd" stroke-dasharray="5,2" d="M469.098,-547.459C496.861,-533.845 540.252,-512.57 568.781,-498.582"/>
<polygon fill="#9a32cd" stroke="#9a32cd" points="467.417,-544.384 459.979,-551.93 470.499,-550.67 467.417,-544.384"/>
<text text-anchor="middle" x="537" y="-520" font-family="Helvetica,sans-Serif" font-size="10.00"> ptr</text>
</g>
<!-- Node15 -->
<g id="node15" class="node"><title>Node15</title>
<g id="a_node15"><a xlink:href="classvpr_1_1_allocation_collection.html" target="_top" xlink:title="An allocation collection is just a vector of MemoryBlocks of the same type. ">
<polygon fill="white" stroke="black" points="272.5,-245.5 272.5,-264.5 392.5,-264.5 392.5,-245.5 272.5,-245.5"/>
<text text-anchor="middle" x="332.5" y="-252.5" font-family="Helvetica,sans-Serif" font-size="10.00">vpr::AllocationCollection</text>
</a>
</g>
</g>
<!-- Node11&#45;&gt;Node15 -->
<g id="edge15" class="edge"><title>Node11&#45;&gt;Node15</title>
<path fill="none" stroke="#9a32cd" stroke-dasharray="5,2" d="M417.857,-546.323C398.396,-533.089 374.5,-511.369 374.5,-484.5 374.5,-484.5 374.5,-484.5 374.5,-326.5 374.5,-306.19 371.245,-300.235 360.5,-283 356.141,-276.009 349.578,-269.549 343.901,-264.702"/>
<polygon fill="#9a32cd" stroke="#9a32cd" points="416.078,-549.34 426.385,-551.795 419.858,-543.449 416.078,-549.34"/>
<text text-anchor="middle" x="394.5" y="-403" font-family="Helvetica,sans-Serif" font-size="10.00"> allocator</text>
</g>
<!-- Node18 -->
<g id="node18" class="node"><title>Node18</title>
<g id="a_node18"><a xlink:href="classvpr_1_1_memory_block.html" target="_top" xlink:title="A MemoryBlock is a large contiguous region of Vulkan memory of a uniform type (device local...">
<polygon fill="white" stroke="black" points="165,-474 165,-493 260,-493 260,-474 165,-474"/>
<text text-anchor="middle" x="212.5" y="-481" font-family="Helvetica,sans-Serif" font-size="10.00">vpr::MemoryBlock</text>
</a>
</g>
</g>
<!-- Node11&#45;&gt;Node18 -->
<g id="edge23" class="edge"><title>Node11&#45;&gt;Node18</title>
<path fill="none" stroke="#9a32cd" stroke-dasharray="5,2" d="M396.048,-550.278C373.011,-544.668 344.954,-537.016 320.5,-528 309.868,-524.08 307.912,-521.471 297.5,-517 277.177,-508.272 253.661,-499.37 236.522,-493.095"/>
<polygon fill="#9a32cd" stroke="#9a32cd" points="395.379,-553.716 405.918,-552.632 397.003,-546.907 395.379,-553.716"/>
<text text-anchor="middle" x="340.5" y="-520" font-family="Helvetica,sans-Serif" font-size="10.00"> allocator</text>
</g>
<!-- Node12 -->
<g id="node12" class="node"><title>Node12</title>
<polygon fill="white" stroke="#bfbfbf" points="314,-0.5 314,-41.5 487,-41.5 487,-0.5 314,-0.5"/>
<text text-anchor="start" x="322" y="-29.5" font-family="Helvetica,sans-Serif" font-size="10.00">std::map&lt; AllocationSize,</text>
<text text-anchor="start" x="322" y="-18.5" font-family="Helvetica,sans-Serif" font-size="10.00"> std::vector&lt; std::unique</text>
<text text-anchor="middle" x="400.5" y="-7.5" font-family="Helvetica,sans-Serif" font-size="10.00">_ptr&lt; vpr::AllocationCollection &gt; &gt; &gt;</text>
</g>
<!-- Node12&#45;&gt;Node11 -->
<g id="edge11" class="edge"><title>Node12&#45;&gt;Node11</title>
<path fill="none" stroke="#9a32cd" stroke-dasharray="5,2" d="M423.169,-49.9428C433.084,-64.9118 442.5,-84.2061 442.5,-103.5 442.5,-484.5 442.5,-484.5 442.5,-484.5 442.5,-508.778 442.5,-537.418 442.5,-551.608"/>
<polygon fill="#9a32cd" stroke="#9a32cd" points="425.959,-47.8251 417.341,-41.6619 420.234,-51.854 425.959,-47.8251"/>
<text text-anchor="middle" x="467.5" y="-286" font-family="Helvetica,sans-Serif" font-size="10.00"> allocations</text>
</g>
<!-- Node13 -->
<g id="node13" class="node"><title>Node13</title>
<polygon fill="white" stroke="#bfbfbf" points="250.5,-89.5 250.5,-119.5 414.5,-119.5 414.5,-89.5 250.5,-89.5"/>
<text text-anchor="start" x="258.5" y="-107.5" font-family="Helvetica,sans-Serif" font-size="10.00">std::vector&lt; std::unique</text>
<text text-anchor="middle" x="332.5" y="-96.5" font-family="Helvetica,sans-Serif" font-size="10.00">_ptr&lt; vpr::AllocationCollection &gt; &gt;</text>
</g>
<!-- Node13&#45;&gt;Node12 -->
<g id="edge12" class="edge"><title>Node13&#45;&gt;Node12</title>
<path fill="none" stroke="#9a32cd" stroke-dasharray="5,2" d="M350.771,-81.6021C361.189,-69.115 374.136,-53.5984 384.207,-41.5278"/>
<polygon fill="#9a32cd" stroke="#9a32cd" points="348.064,-79.3831 344.345,-89.3038 353.439,-83.8677 348.064,-79.3831"/>
<text text-anchor="middle" x="391" y="-63" font-family="Helvetica,sans-Serif" font-size="10.00"> elements</text>
</g>
<!-- Node14 -->
<g id="node14" class="node"><title>Node14</title>
<polygon fill="white" stroke="#bfbfbf" points="274,-167.5 274,-197.5 391,-197.5 391,-167.5 274,-167.5"/>
<text text-anchor="start" x="282" y="-185.5" font-family="Helvetica,sans-Serif" font-size="10.00">std::unique_ptr&lt; vpr</text>
<text text-anchor="middle" x="332.5" y="-174.5" font-family="Helvetica,sans-Serif" font-size="10.00">::AllocationCollection &gt;</text>
</g>
<!-- Node14&#45;&gt;Node13 -->
<g id="edge13" class="edge"><title>Node14&#45;&gt;Node13</title>
<path fill="none" stroke="#9a32cd" stroke-dasharray="5,2" d="M332.5,-157.09C332.5,-144.757 332.5,-130.224 332.5,-119.731"/>
<polygon fill="#9a32cd" stroke="#9a32cd" points="329,-157.205 332.5,-167.205 336,-157.205 329,-157.205"/>
<text text-anchor="middle" x="354" y="-141" font-family="Helvetica,sans-Serif" font-size="10.00"> elements</text>
</g>
<!-- Node15&#45;&gt;Node14 -->
<g id="edge14" class="edge"><title>Node15&#45;&gt;Node14</title>
<path fill="none" stroke="#9a32cd" stroke-dasharray="5,2" d="M332.5,-235.236C332.5,-223.408 332.5,-208.383 332.5,-197.576"/>
<polygon fill="#9a32cd" stroke="#9a32cd" points="329,-235.355 332.5,-245.355 336,-235.355 329,-235.355"/>
<text text-anchor="middle" x="340" y="-219" font-family="Helvetica,sans-Serif" font-size="10.00"> ptr</text>
</g>
<!-- Node16 -->
<g id="node16" class="node"><title>Node16</title>
<polygon fill="white" stroke="#bfbfbf" points="206.5,-312.5 206.5,-342.5 344.5,-342.5 344.5,-312.5 206.5,-312.5"/>
<text text-anchor="start" x="214.5" y="-330.5" font-family="Helvetica,sans-Serif" font-size="10.00">std::vector&lt; std::unique</text>
<text text-anchor="middle" x="275.5" y="-319.5" font-family="Helvetica,sans-Serif" font-size="10.00">_ptr&lt; vpr::MemoryBlock &gt; &gt;</text>
</g>
<!-- Node16&#45;&gt;Node15 -->
<g id="edge16" class="edge"><title>Node16&#45;&gt;Node15</title>
<path fill="none" stroke="#9a32cd" stroke-dasharray="5,2" d="M293.386,-304.216C298.868,-297.4 304.925,-289.886 310.5,-283 315.523,-276.797 321.215,-269.812 325.551,-264.501"/>
<polygon fill="#9a32cd" stroke="#9a32cd" points="290.364,-302.39 286.827,-312.377 295.82,-306.775 290.364,-302.39"/>
<text text-anchor="middle" x="335.5" y="-286" font-family="Helvetica,sans-Serif" font-size="10.00"> allocations</text>
</g>
<!-- Node17 -->
<g id="node17" class="node"><title>Node17</title>
<polygon fill="white" stroke="#bfbfbf" points="212.5,-390.5 212.5,-420.5 314.5,-420.5 314.5,-390.5 212.5,-390.5"/>
<text text-anchor="start" x="220.5" y="-408.5" font-family="Helvetica,sans-Serif" font-size="10.00">std::unique_ptr&lt; vpr</text>
<text text-anchor="middle" x="263.5" y="-397.5" font-family="Helvetica,sans-Serif" font-size="10.00">::MemoryBlock &gt;</text>
</g>
<!-- Node17&#45;&gt;Node16 -->
<g id="edge17" class="edge"><title>Node17&#45;&gt;Node16</title>
<path fill="none" stroke="#9a32cd" stroke-dasharray="5,2" d="M267.354,-380.09C269.302,-367.757 271.596,-353.224 273.253,-342.731"/>
<polygon fill="#9a32cd" stroke="#9a32cd" points="263.86,-379.781 265.757,-390.205 270.774,-380.873 263.86,-379.781"/>
<text text-anchor="middle" x="292" y="-364" font-family="Helvetica,sans-Serif" font-size="10.00"> elements</text>
</g>
<!-- Node18&#45;&gt;Node17 -->
<g id="edge18" class="edge"><title>Node18&#45;&gt;Node17</title>
<path fill="none" stroke="#9a32cd" stroke-dasharray="5,2" d="M223.998,-465.365C233.081,-451.83 245.6,-433.175 254.092,-420.52"/>
<polygon fill="#9a32cd" stroke="#9a32cd" points="221.016,-463.528 218.35,-473.782 226.829,-467.428 221.016,-463.528"/>
<text text-anchor="middle" x="249" y="-442" font-family="Helvetica,sans-Serif" font-size="10.00"> ptr</text>
</g>
<!-- Node19 -->
<g id="node19" class="node"><title>Node19</title>
<polygon fill="white" stroke="#bfbfbf" points="0,-552 0,-571 125,-571 125,-552 0,-552"/>
<text text-anchor="middle" x="62.5" y="-559" font-family="Helvetica,sans-Serif" font-size="10.00">std::list&lt; Suballocation &gt;</text>
</g>
<!-- Node19&#45;&gt;Node18 -->
<g id="edge19" class="edge"><title>Node19&#45;&gt;Node18</title>
<path fill="none" stroke="#9a32cd" stroke-dasharray="5,2" d="M85.7786,-546.837C101.14,-537.992 121.806,-526.411 140.5,-517 157.772,-508.305 177.86,-499.329 192.422,-493.019"/>
<polygon fill="#9a32cd" stroke="#9a32cd" points="83.8602,-543.904 76.9649,-551.948 87.3715,-549.96 83.8602,-543.904"/>
<text text-anchor="middle" x="174" y="-520" font-family="Helvetica,sans-Serif" font-size="10.00"> Suballocations</text>
</g>
<!-- Node20 -->
<g id="node20" class="node"><title>Node20</title>
<g id="a_node20"><a xlink:href="structvpr_1_1_suballocation.html" target="_top" xlink:title="During the process of finding a suitable region to bind to, we need to store things like &quot;Suballocati...">
<polygon fill="white" stroke="black" points="16,-635.5 16,-654.5 109,-654.5 109,-635.5 16,-635.5"/>
<text text-anchor="middle" x="62.5" y="-642.5" font-family="Helvetica,sans-Serif" font-size="10.00">vpr::Suballocation</text>
</a>
</g>
</g>
<!-- Node20&#45;&gt;Node19 -->
<g id="edge20" class="edge"><title>Node20&#45;&gt;Node19</title>
<path fill="none" stroke="#9a32cd" stroke-dasharray="5,2" d="M62.5,-624.876C62.5,-607.898 62.5,-583.867 62.5,-571.159"/>
<polygon fill="#9a32cd" stroke="#9a32cd" points="59.0001,-625.278 62.5,-635.278 66.0001,-625.278 59.0001,-625.278"/>
<text text-anchor="middle" x="84" y="-598" font-family="Helvetica,sans-Serif" font-size="10.00"> elements</text>
</g>
<!-- Node21 -->
<g id="node21" class="node"><title>Node21</title>
<polygon fill="white" stroke="#bfbfbf" points="145.5,-546.5 145.5,-576.5 273.5,-576.5 273.5,-546.5 145.5,-546.5"/>
<text text-anchor="start" x="153.5" y="-564.5" font-family="Helvetica,sans-Serif" font-size="10.00">std::vector&lt; suballocation</text>
<text text-anchor="middle" x="209.5" y="-553.5" font-family="Helvetica,sans-Serif" font-size="10.00">List::iterator &gt;</text>
</g>
<!-- Node21&#45;&gt;Node18 -->
<g id="edge21" class="edge"><title>Node21&#45;&gt;Node18</title>
<path fill="none" stroke="#9a32cd" stroke-dasharray="5,2" d="M210.461,-536.165C211.044,-521.396 211.752,-503.448 212.162,-493.064"/>
<polygon fill="#9a32cd" stroke="#9a32cd" points="206.962,-536.075 210.064,-546.205 213.956,-536.351 206.962,-536.075"/>
<text text-anchor="middle" x="254.5" y="-520" font-family="Helvetica,sans-Serif" font-size="10.00"> availSuballocations</text>
</g>
<!-- Node22 -->
<g id="node22" class="node"><title>Node22</title>
<g id="a_node22"><a xlink:title="STL iterator class. ">
<polygon fill="white" stroke="#bfbfbf" points="127.5,-635.5 127.5,-654.5 235.5,-654.5 235.5,-635.5 127.5,-635.5"/>
<text text-anchor="middle" x="181.5" y="-642.5" font-family="Helvetica,sans-Serif" font-size="10.00">std::list&lt; T &gt;::iterator</text>
</a>
</g>
</g>
<!-- Node22&#45;&gt;Node21 -->
<g id="edge22" class="edge"><title>Node22&#45;&gt;Node21</title>
<path fill="none" stroke="#9a32cd" stroke-dasharray="5,2" d="M187.8,-625.663C192.904,-610.807 199.989,-590.182 204.657,-576.597"/>
<polygon fill="#9a32cd" stroke="#9a32cd" points="184.436,-624.683 184.496,-635.278 191.056,-626.958 184.436,-624.683"/>
<text text-anchor="middle" x="220" y="-598" font-family="Helvetica,sans-Serif" font-size="10.00"> elements</text>
</g>
<!-- Node23 -->
<g id="node23" class="node"><title>Node23</title>
<polygon fill="white" stroke="#bfbfbf" points="254,-624.5 254,-665.5 365,-665.5 365,-624.5 254,-624.5"/>
<text text-anchor="start" x="262" y="-653.5" font-family="Helvetica,sans-Serif" font-size="10.00">std::unordered_set</text>
<text text-anchor="start" x="262" y="-642.5" font-family="Helvetica,sans-Serif" font-size="10.00">&lt; std::unique_ptr&lt; vpr</text>
<text text-anchor="middle" x="309.5" y="-631.5" font-family="Helvetica,sans-Serif" font-size="10.00">::Allocation &gt; &gt;</text>
</g>
<!-- Node23&#45;&gt;Node11 -->
<g id="edge25" class="edge"><title>Node23&#45;&gt;Node11</title>
<path fill="none" stroke="#9a32cd" stroke-dasharray="5,2" d="M334.938,-617.017C343.214,-609.228 352.783,-601.174 362.5,-595 378.696,-584.709 398.696,-576.584 414.647,-571.032"/>
<polygon fill="#9a32cd" stroke="#9a32cd" points="332.456,-614.549 327.735,-624.034 337.34,-619.563 332.456,-614.549"/>
<text text-anchor="middle" x="402" y="-598" font-family="Helvetica,sans-Serif" font-size="10.00"> privateAllocations</text>
</g>
<!-- Node24 -->
<g id="node24" class="node"><title>Node24</title>
<polygon fill="white" stroke="#bfbfbf" points="254.5,-713.5 254.5,-743.5 356.5,-743.5 356.5,-713.5 254.5,-713.5"/>
<text text-anchor="start" x="262.5" y="-731.5" font-family="Helvetica,sans-Serif" font-size="10.00">std::unique_ptr&lt; vpr</text>
<text text-anchor="middle" x="305.5" y="-720.5" font-family="Helvetica,sans-Serif" font-size="10.00">::Allocation &gt;</text>
</g>
<!-- Node24&#45;&gt;Node23 -->
<g id="edge26" class="edge"><title>Node24&#45;&gt;Node23</title>
<path fill="none" stroke="#9a32cd" stroke-dasharray="5,2" d="M306.699,-703.066C307.288,-691.061 307.989,-676.794 308.542,-665.528"/>
<polygon fill="#9a32cd" stroke="#9a32cd" points="303.191,-703.144 306.197,-713.304 310.183,-703.487 303.191,-703.144"/>
<text text-anchor="middle" x="321" y="-687" font-family="Helvetica,sans-Serif" font-size="10.00"> keys</text>
</g>
<!-- Node25 -->
<g id="node25" class="node"><title>Node25</title>
<g id="a_node25"><a xlink:href="classvpr_1_1_allocation.html" target="_top" xlink:title="Allocation class represents a singular allocation: can be a private allocation (i.e, only user of attached DeviceMemory) or a block allocation (bound to sub&#45;region of device memory) ">
<polygon fill="white" stroke="black" points="267,-797 267,-816 344,-816 344,-797 267,-797"/>
<text text-anchor="middle" x="305.5" y="-804" font-family="Helvetica,sans-Serif" font-size="10.00">vpr::Allocation</text>
</a>
</g>
</g>
<!-- Node25&#45;&gt;Node24 -->
<g id="edge27" class="edge"><title>Node25&#45;&gt;Node24</title>
<path fill="none" stroke="#9a32cd" stroke-dasharray="5,2" d="M305.5,-786.782C305.5,-773.404 305.5,-755.688 305.5,-743.52"/>
<polygon fill="#9a32cd" stroke="#9a32cd" points="302,-786.782 305.5,-796.782 309,-786.782 302,-786.782"/>
<text text-anchor="middle" x="313" y="-765" font-family="Helvetica,sans-Serif" font-size="10.00"> ptr</text>
</g>
<!-- Node26 -->
<g id="node26" class="node"><title>Node26</title>
<polygon fill="white" stroke="#bfbfbf" points="383,-630 383,-660 512,-660 512,-630 383,-630"/>
<text text-anchor="start" x="391" y="-648" font-family="Helvetica,sans-Serif" font-size="10.00">std::map&lt; AllocationSize,</text>
<text text-anchor="middle" x="447.5" y="-637" font-family="Helvetica,sans-Serif" font-size="10.00"> std::vector&lt; bool &gt; &gt;</text>
</g>
<!-- Node26&#45;&gt;Node11 -->
<g id="edge28" class="edge"><title>Node26&#45;&gt;Node11</title>
<path fill="none" stroke="#9a32cd" stroke-dasharray="5,2" d="M446.012,-619.748C445.002,-603.281 443.726,-582.489 443.024,-571.039"/>
<polygon fill="#9a32cd" stroke="#9a32cd" points="442.523,-620.037 446.629,-629.804 449.51,-619.608 442.523,-620.037"/>
<text text-anchor="middle" x="485" y="-598" font-family="Helvetica,sans-Serif" font-size="10.00"> emptyAllocations</text>
</g>
<!-- Node27 -->
<g id="node27" class="node"><title>Node27</title>
<polygon fill="white" stroke="#bfbfbf" points="374.5,-719 374.5,-738 472.5,-738 472.5,-719 374.5,-719"/>
<text text-anchor="middle" x="423.5" y="-726" font-family="Helvetica,sans-Serif" font-size="10.00">std::vector&lt; bool &gt;</text>
</g>
<!-- Node27&#45;&gt;Node26 -->
<g id="edge29" class="edge"><title>Node27&#45;&gt;Node26</title>
<path fill="none" stroke="#9a32cd" stroke-dasharray="5,2" d="M428.9,-709.163C433.275,-694.307 439.348,-673.682 443.349,-660.097"/>
<polygon fill="#9a32cd" stroke="#9a32cd" points="425.536,-708.197 426.068,-718.778 432.251,-710.174 425.536,-708.197"/>
<text text-anchor="middle" x="458" y="-687" font-family="Helvetica,sans-Serif" font-size="10.00"> elements</text>
</g>
<!-- Node28&#45;&gt;Node2 -->
<g id="edge30" class="edge"><title>Node28&#45;&gt;Node2</title>
<path fill="none" stroke="#9a32cd" stroke-dasharray="5,2" d="M964.522,-715.381C939.235,-706.06 902.915,-693.254 870.5,-684 823.895,-670.695 768.935,-658.928 735.154,-652.134"/>
<polygon fill="#9a32cd" stroke="#9a32cd" points="963.381,-718.69 973.974,-718.891 965.819,-712.128 963.381,-718.69"/>
<text text-anchor="middle" x="939" y="-687" font-family="Helvetica,sans-Serif" font-size="10.00"> parentInstance</text>
</g>
<!-- Node31 -->
<g id="node31" class="node"><title>Node31</title>
<g id="a_node31"><a xlink:href="classvpr_1_1_surface_k_h_r.html" target="_top" xlink:title="The bare&#45;minimum required to wrap a VkSurfaceKHR object. ">
<polygon fill="white" stroke="black" points="1042.5,-635.5 1042.5,-654.5 1130.5,-654.5 1130.5,-635.5 1042.5,-635.5"/>
<text text-anchor="middle" x="1086.5" y="-642.5" font-family="Helvetica,sans-Serif" font-size="10.00">vpr::SurfaceKHR</text>
</a>
</g>
</g>
<!-- Node28&#45;&gt;Node31 -->
<g id="edge36" class="edge"><title>Node28&#45;&gt;Node31</title>
<path fill="none" stroke="#9a32cd" stroke-dasharray="5,2" d="M1013.69,-711.933C1032.48,-694.923 1061.89,-668.284 1076.94,-654.659"/>
<polygon fill="#9a32cd" stroke="#9a32cd" points="1011.19,-709.471 1006.13,-718.778 1015.89,-714.66 1011.19,-709.471"/>
<text text-anchor="middle" x="1060" y="-687" font-family="Helvetica,sans-Serif" font-size="10.00"> parent</text>
</g>
<!-- Node29&#45;&gt;Node28 -->
<g id="edge31" class="edge"><title>Node29&#45;&gt;Node28</title>
<path fill="none" stroke="#9a32cd" stroke-dasharray="5,2" d="M1001.26,-781.165C999.898,-766.396 998.245,-748.448 997.289,-738.064"/>
<polygon fill="#9a32cd" stroke="#9a32cd" points="997.781,-781.568 1002.18,-791.205 1004.75,-780.926 997.781,-781.568"/>
<text text-anchor="middle" x="1034.5" y="-765" font-family="Helvetica,sans-Serif" font-size="10.00"> physicalDevice</text>
</g>
<!-- Node30 -->
<g id="node30" class="node"><title>Node30</title>
<polygon fill="white" stroke="#bfbfbf" points="970.5,-546.5 970.5,-576.5 1072.5,-576.5 1072.5,-546.5 970.5,-546.5"/>
<text text-anchor="start" x="978.5" y="-564.5" font-family="Helvetica,sans-Serif" font-size="10.00">std::unique_ptr&lt; vpr</text>
<text text-anchor="middle" x="1021.5" y="-553.5" font-family="Helvetica,sans-Serif" font-size="10.00">::SurfaceKHR &gt;</text>
</g>
<!-- Node30&#45;&gt;Node28 -->
<g id="edge34" class="edge"><title>Node30&#45;&gt;Node28</title>
<path fill="none" stroke="#9a32cd" stroke-dasharray="5,2" d="M1010.47,-586.245C1005.84,-597.442 1000.95,-611.141 998.5,-624 991.896,-658.601 994.232,-700.889 995.69,-718.811"/>
<polygon fill="#9a32cd" stroke="#9a32cd" points="1013.82,-587.329 1014.58,-576.762 1007.39,-584.544 1013.82,-587.329"/>
<text text-anchor="middle" x="1016" y="-642.5" font-family="Helvetica,sans-Serif" font-size="10.00"> surface</text>
</g>
<!-- Node31&#45;&gt;Node30 -->
<g id="edge35" class="edge"><title>Node31&#45;&gt;Node30</title>
<path fill="none" stroke="#9a32cd" stroke-dasharray="5,2" d="M1073.23,-627.367C1061.31,-612.42 1044,-590.71 1032.74,-576.597"/>
<polygon fill="#9a32cd" stroke="#9a32cd" points="1070.57,-629.642 1079.54,-635.278 1076.04,-625.278 1070.57,-629.642"/>
<text text-anchor="middle" x="1064" y="-598" font-family="Helvetica,sans-Serif" font-size="10.00"> ptr</text>
</g>
</g>
</svg>
