<?xml version="1.0" encoding="UTF-8" standalone="no"?>
<!DOCTYPE svg PUBLIC "-//W3C//DTD SVG 1.1//EN"
 "http://www.w3.org/Graphics/SVG/1.1/DTD/svg11.dtd">
<!-- Generated by graphviz version 2.38.0 (20140413.2041)
 -->
<!-- Title: el::base::PErrorWriter::~PErrorWriter Pages: 1 -->
<svg width="440pt" height="439pt"
 viewBox="0.00 0.00 440.00 438.50" xmlns="http://www.w3.org/2000/svg" xmlns:xlink="http://www.w3.org/1999/xlink">
<g id="graph0" class="graph" transform="scale(1 1) rotate(0) translate(4 434.5)">
<title>el::base::PErrorWriter::~PErrorWriter</title>
<polygon fill="white" stroke="none" points="-4,4 -4,-434.5 436,-434.5 436,4 -4,4"/>
<!-- Node6 -->
<g id="node1" class="node"><title>Node6</title>
<polygon fill="#bfbfbf" stroke="black" points="0,-203.5 0,-233.5 111,-233.5 111,-203.5 0,-203.5"/>
<text text-anchor="start" x="8" y="-221.5" font-family="Helvetica,sans-Serif" font-size="10.00">el::base::PErrorWriter</text>
<text text-anchor="middle" x="55.5" y="-210.5" font-family="Helvetica,sans-Serif" font-size="10.00">::~PErrorWriter</text>
</g>
<!-- Node7 -->
<g id="node2" class="node"><title>Node7</title>
<g id="a_node2"><a xlink:href="namespaceel_1_1base_1_1utils.html#a8428f6e3f88dd08153bd99ed77f40084" target="_top" xlink:title="Aborts application due with user&#45;defined status. ">
<polygon fill="white" stroke="black" points="168,-411 168,-430 271,-430 271,-411 168,-411"/>
<text text-anchor="middle" x="219.5" y="-418" font-family="Helvetica,sans-Serif" font-size="10.00">el::base::utils::abort</text>
</a>
</g>
</g>
<!-- Node6&#45;&gt;Node7 -->
<g id="edge1" class="edge"><title>Node6&#45;&gt;Node7</title>
<path fill="none" stroke="midnightblue" d="M59.5424,-233.702C67.3945,-268.87 91.7204,-356.28 147,-401.5 150.506,-404.368 154.403,-406.806 158.516,-408.879"/>
<polygon fill="midnightblue" stroke="midnightblue" points="157.23,-412.135 167.8,-412.857 159.987,-405.701 157.23,-412.135"/>
</g>
<!-- Node8 -->
<g id="node3" class="node"><title>Node8</title>
<g id="a_node3"><a xlink:href="classel_1_1_callback.html#aab4afe42d3f4b6282e69e90efdaa8ea7" target="_top" xlink:title="el::Callback::enabled">
<polygon fill="white" stroke="black" points="166,-373 166,-392 273,-392 273,-373 166,-373"/>
<text text-anchor="middle" x="219.5" y="-380" font-family="Helvetica,sans-Serif" font-size="10.00">el::Callback::enabled</text>
</a>
</g>
</g>
<!-- Node6&#45;&gt;Node8 -->
<g id="edge2" class="edge"><title>Node6&#45;&gt;Node8</title>
<path fill="none" stroke="midnightblue" d="M61.7059,-233.876C72.5996,-263.66 100.697,-329.293 147,-363.5 150.018,-365.73 153.279,-367.698 156.688,-369.436"/>
<polygon fill="midnightblue" stroke="midnightblue" points="155.427,-372.705 165.991,-373.517 158.239,-366.295 155.427,-372.705"/>
</g>
<!-- Node9 -->
<g id="node4" class="node"><title>Node9</title>
<g id="a_node4"><a xlink:href="classel_1_1base_1_1utils_1_1_date_time.html#a9f19da20362c685d32be922a06faf586" target="_top" xlink:title="Formats time to get unit accordingly, units like second if &gt; 1000 or minutes if &gt; 60000 etc...">
<polygon fill="white" stroke="black" points="158.5,-323.5 158.5,-353.5 280.5,-353.5 280.5,-323.5 158.5,-323.5"/>
<text text-anchor="start" x="166.5" y="-341.5" font-family="Helvetica,sans-Serif" font-size="10.00">el::base::utils::DateTime</text>
<text text-anchor="middle" x="219.5" y="-330.5" font-family="Helvetica,sans-Serif" font-size="10.00">::formatTime</text>
</a>
</g>
</g>
<!-- Node6&#45;&gt;Node9 -->
<g id="edge3" class="edge"><title>Node6&#45;&gt;Node9</title>
<path fill="none" stroke="midnightblue" d="M67.0213,-233.684C82.3216,-254.694 112.661,-292.521 147,-314.5 149.564,-316.141 152.252,-317.682 155.021,-319.128"/>
<polygon fill="midnightblue" stroke="midnightblue" points="153.547,-322.302 164.082,-323.425 156.546,-315.978 153.547,-322.302"/>
</g>
<!-- Node10 -->
<g id="node5" class="node"><title>Node10</title>
<g id="a_node5"><a xlink:href="classel_1_1base_1_1utils_1_1_date_time.html#a6635a2a31d6f3d79d47012ea3ccf9d31" target="_top" xlink:title="Gets time difference in milli/micro second depending on timestampUnit. ">
<polygon fill="white" stroke="black" points="158.5,-274.5 158.5,-304.5 280.5,-304.5 280.5,-274.5 158.5,-274.5"/>
<text text-anchor="start" x="166.5" y="-292.5" font-family="Helvetica,sans-Serif" font-size="10.00">el::base::utils::DateTime</text>
<text text-anchor="middle" x="219.5" y="-281.5" font-family="Helvetica,sans-Serif" font-size="10.00">::getTimeDifference</text>
</a>
</g>
</g>
<!-- Node6&#45;&gt;Node10 -->
<g id="edge4" class="edge"><title>Node6&#45;&gt;Node10</title>
<path fill="none" stroke="midnightblue" d="M82.9034,-233.598C100.68,-243.415 124.836,-256.092 147,-265.5 151.365,-267.353 155.927,-269.162 160.541,-270.903"/>
<polygon fill="midnightblue" stroke="midnightblue" points="159.448,-274.229 170.042,-274.371 161.849,-267.654 159.448,-274.229"/>
</g>
<!-- Node11 -->
<g id="node6" class="node"><title>Node11</title>
<g id="a_node6"><a xlink:href="classel_1_1base_1_1utils_1_1_date_time.html#a7197976eff45378efdca75ae070492e7" target="_top" xlink:title="Cross platform gettimeofday for Windows and unix platform. ">
<polygon fill="white" stroke="black" points="158.5,-225.5 158.5,-255.5 280.5,-255.5 280.5,-225.5 158.5,-225.5"/>
<text text-anchor="start" x="166.5" y="-243.5" font-family="Helvetica,sans-Serif" font-size="10.00">el::base::utils::DateTime</text>
<text text-anchor="middle" x="219.5" y="-232.5" font-family="Helvetica,sans-Serif" font-size="10.00">::gettimeofday</text>
</a>
</g>
</g>
<!-- Node6&#45;&gt;Node11 -->
<g id="edge5" class="edge"><title>Node6&#45;&gt;Node11</title>
<path fill="none" stroke="midnightblue" d="M111.346,-225.948C123.178,-227.555 135.845,-229.275 148.176,-230.95"/>
<polygon fill="midnightblue" stroke="midnightblue" points="148.049,-234.465 158.429,-232.342 148.991,-227.528 148.049,-234.465"/>
</g>
<!-- Node12 -->
<g id="node7" class="node"><title>Node12</title>
<g id="a_node7"><a xlink:href="classel_1_1_callback.html#a8997c7971d65062c374ef24e653061be" target="_top" xlink:title="el::Callback::handle">
<polygon fill="white" stroke="black" points="168.5,-187 168.5,-206 270.5,-206 270.5,-187 168.5,-187"/>
<text text-anchor="middle" x="219.5" y="-194" font-family="Helvetica,sans-Serif" font-size="10.00">el::Callback::handle</text>
</a>
</g>
</g>
<!-- Node6&#45;&gt;Node12 -->
<g id="edge6" class="edge"><title>Node6&#45;&gt;Node12</title>
<path fill="none" stroke="midnightblue" d="M111.346,-211.052C126.481,-208.996 142.98,-206.756 158.396,-204.662"/>
<polygon fill="midnightblue" stroke="midnightblue" points="158.907,-208.125 168.345,-203.311 157.965,-201.189 158.907,-208.125"/>
</g>
<!-- Node13 -->
<g id="node8" class="node"><title>Node13</title>
<g id="a_node8"><a xlink:href="classel_1_1base_1_1_v_registry.html#aa39f3774ffc25a2ad18bb86c8c4b8b7c" target="_top" xlink:title="el::base::VRegistry\l::level">
<polygon fill="white" stroke="black" points="169.5,-137.5 169.5,-167.5 269.5,-167.5 269.5,-137.5 169.5,-137.5"/>
<text text-anchor="start" x="177.5" y="-155.5" font-family="Helvetica,sans-Serif" font-size="10.00">el::base::VRegistry</text>
<text text-anchor="middle" x="219.5" y="-144.5" font-family="Helvetica,sans-Serif" font-size="10.00">::level</text>
</a>
</g>
</g>
<!-- Node6&#45;&gt;Node13 -->
<g id="edge7" class="edge"><title>Node6&#45;&gt;Node13</title>
<path fill="none" stroke="midnightblue" d="M88.0331,-203.381C105.29,-195.319 127.144,-185.451 147,-177.5 152.396,-175.339 158.061,-173.179 163.74,-171.084"/>
<polygon fill="midnightblue" stroke="midnightblue" points="165.058,-174.33 173.267,-167.631 162.672,-167.748 165.058,-174.33"/>
</g>
<!-- Node14 -->
<g id="node9" class="node"><title>Node14</title>
<g id="a_node9"><a xlink:href="classel_1_1base_1_1threading_1_1_thread_safe.html#affb45b35790a7305d0a659562c8104fc" target="_top" xlink:title="el::base::threading\l::ThreadSafe::lock">
<polygon fill="white" stroke="black" points="171,-88.5 171,-118.5 268,-118.5 268,-88.5 171,-88.5"/>
<text text-anchor="start" x="179" y="-106.5" font-family="Helvetica,sans-Serif" font-size="10.00">el::base::threading</text>
<text text-anchor="middle" x="219.5" y="-95.5" font-family="Helvetica,sans-Serif" font-size="10.00">::ThreadSafe::lock</text>
</a>
</g>
</g>
<!-- Node6&#45;&gt;Node14 -->
<g id="edge8" class="edge"><title>Node6&#45;&gt;Node14</title>
<path fill="none" stroke="midnightblue" d="M68.0767,-203.353C83.9121,-183.581 114.135,-149.081 147,-128.5 151.597,-125.621 156.569,-123.021 161.676,-120.684"/>
<polygon fill="midnightblue" stroke="midnightblue" points="163.114,-123.876 170.962,-116.759 160.389,-117.428 163.114,-123.876"/>
</g>
<!-- Node15 -->
<g id="node10" class="node"><title>Node15</title>
<g id="a_node10"><a xlink:href="namespaceel_1_1base_1_1utils.html#a3aae3aa11f2f7c51f50d404374cc1646" target="_top" xlink:title="el::base::utils::operator\&lt;\&lt;">
<polygon fill="white" stroke="black" points="155.5,-50 155.5,-69 283.5,-69 283.5,-50 155.5,-50"/>
<text text-anchor="middle" x="219.5" y="-57" font-family="Helvetica,sans-Serif" font-size="10.00">el::base::utils::operator&lt;&lt;</text>
</a>
</g>
</g>
<!-- Node6&#45;&gt;Node15 -->
<g id="edge9" class="edge"><title>Node6&#45;&gt;Node15</title>
<path fill="none" stroke="midnightblue" d="M62.1051,-203.364C73.5111,-174.69 102.198,-112.386 147,-79.5 150.239,-77.1224 153.749,-75.0274 157.417,-73.1812"/>
<polygon fill="midnightblue" stroke="midnightblue" points="159.029,-76.2962 166.792,-69.0858 156.227,-69.8815 159.029,-76.2962"/>
</g>
<!-- Node16 -->
<g id="node11" class="node"><title>Node16</title>
<g id="a_node11"><a xlink:href="classel_1_1base_1_1_typed_configurations.html#a0cef785df86dbfe17a27c5b78ed3e5da" target="_top" xlink:title="el::base::TypedConfigurations\l::performanceTracking">
<polygon fill="white" stroke="black" points="147,-0.5 147,-30.5 292,-30.5 292,-0.5 147,-0.5"/>
<text text-anchor="start" x="155" y="-18.5" font-family="Helvetica,sans-Serif" font-size="10.00">el::base::TypedConfigurations</text>
<text text-anchor="middle" x="219.5" y="-7.5" font-family="Helvetica,sans-Serif" font-size="10.00">::performanceTracking</text>
</a>
</g>
</g>
<!-- Node6&#45;&gt;Node16 -->
<g id="edge10" class="edge"><title>Node6&#45;&gt;Node16</title>
<path fill="none" stroke="midnightblue" d="M60.0377,-203.48C68.7965,-169.523 94.6697,-86.249 147,-40.5 148.949,-38.796 151.021,-37.2063 153.186,-35.7233"/>
<polygon fill="midnightblue" stroke="midnightblue" points="155.129,-38.6399 161.931,-30.5165 151.548,-32.6253 155.129,-38.6399"/>
</g>
<!-- Node17 -->
<g id="node12" class="node"><title>Node17</title>
<g id="a_node12"><a xlink:href="classel_1_1base_1_1_log_format.html#aeacb2c9d313ce5713b3e85e03a4baab5" target="_top" xlink:title="el::base::LogFormat\l::level">
<polygon fill="white" stroke="black" points="328,-0.5 328,-30.5 432,-30.5 432,-0.5 328,-0.5"/>
<text text-anchor="start" x="336" y="-18.5" font-family="Helvetica,sans-Serif" font-size="10.00">el::base::LogFormat</text>
<text text-anchor="middle" x="380" y="-7.5" font-family="Helvetica,sans-Serif" font-size="10.00">::level</text>
</a>
</g>
</g>
<!-- Node16&#45;&gt;Node17 -->
<g id="edge11" class="edge"><title>Node16&#45;&gt;Node17</title>
<path fill="none" stroke="midnightblue" d="M292.33,-15.5C300.832,-15.5 309.449,-15.5 317.784,-15.5"/>
<polygon fill="midnightblue" stroke="midnightblue" points="317.786,-19.0001 327.786,-15.5 317.786,-12.0001 317.786,-19.0001"/>
</g>
</g>
</svg>
