<?xml version="1.0" encoding="UTF-8" standalone="no"?>
<!DOCTYPE svg PUBLIC "-//W3C//DTD SVG 1.1//EN"
 "http://www.w3.org/Graphics/SVG/1.1/DTD/svg11.dtd">
<!-- Generated by graphviz version 2.38.0 (20140413.2041)
 -->
<!-- Title: el::Logger::configure Pages: 1 -->
<!--zoomable 359 -->
<svg id="main" version="1.1" xmlns="http://www.w3.org/2000/svg" xmlns:xlink="http://www.w3.org/1999/xlink" xml:space="preserve" onload="init(evt)">
<style type="text/css"><![CDATA[
.edge:hover path { stroke: red; }
.edge:hover polygon { stroke: red; fill: red; }
]]></style>
<script type="text/javascript"><![CDATA[
var edges = document.getElementsByTagName('g');
if (edges && edges.length) {
  for (var i=0;i<edges.length;i++) {
    if (edges[i].id.substr(0,4)=='edge') {
      edges[i].setAttribute('class','edge');
    }
  }
}
]]></script>
        <defs>
                <circle id="rim" cx="0" cy="0" r="7"/>
                <circle id="rim2" cx="0" cy="0" r="3.5"/>
                <g id="zoomPlus">
                        <use xlink:href="#rim" fill="#404040">
                                <set attributeName="fill" to="#808080" begin="zoomplus.mouseover" end="zoomplus.mouseout"/>
                        </use>
                        <path d="M-4,0h8M0,-4v8" fill="none" stroke="white" stroke-width="1.5" pointer-events="none"/>
                </g>
                <g id="zoomMin">
                        <use xlink:href="#rim" fill="#404040">
                                <set attributeName="fill" to="#808080" begin="zoomminus.mouseover" end="zoomminus.mouseout"/>
                        </use>
                        <path d="M-4,0h8" fill="none" stroke="white" stroke-width="1.5" pointer-events="none"/>
                </g>
                <g id="dirArrow">
                        <path fill="none" stroke="white" stroke-width="1.5" d="M0,-3.0v7 M-2.5,-0.5L0,-3.0L2.5,-0.5"/>
                </g>
               <g id="resetDef">
                       <use xlink:href="#rim2" fill="#404040">
                               <set attributeName="fill" to="#808080" begin="reset.mouseover" end="reset.mouseout"/>
                       </use>
               </g>
        </defs>

<script type="text/javascript">
var viewWidth = 614;
var viewHeight = 359;
var sectionId = 'dynsection-8';
</script>
<script xlink:href="svgpan.js"/>
<svg id="graph" class="graph">
<g id="viewport">
<title>el::Logger::configure</title>
<polygon fill="white" stroke="none" points="-4,4 -4,-355 610,-355 610,4 -4,4"/>
<!-- Node38 -->
<g id="node1" class="node"><title>Node38</title>
<polygon fill="#bfbfbf" stroke="black" points="0,-173 0,-192 104,-192 104,-173 0,-173"/>
<text text-anchor="middle" x="52" y="-180" font-family="Helvetica,sans-Serif" font-size="10.00">el::Logger::configure</text>
</g>
<!-- Node39 -->
<g id="node2" class="node"><title>Node39</title>
<g id="a_node2"><a xlink:href="classel_1_1base_1_1_typed_configurations.html#a52bd4cc5e6684bc40391c096a8df3c2d" target="_top" xlink:title="el::base::TypedConfigurations\l::configurations">
<polygon fill="white" stroke="black" points="140,-320.5 140,-350.5 285,-350.5 285,-320.5 140,-320.5"/>
<text text-anchor="start" x="148" y="-338.5" font-family="Helvetica,sans-Serif" font-size="10.00">el::base::TypedConfigurations</text>
<text text-anchor="middle" x="212.5" y="-327.5" font-family="Helvetica,sans-Serif" font-size="10.00">::configurations</text>
</a>
</g>
</g>
<!-- Node38&#45;&gt;Node39 -->
<g id="edge1" class="edge"><title>Node38&#45;&gt;Node39</title>
<path fill="none" stroke="midnightblue" d="M56.883,-192.174C66.9409,-216.024 96.152,-278.122 140,-311.5 141.82,-312.885 143.725,-314.194 145.694,-315.428"/>
<polygon fill="midnightblue" stroke="midnightblue" points="144.232,-318.619 154.678,-320.387 147.614,-312.491 144.232,-318.619"/>
</g>
<!-- Node40 -->
<g id="node3" class="node"><title>Node40</title>
<g id="a_node3"><a xlink:href="classel_1_1_logger.html#a9a89d454008b1ee1a197eec4b92ce22a" target="_top" xlink:title="Flushes logger to sync all log files for all levels. ">
<polygon fill="white" stroke="black" points="169.5,-195 169.5,-214 255.5,-214 255.5,-195 169.5,-195"/>
<text text-anchor="middle" x="212.5" y="-202" font-family="Helvetica,sans-Serif" font-size="10.00">el::Logger::flush</text>
</a>
</g>
</g>
<!-- Node38&#45;&gt;Node40 -->
<g id="edge2" class="edge"><title>Node38&#45;&gt;Node40</title>
<path fill="none" stroke="midnightblue" d="M104.023,-189.582C121.649,-192.029 141.419,-194.773 159.15,-197.234"/>
<polygon fill="midnightblue" stroke="midnightblue" points="158.936,-200.738 169.322,-198.646 159.899,-193.804 158.936,-200.738"/>
</g>
<!-- Node41 -->
<g id="node4" class="node"><title>Node41</title>
<g id="a_node4"><a xlink:href="classel_1_1base_1_1threading_1_1_thread_safe.html#affb45b35790a7305d0a659562c8104fc" target="_top" xlink:title="el::base::threading\l::ThreadSafe::lock">
<polygon fill="white" stroke="black" points="345,-225.5 345,-255.5 442,-255.5 442,-225.5 345,-225.5"/>
<text text-anchor="start" x="353" y="-243.5" font-family="Helvetica,sans-Serif" font-size="10.00">el::base::threading</text>
<text text-anchor="middle" x="393.5" y="-232.5" font-family="Helvetica,sans-Serif" font-size="10.00">::ThreadSafe::lock</text>
</a>
</g>
</g>
<!-- Node38&#45;&gt;Node41 -->
<g id="edge12" class="edge"><title>Node38&#45;&gt;Node41</title>
<path fill="none" stroke="midnightblue" d="M68.6724,-192.096C85.5881,-201.913 113.655,-216.666 140,-223.5 205.188,-240.41 282.836,-243.165 334.652,-242.653"/>
<polygon fill="midnightblue" stroke="midnightblue" points="334.711,-246.153 344.66,-242.51 334.611,-239.153 334.711,-246.153"/>
</g>
<!-- Node44 -->
<g id="node7" class="node"><title>Node44</title>
<g id="a_node7"><a xlink:href="classel_1_1_configurations.html#a1e812370f896b6429bf46b31fcd4e3e0" target="_top" xlink:title="Determines whether or not specified configuration type exists in the repository. ">
<polygon fill="white" stroke="black" points="165,-145.5 165,-175.5 260,-175.5 260,-145.5 165,-145.5"/>
<text text-anchor="start" x="173" y="-163.5" font-family="Helvetica,sans-Serif" font-size="10.00">el::Configurations</text>
<text text-anchor="middle" x="212.5" y="-152.5" font-family="Helvetica,sans-Serif" font-size="10.00">::hasConfiguration</text>
</a>
</g>
</g>
<!-- Node38&#45;&gt;Node44 -->
<g id="edge6" class="edge"><title>Node38&#45;&gt;Node44</title>
<path fill="none" stroke="midnightblue" d="M104.023,-175.418C120.211,-173.171 138.206,-170.673 154.769,-168.374"/>
<polygon fill="midnightblue" stroke="midnightblue" points="155.445,-171.814 164.869,-166.972 154.483,-164.881 155.445,-171.814"/>
</g>
<!-- Node45 -->
<g id="node8" class="node"><title>Node45</title>
<g id="a_node8"><a xlink:href="classel_1_1_logger.html#ae7c1d538f6163b6be5d37dafcaf24610" target="_top" xlink:title="el::Logger::initUnflushed\lCount">
<polygon fill="white" stroke="black" points="152,-96.5 152,-126.5 273,-126.5 273,-96.5 152,-96.5"/>
<text text-anchor="start" x="160" y="-114.5" font-family="Helvetica,sans-Serif" font-size="10.00">el::Logger::initUnflushed</text>
<text text-anchor="middle" x="212.5" y="-103.5" font-family="Helvetica,sans-Serif" font-size="10.00">Count</text>
</a>
</g>
</g>
<!-- Node38&#45;&gt;Node45 -->
<g id="edge9" class="edge"><title>Node38&#45;&gt;Node45</title>
<path fill="none" stroke="midnightblue" d="M68.6261,-172.997C85.7329,-162.847 114.174,-146.712 140,-135.5 144.35,-133.611 148.901,-131.777 153.508,-130.019"/>
<polygon fill="midnightblue" stroke="midnightblue" points="154.822,-133.265 162.997,-126.525 152.404,-126.696 154.822,-133.265"/>
</g>
<!-- Node46 -->
<g id="node9" class="node"><title>Node46</title>
<g id="a_node9"><a xlink:href="classel_1_1_logger.html#acfb9ef869b9b4dc3efd78d7f64b8bebd" target="_top" xlink:title="el::Logger::resolveLogger\lFormatSpec">
<polygon fill="white" stroke="black" points="150,-47.5 150,-77.5 275,-77.5 275,-47.5 150,-47.5"/>
<text text-anchor="start" x="158" y="-65.5" font-family="Helvetica,sans-Serif" font-size="10.00">el::Logger::resolveLogger</text>
<text text-anchor="middle" x="212.5" y="-54.5" font-family="Helvetica,sans-Serif" font-size="10.00">FormatSpec</text>
</a>
</g>
</g>
<!-- Node38&#45;&gt;Node46 -->
<g id="edge13" class="edge"><title>Node38&#45;&gt;Node46</title>
<path fill="none" stroke="midnightblue" d="M59.2125,-172.835C72.0281,-153.641 103.293,-110.507 140,-86.5 142.414,-84.921 144.943,-83.4361 147.547,-82.0407"/>
<polygon fill="midnightblue" stroke="midnightblue" points="149.17,-85.144 156.644,-77.6348 146.118,-78.844 149.17,-85.144"/>
</g>
<!-- Node50 -->
<g id="node13" class="node"><title>Node50</title>
<g id="a_node13"><a xlink:href="namespaceel_1_1base_1_1utils.html#a8cad5c357a7913cdbe69add3d6a4e8ac" target="_top" xlink:title="Deletes memory safely and points to null. ">
<polygon fill="white" stroke="black" points="149,-9 149,-28 276,-28 276,-9 149,-9"/>
<text text-anchor="middle" x="212.5" y="-16" font-family="Helvetica,sans-Serif" font-size="10.00">el::base::utils::safeDelete</text>
</a>
</g>
</g>
<!-- Node38&#45;&gt;Node50 -->
<g id="edge19" class="edge"><title>Node38&#45;&gt;Node50</title>
<path fill="none" stroke="midnightblue" d="M55.8826,-172.991C64.2689,-146.99 91.2065,-74.2136 140,-37.5 142.486,-35.6297 145.141,-33.9433 147.911,-32.4226"/>
<polygon fill="midnightblue" stroke="midnightblue" points="149.526,-35.5312 157.086,-28.1082 146.547,-29.1967 149.526,-35.5312"/>
</g>
<!-- Node51 -->
<g id="node14" class="node"><title>Node51</title>
<g id="a_node14"><a xlink:href="classel_1_1_configurations.html#a4c6db218908b39d23cc09b1a16a18e83" target="_top" xlink:title="Sets configuration based&#45;off an existing configurations. ">
<polygon fill="white" stroke="black" points="166.5,-271.5 166.5,-301.5 258.5,-301.5 258.5,-271.5 166.5,-271.5"/>
<text text-anchor="start" x="174.5" y="-289.5" font-family="Helvetica,sans-Serif" font-size="10.00">el::Configurations</text>
<text text-anchor="middle" x="212.5" y="-278.5" font-family="Helvetica,sans-Serif" font-size="10.00">::setFromBase</text>
</a>
</g>
</g>
<!-- Node38&#45;&gt;Node51 -->
<g id="edge20" class="edge"><title>Node38&#45;&gt;Node51</title>
<path fill="none" stroke="midnightblue" d="M62.398,-192.235C77.5706,-207.526 108.915,-237.397 140,-256.5 146.308,-260.377 153.206,-263.972 160.149,-267.228"/>
<polygon fill="midnightblue" stroke="midnightblue" points="159.036,-270.565 169.593,-271.453 161.894,-264.175 159.036,-270.565"/>
</g>
<!-- Node40&#45;&gt;Node41 -->
<g id="edge3" class="edge"><title>Node40&#45;&gt;Node41</title>
<path fill="none" stroke="midnightblue" d="M255.921,-213.031C279.468,-217.767 309.093,-223.725 334.729,-228.881"/>
<polygon fill="midnightblue" stroke="midnightblue" points="334.21,-232.347 344.704,-230.887 335.59,-225.484 334.21,-232.347"/>
</g>
<!-- Node42 -->
<g id="node5" class="node"><title>Node42</title>
<g id="a_node5"><a xlink:href="classel_1_1_level_helper.html#a7f0dbfceb2354a72c2802d02c300430d" target="_top" xlink:title="Applies specified function to each level starting from startIndex. ">
<polygon fill="white" stroke="black" points="334,-144.5 334,-174.5 453,-174.5 453,-144.5 334,-144.5"/>
<text text-anchor="start" x="342" y="-162.5" font-family="Helvetica,sans-Serif" font-size="10.00">el::LevelHelper::forEach</text>
<text text-anchor="middle" x="393.5" y="-151.5" font-family="Helvetica,sans-Serif" font-size="10.00">Level</text>
</a>
</g>
</g>
<!-- Node40&#45;&gt;Node42 -->
<g id="edge4" class="edge"><title>Node40&#45;&gt;Node42</title>
<path fill="none" stroke="midnightblue" d="M251.461,-194.957C272.477,-189.673 299.245,-182.944 323.801,-176.771"/>
<polygon fill="midnightblue" stroke="midnightblue" points="324.959,-180.089 333.804,-174.256 323.252,-173.3 324.959,-180.089"/>
</g>
<!-- Node43 -->
<g id="node6" class="node"><title>Node43</title>
<g id="a_node6"><a xlink:href="classel_1_1_level_helper.html#a1279f27df29a003df5ecc3d0bf4dacbb" target="_top" xlink:title="Casts int(ushort) to level, useful for iterating through enum. ">
<polygon fill="white" stroke="black" points="325,-104 325,-123 462,-123 462,-104 325,-104"/>
<text text-anchor="middle" x="393.5" y="-111" font-family="Helvetica,sans-Serif" font-size="10.00">el::LevelHelper::castFromInt</text>
</a>
</g>
</g>
<!-- Node40&#45;&gt;Node43 -->
<g id="edge5" class="edge"><title>Node40&#45;&gt;Node43</title>
<path fill="none" stroke="midnightblue" d="M255.683,-197.73C265.885,-194.78 276.335,-190.553 285,-184.5 307.448,-168.819 298.654,-150.326 321,-134.5 325.182,-131.538 329.781,-128.99 334.569,-126.799"/>
<polygon fill="midnightblue" stroke="midnightblue" points="335.987,-130.001 343.948,-123.009 333.365,-123.511 335.987,-130.001"/>
</g>
<!-- Node44&#45;&gt;Node42 -->
<g id="edge8" class="edge"><title>Node44&#45;&gt;Node42</title>
<path fill="none" stroke="midnightblue" d="M260.063,-160.24C279.558,-160.131 302.614,-160.002 323.98,-159.883"/>
<polygon fill="midnightblue" stroke="midnightblue" points="324.003,-163.383 333.984,-159.827 323.964,-156.383 324.003,-163.383"/>
</g>
<!-- Node44&#45;&gt;Node43 -->
<g id="edge7" class="edge"><title>Node44&#45;&gt;Node43</title>
<path fill="none" stroke="midnightblue" d="M260.063,-148.274C286.608,-141.304 319.758,-132.6 346.251,-125.643"/>
<polygon fill="midnightblue" stroke="midnightblue" points="347.268,-128.995 356.052,-123.07 345.491,-122.225 347.268,-128.995"/>
</g>
<!-- Node45&#45;&gt;Node42 -->
<g id="edge10" class="edge"><title>Node45&#45;&gt;Node42</title>
<path fill="none" stroke="midnightblue" d="M269.646,-126.556C287.806,-131.426 308.105,-136.869 326.888,-141.906"/>
<polygon fill="midnightblue" stroke="midnightblue" points="325.988,-145.288 336.554,-144.498 327.801,-138.527 325.988,-145.288"/>
</g>
<!-- Node45&#45;&gt;Node43 -->
<g id="edge11" class="edge"><title>Node45&#45;&gt;Node43</title>
<path fill="none" stroke="midnightblue" d="M273.104,-112.166C286.444,-112.315 300.785,-112.475 314.738,-112.631"/>
<polygon fill="midnightblue" stroke="midnightblue" points="314.771,-116.132 324.81,-112.744 314.85,-109.132 314.771,-116.132"/>
</g>
<!-- Node46&#45;&gt;Node42 -->
<g id="edge14" class="edge"><title>Node46&#45;&gt;Node42</title>
<path fill="none" stroke="midnightblue" d="M269.343,-77.6047C274.859,-80.1521 280.188,-83.099 285,-86.5 306.2,-101.485 300.083,-117.123 321,-132.5 324.647,-135.181 328.591,-137.626 332.688,-139.852"/>
<polygon fill="midnightblue" stroke="midnightblue" points="331.333,-143.086 341.849,-144.379 334.434,-136.811 331.333,-143.086"/>
</g>
<!-- Node46&#45;&gt;Node43 -->
<g id="edge17" class="edge"><title>Node46&#45;&gt;Node43</title>
<path fill="none" stroke="midnightblue" d="M266.238,-77.5258C292.613,-85.0407 324.145,-94.0245 349.099,-101.134"/>
<polygon fill="midnightblue" stroke="midnightblue" points="348.432,-104.584 359.009,-103.958 350.35,-97.8515 348.432,-104.584"/>
</g>
<!-- Node47 -->
<g id="node10" class="node"><title>Node47</title>
<g id="a_node10"><a xlink:href="classel_1_1base_1_1_typed_configurations.html#a05b8ea32f63c3246a68dbc9085b7e847" target="_top" xlink:title="el::base::TypedConfigurations\l::logFormat">
<polygon fill="white" stroke="black" points="321,-49.5 321,-79.5 466,-79.5 466,-49.5 321,-49.5"/>
<text text-anchor="start" x="329" y="-67.5" font-family="Helvetica,sans-Serif" font-size="10.00">el::base::TypedConfigurations</text>
<text text-anchor="middle" x="393.5" y="-56.5" font-family="Helvetica,sans-Serif" font-size="10.00">::logFormat</text>
</a>
</g>
</g>
<!-- Node46&#45;&gt;Node47 -->
<g id="edge15" class="edge"><title>Node46&#45;&gt;Node47</title>
<path fill="none" stroke="midnightblue" d="M275.102,-63.1883C286.637,-63.3172 298.859,-63.4537 310.889,-63.5881"/>
<polygon fill="midnightblue" stroke="midnightblue" points="310.892,-67.0883 320.93,-63.7003 310.97,-60.0887 310.892,-67.0883"/>
</g>
<!-- Node49 -->
<g id="node12" class="node"><title>Node49</title>
<g id="a_node12"><a xlink:href="classel_1_1base_1_1utils_1_1_str.html#a0f271d7da2bb3c1f2fa062219c0e0ba2" target="_top" xlink:title="el::base::utils::Str\l::replaceFirstWithEscape">
<polygon fill="white" stroke="black" points="330,-0.5 330,-30.5 457,-30.5 457,-0.5 330,-0.5"/>
<text text-anchor="start" x="338" y="-18.5" font-family="Helvetica,sans-Serif" font-size="10.00">el::base::utils::Str</text>
<text text-anchor="middle" x="393.5" y="-7.5" font-family="Helvetica,sans-Serif" font-size="10.00">::replaceFirstWithEscape</text>
</a>
</g>
</g>
<!-- Node46&#45;&gt;Node49 -->
<g id="edge18" class="edge"><title>Node46&#45;&gt;Node49</title>
<path fill="none" stroke="midnightblue" d="M270.629,-47.4997C288.067,-42.9209 307.401,-37.8445 325.435,-33.1093"/>
<polygon fill="midnightblue" stroke="midnightblue" points="326.517,-36.444 335.3,-30.519 324.739,-29.6735 326.517,-36.444"/>
</g>
<!-- Node48 -->
<g id="node11" class="node"><title>Node48</title>
<g id="a_node11"><a xlink:href="classel_1_1base_1_1_log_format.html#aeacb2c9d313ce5713b3e85e03a4baab5" target="_top" xlink:title="el::base::LogFormat\l::level">
<polygon fill="white" stroke="black" points="502,-49.5 502,-79.5 606,-79.5 606,-49.5 502,-49.5"/>
<text text-anchor="start" x="510" y="-67.5" font-family="Helvetica,sans-Serif" font-size="10.00">el::base::LogFormat</text>
<text text-anchor="middle" x="554" y="-56.5" font-family="Helvetica,sans-Serif" font-size="10.00">::level</text>
</a>
</g>
</g>
<!-- Node47&#45;&gt;Node48 -->
<g id="edge16" class="edge"><title>Node47&#45;&gt;Node48</title>
<path fill="none" stroke="midnightblue" d="M466.33,-64.5C474.832,-64.5 483.449,-64.5 491.784,-64.5"/>
<polygon fill="midnightblue" stroke="midnightblue" points="491.786,-68.0001 501.786,-64.5 491.786,-61.0001 491.786,-68.0001"/>
</g>
<!-- Node51&#45;&gt;Node41 -->
<g id="edge22" class="edge"><title>Node51&#45;&gt;Node41</title>
<path fill="none" stroke="midnightblue" d="M258.669,-274.892C281.79,-268.951 310.192,-261.652 334.873,-255.309"/>
<polygon fill="midnightblue" stroke="midnightblue" points="336.026,-258.627 344.84,-252.748 334.283,-251.847 336.026,-258.627"/>
</g>
<!-- Node52 -->
<g id="node15" class="node"><title>Node52</title>
<g id="a_node15"><a xlink:href="classel_1_1base_1_1utils_1_1_abstract_registry.html#a072859d3728a75f910c2898f62fd12da" target="_top" xlink:title="Returns underlying container by reference. ">
<polygon fill="white" stroke="black" points="334.5,-274.5 334.5,-304.5 452.5,-304.5 452.5,-274.5 334.5,-274.5"/>
<text text-anchor="start" x="342.5" y="-292.5" font-family="Helvetica,sans-Serif" font-size="10.00">el::base::utils::Abstract</text>
<text text-anchor="middle" x="393.5" y="-281.5" font-family="Helvetica,sans-Serif" font-size="10.00">Registry::list</text>
</a>
</g>
</g>
<!-- Node51&#45;&gt;Node52 -->
<g id="edge21" class="edge"><title>Node51&#45;&gt;Node52</title>
<path fill="none" stroke="midnightblue" d="M258.669,-287.257C278.518,-287.59 302.259,-287.988 324.196,-288.355"/>
<polygon fill="midnightblue" stroke="midnightblue" points="324.404,-291.859 334.461,-288.527 324.521,-284.86 324.404,-291.859"/>
</g>
</g>
</svg>
        <g id="navigator" transform="translate(0 0)" fill="#404254">
                <rect fill="#f2f5e9" fill-opacity="0.5" stroke="#606060" stroke-width=".5" x="0" y="0" width="60" height="60"/>
                <use id="zoomplus" xlink:href="#zoomPlus" x="17" y="9" onmousedown="handleZoom(evt,'in')"/>
                <use id="zoomminus" xlink:href="#zoomMin" x="42" y="9" onmousedown="handleZoom(evt,'out')"/>
                <use id="reset" xlink:href="#resetDef" x="30" y="36" onmousedown="handleReset()"/>
                <g id="arrowUp" xlink:href="#dirArrow" transform="translate(30 24)" onmousedown="handlePan(0,-1)">
                  <use xlink:href="#rim" fill="#404040">
                        <set attributeName="fill" to="#808080" begin="arrowUp.mouseover" end="arrowUp.mouseout"/>
                  </use>
                  <path fill="none" stroke="white" stroke-width="1.5" d="M0,-3.0v7 M-2.5,-0.5L0,-3.0L2.5,-0.5"/>
                </g>
                <g id="arrowRight" xlink:href="#dirArrow" transform="rotate(90) translate(36 -43)" onmousedown="handlePan(1,0)">
                  <use xlink:href="#rim" fill="#404040">
                        <set attributeName="fill" to="#808080" begin="arrowRight.mouseover" end="arrowRight.mouseout"/>
                  </use>
                  <path fill="none" stroke="white" stroke-width="1.5" d="M0,-3.0v7 M-2.5,-0.5L0,-3.0L2.5,-0.5"/>
                </g>
                <g id="arrowDown" xlink:href="#dirArrow" transform="rotate(180) translate(-30 -48)" onmousedown="handlePan(0,1)">
                  <use xlink:href="#rim" fill="#404040">
                        <set attributeName="fill" to="#808080" begin="arrowDown.mouseover" end="arrowDown.mouseout"/>
                  </use>
                  <path fill="none" stroke="white" stroke-width="1.5" d="M0,-3.0v7 M-2.5,-0.5L0,-3.0L2.5,-0.5"/>
                </g>
                <g id="arrowLeft" xlink:href="#dirArrow" transform="rotate(270) translate(-36 17)" onmousedown="handlePan(-1,0)">
                  <use xlink:href="#rim" fill="#404040">
                        <set attributeName="fill" to="#808080" begin="arrowLeft.mouseover" end="arrowLeft.mouseout"/>
                  </use>
                  <path fill="none" stroke="white" stroke-width="1.5" d="M0,-3.0v7 M-2.5,-0.5L0,-3.0L2.5,-0.5"/>
                </g>
        </g>
        <svg viewBox="0 0 15 15" width="100%" height="30px" preserveAspectRatio="xMaxYMin meet">
         <g id="arrow_out" transform="scale(0.3 0.3)">
          <a xlink:href="classel_1_1_logger_ad9db621dbf8977bf814dc7baea8dcee4_cgraph_org.svg" target="_base">
           <rect id="button" ry="5" rx="5" y="6" x="6" height="38" width="38"
                fill="#f2f5e9" fill-opacity="0.5" stroke="#606060" stroke-width="1.0"/>
           <path id="arrow"
             d="M 11.500037,31.436501 C 11.940474,20.09759 22.043105,11.32322 32.158766,21.979434 L 37.068811,17.246167 C 37.068811,17.246167 37.088388,32 37.088388,32 L 22.160133,31.978069 C 22.160133,31.978069 26.997745,27.140456 26.997745,27.140456 C 18.528582,18.264221 13.291696,25.230495 11.500037,31.436501 z"
             style="fill:#404040;"/>
          </a>
         </g>
        </svg>
</svg>
