<?xml version="1.0" encoding="UTF-8" standalone="no"?>
<!DOCTYPE svg PUBLIC "-//W3C//DTD SVG 1.1//EN"
 "http://www.w3.org/Graphics/SVG/1.1/DTD/svg11.dtd">
<!-- Generated by graphviz version 2.38.0 (20140413.2041)
 -->
<!-- Title: vpr::Semaphore Pages: 1 -->
<svg width="1124pt" height="1120pt"
 viewBox="0.00 0.00 1123.50 1120.00" xmlns="http://www.w3.org/2000/svg" xmlns:xlink="http://www.w3.org/1999/xlink">
<g id="graph0" class="graph" transform="scale(1 1) rotate(0) translate(4 1116)">
<title>vpr::Semaphore</title>
<polygon fill="white" stroke="none" points="-4,4 -4,-1116 1119.5,-1116 1119.5,4 -4,4"/>
<!-- Node1 -->
<g id="node1" class="node"><title>Node1</title>
<polygon fill="#bfbfbf" stroke="black" points="568.5,-552 568.5,-571 652.5,-571 652.5,-552 568.5,-552"/>
<text text-anchor="middle" x="610.5" y="-559" font-family="Helvetica,sans-Serif" font-size="10.00">vpr::Semaphore</text>
</g>
<!-- Node2 -->
<g id="node2" class="node"><title>Node2</title>
<g id="a_node2"><a xlink:href="classvpr_1_1_device.html" target="_top" xlink:title="!The Device class is a wrapper around the vkLogicalDevice object. ">
<polygon fill="white" stroke="black" points="657,-635.5 657,-654.5 720,-654.5 720,-635.5 657,-635.5"/>
<text text-anchor="middle" x="688.5" y="-642.5" font-family="Helvetica,sans-Serif" font-size="10.00">vpr::Device</text>
</a>
</g>
</g>
<!-- Node2&#45;&gt;Node1 -->
<g id="edge1" class="edge"><title>Node2&#45;&gt;Node1</title>
<path fill="none" stroke="#9a32cd" stroke-dasharray="5,2" d="M668.806,-628.951C660.614,-622.299 651.232,-614.147 643.5,-606 632.929,-594.861 622.522,-580.4 616.305,-571.282"/>
<polygon fill="#9a32cd" stroke="#9a32cd" points="666.781,-631.812 676.793,-635.278 671.127,-626.325 666.781,-631.812"/>
<text text-anchor="middle" x="659" y="-598" font-family="Helvetica,sans-Serif" font-size="10.00"> device</text>
</g>
<!-- Node11 -->
<g id="node11" class="node"><title>Node11</title>
<g id="a_node11"><a xlink:href="classvpr_1_1_allocator.html" target="_top" xlink:title="The primary interface and class of this subsystem. ">
<polygon fill="white" stroke="black" points="404,-552 404,-571 477,-571 477,-552 404,-552"/>
<text text-anchor="middle" x="440.5" y="-559" font-family="Helvetica,sans-Serif" font-size="10.00">vpr::Allocator</text>
</a>
</g>
</g>
<!-- Node2&#45;&gt;Node11 -->
<g id="edge24" class="edge"><title>Node2&#45;&gt;Node11</title>
<path fill="none" stroke="#9a32cd" stroke-dasharray="5,2" d="M652.903,-632.302C602.435,-615.717 511.264,-585.755 466.594,-571.075"/>
<polygon fill="#9a32cd" stroke="#9a32cd" points="651.835,-635.635 662.428,-635.432 654.021,-628.985 651.835,-635.635"/>
<text text-anchor="middle" x="588" y="-598" font-family="Helvetica,sans-Serif" font-size="10.00"> parent</text>
</g>
<!-- Node3 -->
<g id="node3" class="node"><title>Node3</title>
<polygon fill="white" stroke="#bfbfbf" points="476,-713.5 476,-743.5 617,-743.5 617,-713.5 476,-713.5"/>
<text text-anchor="start" x="484" y="-731.5" font-family="Helvetica,sans-Serif" font-size="10.00">std::map&lt; VkQueueFlags,</text>
<text text-anchor="middle" x="546.5" y="-720.5" font-family="Helvetica,sans-Serif" font-size="10.00"> VkDeviceQueueCreateInfo &gt;</text>
</g>
<!-- Node3&#45;&gt;Node2 -->
<g id="edge2" class="edge"><title>Node3&#45;&gt;Node2</title>
<path fill="none" stroke="#9a32cd" stroke-dasharray="5,2" d="M579.678,-708.458C609.328,-691.44 651.408,-667.289 673.549,-654.581"/>
<polygon fill="#9a32cd" stroke="#9a32cd" points="577.841,-705.476 570.911,-713.49 581.326,-711.547 577.841,-705.476"/>
<text text-anchor="middle" x="647.5" y="-687" font-family="Helvetica,sans-Serif" font-size="10.00"> queueInfos</text>
</g>
<!-- Node4 -->
<g id="node4" class="node"><title>Node4</title>
<g id="a_node4"><a xlink:href="namespacevpr.html#structvpr_1_1vk_queue_family_indices" target="_top" xlink:title="vpr::vkQueueFamilyIndices">
<polygon fill="white" stroke="black" points="635.5,-719 635.5,-738 767.5,-738 767.5,-719 635.5,-719"/>
<text text-anchor="middle" x="701.5" y="-726" font-family="Helvetica,sans-Serif" font-size="10.00">vpr::vkQueueFamilyIndices</text>
</a>
</g>
</g>
<!-- Node4&#45;&gt;Node2 -->
<g id="edge3" class="edge"><title>Node4&#45;&gt;Node2</title>
<path fill="none" stroke="#9a32cd" stroke-dasharray="5,2" d="M693.682,-709.6C691.982,-704.934 690.418,-699.852 689.5,-695 686.873,-681.122 687.233,-664.639 687.81,-654.765"/>
<polygon fill="#9a32cd" stroke="#9a32cd" points="690.444,-710.929 697.425,-718.898 696.937,-708.314 690.444,-710.929"/>
<text text-anchor="middle" x="735.5" y="-687" font-family="Helvetica,sans-Serif" font-size="10.00"> QueueFamilyIndices</text>
</g>
<!-- Node5 -->
<g id="node5" class="node"><title>Node5</title>
<polygon fill="white" stroke="#bfbfbf" points="824,-791.5 824,-821.5 919,-821.5 919,-791.5 824,-791.5"/>
<text text-anchor="start" x="832" y="-809.5" font-family="Helvetica,sans-Serif" font-size="10.00">std::vector&lt; const</text>
<text text-anchor="middle" x="871.5" y="-798.5" font-family="Helvetica,sans-Serif" font-size="10.00"> char *&gt;</text>
</g>
<!-- Node5&#45;&gt;Node2 -->
<g id="edge4" class="edge"><title>Node5&#45;&gt;Node2</title>
<path fill="none" stroke="#9a32cd" stroke-dasharray="5,2" d="M861.973,-781.72C848.981,-750.347 825.495,-697.517 809.5,-684 784.105,-662.54 746.571,-653.175 720.053,-649.103"/>
<polygon fill="#9a32cd" stroke="#9a32cd" points="858.775,-783.144 865.8,-791.075 865.253,-780.494 858.775,-783.144"/>
<text text-anchor="middle" x="888.5" y="-726" font-family="Helvetica,sans-Serif" font-size="10.00"> enabledExtensions</text>
</g>
<!-- Node28 -->
<g id="node28" class="node"><title>Node28</title>
<g id="a_node28"><a xlink:href="classvpr_1_1_instance.html" target="_top" xlink:title="Instance is a wrapper around the base Vulkan object that must be initialized first. ">
<polygon fill="white" stroke="black" points="946,-719 946,-738 1017,-738 1017,-719 946,-719"/>
<text text-anchor="middle" x="981.5" y="-726" font-family="Helvetica,sans-Serif" font-size="10.00">vpr::Instance</text>
</a>
</g>
</g>
<!-- Node5&#45;&gt;Node28 -->
<g id="edge33" class="edge"><title>Node5&#45;&gt;Node28</title>
<path fill="none" stroke="#9a32cd" stroke-dasharray="5,2" d="M880.704,-781.864C884.419,-774.72 889.315,-767.359 895.5,-762 904.306,-754.37 931.04,-744.872 952.388,-738.119"/>
<polygon fill="#9a32cd" stroke="#9a32cd" points="877.379,-780.716 876.363,-791.262 883.734,-783.652 877.379,-780.716"/>
<text text-anchor="middle" x="938.5" y="-765" font-family="Helvetica,sans-Serif" font-size="10.00"> enabledExtensions</text>
</g>
<!-- Node6 -->
<g id="node6" class="node"><title>Node6</title>
<g id="a_node6"><a xlink:href="classvpr_1_1_physical_device.html" target="_top" xlink:title="! PhysicalDevice is a wrapper around a VkPhysicalDevice object, which is itself merely a handle repre...">
<polygon fill="white" stroke="black" points="761,-869.5 761,-888.5 862,-888.5 862,-869.5 761,-869.5"/>
<text text-anchor="middle" x="811.5" y="-876.5" font-family="Helvetica,sans-Serif" font-size="10.00">vpr::PhysicalDevice</text>
</a>
</g>
</g>
<!-- Node6&#45;&gt;Node2 -->
<g id="edge5" class="edge"><title>Node6&#45;&gt;Node2</title>
<path fill="none" stroke="#9a32cd" stroke-dasharray="5,2" d="M810.893,-859.046C809.145,-815.691 802.775,-710.956 781.5,-684 766.588,-665.106 740.728,-655.54 720.057,-650.735"/>
<polygon fill="#9a32cd" stroke="#9a32cd" points="807.405,-859.449 811.265,-869.316 814.401,-859.195 807.405,-859.449"/>
<text text-anchor="middle" x="820" y="-765" font-family="Helvetica,sans-Serif" font-size="10.00"> parent</text>
</g>
<!-- Node29 -->
<g id="node29" class="node"><title>Node29</title>
<polygon fill="white" stroke="#bfbfbf" points="937.5,-791.5 937.5,-821.5 1039.5,-821.5 1039.5,-791.5 937.5,-791.5"/>
<text text-anchor="start" x="945.5" y="-809.5" font-family="Helvetica,sans-Serif" font-size="10.00">std::unique_ptr&lt; vpr</text>
<text text-anchor="middle" x="988.5" y="-798.5" font-family="Helvetica,sans-Serif" font-size="10.00">::PhysicalDevice &gt;</text>
</g>
<!-- Node6&#45;&gt;Node29 -->
<g id="edge32" class="edge"><title>Node6&#45;&gt;Node29</title>
<path fill="none" stroke="#9a32cd" stroke-dasharray="5,2" d="M842.273,-865.743C873.23,-853.412 920.904,-834.424 953.336,-821.506"/>
<polygon fill="#9a32cd" stroke="#9a32cd" points="840.845,-862.544 832.85,-869.496 843.436,-869.047 840.845,-862.544"/>
<text text-anchor="middle" x="913" y="-843" font-family="Helvetica,sans-Serif" font-size="10.00"> ptr</text>
</g>
<!-- Node7 -->
<g id="node7" class="node"><title>Node7</title>
<polygon fill="white" stroke="#bfbfbf" points="753.5,-936.5 753.5,-966.5 869.5,-966.5 869.5,-936.5 753.5,-936.5"/>
<text text-anchor="start" x="761.5" y="-954.5" font-family="Helvetica,sans-Serif" font-size="10.00">std::unique_ptr&lt; vpr</text>
<text text-anchor="middle" x="811.5" y="-943.5" font-family="Helvetica,sans-Serif" font-size="10.00">::PhysicalDeviceImpl &gt;</text>
</g>
<!-- Node7&#45;&gt;Node6 -->
<g id="edge6" class="edge"><title>Node7&#45;&gt;Node6</title>
<path fill="none" stroke="#9a32cd" stroke-dasharray="5,2" d="M811.5,-926.091C811.5,-913.214 811.5,-898.197 811.5,-888.893"/>
<polygon fill="#9a32cd" stroke="#9a32cd" points="808,-926.233 811.5,-936.233 815,-926.233 808,-926.233"/>
<text text-anchor="middle" x="822.5" y="-910" font-family="Helvetica,sans-Serif" font-size="10.00"> impl</text>
</g>
<!-- Node8 -->
<g id="node8" class="node"><title>Node8</title>
<g id="a_node8"><a xlink:href="classvpr_1_1_physical_device_impl.html" target="_top" xlink:title="vpr::PhysicalDeviceImpl">
<polygon fill="white" stroke="black" points="752,-1014.5 752,-1033.5 871,-1033.5 871,-1014.5 752,-1014.5"/>
<text text-anchor="middle" x="811.5" y="-1021.5" font-family="Helvetica,sans-Serif" font-size="10.00">vpr::PhysicalDeviceImpl</text>
</a>
</g>
</g>
<!-- Node8&#45;&gt;Node7 -->
<g id="edge7" class="edge"><title>Node8&#45;&gt;Node7</title>
<path fill="none" stroke="#9a32cd" stroke-dasharray="5,2" d="M811.5,-1004.24C811.5,-992.408 811.5,-977.383 811.5,-966.576"/>
<polygon fill="#9a32cd" stroke="#9a32cd" points="808,-1004.36 811.5,-1014.36 815,-1004.36 808,-1004.36"/>
<text text-anchor="middle" x="819" y="-988" font-family="Helvetica,sans-Serif" font-size="10.00"> ptr</text>
</g>
<!-- Node9 -->
<g id="node9" class="node"><title>Node9</title>
<polygon fill="white" stroke="#bfbfbf" points="741.5,-1081.5 741.5,-1111.5 881.5,-1111.5 881.5,-1081.5 741.5,-1081.5"/>
<text text-anchor="start" x="749.5" y="-1099.5" font-family="Helvetica,sans-Serif" font-size="10.00">std::vector&lt; VkQueueFamily</text>
<text text-anchor="middle" x="811.5" y="-1088.5" font-family="Helvetica,sans-Serif" font-size="10.00">Properties &gt;</text>
</g>
<!-- Node9&#45;&gt;Node8 -->
<g id="edge8" class="edge"><title>Node9&#45;&gt;Node8</title>
<path fill="none" stroke="#9a32cd" stroke-dasharray="5,2" d="M811.5,-1071.09C811.5,-1058.21 811.5,-1043.2 811.5,-1033.89"/>
<polygon fill="#9a32cd" stroke="#9a32cd" points="808,-1071.23 811.5,-1081.23 815,-1071.23 808,-1071.23"/>
<text text-anchor="middle" x="863" y="-1055" font-family="Helvetica,sans-Serif" font-size="10.00"> queueFamilyProperties</text>
</g>
<!-- Node10 -->
<g id="node10" class="node"><title>Node10</title>
<polygon fill="white" stroke="#bfbfbf" points="537.5,-468.5 537.5,-498.5 639.5,-498.5 639.5,-468.5 537.5,-468.5"/>
<text text-anchor="start" x="545.5" y="-486.5" font-family="Helvetica,sans-Serif" font-size="10.00">std::unique_ptr&lt; vpr</text>
<text text-anchor="middle" x="588.5" y="-475.5" font-family="Helvetica,sans-Serif" font-size="10.00">::Allocator &gt;</text>
</g>
<!-- Node10&#45;&gt;Node2 -->
<g id="edge9" class="edge"><title>Node10&#45;&gt;Node2</title>
<path fill="none" stroke="#9a32cd" stroke-dasharray="5,2" d="M620.122,-504.528C634.654,-515.214 650.963,-529.553 661.5,-546 680.254,-575.274 686.133,-617.527 687.847,-635.448"/>
<polygon fill="#9a32cd" stroke="#9a32cd" points="622.015,-501.581 611.828,-498.671 617.977,-507.298 622.015,-501.581"/>
<text text-anchor="middle" x="702" y="-559" font-family="Helvetica,sans-Serif" font-size="10.00"> vkAllocator</text>
</g>
<!-- Node11&#45;&gt;Node10 -->
<g id="edge10" class="edge"><title>Node11&#45;&gt;Node10</title>
<path fill="none" stroke="#9a32cd" stroke-dasharray="5,2" d="M466.245,-547.28C492.768,-533.66 533.956,-512.509 561.078,-498.582"/>
<polygon fill="#9a32cd" stroke="#9a32cd" points="464.487,-544.248 457.19,-551.93 467.684,-550.475 464.487,-544.248"/>
<text text-anchor="middle" x="531" y="-520" font-family="Helvetica,sans-Serif" font-size="10.00"> ptr</text>
</g>
<!-- Node15 -->
<g id="node15" class="node"><title>Node15</title>
<g id="a_node15"><a xlink:href="classvpr_1_1_allocation_collection.html" target="_top" xlink:title="An allocation collection is just a vector of MemoryBlocks of the same type. ">
<polygon fill="white" stroke="black" points="270.5,-245.5 270.5,-264.5 390.5,-264.5 390.5,-245.5 270.5,-245.5"/>
<text text-anchor="middle" x="330.5" y="-252.5" font-family="Helvetica,sans-Serif" font-size="10.00">vpr::AllocationCollection</text>
</a>
</g>
</g>
<!-- Node11&#45;&gt;Node15 -->
<g id="edge15" class="edge"><title>Node11&#45;&gt;Node15</title>
<path fill="none" stroke="#9a32cd" stroke-dasharray="5,2" d="M415.857,-546.323C396.396,-533.089 372.5,-511.369 372.5,-484.5 372.5,-484.5 372.5,-484.5 372.5,-326.5 372.5,-306.19 369.245,-300.235 358.5,-283 354.141,-276.009 347.578,-269.549 341.901,-264.702"/>
<polygon fill="#9a32cd" stroke="#9a32cd" points="414.078,-549.34 424.385,-551.795 417.858,-543.449 414.078,-549.34"/>
<text text-anchor="middle" x="392.5" y="-403" font-family="Helvetica,sans-Serif" font-size="10.00"> allocator</text>
</g>
<!-- Node18 -->
<g id="node18" class="node"><title>Node18</title>
<g id="a_node18"><a xlink:href="classvpr_1_1_memory_block.html" target="_top" xlink:title="A MemoryBlock is a large contiguous region of Vulkan memory of a uniform type (device local...">
<polygon fill="white" stroke="black" points="164,-474 164,-493 259,-493 259,-474 164,-474"/>
<text text-anchor="middle" x="211.5" y="-481" font-family="Helvetica,sans-Serif" font-size="10.00">vpr::MemoryBlock</text>
</a>
</g>
</g>
<!-- Node11&#45;&gt;Node18 -->
<g id="edge23" class="edge"><title>Node11&#45;&gt;Node18</title>
<path fill="none" stroke="#9a32cd" stroke-dasharray="5,2" d="M394.048,-550.278C371.011,-544.668 342.954,-537.016 318.5,-528 307.868,-524.08 305.903,-521.492 295.5,-517 275.402,-508.321 252.164,-499.415 235.232,-493.126"/>
<polygon fill="#9a32cd" stroke="#9a32cd" points="393.379,-553.716 403.918,-552.632 395.003,-546.907 393.379,-553.716"/>
<text text-anchor="middle" x="338.5" y="-520" font-family="Helvetica,sans-Serif" font-size="10.00"> allocator</text>
</g>
<!-- Node12 -->
<g id="node12" class="node"><title>Node12</title>
<polygon fill="white" stroke="#bfbfbf" points="312,-0.5 312,-41.5 485,-41.5 485,-0.5 312,-0.5"/>
<text text-anchor="start" x="320" y="-29.5" font-family="Helvetica,sans-Serif" font-size="10.00">std::map&lt; AllocationSize,</text>
<text text-anchor="start" x="320" y="-18.5" font-family="Helvetica,sans-Serif" font-size="10.00"> std::vector&lt; std::unique</text>
<text text-anchor="middle" x="398.5" y="-7.5" font-family="Helvetica,sans-Serif" font-size="10.00">_ptr&lt; vpr::AllocationCollection &gt; &gt; &gt;</text>
</g>
<!-- Node12&#45;&gt;Node11 -->
<g id="edge11" class="edge"><title>Node12&#45;&gt;Node11</title>
<path fill="none" stroke="#9a32cd" stroke-dasharray="5,2" d="M421.169,-49.9428C431.084,-64.9118 440.5,-84.2061 440.5,-103.5 440.5,-484.5 440.5,-484.5 440.5,-484.5 440.5,-508.778 440.5,-537.418 440.5,-551.608"/>
<polygon fill="#9a32cd" stroke="#9a32cd" points="423.959,-47.8251 415.341,-41.6619 418.234,-51.854 423.959,-47.8251"/>
<text text-anchor="middle" x="465.5" y="-286" font-family="Helvetica,sans-Serif" font-size="10.00"> allocations</text>
</g>
<!-- Node13 -->
<g id="node13" class="node"><title>Node13</title>
<polygon fill="white" stroke="#bfbfbf" points="248.5,-89.5 248.5,-119.5 412.5,-119.5 412.5,-89.5 248.5,-89.5"/>
<text text-anchor="start" x="256.5" y="-107.5" font-family="Helvetica,sans-Serif" font-size="10.00">std::vector&lt; std::unique</text>
<text text-anchor="middle" x="330.5" y="-96.5" font-family="Helvetica,sans-Serif" font-size="10.00">_ptr&lt; vpr::AllocationCollection &gt; &gt;</text>
</g>
<!-- Node13&#45;&gt;Node12 -->
<g id="edge12" class="edge"><title>Node13&#45;&gt;Node12</title>
<path fill="none" stroke="#9a32cd" stroke-dasharray="5,2" d="M348.771,-81.6021C359.189,-69.115 372.136,-53.5984 382.207,-41.5278"/>
<polygon fill="#9a32cd" stroke="#9a32cd" points="346.064,-79.3831 342.345,-89.3038 351.439,-83.8677 346.064,-79.3831"/>
<text text-anchor="middle" x="389" y="-63" font-family="Helvetica,sans-Serif" font-size="10.00"> elements</text>
</g>
<!-- Node14 -->
<g id="node14" class="node"><title>Node14</title>
<polygon fill="white" stroke="#bfbfbf" points="272,-167.5 272,-197.5 389,-197.5 389,-167.5 272,-167.5"/>
<text text-anchor="start" x="280" y="-185.5" font-family="Helvetica,sans-Serif" font-size="10.00">std::unique_ptr&lt; vpr</text>
<text text-anchor="middle" x="330.5" y="-174.5" font-family="Helvetica,sans-Serif" font-size="10.00">::AllocationCollection &gt;</text>
</g>
<!-- Node14&#45;&gt;Node13 -->
<g id="edge13" class="edge"><title>Node14&#45;&gt;Node13</title>
<path fill="none" stroke="#9a32cd" stroke-dasharray="5,2" d="M330.5,-157.09C330.5,-144.757 330.5,-130.224 330.5,-119.731"/>
<polygon fill="#9a32cd" stroke="#9a32cd" points="327,-157.205 330.5,-167.205 334,-157.205 327,-157.205"/>
<text text-anchor="middle" x="352" y="-141" font-family="Helvetica,sans-Serif" font-size="10.00"> elements</text>
</g>
<!-- Node15&#45;&gt;Node14 -->
<g id="edge14" class="edge"><title>Node15&#45;&gt;Node14</title>
<path fill="none" stroke="#9a32cd" stroke-dasharray="5,2" d="M330.5,-235.236C330.5,-223.408 330.5,-208.383 330.5,-197.576"/>
<polygon fill="#9a32cd" stroke="#9a32cd" points="327,-235.355 330.5,-245.355 334,-235.355 327,-235.355"/>
<text text-anchor="middle" x="338" y="-219" font-family="Helvetica,sans-Serif" font-size="10.00"> ptr</text>
</g>
<!-- Node16 -->
<g id="node16" class="node"><title>Node16</title>
<polygon fill="white" stroke="#bfbfbf" points="204.5,-312.5 204.5,-342.5 342.5,-342.5 342.5,-312.5 204.5,-312.5"/>
<text text-anchor="start" x="212.5" y="-330.5" font-family="Helvetica,sans-Serif" font-size="10.00">std::vector&lt; std::unique</text>
<text text-anchor="middle" x="273.5" y="-319.5" font-family="Helvetica,sans-Serif" font-size="10.00">_ptr&lt; vpr::MemoryBlock &gt; &gt;</text>
</g>
<!-- Node16&#45;&gt;Node15 -->
<g id="edge16" class="edge"><title>Node16&#45;&gt;Node15</title>
<path fill="none" stroke="#9a32cd" stroke-dasharray="5,2" d="M291.386,-304.216C296.868,-297.4 302.925,-289.886 308.5,-283 313.523,-276.797 319.215,-269.812 323.551,-264.501"/>
<polygon fill="#9a32cd" stroke="#9a32cd" points="288.364,-302.39 284.827,-312.377 293.82,-306.775 288.364,-302.39"/>
<text text-anchor="middle" x="333.5" y="-286" font-family="Helvetica,sans-Serif" font-size="10.00"> allocations</text>
</g>
<!-- Node17 -->
<g id="node17" class="node"><title>Node17</title>
<polygon fill="white" stroke="#bfbfbf" points="210.5,-390.5 210.5,-420.5 312.5,-420.5 312.5,-390.5 210.5,-390.5"/>
<text text-anchor="start" x="218.5" y="-408.5" font-family="Helvetica,sans-Serif" font-size="10.00">std::unique_ptr&lt; vpr</text>
<text text-anchor="middle" x="261.5" y="-397.5" font-family="Helvetica,sans-Serif" font-size="10.00">::MemoryBlock &gt;</text>
</g>
<!-- Node17&#45;&gt;Node16 -->
<g id="edge17" class="edge"><title>Node17&#45;&gt;Node16</title>
<path fill="none" stroke="#9a32cd" stroke-dasharray="5,2" d="M265.354,-380.09C267.302,-367.757 269.596,-353.224 271.253,-342.731"/>
<polygon fill="#9a32cd" stroke="#9a32cd" points="261.86,-379.781 263.757,-390.205 268.774,-380.873 261.86,-379.781"/>
<text text-anchor="middle" x="290" y="-364" font-family="Helvetica,sans-Serif" font-size="10.00"> elements</text>
</g>
<!-- Node18&#45;&gt;Node17 -->
<g id="edge18" class="edge"><title>Node18&#45;&gt;Node17</title>
<path fill="none" stroke="#9a32cd" stroke-dasharray="5,2" d="M222.773,-465.365C231.678,-451.83 243.951,-433.175 252.276,-420.52"/>
<polygon fill="#9a32cd" stroke="#9a32cd" points="219.808,-463.504 217.236,-473.782 225.656,-467.351 219.808,-463.504"/>
<text text-anchor="middle" x="247" y="-442" font-family="Helvetica,sans-Serif" font-size="10.00"> ptr</text>
</g>
<!-- Node19 -->
<g id="node19" class="node"><title>Node19</title>
<polygon fill="white" stroke="#bfbfbf" points="0,-552 0,-571 125,-571 125,-552 0,-552"/>
<text text-anchor="middle" x="62.5" y="-559" font-family="Helvetica,sans-Serif" font-size="10.00">std::list&lt; Suballocation &gt;</text>
</g>
<!-- Node19&#45;&gt;Node18 -->
<g id="edge19" class="edge"><title>Node19&#45;&gt;Node18</title>
<path fill="none" stroke="#9a32cd" stroke-dasharray="5,2" d="M85.5476,-546.499C100.446,-537.651 120.37,-526.195 138.5,-517 155.822,-508.215 176.03,-499.319 190.787,-493.06"/>
<polygon fill="#9a32cd" stroke="#9a32cd" points="83.3331,-543.745 76.5523,-551.886 86.9297,-549.751 83.3331,-543.745"/>
<text text-anchor="middle" x="172" y="-520" font-family="Helvetica,sans-Serif" font-size="10.00"> Suballocations</text>
</g>
<!-- Node20 -->
<g id="node20" class="node"><title>Node20</title>
<g id="a_node20"><a xlink:href="structvpr_1_1_suballocation.html" target="_top" xlink:title="During the process of finding a suitable region to bind to, we need to store things like &quot;Suballocati...">
<polygon fill="white" stroke="black" points="15,-635.5 15,-654.5 108,-654.5 108,-635.5 15,-635.5"/>
<text text-anchor="middle" x="61.5" y="-642.5" font-family="Helvetica,sans-Serif" font-size="10.00">vpr::Suballocation</text>
</a>
</g>
</g>
<!-- Node20&#45;&gt;Node19 -->
<g id="edge20" class="edge"><title>Node20&#45;&gt;Node19</title>
<path fill="none" stroke="#9a32cd" stroke-dasharray="5,2" d="M61.7346,-624.876C61.943,-607.898 62.2378,-583.867 62.3938,-571.159"/>
<polygon fill="#9a32cd" stroke="#9a32cd" points="58.2301,-625.236 61.607,-635.278 65.2295,-625.322 58.2301,-625.236"/>
<text text-anchor="middle" x="84" y="-598" font-family="Helvetica,sans-Serif" font-size="10.00"> elements</text>
</g>
<!-- Node21 -->
<g id="node21" class="node"><title>Node21</title>
<polygon fill="white" stroke="#bfbfbf" points="144.5,-546.5 144.5,-576.5 272.5,-576.5 272.5,-546.5 144.5,-546.5"/>
<text text-anchor="start" x="152.5" y="-564.5" font-family="Helvetica,sans-Serif" font-size="10.00">std::vector&lt; suballocation</text>
<text text-anchor="middle" x="208.5" y="-553.5" font-family="Helvetica,sans-Serif" font-size="10.00">List::iterator &gt;</text>
</g>
<!-- Node21&#45;&gt;Node18 -->
<g id="edge21" class="edge"><title>Node21&#45;&gt;Node18</title>
<path fill="none" stroke="#9a32cd" stroke-dasharray="5,2" d="M208.9,-535.936C209.046,-529.754 209.241,-523.132 209.5,-517 209.844,-508.867 210.433,-499.6 210.884,-493.049"/>
<polygon fill="#9a32cd" stroke="#9a32cd" points="205.391,-536.321 208.687,-546.39 212.39,-536.463 205.391,-536.321"/>
<text text-anchor="middle" x="252.5" y="-520" font-family="Helvetica,sans-Serif" font-size="10.00"> availSuballocations</text>
</g>
<!-- Node22 -->
<g id="node22" class="node"><title>Node22</title>
<g id="a_node22"><a xlink:title="STL iterator class. ">
<polygon fill="white" stroke="#bfbfbf" points="126.5,-635.5 126.5,-654.5 234.5,-654.5 234.5,-635.5 126.5,-635.5"/>
<text text-anchor="middle" x="180.5" y="-642.5" font-family="Helvetica,sans-Serif" font-size="10.00">std::list&lt; T &gt;::iterator</text>
</a>
</g>
</g>
<!-- Node22&#45;&gt;Node21 -->
<g id="edge22" class="edge"><title>Node22&#45;&gt;Node21</title>
<path fill="none" stroke="#9a32cd" stroke-dasharray="5,2" d="M186.8,-625.663C191.904,-610.807 198.989,-590.182 203.657,-576.597"/>
<polygon fill="#9a32cd" stroke="#9a32cd" points="183.436,-624.683 183.496,-635.278 190.056,-626.958 183.436,-624.683"/>
<text text-anchor="middle" x="219" y="-598" font-family="Helvetica,sans-Serif" font-size="10.00"> elements</text>
</g>
<!-- Node23 -->
<g id="node23" class="node"><title>Node23</title>
<polygon fill="white" stroke="#bfbfbf" points="253,-624.5 253,-665.5 364,-665.5 364,-624.5 253,-624.5"/>
<text text-anchor="start" x="261" y="-653.5" font-family="Helvetica,sans-Serif" font-size="10.00">std::unordered_set</text>
<text text-anchor="start" x="261" y="-642.5" font-family="Helvetica,sans-Serif" font-size="10.00">&lt; std::unique_ptr&lt; vpr</text>
<text text-anchor="middle" x="308.5" y="-631.5" font-family="Helvetica,sans-Serif" font-size="10.00">::Allocation &gt; &gt;</text>
</g>
<!-- Node23&#45;&gt;Node11 -->
<g id="edge25" class="edge"><title>Node23&#45;&gt;Node11</title>
<path fill="none" stroke="#9a32cd" stroke-dasharray="5,2" d="M332.985,-617.386C341.193,-609.475 350.75,-601.26 360.5,-595 376.521,-584.713 396.335,-576.634 412.235,-571.104"/>
<polygon fill="#9a32cd" stroke="#9a32cd" points="330.463,-614.957 325.86,-624.499 335.409,-619.911 330.463,-614.957"/>
<text text-anchor="middle" x="400" y="-598" font-family="Helvetica,sans-Serif" font-size="10.00"> privateAllocations</text>
</g>
<!-- Node24 -->
<g id="node24" class="node"><title>Node24</title>
<polygon fill="white" stroke="#bfbfbf" points="239.5,-713.5 239.5,-743.5 341.5,-743.5 341.5,-713.5 239.5,-713.5"/>
<text text-anchor="start" x="247.5" y="-731.5" font-family="Helvetica,sans-Serif" font-size="10.00">std::unique_ptr&lt; vpr</text>
<text text-anchor="middle" x="290.5" y="-720.5" font-family="Helvetica,sans-Serif" font-size="10.00">::Allocation &gt;</text>
</g>
<!-- Node24&#45;&gt;Node23 -->
<g id="edge26" class="edge"><title>Node24&#45;&gt;Node23</title>
<path fill="none" stroke="#9a32cd" stroke-dasharray="5,2" d="M295.815,-703.433C298.483,-691.353 301.674,-676.909 304.187,-665.528"/>
<polygon fill="#9a32cd" stroke="#9a32cd" points="292.374,-702.784 293.635,-713.304 299.21,-704.294 292.374,-702.784"/>
<text text-anchor="middle" x="313" y="-687" font-family="Helvetica,sans-Serif" font-size="10.00"> keys</text>
</g>
<!-- Node25 -->
<g id="node25" class="node"><title>Node25</title>
<g id="a_node25"><a xlink:href="classvpr_1_1_allocation.html" target="_top" xlink:title="Allocation class represents a singular allocation: can be a private allocation (i.e, only user of attached DeviceMemory) or a block allocation (bound to sub&#45;region of device memory) ">
<polygon fill="white" stroke="black" points="252,-797 252,-816 329,-816 329,-797 252,-797"/>
<text text-anchor="middle" x="290.5" y="-804" font-family="Helvetica,sans-Serif" font-size="10.00">vpr::Allocation</text>
</a>
</g>
</g>
<!-- Node25&#45;&gt;Node24 -->
<g id="edge27" class="edge"><title>Node25&#45;&gt;Node24</title>
<path fill="none" stroke="#9a32cd" stroke-dasharray="5,2" d="M290.5,-786.782C290.5,-773.404 290.5,-755.688 290.5,-743.52"/>
<polygon fill="#9a32cd" stroke="#9a32cd" points="287,-786.782 290.5,-796.782 294,-786.782 287,-786.782"/>
<text text-anchor="middle" x="298" y="-765" font-family="Helvetica,sans-Serif" font-size="10.00"> ptr</text>
</g>
<!-- Node26 -->
<g id="node26" class="node"><title>Node26</title>
<polygon fill="white" stroke="#bfbfbf" points="382,-630 382,-660 511,-660 511,-630 382,-630"/>
<text text-anchor="start" x="390" y="-648" font-family="Helvetica,sans-Serif" font-size="10.00">std::map&lt; AllocationSize,</text>
<text text-anchor="middle" x="446.5" y="-637" font-family="Helvetica,sans-Serif" font-size="10.00"> std::vector&lt; bool &gt; &gt;</text>
</g>
<!-- Node26&#45;&gt;Node11 -->
<g id="edge28" class="edge"><title>Node26&#45;&gt;Node11</title>
<path fill="none" stroke="#9a32cd" stroke-dasharray="5,2" d="M444.715,-619.748C443.502,-603.281 441.972,-582.489 441.129,-571.039"/>
<polygon fill="#9a32cd" stroke="#9a32cd" points="441.23,-620.088 445.455,-629.804 448.211,-619.574 441.23,-620.088"/>
<text text-anchor="middle" x="484" y="-598" font-family="Helvetica,sans-Serif" font-size="10.00"> emptyAllocations</text>
</g>
<!-- Node27 -->
<g id="node27" class="node"><title>Node27</title>
<polygon fill="white" stroke="#bfbfbf" points="359.5,-719 359.5,-738 457.5,-738 457.5,-719 359.5,-719"/>
<text text-anchor="middle" x="408.5" y="-726" font-family="Helvetica,sans-Serif" font-size="10.00">std::vector&lt; bool &gt;</text>
</g>
<!-- Node27&#45;&gt;Node26 -->
<g id="edge29" class="edge"><title>Node27&#45;&gt;Node26</title>
<path fill="none" stroke="#9a32cd" stroke-dasharray="5,2" d="M416.849,-709.594C423.789,-694.708 433.531,-673.814 439.927,-660.097"/>
<polygon fill="#9a32cd" stroke="#9a32cd" points="413.62,-708.236 412.567,-718.778 419.965,-711.194 413.62,-708.236"/>
<text text-anchor="middle" x="451" y="-687" font-family="Helvetica,sans-Serif" font-size="10.00"> elements</text>
</g>
<!-- Node28&#45;&gt;Node2 -->
<g id="edge30" class="edge"><title>Node28&#45;&gt;Node2</title>
<path fill="none" stroke="#9a32cd" stroke-dasharray="5,2" d="M949.522,-715.381C924.235,-706.06 887.915,-693.254 855.5,-684 808.895,-670.695 753.935,-658.928 720.154,-652.134"/>
<polygon fill="#9a32cd" stroke="#9a32cd" points="948.381,-718.69 958.974,-718.891 950.819,-712.128 948.381,-718.69"/>
<text text-anchor="middle" x="924" y="-687" font-family="Helvetica,sans-Serif" font-size="10.00"> parentInstance</text>
</g>
<!-- Node31 -->
<g id="node31" class="node"><title>Node31</title>
<g id="a_node31"><a xlink:href="classvpr_1_1_surface_k_h_r.html" target="_top" xlink:title="The bare&#45;minimum required to wrap a VkSurfaceKHR object. ">
<polygon fill="white" stroke="black" points="1027.5,-635.5 1027.5,-654.5 1115.5,-654.5 1115.5,-635.5 1027.5,-635.5"/>
<text text-anchor="middle" x="1071.5" y="-642.5" font-family="Helvetica,sans-Serif" font-size="10.00">vpr::SurfaceKHR</text>
</a>
</g>
</g>
<!-- Node28&#45;&gt;Node31 -->
<g id="edge36" class="edge"><title>Node28&#45;&gt;Node31</title>
<path fill="none" stroke="#9a32cd" stroke-dasharray="5,2" d="M998.691,-711.933C1017.48,-694.923 1046.89,-668.284 1061.94,-654.659"/>
<polygon fill="#9a32cd" stroke="#9a32cd" points="996.195,-709.471 991.132,-718.778 1000.89,-714.66 996.195,-709.471"/>
<text text-anchor="middle" x="1045" y="-687" font-family="Helvetica,sans-Serif" font-size="10.00"> parent</text>
</g>
<!-- Node29&#45;&gt;Node28 -->
<g id="edge31" class="edge"><title>Node29&#45;&gt;Node28</title>
<path fill="none" stroke="#9a32cd" stroke-dasharray="5,2" d="M986.259,-781.165C984.898,-766.396 983.245,-748.448 982.289,-738.064"/>
<polygon fill="#9a32cd" stroke="#9a32cd" points="982.781,-781.568 987.183,-791.205 989.751,-780.926 982.781,-781.568"/>
<text text-anchor="middle" x="1019.5" y="-765" font-family="Helvetica,sans-Serif" font-size="10.00"> physicalDevice</text>
</g>
<!-- Node30 -->
<g id="node30" class="node"><title>Node30</title>
<polygon fill="white" stroke="#bfbfbf" points="955.5,-546.5 955.5,-576.5 1057.5,-576.5 1057.5,-546.5 955.5,-546.5"/>
<text text-anchor="start" x="963.5" y="-564.5" font-family="Helvetica,sans-Serif" font-size="10.00">std::unique_ptr&lt; vpr</text>
<text text-anchor="middle" x="1006.5" y="-553.5" font-family="Helvetica,sans-Serif" font-size="10.00">::SurfaceKHR &gt;</text>
</g>
<!-- Node30&#45;&gt;Node28 -->
<g id="edge34" class="edge"><title>Node30&#45;&gt;Node28</title>
<path fill="none" stroke="#9a32cd" stroke-dasharray="5,2" d="M995.472,-586.245C990.835,-597.442 985.954,-611.141 983.5,-624 976.896,-658.601 979.232,-700.889 980.69,-718.811"/>
<polygon fill="#9a32cd" stroke="#9a32cd" points="998.817,-587.329 999.585,-576.762 992.395,-584.544 998.817,-587.329"/>
<text text-anchor="middle" x="1001" y="-642.5" font-family="Helvetica,sans-Serif" font-size="10.00"> surface</text>
</g>
<!-- Node31&#45;&gt;Node30 -->
<g id="edge35" class="edge"><title>Node31&#45;&gt;Node30</title>
<path fill="none" stroke="#9a32cd" stroke-dasharray="5,2" d="M1058.23,-627.367C1046.31,-612.42 1029,-590.71 1017.74,-576.597"/>
<polygon fill="#9a32cd" stroke="#9a32cd" points="1055.57,-629.642 1064.54,-635.278 1061.04,-625.278 1055.57,-629.642"/>
<text text-anchor="middle" x="1049" y="-598" font-family="Helvetica,sans-Serif" font-size="10.00"> ptr</text>
</g>
</g>
</svg>
