<?xml version="1.0" encoding="UTF-8" standalone="no"?>
<!DOCTYPE svg PUBLIC "-//W3C//DTD SVG 1.1//EN"
 "http://www.w3.org/Graphics/SVG/1.1/DTD/svg11.dtd">
<!-- Generated by graphviz version 2.38.0 (20140413.2041)
 -->
<!-- Title: el::base::TypedConfigurations::resolveFilename Pages: 1 -->
<svg width="311pt" height="88pt"
 viewBox="0.00 0.00 311.00 88.00" xmlns="http://www.w3.org/2000/svg" xmlns:xlink="http://www.w3.org/1999/xlink">
<g id="graph0" class="graph" transform="scale(1 1) rotate(0) translate(4 84)">
<title>el::base::TypedConfigurations::resolveFilename</title>
<polygon fill="white" stroke="none" points="-4,4 -4,-84 307,-84 307,4 -4,4"/>
<!-- Node126 -->
<g id="node1" class="node"><title>Node126</title>
<polygon fill="#bfbfbf" stroke="black" points="0,-24.5 0,-54.5 145,-54.5 145,-24.5 0,-24.5"/>
<text text-anchor="start" x="8" y="-42.5" font-family="Helvetica,sans-Serif" font-size="10.00">el::base::TypedConfigurations</text>
<text text-anchor="middle" x="72.5" y="-31.5" font-family="Helvetica,sans-Serif" font-size="10.00">::resolveFilename</text>
</g>
<!-- Node127 -->
<g id="node2" class="node"><title>Node127</title>
<g id="a_node2"><a xlink:href="classel_1_1base_1_1utils_1_1_date_time.html#acc31fad280188b0b0e8f04dec0e21310" target="_top" xlink:title="Gets current date and time with a subsecond part. ">
<polygon fill="white" stroke="black" points="181,-49.5 181,-79.5 303,-79.5 303,-49.5 181,-49.5"/>
<text text-anchor="start" x="189" y="-67.5" font-family="Helvetica,sans-Serif" font-size="10.00">el::base::utils::DateTime</text>
<text text-anchor="middle" x="242" y="-56.5" font-family="Helvetica,sans-Serif" font-size="10.00">::getDateTime</text>
</a>
</g>
</g>
<!-- Node126&#45;&gt;Node127 -->
<g id="edge1" class="edge"><title>Node126&#45;&gt;Node127</title>
<path fill="none" stroke="midnightblue" d="M145.021,-50.1748C153.585,-51.453 162.323,-52.7572 170.867,-54.0324"/>
<polygon fill="midnightblue" stroke="midnightblue" points="170.378,-57.4982 180.786,-55.5128 171.412,-50.5749 170.378,-57.4982"/>
</g>
<!-- Node128 -->
<g id="node3" class="node"><title>Node128</title>
<g id="a_node3"><a xlink:href="classel_1_1base_1_1utils_1_1_str.html#ab24bb11d2b5eb8ede4296d70b510f726" target="_top" xlink:title="Replaces all instances of replaceWhat with &#39;replaceWith&#39;. ">
<polygon fill="white" stroke="black" points="195,-0.5 195,-30.5 289,-30.5 289,-0.5 195,-0.5"/>
<text text-anchor="start" x="203" y="-18.5" font-family="Helvetica,sans-Serif" font-size="10.00">el::base::utils::Str</text>
<text text-anchor="middle" x="242" y="-7.5" font-family="Helvetica,sans-Serif" font-size="10.00">::replaceAll</text>
</a>
</g>
</g>
<!-- Node126&#45;&gt;Node128 -->
<g id="edge2" class="edge"><title>Node126&#45;&gt;Node128</title>
<path fill="none" stroke="midnightblue" d="M145.021,-29.2522C158.352,-27.3421 172.105,-25.3715 184.89,-23.5396"/>
<polygon fill="midnightblue" stroke="midnightblue" points="185.507,-26.9871 194.91,-22.104 184.514,-20.0578 185.507,-26.9871"/>
</g>
</g>
</svg>
