<?xml version="1.0" encoding="UTF-8" standalone="no"?>
<!DOCTYPE svg PUBLIC "-//W3C//DTD SVG 1.1//EN"
 "http://www.w3.org/Graphics/SVG/1.1/DTD/svg11.dtd">
<!-- Generated by graphviz version 2.38.0 (20140413.2041)
 -->
<!-- Title: el::Configurations Pages: 1 -->
<svg width="1200pt" height="125pt"
 viewBox="0.00 0.00 1200.00 125.00" xmlns="http://www.w3.org/2000/svg" xmlns:xlink="http://www.w3.org/1999/xlink">
<g id="graph0" class="graph" transform="scale(1 1) rotate(0) translate(4 121)">
<title>el::Configurations</title>
<polygon fill="white" stroke="none" points="-4,4 -4,-121 1196,-121 1196,4 -4,4"/>
<!-- Node4 -->
<g id="node1" class="node"><title>Node4</title>
<polygon fill="#bfbfbf" stroke="black" points="1100,-14 1100,-33 1192,-33 1192,-14 1100,-14"/>
<text text-anchor="middle" x="1146" y="-21" font-family="Helvetica,sans-Serif" font-size="10.00">el::Configurations</text>
</g>
<!-- Node5 -->
<g id="node2" class="node"><title>Node5</title>
<g id="a_node2"><a xlink:href="classel_1_1base_1_1utils_1_1_registry_with_pred.html" target="_top" xlink:title="el::base::utils::Registry\lWithPred\&lt; Configuration,\l Configuration::Predicate \&gt;">
<polygon fill="white" stroke="black" points="931,-34 931,-75 1063,-75 1063,-34 931,-34"/>
<text text-anchor="start" x="939" y="-63" font-family="Helvetica,sans-Serif" font-size="10.00">el::base::utils::Registry</text>
<text text-anchor="start" x="939" y="-52" font-family="Helvetica,sans-Serif" font-size="10.00">WithPred&lt; Configuration,</text>
<text text-anchor="middle" x="997" y="-41" font-family="Helvetica,sans-Serif" font-size="10.00"> Configuration::Predicate &gt;</text>
</a>
</g>
</g>
<!-- Node5&#45;&gt;Node4 -->
<g id="edge1" class="edge"><title>Node5&#45;&gt;Node4</title>
<path fill="none" stroke="midnightblue" d="M1073.15,-38.6524C1082.21,-36.7423 1091.23,-34.8392 1099.67,-33.0593"/>
<polygon fill="midnightblue" stroke="midnightblue" points="1072.39,-35.2342 1063.33,-40.7224 1073.84,-42.0836 1072.39,-35.2342"/>
</g>
<!-- Node6 -->
<g id="node3" class="node"><title>Node6</title>
<g id="a_node3"><a xlink:href="classel_1_1base_1_1utils_1_1_abstract_registry.html" target="_top" xlink:title="el::base::utils::Abstract\lRegistry\&lt; Configuration,\l std::vector\&lt; Configuration *\&gt; \&gt;">
<polygon fill="white" stroke="black" points="742,-34 742,-75 894,-75 894,-34 742,-34"/>
<text text-anchor="start" x="750" y="-63" font-family="Helvetica,sans-Serif" font-size="10.00">el::base::utils::Abstract</text>
<text text-anchor="start" x="750" y="-52" font-family="Helvetica,sans-Serif" font-size="10.00">Registry&lt; Configuration,</text>
<text text-anchor="middle" x="818" y="-41" font-family="Helvetica,sans-Serif" font-size="10.00"> std::vector&lt; Configuration *&gt; &gt;</text>
</a>
</g>
</g>
<!-- Node6&#45;&gt;Node5 -->
<g id="edge2" class="edge"><title>Node6&#45;&gt;Node5</title>
<path fill="none" stroke="midnightblue" d="M904.171,-54.5C913.157,-54.5 922.19,-54.5 930.897,-54.5"/>
<polygon fill="midnightblue" stroke="midnightblue" points="904.064,-51.0001 894.064,-54.5 904.064,-58.0001 904.064,-51.0001"/>
</g>
<!-- Node7 -->
<g id="node4" class="node"><title>Node7</title>
<g id="a_node4"><a xlink:href="classel_1_1base_1_1threading_1_1_thread_safe.html" target="_top" xlink:title="Base of thread safe class, this class is inheritable&#45;only. ">
<polygon fill="white" stroke="black" points="499.5,-83.5 499.5,-113.5 596.5,-113.5 596.5,-83.5 499.5,-83.5"/>
<text text-anchor="start" x="507.5" y="-101.5" font-family="Helvetica,sans-Serif" font-size="10.00">el::base::threading</text>
<text text-anchor="middle" x="548" y="-90.5" font-family="Helvetica,sans-Serif" font-size="10.00">::ThreadSafe</text>
</a>
</g>
</g>
<!-- Node7&#45;&gt;Node6 -->
<g id="edge3" class="edge"><title>Node7&#45;&gt;Node6</title>
<path fill="none" stroke="midnightblue" d="M606.603,-89.0427C646.11,-82.5565 698.921,-73.8861 741.749,-66.8546"/>
<polygon fill="midnightblue" stroke="midnightblue" points="605.905,-85.6104 596.604,-90.6844 607.039,-92.518 605.905,-85.6104"/>
</g>
<!-- Node8 -->
<g id="node5" class="node"><title>Node8</title>
<g id="a_node5"><a xlink:href="classel_1_1base_1_1threading_1_1internal_1_1_no_mutex.html" target="_top" xlink:title="Mutex wrapper used when multi&#45;threading is disabled. ">
<polygon fill="white" stroke="black" points="299,-86.5 299,-116.5 398,-116.5 398,-86.5 299,-86.5"/>
<text text-anchor="start" x="307" y="-104.5" font-family="Helvetica,sans-Serif" font-size="10.00">el::base::threading</text>
<text text-anchor="middle" x="348.5" y="-93.5" font-family="Helvetica,sans-Serif" font-size="10.00">::internal::NoMutex</text>
</a>
</g>
</g>
<!-- Node8&#45;&gt;Node7 -->
<g id="edge4" class="edge"><title>Node8&#45;&gt;Node7</title>
<path fill="none" stroke="#9a32cd" stroke-dasharray="5,2" d="M408.1,-100.61C437.185,-100.168 471.87,-99.6412 499.304,-99.2245"/>
<polygon fill="#9a32cd" stroke="#9a32cd" points="408.013,-97.1107 398.067,-100.762 408.119,-104.11 408.013,-97.1107"/>
<text text-anchor="middle" x="438" y="-102.5" font-family="Helvetica,sans-Serif" font-size="10.00"> m_mutex</text>
</g>
<!-- Node9 -->
<g id="node6" class="node"><title>Node9</title>
<g id="a_node6"><a xlink:href="classel_1_1base_1_1_no_copy.html" target="_top" xlink:title="Internal helper class that prevent copy constructor for class. ">
<polygon fill="white" stroke="black" points="132,-93 132,-112 224,-112 224,-93 132,-93"/>
<text text-anchor="middle" x="178" y="-100" font-family="Helvetica,sans-Serif" font-size="10.00">el::base::NoCopy</text>
</a>
</g>
</g>
<!-- Node9&#45;&gt;Node8 -->
<g id="edge5" class="edge"><title>Node9&#45;&gt;Node8</title>
<path fill="none" stroke="#8b1a1a" d="M234.174,-102.173C255.083,-102.048 278.716,-101.908 298.969,-101.788"/>
<polygon fill="#8b1a1a" stroke="#8b1a1a" points="234.134,-98.6726 224.155,-102.232 234.176,-105.673 234.134,-98.6726"/>
</g>
<!-- Node10 -->
<g id="node7" class="node"><title>Node10</title>
<polygon fill="white" stroke="#bfbfbf" points="478,-45 478,-64 618,-64 618,-45 478,-45"/>
<text text-anchor="middle" x="548" y="-52" font-family="Helvetica,sans-Serif" font-size="10.00">std::vector&lt; Configuration *&gt;</text>
</g>
<!-- Node10&#45;&gt;Node6 -->
<g id="edge6" class="edge"><title>Node10&#45;&gt;Node6</title>
<path fill="none" stroke="#9a32cd" stroke-dasharray="5,2" d="M628.425,-54.5C664.232,-54.5 706.31,-54.5 741.623,-54.5"/>
<polygon fill="#9a32cd" stroke="#9a32cd" points="628.017,-51.0001 618.017,-54.5 628.017,-58.0001 628.017,-51.0001"/>
<text text-anchor="middle" x="680" y="-57.5" font-family="Helvetica,sans-Serif" font-size="10.00"> m_list</text>
</g>
<!-- Node11 -->
<g id="node8" class="node"><title>Node11</title>
<g id="a_node8"><a xlink:href="classel_1_1_configuration.html" target="_top" xlink:title="Represents single configuration that has representing level, configuration type and a string based va...">
<polygon fill="white" stroke="black" points="305.5,-45 305.5,-64 391.5,-64 391.5,-45 305.5,-45"/>
<text text-anchor="middle" x="348.5" y="-52" font-family="Helvetica,sans-Serif" font-size="10.00">el::Configuration</text>
</a>
</g>
</g>
<!-- Node11&#45;&gt;Node10 -->
<g id="edge7" class="edge"><title>Node11&#45;&gt;Node10</title>
<path fill="none" stroke="#9a32cd" stroke-dasharray="5,2" d="M401.895,-54.5C425.191,-54.5 452.939,-54.5 477.901,-54.5"/>
<polygon fill="#9a32cd" stroke="#9a32cd" points="401.869,-51.0001 391.869,-54.5 401.869,-58.0001 401.869,-51.0001"/>
<text text-anchor="middle" x="438" y="-57.5" font-family="Helvetica,sans-Serif" font-size="10.00"> elements</text>
</g>
<!-- Node12 -->
<g id="node9" class="node"><title>Node12</title>
<g id="a_node9"><a xlink:href="classel_1_1_loggable.html" target="_top" xlink:title="Base of Easylogging++ friendly class. ">
<polygon fill="white" stroke="black" points="143.5,-55 143.5,-74 212.5,-74 212.5,-55 143.5,-55"/>
<text text-anchor="middle" x="178" y="-62" font-family="Helvetica,sans-Serif" font-size="10.00">el::Loggable</text>
</a>
</g>
</g>
<!-- Node12&#45;&gt;Node11 -->
<g id="edge8" class="edge"><title>Node12&#45;&gt;Node11</title>
<path fill="none" stroke="midnightblue" d="M222.831,-61.8988C248.333,-60.3853 280.311,-58.4875 305.495,-56.9929"/>
<polygon fill="midnightblue" stroke="midnightblue" points="222.469,-58.414 212.694,-62.5004 222.883,-65.4017 222.469,-58.414"/>
</g>
<!-- Node13 -->
<g id="node10" class="node"><title>Node13</title>
<g id="a_node10"><a xlink:title="STL class. ">
<polygon fill="white" stroke="#bfbfbf" points="148,-6 148,-25 208,-25 208,-6 148,-6"/>
<text text-anchor="middle" x="178" y="-13" font-family="Helvetica,sans-Serif" font-size="10.00">std::string</text>
</a>
</g>
</g>
<!-- Node13&#45;&gt;Node4 -->
<g id="edge11" class="edge"><title>Node13&#45;&gt;Node4</title>
<path fill="none" stroke="#9a32cd" stroke-dasharray="5,2" d="M218.221,-11.8526C252.346,-8.99502 303.149,-5.5 347.5,-5.5 347.5,-5.5 347.5,-5.5 998,-5.5 1032.32,-5.5 1070.83,-10.395 1099.81,-15.0797"/>
<polygon fill="#9a32cd" stroke="#9a32cd" points="217.855,-8.37109 208.192,-12.7144 218.454,-15.3454 217.855,-8.37109"/>
<text text-anchor="middle" x="680" y="-8.5" font-family="Helvetica,sans-Serif" font-size="10.00"> m_configurationFile</text>
</g>
<!-- Node13&#45;&gt;Node11 -->
<g id="edge9" class="edge"><title>Node13&#45;&gt;Node11</title>
<path fill="none" stroke="#9a32cd" stroke-dasharray="5,2" d="M218.378,-24.6141C244.752,-30.7186 279.411,-38.7404 306.179,-44.9361"/>
<polygon fill="#9a32cd" stroke="#9a32cd" points="218.882,-21.1384 208.35,-22.2933 217.304,-27.9581 218.882,-21.1384"/>
<text text-anchor="middle" x="261.5" y="-41.5" font-family="Helvetica,sans-Serif" font-size="10.00"> m_value</text>
</g>
<!-- Node14 -->
<g id="node11" class="node"><title>Node14</title>
<g id="a_node11"><a xlink:title="STL class. ">
<polygon fill="white" stroke="#bfbfbf" points="0,-0.5 0,-30.5 95,-30.5 95,-0.5 0,-0.5"/>
<text text-anchor="start" x="8" y="-18.5" font-family="Helvetica,sans-Serif" font-size="10.00">std::basic_string&lt;</text>
<text text-anchor="middle" x="47.5" y="-7.5" font-family="Helvetica,sans-Serif" font-size="10.00"> char &gt;</text>
</a>
</g>
</g>
<!-- Node14&#45;&gt;Node13 -->
<g id="edge10" class="edge"><title>Node14&#45;&gt;Node13</title>
<path fill="none" stroke="midnightblue" d="M105.264,-15.5C119.898,-15.5 135.056,-15.5 147.648,-15.5"/>
<polygon fill="midnightblue" stroke="midnightblue" points="105.255,-12.0001 95.255,-15.5 105.255,-19.0001 105.255,-12.0001"/>
</g>
</g>
</svg>
