<?xml version="1.0" encoding="UTF-8" standalone="no"?>
<!DOCTYPE svg PUBLIC "-//W3C//DTD SVG 1.1//EN"
 "http://www.w3.org/Graphics/SVG/1.1/DTD/svg11.dtd">
<!-- Generated by graphviz version 2.38.0 (20140413.2041)
 -->
<!-- Title: vpr::Allocator::DeviceHandle Pages: 1 -->
<svg width="452pt" height="110pt"
 viewBox="0.00 0.00 452.00 109.50" xmlns="http://www.w3.org/2000/svg" xmlns:xlink="http://www.w3.org/1999/xlink">
<g id="graph0" class="graph" transform="scale(1 1) rotate(0) translate(4 105.5)">
<title>vpr::Allocator::DeviceHandle</title>
<polygon fill="white" stroke="none" points="-4,4 -4,-105.5 448,-105.5 448,4 -4,4"/>
<!-- Node153 -->
<g id="node1" class="node"><title>Node153</title>
<polygon fill="#bfbfbf" stroke="black" points="0,-38.5 0,-57.5 137,-57.5 137,-38.5 0,-38.5"/>
<text text-anchor="middle" x="68.5" y="-45.5" font-family="Helvetica,sans-Serif" font-size="10.00">vpr::Allocator::DeviceHandle</text>
</g>
<!-- Node154 -->
<g id="node2" class="node"><title>Node154</title>
<g id="a_node2"><a xlink:href="classvpr_1_1_memory_block.html#a3d1d4492ecdb7855569025fe1089f78c" target="_top" xlink:title="Cleans up resources and prepares object to be safely destroyed. ">
<polygon fill="white" stroke="black" points="173,-76.5 173,-95.5 307,-95.5 307,-76.5 173,-76.5"/>
<text text-anchor="middle" x="240" y="-83.5" font-family="Helvetica,sans-Serif" font-size="10.00">vpr::MemoryBlock::Destroy</text>
</a>
</g>
</g>
<!-- Node153&#45;&gt;Node154 -->
<g id="edge1" class="edge"><title>Node153&#45;&gt;Node154</title>
<path fill="none" stroke="midnightblue" d="M122.242,-59.8243C146.139,-65.1816 174.015,-71.4311 196.536,-76.4799"/>
<polygon fill="midnightblue" stroke="midnightblue" points="122.795,-56.3614 112.272,-57.589 121.264,-63.1919 122.795,-56.3614"/>
</g>
<!-- Node156 -->
<g id="node4" class="node"><title>Node156</title>
<g id="a_node4"><a xlink:href="classvpr_1_1_memory_block.html#a7a429e3be46b6f748e687450aa524e09" target="_top" xlink:title="When we map a suballocation, we are mapping a sub&#45;region of the larger memory object it is bound to...">
<polygon fill="white" stroke="black" points="180.5,-38.5 180.5,-57.5 299.5,-57.5 299.5,-38.5 180.5,-38.5"/>
<text text-anchor="middle" x="240" y="-45.5" font-family="Helvetica,sans-Serif" font-size="10.00">vpr::MemoryBlock::Map</text>
</a>
</g>
</g>
<!-- Node153&#45;&gt;Node156 -->
<g id="edge3" class="edge"><title>Node153&#45;&gt;Node156</title>
<path fill="none" stroke="midnightblue" d="M147.524,-48C158.548,-48 169.724,-48 180.3,-48"/>
<polygon fill="midnightblue" stroke="midnightblue" points="147.466,-44.5001 137.465,-48 147.465,-51.5001 147.466,-44.5001"/>
</g>
<!-- Node157 -->
<g id="node5" class="node"><title>Node157</title>
<g id="a_node5"><a xlink:href="classvpr_1_1_memory_block.html#a5aabce50e3026fe98ec6054a37c516b5" target="_top" xlink:title="As mentioned for the Map method, due to VkMapMemory functions we must make sure only one sub&#45;region o...">
<polygon fill="white" stroke="black" points="174.5,-0.5 174.5,-19.5 305.5,-19.5 305.5,-0.5 174.5,-0.5"/>
<text text-anchor="middle" x="240" y="-7.5" font-family="Helvetica,sans-Serif" font-size="10.00">vpr::MemoryBlock::Unmap</text>
</a>
</g>
</g>
<!-- Node153&#45;&gt;Node157 -->
<g id="edge4" class="edge"><title>Node153&#45;&gt;Node157</title>
<path fill="none" stroke="midnightblue" d="M122.242,-36.1757C146.139,-30.8184 174.015,-24.5689 196.536,-19.5201"/>
<polygon fill="midnightblue" stroke="midnightblue" points="121.264,-32.8081 112.272,-38.411 122.795,-39.6386 121.264,-32.8081"/>
</g>
<!-- Node155 -->
<g id="node3" class="node"><title>Node155</title>
<g id="a_node3"><a xlink:href="classvpr_1_1_memory_block.html#a78760d0be641bf2e3f679b42cf41742b" target="_top" xlink:title="The object should be destroyed via the Destroy method before the destructor is called, but this will call the Destroy method if it hasn&#39;t been, and will log a warning that this was done. ">
<polygon fill="white" stroke="black" points="343,-71 343,-101 444,-101 444,-71 343,-71"/>
<text text-anchor="start" x="351" y="-89" font-family="Helvetica,sans-Serif" font-size="10.00">vpr::MemoryBlock::</text>
<text text-anchor="middle" x="393.5" y="-78" font-family="Helvetica,sans-Serif" font-size="10.00">~MemoryBlock</text>
</a>
</g>
</g>
<!-- Node154&#45;&gt;Node155 -->
<g id="edge2" class="edge"><title>Node154&#45;&gt;Node155</title>
<path fill="none" stroke="midnightblue" d="M317.152,-86C325.813,-86 334.467,-86 342.66,-86"/>
<polygon fill="midnightblue" stroke="midnightblue" points="317.009,-82.5001 307.009,-86 317.009,-89.5001 317.009,-82.5001"/>
</g>
</g>
</svg>
