<?xml version="1.0" encoding="UTF-8" standalone="no"?>
<!DOCTYPE svg PUBLIC "-//W3C//DTD SVG 1.1//EN"
 "http://www.w3.org/Graphics/SVG/1.1/DTD/svg11.dtd">
<!-- Generated by graphviz version 2.38.0 (20140413.2041)
 -->
<!-- Title: el::base::RegisteredLoggers::get Pages: 1 -->
<svg width="469pt" height="252pt"
 viewBox="0.00 0.00 469.00 252.00" xmlns="http://www.w3.org/2000/svg" xmlns:xlink="http://www.w3.org/1999/xlink">
<g id="graph0" class="graph" transform="scale(1 1) rotate(0) translate(4 248)">
<title>el::base::RegisteredLoggers::get</title>
<polygon fill="white" stroke="none" points="-4,4 -4,-248 465,-248 465,4 -4,4"/>
<!-- Node13 -->
<g id="node1" class="node"><title>Node13</title>
<polygon fill="#bfbfbf" stroke="black" points="0,-129.5 0,-148.5 158,-148.5 158,-129.5 0,-129.5"/>
<text text-anchor="middle" x="79" y="-136.5" font-family="Helvetica,sans-Serif" font-size="10.00">el::base::RegisteredLoggers::get</text>
</g>
<!-- Node14 -->
<g id="node2" class="node"><title>Node14</title>
<g id="a_node2"><a xlink:href="classel_1_1_callback.html#aab4afe42d3f4b6282e69e90efdaa8ea7" target="_top" xlink:title="el::Callback::enabled">
<polygon fill="white" stroke="black" points="209,-224.5 209,-243.5 316,-243.5 316,-224.5 209,-224.5"/>
<text text-anchor="middle" x="262.5" y="-231.5" font-family="Helvetica,sans-Serif" font-size="10.00">el::Callback::enabled</text>
</a>
</g>
</g>
<!-- Node13&#45;&gt;Node14 -->
<g id="edge1" class="edge"><title>Node13&#45;&gt;Node14</title>
<path fill="none" stroke="midnightblue" d="M91.574,-148.536C111.388,-164.426 153.59,-196.409 194,-215 199.046,-217.322 204.437,-219.419 209.891,-221.299"/>
<polygon fill="midnightblue" stroke="midnightblue" points="209.122,-224.727 219.713,-224.448 211.259,-218.062 209.122,-224.727"/>
</g>
<!-- Node15 -->
<g id="node3" class="node"><title>Node15</title>
<g id="a_node3"><a xlink:href="classel_1_1base_1_1utils_1_1_registry.html#a18c332267f2acbe78c97a611dec2e5c2" target="_top" xlink:title="Gets pointer from repository. If none found, nullptr is returned. ">
<polygon fill="white" stroke="black" points="194,-186.5 194,-205.5 331,-205.5 331,-186.5 194,-186.5"/>
<text text-anchor="middle" x="262.5" y="-193.5" font-family="Helvetica,sans-Serif" font-size="10.00">el::base::utils::Registry::get</text>
</a>
</g>
</g>
<!-- Node13&#45;&gt;Node15 -->
<g id="edge2" class="edge"><title>Node13&#45;&gt;Node15</title>
<path fill="none" stroke="midnightblue" d="M107.526,-148.582C130.542,-156.496 164.286,-167.871 194,-177 201.282,-179.237 209.038,-181.516 216.6,-183.682"/>
<polygon fill="midnightblue" stroke="midnightblue" points="215.798,-187.093 226.374,-186.453 217.707,-180.358 215.798,-187.093"/>
</g>
<!-- Node16 -->
<g id="node4" class="node"><title>Node16</title>
<g id="a_node4"><a xlink:href="classel_1_1_callback.html#a8997c7971d65062c374ef24e653061be" target="_top" xlink:title="el::Callback::handle">
<polygon fill="white" stroke="black" points="211.5,-148.5 211.5,-167.5 313.5,-167.5 313.5,-148.5 211.5,-148.5"/>
<text text-anchor="middle" x="262.5" y="-155.5" font-family="Helvetica,sans-Serif" font-size="10.00">el::Callback::handle</text>
</a>
</g>
</g>
<!-- Node13&#45;&gt;Node16 -->
<g id="edge3" class="edge"><title>Node13&#45;&gt;Node16</title>
<path fill="none" stroke="midnightblue" d="M158.026,-147.168C172.42,-148.675 187.249,-150.227 201.027,-151.67"/>
<polygon fill="midnightblue" stroke="midnightblue" points="201.024,-155.188 211.334,-152.748 201.752,-148.226 201.024,-155.188"/>
</g>
<!-- Node17 -->
<g id="node5" class="node"><title>Node17</title>
<g id="a_node5"><a xlink:href="classel_1_1_logger.html#ab134ceead9e69cab71380af41e3ee5d3" target="_top" xlink:title="el::Logger::isValidId">
<polygon fill="white" stroke="black" points="211.5,-110.5 211.5,-129.5 313.5,-129.5 313.5,-110.5 211.5,-110.5"/>
<text text-anchor="middle" x="262.5" y="-117.5" font-family="Helvetica,sans-Serif" font-size="10.00">el::Logger::isValidId</text>
</a>
</g>
</g>
<!-- Node13&#45;&gt;Node17 -->
<g id="edge4" class="edge"><title>Node13&#45;&gt;Node17</title>
<path fill="none" stroke="midnightblue" d="M158.026,-130.832C172.42,-129.325 187.249,-127.773 201.027,-126.33"/>
<polygon fill="midnightblue" stroke="midnightblue" points="201.752,-129.774 211.334,-125.252 201.024,-122.812 201.752,-129.774"/>
</g>
<!-- Node19 -->
<g id="node7" class="node"><title>Node19</title>
<g id="a_node7"><a xlink:href="classel_1_1base_1_1threading_1_1_thread_safe.html#affb45b35790a7305d0a659562c8104fc" target="_top" xlink:title="el::base::threading\l::ThreadSafe::lock">
<polygon fill="white" stroke="black" points="214,-61 214,-91 311,-91 311,-61 214,-61"/>
<text text-anchor="start" x="222" y="-79" font-family="Helvetica,sans-Serif" font-size="10.00">el::base::threading</text>
<text text-anchor="middle" x="262.5" y="-68" font-family="Helvetica,sans-Serif" font-size="10.00">::ThreadSafe::lock</text>
</a>
</g>
</g>
<!-- Node13&#45;&gt;Node19 -->
<g id="edge6" class="edge"><title>Node13&#45;&gt;Node19</title>
<path fill="none" stroke="midnightblue" d="M107.566,-129.432C134.282,-120.158 175.503,-105.85 208.567,-94.3734"/>
<polygon fill="midnightblue" stroke="midnightblue" points="209.799,-97.6507 218.098,-91.065 207.504,-91.0378 209.799,-97.6507"/>
</g>
<!-- Node20 -->
<g id="node8" class="node"><title>Node20</title>
<g id="a_node8"><a xlink:href="classel_1_1base_1_1utils_1_1_registry.html#ab10b3dd25ff0df036e7a015635a15dee" target="_top" xlink:title="Registers new registry to repository. ">
<polygon fill="white" stroke="black" points="204,-0.5 204,-41.5 321,-41.5 321,-0.5 204,-0.5"/>
<text text-anchor="start" x="212" y="-29.5" font-family="Helvetica,sans-Serif" font-size="10.00">el::base::utils::Registry</text>
<text text-anchor="start" x="212" y="-18.5" font-family="Helvetica,sans-Serif" font-size="10.00">&lt; Logger, std::string &gt;</text>
<text text-anchor="middle" x="262.5" y="-7.5" font-family="Helvetica,sans-Serif" font-size="10.00">::registerNew</text>
</a>
</g>
</g>
<!-- Node13&#45;&gt;Node20 -->
<g id="edge7" class="edge"><title>Node13&#45;&gt;Node20</title>
<path fill="none" stroke="midnightblue" d="M90.7403,-129.493C110.299,-112.489 153.456,-76.3692 194,-52 197.324,-50.0018 200.799,-48.0452 204.344,-46.1481"/>
<polygon fill="midnightblue" stroke="midnightblue" points="205.96,-49.2525 213.251,-41.5648 202.757,-43.0283 205.96,-49.2525"/>
</g>
<!-- Node18 -->
<g id="node6" class="node"><title>Node18</title>
<g id="a_node6"><a xlink:href="classel_1_1base_1_1utils_1_1_str.html#a1b4b61f9018c964cdf581e641c464947" target="_top" xlink:title="Returns true if c exist in str. ">
<polygon fill="white" stroke="black" points="367,-105 367,-135 461,-135 461,-105 367,-105"/>
<text text-anchor="start" x="375" y="-123" font-family="Helvetica,sans-Serif" font-size="10.00">el::base::utils::Str</text>
<text text-anchor="middle" x="414" y="-112" font-family="Helvetica,sans-Serif" font-size="10.00">::contains</text>
</a>
</g>
</g>
<!-- Node17&#45;&gt;Node18 -->
<g id="edge5" class="edge"><title>Node17&#45;&gt;Node18</title>
<path fill="none" stroke="midnightblue" d="M313.697,-120C327.486,-120 342.528,-120 356.638,-120"/>
<polygon fill="midnightblue" stroke="midnightblue" points="356.716,-123.5 366.716,-120 356.716,-116.5 356.716,-123.5"/>
</g>
</g>
</svg>
