<?xml version="1.0" encoding="UTF-8" standalone="no"?>
<!DOCTYPE svg PUBLIC "-//W3C//DTD SVG 1.1//EN"
 "http://www.w3.org/Graphics/SVG/1.1/DTD/svg11.dtd">
<!-- Generated by graphviz version 2.38.0 (20140413.2041)
 -->
<!-- Title: el::base::TypedConfigurations Pages: 1 -->
<!--zoomable 509 -->
<svg id="main" version="1.1" xmlns="http://www.w3.org/2000/svg" xmlns:xlink="http://www.w3.org/1999/xlink" xml:space="preserve" onload="init(evt)">
<style type="text/css"><![CDATA[
.edge:hover path { stroke: red; }
.edge:hover polygon { stroke: red; fill: red; }
]]></style>
<script type="text/javascript"><![CDATA[
var edges = document.getElementsByTagName('g');
if (edges && edges.length) {
  for (var i=0;i<edges.length;i++) {
    if (edges[i].id.substr(0,4)=='edge') {
      edges[i].setAttribute('class','edge');
    }
  }
}
]]></script>
        <defs>
                <circle id="rim" cx="0" cy="0" r="7"/>
                <circle id="rim2" cx="0" cy="0" r="3.5"/>
                <g id="zoomPlus">
                        <use xlink:href="#rim" fill="#404040">
                                <set attributeName="fill" to="#808080" begin="zoomplus.mouseover" end="zoomplus.mouseout"/>
                        </use>
                        <path d="M-4,0h8M0,-4v8" fill="none" stroke="white" stroke-width="1.5" pointer-events="none"/>
                </g>
                <g id="zoomMin">
                        <use xlink:href="#rim" fill="#404040">
                                <set attributeName="fill" to="#808080" begin="zoomminus.mouseover" end="zoomminus.mouseout"/>
                        </use>
                        <path d="M-4,0h8" fill="none" stroke="white" stroke-width="1.5" pointer-events="none"/>
                </g>
                <g id="dirArrow">
                        <path fill="none" stroke="white" stroke-width="1.5" d="M0,-3.0v7 M-2.5,-0.5L0,-3.0L2.5,-0.5"/>
                </g>
               <g id="resetDef">
                       <use xlink:href="#rim2" fill="#404040">
                               <set attributeName="fill" to="#808080" begin="reset.mouseover" end="reset.mouseout"/>
                       </use>
               </g>
        </defs>

<script type="text/javascript">
var viewWidth = 1468;
var viewHeight = 509;
var sectionId = 'dynsection-1';
</script>
<script xlink:href="svgpan.js"/>
<svg id="graph" class="graph">
<g id="viewport">
<title>el::base::TypedConfigurations</title>
<polygon fill="white" stroke="none" points="-4,4 -4,-504.5 1464,-504.5 1464,4 -4,4"/>
<!-- Node2 -->
<g id="node1" class="node"><title>Node2</title>
<polygon fill="#bfbfbf" stroke="black" points="1315,-200 1315,-219 1460,-219 1460,-200 1315,-200"/>
<text text-anchor="middle" x="1387.5" y="-207" font-family="Helvetica,sans-Serif" font-size="10.00">el::base::TypedConfigurations</text>
</g>
<!-- Node3 -->
<g id="node2" class="node"><title>Node3</title>
<g id="a_node2"><a xlink:href="classel_1_1base_1_1threading_1_1_thread_safe.html" target="_top" xlink:title="Base of thread safe class, this class is inheritable&#45;only. ">
<polygon fill="white" stroke="black" points="308,-207.5 308,-237.5 405,-237.5 405,-207.5 308,-207.5"/>
<text text-anchor="start" x="316" y="-225.5" font-family="Helvetica,sans-Serif" font-size="10.00">el::base::threading</text>
<text text-anchor="middle" x="356.5" y="-214.5" font-family="Helvetica,sans-Serif" font-size="10.00">::ThreadSafe</text>
</a>
</g>
</g>
<!-- Node3&#45;&gt;Node2 -->
<g id="edge1" class="edge"><title>Node3&#45;&gt;Node2</title>
<path fill="none" stroke="midnightblue" d="M415.157,-221.772C591.138,-219.548 1121.11,-212.853 1314.7,-210.407"/>
<polygon fill="midnightblue" stroke="midnightblue" points="415.022,-218.273 405.067,-221.899 415.111,-225.272 415.022,-218.273"/>
</g>
<!-- Node14 -->
<g id="node13" class="node"><title>Node14</title>
<g id="a_node13"><a xlink:href="classel_1_1base_1_1utils_1_1_abstract_registry.html" target="_top" xlink:title="el::base::utils::Abstract\lRegistry\&lt; Configuration,\l std::vector\&lt; Configuration *\&gt; \&gt;">
<polygon fill="white" stroke="red" points="442,-232 442,-273 594,-273 594,-232 442,-232"/>
<text text-anchor="start" x="450" y="-261" font-family="Helvetica,sans-Serif" font-size="10.00">el::base::utils::Abstract</text>
<text text-anchor="start" x="450" y="-250" font-family="Helvetica,sans-Serif" font-size="10.00">Registry&lt; Configuration,</text>
<text text-anchor="middle" x="518" y="-239" font-family="Helvetica,sans-Serif" font-size="10.00"> std::vector&lt; Configuration *&gt; &gt;</text>
</a>
</g>
</g>
<!-- Node3&#45;&gt;Node14 -->
<g id="edge14" class="edge"><title>Node3&#45;&gt;Node14</title>
<path fill="none" stroke="midnightblue" d="M415.257,-233.363C423.859,-234.981 432.831,-236.669 441.729,-238.342"/>
<polygon fill="midnightblue" stroke="midnightblue" points="415.83,-229.91 405.355,-231.501 414.536,-236.789 415.83,-229.91"/>
</g>
<!-- Node4 -->
<g id="node3" class="node"><title>Node4</title>
<g id="a_node3"><a xlink:href="classel_1_1base_1_1threading_1_1internal_1_1_no_mutex.html" target="_top" xlink:title="Mutex wrapper used when multi&#45;threading is disabled. ">
<polygon fill="white" stroke="black" points="129,-207.5 129,-237.5 228,-237.5 228,-207.5 129,-207.5"/>
<text text-anchor="start" x="137" y="-225.5" font-family="Helvetica,sans-Serif" font-size="10.00">el::base::threading</text>
<text text-anchor="middle" x="178.5" y="-214.5" font-family="Helvetica,sans-Serif" font-size="10.00">::internal::NoMutex</text>
</a>
</g>
</g>
<!-- Node4&#45;&gt;Node3 -->
<g id="edge2" class="edge"><title>Node4&#45;&gt;Node3</title>
<path fill="none" stroke="#9a32cd" stroke-dasharray="5,2" d="M238.205,-222.5C260.787,-222.5 286.275,-222.5 307.709,-222.5"/>
<polygon fill="#9a32cd" stroke="#9a32cd" points="238.059,-219 228.059,-222.5 238.059,-226 238.059,-219"/>
<text text-anchor="middle" x="268" y="-225.5" font-family="Helvetica,sans-Serif" font-size="10.00"> m_mutex</text>
</g>
<!-- Node5 -->
<g id="node4" class="node"><title>Node5</title>
<g id="a_node4"><a xlink:href="classel_1_1base_1_1_no_copy.html" target="_top" xlink:title="Internal helper class that prevent copy constructor for class. ">
<polygon fill="white" stroke="black" points="0,-213 0,-232 92,-232 92,-213 0,-213"/>
<text text-anchor="middle" x="46" y="-220" font-family="Helvetica,sans-Serif" font-size="10.00">el::base::NoCopy</text>
</a>
</g>
</g>
<!-- Node5&#45;&gt;Node4 -->
<g id="edge3" class="edge"><title>Node5&#45;&gt;Node4</title>
<path fill="none" stroke="#8b1a1a" d="M102.404,-222.5C111.158,-222.5 120.155,-222.5 128.744,-222.5"/>
<polygon fill="#8b1a1a" stroke="#8b1a1a" points="102.276,-219 92.2763,-222.5 102.276,-226 102.276,-219"/>
</g>
<!-- Node6 -->
<g id="node5" class="node"><title>Node6</title>
<polygon fill="white" stroke="#bfbfbf" points="1028.5,-150.5 1028.5,-180.5 1133.5,-180.5 1133.5,-150.5 1028.5,-150.5"/>
<text text-anchor="start" x="1036.5" y="-168.5" font-family="Helvetica,sans-Serif" font-size="10.00">std::map&lt; Level, std</text>
<text text-anchor="middle" x="1081" y="-157.5" font-family="Helvetica,sans-Serif" font-size="10.00">::size_t &gt;</text>
</g>
<!-- Node6&#45;&gt;Node2 -->
<g id="edge4" class="edge"><title>Node6&#45;&gt;Node2</title>
<path fill="none" stroke="#9a32cd" stroke-dasharray="5,2" d="M1143.98,-162.207C1187.31,-161.26 1246.27,-162.697 1297,-173.5 1322.72,-178.977 1350.55,-191.276 1368.24,-199.97"/>
<polygon fill="#9a32cd" stroke="#9a32cd" points="1143.78,-158.711 1133.87,-162.477 1143.96,-165.708 1143.78,-158.711"/>
<text text-anchor="middle" x="1235" y="-187.5" font-family="Helvetica,sans-Serif" font-size="10.00"> m_maxLogFileSizeMap</text>
<text text-anchor="middle" x="1235" y="-176.5" font-family="Helvetica,sans-Serif" font-size="10.00">m_logFlushThresholdMap</text>
</g>
<!-- Node7 -->
<g id="node6" class="node"><title>Node7</title>
<polygon fill="white" stroke="#bfbfbf" points="879,-329.5 879,-359.5 989,-359.5 989,-329.5 879,-329.5"/>
<text text-anchor="start" x="887" y="-347.5" font-family="Helvetica,sans-Serif" font-size="10.00">std::map&lt; std::string,</text>
<text text-anchor="middle" x="934" y="-336.5" font-family="Helvetica,sans-Serif" font-size="10.00"> FileStreamPtr &gt;</text>
</g>
<!-- Node7&#45;&gt;Node2 -->
<g id="edge5" class="edge"><title>Node7&#45;&gt;Node2</title>
<path fill="none" stroke="#9a32cd" stroke-dasharray="5,2" d="M999.036,-330.649C1087.63,-311.163 1242.79,-275.776 1297,-255.5 1323.84,-245.463 1353.02,-229.407 1370.53,-219.164"/>
<polygon fill="#9a32cd" stroke="#9a32cd" points="998.117,-327.267 989.1,-332.829 999.618,-334.105 998.117,-327.267"/>
<text text-anchor="middle" x="1081" y="-330.5" font-family="Helvetica,sans-Serif" font-size="10.00"> m_logStreamsReference</text>
</g>
<!-- Node8 -->
<g id="node7" class="node"><title>Node8</title>
<g id="a_node7"><a xlink:title="STL class. ">
<polygon fill="white" stroke="#bfbfbf" points="488,-358 488,-377 548,-377 548,-358 488,-358"/>
<text text-anchor="middle" x="518" y="-365" font-family="Helvetica,sans-Serif" font-size="10.00">std::string</text>
</a>
</g>
</g>
<!-- Node8&#45;&gt;Node7 -->
<g id="edge6" class="edge"><title>Node8&#45;&gt;Node7</title>
<path fill="none" stroke="#9a32cd" stroke-dasharray="5,2" d="M558.61,-361.554C575.085,-359.299 594.43,-356.931 612,-355.5 705.649,-347.871 815.085,-345.519 878.954,-344.803"/>
<polygon fill="#9a32cd" stroke="#9a32cd" points="557.662,-358.153 548.246,-363.009 558.635,-365.085 557.662,-358.153"/>
<text text-anchor="middle" x="654.5" y="-358.5" font-family="Helvetica,sans-Serif" font-size="10.00"> keys</text>
</g>
<!-- Node11 -->
<g id="node10" class="node"><title>Node11</title>
<polygon fill="white" stroke="#bfbfbf" points="881.5,-367.5 881.5,-397.5 986.5,-397.5 986.5,-367.5 881.5,-367.5"/>
<text text-anchor="start" x="889.5" y="-385.5" font-family="Helvetica,sans-Serif" font-size="10.00">std::map&lt; Level, std</text>
<text text-anchor="middle" x="934" y="-374.5" font-family="Helvetica,sans-Serif" font-size="10.00">::string &gt;</text>
</g>
<!-- Node8&#45;&gt;Node11 -->
<g id="edge10" class="edge"><title>Node8&#45;&gt;Node11</title>
<path fill="none" stroke="#9a32cd" stroke-dasharray="5,2" d="M558.551,-368.933C633.795,-371.659 797.503,-377.591 881.307,-380.627"/>
<polygon fill="#9a32cd" stroke="#9a32cd" points="558.232,-365.419 548.112,-368.555 557.978,-372.415 558.232,-365.419"/>
<text text-anchor="middle" x="654.5" y="-376.5" font-family="Helvetica,sans-Serif" font-size="10.00"> elements</text>
</g>
<!-- Node12 -->
<g id="node11" class="node"><title>Node12</title>
<g id="a_node11"><a xlink:href="classel_1_1_configurations.html" target="_top" xlink:title="Thread&#45;safe Configuration repository. ">
<polygon fill="white" stroke="black" points="1035,-243 1035,-262 1127,-262 1127,-243 1035,-243"/>
<text text-anchor="middle" x="1081" y="-250" font-family="Helvetica,sans-Serif" font-size="10.00">el::Configurations</text>
</a>
</g>
</g>
<!-- Node8&#45;&gt;Node12 -->
<g id="edge15" class="edge"><title>Node8&#45;&gt;Node12</title>
<path fill="none" stroke="#9a32cd" stroke-dasharray="5,2" d="M558.155,-357.906C574.734,-353.93 594.278,-349.356 612,-345.5 766.605,-311.863 951.025,-276.65 1034.71,-260.937"/>
<polygon fill="#9a32cd" stroke="#9a32cd" points="557.159,-354.546 548.258,-360.293 558.8,-361.351 557.159,-354.546"/>
<text text-anchor="middle" x="788" y="-325.5" font-family="Helvetica,sans-Serif" font-size="10.00"> m_configurationFile</text>
</g>
<!-- Node22 -->
<g id="node18" class="node"><title>Node22</title>
<g id="a_node18"><a xlink:href="classel_1_1base_1_1_log_format.html" target="_top" xlink:title="Represents log format containing flags and date format. This is used internally to start initial log...">
<polygon fill="white" stroke="black" points="736,-415 736,-434 840,-434 840,-415 736,-415"/>
<text text-anchor="middle" x="788" y="-422" font-family="Helvetica,sans-Serif" font-size="10.00">el::base::LogFormat</text>
</a>
</g>
</g>
<!-- Node8&#45;&gt;Node22 -->
<g id="edge22" class="edge"><title>Node8&#45;&gt;Node22</title>
<path fill="none" stroke="#9a32cd" stroke-dasharray="5,2" d="M553.602,-380.633C570.929,-386.797 592.351,-393.803 612,-398.5 653.077,-408.318 700.513,-415.09 735.628,-419.256"/>
<polygon fill="#9a32cd" stroke="#9a32cd" points="554.512,-377.24 543.918,-377.125 552.128,-383.822 554.512,-377.24"/>
<text text-anchor="middle" x="654.5" y="-460.5" font-family="Helvetica,sans-Serif" font-size="10.00"> m_format</text>
<text text-anchor="middle" x="654.5" y="-449.5" font-family="Helvetica,sans-Serif" font-size="10.00">m_currentHost</text>
<text text-anchor="middle" x="654.5" y="-438.5" font-family="Helvetica,sans-Serif" font-size="10.00">m_userFormat</text>
<text text-anchor="middle" x="654.5" y="-427.5" font-family="Helvetica,sans-Serif" font-size="10.00">m_currentUser</text>
<text text-anchor="middle" x="654.5" y="-416.5" font-family="Helvetica,sans-Serif" font-size="10.00">m_dateTimeFormat</text>
</g>
<!-- Node9 -->
<g id="node8" class="node"><title>Node9</title>
<g id="a_node8"><a xlink:title="STL class. ">
<polygon fill="white" stroke="#bfbfbf" points="309,-352.5 309,-382.5 404,-382.5 404,-352.5 309,-352.5"/>
<text text-anchor="start" x="317" y="-370.5" font-family="Helvetica,sans-Serif" font-size="10.00">std::basic_string&lt;</text>
<text text-anchor="middle" x="356.5" y="-359.5" font-family="Helvetica,sans-Serif" font-size="10.00"> char &gt;</text>
</a>
</g>
</g>
<!-- Node9&#45;&gt;Node8 -->
<g id="edge7" class="edge"><title>Node9&#45;&gt;Node8</title>
<path fill="none" stroke="midnightblue" d="M414.127,-367.5C438.999,-367.5 467.155,-367.5 487.715,-367.5"/>
<polygon fill="midnightblue" stroke="midnightblue" points="414.063,-364 404.063,-367.5 414.063,-371 414.063,-364"/>
</g>
<!-- Node10 -->
<g id="node9" class="node"><title>Node10</title>
<polygon fill="white" stroke="#bfbfbf" points="1021.5,-99 1021.5,-118 1140.5,-118 1140.5,-99 1021.5,-99"/>
<text text-anchor="middle" x="1081" y="-106" font-family="Helvetica,sans-Serif" font-size="10.00">std::map&lt; Level, bool &gt;</text>
</g>
<!-- Node10&#45;&gt;Node2 -->
<g id="edge8" class="edge"><title>Node10&#45;&gt;Node2</title>
<path fill="none" stroke="#9a32cd" stroke-dasharray="5,2" d="M1145.85,-97.8215C1190.19,-93.3186 1249.59,-93.2378 1297,-114.5 1337.94,-132.858 1369.09,-179.648 1381.1,-199.907"/>
<polygon fill="#9a32cd" stroke="#9a32cd" points="1145.32,-94.3583 1135.77,-98.9462 1146.1,-101.315 1145.32,-94.3583"/>
<text text-anchor="middle" x="1235" y="-150.5" font-family="Helvetica,sans-Serif" font-size="10.00"> m_toFileMap</text>
<text text-anchor="middle" x="1235" y="-139.5" font-family="Helvetica,sans-Serif" font-size="10.00">m_performanceTrackingMap</text>
<text text-anchor="middle" x="1235" y="-128.5" font-family="Helvetica,sans-Serif" font-size="10.00">m_toStandardOutputMap</text>
<text text-anchor="middle" x="1235" y="-117.5" font-family="Helvetica,sans-Serif" font-size="10.00">m_enabledMap</text>
</g>
<!-- Node11&#45;&gt;Node2 -->
<g id="edge9" class="edge"><title>Node11&#45;&gt;Node2</title>
<path fill="none" stroke="#9a32cd" stroke-dasharray="5,2" d="M996.796,-376.773C1072.33,-367.475 1201.83,-343.94 1297,-286.5 1329.64,-266.799 1362.1,-235.078 1377.41,-219.204"/>
<polygon fill="#9a32cd" stroke="#9a32cd" points="996.024,-373.34 986.505,-377.992 996.848,-380.291 996.024,-373.34"/>
<text text-anchor="middle" x="1081" y="-377.5" font-family="Helvetica,sans-Serif" font-size="10.00"> m_filenameMap</text>
</g>
<!-- Node12&#45;&gt;Node2 -->
<g id="edge11" class="edge"><title>Node12&#45;&gt;Node2</title>
<path fill="none" stroke="#9a32cd" stroke-dasharray="5,2" d="M1137.42,-245.352C1180.86,-239.669 1242.83,-231.39 1297,-223.5 1306.65,-222.095 1316.87,-220.549 1326.83,-219.013"/>
<polygon fill="#9a32cd" stroke="#9a32cd" points="1136.8,-241.902 1127.34,-246.667 1137.71,-248.843 1136.8,-241.902"/>
<text text-anchor="middle" x="1235" y="-243.5" font-family="Helvetica,sans-Serif" font-size="10.00"> m_configurations</text>
</g>
<!-- Node13 -->
<g id="node12" class="node"><title>Node13</title>
<g id="a_node12"><a xlink:href="classel_1_1base_1_1utils_1_1_registry_with_pred.html" target="_top" xlink:title="el::base::utils::Registry\lWithPred\&lt; Configuration,\l Configuration::Predicate \&gt;">
<polygon fill="white" stroke="black" points="722,-232 722,-273 854,-273 854,-232 722,-232"/>
<text text-anchor="start" x="730" y="-261" font-family="Helvetica,sans-Serif" font-size="10.00">el::base::utils::Registry</text>
<text text-anchor="start" x="730" y="-250" font-family="Helvetica,sans-Serif" font-size="10.00">WithPred&lt; Configuration,</text>
<text text-anchor="middle" x="788" y="-239" font-family="Helvetica,sans-Serif" font-size="10.00"> Configuration::Predicate &gt;</text>
</a>
</g>
</g>
<!-- Node13&#45;&gt;Node12 -->
<g id="edge12" class="edge"><title>Node13&#45;&gt;Node12</title>
<path fill="none" stroke="midnightblue" d="M864.523,-252.5C918.508,-252.5 989.364,-252.5 1034.8,-252.5"/>
<polygon fill="midnightblue" stroke="midnightblue" points="864.306,-249 854.306,-252.5 864.306,-256 864.306,-249"/>
</g>
<!-- Node14&#45;&gt;Node13 -->
<g id="edge13" class="edge"><title>Node14&#45;&gt;Node13</title>
<path fill="none" stroke="midnightblue" d="M604.047,-252.5C642.071,-252.5 686.193,-252.5 721.58,-252.5"/>
<polygon fill="midnightblue" stroke="midnightblue" points="604.009,-249 594.009,-252.5 604.009,-256 604.009,-249"/>
</g>
<!-- Node18 -->
<g id="node14" class="node"><title>Node18</title>
<polygon fill="white" stroke="#bfbfbf" points="1007,-49.5 1007,-79.5 1155,-79.5 1155,-49.5 1007,-49.5"/>
<text text-anchor="start" x="1015" y="-67.5" font-family="Helvetica,sans-Serif" font-size="10.00">std::map&lt; Level, el</text>
<text text-anchor="middle" x="1081" y="-56.5" font-family="Helvetica,sans-Serif" font-size="10.00">::base::SubsecondPrecision &gt;</text>
</g>
<!-- Node18&#45;&gt;Node2 -->
<g id="edge16" class="edge"><title>Node18&#45;&gt;Node2</title>
<path fill="none" stroke="#9a32cd" stroke-dasharray="5,2" d="M1165.24,-54.4131C1207.29,-53.2018 1257.6,-57.9785 1297,-80.5 1345.75,-108.365 1374,-174.915 1383.17,-199.848"/>
<polygon fill="#9a32cd" stroke="#9a32cd" points="1164.87,-50.9252 1155.02,-54.8282 1165.16,-57.9194 1164.87,-50.9252"/>
<text text-anchor="middle" x="1235" y="-83.5" font-family="Helvetica,sans-Serif" font-size="10.00"> m_subsecondPrecisionMap</text>
</g>
<!-- Node19 -->
<g id="node15" class="node"><title>Node19</title>
<g id="a_node15"><a xlink:href="classel_1_1base_1_1_subsecond_precision.html" target="_top" xlink:title="A subsecond precision class containing actual width and offset of the subsecond part. ">
<polygon fill="white" stroke="black" points="715,-55 715,-74 861,-74 861,-55 715,-55"/>
<text text-anchor="middle" x="788" y="-62" font-family="Helvetica,sans-Serif" font-size="10.00">el::base::SubsecondPrecision</text>
</a>
</g>
</g>
<!-- Node19&#45;&gt;Node18 -->
<g id="edge17" class="edge"><title>Node19&#45;&gt;Node18</title>
<path fill="none" stroke="#9a32cd" stroke-dasharray="5,2" d="M871.375,-64.5C913.999,-64.5 965.589,-64.5 1006.8,-64.5"/>
<polygon fill="#9a32cd" stroke="#9a32cd" points="871.307,-61.0001 861.306,-64.5 871.306,-68.0001 871.307,-61.0001"/>
<text text-anchor="middle" x="934" y="-67.5" font-family="Helvetica,sans-Serif" font-size="10.00"> elements</text>
</g>
<!-- Node20 -->
<g id="node16" class="node"><title>Node20</title>
<polygon fill="white" stroke="#bfbfbf" points="1024.5,-0.5 1024.5,-30.5 1137.5,-30.5 1137.5,-0.5 1024.5,-0.5"/>
<text text-anchor="start" x="1032.5" y="-18.5" font-family="Helvetica,sans-Serif" font-size="10.00">std::map&lt; Level, base</text>
<text text-anchor="middle" x="1081" y="-7.5" font-family="Helvetica,sans-Serif" font-size="10.00">::FileStreamPtr &gt;</text>
</g>
<!-- Node20&#45;&gt;Node2 -->
<g id="edge18" class="edge"><title>Node20&#45;&gt;Node2</title>
<path fill="none" stroke="#9a32cd" stroke-dasharray="5,2" d="M1147.75,-7.5611C1193.41,-5.47293 1253.59,-9.88481 1297,-39.5 1355.41,-79.3495 1378.46,-169.783 1384.65,-199.692"/>
<polygon fill="#9a32cd" stroke="#9a32cd" points="1147.44,-4.0731 1137.66,-8.13833 1147.84,-11.0617 1147.44,-4.0731"/>
<text text-anchor="middle" x="1235" y="-42.5" font-family="Helvetica,sans-Serif" font-size="10.00"> m_fileStreamMap</text>
</g>
<!-- Node21 -->
<g id="node17" class="node"><title>Node21</title>
<polygon fill="white" stroke="#bfbfbf" points="1028.5,-400.5 1028.5,-430.5 1133.5,-430.5 1133.5,-400.5 1028.5,-400.5"/>
<text text-anchor="start" x="1036.5" y="-418.5" font-family="Helvetica,sans-Serif" font-size="10.00">std::map&lt; Level, el</text>
<text text-anchor="middle" x="1081" y="-407.5" font-family="Helvetica,sans-Serif" font-size="10.00">::base::LogFormat &gt;</text>
</g>
<!-- Node21&#45;&gt;Node2 -->
<g id="edge19" class="edge"><title>Node21&#45;&gt;Node2</title>
<path fill="none" stroke="#9a32cd" stroke-dasharray="5,2" d="M1143.99,-418.829C1190.24,-418.221 1252.81,-410.526 1297,-378.5 1353.99,-337.198 1377.97,-248.404 1384.53,-219.101"/>
<polygon fill="#9a32cd" stroke="#9a32cd" points="1143.78,-415.33 1133.79,-418.853 1143.8,-422.329 1143.78,-415.33"/>
<text text-anchor="middle" x="1235" y="-419.5" font-family="Helvetica,sans-Serif" font-size="10.00"> m_logFormatMap</text>
</g>
<!-- Node22&#45;&gt;Node21 -->
<g id="edge20" class="edge"><title>Node22&#45;&gt;Node21</title>
<path fill="none" stroke="#9a32cd" stroke-dasharray="5,2" d="M850.252,-422.606C902.98,-420.975 978.228,-418.648 1028.06,-417.107"/>
<polygon fill="#9a32cd" stroke="#9a32cd" points="849.908,-419.114 840.021,-422.922 850.125,-426.111 849.908,-419.114"/>
<text text-anchor="middle" x="934" y="-424.5" font-family="Helvetica,sans-Serif" font-size="10.00"> elements</text>
</g>
<!-- Node17 -->
<g id="node19" class="node"><title>Node17</title>
<g id="a_node19"><a xlink:href="classel_1_1_loggable.html" target="_top" xlink:title="Base of Easylogging++ friendly class. ">
<polygon fill="white" stroke="black" points="483.5,-481 483.5,-500 552.5,-500 552.5,-481 483.5,-481"/>
<text text-anchor="middle" x="518" y="-488" font-family="Helvetica,sans-Serif" font-size="10.00">el::Loggable</text>
</a>
</g>
</g>
<!-- Node17&#45;&gt;Node22 -->
<g id="edge21" class="edge"><title>Node17&#45;&gt;Node22</title>
<path fill="none" stroke="midnightblue" d="M562.894,-490.76C599.5,-489.873 652.645,-485.996 697,-472.5 725.8,-463.737 756.038,-445.445 773.104,-434.145"/>
<polygon fill="midnightblue" stroke="midnightblue" points="562.498,-487.267 552.561,-490.942 562.621,-494.265 562.498,-487.267"/>
</g>
</g>
</svg>
        <g id="navigator" transform="translate(0 0)" fill="#404254">
                <rect fill="#f2f5e9" fill-opacity="0.5" stroke="#606060" stroke-width=".5" x="0" y="0" width="60" height="60"/>
                <use id="zoomplus" xlink:href="#zoomPlus" x="17" y="9" onmousedown="handleZoom(evt,'in')"/>
                <use id="zoomminus" xlink:href="#zoomMin" x="42" y="9" onmousedown="handleZoom(evt,'out')"/>
                <use id="reset" xlink:href="#resetDef" x="30" y="36" onmousedown="handleReset()"/>
                <g id="arrowUp" xlink:href="#dirArrow" transform="translate(30 24)" onmousedown="handlePan(0,-1)">
                  <use xlink:href="#rim" fill="#404040">
                        <set attributeName="fill" to="#808080" begin="arrowUp.mouseover" end="arrowUp.mouseout"/>
                  </use>
                  <path fill="none" stroke="white" stroke-width="1.5" d="M0,-3.0v7 M-2.5,-0.5L0,-3.0L2.5,-0.5"/>
                </g>
                <g id="arrowRight" xlink:href="#dirArrow" transform="rotate(90) translate(36 -43)" onmousedown="handlePan(1,0)">
                  <use xlink:href="#rim" fill="#404040">
                        <set attributeName="fill" to="#808080" begin="arrowRight.mouseover" end="arrowRight.mouseout"/>
                  </use>
                  <path fill="none" stroke="white" stroke-width="1.5" d="M0,-3.0v7 M-2.5,-0.5L0,-3.0L2.5,-0.5"/>
                </g>
                <g id="arrowDown" xlink:href="#dirArrow" transform="rotate(180) translate(-30 -48)" onmousedown="handlePan(0,1)">
                  <use xlink:href="#rim" fill="#404040">
                        <set attributeName="fill" to="#808080" begin="arrowDown.mouseover" end="arrowDown.mouseout"/>
                  </use>
                  <path fill="none" stroke="white" stroke-width="1.5" d="M0,-3.0v7 M-2.5,-0.5L0,-3.0L2.5,-0.5"/>
                </g>
                <g id="arrowLeft" xlink:href="#dirArrow" transform="rotate(270) translate(-36 17)" onmousedown="handlePan(-1,0)">
                  <use xlink:href="#rim" fill="#404040">
                        <set attributeName="fill" to="#808080" begin="arrowLeft.mouseover" end="arrowLeft.mouseout"/>
                  </use>
                  <path fill="none" stroke="white" stroke-width="1.5" d="M0,-3.0v7 M-2.5,-0.5L0,-3.0L2.5,-0.5"/>
                </g>
        </g>
        <svg viewBox="0 0 15 15" width="100%" height="30px" preserveAspectRatio="xMaxYMin meet">
         <g id="arrow_out" transform="scale(0.3 0.3)">
          <a xlink:href="classel_1_1base_1_1_typed_configurations__coll__graph_org.svg" target="_base">
           <rect id="button" ry="5" rx="5" y="6" x="6" height="38" width="38"
                fill="#f2f5e9" fill-opacity="0.5" stroke="#606060" stroke-width="1.0"/>
           <path id="arrow"
             d="M 11.500037,31.436501 C 11.940474,20.09759 22.043105,11.32322 32.158766,21.979434 L 37.068811,17.246167 C 37.068811,17.246167 37.088388,32 37.088388,32 L 22.160133,31.978069 C 22.160133,31.978069 26.997745,27.140456 26.997745,27.140456 C 18.528582,18.264221 13.291696,25.230495 11.500037,31.436501 z"
             style="fill:#404040;"/>
          </a>
         </g>
        </svg>
</svg>
