<?xml version="1.0" encoding="UTF-8" standalone="no"?>
<!DOCTYPE svg PUBLIC "-//W3C//DTD SVG 1.1//EN"
 "http://www.w3.org/Graphics/SVG/1.1/DTD/svg11.dtd">
<!-- Generated by graphviz version 2.38.0 (20140413.2041)
 -->
<!-- Title: vpr::SurfaceKHR Pages: 1 -->
<svg width="262pt" height="375pt"
 viewBox="0.00 0.00 261.50 375.00" xmlns="http://www.w3.org/2000/svg" xmlns:xlink="http://www.w3.org/1999/xlink">
<g id="graph0" class="graph" transform="scale(1 1) rotate(0) translate(4 371)">
<title>vpr::SurfaceKHR</title>
<polygon fill="white" stroke="none" points="-4,4 -4,-371 257.5,-371 257.5,4 -4,4"/>
<!-- Node1 -->
<g id="node1" class="node"><title>Node1</title>
<polygon fill="#bfbfbf" stroke="black" points="59.5,-0.5 59.5,-19.5 147.5,-19.5 147.5,-0.5 59.5,-0.5"/>
<text text-anchor="middle" x="103.5" y="-7.5" font-family="Helvetica,sans-Serif" font-size="10.00">vpr::SurfaceKHR</text>
</g>
<!-- Node2 -->
<g id="node2" class="node"><title>Node2</title>
<g id="a_node2"><a xlink:href="classvpr_1_1_instance.html" target="_top" xlink:title="Instance is a wrapper around the base Vulkan object that must be initialized first. ">
<polygon fill="white" stroke="black" points="68,-67.5 68,-86.5 139,-86.5 139,-67.5 68,-67.5"/>
<text text-anchor="middle" x="103.5" y="-74.5" font-family="Helvetica,sans-Serif" font-size="10.00">vpr::Instance</text>
</a>
</g>
</g>
<!-- Node2&#45;&gt;Node1 -->
<g id="edge1" class="edge"><title>Node2&#45;&gt;Node1</title>
<path fill="none" stroke="#9a32cd" stroke-dasharray="5,2" d="M103.5,-57.037C103.5,-44.6703 103.5,-29.1198 103.5,-19.6273"/>
<polygon fill="#9a32cd" stroke="#9a32cd" points="100,-57.2338 103.5,-67.2338 107,-57.2338 100,-57.2338"/>
<text text-anchor="middle" x="119" y="-41" font-family="Helvetica,sans-Serif" font-size="10.00"> parent</text>
</g>
<!-- Node3 -->
<g id="node3" class="node"><title>Node3</title>
<g id="a_node3"><a xlink:href="structvpr_1_1_instance_extension_handler.html" target="_top" xlink:title="vpr::InstanceExtensionHandler">
<polygon fill="white" stroke="black" points="29.5,-134.5 29.5,-153.5 177.5,-153.5 177.5,-134.5 29.5,-134.5"/>
<text text-anchor="middle" x="103.5" y="-141.5" font-family="Helvetica,sans-Serif" font-size="10.00">vpr::InstanceExtensionHandler</text>
</a>
</g>
</g>
<!-- Node3&#45;&gt;Node2 -->
<g id="edge2" class="edge"><title>Node3&#45;&gt;Node2</title>
<path fill="none" stroke="#9a32cd" stroke-dasharray="5,2" d="M103.5,-124.037C103.5,-111.67 103.5,-96.1198 103.5,-86.6273"/>
<polygon fill="#9a32cd" stroke="#9a32cd" points="100,-124.234 103.5,-134.234 107,-124.234 100,-124.234"/>
<text text-anchor="middle" x="143" y="-108" font-family="Helvetica,sans-Serif" font-size="10.00"> extensionHandler</text>
</g>
<!-- Node4 -->
<g id="node4" class="node"><title>Node4</title>
<polygon fill="white" stroke="#bfbfbf" points="0,-201.5 0,-231.5 95,-231.5 95,-201.5 0,-201.5"/>
<text text-anchor="start" x="8" y="-219.5" font-family="Helvetica,sans-Serif" font-size="10.00">std::vector&lt; const</text>
<text text-anchor="middle" x="47.5" y="-208.5" font-family="Helvetica,sans-Serif" font-size="10.00"> char *&gt;</text>
</g>
<!-- Node4&#45;&gt;Node3 -->
<g id="edge3" class="edge"><title>Node4&#45;&gt;Node3</title>
<path fill="none" stroke="#9a32cd" stroke-dasharray="5,2" d="M52.7359,-191.343C54.9803,-184.623 58.1272,-177.631 62.5,-172 68.459,-164.326 77.2412,-158.132 85.1505,-153.623"/>
<polygon fill="#9a32cd" stroke="#9a32cd" points="49.2338,-190.869 49.9055,-201.443 55.9741,-192.758 49.2338,-190.869"/>
<text text-anchor="middle" x="100.5" y="-175" font-family="Helvetica,sans-Serif" font-size="10.00"> extensionStrings</text>
</g>
<!-- Node5 -->
<g id="node5" class="node"><title>Node5</title>
<polygon fill="white" stroke="#bfbfbf" points="113,-207 113,-226 236,-226 236,-207 113,-207"/>
<text text-anchor="middle" x="174.5" y="-214" font-family="Helvetica,sans-Serif" font-size="10.00">std::vector&lt; std::string &gt;</text>
</g>
<!-- Node5&#45;&gt;Node3 -->
<g id="edge4" class="edge"><title>Node5&#45;&gt;Node3</title>
<path fill="none" stroke="#9a32cd" stroke-dasharray="5,2" d="M162.016,-198.684C155.431,-190.283 146.976,-180.19 138.5,-172 131.546,-165.281 122.959,-158.635 116.031,-153.618"/>
<polygon fill="#9a32cd" stroke="#9a32cd" points="159.27,-200.855 168.122,-206.676 164.832,-196.605 159.27,-200.855"/>
<text text-anchor="middle" x="200.5" y="-175" font-family="Helvetica,sans-Serif" font-size="10.00"> copiedExtensionStrings</text>
</g>
<!-- Node6 -->
<g id="node6" class="node"><title>Node6</title>
<g id="a_node6"><a xlink:title="STL class. ">
<polygon fill="white" stroke="#bfbfbf" points="144.5,-279.5 144.5,-298.5 204.5,-298.5 204.5,-279.5 144.5,-279.5"/>
<text text-anchor="middle" x="174.5" y="-286.5" font-family="Helvetica,sans-Serif" font-size="10.00">std::string</text>
</a>
</g>
</g>
<!-- Node6&#45;&gt;Node5 -->
<g id="edge5" class="edge"><title>Node6&#45;&gt;Node5</title>
<path fill="none" stroke="#9a32cd" stroke-dasharray="5,2" d="M174.5,-268.942C174.5,-255.03 174.5,-236.82 174.5,-226.215"/>
<polygon fill="#9a32cd" stroke="#9a32cd" points="171,-269.355 174.5,-279.355 178,-269.355 171,-269.355"/>
<text text-anchor="middle" x="196" y="-253" font-family="Helvetica,sans-Serif" font-size="10.00"> elements</text>
</g>
<!-- Node7 -->
<g id="node7" class="node"><title>Node7</title>
<g id="a_node7"><a xlink:title="STL class. ">
<polygon fill="white" stroke="#bfbfbf" points="127,-336.5 127,-366.5 222,-366.5 222,-336.5 127,-336.5"/>
<text text-anchor="start" x="135" y="-354.5" font-family="Helvetica,sans-Serif" font-size="10.00">std::basic_string&lt;</text>
<text text-anchor="middle" x="174.5" y="-343.5" font-family="Helvetica,sans-Serif" font-size="10.00"> char &gt;</text>
</a>
</g>
</g>
<!-- Node7&#45;&gt;Node6 -->
<g id="edge6" class="edge"><title>Node7&#45;&gt;Node6</title>
<path fill="none" stroke="midnightblue" d="M174.5,-326.352C174.5,-316.513 174.5,-305.775 174.5,-298.54"/>
<polygon fill="midnightblue" stroke="midnightblue" points="171,-326.468 174.5,-336.468 178,-326.468 171,-326.468"/>
</g>
</g>
</svg>
