<?xml version="1.0" encoding="UTF-8" standalone="no"?>
<!DOCTYPE svg PUBLIC "-//W3C//DTD SVG 1.1//EN"
 "http://www.w3.org/Graphics/SVG/1.1/DTD/svg11.dtd">
<!-- Generated by graphviz version 2.38.0 (20140413.2041)
 -->
<!-- Title: el::base::RegisteredHitCounters Pages: 1 -->
<!--zoomable 88 -->
<svg id="main" version="1.1" xmlns="http://www.w3.org/2000/svg" xmlns:xlink="http://www.w3.org/1999/xlink" xml:space="preserve" onload="init(evt)">
<style type="text/css"><![CDATA[
.edge:hover path { stroke: red; }
.edge:hover polygon { stroke: red; fill: red; }
]]></style>
<script type="text/javascript"><![CDATA[
var edges = document.getElementsByTagName('g');
if (edges && edges.length) {
  for (var i=0;i<edges.length;i++) {
    if (edges[i].id.substr(0,4)=='edge') {
      edges[i].setAttribute('class','edge');
    }
  }
}
]]></script>
        <defs>
                <circle id="rim" cx="0" cy="0" r="7"/>
                <circle id="rim2" cx="0" cy="0" r="3.5"/>
                <g id="zoomPlus">
                        <use xlink:href="#rim" fill="#404040">
                                <set attributeName="fill" to="#808080" begin="zoomplus.mouseover" end="zoomplus.mouseout"/>
                        </use>
                        <path d="M-4,0h8M0,-4v8" fill="none" stroke="white" stroke-width="1.5" pointer-events="none"/>
                </g>
                <g id="zoomMin">
                        <use xlink:href="#rim" fill="#404040">
                                <set attributeName="fill" to="#808080" begin="zoomminus.mouseover" end="zoomminus.mouseout"/>
                        </use>
                        <path d="M-4,0h8" fill="none" stroke="white" stroke-width="1.5" pointer-events="none"/>
                </g>
                <g id="dirArrow">
                        <path fill="none" stroke="white" stroke-width="1.5" d="M0,-3.0v7 M-2.5,-0.5L0,-3.0L2.5,-0.5"/>
                </g>
               <g id="resetDef">
                       <use xlink:href="#rim2" fill="#404040">
                               <set attributeName="fill" to="#808080" begin="reset.mouseover" end="reset.mouseout"/>
                       </use>
               </g>
        </defs>

<script type="text/javascript">
var viewWidth = 718;
var viewHeight = 88;
var sectionId = 'dynsection-1';
</script>
<script xlink:href="svgpan.js"/>
<svg id="graph" class="graph">
<g id="viewport">
<title>el::base::RegisteredHitCounters</title>
<polygon fill="white" stroke="none" points="-4,4 -4,-84 714,-84 714,4 -4,4"/>
<!-- Node4 -->
<g id="node1" class="node"><title>Node4</title>
<polygon fill="#bfbfbf" stroke="black" points="555,-30 555,-49 710,-49 710,-30 555,-30"/>
<text text-anchor="middle" x="632.5" y="-37" font-family="Helvetica,sans-Serif" font-size="10.00">el::base::RegisteredHitCounters</text>
</g>
<!-- Node5 -->
<g id="node2" class="node"><title>Node5</title>
<g id="a_node2"><a xlink:href="classel_1_1base_1_1utils_1_1_registry_with_pred.html" target="_top" xlink:title="el::base::utils::Registry\lWithPred\&lt; base::HitCounter,\l base::HitCounter::Predicate \&gt;">
<polygon fill="white" stroke="black" points="369,-19 369,-60 518,-60 518,-19 369,-19"/>
<text text-anchor="start" x="377" y="-48" font-family="Helvetica,sans-Serif" font-size="10.00">el::base::utils::Registry</text>
<text text-anchor="start" x="377" y="-37" font-family="Helvetica,sans-Serif" font-size="10.00">WithPred&lt; base::HitCounter,</text>
<text text-anchor="middle" x="443.5" y="-26" font-family="Helvetica,sans-Serif" font-size="10.00"> base::HitCounter::Predicate &gt;</text>
</a>
</g>
</g>
<!-- Node5&#45;&gt;Node4 -->
<g id="edge1" class="edge"><title>Node5&#45;&gt;Node4</title>
<path fill="none" stroke="midnightblue" d="M528.406,-39.5C537.212,-39.5 546.134,-39.5 554.853,-39.5"/>
<polygon fill="midnightblue" stroke="midnightblue" points="528.139,-36.0001 518.139,-39.5 528.139,-43.0001 528.139,-36.0001"/>
</g>
<!-- Node6 -->
<g id="node3" class="node"><title>Node6</title>
<g id="a_node3"><a xlink:href="classel_1_1base_1_1utils_1_1_abstract_registry.html" target="_top" xlink:title="el::base::utils::Abstract\lRegistry\&lt; base::HitCounter,\l std::vector\&lt; base::HitCounter *\&gt; \&gt;">
<polygon fill="white" stroke="black" points="164,-19 164,-60 332,-60 332,-19 164,-19"/>
<text text-anchor="start" x="172" y="-48" font-family="Helvetica,sans-Serif" font-size="10.00">el::base::utils::Abstract</text>
<text text-anchor="start" x="172" y="-37" font-family="Helvetica,sans-Serif" font-size="10.00">Registry&lt; base::HitCounter,</text>
<text text-anchor="middle" x="248" y="-26" font-family="Helvetica,sans-Serif" font-size="10.00"> std::vector&lt; base::HitCounter *&gt; &gt;</text>
</a>
</g>
</g>
<!-- Node6&#45;&gt;Node5 -->
<g id="edge2" class="edge"><title>Node6&#45;&gt;Node5</title>
<path fill="none" stroke="midnightblue" d="M342.233,-39.5C351.163,-39.5 360.132,-39.5 368.837,-39.5"/>
<polygon fill="midnightblue" stroke="midnightblue" points="342.184,-36.0001 332.184,-39.5 342.184,-43.0001 342.184,-36.0001"/>
</g>
<!-- Node7 -->
<g id="node4" class="node"><title>Node7</title>
<g id="a_node4"><a xlink:href="classel_1_1base_1_1threading_1_1_thread_safe.html" target="_top" xlink:title="Base of thread safe class, this class is inheritable&#45;only. ">
<polygon fill="white" stroke="red" points="0.5,-49.5 0.5,-79.5 97.5,-79.5 97.5,-49.5 0.5,-49.5"/>
<text text-anchor="start" x="8.5" y="-67.5" font-family="Helvetica,sans-Serif" font-size="10.00">el::base::threading</text>
<text text-anchor="middle" x="49" y="-56.5" font-family="Helvetica,sans-Serif" font-size="10.00">::ThreadSafe</text>
</a>
</g>
</g>
<!-- Node7&#45;&gt;Node6 -->
<g id="edge3" class="edge"><title>Node7&#45;&gt;Node6</title>
<path fill="none" stroke="midnightblue" d="M107.783,-57.1671C125.378,-54.9342 145.077,-52.4344 163.994,-50.0338"/>
<polygon fill="midnightblue" stroke="midnightblue" points="107.168,-53.717 97.6882,-58.4482 108.049,-60.6613 107.168,-53.717"/>
</g>
<!-- Node10 -->
<g id="node5" class="node"><title>Node10</title>
<polygon fill="white" stroke="#bfbfbf" points="0,-0.5 0,-30.5 98,-30.5 98,-0.5 0,-0.5"/>
<text text-anchor="start" x="8" y="-18.5" font-family="Helvetica,sans-Serif" font-size="10.00">std::vector&lt; base::</text>
<text text-anchor="middle" x="49" y="-7.5" font-family="Helvetica,sans-Serif" font-size="10.00">HitCounter *&gt;</text>
</g>
<!-- Node10&#45;&gt;Node6 -->
<g id="edge4" class="edge"><title>Node10&#45;&gt;Node6</title>
<path fill="none" stroke="#9a32cd" stroke-dasharray="5,2" d="M108.226,-22.5935C125.705,-24.7229 145.228,-27.1014 163.983,-29.3862"/>
<polygon fill="#9a32cd" stroke="#9a32cd" points="108.542,-19.1062 98.1916,-21.3711 107.695,-26.0548 108.542,-19.1062"/>
<text text-anchor="middle" x="131" y="-29.5" font-family="Helvetica,sans-Serif" font-size="10.00"> m_list</text>
</g>
</g>
</svg>
        <g id="navigator" transform="translate(0 0)" fill="#404254">
                <rect fill="#f2f5e9" fill-opacity="0.5" stroke="#606060" stroke-width=".5" x="0" y="0" width="60" height="60"/>
                <use id="zoomplus" xlink:href="#zoomPlus" x="17" y="9" onmousedown="handleZoom(evt,'in')"/>
                <use id="zoomminus" xlink:href="#zoomMin" x="42" y="9" onmousedown="handleZoom(evt,'out')"/>
                <use id="reset" xlink:href="#resetDef" x="30" y="36" onmousedown="handleReset()"/>
                <g id="arrowUp" xlink:href="#dirArrow" transform="translate(30 24)" onmousedown="handlePan(0,-1)">
                  <use xlink:href="#rim" fill="#404040">
                        <set attributeName="fill" to="#808080" begin="arrowUp.mouseover" end="arrowUp.mouseout"/>
                  </use>
                  <path fill="none" stroke="white" stroke-width="1.5" d="M0,-3.0v7 M-2.5,-0.5L0,-3.0L2.5,-0.5"/>
                </g>
                <g id="arrowRight" xlink:href="#dirArrow" transform="rotate(90) translate(36 -43)" onmousedown="handlePan(1,0)">
                  <use xlink:href="#rim" fill="#404040">
                        <set attributeName="fill" to="#808080" begin="arrowRight.mouseover" end="arrowRight.mouseout"/>
                  </use>
                  <path fill="none" stroke="white" stroke-width="1.5" d="M0,-3.0v7 M-2.5,-0.5L0,-3.0L2.5,-0.5"/>
                </g>
                <g id="arrowDown" xlink:href="#dirArrow" transform="rotate(180) translate(-30 -48)" onmousedown="handlePan(0,1)">
                  <use xlink:href="#rim" fill="#404040">
                        <set attributeName="fill" to="#808080" begin="arrowDown.mouseover" end="arrowDown.mouseout"/>
                  </use>
                  <path fill="none" stroke="white" stroke-width="1.5" d="M0,-3.0v7 M-2.5,-0.5L0,-3.0L2.5,-0.5"/>
                </g>
                <g id="arrowLeft" xlink:href="#dirArrow" transform="rotate(270) translate(-36 17)" onmousedown="handlePan(-1,0)">
                  <use xlink:href="#rim" fill="#404040">
                        <set attributeName="fill" to="#808080" begin="arrowLeft.mouseover" end="arrowLeft.mouseout"/>
                  </use>
                  <path fill="none" stroke="white" stroke-width="1.5" d="M0,-3.0v7 M-2.5,-0.5L0,-3.0L2.5,-0.5"/>
                </g>
        </g>
        <svg viewBox="0 0 15 15" width="100%" height="30px" preserveAspectRatio="xMaxYMin meet">
         <g id="arrow_out" transform="scale(0.3 0.3)">
          <a xlink:href="classel_1_1base_1_1_registered_hit_counters__coll__graph_org.svg" target="_base">
           <rect id="button" ry="5" rx="5" y="6" x="6" height="38" width="38"
                fill="#f2f5e9" fill-opacity="0.5" stroke="#606060" stroke-width="1.0"/>
           <path id="arrow"
             d="M 11.500037,31.436501 C 11.940474,20.09759 22.043105,11.32322 32.158766,21.979434 L 37.068811,17.246167 C 37.068811,17.246167 37.088388,32 37.088388,32 L 22.160133,31.978069 C 22.160133,31.978069 26.997745,27.140456 26.997745,27.140456 C 18.528582,18.264221 13.291696,25.230495 11.500037,31.436501 z"
             style="fill:#404040;"/>
          </a>
         </g>
        </svg>
</svg>
