<?xml version="1.0" encoding="UTF-8" standalone="no"?>
<!DOCTYPE svg PUBLIC "-//W3C//DTD SVG 1.1//EN"
 "http://www.w3.org/Graphics/SVG/1.1/DTD/svg11.dtd">
<!-- Generated by graphviz version 2.38.0 (20140413.2041)
 -->
<!-- Title: vpr::SurfaceKHR Pages: 1 -->
<svg width="1078pt" height="185pt"
 viewBox="0.00 0.00 1078.00 185.00" xmlns="http://www.w3.org/2000/svg" xmlns:xlink="http://www.w3.org/1999/xlink">
<g id="graph0" class="graph" transform="scale(1 1) rotate(0) translate(4 181)">
<title>vpr::SurfaceKHR</title>
<polygon fill="white" stroke="none" points="-4,4 -4,-181 1074,-181 1074,4 -4,4"/>
<!-- Node1 -->
<g id="node1" class="node"><title>Node1</title>
<polygon fill="#bfbfbf" stroke="black" points="629.5,-123 629.5,-142 717.5,-142 717.5,-123 629.5,-123"/>
<text text-anchor="middle" x="673.5" y="-130" font-family="Helvetica,sans-Serif" font-size="10.00">vpr::SurfaceKHR</text>
</g>
<!-- Node9 -->
<g id="node9" class="node"><title>Node9</title>
<polygon fill="white" stroke="#bfbfbf" points="775,-146.5 775,-176.5 877,-176.5 877,-146.5 775,-146.5"/>
<text text-anchor="start" x="783" y="-164.5" font-family="Helvetica,sans-Serif" font-size="10.00">std::unique_ptr&lt; vpr</text>
<text text-anchor="middle" x="826" y="-153.5" font-family="Helvetica,sans-Serif" font-size="10.00">::SurfaceKHR &gt;</text>
</g>
<!-- Node1&#45;&gt;Node9 -->
<g id="edge9" class="edge"><title>Node1&#45;&gt;Node9</title>
<path fill="none" stroke="#9a32cd" stroke-dasharray="5,2" d="M727.531,-142.719C742.948,-145.689 759.732,-148.923 774.959,-151.858"/>
<polygon fill="#9a32cd" stroke="#9a32cd" points="728.109,-139.266 717.627,-140.81 726.784,-146.139 728.109,-139.266"/>
<text text-anchor="middle" x="749.5" y="-150.5" font-family="Helvetica,sans-Serif" font-size="10.00"> ptr</text>
</g>
<!-- Node2 -->
<g id="node2" class="node"><title>Node2</title>
<g id="a_node2"><a xlink:href="classvpr_1_1_instance.html" target="_top" xlink:title="Instance is a wrapper around the base Vulkan object that must be initialized first. ">
<polygon fill="white" stroke="black" points="999,-87 999,-106 1070,-106 1070,-87 999,-87"/>
<text text-anchor="middle" x="1034.5" y="-94" font-family="Helvetica,sans-Serif" font-size="10.00">vpr::Instance</text>
</a>
</g>
</g>
<!-- Node2&#45;&gt;Node1 -->
<g id="edge1" class="edge"><title>Node2&#45;&gt;Node1</title>
<path fill="none" stroke="#9a32cd" stroke-dasharray="5,2" d="M988.701,-101.669C986.096,-101.954 983.514,-102.233 981,-102.5 887.159,-112.454 777.022,-122.943 717.667,-128.497"/>
<polygon fill="#9a32cd" stroke="#9a32cd" points="989.222,-105.133 998.774,-100.549 988.448,-98.1759 989.222,-105.133"/>
<text text-anchor="middle" x="826" y="-125.5" font-family="Helvetica,sans-Serif" font-size="10.00"> parent</text>
</g>
<!-- Node3 -->
<g id="node3" class="node"><title>Node3</title>
<polygon fill="white" stroke="#bfbfbf" points="775,-49.5 775,-79.5 877,-79.5 877,-49.5 775,-49.5"/>
<text text-anchor="start" x="783" y="-67.5" font-family="Helvetica,sans-Serif" font-size="10.00">std::unique_ptr&lt; vpr</text>
<text text-anchor="middle" x="826" y="-56.5" font-family="Helvetica,sans-Serif" font-size="10.00">::PhysicalDevice &gt;</text>
</g>
<!-- Node3&#45;&gt;Node2 -->
<g id="edge2" class="edge"><title>Node3&#45;&gt;Node2</title>
<path fill="none" stroke="#9a32cd" stroke-dasharray="5,2" d="M887.245,-73.8358C923.558,-79.463 968.512,-86.4293 998.924,-91.1419"/>
<polygon fill="#9a32cd" stroke="#9a32cd" points="887.67,-70.3599 877.252,-72.2872 886.598,-77.2773 887.67,-70.3599"/>
<text text-anchor="middle" x="938" y="-91.5" font-family="Helvetica,sans-Serif" font-size="10.00"> physicalDevice</text>
</g>
<!-- Node4 -->
<g id="node4" class="node"><title>Node4</title>
<g id="a_node4"><a xlink:href="classvpr_1_1_physical_device.html" target="_top" xlink:title="! PhysicalDevice is a wrapper around a VkPhysicalDevice object, which is itself merely a handle repre...">
<polygon fill="white" stroke="black" points="623,-55 623,-74 724,-74 724,-55 623,-55"/>
<text text-anchor="middle" x="673.5" y="-62" font-family="Helvetica,sans-Serif" font-size="10.00">vpr::PhysicalDevice</text>
</a>
</g>
</g>
<!-- Node4&#45;&gt;Node3 -->
<g id="edge3" class="edge"><title>Node4&#45;&gt;Node3</title>
<path fill="none" stroke="#9a32cd" stroke-dasharray="5,2" d="M734.303,-64.5C747.734,-64.5 761.851,-64.5 774.842,-64.5"/>
<polygon fill="#9a32cd" stroke="#9a32cd" points="734.196,-61.0001 724.196,-64.5 734.196,-68.0001 734.196,-61.0001"/>
<text text-anchor="middle" x="749.5" y="-67.5" font-family="Helvetica,sans-Serif" font-size="10.00"> ptr</text>
</g>
<!-- Node5 -->
<g id="node5" class="node"><title>Node5</title>
<polygon fill="white" stroke="#bfbfbf" points="449,-49.5 449,-79.5 565,-79.5 565,-49.5 449,-49.5"/>
<text text-anchor="start" x="457" y="-67.5" font-family="Helvetica,sans-Serif" font-size="10.00">std::unique_ptr&lt; vpr</text>
<text text-anchor="middle" x="507" y="-56.5" font-family="Helvetica,sans-Serif" font-size="10.00">::PhysicalDeviceImpl &gt;</text>
</g>
<!-- Node5&#45;&gt;Node4 -->
<g id="edge4" class="edge"><title>Node5&#45;&gt;Node4</title>
<path fill="none" stroke="#9a32cd" stroke-dasharray="5,2" d="M575.39,-64.5C591.298,-64.5 607.973,-64.5 622.928,-64.5"/>
<polygon fill="#9a32cd" stroke="#9a32cd" points="575.072,-61.0001 565.072,-64.5 575.072,-68.0001 575.072,-61.0001"/>
<text text-anchor="middle" x="594" y="-67.5" font-family="Helvetica,sans-Serif" font-size="10.00"> impl</text>
</g>
<!-- Node6 -->
<g id="node6" class="node"><title>Node6</title>
<g id="a_node6"><a xlink:href="classvpr_1_1_physical_device_impl.html" target="_top" xlink:title="vpr::PhysicalDeviceImpl">
<polygon fill="white" stroke="black" points="279,-55 279,-74 398,-74 398,-55 279,-55"/>
<text text-anchor="middle" x="338.5" y="-62" font-family="Helvetica,sans-Serif" font-size="10.00">vpr::PhysicalDeviceImpl</text>
</a>
</g>
</g>
<!-- Node6&#45;&gt;Node5 -->
<g id="edge5" class="edge"><title>Node6&#45;&gt;Node5</title>
<path fill="none" stroke="#9a32cd" stroke-dasharray="5,2" d="M408.393,-64.5C421.884,-64.5 435.894,-64.5 448.948,-64.5"/>
<polygon fill="#9a32cd" stroke="#9a32cd" points="408.202,-61.0001 398.202,-64.5 408.202,-68.0001 408.202,-61.0001"/>
<text text-anchor="middle" x="423.5" y="-67.5" font-family="Helvetica,sans-Serif" font-size="10.00"> ptr</text>
</g>
<!-- Node7 -->
<g id="node7" class="node"><title>Node7</title>
<polygon fill="white" stroke="#bfbfbf" points="0,-49.5 0,-79.5 140,-79.5 140,-49.5 0,-49.5"/>
<text text-anchor="start" x="8" y="-67.5" font-family="Helvetica,sans-Serif" font-size="10.00">std::vector&lt; VkQueueFamily</text>
<text text-anchor="middle" x="70" y="-56.5" font-family="Helvetica,sans-Serif" font-size="10.00">Properties &gt;</text>
</g>
<!-- Node7&#45;&gt;Node6 -->
<g id="edge6" class="edge"><title>Node7&#45;&gt;Node6</title>
<path fill="none" stroke="#9a32cd" stroke-dasharray="5,2" d="M150.348,-64.5C191.603,-64.5 241.148,-64.5 278.896,-64.5"/>
<polygon fill="#9a32cd" stroke="#9a32cd" points="150.324,-61.0001 140.324,-64.5 150.324,-68.0001 150.324,-61.0001"/>
<text text-anchor="middle" x="209.5" y="-67.5" font-family="Helvetica,sans-Serif" font-size="10.00"> queueFamilyProperties</text>
</g>
<!-- Node8 -->
<g id="node8" class="node"><title>Node8</title>
<polygon fill="white" stroke="#bfbfbf" points="778.5,-0.5 778.5,-30.5 873.5,-30.5 873.5,-0.5 778.5,-0.5"/>
<text text-anchor="start" x="786.5" y="-18.5" font-family="Helvetica,sans-Serif" font-size="10.00">std::vector&lt; const</text>
<text text-anchor="middle" x="826" y="-7.5" font-family="Helvetica,sans-Serif" font-size="10.00"> char *&gt;</text>
</g>
<!-- Node8&#45;&gt;Node2 -->
<g id="edge7" class="edge"><title>Node8&#45;&gt;Node2</title>
<path fill="none" stroke="#9a32cd" stroke-dasharray="5,2" d="M883.619,-28.0996C913.388,-35.7852 950.027,-46.9513 981,-61.5 995.674,-68.3928 1010.93,-79.0138 1021.19,-86.7485"/>
<polygon fill="#9a32cd" stroke="#9a32cd" points="884.358,-24.6763 873.806,-25.6268 882.647,-31.4641 884.358,-24.6763"/>
<text text-anchor="middle" x="938" y="-64.5" font-family="Helvetica,sans-Serif" font-size="10.00"> enabledExtensions</text>
</g>
<!-- Node9&#45;&gt;Node2 -->
<g id="edge8" class="edge"><title>Node9&#45;&gt;Node2</title>
<path fill="none" stroke="#9a32cd" stroke-dasharray="5,2" d="M887.295,-154.724C916.366,-150.123 951.288,-142.598 981,-130.5 996.086,-124.357 1011.52,-113.74 1021.71,-106.001"/>
<polygon fill="#9a32cd" stroke="#9a32cd" points="886.643,-151.282 877.275,-156.232 887.684,-158.204 886.643,-151.282"/>
<text text-anchor="middle" x="938" y="-155.5" font-family="Helvetica,sans-Serif" font-size="10.00"> surface</text>
</g>
</g>
</svg>
