<?xml version="1.0" encoding="UTF-8" standalone="no"?>
<!DOCTYPE svg PUBLIC "-//W3C//DTD SVG 1.1//EN"
 "http://www.w3.org/Graphics/SVG/1.1/DTD/svg11.dtd">
<!-- Generated by graphviz version 2.38.0 (20140413.2041)
 -->
<!-- Title: el::base::LogFormat::LogFormat Pages: 1 -->
<!--zoomable 225 -->
<svg id="main" version="1.1" xmlns="http://www.w3.org/2000/svg" xmlns:xlink="http://www.w3.org/1999/xlink" xml:space="preserve" onload="init(evt)">
<style type="text/css"><![CDATA[
.edge:hover path { stroke: red; }
.edge:hover polygon { stroke: red; fill: red; }
]]></style>
<script type="text/javascript"><![CDATA[
var edges = document.getElementsByTagName('g');
if (edges && edges.length) {
  for (var i=0;i<edges.length;i++) {
    if (edges[i].id.substr(0,4)=='edge') {
      edges[i].setAttribute('class','edge');
    }
  }
}
]]></script>
        <defs>
                <circle id="rim" cx="0" cy="0" r="7"/>
                <circle id="rim2" cx="0" cy="0" r="3.5"/>
                <g id="zoomPlus">
                        <use xlink:href="#rim" fill="#404040">
                                <set attributeName="fill" to="#808080" begin="zoomplus.mouseover" end="zoomplus.mouseout"/>
                        </use>
                        <path d="M-4,0h8M0,-4v8" fill="none" stroke="white" stroke-width="1.5" pointer-events="none"/>
                </g>
                <g id="zoomMin">
                        <use xlink:href="#rim" fill="#404040">
                                <set attributeName="fill" to="#808080" begin="zoomminus.mouseover" end="zoomminus.mouseout"/>
                        </use>
                        <path d="M-4,0h8" fill="none" stroke="white" stroke-width="1.5" pointer-events="none"/>
                </g>
                <g id="dirArrow">
                        <path fill="none" stroke="white" stroke-width="1.5" d="M0,-3.0v7 M-2.5,-0.5L0,-3.0L2.5,-0.5"/>
                </g>
               <g id="resetDef">
                       <use xlink:href="#rim2" fill="#404040">
                               <set attributeName="fill" to="#808080" begin="reset.mouseover" end="reset.mouseout"/>
                       </use>
               </g>
        </defs>

<script type="text/javascript">
var viewWidth = 708;
var viewHeight = 225;
var sectionId = 'dynsection-2';
</script>
<script xlink:href="svgpan.js"/>
<svg id="graph" class="graph">
<g id="viewport">
<title>el::base::LogFormat::LogFormat</title>
<polygon fill="white" stroke="none" points="-4,4 -4,-221 704,-221 704,4 -4,4"/>
<!-- Node2 -->
<g id="node1" class="node"><title>Node2</title>
<polygon fill="#bfbfbf" stroke="black" points="0,-93.5 0,-123.5 104,-123.5 104,-93.5 0,-93.5"/>
<text text-anchor="start" x="8" y="-111.5" font-family="Helvetica,sans-Serif" font-size="10.00">el::base::LogFormat</text>
<text text-anchor="middle" x="52" y="-100.5" font-family="Helvetica,sans-Serif" font-size="10.00">::LogFormat</text>
</g>
<!-- Node3 -->
<g id="node2" class="node"><title>Node3</title>
<g id="a_node2"><a xlink:href="classel_1_1base_1_1_log_format.html#ab7c1b15cfdad24cfbc6dbced8b9d66eb" target="_top" xlink:title="Updates format to be used while logging. ">
<polygon fill="white" stroke="black" points="140,-93.5 140,-123.5 244,-123.5 244,-93.5 140,-93.5"/>
<text text-anchor="start" x="148" y="-111.5" font-family="Helvetica,sans-Serif" font-size="10.00">el::base::LogFormat</text>
<text text-anchor="middle" x="192" y="-100.5" font-family="Helvetica,sans-Serif" font-size="10.00">::parseFromFormat</text>
</a>
</g>
</g>
<!-- Node2&#45;&gt;Node3 -->
<g id="edge1" class="edge"><title>Node2&#45;&gt;Node3</title>
<path fill="none" stroke="midnightblue" d="M104.386,-108.5C112.558,-108.5 121.083,-108.5 129.46,-108.5"/>
<polygon fill="midnightblue" stroke="midnightblue" points="129.571,-112 139.571,-108.5 129.571,-105 129.571,-112"/>
</g>
<!-- Node4 -->
<g id="node3" class="node"><title>Node4</title>
<g id="a_node3"><a xlink:href="classel_1_1base_1_1_log_format.html#a3ed7232a8a89d816513844ce6380c15d" target="_top" xlink:title="el::base::LogFormat\l::userFormat">
<polygon fill="white" stroke="black" points="280.5,-186.5 280.5,-216.5 384.5,-216.5 384.5,-186.5 280.5,-186.5"/>
<text text-anchor="start" x="288.5" y="-204.5" font-family="Helvetica,sans-Serif" font-size="10.00">el::base::LogFormat</text>
<text text-anchor="middle" x="332.5" y="-193.5" font-family="Helvetica,sans-Serif" font-size="10.00">::userFormat</text>
</a>
</g>
</g>
<!-- Node3&#45;&gt;Node4 -->
<g id="edge2" class="edge"><title>Node3&#45;&gt;Node4</title>
<path fill="none" stroke="midnightblue" d="M209.774,-123.774C226.677,-138.676 253.922,-161.392 280,-177.5 282.32,-178.933 284.739,-180.336 287.209,-181.699"/>
<polygon fill="midnightblue" stroke="midnightblue" points="285.806,-184.915 296.29,-186.443 289.047,-178.71 285.806,-184.915"/>
</g>
<!-- Node5 -->
<g id="node4" class="node"><title>Node5</title>
<g id="a_node4"><a xlink:href="classel_1_1base_1_1_log_format.html#ab52a480241cd721b553f43bd75686a80" target="_top" xlink:title="el::base::LogFormat\l::hasFlag">
<polygon fill="white" stroke="black" points="432.5,-95.5 432.5,-125.5 536.5,-125.5 536.5,-95.5 432.5,-95.5"/>
<text text-anchor="start" x="440.5" y="-113.5" font-family="Helvetica,sans-Serif" font-size="10.00">el::base::LogFormat</text>
<text text-anchor="middle" x="484.5" y="-102.5" font-family="Helvetica,sans-Serif" font-size="10.00">::hasFlag</text>
</a>
</g>
</g>
<!-- Node3&#45;&gt;Node5 -->
<g id="edge3" class="edge"><title>Node3&#45;&gt;Node5</title>
<path fill="none" stroke="midnightblue" d="M244.267,-108.853C293.896,-109.195 369.178,-109.713 422.006,-110.077"/>
<polygon fill="midnightblue" stroke="midnightblue" points="422.234,-113.578 432.258,-110.147 422.282,-106.578 422.234,-113.578"/>
</g>
<!-- Node7 -->
<g id="node6" class="node"><title>Node7</title>
<g id="a_node6"><a xlink:href="classel_1_1base_1_1_log_format.html#ae55910f533a6eb3b41eb75b131e522bf" target="_top" xlink:title="el::base::LogFormat\l::addFlag">
<polygon fill="white" stroke="black" points="280.5,-0.5 280.5,-30.5 384.5,-30.5 384.5,-0.5 280.5,-0.5"/>
<text text-anchor="start" x="288.5" y="-18.5" font-family="Helvetica,sans-Serif" font-size="10.00">el::base::LogFormat</text>
<text text-anchor="middle" x="332.5" y="-7.5" font-family="Helvetica,sans-Serif" font-size="10.00">::addFlag</text>
</a>
</g>
</g>
<!-- Node3&#45;&gt;Node7 -->
<g id="edge5" class="edge"><title>Node3&#45;&gt;Node7</title>
<path fill="none" stroke="midnightblue" d="M209.774,-93.2259C226.677,-78.3239 253.922,-55.6077 280,-39.5 282.32,-38.0672 284.739,-36.664 287.209,-35.3008"/>
<polygon fill="midnightblue" stroke="midnightblue" points="289.047,-38.2897 296.29,-30.5574 285.806,-32.0851 289.047,-38.2897"/>
</g>
<!-- Node9 -->
<g id="node8" class="node"><title>Node9</title>
<g id="a_node8"><a xlink:href="classel_1_1base_1_1_log_format.html#a966bed1ee6f8597152d08d4ed70a5855" target="_top" xlink:title="Updates date time format if available in currFormat. ">
<polygon fill="white" stroke="black" points="280.5,-137.5 280.5,-167.5 384.5,-167.5 384.5,-137.5 280.5,-137.5"/>
<text text-anchor="start" x="288.5" y="-155.5" font-family="Helvetica,sans-Serif" font-size="10.00">el::base::LogFormat</text>
<text text-anchor="middle" x="332.5" y="-144.5" font-family="Helvetica,sans-Serif" font-size="10.00">::updateDateFormat</text>
</a>
</g>
</g>
<!-- Node3&#45;&gt;Node9 -->
<g id="edge7" class="edge"><title>Node3&#45;&gt;Node9</title>
<path fill="none" stroke="midnightblue" d="M240.276,-123.519C251.186,-126.985 262.908,-130.709 274.193,-134.294"/>
<polygon fill="midnightblue" stroke="midnightblue" points="273.376,-137.707 283.966,-137.399 275.495,-131.036 273.376,-137.707"/>
</g>
<!-- Node10 -->
<g id="node9" class="node"><title>Node10</title>
<g id="a_node9"><a xlink:href="classel_1_1base_1_1_log_format.html#aa3c2ddecf237d0ec3eca4b2a3a442e67" target="_top" xlink:title="Updates level from format. This is so that we dont have to do it at log&#45;writing&#45;time. It uses m_format and m_level. ">
<polygon fill="white" stroke="black" points="280,-49.5 280,-79.5 385,-79.5 385,-49.5 280,-49.5"/>
<text text-anchor="start" x="288" y="-67.5" font-family="Helvetica,sans-Serif" font-size="10.00">el::base::LogFormat</text>
<text text-anchor="middle" x="332.5" y="-56.5" font-family="Helvetica,sans-Serif" font-size="10.00">::updateFormatSpec</text>
</a>
</g>
</g>
<!-- Node3&#45;&gt;Node10 -->
<g id="edge9" class="edge"><title>Node3&#45;&gt;Node10</title>
<path fill="none" stroke="midnightblue" d="M240.276,-93.4808C251.186,-90.0148 262.908,-86.2911 274.193,-82.7059"/>
<polygon fill="midnightblue" stroke="midnightblue" points="275.495,-85.9645 283.966,-79.6009 273.376,-79.2931 275.495,-85.9645"/>
</g>
<!-- Node6 -->
<g id="node5" class="node"><title>Node6</title>
<g id="a_node5"><a xlink:href="namespaceel_1_1base_1_1utils.html#a51e93c9ba0ac509b2b7a933147349891" target="_top" xlink:title="el::base::utils::hasFlag">
<polygon fill="white" stroke="black" points="584,-101 584,-120 700,-120 700,-101 584,-101"/>
<text text-anchor="middle" x="642" y="-108" font-family="Helvetica,sans-Serif" font-size="10.00">el::base::utils::hasFlag</text>
</a>
</g>
</g>
<!-- Node5&#45;&gt;Node6 -->
<g id="edge4" class="edge"><title>Node5&#45;&gt;Node6</title>
<path fill="none" stroke="midnightblue" d="M536.847,-110.5C548.597,-110.5 561.259,-110.5 573.569,-110.5"/>
<polygon fill="midnightblue" stroke="midnightblue" points="573.8,-114 583.8,-110.5 573.8,-107 573.8,-114"/>
</g>
<!-- Node8 -->
<g id="node7" class="node"><title>Node8</title>
<g id="a_node7"><a xlink:href="namespaceel_1_1base_1_1utils.html#ac6bb2e40dbcb0751dc9fa4a8d9d1df9d" target="_top" xlink:title="el::base::utils::addFlag">
<polygon fill="white" stroke="black" points="426.5,-6 426.5,-25 542.5,-25 542.5,-6 426.5,-6"/>
<text text-anchor="middle" x="484.5" y="-13" font-family="Helvetica,sans-Serif" font-size="10.00">el::base::utils::addFlag</text>
</a>
</g>
</g>
<!-- Node7&#45;&gt;Node8 -->
<g id="edge6" class="edge"><title>Node7&#45;&gt;Node8</title>
<path fill="none" stroke="midnightblue" d="M384.702,-15.5C394.864,-15.5 405.676,-15.5 416.279,-15.5"/>
<polygon fill="midnightblue" stroke="midnightblue" points="416.352,-19.0001 426.352,-15.5 416.352,-12.0001 416.352,-19.0001"/>
</g>
<!-- Node9&#45;&gt;Node5 -->
<g id="edge8" class="edge"><title>Node9&#45;&gt;Node5</title>
<path fill="none" stroke="midnightblue" d="M384.702,-138.163C396.823,-134.769 409.87,-131.116 422.382,-127.613"/>
<polygon fill="midnightblue" stroke="midnightblue" points="423.588,-130.91 432.274,-124.843 421.701,-124.169 423.588,-130.91"/>
</g>
<!-- Node10&#45;&gt;Node5 -->
<g id="edge11" class="edge"><title>Node10&#45;&gt;Node5</title>
<path fill="none" stroke="midnightblue" d="M382.616,-79.5621C396.023,-83.6736 410.688,-88.1708 424.58,-92.4312"/>
<polygon fill="midnightblue" stroke="midnightblue" points="423.944,-95.8969 434.53,-95.4826 425.996,-89.2045 423.944,-95.8969"/>
</g>
<!-- Node11 -->
<g id="node10" class="node"><title>Node11</title>
<g id="a_node10"><a xlink:href="classel_1_1base_1_1utils_1_1_str.html#a0f271d7da2bb3c1f2fa062219c0e0ba2" target="_top" xlink:title="el::base::utils::Str\l::replaceFirstWithEscape">
<polygon fill="white" stroke="black" points="421,-46.5 421,-76.5 548,-76.5 548,-46.5 421,-46.5"/>
<text text-anchor="start" x="429" y="-64.5" font-family="Helvetica,sans-Serif" font-size="10.00">el::base::utils::Str</text>
<text text-anchor="middle" x="484.5" y="-53.5" font-family="Helvetica,sans-Serif" font-size="10.00">::replaceFirstWithEscape</text>
</a>
</g>
</g>
<!-- Node10&#45;&gt;Node11 -->
<g id="edge10" class="edge"><title>Node10&#45;&gt;Node11</title>
<path fill="none" stroke="midnightblue" d="M385.121,-63.4676C393.405,-63.3019 402.112,-63.1278 410.778,-62.9544"/>
<polygon fill="midnightblue" stroke="midnightblue" points="410.977,-66.4513 420.905,-62.7519 410.837,-59.4527 410.977,-66.4513"/>
</g>
</g>
</svg>
        <g id="navigator" transform="translate(0 0)" fill="#404254">
                <rect fill="#f2f5e9" fill-opacity="0.5" stroke="#606060" stroke-width=".5" x="0" y="0" width="60" height="60"/>
                <use id="zoomplus" xlink:href="#zoomPlus" x="17" y="9" onmousedown="handleZoom(evt,'in')"/>
                <use id="zoomminus" xlink:href="#zoomMin" x="42" y="9" onmousedown="handleZoom(evt,'out')"/>
                <use id="reset" xlink:href="#resetDef" x="30" y="36" onmousedown="handleReset()"/>
                <g id="arrowUp" xlink:href="#dirArrow" transform="translate(30 24)" onmousedown="handlePan(0,-1)">
                  <use xlink:href="#rim" fill="#404040">
                        <set attributeName="fill" to="#808080" begin="arrowUp.mouseover" end="arrowUp.mouseout"/>
                  </use>
                  <path fill="none" stroke="white" stroke-width="1.5" d="M0,-3.0v7 M-2.5,-0.5L0,-3.0L2.5,-0.5"/>
                </g>
                <g id="arrowRight" xlink:href="#dirArrow" transform="rotate(90) translate(36 -43)" onmousedown="handlePan(1,0)">
                  <use xlink:href="#rim" fill="#404040">
                        <set attributeName="fill" to="#808080" begin="arrowRight.mouseover" end="arrowRight.mouseout"/>
                  </use>
                  <path fill="none" stroke="white" stroke-width="1.5" d="M0,-3.0v7 M-2.5,-0.5L0,-3.0L2.5,-0.5"/>
                </g>
                <g id="arrowDown" xlink:href="#dirArrow" transform="rotate(180) translate(-30 -48)" onmousedown="handlePan(0,1)">
                  <use xlink:href="#rim" fill="#404040">
                        <set attributeName="fill" to="#808080" begin="arrowDown.mouseover" end="arrowDown.mouseout"/>
                  </use>
                  <path fill="none" stroke="white" stroke-width="1.5" d="M0,-3.0v7 M-2.5,-0.5L0,-3.0L2.5,-0.5"/>
                </g>
                <g id="arrowLeft" xlink:href="#dirArrow" transform="rotate(270) translate(-36 17)" onmousedown="handlePan(-1,0)">
                  <use xlink:href="#rim" fill="#404040">
                        <set attributeName="fill" to="#808080" begin="arrowLeft.mouseover" end="arrowLeft.mouseout"/>
                  </use>
                  <path fill="none" stroke="white" stroke-width="1.5" d="M0,-3.0v7 M-2.5,-0.5L0,-3.0L2.5,-0.5"/>
                </g>
        </g>
        <svg viewBox="0 0 15 15" width="100%" height="30px" preserveAspectRatio="xMaxYMin meet">
         <g id="arrow_out" transform="scale(0.3 0.3)">
          <a xlink:href="classel_1_1base_1_1_log_format_a746a49231f1b046803dd2144ae2a2c76_cgraph_org.svg" target="_base">
           <rect id="button" ry="5" rx="5" y="6" x="6" height="38" width="38"
                fill="#f2f5e9" fill-opacity="0.5" stroke="#606060" stroke-width="1.0"/>
           <path id="arrow"
             d="M 11.500037,31.436501 C 11.940474,20.09759 22.043105,11.32322 32.158766,21.979434 L 37.068811,17.246167 C 37.068811,17.246167 37.088388,32 37.088388,32 L 22.160133,31.978069 C 22.160133,31.978069 26.997745,27.140456 26.997745,27.140456 C 18.528582,18.264221 13.291696,25.230495 11.500037,31.436501 z"
             style="fill:#404040;"/>
          </a>
         </g>
        </svg>
</svg>
