<?xml version="1.0" encoding="UTF-8" standalone="no"?>
<!DOCTYPE svg PUBLIC "-//W3C//DTD SVG 1.1//EN"
 "http://www.w3.org/Graphics/SVG/1.1/DTD/svg11.dtd">
<!-- Generated by graphviz version 2.38.0 (20140413.2041)
 -->
<!-- Title: el::Configurations::parseFromText Pages: 1 -->
<svg width="540pt" height="88pt"
 viewBox="0.00 0.00 540.00 88.00" xmlns="http://www.w3.org/2000/svg" xmlns:xlink="http://www.w3.org/1999/xlink">
<g id="graph0" class="graph" transform="scale(1 1) rotate(0) translate(4 84)">
<title>el::Configurations::parseFromText</title>
<polygon fill="white" stroke="none" points="-4,4 -4,-84 536,-84 536,4 -4,4"/>
<!-- Node92 -->
<g id="node1" class="node"><title>Node92</title>
<polygon fill="#bfbfbf" stroke="black" points="0,-24.5 0,-54.5 92,-54.5 92,-24.5 0,-24.5"/>
<text text-anchor="start" x="8" y="-42.5" font-family="Helvetica,sans-Serif" font-size="10.00">el::Configurations</text>
<text text-anchor="middle" x="46" y="-31.5" font-family="Helvetica,sans-Serif" font-size="10.00">::parseFromText</text>
</g>
<!-- Node93 -->
<g id="node2" class="node"><title>Node93</title>
<g id="a_node2"><a xlink:href="classel_1_1_configurations_1_1_parser.html#ae4efa4823ce108eb35bc69442155a037" target="_top" xlink:title="Parse configurations from configuration string. ">
<polygon fill="white" stroke="black" points="128,-24.5 128,-54.5 250,-54.5 250,-24.5 128,-24.5"/>
<text text-anchor="start" x="136" y="-42.5" font-family="Helvetica,sans-Serif" font-size="10.00">el::Configurations</text>
<text text-anchor="middle" x="189" y="-31.5" font-family="Helvetica,sans-Serif" font-size="10.00">::Parser::parseFromText</text>
</a>
</g>
</g>
<!-- Node92&#45;&gt;Node93 -->
<g id="edge1" class="edge"><title>Node92&#45;&gt;Node93</title>
<path fill="none" stroke="midnightblue" d="M92.001,-39.5C100.227,-39.5 108.988,-39.5 117.744,-39.5"/>
<polygon fill="midnightblue" stroke="midnightblue" points="117.988,-43.0001 127.988,-39.5 117.988,-36.0001 117.988,-43.0001"/>
</g>
<!-- Node94 -->
<g id="node3" class="node"><title>Node94</title>
<g id="a_node3"><a xlink:href="classel_1_1_configurations.html#a4c6db218908b39d23cc09b1a16a18e83" target="_top" xlink:title="Sets configuration based&#45;off an existing configurations. ">
<polygon fill="white" stroke="black" points="286,-24.5 286,-54.5 378,-54.5 378,-24.5 286,-24.5"/>
<text text-anchor="start" x="294" y="-42.5" font-family="Helvetica,sans-Serif" font-size="10.00">el::Configurations</text>
<text text-anchor="middle" x="332" y="-31.5" font-family="Helvetica,sans-Serif" font-size="10.00">::setFromBase</text>
</a>
</g>
</g>
<!-- Node93&#45;&gt;Node94 -->
<g id="edge2" class="edge"><title>Node93&#45;&gt;Node94</title>
<path fill="none" stroke="midnightblue" d="M250.206,-39.5C258.72,-39.5 267.439,-39.5 275.851,-39.5"/>
<polygon fill="midnightblue" stroke="midnightblue" points="275.926,-43.0001 285.926,-39.5 275.926,-36.0001 275.926,-43.0001"/>
</g>
<!-- Node95 -->
<g id="node4" class="node"><title>Node95</title>
<g id="a_node4"><a xlink:href="classel_1_1base_1_1threading_1_1_thread_safe.html#affb45b35790a7305d0a659562c8104fc" target="_top" xlink:title="el::base::threading\l::ThreadSafe::lock">
<polygon fill="white" stroke="black" points="424.5,-49.5 424.5,-79.5 521.5,-79.5 521.5,-49.5 424.5,-49.5"/>
<text text-anchor="start" x="432.5" y="-67.5" font-family="Helvetica,sans-Serif" font-size="10.00">el::base::threading</text>
<text text-anchor="middle" x="473" y="-56.5" font-family="Helvetica,sans-Serif" font-size="10.00">::ThreadSafe::lock</text>
</a>
</g>
</g>
<!-- Node94&#45;&gt;Node95 -->
<g id="edge3" class="edge"><title>Node94&#45;&gt;Node95</title>
<path fill="none" stroke="midnightblue" d="M378.129,-47.6168C389.648,-49.6886 402.19,-51.9443 414.247,-54.1127"/>
<polygon fill="midnightblue" stroke="midnightblue" points="413.765,-57.5821 424.226,-55.9076 415.004,-50.6927 413.765,-57.5821"/>
</g>
<!-- Node96 -->
<g id="node5" class="node"><title>Node96</title>
<g id="a_node5"><a xlink:href="classel_1_1base_1_1utils_1_1_abstract_registry.html#a072859d3728a75f910c2898f62fd12da" target="_top" xlink:title="Returns underlying container by reference. ">
<polygon fill="white" stroke="black" points="414,-0.5 414,-30.5 532,-30.5 532,-0.5 414,-0.5"/>
<text text-anchor="start" x="422" y="-18.5" font-family="Helvetica,sans-Serif" font-size="10.00">el::base::utils::Abstract</text>
<text text-anchor="middle" x="473" y="-7.5" font-family="Helvetica,sans-Serif" font-size="10.00">Registry::list</text>
</a>
</g>
</g>
<!-- Node94&#45;&gt;Node96 -->
<g id="edge4" class="edge"><title>Node94&#45;&gt;Node96</title>
<path fill="none" stroke="midnightblue" d="M378.129,-31.7079C386.423,-30.2759 395.247,-28.7523 404.038,-27.2344"/>
<polygon fill="midnightblue" stroke="midnightblue" points="404.661,-30.6787 413.92,-25.5282 403.47,-23.7808 404.661,-30.6787"/>
</g>
</g>
</svg>
