<?xml version="1.0" encoding="UTF-8" standalone="no"?>
<!DOCTYPE svg PUBLIC "-//W3C//DTD SVG 1.1//EN"
 "http://www.w3.org/Graphics/SVG/1.1/DTD/svg11.dtd">
<!-- Generated by graphviz version 2.38.0 (20140413.2041)
 -->
<!-- Title: vpr::TransferPool::completeTransfer Pages: 1 -->
<svg width="234pt" height="137pt"
 viewBox="0.00 0.00 234.00 137.00" xmlns="http://www.w3.org/2000/svg" xmlns:xlink="http://www.w3.org/1999/xlink">
<g id="graph0" class="graph" transform="scale(1 1) rotate(0) translate(4 133)">
<title>vpr::TransferPool::completeTransfer</title>
<polygon fill="white" stroke="none" points="-4,4 -4,-133 230,-133 230,4 -4,4"/>
<!-- Node27 -->
<g id="node1" class="node"><title>Node27</title>
<polygon fill="#bfbfbf" stroke="black" points="0,-49.5 0,-79.5 95,-79.5 95,-49.5 0,-49.5"/>
<text text-anchor="start" x="8" y="-67.5" font-family="Helvetica,sans-Serif" font-size="10.00">vpr::TransferPool::</text>
<text text-anchor="middle" x="47.5" y="-56.5" font-family="Helvetica,sans-Serif" font-size="10.00">completeTransfer</text>
</g>
<!-- Node28 -->
<g id="node2" class="node"><title>Node28</title>
<g id="a_node2"><a xlink:href="classvpr_1_1_transfer_pool.html#adf716e4802b14d551e52fdfd72fdf966" target="_top" xlink:title="Calls VkEndCommandBuffer on this object&#39;s command buffer, then proceeds to submit it...">
<polygon fill="white" stroke="black" points="131,-98.5 131,-128.5 226,-128.5 226,-98.5 131,-98.5"/>
<text text-anchor="start" x="139" y="-116.5" font-family="Helvetica,sans-Serif" font-size="10.00">vpr::TransferPool::</text>
<text text-anchor="middle" x="178.5" y="-105.5" font-family="Helvetica,sans-Serif" font-size="10.00">Submit</text>
</a>
</g>
</g>
<!-- Node27&#45;&gt;Node28 -->
<g id="edge1" class="edge"><title>Node27&#45;&gt;Node28</title>
<path fill="none" stroke="midnightblue" d="M97.6821,-83.1816C110.894,-88.2001 125.016,-93.5643 137.652,-98.3641"/>
<polygon fill="midnightblue" stroke="midnightblue" points="98.848,-79.8805 88.2569,-79.6014 96.3623,-86.4243 98.848,-79.8805"/>
</g>
<!-- Node29 -->
<g id="node3" class="node"><title>Node29</title>
<g id="a_node3"><a xlink:href="classvpr_1_1_transfer_pool.html#a7beaebc99032ffd31b540ec06395c774" target="_top" xlink:title="Submits all command buffers contained by this transfer pool. ">
<polygon fill="white" stroke="black" points="131,-49.5 131,-79.5 226,-79.5 226,-49.5 131,-49.5"/>
<text text-anchor="start" x="139" y="-67.5" font-family="Helvetica,sans-Serif" font-size="10.00">vpr::TransferPool::</text>
<text text-anchor="middle" x="178.5" y="-56.5" font-family="Helvetica,sans-Serif" font-size="10.00">SubmitAll</text>
</a>
</g>
</g>
<!-- Node27&#45;&gt;Node29 -->
<g id="edge2" class="edge"><title>Node27&#45;&gt;Node29</title>
<path fill="none" stroke="midnightblue" d="M105.101,-64.5C113.752,-64.5 122.596,-64.5 130.996,-64.5"/>
<polygon fill="midnightblue" stroke="midnightblue" points="105.072,-61.0001 95.072,-64.5 105.072,-68.0001 105.072,-61.0001"/>
</g>
<!-- Node30 -->
<g id="node4" class="node"><title>Node30</title>
<g id="a_node4"><a xlink:href="classvpr_1_1_transfer_pool.html#a39f6998201261adf5420a6faa2a744a6" target="_top" xlink:title="Submits but waits for the given semaphore to be signalled. ">
<polygon fill="white" stroke="black" points="131,-0.5 131,-30.5 226,-30.5 226,-0.5 131,-0.5"/>
<text text-anchor="start" x="139" y="-18.5" font-family="Helvetica,sans-Serif" font-size="10.00">vpr::TransferPool::</text>
<text text-anchor="middle" x="178.5" y="-7.5" font-family="Helvetica,sans-Serif" font-size="10.00">SubmitWait</text>
</a>
</g>
</g>
<!-- Node27&#45;&gt;Node30 -->
<g id="edge3" class="edge"><title>Node27&#45;&gt;Node30</title>
<path fill="none" stroke="midnightblue" d="M97.6821,-45.8184C110.894,-40.7999 125.016,-35.4357 137.652,-30.6359"/>
<polygon fill="midnightblue" stroke="midnightblue" points="96.3623,-42.5757 88.2569,-49.3986 98.848,-49.1195 96.3623,-42.5757"/>
</g>
</g>
</svg>
