<?xml version="1.0" encoding="UTF-8" standalone="no"?>
<!DOCTYPE svg PUBLIC "-//W3C//DTD SVG 1.1//EN"
 "http://www.w3.org/Graphics/SVG/1.1/DTD/svg11.dtd">
<!-- Generated by graphviz version 2.38.0 (20140413.2041)
 -->
<!-- Title: vpr::Device::setupQueues Pages: 1 -->
<svg width="646pt" height="186pt"
 viewBox="0.00 0.00 646.00 186.00" xmlns="http://www.w3.org/2000/svg" xmlns:xlink="http://www.w3.org/1999/xlink">
<g id="graph0" class="graph" transform="scale(1 1) rotate(0) translate(4 182)">
<title>vpr::Device::setupQueues</title>
<polygon fill="white" stroke="none" points="-4,4 -4,-182 642,-182 642,4 -4,4"/>
<!-- Node186 -->
<g id="node1" class="node"><title>Node186</title>
<polygon fill="#bfbfbf" stroke="black" points="0,-79 0,-98 127,-98 127,-79 0,-79"/>
<text text-anchor="middle" x="63.5" y="-86" font-family="Helvetica,sans-Serif" font-size="10.00">vpr::Device::setupQueues</text>
</g>
<!-- Node187 -->
<g id="node2" class="node"><title>Node187</title>
<g id="a_node2"><a xlink:href="classvpr_1_1_device.html#abdb29331fbcc15a242b3f0e82b02beef" target="_top" xlink:title="vpr::Device::setupCompute\lQueues">
<polygon fill="white" stroke="black" points="163,-0.5 163,-30.5 295,-30.5 295,-0.5 163,-0.5"/>
<text text-anchor="start" x="171" y="-18.5" font-family="Helvetica,sans-Serif" font-size="10.00">vpr::Device::setupCompute</text>
<text text-anchor="middle" x="229" y="-7.5" font-family="Helvetica,sans-Serif" font-size="10.00">Queues</text>
</a>
</g>
</g>
<!-- Node186&#45;&gt;Node187 -->
<g id="edge1" class="edge"><title>Node186&#45;&gt;Node187</title>
<path fill="none" stroke="midnightblue" d="M82.3787,-78.875C101.907,-68.5355 134.243,-51.9186 163,-39.5 167.086,-37.7354 171.349,-35.9795 175.652,-34.2667"/>
<polygon fill="midnightblue" stroke="midnightblue" points="177.032,-37.4856 185.083,-30.5993 174.495,-30.9615 177.032,-37.4856"/>
</g>
<!-- Node191 -->
<g id="node6" class="node"><title>Node191</title>
<g id="a_node6"><a xlink:href="classvpr_1_1_device.html#adbe15d529a11af4d7034a2135255e773" target="_top" xlink:title="vpr::Device::setupGraphics\lQueues">
<polygon fill="white" stroke="black" points="163,-147.5 163,-177.5 295,-177.5 295,-147.5 163,-147.5"/>
<text text-anchor="start" x="171" y="-165.5" font-family="Helvetica,sans-Serif" font-size="10.00">vpr::Device::setupGraphics</text>
<text text-anchor="middle" x="229" y="-154.5" font-family="Helvetica,sans-Serif" font-size="10.00">Queues</text>
</a>
</g>
</g>
<!-- Node186&#45;&gt;Node191 -->
<g id="edge6" class="edge"><title>Node186&#45;&gt;Node191</title>
<path fill="none" stroke="midnightblue" d="M82.4113,-98.05C101.967,-108.325 134.328,-124.888 163,-137.5 167.721,-139.577 172.673,-141.655 177.649,-143.678"/>
<polygon fill="midnightblue" stroke="midnightblue" points="176.606,-147.03 187.191,-147.482 179.198,-140.527 176.606,-147.03"/>
</g>
<!-- Node192 -->
<g id="node7" class="node"><title>Node192</title>
<g id="a_node7"><a xlink:href="classvpr_1_1_device.html#a22ee8e6517d4898282d9d6385545100a" target="_top" xlink:title="vpr::Device::setupSparse\lBindingQueues">
<polygon fill="white" stroke="black" points="167,-98.5 167,-128.5 291,-128.5 291,-98.5 167,-98.5"/>
<text text-anchor="start" x="175" y="-116.5" font-family="Helvetica,sans-Serif" font-size="10.00">vpr::Device::setupSparse</text>
<text text-anchor="middle" x="229" y="-105.5" font-family="Helvetica,sans-Serif" font-size="10.00">BindingQueues</text>
</a>
</g>
</g>
<!-- Node186&#45;&gt;Node192 -->
<g id="edge10" class="edge"><title>Node186&#45;&gt;Node192</title>
<path fill="none" stroke="midnightblue" d="M126.779,-98.0227C136.66,-99.5337 146.945,-101.106 157.009,-102.645"/>
<polygon fill="midnightblue" stroke="midnightblue" points="156.561,-106.117 166.975,-104.169 157.619,-99.1976 156.561,-106.117"/>
</g>
<!-- Node193 -->
<g id="node8" class="node"><title>Node193</title>
<g id="a_node8"><a xlink:href="classvpr_1_1_device.html#aa64b2412561fa0950722c2dc4997da9f" target="_top" xlink:title="vpr::Device::setupTransfer\lQueues">
<polygon fill="white" stroke="black" points="165,-49.5 165,-79.5 293,-79.5 293,-49.5 165,-49.5"/>
<text text-anchor="start" x="173" y="-67.5" font-family="Helvetica,sans-Serif" font-size="10.00">vpr::Device::setupTransfer</text>
<text text-anchor="middle" x="229" y="-56.5" font-family="Helvetica,sans-Serif" font-size="10.00">Queues</text>
</a>
</g>
</g>
<!-- Node186&#45;&gt;Node193 -->
<g id="edge14" class="edge"><title>Node186&#45;&gt;Node193</title>
<path fill="none" stroke="midnightblue" d="M127.246,-79.2896C136.306,-77.9597 145.696,-76.5813 154.936,-75.2249"/>
<polygon fill="midnightblue" stroke="midnightblue" points="155.496,-78.6804 164.882,-73.7651 154.479,-71.7546 155.496,-78.6804"/>
</g>
<!-- Node188 -->
<g id="node3" class="node"><title>Node188</title>
<g id="a_node3"><a xlink:href="classvpr_1_1_physical_device.html#af443c2a585d182166c464f252782a57b" target="_top" xlink:title="! Attempts to find a Queue family that supports the full bitfield given: this can be multiple types...">
<polygon fill="white" stroke="black" points="519,-52.5 519,-82.5 638,-82.5 638,-52.5 519,-52.5"/>
<text text-anchor="start" x="527" y="-70.5" font-family="Helvetica,sans-Serif" font-size="10.00">vpr::PhysicalDevice</text>
<text text-anchor="middle" x="578.5" y="-59.5" font-family="Helvetica,sans-Serif" font-size="10.00">::GetQueueFamilyIndex</text>
</a>
</g>
</g>
<!-- Node187&#45;&gt;Node188 -->
<g id="edge2" class="edge"><title>Node187&#45;&gt;Node188</title>
<path fill="none" stroke="midnightblue" d="M295.151,-15.2536C346.654,-16.2255 420.098,-20.2114 483,-33.5 499.811,-37.0516 517.683,-42.9071 533.308,-48.7665"/>
<polygon fill="midnightblue" stroke="midnightblue" points="532.127,-52.0622 542.717,-52.3947 534.646,-45.531 532.127,-52.0622"/>
</g>
<!-- Node189 -->
<g id="node4" class="node"><title>Node189</title>
<g id="a_node4"><a xlink:href="classvpr_1_1_physical_device.html#a2ee4f96b16a9762953ecad3b658d84e6" target="_top" xlink:title="vpr::PhysicalDevice\l::GetQueueFamilyProperties">
<polygon fill="white" stroke="black" points="337,-52.5 337,-82.5 477,-82.5 477,-52.5 337,-52.5"/>
<text text-anchor="start" x="345" y="-70.5" font-family="Helvetica,sans-Serif" font-size="10.00">vpr::PhysicalDevice</text>
<text text-anchor="middle" x="407" y="-59.5" font-family="Helvetica,sans-Serif" font-size="10.00">::GetQueueFamilyProperties</text>
</a>
</g>
</g>
<!-- Node187&#45;&gt;Node189 -->
<g id="edge3" class="edge"><title>Node187&#45;&gt;Node189</title>
<path fill="none" stroke="midnightblue" d="M280.906,-30.5406C301.064,-36.4963 324.4,-43.391 345.418,-49.6009"/>
<polygon fill="midnightblue" stroke="midnightblue" points="344.626,-53.0163 355.208,-52.4932 346.609,-46.3032 344.626,-53.0163"/>
</g>
<!-- Node190 -->
<g id="node5" class="node"><title>Node190</title>
<g id="a_node5"><a xlink:href="classvpr_1_1_device.html#af043c9b7994791cc4ae4b8a76a8d8918" target="_top" xlink:title="vpr::Device::SetupQueueFamily">
<polygon fill="white" stroke="black" points="331,-102 331,-121 483,-121 483,-102 331,-102"/>
<text text-anchor="middle" x="407" y="-109" font-family="Helvetica,sans-Serif" font-size="10.00">vpr::Device::SetupQueueFamily</text>
</a>
</g>
</g>
<!-- Node187&#45;&gt;Node190 -->
<g id="edge5" class="edge"><title>Node187&#45;&gt;Node190</title>
<path fill="none" stroke="midnightblue" d="M280.63,-30.6094C285.727,-33.1627 290.627,-36.1096 295,-39.5 317.215,-56.7226 308.008,-75.3298 331,-91.5 334.472,-93.9419 338.225,-96.0857 342.138,-97.9678"/>
<polygon fill="midnightblue" stroke="midnightblue" points="340.924,-101.254 351.499,-101.901 343.636,-94.8007 340.924,-101.254"/>
</g>
<!-- Node189&#45;&gt;Node188 -->
<g id="edge4" class="edge"><title>Node189&#45;&gt;Node188</title>
<path fill="none" stroke="midnightblue" d="M477.431,-67.5C487.785,-67.5 498.455,-67.5 508.793,-67.5"/>
<polygon fill="midnightblue" stroke="midnightblue" points="508.998,-71.0001 518.998,-67.5 508.998,-64.0001 508.998,-71.0001"/>
</g>
<!-- Node191&#45;&gt;Node188 -->
<g id="edge7" class="edge"><title>Node191&#45;&gt;Node188</title>
<path fill="none" stroke="midnightblue" d="M295.143,-170.935C347.783,-175.084 422.763,-174.843 483,-150.5 514.317,-137.844 542.291,-110.178 559.528,-90.2629"/>
<polygon fill="midnightblue" stroke="midnightblue" points="562.269,-92.4403 566.021,-82.532 556.909,-87.938 562.269,-92.4403"/>
</g>
<!-- Node191&#45;&gt;Node189 -->
<g id="edge8" class="edge"><title>Node191&#45;&gt;Node189</title>
<path fill="none" stroke="midnightblue" d="M278.04,-147.408C284.012,-144.572 289.828,-141.284 295,-137.5 315.671,-122.377 309.991,-107.15 331,-92.5 333.845,-90.5166 336.858,-88.6811 339.98,-86.9838"/>
<polygon fill="midnightblue" stroke="midnightblue" points="341.572,-90.101 349.012,-82.5578 338.492,-83.8151 341.572,-90.101"/>
</g>
<!-- Node191&#45;&gt;Node190 -->
<g id="edge9" class="edge"><title>Node191&#45;&gt;Node190</title>
<path fill="none" stroke="midnightblue" d="M281.854,-147.474C307.788,-139.959 338.79,-130.975 363.327,-123.866"/>
<polygon fill="midnightblue" stroke="midnightblue" points="364.439,-127.187 373.07,-121.042 362.491,-120.464 364.439,-127.187"/>
</g>
<!-- Node192&#45;&gt;Node188 -->
<g id="edge11" class="edge"><title>Node192&#45;&gt;Node188</title>
<path fill="none" stroke="midnightblue" d="M286.32,-128.529C338.466,-139.837 417.587,-150.305 483,-130.5 509.676,-122.423 535.704,-104.059 553.667,-89.2295"/>
<polygon fill="midnightblue" stroke="midnightblue" points="555.976,-91.8598 561.326,-82.7146 551.441,-86.5279 555.976,-91.8598"/>
</g>
<!-- Node192&#45;&gt;Node189 -->
<g id="edge13" class="edge"><title>Node192&#45;&gt;Node189</title>
<path fill="none" stroke="midnightblue" d="M287.629,-98.4379C303.971,-94.1667 321.905,-89.4793 338.762,-85.0735"/>
<polygon fill="midnightblue" stroke="midnightblue" points="339.752,-88.4324 348.542,-82.5174 337.982,-81.6599 339.752,-88.4324"/>
</g>
<!-- Node192&#45;&gt;Node190 -->
<g id="edge12" class="edge"><title>Node192&#45;&gt;Node190</title>
<path fill="none" stroke="midnightblue" d="M291.062,-112.806C300.568,-112.698 310.538,-112.585 320.465,-112.472"/>
<polygon fill="midnightblue" stroke="midnightblue" points="320.815,-115.968 330.775,-112.355 320.736,-108.969 320.815,-115.968"/>
</g>
<!-- Node193&#45;&gt;Node188 -->
<g id="edge15" class="edge"><title>Node193&#45;&gt;Node188</title>
<path fill="none" stroke="midnightblue" d="M288.666,-49.4992C302.46,-46.5921 317.172,-43.9886 331,-42.5 398.167,-35.2695 416.008,-33.7885 483,-42.5 495.35,-44.1059 508.384,-46.8454 520.696,-49.9366"/>
<polygon fill="midnightblue" stroke="midnightblue" points="519.828,-53.3271 530.388,-52.4761 521.602,-46.5557 519.828,-53.3271"/>
</g>
<!-- Node193&#45;&gt;Node189 -->
<g id="edge17" class="edge"><title>Node193&#45;&gt;Node189</title>
<path fill="none" stroke="midnightblue" d="M293.043,-65.5746C303.917,-65.76 315.346,-65.9548 326.587,-66.1464"/>
<polygon fill="midnightblue" stroke="midnightblue" points="326.777,-69.65 336.835,-66.321 326.896,-62.651 326.777,-69.65"/>
</g>
<!-- Node193&#45;&gt;Node190 -->
<g id="edge16" class="edge"><title>Node193&#45;&gt;Node190</title>
<path fill="none" stroke="midnightblue" d="M286.093,-79.5017C300.711,-83.4095 316.445,-87.6139 331,-91.5 340.47,-94.0284 350.613,-96.7346 360.282,-99.3133"/>
<polygon fill="midnightblue" stroke="midnightblue" points="359.575,-102.747 370.139,-101.942 361.378,-95.9833 359.575,-102.747"/>
</g>
</g>
</svg>
