<?xml version="1.0" encoding="UTF-8" standalone="no"?>
<!DOCTYPE svg PUBLIC "-//W3C//DTD SVG 1.1//EN"
 "http://www.w3.org/Graphics/SVG/1.1/DTD/svg11.dtd">
<!-- Generated by graphviz version 2.38.0 (20140413.2041)
 -->
<!-- Title: vpr::PipelineCache::~PipelineCache Pages: 1 -->
<svg width="382pt" height="61pt"
 viewBox="0.00 0.00 382.00 61.00" xmlns="http://www.w3.org/2000/svg" xmlns:xlink="http://www.w3.org/1999/xlink">
<g id="graph0" class="graph" transform="scale(1 1) rotate(0) translate(4 57)">
<title>vpr::PipelineCache::~PipelineCache</title>
<polygon fill="white" stroke="none" points="-4,4 -4,-57 378,-57 378,4 -4,4"/>
<!-- Node8 -->
<g id="node1" class="node"><title>Node8</title>
<polygon fill="#bfbfbf" stroke="black" points="0,-0.5 0,-30.5 97,-30.5 97,-0.5 0,-0.5"/>
<text text-anchor="start" x="8" y="-18.5" font-family="Helvetica,sans-Serif" font-size="10.00">vpr::PipelineCache</text>
<text text-anchor="middle" x="48.5" y="-7.5" font-family="Helvetica,sans-Serif" font-size="10.00">::~PipelineCache</text>
</g>
<!-- Node9 -->
<g id="node2" class="node"><title>Node9</title>
<g id="a_node2"><a xlink:href="classvpr_1_1_pipeline_cache.html#a5f5d17b3c6d668d22932ef2b3c6a6122" target="_top" xlink:title="vpr::PipelineCache\l::saveToFile">
<polygon fill="white" stroke="black" points="133,-22.5 133,-52.5 230,-52.5 230,-22.5 133,-22.5"/>
<text text-anchor="start" x="141" y="-40.5" font-family="Helvetica,sans-Serif" font-size="10.00">vpr::PipelineCache</text>
<text text-anchor="middle" x="181.5" y="-29.5" font-family="Helvetica,sans-Serif" font-size="10.00">::saveToFile</text>
</a>
</g>
</g>
<!-- Node8&#45;&gt;Node9 -->
<g id="edge1" class="edge"><title>Node8&#45;&gt;Node9</title>
<path fill="none" stroke="midnightblue" d="M97.1646,-23.5047C105.472,-24.8999 114.195,-26.3647 122.739,-27.7996"/>
<polygon fill="midnightblue" stroke="midnightblue" points="122.21,-31.2597 132.651,-29.4644 123.369,-24.3564 122.21,-31.2597"/>
</g>
<!-- Node10 -->
<g id="node3" class="node"><title>Node10</title>
<g id="a_node3"><a xlink:href="classvpr_1_1_device.html#a59882855173bef0b13a17b376ea01d45" target="_top" xlink:title="vpr::Device::vkHandle">
<polygon fill="white" stroke="black" points="266,-6 266,-25 374,-25 374,-6 266,-6"/>
<text text-anchor="middle" x="320" y="-13" font-family="Helvetica,sans-Serif" font-size="10.00">vpr::Device::vkHandle</text>
</a>
</g>
</g>
<!-- Node8&#45;&gt;Node10 -->
<g id="edge3" class="edge"><title>Node8&#45;&gt;Node10</title>
<path fill="none" stroke="midnightblue" d="M97.1855,-14.1608C108.896,-13.8863 121.4,-13.6389 133,-13.5 176.108,-12.9838 186.892,-13.0157 230,-13.5 238.331,-13.5936 247.099,-13.7365 255.752,-13.9037"/>
<polygon fill="midnightblue" stroke="midnightblue" points="255.754,-17.4043 265.823,-14.1097 255.897,-10.4058 255.754,-17.4043"/>
</g>
<!-- Node9&#45;&gt;Node10 -->
<g id="edge2" class="edge"><title>Node9&#45;&gt;Node10</title>
<path fill="none" stroke="midnightblue" d="M230.241,-29.8055C238.53,-28.4696 247.263,-27.062 255.887,-25.6721"/>
<polygon fill="midnightblue" stroke="midnightblue" points="256.611,-29.1007 265.926,-24.054 255.497,-22.1899 256.611,-29.1007"/>
</g>
</g>
</svg>
