<?xml version="1.0" encoding="UTF-8" standalone="no"?>
<!DOCTYPE svg PUBLIC "-//W3C//DTD SVG 1.1//EN"
 "http://www.w3.org/Graphics/SVG/1.1/DTD/svg11.dtd">
<!-- Generated by graphviz version 2.38.0 (20140413.2041)
 -->
<!-- Title: vpr::Allocator::AllocateMemory Pages: 1 -->
<svg width="442pt" height="88pt"
 viewBox="0.00 0.00 442.00 88.00" xmlns="http://www.w3.org/2000/svg" xmlns:xlink="http://www.w3.org/1999/xlink">
<g id="graph0" class="graph" transform="scale(1 1) rotate(0) translate(4 84)">
<title>vpr::Allocator::AllocateMemory</title>
<polygon fill="white" stroke="none" points="-4,4 -4,-84 438,-84 438,4 -4,4"/>
<!-- Node61 -->
<g id="node1" class="node"><title>Node61</title>
<polygon fill="#bfbfbf" stroke="black" points="0,-24.5 0,-54.5 114,-54.5 114,-24.5 0,-24.5"/>
<text text-anchor="start" x="8" y="-42.5" font-family="Helvetica,sans-Serif" font-size="10.00">vpr::Allocator::Allocate</text>
<text text-anchor="middle" x="57" y="-31.5" font-family="Helvetica,sans-Serif" font-size="10.00">Memory</text>
</g>
<!-- Node62 -->
<g id="node2" class="node"><title>Node62</title>
<g id="a_node2"><a xlink:href="classvpr_1_1_allocator.html#aa8aad8539721142d8dfa92a3196ab90b" target="_top" xlink:title="vpr::Allocator::Allocate\lForBuffer">
<polygon fill="white" stroke="black" points="150,-49.5 150,-79.5 264,-79.5 264,-49.5 150,-49.5"/>
<text text-anchor="start" x="158" y="-67.5" font-family="Helvetica,sans-Serif" font-size="10.00">vpr::Allocator::Allocate</text>
<text text-anchor="middle" x="207" y="-56.5" font-family="Helvetica,sans-Serif" font-size="10.00">ForBuffer</text>
</a>
</g>
</g>
<!-- Node61&#45;&gt;Node62 -->
<g id="edge1" class="edge"><title>Node61&#45;&gt;Node62</title>
<path fill="none" stroke="midnightblue" d="M124.28,-50.696C132.796,-52.1344 141.449,-53.5961 149.782,-55.0037"/>
<polygon fill="midnightblue" stroke="midnightblue" points="124.818,-47.2373 114.375,-49.0227 123.652,-54.1395 124.818,-47.2373"/>
</g>
<!-- Node64 -->
<g id="node4" class="node"><title>Node64</title>
<g id="a_node4"><a xlink:href="classvpr_1_1_allocator.html#a79b5ace2d3d620783793593c99d50d4e" target="_top" xlink:title="vpr::Allocator::Allocate\lForImage">
<polygon fill="white" stroke="black" points="150,-0.5 150,-30.5 264,-30.5 264,-0.5 150,-0.5"/>
<text text-anchor="start" x="158" y="-18.5" font-family="Helvetica,sans-Serif" font-size="10.00">vpr::Allocator::Allocate</text>
<text text-anchor="middle" x="207" y="-7.5" font-family="Helvetica,sans-Serif" font-size="10.00">ForImage</text>
</a>
</g>
</g>
<!-- Node61&#45;&gt;Node64 -->
<g id="edge3" class="edge"><title>Node61&#45;&gt;Node64</title>
<path fill="none" stroke="midnightblue" d="M124.28,-28.7519C132.796,-27.371 141.449,-25.9678 149.782,-24.6164"/>
<polygon fill="midnightblue" stroke="midnightblue" points="123.685,-25.3025 114.375,-30.3582 124.806,-32.2122 123.685,-25.3025"/>
</g>
<!-- Node63 -->
<g id="node3" class="node"><title>Node63</title>
<g id="a_node3"><a xlink:href="classvpr_1_1_allocator.html#a98ce3e7a210998e2e6723079ae2bb8ff" target="_top" xlink:title="vpr::Allocator::CreateBuffer">
<polygon fill="white" stroke="black" points="301,-55 301,-74 433,-74 433,-55 301,-55"/>
<text text-anchor="middle" x="367" y="-62" font-family="Helvetica,sans-Serif" font-size="10.00">vpr::Allocator::CreateBuffer</text>
</a>
</g>
</g>
<!-- Node62&#45;&gt;Node63 -->
<g id="edge2" class="edge"><title>Node62&#45;&gt;Node63</title>
<path fill="none" stroke="midnightblue" d="M274.331,-64.5C283.11,-64.5 292.103,-64.5 300.862,-64.5"/>
<polygon fill="midnightblue" stroke="midnightblue" points="274.15,-61.0001 264.15,-64.5 274.15,-68.0001 274.15,-61.0001"/>
</g>
<!-- Node65 -->
<g id="node5" class="node"><title>Node65</title>
<g id="a_node5"><a xlink:href="classvpr_1_1_allocator.html#a2fe7722a4b3f19bd7705a80be50171bb" target="_top" xlink:title="vpr::Allocator::CreateImage">
<polygon fill="white" stroke="black" points="300,-6 300,-25 434,-25 434,-6 300,-6"/>
<text text-anchor="middle" x="367" y="-13" font-family="Helvetica,sans-Serif" font-size="10.00">vpr::Allocator::CreateImage</text>
</a>
</g>
</g>
<!-- Node64&#45;&gt;Node65 -->
<g id="edge4" class="edge"><title>Node64&#45;&gt;Node65</title>
<path fill="none" stroke="midnightblue" d="M274.301,-15.5C282.725,-15.5 291.347,-15.5 299.77,-15.5"/>
<polygon fill="midnightblue" stroke="midnightblue" points="274.15,-12.0001 264.15,-15.5 274.15,-19.0001 274.15,-12.0001"/>
</g>
</g>
</svg>
