<?xml version="1.0" encoding="UTF-8" standalone="no"?>
<!DOCTYPE svg PUBLIC "-//W3C//DTD SVG 1.1//EN"
 "http://www.w3.org/Graphics/SVG/1.1/DTD/svg11.dtd">
<!-- Generated by graphviz version 2.38.0 (20140413.2041)
 -->
<!-- Title: el::base::TypedConfigurations::logFormat Pages: 1 -->
<svg width="630pt" height="165pt"
 viewBox="0.00 0.00 630.00 165.00" xmlns="http://www.w3.org/2000/svg" xmlns:xlink="http://www.w3.org/1999/xlink">
<g id="graph0" class="graph" transform="scale(1 1) rotate(0) translate(4 161)">
<title>el::base::TypedConfigurations::logFormat</title>
<polygon fill="white" stroke="none" points="-4,4 -4,-161 626,-161 626,4 -4,4"/>
<!-- Node99 -->
<g id="node1" class="node"><title>Node99</title>
<polygon fill="#bfbfbf" stroke="black" points="0,-87.5 0,-117.5 145,-117.5 145,-87.5 0,-87.5"/>
<text text-anchor="start" x="8" y="-105.5" font-family="Helvetica,sans-Serif" font-size="10.00">el::base::TypedConfigurations</text>
<text text-anchor="middle" x="72.5" y="-94.5" font-family="Helvetica,sans-Serif" font-size="10.00">::logFormat</text>
</g>
<!-- Node100 -->
<g id="node2" class="node"><title>Node100</title>
<g id="a_node2"><a xlink:href="classel_1_1base_1_1_default_log_builder.html#a9ee7983bc51f1fac887806e909ecbbbd" target="_top" xlink:title="el::base::DefaultLogBuilder\l::build">
<polygon fill="white" stroke="black" points="181,-112.5 181,-142.5 314,-142.5 314,-112.5 181,-112.5"/>
<text text-anchor="start" x="189" y="-130.5" font-family="Helvetica,sans-Serif" font-size="10.00">el::base::DefaultLogBuilder</text>
<text text-anchor="middle" x="247.5" y="-119.5" font-family="Helvetica,sans-Serif" font-size="10.00">::build</text>
</a>
</g>
</g>
<!-- Node99&#45;&gt;Node100 -->
<g id="edge1" class="edge"><title>Node99&#45;&gt;Node100</title>
<path fill="none" stroke="midnightblue" d="M155.145,-114.298C163.733,-115.539 172.384,-116.79 180.759,-118"/>
<polygon fill="midnightblue" stroke="midnightblue" points="155.512,-110.815 145.115,-112.849 154.511,-117.743 155.512,-110.815"/>
</g>
<!-- Node101 -->
<g id="node3" class="node"><title>Node101</title>
<g id="a_node3"><a xlink:href="classel_1_1_logger.html#acfb9ef869b9b4dc3efd78d7f64b8bebd" target="_top" xlink:title="el::Logger::resolveLogger\lFormatSpec">
<polygon fill="white" stroke="black" points="185,-63.5 185,-93.5 310,-93.5 310,-63.5 185,-63.5"/>
<text text-anchor="start" x="193" y="-81.5" font-family="Helvetica,sans-Serif" font-size="10.00">el::Logger::resolveLogger</text>
<text text-anchor="middle" x="247.5" y="-70.5" font-family="Helvetica,sans-Serif" font-size="10.00">FormatSpec</text>
</a>
</g>
</g>
<!-- Node99&#45;&gt;Node101 -->
<g id="edge2" class="edge"><title>Node99&#45;&gt;Node101</title>
<path fill="none" stroke="midnightblue" d="M155.084,-91.182C165.102,-89.7922 175.209,-88.3901 184.864,-87.0506"/>
<polygon fill="midnightblue" stroke="midnightblue" points="154.539,-87.724 145.115,-92.565 155.501,-94.6576 154.539,-87.724"/>
</g>
<!-- Node102 -->
<g id="node4" class="node"><title>Node102</title>
<g id="a_node4"><a xlink:href="classel_1_1_logger.html#ad9db621dbf8977bf814dc7baea8dcee4" target="_top" xlink:title="Configures the logger using specified configurations. ">
<polygon fill="white" stroke="black" points="350,-69 350,-88 454,-88 454,-69 350,-69"/>
<text text-anchor="middle" x="402" y="-76" font-family="Helvetica,sans-Serif" font-size="10.00">el::Logger::configure</text>
</a>
</g>
</g>
<!-- Node101&#45;&gt;Node102 -->
<g id="edge3" class="edge"><title>Node101&#45;&gt;Node102</title>
<path fill="none" stroke="midnightblue" d="M320.096,-78.5C330.167,-78.5 340.346,-78.5 349.928,-78.5"/>
<polygon fill="midnightblue" stroke="midnightblue" points="320.088,-75.0001 310.088,-78.5 320.088,-82.0001 320.088,-75.0001"/>
</g>
<!-- Node103 -->
<g id="node5" class="node"><title>Node103</title>
<g id="a_node5"><a xlink:href="classel_1_1_loggers.html#adedfcc17831fe3d3f14026c91e8df88c" target="_top" xlink:title="Sets configurations from global configuration file. ">
<polygon fill="white" stroke="black" points="490,-126.5 490,-156.5 622,-156.5 622,-126.5 490,-126.5"/>
<text text-anchor="start" x="498" y="-144.5" font-family="Helvetica,sans-Serif" font-size="10.00">el::Loggers::configureFrom</text>
<text text-anchor="middle" x="556" y="-133.5" font-family="Helvetica,sans-Serif" font-size="10.00">Global</text>
</a>
</g>
</g>
<!-- Node102&#45;&gt;Node103 -->
<g id="edge4" class="edge"><title>Node102&#45;&gt;Node103</title>
<path fill="none" stroke="midnightblue" d="M433.571,-92.2507C450.186,-99.6229 471.136,-108.757 490,-116.5 498.053,-119.806 506.718,-123.229 515.014,-126.443"/>
<polygon fill="midnightblue" stroke="midnightblue" points="434.897,-89.01 424.339,-88.1375 432.049,-95.4041 434.897,-89.01"/>
</g>
<!-- Node104 -->
<g id="node6" class="node"><title>Node104</title>
<g id="a_node6"><a xlink:href="classel_1_1_logger.html#a43abea8865d7316f05c8a676a8c04896" target="_top" xlink:title="el::Logger::Logger">
<polygon fill="white" stroke="black" points="508.5,-88 508.5,-107 603.5,-107 603.5,-88 508.5,-88"/>
<text text-anchor="middle" x="556" y="-95" font-family="Helvetica,sans-Serif" font-size="10.00">el::Logger::Logger</text>
</a>
</g>
</g>
<!-- Node102&#45;&gt;Node104 -->
<g id="edge5" class="edge"><title>Node102&#45;&gt;Node104</title>
<path fill="none" stroke="midnightblue" d="M464.116,-86.1395C478.898,-87.9872 494.461,-89.9326 508.449,-91.6812"/>
<polygon fill="midnightblue" stroke="midnightblue" points="464.394,-82.647 454.037,-84.8796 463.525,-89.593 464.394,-82.647"/>
</g>
<!-- Node105 -->
<g id="node7" class="node"><title>Node105</title>
<g id="a_node7"><a xlink:href="classel_1_1_logger.html#adfd57ab27fb398cc980a3edfab92927e" target="_top" xlink:title="Reconfigures logger using existing configurations. ">
<polygon fill="white" stroke="red" points="499.5,-50 499.5,-69 612.5,-69 612.5,-50 499.5,-50"/>
<text text-anchor="middle" x="556" y="-57" font-family="Helvetica,sans-Serif" font-size="10.00">el::Logger::reconfigure</text>
</a>
</g>
</g>
<!-- Node102&#45;&gt;Node105 -->
<g id="edge6" class="edge"><title>Node102&#45;&gt;Node105</title>
<path fill="none" stroke="midnightblue" d="M464.127,-70.8592C475.784,-69.4021 487.926,-67.8842 499.399,-66.4501"/>
<polygon fill="midnightblue" stroke="midnightblue" points="463.525,-67.407 454.037,-72.1204 464.394,-74.353 463.525,-67.407"/>
</g>
<!-- Node109 -->
<g id="node8" class="node"><title>Node109</title>
<g id="a_node8"><a xlink:href="classel_1_1_loggers.html#a02223004494a404a2c3e7cd0c4380d3b" target="_top" xlink:title="Reconfigures specified logger with new configurations. ">
<polygon fill="white" stroke="red" points="497,-0.5 497,-30.5 615,-30.5 615,-0.5 497,-0.5"/>
<text text-anchor="start" x="505" y="-18.5" font-family="Helvetica,sans-Serif" font-size="10.00">el::Loggers::reconfigure</text>
<text text-anchor="middle" x="556" y="-7.5" font-family="Helvetica,sans-Serif" font-size="10.00">Logger</text>
</a>
</g>
</g>
<!-- Node102&#45;&gt;Node109 -->
<g id="edge7" class="edge"><title>Node102&#45;&gt;Node109</title>
<path fill="none" stroke="midnightblue" d="M433.571,-64.7493C450.186,-57.3771 471.136,-48.243 490,-40.5 498.053,-37.1945 506.718,-33.7708 515.014,-30.5568"/>
<polygon fill="midnightblue" stroke="midnightblue" points="432.049,-61.5959 424.339,-68.8625 434.897,-67.99 432.049,-61.5959"/>
</g>
</g>
</svg>
