<?xml version="1.0" encoding="UTF-8" standalone="no"?>
<!DOCTYPE svg PUBLIC "-//W3C//DTD SVG 1.1//EN"
 "http://www.w3.org/Graphics/SVG/1.1/DTD/svg11.dtd">
<!-- Generated by graphviz version 2.38.0 (20140413.2041)
 -->
<!-- Title: el::LevelHelper::forEachLevel Pages: 1 -->
<!--zoomable 333 -->
<svg id="main" version="1.1" xmlns="http://www.w3.org/2000/svg" xmlns:xlink="http://www.w3.org/1999/xlink" xml:space="preserve" onload="init(evt)">
<style type="text/css"><![CDATA[
.edge:hover path { stroke: red; }
.edge:hover polygon { stroke: red; fill: red; }
]]></style>
<script type="text/javascript"><![CDATA[
var edges = document.getElementsByTagName('g');
if (edges && edges.length) {
  for (var i=0;i<edges.length;i++) {
    if (edges[i].id.substr(0,4)=='edge') {
      edges[i].setAttribute('class','edge');
    }
  }
}
]]></script>
        <defs>
                <circle id="rim" cx="0" cy="0" r="7"/>
                <circle id="rim2" cx="0" cy="0" r="3.5"/>
                <g id="zoomPlus">
                        <use xlink:href="#rim" fill="#404040">
                                <set attributeName="fill" to="#808080" begin="zoomplus.mouseover" end="zoomplus.mouseout"/>
                        </use>
                        <path d="M-4,0h8M0,-4v8" fill="none" stroke="white" stroke-width="1.5" pointer-events="none"/>
                </g>
                <g id="zoomMin">
                        <use xlink:href="#rim" fill="#404040">
                                <set attributeName="fill" to="#808080" begin="zoomminus.mouseover" end="zoomminus.mouseout"/>
                        </use>
                        <path d="M-4,0h8" fill="none" stroke="white" stroke-width="1.5" pointer-events="none"/>
                </g>
                <g id="dirArrow">
                        <path fill="none" stroke="white" stroke-width="1.5" d="M0,-3.0v7 M-2.5,-0.5L0,-3.0L2.5,-0.5"/>
                </g>
               <g id="resetDef">
                       <use xlink:href="#rim2" fill="#404040">
                               <set attributeName="fill" to="#808080" begin="reset.mouseover" end="reset.mouseout"/>
                       </use>
               </g>
        </defs>

<script type="text/javascript">
var viewWidth = 1003;
var viewHeight = 333;
var sectionId = 'dynsection-7';
</script>
<script xlink:href="svgpan.js"/>
<svg id="graph" class="graph">
<g id="viewport">
<title>el::LevelHelper::forEachLevel</title>
<polygon fill="white" stroke="none" points="-4,4 -4,-329 999,-329 999,4 -4,4"/>
<!-- Node43 -->
<g id="node1" class="node"><title>Node43</title>
<polygon fill="#bfbfbf" stroke="black" points="0,-146.5 0,-176.5 119,-176.5 119,-146.5 0,-146.5"/>
<text text-anchor="start" x="8" y="-164.5" font-family="Helvetica,sans-Serif" font-size="10.00">el::LevelHelper::forEach</text>
<text text-anchor="middle" x="59.5" y="-153.5" font-family="Helvetica,sans-Serif" font-size="10.00">Level</text>
</g>
<!-- Node44 -->
<g id="node2" class="node"><title>Node44</title>
<g id="a_node2"><a xlink:href="classel_1_1_logger.html#a9a89d454008b1ee1a197eec4b92ce22a" target="_top" xlink:title="Flushes logger to sync all log files for all levels. ">
<polygon fill="white" stroke="black" points="174.5,-270 174.5,-289 260.5,-289 260.5,-270 174.5,-270"/>
<text text-anchor="middle" x="217.5" y="-277" font-family="Helvetica,sans-Serif" font-size="10.00">el::Logger::flush</text>
</a>
</g>
</g>
<!-- Node43&#45;&gt;Node44 -->
<g id="edge1" class="edge"><title>Node43&#45;&gt;Node44</title>
<path fill="none" stroke="midnightblue" d="M77.1139,-184.846C94.2343,-207.284 122.893,-240.631 155,-260.5 161.177,-264.322 168.182,-267.429 175.196,-269.936"/>
<polygon fill="midnightblue" stroke="midnightblue" points="79.708,-182.47 70.9249,-176.545 74.0959,-186.654 79.708,-182.47"/>
</g>
<!-- Node57 -->
<g id="node15" class="node"><title>Node57</title>
<g id="a_node15"><a xlink:href="classel_1_1_configurations.html#a1e812370f896b6429bf46b31fcd4e3e0" target="_top" xlink:title="Determines whether or not specified configuration type exists in the repository. ">
<polygon fill="white" stroke="black" points="170,-220.5 170,-250.5 265,-250.5 265,-220.5 170,-220.5"/>
<text text-anchor="start" x="178" y="-238.5" font-family="Helvetica,sans-Serif" font-size="10.00">el::Configurations</text>
<text text-anchor="middle" x="217.5" y="-227.5" font-family="Helvetica,sans-Serif" font-size="10.00">::hasConfiguration</text>
</a>
</g>
</g>
<!-- Node43&#45;&gt;Node57 -->
<g id="edge14" class="edge"><title>Node43&#45;&gt;Node57</title>
<path fill="none" stroke="midnightblue" d="M95.7518,-181.386C113.318,-190.976 135.024,-202.354 155,-211.5 161.669,-214.554 168.848,-217.58 175.864,-220.403"/>
<polygon fill="midnightblue" stroke="midnightblue" points="97.4229,-178.311 86.9745,-176.555 94.0476,-184.443 97.4229,-178.311"/>
</g>
<!-- Node58 -->
<g id="node16" class="node"><title>Node58</title>
<g id="a_node16"><a xlink:href="classel_1_1_logger.html#ae7c1d538f6163b6be5d37dafcaf24610" target="_top" xlink:title="el::Logger::initUnflushed\lCount">
<polygon fill="white" stroke="black" points="157,-122.5 157,-152.5 278,-152.5 278,-122.5 157,-122.5"/>
<text text-anchor="start" x="165" y="-140.5" font-family="Helvetica,sans-Serif" font-size="10.00">el::Logger::initUnflushed</text>
<text text-anchor="middle" x="217.5" y="-129.5" font-family="Helvetica,sans-Serif" font-size="10.00">Count</text>
</a>
</g>
</g>
<!-- Node43&#45;&gt;Node58 -->
<g id="edge16" class="edge"><title>Node43&#45;&gt;Node58</title>
<path fill="none" stroke="midnightblue" d="M129.007,-150.961C138.288,-149.533 147.751,-148.077 156.86,-146.675"/>
<polygon fill="midnightblue" stroke="midnightblue" points="128.384,-147.515 119.032,-152.495 129.448,-154.434 128.384,-147.515"/>
</g>
<!-- Node60 -->
<g id="node18" class="node"><title>Node60</title>
<g id="a_node18"><a xlink:href="classel_1_1_logger.html#acfb9ef869b9b4dc3efd78d7f64b8bebd" target="_top" xlink:title="el::Logger::resolveLogger\lFormatSpec">
<polygon fill="white" stroke="black" points="155,-171.5 155,-201.5 280,-201.5 280,-171.5 155,-171.5"/>
<text text-anchor="start" x="163" y="-189.5" font-family="Helvetica,sans-Serif" font-size="10.00">el::Logger::resolveLogger</text>
<text text-anchor="middle" x="217.5" y="-178.5" font-family="Helvetica,sans-Serif" font-size="10.00">FormatSpec</text>
</a>
</g>
</g>
<!-- Node43&#45;&gt;Node60 -->
<g id="edge19" class="edge"><title>Node43&#45;&gt;Node60</title>
<path fill="none" stroke="midnightblue" d="M129.002,-172.478C137.578,-173.852 146.309,-175.251 154.772,-176.608"/>
<polygon fill="midnightblue" stroke="midnightblue" points="129.46,-169.007 119.032,-170.88 128.353,-175.919 129.46,-169.007"/>
</g>
<!-- Node61 -->
<g id="node19" class="node"><title>Node61</title>
<g id="a_node19"><a xlink:href="classel_1_1_configurations.html#ac658068ac7454b47284e211e16da5b18" target="_top" xlink:title="Sets configurations for all levels including Level::Global if includeGlobalLevel is true...">
<polygon fill="white" stroke="black" points="171.5,-24.5 171.5,-54.5 263.5,-54.5 263.5,-24.5 171.5,-24.5"/>
<text text-anchor="start" x="179.5" y="-42.5" font-family="Helvetica,sans-Serif" font-size="10.00">el::Configurations</text>
<text text-anchor="middle" x="217.5" y="-31.5" font-family="Helvetica,sans-Serif" font-size="10.00">::setGlobally</text>
</a>
</g>
</g>
<!-- Node43&#45;&gt;Node61 -->
<g id="edge21" class="edge"><title>Node43&#45;&gt;Node61</title>
<path fill="none" stroke="midnightblue" d="M78.0661,-138.159C95.523,-116.333 124.093,-84.0966 155,-63.5 160.055,-60.1314 165.653,-57.1289 171.352,-54.4853"/>
<polygon fill="midnightblue" stroke="midnightblue" points="75.1389,-136.219 71.7223,-146.248 80.6473,-140.539 75.1389,-136.219"/>
</g>
<!-- Node62 -->
<g id="node20" class="node"><title>Node62</title>
<g id="a_node20"><a xlink:href="classel_1_1_configurations.html#a800efb58724eb771027135b282eae512" target="_top" xlink:title="Sets configurations (Unsafely) for all levels including Level::Global if includeGlobalLevel is true...">
<polygon fill="white" stroke="black" points="167,-73.5 167,-103.5 268,-103.5 268,-73.5 167,-73.5"/>
<text text-anchor="start" x="175" y="-91.5" font-family="Helvetica,sans-Serif" font-size="10.00">el::Configurations</text>
<text text-anchor="middle" x="217.5" y="-80.5" font-family="Helvetica,sans-Serif" font-size="10.00">::unsafeSetGlobally</text>
</a>
</g>
</g>
<!-- Node43&#45;&gt;Node62 -->
<g id="edge22" class="edge"><title>Node43&#45;&gt;Node62</title>
<path fill="none" stroke="midnightblue" d="M97.8975,-141.593C115.122,-132.661 135.931,-122.2 155,-113.5 162.34,-110.151 170.264,-106.764 177.904,-103.611"/>
<polygon fill="midnightblue" stroke="midnightblue" points="95.9765,-138.648 88.7307,-146.378 99.2153,-144.854 95.9765,-138.648"/>
</g>
<!-- Node45 -->
<g id="node3" class="node"><title>Node45</title>
<g id="a_node3"><a xlink:href="classel_1_1_logger.html#ad9db621dbf8977bf814dc7baea8dcee4" target="_top" xlink:title="Configures the logger using specified configurations. ">
<polygon fill="white" stroke="black" points="334.5,-207 334.5,-226 438.5,-226 438.5,-207 334.5,-207"/>
<text text-anchor="middle" x="386.5" y="-214" font-family="Helvetica,sans-Serif" font-size="10.00">el::Logger::configure</text>
</a>
</g>
</g>
<!-- Node44&#45;&gt;Node45 -->
<g id="edge2" class="edge"><title>Node44&#45;&gt;Node45</title>
<path fill="none" stroke="midnightblue" d="M261.323,-266.847C267.619,-264.82 274.001,-262.672 280,-260.5 309.669,-249.758 343.181,-235.386 364.317,-226.037"/>
<polygon fill="midnightblue" stroke="midnightblue" points="260.055,-263.577 251.567,-269.919 262.157,-270.254 260.055,-263.577"/>
</g>
<!-- Node56 -->
<g id="node14" class="node"><title>Node56</title>
<g id="a_node14"><a xlink:href="classel_1_1base_1_1_default_log_dispatch_callback.html#adc7c200395c99534d55cb23cfabafcb1" target="_top" xlink:title="el::base::DefaultLogDispatch\lCallback::dispatch">
<polygon fill="white" stroke="black" points="316,-264.5 316,-294.5 457,-294.5 457,-264.5 316,-264.5"/>
<text text-anchor="start" x="324" y="-282.5" font-family="Helvetica,sans-Serif" font-size="10.00">el::base::DefaultLogDispatch</text>
<text text-anchor="middle" x="386.5" y="-271.5" font-family="Helvetica,sans-Serif" font-size="10.00">Callback::dispatch</text>
</a>
</g>
</g>
<!-- Node44&#45;&gt;Node56 -->
<g id="edge13" class="edge"><title>Node44&#45;&gt;Node56</title>
<path fill="none" stroke="midnightblue" d="M270.745,-279.5C285.007,-279.5 300.69,-279.5 315.758,-279.5"/>
<polygon fill="midnightblue" stroke="midnightblue" points="270.641,-276 260.641,-279.5 270.641,-283 270.641,-276"/>
</g>
<!-- Node46 -->
<g id="node4" class="node"><title>Node46</title>
<g id="a_node4"><a xlink:href="classel_1_1_logger.html#a43abea8865d7316f05c8a676a8c04896" target="_top" xlink:title="el::Logger::Logger">
<polygon fill="white" stroke="black" points="511.5,-292 511.5,-311 606.5,-311 606.5,-292 511.5,-292"/>
<text text-anchor="middle" x="559" y="-299" font-family="Helvetica,sans-Serif" font-size="10.00">el::Logger::Logger</text>
</a>
</g>
</g>
<!-- Node45&#45;&gt;Node46 -->
<g id="edge3" class="edge"><title>Node45&#45;&gt;Node46</title>
<path fill="none" stroke="midnightblue" d="M415.099,-230.896C428.055,-237.929 443.567,-246.748 457,-255.5 473.757,-266.417 475.114,-273.55 493,-282.5 500.465,-286.235 508.789,-289.36 516.921,-291.926"/>
<polygon fill="midnightblue" stroke="midnightblue" points="416.65,-227.757 406.183,-226.118 413.343,-233.926 416.65,-227.757"/>
</g>
<!-- Node47 -->
<g id="node5" class="node"><title>Node47</title>
<g id="a_node5"><a xlink:href="classel_1_1_logger.html#adfd57ab27fb398cc980a3edfab92927e" target="_top" xlink:title="Reconfigures logger using existing configurations. ">
<polygon fill="white" stroke="black" points="502.5,-202 502.5,-221 615.5,-221 615.5,-202 502.5,-202"/>
<text text-anchor="middle" x="559" y="-209" font-family="Helvetica,sans-Serif" font-size="10.00">el::Logger::reconfigure</text>
</a>
</g>
</g>
<!-- Node45&#45;&gt;Node47 -->
<g id="edge4" class="edge"><title>Node45&#45;&gt;Node47</title>
<path fill="none" stroke="midnightblue" d="M448.772,-214.703C466.286,-214.19 485.269,-213.633 502.421,-213.13"/>
<polygon fill="midnightblue" stroke="midnightblue" points="448.549,-211.208 438.656,-215 448.754,-218.205 448.549,-211.208"/>
</g>
<!-- Node51 -->
<g id="node9" class="node"><title>Node51</title>
<g id="a_node9"><a xlink:href="classel_1_1_loggers.html#a02223004494a404a2c3e7cd0c4380d3b" target="_top" xlink:title="Reconfigures specified logger with new configurations. ">
<polygon fill="white" stroke="black" points="500,-242.5 500,-272.5 618,-272.5 618,-242.5 500,-242.5"/>
<text text-anchor="start" x="508" y="-260.5" font-family="Helvetica,sans-Serif" font-size="10.00">el::Loggers::reconfigure</text>
<text text-anchor="middle" x="559" y="-249.5" font-family="Helvetica,sans-Serif" font-size="10.00">Logger</text>
</a>
</g>
</g>
<!-- Node45&#45;&gt;Node51 -->
<g id="edge8" class="edge"><title>Node45&#45;&gt;Node51</title>
<path fill="none" stroke="midnightblue" d="M437.022,-228.409C456.698,-233.14 479.473,-238.617 499.92,-243.533"/>
<polygon fill="midnightblue" stroke="midnightblue" points="437.586,-224.944 427.045,-226.009 435.949,-231.75 437.586,-224.944"/>
</g>
<!-- Node55 -->
<g id="node13" class="node"><title>Node55</title>
<g id="a_node13"><a xlink:href="classel_1_1_loggers.html#adedfcc17831fe3d3f14026c91e8df88c" target="_top" xlink:title="Sets configurations from global configuration file. ">
<polygon fill="white" stroke="black" points="493,-152.5 493,-182.5 625,-182.5 625,-152.5 493,-152.5"/>
<text text-anchor="start" x="501" y="-170.5" font-family="Helvetica,sans-Serif" font-size="10.00">el::Loggers::configureFrom</text>
<text text-anchor="middle" x="559" y="-159.5" font-family="Helvetica,sans-Serif" font-size="10.00">Global</text>
</a>
</g>
</g>
<!-- Node45&#45;&gt;Node55 -->
<g id="edge12" class="edge"><title>Node45&#45;&gt;Node55</title>
<path fill="none" stroke="midnightblue" d="M430.528,-204.134C453.356,-197.574 481.589,-189.46 505.678,-182.537"/>
<polygon fill="midnightblue" stroke="midnightblue" points="429.423,-200.81 420.779,-206.936 431.357,-207.538 429.423,-200.81"/>
</g>
<!-- Node48 -->
<g id="node6" class="node"><title>Node48</title>
<g id="a_node6"><a xlink:href="classel_1_1base_1_1_storage.html#a4932a8f8a55c3b00467cf2feed6acf59" target="_top" xlink:title="el::base::Storage::\lStorage">
<polygon fill="white" stroke="black" points="673.5,-196.5 673.5,-226.5 770.5,-226.5 770.5,-196.5 673.5,-196.5"/>
<text text-anchor="start" x="681.5" y="-214.5" font-family="Helvetica,sans-Serif" font-size="10.00">el::base::Storage::</text>
<text text-anchor="middle" x="722" y="-203.5" font-family="Helvetica,sans-Serif" font-size="10.00">Storage</text>
</a>
</g>
</g>
<!-- Node47&#45;&gt;Node48 -->
<g id="edge5" class="edge"><title>Node47&#45;&gt;Node48</title>
<path fill="none" stroke="midnightblue" d="M626.107,-211.5C641.912,-211.5 658.482,-211.5 673.272,-211.5"/>
<polygon fill="midnightblue" stroke="midnightblue" points="625.858,-208 615.858,-211.5 625.858,-215 625.858,-208"/>
</g>
<!-- Node49 -->
<g id="node7" class="node"><title>Node49</title>
<g id="a_node7"><a xlink:href="classel_1_1_loggers.html#a89ec21259cfcfee3f761fca68c4ec043" target="_top" xlink:title="Reconfigures logger&#39;s single configuration. ">
<polygon fill="white" stroke="black" points="663,-98.5 663,-128.5 781,-128.5 781,-98.5 663,-98.5"/>
<text text-anchor="start" x="671" y="-116.5" font-family="Helvetica,sans-Serif" font-size="10.00">el::Loggers::reconfigure</text>
<text text-anchor="middle" x="722" y="-105.5" font-family="Helvetica,sans-Serif" font-size="10.00">Logger</text>
</a>
</g>
</g>
<!-- Node47&#45;&gt;Node49 -->
<g id="edge6" class="edge"><title>Node47&#45;&gt;Node49</title>
<path fill="none" stroke="midnightblue" d="M616.524,-197.77C619.497,-196.199 622.347,-194.449 625,-192.5 648.246,-175.423 638.732,-156.834 661,-138.5 665.617,-134.699 670.895,-131.4 676.36,-128.558"/>
<polygon fill="midnightblue" stroke="midnightblue" points="614.962,-194.635 607.314,-201.967 617.865,-201.005 614.962,-194.635"/>
</g>
<!-- Node50 -->
<g id="node8" class="node"><title>Node50</title>
<g id="a_node8"><a xlink:href="classel_1_1_loggers.html#a396b601e204ede36f5a9acc76a8c5585" target="_top" xlink:title="Reconfigures single configuration for all the loggers for specified level. ">
<polygon fill="white" stroke="black" points="663,-147.5 663,-177.5 781,-177.5 781,-147.5 663,-147.5"/>
<text text-anchor="start" x="671" y="-165.5" font-family="Helvetica,sans-Serif" font-size="10.00">el::Loggers::reconfigure</text>
<text text-anchor="middle" x="722" y="-154.5" font-family="Helvetica,sans-Serif" font-size="10.00">AllLoggers</text>
</a>
</g>
</g>
<!-- Node47&#45;&gt;Node50 -->
<g id="edge7" class="edge"><title>Node47&#45;&gt;Node50</title>
<path fill="none" stroke="midnightblue" d="M602.701,-199.141C610.141,-196.952 617.801,-194.677 625,-192.5 640.711,-187.749 657.828,-182.443 673.2,-177.629"/>
<polygon fill="midnightblue" stroke="midnightblue" points="601.715,-195.782 593.102,-201.952 603.683,-202.5 601.715,-195.782"/>
</g>
<!-- Node52 -->
<g id="node10" class="node"><title>Node52</title>
<g id="a_node10"><a xlink:href="classel_1_1_loggers.html#af3252cc39fa4ac17b4abf50acf6b4c5e" target="_top" xlink:title="Reconfigures logger with new configurations after looking it up using identity. ">
<polygon fill="white" stroke="black" points="663,-245.5 663,-275.5 781,-275.5 781,-245.5 663,-245.5"/>
<text text-anchor="start" x="671" y="-263.5" font-family="Helvetica,sans-Serif" font-size="10.00">el::Loggers::reconfigure</text>
<text text-anchor="middle" x="722" y="-252.5" font-family="Helvetica,sans-Serif" font-size="10.00">Logger</text>
</a>
</g>
</g>
<!-- Node51&#45;&gt;Node52 -->
<g id="edge9" class="edge"><title>Node51&#45;&gt;Node52</title>
<path fill="none" stroke="midnightblue" d="M628.182,-258.77C639.756,-258.986 651.678,-259.208 662.961,-259.419"/>
<polygon fill="midnightblue" stroke="midnightblue" points="628.188,-255.27 618.125,-258.583 628.058,-262.269 628.188,-255.27"/>
</g>
<!-- Node53 -->
<g id="node11" class="node"><title>Node53</title>
<g id="a_node11"><a xlink:href="classel_1_1_loggers.html#a42f99e79d72d391df563df8d09272194" target="_top" xlink:title="Reconfigures all the existing loggers with new configurations. ">
<polygon fill="white" stroke="black" points="663,-294.5 663,-324.5 781,-324.5 781,-294.5 663,-294.5"/>
<text text-anchor="start" x="671" y="-312.5" font-family="Helvetica,sans-Serif" font-size="10.00">el::Loggers::reconfigure</text>
<text text-anchor="middle" x="722" y="-301.5" font-family="Helvetica,sans-Serif" font-size="10.00">AllLoggers</text>
</a>
</g>
</g>
<!-- Node51&#45;&gt;Node53 -->
<g id="edge10" class="edge"><title>Node51&#45;&gt;Node53</title>
<path fill="none" stroke="midnightblue" d="M616.312,-275.688C635.341,-281.834 656.358,-288.622 674.537,-294.493"/>
<polygon fill="midnightblue" stroke="midnightblue" points="617.16,-272.284 606.568,-272.541 615.008,-278.945 617.16,-272.284"/>
</g>
<!-- Node54 -->
<g id="node12" class="node"><title>Node54</title>
<g id="a_node12"><a xlink:href="classel_1_1_loggers.html#a3f478b619f82cab39244ed8cde4778e2" target="_top" xlink:title="Sets default configurations. This configuration is used for future (and conditionally for existing) l...">
<polygon fill="white" stroke="black" points="819,-300 819,-319 995,-319 995,-300 819,-300"/>
<text text-anchor="middle" x="907" y="-307" font-family="Helvetica,sans-Serif" font-size="10.00">el::Loggers::setDefaultConfigurations</text>
</a>
</g>
</g>
<!-- Node53&#45;&gt;Node54 -->
<g id="edge11" class="edge"><title>Node53&#45;&gt;Node54</title>
<path fill="none" stroke="midnightblue" d="M791.206,-309.5C800.251,-309.5 809.62,-309.5 818.928,-309.5"/>
<polygon fill="midnightblue" stroke="midnightblue" points="791.154,-306 781.154,-309.5 791.154,-313 791.154,-306"/>
</g>
<!-- Node57&#45;&gt;Node45 -->
<g id="edge15" class="edge"><title>Node57&#45;&gt;Node45</title>
<path fill="none" stroke="midnightblue" d="M275.114,-229.059C294.267,-226.88 315.534,-224.46 334.247,-222.331"/>
<polygon fill="midnightblue" stroke="midnightblue" points="274.559,-225.599 265.019,-230.207 275.35,-232.554 274.559,-225.599"/>
</g>
<!-- Node58&#45;&gt;Node45 -->
<g id="edge18" class="edge"><title>Node58&#45;&gt;Node45</title>
<path fill="none" stroke="midnightblue" d="M266.496,-156.537C271.083,-158.499 275.645,-160.505 280,-162.5 311.426,-176.897 347.041,-195.654 367.812,-206.848"/>
<polygon fill="midnightblue" stroke="midnightblue" points="267.679,-153.238 257.104,-152.593 264.969,-159.692 267.679,-153.238"/>
</g>
<!-- Node59 -->
<g id="node17" class="node"><title>Node59</title>
<g id="a_node17"><a xlink:href="classel_1_1_logger.html#a59b1c5a0f8c5c670e59d2f69f9e39fbb" target="_top" xlink:title="el::Logger::Logger">
<polygon fill="white" stroke="black" points="339,-137 339,-156 434,-156 434,-137 339,-137"/>
<text text-anchor="middle" x="386.5" y="-144" font-family="Helvetica,sans-Serif" font-size="10.00">el::Logger::Logger</text>
</a>
</g>
</g>
<!-- Node58&#45;&gt;Node59 -->
<g id="edge17" class="edge"><title>Node58&#45;&gt;Node59</title>
<path fill="none" stroke="midnightblue" d="M288.746,-141.286C305.689,-142.199 323.38,-143.152 338.93,-143.99"/>
<polygon fill="midnightblue" stroke="midnightblue" points="288.493,-137.767 278.319,-140.724 288.116,-144.757 288.493,-137.767"/>
</g>
<!-- Node60&#45;&gt;Node45 -->
<g id="edge20" class="edge"><title>Node60&#45;&gt;Node45</title>
<path fill="none" stroke="midnightblue" d="M290.372,-199.411C305.199,-202.075 320.525,-204.828 334.43,-207.326"/>
<polygon fill="midnightblue" stroke="midnightblue" points="290.671,-195.909 280.21,-197.586 289.434,-202.799 290.671,-195.909"/>
</g>
<!-- Node63 -->
<g id="node21" class="node"><title>Node63</title>
<g id="a_node21"><a xlink:href="classel_1_1_configurations.html#a332717de96efc851a202b7afcc5e395c" target="_top" xlink:title="Sets value of configuration for specified level. ">
<polygon fill="white" stroke="black" points="503.5,-99 503.5,-118 614.5,-118 614.5,-99 503.5,-99"/>
<text text-anchor="middle" x="559" y="-106" font-family="Helvetica,sans-Serif" font-size="10.00">el::Configurations::set</text>
</a>
</g>
</g>
<!-- Node62&#45;&gt;Node63 -->
<g id="edge23" class="edge"><title>Node62&#45;&gt;Node63</title>
<path fill="none" stroke="midnightblue" d="M278.512,-92.0353C342.158,-95.7847 441.826,-101.656 503.354,-105.281"/>
<polygon fill="midnightblue" stroke="midnightblue" points="278.418,-88.5238 268.23,-91.4296 278.007,-95.5117 278.418,-88.5238"/>
</g>
<!-- Node65 -->
<g id="node23" class="node"><title>Node65</title>
<g id="a_node23"><a xlink:href="classel_1_1_configurations.html#a05c373510ca513e4f61999c84d512831" target="_top" xlink:title="Thread unsafe set. ">
<polygon fill="white" stroke="black" points="340.5,-49.5 340.5,-79.5 432.5,-79.5 432.5,-49.5 340.5,-49.5"/>
<text text-anchor="start" x="348.5" y="-67.5" font-family="Helvetica,sans-Serif" font-size="10.00">el::Configurations</text>
<text text-anchor="middle" x="386.5" y="-56.5" font-family="Helvetica,sans-Serif" font-size="10.00">::unsafeSet</text>
</a>
</g>
</g>
<!-- Node62&#45;&gt;Node65 -->
<g id="edge27" class="edge"><title>Node62&#45;&gt;Node65</title>
<path fill="none" stroke="midnightblue" d="M278.025,-73.4492C298.528,-70.0575 321.138,-66.9488 340.309,-64.9203"/>
<polygon fill="midnightblue" stroke="midnightblue" points="277.422,-70.0013 268.153,-75.1334 278.6,-76.9016 277.422,-70.0013"/>
</g>
<!-- Node63&#45;&gt;Node49 -->
<g id="edge26" class="edge"><title>Node63&#45;&gt;Node49</title>
<path fill="none" stroke="midnightblue" d="M624.548,-110.505C637.247,-110.899 650.498,-111.311 662.968,-111.698"/>
<polygon fill="midnightblue" stroke="midnightblue" points="624.611,-107.005 614.507,-110.193 624.394,-114.002 624.611,-107.005"/>
</g>
<!-- Node63&#45;&gt;Node50 -->
<g id="edge25" class="edge"><title>Node63&#45;&gt;Node50</title>
<path fill="none" stroke="midnightblue" d="M598.003,-121.246C621.424,-129.102 651.574,-139.214 676.162,-147.461"/>
<polygon fill="midnightblue" stroke="midnightblue" points="599.007,-117.891 588.413,-118.03 596.781,-124.528 599.007,-117.891"/>
</g>
<!-- Node64 -->
<g id="node22" class="node"><title>Node64</title>
<g id="a_node22"><a xlink:href="classel_1_1_configurations_1_1_parser.html#a70e0d8b27e7c1b5dd94e6838c304a751" target="_top" xlink:title="el::Configurations\l::Parser::parseLine">
<polygon fill="white" stroke="black" points="672.5,-49.5 672.5,-79.5 771.5,-79.5 771.5,-49.5 672.5,-49.5"/>
<text text-anchor="start" x="680.5" y="-67.5" font-family="Helvetica,sans-Serif" font-size="10.00">el::Configurations</text>
<text text-anchor="middle" x="722" y="-56.5" font-family="Helvetica,sans-Serif" font-size="10.00">::Parser::parseLine</text>
</a>
</g>
</g>
<!-- Node63&#45;&gt;Node64 -->
<g id="edge24" class="edge"><title>Node63&#45;&gt;Node64</title>
<path fill="none" stroke="midnightblue" d="M604.6,-96.3112C625.661,-90.5554 650.845,-83.6727 672.393,-77.784"/>
<polygon fill="midnightblue" stroke="midnightblue" points="603.658,-92.9401 594.935,-98.9527 605.504,-99.6925 603.658,-92.9401"/>
</g>
<!-- Node65&#45;&gt;Node62 -->
<g id="edge29" class="edge"><title>Node65&#45;&gt;Node62</title>
<path fill="none" stroke="midnightblue" d="M330.371,-78.8138C310.292,-82.2265 287.729,-85.4157 268.153,-87.595"/>
<polygon fill="midnightblue" stroke="midnightblue" points="331.065,-82.2455 340.309,-77.0687 329.854,-75.351 331.065,-82.2455"/>
</g>
<!-- Node65&#45;&gt;Node63 -->
<g id="edge28" class="edge"><title>Node65&#45;&gt;Node63</title>
<path fill="none" stroke="midnightblue" d="M442.727,-78.7522C468.417,-85.3818 498.277,-93.0875 521.168,-98.995"/>
<polygon fill="midnightblue" stroke="midnightblue" points="443.301,-75.2856 432.743,-76.1757 441.551,-82.0635 443.301,-75.2856"/>
</g>
<!-- Node66 -->
<g id="node24" class="node"><title>Node66</title>
<g id="a_node24"><a xlink:href="classel_1_1_configurations.html#a84c06d47e550b5eda3060f399698ec28" target="_top" xlink:title="Unsafely sets configuration if does not already exist. ">
<polygon fill="white" stroke="black" points="505,-17.5 505,-47.5 613,-47.5 613,-17.5 505,-17.5"/>
<text text-anchor="start" x="513" y="-35.5" font-family="Helvetica,sans-Serif" font-size="10.00">el::Configurations</text>
<text text-anchor="middle" x="559" y="-24.5" font-family="Helvetica,sans-Serif" font-size="10.00">::unsafeSetIfNotExist</text>
</a>
</g>
</g>
<!-- Node65&#45;&gt;Node66 -->
<g id="edge30" class="edge"><title>Node65&#45;&gt;Node66</title>
<path fill="none" stroke="midnightblue" d="M442.636,-54.1519C462.632,-50.3989 485.165,-46.1699 504.976,-42.4518"/>
<polygon fill="midnightblue" stroke="midnightblue" points="441.926,-50.724 432.743,-56.0086 443.217,-57.6038 441.926,-50.724"/>
</g>
<!-- Node67 -->
<g id="node25" class="node"><title>Node67</title>
<g id="a_node25"><a xlink:href="classel_1_1_configurations.html#ad89b7d2dd750e4d1b3deff800e278fdb" target="_top" xlink:title="Lets you set the remaining configurations to default. ">
<polygon fill="white" stroke="black" points="661,-0.5 661,-30.5 783,-30.5 783,-0.5 661,-0.5"/>
<text text-anchor="start" x="669" y="-18.5" font-family="Helvetica,sans-Serif" font-size="10.00">el::Configurations</text>
<text text-anchor="middle" x="722" y="-7.5" font-family="Helvetica,sans-Serif" font-size="10.00">::setRemainingToDefault</text>
</a>
</g>
</g>
<!-- Node66&#45;&gt;Node67 -->
<g id="edge31" class="edge"><title>Node66&#45;&gt;Node67</title>
<path fill="none" stroke="midnightblue" d="M623.389,-25.8068C635.752,-24.5013 648.681,-23.1362 660.932,-21.8425"/>
<polygon fill="midnightblue" stroke="midnightblue" points="622.741,-22.3556 613.164,-26.8865 623.476,-29.317 622.741,-22.3556"/>
</g>
<!-- Node68 -->
<g id="node26" class="node"><title>Node68</title>
<g id="a_node26"><a xlink:href="classel_1_1_configurations.html#ae341bd647734d1180a5a138222d2f1ea" target="_top" xlink:title="Constructor used to set configurations using configuration file. ">
<polygon fill="white" stroke="black" points="861,-0.5 861,-30.5 953,-30.5 953,-0.5 861,-0.5"/>
<text text-anchor="start" x="869" y="-18.5" font-family="Helvetica,sans-Serif" font-size="10.00">el::Configurations</text>
<text text-anchor="middle" x="907" y="-7.5" font-family="Helvetica,sans-Serif" font-size="10.00">::Configurations</text>
</a>
</g>
</g>
<!-- Node67&#45;&gt;Node68 -->
<g id="edge32" class="edge"><title>Node67&#45;&gt;Node68</title>
<path fill="none" stroke="midnightblue" d="M793.432,-15.5C816.082,-15.5 840.554,-15.5 860.876,-15.5"/>
<polygon fill="midnightblue" stroke="midnightblue" points="793.175,-12.0001 783.175,-15.5 793.174,-19.0001 793.175,-12.0001"/>
</g>
</g>
</svg>
        <g id="navigator" transform="translate(0 0)" fill="#404254">
                <rect fill="#f2f5e9" fill-opacity="0.5" stroke="#606060" stroke-width=".5" x="0" y="0" width="60" height="60"/>
                <use id="zoomplus" xlink:href="#zoomPlus" x="17" y="9" onmousedown="handleZoom(evt,'in')"/>
                <use id="zoomminus" xlink:href="#zoomMin" x="42" y="9" onmousedown="handleZoom(evt,'out')"/>
                <use id="reset" xlink:href="#resetDef" x="30" y="36" onmousedown="handleReset()"/>
                <g id="arrowUp" xlink:href="#dirArrow" transform="translate(30 24)" onmousedown="handlePan(0,-1)">
                  <use xlink:href="#rim" fill="#404040">
                        <set attributeName="fill" to="#808080" begin="arrowUp.mouseover" end="arrowUp.mouseout"/>
                  </use>
                  <path fill="none" stroke="white" stroke-width="1.5" d="M0,-3.0v7 M-2.5,-0.5L0,-3.0L2.5,-0.5"/>
                </g>
                <g id="arrowRight" xlink:href="#dirArrow" transform="rotate(90) translate(36 -43)" onmousedown="handlePan(1,0)">
                  <use xlink:href="#rim" fill="#404040">
                        <set attributeName="fill" to="#808080" begin="arrowRight.mouseover" end="arrowRight.mouseout"/>
                  </use>
                  <path fill="none" stroke="white" stroke-width="1.5" d="M0,-3.0v7 M-2.5,-0.5L0,-3.0L2.5,-0.5"/>
                </g>
                <g id="arrowDown" xlink:href="#dirArrow" transform="rotate(180) translate(-30 -48)" onmousedown="handlePan(0,1)">
                  <use xlink:href="#rim" fill="#404040">
                        <set attributeName="fill" to="#808080" begin="arrowDown.mouseover" end="arrowDown.mouseout"/>
                  </use>
                  <path fill="none" stroke="white" stroke-width="1.5" d="M0,-3.0v7 M-2.5,-0.5L0,-3.0L2.5,-0.5"/>
                </g>
                <g id="arrowLeft" xlink:href="#dirArrow" transform="rotate(270) translate(-36 17)" onmousedown="handlePan(-1,0)">
                  <use xlink:href="#rim" fill="#404040">
                        <set attributeName="fill" to="#808080" begin="arrowLeft.mouseover" end="arrowLeft.mouseout"/>
                  </use>
                  <path fill="none" stroke="white" stroke-width="1.5" d="M0,-3.0v7 M-2.5,-0.5L0,-3.0L2.5,-0.5"/>
                </g>
        </g>
        <svg viewBox="0 0 15 15" width="100%" height="30px" preserveAspectRatio="xMaxYMin meet">
         <g id="arrow_out" transform="scale(0.3 0.3)">
          <a xlink:href="classel_1_1_level_helper_a7f0dbfceb2354a72c2802d02c300430d_icgraph_org.svg" target="_base">
           <rect id="button" ry="5" rx="5" y="6" x="6" height="38" width="38"
                fill="#f2f5e9" fill-opacity="0.5" stroke="#606060" stroke-width="1.0"/>
           <path id="arrow"
             d="M 11.500037,31.436501 C 11.940474,20.09759 22.043105,11.32322 32.158766,21.979434 L 37.068811,17.246167 C 37.068811,17.246167 37.088388,32 37.088388,32 L 22.160133,31.978069 C 22.160133,31.978069 26.997745,27.140456 26.997745,27.140456 C 18.528582,18.264221 13.291696,25.230495 11.500037,31.436501 z"
             style="fill:#404040;"/>
          </a>
         </g>
        </svg>
</svg>
