<?xml version="1.0" encoding="UTF-8" standalone="no"?>
<!DOCTYPE svg PUBLIC "-//W3C//DTD SVG 1.1//EN"
 "http://www.w3.org/Graphics/SVG/1.1/DTD/svg11.dtd">
<!-- Generated by graphviz version 2.38.0 (20140413.2041)
 -->
<!-- Title: vpr::Buffer::CreateBuffer Pages: 1 -->
<svg width="467pt" height="66pt"
 viewBox="0.00 0.00 467.00 66.00" xmlns="http://www.w3.org/2000/svg" xmlns:xlink="http://www.w3.org/1999/xlink">
<g id="graph0" class="graph" transform="scale(1 1) rotate(0) translate(4 62)">
<title>vpr::Buffer::CreateBuffer</title>
<polygon fill="white" stroke="none" points="-4,4 -4,-62 463,-62 463,4 -4,4"/>
<!-- Node37 -->
<g id="node1" class="node"><title>Node37</title>
<polygon fill="#bfbfbf" stroke="black" points="0,-19.5 0,-38.5 119,-38.5 119,-19.5 0,-19.5"/>
<text text-anchor="middle" x="59.5" y="-26.5" font-family="Helvetica,sans-Serif" font-size="10.00">vpr::Buffer::CreateBuffer</text>
</g>
<!-- Node38 -->
<g id="node2" class="node"><title>Node38</title>
<g id="a_node2"><a xlink:href="classvpr_1_1_buffer.html#a07d786f45ff6d6712962da7910f6280c" target="_top" xlink:title="vpr::Buffer::setMappedMemory\lRange">
<polygon fill="white" stroke="black" points="155,-14 155,-44 304,-44 304,-14 155,-14"/>
<text text-anchor="start" x="163" y="-32" font-family="Helvetica,sans-Serif" font-size="10.00">vpr::Buffer::setMappedMemory</text>
<text text-anchor="middle" x="229.5" y="-21" font-family="Helvetica,sans-Serif" font-size="10.00">Range</text>
</a>
</g>
</g>
<!-- Node37&#45;&gt;Node38 -->
<g id="edge1" class="edge"><title>Node37&#45;&gt;Node38</title>
<path fill="none" stroke="midnightblue" d="M119.258,-29C127.487,-29 136.073,-29 144.656,-29"/>
<polygon fill="midnightblue" stroke="midnightblue" points="144.71,-32.5001 154.71,-29 144.71,-25.5001 144.71,-32.5001"/>
</g>
<!-- Node39 -->
<g id="node3" class="node"><title>Node39</title>
<g id="a_node3"><a xlink:href="classvpr_1_1_allocation.html#a1a223e41ca865271544ece71d18edce2" target="_top" xlink:title="vpr::Allocation::Memory">
<polygon fill="white" stroke="black" points="340,-38.5 340,-57.5 459,-57.5 459,-38.5 340,-38.5"/>
<text text-anchor="middle" x="399.5" y="-45.5" font-family="Helvetica,sans-Serif" font-size="10.00">vpr::Allocation::Memory</text>
</a>
</g>
</g>
<!-- Node38&#45;&gt;Node39 -->
<g id="edge2" class="edge"><title>Node38&#45;&gt;Node39</title>
<path fill="none" stroke="midnightblue" d="M304.187,-37.3337C312.649,-38.2906 321.252,-39.2636 329.647,-40.213"/>
<polygon fill="midnightblue" stroke="midnightblue" points="329.429,-43.7107 339.759,-41.3567 330.216,-36.755 329.429,-43.7107"/>
</g>
<!-- Node40 -->
<g id="node4" class="node"><title>Node40</title>
<g id="a_node4"><a xlink:href="classvpr_1_1_allocation.html#acb642a53c185ac6530ed60959b0e4397" target="_top" xlink:title="vpr::Allocation::Offset">
<polygon fill="white" stroke="black" points="345,-0.5 345,-19.5 454,-19.5 454,-0.5 345,-0.5"/>
<text text-anchor="middle" x="399.5" y="-7.5" font-family="Helvetica,sans-Serif" font-size="10.00">vpr::Allocation::Offset</text>
</a>
</g>
</g>
<!-- Node38&#45;&gt;Node40 -->
<g id="edge3" class="edge"><title>Node38&#45;&gt;Node40</title>
<path fill="none" stroke="midnightblue" d="M304.187,-20.6663C314.329,-19.5193 324.675,-18.3492 334.621,-17.2244"/>
<polygon fill="midnightblue" stroke="midnightblue" points="335.273,-20.6731 344.816,-16.0714 334.486,-13.7175 335.273,-20.6731"/>
</g>
</g>
</svg>
