<?xml version="1.0" encoding="UTF-8" standalone="no"?>
<!DOCTYPE svg PUBLIC "-//W3C//DTD SVG 1.1//EN"
 "http://www.w3.org/Graphics/SVG/1.1/DTD/svg11.dtd">
<!-- Generated by graphviz version 2.38.0 (20140413.2041)
 -->
<!-- Title: el::Configurations::unsafeSetGlobally Pages: 1 -->
<svg width="470pt" height="187pt"
 viewBox="0.00 0.00 470.00 186.50" xmlns="http://www.w3.org/2000/svg" xmlns:xlink="http://www.w3.org/1999/xlink">
<g id="graph0" class="graph" transform="scale(1 1) rotate(0) translate(4 182.5)">
<title>el::Configurations::unsafeSetGlobally</title>
<polygon fill="white" stroke="none" points="-4,4 -4,-182.5 466,-182.5 466,4 -4,4"/>
<!-- Node182 -->
<g id="node1" class="node"><title>Node182</title>
<polygon fill="#bfbfbf" stroke="black" points="0,-84.5 0,-114.5 101,-114.5 101,-84.5 0,-84.5"/>
<text text-anchor="start" x="8" y="-102.5" font-family="Helvetica,sans-Serif" font-size="10.00">el::Configurations</text>
<text text-anchor="middle" x="50.5" y="-91.5" font-family="Helvetica,sans-Serif" font-size="10.00">::unsafeSetGlobally</text>
</g>
<!-- Node183 -->
<g id="node2" class="node"><title>Node183</title>
<g id="a_node2"><a xlink:href="classel_1_1_level_helper.html#a1279f27df29a003df5ecc3d0bf4dacbb" target="_top" xlink:title="Casts int(ushort) to level, useful for iterating through enum. ">
<polygon fill="white" stroke="black" points="137,-159 137,-178 274,-178 274,-159 137,-159"/>
<text text-anchor="middle" x="205.5" y="-166" font-family="Helvetica,sans-Serif" font-size="10.00">el::LevelHelper::castFromInt</text>
</a>
</g>
</g>
<!-- Node182&#45;&gt;Node183 -->
<g id="edge1" class="edge"><title>Node182&#45;&gt;Node183</title>
<path fill="none" stroke="midnightblue" d="M73.5412,-114.505C90.3422,-125.41 114.368,-139.884 137,-149.5 142.527,-151.848 148.43,-153.997 154.36,-155.936"/>
<polygon fill="midnightblue" stroke="midnightblue" points="153.714,-159.399 164.301,-158.999 155.775,-152.71 153.714,-159.399"/>
</g>
<!-- Node184 -->
<g id="node3" class="node"><title>Node184</title>
<g id="a_node3"><a xlink:href="classel_1_1_level_helper.html#a7f0dbfceb2354a72c2802d02c300430d" target="_top" xlink:title="Applies specified function to each level starting from startIndex. ">
<polygon fill="white" stroke="black" points="146,-109.5 146,-139.5 265,-139.5 265,-109.5 146,-109.5"/>
<text text-anchor="start" x="154" y="-127.5" font-family="Helvetica,sans-Serif" font-size="10.00">el::LevelHelper::forEach</text>
<text text-anchor="middle" x="205.5" y="-116.5" font-family="Helvetica,sans-Serif" font-size="10.00">Level</text>
</a>
</g>
</g>
<!-- Node182&#45;&gt;Node184 -->
<g id="edge2" class="edge"><title>Node182&#45;&gt;Node184</title>
<path fill="none" stroke="midnightblue" d="M101.175,-107.617C112.175,-109.414 124.023,-111.35 135.634,-113.247"/>
<polygon fill="midnightblue" stroke="midnightblue" points="135.315,-116.742 145.749,-114.9 136.444,-109.833 135.315,-116.742"/>
</g>
<!-- Node185 -->
<g id="node4" class="node"><title>Node185</title>
<g id="a_node4"><a xlink:href="classel_1_1_configurations.html#a05c373510ca513e4f61999c84d512831" target="_top" xlink:title="Thread unsafe set. ">
<polygon fill="white" stroke="black" points="159.5,-60.5 159.5,-90.5 251.5,-90.5 251.5,-60.5 159.5,-60.5"/>
<text text-anchor="start" x="167.5" y="-78.5" font-family="Helvetica,sans-Serif" font-size="10.00">el::Configurations</text>
<text text-anchor="middle" x="205.5" y="-67.5" font-family="Helvetica,sans-Serif" font-size="10.00">::unsafeSet</text>
</a>
</g>
</g>
<!-- Node182&#45;&gt;Node185 -->
<g id="edge3" class="edge"><title>Node182&#45;&gt;Node185</title>
<path fill="none" stroke="midnightblue" d="M101.175,-85.3411C116.564,-82.4698 133.611,-79.7477 149.348,-77.6405"/>
<polygon fill="midnightblue" stroke="midnightblue" points="149.993,-81.0867 159.47,-76.3492 149.107,-74.1429 149.993,-81.0867"/>
</g>
<!-- Node185&#45;&gt;Node182 -->
<g id="edge7" class="edge"><title>Node185&#45;&gt;Node182</title>
<path fill="none" stroke="midnightblue" d="M159.47,-88.7779C144.449,-91.6748 127.468,-94.4698 111.495,-96.6974"/>
<polygon fill="midnightblue" stroke="midnightblue" points="110.624,-93.2825 101.175,-98.0746 111.55,-100.221 110.624,-93.2825"/>
</g>
<!-- Node186 -->
<g id="node5" class="node"><title>Node186</title>
<g id="a_node5"><a xlink:href="classel_1_1base_1_1utils_1_1_registry_with_pred.html#a811d9cc011d945bc7237e6ae1cf2f096" target="_top" xlink:title="Gets pointer from repository with speicifed arguments. ">
<polygon fill="white" stroke="black" points="310,-121 310,-162 462,-162 462,-121 310,-121"/>
<text text-anchor="start" x="318" y="-150" font-family="Helvetica,sans-Serif" font-size="10.00">el::base::utils::Registry</text>
<text text-anchor="start" x="318" y="-139" font-family="Helvetica,sans-Serif" font-size="10.00">WithPred&lt; Configuration,</text>
<text text-anchor="middle" x="386" y="-128" font-family="Helvetica,sans-Serif" font-size="10.00"> Configuration::Predicate &gt;::get</text>
</a>
</g>
</g>
<!-- Node185&#45;&gt;Node186 -->
<g id="edge4" class="edge"><title>Node185&#45;&gt;Node186</title>
<path fill="none" stroke="midnightblue" d="M247.452,-90.6417C268.896,-98.5708 295.664,-108.468 319.872,-117.419"/>
<polygon fill="midnightblue" stroke="midnightblue" points="318.766,-120.741 329.359,-120.927 321.193,-114.176 318.766,-120.741"/>
</g>
<!-- Node187 -->
<g id="node6" class="node"><title>Node187</title>
<g id="a_node6"><a xlink:href="classel_1_1base_1_1utils_1_1_registry_with_pred.html#a561a5d418106a16473ff94d43a4b6b04" target="_top" xlink:title="el::base::utils::Registry\lWithPred\&lt; Configuration,\l Configuration::Predicate\l \&gt;::registerNew">
<polygon fill="white" stroke="black" points="323.5,-49.5 323.5,-101.5 448.5,-101.5 448.5,-49.5 323.5,-49.5"/>
<text text-anchor="start" x="331.5" y="-89.5" font-family="Helvetica,sans-Serif" font-size="10.00">el::base::utils::Registry</text>
<text text-anchor="start" x="331.5" y="-78.5" font-family="Helvetica,sans-Serif" font-size="10.00">WithPred&lt; Configuration,</text>
<text text-anchor="start" x="331.5" y="-67.5" font-family="Helvetica,sans-Serif" font-size="10.00"> Configuration::Predicate</text>
<text text-anchor="middle" x="386" y="-56.5" font-family="Helvetica,sans-Serif" font-size="10.00"> &gt;::registerNew</text>
</a>
</g>
</g>
<!-- Node185&#45;&gt;Node187 -->
<g id="edge5" class="edge"><title>Node185&#45;&gt;Node187</title>
<path fill="none" stroke="midnightblue" d="M251.543,-75.5C270.271,-75.5 292.472,-75.5 313.338,-75.5"/>
<polygon fill="midnightblue" stroke="midnightblue" points="313.453,-79.0001 323.453,-75.5 313.453,-72.0001 313.453,-79.0001"/>
</g>
<!-- Node188 -->
<g id="node7" class="node"><title>Node188</title>
<g id="a_node7"><a xlink:href="classel_1_1_configuration.html#a04755de11422d7570869433ea157b705" target="_top" xlink:title="Set string based configuration value. ">
<polygon fill="white" stroke="black" points="340,-0.5 340,-30.5 432,-30.5 432,-0.5 340,-0.5"/>
<text text-anchor="start" x="348" y="-18.5" font-family="Helvetica,sans-Serif" font-size="10.00">el::Configuration::</text>
<text text-anchor="middle" x="386" y="-7.5" font-family="Helvetica,sans-Serif" font-size="10.00">setValue</text>
</a>
</g>
</g>
<!-- Node185&#45;&gt;Node188 -->
<g id="edge6" class="edge"><title>Node185&#45;&gt;Node188</title>
<path fill="none" stroke="midnightblue" d="M250.808,-60.4697C269.124,-54.2684 290.58,-47.0204 310,-40.5 316.469,-38.328 323.254,-36.0567 329.989,-33.8066"/>
<polygon fill="midnightblue" stroke="midnightblue" points="331.4,-37.0256 339.777,-30.5391 329.183,-30.3858 331.4,-37.0256"/>
</g>
</g>
</svg>
