<?xml version="1.0" encoding="UTF-8" standalone="no"?>
<!DOCTYPE svg PUBLIC "-//W3C//DTD SVG 1.1//EN"
 "http://www.w3.org/Graphics/SVG/1.1/DTD/svg11.dtd">
<!-- Generated by graphviz version 2.38.0 (20140413.2041)
 -->
<!-- Title: vpr::Instance::DestroySurfaceKHR Pages: 1 -->
<svg width="346pt" height="78pt"
 viewBox="0.00 0.00 346.00 77.50" xmlns="http://www.w3.org/2000/svg" xmlns:xlink="http://www.w3.org/1999/xlink">
<g id="graph0" class="graph" transform="scale(1 1) rotate(0) translate(4 73.5)">
<title>vpr::Instance::DestroySurfaceKHR</title>
<polygon fill="white" stroke="none" points="-4,4 -4,-73.5 342,-73.5 342,4 -4,4"/>
<!-- Node44 -->
<g id="node1" class="node"><title>Node44</title>
<polygon fill="#bfbfbf" stroke="black" points="0,-22.5 0,-41.5 164,-41.5 164,-22.5 0,-22.5"/>
<text text-anchor="middle" x="82" y="-29.5" font-family="Helvetica,sans-Serif" font-size="10.00">vpr::Instance::DestroySurfaceKHR</text>
</g>
<!-- Node45 -->
<g id="node2" class="node"><title>Node45</title>
<g id="a_node2"><a xlink:href="namespacevpr.html#a94afd8081f855771118d14af569f9bba" target="_top" xlink:title="Pass a swapchain and instance pointer to this to have the swapchain and surface destroyed and recreat...">
<polygon fill="white" stroke="black" points="200,-39 200,-69 338,-69 338,-39 200,-39"/>
<text text-anchor="start" x="208" y="-57" font-family="Helvetica,sans-Serif" font-size="10.00">vpr::RecreateSwapchainAnd</text>
<text text-anchor="middle" x="269" y="-46" font-family="Helvetica,sans-Serif" font-size="10.00">Surface</text>
</a>
</g>
</g>
<!-- Node44&#45;&gt;Node45 -->
<g id="edge1" class="edge"><title>Node44&#45;&gt;Node45</title>
<path fill="none" stroke="midnightblue" d="M173.21,-42.7277C182.22,-43.7991 191.259,-44.8741 199.985,-45.9117"/>
<polygon fill="midnightblue" stroke="midnightblue" points="173.411,-39.227 163.068,-41.5216 172.584,-46.178 173.411,-39.227"/>
</g>
<!-- Node46 -->
<g id="node3" class="node"><title>Node46</title>
<g id="a_node3"><a xlink:href="classvpr_1_1_instance.html#a2d0e68a86ecbbceb024dee48885c28d1" target="_top" xlink:title="vpr::Instance::~Instance">
<polygon fill="white" stroke="black" points="209,-0.5 209,-19.5 329,-19.5 329,-0.5 209,-0.5"/>
<text text-anchor="middle" x="269" y="-7.5" font-family="Helvetica,sans-Serif" font-size="10.00">vpr::Instance::~Instance</text>
</a>
</g>
</g>
<!-- Node44&#45;&gt;Node46 -->
<g id="edge2" class="edge"><title>Node44&#45;&gt;Node46</title>
<path fill="none" stroke="midnightblue" d="M173.178,-21.2762C185.249,-19.8406 197.374,-18.3988 208.728,-17.0485"/>
<polygon fill="midnightblue" stroke="midnightblue" points="172.584,-17.822 163.068,-22.4784 173.411,-24.773 172.584,-17.822"/>
</g>
</g>
</svg>
