<?xml version="1.0" encoding="UTF-8" standalone="no"?>
<!DOCTYPE svg PUBLIC "-//W3C//DTD SVG 1.1//EN"
 "http://www.w3.org/Graphics/SVG/1.1/DTD/svg11.dtd">
<!-- Generated by graphviz version 2.38.0 (20140413.2041)
 -->
<!-- Title: vpr::DescriptorPool::vkHandle Pages: 1 -->
<svg width="366pt" height="112pt"
 viewBox="0.00 0.00 366.00 112.00" xmlns="http://www.w3.org/2000/svg" xmlns:xlink="http://www.w3.org/1999/xlink">
<g id="graph0" class="graph" transform="scale(1 1) rotate(0) translate(4 108)">
<title>vpr::DescriptorPool::vkHandle</title>
<polygon fill="white" stroke="none" points="-4,4 -4,-108 362,-108 362,4 -4,4"/>
<!-- Node19 -->
<g id="node1" class="node"><title>Node19</title>
<polygon fill="#bfbfbf" stroke="black" points="0,-24.5 0,-54.5 98,-54.5 98,-24.5 0,-24.5"/>
<text text-anchor="start" x="8" y="-42.5" font-family="Helvetica,sans-Serif" font-size="10.00">vpr::DescriptorPool</text>
<text text-anchor="middle" x="49" y="-31.5" font-family="Helvetica,sans-Serif" font-size="10.00">::vkHandle</text>
</g>
<!-- Node20 -->
<g id="node2" class="node"><title>Node20</title>
<g id="a_node2"><a xlink:href="classvpr_1_1_descriptor_set.html#ae7839494bdc4ad213b6f200d8957d0a5" target="_top" xlink:title="vpr::DescriptorSet\l::allocate">
<polygon fill="white" stroke="black" points="134,-49.5 134,-79.5 228,-79.5 228,-49.5 134,-49.5"/>
<text text-anchor="start" x="142" y="-67.5" font-family="Helvetica,sans-Serif" font-size="10.00">vpr::DescriptorSet</text>
<text text-anchor="middle" x="181" y="-56.5" font-family="Helvetica,sans-Serif" font-size="10.00">::allocate</text>
</a>
</g>
</g>
<!-- Node19&#45;&gt;Node20 -->
<g id="edge1" class="edge"><title>Node19&#45;&gt;Node20</title>
<path fill="none" stroke="midnightblue" d="M108.075,-50.6682C116.721,-52.3309 125.533,-54.0255 133.888,-55.6323"/>
<polygon fill="midnightblue" stroke="midnightblue" points="108.519,-47.1896 98.0379,-48.738 107.197,-54.0636 108.519,-47.1896"/>
</g>
<!-- Node23 -->
<g id="node5" class="node"><title>Node23</title>
<g id="a_node5"><a xlink:href="classvpr_1_1_descriptor_set.html#a20cf3ef633ecfbf46b38d32653bad0d6" target="_top" xlink:title="vpr::DescriptorSet\l::~DescriptorSet">
<polygon fill="white" stroke="black" points="134,-0.5 134,-30.5 228,-30.5 228,-0.5 134,-0.5"/>
<text text-anchor="start" x="142" y="-18.5" font-family="Helvetica,sans-Serif" font-size="10.00">vpr::DescriptorSet</text>
<text text-anchor="middle" x="181" y="-7.5" font-family="Helvetica,sans-Serif" font-size="10.00">::~DescriptorSet</text>
</a>
</g>
</g>
<!-- Node19&#45;&gt;Node23 -->
<g id="edge4" class="edge"><title>Node19&#45;&gt;Node23</title>
<path fill="none" stroke="midnightblue" d="M108.075,-28.7785C116.721,-27.1823 125.533,-25.5555 133.888,-24.013"/>
<polygon fill="midnightblue" stroke="midnightblue" points="107.236,-25.3741 98.0379,-30.6315 108.507,-32.2578 107.236,-25.3741"/>
</g>
<!-- Node21 -->
<g id="node3" class="node"><title>Node21</title>
<g id="a_node3"><a xlink:href="classvpr_1_1_descriptor_set.html#a6e2329db70462daabad9be5a29b8caeb" target="_top" xlink:title="Call after all descriptor bindings and infos required have been added, and make sure you have enough ...">
<polygon fill="white" stroke="black" points="264,-73.5 264,-103.5 358,-103.5 358,-73.5 264,-73.5"/>
<text text-anchor="start" x="272" y="-91.5" font-family="Helvetica,sans-Serif" font-size="10.00">vpr::DescriptorSet</text>
<text text-anchor="middle" x="311" y="-80.5" font-family="Helvetica,sans-Serif" font-size="10.00">::Init</text>
</a>
</g>
</g>
<!-- Node20&#45;&gt;Node21 -->
<g id="edge2" class="edge"><title>Node20&#45;&gt;Node21</title>
<path fill="none" stroke="midnightblue" d="M238.162,-75.0304C246.746,-76.6399 255.521,-78.2852 263.857,-79.8482"/>
<polygon fill="midnightblue" stroke="midnightblue" points="238.685,-71.5675 228.211,-73.1646 237.395,-78.4476 238.685,-71.5675"/>
</g>
<!-- Node22 -->
<g id="node4" class="node"><title>Node22</title>
<g id="a_node4"><a xlink:href="classvpr_1_1_descriptor_set.html#a10bd2e1ea290ca2a02a8b878d92d47dd" target="_top" xlink:title="vpr::DescriptorSet\l::vkHandle">
<polygon fill="white" stroke="black" points="264,-24.5 264,-54.5 358,-54.5 358,-24.5 264,-24.5"/>
<text text-anchor="start" x="272" y="-42.5" font-family="Helvetica,sans-Serif" font-size="10.00">vpr::DescriptorSet</text>
<text text-anchor="middle" x="311" y="-31.5" font-family="Helvetica,sans-Serif" font-size="10.00">::vkHandle</text>
</a>
</g>
</g>
<!-- Node20&#45;&gt;Node22 -->
<g id="edge3" class="edge"><title>Node20&#45;&gt;Node22</title>
<path fill="none" stroke="midnightblue" d="M238.162,-53.5308C246.746,-51.8542 255.521,-50.1404 263.857,-48.5123"/>
<polygon fill="midnightblue" stroke="midnightblue" points="237.355,-50.1223 228.211,-55.4744 238.696,-56.9925 237.355,-50.1223"/>
</g>
</g>
</svg>
