<?xml version="1.0" encoding="UTF-8" standalone="no"?>
<!DOCTYPE svg PUBLIC "-//W3C//DTD SVG 1.1//EN"
 "http://www.w3.org/Graphics/SVG/1.1/DTD/svg11.dtd">
<!-- Generated by graphviz version 2.38.0 (20140413.2041)
 -->
<!-- Title: el::Configurations::set Pages: 1 -->
<svg width="247pt" height="137pt"
 viewBox="0.00 0.00 247.00 137.00" xmlns="http://www.w3.org/2000/svg" xmlns:xlink="http://www.w3.org/1999/xlink">
<g id="graph0" class="graph" transform="scale(1 1) rotate(0) translate(4 133)">
<title>el::Configurations::set</title>
<polygon fill="white" stroke="none" points="-4,4 -4,-133 243,-133 243,4 -4,4"/>
<!-- Node115 -->
<g id="node1" class="node"><title>Node115</title>
<polygon fill="#bfbfbf" stroke="black" points="0,-55 0,-74 111,-74 111,-55 0,-55"/>
<text text-anchor="middle" x="55.5" y="-62" font-family="Helvetica,sans-Serif" font-size="10.00">el::Configurations::set</text>
</g>
<!-- Node116 -->
<g id="node2" class="node"><title>Node116</title>
<g id="a_node2"><a xlink:href="classel_1_1_configuration.html#abd69269de9fa62e0052aeaca35814dc0" target="_top" xlink:title="Gets configuration type of current configuration. ">
<polygon fill="white" stroke="black" points="147,-98.5 147,-128.5 239,-128.5 239,-98.5 147,-98.5"/>
<text text-anchor="start" x="155" y="-116.5" font-family="Helvetica,sans-Serif" font-size="10.00">el::Configuration::</text>
<text text-anchor="middle" x="193" y="-105.5" font-family="Helvetica,sans-Serif" font-size="10.00">configurationType</text>
</a>
</g>
</g>
<!-- Node115&#45;&gt;Node116 -->
<g id="edge1" class="edge"><title>Node115&#45;&gt;Node116</title>
<path fill="none" stroke="midnightblue" d="M82.9474,-74.064C99.428,-80.0238 121.181,-87.8903 140.921,-95.0287"/>
<polygon fill="midnightblue" stroke="midnightblue" points="139.824,-98.3537 150.418,-98.463 142.204,-91.7709 139.824,-98.3537"/>
</g>
<!-- Node117 -->
<g id="node3" class="node"><title>Node117</title>
<g id="a_node3"><a xlink:href="classel_1_1_configuration.html#a4f7015eb299c0250dadc9eb15be76c31" target="_top" xlink:title="Gets level of current configuration. ">
<polygon fill="white" stroke="black" points="147,-49.5 147,-79.5 239,-79.5 239,-49.5 147,-49.5"/>
<text text-anchor="start" x="155" y="-67.5" font-family="Helvetica,sans-Serif" font-size="10.00">el::Configuration::</text>
<text text-anchor="middle" x="193" y="-56.5" font-family="Helvetica,sans-Serif" font-size="10.00">level</text>
</a>
</g>
</g>
<!-- Node115&#45;&gt;Node117 -->
<g id="edge2" class="edge"><title>Node115&#45;&gt;Node117</title>
<path fill="none" stroke="midnightblue" d="M111.222,-64.5C119.577,-64.5 128.207,-64.5 136.577,-64.5"/>
<polygon fill="midnightblue" stroke="midnightblue" points="136.621,-68.0001 146.621,-64.5 136.621,-61.0001 136.621,-68.0001"/>
</g>
<!-- Node118 -->
<g id="node4" class="node"><title>Node118</title>
<g id="a_node4"><a xlink:href="classel_1_1_configuration.html#a17acf05de64478fa6f54b9ddbbc248e5" target="_top" xlink:title="Gets string based configuration value. ">
<polygon fill="white" stroke="black" points="147,-0.5 147,-30.5 239,-30.5 239,-0.5 147,-0.5"/>
<text text-anchor="start" x="155" y="-18.5" font-family="Helvetica,sans-Serif" font-size="10.00">el::Configuration::</text>
<text text-anchor="middle" x="193" y="-7.5" font-family="Helvetica,sans-Serif" font-size="10.00">value</text>
</a>
</g>
</g>
<!-- Node115&#45;&gt;Node118 -->
<g id="edge3" class="edge"><title>Node115&#45;&gt;Node118</title>
<path fill="none" stroke="midnightblue" d="M82.9474,-54.936C99.428,-48.9762 121.181,-41.1097 140.921,-33.9713"/>
<polygon fill="midnightblue" stroke="midnightblue" points="142.204,-37.2291 150.418,-30.537 139.824,-30.6463 142.204,-37.2291"/>
</g>
</g>
</svg>
