<?xml version="1.0" encoding="UTF-8" standalone="no"?>
<!DOCTYPE svg PUBLIC "-//W3C//DTD SVG 1.1//EN"
 "http://www.w3.org/Graphics/SVG/1.1/DTD/svg11.dtd">
<!-- Generated by graphviz version 2.38.0 (20140413.2041)
 -->
<!-- Title: el::base::utils::Registry&lt; T_Ptr, T_Key &gt; Pages: 1 -->
<svg width="137pt" height="184pt"
 viewBox="0.00 0.00 137.00 184.00" xmlns="http://www.w3.org/2000/svg" xmlns:xlink="http://www.w3.org/1999/xlink">
<g id="graph0" class="graph" transform="scale(1 1) rotate(0) translate(4 180)">
<title>el::base::utils::Registry&lt; T_Ptr, T_Key &gt;</title>
<polygon fill="white" stroke="none" points="-4,4 -4,-180 133,-180 133,4 -4,4"/>
<!-- Node0 -->
<g id="node1" class="node"><title>Node0</title>
<polygon fill="#bfbfbf" stroke="black" points="6,-0.5 6,-30.5 123,-30.5 123,-0.5 6,-0.5"/>
<text text-anchor="start" x="14" y="-18.5" font-family="Helvetica,sans-Serif" font-size="10.00">el::base::utils::Registry</text>
<text text-anchor="middle" x="64.5" y="-7.5" font-family="Helvetica,sans-Serif" font-size="10.00">&lt; T_Ptr, T_Key &gt;</text>
</g>
<!-- Node1 -->
<g id="node2" class="node"><title>Node1</title>
<g id="a_node2"><a xlink:href="classel_1_1base_1_1utils_1_1_abstract_registry.html" target="_top" xlink:title="el::base::utils::Abstract\lRegistry\&lt; T_Ptr, std::map\l\&lt; T_Key, T_Ptr *\&gt; \&gt;">
<polygon fill="white" stroke="black" points="0,-67.5 0,-108.5 129,-108.5 129,-67.5 0,-67.5"/>
<text text-anchor="start" x="8" y="-96.5" font-family="Helvetica,sans-Serif" font-size="10.00">el::base::utils::Abstract</text>
<text text-anchor="start" x="8" y="-85.5" font-family="Helvetica,sans-Serif" font-size="10.00">Registry&lt; T_Ptr, std::map</text>
<text text-anchor="middle" x="64.5" y="-74.5" font-family="Helvetica,sans-Serif" font-size="10.00">&lt; T_Key, T_Ptr *&gt; &gt;</text>
</a>
</g>
</g>
<!-- Node1&#45;&gt;Node0 -->
<g id="edge1" class="edge"><title>Node1&#45;&gt;Node0</title>
<path fill="none" stroke="midnightblue" d="M64.5,-57.08C64.5,-48.0061 64.5,-38.4498 64.5,-30.8916"/>
<polygon fill="midnightblue" stroke="midnightblue" points="61.0001,-57.3618 64.5,-67.3618 68.0001,-57.3619 61.0001,-57.3618"/>
</g>
<!-- Node2 -->
<g id="node3" class="node"><title>Node2</title>
<g id="a_node3"><a xlink:href="classel_1_1base_1_1threading_1_1_thread_safe.html" target="_top" xlink:title="Base of thread safe class, this class is inheritable&#45;only. ">
<polygon fill="white" stroke="black" points="16,-145.5 16,-175.5 113,-175.5 113,-145.5 16,-145.5"/>
<text text-anchor="start" x="24" y="-163.5" font-family="Helvetica,sans-Serif" font-size="10.00">el::base::threading</text>
<text text-anchor="middle" x="64.5" y="-152.5" font-family="Helvetica,sans-Serif" font-size="10.00">::ThreadSafe</text>
</a>
</g>
</g>
<!-- Node2&#45;&gt;Node1 -->
<g id="edge2" class="edge"><title>Node2&#45;&gt;Node1</title>
<path fill="none" stroke="midnightblue" d="M64.5,-134.982C64.5,-126.347 64.5,-116.762 64.5,-108.588"/>
<polygon fill="midnightblue" stroke="midnightblue" points="61.0001,-135.233 64.5,-145.233 68.0001,-135.233 61.0001,-135.233"/>
</g>
</g>
</svg>
