<?xml version="1.0" encoding="UTF-8" standalone="no"?>
<!DOCTYPE svg PUBLIC "-//W3C//DTD SVG 1.1//EN"
 "http://www.w3.org/Graphics/SVG/1.1/DTD/svg11.dtd">
<!-- Generated by graphviz version 2.38.0 (20140413.2041)
 -->
<!-- Title: el::Callback&lt; T &gt; Pages: 1 -->
<svg width="107pt" height="231pt"
 viewBox="0.00 0.00 107.00 231.00" xmlns="http://www.w3.org/2000/svg" xmlns:xlink="http://www.w3.org/1999/xlink">
<g id="graph0" class="graph" transform="scale(1 1) rotate(0) translate(4 227)">
<title>el::Callback&lt; T &gt;</title>
<polygon fill="white" stroke="none" points="-4,4 -4,-227 103,-227 103,4 -4,4"/>
<!-- Node2 -->
<g id="node1" class="node"><title>Node2</title>
<polygon fill="#bfbfbf" stroke="black" points="4,-0.5 4,-19.5 95,-19.5 95,-0.5 4,-0.5"/>
<text text-anchor="middle" x="49.5" y="-7.5" font-family="Helvetica,sans-Serif" font-size="10.00">el::Callback&lt; T &gt;</text>
</g>
<!-- Node3 -->
<g id="node2" class="node"><title>Node3</title>
<g id="a_node2"><a xlink:href="classel_1_1base_1_1threading_1_1_thread_safe.html" target="_top" xlink:title="Base of thread safe class, this class is inheritable&#45;only. ">
<polygon fill="white" stroke="black" points="1,-57.5 1,-87.5 98,-87.5 98,-57.5 1,-57.5"/>
<text text-anchor="start" x="9" y="-75.5" font-family="Helvetica,sans-Serif" font-size="10.00">el::base::threading</text>
<text text-anchor="middle" x="49.5" y="-64.5" font-family="Helvetica,sans-Serif" font-size="10.00">::ThreadSafe</text>
</a>
</g>
</g>
<!-- Node3&#45;&gt;Node2 -->
<g id="edge1" class="edge"><title>Node3&#45;&gt;Node2</title>
<path fill="none" stroke="darkgreen" d="M49.5,-47.3524C49.5,-37.5132 49.5,-26.7753 49.5,-19.5399"/>
<polygon fill="darkgreen" stroke="darkgreen" points="46.0001,-47.468 49.5,-57.468 53.0001,-47.4681 46.0001,-47.468"/>
</g>
<!-- Node4 -->
<g id="node3" class="node"><title>Node4</title>
<g id="a_node3"><a xlink:href="classel_1_1base_1_1threading_1_1internal_1_1_no_mutex.html" target="_top" xlink:title="Mutex wrapper used when multi&#45;threading is disabled. ">
<polygon fill="white" stroke="black" points="0,-135.5 0,-165.5 99,-165.5 99,-135.5 0,-135.5"/>
<text text-anchor="start" x="8" y="-153.5" font-family="Helvetica,sans-Serif" font-size="10.00">el::base::threading</text>
<text text-anchor="middle" x="49.5" y="-142.5" font-family="Helvetica,sans-Serif" font-size="10.00">::internal::NoMutex</text>
</a>
</g>
</g>
<!-- Node4&#45;&gt;Node3 -->
<g id="edge2" class="edge"><title>Node4&#45;&gt;Node3</title>
<path fill="none" stroke="#9a32cd" stroke-dasharray="5,2" d="M49.5,-125.09C49.5,-112.757 49.5,-98.2237 49.5,-87.7309"/>
<polygon fill="#9a32cd" stroke="#9a32cd" points="46.0001,-125.205 49.5,-135.205 53.0001,-125.205 46.0001,-125.205"/>
<text text-anchor="middle" x="71.5" y="-109" font-family="Helvetica,sans-Serif" font-size="10.00"> m_mutex</text>
</g>
<!-- Node5 -->
<g id="node4" class="node"><title>Node5</title>
<g id="a_node4"><a xlink:href="classel_1_1base_1_1_no_copy.html" target="_top" xlink:title="Internal helper class that prevent copy constructor for class. ">
<polygon fill="white" stroke="black" points="3.5,-203.5 3.5,-222.5 95.5,-222.5 95.5,-203.5 3.5,-203.5"/>
<text text-anchor="middle" x="49.5" y="-210.5" font-family="Helvetica,sans-Serif" font-size="10.00">el::base::NoCopy</text>
</a>
</g>
</g>
<!-- Node5&#45;&gt;Node4 -->
<g id="edge3" class="edge"><title>Node5&#45;&gt;Node4</title>
<path fill="none" stroke="#8b1a1a" d="M49.5,-193.215C49.5,-184.356 49.5,-173.958 49.5,-165.759"/>
<polygon fill="#8b1a1a" stroke="#8b1a1a" points="46.0001,-193.332 49.5,-203.332 53.0001,-193.332 46.0001,-193.332"/>
</g>
</g>
</svg>
