<?xml version="1.0" encoding="UTF-8" standalone="no"?>
<!DOCTYPE svg PUBLIC "-//W3C//DTD SVG 1.1//EN"
 "http://www.w3.org/Graphics/SVG/1.1/DTD/svg11.dtd">
<!-- Generated by graphviz version 2.38.0 (20140413.2041)
 -->
<!-- Title: vpr::MemoryBlock::Destroy Pages: 1 -->
<svg width="459pt" height="28pt"
 viewBox="0.00 0.00 459.00 28.00" xmlns="http://www.w3.org/2000/svg" xmlns:xlink="http://www.w3.org/1999/xlink">
<g id="graph0" class="graph" transform="scale(1 1) rotate(0) translate(4 24)">
<title>vpr::MemoryBlock::Destroy</title>
<polygon fill="white" stroke="none" points="-4,4 -4,-24 455,-24 455,4 -4,4"/>
<!-- Node35 -->
<g id="node1" class="node"><title>Node35</title>
<polygon fill="#bfbfbf" stroke="black" points="0,-0.5 0,-19.5 134,-19.5 134,-0.5 0,-0.5"/>
<text text-anchor="middle" x="67" y="-7.5" font-family="Helvetica,sans-Serif" font-size="10.00">vpr::MemoryBlock::Destroy</text>
</g>
<!-- Node36 -->
<g id="node2" class="node"><title>Node36</title>
<g id="a_node2"><a xlink:href="classvpr_1_1_allocator.html#a1be30aa02991f0323def73b9be9a3c44" target="_top" xlink:title="vpr::Allocator::DeviceHandle">
<polygon fill="white" stroke="black" points="170,-0.5 170,-19.5 307,-19.5 307,-0.5 170,-0.5"/>
<text text-anchor="middle" x="238.5" y="-7.5" font-family="Helvetica,sans-Serif" font-size="10.00">vpr::Allocator::DeviceHandle</text>
</a>
</g>
</g>
<!-- Node35&#45;&gt;Node36 -->
<g id="edge1" class="edge"><title>Node35&#45;&gt;Node36</title>
<path fill="none" stroke="midnightblue" d="M134.018,-10C142.503,-10 151.252,-10 159.901,-10"/>
<polygon fill="midnightblue" stroke="midnightblue" points="159.986,-13.5001 169.986,-10 159.986,-6.5001 159.986,-13.5001"/>
</g>
<!-- Node37 -->
<g id="node3" class="node"><title>Node37</title>
<g id="a_node3"><a xlink:href="classvpr_1_1_device.html#a59882855173bef0b13a17b376ea01d45" target="_top" xlink:title="vpr::Device::vkHandle">
<polygon fill="white" stroke="black" points="343,-0.5 343,-19.5 451,-19.5 451,-0.5 343,-0.5"/>
<text text-anchor="middle" x="397" y="-7.5" font-family="Helvetica,sans-Serif" font-size="10.00">vpr::Device::vkHandle</text>
</a>
</g>
</g>
<!-- Node36&#45;&gt;Node37 -->
<g id="edge2" class="edge"><title>Node36&#45;&gt;Node37</title>
<path fill="none" stroke="midnightblue" d="M307.233,-10C315.69,-10 324.314,-10 332.7,-10"/>
<polygon fill="midnightblue" stroke="midnightblue" points="332.784,-13.5001 342.784,-10 332.784,-6.5001 332.784,-13.5001"/>
</g>
</g>
</svg>
