<?xml version="1.0" encoding="UTF-8" standalone="no"?>
<!DOCTYPE svg PUBLIC "-//W3C//DTD SVG 1.1//EN"
 "http://www.w3.org/Graphics/SVG/1.1/DTD/svg11.dtd">
<!-- Generated by graphviz version 2.38.0 (20140413.2041)
 -->
<!-- Title: vpr::Device Pages: 1 -->
<!--zoomable 230 -->
<svg id="main" version="1.1" xmlns="http://www.w3.org/2000/svg" xmlns:xlink="http://www.w3.org/1999/xlink" xml:space="preserve" onload="init(evt)">
<style type="text/css"><![CDATA[
.edge:hover path { stroke: red; }
.edge:hover polygon { stroke: red; fill: red; }
]]></style>
<script type="text/javascript"><![CDATA[
var edges = document.getElementsByTagName('g');
if (edges && edges.length) {
  for (var i=0;i<edges.length;i++) {
    if (edges[i].id.substr(0,4)=='edge') {
      edges[i].setAttribute('class','edge');
    }
  }
}
]]></script>
        <defs>
                <circle id="rim" cx="0" cy="0" r="7"/>
                <circle id="rim2" cx="0" cy="0" r="3.5"/>
                <g id="zoomPlus">
                        <use xlink:href="#rim" fill="#404040">
                                <set attributeName="fill" to="#808080" begin="zoomplus.mouseover" end="zoomplus.mouseout"/>
                        </use>
                        <path d="M-4,0h8M0,-4v8" fill="none" stroke="white" stroke-width="1.5" pointer-events="none"/>
                </g>
                <g id="zoomMin">
                        <use xlink:href="#rim" fill="#404040">
                                <set attributeName="fill" to="#808080" begin="zoomminus.mouseover" end="zoomminus.mouseout"/>
                        </use>
                        <path d="M-4,0h8" fill="none" stroke="white" stroke-width="1.5" pointer-events="none"/>
                </g>
                <g id="dirArrow">
                        <path fill="none" stroke="white" stroke-width="1.5" d="M0,-3.0v7 M-2.5,-0.5L0,-3.0L2.5,-0.5"/>
                </g>
               <g id="resetDef">
                       <use xlink:href="#rim2" fill="#404040">
                               <set attributeName="fill" to="#808080" begin="reset.mouseover" end="reset.mouseout"/>
                       </use>
               </g>
        </defs>

<script type="text/javascript">
var viewWidth = 1574;
var viewHeight = 230;
var sectionId = 'dynsection-0';
</script>
<script xlink:href="svgpan.js"/>
<svg id="graph" class="graph">
<g id="viewport">
<title>vpr::Device</title>
<polygon fill="white" stroke="none" points="-4,4 -4,-226 1570,-226 1570,4 -4,4"/>
<!-- Node1 -->
<g id="node1" class="node"><title>Node1</title>
<polygon fill="#bfbfbf" stroke="black" points="1241,-149.5 1241,-168.5 1304,-168.5 1304,-149.5 1241,-149.5"/>
<text text-anchor="middle" x="1272.5" y="-156.5" font-family="Helvetica,sans-Serif" font-size="10.00">vpr::Device</text>
</g>
<!-- Node2 -->
<g id="node2" class="node"><title>Node2</title>
<g id="a_node2"><a xlink:href="structvpr_1_1_device_data_members.html" target="_top" xlink:title="vpr::DeviceDataMembers">
<polygon fill="white" stroke="black" points="1442,-87.5 1442,-106.5 1566,-106.5 1566,-87.5 1442,-87.5"/>
<text text-anchor="middle" x="1504" y="-94.5" font-family="Helvetica,sans-Serif" font-size="10.00">vpr::DeviceDataMembers</text>
</a>
</g>
</g>
<!-- Node1&#45;&gt;Node2 -->
<g id="edge2" class="edge"><title>Node1&#45;&gt;Node2</title>
<path fill="none" stroke="#9a32cd" stroke-dasharray="5,2" d="M1309.92,-146.101C1325.54,-140.783 1344.07,-134.763 1361,-130 1392.8,-121.057 1429.07,-112.656 1457,-106.569"/>
<polygon fill="#9a32cd" stroke="#9a32cd" points="1308.43,-142.912 1300.11,-149.475 1310.71,-149.531 1308.43,-142.912"/>
<text text-anchor="middle" x="1392.5" y="-133" font-family="Helvetica,sans-Serif" font-size="10.00"> device</text>
</g>
<!-- Node2&#45;&gt;Node1 -->
<g id="edge1" class="edge"><title>Node2&#45;&gt;Node1</title>
<path fill="none" stroke="#9a32cd" stroke-dasharray="5,2" d="M1482.19,-112.416C1466.9,-122.892 1445.18,-136.061 1424,-143 1384.05,-156.089 1335.25,-159.067 1304.26,-159.459"/>
<polygon fill="#9a32cd" stroke="#9a32cd" points="1484.24,-115.251 1490.4,-106.627 1480.21,-109.531 1484.24,-115.251"/>
<text text-anchor="middle" x="1392.5" y="-159" font-family="Helvetica,sans-Serif" font-size="10.00"> dataMembers</text>
</g>
<!-- Node3 -->
<g id="node3" class="node"><title>Node3</title>
<polygon fill="white" stroke="#bfbfbf" points="1202,-88 1202,-118 1343,-118 1343,-88 1202,-88"/>
<text text-anchor="start" x="1210" y="-106" font-family="Helvetica,sans-Serif" font-size="10.00">std::map&lt; VkQueueFlags,</text>
<text text-anchor="middle" x="1272.5" y="-95" font-family="Helvetica,sans-Serif" font-size="10.00"> VkDeviceQueueCreateInfo &gt;</text>
</g>
<!-- Node3&#45;&gt;Node2 -->
<g id="edge3" class="edge"><title>Node3&#45;&gt;Node2</title>
<path fill="none" stroke="#9a32cd" stroke-dasharray="5,2" d="M1353.31,-98.2732C1355.9,-98.1727 1358.47,-98.0811 1361,-98 1387.49,-97.1504 1416.77,-96.838 1441.83,-96.7615"/>
<polygon fill="#9a32cd" stroke="#9a32cd" points="1353.06,-94.7806 1343.22,-98.701 1353.36,-101.774 1353.06,-94.7806"/>
<text text-anchor="middle" x="1392.5" y="-101" font-family="Helvetica,sans-Serif" font-size="10.00"> queueInfos</text>
</g>
<!-- Node4 -->
<g id="node4" class="node"><title>Node4</title>
<polygon fill="white" stroke="#bfbfbf" points="425,-70 425,-100 520,-100 520,-70 425,-70"/>
<text text-anchor="start" x="433" y="-88" font-family="Helvetica,sans-Serif" font-size="10.00">std::vector&lt; const</text>
<text text-anchor="middle" x="472.5" y="-77" font-family="Helvetica,sans-Serif" font-size="10.00"> char *&gt;</text>
</g>
<!-- Node4&#45;&gt;Node2 -->
<g id="edge4" class="edge"><title>Node4&#45;&gt;Node2</title>
<path fill="none" stroke="#9a32cd" stroke-dasharray="5,2" d="M530.173,-76.5091C585.768,-68.9235 673.018,-59 749,-59 749,-59 749,-59 1273.5,-59 1342.96,-59 1422.69,-76.1538 1467.52,-87.411"/>
<polygon fill="#9a32cd" stroke="#9a32cd" points="529.595,-73.0556 520.17,-77.8954 530.556,-79.9894 529.595,-73.0556"/>
<text text-anchor="middle" x="1007.5" y="-62" font-family="Helvetica,sans-Serif" font-size="10.00"> enabledExtensions</text>
</g>
<!-- Node15 -->
<g id="node15" class="node"><title>Node15</title>
<g id="a_node15"><a xlink:href="structvpr_1_1_instance_extension_handler.html" target="_top" xlink:title="vpr::InstanceExtensionHandler">
<polygon fill="white" stroke="black" points="676,-87.5 676,-106.5 824,-106.5 824,-87.5 676,-87.5"/>
<text text-anchor="middle" x="750" y="-94.5" font-family="Helvetica,sans-Serif" font-size="10.00">vpr::InstanceExtensionHandler</text>
</a>
</g>
</g>
<!-- Node4&#45;&gt;Node15 -->
<g id="edge16" class="edge"><title>Node4&#45;&gt;Node15</title>
<path fill="none" stroke="#9a32cd" stroke-dasharray="5,2" d="M530.32,-87.4749C572.446,-89.3098 630.218,-91.8262 675.803,-93.8117"/>
<polygon fill="#9a32cd" stroke="#9a32cd" points="530.378,-83.9742 520.235,-87.0356 530.073,-90.9676 530.378,-83.9742"/>
<text text-anchor="middle" x="605" y="-96" font-family="Helvetica,sans-Serif" font-size="10.00"> extensionStrings</text>
</g>
<!-- Node5 -->
<g id="node5" class="node"><title>Node5</title>
<polygon fill="white" stroke="#bfbfbf" points="411,-7.5 411,-26.5 534,-26.5 534,-7.5 411,-7.5"/>
<text text-anchor="middle" x="472.5" y="-14.5" font-family="Helvetica,sans-Serif" font-size="10.00">std::vector&lt; std::string &gt;</text>
</g>
<!-- Node5&#45;&gt;Node2 -->
<g id="edge5" class="edge"><title>Node5&#45;&gt;Node2</title>
<path fill="none" stroke="#9a32cd" stroke-dasharray="5,2" d="M544.265,-10.2271C599.87,-5.48757 679.3,-0 749,-0 749,-0 749,-0 1273.5,-0 1362.61,-0 1456.91,-62.8096 1490.35,-87.3446"/>
<polygon fill="#9a32cd" stroke="#9a32cd" points="543.828,-6.75182 534.167,-11.1019 544.432,-13.7257 543.828,-6.75182"/>
<text text-anchor="middle" x="1007.5" y="-3" font-family="Helvetica,sans-Serif" font-size="10.00"> copiedExtensionStrings</text>
</g>
<!-- Node5&#45;&gt;Node15 -->
<g id="edge17" class="edge"><title>Node5&#45;&gt;Node15</title>
<path fill="none" stroke="#9a32cd" stroke-dasharray="5,2" d="M516.273,-29.4204C571.407,-45.4303 666.098,-72.9268 716.004,-87.4186"/>
<polygon fill="#9a32cd" stroke="#9a32cd" points="517.037,-25.9979 506.458,-26.5704 515.085,-32.7203 517.037,-25.9979"/>
<text text-anchor="middle" x="605" y="-72" font-family="Helvetica,sans-Serif" font-size="10.00"> copiedExtensionStrings</text>
</g>
<!-- Node6 -->
<g id="node6" class="node"><title>Node6</title>
<g id="a_node6"><a xlink:title="STL class. ">
<polygon fill="white" stroke="#bfbfbf" points="172,-7.5 172,-26.5 232,-26.5 232,-7.5 172,-7.5"/>
<text text-anchor="middle" x="202" y="-14.5" font-family="Helvetica,sans-Serif" font-size="10.00">std::string</text>
</a>
</g>
</g>
<!-- Node6&#45;&gt;Node5 -->
<g id="edge6" class="edge"><title>Node6&#45;&gt;Node5</title>
<path fill="none" stroke="#9a32cd" stroke-dasharray="5,2" d="M242.344,-17C286.71,-17 359.378,-17 410.979,-17"/>
<polygon fill="#9a32cd" stroke="#9a32cd" points="242.245,-13.5001 232.245,-17 242.245,-20.5001 242.245,-13.5001"/>
<text text-anchor="middle" x="341.5" y="-20" font-family="Helvetica,sans-Serif" font-size="10.00"> elements</text>
</g>
<!-- Node7 -->
<g id="node7" class="node"><title>Node7</title>
<g id="a_node7"><a xlink:title="STL class. ">
<polygon fill="white" stroke="#bfbfbf" points="0,-2 0,-32 95,-32 95,-2 0,-2"/>
<text text-anchor="start" x="8" y="-20" font-family="Helvetica,sans-Serif" font-size="10.00">std::basic_string&lt;</text>
<text text-anchor="middle" x="47.5" y="-9" font-family="Helvetica,sans-Serif" font-size="10.00"> char &gt;</text>
</a>
</g>
</g>
<!-- Node7&#45;&gt;Node6 -->
<g id="edge7" class="edge"><title>Node7&#45;&gt;Node6</title>
<path fill="none" stroke="midnightblue" d="M105.301,-17C127.986,-17 153.131,-17 171.951,-17"/>
<polygon fill="midnightblue" stroke="midnightblue" points="105.084,-13.5001 95.0837,-17 105.084,-20.5001 105.084,-13.5001"/>
</g>
<!-- Node8 -->
<g id="node8" class="node"><title>Node8</title>
<g id="a_node8"><a xlink:href="structvpr_1_1vk_queue_family_indices.html" target="_top" xlink:title="Simple wrapper struct for storing queue family indices. ">
<polygon fill="white" stroke="black" points="941.5,-126.5 941.5,-145.5 1073.5,-145.5 1073.5,-126.5 941.5,-126.5"/>
<text text-anchor="middle" x="1007.5" y="-133.5" font-family="Helvetica,sans-Serif" font-size="10.00">vpr::vkQueueFamilyIndices</text>
</a>
</g>
</g>
<!-- Node8&#45;&gt;Node1 -->
<g id="edge8" class="edge"><title>Node8&#45;&gt;Node1</title>
<path fill="none" stroke="#9a32cd" stroke-dasharray="5,2" d="M1083.85,-141.63C1114.88,-144.048 1151.18,-147.004 1184,-150 1202.86,-151.722 1223.98,-153.887 1240.74,-155.662"/>
<polygon fill="#9a32cd" stroke="#9a32cd" points="1083.78,-138.115 1073.54,-140.832 1083.24,-145.094 1083.78,-138.115"/>
<text text-anchor="middle" x="1139" y="-153" font-family="Helvetica,sans-Serif" font-size="10.00"> queueFamilyIndices</text>
</g>
<!-- Node9 -->
<g id="node9" class="node"><title>Node9</title>
<g id="a_node9"><a xlink:href="classvpr_1_1_physical_device.html" target="_top" xlink:title="! PhysicalDevice is a wrapper around a VkPhysicalDevice object, which is itself merely a handle repre...">
<polygon fill="white" stroke="black" points="957,-164.5 957,-183.5 1058,-183.5 1058,-164.5 957,-164.5"/>
<text text-anchor="middle" x="1007.5" y="-171.5" font-family="Helvetica,sans-Serif" font-size="10.00">vpr::PhysicalDevice</text>
</a>
</g>
</g>
<!-- Node9&#45;&gt;Node1 -->
<g id="edge9" class="edge"><title>Node9&#45;&gt;Node1</title>
<path fill="none" stroke="#9a32cd" stroke-dasharray="5,2" d="M1068.36,-170.586C1122.06,-167.523 1198.7,-163.152 1240.83,-160.749"/>
<polygon fill="#9a32cd" stroke="#9a32cd" points="1068.06,-167.097 1058.28,-171.161 1068.46,-174.086 1068.06,-167.097"/>
<text text-anchor="middle" x="1139" y="-172" font-family="Helvetica,sans-Serif" font-size="10.00"> parent</text>
</g>
<!-- Node10 -->
<g id="node10" class="node"><title>Node10</title>
<polygon fill="white" stroke="#bfbfbf" points="692,-159 692,-189 808,-189 808,-159 692,-159"/>
<text text-anchor="start" x="700" y="-177" font-family="Helvetica,sans-Serif" font-size="10.00">std::unique_ptr&lt; vpr</text>
<text text-anchor="middle" x="750" y="-166" font-family="Helvetica,sans-Serif" font-size="10.00">::PhysicalDeviceImpl &gt;</text>
</g>
<!-- Node10&#45;&gt;Node9 -->
<g id="edge10" class="edge"><title>Node10&#45;&gt;Node9</title>
<path fill="none" stroke="#9a32cd" stroke-dasharray="5,2" d="M818.24,-174C861.769,-174 917.486,-174 956.981,-174"/>
<polygon fill="#9a32cd" stroke="#9a32cd" points="818.021,-170.5 808.021,-174 818.021,-177.5 818.021,-170.5"/>
<text text-anchor="middle" x="881.5" y="-177" font-family="Helvetica,sans-Serif" font-size="10.00"> impl</text>
</g>
<!-- Node11 -->
<g id="node11" class="node"><title>Node11</title>
<g id="a_node11"><a xlink:href="classvpr_1_1_physical_device_impl.html" target="_top" xlink:title="vpr::PhysicalDeviceImpl">
<polygon fill="white" stroke="black" points="413,-164.5 413,-183.5 532,-183.5 532,-164.5 413,-164.5"/>
<text text-anchor="middle" x="472.5" y="-171.5" font-family="Helvetica,sans-Serif" font-size="10.00">vpr::PhysicalDeviceImpl</text>
</a>
</g>
</g>
<!-- Node11&#45;&gt;Node10 -->
<g id="edge11" class="edge"><title>Node11&#45;&gt;Node10</title>
<path fill="none" stroke="#9a32cd" stroke-dasharray="5,2" d="M542.46,-174C588.501,-174 648.335,-174 691.742,-174"/>
<polygon fill="#9a32cd" stroke="#9a32cd" points="542.264,-170.5 532.264,-174 542.264,-177.5 542.264,-170.5"/>
<text text-anchor="middle" x="605" y="-177" font-family="Helvetica,sans-Serif" font-size="10.00"> ptr</text>
</g>
<!-- Node12 -->
<g id="node12" class="node"><title>Node12</title>
<polygon fill="white" stroke="#bfbfbf" points="132,-159 132,-189 272,-189 272,-159 132,-159"/>
<text text-anchor="start" x="140" y="-177" font-family="Helvetica,sans-Serif" font-size="10.00">std::vector&lt; VkQueueFamily</text>
<text text-anchor="middle" x="202" y="-166" font-family="Helvetica,sans-Serif" font-size="10.00">Properties &gt;</text>
</g>
<!-- Node12&#45;&gt;Node11 -->
<g id="edge12" class="edge"><title>Node12&#45;&gt;Node11</title>
<path fill="none" stroke="#9a32cd" stroke-dasharray="5,2" d="M282.285,-174C324.031,-174 374.348,-174 412.597,-174"/>
<polygon fill="#9a32cd" stroke="#9a32cd" points="282.145,-170.5 272.145,-174 282.145,-177.5 282.145,-170.5"/>
<text text-anchor="middle" x="341.5" y="-177" font-family="Helvetica,sans-Serif" font-size="10.00"> queueFamilyProperties</text>
</g>
<!-- Node13 -->
<g id="node13" class="node"><title>Node13</title>
<g id="a_node13"><a xlink:href="group___core.html#structvpr_1_1_vk_debug_utils_functions" target="_top" xlink:title="This structure will be populated with function pointers used to call the functions (as named) when av...">
<polygon fill="white" stroke="black" points="939,-202.5 939,-221.5 1076,-221.5 1076,-202.5 939,-202.5"/>
<text text-anchor="middle" x="1007.5" y="-209.5" font-family="Helvetica,sans-Serif" font-size="10.00">vpr::VkDebugUtilsFunctions</text>
</a>
</g>
</g>
<!-- Node13&#45;&gt;Node1 -->
<g id="edge13" class="edge"><title>Node13&#45;&gt;Node1</title>
<path fill="none" stroke="#9a32cd" stroke-dasharray="5,2" d="M1086.53,-201.604C1117.09,-196.999 1152.34,-191.023 1184,-184 1203.28,-179.724 1224.59,-173.663 1241.36,-168.58"/>
<polygon fill="#9a32cd" stroke="#9a32cd" points="1085.74,-198.183 1076.36,-203.113 1086.77,-205.107 1085.74,-198.183"/>
<text text-anchor="middle" x="1139" y="-203" font-family="Helvetica,sans-Serif" font-size="10.00"> debugUtilsHandler</text>
</g>
<!-- Node14 -->
<g id="node14" class="node"><title>Node14</title>
<g id="a_node14"><a xlink:href="classvpr_1_1_instance.html" target="_top" xlink:title="Instance is a wrapper around the base Vulkan object that must be initialized first. ">
<polygon fill="white" stroke="black" points="972,-88.5 972,-107.5 1043,-107.5 1043,-88.5 972,-88.5"/>
<text text-anchor="middle" x="1007.5" y="-95.5" font-family="Helvetica,sans-Serif" font-size="10.00">vpr::Instance</text>
</a>
</g>
</g>
<!-- Node14&#45;&gt;Node1 -->
<g id="edge14" class="edge"><title>Node14&#45;&gt;Node1</title>
<path fill="none" stroke="#9a32cd" stroke-dasharray="5,2" d="M1053.28,-103.5C1089.01,-108.404 1140.17,-116.579 1184,-128 1206.15,-133.77 1230.65,-142.677 1248.07,-149.466"/>
<polygon fill="#9a32cd" stroke="#9a32cd" points="1053.55,-100.005 1043.17,-102.144 1052.62,-106.943 1053.55,-100.005"/>
<text text-anchor="middle" x="1139" y="-131" font-family="Helvetica,sans-Serif" font-size="10.00"> parentInstance</text>
</g>
<!-- Node15&#45;&gt;Node14 -->
<g id="edge15" class="edge"><title>Node15&#45;&gt;Node14</title>
<path fill="none" stroke="#9a32cd" stroke-dasharray="5,2" d="M834.335,-97.3262C881.019,-97.5089 936.741,-97.727 971.879,-97.8645"/>
<polygon fill="#9a32cd" stroke="#9a32cd" points="834.23,-93.8258 824.216,-97.2866 834.202,-100.826 834.23,-93.8258"/>
<text text-anchor="middle" x="881.5" y="-101" font-family="Helvetica,sans-Serif" font-size="10.00"> extensionHandler</text>
</g>
</g>
</svg>
        <g id="navigator" transform="translate(0 0)" fill="#404254">
                <rect fill="#f2f5e9" fill-opacity="0.5" stroke="#606060" stroke-width=".5" x="0" y="0" width="60" height="60"/>
                <use id="zoomplus" xlink:href="#zoomPlus" x="17" y="9" onmousedown="handleZoom(evt,'in')"/>
                <use id="zoomminus" xlink:href="#zoomMin" x="42" y="9" onmousedown="handleZoom(evt,'out')"/>
                <use id="reset" xlink:href="#resetDef" x="30" y="36" onmousedown="handleReset()"/>
                <g id="arrowUp" xlink:href="#dirArrow" transform="translate(30 24)" onmousedown="handlePan(0,-1)">
                  <use xlink:href="#rim" fill="#404040">
                        <set attributeName="fill" to="#808080" begin="arrowUp.mouseover" end="arrowUp.mouseout"/>
                  </use>
                  <path fill="none" stroke="white" stroke-width="1.5" d="M0,-3.0v7 M-2.5,-0.5L0,-3.0L2.5,-0.5"/>
                </g>
                <g id="arrowRight" xlink:href="#dirArrow" transform="rotate(90) translate(36 -43)" onmousedown="handlePan(1,0)">
                  <use xlink:href="#rim" fill="#404040">
                        <set attributeName="fill" to="#808080" begin="arrowRight.mouseover" end="arrowRight.mouseout"/>
                  </use>
                  <path fill="none" stroke="white" stroke-width="1.5" d="M0,-3.0v7 M-2.5,-0.5L0,-3.0L2.5,-0.5"/>
                </g>
                <g id="arrowDown" xlink:href="#dirArrow" transform="rotate(180) translate(-30 -48)" onmousedown="handlePan(0,1)">
                  <use xlink:href="#rim" fill="#404040">
                        <set attributeName="fill" to="#808080" begin="arrowDown.mouseover" end="arrowDown.mouseout"/>
                  </use>
                  <path fill="none" stroke="white" stroke-width="1.5" d="M0,-3.0v7 M-2.5,-0.5L0,-3.0L2.5,-0.5"/>
                </g>
                <g id="arrowLeft" xlink:href="#dirArrow" transform="rotate(270) translate(-36 17)" onmousedown="handlePan(-1,0)">
                  <use xlink:href="#rim" fill="#404040">
                        <set attributeName="fill" to="#808080" begin="arrowLeft.mouseover" end="arrowLeft.mouseout"/>
                  </use>
                  <path fill="none" stroke="white" stroke-width="1.5" d="M0,-3.0v7 M-2.5,-0.5L0,-3.0L2.5,-0.5"/>
                </g>
        </g>
        <svg viewBox="0 0 15 15" width="100%" height="30px" preserveAspectRatio="xMaxYMin meet">
         <g id="arrow_out" transform="scale(0.3 0.3)">
          <a xlink:href="classvpr_1_1_device__coll__graph_org.svg" target="_base">
           <rect id="button" ry="5" rx="5" y="6" x="6" height="38" width="38"
                fill="#f2f5e9" fill-opacity="0.5" stroke="#606060" stroke-width="1.0"/>
           <path id="arrow"
             d="M 11.500037,31.436501 C 11.940474,20.09759 22.043105,11.32322 32.158766,21.979434 L 37.068811,17.246167 C 37.068811,17.246167 37.088388,32 37.088388,32 L 22.160133,31.978069 C 22.160133,31.978069 26.997745,27.140456 26.997745,27.140456 C 18.528582,18.264221 13.291696,25.230495 11.500037,31.436501 z"
             style="fill:#404040;"/>
          </a>
         </g>
        </svg>
</svg>
