<?xml version="1.0" encoding="UTF-8" standalone="no"?>
<!DOCTYPE svg PUBLIC "-//W3C//DTD SVG 1.1//EN"
 "http://www.w3.org/Graphics/SVG/1.1/DTD/svg11.dtd">
<!-- Generated by graphviz version 2.38.0 (20140413.2041)
 -->
<!-- Title: vpr::Buffer::CopyTo Pages: 1 -->
<svg width="267pt" height="154pt"
 viewBox="0.00 0.00 267.00 153.50" xmlns="http://www.w3.org/2000/svg" xmlns:xlink="http://www.w3.org/1999/xlink">
<g id="graph0" class="graph" transform="scale(1 1) rotate(0) translate(4 149.5)">
<title>vpr::Buffer::CopyTo</title>
<polygon fill="white" stroke="none" points="-4,4 -4,-149.5 263,-149.5 263,4 -4,4"/>
<!-- Node10 -->
<g id="node1" class="node"><title>Node10</title>
<polygon fill="#bfbfbf" stroke="black" points="0,-57.5 0,-76.5 98,-76.5 98,-57.5 0,-57.5"/>
<text text-anchor="middle" x="49" y="-64.5" font-family="Helvetica,sans-Serif" font-size="10.00">vpr::Buffer::CopyTo</text>
</g>
<!-- Node11 -->
<g id="node2" class="node"><title>Node11</title>
<g id="a_node2"><a xlink:href="classvpr_1_1_buffer.html#ac367138a3788a0a6df49c5c2ad890774" target="_top" xlink:title="vpr::Buffer::createStaging\lBuffer">
<polygon fill="white" stroke="black" points="134,-115 134,-145 259,-145 259,-115 134,-115"/>
<text text-anchor="start" x="142" y="-133" font-family="Helvetica,sans-Serif" font-size="10.00">vpr::Buffer::createStaging</text>
<text text-anchor="middle" x="196.5" y="-122" font-family="Helvetica,sans-Serif" font-size="10.00">Buffer</text>
</a>
</g>
</g>
<!-- Node10&#45;&gt;Node11 -->
<g id="edge1" class="edge"><title>Node10&#45;&gt;Node11</title>
<path fill="none" stroke="midnightblue" d="M70.6135,-76.594C87.5578,-84.4152 112.232,-95.6559 134,-105 138.647,-106.995 143.507,-109.04 148.372,-111.06"/>
<polygon fill="midnightblue" stroke="midnightblue" points="147.097,-114.32 157.676,-114.893 149.763,-107.848 147.097,-114.32"/>
</g>
<!-- Node12 -->
<g id="node3" class="node"><title>Node12</title>
<g id="a_node3"><a xlink:href="classvpr_1_1_allocation.html#a1a223e41ca865271544ece71d18edce2" target="_top" xlink:title="vpr::Allocation::Memory">
<polygon fill="white" stroke="black" points="137,-76.5 137,-95.5 256,-95.5 256,-76.5 137,-76.5"/>
<text text-anchor="middle" x="196.5" y="-83.5" font-family="Helvetica,sans-Serif" font-size="10.00">vpr::Allocation::Memory</text>
</a>
</g>
</g>
<!-- Node10&#45;&gt;Node12 -->
<g id="edge2" class="edge"><title>Node10&#45;&gt;Node12</title>
<path fill="none" stroke="midnightblue" d="M98.0454,-73.274C107.261,-74.4773 117.076,-75.7591 126.795,-77.0282"/>
<polygon fill="midnightblue" stroke="midnightblue" points="126.489,-80.5179 136.858,-78.3423 127.396,-73.5769 126.489,-80.5179"/>
</g>
<!-- Node13 -->
<g id="node4" class="node"><title>Node13</title>
<g id="a_node4"><a xlink:href="classvpr_1_1_allocation.html#acb642a53c185ac6530ed60959b0e4397" target="_top" xlink:title="vpr::Allocation::Offset">
<polygon fill="white" stroke="black" points="142,-38.5 142,-57.5 251,-57.5 251,-38.5 142,-38.5"/>
<text text-anchor="middle" x="196.5" y="-45.5" font-family="Helvetica,sans-Serif" font-size="10.00">vpr::Allocation::Offset</text>
</a>
</g>
</g>
<!-- Node10&#45;&gt;Node13 -->
<g id="edge3" class="edge"><title>Node10&#45;&gt;Node13</title>
<path fill="none" stroke="midnightblue" d="M98.0454,-60.726C108.929,-59.3048 120.65,-57.7743 132.06,-56.2843"/>
<polygon fill="midnightblue" stroke="midnightblue" points="132.516,-59.7546 141.978,-54.9891 131.609,-52.8135 132.516,-59.7546"/>
</g>
<!-- Node14 -->
<g id="node5" class="node"><title>Node14</title>
<g id="a_node5"><a xlink:href="classvpr_1_1_device.html#a59882855173bef0b13a17b376ea01d45" target="_top" xlink:title="vpr::Device::vkHandle">
<polygon fill="white" stroke="black" points="142.5,-0.5 142.5,-19.5 250.5,-19.5 250.5,-0.5 142.5,-0.5"/>
<text text-anchor="middle" x="196.5" y="-7.5" font-family="Helvetica,sans-Serif" font-size="10.00">vpr::Device::vkHandle</text>
</a>
</g>
</g>
<!-- Node10&#45;&gt;Node14 -->
<g id="edge4" class="edge"><title>Node10&#45;&gt;Node14</title>
<path fill="none" stroke="midnightblue" d="M69.3952,-57.3885C86.2353,-49.2466 111.399,-37.5648 134,-29 139.898,-26.765 146.184,-24.5921 152.401,-22.5624"/>
<polygon fill="midnightblue" stroke="midnightblue" points="153.574,-25.8623 162.047,-19.5025 151.457,-19.1899 153.574,-25.8623"/>
</g>
</g>
</svg>
