<?xml version="1.0" encoding="UTF-8" standalone="no"?>
<!DOCTYPE svg PUBLIC "-//W3C//DTD SVG 1.1//EN"
 "http://www.w3.org/Graphics/SVG/1.1/DTD/svg11.dtd">
<!-- Generated by graphviz version 2.38.0 (20140413.2041)
 -->
<!-- Title: el::Configurations::parseFromFile Pages: 1 -->
<svg width="537pt" height="113pt"
 viewBox="0.00 0.00 537.00 113.00" xmlns="http://www.w3.org/2000/svg" xmlns:xlink="http://www.w3.org/1999/xlink">
<g id="graph0" class="graph" transform="scale(1 1) rotate(0) translate(4 109)">
<title>el::Configurations::parseFromFile</title>
<polygon fill="white" stroke="none" points="-4,4 -4,-109 533,-109 533,4 -4,4"/>
<!-- Node84 -->
<g id="node1" class="node"><title>Node84</title>
<polygon fill="#bfbfbf" stroke="black" points="0,-24.5 0,-54.5 92,-54.5 92,-24.5 0,-24.5"/>
<text text-anchor="start" x="8" y="-42.5" font-family="Helvetica,sans-Serif" font-size="10.00">el::Configurations</text>
<text text-anchor="middle" x="46" y="-31.5" font-family="Helvetica,sans-Serif" font-size="10.00">::parseFromFile</text>
</g>
<!-- Node85 -->
<g id="node2" class="node"><title>Node85</title>
<g id="a_node2"><a xlink:href="classel_1_1_configurations_1_1_parser.html#ab8e266318b9feaeee4d3169e4a7ca275" target="_top" xlink:title="Parses configuration from file. ">
<polygon fill="white" stroke="black" points="128,-49.5 128,-79.5 247,-79.5 247,-49.5 128,-49.5"/>
<text text-anchor="start" x="136" y="-67.5" font-family="Helvetica,sans-Serif" font-size="10.00">el::Configurations</text>
<text text-anchor="middle" x="187.5" y="-56.5" font-family="Helvetica,sans-Serif" font-size="10.00">::Parser::parseFromFile</text>
</a>
</g>
</g>
<!-- Node84&#45;&gt;Node85 -->
<g id="edge1" class="edge"><title>Node84&#45;&gt;Node85</title>
<path fill="none" stroke="midnightblue" d="M92.2917,-47.6168C100.557,-49.0981 109.348,-50.6735 118.11,-52.2437"/>
<polygon fill="midnightblue" stroke="midnightblue" points="117.5,-55.6901 127.961,-54.0091 118.735,-48.7999 117.5,-55.6901"/>
</g>
<!-- Node89 -->
<g id="node6" class="node"><title>Node89</title>
<g id="a_node6"><a xlink:href="classel_1_1base_1_1utils_1_1_file.html#a43ffda98fdd01d23af20459fa1a65cac" target="_top" xlink:title="Determines whether or not provided path exist in current file system. ">
<polygon fill="white" stroke="black" points="139,-0.5 139,-30.5 236,-30.5 236,-0.5 139,-0.5"/>
<text text-anchor="start" x="147" y="-18.5" font-family="Helvetica,sans-Serif" font-size="10.00">el::base::utils::File</text>
<text text-anchor="middle" x="187.5" y="-7.5" font-family="Helvetica,sans-Serif" font-size="10.00">::pathExists</text>
</a>
</g>
</g>
<!-- Node84&#45;&gt;Node89 -->
<g id="edge5" class="edge"><title>Node84&#45;&gt;Node89</title>
<path fill="none" stroke="midnightblue" d="M92.2917,-31.7079C103.852,-29.719 116.439,-27.5535 128.539,-25.4718"/>
<polygon fill="midnightblue" stroke="midnightblue" points="129.293,-28.8936 138.555,-23.7487 128.106,-21.995 129.293,-28.8936"/>
</g>
<!-- Node86 -->
<g id="node3" class="node"><title>Node86</title>
<g id="a_node3"><a xlink:href="classel_1_1_configurations.html#a4c6db218908b39d23cc09b1a16a18e83" target="_top" xlink:title="Sets configuration based&#45;off an existing configurations. ">
<polygon fill="white" stroke="black" points="283,-49.5 283,-79.5 375,-79.5 375,-49.5 283,-49.5"/>
<text text-anchor="start" x="291" y="-67.5" font-family="Helvetica,sans-Serif" font-size="10.00">el::Configurations</text>
<text text-anchor="middle" x="329" y="-56.5" font-family="Helvetica,sans-Serif" font-size="10.00">::setFromBase</text>
</a>
</g>
</g>
<!-- Node85&#45;&gt;Node86 -->
<g id="edge2" class="edge"><title>Node85&#45;&gt;Node86</title>
<path fill="none" stroke="midnightblue" d="M247.256,-64.5C255.726,-64.5 264.418,-64.5 272.815,-64.5"/>
<polygon fill="midnightblue" stroke="midnightblue" points="272.877,-68.0001 282.877,-64.5 272.877,-61.0001 272.877,-68.0001"/>
</g>
<!-- Node87 -->
<g id="node4" class="node"><title>Node87</title>
<g id="a_node4"><a xlink:href="classel_1_1base_1_1threading_1_1_thread_safe.html#affb45b35790a7305d0a659562c8104fc" target="_top" xlink:title="el::base::threading\l::ThreadSafe::lock">
<polygon fill="white" stroke="black" points="421.5,-74.5 421.5,-104.5 518.5,-104.5 518.5,-74.5 421.5,-74.5"/>
<text text-anchor="start" x="429.5" y="-92.5" font-family="Helvetica,sans-Serif" font-size="10.00">el::base::threading</text>
<text text-anchor="middle" x="470" y="-81.5" font-family="Helvetica,sans-Serif" font-size="10.00">::ThreadSafe::lock</text>
</a>
</g>
</g>
<!-- Node86&#45;&gt;Node87 -->
<g id="edge3" class="edge"><title>Node86&#45;&gt;Node87</title>
<path fill="none" stroke="midnightblue" d="M375.129,-72.6168C386.648,-74.6886 399.19,-76.9443 411.247,-79.1127"/>
<polygon fill="midnightblue" stroke="midnightblue" points="410.765,-82.5821 421.226,-80.9076 412.004,-75.6927 410.765,-82.5821"/>
</g>
<!-- Node88 -->
<g id="node5" class="node"><title>Node88</title>
<g id="a_node5"><a xlink:href="classel_1_1base_1_1utils_1_1_abstract_registry.html#a072859d3728a75f910c2898f62fd12da" target="_top" xlink:title="Returns underlying container by reference. ">
<polygon fill="white" stroke="black" points="411,-25.5 411,-55.5 529,-55.5 529,-25.5 411,-25.5"/>
<text text-anchor="start" x="419" y="-43.5" font-family="Helvetica,sans-Serif" font-size="10.00">el::base::utils::Abstract</text>
<text text-anchor="middle" x="470" y="-32.5" font-family="Helvetica,sans-Serif" font-size="10.00">Registry::list</text>
</a>
</g>
</g>
<!-- Node86&#45;&gt;Node88 -->
<g id="edge4" class="edge"><title>Node86&#45;&gt;Node88</title>
<path fill="none" stroke="midnightblue" d="M375.129,-56.7079C383.423,-55.2759 392.247,-53.7523 401.038,-52.2344"/>
<polygon fill="midnightblue" stroke="midnightblue" points="401.661,-55.6787 410.92,-50.5282 400.47,-48.7808 401.661,-55.6787"/>
</g>
</g>
</svg>
