<?xml version="1.0" encoding="UTF-8" standalone="no"?>
<!DOCTYPE svg PUBLIC "-//W3C//DTD SVG 1.1//EN"
 "http://www.w3.org/Graphics/SVG/1.1/DTD/svg11.dtd">
<!-- Generated by graphviz version 2.38.0 (20140413.2041)
 -->
<!-- Title: el::Loggers::reconfigureLogger Pages: 1 -->
<svg width="748pt" height="619pt"
 viewBox="0.00 0.00 748.00 619.00" xmlns="http://www.w3.org/2000/svg" xmlns:xlink="http://www.w3.org/1999/xlink">
<g id="graph0" class="graph" transform="scale(1 1) rotate(0) translate(4 615)">
<title>el::Loggers::reconfigureLogger</title>
<polygon fill="white" stroke="none" points="-4,4 -4,-615 744,-615 744,4 -4,4"/>
<!-- Node139 -->
<g id="node1" class="node"><title>Node139</title>
<polygon fill="#bfbfbf" stroke="black" points="0,-352.5 0,-382.5 118,-382.5 118,-352.5 0,-352.5"/>
<text text-anchor="start" x="8" y="-370.5" font-family="Helvetica,sans-Serif" font-size="10.00">el::Loggers::reconfigure</text>
<text text-anchor="middle" x="59" y="-359.5" font-family="Helvetica,sans-Serif" font-size="10.00">Logger</text>
</g>
<!-- Node140 -->
<g id="node2" class="node"><title>Node140</title>
<g id="a_node2"><a xlink:href="classel_1_1_logger.html#aeb57aeaddbb3dcd0cb96114019817142" target="_top" xlink:title="el::Logger::configurations">
<polygon fill="white" stroke="black" points="154,-415 154,-434 279,-434 279,-415 154,-415"/>
<text text-anchor="middle" x="216.5" y="-422" font-family="Helvetica,sans-Serif" font-size="10.00">el::Logger::configurations</text>
</a>
</g>
</g>
<!-- Node139&#45;&gt;Node140 -->
<g id="edge1" class="edge"><title>Node139&#45;&gt;Node140</title>
<path fill="none" stroke="midnightblue" d="M95.4373,-382.651C112.931,-389.918 134.431,-398.536 154,-405.5 160.08,-407.664 166.547,-409.818 172.916,-411.857"/>
<polygon fill="midnightblue" stroke="midnightblue" points="172.186,-415.297 182.775,-414.952 174.282,-408.618 172.186,-415.297"/>
</g>
<!-- Node141 -->
<g id="node3" class="node"><title>Node141</title>
<g id="a_node3"><a xlink:href="classel_1_1_loggers.html#a53ebc2f38cf05bcffa6e1a5550ea5d02" target="_top" xlink:title="Gets existing or registers new logger. ">
<polygon fill="white" stroke="black" points="160,-377 160,-396 273,-396 273,-377 160,-377"/>
<text text-anchor="middle" x="216.5" y="-384" font-family="Helvetica,sans-Serif" font-size="10.00">el::Loggers::getLogger</text>
</a>
</g>
</g>
<!-- Node139&#45;&gt;Node141 -->
<g id="edge2" class="edge"><title>Node139&#45;&gt;Node141</title>
<path fill="none" stroke="midnightblue" d="M118.345,-374.629C128.663,-375.89 139.469,-377.21 149.97,-378.493"/>
<polygon fill="midnightblue" stroke="midnightblue" points="149.568,-381.97 159.918,-379.709 150.417,-375.022 149.568,-381.97"/>
</g>
<!-- Node142 -->
<g id="node4" class="node"><title>Node142</title>
<g id="a_node4"><a xlink:href="classel_1_1_logger.html#adfd57ab27fb398cc980a3edfab92927e" target="_top" xlink:title="Reconfigures logger using existing configurations. ">
<polygon fill="white" stroke="black" points="160,-339 160,-358 273,-358 273,-339 160,-339"/>
<text text-anchor="middle" x="216.5" y="-346" font-family="Helvetica,sans-Serif" font-size="10.00">el::Logger::reconfigure</text>
</a>
</g>
</g>
<!-- Node139&#45;&gt;Node142 -->
<g id="edge3" class="edge"><title>Node139&#45;&gt;Node142</title>
<path fill="none" stroke="midnightblue" d="M118.345,-360.371C128.663,-359.11 139.469,-357.79 149.97,-356.507"/>
<polygon fill="midnightblue" stroke="midnightblue" points="150.417,-359.978 159.918,-355.291 149.568,-353.03 150.417,-359.978"/>
</g>
<!-- Node158 -->
<g id="node14" class="node"><title>Node158</title>
<g id="a_node14"><a xlink:href="classel_1_1_configurations.html#a332717de96efc851a202b7afcc5e395c" target="_top" xlink:title="Sets value of configuration for specified level. ">
<polygon fill="white" stroke="black" points="161,-157 161,-176 272,-176 272,-157 161,-157"/>
<text text-anchor="middle" x="216.5" y="-164" font-family="Helvetica,sans-Serif" font-size="10.00">el::Configurations::set</text>
</a>
</g>
</g>
<!-- Node139&#45;&gt;Node158 -->
<g id="edge15" class="edge"><title>Node139&#45;&gt;Node158</title>
<path fill="none" stroke="midnightblue" d="M71.6878,-352.392C99.8052,-316.048 171.137,-223.843 201.487,-184.614"/>
<polygon fill="midnightblue" stroke="midnightblue" points="204.602,-186.307 207.952,-176.256 199.065,-182.024 204.602,-186.307"/>
</g>
<!-- Node143 -->
<g id="node5" class="node"><title>Node143</title>
<g id="a_node5"><a xlink:href="classel_1_1_logger.html#ad9db621dbf8977bf814dc7baea8dcee4" target="_top" xlink:title="Configures the logger using specified configurations. ">
<polygon fill="white" stroke="black" points="315,-411 315,-430 419,-430 419,-411 315,-411"/>
<text text-anchor="middle" x="367" y="-418" font-family="Helvetica,sans-Serif" font-size="10.00">el::Logger::configure</text>
</a>
</g>
</g>
<!-- Node142&#45;&gt;Node143 -->
<g id="edge4" class="edge"><title>Node142&#45;&gt;Node143</title>
<path fill="none" stroke="midnightblue" d="M253.825,-358.089C262.24,-360.756 271.053,-363.919 279,-367.5 302.265,-377.984 326.94,-393.486 344.047,-405.019"/>
<polygon fill="midnightblue" stroke="midnightblue" points="342.488,-408.193 352.715,-410.961 346.446,-402.42 342.488,-408.193"/>
</g>
<!-- Node144 -->
<g id="node6" class="node"><title>Node144</title>
<g id="a_node6"><a xlink:href="classel_1_1base_1_1_typed_configurations.html#a52bd4cc5e6684bc40391c096a8df3c2d" target="_top" xlink:title="el::base::TypedConfigurations\l::configurations">
<polygon fill="white" stroke="black" points="458.5,-580.5 458.5,-610.5 603.5,-610.5 603.5,-580.5 458.5,-580.5"/>
<text text-anchor="start" x="466.5" y="-598.5" font-family="Helvetica,sans-Serif" font-size="10.00">el::base::TypedConfigurations</text>
<text text-anchor="middle" x="531" y="-587.5" font-family="Helvetica,sans-Serif" font-size="10.00">::configurations</text>
</a>
</g>
</g>
<!-- Node143&#45;&gt;Node144 -->
<g id="edge5" class="edge"><title>Node143&#45;&gt;Node144</title>
<path fill="none" stroke="midnightblue" d="M370.908,-430.172C379.359,-456.648 406.447,-530.957 455,-570.5 457.245,-572.328 459.629,-574.025 462.114,-575.599"/>
<polygon fill="midnightblue" stroke="midnightblue" points="460.459,-578.684 470.898,-580.495 463.867,-572.569 460.459,-578.684"/>
</g>
<!-- Node145 -->
<g id="node7" class="node"><title>Node145</title>
<g id="a_node7"><a xlink:href="classel_1_1_logger.html#a9a89d454008b1ee1a197eec4b92ce22a" target="_top" xlink:title="Flushes logger to sync all log files for all levels. ">
<polygon fill="white" stroke="red" points="488,-542 488,-561 574,-561 574,-542 488,-542"/>
<text text-anchor="middle" x="531" y="-549" font-family="Helvetica,sans-Serif" font-size="10.00">el::Logger::flush</text>
</a>
</g>
</g>
<!-- Node143&#45;&gt;Node145 -->
<g id="edge6" class="edge"><title>Node143&#45;&gt;Node145</title>
<path fill="none" stroke="midnightblue" d="M373.166,-430.057C384.905,-450.883 415.648,-500.641 455,-527.5 462.061,-532.319 470.147,-536.216 478.337,-539.354"/>
<polygon fill="midnightblue" stroke="midnightblue" points="477.348,-542.716 487.942,-542.698 479.649,-536.105 477.348,-542.716"/>
</g>
<!-- Node148 -->
<g id="node8" class="node"><title>Node148</title>
<g id="a_node8"><a xlink:href="classel_1_1base_1_1threading_1_1_thread_safe.html#affb45b35790a7305d0a659562c8104fc" target="_top" xlink:title="el::base::threading\l::ThreadSafe::lock">
<polygon fill="white" stroke="black" points="643,-383.5 643,-413.5 740,-413.5 740,-383.5 643,-383.5"/>
<text text-anchor="start" x="651" y="-401.5" font-family="Helvetica,sans-Serif" font-size="10.00">el::base::threading</text>
<text text-anchor="middle" x="691.5" y="-390.5" font-family="Helvetica,sans-Serif" font-size="10.00">::ThreadSafe::lock</text>
</a>
</g>
</g>
<!-- Node143&#45;&gt;Node148 -->
<g id="edge10" class="edge"><title>Node143&#45;&gt;Node148</title>
<path fill="none" stroke="midnightblue" d="M375.316,-430.127C388.844,-447.032 419.64,-481.496 455,-494.5 518.404,-517.818 545.523,-522.506 607,-494.5 639.155,-479.852 663.727,-446.028 677.638,-422.711"/>
<polygon fill="midnightblue" stroke="midnightblue" points="680.838,-424.166 682.773,-413.749 674.765,-420.686 680.838,-424.166"/>
</g>
<!-- Node149 -->
<g id="node9" class="node"><title>Node149</title>
<g id="a_node9"><a xlink:href="classel_1_1_configurations.html#a1e812370f896b6429bf46b31fcd4e3e0" target="_top" xlink:title="Determines whether or not specified configuration type exists in the repository. ">
<polygon fill="white" stroke="red" points="483.5,-454.5 483.5,-484.5 578.5,-484.5 578.5,-454.5 483.5,-454.5"/>
<text text-anchor="start" x="491.5" y="-472.5" font-family="Helvetica,sans-Serif" font-size="10.00">el::Configurations</text>
<text text-anchor="middle" x="531" y="-461.5" font-family="Helvetica,sans-Serif" font-size="10.00">::hasConfiguration</text>
</a>
</g>
</g>
<!-- Node143&#45;&gt;Node149 -->
<g id="edge8" class="edge"><title>Node143&#45;&gt;Node149</title>
<path fill="none" stroke="midnightblue" d="M399.62,-430.064C420.674,-436.432 448.925,-444.977 473.747,-452.485"/>
<polygon fill="midnightblue" stroke="midnightblue" points="472.84,-455.868 483.426,-455.413 474.867,-449.167 472.84,-455.868"/>
</g>
<!-- Node150 -->
<g id="node10" class="node"><title>Node150</title>
<g id="a_node10"><a xlink:href="classel_1_1_logger.html#ae7c1d538f6163b6be5d37dafcaf24610" target="_top" xlink:title="el::Logger::initUnflushed\lCount">
<polygon fill="white" stroke="red" points="470.5,-405.5 470.5,-435.5 591.5,-435.5 591.5,-405.5 470.5,-405.5"/>
<text text-anchor="start" x="478.5" y="-423.5" font-family="Helvetica,sans-Serif" font-size="10.00">el::Logger::initUnflushed</text>
<text text-anchor="middle" x="531" y="-412.5" font-family="Helvetica,sans-Serif" font-size="10.00">Count</text>
</a>
</g>
</g>
<!-- Node143&#45;&gt;Node150 -->
<g id="edge9" class="edge"><title>Node143&#45;&gt;Node150</title>
<path fill="none" stroke="midnightblue" d="M419.258,-420.5C432.185,-420.5 446.285,-420.5 459.961,-420.5"/>
<polygon fill="midnightblue" stroke="midnightblue" points="460.31,-424 470.31,-420.5 460.31,-417 460.31,-424"/>
</g>
<!-- Node151 -->
<g id="node11" class="node"><title>Node151</title>
<g id="a_node11"><a xlink:href="classel_1_1_logger.html#acfb9ef869b9b4dc3efd78d7f64b8bebd" target="_top" xlink:title="el::Logger::resolveLogger\lFormatSpec">
<polygon fill="white" stroke="red" points="468.5,-356.5 468.5,-386.5 593.5,-386.5 593.5,-356.5 468.5,-356.5"/>
<text text-anchor="start" x="476.5" y="-374.5" font-family="Helvetica,sans-Serif" font-size="10.00">el::Logger::resolveLogger</text>
<text text-anchor="middle" x="531" y="-363.5" font-family="Helvetica,sans-Serif" font-size="10.00">FormatSpec</text>
</a>
</g>
</g>
<!-- Node143&#45;&gt;Node151 -->
<g id="edge11" class="edge"><title>Node143&#45;&gt;Node151</title>
<path fill="none" stroke="midnightblue" d="M399.62,-410.936C419.771,-404.841 446.517,-396.751 470.537,-389.486"/>
<polygon fill="midnightblue" stroke="midnightblue" points="471.728,-392.782 480.286,-386.537 469.701,-386.082 471.728,-392.782"/>
</g>
<!-- Node155 -->
<g id="node12" class="node"><title>Node155</title>
<g id="a_node12"><a xlink:href="namespaceel_1_1base_1_1utils.html#a8cad5c357a7913cdbe69add3d6a4e8ac" target="_top" xlink:title="Deletes memory safely and points to null. ">
<polygon fill="white" stroke="black" points="467.5,-318 467.5,-337 594.5,-337 594.5,-318 467.5,-318"/>
<text text-anchor="middle" x="531" y="-325" font-family="Helvetica,sans-Serif" font-size="10.00">el::base::utils::safeDelete</text>
</a>
</g>
</g>
<!-- Node143&#45;&gt;Node155 -->
<g id="edge12" class="edge"><title>Node143&#45;&gt;Node155</title>
<path fill="none" stroke="midnightblue" d="M376.658,-410.905C391.278,-395.286 422.46,-364.414 455,-347.5 460.285,-344.753 465.982,-342.358 471.789,-340.276"/>
<polygon fill="midnightblue" stroke="midnightblue" points="473.2,-343.497 481.615,-337.06 471.023,-336.844 473.2,-343.497"/>
</g>
<!-- Node156 -->
<g id="node13" class="node"><title>Node156</title>
<g id="a_node13"><a xlink:href="classel_1_1_configurations.html#a4c6db218908b39d23cc09b1a16a18e83" target="_top" xlink:title="Sets configuration based&#45;off an existing configurations. ">
<polygon fill="white" stroke="red" points="485,-268.5 485,-298.5 577,-298.5 577,-268.5 485,-268.5"/>
<text text-anchor="start" x="493" y="-286.5" font-family="Helvetica,sans-Serif" font-size="10.00">el::Configurations</text>
<text text-anchor="middle" x="531" y="-275.5" font-family="Helvetica,sans-Serif" font-size="10.00">::setFromBase</text>
</a>
</g>
</g>
<!-- Node143&#45;&gt;Node156 -->
<g id="edge13" class="edge"><title>Node143&#45;&gt;Node156</title>
<path fill="none" stroke="midnightblue" d="M372.898,-410.851C384.316,-389.308 414.81,-336.954 455,-308.5 461.084,-304.193 467.962,-300.588 475.024,-297.581"/>
<polygon fill="midnightblue" stroke="midnightblue" points="476.641,-300.708 484.71,-293.842 474.121,-294.178 476.641,-300.708"/>
</g>
<!-- Node145&#45;&gt;Node148 -->
<g id="edge7" class="edge"><title>Node145&#45;&gt;Node148</title>
<path fill="none" stroke="midnightblue" d="M574.16,-543.502C585.596,-539.93 597.445,-534.81 607,-527.5 643.013,-499.951 668.012,-452.122 680.748,-423.084"/>
<polygon fill="midnightblue" stroke="midnightblue" points="684.062,-424.234 684.739,-413.661 677.616,-421.504 684.062,-424.234"/>
</g>
<!-- Node156&#45;&gt;Node148 -->
<g id="edge14" class="edge"><title>Node156&#45;&gt;Node148</title>
<path fill="none" stroke="midnightblue" d="M577.302,-294.543C587.522,-298.117 598,-302.702 607,-308.5 634.437,-326.175 658.926,-354.906 674.177,-375.142"/>
<polygon fill="midnightblue" stroke="midnightblue" points="671.386,-377.255 680.129,-383.238 677.025,-373.108 671.386,-377.255"/>
</g>
<!-- Node158&#45;&gt;Node148 -->
<g id="edge16" class="edge"><title>Node158&#45;&gt;Node148</title>
<path fill="none" stroke="midnightblue" d="M259.39,-176.054C358.543,-198.727 599.875,-254.282 607,-259.5 646.382,-288.342 670.723,-341.884 682.331,-373.433"/>
<polygon fill="midnightblue" stroke="midnightblue" points="679.156,-374.955 685.782,-383.221 685.757,-372.627 679.156,-374.955"/>
</g>
<!-- Node159 -->
<g id="node15" class="node"><title>Node159</title>
<g id="a_node15"><a xlink:href="classel_1_1_configurations.html#a05c373510ca513e4f61999c84d512831" target="_top" xlink:title="Thread unsafe set. ">
<polygon fill="white" stroke="black" points="321,-79.5 321,-109.5 413,-109.5 413,-79.5 321,-79.5"/>
<text text-anchor="start" x="329" y="-97.5" font-family="Helvetica,sans-Serif" font-size="10.00">el::Configurations</text>
<text text-anchor="middle" x="367" y="-86.5" font-family="Helvetica,sans-Serif" font-size="10.00">::unsafeSet</text>
</a>
</g>
</g>
<!-- Node158&#45;&gt;Node159 -->
<g id="edge17" class="edge"><title>Node158&#45;&gt;Node159</title>
<path fill="none" stroke="midnightblue" d="M237.22,-156.939C259.619,-146.079 296.774,-128.064 325.433,-114.169"/>
<polygon fill="midnightblue" stroke="midnightblue" points="327.322,-117.143 334.793,-109.631 324.268,-110.844 327.322,-117.143"/>
</g>
<!-- Node163 -->
<g id="node19" class="node"><title>Node163</title>
<g id="a_node19"><a xlink:href="classel_1_1_configurations.html#a800efb58724eb771027135b282eae512" target="_top" xlink:title="Sets configurations (Unsafely) for all levels including Level::Global if includeGlobalLevel is true...">
<polygon fill="white" stroke="red" points="480.5,-0.5 480.5,-30.5 581.5,-30.5 581.5,-0.5 480.5,-0.5"/>
<text text-anchor="start" x="488.5" y="-18.5" font-family="Helvetica,sans-Serif" font-size="10.00">el::Configurations</text>
<text text-anchor="middle" x="531" y="-7.5" font-family="Helvetica,sans-Serif" font-size="10.00">::unsafeSetGlobally</text>
</a>
</g>
</g>
<!-- Node158&#45;&gt;Node163 -->
<g id="edge23" class="edge"><title>Node158&#45;&gt;Node163</title>
<path fill="none" stroke="midnightblue" d="M224.343,-156.807C238.75,-137.154 274.258,-92.5279 315,-69.5 363.28,-42.2113 425.33,-28.534 470.35,-21.791"/>
<polygon fill="midnightblue" stroke="midnightblue" points="470.854,-25.2546 480.259,-20.3771 469.865,-18.3248 470.854,-25.2546"/>
</g>
<!-- Node160 -->
<g id="node16" class="node"><title>Node160</title>
<g id="a_node16"><a xlink:href="classel_1_1base_1_1utils_1_1_registry_with_pred.html#a811d9cc011d945bc7237e6ae1cf2f096" target="_top" xlink:title="Gets pointer from repository with speicifed arguments. ">
<polygon fill="white" stroke="black" points="455,-170 455,-211 607,-211 607,-170 455,-170"/>
<text text-anchor="start" x="463" y="-199" font-family="Helvetica,sans-Serif" font-size="10.00">el::base::utils::Registry</text>
<text text-anchor="start" x="463" y="-188" font-family="Helvetica,sans-Serif" font-size="10.00">WithPred&lt; Configuration,</text>
<text text-anchor="middle" x="531" y="-177" font-family="Helvetica,sans-Serif" font-size="10.00"> Configuration::Predicate &gt;::get</text>
</a>
</g>
</g>
<!-- Node159&#45;&gt;Node160 -->
<g id="edge18" class="edge"><title>Node159&#45;&gt;Node160</title>
<path fill="none" stroke="midnightblue" d="M385.424,-109.582C402.373,-123.74 429.265,-144.874 455,-159.5 458.652,-161.575 462.47,-163.588 466.367,-165.524"/>
<polygon fill="midnightblue" stroke="midnightblue" points="465.026,-168.762 475.56,-169.896 468.032,-162.44 465.026,-168.762"/>
</g>
<!-- Node161 -->
<g id="node17" class="node"><title>Node161</title>
<g id="a_node17"><a xlink:href="classel_1_1base_1_1utils_1_1_registry_with_pred.html#a561a5d418106a16473ff94d43a4b6b04" target="_top" xlink:title="el::base::utils::Registry\lWithPred\&lt; Configuration,\l Configuration::Predicate\l \&gt;::registerNew">
<polygon fill="white" stroke="black" points="468.5,-98.5 468.5,-150.5 593.5,-150.5 593.5,-98.5 468.5,-98.5"/>
<text text-anchor="start" x="476.5" y="-138.5" font-family="Helvetica,sans-Serif" font-size="10.00">el::base::utils::Registry</text>
<text text-anchor="start" x="476.5" y="-127.5" font-family="Helvetica,sans-Serif" font-size="10.00">WithPred&lt; Configuration,</text>
<text text-anchor="start" x="476.5" y="-116.5" font-family="Helvetica,sans-Serif" font-size="10.00"> Configuration::Predicate</text>
<text text-anchor="middle" x="531" y="-105.5" font-family="Helvetica,sans-Serif" font-size="10.00"> &gt;::registerNew</text>
</a>
</g>
</g>
<!-- Node159&#45;&gt;Node161 -->
<g id="edge19" class="edge"><title>Node159&#45;&gt;Node161</title>
<path fill="none" stroke="midnightblue" d="M413.126,-102.857C427.18,-105.459 443.04,-108.396 458.439,-111.248"/>
<polygon fill="midnightblue" stroke="midnightblue" points="457.998,-114.726 468.468,-113.105 459.272,-107.843 457.998,-114.726"/>
</g>
<!-- Node162 -->
<g id="node18" class="node"><title>Node162</title>
<g id="a_node18"><a xlink:href="classel_1_1_configuration.html#a04755de11422d7570869433ea157b705" target="_top" xlink:title="Set string based configuration value. ">
<polygon fill="white" stroke="black" points="485,-49.5 485,-79.5 577,-79.5 577,-49.5 485,-49.5"/>
<text text-anchor="start" x="493" y="-67.5" font-family="Helvetica,sans-Serif" font-size="10.00">el::Configuration::</text>
<text text-anchor="middle" x="531" y="-56.5" font-family="Helvetica,sans-Serif" font-size="10.00">setValue</text>
</a>
</g>
</g>
<!-- Node159&#45;&gt;Node162 -->
<g id="edge20" class="edge"><title>Node159&#45;&gt;Node162</title>
<path fill="none" stroke="midnightblue" d="M413.126,-86.1433C432.268,-82.5986 454.759,-78.4335 474.872,-74.7089"/>
<polygon fill="midnightblue" stroke="midnightblue" points="475.64,-78.1263 484.835,-72.8638 474.365,-71.2433 475.64,-78.1263"/>
</g>
<!-- Node159&#45;&gt;Node163 -->
<g id="edge21" class="edge"><title>Node159&#45;&gt;Node163</title>
<path fill="none" stroke="midnightblue" d="M380.593,-79.3772C390.926,-71.1779 405.93,-61.7756 419,-53.5 435.042,-43.3432 437.815,-38.5719 455,-30.5 460.027,-28.1388 465.347,-25.9226 470.741,-23.9009"/>
<polygon fill="midnightblue" stroke="midnightblue" points="472.205,-27.0964 480.482,-20.4823 469.887,-20.4913 472.205,-27.0964"/>
</g>
<!-- Node163&#45;&gt;Node159 -->
<g id="edge22" class="edge"><title>Node163&#45;&gt;Node159</title>
<path fill="none" stroke="midnightblue" d="M502.274,-30.5406C487.838,-35.6261 470.097,-41.4092 455,-48.5 437.815,-56.5719 435.042,-61.3432 419,-71.5 417.73,-72.3038 416.443,-73.1182 415.143,-73.938"/>
<polygon fill="midnightblue" stroke="midnightblue" points="413.077,-71.1016 406.451,-79.3686 416.786,-77.0382 413.077,-71.1016"/>
</g>
</g>
</svg>
