<?xml version="1.0" encoding="UTF-8" standalone="no"?>
<!DOCTYPE svg PUBLIC "-//W3C//DTD SVG 1.1//EN"
 "http://www.w3.org/Graphics/SVG/1.1/DTD/svg11.dtd">
<!-- Generated by graphviz version 2.38.0 (20140413.2041)
 -->
<!-- Title: el::Logger::stream Pages: 1 -->
<svg width="279pt" height="88pt"
 viewBox="0.00 0.00 279.00 88.00" xmlns="http://www.w3.org/2000/svg" xmlns:xlink="http://www.w3.org/1999/xlink">
<g id="graph0" class="graph" transform="scale(1 1) rotate(0) translate(4 84)">
<title>el::Logger::stream</title>
<polygon fill="white" stroke="none" points="-4,4 -4,-84 275,-84 275,4 -4,4"/>
<!-- Node213 -->
<g id="node1" class="node"><title>Node213</title>
<polygon fill="#bfbfbf" stroke="black" points="0,-30 0,-49 95,-49 95,-30 0,-30"/>
<text text-anchor="middle" x="47.5" y="-37" font-family="Helvetica,sans-Serif" font-size="10.00">el::Logger::stream</text>
</g>
<!-- Node214 -->
<g id="node2" class="node"><title>Node214</title>
<g id="a_node2"><a xlink:href="classel_1_1_helpers.html#a8b032e32cd042ddc4fef4e814bad1082" target="_top" xlink:title="Converts template to std::string &#45; useful for loggable classes to log containers within log(std::ostr...">
<polygon fill="white" stroke="black" points="131,-49.5 131,-79.5 271,-79.5 271,-49.5 131,-49.5"/>
<text text-anchor="start" x="139" y="-67.5" font-family="Helvetica,sans-Serif" font-size="10.00">el::Helpers::convertTemplate</text>
<text text-anchor="middle" x="201" y="-56.5" font-family="Helvetica,sans-Serif" font-size="10.00">ToStdString</text>
</a>
</g>
</g>
<!-- Node213&#45;&gt;Node214 -->
<g id="edge1" class="edge"><title>Node213&#45;&gt;Node214</title>
<path fill="none" stroke="midnightblue" d="M105.217,-48.8593C113.597,-50.2421 122.309,-51.6797 130.905,-53.0982"/>
<polygon fill="midnightblue" stroke="midnightblue" points="105.628,-45.3797 95.1912,-47.2048 104.488,-52.2863 105.628,-45.3797"/>
</g>
<!-- Node215 -->
<g id="node3" class="node"><title>Node215</title>
<g id="a_node3"><a xlink:href="classel_1_1base_1_1_message_builder.html#a240ef66bd4e1ff4169594b8138ca2baa" target="_top" xlink:title="el::base::MessageBuilder\l::writeIterator">
<polygon fill="white" stroke="black" points="137.5,-0.5 137.5,-30.5 264.5,-30.5 264.5,-0.5 137.5,-0.5"/>
<text text-anchor="start" x="145.5" y="-18.5" font-family="Helvetica,sans-Serif" font-size="10.00">el::base::MessageBuilder</text>
<text text-anchor="middle" x="201" y="-7.5" font-family="Helvetica,sans-Serif" font-size="10.00">::writeIterator</text>
</a>
</g>
</g>
<!-- Node213&#45;&gt;Node215 -->
<g id="edge2" class="edge"><title>Node213&#45;&gt;Node215</title>
<path fill="none" stroke="midnightblue" d="M105.075,-30.5376C115.583,-28.873 126.617,-27.125 137.295,-25.4335"/>
<polygon fill="midnightblue" stroke="midnightblue" points="104.52,-27.0818 95.1912,-32.1034 105.616,-33.9955 104.52,-27.0818"/>
</g>
</g>
</svg>
