<?xml version="1.0" encoding="UTF-8" standalone="no"?>
<!DOCTYPE svg PUBLIC "-//W3C//DTD SVG 1.1//EN"
 "http://www.w3.org/Graphics/SVG/1.1/DTD/svg11.dtd">
<!-- Generated by graphviz version 2.38.0 (20140413.2041)
 -->
<!-- Title: vpr::TransferPool::TransferPool Pages: 1 -->
<svg width="423pt" height="137pt"
 viewBox="0.00 0.00 423.00 137.00" xmlns="http://www.w3.org/2000/svg" xmlns:xlink="http://www.w3.org/1999/xlink">
<g id="graph0" class="graph" transform="scale(1 1) rotate(0) translate(4 133)">
<title>vpr::TransferPool::TransferPool</title>
<polygon fill="white" stroke="none" points="-4,4 -4,-133 419,-133 419,4 -4,4"/>
<!-- Node2 -->
<g id="node1" class="node"><title>Node2</title>
<polygon fill="#bfbfbf" stroke="black" points="0,-49.5 0,-79.5 95,-79.5 95,-49.5 0,-49.5"/>
<text text-anchor="start" x="8" y="-67.5" font-family="Helvetica,sans-Serif" font-size="10.00">vpr::TransferPool::</text>
<text text-anchor="middle" x="47.5" y="-56.5" font-family="Helvetica,sans-Serif" font-size="10.00">TransferPool</text>
</g>
<!-- Node3 -->
<g id="node2" class="node"><title>Node3</title>
<g id="a_node2"><a xlink:href="classvpr_1_1_command_pool.html#a3df787753ace292c1b295907754172a3" target="_top" xlink:title="vpr::CommandPool::Allocate\lCmdBuffers">
<polygon fill="white" stroke="black" points="131,-98.5 131,-128.5 271,-128.5 271,-98.5 131,-98.5"/>
<text text-anchor="start" x="139" y="-116.5" font-family="Helvetica,sans-Serif" font-size="10.00">vpr::CommandPool::Allocate</text>
<text text-anchor="middle" x="201" y="-105.5" font-family="Helvetica,sans-Serif" font-size="10.00">CmdBuffers</text>
</a>
</g>
</g>
<!-- Node2&#45;&gt;Node3 -->
<g id="edge1" class="edge"><title>Node2&#45;&gt;Node3</title>
<path fill="none" stroke="midnightblue" d="M95.1912,-79.6014C110.527,-84.5615 127.736,-90.1274 143.707,-95.2929"/>
<polygon fill="midnightblue" stroke="midnightblue" points="142.871,-98.7011 153.463,-98.4484 145.025,-92.0408 142.871,-98.7011"/>
</g>
<!-- Node5 -->
<g id="node4" class="node"><title>Node5</title>
<g id="a_node4"><a xlink:href="classvpr_1_1_transfer_pool.html#abfc01a76420de30d30666813bfbdf693" target="_top" xlink:title="vpr::TransferPool::\lcreateFence">
<polygon fill="white" stroke="black" points="153.5,-49.5 153.5,-79.5 248.5,-79.5 248.5,-49.5 153.5,-49.5"/>
<text text-anchor="start" x="161.5" y="-67.5" font-family="Helvetica,sans-Serif" font-size="10.00">vpr::TransferPool::</text>
<text text-anchor="middle" x="201" y="-56.5" font-family="Helvetica,sans-Serif" font-size="10.00">createFence</text>
</a>
</g>
</g>
<!-- Node2&#45;&gt;Node5 -->
<g id="edge3" class="edge"><title>Node2&#45;&gt;Node5</title>
<path fill="none" stroke="midnightblue" d="M95.1912,-64.5C110.382,-64.5 127.411,-64.5 143.254,-64.5"/>
<polygon fill="midnightblue" stroke="midnightblue" points="143.463,-68.0001 153.463,-64.5 143.463,-61.0001 143.463,-68.0001"/>
</g>
<!-- Node6 -->
<g id="node5" class="node"><title>Node6</title>
<g id="a_node5"><a xlink:href="classvpr_1_1_transfer_pool.html#ad94b1e9b103873f2df3f3c8c6a038faa" target="_top" xlink:title="vpr::TransferPool::\lcreatePool">
<polygon fill="white" stroke="black" points="153.5,-0.5 153.5,-30.5 248.5,-30.5 248.5,-0.5 153.5,-0.5"/>
<text text-anchor="start" x="161.5" y="-18.5" font-family="Helvetica,sans-Serif" font-size="10.00">vpr::TransferPool::</text>
<text text-anchor="middle" x="201" y="-7.5" font-family="Helvetica,sans-Serif" font-size="10.00">createPool</text>
</a>
</g>
</g>
<!-- Node2&#45;&gt;Node6 -->
<g id="edge5" class="edge"><title>Node2&#45;&gt;Node6</title>
<path fill="none" stroke="midnightblue" d="M95.1912,-49.3986C110.527,-44.4385 127.736,-38.8726 143.707,-33.7071"/>
<polygon fill="midnightblue" stroke="midnightblue" points="145.025,-36.9592 153.463,-30.5516 142.871,-30.2989 145.025,-36.9592"/>
</g>
<!-- Node4 -->
<g id="node3" class="node"><title>Node4</title>
<g id="a_node3"><a xlink:href="classvpr_1_1_device.html#a59882855173bef0b13a17b376ea01d45" target="_top" xlink:title="vpr::Device::vkHandle">
<polygon fill="white" stroke="black" points="307,-55 307,-74 415,-74 415,-55 307,-55"/>
<text text-anchor="middle" x="361" y="-62" font-family="Helvetica,sans-Serif" font-size="10.00">vpr::Device::vkHandle</text>
</a>
</g>
</g>
<!-- Node3&#45;&gt;Node4 -->
<g id="edge2" class="edge"><title>Node3&#45;&gt;Node4</title>
<path fill="none" stroke="midnightblue" d="M250.694,-98.3986C272.768,-91.5529 298.563,-83.5534 319.549,-77.0449"/>
<polygon fill="midnightblue" stroke="midnightblue" points="320.61,-80.3805 329.124,-74.0754 318.536,-73.6946 320.61,-80.3805"/>
</g>
<!-- Node5&#45;&gt;Node4 -->
<g id="edge4" class="edge"><title>Node5&#45;&gt;Node4</title>
<path fill="none" stroke="midnightblue" d="M248.551,-64.5C263.56,-64.5 280.46,-64.5 296.477,-64.5"/>
<polygon fill="midnightblue" stroke="midnightblue" points="296.846,-68.0001 306.846,-64.5 296.846,-61.0001 296.846,-68.0001"/>
</g>
<!-- Node6&#45;&gt;Node4 -->
<g id="edge6" class="edge"><title>Node6&#45;&gt;Node4</title>
<path fill="none" stroke="midnightblue" d="M248.551,-29.9366C271.127,-36.9381 297.982,-45.2667 319.674,-51.9938"/>
<polygon fill="midnightblue" stroke="midnightblue" points="318.655,-55.3422 329.243,-54.9615 320.729,-48.6564 318.655,-55.3422"/>
</g>
</g>
</svg>
