<?xml version="1.0" encoding="UTF-8" standalone="no"?>
<!DOCTYPE svg PUBLIC "-//W3C//DTD SVG 1.1//EN"
 "http://www.w3.org/Graphics/SVG/1.1/DTD/svg11.dtd">
<!-- Generated by graphviz version 2.38.0 (20140413.2041)
 -->
<!-- Title: vpr::Buffer Pages: 1 -->
<svg width="1318pt" height="263pt"
 viewBox="0.00 0.00 1318.00 263.00" xmlns="http://www.w3.org/2000/svg" xmlns:xlink="http://www.w3.org/1999/xlink">
<g id="graph0" class="graph" transform="scale(1 1) rotate(0) translate(4 259)">
<title>vpr::Buffer</title>
<polygon fill="white" stroke="none" points="-4,4 -4,-259 1314,-259 1314,4 -4,4"/>
<!-- Node1 -->
<g id="node1" class="node"><title>Node1</title>
<polygon fill="#bfbfbf" stroke="black" points="1091,-80 1091,-99 1150,-99 1150,-80 1091,-80"/>
<text text-anchor="middle" x="1120.5" y="-87" font-family="Helvetica,sans-Serif" font-size="10.00">vpr::Buffer</text>
</g>
<!-- Node2 -->
<g id="node2" class="node"><title>Node2</title>
<g id="a_node2"><a xlink:href="classvpr_1_1_device.html" target="_top" xlink:title="!The Device class is a wrapper around the vkLogicalDevice object. ">
<polygon fill="white" stroke="black" points="861,-148 861,-167 924,-167 924,-148 861,-148"/>
<text text-anchor="middle" x="892.5" y="-155" font-family="Helvetica,sans-Serif" font-size="10.00">vpr::Device</text>
</a>
</g>
</g>
<!-- Node2&#45;&gt;Node1 -->
<g id="edge1" class="edge"><title>Node2&#45;&gt;Node1</title>
<path fill="none" stroke="#9a32cd" stroke-dasharray="5,2" d="M934.213,-145.25C979.359,-131.666 1051.04,-110.1 1090.71,-98.1632"/>
<polygon fill="#9a32cd" stroke="#9a32cd" points="933.018,-141.955 924.45,-148.187 935.035,-148.658 933.018,-141.955"/>
<text text-anchor="middle" x="1025" y="-133.5" font-family="Helvetica,sans-Serif" font-size="10.00"> parent</text>
</g>
<!-- Node11 -->
<g id="node9" class="node"><title>Node11</title>
<g id="a_node9"><a xlink:href="classvpr_1_1_allocator.html" target="_top" xlink:title="The primary interface and class of this subsystem. ">
<polygon fill="white" stroke="red" points="1084,-138 1084,-157 1157,-157 1157,-138 1084,-138"/>
<text text-anchor="middle" x="1120.5" y="-145" font-family="Helvetica,sans-Serif" font-size="10.00">vpr::Allocator</text>
</a>
</g>
</g>
<!-- Node2&#45;&gt;Node11 -->
<g id="edge9" class="edge"><title>Node2&#45;&gt;Node11</title>
<path fill="none" stroke="#9a32cd" stroke-dasharray="5,2" d="M934.486,-155.686C977.099,-153.801 1043.14,-150.879 1083.71,-149.083"/>
<polygon fill="#9a32cd" stroke="#9a32cd" points="934.286,-152.192 924.45,-156.131 934.595,-159.185 934.286,-152.192"/>
<text text-anchor="middle" x="1025" y="-156.5" font-family="Helvetica,sans-Serif" font-size="10.00"> parent</text>
</g>
<!-- Node3 -->
<g id="node3" class="node"><title>Node3</title>
<polygon fill="white" stroke="#bfbfbf" points="550,-224.5 550,-254.5 691,-254.5 691,-224.5 550,-224.5"/>
<text text-anchor="start" x="558" y="-242.5" font-family="Helvetica,sans-Serif" font-size="10.00">std::map&lt; VkQueueFlags,</text>
<text text-anchor="middle" x="620.5" y="-231.5" font-family="Helvetica,sans-Serif" font-size="10.00"> VkDeviceQueueCreateInfo &gt;</text>
</g>
<!-- Node3&#45;&gt;Node2 -->
<g id="edge2" class="edge"><title>Node3&#45;&gt;Node2</title>
<path fill="none" stroke="#9a32cd" stroke-dasharray="5,2" d="M701.127,-225.592C732.648,-219.097 768.941,-210.369 801,-199.5 827.247,-190.601 856.037,-176.42 873.938,-167.035"/>
<polygon fill="#9a32cd" stroke="#9a32cd" points="700.181,-222.212 691.071,-227.622 701.566,-229.073 700.181,-222.212"/>
<text text-anchor="middle" x="755" y="-227.5" font-family="Helvetica,sans-Serif" font-size="10.00"> queueInfos</text>
</g>
<!-- Node4 -->
<g id="node4" class="node"><title>Node4</title>
<g id="a_node4"><a xlink:href="namespacevpr.html#structvpr_1_1vk_queue_family_indices" target="_top" xlink:title="vpr::vkQueueFamilyIndices">
<polygon fill="white" stroke="black" points="554.5,-186 554.5,-205 686.5,-205 686.5,-186 554.5,-186"/>
<text text-anchor="middle" x="620.5" y="-193" font-family="Helvetica,sans-Serif" font-size="10.00">vpr::vkQueueFamilyIndices</text>
</a>
</g>
</g>
<!-- Node4&#45;&gt;Node2 -->
<g id="edge3" class="edge"><title>Node4&#45;&gt;Node2</title>
<path fill="none" stroke="#9a32cd" stroke-dasharray="5,2" d="M696.976,-185.759C729.066,-181.527 766.883,-176.419 801,-171.5 820.985,-168.619 843.414,-165.15 860.943,-162.387"/>
<polygon fill="#9a32cd" stroke="#9a32cd" points="696.229,-182.327 686.771,-187.101 697.141,-189.267 696.229,-182.327"/>
<text text-anchor="middle" x="755" y="-187.5" font-family="Helvetica,sans-Serif" font-size="10.00"> QueueFamilyIndices</text>
</g>
<!-- Node5 -->
<g id="node5" class="node"><title>Node5</title>
<polygon fill="white" stroke="#bfbfbf" points="329.5,-98.5 329.5,-128.5 424.5,-128.5 424.5,-98.5 329.5,-98.5"/>
<text text-anchor="start" x="337.5" y="-116.5" font-family="Helvetica,sans-Serif" font-size="10.00">std::vector&lt; const</text>
<text text-anchor="middle" x="377" y="-105.5" font-family="Helvetica,sans-Serif" font-size="10.00"> char *&gt;</text>
</g>
<!-- Node5&#45;&gt;Node2 -->
<g id="edge4" class="edge"><title>Node5&#45;&gt;Node2</title>
<path fill="none" stroke="#9a32cd" stroke-dasharray="5,2" d="M434.835,-115.516C516.223,-118.86 670.555,-126.9 801,-143.5 821.03,-146.049 843.459,-149.514 860.978,-152.36"/>
<polygon fill="#9a32cd" stroke="#9a32cd" points="434.932,-112.017 424.8,-115.113 434.651,-119.012 434.932,-112.017"/>
<text text-anchor="middle" x="620.5" y="-134.5" font-family="Helvetica,sans-Serif" font-size="10.00"> enabledExtensions</text>
</g>
<!-- Node28 -->
<g id="node10" class="node"><title>Node28</title>
<g id="a_node10"><a xlink:href="classvpr_1_1_instance.html" target="_top" xlink:title="Instance is a wrapper around the base Vulkan object that must be initialized first. ">
<polygon fill="white" stroke="black" points="585,-56 585,-75 656,-75 656,-56 585,-56"/>
<text text-anchor="middle" x="620.5" y="-63" font-family="Helvetica,sans-Serif" font-size="10.00">vpr::Instance</text>
</a>
</g>
</g>
<!-- Node5&#45;&gt;Node28 -->
<g id="edge13" class="edge"><title>Node5&#45;&gt;Node28</title>
<path fill="none" stroke="#9a32cd" stroke-dasharray="5,2" d="M434.362,-96.3329C438.286,-95.3197 442.193,-94.3633 446,-93.5 493.609,-82.7023 549.48,-74.4642 584.689,-69.8041"/>
<polygon fill="#9a32cd" stroke="#9a32cd" points="433.37,-92.9752 424.619,-98.9477 435.184,-99.736 433.37,-92.9752"/>
<text text-anchor="middle" x="489" y="-96.5" font-family="Helvetica,sans-Serif" font-size="10.00"> enabledExtensions</text>
</g>
<!-- Node6 -->
<g id="node6" class="node"><title>Node6</title>
<g id="a_node6"><a xlink:href="classvpr_1_1_physical_device.html" target="_top" xlink:title="! PhysicalDevice is a wrapper around a VkPhysicalDevice object, which is itself merely a handle repre...">
<polygon fill="white" stroke="black" points="174,-118 174,-137 275,-137 275,-118 174,-118"/>
<text text-anchor="middle" x="224.5" y="-125" font-family="Helvetica,sans-Serif" font-size="10.00">vpr::PhysicalDevice</text>
</a>
</g>
</g>
<!-- Node6&#45;&gt;Node2 -->
<g id="edge5" class="edge"><title>Node6&#45;&gt;Node2</title>
<path fill="none" stroke="#9a32cd" stroke-dasharray="5,2" d="M285.125,-134.066C298.557,-135.369 312.756,-136.608 326,-137.5 529.874,-151.234 775.771,-155.853 860.815,-157.103"/>
<polygon fill="#9a32cd" stroke="#9a32cd" points="285.329,-130.569 275.032,-133.062 284.636,-137.535 285.329,-130.569"/>
<text text-anchor="middle" x="489" y="-151.5" font-family="Helvetica,sans-Serif" font-size="10.00"> parent</text>
</g>
<!-- Node29 -->
<g id="node11" class="node"><title>Node29</title>
<polygon fill="white" stroke="#bfbfbf" points="326,-49.5 326,-79.5 428,-79.5 428,-49.5 326,-49.5"/>
<text text-anchor="start" x="334" y="-67.5" font-family="Helvetica,sans-Serif" font-size="10.00">std::unique_ptr&lt; vpr</text>
<text text-anchor="middle" x="377" y="-56.5" font-family="Helvetica,sans-Serif" font-size="10.00">::PhysicalDevice &gt;</text>
</g>
<!-- Node6&#45;&gt;Node29 -->
<g id="edge12" class="edge"><title>Node6&#45;&gt;Node29</title>
<path fill="none" stroke="#9a32cd" stroke-dasharray="5,2" d="M257.794,-113.981C281.956,-103.867 315.002,-90.034 340.011,-79.565"/>
<polygon fill="#9a32cd" stroke="#9a32cd" points="256.231,-110.842 248.358,-117.932 258.934,-117.299 256.231,-110.842"/>
<text text-anchor="middle" x="300.5" y="-101.5" font-family="Helvetica,sans-Serif" font-size="10.00"> ptr</text>
</g>
<!-- Node7 -->
<g id="node7" class="node"><title>Node7</title>
<polygon fill="white" stroke="#bfbfbf" points="0,-112.5 0,-142.5 116,-142.5 116,-112.5 0,-112.5"/>
<text text-anchor="start" x="8" y="-130.5" font-family="Helvetica,sans-Serif" font-size="10.00">std::unique_ptr&lt; vpr</text>
<text text-anchor="middle" x="58" y="-119.5" font-family="Helvetica,sans-Serif" font-size="10.00">::PhysicalDeviceImpl &gt;</text>
</g>
<!-- Node7&#45;&gt;Node6 -->
<g id="edge6" class="edge"><title>Node7&#45;&gt;Node6</title>
<path fill="none" stroke="#9a32cd" stroke-dasharray="5,2" d="M126.39,-127.5C142.298,-127.5 158.973,-127.5 173.928,-127.5"/>
<polygon fill="#9a32cd" stroke="#9a32cd" points="126.072,-124 116.072,-127.5 126.072,-131 126.072,-124"/>
<text text-anchor="middle" x="145" y="-130.5" font-family="Helvetica,sans-Serif" font-size="10.00"> impl</text>
</g>
<!-- Node10 -->
<g id="node8" class="node"><title>Node10</title>
<polygon fill="white" stroke="#bfbfbf" points="1208,-160.5 1208,-190.5 1310,-190.5 1310,-160.5 1208,-160.5"/>
<text text-anchor="start" x="1216" y="-178.5" font-family="Helvetica,sans-Serif" font-size="10.00">std::unique_ptr&lt; vpr</text>
<text text-anchor="middle" x="1259" y="-167.5" font-family="Helvetica,sans-Serif" font-size="10.00">::Allocator &gt;</text>
</g>
<!-- Node10&#45;&gt;Node2 -->
<g id="edge7" class="edge"><title>Node10&#45;&gt;Node2</title>
<path fill="none" stroke="#9a32cd" stroke-dasharray="5,2" d="M1197.91,-176.692C1190.2,-176.708 1182.41,-176.655 1175,-176.5 1090.06,-174.722 1068.68,-175.409 984,-168.5 963.966,-166.865 941.536,-164.145 924.019,-161.819"/>
<polygon fill="#9a32cd" stroke="#9a32cd" points="1197.98,-180.192 1207.96,-176.636 1197.94,-173.192 1197.98,-180.192"/>
<text text-anchor="middle" x="1120.5" y="-179.5" font-family="Helvetica,sans-Serif" font-size="10.00"> vkAllocator</text>
</g>
<!-- Node11&#45;&gt;Node10 -->
<g id="edge8" class="edge"><title>Node11&#45;&gt;Node10</title>
<path fill="none" stroke="#9a32cd" stroke-dasharray="5,2" d="M1167.16,-156.865C1180.19,-159.54 1194.47,-162.469 1207.77,-165.196"/>
<polygon fill="#9a32cd" stroke="#9a32cd" points="1167.51,-153.364 1157.01,-154.784 1166.1,-160.222 1167.51,-153.364"/>
<text text-anchor="middle" x="1182.5" y="-164.5" font-family="Helvetica,sans-Serif" font-size="10.00"> ptr</text>
</g>
<!-- Node28&#45;&gt;Node2 -->
<g id="edge10" class="edge"><title>Node28&#45;&gt;Node2</title>
<path fill="none" stroke="#9a32cd" stroke-dasharray="5,2" d="M666.238,-65.9021C703.744,-67.7499 757.921,-74.0165 801,-93.5 810.488,-97.7913 810.676,-102.243 819,-108.5 838.309,-123.013 861.6,-138.4 876.478,-147.977"/>
<polygon fill="#9a32cd" stroke="#9a32cd" points="666.259,-62.4002 656.125,-65.4908 665.974,-69.3944 666.259,-62.4002"/>
<text text-anchor="middle" x="755" y="-96.5" font-family="Helvetica,sans-Serif" font-size="10.00"> parentInstance</text>
</g>
<!-- Node29&#45;&gt;Node28 -->
<g id="edge11" class="edge"><title>Node29&#45;&gt;Node28</title>
<path fill="none" stroke="#9a32cd" stroke-dasharray="5,2" d="M438.262,-59.8338C440.876,-59.7057 443.464,-59.5931 446,-59.5 484.196,-58.0976 493.8,-58.1918 532,-59.5 549.348,-60.0941 568.597,-61.3489 584.614,-62.5581"/>
<polygon fill="#9a32cd" stroke="#9a32cd" points="437.901,-56.3484 428.11,-60.3969 438.289,-63.3376 437.901,-56.3484"/>
<text text-anchor="middle" x="489" y="-62.5" font-family="Helvetica,sans-Serif" font-size="10.00"> physicalDevice</text>
</g>
<!-- Node30 -->
<g id="node12" class="node"><title>Node30</title>
<polygon fill="white" stroke="#bfbfbf" points="326,-0.5 326,-30.5 428,-30.5 428,-0.5 326,-0.5"/>
<text text-anchor="start" x="334" y="-18.5" font-family="Helvetica,sans-Serif" font-size="10.00">std::unique_ptr&lt; vpr</text>
<text text-anchor="middle" x="377" y="-7.5" font-family="Helvetica,sans-Serif" font-size="10.00">::SurfaceKHR &gt;</text>
</g>
<!-- Node30&#45;&gt;Node28 -->
<g id="edge14" class="edge"><title>Node30&#45;&gt;Node28</title>
<path fill="none" stroke="#9a32cd" stroke-dasharray="5,2" d="M438.315,-25.51C466.813,-30.4837 501.249,-36.8463 532,-43.5 549.453,-47.2763 568.713,-52.052 584.71,-56.1882"/>
<polygon fill="#9a32cd" stroke="#9a32cd" points="438.553,-21.9992 428.103,-23.7425 437.359,-28.8967 438.553,-21.9992"/>
<text text-anchor="middle" x="489" y="-46.5" font-family="Helvetica,sans-Serif" font-size="10.00"> surface</text>
</g>
<!-- Node25 -->
<g id="node13" class="node"><title>Node25</title>
<g id="a_node13"><a xlink:href="classvpr_1_1_allocation.html" target="_top" xlink:title="Allocation class represents a singular allocation: can be a private allocation (i.e, only user of attached DeviceMemory) or a block allocation (bound to sub&#45;region of device memory) ">
<polygon fill="white" stroke="black" points="854,-80 854,-99 931,-99 931,-80 854,-80"/>
<text text-anchor="middle" x="892.5" y="-87" font-family="Helvetica,sans-Serif" font-size="10.00">vpr::Allocation</text>
</a>
</g>
</g>
<!-- Node25&#45;&gt;Node1 -->
<g id="edge15" class="edge"><title>Node25&#45;&gt;Node1</title>
<path fill="none" stroke="#9a32cd" stroke-dasharray="5,2" d="M941.25,-89.5C986.559,-89.5 1053.16,-89.5 1090.81,-89.5"/>
<polygon fill="#9a32cd" stroke="#9a32cd" points="941.073,-86.0001 931.073,-89.5 941.073,-93.0001 941.073,-86.0001"/>
<text text-anchor="middle" x="1025" y="-92.5" font-family="Helvetica,sans-Serif" font-size="10.00"> memoryAllocation</text>
</g>
<!-- Node32 -->
<g id="node14" class="node"><title>Node32</title>
<polygon fill="white" stroke="#bfbfbf" points="819,-30.5 819,-60.5 966,-60.5 966,-30.5 819,-30.5"/>
<text text-anchor="start" x="827" y="-48.5" font-family="Helvetica,sans-Serif" font-size="10.00">std::vector&lt; std::pair</text>
<text text-anchor="middle" x="892.5" y="-37.5" font-family="Helvetica,sans-Serif" font-size="10.00">&lt; VkBuffer, vpr::Allocation &gt; &gt;</text>
</g>
<!-- Node32&#45;&gt;Node1 -->
<g id="edge16" class="edge"><title>Node32&#45;&gt;Node1</title>
<path fill="none" stroke="#9a32cd" stroke-dasharray="5,2" d="M975.979,-57.5272C1004.61,-62.1879 1036.84,-67.9802 1066,-74.5 1074.1,-76.3101 1082.79,-78.5968 1090.77,-80.8357"/>
<polygon fill="#9a32cd" stroke="#9a32cd" points="976.442,-54.0567 966.013,-55.9265 975.332,-60.9682 976.442,-54.0567"/>
<text text-anchor="middle" x="1025" y="-77.5" font-family="Helvetica,sans-Serif" font-size="10.00"> stagingBuffers</text>
</g>
</g>
</svg>
