<?xml version="1.0" encoding="UTF-8" standalone="no"?>
<!DOCTYPE svg PUBLIC "-//W3C//DTD SVG 1.1//EN"
 "http://www.w3.org/Graphics/SVG/1.1/DTD/svg11.dtd">
<!-- Generated by graphviz version 2.38.0 (20140413.2041)
 -->
<!-- Title: vpr::Allocator::GetAllocSize Pages: 1 -->
<svg width="639pt" height="141pt"
 viewBox="0.00 0.00 639.00 140.50" xmlns="http://www.w3.org/2000/svg" xmlns:xlink="http://www.w3.org/1999/xlink">
<g id="graph0" class="graph" transform="scale(1 1) rotate(0) translate(4 136.5)">
<title>vpr::Allocator::GetAllocSize</title>
<polygon fill="white" stroke="none" points="-4,4 -4,-136.5 635,-136.5 635,4 -4,4"/>
<!-- Node188 -->
<g id="node1" class="node"><title>Node188</title>
<polygon fill="#bfbfbf" stroke="black" points="0,-60.5 0,-79.5 136,-79.5 136,-60.5 0,-60.5"/>
<text text-anchor="middle" x="68" y="-67.5" font-family="Helvetica,sans-Serif" font-size="10.00">vpr::Allocator::GetAllocSize</text>
</g>
<!-- Node189 -->
<g id="node2" class="node"><title>Node189</title>
<g id="a_node2"><a xlink:href="classvpr_1_1_allocator.html#a40618202c2c86027ee1915cadbc18afd" target="_top" xlink:title="vpr::Allocator::allocate\lMemoryType">
<polygon fill="white" stroke="black" points="182.5,-77 182.5,-107 295.5,-107 295.5,-77 182.5,-77"/>
<text text-anchor="start" x="190.5" y="-95" font-family="Helvetica,sans-Serif" font-size="10.00">vpr::Allocator::allocate</text>
<text text-anchor="middle" x="239" y="-84" font-family="Helvetica,sans-Serif" font-size="10.00">MemoryType</text>
</a>
</g>
</g>
<!-- Node188&#45;&gt;Node189 -->
<g id="edge1" class="edge"><title>Node188&#45;&gt;Node189</title>
<path fill="none" stroke="midnightblue" d="M146.397,-80.0753C158.523,-81.6539 170.847,-83.2581 182.358,-84.7566"/>
<polygon fill="midnightblue" stroke="midnightblue" points="146.647,-76.5784 136.279,-78.7582 145.743,-83.5199 146.647,-76.5784"/>
</g>
<!-- Node195 -->
<g id="node6" class="node"><title>Node195</title>
<g id="a_node6"><a xlink:href="classvpr_1_1_allocator.html#a438bbd88a3f18c741f7de90f528300b1" target="_top" xlink:title="vpr::Allocator::FreeMemory">
<polygon fill="white" stroke="black" points="172,-38.5 172,-57.5 306,-57.5 306,-38.5 172,-38.5"/>
<text text-anchor="middle" x="239" y="-45.5" font-family="Helvetica,sans-Serif" font-size="10.00">vpr::Allocator::FreeMemory</text>
</a>
</g>
</g>
<!-- Node188&#45;&gt;Node195 -->
<g id="edge5" class="edge"><title>Node188&#45;&gt;Node195</title>
<path fill="none" stroke="midnightblue" d="M146.23,-59.9463C154.764,-58.8354 163.398,-57.7115 171.78,-56.6204"/>
<polygon fill="midnightblue" stroke="midnightblue" points="145.743,-56.4801 136.279,-61.2418 146.647,-63.4215 145.743,-56.4801"/>
</g>
<!-- Node190 -->
<g id="node3" class="node"><title>Node190</title>
<g id="a_node3"><a xlink:href="classvpr_1_1_allocator.html#a1d36e3567e4fd7ef8bf1395942f6c714" target="_top" xlink:title="vpr::Allocator::Allocate\lMemory">
<polygon fill="white" stroke="black" points="354.5,-77 354.5,-107 468.5,-107 468.5,-77 354.5,-77"/>
<text text-anchor="start" x="362.5" y="-95" font-family="Helvetica,sans-Serif" font-size="10.00">vpr::Allocator::Allocate</text>
<text text-anchor="middle" x="411.5" y="-84" font-family="Helvetica,sans-Serif" font-size="10.00">Memory</text>
</a>
</g>
</g>
<!-- Node189&#45;&gt;Node190 -->
<g id="edge2" class="edge"><title>Node189&#45;&gt;Node190</title>
<path fill="none" stroke="midnightblue" d="M306.117,-92C322.017,-92 338.853,-92 354.255,-92"/>
<polygon fill="midnightblue" stroke="midnightblue" points="305.828,-88.5001 295.828,-92 305.828,-95.5001 305.828,-88.5001"/>
</g>
<!-- Node191 -->
<g id="node4" class="node"><title>Node191</title>
<g id="a_node4"><a xlink:href="classvpr_1_1_allocator.html#aa8aad8539721142d8dfa92a3196ab90b" target="_top" xlink:title="vpr::Allocator::Allocate\lForBuffer">
<polygon fill="white" stroke="red" points="517,-102 517,-132 631,-132 631,-102 517,-102"/>
<text text-anchor="start" x="525" y="-120" font-family="Helvetica,sans-Serif" font-size="10.00">vpr::Allocator::Allocate</text>
<text text-anchor="middle" x="574" y="-109" font-family="Helvetica,sans-Serif" font-size="10.00">ForBuffer</text>
</a>
</g>
</g>
<!-- Node190&#45;&gt;Node191 -->
<g id="edge3" class="edge"><title>Node190&#45;&gt;Node191</title>
<path fill="none" stroke="midnightblue" d="M478.686,-102.309C491.38,-104.287 504.558,-106.339 516.897,-108.261"/>
<polygon fill="midnightblue" stroke="midnightblue" points="479.055,-98.8246 468.635,-100.744 477.977,-105.741 479.055,-98.8246"/>
</g>
<!-- Node193 -->
<g id="node5" class="node"><title>Node193</title>
<g id="a_node5"><a xlink:href="classvpr_1_1_allocator.html#a79b5ace2d3d620783793593c99d50d4e" target="_top" xlink:title="vpr::Allocator::Allocate\lForImage">
<polygon fill="white" stroke="red" points="517,-53 517,-83 631,-83 631,-53 517,-53"/>
<text text-anchor="start" x="525" y="-71" font-family="Helvetica,sans-Serif" font-size="10.00">vpr::Allocator::Allocate</text>
<text text-anchor="middle" x="574" y="-60" font-family="Helvetica,sans-Serif" font-size="10.00">ForImage</text>
</a>
</g>
</g>
<!-- Node190&#45;&gt;Node193 -->
<g id="edge4" class="edge"><title>Node190&#45;&gt;Node193</title>
<path fill="none" stroke="midnightblue" d="M478.686,-82.103C491.38,-80.2049 504.558,-78.2343 516.897,-76.3893"/>
<polygon fill="midnightblue" stroke="midnightblue" points="478.008,-78.6655 468.635,-83.606 479.043,-85.5885 478.008,-78.6655"/>
</g>
<!-- Node196 -->
<g id="node7" class="node"><title>Node196</title>
<g id="a_node7"><a xlink:href="classvpr_1_1_allocator.html#aba5e7b8623bceb91e2eb3551d55afb86" target="_top" xlink:title="vpr::Allocator::DestroyBuffer">
<polygon fill="white" stroke="black" points="343,-38.5 343,-57.5 480,-57.5 480,-38.5 343,-38.5"/>
<text text-anchor="middle" x="411.5" y="-45.5" font-family="Helvetica,sans-Serif" font-size="10.00">vpr::Allocator::DestroyBuffer</text>
</a>
</g>
</g>
<!-- Node195&#45;&gt;Node196 -->
<g id="edge6" class="edge"><title>Node195&#45;&gt;Node196</title>
<path fill="none" stroke="midnightblue" d="M316.608,-48C325.363,-48 334.242,-48 342.869,-48"/>
<polygon fill="midnightblue" stroke="midnightblue" points="316.408,-44.5001 306.408,-48 316.408,-51.5001 316.408,-44.5001"/>
</g>
<!-- Node197 -->
<g id="node8" class="node"><title>Node197</title>
<g id="a_node8"><a xlink:href="classvpr_1_1_allocator.html#a9c04f050d22a383fd21f02e036bf2572" target="_top" xlink:title="vpr::Allocator::DestroyImage">
<polygon fill="white" stroke="black" points="342,-0.5 342,-19.5 481,-19.5 481,-0.5 342,-0.5"/>
<text text-anchor="middle" x="411.5" y="-7.5" font-family="Helvetica,sans-Serif" font-size="10.00">vpr::Allocator::DestroyImage</text>
</a>
</g>
</g>
<!-- Node195&#45;&gt;Node197 -->
<g id="edge7" class="edge"><title>Node195&#45;&gt;Node197</title>
<path fill="none" stroke="midnightblue" d="M293.054,-36.1757C317.091,-30.8184 345.132,-24.5689 367.785,-19.5201"/>
<polygon fill="midnightblue" stroke="midnightblue" points="292.023,-32.8194 283.024,-38.411 293.546,-39.6517 292.023,-32.8194"/>
</g>
</g>
</svg>
