<?xml version="1.0" encoding="UTF-8" standalone="no"?>
<!DOCTYPE svg PUBLIC "-//W3C//DTD SVG 1.1//EN"
 "http://www.w3.org/Graphics/SVG/1.1/DTD/svg11.dtd">
<!-- Generated by graphviz version 2.38.0 (20140413.2041)
 -->
<!-- Title: el::base::utils::RegistryWithPred&lt; T_Ptr, Pred &gt; Pages: 1 -->
<svg width="144pt" height="184pt"
 viewBox="0.00 0.00 144.00 184.00" xmlns="http://www.w3.org/2000/svg" xmlns:xlink="http://www.w3.org/1999/xlink">
<g id="graph0" class="graph" transform="scale(1 1) rotate(0) translate(4 180)">
<title>el::base::utils::RegistryWithPred&lt; T_Ptr, Pred &gt;</title>
<polygon fill="white" stroke="none" points="-4,4 -4,-180 140,-180 140,4 -4,4"/>
<!-- Node0 -->
<g id="node1" class="node"><title>Node0</title>
<polygon fill="#bfbfbf" stroke="black" points="5.5,-0.5 5.5,-30.5 130.5,-30.5 130.5,-0.5 5.5,-0.5"/>
<text text-anchor="start" x="13.5" y="-18.5" font-family="Helvetica,sans-Serif" font-size="10.00">el::base::utils::Registry</text>
<text text-anchor="middle" x="68" y="-7.5" font-family="Helvetica,sans-Serif" font-size="10.00">WithPred&lt; T_Ptr, Pred &gt;</text>
</g>
<!-- Node1 -->
<g id="node2" class="node"><title>Node1</title>
<g id="a_node2"><a xlink:href="classel_1_1base_1_1utils_1_1_abstract_registry.html" target="_top" xlink:title="el::base::utils::Abstract\lRegistry\&lt; T_Ptr, std::vector\l\&lt; T_Ptr *\&gt; \&gt;">
<polygon fill="white" stroke="black" points="0,-67.5 0,-108.5 136,-108.5 136,-67.5 0,-67.5"/>
<text text-anchor="start" x="8" y="-96.5" font-family="Helvetica,sans-Serif" font-size="10.00">el::base::utils::Abstract</text>
<text text-anchor="start" x="8" y="-85.5" font-family="Helvetica,sans-Serif" font-size="10.00">Registry&lt; T_Ptr, std::vector</text>
<text text-anchor="middle" x="68" y="-74.5" font-family="Helvetica,sans-Serif" font-size="10.00">&lt; T_Ptr *&gt; &gt;</text>
</a>
</g>
</g>
<!-- Node1&#45;&gt;Node0 -->
<g id="edge1" class="edge"><title>Node1&#45;&gt;Node0</title>
<path fill="none" stroke="midnightblue" d="M68,-57.08C68,-48.0061 68,-38.4498 68,-30.8916"/>
<polygon fill="midnightblue" stroke="midnightblue" points="64.5001,-57.3618 68,-67.3618 71.5001,-57.3619 64.5001,-57.3618"/>
</g>
<!-- Node2 -->
<g id="node3" class="node"><title>Node2</title>
<g id="a_node3"><a xlink:href="classel_1_1base_1_1threading_1_1_thread_safe.html" target="_top" xlink:title="Base of thread safe class, this class is inheritable&#45;only. ">
<polygon fill="white" stroke="black" points="19.5,-145.5 19.5,-175.5 116.5,-175.5 116.5,-145.5 19.5,-145.5"/>
<text text-anchor="start" x="27.5" y="-163.5" font-family="Helvetica,sans-Serif" font-size="10.00">el::base::threading</text>
<text text-anchor="middle" x="68" y="-152.5" font-family="Helvetica,sans-Serif" font-size="10.00">::ThreadSafe</text>
</a>
</g>
</g>
<!-- Node2&#45;&gt;Node1 -->
<g id="edge2" class="edge"><title>Node2&#45;&gt;Node1</title>
<path fill="none" stroke="midnightblue" d="M68,-134.982C68,-126.347 68,-116.762 68,-108.588"/>
<polygon fill="midnightblue" stroke="midnightblue" points="64.5001,-135.233 68,-145.233 71.5001,-135.233 64.5001,-135.233"/>
</g>
</g>
</svg>
