<?xml version="1.0" encoding="UTF-8" standalone="no"?>
<!DOCTYPE svg PUBLIC "-//W3C//DTD SVG 1.1//EN"
 "http://www.w3.org/Graphics/SVG/1.1/DTD/svg11.dtd">
<!-- Generated by graphviz version 2.38.0 (20140413.2041)
 -->
<!-- Title: el::base::utils::Str::addToBuff Pages: 1 -->
<svg width="271pt" height="88pt"
 viewBox="0.00 0.00 271.00 88.00" xmlns="http://www.w3.org/2000/svg" xmlns:xlink="http://www.w3.org/1999/xlink">
<g id="graph0" class="graph" transform="scale(1 1) rotate(0) translate(4 84)">
<title>el::base::utils::Str::addToBuff</title>
<polygon fill="white" stroke="none" points="-4,4 -4,-84 267,-84 267,4 -4,4"/>
<!-- Node1 -->
<g id="node1" class="node"><title>Node1</title>
<polygon fill="#bfbfbf" stroke="black" points="0,-24.5 0,-54.5 94,-54.5 94,-24.5 0,-24.5"/>
<text text-anchor="start" x="8" y="-42.5" font-family="Helvetica,sans-Serif" font-size="10.00">el::base::utils::Str</text>
<text text-anchor="middle" x="47" y="-31.5" font-family="Helvetica,sans-Serif" font-size="10.00">::addToBuff</text>
</g>
<!-- Node2 -->
<g id="node2" class="node"><title>Node2</title>
<g id="a_node2"><a xlink:href="classel_1_1base_1_1_default_log_builder.html#a9ee7983bc51f1fac887806e909ecbbbd" target="_top" xlink:title="el::base::DefaultLogBuilder\l::build">
<polygon fill="white" stroke="black" points="130,-49.5 130,-79.5 263,-79.5 263,-49.5 130,-49.5"/>
<text text-anchor="start" x="138" y="-67.5" font-family="Helvetica,sans-Serif" font-size="10.00">el::base::DefaultLogBuilder</text>
<text text-anchor="middle" x="196.5" y="-56.5" font-family="Helvetica,sans-Serif" font-size="10.00">::build</text>
</a>
</g>
</g>
<!-- Node1&#45;&gt;Node2 -->
<g id="edge1" class="edge"><title>Node1&#45;&gt;Node2</title>
<path fill="none" stroke="midnightblue" d="M104.304,-49.0431C112.69,-50.4644 121.395,-51.9398 129.95,-53.3899"/>
<polygon fill="midnightblue" stroke="midnightblue" points="104.71,-45.5619 94.2652,-47.3416 103.54,-52.4635 104.71,-45.5619"/>
</g>
<!-- Node3 -->
<g id="node3" class="node"><title>Node3</title>
<g id="a_node3"><a xlink:href="classel_1_1base_1_1utils_1_1_date_time.html#ae9e46f004059acb5447885e1103c3ea8" target="_top" xlink:title="el::base::utils::DateTime\l::parseFormat">
<polygon fill="white" stroke="black" points="135.5,-0.5 135.5,-30.5 257.5,-30.5 257.5,-0.5 135.5,-0.5"/>
<text text-anchor="start" x="143.5" y="-18.5" font-family="Helvetica,sans-Serif" font-size="10.00">el::base::utils::DateTime</text>
<text text-anchor="middle" x="196.5" y="-7.5" font-family="Helvetica,sans-Serif" font-size="10.00">::parseFormat</text>
</a>
</g>
</g>
<!-- Node1&#45;&gt;Node3 -->
<g id="edge2" class="edge"><title>Node1&#45;&gt;Node3</title>
<path fill="none" stroke="midnightblue" d="M104.242,-30.3487C114.407,-28.6948 125.043,-26.9642 135.315,-25.2928"/>
<polygon fill="midnightblue" stroke="midnightblue" points="103.573,-26.9114 94.2652,-31.9721 104.698,-33.8206 103.573,-26.9114"/>
</g>
</g>
</svg>
