<?xml version="1.0" encoding="UTF-8" standalone="no"?>
<!DOCTYPE svg PUBLIC "-//W3C//DTD SVG 1.1//EN"
 "http://www.w3.org/Graphics/SVG/1.1/DTD/svg11.dtd">
<!-- Generated by graphviz version 2.38.0 (20140413.2041)
 -->
<!-- Title: el::Configurations::setGlobally Pages: 1 -->
<svg width="273pt" height="78pt"
 viewBox="0.00 0.00 273.00 77.50" xmlns="http://www.w3.org/2000/svg" xmlns:xlink="http://www.w3.org/1999/xlink">
<g id="graph0" class="graph" transform="scale(1 1) rotate(0) translate(4 73.5)">
<title>el::Configurations::setGlobally</title>
<polygon fill="white" stroke="none" points="-4,4 -4,-73.5 269,-73.5 269,4 -4,4"/>
<!-- Node146 -->
<g id="node1" class="node"><title>Node146</title>
<polygon fill="#bfbfbf" stroke="black" points="0,-22.5 0,-52.5 92,-52.5 92,-22.5 0,-22.5"/>
<text text-anchor="start" x="8" y="-40.5" font-family="Helvetica,sans-Serif" font-size="10.00">el::Configurations</text>
<text text-anchor="middle" x="46" y="-29.5" font-family="Helvetica,sans-Serif" font-size="10.00">::setGlobally</text>
</g>
<!-- Node147 -->
<g id="node2" class="node"><title>Node147</title>
<g id="a_node2"><a xlink:href="classel_1_1_level_helper.html#a1279f27df29a003df5ecc3d0bf4dacbb" target="_top" xlink:title="Casts int(ushort) to level, useful for iterating through enum. ">
<polygon fill="white" stroke="black" points="128,-50 128,-69 265,-69 265,-50 128,-50"/>
<text text-anchor="middle" x="196.5" y="-57" font-family="Helvetica,sans-Serif" font-size="10.00">el::LevelHelper::castFromInt</text>
</a>
</g>
</g>
<!-- Node146&#45;&gt;Node147 -->
<g id="edge1" class="edge"><title>Node146&#45;&gt;Node147</title>
<path fill="none" stroke="midnightblue" d="M92.3618,-44.2203C101.478,-45.5708 111.282,-47.0232 121.09,-48.4763"/>
<polygon fill="midnightblue" stroke="midnightblue" points="120.878,-51.9831 131.283,-49.9864 121.904,-45.0586 120.878,-51.9831"/>
</g>
<!-- Node148 -->
<g id="node3" class="node"><title>Node148</title>
<g id="a_node3"><a xlink:href="classel_1_1_level_helper.html#a7f0dbfceb2354a72c2802d02c300430d" target="_top" xlink:title="Applies specified function to each level starting from startIndex. ">
<polygon fill="white" stroke="black" points="137,-0.5 137,-30.5 256,-30.5 256,-0.5 137,-0.5"/>
<text text-anchor="start" x="145" y="-18.5" font-family="Helvetica,sans-Serif" font-size="10.00">el::LevelHelper::forEach</text>
<text text-anchor="middle" x="196.5" y="-7.5" font-family="Helvetica,sans-Serif" font-size="10.00">Level</text>
</a>
</g>
</g>
<!-- Node146&#45;&gt;Node148 -->
<g id="edge2" class="edge"><title>Node146&#45;&gt;Node148</title>
<path fill="none" stroke="midnightblue" d="M92.3618,-30.7797C103.247,-29.1671 115.113,-27.4091 126.796,-25.6784"/>
<polygon fill="midnightblue" stroke="midnightblue" points="127.606,-29.0966 136.985,-24.1688 126.58,-22.1722 127.606,-29.0966"/>
</g>
</g>
</svg>
