<?xml version="1.0" encoding="UTF-8" standalone="no"?>
<!DOCTYPE svg PUBLIC "-//W3C//DTD SVG 1.1//EN"
 "http://www.w3.org/Graphics/SVG/1.1/DTD/svg11.dtd">
<!-- Generated by graphviz version 2.38.0 (20140413.2041)
 -->
<!-- Title: el::base::utils::Str::replaceFirstWithEscape Pages: 1 -->
<svg width="612pt" height="214pt"
 viewBox="0.00 0.00 612.00 214.00" xmlns="http://www.w3.org/2000/svg" xmlns:xlink="http://www.w3.org/1999/xlink">
<g id="graph0" class="graph" transform="scale(1 1) rotate(0) translate(4 210)">
<title>el::base::utils::Str::replaceFirstWithEscape</title>
<polygon fill="white" stroke="none" points="-4,4 -4,-210 608,-210 608,4 -4,4"/>
<!-- Node37 -->
<g id="node1" class="node"><title>Node37</title>
<polygon fill="#bfbfbf" stroke="black" points="0,-71.5 0,-101.5 127,-101.5 127,-71.5 0,-71.5"/>
<text text-anchor="start" x="8" y="-89.5" font-family="Helvetica,sans-Serif" font-size="10.00">el::base::utils::Str</text>
<text text-anchor="middle" x="63.5" y="-78.5" font-family="Helvetica,sans-Serif" font-size="10.00">::replaceFirstWithEscape</text>
</g>
<!-- Node38 -->
<g id="node2" class="node"><title>Node38</title>
<g id="a_node2"><a xlink:href="classel_1_1base_1_1_default_log_builder.html#a9ee7983bc51f1fac887806e909ecbbbd" target="_top" xlink:title="el::base::DefaultLogBuilder\l::build">
<polygon fill="white" stroke="black" points="163,-120.5 163,-150.5 296,-150.5 296,-120.5 163,-120.5"/>
<text text-anchor="start" x="171" y="-138.5" font-family="Helvetica,sans-Serif" font-size="10.00">el::base::DefaultLogBuilder</text>
<text text-anchor="middle" x="229.5" y="-127.5" font-family="Helvetica,sans-Serif" font-size="10.00">::build</text>
</a>
</g>
</g>
<!-- Node37&#45;&gt;Node38 -->
<g id="edge1" class="edge"><title>Node37&#45;&gt;Node38</title>
<path fill="none" stroke="midnightblue" d="M124.634,-104.467C142.206,-109.717 161.223,-115.399 178.123,-120.448"/>
<polygon fill="midnightblue" stroke="midnightblue" points="125.627,-101.111 115.044,-101.601 123.623,-107.818 125.627,-101.111"/>
</g>
<!-- Node39 -->
<g id="node3" class="node"><title>Node39</title>
<g id="a_node3"><a xlink:href="classel_1_1_logger.html#acfb9ef869b9b4dc3efd78d7f64b8bebd" target="_top" xlink:title="el::Logger::resolveLogger\lFormatSpec">
<polygon fill="white" stroke="black" points="167,-71.5 167,-101.5 292,-101.5 292,-71.5 167,-71.5"/>
<text text-anchor="start" x="175" y="-89.5" font-family="Helvetica,sans-Serif" font-size="10.00">el::Logger::resolveLogger</text>
<text text-anchor="middle" x="229.5" y="-78.5" font-family="Helvetica,sans-Serif" font-size="10.00">FormatSpec</text>
</a>
</g>
</g>
<!-- Node37&#45;&gt;Node39 -->
<g id="edge2" class="edge"><title>Node37&#45;&gt;Node39</title>
<path fill="none" stroke="midnightblue" d="M137.538,-86.5C147.312,-86.5 157.259,-86.5 166.813,-86.5"/>
<polygon fill="midnightblue" stroke="midnightblue" points="137.438,-83.0001 127.438,-86.5 137.438,-90.0001 137.438,-83.0001"/>
</g>
<!-- Node51 -->
<g id="node9" class="node"><title>Node51</title>
<g id="a_node9"><a xlink:href="classel_1_1base_1_1_log_format.html#aa3c2ddecf237d0ec3eca4b2a3a442e67" target="_top" xlink:title="Updates level from format. This is so that we dont have to do it at log&#45;writing&#45;time. It uses m_format and m_level. ">
<polygon fill="white" stroke="black" points="177,-17.5 177,-47.5 282,-47.5 282,-17.5 177,-17.5"/>
<text text-anchor="start" x="185" y="-35.5" font-family="Helvetica,sans-Serif" font-size="10.00">el::base::LogFormat</text>
<text text-anchor="middle" x="229.5" y="-24.5" font-family="Helvetica,sans-Serif" font-size="10.00">::updateFormatSpec</text>
</a>
</g>
</g>
<!-- Node37&#45;&gt;Node51 -->
<g id="edge8" class="edge"><title>Node37&#45;&gt;Node51</title>
<path fill="none" stroke="midnightblue" d="M119.71,-68.3211C140.209,-61.5713 163.218,-53.9953 182.778,-47.5549"/>
<polygon fill="midnightblue" stroke="midnightblue" points="118.587,-65.006 110.183,-71.458 120.776,-71.6548 118.587,-65.006"/>
</g>
<!-- Node40 -->
<g id="node4" class="node"><title>Node40</title>
<g id="a_node4"><a xlink:href="classel_1_1_logger.html#ad9db621dbf8977bf814dc7baea8dcee4" target="_top" xlink:title="Configures the logger using specified configurations. ">
<polygon fill="white" stroke="black" points="332,-99 332,-118 436,-118 436,-99 332,-99"/>
<text text-anchor="middle" x="384" y="-106" font-family="Helvetica,sans-Serif" font-size="10.00">el::Logger::configure</text>
</a>
</g>
</g>
<!-- Node39&#45;&gt;Node40 -->
<g id="edge3" class="edge"><title>Node39&#45;&gt;Node40</title>
<path fill="none" stroke="midnightblue" d="M302.096,-96.8286C312.167,-98.2815 322.346,-99.75 331.928,-101.132"/>
<polygon fill="midnightblue" stroke="midnightblue" points="302.485,-93.3486 292.088,-95.3848 301.486,-100.277 302.485,-93.3486"/>
</g>
<!-- Node41 -->
<g id="node5" class="node"><title>Node41</title>
<g id="a_node5"><a xlink:href="classel_1_1_loggers.html#adedfcc17831fe3d3f14026c91e8df88c" target="_top" xlink:title="Sets configurations from global configuration file. ">
<polygon fill="white" stroke="black" points="472,-175.5 472,-205.5 604,-205.5 604,-175.5 472,-175.5"/>
<text text-anchor="start" x="480" y="-193.5" font-family="Helvetica,sans-Serif" font-size="10.00">el::Loggers::configureFrom</text>
<text text-anchor="middle" x="538" y="-182.5" font-family="Helvetica,sans-Serif" font-size="10.00">Global</text>
</a>
</g>
</g>
<!-- Node40&#45;&gt;Node41 -->
<g id="edge4" class="edge"><title>Node40&#45;&gt;Node41</title>
<path fill="none" stroke="midnightblue" d="M405.926,-124.036C423.088,-136.322 448.326,-153.367 472,-165.5 478.886,-169.029 486.392,-172.356 493.777,-175.362"/>
<polygon fill="midnightblue" stroke="midnightblue" points="407.888,-121.136 397.739,-118.097 403.778,-126.802 407.888,-121.136"/>
</g>
<!-- Node42 -->
<g id="node6" class="node"><title>Node42</title>
<g id="a_node6"><a xlink:href="classel_1_1_logger.html#a43abea8865d7316f05c8a676a8c04896" target="_top" xlink:title="el::Logger::Logger">
<polygon fill="white" stroke="black" points="490.5,-137 490.5,-156 585.5,-156 585.5,-137 490.5,-137"/>
<text text-anchor="middle" x="538" y="-144" font-family="Helvetica,sans-Serif" font-size="10.00">el::Logger::Logger</text>
</a>
</g>
</g>
<!-- Node40&#45;&gt;Node42 -->
<g id="edge5" class="edge"><title>Node40&#45;&gt;Node42</title>
<path fill="none" stroke="midnightblue" d="M433.16,-120.54C454.395,-125.849 478.995,-131.999 498.92,-136.98"/>
<polygon fill="midnightblue" stroke="midnightblue" points="433.906,-117.119 423.356,-118.089 432.209,-123.91 433.906,-117.119"/>
</g>
<!-- Node43 -->
<g id="node7" class="node"><title>Node43</title>
<g id="a_node7"><a xlink:href="classel_1_1_logger.html#adfd57ab27fb398cc980a3edfab92927e" target="_top" xlink:title="Reconfigures logger using existing configurations. ">
<polygon fill="white" stroke="red" points="481.5,-99 481.5,-118 594.5,-118 594.5,-99 481.5,-99"/>
<text text-anchor="middle" x="538" y="-106" font-family="Helvetica,sans-Serif" font-size="10.00">el::Logger::reconfigure</text>
</a>
</g>
</g>
<!-- Node40&#45;&gt;Node43 -->
<g id="edge6" class="edge"><title>Node40&#45;&gt;Node43</title>
<path fill="none" stroke="midnightblue" d="M446.127,-108.5C457.784,-108.5 469.926,-108.5 481.399,-108.5"/>
<polygon fill="midnightblue" stroke="midnightblue" points="446.037,-105 436.037,-108.5 446.037,-112 446.037,-105"/>
</g>
<!-- Node47 -->
<g id="node8" class="node"><title>Node47</title>
<g id="a_node8"><a xlink:href="classel_1_1_loggers.html#a02223004494a404a2c3e7cd0c4380d3b" target="_top" xlink:title="Reconfigures specified logger with new configurations. ">
<polygon fill="white" stroke="red" points="479,-49.5 479,-79.5 597,-79.5 597,-49.5 479,-49.5"/>
<text text-anchor="start" x="487" y="-67.5" font-family="Helvetica,sans-Serif" font-size="10.00">el::Loggers::reconfigure</text>
<text text-anchor="middle" x="538" y="-56.5" font-family="Helvetica,sans-Serif" font-size="10.00">Logger</text>
</a>
</g>
</g>
<!-- Node40&#45;&gt;Node47 -->
<g id="edge7" class="edge"><title>Node40&#45;&gt;Node47</title>
<path fill="none" stroke="midnightblue" d="M428.027,-96.0447C445.735,-90.9187 466.406,-84.9351 484.956,-79.5654"/>
<polygon fill="midnightblue" stroke="midnightblue" points="426.614,-92.81 417.982,-98.9527 428.561,-99.534 426.614,-92.81"/>
</g>
<!-- Node52 -->
<g id="node10" class="node"><title>Node52</title>
<g id="a_node10"><a xlink:href="classel_1_1base_1_1_log_format.html#ab7c1b15cfdad24cfbc6dbced8b9d66eb" target="_top" xlink:title="Updates format to be used while logging. ">
<polygon fill="white" stroke="black" points="332,-6.5 332,-36.5 436,-36.5 436,-6.5 332,-6.5"/>
<text text-anchor="start" x="340" y="-24.5" font-family="Helvetica,sans-Serif" font-size="10.00">el::base::LogFormat</text>
<text text-anchor="middle" x="384" y="-13.5" font-family="Helvetica,sans-Serif" font-size="10.00">::parseFromFormat</text>
</a>
</g>
</g>
<!-- Node51&#45;&gt;Node52 -->
<g id="edge9" class="edge"><title>Node51&#45;&gt;Node52</title>
<path fill="none" stroke="midnightblue" d="M292.487,-28.0288C305.597,-27.0831 319.29,-26.0954 331.941,-25.1829"/>
<polygon fill="midnightblue" stroke="midnightblue" points="291.852,-24.5654 282.13,-28.7759 292.355,-31.5473 291.852,-24.5654"/>
</g>
<!-- Node53 -->
<g id="node11" class="node"><title>Node53</title>
<g id="a_node11"><a xlink:href="classel_1_1base_1_1_log_format.html#a746a49231f1b046803dd2144ae2a2c76" target="_top" xlink:title="el::base::LogFormat\l::LogFormat">
<polygon fill="white" stroke="black" points="486,-0.5 486,-30.5 590,-30.5 590,-0.5 486,-0.5"/>
<text text-anchor="start" x="494" y="-18.5" font-family="Helvetica,sans-Serif" font-size="10.00">el::base::LogFormat</text>
<text text-anchor="middle" x="538" y="-7.5" font-family="Helvetica,sans-Serif" font-size="10.00">::LogFormat</text>
</a>
</g>
</g>
<!-- Node52&#45;&gt;Node53 -->
<g id="edge10" class="edge"><title>Node52&#45;&gt;Node53</title>
<path fill="none" stroke="midnightblue" d="M446.38,-19.0771C459.476,-18.5602 473.175,-18.0194 485.839,-17.5195"/>
<polygon fill="midnightblue" stroke="midnightblue" points="445.891,-15.5936 436.037,-19.4854 446.167,-22.5881 445.891,-15.5936"/>
</g>
</g>
</svg>
