<?xml version="1.0" encoding="UTF-8" standalone="no"?>
<!DOCTYPE svg PUBLIC "-//W3C//DTD SVG 1.1//EN"
 "http://www.w3.org/Graphics/SVG/1.1/DTD/svg11.dtd">
<!-- Generated by graphviz version 2.38.0 (20140413.2041)
 -->
<!-- Title: vpr::Allocator::CreateBuffer Pages: 1 -->
<!--zoomable 244 -->
<svg id="main" version="1.1" xmlns="http://www.w3.org/2000/svg" xmlns:xlink="http://www.w3.org/1999/xlink" xml:space="preserve" onload="init(evt)">
<style type="text/css"><![CDATA[
.edge:hover path { stroke: red; }
.edge:hover polygon { stroke: red; fill: red; }
]]></style>
<script type="text/javascript"><![CDATA[
var edges = document.getElementsByTagName('g');
if (edges && edges.length) {
  for (var i=0;i<edges.length;i++) {
    if (edges[i].id.substr(0,4)=='edge') {
      edges[i].setAttribute('class','edge');
    }
  }
}
]]></script>
        <defs>
                <circle id="rim" cx="0" cy="0" r="7"/>
                <circle id="rim2" cx="0" cy="0" r="3.5"/>
                <g id="zoomPlus">
                        <use xlink:href="#rim" fill="#404040">
                                <set attributeName="fill" to="#808080" begin="zoomplus.mouseover" end="zoomplus.mouseout"/>
                        </use>
                        <path d="M-4,0h8M0,-4v8" fill="none" stroke="white" stroke-width="1.5" pointer-events="none"/>
                </g>
                <g id="zoomMin">
                        <use xlink:href="#rim" fill="#404040">
                                <set attributeName="fill" to="#808080" begin="zoomminus.mouseover" end="zoomminus.mouseout"/>
                        </use>
                        <path d="M-4,0h8" fill="none" stroke="white" stroke-width="1.5" pointer-events="none"/>
                </g>
                <g id="dirArrow">
                        <path fill="none" stroke="white" stroke-width="1.5" d="M0,-3.0v7 M-2.5,-0.5L0,-3.0L2.5,-0.5"/>
                </g>
               <g id="resetDef">
                       <use xlink:href="#rim2" fill="#404040">
                               <set attributeName="fill" to="#808080" begin="reset.mouseover" end="reset.mouseout"/>
                       </use>
               </g>
        </defs>

<script type="text/javascript">
var viewWidth = 757;
var viewHeight = 244;
var sectionId = 'dynsection-16';
</script>
<script xlink:href="svgpan.js"/>
<svg id="graph" class="graph">
<g id="viewport">
<title>vpr::Allocator::CreateBuffer</title>
<polygon fill="white" stroke="none" points="-4,4 -4,-239.5 753,-239.5 753,4 -4,4"/>
<!-- Node99 -->
<g id="node1" class="node"><title>Node99</title>
<polygon fill="#bfbfbf" stroke="black" points="0,-57.5 0,-76.5 132,-76.5 132,-57.5 0,-57.5"/>
<text text-anchor="middle" x="66" y="-64.5" font-family="Helvetica,sans-Serif" font-size="10.00">vpr::Allocator::CreateBuffer</text>
</g>
<!-- Node100 -->
<g id="node2" class="node"><title>Node100</title>
<g id="a_node2"><a xlink:href="classvpr_1_1_allocator.html#aa8aad8539721142d8dfa92a3196ab90b" target="_top" xlink:title="vpr::Allocator::Allocate\lForBuffer">
<polygon fill="white" stroke="black" points="170.5,-115 170.5,-145 284.5,-145 284.5,-115 170.5,-115"/>
<text text-anchor="start" x="178.5" y="-133" font-family="Helvetica,sans-Serif" font-size="10.00">vpr::Allocator::Allocate</text>
<text text-anchor="middle" x="227.5" y="-122" font-family="Helvetica,sans-Serif" font-size="10.00">ForBuffer</text>
</a>
</g>
</g>
<!-- Node99&#45;&gt;Node100 -->
<g id="edge1" class="edge"><title>Node99&#45;&gt;Node100</title>
<path fill="none" stroke="midnightblue" d="M91.2246,-76.5683C114.4,-85.7224 149.996,-99.7822 178.857,-111.182"/>
<polygon fill="midnightblue" stroke="midnightblue" points="177.773,-114.517 188.359,-114.935 180.344,-108.006 177.773,-114.517"/>
</g>
<!-- Node105 -->
<g id="node5" class="node"><title>Node105</title>
<g id="a_node5"><a xlink:href="classvpr_1_1_device.html#a59882855173bef0b13a17b376ea01d45" target="_top" xlink:title="vpr::Device::vkHandle">
<polygon fill="white" stroke="black" points="641,-117.5 641,-136.5 749,-136.5 749,-117.5 641,-117.5"/>
<text text-anchor="middle" x="695" y="-124.5" font-family="Helvetica,sans-Serif" font-size="10.00">vpr::Device::vkHandle</text>
</a>
</g>
</g>
<!-- Node99&#45;&gt;Node105 -->
<g id="edge10" class="edge"><title>Node99&#45;&gt;Node105</title>
<path fill="none" stroke="midnightblue" d="M132.032,-73.2231C253.03,-84.8019 511.281,-109.515 630.845,-120.956"/>
<polygon fill="midnightblue" stroke="midnightblue" points="630.651,-124.454 640.939,-121.922 631.318,-117.486 630.651,-124.454"/>
</g>
<!-- Node114 -->
<g id="node8" class="node"><title>Node114</title>
<g id="a_node8"><a xlink:href="classvpr_1_1_allocation.html#a1a223e41ca865271544ece71d18edce2" target="_top" xlink:title="vpr::Allocation::Memory">
<polygon fill="white" stroke="black" points="168,-38.5 168,-57.5 287,-57.5 287,-38.5 168,-38.5"/>
<text text-anchor="middle" x="227.5" y="-45.5" font-family="Helvetica,sans-Serif" font-size="10.00">vpr::Allocation::Memory</text>
</a>
</g>
</g>
<!-- Node99&#45;&gt;Node114 -->
<g id="edge8" class="edge"><title>Node99&#45;&gt;Node114</title>
<path fill="none" stroke="midnightblue" d="M132.335,-59.2172C140.714,-58.219 149.313,-57.1947 157.745,-56.1902"/>
<polygon fill="midnightblue" stroke="midnightblue" points="158.405,-59.6364 167.921,-54.9781 157.577,-52.6856 158.405,-59.6364"/>
</g>
<!-- Node115 -->
<g id="node9" class="node"><title>Node115</title>
<g id="a_node9"><a xlink:href="classvpr_1_1_allocation.html#acb642a53c185ac6530ed60959b0e4397" target="_top" xlink:title="vpr::Allocation::Offset">
<polygon fill="white" stroke="black" points="173,-0.5 173,-19.5 282,-19.5 282,-0.5 173,-0.5"/>
<text text-anchor="middle" x="227.5" y="-7.5" font-family="Helvetica,sans-Serif" font-size="10.00">vpr::Allocation::Offset</text>
</a>
</g>
</g>
<!-- Node99&#45;&gt;Node115 -->
<g id="edge9" class="edge"><title>Node99&#45;&gt;Node115</title>
<path fill="none" stroke="midnightblue" d="M91.3765,-57.4706C111.762,-49.5876 141.655,-38.2288 168,-29 174.018,-26.8917 180.412,-24.7331 186.679,-22.6624"/>
<polygon fill="midnightblue" stroke="midnightblue" points="187.933,-25.9349 196.35,-19.5006 185.758,-19.2815 187.933,-25.9349"/>
</g>
<!-- Node101 -->
<g id="node3" class="node"><title>Node101</title>
<g id="a_node3"><a xlink:href="classvpr_1_1_allocator.html#a1d36e3567e4fd7ef8bf1395942f6c714" target="_top" xlink:title="vpr::Allocator::Allocate\lMemory">
<polygon fill="white" stroke="black" points="324.5,-164 324.5,-194 438.5,-194 438.5,-164 324.5,-164"/>
<text text-anchor="start" x="332.5" y="-182" font-family="Helvetica,sans-Serif" font-size="10.00">vpr::Allocator::Allocate</text>
<text text-anchor="middle" x="381.5" y="-171" font-family="Helvetica,sans-Serif" font-size="10.00">Memory</text>
</a>
</g>
</g>
<!-- Node100&#45;&gt;Node101 -->
<g id="edge2" class="edge"><title>Node100&#45;&gt;Node101</title>
<path fill="none" stroke="midnightblue" d="M275.345,-145.101C290.732,-150.062 307.997,-155.627 324.021,-160.793"/>
<polygon fill="midnightblue" stroke="midnightblue" points="323.218,-164.211 333.809,-163.948 325.366,-157.549 323.218,-164.211"/>
</g>
<!-- Node113 -->
<g id="node7" class="node"><title>Node113</title>
<g id="a_node7"><a xlink:href="classvpr_1_1_allocator.html#a9e7a1ff1daa157cd1f74d1437a8384de" target="_top" xlink:title="vpr::Allocator::getBuffer\lMemReqs">
<polygon fill="white" stroke="black" points="323,-115 323,-145 440,-145 440,-115 323,-115"/>
<text text-anchor="start" x="331" y="-133" font-family="Helvetica,sans-Serif" font-size="10.00">vpr::Allocator::getBuffer</text>
<text text-anchor="middle" x="381.5" y="-122" font-family="Helvetica,sans-Serif" font-size="10.00">MemReqs</text>
</a>
</g>
</g>
<!-- Node100&#45;&gt;Node113 -->
<g id="edge6" class="edge"><title>Node100&#45;&gt;Node113</title>
<path fill="none" stroke="midnightblue" d="M284.667,-130C293.797,-130 303.337,-130 312.708,-130"/>
<polygon fill="midnightblue" stroke="midnightblue" points="312.784,-133.5 322.784,-130 312.784,-126.5 312.784,-133.5"/>
</g>
<!-- Node102 -->
<g id="node4" class="node"><title>Node102</title>
<g id="a_node4"><a xlink:href="classvpr_1_1_allocator.html#a40618202c2c86027ee1915cadbc18afd" target="_top" xlink:title="vpr::Allocator::allocate\lMemoryType">
<polygon fill="white" stroke="red" points="484,-205 484,-235 597,-235 597,-205 484,-205"/>
<text text-anchor="start" x="492" y="-223" font-family="Helvetica,sans-Serif" font-size="10.00">vpr::Allocator::allocate</text>
<text text-anchor="middle" x="540.5" y="-212" font-family="Helvetica,sans-Serif" font-size="10.00">MemoryType</text>
</a>
</g>
</g>
<!-- Node101&#45;&gt;Node102 -->
<g id="edge3" class="edge"><title>Node101&#45;&gt;Node102</title>
<path fill="none" stroke="midnightblue" d="M438.737,-193.686C450.217,-196.684 462.389,-199.863 474.155,-202.935"/>
<polygon fill="midnightblue" stroke="midnightblue" points="473.359,-206.345 483.919,-205.485 475.128,-199.572 473.359,-206.345"/>
</g>
<!-- Node110 -->
<g id="node6" class="node"><title>Node110</title>
<g id="a_node6"><a xlink:href="classvpr_1_1_allocator.html#a12b2ce29d3b6b28131cc9c5a331d2286" target="_top" xlink:title="vpr::Allocator::findMemory\lTypeIdx">
<polygon fill="white" stroke="red" points="476,-156 476,-186 605,-186 605,-156 476,-156"/>
<text text-anchor="start" x="484" y="-174" font-family="Helvetica,sans-Serif" font-size="10.00">vpr::Allocator::findMemory</text>
<text text-anchor="middle" x="540.5" y="-163" font-family="Helvetica,sans-Serif" font-size="10.00">TypeIdx</text>
</a>
</g>
</g>
<!-- Node101&#45;&gt;Node110 -->
<g id="edge5" class="edge"><title>Node101&#45;&gt;Node110</title>
<path fill="none" stroke="midnightblue" d="M438.737,-176.134C447.495,-175.688 456.657,-175.221 465.733,-174.759"/>
<polygon fill="midnightblue" stroke="midnightblue" points="466.11,-178.244 475.919,-174.24 465.754,-171.253 466.11,-178.244"/>
</g>
<!-- Node102&#45;&gt;Node105 -->
<g id="edge4" class="edge"><title>Node102&#45;&gt;Node105</title>
<path fill="none" stroke="midnightblue" d="M586.332,-204.989C592.739,-202.292 599.139,-199.282 605,-196 631.682,-181.061 658.982,-158.62 676.185,-143.421"/>
<polygon fill="midnightblue" stroke="midnightblue" points="678.672,-145.892 683.772,-136.606 673.994,-140.684 678.672,-145.892"/>
</g>
<!-- Node113&#45;&gt;Node105 -->
<g id="edge7" class="edge"><title>Node113&#45;&gt;Node105</title>
<path fill="none" stroke="midnightblue" d="M440.361,-129.443C494.441,-128.922 575,-128.146 630.755,-127.609"/>
<polygon fill="midnightblue" stroke="midnightblue" points="630.899,-131.108 640.865,-127.512 630.832,-124.108 630.899,-131.108"/>
</g>
</g>
</svg>
        <g id="navigator" transform="translate(0 0)" fill="#404254">
                <rect fill="#f2f5e9" fill-opacity="0.5" stroke="#606060" stroke-width=".5" x="0" y="0" width="60" height="60"/>
                <use id="zoomplus" xlink:href="#zoomPlus" x="17" y="9" onmousedown="handleZoom(evt,'in')"/>
                <use id="zoomminus" xlink:href="#zoomMin" x="42" y="9" onmousedown="handleZoom(evt,'out')"/>
                <use id="reset" xlink:href="#resetDef" x="30" y="36" onmousedown="handleReset()"/>
                <g id="arrowUp" xlink:href="#dirArrow" transform="translate(30 24)" onmousedown="handlePan(0,-1)">
                  <use xlink:href="#rim" fill="#404040">
                        <set attributeName="fill" to="#808080" begin="arrowUp.mouseover" end="arrowUp.mouseout"/>
                  </use>
                  <path fill="none" stroke="white" stroke-width="1.5" d="M0,-3.0v7 M-2.5,-0.5L0,-3.0L2.5,-0.5"/>
                </g>
                <g id="arrowRight" xlink:href="#dirArrow" transform="rotate(90) translate(36 -43)" onmousedown="handlePan(1,0)">
                  <use xlink:href="#rim" fill="#404040">
                        <set attributeName="fill" to="#808080" begin="arrowRight.mouseover" end="arrowRight.mouseout"/>
                  </use>
                  <path fill="none" stroke="white" stroke-width="1.5" d="M0,-3.0v7 M-2.5,-0.5L0,-3.0L2.5,-0.5"/>
                </g>
                <g id="arrowDown" xlink:href="#dirArrow" transform="rotate(180) translate(-30 -48)" onmousedown="handlePan(0,1)">
                  <use xlink:href="#rim" fill="#404040">
                        <set attributeName="fill" to="#808080" begin="arrowDown.mouseover" end="arrowDown.mouseout"/>
                  </use>
                  <path fill="none" stroke="white" stroke-width="1.5" d="M0,-3.0v7 M-2.5,-0.5L0,-3.0L2.5,-0.5"/>
                </g>
                <g id="arrowLeft" xlink:href="#dirArrow" transform="rotate(270) translate(-36 17)" onmousedown="handlePan(-1,0)">
                  <use xlink:href="#rim" fill="#404040">
                        <set attributeName="fill" to="#808080" begin="arrowLeft.mouseover" end="arrowLeft.mouseout"/>
                  </use>
                  <path fill="none" stroke="white" stroke-width="1.5" d="M0,-3.0v7 M-2.5,-0.5L0,-3.0L2.5,-0.5"/>
                </g>
        </g>
        <svg viewBox="0 0 15 15" width="100%" height="30px" preserveAspectRatio="xMaxYMin meet">
         <g id="arrow_out" transform="scale(0.3 0.3)">
          <a xlink:href="classvpr_1_1_allocator_a98ce3e7a210998e2e6723079ae2bb8ff_cgraph_org.svg" target="_base">
           <rect id="button" ry="5" rx="5" y="6" x="6" height="38" width="38"
                fill="#f2f5e9" fill-opacity="0.5" stroke="#606060" stroke-width="1.0"/>
           <path id="arrow"
             d="M 11.500037,31.436501 C 11.940474,20.09759 22.043105,11.32322 32.158766,21.979434 L 37.068811,17.246167 C 37.068811,17.246167 37.088388,32 37.088388,32 L 22.160133,31.978069 C 22.160133,31.978069 26.997745,27.140456 26.997745,27.140456 C 18.528582,18.264221 13.291696,25.230495 11.500037,31.436501 z"
             style="fill:#404040;"/>
          </a>
         </g>
        </svg>
</svg>
