<?xml version="1.0" encoding="UTF-8" standalone="no"?>
<!DOCTYPE svg PUBLIC "-//W3C//DTD SVG 1.1//EN"
 "http://www.w3.org/Graphics/SVG/1.1/DTD/svg11.dtd">
<!-- Generated by graphviz version 2.38.0 (20140413.2041)
 -->
<!-- Title: el::base::utils::CommandLineArgs Pages: 1 -->
<svg width="260pt" height="263pt"
 viewBox="0.00 0.00 259.50 263.00" xmlns="http://www.w3.org/2000/svg" xmlns:xlink="http://www.w3.org/1999/xlink">
<g id="graph0" class="graph" transform="scale(1 1) rotate(0) translate(4 259)">
<title>el::base::utils::CommandLineArgs</title>
<polygon fill="white" stroke="none" points="-4,4 -4,-259 255.5,-259 255.5,4 -4,4"/>
<!-- Node1 -->
<g id="node1" class="node"><title>Node1</title>
<polygon fill="#bfbfbf" stroke="black" points="61.5,-0.5 61.5,-30.5 186.5,-30.5 186.5,-0.5 61.5,-0.5"/>
<text text-anchor="start" x="69.5" y="-18.5" font-family="Helvetica,sans-Serif" font-size="10.00">el::base::utils::Command</text>
<text text-anchor="middle" x="124" y="-7.5" font-family="Helvetica,sans-Serif" font-size="10.00">LineArgs</text>
</g>
<!-- Node2 -->
<g id="node2" class="node"><title>Node2</title>
<polygon fill="white" stroke="#bfbfbf" points="0,-78.5 0,-108.5 110,-108.5 110,-78.5 0,-78.5"/>
<text text-anchor="start" x="8" y="-96.5" font-family="Helvetica,sans-Serif" font-size="10.00">std::map&lt; std::string,</text>
<text text-anchor="middle" x="55" y="-85.5" font-family="Helvetica,sans-Serif" font-size="10.00"> std::string &gt;</text>
</g>
<!-- Node2&#45;&gt;Node1 -->
<g id="edge1" class="edge"><title>Node2&#45;&gt;Node1</title>
<path fill="none" stroke="#9a32cd" stroke-dasharray="5,2" d="M56.2547,-68.2063C57.557,-61.4837 59.894,-54.5241 64,-49 69.7244,-41.2987 77.8331,-35.2171 86.2442,-30.5014"/>
<polygon fill="#9a32cd" stroke="#9a32cd" points="52.7563,-67.9709 54.9543,-78.3352 59.6993,-68.8623 52.7563,-67.9709"/>
<text text-anchor="middle" x="111" y="-52" font-family="Helvetica,sans-Serif" font-size="10.00"> m_paramsWithValue</text>
</g>
<!-- Node3 -->
<g id="node3" class="node"><title>Node3</title>
<g id="a_node3"><a xlink:title="STL class. ">
<polygon fill="white" stroke="#bfbfbf" points="74,-167.5 74,-186.5 134,-186.5 134,-167.5 74,-167.5"/>
<text text-anchor="middle" x="104" y="-174.5" font-family="Helvetica,sans-Serif" font-size="10.00">std::string</text>
</a>
</g>
</g>
<!-- Node3&#45;&gt;Node2 -->
<g id="edge2" class="edge"><title>Node3&#45;&gt;Node2</title>
<path fill="none" stroke="#9a32cd" stroke-dasharray="5,2" d="M93.4918,-158.522C84.5268,-143.611 71.802,-122.446 63.4757,-108.597"/>
<polygon fill="#9a32cd" stroke="#9a32cd" points="90.6038,-160.511 98.7561,-167.278 96.603,-156.904 90.6038,-160.511"/>
<text text-anchor="middle" x="107" y="-141" font-family="Helvetica,sans-Serif" font-size="10.00"> keys</text>
<text text-anchor="middle" x="107" y="-130" font-family="Helvetica,sans-Serif" font-size="10.00">elements</text>
</g>
<!-- Node5 -->
<g id="node5" class="node"><title>Node5</title>
<polygon fill="white" stroke="#bfbfbf" points="128.5,-84 128.5,-103 251.5,-103 251.5,-84 128.5,-84"/>
<text text-anchor="middle" x="190" y="-91" font-family="Helvetica,sans-Serif" font-size="10.00">std::vector&lt; std::string &gt;</text>
</g>
<!-- Node3&#45;&gt;Node5 -->
<g id="edge5" class="edge"><title>Node3&#45;&gt;Node5</title>
<path fill="none" stroke="#9a32cd" stroke-dasharray="5,2" d="M120.669,-160.203C138.628,-143.184 166.55,-116.723 180.863,-103.159"/>
<polygon fill="#9a32cd" stroke="#9a32cd" points="118.054,-157.859 113.204,-167.278 122.869,-162.94 118.054,-157.859"/>
<text text-anchor="middle" x="176.5" y="-135.5" font-family="Helvetica,sans-Serif" font-size="10.00"> elements</text>
</g>
<!-- Node4 -->
<g id="node4" class="node"><title>Node4</title>
<g id="a_node4"><a xlink:title="STL class. ">
<polygon fill="white" stroke="#bfbfbf" points="56.5,-224.5 56.5,-254.5 151.5,-254.5 151.5,-224.5 56.5,-224.5"/>
<text text-anchor="start" x="64.5" y="-242.5" font-family="Helvetica,sans-Serif" font-size="10.00">std::basic_string&lt;</text>
<text text-anchor="middle" x="104" y="-231.5" font-family="Helvetica,sans-Serif" font-size="10.00"> char &gt;</text>
</a>
</g>
</g>
<!-- Node4&#45;&gt;Node3 -->
<g id="edge3" class="edge"><title>Node4&#45;&gt;Node3</title>
<path fill="none" stroke="midnightblue" d="M104,-214.352C104,-204.513 104,-193.775 104,-186.54"/>
<polygon fill="midnightblue" stroke="midnightblue" points="100.5,-214.468 104,-224.468 107.5,-214.468 100.5,-214.468"/>
</g>
<!-- Node5&#45;&gt;Node1 -->
<g id="edge4" class="edge"><title>Node5&#45;&gt;Node1</title>
<path fill="none" stroke="#9a32cd" stroke-dasharray="5,2" d="M180.422,-75.1405C175.449,-66.8295 168.962,-56.976 162,-49 156.292,-42.4598 149.245,-36.07 142.776,-30.7111"/>
<polygon fill="#9a32cd" stroke="#9a32cd" points="177.486,-77.0565 185.503,-83.9834 183.556,-73.5691 177.486,-77.0565"/>
<text text-anchor="middle" x="194.5" y="-52" font-family="Helvetica,sans-Serif" font-size="10.00"> m_params</text>
</g>
</g>
</svg>
