<?xml version="1.0" encoding="UTF-8" standalone="no"?>
<!DOCTYPE svg PUBLIC "-//W3C//DTD SVG 1.1//EN"
 "http://www.w3.org/Graphics/SVG/1.1/DTD/svg11.dtd">
<!-- Generated by graphviz version 2.38.0 (20140413.2041)
 -->
<!-- Title: el::Logger::id Pages: 1 -->
<svg width="432pt" height="186pt"
 viewBox="0.00 0.00 432.00 186.00" xmlns="http://www.w3.org/2000/svg" xmlns:xlink="http://www.w3.org/1999/xlink">
<g id="graph0" class="graph" transform="scale(1 1) rotate(0) translate(4 182)">
<title>el::Logger::id</title>
<polygon fill="white" stroke="none" points="-4,4 -4,-182 428,-182 428,4 -4,4"/>
<!-- Node89 -->
<g id="node1" class="node"><title>Node89</title>
<polygon fill="#bfbfbf" stroke="black" points="0,-80 0,-99 73,-99 73,-80 0,-80"/>
<text text-anchor="middle" x="36.5" y="-87" font-family="Helvetica,sans-Serif" font-size="10.00">el::Logger::id</text>
</g>
<!-- Node90 -->
<g id="node2" class="node"><title>Node90</title>
<g id="a_node2"><a xlink:href="classel_1_1_loggers.html#adedfcc17831fe3d3f14026c91e8df88c" target="_top" xlink:title="Sets configurations from global configuration file. ">
<polygon fill="white" stroke="black" points="113.5,-140.5 113.5,-170.5 245.5,-170.5 245.5,-140.5 113.5,-140.5"/>
<text text-anchor="start" x="121.5" y="-158.5" font-family="Helvetica,sans-Serif" font-size="10.00">el::Loggers::configureFrom</text>
<text text-anchor="middle" x="179.5" y="-147.5" font-family="Helvetica,sans-Serif" font-size="10.00">Global</text>
</a>
</g>
</g>
<!-- Node89&#45;&gt;Node90 -->
<g id="edge1" class="edge"><title>Node89&#45;&gt;Node90</title>
<path fill="none" stroke="midnightblue" d="M61.1839,-104.481C74.8483,-112.765 92.5367,-122.89 109,-130.5 116.682,-134.051 125.023,-137.433 133.171,-140.496"/>
<polygon fill="midnightblue" stroke="midnightblue" points="62.7819,-101.355 52.4312,-99.0934 59.1125,-107.316 62.7819,-101.355"/>
</g>
<!-- Node91 -->
<g id="node3" class="node"><title>Node91</title>
<g id="a_node3"><a xlink:href="classel_1_1base_1_1_writer.html#ab1678300b6c7144041e09be423821682" target="_top" xlink:title="el::base::Writer::construct">
<polygon fill="white" stroke="black" points="114.5,-102 114.5,-121 244.5,-121 244.5,-102 114.5,-102"/>
<text text-anchor="middle" x="179.5" y="-109" font-family="Helvetica,sans-Serif" font-size="10.00">el::base::Writer::construct</text>
</a>
</g>
</g>
<!-- Node89&#45;&gt;Node91 -->
<g id="edge2" class="edge"><title>Node89&#45;&gt;Node91</title>
<path fill="none" stroke="midnightblue" d="M83.2197,-96.6336C94.1275,-98.3355 105.942,-100.179 117.418,-101.969"/>
<polygon fill="midnightblue" stroke="midnightblue" points="83.5003,-93.1351 73.0803,-95.0515 82.4211,-100.051 83.5003,-93.1351"/>
</g>
<!-- Node95 -->
<g id="node7" class="node"><title>Node95</title>
<g id="a_node7"><a xlink:href="classel_1_1base_1_1_default_log_dispatch_callback.html#adc7c200395c99534d55cb23cfabafcb1" target="_top" xlink:title="el::base::DefaultLogDispatch\lCallback::dispatch">
<polygon fill="white" stroke="black" points="109,-52.5 109,-82.5 250,-82.5 250,-52.5 109,-52.5"/>
<text text-anchor="start" x="117" y="-70.5" font-family="Helvetica,sans-Serif" font-size="10.00">el::base::DefaultLogDispatch</text>
<text text-anchor="middle" x="179.5" y="-59.5" font-family="Helvetica,sans-Serif" font-size="10.00">Callback::dispatch</text>
</a>
</g>
</g>
<!-- Node89&#45;&gt;Node95 -->
<g id="edge6" class="edge"><title>Node89&#45;&gt;Node95</title>
<path fill="none" stroke="midnightblue" d="M83.1727,-82.3738C91.3899,-81.0916 100.123,-79.729 108.839,-78.3691"/>
<polygon fill="midnightblue" stroke="midnightblue" points="82.4211,-78.9486 73.0803,-83.9485 83.5003,-85.8649 82.4211,-78.9486"/>
</g>
<!-- Node96 -->
<g id="node8" class="node"><title>Node96</title>
<g id="a_node8"><a xlink:href="classel_1_1base_1_1_registered_loggers.html#ad8fa8f829fdb6a03e6f5a38704811e7b" target="_top" xlink:title="el::base::RegisteredLoggers\l::unregister">
<polygon fill="white" stroke="black" points="110.5,-2.5 110.5,-32.5 248.5,-32.5 248.5,-2.5 110.5,-2.5"/>
<text text-anchor="start" x="118.5" y="-20.5" font-family="Helvetica,sans-Serif" font-size="10.00">el::base::RegisteredLoggers</text>
<text text-anchor="middle" x="179.5" y="-9.5" font-family="Helvetica,sans-Serif" font-size="10.00">::unregister</text>
</a>
</g>
</g>
<!-- Node89&#45;&gt;Node96 -->
<g id="edge7" class="edge"><title>Node89&#45;&gt;Node96</title>
<path fill="none" stroke="midnightblue" d="M58.4419,-73.8306C72.2897,-63.957 91.1232,-51.4331 109,-42.5 116.226,-38.8889 124.105,-35.5412 131.877,-32.5457"/>
<polygon fill="midnightblue" stroke="midnightblue" points="56.1573,-71.1641 50.122,-79.872 60.2703,-76.8283 56.1573,-71.1641"/>
</g>
<!-- Node92 -->
<g id="node4" class="node"><title>Node92</title>
<g id="a_node4"><a xlink:href="classel_1_1base_1_1_p_error_writer.html#a72c3ef41fd608b5f87ded491957e4c32" target="_top" xlink:title="el::base::PErrorWriter\l::PErrorWriter">
<polygon fill="white" stroke="black" points="299.5,-147.5 299.5,-177.5 410.5,-177.5 410.5,-147.5 299.5,-147.5"/>
<text text-anchor="start" x="307.5" y="-165.5" font-family="Helvetica,sans-Serif" font-size="10.00">el::base::PErrorWriter</text>
<text text-anchor="middle" x="355" y="-154.5" font-family="Helvetica,sans-Serif" font-size="10.00">::PErrorWriter</text>
</a>
</g>
</g>
<!-- Node91&#45;&gt;Node92 -->
<g id="edge3" class="edge"><title>Node91&#45;&gt;Node92</title>
<path fill="none" stroke="midnightblue" d="M223.718,-123.868C232.424,-126.379 241.508,-129.013 250,-131.5 267.538,-136.637 286.717,-142.332 303.776,-147.424"/>
<polygon fill="midnightblue" stroke="midnightblue" points="224.679,-120.503 214.101,-121.1 222.743,-127.229 224.679,-120.503"/>
</g>
<!-- Node93 -->
<g id="node5" class="node"><title>Node93</title>
<g id="a_node5"><a xlink:href="classel_1_1base_1_1_writer.html#ae687ebbee62b086f318ee4c8d1a655c4" target="_top" xlink:title="el::base::Writer::initialize\lLogger">
<polygon fill="white" stroke="black" points="292.5,-98.5 292.5,-128.5 417.5,-128.5 417.5,-98.5 292.5,-98.5"/>
<text text-anchor="start" x="300.5" y="-116.5" font-family="Helvetica,sans-Serif" font-size="10.00">el::base::Writer::initialize</text>
<text text-anchor="middle" x="355" y="-105.5" font-family="Helvetica,sans-Serif" font-size="10.00">Logger</text>
</a>
</g>
</g>
<!-- Node91&#45;&gt;Node93 -->
<g id="edge4" class="edge"><title>Node91&#45;&gt;Node93</title>
<path fill="none" stroke="midnightblue" d="M254.628,-112.354C267.24,-112.5 280.216,-112.649 292.458,-112.791"/>
<polygon fill="midnightblue" stroke="midnightblue" points="254.652,-108.855 244.612,-112.239 254.571,-115.854 254.652,-108.855"/>
</g>
<!-- Node94 -->
<g id="node6" class="node"><title>Node94</title>
<g id="a_node6"><a xlink:href="classel_1_1base_1_1_writer.html#a1c7d90bd4e00af4e7307f5936e1b6507" target="_top" xlink:title="el::base::Writer::trigger\lDispatch">
<polygon fill="white" stroke="black" points="297,-49.5 297,-79.5 413,-79.5 413,-49.5 297,-49.5"/>
<text text-anchor="start" x="305" y="-67.5" font-family="Helvetica,sans-Serif" font-size="10.00">el::base::Writer::trigger</text>
<text text-anchor="middle" x="355" y="-56.5" font-family="Helvetica,sans-Serif" font-size="10.00">Dispatch</text>
</a>
</g>
</g>
<!-- Node91&#45;&gt;Node94 -->
<g id="edge5" class="edge"><title>Node91&#45;&gt;Node94</title>
<path fill="none" stroke="midnightblue" d="M225.479,-99.3155C247.763,-93.2789 274.878,-85.9337 298.447,-79.5488"/>
<polygon fill="midnightblue" stroke="midnightblue" points="224.347,-95.9958 215.61,-101.989 226.178,-102.752 224.347,-95.9958"/>
</g>
<!-- Node97 -->
<g id="node9" class="node"><title>Node97</title>
<g id="a_node9"><a xlink:href="classel_1_1base_1_1_registered_loggers.html#a4d17dc9673f6aa6216571e182097400a" target="_top" xlink:title="el::base::RegisteredLoggers\l::remove">
<polygon fill="white" stroke="black" points="286,-0.5 286,-30.5 424,-30.5 424,-0.5 286,-0.5"/>
<text text-anchor="start" x="294" y="-18.5" font-family="Helvetica,sans-Serif" font-size="10.00">el::base::RegisteredLoggers</text>
<text text-anchor="middle" x="355" y="-7.5" font-family="Helvetica,sans-Serif" font-size="10.00">::remove</text>
</a>
</g>
</g>
<!-- Node96&#45;&gt;Node97 -->
<g id="edge8" class="edge"><title>Node96&#45;&gt;Node97</title>
<path fill="none" stroke="midnightblue" d="M258.716,-16.5984C267.764,-16.4941 276.938,-16.3883 285.838,-16.2857"/>
<polygon fill="midnightblue" stroke="midnightblue" points="258.533,-13.1002 248.574,-16.7153 258.614,-20.0997 258.533,-13.1002"/>
</g>
</g>
</svg>
