<?xml version="1.0" encoding="UTF-8" standalone="no"?>
<!DOCTYPE svg PUBLIC "-//W3C//DTD SVG 1.1//EN"
 "http://www.w3.org/Graphics/SVG/1.1/DTD/svg11.dtd">
<!-- Generated by graphviz version 2.38.0 (20140413.2041)
 -->
<!-- Title: vpr::Device::VerifyPresentationSupport Pages: 1 -->
<svg width="312pt" height="78pt"
 viewBox="0.00 0.00 312.00 77.50" xmlns="http://www.w3.org/2000/svg" xmlns:xlink="http://www.w3.org/1999/xlink">
<g id="graph0" class="graph" transform="scale(1 1) rotate(0) translate(4 73.5)">
<title>vpr::Device::VerifyPresentationSupport</title>
<polygon fill="white" stroke="none" points="-4,4 -4,-73.5 308,-73.5 308,4 -4,4"/>
<!-- Node223 -->
<g id="node1" class="node"><title>Node223</title>
<polygon fill="#bfbfbf" stroke="black" points="0,-17 0,-47 149,-47 149,-17 0,-17"/>
<text text-anchor="start" x="8" y="-35" font-family="Helvetica,sans-Serif" font-size="10.00">vpr::Device::VerifyPresentation</text>
<text text-anchor="middle" x="74.5" y="-24" font-family="Helvetica,sans-Serif" font-size="10.00">Support</text>
</g>
<!-- Node224 -->
<g id="node2" class="node"><title>Node224</title>
<g id="a_node2"><a xlink:href="classvpr_1_1_physical_device.html#a00de7d3556d98b1cfda28d1f769f8fa8" target="_top" xlink:title="vpr::PhysicalDevice\l::vkHandle">
<polygon fill="white" stroke="black" points="194,-39 194,-69 295,-69 295,-39 194,-39"/>
<text text-anchor="start" x="202" y="-57" font-family="Helvetica,sans-Serif" font-size="10.00">vpr::PhysicalDevice</text>
<text text-anchor="middle" x="244.5" y="-46" font-family="Helvetica,sans-Serif" font-size="10.00">::vkHandle</text>
</a>
</g>
</g>
<!-- Node223&#45;&gt;Node224 -->
<g id="edge1" class="edge"><title>Node223&#45;&gt;Node224</title>
<path fill="none" stroke="midnightblue" d="M149.187,-41.6495C160.662,-43.1522 172.398,-44.689 183.52,-46.1455"/>
<polygon fill="midnightblue" stroke="midnightblue" points="183.167,-49.6291 193.537,-47.4572 184.076,-42.6883 183.167,-49.6291"/>
</g>
<!-- Node225 -->
<g id="node3" class="node"><title>Node225</title>
<g id="a_node3"><a xlink:href="classvpr_1_1_instance.html#aa8afd0e70a5fd70ee82daba6c179be8d" target="_top" xlink:title="vpr::Instance::vkSurface">
<polygon fill="white" stroke="black" points="185,-0.5 185,-19.5 304,-19.5 304,-0.5 185,-0.5"/>
<text text-anchor="middle" x="244.5" y="-7.5" font-family="Helvetica,sans-Serif" font-size="10.00">vpr::Instance::vkSurface</text>
</a>
</g>
</g>
<!-- Node223&#45;&gt;Node225 -->
<g id="edge2" class="edge"><title>Node223&#45;&gt;Node225</title>
<path fill="none" stroke="midnightblue" d="M149.187,-22.3505C157.649,-21.2424 166.252,-20.1158 174.647,-19.0165"/>
<polygon fill="midnightblue" stroke="midnightblue" points="175.298,-22.4611 184.759,-17.6922 174.389,-15.5204 175.298,-22.4611"/>
</g>
</g>
</svg>
