<?xml version="1.0" encoding="UTF-8" standalone="no"?>
<!DOCTYPE svg PUBLIC "-//W3C//DTD SVG 1.1//EN"
 "http://www.w3.org/Graphics/SVG/1.1/DTD/svg11.dtd">
<!-- Generated by graphviz version 2.38.0 (20140413.2041)
 -->
<!-- Title: vpr::Device::setupExtensions Pages: 1 -->
<svg width="643pt" height="137pt"
 viewBox="0.00 0.00 643.00 137.00" xmlns="http://www.w3.org/2000/svg" xmlns:xlink="http://www.w3.org/1999/xlink">
<g id="graph0" class="graph" transform="scale(1 1) rotate(0) translate(4 133)">
<title>vpr::Device::setupExtensions</title>
<polygon fill="white" stroke="none" points="-4,4 -4,-133 639,-133 639,4 -4,4"/>
<!-- Node160 -->
<g id="node1" class="node"><title>Node160</title>
<polygon fill="#bfbfbf" stroke="black" points="0,-55 0,-74 142,-74 142,-55 0,-55"/>
<text text-anchor="middle" x="71" y="-62" font-family="Helvetica,sans-Serif" font-size="10.00">vpr::Device::setupExtensions</text>
</g>
<!-- Node161 -->
<g id="node2" class="node"><title>Node161</title>
<g id="a_node2"><a xlink:href="classvpr_1_1_device.html#a124ad96e79edf3bd0faee5b0394c3662" target="_top" xlink:title="vpr::Device::checkDedicated\lAllocExtensions">
<polygon fill="white" stroke="black" points="178.5,-98.5 178.5,-128.5 317.5,-128.5 317.5,-98.5 178.5,-98.5"/>
<text text-anchor="start" x="186.5" y="-116.5" font-family="Helvetica,sans-Serif" font-size="10.00">vpr::Device::checkDedicated</text>
<text text-anchor="middle" x="248" y="-105.5" font-family="Helvetica,sans-Serif" font-size="10.00">AllocExtensions</text>
</a>
</g>
</g>
<!-- Node160&#45;&gt;Node161 -->
<g id="edge1" class="edge"><title>Node160&#45;&gt;Node161</title>
<path fill="none" stroke="midnightblue" d="M106.157,-74.064C128.119,-80.2134 157.331,-88.3928 183.457,-95.7078"/>
<polygon fill="midnightblue" stroke="midnightblue" points="182.723,-99.137 193.297,-98.463 184.611,-92.3963 182.723,-99.137"/>
</g>
<!-- Node162 -->
<g id="node3" class="node"><title>Node162</title>
<g id="a_node3"><a xlink:href="classvpr_1_1_device.html#a2524d9604f056d1e7d4c4a124ecad638" target="_top" xlink:title="vpr::Device::prepareOptional\lExtensions">
<polygon fill="white" stroke="black" points="179.5,-49.5 179.5,-79.5 316.5,-79.5 316.5,-49.5 179.5,-49.5"/>
<text text-anchor="start" x="187.5" y="-67.5" font-family="Helvetica,sans-Serif" font-size="10.00">vpr::Device::prepareOptional</text>
<text text-anchor="middle" x="248" y="-56.5" font-family="Helvetica,sans-Serif" font-size="10.00">Extensions</text>
</a>
</g>
</g>
<!-- Node160&#45;&gt;Node162 -->
<g id="edge2" class="edge"><title>Node160&#45;&gt;Node162</title>
<path fill="none" stroke="midnightblue" d="M142.171,-64.5C151.083,-64.5 160.246,-64.5 169.268,-64.5"/>
<polygon fill="midnightblue" stroke="midnightblue" points="169.374,-68.0001 179.374,-64.5 169.374,-61.0001 169.374,-68.0001"/>
</g>
<!-- Node165 -->
<g id="node6" class="node"><title>Node165</title>
<g id="a_node6"><a xlink:href="classvpr_1_1_device.html#a3cedda7b364230945a994267d220ab0f" target="_top" xlink:title="vpr::Device::prepareRequired\lExtensions">
<polygon fill="white" stroke="black" points="178,-0.5 178,-30.5 318,-30.5 318,-0.5 178,-0.5"/>
<text text-anchor="start" x="186" y="-18.5" font-family="Helvetica,sans-Serif" font-size="10.00">vpr::Device::prepareRequired</text>
<text text-anchor="middle" x="248" y="-7.5" font-family="Helvetica,sans-Serif" font-size="10.00">Extensions</text>
</a>
</g>
</g>
<!-- Node160&#45;&gt;Node165 -->
<g id="edge5" class="edge"><title>Node160&#45;&gt;Node165</title>
<path fill="none" stroke="midnightblue" d="M106.157,-54.936C128.119,-48.7866 157.331,-40.6072 183.457,-33.2922"/>
<polygon fill="midnightblue" stroke="midnightblue" points="184.611,-36.6037 193.297,-30.537 182.723,-29.863 184.611,-36.6037"/>
</g>
<!-- Node163 -->
<g id="node4" class="node"><title>Node163</title>
<g id="a_node4"><a xlink:href="classvpr_1_1_device.html#a045d673a04b878f8b11b092001cfd4ae" target="_top" xlink:title="vpr::Device::checkExtensions">
<polygon fill="white" stroke="black" points="354,-30 354,-49 498,-49 498,-30 354,-30"/>
<text text-anchor="middle" x="426" y="-37" font-family="Helvetica,sans-Serif" font-size="10.00">vpr::Device::checkExtensions</text>
</a>
</g>
</g>
<!-- Node162&#45;&gt;Node163 -->
<g id="edge3" class="edge"><title>Node162&#45;&gt;Node163</title>
<path fill="none" stroke="midnightblue" d="M316.543,-54.9058C326.828,-53.445 337.507,-51.928 347.976,-50.441"/>
<polygon fill="midnightblue" stroke="midnightblue" points="348.52,-53.8988 357.928,-49.0272 347.536,-46.9684 348.52,-53.8988"/>
</g>
<!-- Node164 -->
<g id="node5" class="node"><title>Node164</title>
<g id="a_node5"><a xlink:href="classvpr_1_1_physical_device.html#a00de7d3556d98b1cfda28d1f769f8fa8" target="_top" xlink:title="vpr::PhysicalDevice\l::vkHandle">
<polygon fill="white" stroke="black" points="534,-24.5 534,-54.5 635,-54.5 635,-24.5 534,-24.5"/>
<text text-anchor="start" x="542" y="-42.5" font-family="Helvetica,sans-Serif" font-size="10.00">vpr::PhysicalDevice</text>
<text text-anchor="middle" x="584.5" y="-31.5" font-family="Helvetica,sans-Serif" font-size="10.00">::vkHandle</text>
</a>
</g>
</g>
<!-- Node163&#45;&gt;Node164 -->
<g id="edge4" class="edge"><title>Node163&#45;&gt;Node164</title>
<path fill="none" stroke="midnightblue" d="M498.38,-39.5C506.77,-39.5 515.265,-39.5 523.476,-39.5"/>
<polygon fill="midnightblue" stroke="midnightblue" points="523.697,-43.0001 533.697,-39.5 523.697,-36.0001 523.697,-43.0001"/>
</g>
<!-- Node165&#45;&gt;Node163 -->
<g id="edge6" class="edge"><title>Node165&#45;&gt;Node163</title>
<path fill="none" stroke="midnightblue" d="M318.055,-24.9166C326.941,-26.1283 336.098,-27.377 345.139,-28.6099"/>
<polygon fill="midnightblue" stroke="midnightblue" points="344.896,-32.109 355.277,-29.9923 345.842,-25.1732 344.896,-32.109"/>
</g>
</g>
</svg>
