<?xml version="1.0" encoding="UTF-8" standalone="no"?>
<!DOCTYPE svg PUBLIC "-//W3C//DTD SVG 1.1//EN"
 "http://www.w3.org/Graphics/SVG/1.1/DTD/svg11.dtd">
<!-- Generated by graphviz version 2.38.0 (20140413.2041)
 -->
<!-- Title: el::Configuration::Predicate::operator() Pages: 1 -->
<svg width="241pt" height="88pt"
 viewBox="0.00 0.00 241.00 88.00" xmlns="http://www.w3.org/2000/svg" xmlns:xlink="http://www.w3.org/1999/xlink">
<g id="graph0" class="graph" transform="scale(1 1) rotate(0) translate(4 84)">
<title>el::Configuration::Predicate::operator()</title>
<polygon fill="white" stroke="none" points="-4,4 -4,-84 237,-84 237,4 -4,4"/>
<!-- Node2 -->
<g id="node1" class="node"><title>Node2</title>
<polygon fill="#bfbfbf" stroke="black" points="0,-24.5 0,-54.5 105,-54.5 105,-24.5 0,-24.5"/>
<text text-anchor="start" x="8" y="-42.5" font-family="Helvetica,sans-Serif" font-size="10.00">el::Configuration::</text>
<text text-anchor="middle" x="52.5" y="-31.5" font-family="Helvetica,sans-Serif" font-size="10.00">Predicate::operator()</text>
</g>
<!-- Node3 -->
<g id="node2" class="node"><title>Node3</title>
<g id="a_node2"><a xlink:href="classel_1_1_configuration.html#abd69269de9fa62e0052aeaca35814dc0" target="_top" xlink:title="Gets configuration type of current configuration. ">
<polygon fill="white" stroke="black" points="141,-49.5 141,-79.5 233,-79.5 233,-49.5 141,-49.5"/>
<text text-anchor="start" x="149" y="-67.5" font-family="Helvetica,sans-Serif" font-size="10.00">el::Configuration::</text>
<text text-anchor="middle" x="187" y="-56.5" font-family="Helvetica,sans-Serif" font-size="10.00">configurationType</text>
</a>
</g>
</g>
<!-- Node2&#45;&gt;Node3 -->
<g id="edge1" class="edge"><title>Node2&#45;&gt;Node3</title>
<path fill="none" stroke="midnightblue" d="M105.107,-49.2372C113.568,-50.8336 122.364,-52.4933 130.906,-54.1049"/>
<polygon fill="midnightblue" stroke="midnightblue" points="130.305,-57.5531 140.78,-55.968 131.603,-50.6745 130.305,-57.5531"/>
</g>
<!-- Node4 -->
<g id="node3" class="node"><title>Node4</title>
<g id="a_node3"><a xlink:href="classel_1_1_configuration.html#a4f7015eb299c0250dadc9eb15be76c31" target="_top" xlink:title="Gets level of current configuration. ">
<polygon fill="white" stroke="black" points="141,-0.5 141,-30.5 233,-30.5 233,-0.5 141,-0.5"/>
<text text-anchor="start" x="149" y="-18.5" font-family="Helvetica,sans-Serif" font-size="10.00">el::Configuration::</text>
<text text-anchor="middle" x="187" y="-7.5" font-family="Helvetica,sans-Serif" font-size="10.00">level</text>
</a>
</g>
</g>
<!-- Node2&#45;&gt;Node4 -->
<g id="edge2" class="edge"><title>Node2&#45;&gt;Node4</title>
<path fill="none" stroke="midnightblue" d="M105.107,-30.1523C113.568,-28.6197 122.364,-27.0265 130.906,-25.4793"/>
<polygon fill="midnightblue" stroke="midnightblue" points="131.564,-28.9171 140.78,-23.6907 130.317,-22.0292 131.564,-28.9171"/>
</g>
</g>
</svg>
