<?xml version="1.0" encoding="UTF-8" standalone="no"?>
<!DOCTYPE svg PUBLIC "-//W3C//DTD SVG 1.1//EN"
 "http://www.w3.org/Graphics/SVG/1.1/DTD/svg11.dtd">
<!-- Generated by graphviz version 2.38.0 (20140413.2041)
 -->
<!-- Title: vpr::Swapchain::setupImageViews Pages: 1 -->
<svg width="642pt" height="72pt"
 viewBox="0.00 0.00 642.00 71.50" xmlns="http://www.w3.org/2000/svg" xmlns:xlink="http://www.w3.org/1999/xlink">
<g id="graph0" class="graph" transform="scale(1 1) rotate(0) translate(4 67.5)">
<title>vpr::Swapchain::setupImageViews</title>
<polygon fill="white" stroke="none" points="-4,4 -4,-67.5 638,-67.5 638,4 -4,4"/>
<!-- Node88 -->
<g id="node1" class="node"><title>Node88</title>
<polygon fill="#bfbfbf" stroke="black" points="0,-14 0,-44 138,-44 138,-14 0,-14"/>
<text text-anchor="start" x="8" y="-32" font-family="Helvetica,sans-Serif" font-size="10.00">vpr::Swapchain::setupImage</text>
<text text-anchor="middle" x="69" y="-21" font-family="Helvetica,sans-Serif" font-size="10.00">Views</text>
</g>
<!-- Node89 -->
<g id="node2" class="node"><title>Node89</title>
<g id="a_node2"><a xlink:href="classvpr_1_1_swapchain.html#ad75f5394aaa57d86286a71e5d54ab3c6" target="_top" xlink:title="vpr::Swapchain::create">
<polygon fill="white" stroke="black" points="174,-19.5 174,-38.5 289,-38.5 289,-19.5 174,-19.5"/>
<text text-anchor="middle" x="231.5" y="-26.5" font-family="Helvetica,sans-Serif" font-size="10.00">vpr::Swapchain::create</text>
</a>
</g>
</g>
<!-- Node88&#45;&gt;Node89 -->
<g id="edge1" class="edge"><title>Node88&#45;&gt;Node89</title>
<path fill="none" stroke="midnightblue" d="M148.222,-29C156.907,-29 165.623,-29 173.963,-29"/>
<polygon fill="midnightblue" stroke="midnightblue" points="148.066,-25.5001 138.066,-29 148.066,-32.5001 148.066,-25.5001"/>
</g>
<!-- Node90 -->
<g id="node3" class="node"><title>Node90</title>
<g id="a_node3"><a xlink:href="classvpr_1_1_swapchain.html#acf014a8530f47418adba1c9e62c0c78e" target="_top" xlink:title="vpr::Swapchain::Recreate">
<polygon fill="white" stroke="black" points="329,-38.5 329,-57.5 456,-57.5 456,-38.5 329,-38.5"/>
<text text-anchor="middle" x="392.5" y="-45.5" font-family="Helvetica,sans-Serif" font-size="10.00">vpr::Swapchain::Recreate</text>
</a>
</g>
</g>
<!-- Node89&#45;&gt;Node90 -->
<g id="edge2" class="edge"><title>Node89&#45;&gt;Node90</title>
<path fill="none" stroke="midnightblue" d="M299.167,-36.9664C309.037,-38.1459 319.178,-39.3578 328.96,-40.5267"/>
<polygon fill="midnightblue" stroke="midnightblue" points="299.35,-33.4635 289.005,-35.7522 298.519,-40.4141 299.35,-33.4635"/>
</g>
<!-- Node92 -->
<g id="node5" class="node"><title>Node92</title>
<g id="a_node5"><a xlink:href="classvpr_1_1_swapchain.html#a49bc91a7423fe49320b0375e78653439" target="_top" xlink:title="vpr::Swapchain::Swapchain">
<polygon fill="white" stroke="black" points="325,-0.5 325,-19.5 460,-19.5 460,-0.5 325,-0.5"/>
<text text-anchor="middle" x="392.5" y="-7.5" font-family="Helvetica,sans-Serif" font-size="10.00">vpr::Swapchain::Swapchain</text>
</a>
</g>
</g>
<!-- Node89&#45;&gt;Node92 -->
<g id="edge4" class="edge"><title>Node89&#45;&gt;Node92</title>
<path fill="none" stroke="midnightblue" d="M298.941,-21.0605C307.507,-20.0369 316.281,-18.9884 324.851,-17.9644"/>
<polygon fill="midnightblue" stroke="midnightblue" points="298.519,-17.5859 289.005,-22.2478 299.35,-24.5365 298.519,-17.5859"/>
</g>
<!-- Node91 -->
<g id="node4" class="node"><title>Node91</title>
<g id="a_node4"><a xlink:href="namespacevpr.html#a94afd8081f855771118d14af569f9bba" target="_top" xlink:title="Pass a swapchain and instance pointer to this to have the swapchain and surface destroyed and recreat...">
<polygon fill="white" stroke="black" points="496,-33 496,-63 634,-63 634,-33 496,-33"/>
<text text-anchor="start" x="504" y="-51" font-family="Helvetica,sans-Serif" font-size="10.00">vpr::RecreateSwapchainAnd</text>
<text text-anchor="middle" x="565" y="-40" font-family="Helvetica,sans-Serif" font-size="10.00">Surface</text>
</a>
</g>
</g>
<!-- Node90&#45;&gt;Node91 -->
<g id="edge3" class="edge"><title>Node90&#45;&gt;Node91</title>
<path fill="none" stroke="midnightblue" d="M466.144,-48C475.961,-48 486.005,-48 495.741,-48"/>
<polygon fill="midnightblue" stroke="midnightblue" points="466.02,-44.5001 456.02,-48 466.02,-51.5001 466.02,-44.5001"/>
</g>
</g>
</svg>
