<?xml version="1.0" encoding="UTF-8" standalone="no"?>
<!DOCTYPE svg PUBLIC "-//W3C//DTD SVG 1.1//EN"
 "http://www.w3.org/Graphics/SVG/1.1/DTD/svg11.dtd">
<!-- Generated by graphviz version 2.38.0 (20140413.2041)
 -->
<!-- Title: vpr::MemoryBlock::Unmap Pages: 1 -->
<svg width="456pt" height="28pt"
 viewBox="0.00 0.00 456.00 28.00" xmlns="http://www.w3.org/2000/svg" xmlns:xlink="http://www.w3.org/1999/xlink">
<g id="graph0" class="graph" transform="scale(1 1) rotate(0) translate(4 24)">
<title>vpr::MemoryBlock::Unmap</title>
<polygon fill="white" stroke="none" points="-4,4 -4,-24 452,-24 452,4 -4,4"/>
<!-- Node94 -->
<g id="node1" class="node"><title>Node94</title>
<polygon fill="#bfbfbf" stroke="black" points="0,-0.5 0,-19.5 131,-19.5 131,-0.5 0,-0.5"/>
<text text-anchor="middle" x="65.5" y="-7.5" font-family="Helvetica,sans-Serif" font-size="10.00">vpr::MemoryBlock::Unmap</text>
</g>
<!-- Node95 -->
<g id="node2" class="node"><title>Node95</title>
<g id="a_node2"><a xlink:href="classvpr_1_1_allocator.html#a1be30aa02991f0323def73b9be9a3c44" target="_top" xlink:title="vpr::Allocator::DeviceHandle">
<polygon fill="white" stroke="black" points="167,-0.5 167,-19.5 304,-19.5 304,-0.5 167,-0.5"/>
<text text-anchor="middle" x="235.5" y="-7.5" font-family="Helvetica,sans-Serif" font-size="10.00">vpr::Allocator::DeviceHandle</text>
</a>
</g>
</g>
<!-- Node94&#45;&gt;Node95 -->
<g id="edge1" class="edge"><title>Node94&#45;&gt;Node95</title>
<path fill="none" stroke="midnightblue" d="M131.453,-10C139.724,-10 148.256,-10 156.703,-10"/>
<polygon fill="midnightblue" stroke="midnightblue" points="156.941,-13.5001 166.941,-10 156.941,-6.5001 156.941,-13.5001"/>
</g>
<!-- Node96 -->
<g id="node3" class="node"><title>Node96</title>
<g id="a_node3"><a xlink:href="classvpr_1_1_device.html#a59882855173bef0b13a17b376ea01d45" target="_top" xlink:title="vpr::Device::vkHandle">
<polygon fill="white" stroke="black" points="340,-0.5 340,-19.5 448,-19.5 448,-0.5 340,-0.5"/>
<text text-anchor="middle" x="394" y="-7.5" font-family="Helvetica,sans-Serif" font-size="10.00">vpr::Device::vkHandle</text>
</a>
</g>
</g>
<!-- Node95&#45;&gt;Node96 -->
<g id="edge2" class="edge"><title>Node95&#45;&gt;Node96</title>
<path fill="none" stroke="midnightblue" d="M304.233,-10C312.69,-10 321.314,-10 329.7,-10"/>
<polygon fill="midnightblue" stroke="midnightblue" points="329.784,-13.5001 339.784,-10 329.784,-6.5001 329.784,-13.5001"/>
</g>
</g>
</svg>
