<?xml version="1.0" encoding="UTF-8" standalone="no"?>
<!DOCTYPE svg PUBLIC "-//W3C//DTD SVG 1.1//EN"
 "http://www.w3.org/Graphics/SVG/1.1/DTD/svg11.dtd">
<!-- Generated by graphviz version 2.38.0 (20140413.2041)
 -->
<!-- Title: vpr::PhysicalDevice::GetQueueFamilyProperties Pages: 1 -->
<svg width="611pt" height="186pt"
 viewBox="0.00 0.00 611.00 186.00" xmlns="http://www.w3.org/2000/svg" xmlns:xlink="http://www.w3.org/1999/xlink">
<g id="graph0" class="graph" transform="scale(1 1) rotate(0) translate(4 182)">
<title>vpr::PhysicalDevice::GetQueueFamilyProperties</title>
<polygon fill="white" stroke="none" points="-4,4 -4,-182 607,-182 607,4 -4,4"/>
<!-- Node37 -->
<g id="node1" class="node"><title>Node37</title>
<polygon fill="#bfbfbf" stroke="black" points="0,-73.5 0,-103.5 140,-103.5 140,-73.5 0,-73.5"/>
<text text-anchor="start" x="8" y="-91.5" font-family="Helvetica,sans-Serif" font-size="10.00">vpr::PhysicalDevice</text>
<text text-anchor="middle" x="70" y="-80.5" font-family="Helvetica,sans-Serif" font-size="10.00">::GetQueueFamilyProperties</text>
</g>
<!-- Node38 -->
<g id="node2" class="node"><title>Node38</title>
<g id="a_node2"><a xlink:href="classvpr_1_1_device.html#abdb29331fbcc15a242b3f0e82b02beef" target="_top" xlink:title="vpr::Device::setupCompute\lQueues">
<polygon fill="white" stroke="black" points="176,-147.5 176,-177.5 308,-177.5 308,-147.5 176,-147.5"/>
<text text-anchor="start" x="184" y="-165.5" font-family="Helvetica,sans-Serif" font-size="10.00">vpr::Device::setupCompute</text>
<text text-anchor="middle" x="242" y="-154.5" font-family="Helvetica,sans-Serif" font-size="10.00">Queues</text>
</a>
</g>
</g>
<!-- Node37&#45;&gt;Node38 -->
<g id="edge1" class="edge"><title>Node37&#45;&gt;Node38</title>
<path fill="none" stroke="midnightblue" d="M110.208,-108.21C129.782,-117.782 153.937,-129.196 176,-138.5 183.205,-141.538 190.941,-144.581 198.475,-147.43"/>
<polygon fill="midnightblue" stroke="midnightblue" points="111.514,-104.952 100.996,-103.676 108.423,-111.232 111.514,-104.952"/>
</g>
<!-- Node42 -->
<g id="node5" class="node"><title>Node42</title>
<g id="a_node5"><a xlink:href="classvpr_1_1_device.html#adbe15d529a11af4d7034a2135255e773" target="_top" xlink:title="vpr::Device::setupGraphics\lQueues">
<polygon fill="white" stroke="black" points="176,-98.5 176,-128.5 308,-128.5 308,-98.5 176,-98.5"/>
<text text-anchor="start" x="184" y="-116.5" font-family="Helvetica,sans-Serif" font-size="10.00">vpr::Device::setupGraphics</text>
<text text-anchor="middle" x="242" y="-105.5" font-family="Helvetica,sans-Serif" font-size="10.00">Queues</text>
</a>
</g>
</g>
<!-- Node37&#45;&gt;Node42 -->
<g id="edge4" class="edge"><title>Node37&#45;&gt;Node42</title>
<path fill="none" stroke="midnightblue" d="M150.152,-100.14C158.725,-101.401 167.378,-102.673 175.76,-103.906"/>
<polygon fill="midnightblue" stroke="midnightblue" points="150.548,-96.6607 140.146,-98.6685 149.53,-103.586 150.548,-96.6607"/>
</g>
<!-- Node43 -->
<g id="node6" class="node"><title>Node43</title>
<g id="a_node6"><a xlink:href="classvpr_1_1_device.html#a22ee8e6517d4898282d9d6385545100a" target="_top" xlink:title="vpr::Device::setupSparse\lBindingQueues">
<polygon fill="white" stroke="black" points="180,-49.5 180,-79.5 304,-79.5 304,-49.5 180,-49.5"/>
<text text-anchor="start" x="188" y="-67.5" font-family="Helvetica,sans-Serif" font-size="10.00">vpr::Device::setupSparse</text>
<text text-anchor="middle" x="242" y="-56.5" font-family="Helvetica,sans-Serif" font-size="10.00">BindingQueues</text>
</a>
</g>
</g>
<!-- Node37&#45;&gt;Node43 -->
<g id="edge6" class="edge"><title>Node37&#45;&gt;Node43</title>
<path fill="none" stroke="midnightblue" d="M150.082,-77.3355C160.076,-75.9246 170.179,-74.4982 179.836,-73.1349"/>
<polygon fill="midnightblue" stroke="midnightblue" points="149.558,-73.8747 140.146,-78.7383 150.537,-80.8059 149.558,-73.8747"/>
</g>
<!-- Node44 -->
<g id="node7" class="node"><title>Node44</title>
<g id="a_node7"><a xlink:href="classvpr_1_1_device.html#aa64b2412561fa0950722c2dc4997da9f" target="_top" xlink:title="vpr::Device::setupTransfer\lQueues">
<polygon fill="white" stroke="black" points="178,-0.5 178,-30.5 306,-30.5 306,-0.5 178,-0.5"/>
<text text-anchor="start" x="186" y="-18.5" font-family="Helvetica,sans-Serif" font-size="10.00">vpr::Device::setupTransfer</text>
<text text-anchor="middle" x="242" y="-7.5" font-family="Helvetica,sans-Serif" font-size="10.00">Queues</text>
</a>
</g>
</g>
<!-- Node37&#45;&gt;Node44 -->
<g id="edge8" class="edge"><title>Node37&#45;&gt;Node44</title>
<path fill="none" stroke="midnightblue" d="M111.623,-69.2232C130.992,-60.214 154.564,-49.5121 176,-40.5 183.913,-37.1731 192.437,-33.7686 200.624,-30.5855"/>
<polygon fill="midnightblue" stroke="midnightblue" points="110.058,-66.0911 102.48,-73.4951 113.021,-72.433 110.058,-66.0911"/>
</g>
<!-- Node39 -->
<g id="node3" class="node"><title>Node39</title>
<g id="a_node3"><a xlink:href="classvpr_1_1_device.html#af52c3b24f6bca1308a5170eb3acfeb11" target="_top" xlink:title="vpr::Device::setupQueues">
<polygon fill="white" stroke="black" points="344,-79 344,-98 471,-98 471,-79 344,-79"/>
<text text-anchor="middle" x="407.5" y="-86" font-family="Helvetica,sans-Serif" font-size="10.00">vpr::Device::setupQueues</text>
</a>
</g>
</g>
<!-- Node38&#45;&gt;Node39 -->
<g id="edge2" class="edge"><title>Node38&#45;&gt;Node39</title>
<path fill="none" stroke="midnightblue" d="M295.364,-143.77C299.663,-142.049 303.921,-140.281 308,-138.5 336.999,-125.837 369.535,-108.726 389.003,-98.1619"/>
<polygon fill="midnightblue" stroke="midnightblue" points="293.98,-140.552 285.938,-147.449 296.526,-147.073 293.98,-140.552"/>
</g>
<!-- Node40 -->
<g id="node4" class="node"><title>Node40</title>
<g id="a_node4"><a xlink:href="classvpr_1_1_device.html#a3b0734cd598d9a64f3c459e9dc4e84ce" target="_top" xlink:title="vpr::Device::create">
<polygon fill="white" stroke="red" points="507,-79 507,-98 603,-98 603,-79 507,-79"/>
<text text-anchor="middle" x="555" y="-86" font-family="Helvetica,sans-Serif" font-size="10.00">vpr::Device::create</text>
</a>
</g>
</g>
<!-- Node39&#45;&gt;Node40 -->
<g id="edge3" class="edge"><title>Node39&#45;&gt;Node40</title>
<path fill="none" stroke="midnightblue" d="M481.248,-88.5C489.96,-88.5 498.673,-88.5 506.886,-88.5"/>
<polygon fill="midnightblue" stroke="midnightblue" points="481.05,-85.0001 471.05,-88.5 481.049,-92.0001 481.05,-85.0001"/>
</g>
<!-- Node42&#45;&gt;Node39 -->
<g id="edge5" class="edge"><title>Node42&#45;&gt;Node39</title>
<path fill="none" stroke="midnightblue" d="M318.251,-101.994C326.967,-100.661 335.782,-99.3132 344.296,-98.0113"/>
<polygon fill="midnightblue" stroke="midnightblue" points="317.445,-98.5761 308.089,-103.548 318.503,-105.496 317.445,-98.5761"/>
</g>
<!-- Node43&#45;&gt;Node39 -->
<g id="edge7" class="edge"><title>Node43&#45;&gt;Node39</title>
<path fill="none" stroke="midnightblue" d="M314.49,-74.9939C324.316,-76.4364 334.344,-77.9083 343.992,-79.3246"/>
<polygon fill="midnightblue" stroke="midnightblue" points="314.749,-71.4945 304.347,-73.505 313.732,-78.4203 314.749,-71.4945"/>
</g>
<!-- Node44&#45;&gt;Node39 -->
<g id="edge9" class="edge"><title>Node44&#45;&gt;Node39</title>
<path fill="none" stroke="midnightblue" d="M293.334,-34.3626C298.313,-36.377 303.271,-38.4428 308,-40.5 336.434,-52.8687 368.592,-68.9464 388.204,-78.9954"/>
<polygon fill="midnightblue" stroke="midnightblue" points="294.373,-31.0094 283.787,-30.5681 291.787,-37.5144 294.373,-31.0094"/>
</g>
</g>
</svg>
