<?xml version="1.0" encoding="UTF-8" standalone="no"?>
<!DOCTYPE svg PUBLIC "-//W3C//DTD SVG 1.1//EN"
 "http://www.w3.org/Graphics/SVG/1.1/DTD/svg11.dtd">
<!-- Generated by graphviz version 2.38.0 (20140413.2041)
 -->
<!-- Title: vpr::Instance::checkValidationSupport Pages: 1 -->
<svg width="492pt" height="39pt"
 viewBox="0.00 0.00 492.00 39.00" xmlns="http://www.w3.org/2000/svg" xmlns:xlink="http://www.w3.org/1999/xlink">
<g id="graph0" class="graph" transform="scale(1 1) rotate(0) translate(4 35)">
<title>vpr::Instance::checkValidationSupport</title>
<polygon fill="white" stroke="none" points="-4,4 -4,-35 488,-35 488,4 -4,4"/>
<!-- Node36 -->
<g id="node1" class="node"><title>Node36</title>
<polygon fill="#bfbfbf" stroke="black" points="0,-0.5 0,-30.5 146,-30.5 146,-0.5 0,-0.5"/>
<text text-anchor="start" x="8" y="-18.5" font-family="Helvetica,sans-Serif" font-size="10.00">vpr::Instance::checkValidation</text>
<text text-anchor="middle" x="73" y="-7.5" font-family="Helvetica,sans-Serif" font-size="10.00">Support</text>
</g>
<!-- Node37 -->
<g id="node2" class="node"><title>Node37</title>
<g id="a_node2"><a xlink:href="classvpr_1_1_instance.html#a8e32fee4f0a877997ee6e75ea3d3c3a1" target="_top" xlink:title="vpr::Instance::prepareValidation">
<polygon fill="white" stroke="black" points="182,-6 182,-25 334,-25 334,-6 182,-6"/>
<text text-anchor="middle" x="258" y="-13" font-family="Helvetica,sans-Serif" font-size="10.00">vpr::Instance::prepareValidation</text>
</a>
</g>
</g>
<!-- Node36&#45;&gt;Node37 -->
<g id="edge1" class="edge"><title>Node36&#45;&gt;Node37</title>
<path fill="none" stroke="midnightblue" d="M156.111,-15.5C164.729,-15.5 173.46,-15.5 181.992,-15.5"/>
<polygon fill="midnightblue" stroke="midnightblue" points="156.064,-12.0001 146.064,-15.5 156.064,-19.0001 156.064,-12.0001"/>
</g>
<!-- Node38 -->
<g id="node3" class="node"><title>Node38</title>
<g id="a_node3"><a xlink:href="classvpr_1_1_instance.html#a875cd0ca8909a26c346b9d83b85280a2" target="_top" xlink:title="vpr::Instance::Instance">
<polygon fill="white" stroke="black" points="370,-6 370,-25 484,-25 484,-6 370,-6"/>
<text text-anchor="middle" x="427" y="-13" font-family="Helvetica,sans-Serif" font-size="10.00">vpr::Instance::Instance</text>
</a>
</g>
</g>
<!-- Node37&#45;&gt;Node38 -->
<g id="edge2" class="edge"><title>Node37&#45;&gt;Node38</title>
<path fill="none" stroke="midnightblue" d="M344.308,-15.5C352.931,-15.5 361.529,-15.5 369.732,-15.5"/>
<polygon fill="midnightblue" stroke="midnightblue" points="344.195,-12.0001 334.195,-15.5 344.195,-19.0001 344.195,-12.0001"/>
</g>
</g>
</svg>
