<?xml version="1.0" encoding="UTF-8" standalone="no"?>
<!DOCTYPE svg PUBLIC "-//W3C//DTD SVG 1.1//EN"
 "http://www.w3.org/Graphics/SVG/1.1/DTD/svg11.dtd">
<!-- Generated by graphviz version 2.38.0 (20140413.2041)
 -->
<!-- Title: el::base::PErrorWriter Pages: 1 -->
<svg width="2626pt" height="673pt"
 viewBox="0.00 0.00 2626.00 673.00" xmlns="http://www.w3.org/2000/svg" xmlns:xlink="http://www.w3.org/1999/xlink">
<g id="graph0" class="graph" transform="scale(1 1) rotate(0) translate(4 669)">
<title>el::base::PErrorWriter</title>
<polygon fill="white" stroke="none" points="-4,4 -4,-669 2622,-669 2622,4 -4,4"/>
<!-- Node3 -->
<g id="node1" class="node"><title>Node3</title>
<polygon fill="#bfbfbf" stroke="black" points="2507,-399.5 2507,-418.5 2618,-418.5 2618,-399.5 2507,-399.5"/>
<text text-anchor="middle" x="2562.5" y="-406.5" font-family="Helvetica,sans-Serif" font-size="10.00">el::base::PErrorWriter</text>
</g>
<!-- Node4 -->
<g id="node2" class="node"><title>Node4</title>
<g id="a_node2"><a xlink:href="classel_1_1base_1_1_writer.html" target="_top" xlink:title="Main entry point of each logging. ">
<polygon fill="white" stroke="black" points="2387,-399.5 2387,-418.5 2470,-418.5 2470,-399.5 2387,-399.5"/>
<text text-anchor="middle" x="2428.5" y="-406.5" font-family="Helvetica,sans-Serif" font-size="10.00">el::base::Writer</text>
</a>
</g>
</g>
<!-- Node4&#45;&gt;Node3 -->
<g id="edge1" class="edge"><title>Node4&#45;&gt;Node3</title>
<path fill="none" stroke="midnightblue" d="M2480.43,-409C2489.01,-409 2497.95,-409 2506.63,-409"/>
<polygon fill="midnightblue" stroke="midnightblue" points="2480.18,-405.5 2470.18,-409 2480.18,-412.5 2480.18,-405.5"/>
</g>
<!-- Node5 -->
<g id="node3" class="node"><title>Node5</title>
<g id="a_node3"><a xlink:href="classel_1_1base_1_1_no_copy.html" target="_top" xlink:title="Internal helper class that prevent copy constructor for class. ">
<polygon fill="white" stroke="black" points="132,-621.5 132,-640.5 224,-640.5 224,-621.5 132,-621.5"/>
<text text-anchor="middle" x="178" y="-628.5" font-family="Helvetica,sans-Serif" font-size="10.00">el::base::NoCopy</text>
</a>
</g>
</g>
<!-- Node5&#45;&gt;Node4 -->
<g id="edge2" class="edge"><title>Node5&#45;&gt;Node4</title>
<path fill="none" stroke="#8b1a1a" d="M226.53,-642.802C270.271,-652.621 337.096,-665 396,-665 396,-665 396,-665 2201.5,-665 2335.49,-665 2409.04,-465.484 2424.44,-418.723"/>
<polygon fill="#8b1a1a" stroke="#8b1a1a" points="227.272,-639.382 216.743,-640.561 225.709,-646.205 227.272,-639.382"/>
</g>
<!-- Node9 -->
<g id="node7" class="node"><title>Node9</title>
<g id="a_node7"><a xlink:href="classel_1_1base_1_1threading_1_1internal_1_1_no_mutex.html" target="_top" xlink:title="Mutex wrapper used when multi&#45;threading is disabled. ">
<polygon fill="white" stroke="black" points="347.5,-524 347.5,-554 446.5,-554 446.5,-524 347.5,-524"/>
<text text-anchor="start" x="355.5" y="-542" font-family="Helvetica,sans-Serif" font-size="10.00">el::base::threading</text>
<text text-anchor="middle" x="397" y="-531" font-family="Helvetica,sans-Serif" font-size="10.00">::internal::NoMutex</text>
</a>
</g>
</g>
<!-- Node5&#45;&gt;Node9 -->
<g id="edge7" class="edge"><title>Node5&#45;&gt;Node9</title>
<path fill="none" stroke="#8b1a1a" d="M211.072,-617.402C250.936,-600.502 318.766,-571.744 360.261,-554.152"/>
<polygon fill="#8b1a1a" stroke="#8b1a1a" points="209.653,-614.203 201.813,-621.328 212.386,-620.647 209.653,-614.203"/>
</g>
<!-- Node6 -->
<g id="node4" class="node"><title>Node6</title>
<g id="a_node4"><a xlink:href="classel_1_1base_1_1_message_builder.html" target="_top" xlink:title="el::base::MessageBuilder">
<polygon fill="white" stroke="black" points="2137,-371.5 2137,-390.5 2264,-390.5 2264,-371.5 2137,-371.5"/>
<text text-anchor="middle" x="2200.5" y="-378.5" font-family="Helvetica,sans-Serif" font-size="10.00">el::base::MessageBuilder</text>
</a>
</g>
</g>
<!-- Node6&#45;&gt;Node4 -->
<g id="edge3" class="edge"><title>Node6&#45;&gt;Node4</title>
<path fill="none" stroke="#9a32cd" stroke-dasharray="5,2" d="M2274.47,-390.04C2311.71,-394.655 2355.62,-400.095 2386.83,-403.962"/>
<polygon fill="#9a32cd" stroke="#9a32cd" points="2274.51,-386.519 2264.15,-388.762 2273.65,-393.465 2274.51,-386.519"/>
<text text-anchor="middle" x="2325.5" y="-405" font-family="Helvetica,sans-Serif" font-size="10.00"> m_messageBuilder</text>
</g>
<!-- Node7 -->
<g id="node5" class="node"><title>Node7</title>
<g id="a_node5"><a xlink:href="classel_1_1_logger.html" target="_top" xlink:title="Represents a logger holding ID and configurations we need to write logs. ">
<polygon fill="white" stroke="black" points="1999,-394.5 1999,-413.5 2058,-413.5 2058,-394.5 1999,-394.5"/>
<text text-anchor="middle" x="2028.5" y="-401.5" font-family="Helvetica,sans-Serif" font-size="10.00">el::Logger</text>
</a>
</g>
</g>
<!-- Node7&#45;&gt;Node4 -->
<g id="edge46" class="edge"><title>Node7&#45;&gt;Node4</title>
<path fill="none" stroke="#9a32cd" stroke-dasharray="5,2" d="M2068.33,-412.086C2070.92,-412.448 2073.49,-412.76 2076,-413 2205.63,-425.429 2238.85,-417.444 2369,-413 2374.8,-412.802 2380.92,-412.494 2386.92,-412.134"/>
<polygon fill="#9a32cd" stroke="#9a32cd" points="2068.83,-408.62 2058.4,-410.479 2067.71,-415.53 2068.83,-408.62"/>
<text text-anchor="middle" x="2200.5" y="-423" font-family="Helvetica,sans-Serif" font-size="10.00"> m_logger</text>
</g>
<!-- Node7&#45;&gt;Node6 -->
<g id="edge4" class="edge"><title>Node7&#45;&gt;Node6</title>
<path fill="none" stroke="#9a32cd" stroke-dasharray="5,2" d="M2068.45,-398.73C2088.73,-395.986 2114.02,-392.564 2136.97,-389.461"/>
<polygon fill="#9a32cd" stroke="#9a32cd" points="2067.78,-395.289 2058.34,-400.098 2068.72,-402.226 2067.78,-395.289"/>
<text text-anchor="middle" x="2097.5" y="-401" font-family="Helvetica,sans-Serif" font-size="10.00"> m_logger</text>
</g>
<!-- Node8 -->
<g id="node6" class="node"><title>Node8</title>
<g id="a_node6"><a xlink:href="classel_1_1base_1_1threading_1_1_thread_safe.html" target="_top" xlink:title="Base of thread safe class, this class is inheritable&#45;only. ">
<polygon fill="white" stroke="black" points="611.5,-500 611.5,-530 708.5,-530 708.5,-500 611.5,-500"/>
<text text-anchor="start" x="619.5" y="-518" font-family="Helvetica,sans-Serif" font-size="10.00">el::base::threading</text>
<text text-anchor="middle" x="660" y="-507" font-family="Helvetica,sans-Serif" font-size="10.00">::ThreadSafe</text>
</a>
</g>
</g>
<!-- Node8&#45;&gt;Node7 -->
<g id="edge5" class="edge"><title>Node8&#45;&gt;Node7</title>
<path fill="none" stroke="midnightblue" d="M718.616,-519.171C776.159,-522.973 867.151,-528 946,-528 946,-528 946,-528 1788.5,-528 1876.89,-528 1909.68,-530.216 1981,-478 2003.89,-461.239 2018.15,-429.48 2024.18,-413.577"/>
<polygon fill="midnightblue" stroke="midnightblue" points="718.835,-515.678 708.623,-518.501 718.366,-522.662 718.835,-515.678"/>
</g>
<!-- Node15 -->
<g id="node13" class="node"><title>Node15</title>
<g id="a_node13"><a xlink:href="classel_1_1base_1_1_typed_configurations.html" target="_top" xlink:title="Configurations with data types. ">
<polygon fill="white" stroke="black" points="1715,-254.5 1715,-273.5 1860,-273.5 1860,-254.5 1715,-254.5"/>
<text text-anchor="middle" x="1787.5" y="-261.5" font-family="Helvetica,sans-Serif" font-size="10.00">el::base::TypedConfigurations</text>
</a>
</g>
</g>
<!-- Node8&#45;&gt;Node15 -->
<g id="edge14" class="edge"><title>Node8&#45;&gt;Node15</title>
<path fill="none" stroke="midnightblue" d="M718.833,-514.75C835.136,-513.369 1105.25,-505.735 1328,-466 1495.98,-436.034 1560.1,-461.845 1697,-360 1708.87,-351.17 1705.57,-343.401 1715,-332 1733.89,-309.161 1759.9,-286.136 1774.78,-273.606"/>
<polygon fill="midnightblue" stroke="midnightblue" points="718.69,-511.251 708.728,-514.858 718.765,-518.25 718.69,-511.251"/>
</g>
<!-- Node21 -->
<g id="node19" class="node"><title>Node21</title>
<g id="a_node19"><a xlink:href="classel_1_1base_1_1utils_1_1_abstract_registry.html" target="_top" xlink:title="el::base::utils::Abstract\lRegistry\&lt; Configuration,\l std::vector\&lt; Configuration *\&gt; \&gt;">
<polygon fill="white" stroke="black" points="871,-344.5 871,-385.5 1023,-385.5 1023,-344.5 871,-344.5"/>
<text text-anchor="start" x="879" y="-373.5" font-family="Helvetica,sans-Serif" font-size="10.00">el::base::utils::Abstract</text>
<text text-anchor="start" x="879" y="-362.5" font-family="Helvetica,sans-Serif" font-size="10.00">Registry&lt; Configuration,</text>
<text text-anchor="middle" x="947" y="-351.5" font-family="Helvetica,sans-Serif" font-size="10.00"> std::vector&lt; Configuration *&gt; &gt;</text>
</a>
</g>
</g>
<!-- Node8&#45;&gt;Node21 -->
<g id="edge23" class="edge"><title>Node8&#45;&gt;Node21</title>
<path fill="none" stroke="midnightblue" d="M698.551,-495.236C752.665,-466.755 852.09,-414.426 907,-385.526"/>
<polygon fill="midnightblue" stroke="midnightblue" points="696.851,-492.176 689.632,-499.931 700.111,-498.37 696.851,-492.176"/>
</g>
<!-- Node9&#45;&gt;Node8 -->
<g id="edge6" class="edge"><title>Node9&#45;&gt;Node8</title>
<path fill="none" stroke="#9a32cd" stroke-dasharray="5,2" d="M456.756,-533.597C503.419,-529.306 567.84,-523.383 611.334,-519.383"/>
<polygon fill="#9a32cd" stroke="#9a32cd" points="456.423,-530.113 446.786,-534.514 457.064,-537.083 456.423,-530.113"/>
<text text-anchor="middle" x="519.5" y="-536" font-family="Helvetica,sans-Serif" font-size="10.00"> m_mutex</text>
</g>
<!-- Node10 -->
<g id="node8" class="node"><title>Node10</title>
<g id="a_node8"><a xlink:href="classel_1_1_loggable.html" target="_top" xlink:title="Base of Easylogging++ friendly class. ">
<polygon fill="white" stroke="black" points="143.5,-417.5 143.5,-436.5 212.5,-436.5 212.5,-417.5 143.5,-417.5"/>
<text text-anchor="middle" x="178" y="-424.5" font-family="Helvetica,sans-Serif" font-size="10.00">el::Loggable</text>
</a>
</g>
</g>
<!-- Node10&#45;&gt;Node7 -->
<g id="edge8" class="edge"><title>Node10&#45;&gt;Node7</title>
<path fill="none" stroke="midnightblue" d="M222.691,-435.015C266.393,-442.328 335.614,-452 396,-452 396,-452 396,-452 1368.5,-452 1640.77,-452 1724.24,-530.594 1981,-440 1996.02,-434.701 2010,-422.492 2018.63,-413.762"/>
<polygon fill="midnightblue" stroke="midnightblue" points="223.136,-431.541 212.69,-433.309 221.959,-438.441 223.136,-431.541"/>
</g>
<!-- Node23 -->
<g id="node21" class="node"><title>Node23</title>
<g id="a_node21"><a xlink:href="classel_1_1_configuration.html" target="_top" xlink:title="Represents single configuration that has representing level, configuration type and a string based va...">
<polygon fill="white" stroke="black" points="354,-364.5 354,-383.5 440,-383.5 440,-364.5 354,-364.5"/>
<text text-anchor="middle" x="397" y="-371.5" font-family="Helvetica,sans-Serif" font-size="10.00">el::Configuration</text>
</a>
</g>
</g>
<!-- Node10&#45;&gt;Node23 -->
<g id="edge26" class="edge"><title>Node10&#45;&gt;Node23</title>
<path fill="none" stroke="midnightblue" d="M222.725,-416.321C261.969,-406.736 319.048,-392.795 356.829,-383.567"/>
<polygon fill="midnightblue" stroke="midnightblue" points="221.79,-412.946 212.906,-418.719 223.451,-419.746 221.79,-412.946"/>
</g>
<!-- Node28 -->
<g id="node26" class="node"><title>Node28</title>
<g id="a_node26"><a xlink:href="classel_1_1base_1_1_log_format.html" target="_top" xlink:title="Represents log format containing flags and date format. This is used internally to start initial log...">
<polygon fill="white" stroke="black" points="345,-267.5 345,-286.5 449,-286.5 449,-267.5 345,-267.5"/>
<text text-anchor="middle" x="397" y="-274.5" font-family="Helvetica,sans-Serif" font-size="10.00">el::base::LogFormat</text>
</a>
</g>
</g>
<!-- Node10&#45;&gt;Node28 -->
<g id="edge34" class="edge"><title>Node10&#45;&gt;Node28</title>
<path fill="none" stroke="midnightblue" d="M191.84,-408.718C203.556,-393.008 222.043,-370.501 242,-355 264.426,-337.581 338.035,-303.21 374.764,-286.529"/>
<polygon fill="midnightblue" stroke="midnightblue" points="188.812,-406.931 185.765,-417.078 194.475,-411.046 188.812,-406.931"/>
</g>
<!-- Node11 -->
<g id="node9" class="node"><title>Node11</title>
<polygon fill="white" stroke="#bfbfbf" points="1722,-367 1722,-397 1853,-397 1853,-367 1722,-367"/>
<text text-anchor="start" x="1730" y="-385" font-family="Helvetica,sans-Serif" font-size="10.00">std::map&lt; Level, unsigned</text>
<text text-anchor="middle" x="1787.5" y="-374" font-family="Helvetica,sans-Serif" font-size="10.00"> int &gt;</text>
</g>
<!-- Node11&#45;&gt;Node7 -->
<g id="edge9" class="edge"><title>Node11&#45;&gt;Node7</title>
<path fill="none" stroke="#9a32cd" stroke-dasharray="5,2" d="M1863.41,-388.896C1909.37,-393.126 1965.59,-398.302 1998.87,-401.365"/>
<polygon fill="#9a32cd" stroke="#9a32cd" points="1863.46,-385.385 1853.18,-387.954 1862.81,-392.355 1863.46,-385.385"/>
<text text-anchor="middle" x="1929.5" y="-403" font-family="Helvetica,sans-Serif" font-size="10.00"> m_unflushedCount</text>
</g>
<!-- Node12 -->
<g id="node10" class="node"><title>Node12</title>
<polygon fill="white" stroke="#bfbfbf" points="1426,-91 1426,-121 1536,-121 1536,-91 1426,-91"/>
<text text-anchor="start" x="1434" y="-109" font-family="Helvetica,sans-Serif" font-size="10.00">std::map&lt; std::string,</text>
<text text-anchor="middle" x="1481" y="-98" font-family="Helvetica,sans-Serif" font-size="10.00"> FileStreamPtr &gt;</text>
</g>
<!-- Node12&#45;&gt;Node7 -->
<g id="edge10" class="edge"><title>Node12&#45;&gt;Node7</title>
<path fill="none" stroke="#9a32cd" stroke-dasharray="5,2" d="M1545.26,-86.6817C1548.64,-84.9314 1551.91,-83.0403 1555,-81 1564.98,-74.4067 1562.08,-65.8653 1573,-61 1623.34,-38.5787 1644.58,-43.9902 1697,-61 1845.32,-109.128 1888.48,-141.486 1981,-267 2011.4,-308.244 2022.88,-370.752 2026.29,-394.444"/>
<polygon fill="#9a32cd" stroke="#9a32cd" points="1543.67,-83.5628 1536.12,-90.9919 1546.65,-89.8948 1543.67,-83.5628"/>
<text text-anchor="middle" x="1787.5" y="-138" font-family="Helvetica,sans-Serif" font-size="10.00"> m_logStreamsReference</text>
</g>
<!-- Node12&#45;&gt;Node15 -->
<g id="edge16" class="edge"><title>Node12&#45;&gt;Node15</title>
<path fill="none" stroke="#9a32cd" stroke-dasharray="5,2" d="M1546.34,-102.46C1600.31,-100.666 1672.41,-101.372 1697,-116 1750.93,-148.087 1776.46,-226.427 1784.01,-254.111"/>
<polygon fill="#9a32cd" stroke="#9a32cd" points="1546.01,-98.97 1536.14,-102.835 1546.27,-105.965 1546.01,-98.97"/>
<text text-anchor="middle" x="1635" y="-119" font-family="Helvetica,sans-Serif" font-size="10.00"> m_logStreamsReference</text>
</g>
<!-- Node13 -->
<g id="node11" class="node"><title>Node13</title>
<g id="a_node11"><a xlink:title="STL class. ">
<polygon fill="white" stroke="#bfbfbf" points="148,-236.5 148,-255.5 208,-255.5 208,-236.5 148,-236.5"/>
<text text-anchor="middle" x="178" y="-243.5" font-family="Helvetica,sans-Serif" font-size="10.00">std::string</text>
</a>
</g>
</g>
<!-- Node13&#45;&gt;Node7 -->
<g id="edge45" class="edge"><title>Node13&#45;&gt;Node7</title>
<path fill="none" stroke="#9a32cd" stroke-dasharray="5,2" d="M182.276,-265.705C188.347,-295.495 204.338,-351.438 242,-379 275.851,-403.773 402.246,-414 946,-414 946,-414 946,-414 1482,-414 1703.78,-414 1760.06,-431.313 1981,-412 1986.71,-411.501 1992.78,-410.676 1998.58,-409.742"/>
<polygon fill="#9a32cd" stroke="#9a32cd" points="185.681,-264.872 180.41,-255.682 178.799,-266.153 185.681,-264.872"/>
<text text-anchor="middle" x="1102.5" y="-428" font-family="Helvetica,sans-Serif" font-size="10.00"> m_parentApplicationName</text>
<text text-anchor="middle" x="1102.5" y="-417" font-family="Helvetica,sans-Serif" font-size="10.00">m_id</text>
</g>
<!-- Node13&#45;&gt;Node12 -->
<g id="edge11" class="edge"><title>Node13&#45;&gt;Node12</title>
<path fill="none" stroke="#9a32cd" stroke-dasharray="5,2" d="M197.471,-229.545C233.134,-199.541 315.115,-139 396,-139 396,-139 396,-139 1256,-139 1314.37,-139 1380.4,-127.896 1425.56,-118.57"/>
<polygon fill="#9a32cd" stroke="#9a32cd" points="195.116,-226.954 189.811,-236.125 199.677,-232.264 195.116,-226.954"/>
<text text-anchor="middle" x="800.5" y="-142" font-family="Helvetica,sans-Serif" font-size="10.00"> keys</text>
</g>
<!-- Node18 -->
<g id="node16" class="node"><title>Node18</title>
<polygon fill="white" stroke="#bfbfbf" points="467,-206 467,-236 572,-236 572,-206 467,-206"/>
<text text-anchor="start" x="475" y="-224" font-family="Helvetica,sans-Serif" font-size="10.00">std::map&lt; Level, std</text>
<text text-anchor="middle" x="519.5" y="-213" font-family="Helvetica,sans-Serif" font-size="10.00">::string &gt;</text>
</g>
<!-- Node13&#45;&gt;Node18 -->
<g id="edge19" class="edge"><title>Node13&#45;&gt;Node18</title>
<path fill="none" stroke="#9a32cd" stroke-dasharray="5,2" d="M213.072,-233.209C222.327,-230.281 232.437,-227.57 242,-226 319.58,-213.262 411.042,-214.774 466.885,-217.518"/>
<polygon fill="#9a32cd" stroke="#9a32cd" points="211.808,-229.941 203.431,-236.428 214.025,-236.581 211.808,-229.941"/>
<text text-anchor="middle" x="284.5" y="-229" font-family="Helvetica,sans-Serif" font-size="10.00"> elements</text>
</g>
<!-- Node19 -->
<g id="node17" class="node"><title>Node19</title>
<g id="a_node17"><a xlink:href="classel_1_1_configurations.html" target="_top" xlink:title="Thread&#45;safe Configuration repository. ">
<polygon fill="white" stroke="black" points="1435,-355.5 1435,-374.5 1527,-374.5 1527,-355.5 1435,-355.5"/>
<text text-anchor="middle" x="1481" y="-362.5" font-family="Helvetica,sans-Serif" font-size="10.00">el::Configurations</text>
</a>
</g>
</g>
<!-- Node13&#45;&gt;Node19 -->
<g id="edge28" class="edge"><title>Node13&#45;&gt;Node19</title>
<path fill="none" stroke="#9a32cd" stroke-dasharray="5,2" d="M193.036,-263.426C204.656,-276.486 222.392,-293.509 242,-302 305.068,-329.31 327.273,-316 396,-316 396,-316 396,-316 1256,-316 1292.52,-316 1391.78,-341.176 1445.07,-355.436"/>
<polygon fill="#9a32cd" stroke="#9a32cd" points="195.473,-260.889 186.325,-255.545 190.144,-265.428 195.473,-260.889"/>
<text text-anchor="middle" x="800.5" y="-319" font-family="Helvetica,sans-Serif" font-size="10.00"> m_configurationFile</text>
</g>
<!-- Node13&#45;&gt;Node23 -->
<g id="edge27" class="edge"><title>Node13&#45;&gt;Node23</title>
<path fill="none" stroke="#9a32cd" stroke-dasharray="5,2" d="M188.279,-264.657C198.757,-283.833 217.576,-313.19 242,-330 275.556,-353.095 321.139,-364.167 353.995,-369.413"/>
<polygon fill="#9a32cd" stroke="#9a32cd" points="191.316,-262.912 183.575,-255.678 185.115,-266.161 191.316,-262.912"/>
<text text-anchor="middle" x="284.5" y="-367" font-family="Helvetica,sans-Serif" font-size="10.00"> m_value</text>
</g>
<!-- Node13&#45;&gt;Node28 -->
<g id="edge35" class="edge"><title>Node13&#45;&gt;Node28</title>
<path fill="none" stroke="#9a32cd" stroke-dasharray="5,2" d="M218.118,-242.03C248.223,-239.988 290.683,-239.318 327,-247 345.786,-250.974 365.749,-260.276 379.342,-267.476"/>
<polygon fill="#9a32cd" stroke="#9a32cd" points="217.722,-238.55 208.016,-242.798 218.252,-245.53 217.722,-238.55"/>
<text text-anchor="middle" x="284.5" y="-294" font-family="Helvetica,sans-Serif" font-size="10.00"> m_format</text>
<text text-anchor="middle" x="284.5" y="-283" font-family="Helvetica,sans-Serif" font-size="10.00">m_currentHost</text>
<text text-anchor="middle" x="284.5" y="-272" font-family="Helvetica,sans-Serif" font-size="10.00">m_userFormat</text>
<text text-anchor="middle" x="284.5" y="-261" font-family="Helvetica,sans-Serif" font-size="10.00">m_currentUser</text>
<text text-anchor="middle" x="284.5" y="-250" font-family="Helvetica,sans-Serif" font-size="10.00">m_dateTimeFormat</text>
</g>
<!-- Node36 -->
<g id="node34" class="node"><title>Node36</title>
<polygon fill="white" stroke="#bfbfbf" points="1041,-15.5 1041,-34.5 1164,-34.5 1164,-15.5 1041,-15.5"/>
<text text-anchor="middle" x="1102.5" y="-22.5" font-family="Helvetica,sans-Serif" font-size="10.00">std::vector&lt; std::string &gt;</text>
</g>
<!-- Node13&#45;&gt;Node36 -->
<g id="edge48" class="edge"><title>Node13&#45;&gt;Node36</title>
<path fill="none" stroke="#9a32cd" stroke-dasharray="5,2" d="M184.059,-226.497C191.976,-199.789 209.824,-152.069 242,-125 296.963,-78.7614 324.174,-76 396,-76 396,-76 396,-76 801.5,-76 899.237,-76 1012.38,-49.3662 1067.63,-34.5927"/>
<polygon fill="#9a32cd" stroke="#9a32cd" points="180.659,-225.658 181.34,-236.231 187.401,-227.541 180.659,-225.658"/>
<text text-anchor="middle" x="519.5" y="-79" font-family="Helvetica,sans-Serif" font-size="10.00"> elements</text>
</g>
<!-- Node14 -->
<g id="node12" class="node"><title>Node14</title>
<g id="a_node12"><a xlink:title="STL class. ">
<polygon fill="white" stroke="#bfbfbf" points="0,-231 0,-261 95,-261 95,-231 0,-231"/>
<text text-anchor="start" x="8" y="-249" font-family="Helvetica,sans-Serif" font-size="10.00">std::basic_string&lt;</text>
<text text-anchor="middle" x="47.5" y="-238" font-family="Helvetica,sans-Serif" font-size="10.00"> char &gt;</text>
</a>
</g>
</g>
<!-- Node14&#45;&gt;Node13 -->
<g id="edge12" class="edge"><title>Node14&#45;&gt;Node13</title>
<path fill="none" stroke="midnightblue" d="M105.264,-246C119.898,-246 135.056,-246 147.648,-246"/>
<polygon fill="midnightblue" stroke="midnightblue" points="105.255,-242.5 95.255,-246 105.255,-249.5 105.255,-242.5"/>
</g>
<!-- Node15&#45;&gt;Node7 -->
<g id="edge13" class="edge"><title>Node15&#45;&gt;Node7</title>
<path fill="none" stroke="#9a32cd" stroke-dasharray="5,2" d="M1870.58,-269.06C1907.59,-274.963 1949.87,-287.156 1981,-312 2008.14,-333.658 2020.85,-375.324 2025.41,-394.236"/>
<polygon fill="#9a32cd" stroke="#9a32cd" points="1870.7,-265.54 1860.3,-267.557 1869.69,-272.466 1870.7,-265.54"/>
<text text-anchor="middle" x="1929.5" y="-315" font-family="Helvetica,sans-Serif" font-size="10.00"> m_typedConfigurations</text>
</g>
<!-- Node16 -->
<g id="node14" class="node"><title>Node16</title>
<polygon fill="white" stroke="#bfbfbf" points="1428.5,-180 1428.5,-210 1533.5,-210 1533.5,-180 1428.5,-180"/>
<text text-anchor="start" x="1436.5" y="-198" font-family="Helvetica,sans-Serif" font-size="10.00">std::map&lt; Level, std</text>
<text text-anchor="middle" x="1481" y="-187" font-family="Helvetica,sans-Serif" font-size="10.00">::size_t &gt;</text>
</g>
<!-- Node16&#45;&gt;Node15 -->
<g id="edge15" class="edge"><title>Node16&#45;&gt;Node15</title>
<path fill="none" stroke="#9a32cd" stroke-dasharray="5,2" d="M1544.11,-194.649C1587.74,-195.94 1647,-200.817 1697,-216 1725.68,-224.709 1755.74,-243.019 1772.7,-254.337"/>
<polygon fill="#9a32cd" stroke="#9a32cd" points="1544.01,-191.145 1533.93,-194.404 1543.84,-198.143 1544.01,-191.145"/>
<text text-anchor="middle" x="1635" y="-230" font-family="Helvetica,sans-Serif" font-size="10.00"> m_maxLogFileSizeMap</text>
<text text-anchor="middle" x="1635" y="-219" font-family="Helvetica,sans-Serif" font-size="10.00">m_logFlushThresholdMap</text>
</g>
<!-- Node17 -->
<g id="node15" class="node"><title>Node17</title>
<polygon fill="white" stroke="#bfbfbf" points="1421.5,-140.5 1421.5,-159.5 1540.5,-159.5 1540.5,-140.5 1421.5,-140.5"/>
<text text-anchor="middle" x="1481" y="-147.5" font-family="Helvetica,sans-Serif" font-size="10.00">std::map&lt; Level, bool &gt;</text>
</g>
<!-- Node17&#45;&gt;Node15 -->
<g id="edge17" class="edge"><title>Node17&#45;&gt;Node15</title>
<path fill="none" stroke="#9a32cd" stroke-dasharray="5,2" d="M1528.27,-138.447C1573.68,-129.63 1643.69,-122.937 1697,-149 1743.37,-171.668 1772.67,-231.235 1782.66,-254.499"/>
<polygon fill="#9a32cd" stroke="#9a32cd" points="1527.5,-135.032 1518.4,-140.47 1528.9,-141.889 1527.5,-135.032"/>
<text text-anchor="middle" x="1635" y="-185" font-family="Helvetica,sans-Serif" font-size="10.00"> m_toFileMap</text>
<text text-anchor="middle" x="1635" y="-174" font-family="Helvetica,sans-Serif" font-size="10.00">m_performanceTrackingMap</text>
<text text-anchor="middle" x="1635" y="-163" font-family="Helvetica,sans-Serif" font-size="10.00">m_toStandardOutputMap</text>
<text text-anchor="middle" x="1635" y="-152" font-family="Helvetica,sans-Serif" font-size="10.00">m_enabledMap</text>
</g>
<!-- Node18&#45;&gt;Node15 -->
<g id="edge18" class="edge"><title>Node18&#45;&gt;Node15</title>
<path fill="none" stroke="#9a32cd" stroke-dasharray="5,2" d="M582.398,-223.102C794.134,-230.294 1488.84,-253.89 1714.79,-261.565"/>
<polygon fill="#9a32cd" stroke="#9a32cd" points="582.205,-219.594 572.092,-222.752 581.968,-226.59 582.205,-219.594"/>
<text text-anchor="middle" x="1102.5" y="-246" font-family="Helvetica,sans-Serif" font-size="10.00"> m_filenameMap</text>
</g>
<!-- Node19&#45;&gt;Node7 -->
<g id="edge36" class="edge"><title>Node19&#45;&gt;Node7</title>
<path fill="none" stroke="#9a32cd" stroke-dasharray="5,2" d="M1537.23,-369.601C1581.32,-371.64 1644.23,-370.858 1697,-356 1705.81,-353.52 1706.14,-348.296 1715,-346 1777.38,-329.835 1796.41,-335.52 1860,-346 1915.11,-355.083 1976.27,-380.441 2007.2,-394.431"/>
<polygon fill="#9a32cd" stroke="#9a32cd" points="1537.17,-366.093 1527,-369.062 1536.8,-373.083 1537.17,-366.093"/>
<text text-anchor="middle" x="1787.5" y="-349" font-family="Helvetica,sans-Serif" font-size="10.00"> m_configurations</text>
</g>
<!-- Node19&#45;&gt;Node15 -->
<g id="edge20" class="edge"><title>Node19&#45;&gt;Node15</title>
<path fill="none" stroke="#9a32cd" stroke-dasharray="5,2" d="M1534.06,-353.25C1546.78,-350.464 1560.37,-347.559 1573,-345 1627.94,-333.871 1644.93,-342.749 1697,-322 1727.44,-309.868 1758.57,-286.786 1774.89,-273.695"/>
<polygon fill="#9a32cd" stroke="#9a32cd" points="1533.09,-349.88 1524.07,-355.45 1534.59,-356.716 1533.09,-349.88"/>
<text text-anchor="middle" x="1635" y="-348" font-family="Helvetica,sans-Serif" font-size="10.00"> m_configurations</text>
</g>
<!-- Node20 -->
<g id="node18" class="node"><title>Node20</title>
<g id="a_node18"><a xlink:href="classel_1_1base_1_1utils_1_1_registry_with_pred.html" target="_top" xlink:title="el::base::utils::Registry\lWithPred\&lt; Configuration,\l Configuration::Predicate \&gt;">
<polygon fill="white" stroke="black" points="1189,-344.5 1189,-385.5 1321,-385.5 1321,-344.5 1189,-344.5"/>
<text text-anchor="start" x="1197" y="-373.5" font-family="Helvetica,sans-Serif" font-size="10.00">el::base::utils::Registry</text>
<text text-anchor="start" x="1197" y="-362.5" font-family="Helvetica,sans-Serif" font-size="10.00">WithPred&lt; Configuration,</text>
<text text-anchor="middle" x="1255" y="-351.5" font-family="Helvetica,sans-Serif" font-size="10.00"> Configuration::Predicate &gt;</text>
</a>
</g>
</g>
<!-- Node20&#45;&gt;Node19 -->
<g id="edge21" class="edge"><title>Node20&#45;&gt;Node19</title>
<path fill="none" stroke="midnightblue" d="M1331.53,-365C1365.76,-365 1405.08,-365 1434.66,-365"/>
<polygon fill="midnightblue" stroke="midnightblue" points="1331.09,-361.5 1321.09,-365 1331.09,-368.5 1331.09,-361.5"/>
</g>
<!-- Node21&#45;&gt;Node20 -->
<g id="edge22" class="edge"><title>Node21&#45;&gt;Node20</title>
<path fill="none" stroke="midnightblue" d="M1033.25,-365C1082.52,-365 1143.52,-365 1188.9,-365"/>
<polygon fill="midnightblue" stroke="midnightblue" points="1033.25,-361.5 1023.25,-365 1033.25,-368.5 1033.25,-361.5"/>
</g>
<!-- Node22 -->
<g id="node20" class="node"><title>Node22</title>
<polygon fill="white" stroke="#bfbfbf" points="590,-361.5 590,-380.5 730,-380.5 730,-361.5 590,-361.5"/>
<text text-anchor="middle" x="660" y="-368.5" font-family="Helvetica,sans-Serif" font-size="10.00">std::vector&lt; Configuration *&gt;</text>
</g>
<!-- Node22&#45;&gt;Node21 -->
<g id="edge24" class="edge"><title>Node22&#45;&gt;Node21</title>
<path fill="none" stroke="#9a32cd" stroke-dasharray="5,2" d="M740.525,-369.326C781.302,-368.467 830.691,-367.428 870.827,-366.583"/>
<polygon fill="#9a32cd" stroke="#9a32cd" points="740.278,-365.83 730.354,-369.54 740.426,-372.829 740.278,-365.83"/>
<text text-anchor="middle" x="800.5" y="-373" font-family="Helvetica,sans-Serif" font-size="10.00"> m_list</text>
</g>
<!-- Node23&#45;&gt;Node22 -->
<g id="edge25" class="edge"><title>Node23&#45;&gt;Node22</title>
<path fill="none" stroke="#9a32cd" stroke-dasharray="5,2" d="M450.32,-373.399C490.403,-372.938 546.073,-372.298 589.833,-371.795"/>
<polygon fill="#9a32cd" stroke="#9a32cd" points="450.183,-369.9 440.224,-373.515 450.264,-376.899 450.183,-369.9"/>
<text text-anchor="middle" x="519.5" y="-377" font-family="Helvetica,sans-Serif" font-size="10.00"> elements</text>
</g>
<!-- Node24 -->
<g id="node22" class="node"><title>Node24</title>
<polygon fill="white" stroke="#bfbfbf" points="1407,-42 1407,-72 1555,-72 1555,-42 1407,-42"/>
<text text-anchor="start" x="1415" y="-60" font-family="Helvetica,sans-Serif" font-size="10.00">std::map&lt; Level, el</text>
<text text-anchor="middle" x="1481" y="-49" font-family="Helvetica,sans-Serif" font-size="10.00">::base::SubsecondPrecision &gt;</text>
</g>
<!-- Node24&#45;&gt;Node15 -->
<g id="edge29" class="edge"><title>Node24&#45;&gt;Node15</title>
<path fill="none" stroke="#9a32cd" stroke-dasharray="5,2" d="M1565.37,-51.0515C1608.27,-52.076 1659.32,-60.0637 1697,-87 1756.67,-129.654 1779,-223.862 1784.82,-254.307"/>
<polygon fill="#9a32cd" stroke="#9a32cd" points="1565.26,-47.5501 1555.22,-50.9332 1565.18,-54.5496 1565.26,-47.5501"/>
<text text-anchor="middle" x="1635" y="-90" font-family="Helvetica,sans-Serif" font-size="10.00"> m_subsecondPrecisionMap</text>
</g>
<!-- Node25 -->
<g id="node23" class="node"><title>Node25</title>
<g id="a_node23"><a xlink:href="classel_1_1base_1_1_subsecond_precision.html" target="_top" xlink:title="A subsecond precision class containing actual width and offset of the subsecond part. ">
<polygon fill="white" stroke="black" points="1182,-47.5 1182,-66.5 1328,-66.5 1328,-47.5 1182,-47.5"/>
<text text-anchor="middle" x="1255" y="-54.5" font-family="Helvetica,sans-Serif" font-size="10.00">el::base::SubsecondPrecision</text>
</a>
</g>
</g>
<!-- Node25&#45;&gt;Node24 -->
<g id="edge30" class="edge"><title>Node25&#45;&gt;Node24</title>
<path fill="none" stroke="#9a32cd" stroke-dasharray="5,2" d="M1338.3,-57C1360.77,-57 1384.95,-57 1406.87,-57"/>
<polygon fill="#9a32cd" stroke="#9a32cd" points="1338.11,-53.5001 1328.11,-57 1338.11,-60.5001 1338.11,-53.5001"/>
<text text-anchor="middle" x="1367.5" y="-60" font-family="Helvetica,sans-Serif" font-size="10.00"> elements</text>
</g>
<!-- Node26 -->
<g id="node24" class="node"><title>Node26</title>
<polygon fill="white" stroke="#bfbfbf" points="1424.5,-306 1424.5,-336 1537.5,-336 1537.5,-306 1424.5,-306"/>
<text text-anchor="start" x="1432.5" y="-324" font-family="Helvetica,sans-Serif" font-size="10.00">std::map&lt; Level, base</text>
<text text-anchor="middle" x="1481" y="-313" font-family="Helvetica,sans-Serif" font-size="10.00">::FileStreamPtr &gt;</text>
</g>
<!-- Node26&#45;&gt;Node15 -->
<g id="edge31" class="edge"><title>Node26&#45;&gt;Node15</title>
<path fill="none" stroke="#9a32cd" stroke-dasharray="5,2" d="M1547.54,-312.841C1590.3,-307.051 1647.22,-298.462 1697,-288 1716.21,-283.963 1737.43,-278.324 1754.39,-273.525"/>
<polygon fill="#9a32cd" stroke="#9a32cd" points="1546.98,-309.384 1537.54,-314.179 1547.91,-316.322 1546.98,-309.384"/>
<text text-anchor="middle" x="1635" y="-313" font-family="Helvetica,sans-Serif" font-size="10.00"> m_fileStreamMap</text>
</g>
<!-- Node27 -->
<g id="node25" class="node"><title>Node27</title>
<polygon fill="white" stroke="#bfbfbf" points="748,-262 748,-292 853,-292 853,-262 748,-262"/>
<text text-anchor="start" x="756" y="-280" font-family="Helvetica,sans-Serif" font-size="10.00">std::map&lt; Level, el</text>
<text text-anchor="middle" x="800.5" y="-269" font-family="Helvetica,sans-Serif" font-size="10.00">::base::LogFormat &gt;</text>
</g>
<!-- Node27&#45;&gt;Node15 -->
<g id="edge32" class="edge"><title>Node27&#45;&gt;Node15</title>
<path fill="none" stroke="#9a32cd" stroke-dasharray="5,2" d="M863.434,-277C924.095,-277 1019.15,-277 1101.5,-277 1101.5,-277 1101.5,-277 1482,-277 1561.77,-277 1653.18,-272.492 1714.86,-268.785"/>
<polygon fill="#9a32cd" stroke="#9a32cd" points="863.26,-273.5 853.26,-277 863.26,-280.5 863.26,-273.5"/>
<text text-anchor="middle" x="1255" y="-280" font-family="Helvetica,sans-Serif" font-size="10.00"> m_logFormatMap</text>
</g>
<!-- Node28&#45;&gt;Node27 -->
<g id="edge33" class="edge"><title>Node28&#45;&gt;Node27</title>
<path fill="none" stroke="#9a32cd" stroke-dasharray="5,2" d="M459.541,-277C538.508,-277 674.084,-277 747.913,-277"/>
<polygon fill="#9a32cd" stroke="#9a32cd" points="459.258,-273.5 449.258,-277 459.258,-280.5 459.258,-273.5"/>
<text text-anchor="middle" x="519.5" y="-280" font-family="Helvetica,sans-Serif" font-size="10.00"> elements</text>
</g>
<!-- Node29 -->
<g id="node27" class="node"><title>Node29</title>
<g id="a_node27"><a xlink:title="STL class. ">
<polygon fill="white" stroke="#bfbfbf" points="1742.5,-558.5 1742.5,-577.5 1832.5,-577.5 1832.5,-558.5 1742.5,-558.5"/>
<text text-anchor="middle" x="1787.5" y="-565.5" font-family="Helvetica,sans-Serif" font-size="10.00">std::stringstream</text>
</a>
</g>
</g>
<!-- Node29&#45;&gt;Node7 -->
<g id="edge37" class="edge"><title>Node29&#45;&gt;Node7</title>
<path fill="none" stroke="#9a32cd" stroke-dasharray="5,2" d="M1842.78,-575.041C1885.06,-577.439 1942.8,-573.532 1981,-542 2021.36,-508.687 2026.85,-439.02 2027.48,-413.571"/>
<polygon fill="#9a32cd" stroke="#9a32cd" points="1842.88,-571.54 1832.66,-574.331 1842.39,-578.522 1842.88,-571.54"/>
<text text-anchor="middle" x="1929.5" y="-579" font-family="Helvetica,sans-Serif" font-size="10.00"> m_stream</text>
</g>
<!-- Node30 -->
<g id="node28" class="node"><title>Node30</title>
<g id="a_node28"><a xlink:title="STL class. ">
<polygon fill="white" stroke="#bfbfbf" points="1421.5,-557 1421.5,-587 1540.5,-587 1540.5,-557 1421.5,-557"/>
<text text-anchor="start" x="1429.5" y="-575" font-family="Helvetica,sans-Serif" font-size="10.00">std::basic_stringstream</text>
<text text-anchor="middle" x="1481" y="-564" font-family="Helvetica,sans-Serif" font-size="10.00">&lt; char &gt;</text>
</a>
</g>
</g>
<!-- Node30&#45;&gt;Node29 -->
<g id="edge38" class="edge"><title>Node30&#45;&gt;Node29</title>
<path fill="none" stroke="midnightblue" d="M1551.01,-571.094C1609.66,-570.323 1692.11,-569.24 1742.28,-568.581"/>
<polygon fill="midnightblue" stroke="midnightblue" points="1550.66,-567.598 1540.71,-571.229 1550.76,-574.597 1550.66,-567.598"/>
</g>
<!-- Node31 -->
<g id="node29" class="node"><title>Node31</title>
<g id="a_node29"><a xlink:title="STL class. ">
<polygon fill="white" stroke="#bfbfbf" points="1204,-557 1204,-587 1306,-587 1306,-557 1204,-557"/>
<text text-anchor="start" x="1212" y="-575" font-family="Helvetica,sans-Serif" font-size="10.00">std::basic_iostream</text>
<text text-anchor="middle" x="1255" y="-564" font-family="Helvetica,sans-Serif" font-size="10.00">&lt; Char &gt;</text>
</a>
</g>
</g>
<!-- Node31&#45;&gt;Node30 -->
<g id="edge39" class="edge"><title>Node31&#45;&gt;Node30</title>
<path fill="none" stroke="midnightblue" d="M1316.54,-572C1349.05,-572 1388.94,-572 1421.17,-572"/>
<polygon fill="midnightblue" stroke="midnightblue" points="1316.27,-568.5 1306.27,-572 1316.27,-575.5 1316.27,-568.5"/>
</g>
<!-- Node32 -->
<g id="node30" class="node"><title>Node32</title>
<g id="a_node30"><a xlink:title="STL class. ">
<polygon fill="white" stroke="#bfbfbf" points="898.5,-557 898.5,-587 995.5,-587 995.5,-557 898.5,-557"/>
<text text-anchor="start" x="906.5" y="-575" font-family="Helvetica,sans-Serif" font-size="10.00">std::basic_istream</text>
<text text-anchor="middle" x="947" y="-564" font-family="Helvetica,sans-Serif" font-size="10.00">&lt; Char &gt;</text>
</a>
</g>
</g>
<!-- Node32&#45;&gt;Node31 -->
<g id="edge40" class="edge"><title>Node32&#45;&gt;Node31</title>
<path fill="none" stroke="midnightblue" d="M1006.14,-572C1063.34,-572 1149.77,-572 1203.98,-572"/>
<polygon fill="midnightblue" stroke="midnightblue" points="1005.81,-568.5 995.813,-572 1005.81,-575.5 1005.81,-568.5"/>
</g>
<!-- Node33 -->
<g id="node31" class="node"><title>Node33</title>
<g id="a_node31"><a xlink:title="STL class. ">
<polygon fill="white" stroke="#bfbfbf" points="602,-580.5 602,-599.5 718,-599.5 718,-580.5 602,-580.5"/>
<text text-anchor="middle" x="660" y="-587.5" font-family="Helvetica,sans-Serif" font-size="10.00">std::basic_ios&lt; Char &gt;</text>
</a>
</g>
</g>
<!-- Node33&#45;&gt;Node32 -->
<g id="edge41" class="edge"><title>Node33&#45;&gt;Node32</title>
<path fill="none" stroke="midnightblue" d="M728.513,-585.736C780.737,-582.438 851.752,-577.953 898.215,-575.018"/>
<polygon fill="midnightblue" stroke="midnightblue" points="728.091,-582.256 718.331,-586.379 728.532,-589.242 728.091,-582.256"/>
</g>
<!-- Node35 -->
<g id="node33" class="node"><title>Node35</title>
<g id="a_node33"><a xlink:title="STL class. ">
<polygon fill="white" stroke="#bfbfbf" points="897,-606 897,-636 997,-636 997,-606 897,-606"/>
<text text-anchor="start" x="905" y="-624" font-family="Helvetica,sans-Serif" font-size="10.00">std::basic_ostream</text>
<text text-anchor="middle" x="947" y="-613" font-family="Helvetica,sans-Serif" font-size="10.00">&lt; Char &gt;</text>
</a>
</g>
</g>
<!-- Node33&#45;&gt;Node35 -->
<g id="edge44" class="edge"><title>Node33&#45;&gt;Node35</title>
<path fill="none" stroke="midnightblue" d="M728.416,-597.333C780.136,-602.959 850.327,-610.593 896.836,-615.652"/>
<polygon fill="midnightblue" stroke="midnightblue" points="728.651,-593.838 718.331,-596.236 727.894,-600.797 728.651,-593.838"/>
</g>
<!-- Node34 -->
<g id="node32" class="node"><title>Node34</title>
<g id="a_node32"><a xlink:title="STL class. ">
<polygon fill="white" stroke="#bfbfbf" points="359.5,-580.5 359.5,-599.5 434.5,-599.5 434.5,-580.5 359.5,-580.5"/>
<text text-anchor="middle" x="397" y="-587.5" font-family="Helvetica,sans-Serif" font-size="10.00">std::ios_base</text>
</a>
</g>
</g>
<!-- Node34&#45;&gt;Node33 -->
<g id="edge42" class="edge"><title>Node34&#45;&gt;Node33</title>
<path fill="none" stroke="midnightblue" d="M444.683,-590C488.598,-590 554.465,-590 601.578,-590"/>
<polygon fill="midnightblue" stroke="midnightblue" points="444.566,-586.5 434.566,-590 444.566,-593.5 444.566,-586.5"/>
</g>
<!-- Node35&#45;&gt;Node31 -->
<g id="edge43" class="edge"><title>Node35&#45;&gt;Node31</title>
<path fill="none" stroke="midnightblue" d="M1007.14,-611.529C1064.34,-602.371 1150.04,-588.648 1203.94,-580.016"/>
<polygon fill="midnightblue" stroke="midnightblue" points="1006.48,-608.09 997.164,-613.127 1007.59,-615.002 1006.48,-608.09"/>
</g>
<!-- Node36&#45;&gt;Node4 -->
<g id="edge47" class="edge"><title>Node36&#45;&gt;Node4</title>
<path fill="none" stroke="#9a32cd" stroke-dasharray="5,2" d="M1174.14,-14.6239C1226.99,-7.75296 1301.11,-0 1366.5,-0 1366.5,-0 1366.5,-0 2201.5,-0 2390.12,-0 2422.54,-337.357 2426.9,-399.293"/>
<polygon fill="#9a32cd" stroke="#9a32cd" points="1173.65,-11.1582 1164.19,-15.9391 1174.57,-18.0978 1173.65,-11.1582"/>
<text text-anchor="middle" x="1787.5" y="-3" font-family="Helvetica,sans-Serif" font-size="10.00"> m_loggerIds</text>
</g>
</g>
</svg>
