<?xml version="1.0" encoding="UTF-8" standalone="no"?>
<!DOCTYPE svg PUBLIC "-//W3C//DTD SVG 1.1//EN"
 "http://www.w3.org/Graphics/SVG/1.1/DTD/svg11.dtd">
<!-- Generated by graphviz version 2.38.0 (20140413.2041)
 -->
<!-- Title: vpr::Device::verifyPresentationSupport Pages: 1 -->
<svg width="291pt" height="39pt"
 viewBox="0.00 0.00 291.00 39.00" xmlns="http://www.w3.org/2000/svg" xmlns:xlink="http://www.w3.org/1999/xlink">
<g id="graph0" class="graph" transform="scale(1 1) rotate(0) translate(4 35)">
<title>vpr::Device::verifyPresentationSupport</title>
<polygon fill="white" stroke="none" points="-4,4 -4,-35 287,-35 287,4 -4,4"/>
<!-- Node190 -->
<g id="node1" class="node"><title>Node190</title>
<polygon fill="#bfbfbf" stroke="black" points="0,-0.5 0,-30.5 146,-30.5 146,-0.5 0,-0.5"/>
<text text-anchor="start" x="8" y="-18.5" font-family="Helvetica,sans-Serif" font-size="10.00">vpr::Device::verifyPresentation</text>
<text text-anchor="middle" x="73" y="-7.5" font-family="Helvetica,sans-Serif" font-size="10.00">Support</text>
</g>
<!-- Node191 -->
<g id="node2" class="node"><title>Node191</title>
<g id="a_node2"><a xlink:href="classvpr_1_1_physical_device.html#a00de7d3556d98b1cfda28d1f769f8fa8" target="_top" xlink:title="vpr::PhysicalDevice\l::vkHandle">
<polygon fill="white" stroke="black" points="182,-0.5 182,-30.5 283,-30.5 283,-0.5 182,-0.5"/>
<text text-anchor="start" x="190" y="-18.5" font-family="Helvetica,sans-Serif" font-size="10.00">vpr::PhysicalDevice</text>
<text text-anchor="middle" x="232.5" y="-7.5" font-family="Helvetica,sans-Serif" font-size="10.00">::vkHandle</text>
</a>
</g>
</g>
<!-- Node190&#45;&gt;Node191 -->
<g id="edge1" class="edge"><title>Node190&#45;&gt;Node191</title>
<path fill="none" stroke="midnightblue" d="M146.296,-15.5C154.712,-15.5 163.226,-15.5 171.451,-15.5"/>
<polygon fill="midnightblue" stroke="midnightblue" points="171.686,-19.0001 181.686,-15.5 171.686,-12.0001 171.686,-19.0001"/>
</g>
</g>
</svg>
