<?xml version="1.0" encoding="UTF-8" standalone="no"?>
<!DOCTYPE svg PUBLIC "-//W3C//DTD SVG 1.1//EN"
 "http://www.w3.org/Graphics/SVG/1.1/DTD/svg11.dtd">
<!-- Generated by graphviz version 2.38.0 (20140413.2041)
 -->
<!-- Title: el::base::TypedConfigurations::unsafeGetConfigByRef Pages: 1 -->
<svg width="305pt" height="39pt"
 viewBox="0.00 0.00 305.00 39.00" xmlns="http://www.w3.org/2000/svg" xmlns:xlink="http://www.w3.org/1999/xlink">
<g id="graph0" class="graph" transform="scale(1 1) rotate(0) translate(4 35)">
<title>el::base::TypedConfigurations::unsafeGetConfigByRef</title>
<polygon fill="white" stroke="none" points="-4,4 -4,-35 301,-35 301,4 -4,4"/>
<!-- Node145 -->
<g id="node1" class="node"><title>Node145</title>
<polygon fill="#bfbfbf" stroke="black" points="0,-0.5 0,-30.5 145,-30.5 145,-0.5 0,-0.5"/>
<text text-anchor="start" x="8" y="-18.5" font-family="Helvetica,sans-Serif" font-size="10.00">el::base::TypedConfigurations</text>
<text text-anchor="middle" x="72.5" y="-7.5" font-family="Helvetica,sans-Serif" font-size="10.00">::unsafeGetConfigByRef</text>
</g>
<!-- Node146 -->
<g id="node2" class="node"><title>Node146</title>
<g id="a_node2"><a xlink:href="classel_1_1_level_helper.html#ad8a9958d58a2912ef58d00ab0ade7587" target="_top" xlink:title="Converts level to associated const char*. ">
<polygon fill="white" stroke="black" points="181,-0.5 181,-30.5 297,-30.5 297,-0.5 181,-0.5"/>
<text text-anchor="start" x="189" y="-18.5" font-family="Helvetica,sans-Serif" font-size="10.00">el::LevelHelper::convert</text>
<text text-anchor="middle" x="239" y="-7.5" font-family="Helvetica,sans-Serif" font-size="10.00">ToString</text>
</a>
</g>
</g>
<!-- Node145&#45;&gt;Node146 -->
<g id="edge1" class="edge"><title>Node145&#45;&gt;Node146</title>
<path fill="none" stroke="midnightblue" d="M145.174,-15.5C153.668,-15.5 162.315,-15.5 170.745,-15.5"/>
<polygon fill="midnightblue" stroke="midnightblue" points="170.895,-19.0001 180.895,-15.5 170.895,-12.0001 170.895,-19.0001"/>
</g>
</g>
</svg>
