<?xml version="1.0" encoding="UTF-8" standalone="no"?>
<!DOCTYPE svg PUBLIC "-//W3C//DTD SVG 1.1//EN"
 "http://www.w3.org/Graphics/SVG/1.1/DTD/svg11.dtd">
<!-- Generated by graphviz version 2.38.0 (20140413.2041)
 -->
<!-- Title: vpr::Instance::extensionCheck Pages: 1 -->
<svg width="794pt" height="88pt"
 viewBox="0.00 0.00 794.00 88.00" xmlns="http://www.w3.org/2000/svg" xmlns:xlink="http://www.w3.org/1999/xlink">
<g id="graph0" class="graph" transform="scale(1 1) rotate(0) translate(4 84)">
<title>vpr::Instance::extensionCheck</title>
<polygon fill="white" stroke="none" points="-4,4 -4,-84 790,-84 790,4 -4,4"/>
<!-- Node48 -->
<g id="node1" class="node"><title>Node48</title>
<polygon fill="#bfbfbf" stroke="black" points="0,-24.5 0,-54.5 119,-54.5 119,-24.5 0,-24.5"/>
<text text-anchor="start" x="8" y="-42.5" font-family="Helvetica,sans-Serif" font-size="10.00">vpr::Instance::extension</text>
<text text-anchor="middle" x="59.5" y="-31.5" font-family="Helvetica,sans-Serif" font-size="10.00">Check</text>
</g>
<!-- Node49 -->
<g id="node2" class="node"><title>Node49</title>
<g id="a_node2"><a xlink:href="classvpr_1_1_instance.html#a768d30a4546bc9401107839450a4ce23" target="_top" xlink:title="vpr::Instance::checkOptional\lExtensions">
<polygon fill="white" stroke="black" points="156,-49.5 156,-79.5 296,-79.5 296,-49.5 156,-49.5"/>
<text text-anchor="start" x="164" y="-67.5" font-family="Helvetica,sans-Serif" font-size="10.00">vpr::Instance::checkOptional</text>
<text text-anchor="middle" x="226" y="-56.5" font-family="Helvetica,sans-Serif" font-size="10.00">Extensions</text>
</a>
</g>
</g>
<!-- Node48&#45;&gt;Node49 -->
<g id="edge1" class="edge"><title>Node48&#45;&gt;Node49</title>
<path fill="none" stroke="midnightblue" d="M129.522,-49.9896C138.224,-51.3121 147.129,-52.6655 155.833,-53.9883"/>
<polygon fill="midnightblue" stroke="midnightblue" points="129.836,-46.4973 119.424,-48.455 128.784,-53.4178 129.836,-46.4973"/>
</g>
<!-- Node53 -->
<g id="node6" class="node"><title>Node53</title>
<g id="a_node6"><a xlink:href="classvpr_1_1_instance.html#afd2bf68c4ad36c3cd7d43207f3663870" target="_top" xlink:title="vpr::Instance::checkRequired\lExtensions">
<polygon fill="white" stroke="black" points="155,-0.5 155,-30.5 297,-30.5 297,-0.5 155,-0.5"/>
<text text-anchor="start" x="163" y="-18.5" font-family="Helvetica,sans-Serif" font-size="10.00">vpr::Instance::checkRequired</text>
<text text-anchor="middle" x="226" y="-7.5" font-family="Helvetica,sans-Serif" font-size="10.00">Extensions</text>
</a>
</g>
</g>
<!-- Node48&#45;&gt;Node53 -->
<g id="edge5" class="edge"><title>Node48&#45;&gt;Node53</title>
<path fill="none" stroke="midnightblue" d="M129.559,-29.4245C137.966,-28.198 146.561,-26.944 154.981,-25.7155"/>
<polygon fill="midnightblue" stroke="midnightblue" points="128.814,-25.9961 119.424,-30.9032 129.824,-32.9228 128.814,-25.9961"/>
</g>
<!-- Node50 -->
<g id="node3" class="node"><title>Node50</title>
<g id="a_node3"><a xlink:href="classvpr_1_1_instance.html#adaf88c2f093cb1f2fe411c07233f1004" target="_top" xlink:title="vpr::Instance::prepareOptional\lExtensions">
<polygon fill="white" stroke="black" points="334,-49.5 334,-79.5 480,-79.5 480,-49.5 334,-49.5"/>
<text text-anchor="start" x="342" y="-67.5" font-family="Helvetica,sans-Serif" font-size="10.00">vpr::Instance::prepareOptional</text>
<text text-anchor="middle" x="407" y="-56.5" font-family="Helvetica,sans-Serif" font-size="10.00">Extensions</text>
</a>
</g>
</g>
<!-- Node49&#45;&gt;Node50 -->
<g id="edge2" class="edge"><title>Node49&#45;&gt;Node50</title>
<path fill="none" stroke="midnightblue" d="M306.395,-64.5C315.49,-64.5 324.726,-64.5 333.721,-64.5"/>
<polygon fill="midnightblue" stroke="midnightblue" points="306.206,-61.0001 296.206,-64.5 306.206,-68.0001 306.206,-61.0001"/>
</g>
<!-- Node51 -->
<g id="node4" class="node"><title>Node51</title>
<g id="a_node4"><a xlink:href="classvpr_1_1_instance.html#ad1fadb1385b0906b157ed42ff392d59e" target="_top" xlink:title="vpr::Instance::extension\lSetup">
<polygon fill="white" stroke="black" points="517,-24.5 517,-54.5 636,-54.5 636,-24.5 517,-24.5"/>
<text text-anchor="start" x="525" y="-42.5" font-family="Helvetica,sans-Serif" font-size="10.00">vpr::Instance::extension</text>
<text text-anchor="middle" x="576.5" y="-31.5" font-family="Helvetica,sans-Serif" font-size="10.00">Setup</text>
</a>
</g>
</g>
<!-- Node50&#45;&gt;Node51 -->
<g id="edge3" class="edge"><title>Node50&#45;&gt;Node51</title>
<path fill="none" stroke="midnightblue" d="M490.173,-52.2354C499.205,-50.8872 508.263,-49.5354 516.924,-48.2427"/>
<polygon fill="midnightblue" stroke="midnightblue" points="489.381,-48.8147 480.007,-53.7527 490.414,-55.738 489.381,-48.8147"/>
</g>
<!-- Node52 -->
<g id="node5" class="node"><title>Node52</title>
<g id="a_node5"><a xlink:href="classvpr_1_1_instance.html#a875cd0ca8909a26c346b9d83b85280a2" target="_top" xlink:title="vpr::Instance::Instance">
<polygon fill="white" stroke="black" points="672,-30 672,-49 786,-49 786,-30 672,-30"/>
<text text-anchor="middle" x="729" y="-37" font-family="Helvetica,sans-Serif" font-size="10.00">vpr::Instance::Instance</text>
</a>
</g>
</g>
<!-- Node51&#45;&gt;Node52 -->
<g id="edge4" class="edge"><title>Node51&#45;&gt;Node52</title>
<path fill="none" stroke="midnightblue" d="M646.394,-39.5C654.887,-39.5 663.489,-39.5 671.762,-39.5"/>
<polygon fill="midnightblue" stroke="midnightblue" points="646.118,-36.0001 636.118,-39.5 646.118,-43.0001 646.118,-36.0001"/>
</g>
<!-- Node54 -->
<g id="node7" class="node"><title>Node54</title>
<g id="a_node7"><a xlink:href="classvpr_1_1_instance.html#a7d3ba80f5dbf37ed8acacc1625ee41c7" target="_top" xlink:title="vpr::Instance::prepareRequired\lExtensions">
<polygon fill="white" stroke="black" points="333,-0.5 333,-30.5 481,-30.5 481,-0.5 333,-0.5"/>
<text text-anchor="start" x="341" y="-18.5" font-family="Helvetica,sans-Serif" font-size="10.00">vpr::Instance::prepareRequired</text>
<text text-anchor="middle" x="407" y="-7.5" font-family="Helvetica,sans-Serif" font-size="10.00">Extensions</text>
</a>
</g>
</g>
<!-- Node53&#45;&gt;Node54 -->
<g id="edge6" class="edge"><title>Node53&#45;&gt;Node54</title>
<path fill="none" stroke="midnightblue" d="M307.434,-15.5C315.858,-15.5 324.391,-15.5 332.729,-15.5"/>
<polygon fill="midnightblue" stroke="midnightblue" points="307.232,-12.0001 297.232,-15.5 307.232,-19.0001 307.232,-12.0001"/>
</g>
<!-- Node54&#45;&gt;Node51 -->
<g id="edge7" class="edge"><title>Node54&#45;&gt;Node51</title>
<path fill="none" stroke="midnightblue" d="M491.525,-27.4678C500.112,-28.6981 508.702,-29.9289 516.934,-31.1085"/>
<polygon fill="midnightblue" stroke="midnightblue" points="491.863,-23.9806 481.468,-26.0267 490.87,-30.9098 491.863,-23.9806"/>
</g>
</g>
</svg>
