<?xml version="1.0" encoding="UTF-8" standalone="no"?>
<!DOCTYPE svg PUBLIC "-//W3C//DTD SVG 1.1//EN"
 "http://www.w3.org/Graphics/SVG/1.1/DTD/svg11.dtd">
<!-- Generated by graphviz version 2.38.0 (20140413.2041)
 -->
<!-- Title: vpr::Instance::vkSurface Pages: 1 -->
<svg width="814pt" height="121pt"
 viewBox="0.00 0.00 814.00 121.00" xmlns="http://www.w3.org/2000/svg" xmlns:xlink="http://www.w3.org/1999/xlink">
<g id="graph0" class="graph" transform="scale(1 1) rotate(0) translate(4 117)">
<title>vpr::Instance::vkSurface</title>
<polygon fill="white" stroke="none" points="-4,4 -4,-117 810,-117 810,4 -4,4"/>
<!-- Node111 -->
<g id="node1" class="node"><title>Node111</title>
<polygon fill="#bfbfbf" stroke="black" points="0,-50 0,-69 119,-69 119,-50 0,-50"/>
<text text-anchor="middle" x="59.5" y="-57" font-family="Helvetica,sans-Serif" font-size="10.00">vpr::Instance::vkSurface</text>
</g>
<!-- Node112 -->
<g id="node2" class="node"><title>Node112</title>
<g id="a_node2"><a xlink:href="classvpr_1_1_swapchain.html#acf014a8530f47418adba1c9e62c0c78e" target="_top" xlink:title="vpr::Swapchain::Recreate">
<polygon fill="white" stroke="black" points="501,-88 501,-107 628,-107 628,-88 501,-88"/>
<text text-anchor="middle" x="564.5" y="-95" font-family="Helvetica,sans-Serif" font-size="10.00">vpr::Swapchain::Recreate</text>
</a>
</g>
</g>
<!-- Node111&#45;&gt;Node112 -->
<g id="edge1" class="edge"><title>Node111&#45;&gt;Node112</title>
<path fill="none" stroke="midnightblue" d="M111.225,-71.1725C125.328,-74.0148 140.699,-76.7401 155,-78.5 276.905,-93.5018 420.602,-96.9046 500.966,-97.5342"/>
<polygon fill="midnightblue" stroke="midnightblue" points="111.715,-67.6997 101.212,-69.0943 110.292,-74.5536 111.715,-67.6997"/>
</g>
<!-- Node114 -->
<g id="node4" class="node"><title>Node114</title>
<g id="a_node4"><a xlink:href="classvpr_1_1_swapchain.html#ab96b4ceb2bb9b542dcb7645e9bcddf42" target="_top" xlink:title="vpr::Swapchain::setupCreateInfo">
<polygon fill="white" stroke="black" points="155,-50 155,-69 310,-69 310,-50 155,-50"/>
<text text-anchor="middle" x="232.5" y="-57" font-family="Helvetica,sans-Serif" font-size="10.00">vpr::Swapchain::setupCreateInfo</text>
</a>
</g>
</g>
<!-- Node111&#45;&gt;Node114 -->
<g id="edge3" class="edge"><title>Node111&#45;&gt;Node114</title>
<path fill="none" stroke="midnightblue" d="M129.388,-59.5C137.726,-59.5 146.283,-59.5 154.726,-59.5"/>
<polygon fill="midnightblue" stroke="midnightblue" points="129.349,-56.0001 119.348,-59.5 129.348,-63.0001 129.349,-56.0001"/>
</g>
<!-- Node117 -->
<g id="node7" class="node"><title>Node117</title>
<g id="a_node7"><a xlink:href="classvpr_1_1_device.html#ad468caae9ccd5b6b2f9dd00bd32faca3" target="_top" xlink:title="vpr::Device::VerifyPresentation\lSupport">
<polygon fill="white" stroke="black" points="158,-0.5 158,-30.5 307,-30.5 307,-0.5 158,-0.5"/>
<text text-anchor="start" x="166" y="-18.5" font-family="Helvetica,sans-Serif" font-size="10.00">vpr::Device::VerifyPresentation</text>
<text text-anchor="middle" x="232.5" y="-7.5" font-family="Helvetica,sans-Serif" font-size="10.00">Support</text>
</a>
</g>
</g>
<!-- Node111&#45;&gt;Node117 -->
<g id="edge7" class="edge"><title>Node111&#45;&gt;Node117</title>
<path fill="none" stroke="midnightblue" d="M107.515,-47.4026C127.739,-42.1987 151.594,-36.0605 172.951,-30.5654"/>
<polygon fill="midnightblue" stroke="midnightblue" points="106.417,-44.0711 97.6045,-49.9527 108.161,-50.8502 106.417,-44.0711"/>
</g>
<!-- Node113 -->
<g id="node3" class="node"><title>Node113</title>
<g id="a_node3"><a xlink:href="namespacevpr.html#a94afd8081f855771118d14af569f9bba" target="_top" xlink:title="Pass a swapchain and instance pointer to this to have the swapchain and surface destroyed and recreat...">
<polygon fill="white" stroke="black" points="668,-82.5 668,-112.5 806,-112.5 806,-82.5 668,-82.5"/>
<text text-anchor="start" x="676" y="-100.5" font-family="Helvetica,sans-Serif" font-size="10.00">vpr::RecreateSwapchainAnd</text>
<text text-anchor="middle" x="737" y="-89.5" font-family="Helvetica,sans-Serif" font-size="10.00">Surface</text>
</a>
</g>
</g>
<!-- Node112&#45;&gt;Node113 -->
<g id="edge2" class="edge"><title>Node112&#45;&gt;Node113</title>
<path fill="none" stroke="midnightblue" d="M638.144,-97.5C647.961,-97.5 658.005,-97.5 667.741,-97.5"/>
<polygon fill="midnightblue" stroke="midnightblue" points="638.02,-94.0001 628.02,-97.5 638.02,-101 638.02,-94.0001"/>
</g>
<!-- Node115 -->
<g id="node5" class="node"><title>Node115</title>
<g id="a_node5"><a xlink:href="classvpr_1_1_swapchain.html#ad75f5394aaa57d86286a71e5d54ab3c6" target="_top" xlink:title="vpr::Swapchain::create">
<polygon fill="white" stroke="black" points="346,-50 346,-69 461,-69 461,-50 346,-50"/>
<text text-anchor="middle" x="403.5" y="-57" font-family="Helvetica,sans-Serif" font-size="10.00">vpr::Swapchain::create</text>
</a>
</g>
</g>
<!-- Node114&#45;&gt;Node115 -->
<g id="edge4" class="edge"><title>Node114&#45;&gt;Node115</title>
<path fill="none" stroke="midnightblue" d="M320.287,-59.5C328.98,-59.5 337.642,-59.5 345.902,-59.5"/>
<polygon fill="midnightblue" stroke="midnightblue" points="320.088,-56.0001 310.088,-59.5 320.088,-63.0001 320.088,-56.0001"/>
</g>
<!-- Node115&#45;&gt;Node112 -->
<g id="edge6" class="edge"><title>Node115&#45;&gt;Node112</title>
<path fill="none" stroke="midnightblue" d="M454.577,-71.468C476.858,-76.7931 502.729,-82.9762 523.666,-87.9799"/>
<polygon fill="midnightblue" stroke="midnightblue" points="455.162,-68.0094 444.622,-69.089 453.535,-74.8177 455.162,-68.0094"/>
</g>
<!-- Node116 -->
<g id="node6" class="node"><title>Node116</title>
<g id="a_node6"><a xlink:href="classvpr_1_1_swapchain.html#a49bc91a7423fe49320b0375e78653439" target="_top" xlink:title="vpr::Swapchain::Swapchain">
<polygon fill="white" stroke="black" points="497,-50 497,-69 632,-69 632,-50 497,-50"/>
<text text-anchor="middle" x="564.5" y="-57" font-family="Helvetica,sans-Serif" font-size="10.00">vpr::Swapchain::Swapchain</text>
</a>
</g>
</g>
<!-- Node115&#45;&gt;Node116 -->
<g id="edge5" class="edge"><title>Node115&#45;&gt;Node116</title>
<path fill="none" stroke="midnightblue" d="M471.22,-59.5C479.698,-59.5 488.374,-59.5 496.851,-59.5"/>
<polygon fill="midnightblue" stroke="midnightblue" points="471.005,-56.0001 461.005,-59.5 471.005,-63.0001 471.005,-56.0001"/>
</g>
<!-- Node118 -->
<g id="node8" class="node"><title>Node118</title>
<g id="a_node8"><a xlink:href="classvpr_1_1_device.html#a3b0734cd598d9a64f3c459e9dc4e84ce" target="_top" xlink:title="vpr::Device::create">
<polygon fill="white" stroke="black" points="355.5,-6 355.5,-25 451.5,-25 451.5,-6 355.5,-6"/>
<text text-anchor="middle" x="403.5" y="-13" font-family="Helvetica,sans-Serif" font-size="10.00">vpr::Device::create</text>
</a>
</g>
</g>
<!-- Node117&#45;&gt;Node118 -->
<g id="edge8" class="edge"><title>Node117&#45;&gt;Node118</title>
<path fill="none" stroke="midnightblue" d="M317.155,-15.5C330.294,-15.5 343.46,-15.5 355.382,-15.5"/>
<polygon fill="midnightblue" stroke="midnightblue" points="317.134,-12.0001 307.134,-15.5 317.134,-19.0001 317.134,-12.0001"/>
</g>
<!-- Node119 -->
<g id="node9" class="node"><title>Node119</title>
<g id="a_node9"><a xlink:href="classvpr_1_1_device.html#a870f832d4e57cf09fc0705718a498aff" target="_top" xlink:title="vpr::Device::Device">
<polygon fill="white" stroke="black" points="515.5,-6 515.5,-25 613.5,-25 613.5,-6 515.5,-6"/>
<text text-anchor="middle" x="564.5" y="-13" font-family="Helvetica,sans-Serif" font-size="10.00">vpr::Device::Device</text>
</a>
</g>
</g>
<!-- Node118&#45;&gt;Node119 -->
<g id="edge9" class="edge"><title>Node118&#45;&gt;Node119</title>
<path fill="none" stroke="midnightblue" d="M461.879,-15.5C479.394,-15.5 498.466,-15.5 515.307,-15.5"/>
<polygon fill="midnightblue" stroke="midnightblue" points="461.775,-12.0001 451.775,-15.5 461.775,-19.0001 461.775,-12.0001"/>
</g>
</g>
</svg>
