<?xml version="1.0" encoding="UTF-8" standalone="no"?>
<!DOCTYPE svg PUBLIC "-//W3C//DTD SVG 1.1//EN"
 "http://www.w3.org/Graphics/SVG/1.1/DTD/svg11.dtd">
<!-- Generated by graphviz version 2.38.0 (20140413.2041)
 -->
<!-- Title: el::base::threading::ThreadSafe Pages: 1 -->
<svg width="107pt" height="174pt"
 viewBox="0.00 0.00 107.00 174.00" xmlns="http://www.w3.org/2000/svg" xmlns:xlink="http://www.w3.org/1999/xlink">
<g id="graph0" class="graph" transform="scale(1 1) rotate(0) translate(4 170)">
<title>el::base::threading::ThreadSafe</title>
<polygon fill="white" stroke="none" points="-4,4 -4,-170 103,-170 103,4 -4,4"/>
<!-- Node27 -->
<g id="node1" class="node"><title>Node27</title>
<polygon fill="#bfbfbf" stroke="black" points="1,-0.5 1,-30.5 98,-30.5 98,-0.5 1,-0.5"/>
<text text-anchor="start" x="9" y="-18.5" font-family="Helvetica,sans-Serif" font-size="10.00">el::base::threading</text>
<text text-anchor="middle" x="49.5" y="-7.5" font-family="Helvetica,sans-Serif" font-size="10.00">::ThreadSafe</text>
</g>
<!-- Node28 -->
<g id="node2" class="node"><title>Node28</title>
<g id="a_node2"><a xlink:href="classel_1_1base_1_1threading_1_1internal_1_1_no_mutex.html" target="_top" xlink:title="Mutex wrapper used when multi&#45;threading is disabled. ">
<polygon fill="white" stroke="black" points="0,-78.5 0,-108.5 99,-108.5 99,-78.5 0,-78.5"/>
<text text-anchor="start" x="8" y="-96.5" font-family="Helvetica,sans-Serif" font-size="10.00">el::base::threading</text>
<text text-anchor="middle" x="49.5" y="-85.5" font-family="Helvetica,sans-Serif" font-size="10.00">::internal::NoMutex</text>
</a>
</g>
</g>
<!-- Node28&#45;&gt;Node27 -->
<g id="edge1" class="edge"><title>Node28&#45;&gt;Node27</title>
<path fill="none" stroke="#9a32cd" stroke-dasharray="5,2" d="M49.5,-68.0898C49.5,-55.7565 49.5,-41.2237 49.5,-30.7309"/>
<polygon fill="#9a32cd" stroke="#9a32cd" points="46.0001,-68.2049 49.5,-78.205 53.0001,-68.205 46.0001,-68.2049"/>
<text text-anchor="middle" x="71.5" y="-52" font-family="Helvetica,sans-Serif" font-size="10.00"> m_mutex</text>
</g>
<!-- Node29 -->
<g id="node3" class="node"><title>Node29</title>
<g id="a_node3"><a xlink:href="classel_1_1base_1_1_no_copy.html" target="_top" xlink:title="Internal helper class that prevent copy constructor for class. ">
<polygon fill="white" stroke="black" points="3.5,-146.5 3.5,-165.5 95.5,-165.5 95.5,-146.5 3.5,-146.5"/>
<text text-anchor="middle" x="49.5" y="-153.5" font-family="Helvetica,sans-Serif" font-size="10.00">el::base::NoCopy</text>
</a>
</g>
</g>
<!-- Node29&#45;&gt;Node28 -->
<g id="edge2" class="edge"><title>Node29&#45;&gt;Node28</title>
<path fill="none" stroke="#8b1a1a" d="M49.5,-136.215C49.5,-127.356 49.5,-116.958 49.5,-108.759"/>
<polygon fill="#8b1a1a" stroke="#8b1a1a" points="46.0001,-136.332 49.5,-146.332 53.0001,-136.332 46.0001,-136.332"/>
</g>
</g>
</svg>
