<?xml version="1.0" encoding="UTF-8" standalone="no"?>
<!DOCTYPE svg PUBLIC "-//W3C//DTD SVG 1.1//EN"
 "http://www.w3.org/Graphics/SVG/1.1/DTD/svg11.dtd">
<!-- Generated by graphviz version 2.38.0 (20140413.2041)
 -->
<!-- Title: vpr::Allocation::operator== Pages: 1 -->
<svg width="327pt" height="154pt"
 viewBox="0.00 0.00 327.00 153.50" xmlns="http://www.w3.org/2000/svg" xmlns:xlink="http://www.w3.org/1999/xlink">
<g id="graph0" class="graph" transform="scale(1 1) rotate(0) translate(4 149.5)">
<title>vpr::Allocation::operator==</title>
<polygon fill="white" stroke="none" points="-4,4 -4,-149.5 323,-149.5 323,4 -4,4"/>
<!-- Node56 -->
<g id="node1" class="node"><title>Node56</title>
<polygon fill="#bfbfbf" stroke="black" points="0,-57.5 0,-76.5 131,-76.5 131,-57.5 0,-57.5"/>
<text text-anchor="middle" x="65.5" y="-64.5" font-family="Helvetica,sans-Serif" font-size="10.00">vpr::Allocation::operator==</text>
</g>
<!-- Node57 -->
<g id="node2" class="node"><title>Node57</title>
<g id="a_node2"><a xlink:href="classvpr_1_1_allocation.html#ad23615cd9f84e8e2354cf1f1e7e8f162" target="_top" xlink:title="vpr::Allocation::IsPrivate\lAllocation">
<polygon fill="white" stroke="black" points="183,-115 183,-145 303,-145 303,-115 183,-115"/>
<text text-anchor="start" x="191" y="-133" font-family="Helvetica,sans-Serif" font-size="10.00">vpr::Allocation::IsPrivate</text>
<text text-anchor="middle" x="243" y="-122" font-family="Helvetica,sans-Serif" font-size="10.00">Allocation</text>
</a>
</g>
</g>
<!-- Node56&#45;&gt;Node57 -->
<g id="edge1" class="edge"><title>Node56&#45;&gt;Node57</title>
<path fill="none" stroke="midnightblue" d="M91.1799,-76.6448C111.463,-84.4956 140.988,-95.7512 167,-105 173.256,-107.224 179.826,-109.501 186.367,-111.73"/>
<polygon fill="midnightblue" stroke="midnightblue" points="185.297,-115.063 195.891,-114.951 187.539,-108.432 185.297,-115.063"/>
</g>
<!-- Node58 -->
<g id="node3" class="node"><title>Node58</title>
<g id="a_node3"><a xlink:href="classvpr_1_1_allocation.html#a1a223e41ca865271544ece71d18edce2" target="_top" xlink:title="vpr::Allocation::Memory">
<polygon fill="white" stroke="black" points="183.5,-76.5 183.5,-95.5 302.5,-95.5 302.5,-76.5 183.5,-76.5"/>
<text text-anchor="middle" x="243" y="-83.5" font-family="Helvetica,sans-Serif" font-size="10.00">vpr::Allocation::Memory</text>
</a>
</g>
</g>
<!-- Node56&#45;&gt;Node58 -->
<g id="edge2" class="edge"><title>Node56&#45;&gt;Node58</title>
<path fill="none" stroke="midnightblue" d="M131.351,-74.0209C144.89,-75.4867 159.211,-77.0371 172.897,-78.5188"/>
<polygon fill="midnightblue" stroke="midnightblue" points="172.897,-82.0392 183.216,-79.6359 173.651,-75.0798 172.897,-82.0392"/>
</g>
<!-- Node59 -->
<g id="node4" class="node"><title>Node59</title>
<g id="a_node4"><a xlink:href="classvpr_1_1_allocation.html#ab07876bad87d1c3e085ab02c1c608179" target="_top" xlink:title="vpr::Allocation::MemoryTypeIdx">
<polygon fill="white" stroke="black" points="167,-38.5 167,-57.5 319,-57.5 319,-38.5 167,-38.5"/>
<text text-anchor="middle" x="243" y="-45.5" font-family="Helvetica,sans-Serif" font-size="10.00">vpr::Allocation::MemoryTypeIdx</text>
</a>
</g>
</g>
<!-- Node56&#45;&gt;Node59 -->
<g id="edge3" class="edge"><title>Node56&#45;&gt;Node59</title>
<path fill="none" stroke="midnightblue" d="M131.351,-59.9791C139.632,-59.0825 148.206,-58.1543 156.749,-57.2295"/>
<polygon fill="midnightblue" stroke="midnightblue" points="157.178,-60.7036 166.743,-56.1475 156.424,-53.7443 157.178,-60.7036"/>
</g>
<!-- Node60 -->
<g id="node5" class="node"><title>Node60</title>
<g id="a_node5"><a xlink:href="classvpr_1_1_allocation.html#acb642a53c185ac6530ed60959b0e4397" target="_top" xlink:title="vpr::Allocation::Offset">
<polygon fill="white" stroke="black" points="188.5,-0.5 188.5,-19.5 297.5,-19.5 297.5,-0.5 188.5,-0.5"/>
<text text-anchor="middle" x="243" y="-7.5" font-family="Helvetica,sans-Serif" font-size="10.00">vpr::Allocation::Offset</text>
</a>
</g>
</g>
<!-- Node56&#45;&gt;Node60 -->
<g id="edge4" class="edge"><title>Node56&#45;&gt;Node60</title>
<path fill="none" stroke="midnightblue" d="M89.3917,-57.4941C109.595,-49.31 139.954,-37.509 167,-29 174.743,-26.564 183.009,-24.2194 191.121,-22.0587"/>
<polygon fill="midnightblue" stroke="midnightblue" points="192.094,-25.4223 200.893,-19.5206 190.334,-18.6471 192.094,-25.4223"/>
</g>
</g>
</svg>
