<?xml version="1.0" encoding="UTF-8" standalone="no"?>
<!DOCTYPE svg PUBLIC "-//W3C//DTD SVG 1.1//EN"
 "http://www.w3.org/Graphics/SVG/1.1/DTD/svg11.dtd">
<!-- Generated by graphviz version 2.38.0 (20140413.2041)
 -->
<!-- Title: vpr::Buffer::CopyTo Pages: 1 -->
<svg width="294pt" height="214pt"
 viewBox="0.00 0.00 294.00 214.00" xmlns="http://www.w3.org/2000/svg" xmlns:xlink="http://www.w3.org/1999/xlink">
<g id="graph0" class="graph" transform="scale(1 1) rotate(0) translate(4 210)">
<title>vpr::Buffer::CopyTo</title>
<polygon fill="white" stroke="none" points="-4,4 -4,-210 290,-210 290,4 -4,4"/>
<!-- Node18 -->
<g id="node1" class="node"><title>Node18</title>
<polygon fill="#bfbfbf" stroke="black" points="0,-88 0,-107 98,-107 98,-88 0,-88"/>
<text text-anchor="middle" x="49" y="-95" font-family="Helvetica,sans-Serif" font-size="10.00">vpr::Buffer::CopyTo</text>
</g>
<!-- Node19 -->
<g id="node2" class="node"><title>Node19</title>
<g id="a_node2"><a xlink:href="classvpr_1_1_buffer.html#ac367138a3788a0a6df49c5c2ad890774" target="_top" xlink:title="vpr::Buffer::createStaging\lBuffer">
<polygon fill="white" stroke="black" points="147.5,-175.5 147.5,-205.5 272.5,-205.5 272.5,-175.5 147.5,-175.5"/>
<text text-anchor="start" x="155.5" y="-193.5" font-family="Helvetica,sans-Serif" font-size="10.00">vpr::Buffer::createStaging</text>
<text text-anchor="middle" x="210" y="-182.5" font-family="Helvetica,sans-Serif" font-size="10.00">Buffer</text>
</a>
</g>
</g>
<!-- Node18&#45;&gt;Node19 -->
<g id="edge1" class="edge"><title>Node18&#45;&gt;Node19</title>
<path fill="none" stroke="midnightblue" d="M59.4372,-107.345C74.1046,-122.128 103.835,-150.072 134,-166.5 137.253,-168.272 140.657,-169.937 144.145,-171.499"/>
<polygon fill="midnightblue" stroke="midnightblue" points="142.946,-174.791 153.523,-175.393 145.63,-168.326 142.946,-174.791"/>
</g>
<!-- Node20 -->
<g id="node3" class="node"><title>Node20</title>
<g id="a_node3"><a xlink:href="classvpr_1_1_command_pool.html#ac46b6fae9d0650041a4929698d59508a" target="_top" xlink:title="vpr::CommandPool::EndSingle\lCmdBuffer">
<polygon fill="white" stroke="black" points="135.5,-126.5 135.5,-156.5 284.5,-156.5 284.5,-126.5 135.5,-126.5"/>
<text text-anchor="start" x="143.5" y="-144.5" font-family="Helvetica,sans-Serif" font-size="10.00">vpr::CommandPool::EndSingle</text>
<text text-anchor="middle" x="210" y="-133.5" font-family="Helvetica,sans-Serif" font-size="10.00">CmdBuffer</text>
</a>
</g>
</g>
<!-- Node18&#45;&gt;Node20 -->
<g id="edge2" class="edge"><title>Node18&#45;&gt;Node20</title>
<path fill="none" stroke="midnightblue" d="M84.5006,-107.047C102.162,-111.935 124.242,-118.045 144.884,-123.757"/>
<polygon fill="midnightblue" stroke="midnightblue" points="143.988,-127.141 154.559,-126.435 145.855,-120.394 143.988,-127.141"/>
</g>
<!-- Node21 -->
<g id="node4" class="node"><title>Node21</title>
<g id="a_node4"><a xlink:href="classvpr_1_1_allocation.html#a1a223e41ca865271544ece71d18edce2" target="_top" xlink:title="vpr::Allocation::Memory">
<polygon fill="white" stroke="black" points="150.5,-88 150.5,-107 269.5,-107 269.5,-88 150.5,-88"/>
<text text-anchor="middle" x="210" y="-95" font-family="Helvetica,sans-Serif" font-size="10.00">vpr::Allocation::Memory</text>
</a>
</g>
</g>
<!-- Node18&#45;&gt;Node21 -->
<g id="edge3" class="edge"><title>Node18&#45;&gt;Node21</title>
<path fill="none" stroke="midnightblue" d="M98.1367,-97.5C111.376,-97.5 125.997,-97.5 140.158,-97.5"/>
<polygon fill="midnightblue" stroke="midnightblue" points="140.362,-101 150.362,-97.5 140.362,-94.0001 140.362,-101"/>
</g>
<!-- Node22 -->
<g id="node5" class="node"><title>Node22</title>
<g id="a_node5"><a xlink:href="classvpr_1_1_allocation.html#acb642a53c185ac6530ed60959b0e4397" target="_top" xlink:title="vpr::Allocation::Offset">
<polygon fill="white" stroke="black" points="155.5,-50 155.5,-69 264.5,-69 264.5,-50 155.5,-50"/>
<text text-anchor="middle" x="210" y="-57" font-family="Helvetica,sans-Serif" font-size="10.00">vpr::Allocation::Offset</text>
</a>
</g>
</g>
<!-- Node18&#45;&gt;Node22 -->
<g id="edge4" class="edge"><title>Node18&#45;&gt;Node22</title>
<path fill="none" stroke="midnightblue" d="M90.1224,-87.911C111.104,-82.8965 136.982,-76.7119 159.23,-71.3947"/>
<polygon fill="midnightblue" stroke="midnightblue" points="160.254,-74.7487 169.166,-69.0201 158.626,-67.9405 160.254,-74.7487"/>
</g>
<!-- Node23 -->
<g id="node6" class="node"><title>Node23</title>
<g id="a_node6"><a xlink:href="classvpr_1_1_command_pool.html#a27e9ae2e084faaffe032cb9b92ad2fa4" target="_top" xlink:title="vpr::CommandPool::StartSingle\lCmdBuffer">
<polygon fill="white" stroke="black" points="134,-0.5 134,-30.5 286,-30.5 286,-0.5 134,-0.5"/>
<text text-anchor="start" x="142" y="-18.5" font-family="Helvetica,sans-Serif" font-size="10.00">vpr::CommandPool::StartSingle</text>
<text text-anchor="middle" x="210" y="-7.5" font-family="Helvetica,sans-Serif" font-size="10.00">CmdBuffer</text>
</a>
</g>
</g>
<!-- Node18&#45;&gt;Node23 -->
<g id="edge5" class="edge"><title>Node18&#45;&gt;Node23</title>
<path fill="none" stroke="midnightblue" d="M61.872,-87.8836C77.5821,-75.5359 106.508,-54.0857 134,-40.5 138.499,-38.2768 143.243,-36.1786 148.069,-34.2152"/>
<polygon fill="midnightblue" stroke="midnightblue" points="149.343,-37.4752 157.411,-30.608 146.822,-30.9451 149.343,-37.4752"/>
</g>
</g>
</svg>
