<?xml version="1.0" encoding="UTF-8" standalone="no"?>
<!DOCTYPE svg PUBLIC "-//W3C//DTD SVG 1.1//EN"
 "http://www.w3.org/Graphics/SVG/1.1/DTD/svg11.dtd">
<!-- Generated by graphviz version 2.38.0 (20140413.2041)
 -->
<!-- Title: vpr::PhysicalDevice::GetQueueFamilyProperties Pages: 1 -->
<!--zoomable 186 -->
<svg id="main" version="1.1" xmlns="http://www.w3.org/2000/svg" xmlns:xlink="http://www.w3.org/1999/xlink" xml:space="preserve" onload="init(evt)">
<style type="text/css"><![CDATA[
.edge:hover path { stroke: red; }
.edge:hover polygon { stroke: red; fill: red; }
]]></style>
<script type="text/javascript"><![CDATA[
var edges = document.getElementsByTagName('g');
if (edges && edges.length) {
  for (var i=0;i<edges.length;i++) {
    if (edges[i].id.substr(0,4)=='edge') {
      edges[i].setAttribute('class','edge');
    }
  }
}
]]></script>
        <defs>
                <circle id="rim" cx="0" cy="0" r="7"/>
                <circle id="rim2" cx="0" cy="0" r="3.5"/>
                <g id="zoomPlus">
                        <use xlink:href="#rim" fill="#404040">
                                <set attributeName="fill" to="#808080" begin="zoomplus.mouseover" end="zoomplus.mouseout"/>
                        </use>
                        <path d="M-4,0h8M0,-4v8" fill="none" stroke="white" stroke-width="1.5" pointer-events="none"/>
                </g>
                <g id="zoomMin">
                        <use xlink:href="#rim" fill="#404040">
                                <set attributeName="fill" to="#808080" begin="zoomminus.mouseover" end="zoomminus.mouseout"/>
                        </use>
                        <path d="M-4,0h8" fill="none" stroke="white" stroke-width="1.5" pointer-events="none"/>
                </g>
                <g id="dirArrow">
                        <path fill="none" stroke="white" stroke-width="1.5" d="M0,-3.0v7 M-2.5,-0.5L0,-3.0L2.5,-0.5"/>
                </g>
               <g id="resetDef">
                       <use xlink:href="#rim2" fill="#404040">
                               <set attributeName="fill" to="#808080" begin="reset.mouseover" end="reset.mouseout"/>
                       </use>
               </g>
        </defs>

<script type="text/javascript">
var viewWidth = 745;
var viewHeight = 186;
var sectionId = 'dynsection-7';
</script>
<script xlink:href="svgpan.js"/>
<svg id="graph" class="graph">
<g id="viewport">
<title>vpr::PhysicalDevice::GetQueueFamilyProperties</title>
<polygon fill="white" stroke="none" points="-4,4 -4,-182 741,-182 741,4 -4,4"/>
<!-- Node37 -->
<g id="node1" class="node"><title>Node37</title>
<polygon fill="#bfbfbf" stroke="black" points="0,-73.5 0,-103.5 140,-103.5 140,-73.5 0,-73.5"/>
<text text-anchor="start" x="8" y="-91.5" font-family="Helvetica,sans-Serif" font-size="10.00">vpr::PhysicalDevice</text>
<text text-anchor="middle" x="70" y="-80.5" font-family="Helvetica,sans-Serif" font-size="10.00">::GetQueueFamilyProperties</text>
</g>
<!-- Node38 -->
<g id="node2" class="node"><title>Node38</title>
<g id="a_node2"><a xlink:href="classvpr_1_1_device.html#abdb29331fbcc15a242b3f0e82b02beef" target="_top" xlink:title="vpr::Device::setupCompute\lQueues">
<polygon fill="white" stroke="black" points="176,-147.5 176,-177.5 308,-177.5 308,-147.5 176,-147.5"/>
<text text-anchor="start" x="184" y="-165.5" font-family="Helvetica,sans-Serif" font-size="10.00">vpr::Device::setupCompute</text>
<text text-anchor="middle" x="242" y="-154.5" font-family="Helvetica,sans-Serif" font-size="10.00">Queues</text>
</a>
</g>
</g>
<!-- Node37&#45;&gt;Node38 -->
<g id="edge1" class="edge"><title>Node37&#45;&gt;Node38</title>
<path fill="none" stroke="midnightblue" d="M110.208,-108.21C129.782,-117.782 153.937,-129.196 176,-138.5 183.205,-141.538 190.941,-144.581 198.475,-147.43"/>
<polygon fill="midnightblue" stroke="midnightblue" points="111.514,-104.952 100.996,-103.676 108.423,-111.232 111.514,-104.952"/>
</g>
<!-- Node42 -->
<g id="node6" class="node"><title>Node42</title>
<g id="a_node6"><a xlink:href="classvpr_1_1_device.html#adbe15d529a11af4d7034a2135255e773" target="_top" xlink:title="vpr::Device::setupGraphics\lQueues">
<polygon fill="white" stroke="black" points="176,-98.5 176,-128.5 308,-128.5 308,-98.5 176,-98.5"/>
<text text-anchor="start" x="184" y="-116.5" font-family="Helvetica,sans-Serif" font-size="10.00">vpr::Device::setupGraphics</text>
<text text-anchor="middle" x="242" y="-105.5" font-family="Helvetica,sans-Serif" font-size="10.00">Queues</text>
</a>
</g>
</g>
<!-- Node37&#45;&gt;Node42 -->
<g id="edge5" class="edge"><title>Node37&#45;&gt;Node42</title>
<path fill="none" stroke="midnightblue" d="M150.152,-100.14C158.725,-101.401 167.378,-102.673 175.76,-103.906"/>
<polygon fill="midnightblue" stroke="midnightblue" points="150.548,-96.6607 140.146,-98.6685 149.53,-103.586 150.548,-96.6607"/>
</g>
<!-- Node43 -->
<g id="node7" class="node"><title>Node43</title>
<g id="a_node7"><a xlink:href="classvpr_1_1_device.html#a22ee8e6517d4898282d9d6385545100a" target="_top" xlink:title="vpr::Device::setupSparse\lBindingQueues">
<polygon fill="white" stroke="black" points="180,-49.5 180,-79.5 304,-79.5 304,-49.5 180,-49.5"/>
<text text-anchor="start" x="188" y="-67.5" font-family="Helvetica,sans-Serif" font-size="10.00">vpr::Device::setupSparse</text>
<text text-anchor="middle" x="242" y="-56.5" font-family="Helvetica,sans-Serif" font-size="10.00">BindingQueues</text>
</a>
</g>
</g>
<!-- Node37&#45;&gt;Node43 -->
<g id="edge7" class="edge"><title>Node37&#45;&gt;Node43</title>
<path fill="none" stroke="midnightblue" d="M150.082,-77.3355C160.076,-75.9246 170.179,-74.4982 179.836,-73.1349"/>
<polygon fill="midnightblue" stroke="midnightblue" points="149.558,-73.8747 140.146,-78.7383 150.537,-80.8059 149.558,-73.8747"/>
</g>
<!-- Node44 -->
<g id="node8" class="node"><title>Node44</title>
<g id="a_node8"><a xlink:href="classvpr_1_1_device.html#aa64b2412561fa0950722c2dc4997da9f" target="_top" xlink:title="vpr::Device::setupTransfer\lQueues">
<polygon fill="white" stroke="black" points="178,-0.5 178,-30.5 306,-30.5 306,-0.5 178,-0.5"/>
<text text-anchor="start" x="186" y="-18.5" font-family="Helvetica,sans-Serif" font-size="10.00">vpr::Device::setupTransfer</text>
<text text-anchor="middle" x="242" y="-7.5" font-family="Helvetica,sans-Serif" font-size="10.00">Queues</text>
</a>
</g>
</g>
<!-- Node37&#45;&gt;Node44 -->
<g id="edge9" class="edge"><title>Node37&#45;&gt;Node44</title>
<path fill="none" stroke="midnightblue" d="M111.623,-69.2232C130.992,-60.214 154.564,-49.5121 176,-40.5 183.913,-37.1731 192.437,-33.7686 200.624,-30.5855"/>
<polygon fill="midnightblue" stroke="midnightblue" points="110.058,-66.0911 102.48,-73.4951 113.021,-72.433 110.058,-66.0911"/>
</g>
<!-- Node39 -->
<g id="node3" class="node"><title>Node39</title>
<g id="a_node3"><a xlink:href="classvpr_1_1_device.html#af52c3b24f6bca1308a5170eb3acfeb11" target="_top" xlink:title="vpr::Device::setupQueues">
<polygon fill="white" stroke="black" points="344,-79 344,-98 471,-98 471,-79 344,-79"/>
<text text-anchor="middle" x="407.5" y="-86" font-family="Helvetica,sans-Serif" font-size="10.00">vpr::Device::setupQueues</text>
</a>
</g>
</g>
<!-- Node38&#45;&gt;Node39 -->
<g id="edge2" class="edge"><title>Node38&#45;&gt;Node39</title>
<path fill="none" stroke="midnightblue" d="M295.364,-143.77C299.663,-142.049 303.921,-140.281 308,-138.5 336.999,-125.837 369.535,-108.726 389.003,-98.1619"/>
<polygon fill="midnightblue" stroke="midnightblue" points="293.98,-140.552 285.938,-147.449 296.526,-147.073 293.98,-140.552"/>
</g>
<!-- Node40 -->
<g id="node4" class="node"><title>Node40</title>
<g id="a_node4"><a xlink:href="classvpr_1_1_device.html#a3b0734cd598d9a64f3c459e9dc4e84ce" target="_top" xlink:title="vpr::Device::create">
<polygon fill="white" stroke="black" points="507,-79 507,-98 603,-98 603,-79 507,-79"/>
<text text-anchor="middle" x="555" y="-86" font-family="Helvetica,sans-Serif" font-size="10.00">vpr::Device::create</text>
</a>
</g>
</g>
<!-- Node39&#45;&gt;Node40 -->
<g id="edge3" class="edge"><title>Node39&#45;&gt;Node40</title>
<path fill="none" stroke="midnightblue" d="M481.248,-88.5C489.96,-88.5 498.673,-88.5 506.886,-88.5"/>
<polygon fill="midnightblue" stroke="midnightblue" points="481.05,-85.0001 471.05,-88.5 481.049,-92.0001 481.05,-85.0001"/>
</g>
<!-- Node41 -->
<g id="node5" class="node"><title>Node41</title>
<g id="a_node5"><a xlink:href="classvpr_1_1_device.html#a870f832d4e57cf09fc0705718a498aff" target="_top" xlink:title="vpr::Device::Device">
<polygon fill="white" stroke="black" points="639,-79 639,-98 737,-98 737,-79 639,-79"/>
<text text-anchor="middle" x="688" y="-86" font-family="Helvetica,sans-Serif" font-size="10.00">vpr::Device::Device</text>
</a>
</g>
</g>
<!-- Node40&#45;&gt;Node41 -->
<g id="edge4" class="edge"><title>Node40&#45;&gt;Node41</title>
<path fill="none" stroke="midnightblue" d="M613.503,-88.5C621.979,-88.5 630.636,-88.5 638.895,-88.5"/>
<polygon fill="midnightblue" stroke="midnightblue" points="613.294,-85.0001 603.294,-88.5 613.294,-92.0001 613.294,-85.0001"/>
</g>
<!-- Node42&#45;&gt;Node39 -->
<g id="edge6" class="edge"><title>Node42&#45;&gt;Node39</title>
<path fill="none" stroke="midnightblue" d="M318.251,-101.994C326.967,-100.661 335.782,-99.3132 344.296,-98.0113"/>
<polygon fill="midnightblue" stroke="midnightblue" points="317.445,-98.5761 308.089,-103.548 318.503,-105.496 317.445,-98.5761"/>
</g>
<!-- Node43&#45;&gt;Node39 -->
<g id="edge8" class="edge"><title>Node43&#45;&gt;Node39</title>
<path fill="none" stroke="midnightblue" d="M314.49,-74.9939C324.316,-76.4364 334.344,-77.9083 343.992,-79.3246"/>
<polygon fill="midnightblue" stroke="midnightblue" points="314.749,-71.4945 304.347,-73.505 313.732,-78.4203 314.749,-71.4945"/>
</g>
<!-- Node44&#45;&gt;Node39 -->
<g id="edge10" class="edge"><title>Node44&#45;&gt;Node39</title>
<path fill="none" stroke="midnightblue" d="M293.334,-34.3626C298.313,-36.377 303.271,-38.4428 308,-40.5 336.434,-52.8687 368.592,-68.9464 388.204,-78.9954"/>
<polygon fill="midnightblue" stroke="midnightblue" points="294.373,-31.0094 283.787,-30.5681 291.787,-37.5144 294.373,-31.0094"/>
</g>
</g>
</svg>
        <g id="navigator" transform="translate(0 0)" fill="#404254">
                <rect fill="#f2f5e9" fill-opacity="0.5" stroke="#606060" stroke-width=".5" x="0" y="0" width="60" height="60"/>
                <use id="zoomplus" xlink:href="#zoomPlus" x="17" y="9" onmousedown="handleZoom(evt,'in')"/>
                <use id="zoomminus" xlink:href="#zoomMin" x="42" y="9" onmousedown="handleZoom(evt,'out')"/>
                <use id="reset" xlink:href="#resetDef" x="30" y="36" onmousedown="handleReset()"/>
                <g id="arrowUp" xlink:href="#dirArrow" transform="translate(30 24)" onmousedown="handlePan(0,-1)">
                  <use xlink:href="#rim" fill="#404040">
                        <set attributeName="fill" to="#808080" begin="arrowUp.mouseover" end="arrowUp.mouseout"/>
                  </use>
                  <path fill="none" stroke="white" stroke-width="1.5" d="M0,-3.0v7 M-2.5,-0.5L0,-3.0L2.5,-0.5"/>
                </g>
                <g id="arrowRight" xlink:href="#dirArrow" transform="rotate(90) translate(36 -43)" onmousedown="handlePan(1,0)">
                  <use xlink:href="#rim" fill="#404040">
                        <set attributeName="fill" to="#808080" begin="arrowRight.mouseover" end="arrowRight.mouseout"/>
                  </use>
                  <path fill="none" stroke="white" stroke-width="1.5" d="M0,-3.0v7 M-2.5,-0.5L0,-3.0L2.5,-0.5"/>
                </g>
                <g id="arrowDown" xlink:href="#dirArrow" transform="rotate(180) translate(-30 -48)" onmousedown="handlePan(0,1)">
                  <use xlink:href="#rim" fill="#404040">
                        <set attributeName="fill" to="#808080" begin="arrowDown.mouseover" end="arrowDown.mouseout"/>
                  </use>
                  <path fill="none" stroke="white" stroke-width="1.5" d="M0,-3.0v7 M-2.5,-0.5L0,-3.0L2.5,-0.5"/>
                </g>
                <g id="arrowLeft" xlink:href="#dirArrow" transform="rotate(270) translate(-36 17)" onmousedown="handlePan(-1,0)">
                  <use xlink:href="#rim" fill="#404040">
                        <set attributeName="fill" to="#808080" begin="arrowLeft.mouseover" end="arrowLeft.mouseout"/>
                  </use>
                  <path fill="none" stroke="white" stroke-width="1.5" d="M0,-3.0v7 M-2.5,-0.5L0,-3.0L2.5,-0.5"/>
                </g>
        </g>
        <svg viewBox="0 0 15 15" width="100%" height="30px" preserveAspectRatio="xMaxYMin meet">
         <g id="arrow_out" transform="scale(0.3 0.3)">
          <a xlink:href="classvpr_1_1_physical_device_a2ee4f96b16a9762953ecad3b658d84e6_icgraph_org.svg" target="_base">
           <rect id="button" ry="5" rx="5" y="6" x="6" height="38" width="38"
                fill="#f2f5e9" fill-opacity="0.5" stroke="#606060" stroke-width="1.0"/>
           <path id="arrow"
             d="M 11.500037,31.436501 C 11.940474,20.09759 22.043105,11.32322 32.158766,21.979434 L 37.068811,17.246167 C 37.068811,17.246167 37.088388,32 37.088388,32 L 22.160133,31.978069 C 22.160133,31.978069 26.997745,27.140456 26.997745,27.140456 C 18.528582,18.264221 13.291696,25.230495 11.500037,31.436501 z"
             style="fill:#404040;"/>
          </a>
         </g>
        </svg>
</svg>
