<?xml version="1.0" encoding="UTF-8" standalone="no"?>
<!DOCTYPE svg PUBLIC "-//W3C//DTD SVG 1.1//EN"
 "http://www.w3.org/Graphics/SVG/1.1/DTD/svg11.dtd">
<!-- Generated by graphviz version 2.38.0 (20140413.2041)
 -->
<!-- Title: el::base::utils::Str::startsWith Pages: 1 -->
<svg width="413pt" height="110pt"
 viewBox="0.00 0.00 413.00 110.00" xmlns="http://www.w3.org/2000/svg" xmlns:xlink="http://www.w3.org/1999/xlink">
<g id="graph0" class="graph" transform="scale(1 1) rotate(0) translate(4 106)">
<title>el::base::utils::Str::startsWith</title>
<polygon fill="white" stroke="none" points="-4,4 -4,-106 409,-106 409,4 -4,4"/>
<!-- Node57 -->
<g id="node1" class="node"><title>Node57</title>
<polygon fill="#bfbfbf" stroke="black" points="0,-49.5 0,-79.5 94,-79.5 94,-49.5 0,-49.5"/>
<text text-anchor="start" x="8" y="-67.5" font-family="Helvetica,sans-Serif" font-size="10.00">el::base::utils::Str</text>
<text text-anchor="middle" x="47" y="-56.5" font-family="Helvetica,sans-Serif" font-size="10.00">::startsWith</text>
</g>
<!-- Node58 -->
<g id="node2" class="node"><title>Node58</title>
<g id="a_node2"><a xlink:href="classel_1_1_loggers.html#adedfcc17831fe3d3f14026c91e8df88c" target="_top" xlink:title="Sets configurations from global configuration file. ">
<polygon fill="white" stroke="black" points="273,-71.5 273,-101.5 405,-101.5 405,-71.5 273,-71.5"/>
<text text-anchor="start" x="281" y="-89.5" font-family="Helvetica,sans-Serif" font-size="10.00">el::Loggers::configureFrom</text>
<text text-anchor="middle" x="339" y="-78.5" font-family="Helvetica,sans-Serif" font-size="10.00">Global</text>
</a>
</g>
</g>
<!-- Node57&#45;&gt;Node58 -->
<g id="edge1" class="edge"><title>Node57&#45;&gt;Node58</title>
<path fill="none" stroke="midnightblue" d="M98.4319,-82.4227C108.749,-85.364 119.626,-87.9537 130,-89.5 177.508,-96.5812 231.794,-95.4948 272.992,-92.8162"/>
<polygon fill="midnightblue" stroke="midnightblue" points="99.3311,-79.0384 88.7471,-79.5174 97.3197,-85.7432 99.3311,-79.0384"/>
</g>
<!-- Node59 -->
<g id="node3" class="node"><title>Node59</title>
<g id="a_node3"><a xlink:href="classel_1_1_configurations_1_1_parser.html#afbf7fb724d1a1a9f0040c966023cc04b" target="_top" xlink:title="el::Configurations\l::Parser::isComment">
<polygon fill="white" stroke="black" points="130,-49.5 130,-79.5 237,-79.5 237,-49.5 130,-49.5"/>
<text text-anchor="start" x="138" y="-67.5" font-family="Helvetica,sans-Serif" font-size="10.00">el::Configurations</text>
<text text-anchor="middle" x="183.5" y="-56.5" font-family="Helvetica,sans-Serif" font-size="10.00">::Parser::isComment</text>
</a>
</g>
</g>
<!-- Node57&#45;&gt;Node59 -->
<g id="edge2" class="edge"><title>Node57&#45;&gt;Node59</title>
<path fill="none" stroke="midnightblue" d="M104.359,-64.5C112.74,-64.5 121.353,-64.5 129.659,-64.5"/>
<polygon fill="midnightblue" stroke="midnightblue" points="104.287,-61.0001 94.2873,-64.5 104.287,-68.0001 104.287,-61.0001"/>
</g>
<!-- Node60 -->
<g id="node4" class="node"><title>Node60</title>
<g id="a_node4"><a xlink:href="classel_1_1_configurations_1_1_parser.html#ade3578dee6378620c6281b090433ce72" target="_top" xlink:title="el::Configurations\l::Parser::isLevel">
<polygon fill="white" stroke="black" points="137.5,-0.5 137.5,-30.5 229.5,-30.5 229.5,-0.5 137.5,-0.5"/>
<text text-anchor="start" x="145.5" y="-18.5" font-family="Helvetica,sans-Serif" font-size="10.00">el::Configurations</text>
<text text-anchor="middle" x="183.5" y="-7.5" font-family="Helvetica,sans-Serif" font-size="10.00">::Parser::isLevel</text>
</a>
</g>
</g>
<!-- Node57&#45;&gt;Node60 -->
<g id="edge4" class="edge"><title>Node57&#45;&gt;Node60</title>
<path fill="none" stroke="midnightblue" d="M98.8781,-45.9645C112.768,-40.9041 127.651,-35.4823 140.953,-30.6359"/>
<polygon fill="midnightblue" stroke="midnightblue" points="97.6497,-42.6869 89.4519,-49.3986 100.046,-49.264 97.6497,-42.6869"/>
</g>
<!-- Node59&#45;&gt;Node58 -->
<g id="edge3" class="edge"><title>Node59&#45;&gt;Node58</title>
<path fill="none" stroke="midnightblue" d="M247.423,-73.5182C255.816,-74.7212 264.437,-75.9568 272.867,-77.165"/>
<polygon fill="midnightblue" stroke="midnightblue" points="247.721,-70.0254 237.326,-72.0712 246.728,-76.9546 247.721,-70.0254"/>
</g>
</g>
</svg>
