<?xml version="1.0" encoding="UTF-8" standalone="no"?>
<!DOCTYPE svg PUBLIC "-//W3C//DTD SVG 1.1//EN"
 "http://www.w3.org/Graphics/SVG/1.1/DTD/svg11.dtd">
<!-- Generated by graphviz version 2.38.0 (20140413.2041)
 -->
<!-- Title: el::base::utils::Str::contains Pages: 1 -->
<svg width="434pt" height="39pt"
 viewBox="0.00 0.00 434.00 39.00" xmlns="http://www.w3.org/2000/svg" xmlns:xlink="http://www.w3.org/1999/xlink">
<g id="graph0" class="graph" transform="scale(1 1) rotate(0) translate(4 35)">
<title>el::base::utils::Str::contains</title>
<polygon fill="white" stroke="none" points="-4,4 -4,-35 430,-35 430,4 -4,4"/>
<!-- Node8 -->
<g id="node1" class="node"><title>Node8</title>
<polygon fill="#bfbfbf" stroke="black" points="0,-0.5 0,-30.5 94,-30.5 94,-0.5 0,-0.5"/>
<text text-anchor="start" x="8" y="-18.5" font-family="Helvetica,sans-Serif" font-size="10.00">el::base::utils::Str</text>
<text text-anchor="middle" x="47" y="-7.5" font-family="Helvetica,sans-Serif" font-size="10.00">::contains</text>
</g>
<!-- Node9 -->
<g id="node2" class="node"><title>Node9</title>
<g id="a_node2"><a xlink:href="classel_1_1_logger.html#ab134ceead9e69cab71380af41e3ee5d3" target="_top" xlink:title="el::Logger::isValidId">
<polygon fill="white" stroke="black" points="130,-6 130,-25 232,-25 232,-6 130,-6"/>
<text text-anchor="middle" x="181" y="-13" font-family="Helvetica,sans-Serif" font-size="10.00">el::Logger::isValidId</text>
</a>
</g>
</g>
<!-- Node8&#45;&gt;Node9 -->
<g id="edge1" class="edge"><title>Node8&#45;&gt;Node9</title>
<path fill="none" stroke="midnightblue" d="M104.278,-15.5C112.686,-15.5 121.308,-15.5 129.584,-15.5"/>
<polygon fill="midnightblue" stroke="midnightblue" points="104.167,-12.0001 94.1672,-15.5 104.167,-19.0001 104.167,-12.0001"/>
</g>
<!-- Node10 -->
<g id="node3" class="node"><title>Node10</title>
<g id="a_node3"><a xlink:href="classel_1_1base_1_1_registered_loggers.html#a1ca66763d892f3d2dc62926eb9dc56d3" target="_top" xlink:title="el::base::RegisteredLoggers::get">
<polygon fill="white" stroke="black" points="268,-6 268,-25 426,-25 426,-6 268,-6"/>
<text text-anchor="middle" x="347" y="-13" font-family="Helvetica,sans-Serif" font-size="10.00">el::base::RegisteredLoggers::get</text>
</a>
</g>
</g>
<!-- Node9&#45;&gt;Node10 -->
<g id="edge2" class="edge"><title>Node9&#45;&gt;Node10</title>
<path fill="none" stroke="midnightblue" d="M242.113,-15.5C250.48,-15.5 259.174,-15.5 267.812,-15.5"/>
<polygon fill="midnightblue" stroke="midnightblue" points="242.097,-12.0001 232.097,-15.5 242.096,-19.0001 242.097,-12.0001"/>
</g>
</g>
</svg>
