<?xml version="1.0" encoding="UTF-8" standalone="no"?>
<!DOCTYPE svg PUBLIC "-//W3C//DTD SVG 1.1//EN"
 "http://www.w3.org/Graphics/SVG/1.1/DTD/svg11.dtd">
<!-- Generated by graphviz version 2.38.0 (20140413.2041)
 -->
<!-- Title: vpr::DescriptorSetLayout::AddDescriptorBindings Pages: 1 -->
<svg width="593pt" height="72pt"
 viewBox="0.00 0.00 593.00 71.87" xmlns="http://www.w3.org/2000/svg" xmlns:xlink="http://www.w3.org/1999/xlink">
<g id="graph0" class="graph" transform="scale(1 1) rotate(0) translate(4 67.8699)">
<title>vpr::DescriptorSetLayout::AddDescriptorBindings</title>
<polygon fill="white" stroke="none" points="-4,4 -4,-67.8699 589,-67.8699 589,4 -4,4"/>
<!-- Node27 -->
<g id="node1" class="node"><title>Node27</title>
<polygon fill="#bfbfbf" stroke="black" points="0,-18.6872 0,-48.6872 123,-48.6872 123,-18.6872 0,-18.6872"/>
<text text-anchor="start" x="8" y="-36.6872" font-family="Helvetica,sans-Serif" font-size="10.00">vpr::DescriptorSetLayout</text>
<text text-anchor="middle" x="61.5" y="-25.6872" font-family="Helvetica,sans-Serif" font-size="10.00">::AddDescriptorBindings</text>
</g>
<!-- Node28 -->
<g id="node2" class="node"><title>Node28</title>
<g id="a_node2"><a xlink:href="classvpr_1_1_descriptor_set_layout.html#a1e22c5f5bab22786c71d280940b92b63" target="_top" xlink:title="vpr::DescriptorSetLayout\l::create">
<polygon fill="white" stroke="black" points="318,-18.6872 318,-48.6872 441,-48.6872 441,-18.6872 318,-18.6872"/>
<text text-anchor="start" x="326" y="-36.6872" font-family="Helvetica,sans-Serif" font-size="10.00">vpr::DescriptorSetLayout</text>
<text text-anchor="middle" x="379.5" y="-25.6872" font-family="Helvetica,sans-Serif" font-size="10.00">::create</text>
</a>
</g>
</g>
<!-- Node27&#45;&gt;Node28 -->
<g id="edge1" class="edge"><title>Node27&#45;&gt;Node28</title>
<path fill="none" stroke="midnightblue" d="M110.628,-48.7119C125.933,-52.797 143.034,-56.6526 159,-58.6872 213.228,-65.5975 227.772,-65.5975 282,-58.6872 294.598,-57.0818 307.903,-54.3426 320.474,-51.2514"/>
<polygon fill="midnightblue" stroke="midnightblue" points="321.555,-54.5875 330.372,-48.7119 319.815,-47.8072 321.555,-54.5875"/>
</g>
<!-- Node29 -->
<g id="node3" class="node"><title>Node29</title>
<g id="a_node3"><a xlink:href="classvpr_1_1_device.html#a59882855173bef0b13a17b376ea01d45" target="_top" xlink:title="vpr::Device::vkHandle">
<polygon fill="white" stroke="black" points="477,-2.18719 477,-21.1872 585,-21.1872 585,-2.18719 477,-2.18719"/>
<text text-anchor="middle" x="531" y="-9.18719" font-family="Helvetica,sans-Serif" font-size="10.00">vpr::Device::vkHandle</text>
</a>
</g>
</g>
<!-- Node27&#45;&gt;Node29 -->
<g id="edge5" class="edge"><title>Node27&#45;&gt;Node29</title>
<path fill="none" stroke="midnightblue" d="M110.628,-18.6625C125.933,-14.5774 143.034,-10.7217 159,-8.68719 266.404,4.99929 392.716,-0.581193 466.799,-6.0275"/>
<polygon fill="midnightblue" stroke="midnightblue" points="466.663,-9.5271 476.899,-6.79308 467.192,-2.54712 466.663,-9.5271"/>
</g>
<!-- Node30 -->
<g id="node4" class="node"><title>Node30</title>
<g id="a_node4"><a xlink:href="classvpr_1_1_descriptor_set_layout.html#ac798e1138e8a7a380653b27fe7e06058" target="_top" xlink:title="vpr::DescriptorSetLayout\l::vkHandle">
<polygon fill="white" stroke="black" points="159,-18.6872 159,-48.6872 282,-48.6872 282,-18.6872 159,-18.6872"/>
<text text-anchor="start" x="167" y="-36.6872" font-family="Helvetica,sans-Serif" font-size="10.00">vpr::DescriptorSetLayout</text>
<text text-anchor="middle" x="220.5" y="-25.6872" font-family="Helvetica,sans-Serif" font-size="10.00">::vkHandle</text>
</a>
</g>
</g>
<!-- Node27&#45;&gt;Node30 -->
<g id="edge3" class="edge"><title>Node27&#45;&gt;Node30</title>
<path fill="none" stroke="midnightblue" d="M123.2,-33.6872C131.635,-33.6872 140.359,-33.6872 148.955,-33.6872"/>
<polygon fill="midnightblue" stroke="midnightblue" points="148.961,-37.1873 158.961,-33.6872 148.961,-30.1873 148.961,-37.1873"/>
</g>
<!-- Node28&#45;&gt;Node29 -->
<g id="edge2" class="edge"><title>Node28&#45;&gt;Node29</title>
<path fill="none" stroke="midnightblue" d="M441.307,-24.739C449.698,-23.5042 458.332,-22.2336 466.766,-20.9926"/>
<polygon fill="midnightblue" stroke="midnightblue" points="467.54,-24.4165 476.924,-19.4978 466.521,-17.491 467.54,-24.4165"/>
</g>
<!-- Node30&#45;&gt;Node28 -->
<g id="edge4" class="edge"><title>Node30&#45;&gt;Node28</title>
<path fill="none" stroke="midnightblue" d="M282.2,-33.6872C290.635,-33.6872 299.359,-33.6872 307.955,-33.6872"/>
<polygon fill="midnightblue" stroke="midnightblue" points="307.961,-37.1873 317.961,-33.6872 307.961,-30.1873 307.961,-37.1873"/>
</g>
</g>
</svg>
