<?xml version="1.0" encoding="UTF-8" standalone="no"?>
<!DOCTYPE svg PUBLIC "-//W3C//DTD SVG 1.1//EN"
 "http://www.w3.org/Graphics/SVG/1.1/DTD/svg11.dtd">
<!-- Generated by graphviz version 2.38.0 (20140413.2041)
 -->
<!-- Title: el::Configurations::unsafeSetGlobally Pages: 1 -->
<svg width="542pt" height="186pt"
 viewBox="0.00 0.00 542.00 186.00" xmlns="http://www.w3.org/2000/svg" xmlns:xlink="http://www.w3.org/1999/xlink">
<g id="graph0" class="graph" transform="scale(1 1) rotate(0) translate(4 182)">
<title>el::Configurations::unsafeSetGlobally</title>
<polygon fill="white" stroke="none" points="-4,4 -4,-182 538,-182 538,4 -4,4"/>
<!-- Node189 -->
<g id="node1" class="node"><title>Node189</title>
<polygon fill="#bfbfbf" stroke="black" points="0,-29.5 0,-59.5 101,-59.5 101,-29.5 0,-29.5"/>
<text text-anchor="start" x="8" y="-47.5" font-family="Helvetica,sans-Serif" font-size="10.00">el::Configurations</text>
<text text-anchor="middle" x="50.5" y="-36.5" font-family="Helvetica,sans-Serif" font-size="10.00">::unsafeSetGlobally</text>
</g>
<!-- Node190 -->
<g id="node2" class="node"><title>Node190</title>
<g id="a_node2"><a xlink:href="classel_1_1_configurations.html#a332717de96efc851a202b7afcc5e395c" target="_top" xlink:title="Sets value of configuration for specified level. ">
<polygon fill="white" stroke="black" points="265,-79 265,-98 376,-98 376,-79 265,-79"/>
<text text-anchor="middle" x="320.5" y="-86" font-family="Helvetica,sans-Serif" font-size="10.00">el::Configurations::set</text>
</a>
</g>
</g>
<!-- Node189&#45;&gt;Node190 -->
<g id="edge1" class="edge"><title>Node189&#45;&gt;Node190</title>
<path fill="none" stroke="midnightblue" d="M107.021,-62.3087C116.929,-65.0344 127.212,-67.5759 137,-69.5 179.51,-77.8564 228.359,-82.6964 264.815,-85.3978"/>
<polygon fill="midnightblue" stroke="midnightblue" points="107.847,-58.9048 97.271,-59.5377 105.933,-65.6382 107.847,-58.9048"/>
</g>
<!-- Node194 -->
<g id="node6" class="node"><title>Node194</title>
<g id="a_node6"><a xlink:href="classel_1_1_configurations.html#a05c373510ca513e4f61999c84d512831" target="_top" xlink:title="Thread unsafe set. ">
<polygon fill="white" stroke="black" points="137,-29.5 137,-59.5 229,-59.5 229,-29.5 137,-29.5"/>
<text text-anchor="start" x="145" y="-47.5" font-family="Helvetica,sans-Serif" font-size="10.00">el::Configurations</text>
<text text-anchor="middle" x="183" y="-36.5" font-family="Helvetica,sans-Serif" font-size="10.00">::unsafeSet</text>
</a>
</g>
</g>
<!-- Node189&#45;&gt;Node194 -->
<g id="edge5" class="edge"><title>Node189&#45;&gt;Node194</title>
<path fill="none" stroke="midnightblue" d="M111.465,-37.7697C119.955,-37.7062 128.564,-37.796 136.714,-38.039"/>
<polygon fill="midnightblue" stroke="midnightblue" points="111.155,-34.2739 101.209,-37.9231 111.26,-41.2731 111.155,-34.2739"/>
</g>
<!-- Node191 -->
<g id="node3" class="node"><title>Node191</title>
<g id="a_node3"><a xlink:href="classel_1_1_configurations_1_1_parser.html#a70e0d8b27e7c1b5dd94e6838c304a751" target="_top" xlink:title="el::Configurations\l::Parser::parseLine">
<polygon fill="white" stroke="black" points="423.5,-147.5 423.5,-177.5 522.5,-177.5 522.5,-147.5 423.5,-147.5"/>
<text text-anchor="start" x="431.5" y="-165.5" font-family="Helvetica,sans-Serif" font-size="10.00">el::Configurations</text>
<text text-anchor="middle" x="473" y="-154.5" font-family="Helvetica,sans-Serif" font-size="10.00">::Parser::parseLine</text>
</a>
</g>
</g>
<!-- Node190&#45;&gt;Node191 -->
<g id="edge2" class="edge"><title>Node190&#45;&gt;Node191</title>
<path fill="none" stroke="midnightblue" d="M346.223,-103.251C364.173,-113.691 389.209,-127.697 412,-138.5 418.488,-141.575 425.482,-144.613 432.324,-147.44"/>
<polygon fill="midnightblue" stroke="midnightblue" points="347.927,-100.194 337.531,-98.1532 344.386,-106.232 347.927,-100.194"/>
</g>
<!-- Node192 -->
<g id="node4" class="node"><title>Node192</title>
<g id="a_node4"><a xlink:href="classel_1_1_loggers.html#a396b601e204ede36f5a9acc76a8c5585" target="_top" xlink:title="Reconfigures single configuration for all the loggers for specified level. ">
<polygon fill="white" stroke="black" points="414,-98.5 414,-128.5 532,-128.5 532,-98.5 414,-98.5"/>
<text text-anchor="start" x="422" y="-116.5" font-family="Helvetica,sans-Serif" font-size="10.00">el::Loggers::reconfigure</text>
<text text-anchor="middle" x="473" y="-105.5" font-family="Helvetica,sans-Serif" font-size="10.00">AllLoggers</text>
</a>
</g>
</g>
<!-- Node190&#45;&gt;Node192 -->
<g id="edge3" class="edge"><title>Node190&#45;&gt;Node192</title>
<path fill="none" stroke="midnightblue" d="M386.177,-99.2438C395.421,-100.779 404.881,-102.351 413.986,-103.863"/>
<polygon fill="midnightblue" stroke="midnightblue" points="386.698,-95.7824 376.26,-97.5963 385.551,-102.688 386.698,-95.7824"/>
</g>
<!-- Node193 -->
<g id="node5" class="node"><title>Node193</title>
<g id="a_node5"><a xlink:href="classel_1_1_loggers.html#a89ec21259cfcfee3f761fca68c4ec043" target="_top" xlink:title="Reconfigures logger&#39;s single configuration. ">
<polygon fill="white" stroke="black" points="414,-49.5 414,-79.5 532,-79.5 532,-49.5 414,-49.5"/>
<text text-anchor="start" x="422" y="-67.5" font-family="Helvetica,sans-Serif" font-size="10.00">el::Loggers::reconfigure</text>
<text text-anchor="middle" x="473" y="-56.5" font-family="Helvetica,sans-Serif" font-size="10.00">Logger</text>
</a>
</g>
</g>
<!-- Node190&#45;&gt;Node193 -->
<g id="edge4" class="edge"><title>Node190&#45;&gt;Node193</title>
<path fill="none" stroke="midnightblue" d="M386.177,-78.186C395.421,-76.712 404.881,-75.2033 413.986,-73.7514"/>
<polygon fill="midnightblue" stroke="midnightblue" points="385.584,-74.7364 376.26,-79.7676 386.686,-81.649 385.584,-74.7364"/>
</g>
<!-- Node194&#45;&gt;Node189 -->
<g id="edge7" class="edge"><title>Node194&#45;&gt;Node189</title>
<path fill="none" stroke="midnightblue" d="M126.584,-51.1814C118.156,-51.2998 109.505,-51.2649 101.209,-51.0769"/>
<polygon fill="midnightblue" stroke="midnightblue" points="126.792,-54.6778 136.714,-50.961 126.64,-47.6794 126.792,-54.6778"/>
</g>
<!-- Node194&#45;&gt;Node190 -->
<g id="edge6" class="edge"><title>Node194&#45;&gt;Node190</title>
<path fill="none" stroke="midnightblue" d="M238.689,-62.2588C256.194,-67.9432 274.909,-74.0203 289.916,-78.8933"/>
<polygon fill="midnightblue" stroke="midnightblue" points="239.712,-58.911 229.12,-59.1514 237.55,-65.5688 239.712,-58.911"/>
</g>
<!-- Node195 -->
<g id="node7" class="node"><title>Node195</title>
<g id="a_node7"><a xlink:href="classel_1_1_configurations.html#a84c06d47e550b5eda3060f399698ec28" target="_top" xlink:title="Unsafely sets configuration if does not already exist. ">
<polygon fill="white" stroke="black" points="266.5,-27.5 266.5,-57.5 374.5,-57.5 374.5,-27.5 266.5,-27.5"/>
<text text-anchor="start" x="274.5" y="-45.5" font-family="Helvetica,sans-Serif" font-size="10.00">el::Configurations</text>
<text text-anchor="middle" x="320.5" y="-34.5" font-family="Helvetica,sans-Serif" font-size="10.00">::unsafeSetIfNotExist</text>
</a>
</g>
</g>
<!-- Node194&#45;&gt;Node195 -->
<g id="edge8" class="edge"><title>Node194&#45;&gt;Node195</title>
<path fill="none" stroke="midnightblue" d="M239.333,-43.6833C248.18,-43.5527 257.32,-43.4178 266.12,-43.2879"/>
<polygon fill="midnightblue" stroke="midnightblue" points="239.067,-40.1867 229.12,-43.834 239.17,-47.186 239.067,-40.1867"/>
</g>
<!-- Node196 -->
<g id="node8" class="node"><title>Node196</title>
<g id="a_node8"><a xlink:href="classel_1_1_configurations.html#ad89b7d2dd750e4d1b3deff800e278fdb" target="_top" xlink:title="Lets you set the remaining configurations to default. ">
<polygon fill="white" stroke="red" points="412,-0.5 412,-30.5 534,-30.5 534,-0.5 412,-0.5"/>
<text text-anchor="start" x="420" y="-18.5" font-family="Helvetica,sans-Serif" font-size="10.00">el::Configurations</text>
<text text-anchor="middle" x="473" y="-7.5" font-family="Helvetica,sans-Serif" font-size="10.00">::setRemainingToDefault</text>
</a>
</g>
</g>
<!-- Node195&#45;&gt;Node196 -->
<g id="edge9" class="edge"><title>Node195&#45;&gt;Node196</title>
<path fill="none" stroke="midnightblue" d="M384.648,-31.1712C393.698,-29.5476 402.988,-27.8809 411.975,-26.2686"/>
<polygon fill="midnightblue" stroke="midnightblue" points="383.785,-27.7699 374.561,-32.9808 385.022,-34.6599 383.785,-27.7699"/>
</g>
</g>
</svg>
