<?xml version="1.0" encoding="UTF-8" standalone="no"?>
<!DOCTYPE svg PUBLIC "-//W3C//DTD SVG 1.1//EN"
 "http://www.w3.org/Graphics/SVG/1.1/DTD/svg11.dtd">
<!-- Generated by graphviz version 2.38.0 (20140413.2041)
 -->
<!-- Title: el::Logger::flush Pages: 1 -->
<svg width="593pt" height="243pt"
 viewBox="0.00 0.00 593.00 243.00" xmlns="http://www.w3.org/2000/svg" xmlns:xlink="http://www.w3.org/1999/xlink">
<g id="graph0" class="graph" transform="scale(1 1) rotate(0) translate(4 239)">
<title>el::Logger::flush</title>
<polygon fill="white" stroke="none" points="-4,4 -4,-239 589,-239 589,4 -4,4"/>
<!-- Node70 -->
<g id="node1" class="node"><title>Node70</title>
<polygon fill="#bfbfbf" stroke="black" points="0,-125 0,-144 86,-144 86,-125 0,-125"/>
<text text-anchor="middle" x="43" y="-132" font-family="Helvetica,sans-Serif" font-size="10.00">el::Logger::flush</text>
</g>
<!-- Node71 -->
<g id="node2" class="node"><title>Node71</title>
<g id="a_node2"><a xlink:href="classel_1_1_logger.html#ad9db621dbf8977bf814dc7baea8dcee4" target="_top" xlink:title="Configures the logger using specified configurations. ">
<polygon fill="white" stroke="black" points="140.5,-147 140.5,-166 244.5,-166 244.5,-147 140.5,-147"/>
<text text-anchor="middle" x="192.5" y="-154" font-family="Helvetica,sans-Serif" font-size="10.00">el::Logger::configure</text>
</a>
</g>
</g>
<!-- Node70&#45;&gt;Node71 -->
<g id="edge1" class="edge"><title>Node70&#45;&gt;Node71</title>
<path fill="none" stroke="midnightblue" d="M96.4186,-142.318C110.69,-144.447 126.126,-146.749 140.327,-148.867"/>
<polygon fill="midnightblue" stroke="midnightblue" points="96.6745,-138.818 86.2676,-140.804 95.6418,-145.741 96.6745,-138.818"/>
</g>
<!-- Node82 -->
<g id="node12" class="node"><title>Node82</title>
<g id="a_node12"><a xlink:href="classel_1_1base_1_1_default_log_dispatch_callback.html#adc7c200395c99534d55cb23cfabafcb1" target="_top" xlink:title="el::base::DefaultLogDispatch\lCallback::dispatch">
<polygon fill="white" stroke="black" points="122,-97.5 122,-127.5 263,-127.5 263,-97.5 122,-97.5"/>
<text text-anchor="start" x="130" y="-115.5" font-family="Helvetica,sans-Serif" font-size="10.00">el::base::DefaultLogDispatch</text>
<text text-anchor="middle" x="192.5" y="-104.5" font-family="Helvetica,sans-Serif" font-size="10.00">Callback::dispatch</text>
</a>
</g>
</g>
<!-- Node70&#45;&gt;Node82 -->
<g id="edge11" class="edge"><title>Node70&#45;&gt;Node82</title>
<path fill="none" stroke="midnightblue" d="M96.2025,-126.714C104.537,-125.471 113.275,-124.167 121.935,-122.876"/>
<polygon fill="midnightblue" stroke="midnightblue" points="95.6418,-123.259 86.2676,-128.196 96.6745,-130.182 95.6418,-123.259"/>
</g>
<!-- Node72 -->
<g id="node3" class="node"><title>Node72</title>
<g id="a_node3"><a xlink:href="classel_1_1_loggers.html#adedfcc17831fe3d3f14026c91e8df88c" target="_top" xlink:title="Sets configurations from global configuration file. ">
<polygon fill="white" stroke="black" points="299,-204.5 299,-234.5 431,-234.5 431,-204.5 299,-204.5"/>
<text text-anchor="start" x="307" y="-222.5" font-family="Helvetica,sans-Serif" font-size="10.00">el::Loggers::configureFrom</text>
<text text-anchor="middle" x="365" y="-211.5" font-family="Helvetica,sans-Serif" font-size="10.00">Global</text>
</a>
</g>
</g>
<!-- Node71&#45;&gt;Node72 -->
<g id="edge2" class="edge"><title>Node71&#45;&gt;Node72</title>
<path fill="none" stroke="midnightblue" d="M228.997,-169.616C256.459,-179.763 294.518,-193.826 323.229,-204.435"/>
<polygon fill="midnightblue" stroke="midnightblue" points="229.989,-166.251 219.395,-166.068 227.562,-172.817 229.989,-166.251"/>
</g>
<!-- Node73 -->
<g id="node4" class="node"><title>Node73</title>
<g id="a_node4"><a xlink:href="classel_1_1_logger.html#a43abea8865d7316f05c8a676a8c04896" target="_top" xlink:title="el::Logger::Logger">
<polygon fill="white" stroke="black" points="317.5,-166 317.5,-185 412.5,-185 412.5,-166 317.5,-166"/>
<text text-anchor="middle" x="365" y="-173" font-family="Helvetica,sans-Serif" font-size="10.00">el::Logger::Logger</text>
</a>
</g>
</g>
<!-- Node71&#45;&gt;Node73 -->
<g id="edge3" class="edge"><title>Node71&#45;&gt;Node73</title>
<path fill="none" stroke="midnightblue" d="M254.874,-163.339C275.426,-165.63 297.992,-168.144 317.243,-170.29"/>
<polygon fill="midnightblue" stroke="midnightblue" points="254.982,-159.83 244.656,-162.201 254.206,-166.787 254.982,-159.83"/>
</g>
<!-- Node74 -->
<g id="node5" class="node"><title>Node74</title>
<g id="a_node5"><a xlink:href="classel_1_1_logger.html#adfd57ab27fb398cc980a3edfab92927e" target="_top" xlink:title="Reconfigures logger using existing configurations. ">
<polygon fill="white" stroke="black" points="308.5,-128 308.5,-147 421.5,-147 421.5,-128 308.5,-128"/>
<text text-anchor="middle" x="365" y="-135" font-family="Helvetica,sans-Serif" font-size="10.00">el::Logger::reconfigure</text>
</a>
</g>
</g>
<!-- Node71&#45;&gt;Node74 -->
<g id="edge4" class="edge"><title>Node71&#45;&gt;Node74</title>
<path fill="none" stroke="midnightblue" d="M254.772,-149.672C272.286,-147.72 291.269,-145.605 308.421,-143.694"/>
<polygon fill="midnightblue" stroke="midnightblue" points="254.206,-146.213 244.656,-150.799 254.982,-153.17 254.206,-146.213"/>
</g>
<!-- Node78 -->
<g id="node9" class="node"><title>Node78</title>
<g id="a_node9"><a xlink:href="classel_1_1_loggers.html#a02223004494a404a2c3e7cd0c4380d3b" target="_top" xlink:title="Reconfigures specified logger with new configurations. ">
<polygon fill="white" stroke="black" points="306,-49.5 306,-79.5 424,-79.5 424,-49.5 306,-49.5"/>
<text text-anchor="start" x="314" y="-67.5" font-family="Helvetica,sans-Serif" font-size="10.00">el::Loggers::reconfigure</text>
<text text-anchor="middle" x="365" y="-56.5" font-family="Helvetica,sans-Serif" font-size="10.00">Logger</text>
</a>
</g>
</g>
<!-- Node71&#45;&gt;Node78 -->
<g id="edge8" class="edge"><title>Node71&#45;&gt;Node78</title>
<path fill="none" stroke="midnightblue" d="M247.424,-143.847C252.785,-141.972 258.064,-139.862 263,-137.5 295.201,-122.09 327.85,-96.2186 346.993,-79.773"/>
<polygon fill="midnightblue" stroke="midnightblue" points="246.186,-140.569 237.744,-146.971 248.336,-147.23 246.186,-140.569"/>
</g>
<!-- Node75 -->
<g id="node6" class="node"><title>Node75</title>
<g id="a_node6"><a xlink:href="classel_1_1base_1_1_storage.html#a4932a8f8a55c3b00467cf2feed6acf59" target="_top" xlink:title="el::base::Storage::\lStorage">
<polygon fill="white" stroke="black" points="477.5,-196.5 477.5,-226.5 574.5,-226.5 574.5,-196.5 477.5,-196.5"/>
<text text-anchor="start" x="485.5" y="-214.5" font-family="Helvetica,sans-Serif" font-size="10.00">el::base::Storage::</text>
<text text-anchor="middle" x="526" y="-203.5" font-family="Helvetica,sans-Serif" font-size="10.00">Storage</text>
</a>
</g>
</g>
<!-- Node74&#45;&gt;Node75 -->
<g id="edge5" class="edge"><title>Node74&#45;&gt;Node75</title>
<path fill="none" stroke="midnightblue" d="M417.782,-150.409C422.357,-152.21 426.829,-154.234 431,-156.5 449.554,-166.579 449.017,-176.434 467,-187.5 472.29,-190.755 478.1,-193.751 483.936,-196.441"/>
<polygon fill="midnightblue" stroke="midnightblue" points="418.906,-147.094 408.312,-147.016 416.546,-153.683 418.906,-147.094"/>
</g>
<!-- Node76 -->
<g id="node7" class="node"><title>Node76</title>
<g id="a_node7"><a xlink:href="classel_1_1_loggers.html#a89ec21259cfcfee3f761fca68c4ec043" target="_top" xlink:title="Reconfigures logger&#39;s single configuration. ">
<polygon fill="white" stroke="black" points="467,-147.5 467,-177.5 585,-177.5 585,-147.5 467,-147.5"/>
<text text-anchor="start" x="475" y="-165.5" font-family="Helvetica,sans-Serif" font-size="10.00">el::Loggers::reconfigure</text>
<text text-anchor="middle" x="526" y="-154.5" font-family="Helvetica,sans-Serif" font-size="10.00">Logger</text>
</a>
</g>
</g>
<!-- Node74&#45;&gt;Node76 -->
<g id="edge6" class="edge"><title>Node74&#45;&gt;Node76</title>
<path fill="none" stroke="midnightblue" d="M431.751,-147.838C443.44,-149.676 455.538,-151.578 466.993,-153.379"/>
<polygon fill="midnightblue" stroke="midnightblue" points="432.033,-144.34 421.61,-146.244 430.945,-151.255 432.033,-144.34"/>
</g>
<!-- Node77 -->
<g id="node8" class="node"><title>Node77</title>
<g id="a_node8"><a xlink:href="classel_1_1_loggers.html#a396b601e204ede36f5a9acc76a8c5585" target="_top" xlink:title="Reconfigures single configuration for all the loggers for specified level. ">
<polygon fill="white" stroke="black" points="467,-98.5 467,-128.5 585,-128.5 585,-98.5 467,-98.5"/>
<text text-anchor="start" x="475" y="-116.5" font-family="Helvetica,sans-Serif" font-size="10.00">el::Loggers::reconfigure</text>
<text text-anchor="middle" x="526" y="-105.5" font-family="Helvetica,sans-Serif" font-size="10.00">AllLoggers</text>
</a>
</g>
</g>
<!-- Node74&#45;&gt;Node77 -->
<g id="edge7" class="edge"><title>Node74&#45;&gt;Node77</title>
<path fill="none" stroke="midnightblue" d="M431.751,-127.575C443.44,-125.811 455.538,-123.985 466.993,-122.256"/>
<polygon fill="midnightblue" stroke="midnightblue" points="430.976,-124.153 421.61,-129.106 432.021,-131.074 430.976,-124.153"/>
</g>
<!-- Node79 -->
<g id="node10" class="node"><title>Node79</title>
<g id="a_node10"><a xlink:href="classel_1_1_loggers.html#af3252cc39fa4ac17b4abf50acf6b4c5e" target="_top" xlink:title="Reconfigures logger with new configurations after looking it up using identity. ">
<polygon fill="white" stroke="black" points="467,-49.5 467,-79.5 585,-79.5 585,-49.5 467,-49.5"/>
<text text-anchor="start" x="475" y="-67.5" font-family="Helvetica,sans-Serif" font-size="10.00">el::Loggers::reconfigure</text>
<text text-anchor="middle" x="526" y="-56.5" font-family="Helvetica,sans-Serif" font-size="10.00">Logger</text>
</a>
</g>
</g>
<!-- Node78&#45;&gt;Node79 -->
<g id="edge9" class="edge"><title>Node78&#45;&gt;Node79</title>
<path fill="none" stroke="midnightblue" d="M434.551,-64.5C445.355,-64.5 456.434,-64.5 466.97,-64.5"/>
<polygon fill="midnightblue" stroke="midnightblue" points="434.303,-61.0001 424.303,-64.5 434.303,-68.0001 434.303,-61.0001"/>
</g>
<!-- Node80 -->
<g id="node11" class="node"><title>Node80</title>
<g id="a_node11"><a xlink:href="classel_1_1_loggers.html#a42f99e79d72d391df563df8d09272194" target="_top" xlink:title="Reconfigures all the existing loggers with new configurations. ">
<polygon fill="white" stroke="red" points="467,-0.5 467,-30.5 585,-30.5 585,-0.5 467,-0.5"/>
<text text-anchor="start" x="475" y="-18.5" font-family="Helvetica,sans-Serif" font-size="10.00">el::Loggers::reconfigure</text>
<text text-anchor="middle" x="526" y="-7.5" font-family="Helvetica,sans-Serif" font-size="10.00">AllLoggers</text>
</a>
</g>
</g>
<!-- Node78&#45;&gt;Node80 -->
<g id="edge10" class="edge"><title>Node78&#45;&gt;Node80</title>
<path fill="none" stroke="midnightblue" d="M424.775,-46.3871C441.678,-41.1778 459.926,-35.5543 476.159,-30.5516"/>
<polygon fill="midnightblue" stroke="midnightblue" points="423.528,-43.1086 415.003,-49.3986 425.59,-49.7982 423.528,-43.1086"/>
</g>
</g>
</svg>
