<?xml version="1.0" encoding="UTF-8" standalone="no"?>
<!DOCTYPE svg PUBLIC "-//W3C//DTD SVG 1.1//EN"
 "http://www.w3.org/Graphics/SVG/1.1/DTD/svg11.dtd">
<!-- Generated by graphviz version 2.38.0 (20140413.2041)
 -->
<!-- Title: vpr::PhysicalDeviceImpl::PhysicalDeviceImpl Pages: 1 -->
<svg width="446pt" height="176pt"
 viewBox="0.00 0.00 446.00 176.00" xmlns="http://www.w3.org/2000/svg" xmlns:xlink="http://www.w3.org/1999/xlink">
<g id="graph0" class="graph" transform="scale(1 1) rotate(0) translate(4 172)">
<title>vpr::PhysicalDeviceImpl::PhysicalDeviceImpl</title>
<polygon fill="white" stroke="none" points="-4,4 -4,-172 442,-172 442,4 -4,4"/>
<!-- Node2 -->
<g id="node1" class="node"><title>Node2</title>
<polygon fill="#bfbfbf" stroke="black" points="0,-66.5 0,-96.5 119,-96.5 119,-66.5 0,-66.5"/>
<text text-anchor="start" x="8" y="-84.5" font-family="Helvetica,sans-Serif" font-size="10.00">vpr::PhysicalDeviceImpl</text>
<text text-anchor="middle" x="59.5" y="-73.5" font-family="Helvetica,sans-Serif" font-size="10.00">::PhysicalDeviceImpl</text>
</g>
<!-- Node3 -->
<g id="node2" class="node"><title>Node3</title>
<g id="a_node2"><a xlink:href="classvpr_1_1_physical_device_impl.html#af87fd9143013fabf4df17ca888d541fb" target="_top" xlink:title="vpr::PhysicalDeviceImpl\l::getAttributes">
<polygon fill="white" stroke="black" points="174.5,-137.5 174.5,-167.5 293.5,-167.5 293.5,-137.5 174.5,-137.5"/>
<text text-anchor="start" x="182.5" y="-155.5" font-family="Helvetica,sans-Serif" font-size="10.00">vpr::PhysicalDeviceImpl</text>
<text text-anchor="middle" x="234" y="-144.5" font-family="Helvetica,sans-Serif" font-size="10.00">::getAttributes</text>
</a>
</g>
</g>
<!-- Node2&#45;&gt;Node3 -->
<g id="edge1" class="edge"><title>Node2&#45;&gt;Node3</title>
<path fill="none" stroke="midnightblue" d="M88.0713,-96.7066C106.634,-106.569 131.858,-119.256 155,-128.5 159.811,-130.422 164.838,-132.284 169.923,-134.064"/>
<polygon fill="midnightblue" stroke="midnightblue" points="169.134,-137.492 179.728,-137.382 171.378,-130.862 169.134,-137.492"/>
</g>
<!-- Node4 -->
<g id="node3" class="node"><title>Node4</title>
<g id="a_node3"><a xlink:href="namespacevpr.html#ac9ad3c752dabd8483c29187ef86587c9" target="_top" xlink:title="vpr::GetBestAvailPhysical\lDevice">
<polygon fill="white" stroke="black" points="170,-88.5 170,-118.5 298,-118.5 298,-88.5 170,-88.5"/>
<text text-anchor="start" x="178" y="-106.5" font-family="Helvetica,sans-Serif" font-size="10.00">vpr::GetBestAvailPhysical</text>
<text text-anchor="middle" x="234" y="-95.5" font-family="Helvetica,sans-Serif" font-size="10.00">Device</text>
</a>
</g>
</g>
<!-- Node2&#45;&gt;Node4 -->
<g id="edge2" class="edge"><title>Node2&#45;&gt;Node4</title>
<path fill="none" stroke="midnightblue" d="M119.382,-89.0096C132.371,-90.6661 146.283,-92.4405 159.762,-94.1595"/>
<polygon fill="midnightblue" stroke="midnightblue" points="159.599,-97.667 169.962,-95.4603 160.485,-90.7233 159.599,-97.667"/>
</g>
<!-- Node5 -->
<g id="node4" class="node"><title>Node5</title>
<g id="a_node4"><a xlink:href="namespacevpr.html#add78d0571fc38d8ee80c540f9754ca50" target="_top" xlink:title="vpr::PopulatePhysicalDeviceMap">
<polygon fill="white" stroke="black" points="155,-50 155,-69 313,-69 313,-50 155,-50"/>
<text text-anchor="middle" x="234" y="-57" font-family="Helvetica,sans-Serif" font-size="10.00">vpr::PopulatePhysicalDeviceMap</text>
</a>
</g>
</g>
<!-- Node2&#45;&gt;Node5 -->
<g id="edge3" class="edge"><title>Node2&#45;&gt;Node5</title>
<path fill="none" stroke="midnightblue" d="M119.382,-73.9904C128.654,-72.8078 138.397,-71.5653 148.117,-70.3257"/>
<polygon fill="midnightblue" stroke="midnightblue" points="148.74,-73.7746 158.217,-69.0376 147.854,-66.8309 148.74,-73.7746"/>
</g>
<!-- Node7 -->
<g id="node6" class="node"><title>Node7</title>
<g id="a_node6"><a xlink:href="classvpr_1_1_physical_device_impl.html#a69d80ff2220466001ff60b2703152b66" target="_top" xlink:title="vpr::PhysicalDeviceImpl\l::retrieveQueueFamilyProperties">
<polygon fill="white" stroke="black" points="156.5,-0.5 156.5,-30.5 311.5,-30.5 311.5,-0.5 156.5,-0.5"/>
<text text-anchor="start" x="164.5" y="-18.5" font-family="Helvetica,sans-Serif" font-size="10.00">vpr::PhysicalDeviceImpl</text>
<text text-anchor="middle" x="234" y="-7.5" font-family="Helvetica,sans-Serif" font-size="10.00">::retrieveQueueFamilyProperties</text>
</a>
</g>
</g>
<!-- Node2&#45;&gt;Node7 -->
<g id="edge5" class="edge"><title>Node2&#45;&gt;Node7</title>
<path fill="none" stroke="midnightblue" d="M92.9739,-66.4619C111.055,-58.3296 134.076,-48.37 155,-40.5 161.027,-38.2331 167.362,-35.986 173.708,-33.8226"/>
<polygon fill="midnightblue" stroke="midnightblue" points="175.271,-36.9905 183.646,-30.501 173.052,-30.3515 175.271,-36.9905"/>
</g>
<!-- Node6 -->
<g id="node5" class="node"><title>Node6</title>
<g id="a_node5"><a xlink:href="namespacevpr.html#ac7aa57a8b381b41b0230767e64e08bfe" target="_top" xlink:title="vpr::ScoreDevice">
<polygon fill="white" stroke="black" points="349,-50 349,-69 438,-69 438,-50 349,-50"/>
<text text-anchor="middle" x="393.5" y="-57" font-family="Helvetica,sans-Serif" font-size="10.00">vpr::ScoreDevice</text>
</a>
</g>
</g>
<!-- Node5&#45;&gt;Node6 -->
<g id="edge4" class="edge"><title>Node5&#45;&gt;Node6</title>
<path fill="none" stroke="midnightblue" d="M313.289,-59.5C321.865,-59.5 330.45,-59.5 338.634,-59.5"/>
<polygon fill="midnightblue" stroke="midnightblue" points="338.757,-63.0001 348.757,-59.5 338.757,-56.0001 338.757,-63.0001"/>
</g>
</g>
</svg>
