<?xml version="1.0" encoding="UTF-8" standalone="no"?>
<!DOCTYPE svg PUBLIC "-//W3C//DTD SVG 1.1//EN"
 "http://www.w3.org/Graphics/SVG/1.1/DTD/svg11.dtd">
<!-- Generated by graphviz version 2.38.0 (20140413.2041)
 -->
<!-- Title: el::base::DefaultLogDispatchCallback::dispatch Pages: 1 -->
<svg width="509pt" height="739pt"
 viewBox="0.00 0.00 509.00 738.50" xmlns="http://www.w3.org/2000/svg" xmlns:xlink="http://www.w3.org/1999/xlink">
<g id="graph0" class="graph" transform="scale(1 1) rotate(0) translate(4 734.5)">
<title>el::base::DefaultLogDispatchCallback::dispatch</title>
<polygon fill="white" stroke="none" points="-4,4 -4,-734.5 505,-734.5 505,4 -4,4"/>
<!-- Node3 -->
<g id="node1" class="node"><title>Node3</title>
<polygon fill="#bfbfbf" stroke="black" points="0,-344.5 0,-374.5 141,-374.5 141,-344.5 0,-344.5"/>
<text text-anchor="start" x="8" y="-362.5" font-family="Helvetica,sans-Serif" font-size="10.00">el::base::DefaultLogDispatch</text>
<text text-anchor="middle" x="70.5" y="-351.5" font-family="Helvetica,sans-Serif" font-size="10.00">Callback::dispatch</text>
</g>
<!-- Node4 -->
<g id="node2" class="node"><title>Node4</title>
<g id="a_node2"><a xlink:href="classel_1_1_log_builder.html#a633b373a3bb9d3e17bdd664aeba4dbc8" target="_top" xlink:title="el::LogBuilder::build">
<polygon fill="white" stroke="black" points="201.5,-711 201.5,-730 303.5,-730 303.5,-711 201.5,-711"/>
<text text-anchor="middle" x="252.5" y="-718" font-family="Helvetica,sans-Serif" font-size="10.00">el::LogBuilder::build</text>
</a>
</g>
</g>
<!-- Node3&#45;&gt;Node4 -->
<g id="edge1" class="edge"><title>Node3&#45;&gt;Node4</title>
<path fill="none" stroke="midnightblue" d="M71.3,-374.79C71.473,-428.278 79.5518,-608.761 177,-701.5 181.336,-705.627 186.439,-708.89 191.907,-711.467"/>
<polygon fill="midnightblue" stroke="midnightblue" points="190.796,-714.791 201.383,-715.186 193.353,-708.275 190.796,-714.791"/>
</g>
<!-- Node5 -->
<g id="node3" class="node"><title>Node5</title>
<g id="a_node3"><a xlink:href="classel_1_1_log_builder.html#a229244f323f25bdbd7725f8bbf983a17" target="_top" xlink:title="el::LogBuilder::convertTo\lColoredOutput">
<polygon fill="white" stroke="black" points="191,-661.5 191,-691.5 314,-691.5 314,-661.5 191,-661.5"/>
<text text-anchor="start" x="199" y="-679.5" font-family="Helvetica,sans-Serif" font-size="10.00">el::LogBuilder::convertTo</text>
<text text-anchor="middle" x="252.5" y="-668.5" font-family="Helvetica,sans-Serif" font-size="10.00">ColoredOutput</text>
</a>
</g>
</g>
<!-- Node3&#45;&gt;Node5 -->
<g id="edge2" class="edge"><title>Node3&#45;&gt;Node5</title>
<path fill="none" stroke="midnightblue" d="M72.4214,-374.748C76.1491,-422.776 94.1994,-572.465 177,-652.5 178.667,-654.111 180.443,-655.615 182.305,-657.017"/>
<polygon fill="midnightblue" stroke="midnightblue" points="180.648,-660.111 190.96,-662.541 184.414,-654.211 180.648,-660.111"/>
</g>
<!-- Node6 -->
<g id="node4" class="node"><title>Node6</title>
<g id="a_node4"><a xlink:href="classel_1_1_level_helper.html#ad8a9958d58a2912ef58d00ab0ade7587" target="_top" xlink:title="Converts level to associated const char*. ">
<polygon fill="white" stroke="black" points="194.5,-612.5 194.5,-642.5 310.5,-642.5 310.5,-612.5 194.5,-612.5"/>
<text text-anchor="start" x="202.5" y="-630.5" font-family="Helvetica,sans-Serif" font-size="10.00">el::LevelHelper::convert</text>
<text text-anchor="middle" x="252.5" y="-619.5" font-family="Helvetica,sans-Serif" font-size="10.00">ToString</text>
</a>
</g>
</g>
<!-- Node3&#45;&gt;Node6 -->
<g id="edge3" class="edge"><title>Node3&#45;&gt;Node6</title>
<path fill="none" stroke="midnightblue" d="M73.6411,-374.597C80.4601,-417.062 105.587,-538.663 177,-603.5 179.594,-605.855 182.421,-607.979 185.407,-609.895"/>
<polygon fill="midnightblue" stroke="midnightblue" points="183.744,-612.974 194.187,-614.761 187.138,-606.852 183.744,-612.974"/>
</g>
<!-- Node7 -->
<g id="node5" class="node"><title>Node7</title>
<g id="a_node5"><a xlink:href="classel_1_1_log_dispatch_data.html#aa7f834fbd4c8440d25ba1958ccf51ea7" target="_top" xlink:title="el::LogDispatchData\l::dispatchAction">
<polygon fill="white" stroke="black" points="200.5,-563.5 200.5,-593.5 304.5,-593.5 304.5,-563.5 200.5,-563.5"/>
<text text-anchor="start" x="208.5" y="-581.5" font-family="Helvetica,sans-Serif" font-size="10.00">el::LogDispatchData</text>
<text text-anchor="middle" x="252.5" y="-570.5" font-family="Helvetica,sans-Serif" font-size="10.00">::dispatchAction</text>
</a>
</g>
</g>
<!-- Node3&#45;&gt;Node7 -->
<g id="edge4" class="edge"><title>Node3&#45;&gt;Node7</title>
<path fill="none" stroke="midnightblue" d="M75.5279,-374.569C85.9777,-410.796 117.386,-503.467 177,-553.5 181.245,-557.063 186.019,-560.125 191.048,-562.755"/>
<polygon fill="midnightblue" stroke="midnightblue" points="189.767,-566.019 200.313,-567.037 192.704,-559.664 189.767,-566.019"/>
</g>
<!-- Node8 -->
<g id="node6" class="node"><title>Node8</title>
<g id="a_node6"><a xlink:href="classel_1_1base_1_1_typed_configurations.html#a6e989a8496b9e08e6e8c9ac4d3fe5b1e" target="_top" xlink:title="el::base::TypedConfigurations\l::filename">
<polygon fill="white" stroke="black" points="180,-475.5 180,-505.5 325,-505.5 325,-475.5 180,-475.5"/>
<text text-anchor="start" x="188" y="-493.5" font-family="Helvetica,sans-Serif" font-size="10.00">el::base::TypedConfigurations</text>
<text text-anchor="middle" x="252.5" y="-482.5" font-family="Helvetica,sans-Serif" font-size="10.00">::filename</text>
</a>
</g>
</g>
<!-- Node3&#45;&gt;Node8 -->
<g id="edge5" class="edge"><title>Node3&#45;&gt;Node8</title>
<path fill="none" stroke="midnightblue" d="M82.4276,-374.532C99.9071,-397.544 136.352,-441.463 177,-466.5 179.777,-468.21 182.688,-469.811 185.683,-471.307"/>
<polygon fill="midnightblue" stroke="midnightblue" points="184.322,-474.533 194.874,-475.489 187.222,-468.162 184.322,-474.533"/>
</g>
<!-- Node10 -->
<g id="node8" class="node"><title>Node10</title>
<g id="a_node8"><a xlink:href="classel_1_1base_1_1_typed_configurations.html#af39c020c90e67b5f817f318fcb11e611" target="_top" xlink:title="el::base::TypedConfigurations\l::fileStream">
<polygon fill="white" stroke="black" points="180,-426.5 180,-456.5 325,-456.5 325,-426.5 180,-426.5"/>
<text text-anchor="start" x="188" y="-444.5" font-family="Helvetica,sans-Serif" font-size="10.00">el::base::TypedConfigurations</text>
<text text-anchor="middle" x="252.5" y="-433.5" font-family="Helvetica,sans-Serif" font-size="10.00">::fileStream</text>
</a>
</g>
</g>
<!-- Node3&#45;&gt;Node10 -->
<g id="edge7" class="edge"><title>Node3&#45;&gt;Node10</title>
<path fill="none" stroke="midnightblue" d="M96.4725,-374.576C117.475,-386.865 148.546,-404.148 177,-416.5 182.084,-418.707 187.431,-420.843 192.828,-422.875"/>
<polygon fill="midnightblue" stroke="midnightblue" points="191.96,-426.284 202.554,-426.414 194.353,-419.706 191.96,-426.284"/>
</g>
<!-- Node11 -->
<g id="node9" class="node"><title>Node11</title>
<g id="a_node9"><a xlink:href="classel_1_1_logger.html#a9a89d454008b1ee1a197eec4b92ce22a" target="_top" xlink:title="Flushes logger to sync all log files for all levels. ">
<polygon fill="white" stroke="black" points="209.5,-525 209.5,-544 295.5,-544 295.5,-525 209.5,-525"/>
<text text-anchor="middle" x="252.5" y="-532" font-family="Helvetica,sans-Serif" font-size="10.00">el::Logger::flush</text>
</a>
</g>
</g>
<!-- Node3&#45;&gt;Node11 -->
<g id="edge9" class="edge"><title>Node3&#45;&gt;Node11</title>
<path fill="none" stroke="midnightblue" d="M77.333,-374.635C90.2409,-406.041 124.315,-478.447 177,-515.5 183.753,-520.249 191.592,-523.813 199.597,-526.486"/>
<polygon fill="midnightblue" stroke="midnightblue" points="198.804,-529.901 209.384,-529.326 200.755,-523.178 198.804,-529.901"/>
</g>
<!-- Node15 -->
<g id="node13" class="node"><title>Node15</title>
<g id="a_node13"><a xlink:href="classel_1_1_logger.html#a8583bfdeea4cb781396fd635addd64e9" target="_top" xlink:title="el::Logger::id">
<polygon fill="white" stroke="black" points="216,-388 216,-407 289,-407 289,-388 216,-388"/>
<text text-anchor="middle" x="252.5" y="-395" font-family="Helvetica,sans-Serif" font-size="10.00">el::Logger::id</text>
</a>
</g>
</g>
<!-- Node3&#45;&gt;Node15 -->
<g id="edge13" class="edge"><title>Node3&#45;&gt;Node15</title>
<path fill="none" stroke="midnightblue" d="M141.093,-374.192C162.828,-378.78 186.239,-383.723 205.886,-387.87"/>
<polygon fill="midnightblue" stroke="midnightblue" points="205.281,-391.32 215.788,-389.961 206.727,-384.471 205.281,-391.32"/>
</g>
<!-- Node16 -->
<g id="node14" class="node"><title>Node16</title>
<g id="a_node14"><a xlink:href="classel_1_1_logger.html#abdf56c00388c71d1cbaa7e2df4449202" target="_top" xlink:title="el::Logger::isFlushNeeded">
<polygon fill="white" stroke="black" points="187.5,-350 187.5,-369 317.5,-369 317.5,-350 187.5,-350"/>
<text text-anchor="middle" x="252.5" y="-357" font-family="Helvetica,sans-Serif" font-size="10.00">el::Logger::isFlushNeeded</text>
</a>
</g>
</g>
<!-- Node3&#45;&gt;Node16 -->
<g id="edge14" class="edge"><title>Node3&#45;&gt;Node16</title>
<path fill="none" stroke="midnightblue" d="M141.093,-359.5C152.876,-359.5 165.152,-359.5 177.054,-359.5"/>
<polygon fill="midnightblue" stroke="midnightblue" points="177.395,-363 187.395,-359.5 177.395,-356 177.395,-363"/>
</g>
<!-- Node17 -->
<g id="node15" class="node"><title>Node17</title>
<g id="a_node15"><a xlink:href="classel_1_1_log_message.html#a222670d05b4aab11da4083b69eeb8dea" target="_top" xlink:title="el::LogMessage::level">
<polygon fill="white" stroke="black" points="197.5,-312 197.5,-331 307.5,-331 307.5,-312 197.5,-312"/>
<text text-anchor="middle" x="252.5" y="-319" font-family="Helvetica,sans-Serif" font-size="10.00">el::LogMessage::level</text>
</a>
</g>
</g>
<!-- Node3&#45;&gt;Node17 -->
<g id="edge15" class="edge"><title>Node3&#45;&gt;Node17</title>
<path fill="none" stroke="midnightblue" d="M141.093,-344.808C159.369,-340.95 178.831,-336.841 196.243,-333.165"/>
<polygon fill="midnightblue" stroke="midnightblue" points="197.172,-336.546 206.234,-331.056 195.726,-329.697 197.172,-336.546"/>
</g>
<!-- Node18 -->
<g id="node16" class="node"><title>Node18</title>
<g id="a_node16"><a xlink:href="classel_1_1_logger.html#ac7d79707cdbcb0851913d1e07338bc13" target="_top" xlink:title="el::Logger::logBuilder">
<polygon fill="white" stroke="black" points="198.5,-274 198.5,-293 306.5,-293 306.5,-274 198.5,-274"/>
<text text-anchor="middle" x="252.5" y="-281" font-family="Helvetica,sans-Serif" font-size="10.00">el::Logger::logBuilder</text>
</a>
</g>
</g>
<!-- Node3&#45;&gt;Node18 -->
<g id="edge16" class="edge"><title>Node3&#45;&gt;Node18</title>
<path fill="none" stroke="midnightblue" d="M95.4084,-344.373C116.277,-331.717 147.721,-313.942 177,-302.5 183.265,-300.052 189.95,-297.831 196.647,-295.844"/>
<polygon fill="midnightblue" stroke="midnightblue" points="197.739,-299.172 206.42,-293.099 195.846,-292.433 197.739,-299.172"/>
</g>
<!-- Node19 -->
<g id="node17" class="node"><title>Node19</title>
<g id="a_node17"><a xlink:href="classel_1_1_log_message.html#a94e23201866cc1f9b9ff5bd1da8c9d98" target="_top" xlink:title="el::LogMessage::logger">
<polygon fill="white" stroke="black" points="193.5,-236 193.5,-255 311.5,-255 311.5,-236 193.5,-236"/>
<text text-anchor="middle" x="252.5" y="-243" font-family="Helvetica,sans-Serif" font-size="10.00">el::LogMessage::logger</text>
</a>
</g>
</g>
<!-- Node3&#45;&gt;Node19 -->
<g id="edge17" class="edge"><title>Node3&#45;&gt;Node19</title>
<path fill="none" stroke="midnightblue" d="M84.141,-344.182C102.424,-323.044 138.319,-285.201 177,-264.5 181.262,-262.219 185.81,-260.203 190.477,-258.423"/>
<polygon fill="midnightblue" stroke="midnightblue" points="191.851,-261.651 200.17,-255.09 189.575,-255.032 191.851,-261.651"/>
</g>
<!-- Node20 -->
<g id="node18" class="node"><title>Node20</title>
<g id="a_node18"><a xlink:href="classel_1_1_log_dispatch_data.html#a456673f303f61bd311333fa527f2e664" target="_top" xlink:title="el::LogDispatchData\l::logMessage">
<polygon fill="white" stroke="black" points="200.5,-186.5 200.5,-216.5 304.5,-216.5 304.5,-186.5 200.5,-186.5"/>
<text text-anchor="start" x="208.5" y="-204.5" font-family="Helvetica,sans-Serif" font-size="10.00">el::LogDispatchData</text>
<text text-anchor="middle" x="252.5" y="-193.5" font-family="Helvetica,sans-Serif" font-size="10.00">::logMessage</text>
</a>
</g>
</g>
<!-- Node3&#45;&gt;Node20 -->
<g id="edge18" class="edge"><title>Node3&#45;&gt;Node20</title>
<path fill="none" stroke="midnightblue" d="M79.539,-344.386C94.8747,-316.958 130.924,-258.84 177,-226.5 181.287,-223.491 185.964,-220.822 190.817,-218.46"/>
<polygon fill="midnightblue" stroke="midnightblue" points="192.566,-221.514 200.311,-214.284 189.748,-215.106 192.566,-221.514"/>
</g>
<!-- Node21 -->
<g id="node19" class="node"><title>Node21</title>
<g id="a_node19"><a xlink:href="classel_1_1base_1_1_typed_configurations.html#a20b9a1bd152cad3b72b558f97de3876b" target="_top" xlink:title="el::base::TypedConfigurations\l::toFile">
<polygon fill="white" stroke="black" points="180,-137.5 180,-167.5 325,-167.5 325,-137.5 180,-137.5"/>
<text text-anchor="start" x="188" y="-155.5" font-family="Helvetica,sans-Serif" font-size="10.00">el::base::TypedConfigurations</text>
<text text-anchor="middle" x="252.5" y="-144.5" font-family="Helvetica,sans-Serif" font-size="10.00">::toFile</text>
</a>
</g>
</g>
<!-- Node3&#45;&gt;Node21 -->
<g id="edge19" class="edge"><title>Node3&#45;&gt;Node21</title>
<path fill="none" stroke="midnightblue" d="M75.9946,-344.465C87.1685,-309.653 119.529,-222.95 177,-176.5 178.585,-175.219 180.241,-174.005 181.952,-172.856"/>
<polygon fill="midnightblue" stroke="midnightblue" points="184.041,-175.689 190.917,-167.628 180.515,-169.642 184.041,-175.689"/>
</g>
<!-- Node22 -->
<g id="node20" class="node"><title>Node22</title>
<g id="a_node20"><a xlink:href="classel_1_1base_1_1_typed_configurations.html#aeaa7bf7448319bc41e4e226124288c7e" target="_top" xlink:title="el::base::TypedConfigurations\l::toStandardOutput">
<polygon fill="white" stroke="black" points="180,-88.5 180,-118.5 325,-118.5 325,-88.5 180,-88.5"/>
<text text-anchor="start" x="188" y="-106.5" font-family="Helvetica,sans-Serif" font-size="10.00">el::base::TypedConfigurations</text>
<text text-anchor="middle" x="252.5" y="-95.5" font-family="Helvetica,sans-Serif" font-size="10.00">::toStandardOutput</text>
</a>
</g>
</g>
<!-- Node3&#45;&gt;Node22 -->
<g id="edge21" class="edge"><title>Node3&#45;&gt;Node22</title>
<path fill="none" stroke="midnightblue" d="M74.044,-344.251C81.7144,-303.064 108.451,-188.578 177,-127.5 178.325,-126.319 179.709,-125.196 181.143,-124.129"/>
<polygon fill="midnightblue" stroke="midnightblue" points="183.271,-126.923 189.824,-118.598 179.51,-121.019 183.271,-126.923"/>
</g>
<!-- Node23 -->
<g id="node21" class="node"><title>Node23</title>
<g id="a_node21"><a xlink:href="classel_1_1_logger.html#ac1d34e77892ea506b011d5279b6b139d" target="_top" xlink:title="el::Logger::typedConfigurations">
<polygon fill="white" stroke="black" points="177,-50 177,-69 328,-69 328,-50 177,-50"/>
<text text-anchor="middle" x="252.5" y="-57" font-family="Helvetica,sans-Serif" font-size="10.00">el::Logger::typedConfigurations</text>
</a>
</g>
</g>
<!-- Node3&#45;&gt;Node23 -->
<g id="edge23" class="edge"><title>Node3&#45;&gt;Node23</title>
<path fill="none" stroke="midnightblue" d="M72.46,-344.318C76.2819,-297.232 94.5342,-152.4 177,-78.5 178.737,-76.9439 180.583,-75.5116 182.516,-74.1936"/>
<polygon fill="midnightblue" stroke="midnightblue" points="184.502,-77.0915 191.477,-69.1167 181.051,-71.0011 184.502,-77.0915"/>
</g>
<!-- Node24 -->
<g id="node22" class="node"><title>Node24</title>
<g id="a_node22"><a xlink:href="classel_1_1base_1_1utils_1_1_str.html#a6672f1ba9c6fbb54240d1981b87c064f" target="_top" xlink:title="Converst wchar* to char* NOTE: Need to free return value after use! ">
<polygon fill="white" stroke="black" points="200.5,-0.5 200.5,-30.5 304.5,-30.5 304.5,-0.5 200.5,-0.5"/>
<text text-anchor="start" x="208.5" y="-18.5" font-family="Helvetica,sans-Serif" font-size="10.00">el::base::utils::Str</text>
<text text-anchor="middle" x="252.5" y="-7.5" font-family="Helvetica,sans-Serif" font-size="10.00">::wcharPtrToCharPtr</text>
</a>
</g>
</g>
<!-- Node3&#45;&gt;Node24 -->
<g id="edge24" class="edge"><title>Node3&#45;&gt;Node24</title>
<path fill="none" stroke="midnightblue" d="M71.9423,-344.413C74.2433,-293.97 88.5126,-129.374 177,-40.5 181.132,-36.3503 185.972,-32.8894 191.167,-30.0028"/>
<polygon fill="midnightblue" stroke="midnightblue" points="192.688,-33.1552 200.184,-25.6672 189.655,-26.8467 192.688,-33.1552"/>
</g>
<!-- Node9 -->
<g id="node7" class="node"><title>Node9</title>
<g id="a_node7"><a xlink:href="classel_1_1base_1_1_log_format.html#aeacb2c9d313ce5713b3e85e03a4baab5" target="_top" xlink:title="el::base::LogFormat\l::level">
<polygon fill="white" stroke="black" points="380.5,-281.5 380.5,-311.5 484.5,-311.5 484.5,-281.5 380.5,-281.5"/>
<text text-anchor="start" x="388.5" y="-299.5" font-family="Helvetica,sans-Serif" font-size="10.00">el::base::LogFormat</text>
<text text-anchor="middle" x="432.5" y="-288.5" font-family="Helvetica,sans-Serif" font-size="10.00">::level</text>
</a>
</g>
</g>
<!-- Node8&#45;&gt;Node9 -->
<g id="edge6" class="edge"><title>Node8&#45;&gt;Node9</title>
<path fill="none" stroke="midnightblue" d="M313.623,-475.45C318.741,-472.911 323.625,-469.95 328,-466.5 377.351,-427.579 408.824,-358.14 422.91,-321.202"/>
<polygon fill="midnightblue" stroke="midnightblue" points="426.238,-322.291 426.422,-311.698 419.672,-319.865 426.238,-322.291"/>
</g>
<!-- Node10&#45;&gt;Node9 -->
<g id="edge8" class="edge"><title>Node10&#45;&gt;Node9</title>
<path fill="none" stroke="midnightblue" d="M309.584,-426.377C316.045,-423.575 322.337,-420.303 328,-416.5 366.371,-390.729 398.956,-347.1 416.822,-320.152"/>
<polygon fill="midnightblue" stroke="midnightblue" points="419.798,-321.996 422.304,-311.702 413.925,-318.186 419.798,-321.996"/>
</g>
<!-- Node12 -->
<g id="node10" class="node"><title>Node12</title>
<g id="a_node10"><a xlink:href="classel_1_1_level_helper.html#a1279f27df29a003df5ecc3d0bf4dacbb" target="_top" xlink:title="Casts int(ushort) to level, useful for iterating through enum. ">
<polygon fill="white" stroke="black" points="364,-525 364,-544 501,-544 501,-525 364,-525"/>
<text text-anchor="middle" x="432.5" y="-532" font-family="Helvetica,sans-Serif" font-size="10.00">el::LevelHelper::castFromInt</text>
</a>
</g>
</g>
<!-- Node11&#45;&gt;Node12 -->
<g id="edge10" class="edge"><title>Node11&#45;&gt;Node12</title>
<path fill="none" stroke="midnightblue" d="M295.684,-534.5C313.097,-534.5 333.854,-534.5 353.835,-534.5"/>
<polygon fill="midnightblue" stroke="midnightblue" points="353.877,-538 363.877,-534.5 353.877,-531 353.877,-538"/>
</g>
<!-- Node13 -->
<g id="node11" class="node"><title>Node13</title>
<g id="a_node11"><a xlink:href="classel_1_1_level_helper.html#a7f0dbfceb2354a72c2802d02c300430d" target="_top" xlink:title="Applies specified function to each level starting from startIndex. ">
<polygon fill="white" stroke="black" points="373,-475.5 373,-505.5 492,-505.5 492,-475.5 373,-475.5"/>
<text text-anchor="start" x="381" y="-493.5" font-family="Helvetica,sans-Serif" font-size="10.00">el::LevelHelper::forEach</text>
<text text-anchor="middle" x="432.5" y="-482.5" font-family="Helvetica,sans-Serif" font-size="10.00">Level</text>
</a>
</g>
</g>
<!-- Node11&#45;&gt;Node13 -->
<g id="edge11" class="edge"><title>Node11&#45;&gt;Node13</title>
<path fill="none" stroke="midnightblue" d="M292.123,-524.953C312.883,-519.821 339.094,-513.342 363.17,-507.391"/>
<polygon fill="midnightblue" stroke="midnightblue" points="364.111,-510.763 372.979,-504.966 362.432,-503.968 364.111,-510.763"/>
</g>
<!-- Node14 -->
<g id="node12" class="node"><title>Node14</title>
<g id="a_node12"><a xlink:href="classel_1_1base_1_1threading_1_1_thread_safe.html#affb45b35790a7305d0a659562c8104fc" target="_top" xlink:title="el::base::threading\l::ThreadSafe::lock">
<polygon fill="white" stroke="black" points="384,-563.5 384,-593.5 481,-593.5 481,-563.5 384,-563.5"/>
<text text-anchor="start" x="392" y="-581.5" font-family="Helvetica,sans-Serif" font-size="10.00">el::base::threading</text>
<text text-anchor="middle" x="432.5" y="-570.5" font-family="Helvetica,sans-Serif" font-size="10.00">::ThreadSafe::lock</text>
</a>
</g>
</g>
<!-- Node11&#45;&gt;Node14 -->
<g id="edge12" class="edge"><title>Node11&#45;&gt;Node14</title>
<path fill="none" stroke="midnightblue" d="M292.123,-544.047C315.968,-549.942 347.007,-557.614 373.739,-564.222"/>
<polygon fill="midnightblue" stroke="midnightblue" points="373.202,-567.695 383.75,-566.697 374.882,-560.899 373.202,-567.695"/>
</g>
<!-- Node21&#45;&gt;Node9 -->
<g id="edge20" class="edge"><title>Node21&#45;&gt;Node9</title>
<path fill="none" stroke="midnightblue" d="M311.516,-167.651C317.296,-170.189 322.903,-173.121 328,-176.5 366.526,-202.038 399.062,-245.74 416.877,-272.766"/>
<polygon fill="midnightblue" stroke="midnightblue" points="413.981,-274.733 422.342,-281.241 419.865,-270.94 413.981,-274.733"/>
</g>
<!-- Node22&#45;&gt;Node9 -->
<g id="edge22" class="edge"><title>Node22&#45;&gt;Node9</title>
<path fill="none" stroke="midnightblue" d="M313.613,-118.562C318.734,-121.099 323.621,-124.056 328,-127.5 377.191,-166.19 408.731,-235.221 422.869,-271.943"/>
<polygon fill="midnightblue" stroke="midnightblue" points="419.62,-273.246 426.395,-281.391 426.178,-270.799 419.62,-273.246"/>
</g>
</g>
</svg>
