<?xml version="1.0" encoding="UTF-8" standalone="no"?>
<!DOCTYPE svg PUBLIC "-//W3C//DTD SVG 1.1//EN"
 "http://www.w3.org/Graphics/SVG/1.1/DTD/svg11.dtd">
<!-- Generated by graphviz version 2.38.0 (20140413.2041)
 -->
<!-- Title: vpr::Device::setupQueues Pages: 1 -->
<svg width="401pt" height="28pt"
 viewBox="0.00 0.00 401.00 28.00" xmlns="http://www.w3.org/2000/svg" xmlns:xlink="http://www.w3.org/1999/xlink">
<g id="graph0" class="graph" transform="scale(1 1) rotate(0) translate(4 24)">
<title>vpr::Device::setupQueues</title>
<polygon fill="white" stroke="none" points="-4,4 -4,-24 397,-24 397,4 -4,4"/>
<!-- Node194 -->
<g id="node1" class="node"><title>Node194</title>
<polygon fill="#bfbfbf" stroke="black" points="0,-0.5 0,-19.5 127,-19.5 127,-0.5 0,-0.5"/>
<text text-anchor="middle" x="63.5" y="-7.5" font-family="Helvetica,sans-Serif" font-size="10.00">vpr::Device::setupQueues</text>
</g>
<!-- Node195 -->
<g id="node2" class="node"><title>Node195</title>
<g id="a_node2"><a xlink:href="classvpr_1_1_device.html#a3b0734cd598d9a64f3c459e9dc4e84ce" target="_top" xlink:title="vpr::Device::create">
<polygon fill="white" stroke="black" points="163,-0.5 163,-19.5 259,-19.5 259,-0.5 163,-0.5"/>
<text text-anchor="middle" x="211" y="-7.5" font-family="Helvetica,sans-Serif" font-size="10.00">vpr::Device::create</text>
</a>
</g>
</g>
<!-- Node194&#45;&gt;Node195 -->
<g id="edge1" class="edge"><title>Node194&#45;&gt;Node195</title>
<path fill="none" stroke="midnightblue" d="M137.248,-10C145.96,-10 154.673,-10 162.886,-10"/>
<polygon fill="midnightblue" stroke="midnightblue" points="137.05,-6.5001 127.05,-10 137.049,-13.5001 137.05,-6.5001"/>
</g>
<!-- Node196 -->
<g id="node3" class="node"><title>Node196</title>
<g id="a_node3"><a xlink:href="classvpr_1_1_device.html#a870f832d4e57cf09fc0705718a498aff" target="_top" xlink:title="vpr::Device::Device">
<polygon fill="white" stroke="black" points="295,-0.5 295,-19.5 393,-19.5 393,-0.5 295,-0.5"/>
<text text-anchor="middle" x="344" y="-7.5" font-family="Helvetica,sans-Serif" font-size="10.00">vpr::Device::Device</text>
</a>
</g>
</g>
<!-- Node195&#45;&gt;Node196 -->
<g id="edge2" class="edge"><title>Node195&#45;&gt;Node196</title>
<path fill="none" stroke="midnightblue" d="M269.503,-10C277.979,-10 286.636,-10 294.895,-10"/>
<polygon fill="midnightblue" stroke="midnightblue" points="269.294,-6.5001 259.294,-10 269.294,-13.5001 269.294,-6.5001"/>
</g>
</g>
</svg>
