<?xml version="1.0" encoding="UTF-8" standalone="no"?>
<!DOCTYPE svg PUBLIC "-//W3C//DTD SVG 1.1//EN"
 "http://www.w3.org/Graphics/SVG/1.1/DTD/svg11.dtd">
<!-- Generated by graphviz version 2.38.0 (20140413.2041)
 -->
<!-- Title: vpr::Event Pages: 1 -->
<!--zoomable 263 -->
<svg id="main" version="1.1" xmlns="http://www.w3.org/2000/svg" xmlns:xlink="http://www.w3.org/1999/xlink" xml:space="preserve" onload="init(evt)">
<style type="text/css"><![CDATA[
.edge:hover path { stroke: red; }
.edge:hover polygon { stroke: red; fill: red; }
]]></style>
<script type="text/javascript"><![CDATA[
var edges = document.getElementsByTagName('g');
if (edges && edges.length) {
  for (var i=0;i<edges.length;i++) {
    if (edges[i].id.substr(0,4)=='edge') {
      edges[i].setAttribute('class','edge');
    }
  }
}
]]></script>
        <defs>
                <circle id="rim" cx="0" cy="0" r="7"/>
                <circle id="rim2" cx="0" cy="0" r="3.5"/>
                <g id="zoomPlus">
                        <use xlink:href="#rim" fill="#404040">
                                <set attributeName="fill" to="#808080" begin="zoomplus.mouseover" end="zoomplus.mouseout"/>
                        </use>
                        <path d="M-4,0h8M0,-4v8" fill="none" stroke="white" stroke-width="1.5" pointer-events="none"/>
                </g>
                <g id="zoomMin">
                        <use xlink:href="#rim" fill="#404040">
                                <set attributeName="fill" to="#808080" begin="zoomminus.mouseover" end="zoomminus.mouseout"/>
                        </use>
                        <path d="M-4,0h8" fill="none" stroke="white" stroke-width="1.5" pointer-events="none"/>
                </g>
                <g id="dirArrow">
                        <path fill="none" stroke="white" stroke-width="1.5" d="M0,-3.0v7 M-2.5,-0.5L0,-3.0L2.5,-0.5"/>
                </g>
               <g id="resetDef">
                       <use xlink:href="#rim2" fill="#404040">
                               <set attributeName="fill" to="#808080" begin="reset.mouseover" end="reset.mouseout"/>
                       </use>
               </g>
        </defs>

<script type="text/javascript">
var viewWidth = 1183;
var viewHeight = 263;
var sectionId = 'dynsection-0';
</script>
<script xlink:href="svgpan.js"/>
<svg id="graph" class="graph">
<g id="viewport">
<title>vpr::Event</title>
<polygon fill="white" stroke="none" points="-4,4 -4,-259 1179,-259 1179,4 -4,4"/>
<!-- Node1 -->
<g id="node1" class="node"><title>Node1</title>
<polygon fill="#bfbfbf" stroke="black" points="956,-186 956,-205 1015,-205 1015,-186 956,-186"/>
<text text-anchor="middle" x="985.5" y="-193" font-family="Helvetica,sans-Serif" font-size="10.00">vpr::Event</text>
</g>
<!-- Node2 -->
<g id="node2" class="node"><title>Node2</title>
<g id="a_node2"><a xlink:href="classvpr_1_1_device.html" target="_top" xlink:title="!The Device class is a wrapper around the vkLogicalDevice object. ">
<polygon fill="white" stroke="black" points="819,-148 819,-167 882,-167 882,-148 819,-148"/>
<text text-anchor="middle" x="850.5" y="-155" font-family="Helvetica,sans-Serif" font-size="10.00">vpr::Device</text>
</a>
</g>
</g>
<!-- Node2&#45;&gt;Node1 -->
<g id="edge1" class="edge"><title>Node2&#45;&gt;Node1</title>
<path fill="none" stroke="#9a32cd" stroke-dasharray="5,2" d="M891.482,-169.983C894.361,-170.846 897.223,-171.693 900,-172.5 918.542,-177.889 939.483,-183.592 955.879,-187.97"/>
<polygon fill="#9a32cd" stroke="#9a32cd" points="892.307,-166.577 881.722,-167.022 890.275,-173.275 892.307,-166.577"/>
<text text-anchor="middle" x="915.5" y="-183.5" font-family="Helvetica,sans-Serif" font-size="10.00"> device</text>
</g>
<!-- Node11 -->
<g id="node9" class="node"><title>Node11</title>
<g id="a_node9"><a xlink:href="classvpr_1_1_allocator.html" target="_top" xlink:title="The primary interface and class of this subsystem. ">
<polygon fill="white" stroke="red" points="949,-148 949,-167 1022,-167 1022,-148 949,-148"/>
<text text-anchor="middle" x="985.5" y="-155" font-family="Helvetica,sans-Serif" font-size="10.00">vpr::Allocator</text>
</a>
</g>
</g>
<!-- Node2&#45;&gt;Node11 -->
<g id="edge9" class="edge"><title>Node2&#45;&gt;Node11</title>
<path fill="none" stroke="#9a32cd" stroke-dasharray="5,2" d="M892.022,-157.5C910.184,-157.5 931.414,-157.5 948.949,-157.5"/>
<polygon fill="#9a32cd" stroke="#9a32cd" points="892.013,-154 882.013,-157.5 892.013,-161 892.013,-154"/>
<text text-anchor="middle" x="915.5" y="-160.5" font-family="Helvetica,sans-Serif" font-size="10.00"> parent</text>
</g>
<!-- Node3 -->
<g id="node3" class="node"><title>Node3</title>
<polygon fill="white" stroke="#bfbfbf" points="550,-224.5 550,-254.5 691,-254.5 691,-224.5 550,-224.5"/>
<text text-anchor="start" x="558" y="-242.5" font-family="Helvetica,sans-Serif" font-size="10.00">std::map&lt; VkQueueFlags,</text>
<text text-anchor="middle" x="620.5" y="-231.5" font-family="Helvetica,sans-Serif" font-size="10.00"> VkDeviceQueueCreateInfo &gt;</text>
</g>
<!-- Node3&#45;&gt;Node2 -->
<g id="edge2" class="edge"><title>Node3&#45;&gt;Node2</title>
<path fill="none" stroke="#9a32cd" stroke-dasharray="5,2" d="M701.471,-231.07C733.657,-225.435 770.336,-216.063 801,-200.5 817.256,-192.25 832.36,-177.222 841.26,-167.298"/>
<polygon fill="#9a32cd" stroke="#9a32cd" points="700.487,-227.685 691.192,-232.771 701.63,-234.591 700.487,-227.685"/>
<text text-anchor="middle" x="755" y="-231.5" font-family="Helvetica,sans-Serif" font-size="10.00"> queueInfos</text>
</g>
<!-- Node4 -->
<g id="node4" class="node"><title>Node4</title>
<g id="a_node4"><a xlink:href="namespacevpr.html#structvpr_1_1vk_queue_family_indices" target="_top" xlink:title="vpr::vkQueueFamilyIndices">
<polygon fill="white" stroke="black" points="554.5,-186 554.5,-205 686.5,-205 686.5,-186 554.5,-186"/>
<text text-anchor="middle" x="620.5" y="-193" font-family="Helvetica,sans-Serif" font-size="10.00">vpr::vkQueueFamilyIndices</text>
</a>
</g>
</g>
<!-- Node4&#45;&gt;Node2 -->
<g id="edge3" class="edge"><title>Node4&#45;&gt;Node2</title>
<path fill="none" stroke="#9a32cd" stroke-dasharray="5,2" d="M696.955,-187.929C729.193,-184.046 767.127,-178.612 801,-171.5 806.918,-170.257 813.169,-168.668 819.144,-167.008"/>
<polygon fill="#9a32cd" stroke="#9a32cd" points="696.223,-184.491 686.701,-189.136 697.041,-191.443 696.223,-184.491"/>
<text text-anchor="middle" x="755" y="-188.5" font-family="Helvetica,sans-Serif" font-size="10.00"> QueueFamilyIndices</text>
</g>
<!-- Node5 -->
<g id="node5" class="node"><title>Node5</title>
<polygon fill="white" stroke="#bfbfbf" points="329.5,-98.5 329.5,-128.5 424.5,-128.5 424.5,-98.5 329.5,-98.5"/>
<text text-anchor="start" x="337.5" y="-116.5" font-family="Helvetica,sans-Serif" font-size="10.00">std::vector&lt; const</text>
<text text-anchor="middle" x="377" y="-105.5" font-family="Helvetica,sans-Serif" font-size="10.00"> char *&gt;</text>
</g>
<!-- Node5&#45;&gt;Node2 -->
<g id="edge4" class="edge"><title>Node5&#45;&gt;Node2</title>
<path fill="none" stroke="#9a32cd" stroke-dasharray="5,2" d="M434.868,-113.244C516.607,-113.842 671.705,-118.588 801,-143.5 807.11,-144.677 813.561,-146.278 819.695,-147.978"/>
<polygon fill="#9a32cd" stroke="#9a32cd" points="434.81,-109.744 424.791,-113.189 434.771,-116.744 434.81,-109.744"/>
<text text-anchor="middle" x="620.5" y="-130.5" font-family="Helvetica,sans-Serif" font-size="10.00"> enabledExtensions</text>
</g>
<!-- Node28 -->
<g id="node10" class="node"><title>Node28</title>
<g id="a_node10"><a xlink:href="classvpr_1_1_instance.html" target="_top" xlink:title="Instance is a wrapper around the base Vulkan object that must be initialized first. ">
<polygon fill="white" stroke="black" points="585,-56 585,-75 656,-75 656,-56 585,-56"/>
<text text-anchor="middle" x="620.5" y="-63" font-family="Helvetica,sans-Serif" font-size="10.00">vpr::Instance</text>
</a>
</g>
</g>
<!-- Node5&#45;&gt;Node28 -->
<g id="edge13" class="edge"><title>Node5&#45;&gt;Node28</title>
<path fill="none" stroke="#9a32cd" stroke-dasharray="5,2" d="M434.362,-96.3329C438.286,-95.3197 442.193,-94.3633 446,-93.5 493.609,-82.7023 549.48,-74.4642 584.689,-69.8041"/>
<polygon fill="#9a32cd" stroke="#9a32cd" points="433.37,-92.9752 424.619,-98.9477 435.184,-99.736 433.37,-92.9752"/>
<text text-anchor="middle" x="489" y="-96.5" font-family="Helvetica,sans-Serif" font-size="10.00"> enabledExtensions</text>
</g>
<!-- Node6 -->
<g id="node6" class="node"><title>Node6</title>
<g id="a_node6"><a xlink:href="classvpr_1_1_physical_device.html" target="_top" xlink:title="! PhysicalDevice is a wrapper around a VkPhysicalDevice object, which is itself merely a handle repre...">
<polygon fill="white" stroke="black" points="174,-118 174,-137 275,-137 275,-118 174,-118"/>
<text text-anchor="middle" x="224.5" y="-125" font-family="Helvetica,sans-Serif" font-size="10.00">vpr::PhysicalDevice</text>
</a>
</g>
</g>
<!-- Node6&#45;&gt;Node2 -->
<g id="edge5" class="edge"><title>Node6&#45;&gt;Node2</title>
<path fill="none" stroke="#9a32cd" stroke-dasharray="5,2" d="M285.127,-134.038C298.558,-135.342 312.757,-136.589 326,-137.5 512.919,-150.358 737.993,-155.473 818.782,-156.981"/>
<polygon fill="#9a32cd" stroke="#9a32cd" points="285.331,-130.541 275.034,-133.034 284.638,-137.507 285.331,-130.541"/>
<text text-anchor="middle" x="489" y="-150.5" font-family="Helvetica,sans-Serif" font-size="10.00"> parent</text>
</g>
<!-- Node29 -->
<g id="node11" class="node"><title>Node29</title>
<polygon fill="white" stroke="#bfbfbf" points="326,-49.5 326,-79.5 428,-79.5 428,-49.5 326,-49.5"/>
<text text-anchor="start" x="334" y="-67.5" font-family="Helvetica,sans-Serif" font-size="10.00">std::unique_ptr&lt; vpr</text>
<text text-anchor="middle" x="377" y="-56.5" font-family="Helvetica,sans-Serif" font-size="10.00">::PhysicalDevice &gt;</text>
</g>
<!-- Node6&#45;&gt;Node29 -->
<g id="edge12" class="edge"><title>Node6&#45;&gt;Node29</title>
<path fill="none" stroke="#9a32cd" stroke-dasharray="5,2" d="M257.794,-113.981C281.956,-103.867 315.002,-90.034 340.011,-79.565"/>
<polygon fill="#9a32cd" stroke="#9a32cd" points="256.231,-110.842 248.358,-117.932 258.934,-117.299 256.231,-110.842"/>
<text text-anchor="middle" x="300.5" y="-101.5" font-family="Helvetica,sans-Serif" font-size="10.00"> ptr</text>
</g>
<!-- Node7 -->
<g id="node7" class="node"><title>Node7</title>
<polygon fill="white" stroke="#bfbfbf" points="0,-112.5 0,-142.5 116,-142.5 116,-112.5 0,-112.5"/>
<text text-anchor="start" x="8" y="-130.5" font-family="Helvetica,sans-Serif" font-size="10.00">std::unique_ptr&lt; vpr</text>
<text text-anchor="middle" x="58" y="-119.5" font-family="Helvetica,sans-Serif" font-size="10.00">::PhysicalDeviceImpl &gt;</text>
</g>
<!-- Node7&#45;&gt;Node6 -->
<g id="edge6" class="edge"><title>Node7&#45;&gt;Node6</title>
<path fill="none" stroke="#9a32cd" stroke-dasharray="5,2" d="M126.39,-127.5C142.298,-127.5 158.973,-127.5 173.928,-127.5"/>
<polygon fill="#9a32cd" stroke="#9a32cd" points="126.072,-124 116.072,-127.5 126.072,-131 126.072,-124"/>
<text text-anchor="middle" x="145" y="-130.5" font-family="Helvetica,sans-Serif" font-size="10.00"> impl</text>
</g>
<!-- Node10 -->
<g id="node8" class="node"><title>Node10</title>
<polygon fill="white" stroke="#bfbfbf" points="1073,-121.5 1073,-151.5 1175,-151.5 1175,-121.5 1073,-121.5"/>
<text text-anchor="start" x="1081" y="-139.5" font-family="Helvetica,sans-Serif" font-size="10.00">std::unique_ptr&lt; vpr</text>
<text text-anchor="middle" x="1124" y="-128.5" font-family="Helvetica,sans-Serif" font-size="10.00">::Allocator &gt;</text>
</g>
<!-- Node10&#45;&gt;Node2 -->
<g id="edge7" class="edge"><title>Node10&#45;&gt;Node2</title>
<path fill="none" stroke="#9a32cd" stroke-dasharray="5,2" d="M1062.73,-127.469C1029.1,-123.908 986.545,-121.854 949,-127.5 923.255,-131.371 894.928,-140.688 875.474,-147.921"/>
<polygon fill="#9a32cd" stroke="#9a32cd" points="1062.53,-130.969 1072.86,-128.615 1063.32,-124.013 1062.53,-130.969"/>
<text text-anchor="middle" x="985.5" y="-130.5" font-family="Helvetica,sans-Serif" font-size="10.00"> vkAllocator</text>
</g>
<!-- Node11&#45;&gt;Node10 -->
<g id="edge8" class="edge"><title>Node11&#45;&gt;Node10</title>
<path fill="none" stroke="#9a32cd" stroke-dasharray="5,2" d="M1032.16,-150.476C1045.19,-148.47 1059.47,-146.273 1072.77,-144.228"/>
<polygon fill="#9a32cd" stroke="#9a32cd" points="1031.36,-147.057 1022.01,-152.037 1032.42,-153.976 1031.36,-147.057"/>
<text text-anchor="middle" x="1047.5" y="-151.5" font-family="Helvetica,sans-Serif" font-size="10.00"> ptr</text>
</g>
<!-- Node28&#45;&gt;Node2 -->
<g id="edge10" class="edge"><title>Node28&#45;&gt;Node2</title>
<path fill="none" stroke="#9a32cd" stroke-dasharray="5,2" d="M666.475,-63.4383C704.808,-63.702 760.04,-69.0293 801,-93.5 822.782,-106.513 838.106,-133.371 845.145,-147.811"/>
<polygon fill="#9a32cd" stroke="#9a32cd" points="666.121,-59.9399 656.137,-63.4866 666.153,-66.9398 666.121,-59.9399"/>
<text text-anchor="middle" x="755" y="-96.5" font-family="Helvetica,sans-Serif" font-size="10.00"> parentInstance</text>
</g>
<!-- Node29&#45;&gt;Node28 -->
<g id="edge11" class="edge"><title>Node29&#45;&gt;Node28</title>
<path fill="none" stroke="#9a32cd" stroke-dasharray="5,2" d="M438.262,-59.8338C440.876,-59.7057 443.464,-59.5931 446,-59.5 484.196,-58.0976 493.8,-58.1918 532,-59.5 549.348,-60.0941 568.597,-61.3489 584.614,-62.5581"/>
<polygon fill="#9a32cd" stroke="#9a32cd" points="437.901,-56.3484 428.11,-60.3969 438.289,-63.3376 437.901,-56.3484"/>
<text text-anchor="middle" x="489" y="-62.5" font-family="Helvetica,sans-Serif" font-size="10.00"> physicalDevice</text>
</g>
<!-- Node30 -->
<g id="node12" class="node"><title>Node30</title>
<polygon fill="white" stroke="#bfbfbf" points="326,-0.5 326,-30.5 428,-30.5 428,-0.5 326,-0.5"/>
<text text-anchor="start" x="334" y="-18.5" font-family="Helvetica,sans-Serif" font-size="10.00">std::unique_ptr&lt; vpr</text>
<text text-anchor="middle" x="377" y="-7.5" font-family="Helvetica,sans-Serif" font-size="10.00">::SurfaceKHR &gt;</text>
</g>
<!-- Node30&#45;&gt;Node28 -->
<g id="edge14" class="edge"><title>Node30&#45;&gt;Node28</title>
<path fill="none" stroke="#9a32cd" stroke-dasharray="5,2" d="M438.315,-25.51C466.813,-30.4837 501.249,-36.8463 532,-43.5 549.453,-47.2763 568.713,-52.052 584.71,-56.1882"/>
<polygon fill="#9a32cd" stroke="#9a32cd" points="438.553,-21.9992 428.103,-23.7425 437.359,-28.8967 438.553,-21.9992"/>
<text text-anchor="middle" x="489" y="-46.5" font-family="Helvetica,sans-Serif" font-size="10.00"> surface</text>
</g>
</g>
</svg>
        <g id="navigator" transform="translate(0 0)" fill="#404254">
                <rect fill="#f2f5e9" fill-opacity="0.5" stroke="#606060" stroke-width=".5" x="0" y="0" width="60" height="60"/>
                <use id="zoomplus" xlink:href="#zoomPlus" x="17" y="9" onmousedown="handleZoom(evt,'in')"/>
                <use id="zoomminus" xlink:href="#zoomMin" x="42" y="9" onmousedown="handleZoom(evt,'out')"/>
                <use id="reset" xlink:href="#resetDef" x="30" y="36" onmousedown="handleReset()"/>
                <g id="arrowUp" xlink:href="#dirArrow" transform="translate(30 24)" onmousedown="handlePan(0,-1)">
                  <use xlink:href="#rim" fill="#404040">
                        <set attributeName="fill" to="#808080" begin="arrowUp.mouseover" end="arrowUp.mouseout"/>
                  </use>
                  <path fill="none" stroke="white" stroke-width="1.5" d="M0,-3.0v7 M-2.5,-0.5L0,-3.0L2.5,-0.5"/>
                </g>
                <g id="arrowRight" xlink:href="#dirArrow" transform="rotate(90) translate(36 -43)" onmousedown="handlePan(1,0)">
                  <use xlink:href="#rim" fill="#404040">
                        <set attributeName="fill" to="#808080" begin="arrowRight.mouseover" end="arrowRight.mouseout"/>
                  </use>
                  <path fill="none" stroke="white" stroke-width="1.5" d="M0,-3.0v7 M-2.5,-0.5L0,-3.0L2.5,-0.5"/>
                </g>
                <g id="arrowDown" xlink:href="#dirArrow" transform="rotate(180) translate(-30 -48)" onmousedown="handlePan(0,1)">
                  <use xlink:href="#rim" fill="#404040">
                        <set attributeName="fill" to="#808080" begin="arrowDown.mouseover" end="arrowDown.mouseout"/>
                  </use>
                  <path fill="none" stroke="white" stroke-width="1.5" d="M0,-3.0v7 M-2.5,-0.5L0,-3.0L2.5,-0.5"/>
                </g>
                <g id="arrowLeft" xlink:href="#dirArrow" transform="rotate(270) translate(-36 17)" onmousedown="handlePan(-1,0)">
                  <use xlink:href="#rim" fill="#404040">
                        <set attributeName="fill" to="#808080" begin="arrowLeft.mouseover" end="arrowLeft.mouseout"/>
                  </use>
                  <path fill="none" stroke="white" stroke-width="1.5" d="M0,-3.0v7 M-2.5,-0.5L0,-3.0L2.5,-0.5"/>
                </g>
        </g>
        <svg viewBox="0 0 15 15" width="100%" height="30px" preserveAspectRatio="xMaxYMin meet">
         <g id="arrow_out" transform="scale(0.3 0.3)">
          <a xlink:href="classvpr_1_1_event__coll__graph_org.svg" target="_base">
           <rect id="button" ry="5" rx="5" y="6" x="6" height="38" width="38"
                fill="#f2f5e9" fill-opacity="0.5" stroke="#606060" stroke-width="1.0"/>
           <path id="arrow"
             d="M 11.500037,31.436501 C 11.940474,20.09759 22.043105,11.32322 32.158766,21.979434 L 37.068811,17.246167 C 37.068811,17.246167 37.088388,32 37.088388,32 L 22.160133,31.978069 C 22.160133,31.978069 26.997745,27.140456 26.997745,27.140456 C 18.528582,18.264221 13.291696,25.230495 11.500037,31.436501 z"
             style="fill:#404040;"/>
          </a>
         </g>
        </svg>
</svg>
