<?xml version="1.0" encoding="UTF-8" standalone="no"?>
<!DOCTYPE svg PUBLIC "-//W3C//DTD SVG 1.1//EN"
 "http://www.w3.org/Graphics/SVG/1.1/DTD/svg11.dtd">
<!-- Generated by graphviz version 2.38.0 (20140413.2041)
 -->
<!-- Title: vpr::Device::setupSparseBindingQueues Pages: 1 -->
<svg width="474pt" height="100pt"
 viewBox="0.00 0.00 474.00 99.50" xmlns="http://www.w3.org/2000/svg" xmlns:xlink="http://www.w3.org/1999/xlink">
<g id="graph0" class="graph" transform="scale(1 1) rotate(0) translate(4 95.5)">
<title>vpr::Device::setupSparseBindingQueues</title>
<polygon fill="white" stroke="none" points="-4,4 -4,-95.5 470,-95.5 470,4 -4,4"/>
<!-- Node160 -->
<g id="node1" class="node"><title>Node160</title>
<polygon fill="#bfbfbf" stroke="black" points="0,-39 0,-69 124,-69 124,-39 0,-39"/>
<text text-anchor="start" x="8" y="-57" font-family="Helvetica,sans-Serif" font-size="10.00">vpr::Device::setupSparse</text>
<text text-anchor="middle" x="62" y="-46" font-family="Helvetica,sans-Serif" font-size="10.00">BindingQueues</text>
</g>
<!-- Node161 -->
<g id="node2" class="node"><title>Node161</title>
<g id="a_node2"><a xlink:href="classvpr_1_1_physical_device.html#af443c2a585d182166c464f252782a57b" target="_top" xlink:title="! Attempts to find a Queue family that supports the full bitfield given: this can be multiple types...">
<polygon fill="white" stroke="black" points="347,-61 347,-91 466,-91 466,-61 347,-61"/>
<text text-anchor="start" x="355" y="-79" font-family="Helvetica,sans-Serif" font-size="10.00">vpr::PhysicalDevice</text>
<text text-anchor="middle" x="406.5" y="-68" font-family="Helvetica,sans-Serif" font-size="10.00">::GetQueueFamilyIndex</text>
</a>
</g>
</g>
<!-- Node160&#45;&gt;Node161 -->
<g id="edge1" class="edge"><title>Node160&#45;&gt;Node161</title>
<path fill="none" stroke="midnightblue" d="M111.383,-69.0249C126.767,-73.11 143.955,-76.9656 160,-79 219.217,-86.5084 287.111,-84.9045 336.468,-81.9108"/>
<polygon fill="midnightblue" stroke="midnightblue" points="336.954,-85.3869 346.709,-81.2537 336.506,-78.4013 336.954,-85.3869"/>
</g>
<!-- Node162 -->
<g id="node3" class="node"><title>Node162</title>
<g id="a_node3"><a xlink:href="classvpr_1_1_physical_device.html#a2ee4f96b16a9762953ecad3b658d84e6" target="_top" xlink:title="vpr::PhysicalDevice\l::GetQueueFamilyProperties">
<polygon fill="white" stroke="black" points="165.5,-39 165.5,-69 305.5,-69 305.5,-39 165.5,-39"/>
<text text-anchor="start" x="173.5" y="-57" font-family="Helvetica,sans-Serif" font-size="10.00">vpr::PhysicalDevice</text>
<text text-anchor="middle" x="235.5" y="-46" font-family="Helvetica,sans-Serif" font-size="10.00">::GetQueueFamilyProperties</text>
</a>
</g>
</g>
<!-- Node160&#45;&gt;Node162 -->
<g id="edge2" class="edge"><title>Node160&#45;&gt;Node162</title>
<path fill="none" stroke="midnightblue" d="M124.431,-54C134.379,-54 144.803,-54 155.103,-54"/>
<polygon fill="midnightblue" stroke="midnightblue" points="155.341,-57.5001 165.341,-54 155.341,-50.5001 155.341,-57.5001"/>
</g>
<!-- Node163 -->
<g id="node4" class="node"><title>Node163</title>
<g id="a_node4"><a xlink:href="classvpr_1_1_device.html#a4884447888b9c8aacc288591056db19d" target="_top" xlink:title="vpr::Device::setupQueueFamily">
<polygon fill="white" stroke="black" points="160,-0.5 160,-19.5 311,-19.5 311,-0.5 160,-0.5"/>
<text text-anchor="middle" x="235.5" y="-7.5" font-family="Helvetica,sans-Serif" font-size="10.00">vpr::Device::setupQueueFamily</text>
</a>
</g>
</g>
<!-- Node160&#45;&gt;Node163 -->
<g id="edge4" class="edge"><title>Node160&#45;&gt;Node163</title>
<path fill="none" stroke="midnightblue" d="M121.541,-38.9808C143.139,-33.4396 167.306,-27.2393 187.727,-22.0001"/>
<polygon fill="midnightblue" stroke="midnightblue" points="188.607,-25.3878 197.423,-19.5124 186.867,-18.6074 188.607,-25.3878"/>
</g>
<!-- Node162&#45;&gt;Node161 -->
<g id="edge3" class="edge"><title>Node162&#45;&gt;Node161</title>
<path fill="none" stroke="midnightblue" d="M305.726,-63.0117C315.981,-64.3467 326.547,-65.7221 336.791,-67.0557"/>
<polygon fill="midnightblue" stroke="midnightblue" points="336.537,-70.552 346.905,-68.3723 337.441,-63.6106 336.537,-70.552"/>
</g>
</g>
</svg>
