<?xml version="1.0" encoding="UTF-8" standalone="no"?>
<!DOCTYPE svg PUBLIC "-//W3C//DTD SVG 1.1//EN"
 "http://www.w3.org/Graphics/SVG/1.1/DTD/svg11.dtd">
<!-- Generated by graphviz version 2.38.0 (20140413.2041)
 -->
<!-- Title: vpr::Framebuffer Pages: 1 -->
<!--zoomable 1120 -->
<svg id="main" version="1.1" xmlns="http://www.w3.org/2000/svg" xmlns:xlink="http://www.w3.org/1999/xlink" xml:space="preserve" onload="init(evt)">
<style type="text/css"><![CDATA[
.edge:hover path { stroke: red; }
.edge:hover polygon { stroke: red; fill: red; }
]]></style>
<script type="text/javascript"><![CDATA[
var edges = document.getElementsByTagName('g');
if (edges && edges.length) {
  for (var i=0;i<edges.length;i++) {
    if (edges[i].id.substr(0,4)=='edge') {
      edges[i].setAttribute('class','edge');
    }
  }
}
]]></script>
        <defs>
                <circle id="rim" cx="0" cy="0" r="7"/>
                <circle id="rim2" cx="0" cy="0" r="3.5"/>
                <g id="zoomPlus">
                        <use xlink:href="#rim" fill="#404040">
                                <set attributeName="fill" to="#808080" begin="zoomplus.mouseover" end="zoomplus.mouseout"/>
                        </use>
                        <path d="M-4,0h8M0,-4v8" fill="none" stroke="white" stroke-width="1.5" pointer-events="none"/>
                </g>
                <g id="zoomMin">
                        <use xlink:href="#rim" fill="#404040">
                                <set attributeName="fill" to="#808080" begin="zoomminus.mouseover" end="zoomminus.mouseout"/>
                        </use>
                        <path d="M-4,0h8" fill="none" stroke="white" stroke-width="1.5" pointer-events="none"/>
                </g>
                <g id="dirArrow">
                        <path fill="none" stroke="white" stroke-width="1.5" d="M0,-3.0v7 M-2.5,-0.5L0,-3.0L2.5,-0.5"/>
                </g>
               <g id="resetDef">
                       <use xlink:href="#rim2" fill="#404040">
                               <set attributeName="fill" to="#808080" begin="reset.mouseover" end="reset.mouseout"/>
                       </use>
               </g>
        </defs>

<script type="text/javascript">
var viewWidth = 1125;
var viewHeight = 1120;
var sectionId = 'dynsection-0';
</script>
<script xlink:href="svgpan.js"/>
<svg id="graph" class="graph">
<g id="viewport">
<title>vpr::Framebuffer</title>
<polygon fill="white" stroke="none" points="-4,4 -4,-1116 1120.5,-1116 1120.5,4 -4,4"/>
<!-- Node1 -->
<g id="node1" class="node"><title>Node1</title>
<polygon fill="#bfbfbf" stroke="black" points="567.5,-552 567.5,-571 653.5,-571 653.5,-552 567.5,-552"/>
<text text-anchor="middle" x="610.5" y="-559" font-family="Helvetica,sans-Serif" font-size="10.00">vpr::Framebuffer</text>
</g>
<!-- Node2 -->
<g id="node2" class="node"><title>Node2</title>
<g id="a_node2"><a xlink:href="classvpr_1_1_device.html" target="_top" xlink:title="!The Device class is a wrapper around the vkLogicalDevice object. ">
<polygon fill="white" stroke="black" points="658,-635.5 658,-654.5 721,-654.5 721,-635.5 658,-635.5"/>
<text text-anchor="middle" x="689.5" y="-642.5" font-family="Helvetica,sans-Serif" font-size="10.00">vpr::Device</text>
</a>
</g>
</g>
<!-- Node2&#45;&gt;Node1 -->
<g id="edge1" class="edge"><title>Node2&#45;&gt;Node1</title>
<path fill="none" stroke="#9a32cd" stroke-dasharray="5,2" d="M669.863,-628.896C661.68,-622.235 652.291,-614.091 644.5,-606 633.73,-594.814 622.975,-580.366 616.529,-571.263"/>
<polygon fill="#9a32cd" stroke="#9a32cd" points="667.83,-631.752 677.835,-635.238 672.188,-626.273 667.83,-631.752"/>
<text text-anchor="middle" x="660" y="-598" font-family="Helvetica,sans-Serif" font-size="10.00"> parent</text>
</g>
<!-- Node11 -->
<g id="node11" class="node"><title>Node11</title>
<g id="a_node11"><a xlink:href="classvpr_1_1_allocator.html" target="_top" xlink:title="The primary interface and class of this subsystem. ">
<polygon fill="white" stroke="black" points="404,-552 404,-571 477,-571 477,-552 404,-552"/>
<text text-anchor="middle" x="440.5" y="-559" font-family="Helvetica,sans-Serif" font-size="10.00">vpr::Allocator</text>
</a>
</g>
</g>
<!-- Node2&#45;&gt;Node11 -->
<g id="edge24" class="edge"><title>Node2&#45;&gt;Node11</title>
<path fill="none" stroke="#9a32cd" stroke-dasharray="5,2" d="M653.76,-632.302C603.088,-615.717 511.549,-585.755 466.7,-571.075"/>
<polygon fill="#9a32cd" stroke="#9a32cd" points="652.731,-635.648 663.323,-635.432 654.908,-628.995 652.731,-635.648"/>
<text text-anchor="middle" x="588" y="-598" font-family="Helvetica,sans-Serif" font-size="10.00"> parent</text>
</g>
<!-- Node3 -->
<g id="node3" class="node"><title>Node3</title>
<polygon fill="white" stroke="#bfbfbf" points="477,-713.5 477,-743.5 618,-743.5 618,-713.5 477,-713.5"/>
<text text-anchor="start" x="485" y="-731.5" font-family="Helvetica,sans-Serif" font-size="10.00">std::map&lt; VkQueueFlags,</text>
<text text-anchor="middle" x="547.5" y="-720.5" font-family="Helvetica,sans-Serif" font-size="10.00"> VkDeviceQueueCreateInfo &gt;</text>
</g>
<!-- Node3&#45;&gt;Node2 -->
<g id="edge2" class="edge"><title>Node3&#45;&gt;Node2</title>
<path fill="none" stroke="#9a32cd" stroke-dasharray="5,2" d="M580.678,-708.458C610.328,-691.44 652.408,-667.289 674.549,-654.581"/>
<polygon fill="#9a32cd" stroke="#9a32cd" points="578.841,-705.476 571.911,-713.49 582.326,-711.547 578.841,-705.476"/>
<text text-anchor="middle" x="648.5" y="-687" font-family="Helvetica,sans-Serif" font-size="10.00"> queueInfos</text>
</g>
<!-- Node4 -->
<g id="node4" class="node"><title>Node4</title>
<g id="a_node4"><a xlink:href="namespacevpr.html#structvpr_1_1vk_queue_family_indices" target="_top" xlink:title="vpr::vkQueueFamilyIndices">
<polygon fill="white" stroke="black" points="636.5,-719 636.5,-738 768.5,-738 768.5,-719 636.5,-719"/>
<text text-anchor="middle" x="702.5" y="-726" font-family="Helvetica,sans-Serif" font-size="10.00">vpr::vkQueueFamilyIndices</text>
</a>
</g>
</g>
<!-- Node4&#45;&gt;Node2 -->
<g id="edge3" class="edge"><title>Node4&#45;&gt;Node2</title>
<path fill="none" stroke="#9a32cd" stroke-dasharray="5,2" d="M694.682,-709.6C692.982,-704.934 691.418,-699.852 690.5,-695 687.873,-681.122 688.233,-664.639 688.81,-654.765"/>
<polygon fill="#9a32cd" stroke="#9a32cd" points="691.444,-710.929 698.425,-718.898 697.937,-708.314 691.444,-710.929"/>
<text text-anchor="middle" x="736.5" y="-687" font-family="Helvetica,sans-Serif" font-size="10.00"> QueueFamilyIndices</text>
</g>
<!-- Node5 -->
<g id="node5" class="node"><title>Node5</title>
<polygon fill="white" stroke="#bfbfbf" points="825,-791.5 825,-821.5 920,-821.5 920,-791.5 825,-791.5"/>
<text text-anchor="start" x="833" y="-809.5" font-family="Helvetica,sans-Serif" font-size="10.00">std::vector&lt; const</text>
<text text-anchor="middle" x="872.5" y="-798.5" font-family="Helvetica,sans-Serif" font-size="10.00"> char *&gt;</text>
</g>
<!-- Node5&#45;&gt;Node2 -->
<g id="edge4" class="edge"><title>Node5&#45;&gt;Node2</title>
<path fill="none" stroke="#9a32cd" stroke-dasharray="5,2" d="M862.973,-781.72C849.981,-750.347 826.495,-697.517 810.5,-684 785.105,-662.54 747.571,-653.175 721.053,-649.103"/>
<polygon fill="#9a32cd" stroke="#9a32cd" points="859.775,-783.144 866.8,-791.075 866.253,-780.494 859.775,-783.144"/>
<text text-anchor="middle" x="889.5" y="-726" font-family="Helvetica,sans-Serif" font-size="10.00"> enabledExtensions</text>
</g>
<!-- Node28 -->
<g id="node28" class="node"><title>Node28</title>
<g id="a_node28"><a xlink:href="classvpr_1_1_instance.html" target="_top" xlink:title="Instance is a wrapper around the base Vulkan object that must be initialized first. ">
<polygon fill="white" stroke="black" points="947,-719 947,-738 1018,-738 1018,-719 947,-719"/>
<text text-anchor="middle" x="982.5" y="-726" font-family="Helvetica,sans-Serif" font-size="10.00">vpr::Instance</text>
</a>
</g>
</g>
<!-- Node5&#45;&gt;Node28 -->
<g id="edge33" class="edge"><title>Node5&#45;&gt;Node28</title>
<path fill="none" stroke="#9a32cd" stroke-dasharray="5,2" d="M881.704,-781.864C885.419,-774.72 890.315,-767.359 896.5,-762 905.306,-754.37 932.04,-744.872 953.388,-738.119"/>
<polygon fill="#9a32cd" stroke="#9a32cd" points="878.379,-780.716 877.363,-791.262 884.734,-783.652 878.379,-780.716"/>
<text text-anchor="middle" x="939.5" y="-765" font-family="Helvetica,sans-Serif" font-size="10.00"> enabledExtensions</text>
</g>
<!-- Node6 -->
<g id="node6" class="node"><title>Node6</title>
<g id="a_node6"><a xlink:href="classvpr_1_1_physical_device.html" target="_top" xlink:title="! PhysicalDevice is a wrapper around a VkPhysicalDevice object, which is itself merely a handle repre...">
<polygon fill="white" stroke="black" points="762,-869.5 762,-888.5 863,-888.5 863,-869.5 762,-869.5"/>
<text text-anchor="middle" x="812.5" y="-876.5" font-family="Helvetica,sans-Serif" font-size="10.00">vpr::PhysicalDevice</text>
</a>
</g>
</g>
<!-- Node6&#45;&gt;Node2 -->
<g id="edge5" class="edge"><title>Node6&#45;&gt;Node2</title>
<path fill="none" stroke="#9a32cd" stroke-dasharray="5,2" d="M811.893,-859.046C810.145,-815.691 803.775,-710.956 782.5,-684 767.588,-665.106 741.728,-655.54 721.057,-650.735"/>
<polygon fill="#9a32cd" stroke="#9a32cd" points="808.405,-859.449 812.265,-869.316 815.401,-859.195 808.405,-859.449"/>
<text text-anchor="middle" x="821" y="-765" font-family="Helvetica,sans-Serif" font-size="10.00"> parent</text>
</g>
<!-- Node29 -->
<g id="node29" class="node"><title>Node29</title>
<polygon fill="white" stroke="#bfbfbf" points="938.5,-791.5 938.5,-821.5 1040.5,-821.5 1040.5,-791.5 938.5,-791.5"/>
<text text-anchor="start" x="946.5" y="-809.5" font-family="Helvetica,sans-Serif" font-size="10.00">std::unique_ptr&lt; vpr</text>
<text text-anchor="middle" x="989.5" y="-798.5" font-family="Helvetica,sans-Serif" font-size="10.00">::PhysicalDevice &gt;</text>
</g>
<!-- Node6&#45;&gt;Node29 -->
<g id="edge32" class="edge"><title>Node6&#45;&gt;Node29</title>
<path fill="none" stroke="#9a32cd" stroke-dasharray="5,2" d="M843.273,-865.743C874.23,-853.412 921.904,-834.424 954.336,-821.506"/>
<polygon fill="#9a32cd" stroke="#9a32cd" points="841.845,-862.544 833.85,-869.496 844.436,-869.047 841.845,-862.544"/>
<text text-anchor="middle" x="914" y="-843" font-family="Helvetica,sans-Serif" font-size="10.00"> ptr</text>
</g>
<!-- Node7 -->
<g id="node7" class="node"><title>Node7</title>
<polygon fill="white" stroke="#bfbfbf" points="754.5,-936.5 754.5,-966.5 870.5,-966.5 870.5,-936.5 754.5,-936.5"/>
<text text-anchor="start" x="762.5" y="-954.5" font-family="Helvetica,sans-Serif" font-size="10.00">std::unique_ptr&lt; vpr</text>
<text text-anchor="middle" x="812.5" y="-943.5" font-family="Helvetica,sans-Serif" font-size="10.00">::PhysicalDeviceImpl &gt;</text>
</g>
<!-- Node7&#45;&gt;Node6 -->
<g id="edge6" class="edge"><title>Node7&#45;&gt;Node6</title>
<path fill="none" stroke="#9a32cd" stroke-dasharray="5,2" d="M812.5,-926.091C812.5,-913.214 812.5,-898.197 812.5,-888.893"/>
<polygon fill="#9a32cd" stroke="#9a32cd" points="809,-926.233 812.5,-936.233 816,-926.233 809,-926.233"/>
<text text-anchor="middle" x="823.5" y="-910" font-family="Helvetica,sans-Serif" font-size="10.00"> impl</text>
</g>
<!-- Node8 -->
<g id="node8" class="node"><title>Node8</title>
<g id="a_node8"><a xlink:href="classvpr_1_1_physical_device_impl.html" target="_top" xlink:title="vpr::PhysicalDeviceImpl">
<polygon fill="white" stroke="black" points="753,-1014.5 753,-1033.5 872,-1033.5 872,-1014.5 753,-1014.5"/>
<text text-anchor="middle" x="812.5" y="-1021.5" font-family="Helvetica,sans-Serif" font-size="10.00">vpr::PhysicalDeviceImpl</text>
</a>
</g>
</g>
<!-- Node8&#45;&gt;Node7 -->
<g id="edge7" class="edge"><title>Node8&#45;&gt;Node7</title>
<path fill="none" stroke="#9a32cd" stroke-dasharray="5,2" d="M812.5,-1004.24C812.5,-992.408 812.5,-977.383 812.5,-966.576"/>
<polygon fill="#9a32cd" stroke="#9a32cd" points="809,-1004.36 812.5,-1014.36 816,-1004.36 809,-1004.36"/>
<text text-anchor="middle" x="820" y="-988" font-family="Helvetica,sans-Serif" font-size="10.00"> ptr</text>
</g>
<!-- Node9 -->
<g id="node9" class="node"><title>Node9</title>
<polygon fill="white" stroke="#bfbfbf" points="742.5,-1081.5 742.5,-1111.5 882.5,-1111.5 882.5,-1081.5 742.5,-1081.5"/>
<text text-anchor="start" x="750.5" y="-1099.5" font-family="Helvetica,sans-Serif" font-size="10.00">std::vector&lt; VkQueueFamily</text>
<text text-anchor="middle" x="812.5" y="-1088.5" font-family="Helvetica,sans-Serif" font-size="10.00">Properties &gt;</text>
</g>
<!-- Node9&#45;&gt;Node8 -->
<g id="edge8" class="edge"><title>Node9&#45;&gt;Node8</title>
<path fill="none" stroke="#9a32cd" stroke-dasharray="5,2" d="M812.5,-1071.09C812.5,-1058.21 812.5,-1043.2 812.5,-1033.89"/>
<polygon fill="#9a32cd" stroke="#9a32cd" points="809,-1071.23 812.5,-1081.23 816,-1071.23 809,-1071.23"/>
<text text-anchor="middle" x="864" y="-1055" font-family="Helvetica,sans-Serif" font-size="10.00"> queueFamilyProperties</text>
</g>
<!-- Node10 -->
<g id="node10" class="node"><title>Node10</title>
<polygon fill="white" stroke="#bfbfbf" points="538.5,-468.5 538.5,-498.5 640.5,-498.5 640.5,-468.5 538.5,-468.5"/>
<text text-anchor="start" x="546.5" y="-486.5" font-family="Helvetica,sans-Serif" font-size="10.00">std::unique_ptr&lt; vpr</text>
<text text-anchor="middle" x="589.5" y="-475.5" font-family="Helvetica,sans-Serif" font-size="10.00">::Allocator &gt;</text>
</g>
<!-- Node10&#45;&gt;Node2 -->
<g id="edge9" class="edge"><title>Node10&#45;&gt;Node2</title>
<path fill="none" stroke="#9a32cd" stroke-dasharray="5,2" d="M621.122,-504.528C635.654,-515.214 651.963,-529.553 662.5,-546 681.254,-575.274 687.133,-617.527 688.847,-635.448"/>
<polygon fill="#9a32cd" stroke="#9a32cd" points="623.015,-501.581 612.828,-498.671 618.977,-507.298 623.015,-501.581"/>
<text text-anchor="middle" x="703" y="-559" font-family="Helvetica,sans-Serif" font-size="10.00"> vkAllocator</text>
</g>
<!-- Node11&#45;&gt;Node10 -->
<g id="edge10" class="edge"><title>Node11&#45;&gt;Node10</title>
<path fill="none" stroke="#9a32cd" stroke-dasharray="5,2" d="M466.419,-547.28C493.121,-533.66 534.588,-512.509 561.893,-498.582"/>
<polygon fill="#9a32cd" stroke="#9a32cd" points="464.62,-544.268 457.303,-551.93 467.801,-550.504 464.62,-544.268"/>
<text text-anchor="middle" x="532" y="-520" font-family="Helvetica,sans-Serif" font-size="10.00"> ptr</text>
</g>
<!-- Node15 -->
<g id="node15" class="node"><title>Node15</title>
<g id="a_node15"><a xlink:href="classvpr_1_1_allocation_collection.html" target="_top" xlink:title="An allocation collection is just a vector of MemoryBlocks of the same type. ">
<polygon fill="white" stroke="black" points="270.5,-245.5 270.5,-264.5 390.5,-264.5 390.5,-245.5 270.5,-245.5"/>
<text text-anchor="middle" x="330.5" y="-252.5" font-family="Helvetica,sans-Serif" font-size="10.00">vpr::AllocationCollection</text>
</a>
</g>
</g>
<!-- Node11&#45;&gt;Node15 -->
<g id="edge15" class="edge"><title>Node11&#45;&gt;Node15</title>
<path fill="none" stroke="#9a32cd" stroke-dasharray="5,2" d="M415.857,-546.323C396.396,-533.089 372.5,-511.369 372.5,-484.5 372.5,-484.5 372.5,-484.5 372.5,-326.5 372.5,-306.19 369.245,-300.235 358.5,-283 354.141,-276.009 347.578,-269.549 341.901,-264.702"/>
<polygon fill="#9a32cd" stroke="#9a32cd" points="414.078,-549.34 424.385,-551.795 417.858,-543.449 414.078,-549.34"/>
<text text-anchor="middle" x="392.5" y="-403" font-family="Helvetica,sans-Serif" font-size="10.00"> allocator</text>
</g>
<!-- Node18 -->
<g id="node18" class="node"><title>Node18</title>
<g id="a_node18"><a xlink:href="classvpr_1_1_memory_block.html" target="_top" xlink:title="A MemoryBlock is a large contiguous region of Vulkan memory of a uniform type (device local...">
<polygon fill="white" stroke="black" points="164,-474 164,-493 259,-493 259,-474 164,-474"/>
<text text-anchor="middle" x="211.5" y="-481" font-family="Helvetica,sans-Serif" font-size="10.00">vpr::MemoryBlock</text>
</a>
</g>
</g>
<!-- Node11&#45;&gt;Node18 -->
<g id="edge23" class="edge"><title>Node11&#45;&gt;Node18</title>
<path fill="none" stroke="#9a32cd" stroke-dasharray="5,2" d="M394.048,-550.278C371.011,-544.668 342.954,-537.016 318.5,-528 307.868,-524.08 305.903,-521.492 295.5,-517 275.402,-508.321 252.164,-499.415 235.232,-493.126"/>
<polygon fill="#9a32cd" stroke="#9a32cd" points="393.379,-553.716 403.918,-552.632 395.003,-546.907 393.379,-553.716"/>
<text text-anchor="middle" x="338.5" y="-520" font-family="Helvetica,sans-Serif" font-size="10.00"> allocator</text>
</g>
<!-- Node12 -->
<g id="node12" class="node"><title>Node12</title>
<polygon fill="white" stroke="#bfbfbf" points="312,-0.5 312,-41.5 485,-41.5 485,-0.5 312,-0.5"/>
<text text-anchor="start" x="320" y="-29.5" font-family="Helvetica,sans-Serif" font-size="10.00">std::map&lt; AllocationSize,</text>
<text text-anchor="start" x="320" y="-18.5" font-family="Helvetica,sans-Serif" font-size="10.00"> std::vector&lt; std::unique</text>
<text text-anchor="middle" x="398.5" y="-7.5" font-family="Helvetica,sans-Serif" font-size="10.00">_ptr&lt; vpr::AllocationCollection &gt; &gt; &gt;</text>
</g>
<!-- Node12&#45;&gt;Node11 -->
<g id="edge11" class="edge"><title>Node12&#45;&gt;Node11</title>
<path fill="none" stroke="#9a32cd" stroke-dasharray="5,2" d="M421.169,-49.9428C431.084,-64.9118 440.5,-84.2061 440.5,-103.5 440.5,-484.5 440.5,-484.5 440.5,-484.5 440.5,-508.778 440.5,-537.418 440.5,-551.608"/>
<polygon fill="#9a32cd" stroke="#9a32cd" points="423.959,-47.8251 415.341,-41.6619 418.234,-51.854 423.959,-47.8251"/>
<text text-anchor="middle" x="465.5" y="-286" font-family="Helvetica,sans-Serif" font-size="10.00"> allocations</text>
</g>
<!-- Node13 -->
<g id="node13" class="node"><title>Node13</title>
<polygon fill="white" stroke="#bfbfbf" points="248.5,-89.5 248.5,-119.5 412.5,-119.5 412.5,-89.5 248.5,-89.5"/>
<text text-anchor="start" x="256.5" y="-107.5" font-family="Helvetica,sans-Serif" font-size="10.00">std::vector&lt; std::unique</text>
<text text-anchor="middle" x="330.5" y="-96.5" font-family="Helvetica,sans-Serif" font-size="10.00">_ptr&lt; vpr::AllocationCollection &gt; &gt;</text>
</g>
<!-- Node13&#45;&gt;Node12 -->
<g id="edge12" class="edge"><title>Node13&#45;&gt;Node12</title>
<path fill="none" stroke="#9a32cd" stroke-dasharray="5,2" d="M348.771,-81.6021C359.189,-69.115 372.136,-53.5984 382.207,-41.5278"/>
<polygon fill="#9a32cd" stroke="#9a32cd" points="346.064,-79.3831 342.345,-89.3038 351.439,-83.8677 346.064,-79.3831"/>
<text text-anchor="middle" x="389" y="-63" font-family="Helvetica,sans-Serif" font-size="10.00"> elements</text>
</g>
<!-- Node14 -->
<g id="node14" class="node"><title>Node14</title>
<polygon fill="white" stroke="#bfbfbf" points="272,-167.5 272,-197.5 389,-197.5 389,-167.5 272,-167.5"/>
<text text-anchor="start" x="280" y="-185.5" font-family="Helvetica,sans-Serif" font-size="10.00">std::unique_ptr&lt; vpr</text>
<text text-anchor="middle" x="330.5" y="-174.5" font-family="Helvetica,sans-Serif" font-size="10.00">::AllocationCollection &gt;</text>
</g>
<!-- Node14&#45;&gt;Node13 -->
<g id="edge13" class="edge"><title>Node14&#45;&gt;Node13</title>
<path fill="none" stroke="#9a32cd" stroke-dasharray="5,2" d="M330.5,-157.09C330.5,-144.757 330.5,-130.224 330.5,-119.731"/>
<polygon fill="#9a32cd" stroke="#9a32cd" points="327,-157.205 330.5,-167.205 334,-157.205 327,-157.205"/>
<text text-anchor="middle" x="352" y="-141" font-family="Helvetica,sans-Serif" font-size="10.00"> elements</text>
</g>
<!-- Node15&#45;&gt;Node14 -->
<g id="edge14" class="edge"><title>Node15&#45;&gt;Node14</title>
<path fill="none" stroke="#9a32cd" stroke-dasharray="5,2" d="M330.5,-235.236C330.5,-223.408 330.5,-208.383 330.5,-197.576"/>
<polygon fill="#9a32cd" stroke="#9a32cd" points="327,-235.355 330.5,-245.355 334,-235.355 327,-235.355"/>
<text text-anchor="middle" x="338" y="-219" font-family="Helvetica,sans-Serif" font-size="10.00"> ptr</text>
</g>
<!-- Node16 -->
<g id="node16" class="node"><title>Node16</title>
<polygon fill="white" stroke="#bfbfbf" points="204.5,-312.5 204.5,-342.5 342.5,-342.5 342.5,-312.5 204.5,-312.5"/>
<text text-anchor="start" x="212.5" y="-330.5" font-family="Helvetica,sans-Serif" font-size="10.00">std::vector&lt; std::unique</text>
<text text-anchor="middle" x="273.5" y="-319.5" font-family="Helvetica,sans-Serif" font-size="10.00">_ptr&lt; vpr::MemoryBlock &gt; &gt;</text>
</g>
<!-- Node16&#45;&gt;Node15 -->
<g id="edge16" class="edge"><title>Node16&#45;&gt;Node15</title>
<path fill="none" stroke="#9a32cd" stroke-dasharray="5,2" d="M291.386,-304.216C296.868,-297.4 302.925,-289.886 308.5,-283 313.523,-276.797 319.215,-269.812 323.551,-264.501"/>
<polygon fill="#9a32cd" stroke="#9a32cd" points="288.364,-302.39 284.827,-312.377 293.82,-306.775 288.364,-302.39"/>
<text text-anchor="middle" x="333.5" y="-286" font-family="Helvetica,sans-Serif" font-size="10.00"> allocations</text>
</g>
<!-- Node17 -->
<g id="node17" class="node"><title>Node17</title>
<polygon fill="white" stroke="#bfbfbf" points="210.5,-390.5 210.5,-420.5 312.5,-420.5 312.5,-390.5 210.5,-390.5"/>
<text text-anchor="start" x="218.5" y="-408.5" font-family="Helvetica,sans-Serif" font-size="10.00">std::unique_ptr&lt; vpr</text>
<text text-anchor="middle" x="261.5" y="-397.5" font-family="Helvetica,sans-Serif" font-size="10.00">::MemoryBlock &gt;</text>
</g>
<!-- Node17&#45;&gt;Node16 -->
<g id="edge17" class="edge"><title>Node17&#45;&gt;Node16</title>
<path fill="none" stroke="#9a32cd" stroke-dasharray="5,2" d="M265.354,-380.09C267.302,-367.757 269.596,-353.224 271.253,-342.731"/>
<polygon fill="#9a32cd" stroke="#9a32cd" points="261.86,-379.781 263.757,-390.205 268.774,-380.873 261.86,-379.781"/>
<text text-anchor="middle" x="290" y="-364" font-family="Helvetica,sans-Serif" font-size="10.00"> elements</text>
</g>
<!-- Node18&#45;&gt;Node17 -->
<g id="edge18" class="edge"><title>Node18&#45;&gt;Node17</title>
<path fill="none" stroke="#9a32cd" stroke-dasharray="5,2" d="M222.773,-465.365C231.678,-451.83 243.951,-433.175 252.276,-420.52"/>
<polygon fill="#9a32cd" stroke="#9a32cd" points="219.808,-463.504 217.236,-473.782 225.656,-467.351 219.808,-463.504"/>
<text text-anchor="middle" x="247" y="-442" font-family="Helvetica,sans-Serif" font-size="10.00"> ptr</text>
</g>
<!-- Node19 -->
<g id="node19" class="node"><title>Node19</title>
<polygon fill="white" stroke="#bfbfbf" points="0,-552 0,-571 125,-571 125,-552 0,-552"/>
<text text-anchor="middle" x="62.5" y="-559" font-family="Helvetica,sans-Serif" font-size="10.00">std::list&lt; Suballocation &gt;</text>
</g>
<!-- Node19&#45;&gt;Node18 -->
<g id="edge19" class="edge"><title>Node19&#45;&gt;Node18</title>
<path fill="none" stroke="#9a32cd" stroke-dasharray="5,2" d="M85.5476,-546.499C100.446,-537.651 120.37,-526.195 138.5,-517 155.822,-508.215 176.03,-499.319 190.787,-493.06"/>
<polygon fill="#9a32cd" stroke="#9a32cd" points="83.3331,-543.745 76.5523,-551.886 86.9297,-549.751 83.3331,-543.745"/>
<text text-anchor="middle" x="172" y="-520" font-family="Helvetica,sans-Serif" font-size="10.00"> Suballocations</text>
</g>
<!-- Node20 -->
<g id="node20" class="node"><title>Node20</title>
<g id="a_node20"><a xlink:href="structvpr_1_1_suballocation.html" target="_top" xlink:title="During the process of finding a suitable region to bind to, we need to store things like &quot;Suballocati...">
<polygon fill="white" stroke="black" points="15,-635.5 15,-654.5 108,-654.5 108,-635.5 15,-635.5"/>
<text text-anchor="middle" x="61.5" y="-642.5" font-family="Helvetica,sans-Serif" font-size="10.00">vpr::Suballocation</text>
</a>
</g>
</g>
<!-- Node20&#45;&gt;Node19 -->
<g id="edge20" class="edge"><title>Node20&#45;&gt;Node19</title>
<path fill="none" stroke="#9a32cd" stroke-dasharray="5,2" d="M61.7346,-624.876C61.943,-607.898 62.2378,-583.867 62.3938,-571.159"/>
<polygon fill="#9a32cd" stroke="#9a32cd" points="58.2301,-625.236 61.607,-635.278 65.2295,-625.322 58.2301,-625.236"/>
<text text-anchor="middle" x="84" y="-598" font-family="Helvetica,sans-Serif" font-size="10.00"> elements</text>
</g>
<!-- Node21 -->
<g id="node21" class="node"><title>Node21</title>
<polygon fill="white" stroke="#bfbfbf" points="144.5,-546.5 144.5,-576.5 272.5,-576.5 272.5,-546.5 144.5,-546.5"/>
<text text-anchor="start" x="152.5" y="-564.5" font-family="Helvetica,sans-Serif" font-size="10.00">std::vector&lt; suballocation</text>
<text text-anchor="middle" x="208.5" y="-553.5" font-family="Helvetica,sans-Serif" font-size="10.00">List::iterator &gt;</text>
</g>
<!-- Node21&#45;&gt;Node18 -->
<g id="edge21" class="edge"><title>Node21&#45;&gt;Node18</title>
<path fill="none" stroke="#9a32cd" stroke-dasharray="5,2" d="M208.9,-535.936C209.046,-529.754 209.241,-523.132 209.5,-517 209.844,-508.867 210.433,-499.6 210.884,-493.049"/>
<polygon fill="#9a32cd" stroke="#9a32cd" points="205.391,-536.321 208.687,-546.39 212.39,-536.463 205.391,-536.321"/>
<text text-anchor="middle" x="252.5" y="-520" font-family="Helvetica,sans-Serif" font-size="10.00"> availSuballocations</text>
</g>
<!-- Node22 -->
<g id="node22" class="node"><title>Node22</title>
<g id="a_node22"><a xlink:title="STL iterator class. ">
<polygon fill="white" stroke="#bfbfbf" points="126.5,-635.5 126.5,-654.5 234.5,-654.5 234.5,-635.5 126.5,-635.5"/>
<text text-anchor="middle" x="180.5" y="-642.5" font-family="Helvetica,sans-Serif" font-size="10.00">std::list&lt; T &gt;::iterator</text>
</a>
</g>
</g>
<!-- Node22&#45;&gt;Node21 -->
<g id="edge22" class="edge"><title>Node22&#45;&gt;Node21</title>
<path fill="none" stroke="#9a32cd" stroke-dasharray="5,2" d="M186.8,-625.663C191.904,-610.807 198.989,-590.182 203.657,-576.597"/>
<polygon fill="#9a32cd" stroke="#9a32cd" points="183.436,-624.683 183.496,-635.278 190.056,-626.958 183.436,-624.683"/>
<text text-anchor="middle" x="219" y="-598" font-family="Helvetica,sans-Serif" font-size="10.00"> elements</text>
</g>
<!-- Node23 -->
<g id="node23" class="node"><title>Node23</title>
<polygon fill="white" stroke="#bfbfbf" points="253,-624.5 253,-665.5 364,-665.5 364,-624.5 253,-624.5"/>
<text text-anchor="start" x="261" y="-653.5" font-family="Helvetica,sans-Serif" font-size="10.00">std::unordered_set</text>
<text text-anchor="start" x="261" y="-642.5" font-family="Helvetica,sans-Serif" font-size="10.00">&lt; std::unique_ptr&lt; vpr</text>
<text text-anchor="middle" x="308.5" y="-631.5" font-family="Helvetica,sans-Serif" font-size="10.00">::Allocation &gt; &gt;</text>
</g>
<!-- Node23&#45;&gt;Node11 -->
<g id="edge25" class="edge"><title>Node23&#45;&gt;Node11</title>
<path fill="none" stroke="#9a32cd" stroke-dasharray="5,2" d="M332.985,-617.386C341.193,-609.475 350.75,-601.26 360.5,-595 376.521,-584.713 396.335,-576.634 412.235,-571.104"/>
<polygon fill="#9a32cd" stroke="#9a32cd" points="330.463,-614.957 325.86,-624.499 335.409,-619.911 330.463,-614.957"/>
<text text-anchor="middle" x="400" y="-598" font-family="Helvetica,sans-Serif" font-size="10.00"> privateAllocations</text>
</g>
<!-- Node24 -->
<g id="node24" class="node"><title>Node24</title>
<polygon fill="white" stroke="#bfbfbf" points="240.5,-713.5 240.5,-743.5 342.5,-743.5 342.5,-713.5 240.5,-713.5"/>
<text text-anchor="start" x="248.5" y="-731.5" font-family="Helvetica,sans-Serif" font-size="10.00">std::unique_ptr&lt; vpr</text>
<text text-anchor="middle" x="291.5" y="-720.5" font-family="Helvetica,sans-Serif" font-size="10.00">::Allocation &gt;</text>
</g>
<!-- Node24&#45;&gt;Node23 -->
<g id="edge26" class="edge"><title>Node24&#45;&gt;Node23</title>
<path fill="none" stroke="#9a32cd" stroke-dasharray="5,2" d="M296.52,-703.433C299.04,-691.353 302.053,-676.909 304.427,-665.528"/>
<polygon fill="#9a32cd" stroke="#9a32cd" points="293.077,-702.8 294.461,-713.304 299.929,-704.229 293.077,-702.8"/>
<text text-anchor="middle" x="314" y="-687" font-family="Helvetica,sans-Serif" font-size="10.00"> keys</text>
</g>
<!-- Node25 -->
<g id="node25" class="node"><title>Node25</title>
<g id="a_node25"><a xlink:href="classvpr_1_1_allocation.html" target="_top" xlink:title="Allocation class represents a singular allocation: can be a private allocation (i.e, only user of attached DeviceMemory) or a block allocation (bound to sub&#45;region of device memory) ">
<polygon fill="white" stroke="black" points="253,-797 253,-816 330,-816 330,-797 253,-797"/>
<text text-anchor="middle" x="291.5" y="-804" font-family="Helvetica,sans-Serif" font-size="10.00">vpr::Allocation</text>
</a>
</g>
</g>
<!-- Node25&#45;&gt;Node24 -->
<g id="edge27" class="edge"><title>Node25&#45;&gt;Node24</title>
<path fill="none" stroke="#9a32cd" stroke-dasharray="5,2" d="M291.5,-786.782C291.5,-773.404 291.5,-755.688 291.5,-743.52"/>
<polygon fill="#9a32cd" stroke="#9a32cd" points="288,-786.782 291.5,-796.782 295,-786.782 288,-786.782"/>
<text text-anchor="middle" x="299" y="-765" font-family="Helvetica,sans-Serif" font-size="10.00"> ptr</text>
</g>
<!-- Node26 -->
<g id="node26" class="node"><title>Node26</title>
<polygon fill="white" stroke="#bfbfbf" points="382,-630 382,-660 511,-660 511,-630 382,-630"/>
<text text-anchor="start" x="390" y="-648" font-family="Helvetica,sans-Serif" font-size="10.00">std::map&lt; AllocationSize,</text>
<text text-anchor="middle" x="446.5" y="-637" font-family="Helvetica,sans-Serif" font-size="10.00"> std::vector&lt; bool &gt; &gt;</text>
</g>
<!-- Node26&#45;&gt;Node11 -->
<g id="edge28" class="edge"><title>Node26&#45;&gt;Node11</title>
<path fill="none" stroke="#9a32cd" stroke-dasharray="5,2" d="M444.715,-619.748C443.502,-603.281 441.972,-582.489 441.129,-571.039"/>
<polygon fill="#9a32cd" stroke="#9a32cd" points="441.23,-620.088 445.455,-629.804 448.211,-619.574 441.23,-620.088"/>
<text text-anchor="middle" x="484" y="-598" font-family="Helvetica,sans-Serif" font-size="10.00"> emptyAllocations</text>
</g>
<!-- Node27 -->
<g id="node27" class="node"><title>Node27</title>
<polygon fill="white" stroke="#bfbfbf" points="360.5,-719 360.5,-738 458.5,-738 458.5,-719 360.5,-719"/>
<text text-anchor="middle" x="409.5" y="-726" font-family="Helvetica,sans-Serif" font-size="10.00">std::vector&lt; bool &gt;</text>
</g>
<!-- Node27&#45;&gt;Node26 -->
<g id="edge29" class="edge"><title>Node27&#45;&gt;Node26</title>
<path fill="none" stroke="#9a32cd" stroke-dasharray="5,2" d="M417.629,-709.594C424.387,-694.708 433.873,-673.814 440.1,-660.097"/>
<polygon fill="#9a32cd" stroke="#9a32cd" points="414.407,-708.226 413.46,-718.778 420.78,-711.119 414.407,-708.226"/>
<text text-anchor="middle" x="451" y="-687" font-family="Helvetica,sans-Serif" font-size="10.00"> elements</text>
</g>
<!-- Node28&#45;&gt;Node2 -->
<g id="edge30" class="edge"><title>Node28&#45;&gt;Node2</title>
<path fill="none" stroke="#9a32cd" stroke-dasharray="5,2" d="M950.522,-715.381C925.235,-706.06 888.915,-693.254 856.5,-684 809.895,-670.695 754.935,-658.928 721.154,-652.134"/>
<polygon fill="#9a32cd" stroke="#9a32cd" points="949.381,-718.69 959.974,-718.891 951.819,-712.128 949.381,-718.69"/>
<text text-anchor="middle" x="925" y="-687" font-family="Helvetica,sans-Serif" font-size="10.00"> parentInstance</text>
</g>
<!-- Node31 -->
<g id="node31" class="node"><title>Node31</title>
<g id="a_node31"><a xlink:href="classvpr_1_1_surface_k_h_r.html" target="_top" xlink:title="The bare&#45;minimum required to wrap a VkSurfaceKHR object. ">
<polygon fill="white" stroke="black" points="1028.5,-635.5 1028.5,-654.5 1116.5,-654.5 1116.5,-635.5 1028.5,-635.5"/>
<text text-anchor="middle" x="1072.5" y="-642.5" font-family="Helvetica,sans-Serif" font-size="10.00">vpr::SurfaceKHR</text>
</a>
</g>
</g>
<!-- Node28&#45;&gt;Node31 -->
<g id="edge36" class="edge"><title>Node28&#45;&gt;Node31</title>
<path fill="none" stroke="#9a32cd" stroke-dasharray="5,2" d="M999.691,-711.933C1018.48,-694.923 1047.89,-668.284 1062.94,-654.659"/>
<polygon fill="#9a32cd" stroke="#9a32cd" points="997.195,-709.471 992.132,-718.778 1001.89,-714.66 997.195,-709.471"/>
<text text-anchor="middle" x="1046" y="-687" font-family="Helvetica,sans-Serif" font-size="10.00"> parent</text>
</g>
<!-- Node29&#45;&gt;Node28 -->
<g id="edge31" class="edge"><title>Node29&#45;&gt;Node28</title>
<path fill="none" stroke="#9a32cd" stroke-dasharray="5,2" d="M987.259,-781.165C985.898,-766.396 984.245,-748.448 983.289,-738.064"/>
<polygon fill="#9a32cd" stroke="#9a32cd" points="983.781,-781.568 988.183,-791.205 990.751,-780.926 983.781,-781.568"/>
<text text-anchor="middle" x="1020.5" y="-765" font-family="Helvetica,sans-Serif" font-size="10.00"> physicalDevice</text>
</g>
<!-- Node30 -->
<g id="node30" class="node"><title>Node30</title>
<polygon fill="white" stroke="#bfbfbf" points="956.5,-546.5 956.5,-576.5 1058.5,-576.5 1058.5,-546.5 956.5,-546.5"/>
<text text-anchor="start" x="964.5" y="-564.5" font-family="Helvetica,sans-Serif" font-size="10.00">std::unique_ptr&lt; vpr</text>
<text text-anchor="middle" x="1007.5" y="-553.5" font-family="Helvetica,sans-Serif" font-size="10.00">::SurfaceKHR &gt;</text>
</g>
<!-- Node30&#45;&gt;Node28 -->
<g id="edge34" class="edge"><title>Node30&#45;&gt;Node28</title>
<path fill="none" stroke="#9a32cd" stroke-dasharray="5,2" d="M996.472,-586.245C991.835,-597.442 986.954,-611.141 984.5,-624 977.896,-658.601 980.232,-700.889 981.69,-718.811"/>
<polygon fill="#9a32cd" stroke="#9a32cd" points="999.817,-587.329 1000.58,-576.762 993.395,-584.544 999.817,-587.329"/>
<text text-anchor="middle" x="1002" y="-642.5" font-family="Helvetica,sans-Serif" font-size="10.00"> surface</text>
</g>
<!-- Node31&#45;&gt;Node30 -->
<g id="edge35" class="edge"><title>Node31&#45;&gt;Node30</title>
<path fill="none" stroke="#9a32cd" stroke-dasharray="5,2" d="M1059.23,-627.367C1047.31,-612.42 1030,-590.71 1018.74,-576.597"/>
<polygon fill="#9a32cd" stroke="#9a32cd" points="1056.57,-629.642 1065.54,-635.278 1062.04,-625.278 1056.57,-629.642"/>
<text text-anchor="middle" x="1050" y="-598" font-family="Helvetica,sans-Serif" font-size="10.00"> ptr</text>
</g>
</g>
</svg>
        <g id="navigator" transform="translate(0 0)" fill="#404254">
                <rect fill="#f2f5e9" fill-opacity="0.5" stroke="#606060" stroke-width=".5" x="0" y="0" width="60" height="60"/>
                <use id="zoomplus" xlink:href="#zoomPlus" x="17" y="9" onmousedown="handleZoom(evt,'in')"/>
                <use id="zoomminus" xlink:href="#zoomMin" x="42" y="9" onmousedown="handleZoom(evt,'out')"/>
                <use id="reset" xlink:href="#resetDef" x="30" y="36" onmousedown="handleReset()"/>
                <g id="arrowUp" xlink:href="#dirArrow" transform="translate(30 24)" onmousedown="handlePan(0,-1)">
                  <use xlink:href="#rim" fill="#404040">
                        <set attributeName="fill" to="#808080" begin="arrowUp.mouseover" end="arrowUp.mouseout"/>
                  </use>
                  <path fill="none" stroke="white" stroke-width="1.5" d="M0,-3.0v7 M-2.5,-0.5L0,-3.0L2.5,-0.5"/>
                </g>
                <g id="arrowRight" xlink:href="#dirArrow" transform="rotate(90) translate(36 -43)" onmousedown="handlePan(1,0)">
                  <use xlink:href="#rim" fill="#404040">
                        <set attributeName="fill" to="#808080" begin="arrowRight.mouseover" end="arrowRight.mouseout"/>
                  </use>
                  <path fill="none" stroke="white" stroke-width="1.5" d="M0,-3.0v7 M-2.5,-0.5L0,-3.0L2.5,-0.5"/>
                </g>
                <g id="arrowDown" xlink:href="#dirArrow" transform="rotate(180) translate(-30 -48)" onmousedown="handlePan(0,1)">
                  <use xlink:href="#rim" fill="#404040">
                        <set attributeName="fill" to="#808080" begin="arrowDown.mouseover" end="arrowDown.mouseout"/>
                  </use>
                  <path fill="none" stroke="white" stroke-width="1.5" d="M0,-3.0v7 M-2.5,-0.5L0,-3.0L2.5,-0.5"/>
                </g>
                <g id="arrowLeft" xlink:href="#dirArrow" transform="rotate(270) translate(-36 17)" onmousedown="handlePan(-1,0)">
                  <use xlink:href="#rim" fill="#404040">
                        <set attributeName="fill" to="#808080" begin="arrowLeft.mouseover" end="arrowLeft.mouseout"/>
                  </use>
                  <path fill="none" stroke="white" stroke-width="1.5" d="M0,-3.0v7 M-2.5,-0.5L0,-3.0L2.5,-0.5"/>
                </g>
        </g>
        <svg viewBox="0 0 15 15" width="100%" height="30px" preserveAspectRatio="xMaxYMin meet">
         <g id="arrow_out" transform="scale(0.3 0.3)">
          <a xlink:href="classvpr_1_1_framebuffer__coll__graph_org.svg" target="_base">
           <rect id="button" ry="5" rx="5" y="6" x="6" height="38" width="38"
                fill="#f2f5e9" fill-opacity="0.5" stroke="#606060" stroke-width="1.0"/>
           <path id="arrow"
             d="M 11.500037,31.436501 C 11.940474,20.09759 22.043105,11.32322 32.158766,21.979434 L 37.068811,17.246167 C 37.068811,17.246167 37.088388,32 37.088388,32 L 22.160133,31.978069 C 22.160133,31.978069 26.997745,27.140456 26.997745,27.140456 C 18.528582,18.264221 13.291696,25.230495 11.500037,31.436501 z"
             style="fill:#404040;"/>
          </a>
         </g>
        </svg>
</svg>
