<?xml version="1.0" encoding="UTF-8" standalone="no"?>
<!DOCTYPE svg PUBLIC "-//W3C//DTD SVG 1.1//EN"
 "http://www.w3.org/Graphics/SVG/1.1/DTD/svg11.dtd">
<!-- Generated by graphviz version 2.38.0 (20140413.2041)
 -->
<!-- Title: vpr::ShaderModule Pages: 1 -->
<svg width="1258pt" height="263pt"
 viewBox="0.00 0.00 1258.00 263.00" xmlns="http://www.w3.org/2000/svg" xmlns:xlink="http://www.w3.org/1999/xlink">
<g id="graph0" class="graph" transform="scale(1 1) rotate(0) translate(4 259)">
<title>vpr::ShaderModule</title>
<polygon fill="white" stroke="none" points="-4,4 -4,-259 1254,-259 1254,4 -4,4"/>
<!-- Node1 -->
<g id="node1" class="node"><title>Node1</title>
<polygon fill="#bfbfbf" stroke="black" points="1000,-90 1000,-109 1097,-109 1097,-90 1000,-90"/>
<text text-anchor="middle" x="1048.5" y="-97" font-family="Helvetica,sans-Serif" font-size="10.00">vpr::ShaderModule</text>
</g>
<!-- Node2 -->
<g id="node2" class="node"><title>Node2</title>
<g id="a_node2"><a xlink:href="classvpr_1_1_device.html" target="_top" xlink:title="!The Device class is a wrapper around the vkLogicalDevice object. ">
<polygon fill="white" stroke="black" points="844.5,-148 844.5,-167 907.5,-167 907.5,-148 844.5,-148"/>
<text text-anchor="middle" x="876" y="-155" font-family="Helvetica,sans-Serif" font-size="10.00">vpr::Device</text>
</a>
</g>
</g>
<!-- Node2&#45;&gt;Node1 -->
<g id="edge1" class="edge"><title>Node2&#45;&gt;Node1</title>
<path fill="none" stroke="#9a32cd" stroke-dasharray="5,2" d="M914.928,-144.598C946.512,-133.854 990.782,-118.794 1019.3,-109.092"/>
<polygon fill="#9a32cd" stroke="#9a32cd" points="913.495,-141.388 905.155,-147.922 915.749,-148.015 913.495,-141.388"/>
<text text-anchor="middle" x="966.5" y="-135.5" font-family="Helvetica,sans-Serif" font-size="10.00"> parent</text>
</g>
<!-- Node11 -->
<g id="node9" class="node"><title>Node11</title>
<g id="a_node9"><a xlink:href="classvpr_1_1_allocator.html" target="_top" xlink:title="The primary interface and class of this subsystem. ">
<polygon fill="white" stroke="red" points="1012,-138 1012,-157 1085,-157 1085,-138 1012,-138"/>
<text text-anchor="middle" x="1048.5" y="-145" font-family="Helvetica,sans-Serif" font-size="10.00">vpr::Allocator</text>
</a>
</g>
</g>
<!-- Node2&#45;&gt;Node11 -->
<g id="edge9" class="edge"><title>Node2&#45;&gt;Node11</title>
<path fill="none" stroke="#9a32cd" stroke-dasharray="5,2" d="M917.97,-155.097C946.6,-153.418 984.453,-151.198 1011.84,-149.592"/>
<polygon fill="#9a32cd" stroke="#9a32cd" points="917.654,-151.609 907.876,-155.689 918.064,-158.597 917.654,-151.609"/>
<text text-anchor="middle" x="966.5" y="-156.5" font-family="Helvetica,sans-Serif" font-size="10.00"> parent</text>
</g>
<!-- Node3 -->
<g id="node3" class="node"><title>Node3</title>
<polygon fill="white" stroke="#bfbfbf" points="550,-224.5 550,-254.5 691,-254.5 691,-224.5 550,-224.5"/>
<text text-anchor="start" x="558" y="-242.5" font-family="Helvetica,sans-Serif" font-size="10.00">std::map&lt; VkQueueFlags,</text>
<text text-anchor="middle" x="620.5" y="-231.5" font-family="Helvetica,sans-Serif" font-size="10.00"> VkDeviceQueueCreateInfo &gt;</text>
</g>
<!-- Node3&#45;&gt;Node2 -->
<g id="edge2" class="edge"><title>Node3&#45;&gt;Node2</title>
<path fill="none" stroke="#9a32cd" stroke-dasharray="5,2" d="M701.208,-227.011C732.891,-220.697 769.278,-211.722 801,-199.5 823.193,-190.95 846.74,-176.542 861.16,-167.026"/>
<polygon fill="#9a32cd" stroke="#9a32cd" points="700.251,-223.631 691.099,-228.969 701.582,-230.504 700.251,-223.631"/>
<text text-anchor="middle" x="755" y="-228.5" font-family="Helvetica,sans-Serif" font-size="10.00"> queueInfos</text>
</g>
<!-- Node4 -->
<g id="node4" class="node"><title>Node4</title>
<g id="a_node4"><a xlink:href="namespacevpr.html#structvpr_1_1vk_queue_family_indices" target="_top" xlink:title="vpr::vkQueueFamilyIndices">
<polygon fill="white" stroke="black" points="554.5,-186 554.5,-205 686.5,-205 686.5,-186 554.5,-186"/>
<text text-anchor="middle" x="620.5" y="-193" font-family="Helvetica,sans-Serif" font-size="10.00">vpr::vkQueueFamilyIndices</text>
</a>
</g>
</g>
<!-- Node4&#45;&gt;Node2 -->
<g id="edge3" class="edge"><title>Node4&#45;&gt;Node2</title>
<path fill="none" stroke="#9a32cd" stroke-dasharray="5,2" d="M697.062,-186.319C729.166,-182.179 766.97,-176.99 801,-171.5 815.328,-169.189 831.143,-166.249 844.462,-163.662"/>
<polygon fill="#9a32cd" stroke="#9a32cd" points="696.326,-182.884 686.851,-187.625 697.214,-189.828 696.326,-182.884"/>
<text text-anchor="middle" x="755" y="-187.5" font-family="Helvetica,sans-Serif" font-size="10.00"> QueueFamilyIndices</text>
</g>
<!-- Node5 -->
<g id="node5" class="node"><title>Node5</title>
<polygon fill="white" stroke="#bfbfbf" points="329.5,-98.5 329.5,-128.5 424.5,-128.5 424.5,-98.5 329.5,-98.5"/>
<text text-anchor="start" x="337.5" y="-116.5" font-family="Helvetica,sans-Serif" font-size="10.00">std::vector&lt; const</text>
<text text-anchor="middle" x="377" y="-105.5" font-family="Helvetica,sans-Serif" font-size="10.00"> char *&gt;</text>
</g>
<!-- Node5&#45;&gt;Node2 -->
<g id="edge4" class="edge"><title>Node5&#45;&gt;Node2</title>
<path fill="none" stroke="#9a32cd" stroke-dasharray="5,2" d="M434.588,-114.907C515.988,-117.521 670.677,-124.693 801,-143.5 815.365,-145.573 831.185,-148.48 844.497,-151.109"/>
<polygon fill="#9a32cd" stroke="#9a32cd" points="434.657,-111.408 424.554,-114.596 434.44,-118.405 434.657,-111.408"/>
<text text-anchor="middle" x="620.5" y="-133.5" font-family="Helvetica,sans-Serif" font-size="10.00"> enabledExtensions</text>
</g>
<!-- Node28 -->
<g id="node10" class="node"><title>Node28</title>
<g id="a_node10"><a xlink:href="classvpr_1_1_instance.html" target="_top" xlink:title="Instance is a wrapper around the base Vulkan object that must be initialized first. ">
<polygon fill="white" stroke="black" points="585,-56 585,-75 656,-75 656,-56 585,-56"/>
<text text-anchor="middle" x="620.5" y="-63" font-family="Helvetica,sans-Serif" font-size="10.00">vpr::Instance</text>
</a>
</g>
</g>
<!-- Node5&#45;&gt;Node28 -->
<g id="edge13" class="edge"><title>Node5&#45;&gt;Node28</title>
<path fill="none" stroke="#9a32cd" stroke-dasharray="5,2" d="M434.362,-96.3329C438.286,-95.3197 442.193,-94.3633 446,-93.5 493.609,-82.7023 549.48,-74.4642 584.689,-69.8041"/>
<polygon fill="#9a32cd" stroke="#9a32cd" points="433.37,-92.9752 424.619,-98.9477 435.184,-99.736 433.37,-92.9752"/>
<text text-anchor="middle" x="489" y="-96.5" font-family="Helvetica,sans-Serif" font-size="10.00"> enabledExtensions</text>
</g>
<!-- Node6 -->
<g id="node6" class="node"><title>Node6</title>
<g id="a_node6"><a xlink:href="classvpr_1_1_physical_device.html" target="_top" xlink:title="! PhysicalDevice is a wrapper around a VkPhysicalDevice object, which is itself merely a handle repre...">
<polygon fill="white" stroke="black" points="174,-118 174,-137 275,-137 275,-118 174,-118"/>
<text text-anchor="middle" x="224.5" y="-125" font-family="Helvetica,sans-Serif" font-size="10.00">vpr::PhysicalDevice</text>
</a>
</g>
</g>
<!-- Node6&#45;&gt;Node2 -->
<g id="edge5" class="edge"><title>Node6&#45;&gt;Node2</title>
<path fill="none" stroke="#9a32cd" stroke-dasharray="5,2" d="M285.126,-134.056C298.557,-135.359 312.757,-136.601 326,-137.5 523.212,-150.89 760.927,-155.708 844.311,-157.057"/>
<polygon fill="#9a32cd" stroke="#9a32cd" points="285.33,-130.559 275.032,-133.052 284.637,-137.524 285.33,-130.559"/>
<text text-anchor="middle" x="489" y="-151.5" font-family="Helvetica,sans-Serif" font-size="10.00"> parent</text>
</g>
<!-- Node29 -->
<g id="node11" class="node"><title>Node29</title>
<polygon fill="white" stroke="#bfbfbf" points="326,-49.5 326,-79.5 428,-79.5 428,-49.5 326,-49.5"/>
<text text-anchor="start" x="334" y="-67.5" font-family="Helvetica,sans-Serif" font-size="10.00">std::unique_ptr&lt; vpr</text>
<text text-anchor="middle" x="377" y="-56.5" font-family="Helvetica,sans-Serif" font-size="10.00">::PhysicalDevice &gt;</text>
</g>
<!-- Node6&#45;&gt;Node29 -->
<g id="edge12" class="edge"><title>Node6&#45;&gt;Node29</title>
<path fill="none" stroke="#9a32cd" stroke-dasharray="5,2" d="M257.794,-113.981C281.956,-103.867 315.002,-90.034 340.011,-79.565"/>
<polygon fill="#9a32cd" stroke="#9a32cd" points="256.231,-110.842 248.358,-117.932 258.934,-117.299 256.231,-110.842"/>
<text text-anchor="middle" x="300.5" y="-101.5" font-family="Helvetica,sans-Serif" font-size="10.00"> ptr</text>
</g>
<!-- Node7 -->
<g id="node7" class="node"><title>Node7</title>
<polygon fill="white" stroke="#bfbfbf" points="0,-112.5 0,-142.5 116,-142.5 116,-112.5 0,-112.5"/>
<text text-anchor="start" x="8" y="-130.5" font-family="Helvetica,sans-Serif" font-size="10.00">std::unique_ptr&lt; vpr</text>
<text text-anchor="middle" x="58" y="-119.5" font-family="Helvetica,sans-Serif" font-size="10.00">::PhysicalDeviceImpl &gt;</text>
</g>
<!-- Node7&#45;&gt;Node6 -->
<g id="edge6" class="edge"><title>Node7&#45;&gt;Node6</title>
<path fill="none" stroke="#9a32cd" stroke-dasharray="5,2" d="M126.39,-127.5C142.298,-127.5 158.973,-127.5 173.928,-127.5"/>
<polygon fill="#9a32cd" stroke="#9a32cd" points="126.072,-124 116.072,-127.5 126.072,-131 126.072,-124"/>
<text text-anchor="middle" x="145" y="-130.5" font-family="Helvetica,sans-Serif" font-size="10.00"> impl</text>
</g>
<!-- Node10 -->
<g id="node8" class="node"><title>Node10</title>
<polygon fill="white" stroke="#bfbfbf" points="1148,-160.5 1148,-190.5 1250,-190.5 1250,-160.5 1148,-160.5"/>
<text text-anchor="start" x="1156" y="-178.5" font-family="Helvetica,sans-Serif" font-size="10.00">std::unique_ptr&lt; vpr</text>
<text text-anchor="middle" x="1199" y="-167.5" font-family="Helvetica,sans-Serif" font-size="10.00">::Allocator &gt;</text>
</g>
<!-- Node10&#45;&gt;Node2 -->
<g id="edge7" class="edge"><title>Node10&#45;&gt;Node2</title>
<path fill="none" stroke="#9a32cd" stroke-dasharray="5,2" d="M1137.73,-177.367C1135.12,-177.418 1132.53,-177.463 1130,-177.5 1050.35,-178.671 1030.25,-176.547 951,-168.5 936.657,-167.044 920.839,-164.782 907.523,-162.687"/>
<polygon fill="#9a32cd" stroke="#9a32cd" points="1137.95,-180.863 1147.87,-177.141 1137.8,-173.864 1137.95,-180.863"/>
<text text-anchor="middle" x="1048.5" y="-181.5" font-family="Helvetica,sans-Serif" font-size="10.00"> vkAllocator</text>
</g>
<!-- Node11&#45;&gt;Node10 -->
<g id="edge8" class="edge"><title>Node11&#45;&gt;Node10</title>
<path fill="none" stroke="#9a32cd" stroke-dasharray="5,2" d="M1095.13,-156.103C1111.81,-159.25 1130.78,-162.825 1147.84,-166.042"/>
<polygon fill="#9a32cd" stroke="#9a32cd" points="1095.54,-152.62 1085.07,-154.207 1094.25,-159.499 1095.54,-152.62"/>
<text text-anchor="middle" x="1122.5" y="-165.5" font-family="Helvetica,sans-Serif" font-size="10.00"> ptr</text>
</g>
<!-- Node28&#45;&gt;Node2 -->
<g id="edge10" class="edge"><title>Node28&#45;&gt;Node2</title>
<path fill="none" stroke="#9a32cd" stroke-dasharray="5,2" d="M666.331,-65.6992C703.893,-67.4235 758.101,-73.6226 801,-93.5 802.859,-94.3614 843.975,-130.3 864.099,-147.936"/>
<polygon fill="#9a32cd" stroke="#9a32cd" points="666.324,-62.1966 656.201,-65.3239 666.065,-69.1918 666.324,-62.1966"/>
<text text-anchor="middle" x="755" y="-96.5" font-family="Helvetica,sans-Serif" font-size="10.00"> parentInstance</text>
</g>
<!-- Node29&#45;&gt;Node28 -->
<g id="edge11" class="edge"><title>Node29&#45;&gt;Node28</title>
<path fill="none" stroke="#9a32cd" stroke-dasharray="5,2" d="M438.262,-59.8338C440.876,-59.7057 443.464,-59.5931 446,-59.5 484.196,-58.0976 493.8,-58.1918 532,-59.5 549.348,-60.0941 568.597,-61.3489 584.614,-62.5581"/>
<polygon fill="#9a32cd" stroke="#9a32cd" points="437.901,-56.3484 428.11,-60.3969 438.289,-63.3376 437.901,-56.3484"/>
<text text-anchor="middle" x="489" y="-62.5" font-family="Helvetica,sans-Serif" font-size="10.00"> physicalDevice</text>
</g>
<!-- Node30 -->
<g id="node12" class="node"><title>Node30</title>
<polygon fill="white" stroke="#bfbfbf" points="326,-0.5 326,-30.5 428,-30.5 428,-0.5 326,-0.5"/>
<text text-anchor="start" x="334" y="-18.5" font-family="Helvetica,sans-Serif" font-size="10.00">std::unique_ptr&lt; vpr</text>
<text text-anchor="middle" x="377" y="-7.5" font-family="Helvetica,sans-Serif" font-size="10.00">::SurfaceKHR &gt;</text>
</g>
<!-- Node30&#45;&gt;Node28 -->
<g id="edge14" class="edge"><title>Node30&#45;&gt;Node28</title>
<path fill="none" stroke="#9a32cd" stroke-dasharray="5,2" d="M438.315,-25.51C466.813,-30.4837 501.249,-36.8463 532,-43.5 549.453,-47.2763 568.713,-52.052 584.71,-56.1882"/>
<polygon fill="#9a32cd" stroke="#9a32cd" points="438.553,-21.9992 428.103,-23.7425 437.359,-28.8967 438.553,-21.9992"/>
<text text-anchor="middle" x="489" y="-46.5" font-family="Helvetica,sans-Serif" font-size="10.00"> surface</text>
</g>
<!-- Node32 -->
<g id="node13" class="node"><title>Node32</title>
<polygon fill="white" stroke="#bfbfbf" points="819,-80 819,-99 933,-99 933,-80 819,-80"/>
<text text-anchor="middle" x="876" y="-87" font-family="Helvetica,sans-Serif" font-size="10.00">std::vector&lt; uint32_t &gt;</text>
</g>
<!-- Node32&#45;&gt;Node1 -->
<g id="edge15" class="edge"><title>Node32&#45;&gt;Node1</title>
<path fill="none" stroke="#9a32cd" stroke-dasharray="5,2" d="M943.344,-88.8555C956.181,-89.0914 969.519,-89.5868 982,-90.5 987.838,-90.9272 993.95,-91.5413 999.995,-92.251"/>
<polygon fill="#9a32cd" stroke="#9a32cd" points="943.228,-85.3537 933.181,-88.7189 943.133,-92.3531 943.228,-85.3537"/>
<text text-anchor="middle" x="966.5" y="-93.5" font-family="Helvetica,sans-Serif" font-size="10.00"> code</text>
</g>
</g>
</svg>
