<?xml version="1.0" encoding="UTF-8" standalone="no"?>
<!DOCTYPE svg PUBLIC "-//W3C//DTD SVG 1.1//EN"
 "http://www.w3.org/Graphics/SVG/1.1/DTD/svg11.dtd">
<!-- Generated by graphviz version 2.38.0 (20140413.2041)
 -->
<!-- Title: el::LoggerRegistrationCallback Pages: 1 -->
<svg width="157pt" height="151pt"
 viewBox="0.00 0.00 157.00 151.00" xmlns="http://www.w3.org/2000/svg" xmlns:xlink="http://www.w3.org/1999/xlink">
<g id="graph0" class="graph" transform="scale(1 1) rotate(0) translate(4 147)">
<title>el::LoggerRegistrationCallback</title>
<polygon fill="white" stroke="none" points="-4,4 -4,-147 153,-147 153,4 -4,4"/>
<!-- Node0 -->
<g id="node1" class="node"><title>Node0</title>
<polygon fill="#bfbfbf" stroke="black" points="0,-0.5 0,-19.5 149,-19.5 149,-0.5 0,-0.5"/>
<text text-anchor="middle" x="74.5" y="-7.5" font-family="Helvetica,sans-Serif" font-size="10.00">el::LoggerRegistrationCallback</text>
</g>
<!-- Node1 -->
<g id="node2" class="node"><title>Node1</title>
<g id="a_node2"><a xlink:href="classel_1_1_callback.html" target="_top" xlink:title="el::Callback\&lt; Logger \&gt;">
<polygon fill="white" stroke="black" points="17,-56.5 17,-75.5 132,-75.5 132,-56.5 17,-56.5"/>
<text text-anchor="middle" x="74.5" y="-63.5" font-family="Helvetica,sans-Serif" font-size="10.00">el::Callback&lt; Logger &gt;</text>
</a>
</g>
</g>
<!-- Node1&#45;&gt;Node0 -->
<g id="edge1" class="edge"><title>Node1&#45;&gt;Node0</title>
<path fill="none" stroke="midnightblue" d="M74.5,-45.8045C74.5,-36.9102 74.5,-26.7798 74.5,-19.7511"/>
<polygon fill="midnightblue" stroke="midnightblue" points="71.0001,-46.083 74.5,-56.083 78.0001,-46.083 71.0001,-46.083"/>
</g>
<!-- Node2 -->
<g id="node3" class="node"><title>Node2</title>
<g id="a_node3"><a xlink:href="classel_1_1base_1_1threading_1_1_thread_safe.html" target="_top" xlink:title="Base of thread safe class, this class is inheritable&#45;only. ">
<polygon fill="white" stroke="black" points="26,-112.5 26,-142.5 123,-142.5 123,-112.5 26,-112.5"/>
<text text-anchor="start" x="34" y="-130.5" font-family="Helvetica,sans-Serif" font-size="10.00">el::base::threading</text>
<text text-anchor="middle" x="74.5" y="-119.5" font-family="Helvetica,sans-Serif" font-size="10.00">::ThreadSafe</text>
</a>
</g>
</g>
<!-- Node2&#45;&gt;Node1 -->
<g id="edge2" class="edge"><title>Node2&#45;&gt;Node1</title>
<path fill="none" stroke="darkgreen" d="M74.5,-102.289C74.5,-92.857 74.5,-82.6548 74.5,-75.6578"/>
<polygon fill="darkgreen" stroke="darkgreen" points="71.0001,-102.399 74.5,-112.399 78.0001,-102.399 71.0001,-102.399"/>
</g>
</g>
</svg>
