<?xml version="1.0" encoding="UTF-8" standalone="no"?>
<!DOCTYPE svg PUBLIC "-//W3C//DTD SVG 1.1//EN"
 "http://www.w3.org/Graphics/SVG/1.1/DTD/svg11.dtd">
<!-- Generated by graphviz version 2.38.0 (20140413.2041)
 -->
<!-- Title: el::base::utils::CommandLineArgs::hasParam Pages: 1 -->
<svg width="269pt" height="39pt"
 viewBox="0.00 0.00 269.00 39.00" xmlns="http://www.w3.org/2000/svg" xmlns:xlink="http://www.w3.org/1999/xlink">
<g id="graph0" class="graph" transform="scale(1 1) rotate(0) translate(4 35)">
<title>el::base::utils::CommandLineArgs::hasParam</title>
<polygon fill="white" stroke="none" points="-4,4 -4,-35 265,-35 265,4 -4,4"/>
<!-- Node14 -->
<g id="node1" class="node"><title>Node14</title>
<polygon fill="#bfbfbf" stroke="black" points="0,-0.5 0,-30.5 125,-30.5 125,-0.5 0,-0.5"/>
<text text-anchor="start" x="8" y="-18.5" font-family="Helvetica,sans-Serif" font-size="10.00">el::base::utils::Command</text>
<text text-anchor="middle" x="62.5" y="-7.5" font-family="Helvetica,sans-Serif" font-size="10.00">LineArgs::hasParam</text>
</g>
<!-- Node15 -->
<g id="node2" class="node"><title>Node15</title>
<g id="a_node2"><a xlink:href="classel_1_1base_1_1_v_registry.html#a811e62d7d016a0714b4363f47216a9da" target="_top" xlink:title="el::base::VRegistry\l::setFromArgs">
<polygon fill="white" stroke="black" points="161,-0.5 161,-30.5 261,-30.5 261,-0.5 161,-0.5"/>
<text text-anchor="start" x="169" y="-18.5" font-family="Helvetica,sans-Serif" font-size="10.00">el::base::VRegistry</text>
<text text-anchor="middle" x="211" y="-7.5" font-family="Helvetica,sans-Serif" font-size="10.00">::setFromArgs</text>
</a>
</g>
</g>
<!-- Node14&#45;&gt;Node15 -->
<g id="edge1" class="edge"><title>Node14&#45;&gt;Node15</title>
<path fill="none" stroke="midnightblue" d="M135.303,-15.5C143.941,-15.5 152.606,-15.5 160.816,-15.5"/>
<polygon fill="midnightblue" stroke="midnightblue" points="135.205,-12.0001 125.205,-15.5 135.205,-19.0001 135.205,-12.0001"/>
</g>
</g>
</svg>
