<?xml version="1.0" encoding="UTF-8" standalone="no"?>
<!DOCTYPE svg PUBLIC "-//W3C//DTD SVG 1.1//EN"
 "http://www.w3.org/Graphics/SVG/1.1/DTD/svg11.dtd">
<!-- Generated by graphviz version 2.38.0 (20140413.2041)
 -->
<!-- Title: vpr::TransferPool Pages: 1 -->
<svg width="967pt" height="250pt"
 viewBox="0.00 0.00 967.00 250.00" xmlns="http://www.w3.org/2000/svg" xmlns:xlink="http://www.w3.org/1999/xlink">
<g id="graph0" class="graph" transform="scale(1 1) rotate(0) translate(4 246)">
<title>vpr::TransferPool</title>
<polygon fill="white" stroke="none" points="-4,4 -4,-246 963,-246 963,4 -4,4"/>
<!-- Node2 -->
<g id="node1" class="node"><title>Node2</title>
<polygon fill="#bfbfbf" stroke="black" points="870,-101 870,-120 959,-120 959,-101 870,-101"/>
<text text-anchor="middle" x="914.5" y="-108" font-family="Helvetica,sans-Serif" font-size="10.00">vpr::TransferPool</text>
</g>
<!-- Node3 -->
<g id="node2" class="node"><title>Node3</title>
<g id="a_node2"><a xlink:href="classvpr_1_1_command_pool.html" target="_top" xlink:title="The CommandPool class is the primary interface through which one will acquire VkCommandBuffer objects...">
<polygon fill="white" stroke="black" points="735,-101 735,-120 833,-120 833,-101 735,-101"/>
<text text-anchor="middle" x="784" y="-108" font-family="Helvetica,sans-Serif" font-size="10.00">vpr::CommandPool</text>
</a>
</g>
</g>
<!-- Node3&#45;&gt;Node2 -->
<g id="edge1" class="edge"><title>Node3&#45;&gt;Node2</title>
<path fill="none" stroke="midnightblue" d="M843.457,-110.5C852.274,-110.5 861.237,-110.5 869.676,-110.5"/>
<polygon fill="midnightblue" stroke="midnightblue" points="843.214,-107 833.214,-110.5 843.214,-114 843.214,-107"/>
</g>
<!-- Node4 -->
<g id="node3" class="node"><title>Node4</title>
<g id="a_node3"><a xlink:href="classvpr_1_1_device.html" target="_top" xlink:title="!The Device class is a wrapper around the vkLogicalDevice object. ">
<polygon fill="white" stroke="black" points="535,-121 535,-140 598,-140 598,-121 535,-121"/>
<text text-anchor="middle" x="566.5" y="-128" font-family="Helvetica,sans-Serif" font-size="10.00">vpr::Device</text>
</a>
</g>
</g>
<!-- Node4&#45;&gt;Node3 -->
<g id="edge2" class="edge"><title>Node4&#45;&gt;Node3</title>
<path fill="none" stroke="#9a32cd" stroke-dasharray="5,2" d="M608.511,-126.694C644.449,-123.359 696.726,-118.507 734.684,-114.984"/>
<polygon fill="#9a32cd" stroke="#9a32cd" points="608.01,-123.225 598.376,-127.634 608.657,-130.195 608.01,-123.225"/>
<text text-anchor="middle" x="691" y="-124.5" font-family="Helvetica,sans-Serif" font-size="10.00"> parent</text>
</g>
<!-- Node5 -->
<g id="node4" class="node"><title>Node5</title>
<polygon fill="white" stroke="#bfbfbf" points="217,-211.5 217,-241.5 358,-241.5 358,-211.5 217,-211.5"/>
<text text-anchor="start" x="225" y="-229.5" font-family="Helvetica,sans-Serif" font-size="10.00">std::map&lt; VkQueueFlags,</text>
<text text-anchor="middle" x="287.5" y="-218.5" font-family="Helvetica,sans-Serif" font-size="10.00"> VkDeviceQueueCreateInfo &gt;</text>
</g>
<!-- Node5&#45;&gt;Node4 -->
<g id="edge3" class="edge"><title>Node5&#45;&gt;Node4</title>
<path fill="none" stroke="#9a32cd" stroke-dasharray="5,2" d="M368.293,-214.743C399.988,-208.645 436.361,-199.826 468,-187.5 500.155,-174.973 534.181,-152.729 552.307,-140.05"/>
<polygon fill="#9a32cd" stroke="#9a32cd" points="367.368,-211.355 358.179,-216.628 368.651,-218.236 367.368,-211.355"/>
<text text-anchor="middle" x="422" y="-216.5" font-family="Helvetica,sans-Serif" font-size="10.00"> queueInfos</text>
</g>
<!-- Node6 -->
<g id="node5" class="node"><title>Node6</title>
<g id="a_node5"><a xlink:href="namespacevpr.html#structvpr_1_1vk_queue_family_indices" target="_top" xlink:title="vpr::vkQueueFamilyIndices">
<polygon fill="white" stroke="black" points="221.5,-173 221.5,-192 353.5,-192 353.5,-173 221.5,-173"/>
<text text-anchor="middle" x="287.5" y="-180" font-family="Helvetica,sans-Serif" font-size="10.00">vpr::vkQueueFamilyIndices</text>
</a>
</g>
</g>
<!-- Node6&#45;&gt;Node4 -->
<g id="edge4" class="edge"><title>Node6&#45;&gt;Node4</title>
<path fill="none" stroke="#9a32cd" stroke-dasharray="5,2" d="M363.912,-174.241C396.143,-170.133 434.083,-164.526 468,-157.5 490.703,-152.797 515.915,-145.765 535.014,-140.057"/>
<polygon fill="#9a32cd" stroke="#9a32cd" points="363.149,-170.809 353.66,-175.522 364.017,-177.755 363.149,-170.809"/>
<text text-anchor="middle" x="422" y="-175.5" font-family="Helvetica,sans-Serif" font-size="10.00"> QueueFamilyIndices</text>
</g>
<!-- Node7 -->
<g id="node6" class="node"><title>Node7</title>
<polygon fill="white" stroke="#bfbfbf" points="0,-110.5 0,-140.5 95,-140.5 95,-110.5 0,-110.5"/>
<text text-anchor="start" x="8" y="-128.5" font-family="Helvetica,sans-Serif" font-size="10.00">std::vector&lt; const</text>
<text text-anchor="middle" x="47.5" y="-117.5" font-family="Helvetica,sans-Serif" font-size="10.00"> char *&gt;</text>
</g>
<!-- Node7&#45;&gt;Node4 -->
<g id="edge5" class="edge"><title>Node7&#45;&gt;Node4</title>
<path fill="none" stroke="#9a32cd" stroke-dasharray="5,2" d="M105.361,-129.213C107.942,-129.323 110.498,-129.42 113,-129.5 271.608,-134.589 461.648,-132.269 534.764,-131.065"/>
<polygon fill="#9a32cd" stroke="#9a32cd" points="105.494,-125.716 95.3384,-128.734 105.16,-132.708 105.494,-125.716"/>
<text text-anchor="middle" x="287.5" y="-136.5" font-family="Helvetica,sans-Serif" font-size="10.00"> enabledExtensions</text>
</g>
<!-- Node30 -->
<g id="node9" class="node"><title>Node30</title>
<g id="a_node9"><a xlink:href="classvpr_1_1_instance.html" target="_top" xlink:title="Instance is a wrapper around the base Vulkan object that must be initialized first. ">
<polygon fill="white" stroke="red" points="252,-88 252,-107 323,-107 323,-88 252,-88"/>
<text text-anchor="middle" x="287.5" y="-95" font-family="Helvetica,sans-Serif" font-size="10.00">vpr::Instance</text>
</a>
</g>
</g>
<!-- Node7&#45;&gt;Node30 -->
<g id="edge9" class="edge"><title>Node7&#45;&gt;Node30</title>
<path fill="none" stroke="#9a32cd" stroke-dasharray="5,2" d="M105.273,-118.821C150.864,-113.457 213.411,-106.099 251.831,-101.579"/>
<polygon fill="#9a32cd" stroke="#9a32cd" points="104.76,-115.357 95.2372,-120.002 105.578,-122.309 104.76,-115.357"/>
<text text-anchor="middle" x="156" y="-120.5" font-family="Helvetica,sans-Serif" font-size="10.00"> enabledExtensions</text>
</g>
<!-- Node8 -->
<g id="node7" class="node"><title>Node8</title>
<g id="a_node7"><a xlink:href="classvpr_1_1_physical_device.html" target="_top" xlink:title="! PhysicalDevice is a wrapper around a VkPhysicalDevice object, which is itself merely a handle repre...">
<polygon fill="white" stroke="red" points="237,-50 237,-69 338,-69 338,-50 237,-50"/>
<text text-anchor="middle" x="287.5" y="-57" font-family="Helvetica,sans-Serif" font-size="10.00">vpr::PhysicalDevice</text>
</a>
</g>
</g>
<!-- Node8&#45;&gt;Node4 -->
<g id="edge6" class="edge"><title>Node8&#45;&gt;Node4</title>
<path fill="none" stroke="#9a32cd" stroke-dasharray="5,2" d="M348.303,-61.9618C384.684,-65.5532 431.092,-73.9889 468,-93.5 478.002,-98.7875 476.126,-105.977 486,-111.5 500.986,-119.882 519.566,-124.585 534.995,-127.215"/>
<polygon fill="#9a32cd" stroke="#9a32cd" points="348.595,-58.474 338.324,-61.0721 347.973,-65.4464 348.595,-58.474"/>
<text text-anchor="middle" x="422" y="-96.5" font-family="Helvetica,sans-Serif" font-size="10.00"> parent</text>
</g>
<!-- Node12 -->
<g id="node8" class="node"><title>Node12</title>
<polygon fill="white" stroke="#bfbfbf" points="236.5,-0.5 236.5,-30.5 338.5,-30.5 338.5,-0.5 236.5,-0.5"/>
<text text-anchor="start" x="244.5" y="-18.5" font-family="Helvetica,sans-Serif" font-size="10.00">std::unique_ptr&lt; vpr</text>
<text text-anchor="middle" x="287.5" y="-7.5" font-family="Helvetica,sans-Serif" font-size="10.00">::Allocator &gt;</text>
</g>
<!-- Node12&#45;&gt;Node4 -->
<g id="edge7" class="edge"><title>Node12&#45;&gt;Node4</title>
<path fill="none" stroke="#9a32cd" stroke-dasharray="5,2" d="M348.899,-12.635C387.478,-14.0729 436.072,-22.427 468,-51.5 488.585,-70.2447 465.762,-92.3812 486,-111.5 498.998,-123.779 518.46,-128.573 534.874,-130.277"/>
<polygon fill="#9a32cd" stroke="#9a32cd" points="348.892,-9.134 338.815,-12.4053 348.733,-16.1322 348.892,-9.134"/>
<text text-anchor="middle" x="422" y="-54.5" font-family="Helvetica,sans-Serif" font-size="10.00"> vkAllocator</text>
</g>
<!-- Node30&#45;&gt;Node4 -->
<g id="edge8" class="edge"><title>Node30&#45;&gt;Node4</title>
<path fill="none" stroke="#9a32cd" stroke-dasharray="5,2" d="M333.515,-102.691C369.825,-106.896 422.209,-113.004 468,-118.5 490.352,-121.183 515.576,-124.29 534.767,-126.67"/>
<polygon fill="#9a32cd" stroke="#9a32cd" points="333.59,-99.176 323.254,-101.503 332.785,-106.13 333.59,-99.176"/>
<text text-anchor="middle" x="422" y="-121.5" font-family="Helvetica,sans-Serif" font-size="10.00"> parentInstance</text>
</g>
<!-- Node34 -->
<g id="node10" class="node"><title>Node34</title>
<polygon fill="white" stroke="#bfbfbf" points="486,-83 486,-102 647,-102 647,-83 486,-83"/>
<text text-anchor="middle" x="566.5" y="-90" font-family="Helvetica,sans-Serif" font-size="10.00">std::vector&lt; VkCommandBuffer &gt;</text>
</g>
<!-- Node34&#45;&gt;Node3 -->
<g id="edge10" class="edge"><title>Node34&#45;&gt;Node3</title>
<path fill="none" stroke="#9a32cd" stroke-dasharray="5,2" d="M657.428,-91.3428C677.112,-91.9144 697.8,-93.1504 717,-95.5 726.914,-96.7132 737.521,-98.7745 747.267,-100.987"/>
<polygon fill="#9a32cd" stroke="#9a32cd" points="657.319,-87.8393 647.239,-91.102 657.154,-94.8374 657.319,-87.8393"/>
<text text-anchor="middle" x="691" y="-98.5" font-family="Helvetica,sans-Serif" font-size="10.00"> cmdBuffers</text>
</g>
</g>
</svg>
