<?xml version="1.0" encoding="UTF-8" standalone="no"?>
<!DOCTYPE svg PUBLIC "-//W3C//DTD SVG 1.1//EN"
 "http://www.w3.org/Graphics/SVG/1.1/DTD/svg11.dtd">
<!-- Generated by graphviz version 2.38.0 (20140413.2041)
 -->
<!-- Title: vpr::PhysicalDevice::GetQueueFamilyIndex Pages: 1 -->
<!--zoomable 228 -->
<svg id="main" version="1.1" xmlns="http://www.w3.org/2000/svg" xmlns:xlink="http://www.w3.org/1999/xlink" xml:space="preserve" onload="init(evt)">
<style type="text/css"><![CDATA[
.edge:hover path { stroke: red; }
.edge:hover polygon { stroke: red; fill: red; }
]]></style>
<script type="text/javascript"><![CDATA[
var edges = document.getElementsByTagName('g');
if (edges && edges.length) {
  for (var i=0;i<edges.length;i++) {
    if (edges[i].id.substr(0,4)=='edge') {
      edges[i].setAttribute('class','edge');
    }
  }
}
]]></script>
        <defs>
                <circle id="rim" cx="0" cy="0" r="7"/>
                <circle id="rim2" cx="0" cy="0" r="3.5"/>
                <g id="zoomPlus">
                        <use xlink:href="#rim" fill="#404040">
                                <set attributeName="fill" to="#808080" begin="zoomplus.mouseover" end="zoomplus.mouseout"/>
                        </use>
                        <path d="M-4,0h8M0,-4v8" fill="none" stroke="white" stroke-width="1.5" pointer-events="none"/>
                </g>
                <g id="zoomMin">
                        <use xlink:href="#rim" fill="#404040">
                                <set attributeName="fill" to="#808080" begin="zoomminus.mouseover" end="zoomminus.mouseout"/>
                        </use>
                        <path d="M-4,0h8" fill="none" stroke="white" stroke-width="1.5" pointer-events="none"/>
                </g>
                <g id="dirArrow">
                        <path fill="none" stroke="white" stroke-width="1.5" d="M0,-3.0v7 M-2.5,-0.5L0,-3.0L2.5,-0.5"/>
                </g>
               <g id="resetDef">
                       <use xlink:href="#rim2" fill="#404040">
                               <set attributeName="fill" to="#808080" begin="reset.mouseover" end="reset.mouseout"/>
                       </use>
               </g>
        </defs>

<script type="text/javascript">
var viewWidth = 634;
var viewHeight = 228;
var sectionId = 'dynsection-5';
</script>
<script xlink:href="svgpan.js"/>
<svg id="graph" class="graph">
<g id="viewport">
<title>vpr::PhysicalDevice::GetQueueFamilyIndex</title>
<polygon fill="white" stroke="none" points="-4,4 -4,-223.5 630,-223.5 630,4 -4,4"/>
<!-- Node25 -->
<g id="node1" class="node"><title>Node25</title>
<polygon fill="#bfbfbf" stroke="black" points="0,-96.5 0,-126.5 119,-126.5 119,-96.5 0,-96.5"/>
<text text-anchor="start" x="8" y="-114.5" font-family="Helvetica,sans-Serif" font-size="10.00">vpr::PhysicalDevice</text>
<text text-anchor="middle" x="59.5" y="-103.5" font-family="Helvetica,sans-Serif" font-size="10.00">::GetQueueFamilyIndex</text>
</g>
<!-- Node26 -->
<g id="node2" class="node"><title>Node26</title>
<g id="a_node2"><a xlink:href="classvpr_1_1_device.html#a6914a8dd1054f00fbdc3454e55b3c14b" target="_top" xlink:title="! Returns queue that has support for most operation types. ">
<polygon fill="white" stroke="black" points="159.5,-200 159.5,-219 290.5,-219 290.5,-200 159.5,-200"/>
<text text-anchor="middle" x="225" y="-207" font-family="Helvetica,sans-Serif" font-size="10.00">vpr::Device::GeneralQueue</text>
</a>
</g>
</g>
<!-- Node25&#45;&gt;Node26 -->
<g id="edge1" class="edge"><title>Node25&#45;&gt;Node26</title>
<path fill="none" stroke="midnightblue" d="M84.1603,-133.653C102.39,-149.783 128.827,-171.218 155,-185.5 165.688,-191.332 178.063,-196.166 189.357,-199.929"/>
<polygon fill="midnightblue" stroke="midnightblue" points="86.1663,-130.75 76.3924,-126.661 81.4828,-135.952 86.1663,-130.75"/>
</g>
<!-- Node27 -->
<g id="node3" class="node"><title>Node27</title>
<g id="a_node3"><a xlink:href="classvpr_1_1_physical_device.html#a2ee4f96b16a9762953ecad3b658d84e6" target="_top" xlink:title="vpr::PhysicalDevice\l::GetQueueFamilyProperties">
<polygon fill="white" stroke="black" points="155,-74.5 155,-104.5 295,-104.5 295,-74.5 155,-74.5"/>
<text text-anchor="start" x="163" y="-92.5" font-family="Helvetica,sans-Serif" font-size="10.00">vpr::PhysicalDevice</text>
<text text-anchor="middle" x="225" y="-81.5" font-family="Helvetica,sans-Serif" font-size="10.00">::GetQueueFamilyProperties</text>
</a>
</g>
</g>
<!-- Node25&#45;&gt;Node27 -->
<g id="edge2" class="edge"><title>Node25&#45;&gt;Node27</title>
<path fill="none" stroke="midnightblue" d="M129.023,-102.28C137.603,-101.125 146.383,-99.9438 154.971,-98.7883"/>
<polygon fill="midnightblue" stroke="midnightblue" points="128.509,-98.8173 119.065,-103.62 129.443,-105.755 128.509,-98.8173"/>
</g>
<!-- Node28 -->
<g id="node4" class="node"><title>Node28</title>
<g id="a_node4"><a xlink:href="classvpr_1_1_device.html#adbe15d529a11af4d7034a2135255e773" target="_top" xlink:title="vpr::Device::setupGraphics\lQueues">
<polygon fill="white" stroke="black" points="331,-147.5 331,-177.5 463,-177.5 463,-147.5 331,-147.5"/>
<text text-anchor="start" x="339" y="-165.5" font-family="Helvetica,sans-Serif" font-size="10.00">vpr::Device::setupGraphics</text>
<text text-anchor="middle" x="397" y="-154.5" font-family="Helvetica,sans-Serif" font-size="10.00">Queues</text>
</a>
</g>
</g>
<!-- Node25&#45;&gt;Node28 -->
<g id="edge12" class="edge"><title>Node25&#45;&gt;Node28</title>
<path fill="none" stroke="midnightblue" d="M129.263,-124.183C137.919,-125.688 146.66,-127.162 155,-128.5 214.453,-138.038 282.391,-147.492 330.947,-154.001"/>
<polygon fill="midnightblue" stroke="midnightblue" points="129.624,-120.693 119.169,-122.41 128.412,-127.588 129.624,-120.693"/>
</g>
<!-- Node32 -->
<g id="node6" class="node"><title>Node32</title>
<g id="a_node6"><a xlink:href="classvpr_1_1_device.html#abdb29331fbcc15a242b3f0e82b02beef" target="_top" xlink:title="vpr::Device::setupCompute\lQueues">
<polygon fill="white" stroke="black" points="331,-98.5 331,-128.5 463,-128.5 463,-98.5 331,-98.5"/>
<text text-anchor="start" x="339" y="-116.5" font-family="Helvetica,sans-Serif" font-size="10.00">vpr::Device::setupCompute</text>
<text text-anchor="middle" x="397" y="-105.5" font-family="Helvetica,sans-Serif" font-size="10.00">Queues</text>
</a>
</g>
</g>
<!-- Node25&#45;&gt;Node32 -->
<g id="edge11" class="edge"><title>Node25&#45;&gt;Node32</title>
<path fill="none" stroke="midnightblue" d="M129.312,-113.126C137.96,-113.281 146.685,-113.412 155,-113.5 214.514,-114.13 282.301,-114.06 330.79,-113.873"/>
<polygon fill="midnightblue" stroke="midnightblue" points="129.289,-109.625 119.225,-112.936 129.157,-116.624 129.289,-109.625"/>
</g>
<!-- Node33 -->
<g id="node7" class="node"><title>Node33</title>
<g id="a_node7"><a xlink:href="classvpr_1_1_device.html#aa64b2412561fa0950722c2dc4997da9f" target="_top" xlink:title="vpr::Device::setupTransfer\lQueues">
<polygon fill="white" stroke="black" points="333,-49.5 333,-79.5 461,-79.5 461,-49.5 333,-49.5"/>
<text text-anchor="start" x="341" y="-67.5" font-family="Helvetica,sans-Serif" font-size="10.00">vpr::Device::setupTransfer</text>
<text text-anchor="middle" x="397" y="-56.5" font-family="Helvetica,sans-Serif" font-size="10.00">Queues</text>
</a>
</g>
</g>
<!-- Node25&#45;&gt;Node33 -->
<g id="edge14" class="edge"><title>Node25&#45;&gt;Node33</title>
<path fill="none" stroke="midnightblue" d="M92.1817,-91.1244C109.898,-80.9455 132.823,-69.7105 155,-64.5 214.162,-50.5999 283.773,-52.4731 332.929,-56.6955"/>
<polygon fill="midnightblue" stroke="midnightblue" points="90.243,-88.2048 83.4239,-96.3135 93.8112,-94.2271 90.243,-88.2048"/>
</g>
<!-- Node34 -->
<g id="node8" class="node"><title>Node34</title>
<g id="a_node8"><a xlink:href="classvpr_1_1_device.html#a22ee8e6517d4898282d9d6385545100a" target="_top" xlink:title="vpr::Device::setupSparse\lBindingQueues">
<polygon fill="white" stroke="black" points="335,-0.5 335,-30.5 459,-30.5 459,-0.5 335,-0.5"/>
<text text-anchor="start" x="343" y="-18.5" font-family="Helvetica,sans-Serif" font-size="10.00">vpr::Device::setupSparse</text>
<text text-anchor="middle" x="397" y="-7.5" font-family="Helvetica,sans-Serif" font-size="10.00">BindingQueues</text>
</a>
</g>
</g>
<!-- Node25&#45;&gt;Node34 -->
<g id="edge13" class="edge"><title>Node25&#45;&gt;Node34</title>
<path fill="none" stroke="midnightblue" d="M87.0217,-89.9361C105.098,-76.4031 130.173,-59.8085 155,-50.5 213.59,-28.5324 284.985,-20.2669 334.796,-17.2025"/>
<polygon fill="midnightblue" stroke="midnightblue" points="84.5455,-87.4244 78.742,-96.2883 88.8065,-92.9782 84.5455,-87.4244"/>
</g>
<!-- Node27&#45;&gt;Node28 -->
<g id="edge3" class="edge"><title>Node27&#45;&gt;Node28</title>
<path fill="none" stroke="midnightblue" d="M266.623,-108.777C285.992,-117.786 309.564,-128.488 331,-137.5 338.913,-140.827 347.437,-144.231 355.624,-147.415"/>
<polygon fill="midnightblue" stroke="midnightblue" points="268.021,-105.567 257.48,-104.505 265.058,-111.909 268.021,-105.567"/>
</g>
<!-- Node27&#45;&gt;Node32 -->
<g id="edge5" class="edge"><title>Node27&#45;&gt;Node32</title>
<path fill="none" stroke="midnightblue" d="M305.152,-100.674C313.725,-101.885 322.378,-103.106 330.76,-104.29"/>
<polygon fill="midnightblue" stroke="midnightblue" points="305.537,-97.1941 295.146,-99.2617 304.558,-104.125 305.537,-97.1941"/>
</g>
<!-- Node27&#45;&gt;Node33 -->
<g id="edge7" class="edge"><title>Node27&#45;&gt;Node33</title>
<path fill="none" stroke="midnightblue" d="M305.187,-77.8549C314.494,-76.4861 323.895,-75.1037 332.94,-73.7736"/>
<polygon fill="midnightblue" stroke="midnightblue" points="304.53,-74.4138 295.146,-79.3315 305.548,-81.3393 304.53,-74.4138"/>
</g>
<!-- Node27&#45;&gt;Node34 -->
<g id="edge9" class="edge"><title>Node27&#45;&gt;Node34</title>
<path fill="none" stroke="midnightblue" d="M265.208,-69.7903C284.782,-60.2178 308.937,-48.8038 331,-39.5 338.205,-36.4619 345.941,-33.4193 353.475,-30.5704"/>
<polygon fill="midnightblue" stroke="midnightblue" points="263.423,-66.7679 255.996,-74.3242 266.514,-73.0484 263.423,-66.7679"/>
</g>
<!-- Node29 -->
<g id="node5" class="node"><title>Node29</title>
<g id="a_node5"><a xlink:href="classvpr_1_1_device.html#af52c3b24f6bca1308a5170eb3acfeb11" target="_top" xlink:title="vpr::Device::setupQueues">
<polygon fill="white" stroke="red" points="499,-79 499,-98 626,-98 626,-79 499,-79"/>
<text text-anchor="middle" x="562.5" y="-86" font-family="Helvetica,sans-Serif" font-size="10.00">vpr::Device::setupQueues</text>
</a>
</g>
</g>
<!-- Node28&#45;&gt;Node29 -->
<g id="edge4" class="edge"><title>Node28&#45;&gt;Node29</title>
<path fill="none" stroke="midnightblue" d="M448.351,-143.678C453.327,-141.655 458.279,-139.577 463,-137.5 491.672,-124.888 524.033,-108.325 543.589,-98.05"/>
<polygon fill="midnightblue" stroke="midnightblue" points="446.802,-140.527 438.809,-147.482 449.394,-147.03 446.802,-140.527"/>
</g>
<!-- Node32&#45;&gt;Node29 -->
<g id="edge6" class="edge"><title>Node32&#45;&gt;Node29</title>
<path fill="none" stroke="midnightblue" d="M473.251,-101.994C481.967,-100.661 490.782,-99.3132 499.296,-98.0113"/>
<polygon fill="midnightblue" stroke="midnightblue" points="472.445,-98.5761 463.089,-103.548 473.503,-105.496 472.445,-98.5761"/>
</g>
<!-- Node33&#45;&gt;Node29 -->
<g id="edge8" class="edge"><title>Node33&#45;&gt;Node29</title>
<path fill="none" stroke="midnightblue" d="M471.199,-75.2449C480.477,-76.6068 489.904,-77.9904 498.993,-79.3247"/>
<polygon fill="midnightblue" stroke="midnightblue" points="471.616,-71.7685 461.213,-73.779 470.599,-78.6943 471.616,-71.7685"/>
</g>
<!-- Node34&#45;&gt;Node29 -->
<g id="edge10" class="edge"><title>Node34&#45;&gt;Node29</title>
<path fill="none" stroke="midnightblue" d="M450.348,-34.2667C454.651,-35.9795 458.914,-37.7354 463,-39.5 491.757,-51.9186 524.093,-68.5355 543.621,-78.875"/>
<polygon fill="midnightblue" stroke="midnightblue" points="451.505,-30.9615 440.917,-30.5993 448.968,-37.4856 451.505,-30.9615"/>
</g>
</g>
</svg>
        <g id="navigator" transform="translate(0 0)" fill="#404254">
                <rect fill="#f2f5e9" fill-opacity="0.5" stroke="#606060" stroke-width=".5" x="0" y="0" width="60" height="60"/>
                <use id="zoomplus" xlink:href="#zoomPlus" x="17" y="9" onmousedown="handleZoom(evt,'in')"/>
                <use id="zoomminus" xlink:href="#zoomMin" x="42" y="9" onmousedown="handleZoom(evt,'out')"/>
                <use id="reset" xlink:href="#resetDef" x="30" y="36" onmousedown="handleReset()"/>
                <g id="arrowUp" xlink:href="#dirArrow" transform="translate(30 24)" onmousedown="handlePan(0,-1)">
                  <use xlink:href="#rim" fill="#404040">
                        <set attributeName="fill" to="#808080" begin="arrowUp.mouseover" end="arrowUp.mouseout"/>
                  </use>
                  <path fill="none" stroke="white" stroke-width="1.5" d="M0,-3.0v7 M-2.5,-0.5L0,-3.0L2.5,-0.5"/>
                </g>
                <g id="arrowRight" xlink:href="#dirArrow" transform="rotate(90) translate(36 -43)" onmousedown="handlePan(1,0)">
                  <use xlink:href="#rim" fill="#404040">
                        <set attributeName="fill" to="#808080" begin="arrowRight.mouseover" end="arrowRight.mouseout"/>
                  </use>
                  <path fill="none" stroke="white" stroke-width="1.5" d="M0,-3.0v7 M-2.5,-0.5L0,-3.0L2.5,-0.5"/>
                </g>
                <g id="arrowDown" xlink:href="#dirArrow" transform="rotate(180) translate(-30 -48)" onmousedown="handlePan(0,1)">
                  <use xlink:href="#rim" fill="#404040">
                        <set attributeName="fill" to="#808080" begin="arrowDown.mouseover" end="arrowDown.mouseout"/>
                  </use>
                  <path fill="none" stroke="white" stroke-width="1.5" d="M0,-3.0v7 M-2.5,-0.5L0,-3.0L2.5,-0.5"/>
                </g>
                <g id="arrowLeft" xlink:href="#dirArrow" transform="rotate(270) translate(-36 17)" onmousedown="handlePan(-1,0)">
                  <use xlink:href="#rim" fill="#404040">
                        <set attributeName="fill" to="#808080" begin="arrowLeft.mouseover" end="arrowLeft.mouseout"/>
                  </use>
                  <path fill="none" stroke="white" stroke-width="1.5" d="M0,-3.0v7 M-2.5,-0.5L0,-3.0L2.5,-0.5"/>
                </g>
        </g>
        <svg viewBox="0 0 15 15" width="100%" height="30px" preserveAspectRatio="xMaxYMin meet">
         <g id="arrow_out" transform="scale(0.3 0.3)">
          <a xlink:href="classvpr_1_1_physical_device_af443c2a585d182166c464f252782a57b_icgraph_org.svg" target="_base">
           <rect id="button" ry="5" rx="5" y="6" x="6" height="38" width="38"
                fill="#f2f5e9" fill-opacity="0.5" stroke="#606060" stroke-width="1.0"/>
           <path id="arrow"
             d="M 11.500037,31.436501 C 11.940474,20.09759 22.043105,11.32322 32.158766,21.979434 L 37.068811,17.246167 C 37.068811,17.246167 37.088388,32 37.088388,32 L 22.160133,31.978069 C 22.160133,31.978069 26.997745,27.140456 26.997745,27.140456 C 18.528582,18.264221 13.291696,25.230495 11.500037,31.436501 z"
             style="fill:#404040;"/>
          </a>
         </g>
        </svg>
</svg>
