<?xml version="1.0" encoding="UTF-8" standalone="no"?>
<!DOCTYPE svg PUBLIC "-//W3C//DTD SVG 1.1//EN"
 "http://www.w3.org/Graphics/SVG/1.1/DTD/svg11.dtd">
<!-- Generated by graphviz version 2.38.0 (20140413.2041)
 -->
<!-- Title: vpr::Allocator::freePrivateMemory Pages: 1 -->
<svg width="645pt" height="126pt"
 viewBox="0.00 0.00 645.00 125.67" xmlns="http://www.w3.org/2000/svg" xmlns:xlink="http://www.w3.org/1999/xlink">
<g id="graph0" class="graph" transform="scale(1 1) rotate(0) translate(4 121.671)">
<title>vpr::Allocator::freePrivateMemory</title>
<polygon fill="white" stroke="none" points="-4,4 -4,-121.671 641,-121.671 641,4 -4,4"/>
<!-- Node240 -->
<g id="node1" class="node"><title>Node240</title>
<polygon fill="#bfbfbf" stroke="black" points="0,-6.67078 0,-36.6708 124,-36.6708 124,-6.67078 0,-6.67078"/>
<text text-anchor="start" x="8" y="-24.6708" font-family="Helvetica,sans-Serif" font-size="10.00">vpr::Allocator::freePrivate</text>
<text text-anchor="middle" x="62" y="-13.6708" font-family="Helvetica,sans-Serif" font-size="10.00">Memory</text>
</g>
<!-- Node241 -->
<g id="node2" class="node"><title>Node241</title>
<g id="a_node2"><a xlink:href="classvpr_1_1_allocator.html#a438bbd88a3f18c741f7de90f528300b1" target="_top" xlink:title="vpr::Allocator::FreeMemory">
<polygon fill="white" stroke="black" points="160,-41.1708 160,-60.1708 294,-60.1708 294,-41.1708 160,-41.1708"/>
<text text-anchor="middle" x="227" y="-48.1708" font-family="Helvetica,sans-Serif" font-size="10.00">vpr::Allocator::FreeMemory</text>
</a>
</g>
</g>
<!-- Node240&#45;&gt;Node241 -->
<g id="edge1" class="edge"><title>Node240&#45;&gt;Node241</title>
<path fill="none" stroke="midnightblue" d="M134.343,-34.3636C147.163,-36.6445 160.323,-38.986 172.529,-41.1575"/>
<polygon fill="midnightblue" stroke="midnightblue" points="134.617,-30.8576 124.159,-32.5518 133.391,-37.7494 134.617,-30.8576"/>
</g>
<!-- Node243 -->
<g id="node4" class="node"><title>Node243</title>
<g id="a_node4"><a xlink:href="structvpr_1_1raw__equal__comparator.html#a987586395c413fe2f54c4f2ec4ec1925" target="_top" xlink:title="vpr::raw_equal_comparator\l::operator()">
<polygon fill="white" stroke="black" points="505,-35.6708 505,-65.6708 637,-65.6708 637,-35.6708 505,-35.6708"/>
<text text-anchor="start" x="513" y="-53.6708" font-family="Helvetica,sans-Serif" font-size="10.00">vpr::raw_equal_comparator</text>
<text text-anchor="middle" x="571" y="-42.6708" font-family="Helvetica,sans-Serif" font-size="10.00">::operator()</text>
</a>
</g>
</g>
<!-- Node240&#45;&gt;Node243 -->
<g id="edge7" class="edge"><title>Node240&#45;&gt;Node243</title>
<path fill="none" stroke="midnightblue" d="M134.291,-11.4999C215.906,-1.83328 353.255,8.38266 469,-12.6708 493.146,-17.0629 519.028,-26.9105 538.546,-35.4801"/>
<polygon fill="midnightblue" stroke="midnightblue" points="133.636,-8.05371 124.131,-12.7347 134.48,-15.0026 133.636,-8.05371"/>
</g>
<!-- Node242 -->
<g id="node3" class="node"><title>Node242</title>
<g id="a_node3"><a xlink:href="classvpr_1_1_allocator.html#aba5e7b8623bceb91e2eb3551d55afb86" target="_top" xlink:title="vpr::Allocator::DestroyBuffer">
<polygon fill="white" stroke="black" points="331,-98.1708 331,-117.171 468,-117.171 468,-98.1708 331,-98.1708"/>
<text text-anchor="middle" x="399.5" y="-105.171" font-family="Helvetica,sans-Serif" font-size="10.00">vpr::Allocator::DestroyBuffer</text>
</a>
</g>
</g>
<!-- Node241&#45;&gt;Node242 -->
<g id="edge2" class="edge"><title>Node241&#45;&gt;Node242</title>
<path fill="none" stroke="midnightblue" d="M266.263,-63.4627C297.665,-73.9606 341.436,-88.5936 369.869,-98.0991"/>
<polygon fill="midnightblue" stroke="midnightblue" points="267.132,-60.0626 256.538,-60.2113 264.912,-66.7014 267.132,-60.0626"/>
</g>
<!-- Node241&#45;&gt;Node243 -->
<g id="edge6" class="edge"><title>Node241&#45;&gt;Node243</title>
<path fill="none" stroke="midnightblue" d="M304.569,-50.6708C364.846,-50.6708 447.928,-50.6708 504.999,-50.6708"/>
<polygon fill="midnightblue" stroke="midnightblue" points="304.347,-47.1709 294.347,-50.6708 304.347,-54.1709 304.347,-47.1709"/>
</g>
<!-- Node244 -->
<g id="node5" class="node"><title>Node244</title>
<g id="a_node5"><a xlink:href="classvpr_1_1_allocator.html#a9c04f050d22a383fd21f02e036bf2572" target="_top" xlink:title="vpr::Allocator::DestroyImage">
<polygon fill="white" stroke="black" points="330,-22.1708 330,-41.1708 469,-41.1708 469,-22.1708 330,-22.1708"/>
<text text-anchor="middle" x="399.5" y="-29.1708" font-family="Helvetica,sans-Serif" font-size="10.00">vpr::Allocator::DestroyImage</text>
</a>
</g>
</g>
<!-- Node241&#45;&gt;Node244 -->
<g id="edge4" class="edge"><title>Node241&#45;&gt;Node244</title>
<path fill="none" stroke="midnightblue" d="M304.563,-42.1388C312.953,-41.2039 321.456,-40.2564 329.742,-39.3329"/>
<polygon fill="midnightblue" stroke="midnightblue" points="303.959,-38.6844 294.408,-43.2705 304.734,-45.6413 303.959,-38.6844"/>
</g>
<!-- Node242&#45;&gt;Node243 -->
<g id="edge3" class="edge"><title>Node242&#45;&gt;Node243</title>
<path fill="none" stroke="midnightblue" d="M438.625,-94.8501C464.309,-86.2129 498.289,-74.7861 525.255,-65.7176"/>
<polygon fill="midnightblue" stroke="midnightblue" points="437.233,-91.6253 428.87,-98.1303 439.465,-98.2602 437.233,-91.6253"/>
</g>
<!-- Node244&#45;&gt;Node243 -->
<g id="edge5" class="edge"><title>Node244&#45;&gt;Node243</title>
<path fill="none" stroke="midnightblue" d="M479.419,-40.5172C487.967,-41.4754 496.595,-42.4425 504.952,-43.3792"/>
<polygon fill="midnightblue" stroke="midnightblue" points="479.77,-37.0346 469.442,-39.3988 478.99,-43.9911 479.77,-37.0346"/>
</g>
</g>
</svg>
