<?xml version="1.0" encoding="UTF-8" standalone="no"?>
<!DOCTYPE svg PUBLIC "-//W3C//DTD SVG 1.1//EN"
 "http://www.w3.org/Graphics/SVG/1.1/DTD/svg11.dtd">
<!-- Generated by graphviz version 2.38.0 (20140413.2041)
 -->
<!-- Title: vpr::Swapchain::setupCreateInfo Pages: 1 -->
<svg width="659pt" height="72pt"
 viewBox="0.00 0.00 659.00 71.50" xmlns="http://www.w3.org/2000/svg" xmlns:xlink="http://www.w3.org/1999/xlink">
<g id="graph0" class="graph" transform="scale(1 1) rotate(0) translate(4 67.5)">
<title>vpr::Swapchain::setupCreateInfo</title>
<polygon fill="white" stroke="none" points="-4,4 -4,-67.5 655,-67.5 655,4 -4,4"/>
<!-- Node81 -->
<g id="node1" class="node"><title>Node81</title>
<polygon fill="#bfbfbf" stroke="black" points="0,-19.5 0,-38.5 155,-38.5 155,-19.5 0,-19.5"/>
<text text-anchor="middle" x="77.5" y="-26.5" font-family="Helvetica,sans-Serif" font-size="10.00">vpr::Swapchain::setupCreateInfo</text>
</g>
<!-- Node82 -->
<g id="node2" class="node"><title>Node82</title>
<g id="a_node2"><a xlink:href="classvpr_1_1_swapchain.html#ad75f5394aaa57d86286a71e5d54ab3c6" target="_top" xlink:title="vpr::Swapchain::create">
<polygon fill="white" stroke="black" points="191,-19.5 191,-38.5 306,-38.5 306,-19.5 191,-19.5"/>
<text text-anchor="middle" x="248.5" y="-26.5" font-family="Helvetica,sans-Serif" font-size="10.00">vpr::Swapchain::create</text>
</a>
</g>
</g>
<!-- Node81&#45;&gt;Node82 -->
<g id="edge1" class="edge"><title>Node81&#45;&gt;Node82</title>
<path fill="none" stroke="midnightblue" d="M165.287,-29C173.98,-29 182.642,-29 190.902,-29"/>
<polygon fill="midnightblue" stroke="midnightblue" points="165.088,-25.5001 155.088,-29 165.088,-32.5001 165.088,-25.5001"/>
</g>
<!-- Node83 -->
<g id="node3" class="node"><title>Node83</title>
<g id="a_node3"><a xlink:href="classvpr_1_1_swapchain.html#acf014a8530f47418adba1c9e62c0c78e" target="_top" xlink:title="vpr::Swapchain::Recreate">
<polygon fill="white" stroke="black" points="346,-38.5 346,-57.5 473,-57.5 473,-38.5 346,-38.5"/>
<text text-anchor="middle" x="409.5" y="-45.5" font-family="Helvetica,sans-Serif" font-size="10.00">vpr::Swapchain::Recreate</text>
</a>
</g>
</g>
<!-- Node82&#45;&gt;Node83 -->
<g id="edge2" class="edge"><title>Node82&#45;&gt;Node83</title>
<path fill="none" stroke="midnightblue" d="M316.167,-36.9664C326.037,-38.1459 336.178,-39.3578 345.96,-40.5267"/>
<polygon fill="midnightblue" stroke="midnightblue" points="316.35,-33.4635 306.005,-35.7522 315.519,-40.4141 316.35,-33.4635"/>
</g>
<!-- Node85 -->
<g id="node5" class="node"><title>Node85</title>
<g id="a_node5"><a xlink:href="classvpr_1_1_swapchain.html#a49bc91a7423fe49320b0375e78653439" target="_top" xlink:title="vpr::Swapchain::Swapchain">
<polygon fill="white" stroke="black" points="342,-0.5 342,-19.5 477,-19.5 477,-0.5 342,-0.5"/>
<text text-anchor="middle" x="409.5" y="-7.5" font-family="Helvetica,sans-Serif" font-size="10.00">vpr::Swapchain::Swapchain</text>
</a>
</g>
</g>
<!-- Node82&#45;&gt;Node85 -->
<g id="edge4" class="edge"><title>Node82&#45;&gt;Node85</title>
<path fill="none" stroke="midnightblue" d="M315.941,-21.0605C324.507,-20.0369 333.281,-18.9884 341.851,-17.9644"/>
<polygon fill="midnightblue" stroke="midnightblue" points="315.519,-17.5859 306.005,-22.2478 316.35,-24.5365 315.519,-17.5859"/>
</g>
<!-- Node84 -->
<g id="node4" class="node"><title>Node84</title>
<g id="a_node4"><a xlink:href="namespacevpr.html#a94afd8081f855771118d14af569f9bba" target="_top" xlink:title="Pass a swapchain and instance pointer to this to have the swapchain and surface destroyed and recreat...">
<polygon fill="white" stroke="black" points="513,-33 513,-63 651,-63 651,-33 513,-33"/>
<text text-anchor="start" x="521" y="-51" font-family="Helvetica,sans-Serif" font-size="10.00">vpr::RecreateSwapchainAnd</text>
<text text-anchor="middle" x="582" y="-40" font-family="Helvetica,sans-Serif" font-size="10.00">Surface</text>
</a>
</g>
</g>
<!-- Node83&#45;&gt;Node84 -->
<g id="edge3" class="edge"><title>Node83&#45;&gt;Node84</title>
<path fill="none" stroke="midnightblue" d="M483.144,-48C492.961,-48 503.005,-48 512.741,-48"/>
<polygon fill="midnightblue" stroke="midnightblue" points="483.02,-44.5001 473.02,-48 483.02,-51.5001 483.02,-44.5001"/>
</g>
</g>
</svg>
