<?xml version="1.0" encoding="UTF-8" standalone="no"?>
<!DOCTYPE svg PUBLIC "-//W3C//DTD SVG 1.1//EN"
 "http://www.w3.org/Graphics/SVG/1.1/DTD/svg11.dtd">
<!-- Generated by graphviz version 2.38.0 (20140413.2041)
 -->
<!-- Title: vpr::DescriptorSet::Init Pages: 1 -->
<svg width="694pt" height="176pt"
 viewBox="0.00 0.00 694.00 176.00" xmlns="http://www.w3.org/2000/svg" xmlns:xlink="http://www.w3.org/1999/xlink">
<g id="graph0" class="graph" transform="scale(1 1) rotate(0) translate(4 172)">
<title>vpr::DescriptorSet::Init</title>
<polygon fill="white" stroke="none" points="-4,4 -4,-172 690,-172 690,4 -4,4"/>
<!-- Node24 -->
<g id="node1" class="node"><title>Node24</title>
<polygon fill="#bfbfbf" stroke="black" points="0,-36.5 0,-66.5 94,-66.5 94,-36.5 0,-36.5"/>
<text text-anchor="start" x="8" y="-54.5" font-family="Helvetica,sans-Serif" font-size="10.00">vpr::DescriptorSet</text>
<text text-anchor="middle" x="47" y="-43.5" font-family="Helvetica,sans-Serif" font-size="10.00">::Init</text>
</g>
<!-- Node25 -->
<g id="node2" class="node"><title>Node25</title>
<g id="a_node2"><a xlink:href="classvpr_1_1_descriptor_set.html#ae7839494bdc4ad213b6f200d8957d0a5" target="_top" xlink:title="vpr::DescriptorSet\l::allocate">
<polygon fill="white" stroke="black" points="130,-69.5 130,-99.5 224,-99.5 224,-69.5 130,-69.5"/>
<text text-anchor="start" x="138" y="-87.5" font-family="Helvetica,sans-Serif" font-size="10.00">vpr::DescriptorSet</text>
<text text-anchor="middle" x="177" y="-76.5" font-family="Helvetica,sans-Serif" font-size="10.00">::allocate</text>
</a>
</g>
</g>
<!-- Node24&#45;&gt;Node25 -->
<g id="edge1" class="edge"><title>Node24&#45;&gt;Node25</title>
<path fill="none" stroke="midnightblue" d="M94.2109,-63.4138C102.549,-65.5634 111.325,-67.8259 119.908,-70.0387"/>
<polygon fill="midnightblue" stroke="midnightblue" points="119.3,-73.4963 129.857,-72.6037 121.047,-66.718 119.3,-73.4963"/>
</g>
<!-- Node30 -->
<g id="node7" class="node"><title>Node30</title>
<g id="a_node7"><a xlink:href="classvpr_1_1_descriptor_set.html#af60aebdf9d7c13a45e5bb2f87f8dc952" target="_top" xlink:title="vpr::DescriptorSet\l::update">
<polygon fill="white" stroke="black" points="433.5,-0.5 433.5,-30.5 527.5,-30.5 527.5,-0.5 433.5,-0.5"/>
<text text-anchor="start" x="441.5" y="-18.5" font-family="Helvetica,sans-Serif" font-size="10.00">vpr::DescriptorSet</text>
<text text-anchor="middle" x="480.5" y="-7.5" font-family="Helvetica,sans-Serif" font-size="10.00">::update</text>
</a>
</g>
</g>
<!-- Node24&#45;&gt;Node30 -->
<g id="edge7" class="edge"><title>Node24&#45;&gt;Node30</title>
<path fill="none" stroke="midnightblue" d="M94.1781,-47.6474C173.881,-40.9978 336.991,-27.3895 423.206,-20.1966"/>
<polygon fill="midnightblue" stroke="midnightblue" points="423.654,-23.6715 433.328,-19.3521 423.072,-16.6957 423.654,-23.6715"/>
</g>
<!-- Node26 -->
<g id="node3" class="node"><title>Node26</title>
<g id="a_node3"><a xlink:href="classvpr_1_1_descriptor_pool.html#ad9e6ae11354daa77e3f62c941b9b98eb" target="_top" xlink:title="vpr::DescriptorPool\l::vkHandle">
<polygon fill="white" stroke="black" points="272.5,-137.5 272.5,-167.5 370.5,-167.5 370.5,-137.5 272.5,-137.5"/>
<text text-anchor="start" x="280.5" y="-155.5" font-family="Helvetica,sans-Serif" font-size="10.00">vpr::DescriptorPool</text>
<text text-anchor="middle" x="321.5" y="-144.5" font-family="Helvetica,sans-Serif" font-size="10.00">::vkHandle</text>
</a>
</g>
</g>
<!-- Node25&#45;&gt;Node26 -->
<g id="edge2" class="edge"><title>Node25&#45;&gt;Node26</title>
<path fill="none" stroke="midnightblue" d="M204.197,-99.5511C220.106,-108.44 240.954,-119.648 260,-128.5 263.586,-130.167 267.323,-131.827 271.102,-133.45"/>
<polygon fill="midnightblue" stroke="midnightblue" points="269.944,-136.76 280.52,-137.394 272.648,-130.303 269.944,-136.76"/>
</g>
<!-- Node27 -->
<g id="node4" class="node"><title>Node27</title>
<g id="a_node4"><a xlink:href="classvpr_1_1_descriptor_set_layout.html#ac798e1138e8a7a380653b27fe7e06058" target="_top" xlink:title="vpr::DescriptorSetLayout\l::vkHandle">
<polygon fill="white" stroke="black" points="260,-88.5 260,-118.5 383,-118.5 383,-88.5 260,-88.5"/>
<text text-anchor="start" x="268" y="-106.5" font-family="Helvetica,sans-Serif" font-size="10.00">vpr::DescriptorSetLayout</text>
<text text-anchor="middle" x="321.5" y="-95.5" font-family="Helvetica,sans-Serif" font-size="10.00">::vkHandle</text>
</a>
</g>
</g>
<!-- Node25&#45;&gt;Node27 -->
<g id="edge3" class="edge"><title>Node25&#45;&gt;Node27</title>
<path fill="none" stroke="midnightblue" d="M224.266,-90.6688C232.443,-91.7591 241.124,-92.9165 249.793,-94.0724"/>
<polygon fill="midnightblue" stroke="midnightblue" points="249.56,-97.5722 259.935,-95.4246 250.485,-90.6336 249.56,-97.5722"/>
</g>
<!-- Node29 -->
<g id="node6" class="node"><title>Node29</title>
<g id="a_node6"><a xlink:href="classvpr_1_1_device.html#a59882855173bef0b13a17b376ea01d45" target="_top" xlink:title="vpr::Device::vkHandle">
<polygon fill="white" stroke="black" points="578,-50 578,-69 686,-69 686,-50 578,-50"/>
<text text-anchor="middle" x="632" y="-57" font-family="Helvetica,sans-Serif" font-size="10.00">vpr::Device::vkHandle</text>
</a>
</g>
</g>
<!-- Node25&#45;&gt;Node29 -->
<g id="edge6" class="edge"><title>Node25&#45;&gt;Node29</title>
<path fill="none" stroke="midnightblue" d="M224.39,-80.9279C236.014,-80.0818 248.46,-79.2176 260,-78.5 368.048,-71.7811 493.906,-65.7047 567.767,-62.3168"/>
<polygon fill="midnightblue" stroke="midnightblue" points="568.006,-65.8095 577.836,-61.8568 567.687,-58.8168 568.006,-65.8095"/>
</g>
<!-- Node28 -->
<g id="node5" class="node"><title>Node28</title>
<g id="a_node5"><a xlink:href="classvpr_1_1_descriptor_set_layout.html#a1e22c5f5bab22786c71d280940b92b63" target="_top" xlink:title="vpr::DescriptorSetLayout\l::create">
<polygon fill="white" stroke="black" points="419,-88.5 419,-118.5 542,-118.5 542,-88.5 419,-88.5"/>
<text text-anchor="start" x="427" y="-106.5" font-family="Helvetica,sans-Serif" font-size="10.00">vpr::DescriptorSetLayout</text>
<text text-anchor="middle" x="480.5" y="-95.5" font-family="Helvetica,sans-Serif" font-size="10.00">::create</text>
</a>
</g>
</g>
<!-- Node27&#45;&gt;Node28 -->
<g id="edge4" class="edge"><title>Node27&#45;&gt;Node28</title>
<path fill="none" stroke="midnightblue" d="M383.2,-103.5C391.635,-103.5 400.359,-103.5 408.955,-103.5"/>
<polygon fill="midnightblue" stroke="midnightblue" points="408.961,-107 418.961,-103.5 408.961,-100 408.961,-107"/>
</g>
<!-- Node28&#45;&gt;Node29 -->
<g id="edge5" class="edge"><title>Node28&#45;&gt;Node29</title>
<path fill="none" stroke="midnightblue" d="M532.531,-88.4808C550.775,-83.1115 571.121,-77.1234 588.561,-71.9905"/>
<polygon fill="midnightblue" stroke="midnightblue" points="589.851,-75.2594 598.456,-69.0783 587.874,-68.5442 589.851,-75.2594"/>
</g>
<!-- Node30&#45;&gt;Node29 -->
<g id="edge8" class="edge"><title>Node30&#45;&gt;Node29</title>
<path fill="none" stroke="midnightblue" d="M527.575,-29.0605C547.155,-34.8231 569.828,-41.4963 588.948,-47.1234"/>
<polygon fill="midnightblue" stroke="midnightblue" points="588.005,-50.4944 598.587,-49.9603 589.982,-43.7792 588.005,-50.4944"/>
</g>
</g>
</svg>
