<?xml version="1.0" encoding="UTF-8" standalone="no"?>
<!DOCTYPE svg PUBLIC "-//W3C//DTD SVG 1.1//EN"
 "http://www.w3.org/Graphics/SVG/1.1/DTD/svg11.dtd">
<!-- Generated by graphviz version 2.38.0 (20140413.2041)
 -->
<!-- Title: vpr::Device::VerifyPresentationSupport Pages: 1 -->
<svg width="423pt" height="39pt"
 viewBox="0.00 0.00 423.00 39.00" xmlns="http://www.w3.org/2000/svg" xmlns:xlink="http://www.w3.org/1999/xlink">
<g id="graph0" class="graph" transform="scale(1 1) rotate(0) translate(4 35)">
<title>vpr::Device::VerifyPresentationSupport</title>
<polygon fill="white" stroke="none" points="-4,4 -4,-35 419,-35 419,4 -4,4"/>
<!-- Node226 -->
<g id="node1" class="node"><title>Node226</title>
<polygon fill="#bfbfbf" stroke="black" points="0,-0.5 0,-30.5 149,-30.5 149,-0.5 0,-0.5"/>
<text text-anchor="start" x="8" y="-18.5" font-family="Helvetica,sans-Serif" font-size="10.00">vpr::Device::VerifyPresentation</text>
<text text-anchor="middle" x="74.5" y="-7.5" font-family="Helvetica,sans-Serif" font-size="10.00">Support</text>
</g>
<!-- Node227 -->
<g id="node2" class="node"><title>Node227</title>
<g id="a_node2"><a xlink:href="classvpr_1_1_device.html#a3b0734cd598d9a64f3c459e9dc4e84ce" target="_top" xlink:title="vpr::Device::create">
<polygon fill="white" stroke="black" points="185,-6 185,-25 281,-25 281,-6 185,-6"/>
<text text-anchor="middle" x="233" y="-13" font-family="Helvetica,sans-Serif" font-size="10.00">vpr::Device::create</text>
</a>
</g>
</g>
<!-- Node226&#45;&gt;Node227 -->
<g id="edge1" class="edge"><title>Node226&#45;&gt;Node227</title>
<path fill="none" stroke="midnightblue" d="M159.344,-15.5C167.999,-15.5 176.562,-15.5 184.607,-15.5"/>
<polygon fill="midnightblue" stroke="midnightblue" points="159.167,-12.0001 149.167,-15.5 159.167,-19.0001 159.167,-12.0001"/>
</g>
<!-- Node228 -->
<g id="node3" class="node"><title>Node228</title>
<g id="a_node3"><a xlink:href="classvpr_1_1_device.html#a870f832d4e57cf09fc0705718a498aff" target="_top" xlink:title="vpr::Device::Device">
<polygon fill="white" stroke="black" points="317,-6 317,-25 415,-25 415,-6 317,-6"/>
<text text-anchor="middle" x="366" y="-13" font-family="Helvetica,sans-Serif" font-size="10.00">vpr::Device::Device</text>
</a>
</g>
</g>
<!-- Node227&#45;&gt;Node228 -->
<g id="edge2" class="edge"><title>Node227&#45;&gt;Node228</title>
<path fill="none" stroke="midnightblue" d="M291.503,-15.5C299.979,-15.5 308.636,-15.5 316.895,-15.5"/>
<polygon fill="midnightblue" stroke="midnightblue" points="291.294,-12.0001 281.294,-15.5 291.294,-19.0001 291.294,-12.0001"/>
</g>
</g>
</svg>
