<?xml version="1.0" encoding="UTF-8" standalone="no"?>
<!DOCTYPE svg PUBLIC "-//W3C//DTD SVG 1.1//EN"
 "http://www.w3.org/Graphics/SVG/1.1/DTD/svg11.dtd">
<!-- Generated by graphviz version 2.38.0 (20140413.2041)
 -->
<!-- Title: vpr::CommandPool Pages: 1 -->
<svg width="1126pt" height="1120pt"
 viewBox="0.00 0.00 1125.50 1120.00" xmlns="http://www.w3.org/2000/svg" xmlns:xlink="http://www.w3.org/1999/xlink">
<g id="graph0" class="graph" transform="scale(1 1) rotate(0) translate(4 1116)">
<title>vpr::CommandPool</title>
<polygon fill="white" stroke="none" points="-4,4 -4,-1116 1121.5,-1116 1121.5,4 -4,4"/>
<!-- Node2 -->
<g id="node1" class="node"><title>Node2</title>
<polygon fill="#bfbfbf" stroke="black" points="765.5,-552 765.5,-571 863.5,-571 863.5,-552 765.5,-552"/>
<text text-anchor="middle" x="814.5" y="-559" font-family="Helvetica,sans-Serif" font-size="10.00">vpr::CommandPool</text>
</g>
<!-- Node3 -->
<g id="node2" class="node"><title>Node3</title>
<g id="a_node2"><a xlink:href="classvpr_1_1_device.html" target="_top" xlink:title="!The Device class is a wrapper around the vkLogicalDevice object. ">
<polygon fill="white" stroke="black" points="659,-635.5 659,-654.5 722,-654.5 722,-635.5 659,-635.5"/>
<text text-anchor="middle" x="690.5" y="-642.5" font-family="Helvetica,sans-Serif" font-size="10.00">vpr::Device</text>
</a>
</g>
</g>
<!-- Node3&#45;&gt;Node2 -->
<g id="edge1" class="edge"><title>Node3&#45;&gt;Node2</title>
<path fill="none" stroke="#9a32cd" stroke-dasharray="5,2" d="M712.129,-629.784C737.87,-612.865 780.038,-585.15 801.325,-571.159"/>
<polygon fill="#9a32cd" stroke="#9a32cd" points="710.204,-626.861 703.77,-635.278 714.049,-632.71 710.204,-626.861"/>
<text text-anchor="middle" x="780" y="-598" font-family="Helvetica,sans-Serif" font-size="10.00"> parent</text>
</g>
<!-- Node12 -->
<g id="node11" class="node"><title>Node12</title>
<g id="a_node11"><a xlink:href="classvpr_1_1_allocator.html" target="_top" xlink:title="The primary interface and class of this subsystem. ">
<polygon fill="white" stroke="black" points="410,-552 410,-571 483,-571 483,-552 410,-552"/>
<text text-anchor="middle" x="446.5" y="-559" font-family="Helvetica,sans-Serif" font-size="10.00">vpr::Allocator</text>
</a>
</g>
</g>
<!-- Node3&#45;&gt;Node12 -->
<g id="edge24" class="edge"><title>Node3&#45;&gt;Node12</title>
<path fill="none" stroke="#9a32cd" stroke-dasharray="5,2" d="M655.167,-632.198C605.45,-615.592 516.031,-585.724 472.174,-571.075"/>
<polygon fill="#9a32cd" stroke="#9a32cd" points="654.255,-635.584 664.849,-635.432 656.473,-628.944 654.255,-635.584"/>
<text text-anchor="middle" x="592" y="-598" font-family="Helvetica,sans-Serif" font-size="10.00"> parent</text>
</g>
<!-- Node4 -->
<g id="node3" class="node"><title>Node4</title>
<polygon fill="white" stroke="#bfbfbf" points="478,-713.5 478,-743.5 619,-743.5 619,-713.5 478,-713.5"/>
<text text-anchor="start" x="486" y="-731.5" font-family="Helvetica,sans-Serif" font-size="10.00">std::map&lt; VkQueueFlags,</text>
<text text-anchor="middle" x="548.5" y="-720.5" font-family="Helvetica,sans-Serif" font-size="10.00"> VkDeviceQueueCreateInfo &gt;</text>
</g>
<!-- Node4&#45;&gt;Node3 -->
<g id="edge2" class="edge"><title>Node4&#45;&gt;Node3</title>
<path fill="none" stroke="#9a32cd" stroke-dasharray="5,2" d="M581.678,-708.458C611.328,-691.44 653.408,-667.289 675.549,-654.581"/>
<polygon fill="#9a32cd" stroke="#9a32cd" points="579.841,-705.476 572.911,-713.49 583.326,-711.547 579.841,-705.476"/>
<text text-anchor="middle" x="649.5" y="-687" font-family="Helvetica,sans-Serif" font-size="10.00"> queueInfos</text>
</g>
<!-- Node5 -->
<g id="node4" class="node"><title>Node5</title>
<g id="a_node4"><a xlink:href="namespacevpr.html#structvpr_1_1vk_queue_family_indices" target="_top" xlink:title="vpr::vkQueueFamilyIndices">
<polygon fill="white" stroke="black" points="637.5,-719 637.5,-738 769.5,-738 769.5,-719 637.5,-719"/>
<text text-anchor="middle" x="703.5" y="-726" font-family="Helvetica,sans-Serif" font-size="10.00">vpr::vkQueueFamilyIndices</text>
</a>
</g>
</g>
<!-- Node5&#45;&gt;Node3 -->
<g id="edge3" class="edge"><title>Node5&#45;&gt;Node3</title>
<path fill="none" stroke="#9a32cd" stroke-dasharray="5,2" d="M695.682,-709.6C693.982,-704.934 692.418,-699.852 691.5,-695 688.873,-681.122 689.233,-664.639 689.81,-654.765"/>
<polygon fill="#9a32cd" stroke="#9a32cd" points="692.444,-710.929 699.425,-718.898 698.937,-708.314 692.444,-710.929"/>
<text text-anchor="middle" x="737.5" y="-687" font-family="Helvetica,sans-Serif" font-size="10.00"> QueueFamilyIndices</text>
</g>
<!-- Node6 -->
<g id="node5" class="node"><title>Node6</title>
<polygon fill="white" stroke="#bfbfbf" points="826,-791.5 826,-821.5 921,-821.5 921,-791.5 826,-791.5"/>
<text text-anchor="start" x="834" y="-809.5" font-family="Helvetica,sans-Serif" font-size="10.00">std::vector&lt; const</text>
<text text-anchor="middle" x="873.5" y="-798.5" font-family="Helvetica,sans-Serif" font-size="10.00"> char *&gt;</text>
</g>
<!-- Node6&#45;&gt;Node3 -->
<g id="edge4" class="edge"><title>Node6&#45;&gt;Node3</title>
<path fill="none" stroke="#9a32cd" stroke-dasharray="5,2" d="M864.33,-782.002C851.567,-750.459 828.143,-696.885 811.5,-684 782.34,-661.424 765.253,-678.339 730.5,-666 722.013,-662.987 713.004,-658.598 705.689,-654.699"/>
<polygon fill="#9a32cd" stroke="#9a32cd" points="861.12,-783.399 868.077,-791.389 867.621,-780.804 861.12,-783.399"/>
<text text-anchor="middle" x="890.5" y="-726" font-family="Helvetica,sans-Serif" font-size="10.00"> enabledExtensions</text>
</g>
<!-- Node29 -->
<g id="node28" class="node"><title>Node29</title>
<g id="a_node28"><a xlink:href="classvpr_1_1_instance.html" target="_top" xlink:title="Instance is a wrapper around the base Vulkan object that must be initialized first. ">
<polygon fill="white" stroke="black" points="948,-719 948,-738 1019,-738 1019,-719 948,-719"/>
<text text-anchor="middle" x="983.5" y="-726" font-family="Helvetica,sans-Serif" font-size="10.00">vpr::Instance</text>
</a>
</g>
</g>
<!-- Node6&#45;&gt;Node29 -->
<g id="edge33" class="edge"><title>Node6&#45;&gt;Node29</title>
<path fill="none" stroke="#9a32cd" stroke-dasharray="5,2" d="M882.129,-781.854C885.677,-774.709 890.412,-767.35 896.5,-762 905.341,-754.23 932.395,-744.752 954.013,-738.041"/>
<polygon fill="#9a32cd" stroke="#9a32cd" points="878.818,-780.69 878.011,-791.254 885.23,-783.499 878.818,-780.69"/>
<text text-anchor="middle" x="939.5" y="-765" font-family="Helvetica,sans-Serif" font-size="10.00"> enabledExtensions</text>
</g>
<!-- Node7 -->
<g id="node6" class="node"><title>Node7</title>
<g id="a_node6"><a xlink:href="classvpr_1_1_physical_device.html" target="_top" xlink:title="! PhysicalDevice is a wrapper around a VkPhysicalDevice object, which is itself merely a handle repre...">
<polygon fill="white" stroke="black" points="803,-869.5 803,-888.5 904,-888.5 904,-869.5 803,-869.5"/>
<text text-anchor="middle" x="853.5" y="-876.5" font-family="Helvetica,sans-Serif" font-size="10.00">vpr::PhysicalDevice</text>
</a>
</g>
</g>
<!-- Node7&#45;&gt;Node3 -->
<g id="edge5" class="edge"><title>Node7&#45;&gt;Node3</title>
<path fill="none" stroke="#9a32cd" stroke-dasharray="5,2" d="M840.321,-861.441C832.386,-850.737 822.659,-836.198 816.5,-822 791.403,-764.146 825.979,-730.61 783.5,-684 766.743,-665.613 753.456,-675.585 730.5,-666 722.476,-662.65 713.816,-658.403 706.614,-654.685"/>
<polygon fill="#9a32cd" stroke="#9a32cd" points="837.588,-863.629 846.448,-869.439 843.145,-859.372 837.588,-863.629"/>
<text text-anchor="middle" x="822" y="-765" font-family="Helvetica,sans-Serif" font-size="10.00"> parent</text>
</g>
<!-- Node30 -->
<g id="node29" class="node"><title>Node30</title>
<polygon fill="white" stroke="#bfbfbf" points="939.5,-791.5 939.5,-821.5 1041.5,-821.5 1041.5,-791.5 939.5,-791.5"/>
<text text-anchor="start" x="947.5" y="-809.5" font-family="Helvetica,sans-Serif" font-size="10.00">std::unique_ptr&lt; vpr</text>
<text text-anchor="middle" x="990.5" y="-798.5" font-family="Helvetica,sans-Serif" font-size="10.00">::PhysicalDevice &gt;</text>
</g>
<!-- Node7&#45;&gt;Node30 -->
<g id="edge32" class="edge"><title>Node7&#45;&gt;Node30</title>
<path fill="none" stroke="#9a32cd" stroke-dasharray="5,2" d="M879.212,-864.769C903.189,-852.43 938.832,-834.088 963.283,-821.506"/>
<polygon fill="#9a32cd" stroke="#9a32cd" points="877.316,-861.808 870.025,-869.496 880.519,-868.032 877.316,-861.808"/>
<text text-anchor="middle" x="933" y="-843" font-family="Helvetica,sans-Serif" font-size="10.00"> ptr</text>
</g>
<!-- Node8 -->
<g id="node7" class="node"><title>Node8</title>
<polygon fill="white" stroke="#bfbfbf" points="795.5,-936.5 795.5,-966.5 911.5,-966.5 911.5,-936.5 795.5,-936.5"/>
<text text-anchor="start" x="803.5" y="-954.5" font-family="Helvetica,sans-Serif" font-size="10.00">std::unique_ptr&lt; vpr</text>
<text text-anchor="middle" x="853.5" y="-943.5" font-family="Helvetica,sans-Serif" font-size="10.00">::PhysicalDeviceImpl &gt;</text>
</g>
<!-- Node8&#45;&gt;Node7 -->
<g id="edge6" class="edge"><title>Node8&#45;&gt;Node7</title>
<path fill="none" stroke="#9a32cd" stroke-dasharray="5,2" d="M853.5,-926.091C853.5,-913.214 853.5,-898.197 853.5,-888.893"/>
<polygon fill="#9a32cd" stroke="#9a32cd" points="850,-926.233 853.5,-936.233 857,-926.233 850,-926.233"/>
<text text-anchor="middle" x="864.5" y="-910" font-family="Helvetica,sans-Serif" font-size="10.00"> impl</text>
</g>
<!-- Node9 -->
<g id="node8" class="node"><title>Node9</title>
<g id="a_node8"><a xlink:href="classvpr_1_1_physical_device_impl.html" target="_top" xlink:title="vpr::PhysicalDeviceImpl">
<polygon fill="white" stroke="black" points="794,-1014.5 794,-1033.5 913,-1033.5 913,-1014.5 794,-1014.5"/>
<text text-anchor="middle" x="853.5" y="-1021.5" font-family="Helvetica,sans-Serif" font-size="10.00">vpr::PhysicalDeviceImpl</text>
</a>
</g>
</g>
<!-- Node9&#45;&gt;Node8 -->
<g id="edge7" class="edge"><title>Node9&#45;&gt;Node8</title>
<path fill="none" stroke="#9a32cd" stroke-dasharray="5,2" d="M853.5,-1004.24C853.5,-992.408 853.5,-977.383 853.5,-966.576"/>
<polygon fill="#9a32cd" stroke="#9a32cd" points="850,-1004.36 853.5,-1014.36 857,-1004.36 850,-1004.36"/>
<text text-anchor="middle" x="861" y="-988" font-family="Helvetica,sans-Serif" font-size="10.00"> ptr</text>
</g>
<!-- Node10 -->
<g id="node9" class="node"><title>Node10</title>
<polygon fill="white" stroke="#bfbfbf" points="783.5,-1081.5 783.5,-1111.5 923.5,-1111.5 923.5,-1081.5 783.5,-1081.5"/>
<text text-anchor="start" x="791.5" y="-1099.5" font-family="Helvetica,sans-Serif" font-size="10.00">std::vector&lt; VkQueueFamily</text>
<text text-anchor="middle" x="853.5" y="-1088.5" font-family="Helvetica,sans-Serif" font-size="10.00">Properties &gt;</text>
</g>
<!-- Node10&#45;&gt;Node9 -->
<g id="edge8" class="edge"><title>Node10&#45;&gt;Node9</title>
<path fill="none" stroke="#9a32cd" stroke-dasharray="5,2" d="M853.5,-1071.09C853.5,-1058.21 853.5,-1043.2 853.5,-1033.89"/>
<polygon fill="#9a32cd" stroke="#9a32cd" points="850,-1071.23 853.5,-1081.23 857,-1071.23 850,-1071.23"/>
<text text-anchor="middle" x="905" y="-1055" font-family="Helvetica,sans-Serif" font-size="10.00"> queueFamilyProperties</text>
</g>
<!-- Node11 -->
<g id="node10" class="node"><title>Node11</title>
<polygon fill="white" stroke="#bfbfbf" points="553.5,-468.5 553.5,-498.5 655.5,-498.5 655.5,-468.5 553.5,-468.5"/>
<text text-anchor="start" x="561.5" y="-486.5" font-family="Helvetica,sans-Serif" font-size="10.00">std::unique_ptr&lt; vpr</text>
<text text-anchor="middle" x="604.5" y="-475.5" font-family="Helvetica,sans-Serif" font-size="10.00">::Allocator &gt;</text>
</g>
<!-- Node11&#45;&gt;Node3 -->
<g id="edge9" class="edge"><title>Node11&#45;&gt;Node3</title>
<path fill="none" stroke="#9a32cd" stroke-dasharray="5,2" d="M616.981,-507.648C636.412,-543.686 673.001,-611.546 685.876,-635.425"/>
<polygon fill="#9a32cd" stroke="#9a32cd" points="620.039,-505.945 612.212,-498.804 613.878,-509.267 620.039,-505.945"/>
<text text-anchor="middle" x="679" y="-559" font-family="Helvetica,sans-Serif" font-size="10.00"> vkAllocator</text>
</g>
<!-- Node12&#45;&gt;Node11 -->
<g id="edge10" class="edge"><title>Node12&#45;&gt;Node11</title>
<path fill="none" stroke="#9a32cd" stroke-dasharray="5,2" d="M473.613,-547.459C501.913,-533.845 546.144,-512.57 575.225,-498.582"/>
<polygon fill="#9a32cd" stroke="#9a32cd" points="471.812,-544.441 464.317,-551.93 474.846,-550.749 471.812,-544.441"/>
<text text-anchor="middle" x="543" y="-520" font-family="Helvetica,sans-Serif" font-size="10.00"> ptr</text>
</g>
<!-- Node16 -->
<g id="node15" class="node"><title>Node16</title>
<g id="a_node15"><a xlink:href="classvpr_1_1_allocation_collection.html" target="_top" xlink:title="An allocation collection is just a vector of MemoryBlocks of the same type. ">
<polygon fill="white" stroke="black" points="276.5,-245.5 276.5,-264.5 396.5,-264.5 396.5,-245.5 276.5,-245.5"/>
<text text-anchor="middle" x="336.5" y="-252.5" font-family="Helvetica,sans-Serif" font-size="10.00">vpr::AllocationCollection</text>
</a>
</g>
</g>
<!-- Node12&#45;&gt;Node16 -->
<g id="edge15" class="edge"><title>Node12&#45;&gt;Node16</title>
<path fill="none" stroke="#9a32cd" stroke-dasharray="5,2" d="M421.857,-546.323C402.396,-533.089 378.5,-511.369 378.5,-484.5 378.5,-484.5 378.5,-484.5 378.5,-326.5 378.5,-306.19 375.245,-300.235 364.5,-283 360.141,-276.009 353.578,-269.549 347.901,-264.702"/>
<polygon fill="#9a32cd" stroke="#9a32cd" points="420.078,-549.34 430.385,-551.795 423.858,-543.449 420.078,-549.34"/>
<text text-anchor="middle" x="398.5" y="-403" font-family="Helvetica,sans-Serif" font-size="10.00"> allocator</text>
</g>
<!-- Node19 -->
<g id="node18" class="node"><title>Node19</title>
<g id="a_node18"><a xlink:href="classvpr_1_1_memory_block.html" target="_top" xlink:title="A MemoryBlock is a large contiguous region of Vulkan memory of a uniform type (device local...">
<polygon fill="white" stroke="black" points="167,-474 167,-493 262,-493 262,-474 167,-474"/>
<text text-anchor="middle" x="214.5" y="-481" font-family="Helvetica,sans-Serif" font-size="10.00">vpr::MemoryBlock</text>
</a>
</g>
</g>
<!-- Node12&#45;&gt;Node19 -->
<g id="edge23" class="edge"><title>Node12&#45;&gt;Node19</title>
<path fill="none" stroke="#9a32cd" stroke-dasharray="5,2" d="M399.915,-549.882C376.955,-544.197 349.003,-536.597 324.5,-528 313.045,-523.981 310.728,-521.614 299.5,-517 278.749,-508.474 254.866,-499.407 237.71,-493.022"/>
<polygon fill="#9a32cd" stroke="#9a32cd" points="399.209,-553.312 409.753,-552.277 400.865,-546.511 399.209,-553.312"/>
<text text-anchor="middle" x="344.5" y="-520" font-family="Helvetica,sans-Serif" font-size="10.00"> allocator</text>
</g>
<!-- Node13 -->
<g id="node12" class="node"><title>Node13</title>
<polygon fill="white" stroke="#bfbfbf" points="318,-0.5 318,-41.5 491,-41.5 491,-0.5 318,-0.5"/>
<text text-anchor="start" x="326" y="-29.5" font-family="Helvetica,sans-Serif" font-size="10.00">std::map&lt; AllocationSize,</text>
<text text-anchor="start" x="326" y="-18.5" font-family="Helvetica,sans-Serif" font-size="10.00"> std::vector&lt; std::unique</text>
<text text-anchor="middle" x="404.5" y="-7.5" font-family="Helvetica,sans-Serif" font-size="10.00">_ptr&lt; vpr::AllocationCollection &gt; &gt; &gt;</text>
</g>
<!-- Node13&#45;&gt;Node12 -->
<g id="edge11" class="edge"><title>Node13&#45;&gt;Node12</title>
<path fill="none" stroke="#9a32cd" stroke-dasharray="5,2" d="M427.169,-49.9428C437.084,-64.9118 446.5,-84.2061 446.5,-103.5 446.5,-484.5 446.5,-484.5 446.5,-484.5 446.5,-508.778 446.5,-537.418 446.5,-551.608"/>
<polygon fill="#9a32cd" stroke="#9a32cd" points="429.959,-47.8251 421.341,-41.6619 424.234,-51.854 429.959,-47.8251"/>
<text text-anchor="middle" x="471.5" y="-286" font-family="Helvetica,sans-Serif" font-size="10.00"> allocations</text>
</g>
<!-- Node14 -->
<g id="node13" class="node"><title>Node14</title>
<polygon fill="white" stroke="#bfbfbf" points="254.5,-89.5 254.5,-119.5 418.5,-119.5 418.5,-89.5 254.5,-89.5"/>
<text text-anchor="start" x="262.5" y="-107.5" font-family="Helvetica,sans-Serif" font-size="10.00">std::vector&lt; std::unique</text>
<text text-anchor="middle" x="336.5" y="-96.5" font-family="Helvetica,sans-Serif" font-size="10.00">_ptr&lt; vpr::AllocationCollection &gt; &gt;</text>
</g>
<!-- Node14&#45;&gt;Node13 -->
<g id="edge12" class="edge"><title>Node14&#45;&gt;Node13</title>
<path fill="none" stroke="#9a32cd" stroke-dasharray="5,2" d="M354.771,-81.6021C365.189,-69.115 378.136,-53.5984 388.207,-41.5278"/>
<polygon fill="#9a32cd" stroke="#9a32cd" points="352.064,-79.3831 348.345,-89.3038 357.439,-83.8677 352.064,-79.3831"/>
<text text-anchor="middle" x="395" y="-63" font-family="Helvetica,sans-Serif" font-size="10.00"> elements</text>
</g>
<!-- Node15 -->
<g id="node14" class="node"><title>Node15</title>
<polygon fill="white" stroke="#bfbfbf" points="278,-167.5 278,-197.5 395,-197.5 395,-167.5 278,-167.5"/>
<text text-anchor="start" x="286" y="-185.5" font-family="Helvetica,sans-Serif" font-size="10.00">std::unique_ptr&lt; vpr</text>
<text text-anchor="middle" x="336.5" y="-174.5" font-family="Helvetica,sans-Serif" font-size="10.00">::AllocationCollection &gt;</text>
</g>
<!-- Node15&#45;&gt;Node14 -->
<g id="edge13" class="edge"><title>Node15&#45;&gt;Node14</title>
<path fill="none" stroke="#9a32cd" stroke-dasharray="5,2" d="M336.5,-157.09C336.5,-144.757 336.5,-130.224 336.5,-119.731"/>
<polygon fill="#9a32cd" stroke="#9a32cd" points="333,-157.205 336.5,-167.205 340,-157.205 333,-157.205"/>
<text text-anchor="middle" x="358" y="-141" font-family="Helvetica,sans-Serif" font-size="10.00"> elements</text>
</g>
<!-- Node16&#45;&gt;Node15 -->
<g id="edge14" class="edge"><title>Node16&#45;&gt;Node15</title>
<path fill="none" stroke="#9a32cd" stroke-dasharray="5,2" d="M336.5,-235.236C336.5,-223.408 336.5,-208.383 336.5,-197.576"/>
<polygon fill="#9a32cd" stroke="#9a32cd" points="333,-235.355 336.5,-245.355 340,-235.355 333,-235.355"/>
<text text-anchor="middle" x="344" y="-219" font-family="Helvetica,sans-Serif" font-size="10.00"> ptr</text>
</g>
<!-- Node17 -->
<g id="node16" class="node"><title>Node17</title>
<polygon fill="white" stroke="#bfbfbf" points="208.5,-312.5 208.5,-342.5 346.5,-342.5 346.5,-312.5 208.5,-312.5"/>
<text text-anchor="start" x="216.5" y="-330.5" font-family="Helvetica,sans-Serif" font-size="10.00">std::vector&lt; std::unique</text>
<text text-anchor="middle" x="277.5" y="-319.5" font-family="Helvetica,sans-Serif" font-size="10.00">_ptr&lt; vpr::MemoryBlock &gt; &gt;</text>
</g>
<!-- Node17&#45;&gt;Node16 -->
<g id="edge16" class="edge"><title>Node17&#45;&gt;Node16</title>
<path fill="none" stroke="#9a32cd" stroke-dasharray="5,2" d="M296.008,-304.385C307.179,-291.036 320.804,-274.756 329.058,-264.893"/>
<polygon fill="#9a32cd" stroke="#9a32cd" points="293.173,-302.318 289.44,-312.233 298.542,-306.811 293.173,-302.318"/>
<text text-anchor="middle" x="337.5" y="-286" font-family="Helvetica,sans-Serif" font-size="10.00"> allocations</text>
</g>
<!-- Node18 -->
<g id="node17" class="node"><title>Node18</title>
<polygon fill="white" stroke="#bfbfbf" points="200.5,-390.5 200.5,-420.5 302.5,-420.5 302.5,-390.5 200.5,-390.5"/>
<text text-anchor="start" x="208.5" y="-408.5" font-family="Helvetica,sans-Serif" font-size="10.00">std::unique_ptr&lt; vpr</text>
<text text-anchor="middle" x="251.5" y="-397.5" font-family="Helvetica,sans-Serif" font-size="10.00">::MemoryBlock &gt;</text>
</g>
<!-- Node18&#45;&gt;Node17 -->
<g id="edge17" class="edge"><title>Node18&#45;&gt;Node17</title>
<path fill="none" stroke="#9a32cd" stroke-dasharray="5,2" d="M259.723,-380.463C263.97,-368.051 269.006,-353.33 272.632,-342.731"/>
<polygon fill="#9a32cd" stroke="#9a32cd" points="256.316,-379.61 256.39,-390.205 262.939,-381.876 256.316,-379.61"/>
<text text-anchor="middle" x="288" y="-364" font-family="Helvetica,sans-Serif" font-size="10.00"> elements</text>
</g>
<!-- Node19&#45;&gt;Node18 -->
<g id="edge18" class="edge"><title>Node19&#45;&gt;Node18</title>
<path fill="none" stroke="#9a32cd" stroke-dasharray="5,2" d="M223.225,-464.579C229.78,-451.114 238.632,-432.931 244.675,-420.52"/>
<polygon fill="#9a32cd" stroke="#9a32cd" points="219.975,-463.259 218.744,-473.782 226.269,-466.323 219.975,-463.259"/>
<text text-anchor="middle" x="243" y="-442" font-family="Helvetica,sans-Serif" font-size="10.00"> ptr</text>
</g>
<!-- Node20 -->
<g id="node19" class="node"><title>Node20</title>
<polygon fill="white" stroke="#bfbfbf" points="0,-552 0,-571 125,-571 125,-552 0,-552"/>
<text text-anchor="middle" x="62.5" y="-559" font-family="Helvetica,sans-Serif" font-size="10.00">std::list&lt; Suballocation &gt;</text>
</g>
<!-- Node20&#45;&gt;Node19 -->
<g id="edge19" class="edge"><title>Node20&#45;&gt;Node19</title>
<path fill="none" stroke="#9a32cd" stroke-dasharray="5,2" d="M86.4168,-546.893C102.188,-538.07 123.388,-526.493 142.5,-517 159.819,-508.398 179.902,-499.412 194.45,-493.075"/>
<polygon fill="#9a32cd" stroke="#9a32cd" points="84.363,-544.032 77.3652,-551.987 87.7965,-550.132 84.363,-544.032"/>
<text text-anchor="middle" x="176" y="-520" font-family="Helvetica,sans-Serif" font-size="10.00"> Suballocations</text>
</g>
<!-- Node21 -->
<g id="node20" class="node"><title>Node21</title>
<g id="a_node20"><a xlink:href="structvpr_1_1_suballocation.html" target="_top" xlink:title="During the process of finding a suitable region to bind to, we need to store things like &quot;Suballocati...">
<polygon fill="white" stroke="black" points="16,-635.5 16,-654.5 109,-654.5 109,-635.5 16,-635.5"/>
<text text-anchor="middle" x="62.5" y="-642.5" font-family="Helvetica,sans-Serif" font-size="10.00">vpr::Suballocation</text>
</a>
</g>
</g>
<!-- Node21&#45;&gt;Node20 -->
<g id="edge20" class="edge"><title>Node21&#45;&gt;Node20</title>
<path fill="none" stroke="#9a32cd" stroke-dasharray="5,2" d="M62.5,-624.876C62.5,-607.898 62.5,-583.867 62.5,-571.159"/>
<polygon fill="#9a32cd" stroke="#9a32cd" points="59.0001,-625.278 62.5,-635.278 66.0001,-625.278 59.0001,-625.278"/>
<text text-anchor="middle" x="84" y="-598" font-family="Helvetica,sans-Serif" font-size="10.00"> elements</text>
</g>
<!-- Node22 -->
<g id="node21" class="node"><title>Node22</title>
<polygon fill="white" stroke="#bfbfbf" points="147.5,-546.5 147.5,-576.5 275.5,-576.5 275.5,-546.5 147.5,-546.5"/>
<text text-anchor="start" x="155.5" y="-564.5" font-family="Helvetica,sans-Serif" font-size="10.00">std::vector&lt; suballocation</text>
<text text-anchor="middle" x="211.5" y="-553.5" font-family="Helvetica,sans-Serif" font-size="10.00">List::iterator &gt;</text>
</g>
<!-- Node22&#45;&gt;Node19 -->
<g id="edge21" class="edge"><title>Node22&#45;&gt;Node19</title>
<path fill="none" stroke="#9a32cd" stroke-dasharray="5,2" d="M212.461,-536.165C213.044,-521.396 213.752,-503.448 214.162,-493.064"/>
<polygon fill="#9a32cd" stroke="#9a32cd" points="208.962,-536.075 212.064,-546.205 215.956,-536.351 208.962,-536.075"/>
<text text-anchor="middle" x="256.5" y="-520" font-family="Helvetica,sans-Serif" font-size="10.00"> availSuballocations</text>
</g>
<!-- Node23 -->
<g id="node22" class="node"><title>Node23</title>
<g id="a_node22"><a xlink:title="STL iterator class. ">
<polygon fill="white" stroke="#bfbfbf" points="127.5,-635.5 127.5,-654.5 235.5,-654.5 235.5,-635.5 127.5,-635.5"/>
<text text-anchor="middle" x="181.5" y="-642.5" font-family="Helvetica,sans-Serif" font-size="10.00">std::list&lt; T &gt;::iterator</text>
</a>
</g>
</g>
<!-- Node23&#45;&gt;Node22 -->
<g id="edge22" class="edge"><title>Node23&#45;&gt;Node22</title>
<path fill="none" stroke="#9a32cd" stroke-dasharray="5,2" d="M188.25,-625.663C193.718,-610.807 201.31,-590.182 206.311,-576.597"/>
<polygon fill="#9a32cd" stroke="#9a32cd" points="184.88,-624.685 184.711,-635.278 191.45,-627.103 184.88,-624.685"/>
<text text-anchor="middle" x="221" y="-598" font-family="Helvetica,sans-Serif" font-size="10.00"> elements</text>
</g>
<!-- Node24 -->
<g id="node23" class="node"><title>Node24</title>
<polygon fill="white" stroke="#bfbfbf" points="254,-624.5 254,-665.5 365,-665.5 365,-624.5 254,-624.5"/>
<text text-anchor="start" x="262" y="-653.5" font-family="Helvetica,sans-Serif" font-size="10.00">std::unordered_set</text>
<text text-anchor="start" x="262" y="-642.5" font-family="Helvetica,sans-Serif" font-size="10.00">&lt; std::unique_ptr&lt; vpr</text>
<text text-anchor="middle" x="309.5" y="-631.5" font-family="Helvetica,sans-Serif" font-size="10.00">::Allocation &gt; &gt;</text>
</g>
<!-- Node24&#45;&gt;Node12 -->
<g id="edge25" class="edge"><title>Node24&#45;&gt;Node12</title>
<path fill="none" stroke="#9a32cd" stroke-dasharray="5,2" d="M336.001,-617.008C344.593,-609.218 354.499,-601.167 364.5,-595 381.184,-584.712 401.684,-576.587 418.013,-571.034"/>
<polygon fill="#9a32cd" stroke="#9a32cd" points="333.417,-614.633 328.515,-624.026 338.204,-619.74 333.417,-614.633"/>
<text text-anchor="middle" x="404" y="-598" font-family="Helvetica,sans-Serif" font-size="10.00"> privateAllocations</text>
</g>
<!-- Node25 -->
<g id="node24" class="node"><title>Node25</title>
<polygon fill="white" stroke="#bfbfbf" points="241.5,-713.5 241.5,-743.5 343.5,-743.5 343.5,-713.5 241.5,-713.5"/>
<text text-anchor="start" x="249.5" y="-731.5" font-family="Helvetica,sans-Serif" font-size="10.00">std::unique_ptr&lt; vpr</text>
<text text-anchor="middle" x="292.5" y="-720.5" font-family="Helvetica,sans-Serif" font-size="10.00">::Allocation &gt;</text>
</g>
<!-- Node25&#45;&gt;Node24 -->
<g id="edge26" class="edge"><title>Node25&#45;&gt;Node24</title>
<path fill="none" stroke="#9a32cd" stroke-dasharray="5,2" d="M297.52,-703.433C300.04,-691.353 303.053,-676.909 305.427,-665.528"/>
<polygon fill="#9a32cd" stroke="#9a32cd" points="294.077,-702.8 295.461,-713.304 300.929,-704.229 294.077,-702.8"/>
<text text-anchor="middle" x="315" y="-687" font-family="Helvetica,sans-Serif" font-size="10.00"> keys</text>
</g>
<!-- Node26 -->
<g id="node25" class="node"><title>Node26</title>
<g id="a_node25"><a xlink:href="classvpr_1_1_allocation.html" target="_top" xlink:title="Allocation class represents a singular allocation: can be a private allocation (i.e, only user of attached DeviceMemory) or a block allocation (bound to sub&#45;region of device memory) ">
<polygon fill="white" stroke="black" points="254,-797 254,-816 331,-816 331,-797 254,-797"/>
<text text-anchor="middle" x="292.5" y="-804" font-family="Helvetica,sans-Serif" font-size="10.00">vpr::Allocation</text>
</a>
</g>
</g>
<!-- Node26&#45;&gt;Node25 -->
<g id="edge27" class="edge"><title>Node26&#45;&gt;Node25</title>
<path fill="none" stroke="#9a32cd" stroke-dasharray="5,2" d="M292.5,-786.782C292.5,-773.404 292.5,-755.688 292.5,-743.52"/>
<polygon fill="#9a32cd" stroke="#9a32cd" points="289,-786.782 292.5,-796.782 296,-786.782 289,-786.782"/>
<text text-anchor="middle" x="300" y="-765" font-family="Helvetica,sans-Serif" font-size="10.00"> ptr</text>
</g>
<!-- Node27 -->
<g id="node26" class="node"><title>Node27</title>
<polygon fill="white" stroke="#bfbfbf" points="383,-630 383,-660 512,-660 512,-630 383,-630"/>
<text text-anchor="start" x="391" y="-648" font-family="Helvetica,sans-Serif" font-size="10.00">std::map&lt; AllocationSize,</text>
<text text-anchor="middle" x="447.5" y="-637" font-family="Helvetica,sans-Serif" font-size="10.00"> std::vector&lt; bool &gt; &gt;</text>
</g>
<!-- Node27&#45;&gt;Node12 -->
<g id="edge28" class="edge"><title>Node27&#45;&gt;Node12</title>
<path fill="none" stroke="#9a32cd" stroke-dasharray="5,2" d="M447.202,-619.748C447,-603.281 446.745,-582.489 446.605,-571.039"/>
<polygon fill="#9a32cd" stroke="#9a32cd" points="443.703,-619.848 447.326,-629.804 450.703,-619.762 443.703,-619.848"/>
<text text-anchor="middle" x="487" y="-598" font-family="Helvetica,sans-Serif" font-size="10.00"> emptyAllocations</text>
</g>
<!-- Node28 -->
<g id="node27" class="node"><title>Node28</title>
<polygon fill="white" stroke="#bfbfbf" points="361.5,-719 361.5,-738 459.5,-738 459.5,-719 361.5,-719"/>
<text text-anchor="middle" x="410.5" y="-726" font-family="Helvetica,sans-Serif" font-size="10.00">std::vector&lt; bool &gt;</text>
</g>
<!-- Node28&#45;&gt;Node27 -->
<g id="edge29" class="edge"><title>Node28&#45;&gt;Node27</title>
<path fill="none" stroke="#9a32cd" stroke-dasharray="5,2" d="M418.629,-709.594C425.387,-694.708 434.873,-673.814 441.1,-660.097"/>
<polygon fill="#9a32cd" stroke="#9a32cd" points="415.407,-708.226 414.46,-718.778 421.78,-711.119 415.407,-708.226"/>
<text text-anchor="middle" x="452" y="-687" font-family="Helvetica,sans-Serif" font-size="10.00"> elements</text>
</g>
<!-- Node29&#45;&gt;Node3 -->
<g id="edge30" class="edge"><title>Node29&#45;&gt;Node3</title>
<path fill="none" stroke="#9a32cd" stroke-dasharray="5,2" d="M950.797,-715.411C919.806,-704.101 875.415,-688.32 857.5,-684 802.08,-670.637 784.925,-682.968 730.5,-666 721.605,-663.227 712.26,-658.659 704.842,-654.588"/>
<polygon fill="#9a32cd" stroke="#9a32cd" points="949.743,-718.752 960.337,-718.905 952.151,-712.179 949.743,-718.752"/>
<text text-anchor="middle" x="925" y="-687" font-family="Helvetica,sans-Serif" font-size="10.00"> parentInstance</text>
</g>
<!-- Node32 -->
<g id="node31" class="node"><title>Node32</title>
<g id="a_node31"><a xlink:href="classvpr_1_1_surface_k_h_r.html" target="_top" xlink:title="The bare&#45;minimum required to wrap a VkSurfaceKHR object. ">
<polygon fill="white" stroke="black" points="1029.5,-635.5 1029.5,-654.5 1117.5,-654.5 1117.5,-635.5 1029.5,-635.5"/>
<text text-anchor="middle" x="1073.5" y="-642.5" font-family="Helvetica,sans-Serif" font-size="10.00">vpr::SurfaceKHR</text>
</a>
</g>
</g>
<!-- Node29&#45;&gt;Node32 -->
<g id="edge36" class="edge"><title>Node29&#45;&gt;Node32</title>
<path fill="none" stroke="#9a32cd" stroke-dasharray="5,2" d="M1000.69,-711.933C1019.48,-694.923 1048.89,-668.284 1063.94,-654.659"/>
<polygon fill="#9a32cd" stroke="#9a32cd" points="998.195,-709.471 993.132,-718.778 1002.89,-714.66 998.195,-709.471"/>
<text text-anchor="middle" x="1046" y="-687" font-family="Helvetica,sans-Serif" font-size="10.00"> parent</text>
</g>
<!-- Node30&#45;&gt;Node29 -->
<g id="edge31" class="edge"><title>Node30&#45;&gt;Node29</title>
<path fill="none" stroke="#9a32cd" stroke-dasharray="5,2" d="M988.259,-781.165C986.898,-766.396 985.245,-748.448 984.289,-738.064"/>
<polygon fill="#9a32cd" stroke="#9a32cd" points="984.781,-781.568 989.183,-791.205 991.751,-780.926 984.781,-781.568"/>
<text text-anchor="middle" x="1020.5" y="-765" font-family="Helvetica,sans-Serif" font-size="10.00"> physicalDevice</text>
</g>
<!-- Node31 -->
<g id="node30" class="node"><title>Node31</title>
<polygon fill="white" stroke="#bfbfbf" points="957.5,-546.5 957.5,-576.5 1059.5,-576.5 1059.5,-546.5 957.5,-546.5"/>
<text text-anchor="start" x="965.5" y="-564.5" font-family="Helvetica,sans-Serif" font-size="10.00">std::unique_ptr&lt; vpr</text>
<text text-anchor="middle" x="1008.5" y="-553.5" font-family="Helvetica,sans-Serif" font-size="10.00">::SurfaceKHR &gt;</text>
</g>
<!-- Node31&#45;&gt;Node29 -->
<g id="edge34" class="edge"><title>Node31&#45;&gt;Node29</title>
<path fill="none" stroke="#9a32cd" stroke-dasharray="5,2" d="M997.472,-586.245C992.835,-597.442 987.954,-611.141 985.5,-624 978.896,-658.601 981.232,-700.889 982.69,-718.811"/>
<polygon fill="#9a32cd" stroke="#9a32cd" points="1000.82,-587.329 1001.58,-576.762 994.395,-584.544 1000.82,-587.329"/>
<text text-anchor="middle" x="1003" y="-642.5" font-family="Helvetica,sans-Serif" font-size="10.00"> surface</text>
</g>
<!-- Node32&#45;&gt;Node31 -->
<g id="edge35" class="edge"><title>Node32&#45;&gt;Node31</title>
<path fill="none" stroke="#9a32cd" stroke-dasharray="5,2" d="M1060.23,-627.367C1048.31,-612.42 1031,-590.71 1019.74,-576.597"/>
<polygon fill="#9a32cd" stroke="#9a32cd" points="1057.57,-629.642 1066.54,-635.278 1063.04,-625.278 1057.57,-629.642"/>
<text text-anchor="middle" x="1050" y="-598" font-family="Helvetica,sans-Serif" font-size="10.00"> ptr</text>
</g>
<!-- Node33 -->
<g id="node32" class="node"><title>Node33</title>
<polygon fill="white" stroke="#bfbfbf" points="740,-635.5 740,-654.5 901,-654.5 901,-635.5 740,-635.5"/>
<text text-anchor="middle" x="820.5" y="-642.5" font-family="Helvetica,sans-Serif" font-size="10.00">std::vector&lt; VkCommandBuffer &gt;</text>
</g>
<!-- Node33&#45;&gt;Node2 -->
<g id="edge37" class="edge"><title>Node33&#45;&gt;Node2</title>
<path fill="none" stroke="#9a32cd" stroke-dasharray="5,2" d="M819.092,-624.876C817.842,-607.898 816.073,-583.867 815.137,-571.159"/>
<polygon fill="#9a32cd" stroke="#9a32cd" points="815.633,-625.562 819.858,-635.278 822.614,-625.048 815.633,-625.562"/>
<text text-anchor="middle" x="844.5" y="-598" font-family="Helvetica,sans-Serif" font-size="10.00"> cmdBuffers</text>
</g>
</g>
</svg>
