<?xml version="1.0" encoding="UTF-8" standalone="no"?>
<!DOCTYPE svg PUBLIC "-//W3C//DTD SVG 1.1//EN"
 "http://www.w3.org/Graphics/SVG/1.1/DTD/svg11.dtd">
<!-- Generated by graphviz version 2.38.0 (20140413.2041)
 -->
<!-- Title: vpr::DescriptorSetLayout::create Pages: 1 -->
<svg width="550pt" height="88pt"
 viewBox="0.00 0.00 550.00 88.00" xmlns="http://www.w3.org/2000/svg" xmlns:xlink="http://www.w3.org/1999/xlink">
<g id="graph0" class="graph" transform="scale(1 1) rotate(0) translate(4 84)">
<title>vpr::DescriptorSetLayout::create</title>
<polygon fill="white" stroke="none" points="-4,4 -4,-84 546,-84 546,4 -4,4"/>
<!-- Node17 -->
<g id="node1" class="node"><title>Node17</title>
<polygon fill="#bfbfbf" stroke="black" points="0,-24.5 0,-54.5 123,-54.5 123,-24.5 0,-24.5"/>
<text text-anchor="start" x="8" y="-42.5" font-family="Helvetica,sans-Serif" font-size="10.00">vpr::DescriptorSetLayout</text>
<text text-anchor="middle" x="61.5" y="-31.5" font-family="Helvetica,sans-Serif" font-size="10.00">::create</text>
</g>
<!-- Node18 -->
<g id="node2" class="node"><title>Node18</title>
<g id="a_node2"><a xlink:href="classvpr_1_1_descriptor_set_layout.html#ac798e1138e8a7a380653b27fe7e06058" target="_top" xlink:title="vpr::DescriptorSetLayout\l::vkHandle">
<polygon fill="white" stroke="black" points="159,-24.5 159,-54.5 282,-54.5 282,-24.5 159,-24.5"/>
<text text-anchor="start" x="167" y="-42.5" font-family="Helvetica,sans-Serif" font-size="10.00">vpr::DescriptorSetLayout</text>
<text text-anchor="middle" x="220.5" y="-31.5" font-family="Helvetica,sans-Serif" font-size="10.00">::vkHandle</text>
</a>
</g>
</g>
<!-- Node17&#45;&gt;Node18 -->
<g id="edge1" class="edge"><title>Node17&#45;&gt;Node18</title>
<path fill="none" stroke="midnightblue" d="M133.21,-39.5C141.807,-39.5 150.53,-39.5 158.961,-39.5"/>
<polygon fill="midnightblue" stroke="midnightblue" points="133.2,-36.0001 123.2,-39.5 133.2,-43.0001 133.2,-36.0001"/>
</g>
<!-- Node19 -->
<g id="node3" class="node"><title>Node19</title>
<g id="a_node3"><a xlink:href="classvpr_1_1_descriptor_set.html#ae7839494bdc4ad213b6f200d8957d0a5" target="_top" xlink:title="vpr::DescriptorSet\l::allocate">
<polygon fill="white" stroke="black" points="318,-24.5 318,-54.5 412,-54.5 412,-24.5 318,-24.5"/>
<text text-anchor="start" x="326" y="-42.5" font-family="Helvetica,sans-Serif" font-size="10.00">vpr::DescriptorSet</text>
<text text-anchor="middle" x="365" y="-31.5" font-family="Helvetica,sans-Serif" font-size="10.00">::allocate</text>
</a>
</g>
</g>
<!-- Node18&#45;&gt;Node19 -->
<g id="edge2" class="edge"><title>Node18&#45;&gt;Node19</title>
<path fill="none" stroke="midnightblue" d="M292.366,-39.5C300.929,-39.5 309.5,-39.5 317.584,-39.5"/>
<polygon fill="midnightblue" stroke="midnightblue" points="292.346,-36.0001 282.346,-39.5 292.346,-43.0001 292.346,-36.0001"/>
</g>
<!-- Node20 -->
<g id="node4" class="node"><title>Node20</title>
<g id="a_node4"><a xlink:href="classvpr_1_1_descriptor_set.html#a6e2329db70462daabad9be5a29b8caeb" target="_top" xlink:title="Call after all descriptor bindings and infos required have been added, and make sure you have enough ...">
<polygon fill="white" stroke="black" points="448,-49.5 448,-79.5 542,-79.5 542,-49.5 448,-49.5"/>
<text text-anchor="start" x="456" y="-67.5" font-family="Helvetica,sans-Serif" font-size="10.00">vpr::DescriptorSet</text>
<text text-anchor="middle" x="495" y="-56.5" font-family="Helvetica,sans-Serif" font-size="10.00">::Init</text>
</a>
</g>
</g>
<!-- Node19&#45;&gt;Node20 -->
<g id="edge3" class="edge"><title>Node19&#45;&gt;Node20</title>
<path fill="none" stroke="midnightblue" d="M422.162,-50.4692C430.746,-52.1458 439.521,-53.8596 447.857,-55.4877"/>
<polygon fill="midnightblue" stroke="midnightblue" points="422.696,-47.0075 412.211,-48.5256 421.355,-53.8777 422.696,-47.0075"/>
</g>
<!-- Node21 -->
<g id="node5" class="node"><title>Node21</title>
<g id="a_node5"><a xlink:href="classvpr_1_1_descriptor_set.html#a10bd2e1ea290ca2a02a8b878d92d47dd" target="_top" xlink:title="vpr::DescriptorSet\l::vkHandle">
<polygon fill="white" stroke="black" points="448,-0.5 448,-30.5 542,-30.5 542,-0.5 448,-0.5"/>
<text text-anchor="start" x="456" y="-18.5" font-family="Helvetica,sans-Serif" font-size="10.00">vpr::DescriptorSet</text>
<text text-anchor="middle" x="495" y="-7.5" font-family="Helvetica,sans-Serif" font-size="10.00">::vkHandle</text>
</a>
</g>
</g>
<!-- Node19&#45;&gt;Node21 -->
<g id="edge4" class="edge"><title>Node19&#45;&gt;Node21</title>
<path fill="none" stroke="midnightblue" d="M422.162,-28.9696C430.746,-27.3601 439.521,-25.7148 447.857,-24.1518"/>
<polygon fill="midnightblue" stroke="midnightblue" points="421.395,-25.5524 412.211,-30.8354 422.685,-32.4325 421.395,-25.5524"/>
</g>
</g>
</svg>
