<?xml version="1.0" encoding="UTF-8" standalone="no"?>
<!DOCTYPE svg PUBLIC "-//W3C//DTD SVG 1.1//EN"
 "http://www.w3.org/Graphics/SVG/1.1/DTD/svg11.dtd">
<!-- Generated by graphviz version 2.38.0 (20140413.2041)
 -->
<!-- Title: el::LevelHelper::castFromInt Pages: 1 -->
<svg width="805pt" height="284pt"
 viewBox="0.00 0.00 805.00 284.00" xmlns="http://www.w3.org/2000/svg" xmlns:xlink="http://www.w3.org/1999/xlink">
<g id="graph0" class="graph" transform="scale(1 1) rotate(0) translate(4 280)">
<title>el::LevelHelper::castFromInt</title>
<polygon fill="white" stroke="none" points="-4,4 -4,-280 801,-280 801,4 -4,4"/>
<!-- Node1 -->
<g id="node1" class="node"><title>Node1</title>
<polygon fill="#bfbfbf" stroke="black" points="0,-133 0,-152 137,-152 137,-133 0,-133"/>
<text text-anchor="middle" x="68.5" y="-140" font-family="Helvetica,sans-Serif" font-size="10.00">el::LevelHelper::castFromInt</text>
</g>
<!-- Node2 -->
<g id="node2" class="node"><title>Node2</title>
<g id="a_node2"><a xlink:href="classel_1_1_logger.html#a9a89d454008b1ee1a197eec4b92ce22a" target="_top" xlink:title="Flushes logger to sync all log files for all levels. ">
<polygon fill="white" stroke="black" points="192.5,-251 192.5,-270 278.5,-270 278.5,-251 192.5,-251"/>
<text text-anchor="middle" x="235.5" y="-258" font-family="Helvetica,sans-Serif" font-size="10.00">el::Logger::flush</text>
</a>
</g>
</g>
<!-- Node1&#45;&gt;Node2 -->
<g id="edge1" class="edge"><title>Node1&#45;&gt;Node2</title>
<path fill="none" stroke="midnightblue" d="M83.3796,-160.086C101.674,-182.14 135.909,-219.697 173,-241.5 179.455,-245.294 186.743,-248.404 193.987,-250.927"/>
<polygon fill="midnightblue" stroke="midnightblue" points="85.9904,-157.749 76.9674,-152.196 80.5581,-162.163 85.9904,-157.749"/>
</g>
<!-- Node15 -->
<g id="node11" class="node"><title>Node15</title>
<g id="a_node11"><a xlink:href="classel_1_1_configurations.html#a1e812370f896b6429bf46b31fcd4e3e0" target="_top" xlink:title="Determines whether or not specified configuration type exists in the repository. ">
<polygon fill="white" stroke="black" points="188,-201.5 188,-231.5 283,-231.5 283,-201.5 188,-201.5"/>
<text text-anchor="start" x="196" y="-219.5" font-family="Helvetica,sans-Serif" font-size="10.00">el::Configurations</text>
<text text-anchor="middle" x="235.5" y="-208.5" font-family="Helvetica,sans-Serif" font-size="10.00">::hasConfiguration</text>
</a>
</g>
</g>
<!-- Node1&#45;&gt;Node15 -->
<g id="edge10" class="edge"><title>Node1&#45;&gt;Node15</title>
<path fill="none" stroke="midnightblue" d="M97.5244,-156.771C118.192,-167.116 147.101,-181.211 173,-192.5 179.934,-195.523 187.381,-198.582 194.615,-201.458"/>
<polygon fill="midnightblue" stroke="midnightblue" points="98.8757,-153.533 88.3696,-152.165 95.7292,-159.786 98.8757,-153.533"/>
</g>
<!-- Node16 -->
<g id="node12" class="node"><title>Node16</title>
<g id="a_node12"><a xlink:href="classel_1_1_logger.html#ae7c1d538f6163b6be5d37dafcaf24610" target="_top" xlink:title="el::Logger::initUnflushed\lCount">
<polygon fill="white" stroke="black" points="175,-103.5 175,-133.5 296,-133.5 296,-103.5 175,-103.5"/>
<text text-anchor="start" x="183" y="-121.5" font-family="Helvetica,sans-Serif" font-size="10.00">el::Logger::initUnflushed</text>
<text text-anchor="middle" x="235.5" y="-110.5" font-family="Helvetica,sans-Serif" font-size="10.00">Count</text>
</a>
</g>
</g>
<!-- Node1&#45;&gt;Node16 -->
<g id="edge12" class="edge"><title>Node1&#45;&gt;Node16</title>
<path fill="none" stroke="midnightblue" d="M145.116,-131.501C155.113,-130.047 165.246,-128.573 174.922,-127.166"/>
<polygon fill="midnightblue" stroke="midnightblue" points="144.579,-128.043 135.186,-132.946 145.586,-134.97 144.579,-128.043"/>
</g>
<!-- Node18 -->
<g id="node14" class="node"><title>Node18</title>
<g id="a_node14"><a xlink:href="classel_1_1_logger.html#acfb9ef869b9b4dc3efd78d7f64b8bebd" target="_top" xlink:title="el::Logger::resolveLogger\lFormatSpec">
<polygon fill="white" stroke="black" points="173,-152.5 173,-182.5 298,-182.5 298,-152.5 173,-152.5"/>
<text text-anchor="start" x="181" y="-170.5" font-family="Helvetica,sans-Serif" font-size="10.00">el::Logger::resolveLogger</text>
<text text-anchor="middle" x="235.5" y="-159.5" font-family="Helvetica,sans-Serif" font-size="10.00">FormatSpec</text>
</a>
</g>
</g>
<!-- Node1&#45;&gt;Node18 -->
<g id="edge15" class="edge"><title>Node1&#45;&gt;Node18</title>
<path fill="none" stroke="midnightblue" d="M142.435,-153.551C152.608,-155.092 162.978,-156.663 172.915,-158.169"/>
<polygon fill="midnightblue" stroke="midnightblue" points="142.762,-150.06 132.35,-152.023 141.713,-156.981 142.762,-150.06"/>
</g>
<!-- Node19 -->
<g id="node15" class="node"><title>Node19</title>
<g id="a_node15"><a xlink:href="classel_1_1_configurations.html#ac658068ac7454b47284e211e16da5b18" target="_top" xlink:title="Sets configurations for all levels including Level::Global if includeGlobalLevel is true...">
<polygon fill="white" stroke="black" points="189.5,-5.5 189.5,-35.5 281.5,-35.5 281.5,-5.5 189.5,-5.5"/>
<text text-anchor="start" x="197.5" y="-23.5" font-family="Helvetica,sans-Serif" font-size="10.00">el::Configurations</text>
<text text-anchor="middle" x="235.5" y="-12.5" font-family="Helvetica,sans-Serif" font-size="10.00">::setGlobally</text>
</a>
</g>
</g>
<!-- Node1&#45;&gt;Node19 -->
<g id="edge17" class="edge"><title>Node1&#45;&gt;Node19</title>
<path fill="none" stroke="midnightblue" d="M83.9587,-125.188C102.63,-103.759 137.023,-67.3115 173,-44.5 178.227,-41.1858 183.985,-38.2019 189.818,-35.5564"/>
<polygon fill="midnightblue" stroke="midnightblue" points="81.234,-122.988 77.3875,-132.86 86.5507,-127.542 81.234,-122.988"/>
</g>
<!-- Node20 -->
<g id="node16" class="node"><title>Node20</title>
<g id="a_node16"><a xlink:href="classel_1_1_configurations.html#a800efb58724eb771027135b282eae512" target="_top" xlink:title="Sets configurations (Unsafely) for all levels including Level::Global if includeGlobalLevel is true...">
<polygon fill="white" stroke="black" points="185,-54.5 185,-84.5 286,-84.5 286,-54.5 185,-54.5"/>
<text text-anchor="start" x="193" y="-72.5" font-family="Helvetica,sans-Serif" font-size="10.00">el::Configurations</text>
<text text-anchor="middle" x="235.5" y="-61.5" font-family="Helvetica,sans-Serif" font-size="10.00">::unsafeSetGlobally</text>
</a>
</g>
</g>
<!-- Node1&#45;&gt;Node20 -->
<g id="edge18" class="edge"><title>Node1&#45;&gt;Node20</title>
<path fill="none" stroke="midnightblue" d="M98.7794,-128.463C119.413,-118.684 147.754,-105.478 173,-94.5 180.61,-91.1909 188.804,-87.7656 196.652,-84.5512"/>
<polygon fill="midnightblue" stroke="midnightblue" points="97.1266,-125.374 89.599,-132.829 100.133,-131.695 97.1266,-125.374"/>
</g>
<!-- Node3 -->
<g id="node3" class="node"><title>Node3</title>
<g id="a_node3"><a xlink:href="classel_1_1_logger.html#ad9db621dbf8977bf814dc7baea8dcee4" target="_top" xlink:title="Configures the logger using specified configurations. ">
<polygon fill="white" stroke="black" points="352.5,-172 352.5,-191 456.5,-191 456.5,-172 352.5,-172"/>
<text text-anchor="middle" x="404.5" y="-179" font-family="Helvetica,sans-Serif" font-size="10.00">el::Logger::configure</text>
</a>
</g>
</g>
<!-- Node2&#45;&gt;Node3 -->
<g id="edge2" class="edge"><title>Node2&#45;&gt;Node3</title>
<path fill="none" stroke="midnightblue" d="M281.917,-247.702C287.401,-245.796 292.872,-243.719 298,-241.5 332.035,-226.773 369.137,-203.936 389.002,-191.101"/>
<polygon fill="midnightblue" stroke="midnightblue" points="280.501,-244.483 272.102,-250.941 282.695,-251.13 280.501,-244.483"/>
</g>
<!-- Node14 -->
<g id="node10" class="node"><title>Node14</title>
<g id="a_node10"><a xlink:href="classel_1_1base_1_1_default_log_dispatch_callback.html#adc7c200395c99534d55cb23cfabafcb1" target="_top" xlink:title="el::base::DefaultLogDispatch\lCallback::dispatch">
<polygon fill="white" stroke="black" points="334,-245.5 334,-275.5 475,-275.5 475,-245.5 334,-245.5"/>
<text text-anchor="start" x="342" y="-263.5" font-family="Helvetica,sans-Serif" font-size="10.00">el::base::DefaultLogDispatch</text>
<text text-anchor="middle" x="404.5" y="-252.5" font-family="Helvetica,sans-Serif" font-size="10.00">Callback::dispatch</text>
</a>
</g>
</g>
<!-- Node2&#45;&gt;Node14 -->
<g id="edge9" class="edge"><title>Node2&#45;&gt;Node14</title>
<path fill="none" stroke="midnightblue" d="M288.745,-260.5C303.007,-260.5 318.69,-260.5 333.758,-260.5"/>
<polygon fill="midnightblue" stroke="midnightblue" points="288.641,-257 278.641,-260.5 288.641,-264 288.641,-257"/>
</g>
<!-- Node4 -->
<g id="node4" class="node"><title>Node4</title>
<g id="a_node4"><a xlink:href="classel_1_1_logger.html#a43abea8865d7316f05c8a676a8c04896" target="_top" xlink:title="el::Logger::Logger">
<polygon fill="white" stroke="black" points="529.5,-142 529.5,-161 624.5,-161 624.5,-142 529.5,-142"/>
<text text-anchor="middle" x="577" y="-149" font-family="Helvetica,sans-Serif" font-size="10.00">el::Logger::Logger</text>
</a>
</g>
</g>
<!-- Node3&#45;&gt;Node4 -->
<g id="edge3" class="edge"><title>Node3&#45;&gt;Node4</title>
<path fill="none" stroke="midnightblue" d="M466.593,-170.751C487.22,-167.121 509.904,-163.13 529.243,-159.727"/>
<polygon fill="midnightblue" stroke="midnightblue" points="465.898,-167.319 456.656,-172.499 467.111,-174.213 465.898,-167.319"/>
</g>
<!-- Node5 -->
<g id="node5" class="node"><title>Node5</title>
<g id="a_node5"><a xlink:href="classel_1_1_logger.html#adfd57ab27fb398cc980a3edfab92927e" target="_top" xlink:title="Reconfigures logger using existing configurations. ">
<polygon fill="white" stroke="red" points="520.5,-104 520.5,-123 633.5,-123 633.5,-104 520.5,-104"/>
<text text-anchor="middle" x="577" y="-111" font-family="Helvetica,sans-Serif" font-size="10.00">el::Logger::reconfigure</text>
</a>
</g>
</g>
<!-- Node3&#45;&gt;Node5 -->
<g id="edge4" class="edge"><title>Node3&#45;&gt;Node5</title>
<path fill="none" stroke="midnightblue" d="M432.801,-167.436C453.82,-156.949 483.788,-142.73 511,-132.5 520.134,-129.066 530.178,-125.862 539.582,-123.099"/>
<polygon fill="midnightblue" stroke="midnightblue" points="431.17,-164.338 423.815,-171.964 434.32,-170.589 431.17,-164.338"/>
</g>
<!-- Node9 -->
<g id="node8" class="node"><title>Node9</title>
<g id="a_node8"><a xlink:href="classel_1_1_loggers.html#a02223004494a404a2c3e7cd0c4380d3b" target="_top" xlink:title="Reconfigures specified logger with new configurations. ">
<polygon fill="white" stroke="red" points="518,-229.5 518,-259.5 636,-259.5 636,-229.5 518,-229.5"/>
<text text-anchor="start" x="526" y="-247.5" font-family="Helvetica,sans-Serif" font-size="10.00">el::Loggers::reconfigure</text>
<text text-anchor="middle" x="577" y="-236.5" font-family="Helvetica,sans-Serif" font-size="10.00">Logger</text>
</a>
</g>
</g>
<!-- Node3&#45;&gt;Node9 -->
<g id="edge7" class="edge"><title>Node3&#45;&gt;Node9</title>
<path fill="none" stroke="midnightblue" d="M441.057,-194.648C461.514,-202.212 487.703,-211.893 511,-220.5 518.786,-223.376 527.097,-226.446 535.084,-229.395"/>
<polygon fill="midnightblue" stroke="midnightblue" points="442.106,-191.304 431.513,-191.119 439.678,-197.87 442.106,-191.304"/>
</g>
<!-- Node13 -->
<g id="node9" class="node"><title>Node13</title>
<g id="a_node9"><a xlink:href="classel_1_1_loggers.html#adedfcc17831fe3d3f14026c91e8df88c" target="_top" xlink:title="Sets configurations from global configuration file. ">
<polygon fill="white" stroke="black" points="511,-180.5 511,-210.5 643,-210.5 643,-180.5 511,-180.5"/>
<text text-anchor="start" x="519" y="-198.5" font-family="Helvetica,sans-Serif" font-size="10.00">el::Loggers::configureFrom</text>
<text text-anchor="middle" x="577" y="-187.5" font-family="Helvetica,sans-Serif" font-size="10.00">Global</text>
</a>
</g>
</g>
<!-- Node3&#45;&gt;Node13 -->
<g id="edge8" class="edge"><title>Node3&#45;&gt;Node13</title>
<path fill="none" stroke="midnightblue" d="M466.88,-186.54C481.194,-187.715 496.485,-188.971 510.952,-190.159"/>
<polygon fill="midnightblue" stroke="midnightblue" points="466.909,-183.031 456.656,-185.7 466.336,-190.007 466.909,-183.031"/>
</g>
<!-- Node7 -->
<g id="node6" class="node"><title>Node7</title>
<g id="a_node6"><a xlink:href="classel_1_1_loggers.html#a89ec21259cfcfee3f761fca68c4ec043" target="_top" xlink:title="Reconfigures logger&#39;s single configuration. ">
<polygon fill="white" stroke="black" points="679,-49.5 679,-79.5 797,-79.5 797,-49.5 679,-49.5"/>
<text text-anchor="start" x="687" y="-67.5" font-family="Helvetica,sans-Serif" font-size="10.00">el::Loggers::reconfigure</text>
<text text-anchor="middle" x="738" y="-56.5" font-family="Helvetica,sans-Serif" font-size="10.00">Logger</text>
</a>
</g>
</g>
<!-- Node5&#45;&gt;Node7 -->
<g id="edge5" class="edge"><title>Node5&#45;&gt;Node7</title>
<path fill="none" stroke="midnightblue" d="M620.712,-101.177C628.151,-98.9846 635.808,-96.6985 643,-94.5 658.563,-89.7427 675.52,-84.3849 690.694,-79.5274"/>
<polygon fill="midnightblue" stroke="midnightblue" points="619.726,-97.8191 611.114,-103.991 621.695,-104.536 619.726,-97.8191"/>
</g>
<!-- Node8 -->
<g id="node7" class="node"><title>Node8</title>
<g id="a_node7"><a xlink:href="classel_1_1_loggers.html#a396b601e204ede36f5a9acc76a8c5585" target="_top" xlink:title="Reconfigures single configuration for all the loggers for specified level. ">
<polygon fill="white" stroke="black" points="679,-98.5 679,-128.5 797,-128.5 797,-98.5 679,-98.5"/>
<text text-anchor="start" x="687" y="-116.5" font-family="Helvetica,sans-Serif" font-size="10.00">el::Loggers::reconfigure</text>
<text text-anchor="middle" x="738" y="-105.5" font-family="Helvetica,sans-Serif" font-size="10.00">AllLoggers</text>
</a>
</g>
</g>
<!-- Node5&#45;&gt;Node8 -->
<g id="edge6" class="edge"><title>Node5&#45;&gt;Node8</title>
<path fill="none" stroke="midnightblue" d="M643.751,-113.5C655.44,-113.5 667.538,-113.5 678.993,-113.5"/>
<polygon fill="midnightblue" stroke="midnightblue" points="643.611,-110 633.61,-113.5 643.61,-117 643.611,-110"/>
</g>
<!-- Node15&#45;&gt;Node3 -->
<g id="edge11" class="edge"><title>Node15&#45;&gt;Node3</title>
<path fill="none" stroke="midnightblue" d="M292.886,-204.683C314.123,-200.232 337.986,-195.231 358.096,-191.016"/>
<polygon fill="midnightblue" stroke="midnightblue" points="292.088,-201.274 283.019,-206.751 293.524,-208.125 292.088,-201.274"/>
</g>
<!-- Node16&#45;&gt;Node3 -->
<g id="edge14" class="edge"><title>Node16&#45;&gt;Node3</title>
<path fill="none" stroke="midnightblue" d="M286.018,-137.181C316.183,-148.56 353.481,-162.63 377.851,-171.824"/>
<polygon fill="midnightblue" stroke="midnightblue" points="287.092,-133.845 276.501,-133.59 284.622,-140.395 287.092,-133.845"/>
</g>
<!-- Node17 -->
<g id="node13" class="node"><title>Node17</title>
<g id="a_node13"><a xlink:href="classel_1_1_logger.html#a59b1c5a0f8c5c670e59d2f69f9e39fbb" target="_top" xlink:title="el::Logger::Logger">
<polygon fill="white" stroke="black" points="357,-109 357,-128 452,-128 452,-109 357,-109"/>
<text text-anchor="middle" x="404.5" y="-116" font-family="Helvetica,sans-Serif" font-size="10.00">el::Logger::Logger</text>
</a>
</g>
</g>
<!-- Node16&#45;&gt;Node17 -->
<g id="edge13" class="edge"><title>Node16&#45;&gt;Node17</title>
<path fill="none" stroke="midnightblue" d="M306.746,-118.5C323.689,-118.5 341.38,-118.5 356.93,-118.5"/>
<polygon fill="midnightblue" stroke="midnightblue" points="306.319,-115 296.319,-118.5 306.319,-122 306.319,-115"/>
</g>
<!-- Node18&#45;&gt;Node3 -->
<g id="edge16" class="edge"><title>Node18&#45;&gt;Node3</title>
<path fill="none" stroke="midnightblue" d="M308.372,-173.525C323.199,-174.768 338.525,-176.053 352.43,-177.219"/>
<polygon fill="midnightblue" stroke="midnightblue" points="308.468,-170.021 298.21,-172.673 307.883,-176.997 308.468,-170.021"/>
</g>
<!-- Node21 -->
<g id="node17" class="node"><title>Node21</title>
<g id="a_node17"><a xlink:href="classel_1_1_configurations.html#a332717de96efc851a202b7afcc5e395c" target="_top" xlink:title="Sets value of configuration for specified level. ">
<polygon fill="white" stroke="black" points="521.5,-16 521.5,-35 632.5,-35 632.5,-16 521.5,-16"/>
<text text-anchor="middle" x="577" y="-23" font-family="Helvetica,sans-Serif" font-size="10.00">el::Configurations::set</text>
</a>
</g>
</g>
<!-- Node20&#45;&gt;Node21 -->
<g id="edge19" class="edge"><title>Node20&#45;&gt;Node21</title>
<path fill="none" stroke="midnightblue" d="M296.067,-52.4918C308.517,-49.4269 321.622,-46.557 334,-44.5 397.815,-33.8952 472.108,-29.1767 521.371,-27.0984"/>
<polygon fill="midnightblue" stroke="midnightblue" points="295.083,-49.1305 286.249,-54.9799 296.802,-55.916 295.083,-49.1305"/>
</g>
<!-- Node23 -->
<g id="node19" class="node"><title>Node23</title>
<g id="a_node19"><a xlink:href="classel_1_1_configurations.html#a05c373510ca513e4f61999c84d512831" target="_top" xlink:title="Thread unsafe set. ">
<polygon fill="white" stroke="black" points="358.5,-54.5 358.5,-84.5 450.5,-84.5 450.5,-54.5 358.5,-54.5"/>
<text text-anchor="start" x="366.5" y="-72.5" font-family="Helvetica,sans-Serif" font-size="10.00">el::Configurations</text>
<text text-anchor="middle" x="404.5" y="-61.5" font-family="Helvetica,sans-Serif" font-size="10.00">::unsafeSet</text>
</a>
</g>
</g>
<!-- Node20&#45;&gt;Node23 -->
<g id="edge23" class="edge"><title>Node20&#45;&gt;Node23</title>
<path fill="none" stroke="midnightblue" d="M296.305,-62.9976C316.734,-62.5598 339.226,-62.7026 358.309,-63.4258"/>
<polygon fill="midnightblue" stroke="midnightblue" points="296.056,-59.5029 286.153,-63.2692 296.243,-66.5004 296.056,-59.5029"/>
</g>
<!-- Node21&#45;&gt;Node7 -->
<g id="edge22" class="edge"><title>Node21&#45;&gt;Node7</title>
<path fill="none" stroke="midnightblue" d="M626.849,-37.4819C643.316,-41.5208 661.853,-46.0678 678.958,-50.2634"/>
<polygon fill="midnightblue" stroke="midnightblue" points="627.442,-34.0235 616.896,-35.0405 625.774,-40.822 627.442,-34.0235"/>
</g>
<!-- Node21&#45;&gt;Node8 -->
<g id="edge21" class="edge"><title>Node21&#45;&gt;Node8</title>
<path fill="none" stroke="midnightblue" d="M633.242,-38.977C636.652,-40.6156 639.938,-42.4491 643,-44.5 664.279,-58.7545 658.521,-74.1182 679,-89.5 683.444,-92.8377 688.419,-95.7981 693.537,-98.399"/>
<polygon fill="midnightblue" stroke="midnightblue" points="634.57,-35.7385 623.996,-35.0792 631.851,-42.1888 634.57,-35.7385"/>
</g>
<!-- Node22 -->
<g id="node18" class="node"><title>Node22</title>
<g id="a_node18"><a xlink:href="classel_1_1_configurations_1_1_parser.html#a70e0d8b27e7c1b5dd94e6838c304a751" target="_top" xlink:title="el::Configurations\l::Parser::parseLine">
<polygon fill="white" stroke="black" points="688.5,-0.5 688.5,-30.5 787.5,-30.5 787.5,-0.5 688.5,-0.5"/>
<text text-anchor="start" x="696.5" y="-18.5" font-family="Helvetica,sans-Serif" font-size="10.00">el::Configurations</text>
<text text-anchor="middle" x="738" y="-7.5" font-family="Helvetica,sans-Serif" font-size="10.00">::Parser::parseLine</text>
</a>
</g>
</g>
<!-- Node21&#45;&gt;Node22 -->
<g id="edge20" class="edge"><title>Node21&#45;&gt;Node22</title>
<path fill="none" stroke="midnightblue" d="M643.047,-21.409C658.173,-20.4577 674.021,-19.461 688.301,-18.5629"/>
<polygon fill="midnightblue" stroke="midnightblue" points="642.479,-17.9377 632.719,-22.0586 642.919,-24.9239 642.479,-17.9377"/>
</g>
<!-- Node23&#45;&gt;Node20 -->
<g id="edge25" class="edge"><title>Node23&#45;&gt;Node20</title>
<path fill="none" stroke="midnightblue" d="M348.096,-75.8982C328.086,-76.4177 305.64,-76.3618 286.153,-75.7308"/>
<polygon fill="midnightblue" stroke="midnightblue" points="348.425,-79.3896 358.309,-75.5742 348.203,-72.3932 348.425,-79.3896"/>
</g>
<!-- Node23&#45;&gt;Node21 -->
<g id="edge24" class="edge"><title>Node23&#45;&gt;Node21</title>
<path fill="none" stroke="midnightblue" d="M460.727,-55.2478C486.417,-48.6182 516.277,-40.9125 539.168,-35.005"/>
<polygon fill="midnightblue" stroke="midnightblue" points="459.551,-51.9365 450.743,-57.8243 461.301,-58.7144 459.551,-51.9365"/>
</g>
<!-- Node24 -->
<g id="node20" class="node"><title>Node24</title>
<g id="a_node20"><a xlink:href="classel_1_1_configurations.html#a84c06d47e550b5eda3060f399698ec28" target="_top" xlink:title="Unsafely sets configuration if does not already exist. ">
<polygon fill="white" stroke="red" points="523,-54.5 523,-84.5 631,-84.5 631,-54.5 523,-54.5"/>
<text text-anchor="start" x="531" y="-72.5" font-family="Helvetica,sans-Serif" font-size="10.00">el::Configurations</text>
<text text-anchor="middle" x="577" y="-61.5" font-family="Helvetica,sans-Serif" font-size="10.00">::unsafeSetIfNotExist</text>
</a>
</g>
</g>
<!-- Node23&#45;&gt;Node24 -->
<g id="edge26" class="edge"><title>Node23&#45;&gt;Node24</title>
<path fill="none" stroke="midnightblue" d="M460.91,-69.5C480.838,-69.5 503.256,-69.5 522.976,-69.5"/>
<polygon fill="midnightblue" stroke="midnightblue" points="460.743,-66.0001 450.743,-69.5 460.743,-73.0001 460.743,-66.0001"/>
</g>
</g>
</svg>
