<?xml version="1.0" encoding="UTF-8" standalone="no"?>
<!DOCTYPE svg PUBLIC "-//W3C//DTD SVG 1.1//EN"
 "http://www.w3.org/Graphics/SVG/1.1/DTD/svg11.dtd">
<!-- Generated by graphviz version 2.38.0 (20140413.2041)
 -->
<!-- Title: vpr::Swapchain::Recreate Pages: 1 -->
<svg width="592pt" height="230pt"
 viewBox="0.00 0.00 592.00 230.00" xmlns="http://www.w3.org/2000/svg" xmlns:xlink="http://www.w3.org/1999/xlink">
<g id="graph0" class="graph" transform="scale(1 1) rotate(0) translate(4 226)">
<title>vpr::Swapchain::Recreate</title>
<polygon fill="white" stroke="none" points="-4,4 -4,-226 588,-226 588,4 -4,4"/>
<!-- Node27 -->
<g id="node1" class="node"><title>Node27</title>
<polygon fill="#bfbfbf" stroke="black" points="0,-55 0,-74 127,-74 127,-55 0,-55"/>
<text text-anchor="middle" x="63.5" y="-62" font-family="Helvetica,sans-Serif" font-size="10.00">vpr::Swapchain::Recreate</text>
</g>
<!-- Node28 -->
<g id="node2" class="node"><title>Node28</title>
<g id="a_node2"><a xlink:href="structvpr_1_1_swapchain_impl.html#a26979c4e9803da67ef61bf098377b341" target="_top" xlink:title="vpr::SwapchainImpl\l::create">
<polygon fill="white" stroke="black" points="174,-98.5 174,-128.5 274,-128.5 274,-98.5 174,-98.5"/>
<text text-anchor="start" x="182" y="-116.5" font-family="Helvetica,sans-Serif" font-size="10.00">vpr::SwapchainImpl</text>
<text text-anchor="middle" x="224" y="-105.5" font-family="Helvetica,sans-Serif" font-size="10.00">::create</text>
</a>
</g>
</g>
<!-- Node27&#45;&gt;Node28 -->
<g id="edge1" class="edge"><title>Node27&#45;&gt;Node28</title>
<path fill="none" stroke="midnightblue" d="M95.4367,-74.064C115.065,-80.1321 141.088,-88.177 164.508,-95.4174"/>
<polygon fill="midnightblue" stroke="midnightblue" points="163.772,-98.8533 174.36,-98.463 165.84,-92.1655 163.772,-98.8533"/>
</g>
<!-- Node35 -->
<g id="node9" class="node"><title>Node35</title>
<g id="a_node9"><a xlink:href="classvpr_1_1_device.html#a25e0b05bb662b335ec214295c46654cc" target="_top" xlink:title="vpr::Device::GetPhysical\lDevice">
<polygon fill="white" stroke="black" points="163,-49.5 163,-79.5 285,-79.5 285,-49.5 163,-49.5"/>
<text text-anchor="start" x="171" y="-67.5" font-family="Helvetica,sans-Serif" font-size="10.00">vpr::Device::GetPhysical</text>
<text text-anchor="middle" x="224" y="-56.5" font-family="Helvetica,sans-Serif" font-size="10.00">Device</text>
</a>
</g>
</g>
<!-- Node27&#45;&gt;Node35 -->
<g id="edge8" class="edge"><title>Node27&#45;&gt;Node35</title>
<path fill="none" stroke="midnightblue" d="M127.143,-64.5C135.51,-64.5 144.135,-64.5 152.622,-64.5"/>
<polygon fill="midnightblue" stroke="midnightblue" points="152.88,-68.0001 162.88,-64.5 152.88,-61.0001 152.88,-68.0001"/>
</g>
<!-- Node36 -->
<g id="node10" class="node"><title>Node36</title>
<g id="a_node10"><a xlink:href="classvpr_1_1_physical_device.html#a00de7d3556d98b1cfda28d1f769f8fa8" target="_top" xlink:title="vpr::PhysicalDevice\l::vkHandle">
<polygon fill="white" stroke="black" points="173.5,-0.5 173.5,-30.5 274.5,-30.5 274.5,-0.5 173.5,-0.5"/>
<text text-anchor="start" x="181.5" y="-18.5" font-family="Helvetica,sans-Serif" font-size="10.00">vpr::PhysicalDevice</text>
<text text-anchor="middle" x="224" y="-7.5" font-family="Helvetica,sans-Serif" font-size="10.00">::vkHandle</text>
</a>
</g>
</g>
<!-- Node27&#45;&gt;Node36 -->
<g id="edge9" class="edge"><title>Node27&#45;&gt;Node36</title>
<path fill="none" stroke="midnightblue" d="M95.4367,-54.936C115.065,-48.8679 141.088,-40.823 164.508,-33.5826"/>
<polygon fill="midnightblue" stroke="midnightblue" points="165.84,-36.8345 174.36,-30.537 163.772,-30.1467 165.84,-36.8345"/>
</g>
<!-- Node29 -->
<g id="node3" class="node"><title>Node29</title>
<g id="a_node3"><a xlink:href="structvpr_1_1_swapchain_impl.html#afdf0ef2711d213b7020b37785a62a7ad" target="_top" xlink:title="vpr::SwapchainImpl\l::setParameters">
<polygon fill="white" stroke="black" points="325,-191.5 325,-221.5 425,-221.5 425,-191.5 325,-191.5"/>
<text text-anchor="start" x="333" y="-209.5" font-family="Helvetica,sans-Serif" font-size="10.00">vpr::SwapchainImpl</text>
<text text-anchor="middle" x="375" y="-198.5" font-family="Helvetica,sans-Serif" font-size="10.00">::setParameters</text>
</a>
</g>
</g>
<!-- Node28&#45;&gt;Node29 -->
<g id="edge2" class="edge"><title>Node28&#45;&gt;Node29</title>
<path fill="none" stroke="midnightblue" d="M243.735,-128.676C262.557,-143.504 292.747,-166.166 321,-182.5 323.626,-184.018 326.365,-185.511 329.155,-186.962"/>
<polygon fill="midnightblue" stroke="midnightblue" points="327.649,-190.122 338.161,-191.442 330.766,-183.854 327.649,-190.122"/>
</g>
<!-- Node31 -->
<g id="node5" class="node"><title>Node31</title>
<g id="a_node5"><a xlink:href="structvpr_1_1_swapchain_impl.html#a455468d3084cd9503a64f02d3b53956d" target="_top" xlink:title="vpr::SwapchainImpl\l::setupCreateInfo">
<polygon fill="white" stroke="black" points="325,-142.5 325,-172.5 425,-172.5 425,-142.5 325,-142.5"/>
<text text-anchor="start" x="333" y="-160.5" font-family="Helvetica,sans-Serif" font-size="10.00">vpr::SwapchainImpl</text>
<text text-anchor="middle" x="375" y="-149.5" font-family="Helvetica,sans-Serif" font-size="10.00">::setupCreateInfo</text>
</a>
</g>
</g>
<!-- Node28&#45;&gt;Node31 -->
<g id="edge4" class="edge"><title>Node28&#45;&gt;Node31</title>
<path fill="none" stroke="midnightblue" d="M274.201,-128.029C287.298,-131.897 301.578,-136.113 315.134,-140.117"/>
<polygon fill="midnightblue" stroke="midnightblue" points="314.269,-143.511 324.851,-142.986 316.251,-136.797 314.269,-143.511"/>
</g>
<!-- Node32 -->
<g id="node6" class="node"><title>Node32</title>
<g id="a_node6"><a xlink:href="classvpr_1_1_device.html#a59882855173bef0b13a17b376ea01d45" target="_top" xlink:title="vpr::Device::vkHandle">
<polygon fill="white" stroke="black" points="321,-104 321,-123 429,-123 429,-104 321,-104"/>
<text text-anchor="middle" x="375" y="-111" font-family="Helvetica,sans-Serif" font-size="10.00">vpr::Device::vkHandle</text>
</a>
</g>
</g>
<!-- Node28&#45;&gt;Node32 -->
<g id="edge5" class="edge"><title>Node28&#45;&gt;Node32</title>
<path fill="none" stroke="midnightblue" d="M274.201,-113.5C285.856,-113.5 298.449,-113.5 310.635,-113.5"/>
<polygon fill="midnightblue" stroke="midnightblue" points="310.747,-117 320.747,-113.5 310.747,-110 310.747,-117"/>
</g>
<!-- Node33 -->
<g id="node7" class="node"><title>Node33</title>
<g id="a_node7"><a xlink:href="structvpr_1_1_swapchain_impl.html#acc94e08e83ec3857bffdea08e9b4bf65" target="_top" xlink:title="vpr::SwapchainImpl\l::setupSwapImages">
<polygon fill="white" stroke="black" points="324,-54.5 324,-84.5 426,-84.5 426,-54.5 324,-54.5"/>
<text text-anchor="start" x="332" y="-72.5" font-family="Helvetica,sans-Serif" font-size="10.00">vpr::SwapchainImpl</text>
<text text-anchor="middle" x="375" y="-61.5" font-family="Helvetica,sans-Serif" font-size="10.00">::setupSwapImages</text>
</a>
</g>
</g>
<!-- Node28&#45;&gt;Node33 -->
<g id="edge6" class="edge"><title>Node28&#45;&gt;Node33</title>
<path fill="none" stroke="midnightblue" d="M274.201,-98.9708C286.9,-95.2208 300.712,-91.1421 313.898,-87.2481"/>
<polygon fill="midnightblue" stroke="midnightblue" points="315.232,-90.5038 323.831,-84.3149 313.249,-83.7904 315.232,-90.5038"/>
</g>
<!-- Node34 -->
<g id="node8" class="node"><title>Node34</title>
<g id="a_node8"><a xlink:href="structvpr_1_1_swapchain_impl.html#aaded5613928f1e39c1a61ac25be8bf88" target="_top" xlink:title="vpr::SwapchainImpl\l::setupImageViews">
<polygon fill="white" stroke="black" points="325,-5.5 325,-35.5 425,-35.5 425,-5.5 325,-5.5"/>
<text text-anchor="start" x="333" y="-23.5" font-family="Helvetica,sans-Serif" font-size="10.00">vpr::SwapchainImpl</text>
<text text-anchor="middle" x="375" y="-12.5" font-family="Helvetica,sans-Serif" font-size="10.00">::setupImageViews</text>
</a>
</g>
</g>
<!-- Node28&#45;&gt;Node34 -->
<g id="edge7" class="edge"><title>Node28&#45;&gt;Node34</title>
<path fill="none" stroke="midnightblue" d="M268.361,-98.4751C274.208,-95.5925 279.931,-92.2736 285,-88.5 305.268,-73.4121 300.964,-59.8943 321,-44.5 322.757,-43.1499 324.602,-41.855 326.507,-40.6157"/>
<polygon fill="midnightblue" stroke="midnightblue" points="328.305,-43.6191 335.159,-35.5396 324.762,-37.5817 328.305,-43.6191"/>
</g>
<!-- Node30 -->
<g id="node4" class="node"><title>Node30</title>
<g id="a_node4"><a xlink:href="namespacevpr.html#afa4d7a5ad29cbfc728d5c355d990d242" target="_top" xlink:title="vpr::getPresentModeStr">
<polygon fill="white" stroke="black" points="465,-197 465,-216 584,-216 584,-197 465,-197"/>
<text text-anchor="middle" x="524.5" y="-204" font-family="Helvetica,sans-Serif" font-size="10.00">vpr::getPresentModeStr</text>
</a>
</g>
</g>
<!-- Node29&#45;&gt;Node30 -->
<g id="edge3" class="edge"><title>Node29&#45;&gt;Node30</title>
<path fill="none" stroke="midnightblue" d="M425.115,-206.5C434.57,-206.5 444.634,-206.5 454.581,-206.5"/>
<polygon fill="midnightblue" stroke="midnightblue" points="454.873,-210 464.873,-206.5 454.873,-203 454.873,-210"/>
</g>
</g>
</svg>
