<?xml version="1.0" encoding="UTF-8" standalone="no"?>
<!DOCTYPE svg PUBLIC "-//W3C//DTD SVG 1.1//EN"
 "http://www.w3.org/Graphics/SVG/1.1/DTD/svg11.dtd">
<!-- Generated by graphviz version 2.38.0 (20140413.2041)
 -->
<!-- Title: vpr::Allocator::AllocateForBuffer Pages: 1 -->
<svg width="470pt" height="116pt"
 viewBox="0.00 0.00 470.00 115.50" xmlns="http://www.w3.org/2000/svg" xmlns:xlink="http://www.w3.org/1999/xlink">
<g id="graph0" class="graph" transform="scale(1 1) rotate(0) translate(4 111.5)">
<title>vpr::Allocator::AllocateForBuffer</title>
<polygon fill="white" stroke="none" points="-4,4 -4,-111.5 466,-111.5 466,4 -4,4"/>
<!-- Node8 -->
<g id="node1" class="node"><title>Node8</title>
<polygon fill="#bfbfbf" stroke="black" points="0,-33 0,-63 114,-63 114,-33 0,-33"/>
<text text-anchor="start" x="8" y="-51" font-family="Helvetica,sans-Serif" font-size="10.00">vpr::Allocator::Allocate</text>
<text text-anchor="middle" x="57" y="-40" font-family="Helvetica,sans-Serif" font-size="10.00">ForBuffer</text>
</g>
<!-- Node9 -->
<g id="node2" class="node"><title>Node9</title>
<g id="a_node2"><a xlink:href="classvpr_1_1_allocator.html#ab5457af65cbb081b295f323c13a7843a" target="_top" xlink:title="vpr::Allocator::Allocate\lMemory">
<polygon fill="white" stroke="black" points="152.5,-77 152.5,-107 266.5,-107 266.5,-77 152.5,-77"/>
<text text-anchor="start" x="160.5" y="-95" font-family="Helvetica,sans-Serif" font-size="10.00">vpr::Allocator::Allocate</text>
<text text-anchor="middle" x="209.5" y="-84" font-family="Helvetica,sans-Serif" font-size="10.00">Memory</text>
</a>
</g>
</g>
<!-- Node8&#45;&gt;Node9 -->
<g id="edge1" class="edge"><title>Node8&#45;&gt;Node9</title>
<path fill="none" stroke="midnightblue" d="M109.373,-63.0192C121.534,-66.5748 134.624,-70.4018 147.178,-74.0721"/>
<polygon fill="midnightblue" stroke="midnightblue" points="146.523,-77.527 157.104,-76.9738 148.488,-70.8082 146.523,-77.527"/>
</g>
<!-- Node11 -->
<g id="node4" class="node"><title>Node11</title>
<g id="a_node4"><a xlink:href="classvpr_1_1_allocation.html#a1a223e41ca865271544ece71d18edce2" target="_top" xlink:title="vpr::Allocation::Memory">
<polygon fill="white" stroke="black" points="150,-38.5 150,-57.5 269,-57.5 269,-38.5 150,-38.5"/>
<text text-anchor="middle" x="209.5" y="-45.5" font-family="Helvetica,sans-Serif" font-size="10.00">vpr::Allocation::Memory</text>
</a>
</g>
</g>
<!-- Node8&#45;&gt;Node11 -->
<g id="edge3" class="edge"><title>Node8&#45;&gt;Node11</title>
<path fill="none" stroke="midnightblue" d="M114.041,-48C122.45,-48 131.203,-48 139.839,-48"/>
<polygon fill="midnightblue" stroke="midnightblue" points="139.895,-51.5001 149.895,-48 139.895,-44.5001 139.895,-51.5001"/>
</g>
<!-- Node12 -->
<g id="node5" class="node"><title>Node12</title>
<g id="a_node5"><a xlink:href="classvpr_1_1_allocation.html#acb642a53c185ac6530ed60959b0e4397" target="_top" xlink:title="vpr::Allocation::Offset">
<polygon fill="white" stroke="black" points="155,-0.5 155,-19.5 264,-19.5 264,-0.5 155,-0.5"/>
<text text-anchor="middle" x="209.5" y="-7.5" font-family="Helvetica,sans-Serif" font-size="10.00">vpr::Allocation::Offset</text>
</a>
</g>
</g>
<!-- Node8&#45;&gt;Node12 -->
<g id="edge4" class="edge"><title>Node8&#45;&gt;Node12</title>
<path fill="none" stroke="midnightblue" d="M114.041,-33.8502C129.387,-29.9755 145.875,-25.8123 160.712,-22.066"/>
<polygon fill="midnightblue" stroke="midnightblue" points="161.848,-25.3893 170.686,-19.5476 160.134,-18.6023 161.848,-25.3893"/>
</g>
<!-- Node10 -->
<g id="node3" class="node"><title>Node10</title>
<g id="a_node3"><a xlink:href="namespacevpr.html#afb6cf1dbd1d7b9e7d5dfa97f3d5bd205" target="_top" xlink:title="vpr::suballocTypeFromAllocType">
<polygon fill="white" stroke="black" points="305,-82.5 305,-101.5 462,-101.5 462,-82.5 305,-82.5"/>
<text text-anchor="middle" x="383.5" y="-89.5" font-family="Helvetica,sans-Serif" font-size="10.00">vpr::suballocTypeFromAllocType</text>
</a>
</g>
</g>
<!-- Node9&#45;&gt;Node10 -->
<g id="edge2" class="edge"><title>Node9&#45;&gt;Node10</title>
<path fill="none" stroke="midnightblue" d="M266.819,-92C275.741,-92 285.148,-92 294.587,-92"/>
<polygon fill="midnightblue" stroke="midnightblue" points="294.819,-95.5001 304.819,-92 294.819,-88.5001 294.819,-95.5001"/>
</g>
</g>
</svg>
