<?xml version="1.0" encoding="UTF-8" standalone="no"?>
<!DOCTYPE svg PUBLIC "-//W3C//DTD SVG 1.1//EN"
 "http://www.w3.org/Graphics/SVG/1.1/DTD/svg11.dtd">
<!-- Generated by graphviz version 2.38.0 (20140413.2041)
 -->
<!-- Title: vpr::GraphicsPipeline::~GraphicsPipeline Pages: 1 -->
<svg width="404pt" height="39pt"
 viewBox="0.00 0.00 404.00 39.00" xmlns="http://www.w3.org/2000/svg" xmlns:xlink="http://www.w3.org/1999/xlink">
<g id="graph0" class="graph" transform="scale(1 1) rotate(0) translate(4 35)">
<title>vpr::GraphicsPipeline::~GraphicsPipeline</title>
<polygon fill="white" stroke="none" points="-4,4 -4,-35 400,-35 400,4 -4,4"/>
<!-- Node7 -->
<g id="node1" class="node"><title>Node7</title>
<polygon fill="#bfbfbf" stroke="black" points="0,-0.5 0,-30.5 108,-30.5 108,-0.5 0,-0.5"/>
<text text-anchor="start" x="8" y="-18.5" font-family="Helvetica,sans-Serif" font-size="10.00">vpr::GraphicsPipeline</text>
<text text-anchor="middle" x="54" y="-7.5" font-family="Helvetica,sans-Serif" font-size="10.00">::~GraphicsPipeline</text>
</g>
<!-- Node8 -->
<g id="node2" class="node"><title>Node8</title>
<g id="a_node2"><a xlink:href="classvpr_1_1_graphics_pipeline.html#aea7b8f3af0fb2b0a508f362a791fe957" target="_top" xlink:title="vpr::GraphicsPipeline\l::Destroy">
<polygon fill="white" stroke="black" points="144,-0.5 144,-30.5 252,-30.5 252,-0.5 144,-0.5"/>
<text text-anchor="start" x="152" y="-18.5" font-family="Helvetica,sans-Serif" font-size="10.00">vpr::GraphicsPipeline</text>
<text text-anchor="middle" x="198" y="-7.5" font-family="Helvetica,sans-Serif" font-size="10.00">::Destroy</text>
</a>
</g>
</g>
<!-- Node7&#45;&gt;Node8 -->
<g id="edge1" class="edge"><title>Node7&#45;&gt;Node8</title>
<path fill="none" stroke="midnightblue" d="M108.28,-15.5C116.56,-15.5 125.184,-15.5 133.661,-15.5"/>
<polygon fill="midnightblue" stroke="midnightblue" points="133.894,-19.0001 143.894,-15.5 133.894,-12.0001 133.894,-19.0001"/>
</g>
<!-- Node9 -->
<g id="node3" class="node"><title>Node9</title>
<g id="a_node3"><a xlink:href="classvpr_1_1_device.html#a59882855173bef0b13a17b376ea01d45" target="_top" xlink:title="vpr::Device::vkHandle">
<polygon fill="white" stroke="black" points="288,-6 288,-25 396,-25 396,-6 288,-6"/>
<text text-anchor="middle" x="342" y="-13" font-family="Helvetica,sans-Serif" font-size="10.00">vpr::Device::vkHandle</text>
</a>
</g>
</g>
<!-- Node8&#45;&gt;Node9 -->
<g id="edge2" class="edge"><title>Node8&#45;&gt;Node9</title>
<path fill="none" stroke="midnightblue" d="M252.28,-15.5C260.56,-15.5 269.184,-15.5 277.661,-15.5"/>
<polygon fill="midnightblue" stroke="midnightblue" points="277.894,-19.0001 287.894,-15.5 277.894,-12.0001 277.894,-19.0001"/>
</g>
</g>
</svg>
