<?xml version="1.0" encoding="UTF-8" standalone="no"?>
<!DOCTYPE svg PUBLIC "-//W3C//DTD SVG 1.1//EN"
 "http://www.w3.org/Graphics/SVG/1.1/DTD/svg11.dtd">
<!-- Generated by graphviz version 2.38.0 (20140413.2041)
 -->
<!-- Title: vpr::DescriptorSet::update Pages: 1 -->
<svg width="232pt" height="137pt"
 viewBox="0.00 0.00 232.00 137.00" xmlns="http://www.w3.org/2000/svg" xmlns:xlink="http://www.w3.org/1999/xlink">
<g id="graph0" class="graph" transform="scale(1 1) rotate(0) translate(4 133)">
<title>vpr::DescriptorSet::update</title>
<polygon fill="white" stroke="none" points="-4,4 -4,-133 228,-133 228,4 -4,4"/>
<!-- Node44 -->
<g id="node1" class="node"><title>Node44</title>
<polygon fill="#bfbfbf" stroke="black" points="0,-49.5 0,-79.5 94,-79.5 94,-49.5 0,-49.5"/>
<text text-anchor="start" x="8" y="-67.5" font-family="Helvetica,sans-Serif" font-size="10.00">vpr::DescriptorSet</text>
<text text-anchor="middle" x="47" y="-56.5" font-family="Helvetica,sans-Serif" font-size="10.00">::update</text>
</g>
<!-- Node45 -->
<g id="node2" class="node"><title>Node45</title>
<g id="a_node2"><a xlink:href="classvpr_1_1_descriptor_set.html#a6e2329db70462daabad9be5a29b8caeb" target="_top" xlink:title="Call after all descriptor bindings and infos required have been added, and make sure you have enough ...">
<polygon fill="white" stroke="black" points="130,-98.5 130,-128.5 224,-128.5 224,-98.5 130,-98.5"/>
<text text-anchor="start" x="138" y="-116.5" font-family="Helvetica,sans-Serif" font-size="10.00">vpr::DescriptorSet</text>
<text text-anchor="middle" x="177" y="-105.5" font-family="Helvetica,sans-Serif" font-size="10.00">::Init</text>
</a>
</g>
</g>
<!-- Node44&#45;&gt;Node45 -->
<g id="edge1" class="edge"><title>Node44&#45;&gt;Node45</title>
<path fill="none" stroke="midnightblue" d="M96.8009,-83.1816C109.91,-88.2001 123.923,-93.5643 136.461,-98.3641"/>
<polygon fill="midnightblue" stroke="midnightblue" points="98.0391,-79.9079 87.4487,-79.6014 95.5364,-86.4453 98.0391,-79.9079"/>
</g>
<!-- Node46 -->
<g id="node3" class="node"><title>Node46</title>
<g id="a_node3"><a xlink:href="classvpr_1_1_descriptor_set.html#af0df0abb71f558109686909037de0688" target="_top" xlink:title="vpr::DescriptorSet\l::Update">
<polygon fill="white" stroke="black" points="130,-49.5 130,-79.5 224,-79.5 224,-49.5 130,-49.5"/>
<text text-anchor="start" x="138" y="-67.5" font-family="Helvetica,sans-Serif" font-size="10.00">vpr::DescriptorSet</text>
<text text-anchor="middle" x="177" y="-56.5" font-family="Helvetica,sans-Serif" font-size="10.00">::Update</text>
</a>
</g>
</g>
<!-- Node44&#45;&gt;Node46 -->
<g id="edge2" class="edge"><title>Node44&#45;&gt;Node46</title>
<path fill="none" stroke="midnightblue" d="M104.442,-64.5C112.937,-64.5 121.612,-64.5 129.857,-64.5"/>
<polygon fill="midnightblue" stroke="midnightblue" points="104.211,-61.0001 94.2109,-64.5 104.211,-68.0001 104.211,-61.0001"/>
</g>
<!-- Node47 -->
<g id="node4" class="node"><title>Node47</title>
<g id="a_node4"><a xlink:href="classvpr_1_1_descriptor_set.html#a10bd2e1ea290ca2a02a8b878d92d47dd" target="_top" xlink:title="vpr::DescriptorSet\l::vkHandle">
<polygon fill="white" stroke="black" points="130,-0.5 130,-30.5 224,-30.5 224,-0.5 130,-0.5"/>
<text text-anchor="start" x="138" y="-18.5" font-family="Helvetica,sans-Serif" font-size="10.00">vpr::DescriptorSet</text>
<text text-anchor="middle" x="177" y="-7.5" font-family="Helvetica,sans-Serif" font-size="10.00">::vkHandle</text>
</a>
</g>
</g>
<!-- Node44&#45;&gt;Node47 -->
<g id="edge3" class="edge"><title>Node44&#45;&gt;Node47</title>
<path fill="none" stroke="midnightblue" d="M96.8009,-45.8184C109.91,-40.7999 123.923,-35.4357 136.461,-30.6359"/>
<polygon fill="midnightblue" stroke="midnightblue" points="95.5364,-42.5547 87.4487,-49.3986 98.0391,-49.0921 95.5364,-42.5547"/>
</g>
</g>
</svg>
