<?xml version="1.0" encoding="UTF-8" standalone="no"?>
<!DOCTYPE svg PUBLIC "-//W3C//DTD SVG 1.1//EN"
 "http://www.w3.org/Graphics/SVG/1.1/DTD/svg11.dtd">
<!-- Generated by graphviz version 2.38.0 (20140413.2041)
 -->
<!-- Title: el::base::LogFormat::level Pages: 1 -->
<!--zoomable 578 -->
<svg id="main" version="1.1" xmlns="http://www.w3.org/2000/svg" xmlns:xlink="http://www.w3.org/1999/xlink" xml:space="preserve" onload="init(evt)">
<style type="text/css"><![CDATA[
.edge:hover path { stroke: red; }
.edge:hover polygon { stroke: red; fill: red; }
]]></style>
<script type="text/javascript"><![CDATA[
var edges = document.getElementsByTagName('g');
if (edges && edges.length) {
  for (var i=0;i<edges.length;i++) {
    if (edges[i].id.substr(0,4)=='edge') {
      edges[i].setAttribute('class','edge');
    }
  }
}
]]></script>
        <defs>
                <circle id="rim" cx="0" cy="0" r="7"/>
                <circle id="rim2" cx="0" cy="0" r="3.5"/>
                <g id="zoomPlus">
                        <use xlink:href="#rim" fill="#404040">
                                <set attributeName="fill" to="#808080" begin="zoomplus.mouseover" end="zoomplus.mouseout"/>
                        </use>
                        <path d="M-4,0h8M0,-4v8" fill="none" stroke="white" stroke-width="1.5" pointer-events="none"/>
                </g>
                <g id="zoomMin">
                        <use xlink:href="#rim" fill="#404040">
                                <set attributeName="fill" to="#808080" begin="zoomminus.mouseover" end="zoomminus.mouseout"/>
                        </use>
                        <path d="M-4,0h8" fill="none" stroke="white" stroke-width="1.5" pointer-events="none"/>
                </g>
                <g id="dirArrow">
                        <path fill="none" stroke="white" stroke-width="1.5" d="M0,-3.0v7 M-2.5,-0.5L0,-3.0L2.5,-0.5"/>
                </g>
               <g id="resetDef">
                       <use xlink:href="#rim2" fill="#404040">
                               <set attributeName="fill" to="#808080" begin="reset.mouseover" end="reset.mouseout"/>
                       </use>
               </g>
        </defs>

<script type="text/javascript">
var viewWidth = 1144;
var viewHeight = 578;
var sectionId = 'dynsection-9';
</script>
<script xlink:href="svgpan.js"/>
<svg id="graph" class="graph">
<g id="viewport">
<title>el::base::LogFormat::level</title>
<polygon fill="white" stroke="none" points="-4,4 -4,-574 1140,-574 1140,4 -4,4"/>
<!-- Node41 -->
<g id="node1" class="node"><title>Node41</title>
<polygon fill="#bfbfbf" stroke="black" points="0,-269.5 0,-299.5 104,-299.5 104,-269.5 0,-269.5"/>
<text text-anchor="start" x="8" y="-287.5" font-family="Helvetica,sans-Serif" font-size="10.00">el::base::LogFormat</text>
<text text-anchor="middle" x="52" y="-276.5" font-family="Helvetica,sans-Serif" font-size="10.00">::level</text>
</g>
<!-- Node42 -->
<g id="node2" class="node"><title>Node42</title>
<g id="a_node2"><a xlink:href="classel_1_1base_1_1_typed_configurations.html#a924b35df988103c737907cc7993c3c1c" target="_top" xlink:title="el::base::TypedConfigurations\l::enabled">
<polygon fill="white" stroke="black" points="140,-539.5 140,-569.5 285,-569.5 285,-539.5 140,-539.5"/>
<text text-anchor="start" x="148" y="-557.5" font-family="Helvetica,sans-Serif" font-size="10.00">el::base::TypedConfigurations</text>
<text text-anchor="middle" x="212.5" y="-546.5" font-family="Helvetica,sans-Serif" font-size="10.00">::enabled</text>
</a>
</g>
</g>
<!-- Node41&#45;&gt;Node42 -->
<g id="edge1" class="edge"><title>Node41&#45;&gt;Node42</title>
<path fill="none" stroke="midnightblue" d="M54.7918,-309.719C59.6408,-359.026 77.2612,-468.762 140,-530.5 143.453,-533.898 147.402,-536.815 151.63,-539.32"/>
<polygon fill="midnightblue" stroke="midnightblue" points="58.2656,-309.268 53.8967,-299.616 51.2929,-309.886 58.2656,-309.268"/>
</g>
<!-- Node43 -->
<g id="node3" class="node"><title>Node43</title>
<g id="a_node3"><a xlink:href="classel_1_1base_1_1_typed_configurations.html#a6e989a8496b9e08e6e8c9ac4d3fe5b1e" target="_top" xlink:title="el::base::TypedConfigurations\l::filename">
<polygon fill="white" stroke="black" points="140,-490.5 140,-520.5 285,-520.5 285,-490.5 140,-490.5"/>
<text text-anchor="start" x="148" y="-508.5" font-family="Helvetica,sans-Serif" font-size="10.00">el::base::TypedConfigurations</text>
<text text-anchor="middle" x="212.5" y="-497.5" font-family="Helvetica,sans-Serif" font-size="10.00">::filename</text>
</a>
</g>
</g>
<!-- Node41&#45;&gt;Node43 -->
<g id="edge2" class="edge"><title>Node41&#45;&gt;Node43</title>
<path fill="none" stroke="midnightblue" d="M57.3298,-309.623C65.7924,-351.216 88.4113,-434.453 140,-481.5 143.773,-484.941 148.056,-487.891 152.606,-490.419"/>
<polygon fill="midnightblue" stroke="midnightblue" points="60.7584,-308.917 55.4319,-299.759 53.8845,-310.24 60.7584,-308.917"/>
</g>
<!-- Node45 -->
<g id="node5" class="node"><title>Node45</title>
<g id="a_node5"><a xlink:href="classel_1_1base_1_1_typed_configurations.html#af39c020c90e67b5f817f318fcb11e611" target="_top" xlink:title="el::base::TypedConfigurations\l::fileStream">
<polygon fill="white" stroke="black" points="140,-392.5 140,-422.5 285,-422.5 285,-392.5 140,-392.5"/>
<text text-anchor="start" x="148" y="-410.5" font-family="Helvetica,sans-Serif" font-size="10.00">el::base::TypedConfigurations</text>
<text text-anchor="middle" x="212.5" y="-399.5" font-family="Helvetica,sans-Serif" font-size="10.00">::fileStream</text>
</a>
</g>
</g>
<!-- Node41&#45;&gt;Node45 -->
<g id="edge4" class="edge"><title>Node41&#45;&gt;Node45</title>
<path fill="none" stroke="midnightblue" d="M68.2454,-308.105C83.804,-330.452 109.892,-363.479 140,-383.5 145.125,-386.908 150.777,-389.873 156.592,-392.444"/>
<polygon fill="midnightblue" stroke="midnightblue" points="71.1357,-306.132 62.6213,-299.826 65.3453,-310.065 71.1357,-306.132"/>
</g>
<!-- Node47 -->
<g id="node7" class="node"><title>Node47</title>
<g id="a_node7"><a xlink:href="classel_1_1base_1_1_typed_configurations.html#a858bb6bc3328dc87a5ff31a42f16ee74" target="_top" xlink:title="el::base::TypedConfigurations\l::insertFile">
<polygon fill="white" stroke="black" points="140,-294.5 140,-324.5 285,-324.5 285,-294.5 140,-294.5"/>
<text text-anchor="start" x="148" y="-312.5" font-family="Helvetica,sans-Serif" font-size="10.00">el::base::TypedConfigurations</text>
<text text-anchor="middle" x="212.5" y="-301.5" font-family="Helvetica,sans-Serif" font-size="10.00">::insertFile</text>
</a>
</g>
</g>
<!-- Node41&#45;&gt;Node47 -->
<g id="edge7" class="edge"><title>Node41&#45;&gt;Node47</title>
<path fill="none" stroke="midnightblue" d="M114.109,-294.139C122.516,-295.465 131.212,-296.836 139.789,-298.189"/>
<polygon fill="midnightblue" stroke="midnightblue" points="114.446,-290.649 104.023,-292.548 113.355,-297.563 114.446,-290.649"/>
</g>
<!-- Node48 -->
<g id="node8" class="node"><title>Node48</title>
<g id="a_node8"><a xlink:href="classel_1_1base_1_1_typed_configurations.html#ae8710257d7f8bc20c2183a3a4404ebaf" target="_top" xlink:title="el::base::TypedConfigurations\l::logFlushThreshold">
<polygon fill="white" stroke="black" points="140,-245.5 140,-275.5 285,-275.5 285,-245.5 140,-245.5"/>
<text text-anchor="start" x="148" y="-263.5" font-family="Helvetica,sans-Serif" font-size="10.00">el::base::TypedConfigurations</text>
<text text-anchor="middle" x="212.5" y="-252.5" font-family="Helvetica,sans-Serif" font-size="10.00">::logFlushThreshold</text>
</a>
</g>
</g>
<!-- Node41&#45;&gt;Node48 -->
<g id="edge8" class="edge"><title>Node41&#45;&gt;Node48</title>
<path fill="none" stroke="midnightblue" d="M114.109,-275.247C122.516,-273.974 131.212,-272.657 139.789,-271.358"/>
<polygon fill="midnightblue" stroke="midnightblue" points="113.386,-271.816 104.023,-276.774 114.434,-278.737 113.386,-271.816"/>
</g>
<!-- Node49 -->
<g id="node9" class="node"><title>Node49</title>
<g id="a_node9"><a xlink:href="classel_1_1base_1_1_typed_configurations.html#a05b8ea32f63c3246a68dbc9085b7e847" target="_top" xlink:title="el::base::TypedConfigurations\l::logFormat">
<polygon fill="white" stroke="black" points="140,-196.5 140,-226.5 285,-226.5 285,-196.5 140,-196.5"/>
<text text-anchor="start" x="148" y="-214.5" font-family="Helvetica,sans-Serif" font-size="10.00">el::base::TypedConfigurations</text>
<text text-anchor="middle" x="212.5" y="-203.5" font-family="Helvetica,sans-Serif" font-size="10.00">::logFormat</text>
</a>
</g>
</g>
<!-- Node41&#45;&gt;Node49 -->
<g id="edge9" class="edge"><title>Node41&#45;&gt;Node49</title>
<path fill="none" stroke="midnightblue" d="M86.4723,-264.308C102.371,-255.168 121.832,-244.619 140,-236.5 147.924,-232.959 156.514,-229.582 164.901,-226.52"/>
<polygon fill="midnightblue" stroke="midnightblue" points="84.4402,-261.441 77.5596,-269.498 87.9625,-267.49 84.4402,-261.441"/>
</g>
<!-- Node63 -->
<g id="node23" class="node"><title>Node63</title>
<g id="a_node23"><a xlink:href="classel_1_1base_1_1_typed_configurations.html#aa48c0568be8fd177f1d463b1e7831f75" target="_top" xlink:title="el::base::TypedConfigurations\l::maxLogFileSize">
<polygon fill="white" stroke="black" points="140,-98.5 140,-128.5 285,-128.5 285,-98.5 140,-98.5"/>
<text text-anchor="start" x="148" y="-116.5" font-family="Helvetica,sans-Serif" font-size="10.00">el::base::TypedConfigurations</text>
<text text-anchor="middle" x="212.5" y="-105.5" font-family="Helvetica,sans-Serif" font-size="10.00">::maxLogFileSize</text>
</a>
</g>
</g>
<!-- Node41&#45;&gt;Node63 -->
<g id="edge23" class="edge"><title>Node41&#45;&gt;Node63</title>
<path fill="none" stroke="midnightblue" d="M61.4877,-259.496C73.7949,-226.882 99.6376,-170.148 140,-137.5 144.276,-134.041 149.073,-131.072 154.106,-128.524"/>
<polygon fill="midnightblue" stroke="midnightblue" points="58.0957,-258.582 57.9662,-269.176 64.674,-260.975 58.0957,-258.582"/>
</g>
<!-- Node64 -->
<g id="node24" class="node"><title>Node64</title>
<g id="a_node24"><a xlink:href="classel_1_1base_1_1_typed_configurations.html#afd65ea428144f620d8514073341db670" target="_top" xlink:title="el::base::TypedConfigurations\l::millisecondsWidth">
<polygon fill="white" stroke="black" points="140,-49.5 140,-79.5 285,-79.5 285,-49.5 140,-49.5"/>
<text text-anchor="start" x="148" y="-67.5" font-family="Helvetica,sans-Serif" font-size="10.00">el::base::TypedConfigurations</text>
<text text-anchor="middle" x="212.5" y="-56.5" font-family="Helvetica,sans-Serif" font-size="10.00">::millisecondsWidth</text>
</a>
</g>
</g>
<!-- Node41&#45;&gt;Node64 -->
<g id="edge24" class="edge"><title>Node41&#45;&gt;Node64</title>
<path fill="none" stroke="midnightblue" d="M57.4227,-259.239C65.9836,-217.766 88.6953,-135.2 140,-88.5 143.776,-85.0625 148.062,-82.1154 152.613,-79.589"/>
<polygon fill="midnightblue" stroke="midnightblue" points="53.9361,-258.832 55.4564,-269.317 60.8066,-260.173 53.9361,-258.832"/>
</g>
<!-- Node65 -->
<g id="node25" class="node"><title>Node65</title>
<g id="a_node25"><a xlink:href="classel_1_1base_1_1_typed_configurations.html#a0cef785df86dbfe17a27c5b78ed3e5da" target="_top" xlink:title="el::base::TypedConfigurations\l::performanceTracking">
<polygon fill="white" stroke="black" points="140,-0.5 140,-30.5 285,-30.5 285,-0.5 140,-0.5"/>
<text text-anchor="start" x="148" y="-18.5" font-family="Helvetica,sans-Serif" font-size="10.00">el::base::TypedConfigurations</text>
<text text-anchor="middle" x="212.5" y="-7.5" font-family="Helvetica,sans-Serif" font-size="10.00">::performanceTracking</text>
</a>
</g>
</g>
<!-- Node41&#45;&gt;Node65 -->
<g id="edge25" class="edge"><title>Node41&#45;&gt;Node65</title>
<path fill="none" stroke="midnightblue" d="M54.8244,-259.381C59.7311,-210.271 77.4484,-100.975 140,-39.5 143.455,-36.1041 147.405,-33.1886 151.635,-30.6853"/>
<polygon fill="midnightblue" stroke="midnightblue" points="51.3293,-259.17 53.9171,-269.444 58.301,-259.799 51.3293,-259.17"/>
</g>
<!-- Node67 -->
<g id="node27" class="node"><title>Node67</title>
<g id="a_node27"><a xlink:href="classel_1_1base_1_1_typed_configurations.html#a674125948caf78b836a5b4f38561c8cc" target="_top" xlink:title="el::base::TypedConfigurations\l::subsecondPrecision">
<polygon fill="white" stroke="black" points="140,-147.5 140,-177.5 285,-177.5 285,-147.5 140,-147.5"/>
<text text-anchor="start" x="148" y="-165.5" font-family="Helvetica,sans-Serif" font-size="10.00">el::base::TypedConfigurations</text>
<text text-anchor="middle" x="212.5" y="-154.5" font-family="Helvetica,sans-Serif" font-size="10.00">::subsecondPrecision</text>
</a>
</g>
</g>
<!-- Node41&#45;&gt;Node67 -->
<g id="edge27" class="edge"><title>Node41&#45;&gt;Node67</title>
<path fill="none" stroke="midnightblue" d="M68.5063,-260.844C84.1279,-238.733 110.146,-206.244 140,-186.5 145.133,-183.105 150.791,-180.148 156.609,-177.582"/>
<polygon fill="midnightblue" stroke="midnightblue" points="65.4497,-259.112 62.6586,-269.333 71.2141,-263.083 65.4497,-259.112"/>
</g>
<!-- Node68 -->
<g id="node28" class="node"><title>Node68</title>
<g id="a_node28"><a xlink:href="classel_1_1base_1_1_typed_configurations.html#a20b9a1bd152cad3b72b558f97de3876b" target="_top" xlink:title="el::base::TypedConfigurations\l::toFile">
<polygon fill="white" stroke="black" points="140,-343.5 140,-373.5 285,-373.5 285,-343.5 140,-343.5"/>
<text text-anchor="start" x="148" y="-361.5" font-family="Helvetica,sans-Serif" font-size="10.00">el::base::TypedConfigurations</text>
<text text-anchor="middle" x="212.5" y="-350.5" font-family="Helvetica,sans-Serif" font-size="10.00">::toFile</text>
</a>
</g>
</g>
<!-- Node41&#45;&gt;Node68 -->
<g id="edge29" class="edge"><title>Node41&#45;&gt;Node68</title>
<path fill="none" stroke="midnightblue" d="M85.2985,-305.105C101.349,-314.81 121.274,-326.076 140,-334.5 147.045,-337.669 154.641,-340.653 162.159,-343.367"/>
<polygon fill="midnightblue" stroke="midnightblue" points="86.6881,-301.851 76.3343,-299.604 83.027,-307.817 86.6881,-301.851"/>
</g>
<!-- Node69 -->
<g id="node29" class="node"><title>Node69</title>
<g id="a_node29"><a xlink:href="classel_1_1base_1_1_typed_configurations.html#aeaa7bf7448319bc41e4e226124288c7e" target="_top" xlink:title="el::base::TypedConfigurations\l::toStandardOutput">
<polygon fill="white" stroke="black" points="140,-441.5 140,-471.5 285,-471.5 285,-441.5 140,-441.5"/>
<text text-anchor="start" x="148" y="-459.5" font-family="Helvetica,sans-Serif" font-size="10.00">el::base::TypedConfigurations</text>
<text text-anchor="middle" x="212.5" y="-448.5" font-family="Helvetica,sans-Serif" font-size="10.00">::toStandardOutput</text>
</a>
</g>
</g>
<!-- Node41&#45;&gt;Node69 -->
<g id="edge32" class="edge"><title>Node41&#45;&gt;Node69</title>
<path fill="none" stroke="midnightblue" d="M61.4412,-309.673C73.697,-342.508 99.4828,-399.627 140,-432.5 144.271,-435.965 149.064,-438.939 154.095,-441.49"/>
<polygon fill="midnightblue" stroke="midnightblue" points="64.6139,-308.153 57.936,-299.928 58.027,-310.522 64.6139,-308.153"/>
</g>
<!-- Node44 -->
<g id="node4" class="node"><title>Node44</title>
<g id="a_node4"><a xlink:href="classel_1_1base_1_1_default_log_dispatch_callback.html#adc7c200395c99534d55cb23cfabafcb1" target="_top" xlink:title="el::base::DefaultLogDispatch\lCallback::dispatch">
<polygon fill="white" stroke="black" points="321,-416.5 321,-446.5 462,-446.5 462,-416.5 321,-416.5"/>
<text text-anchor="start" x="329" y="-434.5" font-family="Helvetica,sans-Serif" font-size="10.00">el::base::DefaultLogDispatch</text>
<text text-anchor="middle" x="391.5" y="-423.5" font-family="Helvetica,sans-Serif" font-size="10.00">Callback::dispatch</text>
</a>
</g>
</g>
<!-- Node43&#45;&gt;Node44 -->
<g id="edge3" class="edge"><title>Node43&#45;&gt;Node44</title>
<path fill="none" stroke="midnightblue" d="M270.552,-487.032C275.466,-485.235 280.338,-483.38 285,-481.5 311.13,-470.966 339.988,-457.13 360.907,-446.684"/>
<polygon fill="midnightblue" stroke="midnightblue" points="269.338,-483.748 261.095,-490.404 271.69,-490.342 269.338,-483.748"/>
</g>
<!-- Node45&#45;&gt;Node44 -->
<g id="edge6" class="edge"><title>Node45&#45;&gt;Node44</title>
<path fill="none" stroke="midnightblue" d="M295.261,-418.586C303.849,-419.751 312.523,-420.927 320.955,-422.07"/>
<polygon fill="midnightblue" stroke="midnightblue" points="295.617,-415.103 285.238,-417.227 294.677,-422.039 295.617,-415.103"/>
</g>
<!-- Node46 -->
<g id="node6" class="node"><title>Node46</title>
<g id="a_node6"><a xlink:href="classel_1_1_logger.html#a83c85278ebeeef6a24cc112e56c344dd" target="_top" xlink:title="el::Logger::flush">
<polygon fill="white" stroke="black" points="348.5,-363 348.5,-382 434.5,-382 434.5,-363 348.5,-363"/>
<text text-anchor="middle" x="391.5" y="-370" font-family="Helvetica,sans-Serif" font-size="10.00">el::Logger::flush</text>
</a>
</g>
</g>
<!-- Node45&#45;&gt;Node46 -->
<g id="edge5" class="edge"><title>Node45&#45;&gt;Node46</title>
<path fill="none" stroke="midnightblue" d="M295.124,-391.36C313.568,-387.713 332.412,-383.986 348.427,-380.819"/>
<polygon fill="midnightblue" stroke="midnightblue" points="294.369,-387.941 285.238,-393.315 295.727,-394.808 294.369,-387.941"/>
</g>
<!-- Node50 -->
<g id="node10" class="node"><title>Node50</title>
<g id="a_node10"><a xlink:href="classel_1_1_logger.html#acfb9ef869b9b4dc3efd78d7f64b8bebd" target="_top" xlink:title="el::Logger::resolveLogger\lFormatSpec">
<polygon fill="white" stroke="black" points="329,-196.5 329,-226.5 454,-226.5 454,-196.5 329,-196.5"/>
<text text-anchor="start" x="337" y="-214.5" font-family="Helvetica,sans-Serif" font-size="10.00">el::Logger::resolveLogger</text>
<text text-anchor="middle" x="391.5" y="-203.5" font-family="Helvetica,sans-Serif" font-size="10.00">FormatSpec</text>
</a>
</g>
</g>
<!-- Node49&#45;&gt;Node50 -->
<g id="edge10" class="edge"><title>Node49&#45;&gt;Node50</title>
<path fill="none" stroke="midnightblue" d="M295.493,-211.5C306.726,-211.5 318.1,-211.5 328.885,-211.5"/>
<polygon fill="midnightblue" stroke="midnightblue" points="295.238,-208 285.238,-211.5 295.237,-215 295.238,-208"/>
</g>
<!-- Node62 -->
<g id="node22" class="node"><title>Node62</title>
<g id="a_node22"><a xlink:href="classel_1_1base_1_1_default_log_builder.html#a9ee7983bc51f1fac887806e909ecbbbd" target="_top" xlink:title="el::base::DefaultLogBuilder\l::build">
<polygon fill="white" stroke="black" points="325,-147.5 325,-177.5 458,-177.5 458,-147.5 325,-147.5"/>
<text text-anchor="start" x="333" y="-165.5" font-family="Helvetica,sans-Serif" font-size="10.00">el::base::DefaultLogBuilder</text>
<text text-anchor="middle" x="391.5" y="-154.5" font-family="Helvetica,sans-Serif" font-size="10.00">::build</text>
</a>
</g>
</g>
<!-- Node49&#45;&gt;Node62 -->
<g id="edge22" class="edge"><title>Node49&#45;&gt;Node62</title>
<path fill="none" stroke="midnightblue" d="M277.875,-193.679C296.985,-188.388 317.721,-182.648 336.13,-177.552"/>
<polygon fill="midnightblue" stroke="midnightblue" points="276.754,-190.357 268.05,-196.399 278.621,-197.104 276.754,-190.357"/>
</g>
<!-- Node51 -->
<g id="node11" class="node"><title>Node51</title>
<g id="a_node11"><a xlink:href="classel_1_1_logger.html#ad9db621dbf8977bf814dc7baea8dcee4" target="_top" xlink:title="Configures the logger using specified configurations. ">
<polygon fill="white" stroke="black" points="498,-202 498,-221 602,-221 602,-202 498,-202"/>
<text text-anchor="middle" x="550" y="-209" font-family="Helvetica,sans-Serif" font-size="10.00">el::Logger::configure</text>
</a>
</g>
</g>
<!-- Node50&#45;&gt;Node51 -->
<g id="edge11" class="edge"><title>Node50&#45;&gt;Node51</title>
<path fill="none" stroke="midnightblue" d="M464.546,-211.5C475.726,-211.5 487.076,-211.5 497.675,-211.5"/>
<polygon fill="midnightblue" stroke="midnightblue" points="464.353,-208 454.353,-211.5 464.353,-215 464.353,-208"/>
</g>
<!-- Node52 -->
<g id="node12" class="node"><title>Node52</title>
<g id="a_node12"><a xlink:href="classel_1_1_loggers.html#adedfcc17831fe3d3f14026c91e8df88c" target="_top" xlink:title="Sets configurations from global configuration file. ">
<polygon fill="white" stroke="black" points="638,-259.5 638,-289.5 770,-289.5 770,-259.5 638,-259.5"/>
<text text-anchor="start" x="646" y="-277.5" font-family="Helvetica,sans-Serif" font-size="10.00">el::Loggers::configureFrom</text>
<text text-anchor="middle" x="704" y="-266.5" font-family="Helvetica,sans-Serif" font-size="10.00">Global</text>
</a>
</g>
</g>
<!-- Node51&#45;&gt;Node52 -->
<g id="edge12" class="edge"><title>Node51&#45;&gt;Node52</title>
<path fill="none" stroke="midnightblue" d="M581.571,-225.251C598.186,-232.623 619.136,-241.757 638,-249.5 646.053,-252.806 654.718,-256.229 663.014,-259.443"/>
<polygon fill="midnightblue" stroke="midnightblue" points="582.897,-222.01 572.339,-221.137 580.049,-228.404 582.897,-222.01"/>
</g>
<!-- Node53 -->
<g id="node13" class="node"><title>Node53</title>
<g id="a_node13"><a xlink:href="classel_1_1_logger.html#a43abea8865d7316f05c8a676a8c04896" target="_top" xlink:title="el::Logger::Logger">
<polygon fill="white" stroke="black" points="656.5,-221 656.5,-240 751.5,-240 751.5,-221 656.5,-221"/>
<text text-anchor="middle" x="704" y="-228" font-family="Helvetica,sans-Serif" font-size="10.00">el::Logger::Logger</text>
</a>
</g>
</g>
<!-- Node51&#45;&gt;Node53 -->
<g id="edge13" class="edge"><title>Node51&#45;&gt;Node53</title>
<path fill="none" stroke="midnightblue" d="M612.116,-219.14C626.898,-220.987 642.461,-222.933 656.449,-224.681"/>
<polygon fill="midnightblue" stroke="midnightblue" points="612.394,-215.647 602.037,-217.88 611.525,-222.593 612.394,-215.647"/>
</g>
<!-- Node54 -->
<g id="node14" class="node"><title>Node54</title>
<g id="a_node14"><a xlink:href="classel_1_1_logger.html#adfd57ab27fb398cc980a3edfab92927e" target="_top" xlink:title="Reconfigures logger using existing configurations. ">
<polygon fill="white" stroke="black" points="647.5,-183 647.5,-202 760.5,-202 760.5,-183 647.5,-183"/>
<text text-anchor="middle" x="704" y="-190" font-family="Helvetica,sans-Serif" font-size="10.00">el::Logger::reconfigure</text>
</a>
</g>
</g>
<!-- Node51&#45;&gt;Node54 -->
<g id="edge14" class="edge"><title>Node51&#45;&gt;Node54</title>
<path fill="none" stroke="midnightblue" d="M612.127,-203.859C623.784,-202.402 635.926,-200.884 647.399,-199.45"/>
<polygon fill="midnightblue" stroke="midnightblue" points="611.525,-200.407 602.037,-205.12 612.394,-207.353 611.525,-200.407"/>
</g>
<!-- Node58 -->
<g id="node18" class="node"><title>Node58</title>
<g id="a_node18"><a xlink:href="classel_1_1_loggers.html#a02223004494a404a2c3e7cd0c4380d3b" target="_top" xlink:title="Reconfigures specified logger with new configurations. ">
<polygon fill="white" stroke="black" points="645,-104.5 645,-134.5 763,-134.5 763,-104.5 645,-104.5"/>
<text text-anchor="start" x="653" y="-122.5" font-family="Helvetica,sans-Serif" font-size="10.00">el::Loggers::reconfigure</text>
<text text-anchor="middle" x="704" y="-111.5" font-family="Helvetica,sans-Serif" font-size="10.00">Logger</text>
</a>
</g>
</g>
<!-- Node51&#45;&gt;Node58 -->
<g id="edge18" class="edge"><title>Node51&#45;&gt;Node58</title>
<path fill="none" stroke="midnightblue" d="M575.811,-196.483C603.986,-179.429 649.699,-151.761 677.966,-134.652"/>
<polygon fill="midnightblue" stroke="midnightblue" points="573.722,-193.656 566.979,-201.828 577.347,-199.644 573.722,-193.656"/>
</g>
<!-- Node55 -->
<g id="node15" class="node"><title>Node55</title>
<g id="a_node15"><a xlink:href="classel_1_1_loggers.html#a396b601e204ede36f5a9acc76a8c5585" target="_top" xlink:title="Reconfigures single configuration for all the loggers for specified level. ">
<polygon fill="white" stroke="black" points="806,-251.5 806,-281.5 924,-281.5 924,-251.5 806,-251.5"/>
<text text-anchor="start" x="814" y="-269.5" font-family="Helvetica,sans-Serif" font-size="10.00">el::Loggers::reconfigure</text>
<text text-anchor="middle" x="865" y="-258.5" font-family="Helvetica,sans-Serif" font-size="10.00">AllLoggers</text>
</a>
</g>
</g>
<!-- Node54&#45;&gt;Node55 -->
<g id="edge15" class="edge"><title>Node54&#45;&gt;Node55</title>
<path fill="none" stroke="midnightblue" d="M756.782,-205.409C761.357,-207.21 765.829,-209.234 770,-211.5 788.554,-221.579 788.017,-231.434 806,-242.5 811.29,-245.755 817.1,-248.751 822.936,-251.441"/>
<polygon fill="midnightblue" stroke="midnightblue" points="757.906,-202.094 747.312,-202.016 755.546,-208.683 757.906,-202.094"/>
</g>
<!-- Node56 -->
<g id="node16" class="node"><title>Node56</title>
<g id="a_node16"><a xlink:href="classel_1_1_loggers.html#a89ec21259cfcfee3f761fca68c4ec043" target="_top" xlink:title="Reconfigures logger&#39;s single configuration. ">
<polygon fill="white" stroke="black" points="806,-202.5 806,-232.5 924,-232.5 924,-202.5 806,-202.5"/>
<text text-anchor="start" x="814" y="-220.5" font-family="Helvetica,sans-Serif" font-size="10.00">el::Loggers::reconfigure</text>
<text text-anchor="middle" x="865" y="-209.5" font-family="Helvetica,sans-Serif" font-size="10.00">Logger</text>
</a>
</g>
</g>
<!-- Node54&#45;&gt;Node56 -->
<g id="edge16" class="edge"><title>Node54&#45;&gt;Node56</title>
<path fill="none" stroke="midnightblue" d="M770.751,-202.838C782.44,-204.676 794.538,-206.578 805.993,-208.379"/>
<polygon fill="midnightblue" stroke="midnightblue" points="771.033,-199.34 760.61,-201.244 769.945,-206.255 771.033,-199.34"/>
</g>
<!-- Node57 -->
<g id="node17" class="node"><title>Node57</title>
<g id="a_node17"><a xlink:href="classel_1_1base_1_1_storage.html#a4932a8f8a55c3b00467cf2feed6acf59" target="_top" xlink:title="el::base::Storage::\lStorage">
<polygon fill="white" stroke="black" points="816.5,-153.5 816.5,-183.5 913.5,-183.5 913.5,-153.5 816.5,-153.5"/>
<text text-anchor="start" x="824.5" y="-171.5" font-family="Helvetica,sans-Serif" font-size="10.00">el::base::Storage::</text>
<text text-anchor="middle" x="865" y="-160.5" font-family="Helvetica,sans-Serif" font-size="10.00">Storage</text>
</a>
</g>
</g>
<!-- Node54&#45;&gt;Node57 -->
<g id="edge17" class="edge"><title>Node54&#45;&gt;Node57</title>
<path fill="none" stroke="midnightblue" d="M770.563,-182.604C785.903,-180.288 801.958,-177.865 816.345,-175.693"/>
<polygon fill="midnightblue" stroke="midnightblue" points="769.976,-179.153 760.61,-184.106 771.021,-186.074 769.976,-179.153"/>
</g>
<!-- Node59 -->
<g id="node19" class="node"><title>Node59</title>
<g id="a_node19"><a xlink:href="classel_1_1_loggers.html#a42f99e79d72d391df563df8d09272194" target="_top" xlink:title="Reconfigures all the existing loggers with new configurations. ">
<polygon fill="white" stroke="black" points="806,-55.5 806,-85.5 924,-85.5 924,-55.5 806,-55.5"/>
<text text-anchor="start" x="814" y="-73.5" font-family="Helvetica,sans-Serif" font-size="10.00">el::Loggers::reconfigure</text>
<text text-anchor="middle" x="865" y="-62.5" font-family="Helvetica,sans-Serif" font-size="10.00">AllLoggers</text>
</a>
</g>
</g>
<!-- Node58&#45;&gt;Node59 -->
<g id="edge19" class="edge"><title>Node58&#45;&gt;Node59</title>
<path fill="none" stroke="midnightblue" d="M763.775,-101.387C780.678,-96.1778 798.926,-90.5543 815.159,-85.5516"/>
<polygon fill="midnightblue" stroke="midnightblue" points="762.528,-98.1086 754.003,-104.399 764.59,-104.798 762.528,-98.1086"/>
</g>
<!-- Node61 -->
<g id="node21" class="node"><title>Node61</title>
<g id="a_node21"><a xlink:href="classel_1_1_loggers.html#af3252cc39fa4ac17b4abf50acf6b4c5e" target="_top" xlink:title="Reconfigures logger with new configurations after looking it up using identity. ">
<polygon fill="white" stroke="black" points="806,-104.5 806,-134.5 924,-134.5 924,-104.5 806,-104.5"/>
<text text-anchor="start" x="814" y="-122.5" font-family="Helvetica,sans-Serif" font-size="10.00">el::Loggers::reconfigure</text>
<text text-anchor="middle" x="865" y="-111.5" font-family="Helvetica,sans-Serif" font-size="10.00">Logger</text>
</a>
</g>
</g>
<!-- Node58&#45;&gt;Node61 -->
<g id="edge21" class="edge"><title>Node58&#45;&gt;Node61</title>
<path fill="none" stroke="midnightblue" d="M773.551,-119.5C784.355,-119.5 795.434,-119.5 805.97,-119.5"/>
<polygon fill="midnightblue" stroke="midnightblue" points="773.303,-116 763.303,-119.5 773.303,-123 773.303,-116"/>
</g>
<!-- Node60 -->
<g id="node20" class="node"><title>Node60</title>
<g id="a_node20"><a xlink:href="classel_1_1_loggers.html#a3f478b619f82cab39244ed8cde4778e2" target="_top" xlink:title="Sets default configurations. This configuration is used for future (and conditionally for existing) l...">
<polygon fill="white" stroke="black" points="960,-61 960,-80 1136,-80 1136,-61 960,-61"/>
<text text-anchor="middle" x="1048" y="-68" font-family="Helvetica,sans-Serif" font-size="10.00">el::Loggers::setDefaultConfigurations</text>
</a>
</g>
</g>
<!-- Node59&#45;&gt;Node60 -->
<g id="edge20" class="edge"><title>Node59&#45;&gt;Node60</title>
<path fill="none" stroke="midnightblue" d="M934.299,-70.5C942.65,-70.5 951.271,-70.5 959.851,-70.5"/>
<polygon fill="midnightblue" stroke="midnightblue" points="934.266,-67.0001 924.266,-70.5 934.266,-74.0001 934.266,-67.0001"/>
</g>
<!-- Node66 -->
<g id="node26" class="node"><title>Node66</title>
<g id="a_node26"><a xlink:href="classel_1_1base_1_1_p_error_writer.html#adc8b5fe696977395f0e8b0ee5d5caf60" target="_top" xlink:title="el::base::PErrorWriter\l::~PErrorWriter">
<polygon fill="white" stroke="black" points="336,-0.5 336,-30.5 447,-30.5 447,-0.5 336,-0.5"/>
<text text-anchor="start" x="344" y="-18.5" font-family="Helvetica,sans-Serif" font-size="10.00">el::base::PErrorWriter</text>
<text text-anchor="middle" x="391.5" y="-7.5" font-family="Helvetica,sans-Serif" font-size="10.00">::~PErrorWriter</text>
</a>
</g>
</g>
<!-- Node65&#45;&gt;Node66 -->
<g id="edge26" class="edge"><title>Node65&#45;&gt;Node66</title>
<path fill="none" stroke="midnightblue" d="M295.598,-15.5C309.226,-15.5 323.058,-15.5 335.791,-15.5"/>
<polygon fill="midnightblue" stroke="midnightblue" points="295.238,-12.0001 285.238,-15.5 295.237,-19.0001 295.238,-12.0001"/>
</g>
<!-- Node67&#45;&gt;Node62 -->
<g id="edge28" class="edge"><title>Node67&#45;&gt;Node62</title>
<path fill="none" stroke="midnightblue" d="M295.473,-162.5C305.352,-162.5 315.34,-162.5 324.942,-162.5"/>
<polygon fill="midnightblue" stroke="midnightblue" points="295.238,-159 285.238,-162.5 295.237,-166 295.238,-159"/>
</g>
<!-- Node68&#45;&gt;Node44 -->
<g id="edge31" class="edge"><title>Node68&#45;&gt;Node44</title>
<path fill="none" stroke="midnightblue" d="M268.264,-377.075C273.942,-379.172 279.606,-381.335 285,-383.5 310.398,-393.693 338.585,-406.603 359.43,-416.466"/>
<polygon fill="midnightblue" stroke="midnightblue" points="269.332,-373.74 258.738,-373.62 266.945,-380.32 269.332,-373.74"/>
</g>
<!-- Node68&#45;&gt;Node46 -->
<g id="edge30" class="edge"><title>Node68&#45;&gt;Node46</title>
<path fill="none" stroke="midnightblue" d="M295.379,-364.976C313.742,-366.429 332.486,-367.911 348.427,-369.172"/>
<polygon fill="midnightblue" stroke="midnightblue" points="295.482,-361.474 285.238,-364.174 294.93,-368.452 295.482,-361.474"/>
</g>
<!-- Node69&#45;&gt;Node44 -->
<g id="edge33" class="edge"><title>Node69&#45;&gt;Node44</title>
<path fill="none" stroke="midnightblue" d="M295.261,-444.952C303.849,-443.739 312.523,-442.514 320.955,-441.323"/>
<polygon fill="midnightblue" stroke="midnightblue" points="294.65,-441.503 285.238,-446.368 295.629,-448.435 294.65,-441.503"/>
</g>
</g>
</svg>
        <g id="navigator" transform="translate(0 0)" fill="#404254">
                <rect fill="#f2f5e9" fill-opacity="0.5" stroke="#606060" stroke-width=".5" x="0" y="0" width="60" height="60"/>
                <use id="zoomplus" xlink:href="#zoomPlus" x="17" y="9" onmousedown="handleZoom(evt,'in')"/>
                <use id="zoomminus" xlink:href="#zoomMin" x="42" y="9" onmousedown="handleZoom(evt,'out')"/>
                <use id="reset" xlink:href="#resetDef" x="30" y="36" onmousedown="handleReset()"/>
                <g id="arrowUp" xlink:href="#dirArrow" transform="translate(30 24)" onmousedown="handlePan(0,-1)">
                  <use xlink:href="#rim" fill="#404040">
                        <set attributeName="fill" to="#808080" begin="arrowUp.mouseover" end="arrowUp.mouseout"/>
                  </use>
                  <path fill="none" stroke="white" stroke-width="1.5" d="M0,-3.0v7 M-2.5,-0.5L0,-3.0L2.5,-0.5"/>
                </g>
                <g id="arrowRight" xlink:href="#dirArrow" transform="rotate(90) translate(36 -43)" onmousedown="handlePan(1,0)">
                  <use xlink:href="#rim" fill="#404040">
                        <set attributeName="fill" to="#808080" begin="arrowRight.mouseover" end="arrowRight.mouseout"/>
                  </use>
                  <path fill="none" stroke="white" stroke-width="1.5" d="M0,-3.0v7 M-2.5,-0.5L0,-3.0L2.5,-0.5"/>
                </g>
                <g id="arrowDown" xlink:href="#dirArrow" transform="rotate(180) translate(-30 -48)" onmousedown="handlePan(0,1)">
                  <use xlink:href="#rim" fill="#404040">
                        <set attributeName="fill" to="#808080" begin="arrowDown.mouseover" end="arrowDown.mouseout"/>
                  </use>
                  <path fill="none" stroke="white" stroke-width="1.5" d="M0,-3.0v7 M-2.5,-0.5L0,-3.0L2.5,-0.5"/>
                </g>
                <g id="arrowLeft" xlink:href="#dirArrow" transform="rotate(270) translate(-36 17)" onmousedown="handlePan(-1,0)">
                  <use xlink:href="#rim" fill="#404040">
                        <set attributeName="fill" to="#808080" begin="arrowLeft.mouseover" end="arrowLeft.mouseout"/>
                  </use>
                  <path fill="none" stroke="white" stroke-width="1.5" d="M0,-3.0v7 M-2.5,-0.5L0,-3.0L2.5,-0.5"/>
                </g>
        </g>
        <svg viewBox="0 0 15 15" width="100%" height="30px" preserveAspectRatio="xMaxYMin meet">
         <g id="arrow_out" transform="scale(0.3 0.3)">
          <a xlink:href="classel_1_1base_1_1_log_format_aeacb2c9d313ce5713b3e85e03a4baab5_icgraph_org.svg" target="_base">
           <rect id="button" ry="5" rx="5" y="6" x="6" height="38" width="38"
                fill="#f2f5e9" fill-opacity="0.5" stroke="#606060" stroke-width="1.0"/>
           <path id="arrow"
             d="M 11.500037,31.436501 C 11.940474,20.09759 22.043105,11.32322 32.158766,21.979434 L 37.068811,17.246167 C 37.068811,17.246167 37.088388,32 37.088388,32 L 22.160133,31.978069 C 22.160133,31.978069 26.997745,27.140456 26.997745,27.140456 C 18.528582,18.264221 13.291696,25.230495 11.500037,31.436501 z"
             style="fill:#404040;"/>
          </a>
         </g>
        </svg>
</svg>
