<?xml version="1.0" encoding="UTF-8" standalone="no"?>
<!DOCTYPE svg PUBLIC "-//W3C//DTD SVG 1.1//EN"
 "http://www.w3.org/Graphics/SVG/1.1/DTD/svg11.dtd">
<!-- Generated by graphviz version 2.38.0 (20140413.2041)
 -->
<!-- Title: el::Configuration::level Pages: 1 -->
<svg width="281pt" height="127pt"
 viewBox="0.00 0.00 281.00 126.50" xmlns="http://www.w3.org/2000/svg" xmlns:xlink="http://www.w3.org/1999/xlink">
<g id="graph0" class="graph" transform="scale(1 1) rotate(0) translate(4 122.5)">
<title>el::Configuration::level</title>
<polygon fill="white" stroke="none" points="-4,4 -4,-122.5 277,-122.5 277,4 -4,4"/>
<!-- Node12 -->
<g id="node1" class="node"><title>Node12</title>
<polygon fill="#bfbfbf" stroke="black" points="0,-39 0,-69 92,-69 92,-39 0,-39"/>
<text text-anchor="start" x="8" y="-57" font-family="Helvetica,sans-Serif" font-size="10.00">el::Configuration::</text>
<text text-anchor="middle" x="46" y="-46" font-family="Helvetica,sans-Serif" font-size="10.00">level</text>
</g>
<!-- Node13 -->
<g id="node2" class="node"><title>Node13</title>
<g id="a_node2"><a xlink:href="classel_1_1base_1_1_typed_configurations.html#ac61af29d843691ac60aa34000183b2d8" target="_top" xlink:title="el::base::TypedConfigurations\l::build">
<polygon fill="white" stroke="black" points="128,-88 128,-118 273,-118 273,-88 128,-88"/>
<text text-anchor="start" x="136" y="-106" font-family="Helvetica,sans-Serif" font-size="10.00">el::base::TypedConfigurations</text>
<text text-anchor="middle" x="200.5" y="-95" font-family="Helvetica,sans-Serif" font-size="10.00">::build</text>
</a>
</g>
</g>
<!-- Node12&#45;&gt;Node13 -->
<g id="edge1" class="edge"><title>Node12&#45;&gt;Node13</title>
<path fill="none" stroke="midnightblue" d="M101.943,-71.6538C118.583,-77.0006 136.696,-82.8203 152.747,-87.9776"/>
<polygon fill="midnightblue" stroke="midnightblue" points="102.933,-68.2959 92.3421,-68.5689 100.792,-74.9603 102.933,-68.2959"/>
</g>
<!-- Node14 -->
<g id="node3" class="node"><title>Node14</title>
<g id="a_node3"><a xlink:href="classel_1_1_configuration_1_1_predicate.html#a961e7b14fc7541eefb04cbdcbc074e6e" target="_top" xlink:title="el::Configuration::\lPredicate::operator()">
<polygon fill="white" stroke="black" points="148,-39 148,-69 253,-69 253,-39 148,-39"/>
<text text-anchor="start" x="156" y="-57" font-family="Helvetica,sans-Serif" font-size="10.00">el::Configuration::</text>
<text text-anchor="middle" x="200.5" y="-46" font-family="Helvetica,sans-Serif" font-size="10.00">Predicate::operator()</text>
</a>
</g>
</g>
<!-- Node12&#45;&gt;Node14 -->
<g id="edge2" class="edge"><title>Node12&#45;&gt;Node14</title>
<path fill="none" stroke="midnightblue" d="M102.414,-54C117.271,-54 133.271,-54 147.911,-54"/>
<polygon fill="midnightblue" stroke="midnightblue" points="102.342,-50.5001 92.3421,-54 102.342,-57.5001 102.342,-50.5001"/>
</g>
<!-- Node15 -->
<g id="node4" class="node"><title>Node15</title>
<g id="a_node4"><a xlink:href="classel_1_1_configurations.html#a0ab07520b9409fe9f2c16a705d6936f1" target="_top" xlink:title="Sets single configuration based on other single configuration. ">
<polygon fill="white" stroke="black" points="145,-0.5 145,-19.5 256,-19.5 256,-0.5 145,-0.5"/>
<text text-anchor="middle" x="200.5" y="-7.5" font-family="Helvetica,sans-Serif" font-size="10.00">el::Configurations::set</text>
</a>
</g>
</g>
<!-- Node12&#45;&gt;Node15 -->
<g id="edge3" class="edge"><title>Node12&#45;&gt;Node15</title>
<path fill="none" stroke="midnightblue" d="M102.051,-37.5655C110.727,-35.0108 119.603,-32.4182 128,-30 140.015,-26.5399 153.19,-22.8305 164.921,-19.5575"/>
<polygon fill="midnightblue" stroke="midnightblue" points="100.974,-34.2338 92.3749,-40.4225 102.957,-40.9473 100.974,-34.2338"/>
</g>
</g>
</svg>
