<?xml version="1.0" encoding="UTF-8" standalone="no"?>
<!DOCTYPE svg PUBLIC "-//W3C//DTD SVG 1.1//EN"
 "http://www.w3.org/Graphics/SVG/1.1/DTD/svg11.dtd">
<!-- Generated by graphviz version 2.38.0 (20140413.2041)
 -->
<!-- Title: vpr::Device::Device Pages: 1 -->
<!--zoomable 504 -->
<svg id="main" version="1.1" xmlns="http://www.w3.org/2000/svg" xmlns:xlink="http://www.w3.org/1999/xlink" xml:space="preserve" onload="init(evt)">
<style type="text/css"><![CDATA[
.edge:hover path { stroke: red; }
.edge:hover polygon { stroke: red; fill: red; }
]]></style>
<script type="text/javascript"><![CDATA[
var edges = document.getElementsByTagName('g');
if (edges && edges.length) {
  for (var i=0;i<edges.length;i++) {
    if (edges[i].id.substr(0,4)=='edge') {
      edges[i].setAttribute('class','edge');
    }
  }
}
]]></script>
        <defs>
                <circle id="rim" cx="0" cy="0" r="7"/>
                <circle id="rim2" cx="0" cy="0" r="3.5"/>
                <g id="zoomPlus">
                        <use xlink:href="#rim" fill="#404040">
                                <set attributeName="fill" to="#808080" begin="zoomplus.mouseover" end="zoomplus.mouseout"/>
                        </use>
                        <path d="M-4,0h8M0,-4v8" fill="none" stroke="white" stroke-width="1.5" pointer-events="none"/>
                </g>
                <g id="zoomMin">
                        <use xlink:href="#rim" fill="#404040">
                                <set attributeName="fill" to="#808080" begin="zoomminus.mouseover" end="zoomminus.mouseout"/>
                        </use>
                        <path d="M-4,0h8" fill="none" stroke="white" stroke-width="1.5" pointer-events="none"/>
                </g>
                <g id="dirArrow">
                        <path fill="none" stroke="white" stroke-width="1.5" d="M0,-3.0v7 M-2.5,-0.5L0,-3.0L2.5,-0.5"/>
                </g>
               <g id="resetDef">
                       <use xlink:href="#rim2" fill="#404040">
                               <set attributeName="fill" to="#808080" begin="reset.mouseover" end="reset.mouseout"/>
                       </use>
               </g>
        </defs>

<script type="text/javascript">
var viewWidth = 942;
var viewHeight = 504;
var sectionId = 'dynsection-2';
</script>
<script xlink:href="svgpan.js"/>
<svg id="graph" class="graph">
<g id="viewport">
<title>vpr::Device::Device</title>
<polygon fill="white" stroke="none" points="-4,4 -4,-499.969 938,-499.969 938,4 -4,4"/>
<!-- Node26 -->
<g id="node1" class="node"><title>Node26</title>
<polygon fill="#bfbfbf" stroke="black" points="0,-226 0,-245 98,-245 98,-226 0,-226"/>
<text text-anchor="middle" x="49" y="-233" font-family="Helvetica,sans-Serif" font-size="10.00">vpr::Device::Device</text>
</g>
<!-- Node27 -->
<g id="node2" class="node"><title>Node27</title>
<g id="a_node2"><a xlink:href="classvpr_1_1_device.html#a3b0734cd598d9a64f3c459e9dc4e84ce" target="_top" xlink:title="vpr::Device::create">
<polygon fill="white" stroke="black" points="134,-226 134,-245 230,-245 230,-226 134,-226"/>
<text text-anchor="middle" x="182" y="-233" font-family="Helvetica,sans-Serif" font-size="10.00">vpr::Device::create</text>
</a>
</g>
</g>
<!-- Node26&#45;&gt;Node27 -->
<g id="edge1" class="edge"><title>Node26&#45;&gt;Node27</title>
<path fill="none" stroke="midnightblue" d="M98.0357,-235.5C106.342,-235.5 115.052,-235.5 123.578,-235.5"/>
<polygon fill="midnightblue" stroke="midnightblue" points="123.845,-239 133.845,-235.5 123.845,-232 123.845,-239"/>
</g>
<!-- Node28 -->
<g id="node3" class="node"><title>Node28</title>
<g id="a_node3"><a xlink:href="classvpr_1_1_device.html#ad468caae9ccd5b6b2f9dd00bd32faca3" target="_top" xlink:title="vpr::Device::VerifyPresentation\lSupport">
<polygon fill="white" stroke="black" points="266,-387.5 266,-417.5 415,-417.5 415,-387.5 266,-387.5"/>
<text text-anchor="start" x="274" y="-405.5" font-family="Helvetica,sans-Serif" font-size="10.00">vpr::Device::VerifyPresentation</text>
<text text-anchor="middle" x="340.5" y="-394.5" font-family="Helvetica,sans-Serif" font-size="10.00">Support</text>
</a>
</g>
</g>
<!-- Node27&#45;&gt;Node28 -->
<g id="edge2" class="edge"><title>Node27&#45;&gt;Node28</title>
<path fill="none" stroke="midnightblue" d="M192.321,-245.446C216.792,-271.559 283.358,-342.591 317.961,-379.516"/>
<polygon fill="midnightblue" stroke="midnightblue" points="315.84,-382.371 325.232,-387.274 320.947,-377.584 315.84,-382.371"/>
</g>
<!-- Node29 -->
<g id="node4" class="node"><title>Node29</title>
<g id="a_node4"><a xlink:href="classvpr_1_1_physical_device.html#a00de7d3556d98b1cfda28d1f769f8fa8" target="_top" xlink:title="vpr::PhysicalDevice\l::vkHandle">
<polygon fill="white" stroke="black" points="824,-387.5 824,-417.5 925,-417.5 925,-387.5 824,-387.5"/>
<text text-anchor="start" x="832" y="-405.5" font-family="Helvetica,sans-Serif" font-size="10.00">vpr::PhysicalDevice</text>
<text text-anchor="middle" x="874.5" y="-394.5" font-family="Helvetica,sans-Serif" font-size="10.00">::vkHandle</text>
</a>
</g>
</g>
<!-- Node27&#45;&gt;Node29 -->
<g id="edge33" class="edge"><title>Node27&#45;&gt;Node29</title>
<path fill="none" stroke="midnightblue" d="M184.039,-245.426C187.966,-277.557 204.943,-379.423 266,-427.5 435.461,-560.936 721.431,-465.434 829.96,-421.45"/>
<polygon fill="midnightblue" stroke="midnightblue" points="831.374,-424.653 839.294,-417.616 828.714,-418.178 831.374,-424.653"/>
</g>
<!-- Node31 -->
<g id="node6" class="node"><title>Node31</title>
<g id="a_node6"><a xlink:href="classvpr_1_1_device.html#af52c3b24f6bca1308a5170eb3acfeb11" target="_top" xlink:title="vpr::Device::setupQueues">
<polygon fill="white" stroke="black" points="277,-177 277,-196 404,-196 404,-177 277,-177"/>
<text text-anchor="middle" x="340.5" y="-184" font-family="Helvetica,sans-Serif" font-size="10.00">vpr::Device::setupQueues</text>
</a>
</g>
</g>
<!-- Node27&#45;&gt;Node31 -->
<g id="edge5" class="edge"><title>Node27&#45;&gt;Node31</title>
<path fill="none" stroke="midnightblue" d="M213.546,-225.936C237.998,-218.28 272.5,-207.478 299.212,-199.114"/>
<polygon fill="midnightblue" stroke="midnightblue" points="300.533,-202.368 309.031,-196.04 298.442,-195.688 300.533,-202.368"/>
</g>
<!-- Node39 -->
<g id="node14" class="node"><title>Node39</title>
<g id="a_node14"><a xlink:href="classvpr_1_1_device.html#a158d56e75fab365778e07a84d090b3f7" target="_top" xlink:title="vpr::Device::setupValidation">
<polygon fill="white" stroke="black" points="272.5,-139 272.5,-158 408.5,-158 408.5,-139 272.5,-139"/>
<text text-anchor="middle" x="340.5" y="-146" font-family="Helvetica,sans-Serif" font-size="10.00">vpr::Device::setupValidation</text>
</a>
</g>
</g>
<!-- Node27&#45;&gt;Node39 -->
<g id="edge23" class="edge"><title>Node27&#45;&gt;Node39</title>
<path fill="none" stroke="midnightblue" d="M192.218,-225.586C206.571,-210.74 235.768,-182.845 266,-167.5 270.584,-165.174 275.476,-163.115 280.478,-161.297"/>
<polygon fill="midnightblue" stroke="midnightblue" points="281.782,-164.552 290.177,-158.089 279.584,-157.906 281.782,-164.552"/>
</g>
<!-- Node41 -->
<g id="node16" class="node"><title>Node41</title>
<g id="a_node16"><a xlink:href="classvpr_1_1_device.html#a165976c19ab59de329855485a9dab5aa" target="_top" xlink:title="vpr::Device::setupExtensions">
<polygon fill="white" stroke="black" points="269.5,-275 269.5,-294 411.5,-294 411.5,-275 269.5,-275"/>
<text text-anchor="middle" x="340.5" y="-282" font-family="Helvetica,sans-Serif" font-size="10.00">vpr::Device::setupExtensions</text>
</a>
</g>
</g>
<!-- Node27&#45;&gt;Node41 -->
<g id="edge25" class="edge"><title>Node27&#45;&gt;Node41</title>
<path fill="none" stroke="midnightblue" d="M213.546,-245.064C237.998,-252.72 272.5,-263.522 299.212,-271.886"/>
<polygon fill="midnightblue" stroke="midnightblue" points="298.442,-275.312 309.031,-274.96 300.533,-268.632 298.442,-275.312"/>
</g>
<!-- Node46 -->
<g id="node21" class="node"><title>Node46</title>
<g id="a_node21"><a xlink:href="classvpr_1_1_physical_device.html#addc7471aceef1ca343cc1b6e5c242278" target="_top" xlink:title="vpr::PhysicalDevice\l::GetFeatures">
<polygon fill="white" stroke="black" points="290,-89.5 290,-119.5 391,-119.5 391,-89.5 290,-89.5"/>
<text text-anchor="start" x="298" y="-107.5" font-family="Helvetica,sans-Serif" font-size="10.00">vpr::PhysicalDevice</text>
<text text-anchor="middle" x="340.5" y="-96.5" font-family="Helvetica,sans-Serif" font-size="10.00">::GetFeatures</text>
</a>
</g>
</g>
<!-- Node27&#45;&gt;Node46 -->
<g id="edge32" class="edge"><title>Node27&#45;&gt;Node46</title>
<path fill="none" stroke="midnightblue" d="M188.039,-225.767C199.248,-205.046 228.259,-156.283 266,-129.5 270.465,-126.331 275.365,-123.538 280.447,-121.082"/>
<polygon fill="midnightblue" stroke="midnightblue" points="281.982,-124.231 289.74,-117.016 279.176,-117.818 281.982,-124.231"/>
</g>
<!-- Node28&#45;&gt;Node29 -->
<g id="edge3" class="edge"><title>Node28&#45;&gt;Node29</title>
<path fill="none" stroke="midnightblue" d="M415.193,-402.5C521.545,-402.5 716.007,-402.5 813.88,-402.5"/>
<polygon fill="midnightblue" stroke="midnightblue" points="813.9,-406 823.9,-402.5 813.9,-399 813.9,-406"/>
</g>
<!-- Node30 -->
<g id="node5" class="node"><title>Node30</title>
<g id="a_node5"><a xlink:href="classvpr_1_1_instance.html#aa8afd0e70a5fd70ee82daba6c179be8d" target="_top" xlink:title="vpr::Instance::vkSurface">
<polygon fill="white" stroke="black" points="461.5,-431 461.5,-450 580.5,-450 580.5,-431 461.5,-431"/>
<text text-anchor="middle" x="521" y="-438" font-family="Helvetica,sans-Serif" font-size="10.00">vpr::Instance::vkSurface</text>
</a>
</g>
</g>
<!-- Node28&#45;&gt;Node30 -->
<g id="edge4" class="edge"><title>Node28&#45;&gt;Node30</title>
<path fill="none" stroke="midnightblue" d="M412.048,-417.519C429.721,-421.281 448.419,-425.261 465.198,-428.833"/>
<polygon fill="midnightblue" stroke="midnightblue" points="464.861,-432.34 475.371,-430.999 466.319,-425.494 464.861,-432.34"/>
</g>
<!-- Node32 -->
<g id="node7" class="node"><title>Node32</title>
<g id="a_node7"><a xlink:href="classvpr_1_1_device.html#adbe15d529a11af4d7034a2135255e773" target="_top" xlink:title="vpr::Device::setupGraphics\lQueues">
<polygon fill="white" stroke="black" points="455,-98.5 455,-128.5 587,-128.5 587,-98.5 455,-98.5"/>
<text text-anchor="start" x="463" y="-116.5" font-family="Helvetica,sans-Serif" font-size="10.00">vpr::Device::setupGraphics</text>
<text text-anchor="middle" x="521" y="-105.5" font-family="Helvetica,sans-Serif" font-size="10.00">Queues</text>
</a>
</g>
</g>
<!-- Node31&#45;&gt;Node32 -->
<g id="edge6" class="edge"><title>Node31&#45;&gt;Node32</title>
<path fill="none" stroke="midnightblue" d="M390.85,-176.964C399.148,-174.461 407.494,-171.349 415,-167.5 433.533,-157.996 432.871,-147.753 451,-137.5 454.017,-135.794 457.176,-134.178 460.413,-132.653"/>
<polygon fill="midnightblue" stroke="midnightblue" points="461.926,-135.812 469.685,-128.597 459.121,-129.398 461.926,-135.812"/>
</g>
<!-- Node36 -->
<g id="node11" class="node"><title>Node36</title>
<g id="a_node11"><a xlink:href="classvpr_1_1_device.html#abdb29331fbcc15a242b3f0e82b02beef" target="_top" xlink:title="vpr::Device::setupCompute\lQueues">
<polygon fill="white" stroke="black" points="455,-49.5 455,-79.5 587,-79.5 587,-49.5 455,-49.5"/>
<text text-anchor="start" x="463" y="-67.5" font-family="Helvetica,sans-Serif" font-size="10.00">vpr::Device::setupCompute</text>
<text text-anchor="middle" x="521" y="-56.5" font-family="Helvetica,sans-Serif" font-size="10.00">Queues</text>
</a>
</g>
</g>
<!-- Node31&#45;&gt;Node36 -->
<g id="edge11" class="edge"><title>Node31&#45;&gt;Node36</title>
<path fill="none" stroke="midnightblue" d="M399.357,-176.987C405.007,-174.507 410.356,-171.397 415,-167.5 444.559,-142.699 422.48,-114.488 451,-88.5 452.289,-87.3254 453.639,-86.2078 455.039,-85.1443"/>
<polygon fill="midnightblue" stroke="midnightblue" points="457.055,-88.0085 463.536,-79.6275 453.243,-82.1373 457.055,-88.0085"/>
</g>
<!-- Node37 -->
<g id="node12" class="node"><title>Node37</title>
<g id="a_node12"><a xlink:href="classvpr_1_1_device.html#aa64b2412561fa0950722c2dc4997da9f" target="_top" xlink:title="vpr::Device::setupTransfer\lQueues">
<polygon fill="white" stroke="black" points="457,-196.5 457,-226.5 585,-226.5 585,-196.5 457,-196.5"/>
<text text-anchor="start" x="465" y="-214.5" font-family="Helvetica,sans-Serif" font-size="10.00">vpr::Device::setupTransfer</text>
<text text-anchor="middle" x="521" y="-203.5" font-family="Helvetica,sans-Serif" font-size="10.00">Queues</text>
</a>
</g>
</g>
<!-- Node31&#45;&gt;Node37 -->
<g id="edge15" class="edge"><title>Node31&#45;&gt;Node37</title>
<path fill="none" stroke="midnightblue" d="M404.181,-195.279C417.923,-197.204 432.59,-199.258 446.706,-201.235"/>
<polygon fill="midnightblue" stroke="midnightblue" points="446.478,-204.737 456.866,-202.658 447.449,-197.804 446.478,-204.737"/>
</g>
<!-- Node38 -->
<g id="node13" class="node"><title>Node38</title>
<g id="a_node13"><a xlink:href="classvpr_1_1_device.html#a22ee8e6517d4898282d9d6385545100a" target="_top" xlink:title="vpr::Device::setupSparse\lBindingQueues">
<polygon fill="white" stroke="black" points="459,-147.5 459,-177.5 583,-177.5 583,-147.5 459,-147.5"/>
<text text-anchor="start" x="467" y="-165.5" font-family="Helvetica,sans-Serif" font-size="10.00">vpr::Device::setupSparse</text>
<text text-anchor="middle" x="521" y="-154.5" font-family="Helvetica,sans-Serif" font-size="10.00">BindingQueues</text>
</a>
</g>
</g>
<!-- Node31&#45;&gt;Node38 -->
<g id="edge19" class="edge"><title>Node31&#45;&gt;Node38</title>
<path fill="none" stroke="midnightblue" d="M404.181,-178.072C418.628,-176.13 434.097,-174.05 448.873,-172.063"/>
<polygon fill="midnightblue" stroke="midnightblue" points="449.527,-175.507 458.972,-170.705 448.595,-168.569 449.527,-175.507"/>
</g>
<!-- Node33 -->
<g id="node8" class="node"><title>Node33</title>
<g id="a_node8"><a xlink:href="classvpr_1_1_physical_device.html#af443c2a585d182166c464f252782a57b" target="_top" xlink:title="! Attempts to find a Queue family that supports the full bitfield given: this can be multiple types...">
<polygon fill="white" stroke="black" points="815,-145.5 815,-175.5 934,-175.5 934,-145.5 815,-145.5"/>
<text text-anchor="start" x="823" y="-163.5" font-family="Helvetica,sans-Serif" font-size="10.00">vpr::PhysicalDevice</text>
<text text-anchor="middle" x="874.5" y="-152.5" font-family="Helvetica,sans-Serif" font-size="10.00">::GetQueueFamilyIndex</text>
</a>
</g>
</g>
<!-- Node32&#45;&gt;Node33 -->
<g id="edge7" class="edge"><title>Node32&#45;&gt;Node33</title>
<path fill="none" stroke="midnightblue" d="M580.247,-98.4562C633.232,-87.4243 713.002,-77.5175 779,-97.5 805.676,-105.577 831.704,-123.941 849.667,-138.77"/>
<polygon fill="midnightblue" stroke="midnightblue" points="847.441,-141.472 857.326,-145.285 851.976,-136.14 847.441,-141.472"/>
</g>
<!-- Node34 -->
<g id="node9" class="node"><title>Node34</title>
<g id="a_node9"><a xlink:href="classvpr_1_1_device.html#af043c9b7994791cc4ae4b8a76a8d8918" target="_top" xlink:title="vpr::Device::SetupQueueFamily">
<polygon fill="white" stroke="black" points="627,-107 627,-126 779,-126 779,-107 627,-107"/>
<text text-anchor="middle" x="703" y="-114" font-family="Helvetica,sans-Serif" font-size="10.00">vpr::Device::SetupQueueFamily</text>
</a>
</g>
</g>
<!-- Node32&#45;&gt;Node34 -->
<g id="edge8" class="edge"><title>Node32&#45;&gt;Node34</title>
<path fill="none" stroke="midnightblue" d="M587.239,-114.587C596.797,-114.747 606.759,-114.913 616.646,-115.077"/>
<polygon fill="midnightblue" stroke="midnightblue" points="616.845,-118.581 626.902,-115.248 616.962,-111.582 616.845,-118.581"/>
</g>
<!-- Node35 -->
<g id="node10" class="node"><title>Node35</title>
<g id="a_node10"><a xlink:href="classvpr_1_1_physical_device.html#a2ee4f96b16a9762953ecad3b658d84e6" target="_top" xlink:title="vpr::PhysicalDevice\l::GetQueueFamilyProperties">
<polygon fill="white" stroke="black" points="633,-145.5 633,-175.5 773,-175.5 773,-145.5 633,-145.5"/>
<text text-anchor="start" x="641" y="-163.5" font-family="Helvetica,sans-Serif" font-size="10.00">vpr::PhysicalDevice</text>
<text text-anchor="middle" x="703" y="-152.5" font-family="Helvetica,sans-Serif" font-size="10.00">::GetQueueFamilyProperties</text>
</a>
</g>
</g>
<!-- Node32&#45;&gt;Node35 -->
<g id="edge9" class="edge"><title>Node32&#45;&gt;Node35</title>
<path fill="none" stroke="midnightblue" d="M579.448,-128.5C596.984,-133.079 616.425,-138.155 634.56,-142.891"/>
<polygon fill="midnightblue" stroke="midnightblue" points="633.92,-146.341 644.48,-145.481 635.689,-139.568 633.92,-146.341"/>
</g>
<!-- Node35&#45;&gt;Node33 -->
<g id="edge10" class="edge"><title>Node35&#45;&gt;Node33</title>
<path fill="none" stroke="midnightblue" d="M773.431,-160.5C783.785,-160.5 794.455,-160.5 804.793,-160.5"/>
<polygon fill="midnightblue" stroke="midnightblue" points="804.998,-164 814.998,-160.5 804.998,-157 804.998,-164"/>
</g>
<!-- Node36&#45;&gt;Node33 -->
<g id="edge12" class="edge"><title>Node36&#45;&gt;Node33</title>
<path fill="none" stroke="midnightblue" d="M587.264,-58.3242C640.718,-55.7533 717.317,-57.8646 779,-82.5 808.732,-94.3748 836.167,-119.245 853.729,-137.728"/>
<polygon fill="midnightblue" stroke="midnightblue" points="851.274,-140.228 860.629,-145.201 856.417,-135.479 851.274,-140.228"/>
</g>
<!-- Node36&#45;&gt;Node34 -->
<g id="edge13" class="edge"><title>Node36&#45;&gt;Node34</title>
<path fill="none" stroke="midnightblue" d="M574.063,-79.5406C601.104,-87.3522 633.737,-96.7794 659.276,-104.158"/>
<polygon fill="midnightblue" stroke="midnightblue" points="658.464,-107.566 669.043,-106.979 660.407,-100.841 658.464,-107.566"/>
</g>
<!-- Node36&#45;&gt;Node35 -->
<g id="edge14" class="edge"><title>Node36&#45;&gt;Node35</title>
<path fill="none" stroke="midnightblue" d="M575.572,-79.5536C581.015,-82.1173 586.272,-85.0819 591,-88.5 612.324,-103.916 605.577,-120.223 627,-135.5 629.682,-137.412 632.52,-139.186 635.462,-140.83"/>
<polygon fill="midnightblue" stroke="midnightblue" points="634.036,-144.031 644.545,-145.382 637.173,-137.773 634.036,-144.031"/>
</g>
<!-- Node37&#45;&gt;Node33 -->
<g id="edge16" class="edge"><title>Node37&#45;&gt;Node33</title>
<path fill="none" stroke="midnightblue" d="M585.164,-215.469C637.714,-217.248 714.133,-216.287 779,-201.5 799.008,-196.939 820.067,-188.229 837.213,-180.006"/>
<polygon fill="midnightblue" stroke="midnightblue" points="838.888,-183.083 846.306,-175.517 835.789,-176.806 838.888,-183.083"/>
</g>
<!-- Node37&#45;&gt;Node34 -->
<g id="edge17" class="edge"><title>Node37&#45;&gt;Node34</title>
<path fill="none" stroke="midnightblue" d="M574.294,-196.496C580.217,-193.674 585.936,-190.365 591,-186.5 613.056,-169.668 604.134,-151.215 627,-135.5 629.911,-133.499 633.015,-131.709 636.243,-130.108"/>
<polygon fill="midnightblue" stroke="midnightblue" points="637.806,-133.245 645.605,-126.074 635.036,-126.817 637.806,-133.245"/>
</g>
<!-- Node37&#45;&gt;Node35 -->
<g id="edge18" class="edge"><title>Node37&#45;&gt;Node35</title>
<path fill="none" stroke="midnightblue" d="M575.032,-196.474C595.175,-190.767 618.308,-184.213 639.264,-178.275"/>
<polygon fill="midnightblue" stroke="midnightblue" points="640.369,-181.6 649.036,-175.506 638.46,-174.865 640.369,-181.6"/>
</g>
<!-- Node38&#45;&gt;Node33 -->
<g id="edge20" class="edge"><title>Node38&#45;&gt;Node33</title>
<path fill="none" stroke="midnightblue" d="M583.016,-177.502C597.355,-180.409 612.643,-183.012 627,-184.5 694.196,-191.464 711.966,-192.879 779,-184.5 790.432,-183.071 802.465,-180.705 813.971,-178.002"/>
<polygon fill="midnightblue" stroke="midnightblue" points="815.045,-181.343 823.919,-175.555 813.373,-174.545 815.045,-181.343"/>
</g>
<!-- Node38&#45;&gt;Node34 -->
<g id="edge21" class="edge"><title>Node38&#45;&gt;Node34</title>
<path fill="none" stroke="midnightblue" d="M580.306,-147.467C595.504,-143.56 611.863,-139.364 627,-135.5 635.889,-133.231 645.373,-130.821 654.502,-128.506"/>
<polygon fill="midnightblue" stroke="midnightblue" points="655.39,-131.891 664.224,-126.042 653.67,-125.106 655.39,-131.891"/>
</g>
<!-- Node38&#45;&gt;Node35 -->
<g id="edge22" class="edge"><title>Node38&#45;&gt;Node35</title>
<path fill="none" stroke="midnightblue" d="M583.191,-161.82C595.942,-161.678 609.555,-161.527 622.848,-161.379"/>
<polygon fill="midnightblue" stroke="midnightblue" points="622.971,-164.878 632.932,-161.267 622.893,-157.879 622.971,-164.878"/>
</g>
<!-- Node40 -->
<g id="node15" class="node"><title>Node40</title>
<g id="a_node15"><a xlink:href="classvpr_1_1_instance.html#a4cb7ce54d256a75fe52ffc465daddba2" target="_top" xlink:title="vpr::Instance::Validation\lEnabled">
<polygon fill="white" stroke="black" points="461,-0.5 461,-30.5 581,-30.5 581,-0.5 461,-0.5"/>
<text text-anchor="start" x="469" y="-18.5" font-family="Helvetica,sans-Serif" font-size="10.00">vpr::Instance::Validation</text>
<text text-anchor="middle" x="521" y="-7.5" font-family="Helvetica,sans-Serif" font-size="10.00">Enabled</text>
</a>
</g>
</g>
<!-- Node39&#45;&gt;Node40 -->
<g id="edge24" class="edge"><title>Node39&#45;&gt;Node40</title>
<path fill="none" stroke="midnightblue" d="M398.448,-138.856C404.471,-136.19 410.154,-132.802 415,-128.5 446.908,-100.171 420.089,-68.9135 451,-39.5 452.12,-38.4344 453.289,-37.416 454.501,-36.4425"/>
<polygon fill="midnightblue" stroke="midnightblue" points="456.731,-39.1596 463.04,-30.6487 452.8,-33.3671 456.731,-39.1596"/>
</g>
<!-- Node42 -->
<g id="node17" class="node"><title>Node42</title>
<g id="a_node17"><a xlink:href="classvpr_1_1_device.html#a3cedda7b364230945a994267d220ab0f" target="_top" xlink:title="vpr::Device::prepareRequired\lExtensions">
<polygon fill="white" stroke="black" points="451,-294.5 451,-324.5 591,-324.5 591,-294.5 451,-294.5"/>
<text text-anchor="start" x="459" y="-312.5" font-family="Helvetica,sans-Serif" font-size="10.00">vpr::Device::prepareRequired</text>
<text text-anchor="middle" x="521" y="-301.5" font-family="Helvetica,sans-Serif" font-size="10.00">Extensions</text>
</a>
</g>
</g>
<!-- Node41&#45;&gt;Node42 -->
<g id="edge26" class="edge"><title>Node41&#45;&gt;Node42</title>
<path fill="none" stroke="midnightblue" d="M409.492,-294.023C419.721,-295.455 430.345,-296.943 440.784,-298.405"/>
<polygon fill="midnightblue" stroke="midnightblue" points="440.328,-301.876 450.717,-299.796 441.299,-294.943 440.328,-301.876"/>
</g>
<!-- Node44 -->
<g id="node19" class="node"><title>Node44</title>
<g id="a_node19"><a xlink:href="classvpr_1_1_device.html#a2524d9604f056d1e7d4c4a124ecad638" target="_top" xlink:title="vpr::Device::prepareOptional\lExtensions">
<polygon fill="white" stroke="black" points="452.5,-343.5 452.5,-373.5 589.5,-373.5 589.5,-343.5 452.5,-343.5"/>
<text text-anchor="start" x="460.5" y="-361.5" font-family="Helvetica,sans-Serif" font-size="10.00">vpr::Device::prepareOptional</text>
<text text-anchor="middle" x="521" y="-350.5" font-family="Helvetica,sans-Serif" font-size="10.00">Extensions</text>
</a>
</g>
</g>
<!-- Node41&#45;&gt;Node44 -->
<g id="edge29" class="edge"><title>Node41&#45;&gt;Node44</title>
<path fill="none" stroke="midnightblue" d="M361.893,-294.164C383.74,-304.39 419.527,-320.776 451,-333.5 456.168,-335.589 461.585,-337.695 467.014,-339.749"/>
<polygon fill="midnightblue" stroke="midnightblue" points="466.158,-343.165 476.751,-343.379 468.603,-336.606 466.158,-343.165"/>
</g>
<!-- Node45 -->
<g id="node20" class="node"><title>Node45</title>
<g id="a_node20"><a xlink:href="classvpr_1_1_device.html#a124ad96e79edf3bd0faee5b0394c3662" target="_top" xlink:title="vpr::Device::checkDedicated\lAllocExtensions">
<polygon fill="white" stroke="black" points="451.5,-245.5 451.5,-275.5 590.5,-275.5 590.5,-245.5 451.5,-245.5"/>
<text text-anchor="start" x="459.5" y="-263.5" font-family="Helvetica,sans-Serif" font-size="10.00">vpr::Device::checkDedicated</text>
<text text-anchor="middle" x="521" y="-252.5" font-family="Helvetica,sans-Serif" font-size="10.00">AllocExtensions</text>
</a>
</g>
</g>
<!-- Node41&#45;&gt;Node45 -->
<g id="edge31" class="edge"><title>Node41&#45;&gt;Node45</title>
<path fill="none" stroke="midnightblue" d="M411.536,-275.083C421.249,-273.777 431.282,-272.428 441.143,-271.103"/>
<polygon fill="midnightblue" stroke="midnightblue" points="441.892,-274.534 451.336,-269.732 440.959,-267.596 441.892,-274.534"/>
</g>
<!-- Node43 -->
<g id="node18" class="node"><title>Node43</title>
<g id="a_node18"><a xlink:href="classvpr_1_1_device.html#a045d673a04b878f8b11b092001cfd4ae" target="_top" xlink:title="vpr::Device::checkExtensions">
<polygon fill="white" stroke="black" points="631,-349 631,-368 775,-368 775,-349 631,-349"/>
<text text-anchor="middle" x="703" y="-356" font-family="Helvetica,sans-Serif" font-size="10.00">vpr::Device::checkExtensions</text>
</a>
</g>
</g>
<!-- Node42&#45;&gt;Node43 -->
<g id="edge27" class="edge"><title>Node42&#45;&gt;Node43</title>
<path fill="none" stroke="midnightblue" d="M577.475,-324.601C603.054,-331.565 633.018,-339.722 657.143,-346.289"/>
<polygon fill="midnightblue" stroke="midnightblue" points="656.527,-349.748 667.095,-348.998 658.365,-342.994 656.527,-349.748"/>
</g>
<!-- Node43&#45;&gt;Node29 -->
<g id="edge28" class="edge"><title>Node43&#45;&gt;Node29</title>
<path fill="none" stroke="midnightblue" d="M740.779,-368.047C762.173,-373.601 789.648,-380.733 814.044,-387.066"/>
<polygon fill="midnightblue" stroke="midnightblue" points="813.37,-390.507 823.929,-389.632 815.129,-383.732 813.37,-390.507"/>
</g>
<!-- Node44&#45;&gt;Node43 -->
<g id="edge30" class="edge"><title>Node44&#45;&gt;Node43</title>
<path fill="none" stroke="midnightblue" d="M589.537,-358.5C599.638,-358.5 610.142,-358.5 620.494,-358.5"/>
<polygon fill="midnightblue" stroke="midnightblue" points="620.775,-362 630.775,-358.5 620.775,-355 620.775,-362"/>
</g>
</g>
</svg>
        <g id="navigator" transform="translate(0 0)" fill="#404254">
                <rect fill="#f2f5e9" fill-opacity="0.5" stroke="#606060" stroke-width=".5" x="0" y="0" width="60" height="60"/>
                <use id="zoomplus" xlink:href="#zoomPlus" x="17" y="9" onmousedown="handleZoom(evt,'in')"/>
                <use id="zoomminus" xlink:href="#zoomMin" x="42" y="9" onmousedown="handleZoom(evt,'out')"/>
                <use id="reset" xlink:href="#resetDef" x="30" y="36" onmousedown="handleReset()"/>
                <g id="arrowUp" xlink:href="#dirArrow" transform="translate(30 24)" onmousedown="handlePan(0,-1)">
                  <use xlink:href="#rim" fill="#404040">
                        <set attributeName="fill" to="#808080" begin="arrowUp.mouseover" end="arrowUp.mouseout"/>
                  </use>
                  <path fill="none" stroke="white" stroke-width="1.5" d="M0,-3.0v7 M-2.5,-0.5L0,-3.0L2.5,-0.5"/>
                </g>
                <g id="arrowRight" xlink:href="#dirArrow" transform="rotate(90) translate(36 -43)" onmousedown="handlePan(1,0)">
                  <use xlink:href="#rim" fill="#404040">
                        <set attributeName="fill" to="#808080" begin="arrowRight.mouseover" end="arrowRight.mouseout"/>
                  </use>
                  <path fill="none" stroke="white" stroke-width="1.5" d="M0,-3.0v7 M-2.5,-0.5L0,-3.0L2.5,-0.5"/>
                </g>
                <g id="arrowDown" xlink:href="#dirArrow" transform="rotate(180) translate(-30 -48)" onmousedown="handlePan(0,1)">
                  <use xlink:href="#rim" fill="#404040">
                        <set attributeName="fill" to="#808080" begin="arrowDown.mouseover" end="arrowDown.mouseout"/>
                  </use>
                  <path fill="none" stroke="white" stroke-width="1.5" d="M0,-3.0v7 M-2.5,-0.5L0,-3.0L2.5,-0.5"/>
                </g>
                <g id="arrowLeft" xlink:href="#dirArrow" transform="rotate(270) translate(-36 17)" onmousedown="handlePan(-1,0)">
                  <use xlink:href="#rim" fill="#404040">
                        <set attributeName="fill" to="#808080" begin="arrowLeft.mouseover" end="arrowLeft.mouseout"/>
                  </use>
                  <path fill="none" stroke="white" stroke-width="1.5" d="M0,-3.0v7 M-2.5,-0.5L0,-3.0L2.5,-0.5"/>
                </g>
        </g>
        <svg viewBox="0 0 15 15" width="100%" height="30px" preserveAspectRatio="xMaxYMin meet">
         <g id="arrow_out" transform="scale(0.3 0.3)">
          <a xlink:href="classvpr_1_1_device_a5122be38e1f8714ab17876b8874f62f9_cgraph_org.svg" target="_base">
           <rect id="button" ry="5" rx="5" y="6" x="6" height="38" width="38"
                fill="#f2f5e9" fill-opacity="0.5" stroke="#606060" stroke-width="1.0"/>
           <path id="arrow"
             d="M 11.500037,31.436501 C 11.940474,20.09759 22.043105,11.32322 32.158766,21.979434 L 37.068811,17.246167 C 37.068811,17.246167 37.088388,32 37.088388,32 L 22.160133,31.978069 C 22.160133,31.978069 26.997745,27.140456 26.997745,27.140456 C 18.528582,18.264221 13.291696,25.230495 11.500037,31.436501 z"
             style="fill:#404040;"/>
          </a>
         </g>
        </svg>
</svg>
