<?xml version="1.0" encoding="UTF-8" standalone="no"?>
<!DOCTYPE svg PUBLIC "-//W3C//DTD SVG 1.1//EN"
 "http://www.w3.org/Graphics/SVG/1.1/DTD/svg11.dtd">
<!-- Generated by graphviz version 2.38.0 (20140413.2041)
 -->
<!-- Title: vpr::Allocator::AllocateForImage Pages: 1 -->
<svg width="775pt" height="382pt"
 viewBox="0.00 0.00 775.00 381.67" xmlns="http://www.w3.org/2000/svg" xmlns:xlink="http://www.w3.org/1999/xlink">
<g id="graph0" class="graph" transform="scale(1 1) rotate(0) translate(4 377.673)">
<title>vpr::Allocator::AllocateForImage</title>
<polygon fill="white" stroke="none" points="-4,4 -4,-377.673 771,-377.673 771,4 -4,4"/>
<!-- Node33 -->
<g id="node1" class="node"><title>Node33</title>
<polygon fill="#bfbfbf" stroke="black" points="0,-45.6734 0,-75.6734 114,-75.6734 114,-45.6734 0,-45.6734"/>
<text text-anchor="start" x="8" y="-63.6734" font-family="Helvetica,sans-Serif" font-size="10.00">vpr::Allocator::Allocate</text>
<text text-anchor="middle" x="57" y="-52.6734" font-family="Helvetica,sans-Serif" font-size="10.00">ForImage</text>
</g>
<!-- Node34 -->
<g id="node2" class="node"><title>Node34</title>
<g id="a_node2"><a xlink:href="classvpr_1_1_allocator.html#a1d36e3567e4fd7ef8bf1395942f6c714" target="_top" xlink:title="vpr::Allocator::Allocate\lMemory">
<polygon fill="white" stroke="black" points="152.5,-75.6734 152.5,-105.673 266.5,-105.673 266.5,-75.6734 152.5,-75.6734"/>
<text text-anchor="start" x="160.5" y="-93.6734" font-family="Helvetica,sans-Serif" font-size="10.00">vpr::Allocator::Allocate</text>
<text text-anchor="middle" x="209.5" y="-82.6734" font-family="Helvetica,sans-Serif" font-size="10.00">Memory</text>
</a>
</g>
</g>
<!-- Node33&#45;&gt;Node34 -->
<g id="edge1" class="edge"><title>Node33&#45;&gt;Node34</title>
<path fill="none" stroke="midnightblue" d="M114.041,-71.8443C123.345,-73.6989 133.069,-75.6372 142.59,-77.5351"/>
<polygon fill="midnightblue" stroke="midnightblue" points="141.921,-80.9706 152.413,-79.4931 143.29,-74.1057 141.921,-80.9706"/>
</g>
<!-- Node46 -->
<g id="node14" class="node"><title>Node46</title>
<g id="a_node14"><a xlink:href="classvpr_1_1_allocator.html#a526196279f36a8fe91524f2bbde9386f" target="_top" xlink:title="vpr::Allocator::getImage\lMemReqs">
<polygon fill="white" stroke="black" points="150,-16.6734 150,-46.6734 269,-46.6734 269,-16.6734 150,-16.6734"/>
<text text-anchor="start" x="158" y="-34.6734" font-family="Helvetica,sans-Serif" font-size="10.00">vpr::Allocator::getImage</text>
<text text-anchor="middle" x="209.5" y="-23.6734" font-family="Helvetica,sans-Serif" font-size="10.00">MemReqs</text>
</a>
</g>
</g>
<!-- Node33&#45;&gt;Node46 -->
<g id="edge14" class="edge"><title>Node33&#45;&gt;Node46</title>
<path fill="none" stroke="midnightblue" d="M114.041,-49.8748C122.45,-48.2544 131.203,-46.5679 139.839,-44.9038"/>
<polygon fill="midnightblue" stroke="midnightblue" points="140.738,-48.2949 149.895,-42.966 139.414,-41.4214 140.738,-48.2949"/>
</g>
<!-- Node35 -->
<g id="node3" class="node"><title>Node35</title>
<g id="a_node3"><a xlink:href="classvpr_1_1_allocator.html#a12b2ce29d3b6b28131cc9c5a331d2286" target="_top" xlink:title="vpr::Allocator::findMemory\lTypeIdx">
<polygon fill="white" stroke="black" points="305,-75.6734 305,-105.673 434,-105.673 434,-75.6734 305,-75.6734"/>
<text text-anchor="start" x="313" y="-93.6734" font-family="Helvetica,sans-Serif" font-size="10.00">vpr::Allocator::findMemory</text>
<text text-anchor="middle" x="369.5" y="-82.6734" font-family="Helvetica,sans-Serif" font-size="10.00">TypeIdx</text>
</a>
</g>
</g>
<!-- Node34&#45;&gt;Node35 -->
<g id="edge2" class="edge"><title>Node34&#45;&gt;Node35</title>
<path fill="none" stroke="midnightblue" d="M266.65,-90.6734C275.769,-90.6734 285.333,-90.6734 294.795,-90.6734"/>
<polygon fill="midnightblue" stroke="midnightblue" points="294.997,-94.1735 304.997,-90.6734 294.996,-87.1735 294.997,-94.1735"/>
</g>
<!-- Node38 -->
<g id="node6" class="node"><title>Node38</title>
<g id="a_node6"><a xlink:href="classvpr_1_1_allocator.html#a40618202c2c86027ee1915cadbc18afd" target="_top" xlink:title="vpr::Allocator::allocate\lMemoryType">
<polygon fill="white" stroke="black" points="313,-216.673 313,-246.673 426,-246.673 426,-216.673 313,-216.673"/>
<text text-anchor="start" x="321" y="-234.673" font-family="Helvetica,sans-Serif" font-size="10.00">vpr::Allocator::allocate</text>
<text text-anchor="middle" x="369.5" y="-223.673" font-family="Helvetica,sans-Serif" font-size="10.00">MemoryType</text>
</a>
</g>
</g>
<!-- Node34&#45;&gt;Node38 -->
<g id="edge5" class="edge"><title>Node34&#45;&gt;Node38</title>
<path fill="none" stroke="midnightblue" d="M227.409,-105.763C255.297,-130.65 311.072,-180.425 343.519,-209.38"/>
<polygon fill="midnightblue" stroke="midnightblue" points="341.442,-212.218 351.234,-216.265 346.103,-206.995 341.442,-212.218"/>
</g>
<!-- Node36 -->
<g id="node4" class="node"><title>Node36</title>
<g id="a_node4"><a xlink:href="classvpr_1_1_allocator.html#a4277250f2867fd5b729bc78e7dc5eb6f" target="_top" xlink:title="vpr::Allocator::GetMemory\lTypeCount">
<polygon fill="white" stroke="black" points="473,-41.6734 473,-71.6734 603,-71.6734 603,-41.6734 473,-41.6734"/>
<text text-anchor="start" x="481" y="-59.6734" font-family="Helvetica,sans-Serif" font-size="10.00">vpr::Allocator::GetMemory</text>
<text text-anchor="middle" x="538" y="-48.6734" font-family="Helvetica,sans-Serif" font-size="10.00">TypeCount</text>
</a>
</g>
</g>
<!-- Node35&#45;&gt;Node36 -->
<g id="edge3" class="edge"><title>Node35&#45;&gt;Node36</title>
<path fill="none" stroke="midnightblue" d="M434.397,-77.6253C443.79,-75.7073 453.531,-73.7182 463.104,-71.7632"/>
<polygon fill="midnightblue" stroke="midnightblue" points="463.901,-75.1727 472.999,-69.7427 462.501,-68.3143 463.901,-75.1727"/>
</g>
<!-- Node37 -->
<g id="node5" class="node"><title>Node37</title>
<g id="a_node5"><a xlink:href="namespacevpr.html#a4670febea81bc9a6a25fb8b1cf1afaaa" target="_top" xlink:title="vpr::countBitsSet">
<polygon fill="white" stroke="black" points="492.5,-91.1734 492.5,-110.173 583.5,-110.173 583.5,-91.1734 492.5,-91.1734"/>
<text text-anchor="middle" x="538" y="-98.1734" font-family="Helvetica,sans-Serif" font-size="10.00">vpr::countBitsSet</text>
</a>
</g>
</g>
<!-- Node35&#45;&gt;Node37 -->
<g id="edge4" class="edge"><title>Node35&#45;&gt;Node37</title>
<path fill="none" stroke="midnightblue" d="M434.397,-94.511C450.119,-95.4553 466.816,-96.4581 482.072,-97.3744"/>
<polygon fill="midnightblue" stroke="midnightblue" points="482.182,-100.887 492.374,-97.9931 482.602,-93.8998 482.182,-100.887"/>
</g>
<!-- Node39 -->
<g id="node7" class="node"><title>Node39</title>
<g id="a_node7"><a xlink:href="classvpr_1_1_allocator.html#aee9903438ded8311fd11f757f80002d6" target="_top" xlink:title="vpr::Allocator::GetPreferred\lBlockSize">
<polygon fill="white" stroke="black" points="471,-216.673 471,-246.673 605,-246.673 605,-216.673 471,-216.673"/>
<text text-anchor="start" x="479" y="-234.673" font-family="Helvetica,sans-Serif" font-size="10.00">vpr::Allocator::GetPreferred</text>
<text text-anchor="middle" x="538" y="-223.673" font-family="Helvetica,sans-Serif" font-size="10.00">BlockSize</text>
</a>
</g>
</g>
<!-- Node38&#45;&gt;Node39 -->
<g id="edge6" class="edge"><title>Node38&#45;&gt;Node39</title>
<path fill="none" stroke="midnightblue" d="M426.405,-231.673C437.439,-231.673 449.193,-231.673 460.765,-231.673"/>
<polygon fill="midnightblue" stroke="midnightblue" points="460.865,-235.173 470.865,-231.673 460.865,-228.173 460.865,-235.173"/>
</g>
<!-- Node40 -->
<g id="node8" class="node"><title>Node40</title>
<g id="a_node8"><a xlink:href="classvpr_1_1_allocator.html#ad4d7daf9b55d81a4fab0cb4a657d6508" target="_top" xlink:title="vpr::Allocator::allocate\lPrivateMemory">
<polygon fill="white" stroke="black" points="481.5,-167.673 481.5,-197.673 594.5,-197.673 594.5,-167.673 481.5,-167.673"/>
<text text-anchor="start" x="489.5" y="-185.673" font-family="Helvetica,sans-Serif" font-size="10.00">vpr::Allocator::allocate</text>
<text text-anchor="middle" x="538" y="-174.673" font-family="Helvetica,sans-Serif" font-size="10.00">PrivateMemory</text>
</a>
</g>
</g>
<!-- Node38&#45;&gt;Node40 -->
<g id="edge7" class="edge"><title>Node38&#45;&gt;Node40</title>
<path fill="none" stroke="midnightblue" d="M421.814,-216.572C438.986,-211.518 458.295,-205.836 476.125,-200.589"/>
<polygon fill="midnightblue" stroke="midnightblue" points="477.25,-203.906 485.855,-197.725 475.274,-197.191 477.25,-203.906"/>
</g>
<!-- Node41 -->
<g id="node9" class="node"><title>Node41</title>
<g id="a_node9"><a xlink:href="classvpr_1_1_device.html#a59882855173bef0b13a17b376ea01d45" target="_top" xlink:title="vpr::Device::vkHandle">
<polygon fill="white" stroke="black" points="650.5,-129.173 650.5,-148.173 758.5,-148.173 758.5,-129.173 650.5,-129.173"/>
<text text-anchor="middle" x="704.5" y="-136.173" font-family="Helvetica,sans-Serif" font-size="10.00">vpr::Device::vkHandle</text>
</a>
</g>
</g>
<!-- Node38&#45;&gt;Node41 -->
<g id="edge13" class="edge"><title>Node38&#45;&gt;Node41</title>
<path fill="none" stroke="midnightblue" d="M385.419,-216.521C403.598,-199.138 436.103,-171.402 470,-158.673 524.826,-138.086 591.817,-134.327 639.96,-134.981"/>
<polygon fill="midnightblue" stroke="midnightblue" points="640.172,-138.486 650.241,-135.191 640.315,-131.487 640.172,-138.486"/>
</g>
<!-- Node43 -->
<g id="node11" class="node"><title>Node43</title>
<g id="a_node11"><a xlink:href="classvpr_1_1_allocator.html#a32c2e59911a888c64b7d56005014865b" target="_top" xlink:title="vpr::Allocator::GetAllocSize">
<polygon fill="white" stroke="black" points="470,-354.173 470,-373.173 606,-373.173 606,-354.173 470,-354.173"/>
<text text-anchor="middle" x="538" y="-361.173" font-family="Helvetica,sans-Serif" font-size="10.00">vpr::Allocator::GetAllocSize</text>
</a>
</g>
</g>
<!-- Node38&#45;&gt;Node43 -->
<g id="edge10" class="edge"><title>Node38&#45;&gt;Node43</title>
<path fill="none" stroke="midnightblue" d="M379.776,-246.976C395.348,-271.354 429.095,-318.88 470,-344.673 473.356,-346.789 476.952,-348.675 480.672,-350.355"/>
<polygon fill="midnightblue" stroke="midnightblue" points="479.522,-353.664 490.107,-354.12 482.116,-347.163 479.522,-353.664"/>
</g>
<!-- Node44 -->
<g id="node12" class="node"><title>Node44</title>
<g id="a_node12"><a xlink:href="classvpr_1_1_allocator.html#af89f4383e7e9eb534e1ddc76081c43fd" target="_top" xlink:title="vpr::Allocator::GetBuffer\lImageGranularity">
<polygon fill="white" stroke="black" points="478.5,-304.673 478.5,-334.673 597.5,-334.673 597.5,-304.673 478.5,-304.673"/>
<text text-anchor="start" x="486.5" y="-322.673" font-family="Helvetica,sans-Serif" font-size="10.00">vpr::Allocator::GetBuffer</text>
<text text-anchor="middle" x="538" y="-311.673" font-family="Helvetica,sans-Serif" font-size="10.00">ImageGranularity</text>
</a>
</g>
</g>
<!-- Node38&#45;&gt;Node44 -->
<g id="edge11" class="edge"><title>Node38&#45;&gt;Node44</title>
<path fill="none" stroke="midnightblue" d="M391.487,-246.774C411.126,-260.459 441.614,-280.582 470,-294.673 474.226,-296.771 478.673,-298.797 483.184,-300.726"/>
<polygon fill="midnightblue" stroke="midnightblue" points="481.899,-303.982 492.479,-304.542 484.557,-297.506 481.899,-303.982"/>
</g>
<!-- Node45 -->
<g id="node13" class="node"><title>Node45</title>
<g id="a_node13"><a xlink:href="classvpr_1_1_allocation.html#ad5d461398f23e593c58f70a8cac78922" target="_top" xlink:title="vpr::Allocation::Init">
<polygon fill="white" stroke="black" points="490,-266.173 490,-285.173 586,-285.173 586,-266.173 490,-266.173"/>
<text text-anchor="middle" x="538" y="-273.173" font-family="Helvetica,sans-Serif" font-size="10.00">vpr::Allocation::Init</text>
</a>
</g>
</g>
<!-- Node38&#45;&gt;Node45 -->
<g id="edge12" class="edge"><title>Node38&#45;&gt;Node45</title>
<path fill="none" stroke="midnightblue" d="M426.405,-246.447C447.418,-252 471.045,-258.244 491.05,-263.531"/>
<polygon fill="midnightblue" stroke="midnightblue" points="490.287,-266.949 500.85,-266.12 492.076,-260.181 490.287,-266.949"/>
</g>
<!-- Node40&#45;&gt;Node41 -->
<g id="edge8" class="edge"><title>Node40&#45;&gt;Node41</title>
<path fill="none" stroke="midnightblue" d="M594.692,-167.777C615.17,-162.3 638.109,-156.164 657.626,-150.944"/>
<polygon fill="midnightblue" stroke="midnightblue" points="658.733,-154.271 667.489,-148.306 656.924,-147.508 658.733,-154.271"/>
</g>
<!-- Node42 -->
<g id="node10" class="node"><title>Node42</title>
<g id="a_node10"><a xlink:href="classvpr_1_1_allocation.html#ad680abfd77facfe5efcc222b154b595d" target="_top" xlink:title="vpr::Allocation::InitPrivate">
<polygon fill="white" stroke="black" points="642,-173.173 642,-192.173 767,-192.173 767,-173.173 642,-173.173"/>
<text text-anchor="middle" x="704.5" y="-180.173" font-family="Helvetica,sans-Serif" font-size="10.00">vpr::Allocation::InitPrivate</text>
</a>
</g>
</g>
<!-- Node40&#45;&gt;Node42 -->
<g id="edge9" class="edge"><title>Node40&#45;&gt;Node42</title>
<path fill="none" stroke="midnightblue" d="M594.692,-182.673C606.562,-182.673 619.258,-182.673 631.635,-182.673"/>
<polygon fill="midnightblue" stroke="midnightblue" points="631.932,-186.173 641.932,-182.673 631.932,-179.173 631.932,-186.173"/>
</g>
<!-- Node46&#45;&gt;Node41 -->
<g id="edge15" class="edge"><title>Node46&#45;&gt;Node41</title>
<path fill="none" stroke="midnightblue" d="M269.162,-17.5073C349.147,-1.26232 495.141,17.2903 606,-31.6734 647.178,-49.8606 678.464,-94.979 693.542,-120.439"/>
<polygon fill="midnightblue" stroke="midnightblue" points="690.513,-122.192 698.514,-129.137 696.59,-118.718 690.513,-122.192"/>
</g>
</g>
</svg>
