<?xml version="1.0" encoding="UTF-8" standalone="no"?>
<!DOCTYPE svg PUBLIC "-//W3C//DTD SVG 1.1//EN"
 "http://www.w3.org/Graphics/SVG/1.1/DTD/svg11.dtd">
<!-- Generated by graphviz version 2.38.0 (20140413.2041)
 -->
<!-- Title: el::Configurations::unsafeSet Pages: 1 -->
<svg width="461pt" height="236pt"
 viewBox="0.00 0.00 461.00 236.00" xmlns="http://www.w3.org/2000/svg" xmlns:xlink="http://www.w3.org/1999/xlink">
<g id="graph0" class="graph" transform="scale(1 1) rotate(0) translate(4 232)">
<title>el::Configurations::unsafeSet</title>
<polygon fill="white" stroke="none" points="-4,4 -4,-232 457,-232 457,4 -4,4"/>
<!-- Node166 -->
<g id="node1" class="node"><title>Node166</title>
<polygon fill="#bfbfbf" stroke="black" points="0,-66 0,-96 92,-96 92,-66 0,-66"/>
<text text-anchor="start" x="8" y="-84" font-family="Helvetica,sans-Serif" font-size="10.00">el::Configurations</text>
<text text-anchor="middle" x="46" y="-73" font-family="Helvetica,sans-Serif" font-size="10.00">::unsafeSet</text>
</g>
<!-- Node167 -->
<g id="node2" class="node"><title>Node167</title>
<g id="a_node2"><a xlink:href="classel_1_1base_1_1utils_1_1_registry_with_pred.html#a811d9cc011d945bc7237e6ae1cf2f096" target="_top" xlink:title="Gets pointer from repository with speicifed arguments. ">
<polygon fill="white" stroke="black" points="128,-186.5 128,-227.5 280,-227.5 280,-186.5 128,-186.5"/>
<text text-anchor="start" x="136" y="-215.5" font-family="Helvetica,sans-Serif" font-size="10.00">el::base::utils::Registry</text>
<text text-anchor="start" x="136" y="-204.5" font-family="Helvetica,sans-Serif" font-size="10.00">WithPred&lt; Configuration,</text>
<text text-anchor="middle" x="204" y="-193.5" font-family="Helvetica,sans-Serif" font-size="10.00"> Configuration::Predicate &gt;::get</text>
</a>
</g>
</g>
<!-- Node166&#45;&gt;Node167 -->
<g id="edge1" class="edge"><title>Node166&#45;&gt;Node167</title>
<path fill="none" stroke="midnightblue" d="M56.4391,-96.33C69.9628,-117.165 96.7036,-154.409 128,-177 130.089,-178.508 132.265,-179.954 134.504,-181.34"/>
<polygon fill="midnightblue" stroke="midnightblue" points="132.98,-184.499 143.406,-186.384 136.431,-178.409 132.98,-184.499"/>
</g>
<!-- Node168 -->
<g id="node3" class="node"><title>Node168</title>
<g id="a_node3"><a xlink:href="classel_1_1base_1_1utils_1_1_registry_with_pred.html#a561a5d418106a16473ff94d43a4b6b04" target="_top" xlink:title="el::base::utils::Registry\lWithPred\&lt; Configuration,\l Configuration::Predicate\l \&gt;::registerNew">
<polygon fill="white" stroke="black" points="141.5,-115 141.5,-167 266.5,-167 266.5,-115 141.5,-115"/>
<text text-anchor="start" x="149.5" y="-155" font-family="Helvetica,sans-Serif" font-size="10.00">el::base::utils::Registry</text>
<text text-anchor="start" x="149.5" y="-144" font-family="Helvetica,sans-Serif" font-size="10.00">WithPred&lt; Configuration,</text>
<text text-anchor="start" x="149.5" y="-133" font-family="Helvetica,sans-Serif" font-size="10.00"> Configuration::Predicate</text>
<text text-anchor="middle" x="204" y="-122" font-family="Helvetica,sans-Serif" font-size="10.00"> &gt;::registerNew</text>
</a>
</g>
</g>
<!-- Node166&#45;&gt;Node168 -->
<g id="edge2" class="edge"><title>Node166&#45;&gt;Node168</title>
<path fill="none" stroke="midnightblue" d="M86.3654,-96.1405C100.194,-101.459 116.189,-107.611 131.817,-113.622"/>
<polygon fill="midnightblue" stroke="midnightblue" points="130.888,-117.014 141.478,-117.338 133.401,-110.481 130.888,-117.014"/>
</g>
<!-- Node169 -->
<g id="node4" class="node"><title>Node169</title>
<g id="a_node4"><a xlink:href="classel_1_1_configuration.html#a04755de11422d7570869433ea157b705" target="_top" xlink:title="Set string based configuration value. ">
<polygon fill="white" stroke="black" points="158,-66 158,-96 250,-96 250,-66 158,-66"/>
<text text-anchor="start" x="166" y="-84" font-family="Helvetica,sans-Serif" font-size="10.00">el::Configuration::</text>
<text text-anchor="middle" x="204" y="-73" font-family="Helvetica,sans-Serif" font-size="10.00">setValue</text>
</a>
</g>
</g>
<!-- Node166&#45;&gt;Node169 -->
<g id="edge3" class="edge"><title>Node166&#45;&gt;Node169</title>
<path fill="none" stroke="midnightblue" d="M92.1217,-81C109.504,-81 129.552,-81 147.781,-81"/>
<polygon fill="midnightblue" stroke="midnightblue" points="147.98,-84.5001 157.98,-81 147.98,-77.5001 147.98,-84.5001"/>
</g>
<!-- Node170 -->
<g id="node5" class="node"><title>Node170</title>
<g id="a_node5"><a xlink:href="classel_1_1_configurations.html#a800efb58724eb771027135b282eae512" target="_top" xlink:title="Sets configurations (Unsafely) for all levels including Level::Global if includeGlobalLevel is true...">
<polygon fill="white" stroke="black" points="153.5,-17 153.5,-47 254.5,-47 254.5,-17 153.5,-17"/>
<text text-anchor="start" x="161.5" y="-35" font-family="Helvetica,sans-Serif" font-size="10.00">el::Configurations</text>
<text text-anchor="middle" x="204" y="-24" font-family="Helvetica,sans-Serif" font-size="10.00">::unsafeSetGlobally</text>
</a>
</g>
</g>
<!-- Node166&#45;&gt;Node170 -->
<g id="edge4" class="edge"><title>Node166&#45;&gt;Node170</title>
<path fill="none" stroke="midnightblue" d="M77.4487,-65.955C96.2179,-58.9031 120.927,-50.7758 143.457,-44.1234"/>
<polygon fill="midnightblue" stroke="midnightblue" points="144.658,-47.4194 153.29,-41.2753 142.711,-40.6958 144.658,-47.4194"/>
</g>
<!-- Node170&#45;&gt;Node166 -->
<g id="edge5" class="edge"><title>Node170&#45;&gt;Node166</title>
<path fill="none" stroke="midnightblue" d="M172.305,-47.1376C152.297,-54.6441 125.617,-63.3532 102.018,-70.2012"/>
<polygon fill="midnightblue" stroke="midnightblue" points="100.784,-66.9132 92.1217,-73.0132 102.698,-73.6466 100.784,-66.9132"/>
</g>
<!-- Node171 -->
<g id="node6" class="node"><title>Node171</title>
<g id="a_node6"><a xlink:href="classel_1_1_level_helper.html#a7f0dbfceb2354a72c2802d02c300430d" target="_top" xlink:title="Applies specified function to each level starting from startIndex. ">
<polygon fill="white" stroke="black" points="325,-39 325,-69 444,-69 444,-39 325,-39"/>
<text text-anchor="start" x="333" y="-57" font-family="Helvetica,sans-Serif" font-size="10.00">el::LevelHelper::forEach</text>
<text text-anchor="middle" x="384.5" y="-46" font-family="Helvetica,sans-Serif" font-size="10.00">Level</text>
</a>
</g>
</g>
<!-- Node170&#45;&gt;Node171 -->
<g id="edge6" class="edge"><title>Node170&#45;&gt;Node171</title>
<path fill="none" stroke="midnightblue" d="M254.722,-38.1282C273.343,-40.4232 294.84,-43.0727 314.87,-45.5415"/>
<polygon fill="midnightblue" stroke="midnightblue" points="314.524,-49.0251 324.877,-46.7747 315.38,-42.0777 314.524,-49.0251"/>
</g>
<!-- Node172 -->
<g id="node7" class="node"><title>Node172</title>
<g id="a_node7"><a xlink:href="classel_1_1_level_helper.html#a1279f27df29a003df5ecc3d0bf4dacbb" target="_top" xlink:title="Casts int(ushort) to level, useful for iterating through enum. ">
<polygon fill="white" stroke="black" points="316,-0.5 316,-19.5 453,-19.5 453,-0.5 316,-0.5"/>
<text text-anchor="middle" x="384.5" y="-7.5" font-family="Helvetica,sans-Serif" font-size="10.00">el::LevelHelper::castFromInt</text>
</a>
</g>
</g>
<!-- Node170&#45;&gt;Node172 -->
<g id="edge7" class="edge"><title>Node170&#45;&gt;Node172</title>
<path fill="none" stroke="midnightblue" d="M254.722,-25.8718C270.503,-23.9268 288.35,-21.7272 305.619,-19.5987"/>
<polygon fill="midnightblue" stroke="midnightblue" points="306.204,-23.0533 315.701,-18.3562 305.348,-16.1058 306.204,-23.0533"/>
</g>
</g>
</svg>
