<?xml version="1.0" encoding="UTF-8" standalone="no"?>
<!DOCTYPE svg PUBLIC "-//W3C//DTD SVG 1.1//EN"
 "http://www.w3.org/Graphics/SVG/1.1/DTD/svg11.dtd">
<!-- Generated by graphviz version 2.38.0 (20140413.2041)
 -->
<!-- Title: vpr::Allocator::AllocateForImage Pages: 1 -->
<svg width="758pt" height="380pt"
 viewBox="0.00 0.00 758.00 380.17" xmlns="http://www.w3.org/2000/svg" xmlns:xlink="http://www.w3.org/1999/xlink">
<g id="graph0" class="graph" transform="scale(1 1) rotate(0) translate(4 376.172)">
<title>vpr::Allocator::AllocateForImage</title>
<polygon fill="white" stroke="none" points="-4,4 -4,-376.172 754,-376.172 754,4 -4,4"/>
<!-- Node33 -->
<g id="node1" class="node"><title>Node33</title>
<polygon fill="#bfbfbf" stroke="black" points="0,-97.672 0,-127.672 114,-127.672 114,-97.672 0,-97.672"/>
<text text-anchor="start" x="8" y="-115.672" font-family="Helvetica,sans-Serif" font-size="10.00">vpr::Allocator::Allocate</text>
<text text-anchor="middle" x="57" y="-104.672" font-family="Helvetica,sans-Serif" font-size="10.00">ForImage</text>
</g>
<!-- Node34 -->
<g id="node2" class="node"><title>Node34</title>
<g id="a_node2"><a xlink:href="classvpr_1_1_allocator.html#a1d36e3567e4fd7ef8bf1395942f6c714" target="_top" xlink:title="vpr::Allocator::Allocate\lMemory">
<polygon fill="white" stroke="black" points="152.5,-141.672 152.5,-171.672 266.5,-171.672 266.5,-141.672 152.5,-141.672"/>
<text text-anchor="start" x="160.5" y="-159.672" font-family="Helvetica,sans-Serif" font-size="10.00">vpr::Allocator::Allocate</text>
<text text-anchor="middle" x="209.5" y="-148.672" font-family="Helvetica,sans-Serif" font-size="10.00">Memory</text>
</a>
</g>
</g>
<!-- Node33&#45;&gt;Node34 -->
<g id="edge1" class="edge"><title>Node33&#45;&gt;Node34</title>
<path fill="none" stroke="midnightblue" d="M109.373,-127.691C121.534,-131.247 134.624,-135.074 147.178,-138.744"/>
<polygon fill="midnightblue" stroke="midnightblue" points="146.523,-142.199 157.104,-141.646 148.488,-135.48 146.523,-142.199"/>
</g>
<!-- Node46 -->
<g id="node13" class="node"><title>Node46</title>
<g id="a_node13"><a xlink:href="classvpr_1_1_allocator.html#a526196279f36a8fe91524f2bbde9386f" target="_top" xlink:title="vpr::Allocator::getImage\lMemReqs">
<polygon fill="white" stroke="black" points="150,-54.672 150,-84.672 269,-84.672 269,-54.672 150,-54.672"/>
<text text-anchor="start" x="158" y="-72.672" font-family="Helvetica,sans-Serif" font-size="10.00">vpr::Allocator::getImage</text>
<text text-anchor="middle" x="209.5" y="-61.672" font-family="Helvetica,sans-Serif" font-size="10.00">MemReqs</text>
</a>
</g>
</g>
<!-- Node33&#45;&gt;Node46 -->
<g id="edge13" class="edge"><title>Node33&#45;&gt;Node46</title>
<path fill="none" stroke="midnightblue" d="M110.638,-97.6326C122.094,-94.3593 134.322,-90.8658 146.115,-87.4964"/>
<polygon fill="midnightblue" stroke="midnightblue" points="147.238,-90.8154 155.892,-84.7028 145.315,-84.0847 147.238,-90.8154"/>
</g>
<!-- Node35 -->
<g id="node3" class="node"><title>Node35</title>
<g id="a_node3"><a xlink:href="classvpr_1_1_allocator.html#a12b2ce29d3b6b28131cc9c5a331d2286" target="_top" xlink:title="vpr::Allocator::findMemory\lTypeIdx">
<polygon fill="white" stroke="black" points="305,-297.672 305,-327.672 434,-327.672 434,-297.672 305,-297.672"/>
<text text-anchor="start" x="313" y="-315.672" font-family="Helvetica,sans-Serif" font-size="10.00">vpr::Allocator::findMemory</text>
<text text-anchor="middle" x="369.5" y="-304.672" font-family="Helvetica,sans-Serif" font-size="10.00">TypeIdx</text>
</a>
</g>
</g>
<!-- Node34&#45;&gt;Node35 -->
<g id="edge2" class="edge"><title>Node34&#45;&gt;Node35</title>
<path fill="none" stroke="midnightblue" d="M225.937,-171.914C253.973,-199.595 313.363,-258.232 345.944,-290.401"/>
<polygon fill="midnightblue" stroke="midnightblue" points="343.658,-293.062 353.233,-297.598 348.576,-288.081 343.658,-293.062"/>
</g>
<!-- Node38 -->
<g id="node6" class="node"><title>Node38</title>
<g id="a_node6"><a xlink:href="classvpr_1_1_allocator.html#a40618202c2c86027ee1915cadbc18afd" target="_top" xlink:title="vpr::Allocator::allocate\lMemoryType">
<polygon fill="white" stroke="black" points="313,-141.672 313,-171.672 426,-171.672 426,-141.672 313,-141.672"/>
<text text-anchor="start" x="321" y="-159.672" font-family="Helvetica,sans-Serif" font-size="10.00">vpr::Allocator::allocate</text>
<text text-anchor="middle" x="369.5" y="-148.672" font-family="Helvetica,sans-Serif" font-size="10.00">MemoryType</text>
</a>
</g>
</g>
<!-- Node34&#45;&gt;Node38 -->
<g id="edge5" class="edge"><title>Node34&#45;&gt;Node38</title>
<path fill="none" stroke="midnightblue" d="M266.65,-156.672C278.244,-156.672 290.556,-156.672 302.464,-156.672"/>
<polygon fill="midnightblue" stroke="midnightblue" points="302.797,-160.172 312.797,-156.672 302.797,-153.172 302.797,-160.172"/>
</g>
<!-- Node36 -->
<g id="node4" class="node"><title>Node36</title>
<g id="a_node4"><a xlink:href="classvpr_1_1_allocator.html#a4277250f2867fd5b729bc78e7dc5eb6f" target="_top" xlink:title="vpr::Allocator::GetMemory\lTypeCount">
<polygon fill="white" stroke="black" points="473,-341.672 473,-371.672 603,-371.672 603,-341.672 473,-341.672"/>
<text text-anchor="start" x="481" y="-359.672" font-family="Helvetica,sans-Serif" font-size="10.00">vpr::Allocator::GetMemory</text>
<text text-anchor="middle" x="538" y="-348.672" font-family="Helvetica,sans-Serif" font-size="10.00">TypeCount</text>
</a>
</g>
</g>
<!-- Node35&#45;&gt;Node36 -->
<g id="edge3" class="edge"><title>Node35&#45;&gt;Node36</title>
<path fill="none" stroke="midnightblue" d="M427.334,-327.691C441.188,-331.352 456.132,-335.301 470.395,-339.071"/>
<polygon fill="midnightblue" stroke="midnightblue" points="469.577,-342.475 480.139,-341.646 471.366,-335.707 469.577,-342.475"/>
</g>
<!-- Node37 -->
<g id="node5" class="node"><title>Node37</title>
<g id="a_node5"><a xlink:href="namespacevpr.html#a4670febea81bc9a6a25fb8b1cf1afaaa" target="_top" xlink:title="vpr::countBitsSet">
<polygon fill="white" stroke="black" points="492.5,-303.172 492.5,-322.172 583.5,-322.172 583.5,-303.172 492.5,-303.172"/>
<text text-anchor="middle" x="538" y="-310.172" font-family="Helvetica,sans-Serif" font-size="10.00">vpr::countBitsSet</text>
</a>
</g>
</g>
<!-- Node35&#45;&gt;Node37 -->
<g id="edge4" class="edge"><title>Node35&#45;&gt;Node37</title>
<path fill="none" stroke="midnightblue" d="M434.397,-312.672C450.119,-312.672 466.816,-312.672 482.072,-312.672"/>
<polygon fill="midnightblue" stroke="midnightblue" points="482.374,-316.172 492.374,-312.672 482.374,-309.172 482.374,-316.172"/>
</g>
<!-- Node39 -->
<g id="node7" class="node"><title>Node39</title>
<g id="a_node7"><a xlink:href="classvpr_1_1_allocator.html#aee9903438ded8311fd11f757f80002d6" target="_top" xlink:title="vpr::Allocator::GetPreferred\lBlockSize">
<polygon fill="white" stroke="black" points="471,-253.672 471,-283.672 605,-283.672 605,-253.672 471,-253.672"/>
<text text-anchor="start" x="479" y="-271.672" font-family="Helvetica,sans-Serif" font-size="10.00">vpr::Allocator::GetPreferred</text>
<text text-anchor="middle" x="538" y="-260.672" font-family="Helvetica,sans-Serif" font-size="10.00">BlockSize</text>
</a>
</g>
</g>
<!-- Node38&#45;&gt;Node39 -->
<g id="edge6" class="edge"><title>Node38&#45;&gt;Node39</title>
<path fill="none" stroke="midnightblue" d="M383.955,-171.687C401.907,-190.933 435.461,-224.247 470,-244.672 472.818,-246.339 475.771,-247.917 478.8,-249.409"/>
<polygon fill="midnightblue" stroke="midnightblue" points="477.507,-252.666 488.059,-253.62 480.406,-246.294 477.507,-252.666"/>
</g>
<!-- Node40 -->
<g id="node8" class="node"><title>Node40</title>
<g id="a_node8"><a xlink:href="classvpr_1_1_allocator.html#ad4d7daf9b55d81a4fab0cb4a657d6508" target="_top" xlink:title="vpr::Allocator::allocate\lPrivateMemory">
<polygon fill="white" stroke="red" points="481.5,-204.672 481.5,-234.672 594.5,-234.672 594.5,-204.672 481.5,-204.672"/>
<text text-anchor="start" x="489.5" y="-222.672" font-family="Helvetica,sans-Serif" font-size="10.00">vpr::Allocator::allocate</text>
<text text-anchor="middle" x="538" y="-211.672" font-family="Helvetica,sans-Serif" font-size="10.00">PrivateMemory</text>
</a>
</g>
</g>
<!-- Node38&#45;&gt;Node40 -->
<g id="edge7" class="edge"><title>Node38&#45;&gt;Node40</title>
<path fill="none" stroke="midnightblue" d="M410.381,-171.762C433.567,-180.535 462.981,-191.665 487.622,-200.988"/>
<polygon fill="midnightblue" stroke="midnightblue" points="486.565,-204.33 497.156,-204.596 489.042,-197.783 486.565,-204.33"/>
</g>
<!-- Node41 -->
<g id="node9" class="node"><title>Node41</title>
<g id="a_node9"><a xlink:href="classvpr_1_1_device.html#a59882855173bef0b13a17b376ea01d45" target="_top" xlink:title="vpr::Device::vkHandle">
<polygon fill="white" stroke="black" points="642,-166.172 642,-185.172 750,-185.172 750,-166.172 642,-166.172"/>
<text text-anchor="middle" x="696" y="-173.172" font-family="Helvetica,sans-Serif" font-size="10.00">vpr::Device::vkHandle</text>
</a>
</g>
</g>
<!-- Node38&#45;&gt;Node41 -->
<g id="edge12" class="edge"><title>Node38&#45;&gt;Node41</title>
<path fill="none" stroke="midnightblue" d="M426.284,-159.938C483.412,-163.283 572.069,-168.474 631.768,-171.97"/>
<polygon fill="midnightblue" stroke="midnightblue" points="631.639,-175.468 641.826,-172.559 632.048,-168.48 631.639,-175.468"/>
</g>
<!-- Node43 -->
<g id="node10" class="node"><title>Node43</title>
<g id="a_node10"><a xlink:href="classvpr_1_1_allocator.html#a32c2e59911a888c64b7d56005014865b" target="_top" xlink:title="vpr::Allocator::GetAllocSize">
<polygon fill="white" stroke="black" points="470,-128.172 470,-147.172 606,-147.172 606,-128.172 470,-128.172"/>
<text text-anchor="middle" x="538" y="-135.172" font-family="Helvetica,sans-Serif" font-size="10.00">vpr::Allocator::GetAllocSize</text>
</a>
</g>
</g>
<!-- Node38&#45;&gt;Node43 -->
<g id="edge9" class="edge"><title>Node38&#45;&gt;Node43</title>
<path fill="none" stroke="midnightblue" d="M426.405,-150.292C437.11,-149.071 448.494,-147.772 459.731,-146.489"/>
<polygon fill="midnightblue" stroke="midnightblue" points="460.448,-149.93 469.987,-145.319 459.654,-142.976 460.448,-149.93"/>
</g>
<!-- Node44 -->
<g id="node11" class="node"><title>Node44</title>
<g id="a_node11"><a xlink:href="classvpr_1_1_allocator.html#af89f4383e7e9eb534e1ddc76081c43fd" target="_top" xlink:title="vpr::Allocator::GetBuffer\lImageGranularity">
<polygon fill="white" stroke="black" points="478.5,-78.672 478.5,-108.672 597.5,-108.672 597.5,-78.672 478.5,-78.672"/>
<text text-anchor="start" x="486.5" y="-96.672" font-family="Helvetica,sans-Serif" font-size="10.00">vpr::Allocator::GetBuffer</text>
<text text-anchor="middle" x="538" y="-85.672" font-family="Helvetica,sans-Serif" font-size="10.00">ImageGranularity</text>
</a>
</g>
</g>
<!-- Node38&#45;&gt;Node44 -->
<g id="edge10" class="edge"><title>Node38&#45;&gt;Node44</title>
<path fill="none" stroke="midnightblue" d="M409.698,-141.623C428.006,-134.614 450.106,-126.182 470,-118.672 475.506,-116.593 481.271,-114.427 487.009,-112.277"/>
<polygon fill="midnightblue" stroke="midnightblue" points="488.452,-115.475 496.591,-108.693 485.999,-108.918 488.452,-115.475"/>
</g>
<!-- Node45 -->
<g id="node12" class="node"><title>Node45</title>
<g id="a_node12"><a xlink:href="classvpr_1_1_allocation.html#ad5d461398f23e593c58f70a8cac78922" target="_top" xlink:title="vpr::Allocation::Init">
<polygon fill="white" stroke="black" points="490,-40.172 490,-59.172 586,-59.172 586,-40.172 490,-40.172"/>
<text text-anchor="middle" x="538" y="-47.172" font-family="Helvetica,sans-Serif" font-size="10.00">vpr::Allocation::Init</text>
</a>
</g>
</g>
<!-- Node38&#45;&gt;Node45 -->
<g id="edge11" class="edge"><title>Node38&#45;&gt;Node45</title>
<path fill="none" stroke="midnightblue" d="M383.445,-141.631C401.095,-122.043 434.588,-88.0284 470,-68.672 474.157,-66.3995 478.612,-64.3775 483.175,-62.5826"/>
<polygon fill="midnightblue" stroke="midnightblue" points="484.391,-65.865 492.635,-59.2097 482.04,-59.2716 484.391,-65.865"/>
</g>
<!-- Node40&#45;&gt;Node41 -->
<g id="edge8" class="edge"><title>Node40&#45;&gt;Node41</title>
<path fill="none" stroke="midnightblue" d="M592.25,-204.653C611.464,-199.233 632.914,-193.183 651.225,-188.019"/>
<polygon fill="midnightblue" stroke="midnightblue" points="652.366,-191.333 661.041,-185.25 650.466,-184.596 652.366,-191.333"/>
</g>
<!-- Node46&#45;&gt;Node41 -->
<g id="edge14" class="edge"><title>Node46&#45;&gt;Node41</title>
<path fill="none" stroke="midnightblue" d="M243.037,-54.6464C314.09,-24.2295 486.33,36.2895 606,-30.672 654.401,-57.7551 679.682,-123.119 689.719,-156.035"/>
<polygon fill="midnightblue" stroke="midnightblue" points="686.416,-157.214 692.549,-165.852 693.142,-155.274 686.416,-157.214"/>
</g>
</g>
</svg>
