<?xml version="1.0" encoding="UTF-8" standalone="no"?>
<!DOCTYPE svg PUBLIC "-//W3C//DTD SVG 1.1//EN"
 "http://www.w3.org/Graphics/SVG/1.1/DTD/svg11.dtd">
<!-- Generated by graphviz version 2.38.0 (20140413.2041)
 -->
<!-- Title: vpr::Instance Pages: 1 -->
<svg width="1386pt" height="88pt"
 viewBox="0.00 0.00 1386.00 88.00" xmlns="http://www.w3.org/2000/svg" xmlns:xlink="http://www.w3.org/1999/xlink">
<g id="graph0" class="graph" transform="scale(1 1) rotate(0) translate(4 84)">
<title>vpr::Instance</title>
<polygon fill="white" stroke="none" points="-4,4 -4,-84 1382,-84 1382,4 -4,4"/>
<!-- Node1 -->
<g id="node1" class="node"><title>Node1</title>
<polygon fill="#bfbfbf" stroke="black" points="999,-26 999,-45 1070,-45 1070,-26 999,-26"/>
<text text-anchor="middle" x="1034.5" y="-33" font-family="Helvetica,sans-Serif" font-size="10.00">vpr::Instance</text>
</g>
<!-- Node9 -->
<g id="node9" class="node"><title>Node9</title>
<g id="a_node9"><a xlink:href="classvpr_1_1_surface_k_h_r.html" target="_top" xlink:title="The bare&#45;minimum required to wrap a VkSurfaceKHR object. ">
<polygon fill="white" stroke="black" points="1137,-49 1137,-68 1225,-68 1225,-49 1137,-49"/>
<text text-anchor="middle" x="1181" y="-56" font-family="Helvetica,sans-Serif" font-size="10.00">vpr::SurfaceKHR</text>
</a>
</g>
</g>
<!-- Node1&#45;&gt;Node9 -->
<g id="edge9" class="edge"><title>Node1&#45;&gt;Node9</title>
<path fill="none" stroke="#9a32cd" stroke-dasharray="5,2" d="M1080.11,-42.601C1098.18,-45.4769 1118.96,-48.7849 1136.88,-51.6362"/>
<polygon fill="#9a32cd" stroke="#9a32cd" points="1080.54,-39.1246 1070.11,-41.0091 1079.44,-46.0376 1080.54,-39.1246"/>
<text text-anchor="middle" x="1103.5" y="-51.5" font-family="Helvetica,sans-Serif" font-size="10.00"> parent</text>
</g>
<!-- Node2 -->
<g id="node2" class="node"><title>Node2</title>
<polygon fill="white" stroke="#bfbfbf" points="775,-49.5 775,-79.5 877,-79.5 877,-49.5 775,-49.5"/>
<text text-anchor="start" x="783" y="-67.5" font-family="Helvetica,sans-Serif" font-size="10.00">std::unique_ptr&lt; vpr</text>
<text text-anchor="middle" x="826" y="-56.5" font-family="Helvetica,sans-Serif" font-size="10.00">::PhysicalDevice &gt;</text>
</g>
<!-- Node2&#45;&gt;Node1 -->
<g id="edge1" class="edge"><title>Node2&#45;&gt;Node1</title>
<path fill="none" stroke="#9a32cd" stroke-dasharray="5,2" d="M887.245,-56.0394C923.558,-50.9398 968.512,-44.6266 998.924,-40.3557"/>
<polygon fill="#9a32cd" stroke="#9a32cd" points="886.668,-52.5861 877.252,-57.4429 887.641,-59.5181 886.668,-52.5861"/>
<text text-anchor="middle" x="938" y="-57.5" font-family="Helvetica,sans-Serif" font-size="10.00"> physicalDevice</text>
</g>
<!-- Node3 -->
<g id="node3" class="node"><title>Node3</title>
<g id="a_node3"><a xlink:href="classvpr_1_1_physical_device.html" target="_top" xlink:title="! PhysicalDevice is a wrapper around a VkPhysicalDevice object, which is itself merely a handle repre...">
<polygon fill="white" stroke="black" points="623,-55 623,-74 724,-74 724,-55 623,-55"/>
<text text-anchor="middle" x="673.5" y="-62" font-family="Helvetica,sans-Serif" font-size="10.00">vpr::PhysicalDevice</text>
</a>
</g>
</g>
<!-- Node3&#45;&gt;Node2 -->
<g id="edge2" class="edge"><title>Node3&#45;&gt;Node2</title>
<path fill="none" stroke="#9a32cd" stroke-dasharray="5,2" d="M734.303,-64.5C747.734,-64.5 761.851,-64.5 774.842,-64.5"/>
<polygon fill="#9a32cd" stroke="#9a32cd" points="734.196,-61.0001 724.196,-64.5 734.196,-68.0001 734.196,-61.0001"/>
<text text-anchor="middle" x="749.5" y="-67.5" font-family="Helvetica,sans-Serif" font-size="10.00"> ptr</text>
</g>
<!-- Node4 -->
<g id="node4" class="node"><title>Node4</title>
<polygon fill="white" stroke="#bfbfbf" points="449,-49.5 449,-79.5 565,-79.5 565,-49.5 449,-49.5"/>
<text text-anchor="start" x="457" y="-67.5" font-family="Helvetica,sans-Serif" font-size="10.00">std::unique_ptr&lt; vpr</text>
<text text-anchor="middle" x="507" y="-56.5" font-family="Helvetica,sans-Serif" font-size="10.00">::PhysicalDeviceImpl &gt;</text>
</g>
<!-- Node4&#45;&gt;Node3 -->
<g id="edge3" class="edge"><title>Node4&#45;&gt;Node3</title>
<path fill="none" stroke="#9a32cd" stroke-dasharray="5,2" d="M575.39,-64.5C591.298,-64.5 607.973,-64.5 622.928,-64.5"/>
<polygon fill="#9a32cd" stroke="#9a32cd" points="575.072,-61.0001 565.072,-64.5 575.072,-68.0001 575.072,-61.0001"/>
<text text-anchor="middle" x="594" y="-67.5" font-family="Helvetica,sans-Serif" font-size="10.00"> impl</text>
</g>
<!-- Node5 -->
<g id="node5" class="node"><title>Node5</title>
<g id="a_node5"><a xlink:href="classvpr_1_1_physical_device_impl.html" target="_top" xlink:title="vpr::PhysicalDeviceImpl">
<polygon fill="white" stroke="black" points="279,-55 279,-74 398,-74 398,-55 279,-55"/>
<text text-anchor="middle" x="338.5" y="-62" font-family="Helvetica,sans-Serif" font-size="10.00">vpr::PhysicalDeviceImpl</text>
</a>
</g>
</g>
<!-- Node5&#45;&gt;Node4 -->
<g id="edge4" class="edge"><title>Node5&#45;&gt;Node4</title>
<path fill="none" stroke="#9a32cd" stroke-dasharray="5,2" d="M408.393,-64.5C421.884,-64.5 435.894,-64.5 448.948,-64.5"/>
<polygon fill="#9a32cd" stroke="#9a32cd" points="408.202,-61.0001 398.202,-64.5 408.202,-68.0001 408.202,-61.0001"/>
<text text-anchor="middle" x="423.5" y="-67.5" font-family="Helvetica,sans-Serif" font-size="10.00"> ptr</text>
</g>
<!-- Node6 -->
<g id="node6" class="node"><title>Node6</title>
<polygon fill="white" stroke="#bfbfbf" points="0,-49.5 0,-79.5 140,-79.5 140,-49.5 0,-49.5"/>
<text text-anchor="start" x="8" y="-67.5" font-family="Helvetica,sans-Serif" font-size="10.00">std::vector&lt; VkQueueFamily</text>
<text text-anchor="middle" x="70" y="-56.5" font-family="Helvetica,sans-Serif" font-size="10.00">Properties &gt;</text>
</g>
<!-- Node6&#45;&gt;Node5 -->
<g id="edge5" class="edge"><title>Node6&#45;&gt;Node5</title>
<path fill="none" stroke="#9a32cd" stroke-dasharray="5,2" d="M150.348,-64.5C191.603,-64.5 241.148,-64.5 278.896,-64.5"/>
<polygon fill="#9a32cd" stroke="#9a32cd" points="150.324,-61.0001 140.324,-64.5 150.324,-68.0001 150.324,-61.0001"/>
<text text-anchor="middle" x="209.5" y="-67.5" font-family="Helvetica,sans-Serif" font-size="10.00"> queueFamilyProperties</text>
</g>
<!-- Node7 -->
<g id="node7" class="node"><title>Node7</title>
<polygon fill="white" stroke="#bfbfbf" points="778.5,-0.5 778.5,-30.5 873.5,-30.5 873.5,-0.5 778.5,-0.5"/>
<text text-anchor="start" x="786.5" y="-18.5" font-family="Helvetica,sans-Serif" font-size="10.00">std::vector&lt; const</text>
<text text-anchor="middle" x="826" y="-7.5" font-family="Helvetica,sans-Serif" font-size="10.00"> char *&gt;</text>
</g>
<!-- Node7&#45;&gt;Node1 -->
<g id="edge6" class="edge"><title>Node7&#45;&gt;Node1</title>
<path fill="none" stroke="#9a32cd" stroke-dasharray="5,2" d="M883.715,-16.1072C912.899,-17.0105 948.978,-19.0427 981,-23.5 986.834,-24.3121 992.976,-25.4512 998.921,-26.7072"/>
<polygon fill="#9a32cd" stroke="#9a32cd" points="883.79,-12.608 873.698,-15.8327 883.598,-19.6054 883.79,-12.608"/>
<text text-anchor="middle" x="938" y="-26.5" font-family="Helvetica,sans-Serif" font-size="10.00"> enabledExtensions</text>
</g>
<!-- Node8 -->
<g id="node8" class="node"><title>Node8</title>
<polygon fill="white" stroke="#bfbfbf" points="1276,-22.5 1276,-52.5 1378,-52.5 1378,-22.5 1276,-22.5"/>
<text text-anchor="start" x="1284" y="-40.5" font-family="Helvetica,sans-Serif" font-size="10.00">std::unique_ptr&lt; vpr</text>
<text text-anchor="middle" x="1327" y="-29.5" font-family="Helvetica,sans-Serif" font-size="10.00">::SurfaceKHR &gt;</text>
</g>
<!-- Node8&#45;&gt;Node1 -->
<g id="edge7" class="edge"><title>Node8&#45;&gt;Node1</title>
<path fill="none" stroke="#9a32cd" stroke-dasharray="5,2" d="M1265.87,-31.2583C1252.44,-30.1101 1238.24,-29.0889 1225,-28.5 1185.93,-26.7626 1176.09,-27.1537 1137,-28.5 1114.76,-29.2661 1089.82,-30.9738 1070.23,-32.5106"/>
<polygon fill="#9a32cd" stroke="#9a32cd" points="1265.7,-34.7568 1275.97,-32.1561 1266.32,-27.7843 1265.7,-34.7568"/>
<text text-anchor="middle" x="1181" y="-31.5" font-family="Helvetica,sans-Serif" font-size="10.00"> surface</text>
</g>
<!-- Node9&#45;&gt;Node8 -->
<g id="edge8" class="edge"><title>Node9&#45;&gt;Node8</title>
<path fill="none" stroke="#9a32cd" stroke-dasharray="5,2" d="M1235.2,-50.7423C1248.54,-48.7963 1262.81,-46.715 1275.99,-44.7925"/>
<polygon fill="#9a32cd" stroke="#9a32cd" points="1234.59,-47.2928 1225.2,-52.1993 1235.61,-54.2195 1234.59,-47.2928"/>
<text text-anchor="middle" x="1250.5" y="-52.5" font-family="Helvetica,sans-Serif" font-size="10.00"> ptr</text>
</g>
</g>
</svg>
