<?xml version="1.0" encoding="UTF-8" standalone="no"?>
<!DOCTYPE svg PUBLIC "-//W3C//DTD SVG 1.1//EN"
 "http://www.w3.org/Graphics/SVG/1.1/DTD/svg11.dtd">
<!-- Generated by graphviz version 2.38.0 (20140413.2041)
 -->
<!-- Title: el::base::TypedConfigurations::toFile Pages: 1 -->
<svg width="330pt" height="78pt"
 viewBox="0.00 0.00 330.00 77.50" xmlns="http://www.w3.org/2000/svg" xmlns:xlink="http://www.w3.org/1999/xlink">
<g id="graph0" class="graph" transform="scale(1 1) rotate(0) translate(4 73.5)">
<title>el::base::TypedConfigurations::toFile</title>
<polygon fill="white" stroke="none" points="-4,4 -4,-73.5 326,-73.5 326,4 -4,4"/>
<!-- Node138 -->
<g id="node1" class="node"><title>Node138</title>
<polygon fill="#bfbfbf" stroke="black" points="0,-17 0,-47 145,-47 145,-17 0,-17"/>
<text text-anchor="start" x="8" y="-35" font-family="Helvetica,sans-Serif" font-size="10.00">el::base::TypedConfigurations</text>
<text text-anchor="middle" x="72.5" y="-24" font-family="Helvetica,sans-Serif" font-size="10.00">::toFile</text>
</g>
<!-- Node139 -->
<g id="node2" class="node"><title>Node139</title>
<g id="a_node2"><a xlink:href="classel_1_1base_1_1_default_log_dispatch_callback.html#adc7c200395c99534d55cb23cfabafcb1" target="_top" xlink:title="el::base::DefaultLogDispatch\lCallback::dispatch">
<polygon fill="white" stroke="black" points="181,-39 181,-69 322,-69 322,-39 181,-39"/>
<text text-anchor="start" x="189" y="-57" font-family="Helvetica,sans-Serif" font-size="10.00">el::base::DefaultLogDispatch</text>
<text text-anchor="middle" x="251.5" y="-46" font-family="Helvetica,sans-Serif" font-size="10.00">Callback::dispatch</text>
</a>
</g>
</g>
<!-- Node138&#45;&gt;Node139 -->
<g id="edge1" class="edge"><title>Node138&#45;&gt;Node139</title>
<path fill="none" stroke="midnightblue" d="M155.261,-42.1624C163.849,-43.2298 172.523,-44.3079 180.955,-45.356"/>
<polygon fill="midnightblue" stroke="midnightblue" points="155.593,-38.6768 145.238,-40.9165 154.729,-45.6233 155.593,-38.6768"/>
</g>
<!-- Node140 -->
<g id="node3" class="node"><title>Node140</title>
<g id="a_node3"><a xlink:href="classel_1_1_logger.html#a83c85278ebeeef6a24cc112e56c344dd" target="_top" xlink:title="el::Logger::flush">
<polygon fill="white" stroke="black" points="208.5,-0.5 208.5,-19.5 294.5,-19.5 294.5,-0.5 208.5,-0.5"/>
<text text-anchor="middle" x="251.5" y="-7.5" font-family="Helvetica,sans-Serif" font-size="10.00">el::Logger::flush</text>
</a>
</g>
</g>
<!-- Node138&#45;&gt;Node140 -->
<g id="edge2" class="edge"><title>Node138&#45;&gt;Node140</title>
<path fill="none" stroke="midnightblue" d="M155.379,-21.8229C173.742,-19.5406 192.486,-17.2108 208.427,-15.2294"/>
<polygon fill="midnightblue" stroke="midnightblue" points="154.729,-18.3767 145.238,-23.0835 155.593,-25.3232 154.729,-18.3767"/>
</g>
</g>
</svg>
