<?xml version="1.0" encoding="UTF-8" standalone="no"?>
<!DOCTYPE svg PUBLIC "-//W3C//DTD SVG 1.1//EN"
 "http://www.w3.org/Graphics/SVG/1.1/DTD/svg11.dtd">
<!-- Generated by graphviz version 2.38.0 (20140413.2041)
 -->
<!-- Title: el::base::Storage Pages: 1 -->
<svg width="216pt" height="95pt"
 viewBox="0.00 0.00 215.50 95.00" xmlns="http://www.w3.org/2000/svg" xmlns:xlink="http://www.w3.org/1999/xlink">
<g id="graph0" class="graph" transform="scale(1 1) rotate(0) translate(4 91)">
<title>el::base::Storage</title>
<polygon fill="white" stroke="none" points="-4,4 -4,-91 211.5,-91 211.5,4 -4,4"/>
<!-- Node0 -->
<g id="node1" class="node"><title>Node0</title>
<polygon fill="#bfbfbf" stroke="black" points="56.5,-0.5 56.5,-19.5 147.5,-19.5 147.5,-0.5 56.5,-0.5"/>
<text text-anchor="middle" x="102" y="-7.5" font-family="Helvetica,sans-Serif" font-size="10.00">el::base::Storage</text>
</g>
<!-- Node1 -->
<g id="node2" class="node"><title>Node1</title>
<g id="a_node2"><a xlink:href="classel_1_1base_1_1_no_copy.html" target="_top" xlink:title="Internal helper class that prevent copy constructor for class. ">
<polygon fill="white" stroke="black" points="0,-62 0,-81 92,-81 92,-62 0,-62"/>
<text text-anchor="middle" x="46" y="-69" font-family="Helvetica,sans-Serif" font-size="10.00">el::base::NoCopy</text>
</a>
</g>
</g>
<!-- Node1&#45;&gt;Node0 -->
<g id="edge1" class="edge"><title>Node1&#45;&gt;Node0</title>
<path fill="none" stroke="#8b1a1a" d="M61.0612,-54.4975C71.6607,-43.2356 85.4311,-28.6044 93.9914,-19.5091"/>
<polygon fill="#8b1a1a" stroke="#8b1a1a" points="58.3284,-52.2943 54.0234,-61.9751 63.4258,-57.0919 58.3284,-52.2943"/>
</g>
<!-- Node2 -->
<g id="node3" class="node"><title>Node2</title>
<g id="a_node3"><a xlink:href="classel_1_1base_1_1threading_1_1_thread_safe.html" target="_top" xlink:title="Base of thread safe class, this class is inheritable&#45;only. ">
<polygon fill="white" stroke="black" points="110.5,-56.5 110.5,-86.5 207.5,-86.5 207.5,-56.5 110.5,-56.5"/>
<text text-anchor="start" x="118.5" y="-74.5" font-family="Helvetica,sans-Serif" font-size="10.00">el::base::threading</text>
<text text-anchor="middle" x="159" y="-63.5" font-family="Helvetica,sans-Serif" font-size="10.00">::ThreadSafe</text>
</a>
</g>
</g>
<!-- Node2&#45;&gt;Node0 -->
<g id="edge2" class="edge"><title>Node2&#45;&gt;Node0</title>
<path fill="none" stroke="midnightblue" d="M138.406,-49.0023C128.691,-38.8617 117.646,-27.3319 110.294,-19.6578"/>
<polygon fill="midnightblue" stroke="midnightblue" points="136.047,-51.5994 145.492,-56.3993 141.101,-46.7569 136.047,-51.5994"/>
</g>
</g>
</svg>
