<?xml version="1.0" encoding="UTF-8" standalone="no"?>
<!DOCTYPE svg PUBLIC "-//W3C//DTD SVG 1.1//EN"
 "http://www.w3.org/Graphics/SVG/1.1/DTD/svg11.dtd">
<!-- Generated by graphviz version 2.38.0 (20140413.2041)
 -->
<!-- Title: vpr::DescriptorSet::~DescriptorSet Pages: 1 -->
<svg width="246pt" height="78pt"
 viewBox="0.00 0.00 246.00 77.50" xmlns="http://www.w3.org/2000/svg" xmlns:xlink="http://www.w3.org/1999/xlink">
<g id="graph0" class="graph" transform="scale(1 1) rotate(0) translate(4 73.5)">
<title>vpr::DescriptorSet::~DescriptorSet</title>
<polygon fill="white" stroke="none" points="-4,4 -4,-73.5 242,-73.5 242,4 -4,4"/>
<!-- Node4 -->
<g id="node1" class="node"><title>Node4</title>
<polygon fill="#bfbfbf" stroke="black" points="0,-17 0,-47 94,-47 94,-17 0,-17"/>
<text text-anchor="start" x="8" y="-35" font-family="Helvetica,sans-Serif" font-size="10.00">vpr::DescriptorSet</text>
<text text-anchor="middle" x="47" y="-24" font-family="Helvetica,sans-Serif" font-size="10.00">::~DescriptorSet</text>
</g>
<!-- Node5 -->
<g id="node2" class="node"><title>Node5</title>
<g id="a_node2"><a xlink:href="classvpr_1_1_descriptor_pool.html#ad9e6ae11354daa77e3f62c941b9b98eb" target="_top" xlink:title="vpr::DescriptorPool\l::vkHandle">
<polygon fill="white" stroke="black" points="135,-39 135,-69 233,-69 233,-39 135,-39"/>
<text text-anchor="start" x="143" y="-57" font-family="Helvetica,sans-Serif" font-size="10.00">vpr::DescriptorPool</text>
<text text-anchor="middle" x="184" y="-46" font-family="Helvetica,sans-Serif" font-size="10.00">::vkHandle</text>
</a>
</g>
</g>
<!-- Node4&#45;&gt;Node5 -->
<g id="edge1" class="edge"><title>Node4&#45;&gt;Node5</title>
<path fill="none" stroke="midnightblue" d="M94.0818,-39.5096C103.935,-41.1154 114.468,-42.8318 124.712,-44.5013"/>
<polygon fill="midnightblue" stroke="midnightblue" points="124.392,-47.9952 134.825,-46.1492 125.518,-41.0863 124.392,-47.9952"/>
</g>
<!-- Node6 -->
<g id="node3" class="node"><title>Node6</title>
<g id="a_node3"><a xlink:href="classvpr_1_1_device.html#a59882855173bef0b13a17b376ea01d45" target="_top" xlink:title="vpr::Device::vkHandle">
<polygon fill="white" stroke="black" points="130,-0.5 130,-19.5 238,-19.5 238,-0.5 130,-0.5"/>
<text text-anchor="middle" x="184" y="-7.5" font-family="Helvetica,sans-Serif" font-size="10.00">vpr::Device::vkHandle</text>
</a>
</g>
</g>
<!-- Node4&#45;&gt;Node6 -->
<g id="edge2" class="edge"><title>Node4&#45;&gt;Node6</title>
<path fill="none" stroke="midnightblue" d="M94.0818,-24.4904C102.317,-23.1484 111.026,-21.729 119.646,-20.3244"/>
<polygon fill="midnightblue" stroke="midnightblue" points="120.382,-23.7508 129.688,-18.6878 119.256,-16.8419 120.382,-23.7508"/>
</g>
</g>
</svg>
