<?xml version="1.0" encoding="UTF-8" standalone="no"?>
<!DOCTYPE svg PUBLIC "-//W3C//DTD SVG 1.1//EN"
 "http://www.w3.org/Graphics/SVG/1.1/DTD/svg11.dtd">
<!-- Generated by graphviz version 2.38.0 (20140413.2041)
 -->
<!-- Title: vpr::Device::create Pages: 1 -->
<!--zoomable 558 -->
<svg id="main" version="1.1" xmlns="http://www.w3.org/2000/svg" xmlns:xlink="http://www.w3.org/1999/xlink" xml:space="preserve" onload="init(evt)">
<style type="text/css"><![CDATA[
.edge:hover path { stroke: red; }
.edge:hover polygon { stroke: red; fill: red; }
]]></style>
<script type="text/javascript"><![CDATA[
var edges = document.getElementsByTagName('g');
if (edges && edges.length) {
  for (var i=0;i<edges.length;i++) {
    if (edges[i].id.substr(0,4)=='edge') {
      edges[i].setAttribute('class','edge');
    }
  }
}
]]></script>
        <defs>
                <circle id="rim" cx="0" cy="0" r="7"/>
                <circle id="rim2" cx="0" cy="0" r="3.5"/>
                <g id="zoomPlus">
                        <use xlink:href="#rim" fill="#404040">
                                <set attributeName="fill" to="#808080" begin="zoomplus.mouseover" end="zoomplus.mouseout"/>
                        </use>
                        <path d="M-4,0h8M0,-4v8" fill="none" stroke="white" stroke-width="1.5" pointer-events="none"/>
                </g>
                <g id="zoomMin">
                        <use xlink:href="#rim" fill="#404040">
                                <set attributeName="fill" to="#808080" begin="zoomminus.mouseover" end="zoomminus.mouseout"/>
                        </use>
                        <path d="M-4,0h8" fill="none" stroke="white" stroke-width="1.5" pointer-events="none"/>
                </g>
                <g id="dirArrow">
                        <path fill="none" stroke="white" stroke-width="1.5" d="M0,-3.0v7 M-2.5,-0.5L0,-3.0L2.5,-0.5"/>
                </g>
               <g id="resetDef">
                       <use xlink:href="#rim2" fill="#404040">
                               <set attributeName="fill" to="#808080" begin="reset.mouseover" end="reset.mouseout"/>
                       </use>
               </g>
        </defs>

<script type="text/javascript">
var viewWidth = 808;
var viewHeight = 558;
var sectionId = 'dynsection-8';
</script>
<script xlink:href="svgpan.js"/>
<svg id="graph" class="graph">
<g id="viewport">
<title>vpr::Device::create</title>
<polygon fill="white" stroke="none" points="-4,4 -4,-554 804,-554 804,4 -4,4"/>
<!-- Node69 -->
<g id="node1" class="node"><title>Node69</title>
<polygon fill="#bfbfbf" stroke="black" points="0,-329 0,-348 96,-348 96,-329 0,-329"/>
<text text-anchor="middle" x="48" y="-336" font-family="Helvetica,sans-Serif" font-size="10.00">vpr::Device::create</text>
</g>
<!-- Node70 -->
<g id="node2" class="node"><title>Node70</title>
<g id="a_node2"><a xlink:href="classvpr_1_1_physical_device.html#addc7471aceef1ca343cc1b6e5c242278" target="_top" xlink:title="vpr::PhysicalDevice\l::GetFeatures">
<polygon fill="white" stroke="black" points="156,-519.5 156,-549.5 257,-549.5 257,-519.5 156,-519.5"/>
<text text-anchor="start" x="164" y="-537.5" font-family="Helvetica,sans-Serif" font-size="10.00">vpr::PhysicalDevice</text>
<text text-anchor="middle" x="206.5" y="-526.5" font-family="Helvetica,sans-Serif" font-size="10.00">::GetFeatures</text>
</a>
</g>
</g>
<!-- Node69&#45;&gt;Node70 -->
<g id="edge1" class="edge"><title>Node69&#45;&gt;Node70</title>
<path fill="none" stroke="midnightblue" d="M51.269,-348.198C58.3118,-376.269 82.3681,-458.509 132,-504.5 136.404,-508.581 141.437,-512.141 146.759,-515.241"/>
<polygon fill="midnightblue" stroke="midnightblue" points="145.441,-518.502 155.925,-520.032 148.684,-512.298 145.441,-518.502"/>
</g>
<!-- Node71 -->
<g id="node3" class="node"><title>Node71</title>
<g id="a_node3"><a xlink:href="classvpr_1_1_device.html#a165976c19ab59de329855485a9dab5aa" target="_top" xlink:title="vpr::Device::setupExtensions">
<polygon fill="white" stroke="black" points="135.5,-363 135.5,-382 277.5,-382 277.5,-363 135.5,-363"/>
<text text-anchor="middle" x="206.5" y="-370" font-family="Helvetica,sans-Serif" font-size="10.00">vpr::Device::setupExtensions</text>
</a>
</g>
</g>
<!-- Node69&#45;&gt;Node71 -->
<g id="edge2" class="edge"><title>Node69&#45;&gt;Node71</title>
<path fill="none" stroke="midnightblue" d="M93.0105,-348.061C111.257,-352.025 132.597,-356.662 151.756,-360.824"/>
<polygon fill="midnightblue" stroke="midnightblue" points="151.034,-364.249 161.549,-362.952 152.52,-357.408 151.034,-364.249"/>
</g>
<!-- Node74 -->
<g id="node6" class="node"><title>Node74</title>
<g id="a_node6"><a xlink:href="classvpr_1_1_physical_device.html#a00de7d3556d98b1cfda28d1f769f8fa8" target="_top" xlink:title="vpr::PhysicalDevice\l::vkHandle">
<polygon fill="white" stroke="black" points="690,-406.5 690,-436.5 791,-436.5 791,-406.5 690,-406.5"/>
<text text-anchor="start" x="698" y="-424.5" font-family="Helvetica,sans-Serif" font-size="10.00">vpr::PhysicalDevice</text>
<text text-anchor="middle" x="740.5" y="-413.5" font-family="Helvetica,sans-Serif" font-size="10.00">::vkHandle</text>
</a>
</g>
</g>
<!-- Node69&#45;&gt;Node74 -->
<g id="edge32" class="edge"><title>Node69&#45;&gt;Node74</title>
<path fill="none" stroke="midnightblue" d="M62.0335,-348.078C99.3384,-374.775 210.693,-449.499 317,-471.5 446.709,-498.344 602.019,-463.044 683.413,-439.491"/>
<polygon fill="midnightblue" stroke="midnightblue" points="684.838,-442.72 693.444,-436.54 682.862,-436.005 684.838,-442.72"/>
</g>
<!-- Node77 -->
<g id="node9" class="node"><title>Node77</title>
<g id="a_node9"><a xlink:href="classvpr_1_1_device.html#af52c3b24f6bca1308a5170eb3acfeb11" target="_top" xlink:title="vpr::Device::setupQueues">
<polygon fill="white" stroke="black" points="143,-153 143,-172 270,-172 270,-153 143,-153"/>
<text text-anchor="middle" x="206.5" y="-160" font-family="Helvetica,sans-Serif" font-size="10.00">vpr::Device::setupQueues</text>
</a>
</g>
</g>
<!-- Node69&#45;&gt;Node77 -->
<g id="edge9" class="edge"><title>Node69&#45;&gt;Node77</title>
<path fill="none" stroke="midnightblue" d="M57.637,-328.787C82.9087,-300.366 156.979,-217.066 189.677,-180.295"/>
<polygon fill="midnightblue" stroke="midnightblue" points="192.667,-182.199 196.697,-172.4 187.436,-177.547 192.667,-182.199"/>
</g>
<!-- Node85 -->
<g id="node17" class="node"><title>Node85</title>
<g id="a_node17"><a xlink:href="classvpr_1_1_device.html#a158d56e75fab365778e07a84d090b3f7" target="_top" xlink:title="vpr::Device::setupValidation">
<polygon fill="white" stroke="black" points="138.5,-61 138.5,-80 274.5,-80 274.5,-61 138.5,-61"/>
<text text-anchor="middle" x="206.5" y="-68" font-family="Helvetica,sans-Serif" font-size="10.00">vpr::Device::setupValidation</text>
</a>
</g>
</g>
<!-- Node69&#45;&gt;Node85 -->
<g id="edge27" class="edge"><title>Node69&#45;&gt;Node85</title>
<path fill="none" stroke="midnightblue" d="M51.6347,-328.921C60.0368,-299.425 88.2398,-208.07 132,-143.5 146.95,-121.44 169.217,-100.461 185.322,-86.7023"/>
<polygon fill="midnightblue" stroke="midnightblue" points="187.679,-89.294 193.111,-80.1978 183.192,-83.9211 187.679,-89.294"/>
</g>
<!-- Node87 -->
<g id="node19" class="node"><title>Node87</title>
<g id="a_node19"><a xlink:href="classvpr_1_1_device.html#ad468caae9ccd5b6b2f9dd00bd32faca3" target="_top" xlink:title="vpr::Device::VerifyPresentation\lSupport">
<polygon fill="white" stroke="black" points="132,-289.5 132,-319.5 281,-319.5 281,-289.5 132,-289.5"/>
<text text-anchor="start" x="140" y="-307.5" font-family="Helvetica,sans-Serif" font-size="10.00">vpr::Device::VerifyPresentation</text>
<text text-anchor="middle" x="206.5" y="-296.5" font-family="Helvetica,sans-Serif" font-size="10.00">Support</text>
</a>
</g>
</g>
<!-- Node69&#45;&gt;Node87 -->
<g id="edge29" class="edge"><title>Node69&#45;&gt;Node87</title>
<path fill="none" stroke="midnightblue" d="M93.0105,-328.939C103.429,-326.675 114.857,-324.192 126.311,-321.704"/>
<polygon fill="midnightblue" stroke="midnightblue" points="127.33,-325.064 136.359,-319.521 125.844,-318.224 127.33,-325.064"/>
</g>
<!-- Node72 -->
<g id="node4" class="node"><title>Node72</title>
<g id="a_node4"><a xlink:href="classvpr_1_1_device.html#a3cedda7b364230945a994267d220ab0f" target="_top" xlink:title="vpr::Device::prepareRequired\lExtensions">
<polygon fill="white" stroke="black" points="317,-382.5 317,-412.5 457,-412.5 457,-382.5 317,-382.5"/>
<text text-anchor="start" x="325" y="-400.5" font-family="Helvetica,sans-Serif" font-size="10.00">vpr::Device::prepareRequired</text>
<text text-anchor="middle" x="387" y="-389.5" font-family="Helvetica,sans-Serif" font-size="10.00">Extensions</text>
</a>
</g>
</g>
<!-- Node71&#45;&gt;Node72 -->
<g id="edge3" class="edge"><title>Node71&#45;&gt;Node72</title>
<path fill="none" stroke="midnightblue" d="M275.492,-382.023C285.721,-383.455 296.345,-384.943 306.784,-386.405"/>
<polygon fill="midnightblue" stroke="midnightblue" points="306.328,-389.876 316.717,-387.796 307.299,-382.943 306.328,-389.876"/>
</g>
<!-- Node75 -->
<g id="node7" class="node"><title>Node75</title>
<g id="a_node7"><a xlink:href="classvpr_1_1_device.html#a2524d9604f056d1e7d4c4a124ecad638" target="_top" xlink:title="vpr::Device::prepareOptional\lExtensions">
<polygon fill="white" stroke="black" points="318.5,-431.5 318.5,-461.5 455.5,-461.5 455.5,-431.5 318.5,-431.5"/>
<text text-anchor="start" x="326.5" y="-449.5" font-family="Helvetica,sans-Serif" font-size="10.00">vpr::Device::prepareOptional</text>
<text text-anchor="middle" x="387" y="-438.5" font-family="Helvetica,sans-Serif" font-size="10.00">Extensions</text>
</a>
</g>
</g>
<!-- Node71&#45;&gt;Node75 -->
<g id="edge6" class="edge"><title>Node71&#45;&gt;Node75</title>
<path fill="none" stroke="midnightblue" d="M227.04,-382.095C248.759,-392.601 284.997,-409.66 317,-422.5 321.662,-424.371 326.534,-426.237 331.438,-428.055"/>
<polygon fill="midnightblue" stroke="midnightblue" points="330.269,-431.355 340.863,-431.482 332.661,-424.776 330.269,-431.355"/>
</g>
<!-- Node76 -->
<g id="node8" class="node"><title>Node76</title>
<g id="a_node8"><a xlink:href="classvpr_1_1_device.html#a124ad96e79edf3bd0faee5b0394c3662" target="_top" xlink:title="vpr::Device::checkDedicated\lAllocExtensions">
<polygon fill="white" stroke="black" points="317.5,-333.5 317.5,-363.5 456.5,-363.5 456.5,-333.5 317.5,-333.5"/>
<text text-anchor="start" x="325.5" y="-351.5" font-family="Helvetica,sans-Serif" font-size="10.00">vpr::Device::checkDedicated</text>
<text text-anchor="middle" x="387" y="-340.5" font-family="Helvetica,sans-Serif" font-size="10.00">AllocExtensions</text>
</a>
</g>
</g>
<!-- Node71&#45;&gt;Node76 -->
<g id="edge8" class="edge"><title>Node71&#45;&gt;Node76</title>
<path fill="none" stroke="midnightblue" d="M277.536,-363.083C287.249,-361.777 297.282,-360.428 307.143,-359.103"/>
<polygon fill="midnightblue" stroke="midnightblue" points="307.892,-362.534 317.336,-357.732 306.959,-355.596 307.892,-362.534"/>
</g>
<!-- Node73 -->
<g id="node5" class="node"><title>Node73</title>
<g id="a_node5"><a xlink:href="classvpr_1_1_device.html#a045d673a04b878f8b11b092001cfd4ae" target="_top" xlink:title="vpr::Device::checkExtensions">
<polygon fill="white" stroke="black" points="497,-412 497,-431 641,-431 641,-412 497,-412"/>
<text text-anchor="middle" x="569" y="-419" font-family="Helvetica,sans-Serif" font-size="10.00">vpr::Device::checkExtensions</text>
</a>
</g>
</g>
<!-- Node72&#45;&gt;Node73 -->
<g id="edge4" class="edge"><title>Node72&#45;&gt;Node73</title>
<path fill="none" stroke="midnightblue" d="M457.078,-406.71C466.717,-407.996 476.695,-409.326 486.536,-410.638"/>
<polygon fill="midnightblue" stroke="midnightblue" points="486.347,-414.144 496.722,-411.996 487.272,-407.205 486.347,-414.144"/>
</g>
<!-- Node73&#45;&gt;Node74 -->
<g id="edge5" class="edge"><title>Node73&#45;&gt;Node74</title>
<path fill="none" stroke="midnightblue" d="M641.392,-421.5C654.115,-421.5 667.25,-421.5 679.611,-421.5"/>
<polygon fill="midnightblue" stroke="midnightblue" points="679.786,-425 689.786,-421.5 679.786,-418 679.786,-425"/>
</g>
<!-- Node75&#45;&gt;Node73 -->
<g id="edge7" class="edge"><title>Node75&#45;&gt;Node73</title>
<path fill="none" stroke="midnightblue" d="M455.537,-437.12C466.536,-435.592 478.012,-433.998 489.251,-432.437"/>
<polygon fill="midnightblue" stroke="midnightblue" points="490.061,-435.859 499.484,-431.016 489.098,-428.925 490.061,-435.859"/>
</g>
<!-- Node78 -->
<g id="node10" class="node"><title>Node78</title>
<g id="a_node10"><a xlink:href="classvpr_1_1_device.html#adbe15d529a11af4d7034a2135255e773" target="_top" xlink:title="vpr::Device::setupGraphics\lQueues">
<polygon fill="white" stroke="black" points="321,-98.5 321,-128.5 453,-128.5 453,-98.5 321,-98.5"/>
<text text-anchor="start" x="329" y="-116.5" font-family="Helvetica,sans-Serif" font-size="10.00">vpr::Device::setupGraphics</text>
<text text-anchor="middle" x="387" y="-105.5" font-family="Helvetica,sans-Serif" font-size="10.00">Queues</text>
</a>
</g>
</g>
<!-- Node77&#45;&gt;Node78 -->
<g id="edge10" class="edge"><title>Node77&#45;&gt;Node78</title>
<path fill="none" stroke="midnightblue" d="M242.34,-152.936C264.84,-146.76 294.801,-138.535 321.538,-131.196"/>
<polygon fill="midnightblue" stroke="midnightblue" points="322.506,-134.559 331.222,-128.537 320.653,-127.809 322.506,-134.559"/>
</g>
<!-- Node82 -->
<g id="node14" class="node"><title>Node82</title>
<g id="a_node14"><a xlink:href="classvpr_1_1_device.html#abdb29331fbcc15a242b3f0e82b02beef" target="_top" xlink:title="vpr::Device::setupCompute\lQueues">
<polygon fill="white" stroke="black" points="321,-49.5 321,-79.5 453,-79.5 453,-49.5 321,-49.5"/>
<text text-anchor="start" x="329" y="-67.5" font-family="Helvetica,sans-Serif" font-size="10.00">vpr::Device::setupCompute</text>
<text text-anchor="middle" x="387" y="-56.5" font-family="Helvetica,sans-Serif" font-size="10.00">Queues</text>
</a>
</g>
</g>
<!-- Node77&#45;&gt;Node82 -->
<g id="edge15" class="edge"><title>Node77&#45;&gt;Node82</title>
<path fill="none" stroke="midnightblue" d="M219.339,-152.969C238.766,-137.693 279.051,-107.516 317,-88.5 320.535,-86.7288 324.232,-85.0332 327.999,-83.4209"/>
<polygon fill="midnightblue" stroke="midnightblue" points="329.502,-86.5883 337.456,-79.5893 326.873,-80.1006 329.502,-86.5883"/>
</g>
<!-- Node83 -->
<g id="node15" class="node"><title>Node83</title>
<g id="a_node15"><a xlink:href="classvpr_1_1_device.html#aa64b2412561fa0950722c2dc4997da9f" target="_top" xlink:title="vpr::Device::setupTransfer\lQueues">
<polygon fill="white" stroke="black" points="323,-196.5 323,-226.5 451,-226.5 451,-196.5 323,-196.5"/>
<text text-anchor="start" x="331" y="-214.5" font-family="Helvetica,sans-Serif" font-size="10.00">vpr::Device::setupTransfer</text>
<text text-anchor="middle" x="387" y="-203.5" font-family="Helvetica,sans-Serif" font-size="10.00">Queues</text>
</a>
</g>
</g>
<!-- Node77&#45;&gt;Node83 -->
<g id="edge19" class="edge"><title>Node77&#45;&gt;Node83</title>
<path fill="none" stroke="midnightblue" d="M242.34,-172.064C264.84,-178.24 294.801,-186.465 321.538,-193.804"/>
<polygon fill="midnightblue" stroke="midnightblue" points="320.653,-197.191 331.222,-196.463 322.506,-190.441 320.653,-197.191"/>
</g>
<!-- Node84 -->
<g id="node16" class="node"><title>Node84</title>
<g id="a_node16"><a xlink:href="classvpr_1_1_device.html#a22ee8e6517d4898282d9d6385545100a" target="_top" xlink:title="vpr::Device::setupSparse\lBindingQueues">
<polygon fill="white" stroke="black" points="325,-147.5 325,-177.5 449,-177.5 449,-147.5 325,-147.5"/>
<text text-anchor="start" x="333" y="-165.5" font-family="Helvetica,sans-Serif" font-size="10.00">vpr::Device::setupSparse</text>
<text text-anchor="middle" x="387" y="-154.5" font-family="Helvetica,sans-Serif" font-size="10.00">BindingQueues</text>
</a>
</g>
</g>
<!-- Node77&#45;&gt;Node84 -->
<g id="edge23" class="edge"><title>Node77&#45;&gt;Node84</title>
<path fill="none" stroke="midnightblue" d="M270.181,-162.5C284.628,-162.5 300.097,-162.5 314.873,-162.5"/>
<polygon fill="midnightblue" stroke="midnightblue" points="314.972,-166 324.972,-162.5 314.972,-159 314.972,-166"/>
</g>
<!-- Node79 -->
<g id="node11" class="node"><title>Node79</title>
<g id="a_node11"><a xlink:href="classvpr_1_1_physical_device.html#af443c2a585d182166c464f252782a57b" target="_top" xlink:title="! Attempts to find a Queue family that supports the full bitfield given: this can be multiple types...">
<polygon fill="white" stroke="black" points="681,-131.5 681,-161.5 800,-161.5 800,-131.5 681,-131.5"/>
<text text-anchor="start" x="689" y="-149.5" font-family="Helvetica,sans-Serif" font-size="10.00">vpr::PhysicalDevice</text>
<text text-anchor="middle" x="740.5" y="-138.5" font-family="Helvetica,sans-Serif" font-size="10.00">::GetQueueFamilyIndex</text>
</a>
</g>
</g>
<!-- Node78&#45;&gt;Node79 -->
<g id="edge11" class="edge"><title>Node78&#45;&gt;Node79</title>
<path fill="none" stroke="midnightblue" d="M429.869,-98.4122C481.51,-82.1036 571.481,-61.2402 645,-83.5 671.676,-91.5767 697.704,-109.941 715.667,-124.77"/>
<polygon fill="midnightblue" stroke="midnightblue" points="713.441,-127.472 723.326,-131.285 717.976,-122.14 713.441,-127.472"/>
</g>
<!-- Node80 -->
<g id="node12" class="node"><title>Node80</title>
<g id="a_node12"><a xlink:href="classvpr_1_1_device.html#af043c9b7994791cc4ae4b8a76a8d8918" target="_top" xlink:title="vpr::Device::SetupQueueFamily">
<polygon fill="white" stroke="black" points="493,-93 493,-112 645,-112 645,-93 493,-93"/>
<text text-anchor="middle" x="569" y="-100" font-family="Helvetica,sans-Serif" font-size="10.00">vpr::Device::SetupQueueFamily</text>
</a>
</g>
</g>
<!-- Node78&#45;&gt;Node80 -->
<g id="edge12" class="edge"><title>Node78&#45;&gt;Node80</title>
<path fill="none" stroke="midnightblue" d="M453.239,-109.513C462.797,-108.929 472.759,-108.32 482.646,-107.716"/>
<polygon fill="midnightblue" stroke="midnightblue" points="483.134,-111.193 492.902,-107.089 482.707,-104.206 483.134,-111.193"/>
</g>
<!-- Node81 -->
<g id="node13" class="node"><title>Node81</title>
<g id="a_node13"><a xlink:href="classvpr_1_1_physical_device.html#a2ee4f96b16a9762953ecad3b658d84e6" target="_top" xlink:title="vpr::PhysicalDevice\l::GetQueueFamilyProperties">
<polygon fill="white" stroke="black" points="499,-131.5 499,-161.5 639,-161.5 639,-131.5 499,-131.5"/>
<text text-anchor="start" x="507" y="-149.5" font-family="Helvetica,sans-Serif" font-size="10.00">vpr::PhysicalDevice</text>
<text text-anchor="middle" x="569" y="-138.5" font-family="Helvetica,sans-Serif" font-size="10.00">::GetQueueFamilyProperties</text>
</a>
</g>
</g>
<!-- Node78&#45;&gt;Node81 -->
<g id="edge13" class="edge"><title>Node78&#45;&gt;Node81</title>
<path fill="none" stroke="midnightblue" d="M453.239,-125.46C464.793,-127.579 476.938,-129.805 488.827,-131.985"/>
<polygon fill="midnightblue" stroke="midnightblue" points="488.268,-135.441 498.736,-133.802 489.531,-128.556 488.268,-135.441"/>
</g>
<!-- Node81&#45;&gt;Node79 -->
<g id="edge14" class="edge"><title>Node81&#45;&gt;Node79</title>
<path fill="none" stroke="midnightblue" d="M639.431,-146.5C649.785,-146.5 660.455,-146.5 670.793,-146.5"/>
<polygon fill="midnightblue" stroke="midnightblue" points="670.998,-150 680.998,-146.5 670.998,-143 670.998,-150"/>
</g>
<!-- Node82&#45;&gt;Node79 -->
<g id="edge16" class="edge"><title>Node82&#45;&gt;Node79</title>
<path fill="none" stroke="midnightblue" d="M453.233,-54.7255C506.499,-49.3723 582.855,-47.7919 645,-70.5 674.761,-81.3748 702.19,-105.73 719.744,-123.957"/>
<polygon fill="midnightblue" stroke="midnightblue" points="717.255,-126.42 726.64,-131.336 722.369,-121.64 717.255,-126.42"/>
</g>
<!-- Node82&#45;&gt;Node80 -->
<g id="edge17" class="edge"><title>Node82&#45;&gt;Node80</title>
<path fill="none" stroke="midnightblue" d="M453.239,-78.2726C472.854,-82.4136 494.171,-86.9138 513.049,-90.8993"/>
<polygon fill="midnightblue" stroke="midnightblue" points="512.46,-94.352 522.968,-92.9931 513.906,-87.503 512.46,-94.352"/>
</g>
<!-- Node82&#45;&gt;Node81 -->
<g id="edge18" class="edge"><title>Node82&#45;&gt;Node81</title>
<path fill="none" stroke="midnightblue" d="M439.192,-79.642C445.367,-82.236 451.446,-85.1836 457,-88.5 475.635,-99.6285 474.293,-110.493 493,-121.5 496.593,-123.614 500.39,-125.579 504.29,-127.399"/>
<polygon fill="midnightblue" stroke="midnightblue" points="502.967,-130.64 513.535,-131.388 505.74,-124.213 502.967,-130.64"/>
</g>
<!-- Node83&#45;&gt;Node79 -->
<g id="edge20" class="edge"><title>Node83&#45;&gt;Node79</title>
<path fill="none" stroke="midnightblue" d="M451.001,-211.134C503.619,-209.524 580.217,-204.127 645,-187.5 664.585,-182.473 685.303,-173.889 702.334,-165.871"/>
<polygon fill="midnightblue" stroke="midnightblue" points="703.902,-169.001 711.385,-161.501 700.858,-162.697 703.902,-169.001"/>
</g>
<!-- Node83&#45;&gt;Node80 -->
<g id="edge21" class="edge"><title>Node83&#45;&gt;Node80</title>
<path fill="none" stroke="midnightblue" d="M441.767,-196.49C447.236,-193.689 452.444,-190.387 457,-186.5 482.123,-165.067 466.842,-141.658 493,-121.5 495.344,-119.694 497.84,-118.058 500.445,-116.576"/>
<polygon fill="midnightblue" stroke="midnightblue" points="502.185,-119.622 509.655,-112.109 499.13,-113.323 502.185,-119.622"/>
</g>
<!-- Node83&#45;&gt;Node81 -->
<g id="edge22" class="edge"><title>Node83&#45;&gt;Node81</title>
<path fill="none" stroke="midnightblue" d="M429.748,-196.424C455.668,-187.064 489.168,-174.967 516.7,-165.025"/>
<polygon fill="midnightblue" stroke="midnightblue" points="517.95,-168.295 526.167,-161.606 515.573,-161.711 517.95,-168.295"/>
</g>
<!-- Node84&#45;&gt;Node79 -->
<g id="edge24" class="edge"><title>Node84&#45;&gt;Node79</title>
<path fill="none" stroke="midnightblue" d="M449.002,-169.702C501.231,-174.603 578.336,-178.833 645,-170.5 656.432,-169.071 668.465,-166.705 679.971,-164.002"/>
<polygon fill="midnightblue" stroke="midnightblue" points="681.045,-167.343 689.919,-161.555 679.373,-160.545 681.045,-167.343"/>
</g>
<!-- Node84&#45;&gt;Node80 -->
<g id="edge25" class="edge"><title>Node84&#45;&gt;Node80</title>
<path fill="none" stroke="midnightblue" d="M430.875,-147.498C439.565,-144.308 448.609,-140.88 457,-137.5 473.241,-130.958 476.454,-127.226 493,-121.5 500.149,-119.026 507.783,-116.721 515.341,-114.63"/>
<polygon fill="midnightblue" stroke="midnightblue" points="516.425,-117.964 525.188,-112.009 514.624,-111.199 516.425,-117.964"/>
</g>
<!-- Node84&#45;&gt;Node81 -->
<g id="edge26" class="edge"><title>Node84&#45;&gt;Node81</title>
<path fill="none" stroke="midnightblue" d="M449.191,-157.061C461.942,-155.927 475.555,-154.717 488.848,-153.536"/>
<polygon fill="midnightblue" stroke="midnightblue" points="489.281,-157.011 498.932,-152.639 488.661,-150.039 489.281,-157.011"/>
</g>
<!-- Node86 -->
<g id="node18" class="node"><title>Node86</title>
<g id="a_node18"><a xlink:href="classvpr_1_1_instance.html#a4cb7ce54d256a75fe52ffc465daddba2" target="_top" xlink:title="vpr::Instance::Validation\lEnabled">
<polygon fill="white" stroke="black" points="327,-0.5 327,-30.5 447,-30.5 447,-0.5 327,-0.5"/>
<text text-anchor="start" x="335" y="-18.5" font-family="Helvetica,sans-Serif" font-size="10.00">vpr::Instance::Validation</text>
<text text-anchor="middle" x="387" y="-7.5" font-family="Helvetica,sans-Serif" font-size="10.00">Enabled</text>
</a>
</g>
</g>
<!-- Node85&#45;&gt;Node86 -->
<g id="edge28" class="edge"><title>Node85&#45;&gt;Node86</title>
<path fill="none" stroke="midnightblue" d="M238.592,-60.9197C263.002,-53.3986 297.691,-42.71 327.287,-33.5909"/>
<polygon fill="midnightblue" stroke="midnightblue" points="328.58,-36.8549 337.106,-30.5654 326.519,-30.1652 328.58,-36.8549"/>
</g>
<!-- Node87&#45;&gt;Node74 -->
<g id="edge30" class="edge"><title>Node87&#45;&gt;Node74</title>
<path fill="none" stroke="midnightblue" d="M270.298,-289.473C321.219,-279.725 394.53,-271.246 457,-285.5 554.873,-307.832 658.345,-368.571 708.552,-400.789"/>
<polygon fill="midnightblue" stroke="midnightblue" points="706.712,-403.767 717.007,-406.269 710.52,-397.893 706.712,-403.767"/>
</g>
<!-- Node88 -->
<g id="node20" class="node"><title>Node88</title>
<g id="a_node20"><a xlink:href="classvpr_1_1_instance.html#aa8afd0e70a5fd70ee82daba6c179be8d" target="_top" xlink:title="vpr::Instance::vkSurface">
<polygon fill="white" stroke="black" points="327.5,-295 327.5,-314 446.5,-314 446.5,-295 327.5,-295"/>
<text text-anchor="middle" x="387" y="-302" font-family="Helvetica,sans-Serif" font-size="10.00">vpr::Instance::vkSurface</text>
</a>
</g>
</g>
<!-- Node87&#45;&gt;Node88 -->
<g id="edge31" class="edge"><title>Node87&#45;&gt;Node88</title>
<path fill="none" stroke="midnightblue" d="M281.133,-304.5C293.018,-304.5 305.283,-304.5 317.052,-304.5"/>
<polygon fill="midnightblue" stroke="midnightblue" points="317.243,-308 327.243,-304.5 317.243,-301 317.243,-308"/>
</g>
</g>
</svg>
        <g id="navigator" transform="translate(0 0)" fill="#404254">
                <rect fill="#f2f5e9" fill-opacity="0.5" stroke="#606060" stroke-width=".5" x="0" y="0" width="60" height="60"/>
                <use id="zoomplus" xlink:href="#zoomPlus" x="17" y="9" onmousedown="handleZoom(evt,'in')"/>
                <use id="zoomminus" xlink:href="#zoomMin" x="42" y="9" onmousedown="handleZoom(evt,'out')"/>
                <use id="reset" xlink:href="#resetDef" x="30" y="36" onmousedown="handleReset()"/>
                <g id="arrowUp" xlink:href="#dirArrow" transform="translate(30 24)" onmousedown="handlePan(0,-1)">
                  <use xlink:href="#rim" fill="#404040">
                        <set attributeName="fill" to="#808080" begin="arrowUp.mouseover" end="arrowUp.mouseout"/>
                  </use>
                  <path fill="none" stroke="white" stroke-width="1.5" d="M0,-3.0v7 M-2.5,-0.5L0,-3.0L2.5,-0.5"/>
                </g>
                <g id="arrowRight" xlink:href="#dirArrow" transform="rotate(90) translate(36 -43)" onmousedown="handlePan(1,0)">
                  <use xlink:href="#rim" fill="#404040">
                        <set attributeName="fill" to="#808080" begin="arrowRight.mouseover" end="arrowRight.mouseout"/>
                  </use>
                  <path fill="none" stroke="white" stroke-width="1.5" d="M0,-3.0v7 M-2.5,-0.5L0,-3.0L2.5,-0.5"/>
                </g>
                <g id="arrowDown" xlink:href="#dirArrow" transform="rotate(180) translate(-30 -48)" onmousedown="handlePan(0,1)">
                  <use xlink:href="#rim" fill="#404040">
                        <set attributeName="fill" to="#808080" begin="arrowDown.mouseover" end="arrowDown.mouseout"/>
                  </use>
                  <path fill="none" stroke="white" stroke-width="1.5" d="M0,-3.0v7 M-2.5,-0.5L0,-3.0L2.5,-0.5"/>
                </g>
                <g id="arrowLeft" xlink:href="#dirArrow" transform="rotate(270) translate(-36 17)" onmousedown="handlePan(-1,0)">
                  <use xlink:href="#rim" fill="#404040">
                        <set attributeName="fill" to="#808080" begin="arrowLeft.mouseover" end="arrowLeft.mouseout"/>
                  </use>
                  <path fill="none" stroke="white" stroke-width="1.5" d="M0,-3.0v7 M-2.5,-0.5L0,-3.0L2.5,-0.5"/>
                </g>
        </g>
        <svg viewBox="0 0 15 15" width="100%" height="30px" preserveAspectRatio="xMaxYMin meet">
         <g id="arrow_out" transform="scale(0.3 0.3)">
          <a xlink:href="classvpr_1_1_device_a3b0734cd598d9a64f3c459e9dc4e84ce_cgraph_org.svg" target="_base">
           <rect id="button" ry="5" rx="5" y="6" x="6" height="38" width="38"
                fill="#f2f5e9" fill-opacity="0.5" stroke="#606060" stroke-width="1.0"/>
           <path id="arrow"
             d="M 11.500037,31.436501 C 11.940474,20.09759 22.043105,11.32322 32.158766,21.979434 L 37.068811,17.246167 C 37.068811,17.246167 37.088388,32 37.088388,32 L 22.160133,31.978069 C 22.160133,31.978069 26.997745,27.140456 26.997745,27.140456 C 18.528582,18.264221 13.291696,25.230495 11.500037,31.436501 z"
             style="fill:#404040;"/>
          </a>
         </g>
        </svg>
</svg>
