<?xml version="1.0" encoding="UTF-8" standalone="no"?>
<!DOCTYPE svg PUBLIC "-//W3C//DTD SVG 1.1//EN"
 "http://www.w3.org/Graphics/SVG/1.1/DTD/svg11.dtd">
<!-- Generated by graphviz version 2.38.0 (20140413.2041)
 -->
<!-- Title: vpr::Allocation::Memory Pages: 1 -->
<svg width="481pt" height="290pt"
 viewBox="0.00 0.00 481.00 290.00" xmlns="http://www.w3.org/2000/svg" xmlns:xlink="http://www.w3.org/1999/xlink">
<g id="graph0" class="graph" transform="scale(1 1) rotate(0) translate(4 286)">
<title>vpr::Allocation::Memory</title>
<polygon fill="white" stroke="none" points="-4,4 -4,-286 477,-286 477,4 -4,4"/>
<!-- Node25 -->
<g id="node1" class="node"><title>Node25</title>
<polygon fill="#bfbfbf" stroke="black" points="0,-126 0,-145 119,-145 119,-126 0,-126"/>
<text text-anchor="middle" x="59.5" y="-133" font-family="Helvetica,sans-Serif" font-size="10.00">vpr::Allocation::Memory</text>
</g>
<!-- Node26 -->
<g id="node2" class="node"><title>Node26</title>
<g id="a_node2"><a xlink:href="classvpr_1_1_allocator.html#ae8c982057f90fad764d25d8b081e5603" target="_top" xlink:title="vpr::Allocator::Allocate\lForBuffer">
<polygon fill="white" stroke="black" points="172.5,-251.5 172.5,-281.5 286.5,-281.5 286.5,-251.5 172.5,-251.5"/>
<text text-anchor="start" x="180.5" y="-269.5" font-family="Helvetica,sans-Serif" font-size="10.00">vpr::Allocator::Allocate</text>
<text text-anchor="middle" x="229.5" y="-258.5" font-family="Helvetica,sans-Serif" font-size="10.00">ForBuffer</text>
</a>
</g>
</g>
<!-- Node25&#45;&gt;Node26 -->
<g id="edge1" class="edge"><title>Node25&#45;&gt;Node26</title>
<path fill="none" stroke="midnightblue" d="M71.8253,-153.427C87.665,-177.103 118.615,-218.585 155,-242.5 160.384,-246.039 166.333,-249.095 172.446,-251.724"/>
<polygon fill="midnightblue" stroke="midnightblue" points="74.736,-151.483 66.3388,-145.023 68.8744,-155.31 74.736,-151.483"/>
</g>
<!-- Node27 -->
<g id="node3" class="node"><title>Node27</title>
<g id="a_node3"><a xlink:href="classvpr_1_1_allocator.html#a74d845e760e100129d83bc40cd4fb12e" target="_top" xlink:title="vpr::Allocator::Allocate\lForImage">
<polygon fill="white" stroke="black" points="172.5,-202.5 172.5,-232.5 286.5,-232.5 286.5,-202.5 172.5,-202.5"/>
<text text-anchor="start" x="180.5" y="-220.5" font-family="Helvetica,sans-Serif" font-size="10.00">vpr::Allocator::Allocate</text>
<text text-anchor="middle" x="229.5" y="-209.5" font-family="Helvetica,sans-Serif" font-size="10.00">ForImage</text>
</a>
</g>
</g>
<!-- Node25&#45;&gt;Node27 -->
<g id="edge2" class="edge"><title>Node25&#45;&gt;Node27</title>
<path fill="none" stroke="midnightblue" d="M82.7835,-150.822C101.471,-163.204 129.171,-180.488 155,-192.5 162.699,-196.081 171.061,-199.413 179.292,-202.403"/>
<polygon fill="midnightblue" stroke="midnightblue" points="84.6352,-147.85 74.3816,-145.182 80.7338,-153.662 84.6352,-147.85"/>
</g>
<!-- Node28 -->
<g id="node4" class="node"><title>Node28</title>
<g id="a_node4"><a xlink:href="classvpr_1_1_buffer.html#a843cf452ecc4aed63fef2915d40ab9c4" target="_top" xlink:title="Copys the data pointed to by the relevant parameter into a staging buffer, then records commands copy...">
<polygon fill="white" stroke="black" points="180.5,-164 180.5,-183 278.5,-183 278.5,-164 180.5,-164"/>
<text text-anchor="middle" x="229.5" y="-171" font-family="Helvetica,sans-Serif" font-size="10.00">vpr::Buffer::CopyTo</text>
</a>
</g>
</g>
<!-- Node25&#45;&gt;Node28 -->
<g id="edge3" class="edge"><title>Node25&#45;&gt;Node28</title>
<path fill="none" stroke="midnightblue" d="M112.776,-147.324C136.461,-152.682 164.09,-158.931 186.411,-163.98"/>
<polygon fill="midnightblue" stroke="midnightblue" points="113.419,-143.881 102.893,-145.089 111.875,-150.709 113.419,-143.881"/>
</g>
<!-- Node29 -->
<g id="node5" class="node"><title>Node29</title>
<g id="a_node5"><a xlink:href="classvpr_1_1_buffer.html#a4c04d59a27d4c3471bdf90eda1c8b662" target="_top" xlink:title="vpr::Buffer::Map">
<polygon fill="white" stroke="black" points="187.5,-126 187.5,-145 271.5,-145 271.5,-126 187.5,-126"/>
<text text-anchor="middle" x="229.5" y="-133" font-family="Helvetica,sans-Serif" font-size="10.00">vpr::Buffer::Map</text>
</a>
</g>
</g>
<!-- Node25&#45;&gt;Node29 -->
<g id="edge4" class="edge"><title>Node25&#45;&gt;Node29</title>
<path fill="none" stroke="midnightblue" d="M129.439,-135.5C149.153,-135.5 170.011,-135.5 187.476,-135.5"/>
<polygon fill="midnightblue" stroke="midnightblue" points="129.258,-132 119.258,-135.5 129.258,-139 129.258,-132"/>
</g>
<!-- Node31 -->
<g id="node7" class="node"><title>Node31</title>
<g id="a_node7"><a xlink:href="classvpr_1_1_allocation.html#add3be5fd7fee67744d380e74b0c5bfb3" target="_top" xlink:title="vpr::Allocation::operator==">
<polygon fill="white" stroke="black" points="164,-88 164,-107 295,-107 295,-88 164,-88"/>
<text text-anchor="middle" x="229.5" y="-95" font-family="Helvetica,sans-Serif" font-size="10.00">vpr::Allocation::operator==</text>
</a>
</g>
</g>
<!-- Node25&#45;&gt;Node31 -->
<g id="edge6" class="edge"><title>Node25&#45;&gt;Node31</title>
<path fill="none" stroke="midnightblue" d="M112.776,-123.676C136.461,-118.318 164.09,-112.069 186.411,-107.02"/>
<polygon fill="midnightblue" stroke="midnightblue" points="111.875,-120.291 102.893,-125.911 113.419,-127.119 111.875,-120.291"/>
</g>
<!-- Node32 -->
<g id="node8" class="node"><title>Node32</title>
<g id="a_node8"><a xlink:href="classvpr_1_1_buffer.html#a07d786f45ff6d6712962da7910f6280c" target="_top" xlink:title="vpr::Buffer::setMappedMemory\lRange">
<polygon fill="white" stroke="black" points="155,-0.5 155,-30.5 304,-30.5 304,-0.5 155,-0.5"/>
<text text-anchor="start" x="163" y="-18.5" font-family="Helvetica,sans-Serif" font-size="10.00">vpr::Buffer::setMappedMemory</text>
<text text-anchor="middle" x="229.5" y="-7.5" font-family="Helvetica,sans-Serif" font-size="10.00">Range</text>
</a>
</g>
</g>
<!-- Node25&#45;&gt;Node32 -->
<g id="edge7" class="edge"><title>Node25&#45;&gt;Node32</title>
<path fill="none" stroke="midnightblue" d="M73.7851,-117.862C90.5606,-96.7187 121.327,-61.5154 155,-40.5 161.06,-36.7179 167.761,-33.4302 174.579,-30.5945"/>
<polygon fill="midnightblue" stroke="midnightblue" points="70.8508,-115.934 67.4844,-125.98 76.3807,-120.226 70.8508,-115.934"/>
</g>
<!-- Node34 -->
<g id="node10" class="node"><title>Node34</title>
<g id="a_node10"><a xlink:href="classvpr_1_1_buffer.html#a780ba4c43b7f1a8ec88a5990a76a3cd0" target="_top" xlink:title="vpr::Buffer::Unmap">
<polygon fill="white" stroke="black" points="181.5,-50 181.5,-69 277.5,-69 277.5,-50 181.5,-50"/>
<text text-anchor="middle" x="229.5" y="-57" font-family="Helvetica,sans-Serif" font-size="10.00">vpr::Buffer::Unmap</text>
</a>
</g>
</g>
<!-- Node25&#45;&gt;Node34 -->
<g id="edge9" class="edge"><title>Node25&#45;&gt;Node34</title>
<path fill="none" stroke="midnightblue" d="M81.9162,-120.102C100.47,-107.383 128.436,-89.664 155,-78.5 163.87,-74.7723 173.658,-71.6256 183.119,-69.0316"/>
<polygon fill="midnightblue" stroke="midnightblue" points="79.8117,-117.302 73.6116,-125.893 83.816,-123.044 79.8117,-117.302"/>
</g>
<!-- Node30 -->
<g id="node6" class="node"><title>Node30</title>
<g id="a_node6"><a xlink:href="classvpr_1_1_buffer.html#ae38678b302a270b3716b43505e2f7e96" target="_top" xlink:title="Maps this object, copies data to this object, then ensures to unmap this object. ">
<polygon fill="white" stroke="black" points="340,-88 340,-107 473,-107 473,-88 340,-88"/>
<text text-anchor="middle" x="406.5" y="-95" font-family="Helvetica,sans-Serif" font-size="10.00">vpr::Buffer::CopyToMapped</text>
</a>
</g>
</g>
<!-- Node29&#45;&gt;Node30 -->
<g id="edge5" class="edge"><title>Node29&#45;&gt;Node30</title>
<path fill="none" stroke="midnightblue" d="M281.367,-124.455C306.803,-118.931 337.279,-112.314 361.668,-107.018"/>
<polygon fill="midnightblue" stroke="midnightblue" points="280.559,-121.048 271.53,-126.591 282.045,-127.889 280.559,-121.048"/>
</g>
<!-- Node33 -->
<g id="node9" class="node"><title>Node33</title>
<g id="a_node9"><a xlink:href="classvpr_1_1_buffer.html#abe56ee5b43a1be73960fa5edae0dcb0b" target="_top" xlink:title="Creates underlying handles, binds a memory region from the allocator system, and prepares everything ...">
<polygon fill="white" stroke="black" points="347,-6 347,-25 466,-25 466,-6 347,-6"/>
<text text-anchor="middle" x="406.5" y="-13" font-family="Helvetica,sans-Serif" font-size="10.00">vpr::Buffer::CreateBuffer</text>
</a>
</g>
</g>
<!-- Node32&#45;&gt;Node33 -->
<g id="edge8" class="edge"><title>Node32&#45;&gt;Node33</title>
<path fill="none" stroke="midnightblue" d="M314.254,-15.5C325.238,-15.5 336.301,-15.5 346.748,-15.5"/>
<polygon fill="midnightblue" stroke="midnightblue" points="314.209,-12.0001 304.209,-15.5 314.209,-19.0001 314.209,-12.0001"/>
</g>
<!-- Node34&#45;&gt;Node30 -->
<g id="edge10" class="edge"><title>Node34&#45;&gt;Node30</title>
<path fill="none" stroke="midnightblue" d="M284.624,-71.2526C309.369,-76.6258 338.303,-82.9086 361.658,-87.9799"/>
<polygon fill="midnightblue" stroke="midnightblue" points="285.175,-67.7908 274.66,-69.089 283.689,-74.6314 285.175,-67.7908"/>
</g>
</g>
</svg>
