<?xml version="1.0" encoding="UTF-8" standalone="no"?>
<!DOCTYPE svg PUBLIC "-//W3C//DTD SVG 1.1//EN"
 "http://www.w3.org/Graphics/SVG/1.1/DTD/svg11.dtd">
<!-- Generated by graphviz version 2.38.0 (20140413.2041)
 -->
<!-- Title: el::LogMessage Pages: 1 -->
<svg width="1179pt" height="553pt"
 viewBox="0.00 0.00 1179.00 552.50" xmlns="http://www.w3.org/2000/svg" xmlns:xlink="http://www.w3.org/1999/xlink">
<g id="graph0" class="graph" transform="scale(1 1) rotate(0) translate(4 548.5)">
<title>el::LogMessage</title>
<polygon fill="white" stroke="none" points="-4,4 -4,-548.5 1175,-548.5 1175,4 -4,4"/>
<!-- Node1 -->
<g id="node1" class="node"><title>Node1</title>
<polygon fill="#bfbfbf" stroke="black" points="1085,-45.5 1085,-64.5 1171,-64.5 1171,-45.5 1085,-45.5"/>
<text text-anchor="middle" x="1128" y="-52.5" font-family="Helvetica,sans-Serif" font-size="10.00">el::LogMessage</text>
</g>
<!-- Node2 -->
<g id="node2" class="node"><title>Node2</title>
<g id="a_node2"><a xlink:title="STL class. ">
<polygon fill="white" stroke="#bfbfbf" points="151.5,-139.5 151.5,-158.5 211.5,-158.5 211.5,-139.5 151.5,-139.5"/>
<text text-anchor="middle" x="181.5" y="-146.5" font-family="Helvetica,sans-Serif" font-size="10.00">std::string</text>
</a>
</g>
</g>
<!-- Node2&#45;&gt;Node1 -->
<g id="edge1" class="edge"><title>Node2&#45;&gt;Node1</title>
<path fill="none" stroke="#9a32cd" stroke-dasharray="5,2" d="M196.708,-131.124C209.245,-116.24 228.646,-95.2487 249,-81 320.536,-30.9228 340.678,-0 428,-0 428,-0 428,-0 977.5,-0 1029.49,-0 1085.75,-29.6619 1111.96,-45.4197"/>
<polygon fill="#9a32cd" stroke="#9a32cd" points="193.811,-129.138 190.165,-139.086 199.218,-133.583 193.811,-129.138"/>
<text text-anchor="middle" x="735.5" y="-25" font-family="Helvetica,sans-Serif" font-size="10.00"> m_message</text>
<text text-anchor="middle" x="735.5" y="-14" font-family="Helvetica,sans-Serif" font-size="10.00">m_func</text>
<text text-anchor="middle" x="735.5" y="-3" font-family="Helvetica,sans-Serif" font-size="10.00">m_file</text>
</g>
<!-- Node4 -->
<g id="node4" class="node"><title>Node4</title>
<g id="a_node4"><a xlink:href="classel_1_1_logger.html" target="_top" xlink:title="Represents a logger holding ID and configurations we need to write logs. ">
<polygon fill="white" stroke="black" points="947,-180.5 947,-199.5 1006,-199.5 1006,-180.5 947,-180.5"/>
<text text-anchor="middle" x="976.5" y="-187.5" font-family="Helvetica,sans-Serif" font-size="10.00">el::Logger</text>
</a>
</g>
</g>
<!-- Node2&#45;&gt;Node4 -->
<g id="edge25" class="edge"><title>Node2&#45;&gt;Node4</title>
<path fill="none" stroke="#9a32cd" stroke-dasharray="5,2" d="M209.531,-134.715C242.727,-118.001 301.255,-91.1919 355,-80 479.896,-53.9914 824.36,-17.0213 929,-90 960.094,-111.686 970.906,-159.647 974.209,-180.266"/>
<polygon fill="#9a32cd" stroke="#9a32cd" points="207.783,-131.677 200.47,-139.344 210.968,-137.911 207.783,-131.677"/>
<text text-anchor="middle" x="583" y="-70" font-family="Helvetica,sans-Serif" font-size="10.00"> m_parentApplicationName</text>
<text text-anchor="middle" x="583" y="-59" font-family="Helvetica,sans-Serif" font-size="10.00">m_id</text>
</g>
<!-- Node10 -->
<g id="node9" class="node"><title>Node10</title>
<polygon fill="white" stroke="#bfbfbf" points="374,-413 374,-443 484,-443 484,-413 374,-413"/>
<text text-anchor="start" x="382" y="-431" font-family="Helvetica,sans-Serif" font-size="10.00">std::map&lt; std::string,</text>
<text text-anchor="middle" x="429" y="-420" font-family="Helvetica,sans-Serif" font-size="10.00"> FileStreamPtr &gt;</text>
</g>
<!-- Node2&#45;&gt;Node10 -->
<g id="edge9" class="edge"><title>Node2&#45;&gt;Node10</title>
<path fill="none" stroke="#9a32cd" stroke-dasharray="5,2" d="M184.053,-168.703C188.097,-207.752 202.154,-295.864 249,-350 281.053,-387.041 333.952,-407.117 373.951,-417.579"/>
<polygon fill="#9a32cd" stroke="#9a32cd" points="187.53,-168.289 183.126,-158.652 180.56,-168.932 187.53,-168.289"/>
<text text-anchor="middle" x="293" y="-409" font-family="Helvetica,sans-Serif" font-size="10.00"> keys</text>
</g>
<!-- Node14 -->
<g id="node13" class="node"><title>Node14</title>
<polygon fill="white" stroke="#bfbfbf" points="376.5,-364 376.5,-394 481.5,-394 481.5,-364 376.5,-364"/>
<text text-anchor="start" x="384.5" y="-382" font-family="Helvetica,sans-Serif" font-size="10.00">std::map&lt; Level, std</text>
<text text-anchor="middle" x="429" y="-371" font-family="Helvetica,sans-Serif" font-size="10.00">::string &gt;</text>
</g>
<!-- Node2&#45;&gt;Node14 -->
<g id="edge16" class="edge"><title>Node2&#45;&gt;Node14</title>
<path fill="none" stroke="#9a32cd" stroke-dasharray="5,2" d="M195.457,-166.728C228.413,-211.411 315.6,-327.009 355,-354 361.521,-358.467 368.913,-362.203 376.429,-365.307"/>
<polygon fill="#9a32cd" stroke="#9a32cd" points="198.193,-164.54 189.452,-158.554 192.553,-168.685 198.193,-164.54"/>
<text text-anchor="middle" x="293" y="-340" font-family="Helvetica,sans-Serif" font-size="10.00"> elements</text>
</g>
<!-- Node15 -->
<g id="node14" class="node"><title>Node15</title>
<g id="a_node14"><a xlink:href="classel_1_1_configurations.html" target="_top" xlink:title="Thread&#45;safe Configuration repository. ">
<polygon fill="white" stroke="red" points="383,-139.5 383,-158.5 475,-158.5 475,-139.5 383,-139.5"/>
<text text-anchor="middle" x="429" y="-146.5" font-family="Helvetica,sans-Serif" font-size="10.00">el::Configurations</text>
</a>
</g>
</g>
<!-- Node2&#45;&gt;Node15 -->
<g id="edge18" class="edge"><title>Node2&#45;&gt;Node15</title>
<path fill="none" stroke="#9a32cd" stroke-dasharray="5,2" d="M221.898,-149C265.759,-149 336.531,-149 382.661,-149"/>
<polygon fill="#9a32cd" stroke="#9a32cd" points="221.626,-145.5 211.626,-149 221.626,-152.5 221.626,-145.5"/>
<text text-anchor="middle" x="293" y="-152" font-family="Helvetica,sans-Serif" font-size="10.00"> m_configurationFile</text>
</g>
<!-- Node3 -->
<g id="node3" class="node"><title>Node3</title>
<g id="a_node3"><a xlink:title="STL class. ">
<polygon fill="white" stroke="#bfbfbf" points="0,-134 0,-164 95,-164 95,-134 0,-134"/>
<text text-anchor="start" x="8" y="-152" font-family="Helvetica,sans-Serif" font-size="10.00">std::basic_string&lt;</text>
<text text-anchor="middle" x="47.5" y="-141" font-family="Helvetica,sans-Serif" font-size="10.00"> char &gt;</text>
</a>
</g>
</g>
<!-- Node3&#45;&gt;Node2 -->
<g id="edge2" class="edge"><title>Node3&#45;&gt;Node2</title>
<path fill="none" stroke="midnightblue" d="M105.304,-149C121.143,-149 137.703,-149 151.238,-149"/>
<polygon fill="midnightblue" stroke="midnightblue" points="105.038,-145.5 95.0383,-149 105.038,-152.5 105.038,-145.5"/>
</g>
<!-- Node4&#45;&gt;Node1 -->
<g id="edge3" class="edge"><title>Node4&#45;&gt;Node1</title>
<path fill="none" stroke="#9a32cd" stroke-dasharray="5,2" d="M995.907,-173.378C1027.51,-144.839 1091.12,-87.3972 1116.35,-64.6209"/>
<polygon fill="#9a32cd" stroke="#9a32cd" points="993.328,-170.991 988.252,-180.291 998.019,-176.187 993.328,-170.991"/>
<text text-anchor="middle" x="1045.5" y="-150" font-family="Helvetica,sans-Serif" font-size="10.00"> m_logger</text>
</g>
<!-- Node5 -->
<g id="node5" class="node"><title>Node5</title>
<g id="a_node5"><a xlink:href="classel_1_1base_1_1threading_1_1_thread_safe.html" target="_top" xlink:title="Base of thread safe class, this class is inheritable&#45;only. ">
<polygon fill="white" stroke="black" points="380.5,-514 380.5,-544 477.5,-544 477.5,-514 380.5,-514"/>
<text text-anchor="start" x="388.5" y="-532" font-family="Helvetica,sans-Serif" font-size="10.00">el::base::threading</text>
<text text-anchor="middle" x="429" y="-521" font-family="Helvetica,sans-Serif" font-size="10.00">::ThreadSafe</text>
</a>
</g>
</g>
<!-- Node5&#45;&gt;Node4 -->
<g id="edge4" class="edge"><title>Node5&#45;&gt;Node4</title>
<path fill="none" stroke="midnightblue" d="M487.797,-533.924C565.722,-537.86 706.403,-535.233 808,-478 874.263,-440.672 890.652,-422.678 929,-357 960.564,-302.941 971.534,-226.482 974.538,-199.71"/>
<polygon fill="midnightblue" stroke="midnightblue" points="487.87,-530.422 477.69,-533.358 487.479,-537.411 487.87,-530.422"/>
</g>
<!-- Node11 -->
<g id="node10" class="node"><title>Node11</title>
<g id="a_node10"><a xlink:href="classel_1_1base_1_1_typed_configurations.html" target="_top" xlink:title="Configurations with data types. ">
<polygon fill="white" stroke="black" points="663,-300.5 663,-319.5 808,-319.5 808,-300.5 663,-300.5"/>
<text text-anchor="middle" x="735.5" y="-307.5" font-family="Helvetica,sans-Serif" font-size="10.00">el::base::TypedConfigurations</text>
</a>
</g>
</g>
<!-- Node5&#45;&gt;Node11 -->
<g id="edge11" class="edge"><title>Node5&#45;&gt;Node11</title>
<path fill="none" stroke="midnightblue" d="M487.752,-523.759C542.781,-517.759 620.733,-506.321 645,-488 652.557,-482.295 712.683,-356.086 729.905,-319.723"/>
<polygon fill="midnightblue" stroke="midnightblue" points="487.337,-520.283 477.761,-524.817 488.074,-527.244 487.337,-520.283"/>
</g>
<!-- Node6 -->
<g id="node6" class="node"><title>Node6</title>
<g id="a_node6"><a xlink:href="classel_1_1base_1_1threading_1_1internal_1_1_no_mutex.html" target="_top" xlink:title="Mutex wrapper used when multi&#45;threading is disabled. ">
<polygon fill="white" stroke="red" points="132,-514 132,-544 231,-544 231,-514 132,-514"/>
<text text-anchor="start" x="140" y="-532" font-family="Helvetica,sans-Serif" font-size="10.00">el::base::threading</text>
<text text-anchor="middle" x="181.5" y="-521" font-family="Helvetica,sans-Serif" font-size="10.00">::internal::NoMutex</text>
</a>
</g>
</g>
<!-- Node6&#45;&gt;Node5 -->
<g id="edge5" class="edge"><title>Node6&#45;&gt;Node5</title>
<path fill="none" stroke="#9a32cd" stroke-dasharray="5,2" d="M241.228,-529C283.815,-529 340.68,-529 380.433,-529"/>
<polygon fill="#9a32cd" stroke="#9a32cd" points="241.003,-525.5 231.003,-529 241.003,-532.5 241.003,-525.5"/>
<text text-anchor="middle" x="293" y="-532" font-family="Helvetica,sans-Serif" font-size="10.00"> m_mutex</text>
</g>
<!-- Node8 -->
<g id="node7" class="node"><title>Node8</title>
<g id="a_node7"><a xlink:href="classel_1_1_loggable.html" target="_top" xlink:title="Base of Easylogging++ friendly class. ">
<polygon fill="white" stroke="black" points="701,-224.5 701,-243.5 770,-243.5 770,-224.5 701,-224.5"/>
<text text-anchor="middle" x="735.5" y="-231.5" font-family="Helvetica,sans-Serif" font-size="10.00">el::Loggable</text>
</a>
</g>
</g>
<!-- Node8&#45;&gt;Node4 -->
<g id="edge6" class="edge"><title>Node8&#45;&gt;Node4</title>
<path fill="none" stroke="midnightblue" d="M780.232,-229.465C819.502,-224.908 878.562,-216.851 929,-205 935.276,-203.525 941.924,-201.604 948.169,-199.632"/>
<polygon fill="midnightblue" stroke="midnightblue" points="779.741,-225.998 770.199,-230.603 780.53,-232.954 779.741,-225.998"/>
</g>
<!-- Node9 -->
<g id="node8" class="node"><title>Node9</title>
<polygon fill="white" stroke="#bfbfbf" points="670,-175 670,-205 801,-205 801,-175 670,-175"/>
<text text-anchor="start" x="678" y="-193" font-family="Helvetica,sans-Serif" font-size="10.00">std::map&lt; Level, unsigned</text>
<text text-anchor="middle" x="735.5" y="-182" font-family="Helvetica,sans-Serif" font-size="10.00"> int &gt;</text>
</g>
<!-- Node9&#45;&gt;Node4 -->
<g id="edge7" class="edge"><title>Node9&#45;&gt;Node4</title>
<path fill="none" stroke="#9a32cd" stroke-dasharray="5,2" d="M811.413,-190C857.369,-190 913.594,-190 946.871,-190"/>
<polygon fill="#9a32cd" stroke="#9a32cd" points="811.177,-186.5 801.177,-190 811.177,-193.5 811.177,-186.5"/>
<text text-anchor="middle" x="877.5" y="-193" font-family="Helvetica,sans-Serif" font-size="10.00"> m_unflushedCount</text>
</g>
<!-- Node10&#45;&gt;Node4 -->
<g id="edge8" class="edge"><title>Node10&#45;&gt;Node4</title>
<path fill="none" stroke="#9a32cd" stroke-dasharray="5,2" d="M493.503,-447.066C496.773,-448.607 499.959,-450.25 503,-452 512.277,-457.338 510.995,-464.196 521,-468 572.514,-487.585 591.957,-482.957 645,-468 787.473,-427.825 831.305,-405.213 929,-294 954.584,-264.876 968.25,-219.385 973.25,-199.661"/>
<polygon fill="#9a32cd" stroke="#9a32cd" points="494.685,-443.764 484.118,-442.994 491.898,-450.185 494.685,-443.764"/>
<text text-anchor="middle" x="735.5" y="-466" font-family="Helvetica,sans-Serif" font-size="10.00"> m_logStreamsReference</text>
</g>
<!-- Node10&#45;&gt;Node11 -->
<g id="edge13" class="edge"><title>Node10&#45;&gt;Node11</title>
<path fill="none" stroke="#9a32cd" stroke-dasharray="5,2" d="M494.11,-420.966C547.557,-414.373 619.006,-403.653 645,-391 680.99,-373.481 713.097,-337.015 727.081,-319.626"/>
<polygon fill="#9a32cd" stroke="#9a32cd" points="493.524,-417.511 484.018,-422.188 494.366,-424.46 493.524,-417.511"/>
<text text-anchor="middle" x="583" y="-421" font-family="Helvetica,sans-Serif" font-size="10.00"> m_logStreamsReference</text>
</g>
<!-- Node11&#45;&gt;Node4 -->
<g id="edge10" class="edge"><title>Node11&#45;&gt;Node4</title>
<path fill="none" stroke="#9a32cd" stroke-dasharray="5,2" d="M776.56,-297.11C816.711,-283.296 879.502,-259.218 929,-229 942.849,-220.545 956.863,-208.149 965.832,-199.614"/>
<polygon fill="#9a32cd" stroke="#9a32cd" points="775.208,-293.872 766.862,-300.398 777.456,-300.501 775.208,-293.872"/>
<text text-anchor="middle" x="877.5" y="-282" font-family="Helvetica,sans-Serif" font-size="10.00"> m_typedConfigurations</text>
</g>
<!-- Node12 -->
<g id="node11" class="node"><title>Node12</title>
<polygon fill="white" stroke="#bfbfbf" points="376.5,-315 376.5,-345 481.5,-345 481.5,-315 376.5,-315"/>
<text text-anchor="start" x="384.5" y="-333" font-family="Helvetica,sans-Serif" font-size="10.00">std::map&lt; Level, std</text>
<text text-anchor="middle" x="429" y="-322" font-family="Helvetica,sans-Serif" font-size="10.00">::size_t &gt;</text>
</g>
<!-- Node12&#45;&gt;Node11 -->
<g id="edge12" class="edge"><title>Node12&#45;&gt;Node11</title>
<path fill="none" stroke="#9a32cd" stroke-dasharray="5,2" d="M491.8,-328.731C534.813,-327.525 593.467,-325.238 645,-321 650.773,-320.525 656.747,-319.958 662.743,-319.335"/>
<polygon fill="#9a32cd" stroke="#9a32cd" points="491.671,-325.233 481.769,-329 491.859,-332.23 491.671,-325.233"/>
<text text-anchor="middle" x="583" y="-342" font-family="Helvetica,sans-Serif" font-size="10.00"> m_maxLogFileSizeMap</text>
<text text-anchor="middle" x="583" y="-331" font-family="Helvetica,sans-Serif" font-size="10.00">m_logFlushThresholdMap</text>
</g>
<!-- Node13 -->
<g id="node12" class="node"><title>Node13</title>
<polygon fill="white" stroke="#bfbfbf" points="369.5,-276.5 369.5,-295.5 488.5,-295.5 488.5,-276.5 369.5,-276.5"/>
<text text-anchor="middle" x="429" y="-283.5" font-family="Helvetica,sans-Serif" font-size="10.00">std::map&lt; Level, bool &gt;</text>
</g>
<!-- Node13&#45;&gt;Node11 -->
<g id="edge14" class="edge"><title>Node13&#45;&gt;Node11</title>
<path fill="none" stroke="#9a32cd" stroke-dasharray="5,2" d="M486.318,-274.815C530.003,-268.004 591.858,-262.448 645,-273 671.222,-278.206 699.396,-291.219 716.983,-300.332"/>
<polygon fill="#9a32cd" stroke="#9a32cd" points="485.482,-271.405 476.176,-276.47 486.609,-278.314 485.482,-271.405"/>
<text text-anchor="middle" x="583" y="-309" font-family="Helvetica,sans-Serif" font-size="10.00"> m_toFileMap</text>
<text text-anchor="middle" x="583" y="-298" font-family="Helvetica,sans-Serif" font-size="10.00">m_performanceTrackingMap</text>
<text text-anchor="middle" x="583" y="-287" font-family="Helvetica,sans-Serif" font-size="10.00">m_toStandardOutputMap</text>
<text text-anchor="middle" x="583" y="-276" font-family="Helvetica,sans-Serif" font-size="10.00">m_enabledMap</text>
</g>
<!-- Node14&#45;&gt;Node11 -->
<g id="edge15" class="edge"><title>Node14&#45;&gt;Node11</title>
<path fill="none" stroke="#9a32cd" stroke-dasharray="5,2" d="M491.968,-377.37C535.534,-374.884 594.774,-368.788 645,-354 672.406,-345.931 701.664,-329.985 719.002,-319.668"/>
<polygon fill="#9a32cd" stroke="#9a32cd" points="491.61,-373.884 481.806,-377.9 491.975,-380.874 491.61,-373.884"/>
<text text-anchor="middle" x="583" y="-379" font-family="Helvetica,sans-Serif" font-size="10.00"> m_filenameMap</text>
</g>
<!-- Node15&#45;&gt;Node4 -->
<g id="edge22" class="edge"><title>Node15&#45;&gt;Node4</title>
<path fill="none" stroke="#9a32cd" stroke-dasharray="5,2" d="M485.281,-146.314C559.111,-143.507 693.86,-141.109 808,-154 857.359,-159.575 913.6,-173.196 946.739,-181.993"/>
<polygon fill="#9a32cd" stroke="#9a32cd" points="485.129,-142.818 475.276,-146.712 485.407,-149.812 485.129,-142.818"/>
<text text-anchor="middle" x="735.5" y="-157" font-family="Helvetica,sans-Serif" font-size="10.00"> m_configurations</text>
</g>
<!-- Node15&#45;&gt;Node11 -->
<g id="edge17" class="edge"><title>Node15&#45;&gt;Node11</title>
<path fill="none" stroke="#9a32cd" stroke-dasharray="5,2" d="M485.311,-151.872C545.046,-155.486 633.296,-162.519 645,-173 672.15,-197.313 643.655,-222.113 663,-253 676.229,-274.123 700.124,-290.776 716.627,-300.497"/>
<polygon fill="#9a32cd" stroke="#9a32cd" points="485.438,-148.373 475.25,-151.279 485.026,-155.361 485.438,-148.373"/>
<text text-anchor="middle" x="583" y="-176" font-family="Helvetica,sans-Serif" font-size="10.00"> m_configurations</text>
</g>
<!-- Node20 -->
<g id="node15" class="node"><title>Node20</title>
<polygon fill="white" stroke="#bfbfbf" points="355,-227 355,-257 503,-257 503,-227 355,-227"/>
<text text-anchor="start" x="363" y="-245" font-family="Helvetica,sans-Serif" font-size="10.00">std::map&lt; Level, el</text>
<text text-anchor="middle" x="429" y="-234" font-family="Helvetica,sans-Serif" font-size="10.00">::base::SubsecondPrecision &gt;</text>
</g>
<!-- Node20&#45;&gt;Node11 -->
<g id="edge19" class="edge"><title>Node20&#45;&gt;Node11</title>
<path fill="none" stroke="#9a32cd" stroke-dasharray="5,2" d="M513.447,-236.447C554.026,-236.198 602.987,-239.584 645,-253 676.412,-263.031 707.654,-286.902 723.605,-300.354"/>
<polygon fill="#9a32cd" stroke="#9a32cd" points="513.272,-232.949 503.32,-236.585 513.367,-239.949 513.272,-232.949"/>
<text text-anchor="middle" x="583" y="-256" font-family="Helvetica,sans-Serif" font-size="10.00"> m_subsecondPrecisionMap</text>
</g>
<!-- Node22 -->
<g id="node16" class="node"><title>Node22</title>
<polygon fill="white" stroke="#bfbfbf" points="372.5,-178 372.5,-208 485.5,-208 485.5,-178 372.5,-178"/>
<text text-anchor="start" x="380.5" y="-196" font-family="Helvetica,sans-Serif" font-size="10.00">std::map&lt; Level, base</text>
<text text-anchor="middle" x="429" y="-185" font-family="Helvetica,sans-Serif" font-size="10.00">::FileStreamPtr &gt;</text>
</g>
<!-- Node22&#45;&gt;Node11 -->
<g id="edge20" class="edge"><title>Node22&#45;&gt;Node11</title>
<path fill="none" stroke="#9a32cd" stroke-dasharray="5,2" d="M495.962,-187.405C541.446,-186.811 601.338,-192.804 645,-222 658.244,-230.856 652.592,-240.938 663,-253 679.801,-272.471 703.97,-290.125 719.455,-300.464"/>
<polygon fill="#9a32cd" stroke="#9a32cd" points="495.816,-183.908 485.902,-187.646 495.983,-190.906 495.816,-183.908"/>
<text text-anchor="middle" x="583" y="-225" font-family="Helvetica,sans-Serif" font-size="10.00"> m_fileStreamMap</text>
</g>
<!-- Node23 -->
<g id="node17" class="node"><title>Node23</title>
<polygon fill="white" stroke="#bfbfbf" points="376.5,-462 376.5,-492 481.5,-492 481.5,-462 376.5,-462"/>
<text text-anchor="start" x="384.5" y="-480" font-family="Helvetica,sans-Serif" font-size="10.00">std::map&lt; Level, el</text>
<text text-anchor="middle" x="429" y="-469" font-family="Helvetica,sans-Serif" font-size="10.00">::base::LogFormat &gt;</text>
</g>
<!-- Node23&#45;&gt;Node11 -->
<g id="edge21" class="edge"><title>Node23&#45;&gt;Node11</title>
<path fill="none" stroke="#9a32cd" stroke-dasharray="5,2" d="M491.746,-476.095C537.319,-472.783 599.129,-462.519 645,-433 690.304,-403.846 720.238,-343.05 730.53,-319.554"/>
<polygon fill="#9a32cd" stroke="#9a32cd" points="491.456,-472.607 481.698,-476.733 491.9,-479.592 491.456,-472.607"/>
<text text-anchor="middle" x="583" y="-476" font-family="Helvetica,sans-Serif" font-size="10.00"> m_logFormatMap</text>
</g>
<!-- Node25 -->
<g id="node18" class="node"><title>Node25</title>
<g id="a_node18"><a xlink:title="STL class. ">
<polygon fill="white" stroke="#bfbfbf" points="690.5,-89.5 690.5,-108.5 780.5,-108.5 780.5,-89.5 690.5,-89.5"/>
<text text-anchor="middle" x="735.5" y="-96.5" font-family="Helvetica,sans-Serif" font-size="10.00">std::stringstream</text>
</a>
</g>
</g>
<!-- Node25&#45;&gt;Node4 -->
<g id="edge23" class="edge"><title>Node25&#45;&gt;Node4</title>
<path fill="none" stroke="#9a32cd" stroke-dasharray="5,2" d="M790.816,-93.1036C831.692,-91.3263 887.563,-94.7911 929,-120 952.184,-134.104 966.226,-164.666 972.171,-180.325"/>
<polygon fill="#9a32cd" stroke="#9a32cd" points="790.557,-89.6124 780.765,-93.6583 790.943,-96.6018 790.557,-89.6124"/>
<text text-anchor="middle" x="877.5" y="-123" font-family="Helvetica,sans-Serif" font-size="10.00"> m_stream</text>
</g>
<!-- Node26 -->
<g id="node19" class="node"><title>Node26</title>
<g id="a_node19"><a xlink:title="STL class. ">
<polygon fill="white" stroke="#bfbfbf" points="369.5,-90 369.5,-120 488.5,-120 488.5,-90 369.5,-90"/>
<text text-anchor="start" x="377.5" y="-108" font-family="Helvetica,sans-Serif" font-size="10.00">std::basic_stringstream</text>
<text text-anchor="middle" x="429" y="-97" font-family="Helvetica,sans-Serif" font-size="10.00">&lt; char &gt;</text>
</a>
</g>
</g>
<!-- Node26&#45;&gt;Node25 -->
<g id="edge24" class="edge"><title>Node26&#45;&gt;Node25</title>
<path fill="none" stroke="midnightblue" d="M499.006,-103.64C557.66,-102.485 640.114,-100.86 690.284,-99.8712"/>
<polygon fill="midnightblue" stroke="midnightblue" points="498.64,-100.147 488.711,-103.843 498.778,-107.145 498.64,-100.147"/>
</g>
</g>
</svg>
