<?xml version="1.0" encoding="UTF-8" standalone="no"?>
<!DOCTYPE svg PUBLIC "-//W3C//DTD SVG 1.1//EN"
 "http://www.w3.org/Graphics/SVG/1.1/DTD/svg11.dtd">
<!-- Generated by graphviz version 2.38.0 (20140413.2041)
 -->
<!-- Title: vpr::DescriptorSet::vkHandle Pages: 1 -->
<svg width="232pt" height="88pt"
 viewBox="0.00 0.00 232.00 88.00" xmlns="http://www.w3.org/2000/svg" xmlns:xlink="http://www.w3.org/1999/xlink">
<g id="graph0" class="graph" transform="scale(1 1) rotate(0) translate(4 84)">
<title>vpr::DescriptorSet::vkHandle</title>
<polygon fill="white" stroke="none" points="-4,4 -4,-84 228,-84 228,4 -4,4"/>
<!-- Node36 -->
<g id="node1" class="node"><title>Node36</title>
<polygon fill="#bfbfbf" stroke="black" points="0,-24.5 0,-54.5 94,-54.5 94,-24.5 0,-24.5"/>
<text text-anchor="start" x="8" y="-42.5" font-family="Helvetica,sans-Serif" font-size="10.00">vpr::DescriptorSet</text>
<text text-anchor="middle" x="47" y="-31.5" font-family="Helvetica,sans-Serif" font-size="10.00">::vkHandle</text>
</g>
<!-- Node37 -->
<g id="node2" class="node"><title>Node37</title>
<g id="a_node2"><a xlink:href="classvpr_1_1_descriptor_set.html#a3f90e39823801c8c37e2e89f3c262c72" target="_top" xlink:title="vpr::DescriptorSet\l::allocate">
<polygon fill="white" stroke="black" points="130,-49.5 130,-79.5 224,-79.5 224,-49.5 130,-49.5"/>
<text text-anchor="start" x="138" y="-67.5" font-family="Helvetica,sans-Serif" font-size="10.00">vpr::DescriptorSet</text>
<text text-anchor="middle" x="177" y="-56.5" font-family="Helvetica,sans-Serif" font-size="10.00">::allocate</text>
</a>
</g>
</g>
<!-- Node36&#45;&gt;Node37 -->
<g id="edge1" class="edge"><title>Node36&#45;&gt;Node37</title>
<path fill="none" stroke="midnightblue" d="M94.2109,-48.5256C102.549,-50.1541 111.325,-51.8681 119.908,-53.5444"/>
<polygon fill="midnightblue" stroke="midnightblue" points="119.371,-57.0058 129.857,-55.4877 120.713,-50.1356 119.371,-57.0058"/>
</g>
<!-- Node38 -->
<g id="node3" class="node"><title>Node38</title>
<g id="a_node3"><a xlink:href="classvpr_1_1_descriptor_set.html#af60aebdf9d7c13a45e5bb2f87f8dc952" target="_top" xlink:title="vpr::DescriptorSet\l::update">
<polygon fill="white" stroke="black" points="130,-0.5 130,-30.5 224,-30.5 224,-0.5 130,-0.5"/>
<text text-anchor="start" x="138" y="-18.5" font-family="Helvetica,sans-Serif" font-size="10.00">vpr::DescriptorSet</text>
<text text-anchor="middle" x="177" y="-7.5" font-family="Helvetica,sans-Serif" font-size="10.00">::update</text>
</a>
</g>
</g>
<!-- Node36&#45;&gt;Node38 -->
<g id="edge2" class="edge"><title>Node36&#45;&gt;Node38</title>
<path fill="none" stroke="midnightblue" d="M94.2109,-30.8354C102.549,-29.2721 111.325,-27.6266 119.908,-26.0173"/>
<polygon fill="midnightblue" stroke="midnightblue" points="120.673,-29.4349 129.857,-24.1518 119.383,-22.5547 120.673,-29.4349"/>
</g>
</g>
</svg>
