<?xml version="1.0" encoding="UTF-8" standalone="no"?>
<!DOCTYPE svg PUBLIC "-//W3C//DTD SVG 1.1//EN"
 "http://www.w3.org/Graphics/SVG/1.1/DTD/svg11.dtd">
<!-- Generated by graphviz version 2.38.0 (20140413.2041)
 -->
<!-- Title: el::Configurations::Configurations Pages: 1 -->
<!--zoomable 375 -->
<svg id="main" version="1.1" xmlns="http://www.w3.org/2000/svg" xmlns:xlink="http://www.w3.org/1999/xlink" xml:space="preserve" onload="init(evt)">
<style type="text/css"><![CDATA[
.edge:hover path { stroke: red; }
.edge:hover polygon { stroke: red; fill: red; }
]]></style>
<script type="text/javascript"><![CDATA[
var edges = document.getElementsByTagName('g');
if (edges && edges.length) {
  for (var i=0;i<edges.length;i++) {
    if (edges[i].id.substr(0,4)=='edge') {
      edges[i].setAttribute('class','edge');
    }
  }
}
]]></script>
        <defs>
                <circle id="rim" cx="0" cy="0" r="7"/>
                <circle id="rim2" cx="0" cy="0" r="3.5"/>
                <g id="zoomPlus">
                        <use xlink:href="#rim" fill="#404040">
                                <set attributeName="fill" to="#808080" begin="zoomplus.mouseover" end="zoomplus.mouseout"/>
                        </use>
                        <path d="M-4,0h8M0,-4v8" fill="none" stroke="white" stroke-width="1.5" pointer-events="none"/>
                </g>
                <g id="zoomMin">
                        <use xlink:href="#rim" fill="#404040">
                                <set attributeName="fill" to="#808080" begin="zoomminus.mouseover" end="zoomminus.mouseout"/>
                        </use>
                        <path d="M-4,0h8" fill="none" stroke="white" stroke-width="1.5" pointer-events="none"/>
                </g>
                <g id="dirArrow">
                        <path fill="none" stroke="white" stroke-width="1.5" d="M0,-3.0v7 M-2.5,-0.5L0,-3.0L2.5,-0.5"/>
                </g>
               <g id="resetDef">
                       <use xlink:href="#rim2" fill="#404040">
                               <set attributeName="fill" to="#808080" begin="reset.mouseover" end="reset.mouseout"/>
                       </use>
               </g>
        </defs>

<script type="text/javascript">
var viewWidth = 902;
var viewHeight = 375;
var sectionId = 'dynsection-2';
</script>
<script xlink:href="svgpan.js"/>
<svg id="graph" class="graph">
<g id="viewport">
<title>el::Configurations::Configurations</title>
<polygon fill="white" stroke="none" points="-4,4 -4,-370.5 898,-370.5 898,4 -4,4"/>
<!-- Node2 -->
<g id="node1" class="node"><title>Node2</title>
<polygon fill="#bfbfbf" stroke="black" points="0,-263 0,-293 92,-293 92,-263 0,-263"/>
<text text-anchor="start" x="8" y="-281" font-family="Helvetica,sans-Serif" font-size="10.00">el::Configurations</text>
<text text-anchor="middle" x="46" y="-270" font-family="Helvetica,sans-Serif" font-size="10.00">::Configurations</text>
</g>
<!-- Node3 -->
<g id="node2" class="node"><title>Node3</title>
<g id="a_node2"><a xlink:href="classel_1_1_configurations.html#aaa098126d64a5ee04a3944b1a65dcdca" target="_top" xlink:title="Parses configuration from file. ">
<polygon fill="white" stroke="black" points="143,-288 143,-318 235,-318 235,-288 143,-288"/>
<text text-anchor="start" x="151" y="-306" font-family="Helvetica,sans-Serif" font-size="10.00">el::Configurations</text>
<text text-anchor="middle" x="189" y="-295" font-family="Helvetica,sans-Serif" font-size="10.00">::parseFromFile</text>
</a>
</g>
</g>
<!-- Node2&#45;&gt;Node3 -->
<g id="edge1" class="edge"><title>Node2&#45;&gt;Node3</title>
<path fill="none" stroke="midnightblue" d="M92.001,-285.979C104.974,-288.279 119.279,-290.815 132.795,-293.212"/>
<polygon fill="midnightblue" stroke="midnightblue" points="132.485,-296.712 142.943,-295.011 133.708,-289.819 132.485,-296.712"/>
</g>
<!-- Node9 -->
<g id="node8" class="node"><title>Node9</title>
<g id="a_node8"><a xlink:href="classel_1_1_configurations.html#ad89b7d2dd750e4d1b3deff800e278fdb" target="_top" xlink:title="Lets you set the remaining configurations to default. ">
<polygon fill="white" stroke="black" points="128,-239 128,-269 250,-269 250,-239 128,-239"/>
<text text-anchor="start" x="136" y="-257" font-family="Helvetica,sans-Serif" font-size="10.00">el::Configurations</text>
<text text-anchor="middle" x="189" y="-246" font-family="Helvetica,sans-Serif" font-size="10.00">::setRemainingToDefault</text>
</a>
</g>
</g>
<!-- Node2&#45;&gt;Node9 -->
<g id="edge7" class="edge"><title>Node2&#45;&gt;Node9</title>
<path fill="none" stroke="midnightblue" d="M92.001,-270.34C100.316,-268.925 109.178,-267.416 118.029,-265.91"/>
<polygon fill="midnightblue" stroke="midnightblue" points="118.717,-269.343 127.988,-264.215 117.542,-262.443 118.717,-269.343"/>
</g>
<!-- Node4 -->
<g id="node3" class="node"><title>Node4</title>
<g id="a_node3"><a xlink:href="classel_1_1base_1_1utils_1_1_file.html#a43ffda98fdd01d23af20459fa1a65cac" target="_top" xlink:title="Determines whether or not provided path exist in current file system. ">
<polygon fill="white" stroke="black" points="297,-336 297,-366 394,-366 394,-336 297,-336"/>
<text text-anchor="start" x="305" y="-354" font-family="Helvetica,sans-Serif" font-size="10.00">el::base::utils::File</text>
<text text-anchor="middle" x="345.5" y="-343" font-family="Helvetica,sans-Serif" font-size="10.00">::pathExists</text>
</a>
</g>
</g>
<!-- Node3&#45;&gt;Node4 -->
<g id="edge2" class="edge"><title>Node3&#45;&gt;Node4</title>
<path fill="none" stroke="midnightblue" d="M235.103,-317.013C251.334,-322.055 269.87,-327.814 287.014,-333.14"/>
<polygon fill="midnightblue" stroke="midnightblue" points="286.331,-336.593 296.919,-336.217 288.408,-329.908 286.331,-336.593"/>
</g>
<!-- Node5 -->
<g id="node4" class="node"><title>Node5</title>
<g id="a_node4"><a xlink:href="classel_1_1_configurations_1_1_parser.html#ab8e266318b9feaeee4d3169e4a7ca275" target="_top" xlink:title="Parses configuration from file. ">
<polygon fill="white" stroke="black" points="286,-287 286,-317 405,-317 405,-287 286,-287"/>
<text text-anchor="start" x="294" y="-305" font-family="Helvetica,sans-Serif" font-size="10.00">el::Configurations</text>
<text text-anchor="middle" x="345.5" y="-294" font-family="Helvetica,sans-Serif" font-size="10.00">::Parser::parseFromFile</text>
</a>
</g>
</g>
<!-- Node3&#45;&gt;Node5 -->
<g id="edge3" class="edge"><title>Node3&#45;&gt;Node5</title>
<path fill="none" stroke="midnightblue" d="M235.103,-302.708C247.737,-302.626 261.767,-302.535 275.45,-302.447"/>
<polygon fill="midnightblue" stroke="midnightblue" points="275.839,-305.945 285.817,-302.38 275.794,-298.945 275.839,-305.945"/>
</g>
<!-- Node6 -->
<g id="node5" class="node"><title>Node6</title>
<g id="a_node5"><a xlink:href="classel_1_1_configurations.html#a4c6db218908b39d23cc09b1a16a18e83" target="_top" xlink:title="Sets configuration based&#45;off an existing configurations. ">
<polygon fill="white" stroke="black" points="441,-287 441,-317 533,-317 533,-287 441,-287"/>
<text text-anchor="start" x="449" y="-305" font-family="Helvetica,sans-Serif" font-size="10.00">el::Configurations</text>
<text text-anchor="middle" x="487" y="-294" font-family="Helvetica,sans-Serif" font-size="10.00">::setFromBase</text>
</a>
</g>
</g>
<!-- Node5&#45;&gt;Node6 -->
<g id="edge4" class="edge"><title>Node5&#45;&gt;Node6</title>
<path fill="none" stroke="midnightblue" d="M405.256,-302C413.726,-302 422.418,-302 430.815,-302"/>
<polygon fill="midnightblue" stroke="midnightblue" points="430.877,-305.5 440.877,-302 430.877,-298.5 430.877,-305.5"/>
</g>
<!-- Node7 -->
<g id="node6" class="node"><title>Node7</title>
<g id="a_node6"><a xlink:href="classel_1_1base_1_1threading_1_1_thread_safe.html#affb45b35790a7305d0a659562c8104fc" target="_top" xlink:title="el::base::threading\l::ThreadSafe::lock">
<polygon fill="white" stroke="black" points="596.5,-247 596.5,-277 693.5,-277 693.5,-247 596.5,-247"/>
<text text-anchor="start" x="604.5" y="-265" font-family="Helvetica,sans-Serif" font-size="10.00">el::base::threading</text>
<text text-anchor="middle" x="645" y="-254" font-family="Helvetica,sans-Serif" font-size="10.00">::ThreadSafe::lock</text>
</a>
</g>
</g>
<!-- Node6&#45;&gt;Node7 -->
<g id="edge5" class="edge"><title>Node6&#45;&gt;Node7</title>
<path fill="none" stroke="midnightblue" d="M533.122,-290.43C549.671,-286.187 568.636,-281.324 586.148,-276.834"/>
<polygon fill="midnightblue" stroke="midnightblue" points="587.444,-280.115 596.261,-274.241 585.705,-273.334 587.444,-280.115"/>
</g>
<!-- Node8 -->
<g id="node7" class="node"><title>Node8</title>
<g id="a_node7"><a xlink:href="classel_1_1base_1_1utils_1_1_abstract_registry.html#a072859d3728a75f910c2898f62fd12da" target="_top" xlink:title="Returns underlying container by reference. ">
<polygon fill="white" stroke="black" points="586,-296 586,-326 704,-326 704,-296 586,-296"/>
<text text-anchor="start" x="594" y="-314" font-family="Helvetica,sans-Serif" font-size="10.00">el::base::utils::Abstract</text>
<text text-anchor="middle" x="645" y="-303" font-family="Helvetica,sans-Serif" font-size="10.00">Registry::list</text>
</a>
</g>
</g>
<!-- Node6&#45;&gt;Node8 -->
<g id="edge6" class="edge"><title>Node6&#45;&gt;Node8</title>
<path fill="none" stroke="midnightblue" d="M533.122,-304.603C546.373,-305.368 561.173,-306.222 575.536,-307.05"/>
<polygon fill="midnightblue" stroke="midnightblue" points="575.704,-310.566 585.889,-307.647 576.107,-303.577 575.704,-310.566"/>
</g>
<!-- Node9&#45;&gt;Node7 -->
<g id="edge8" class="edge"><title>Node9&#45;&gt;Node7</title>
<path fill="none" stroke="midnightblue" d="M250.288,-255.062C338.017,-256.608 499.787,-259.459 586.132,-260.98"/>
<polygon fill="midnightblue" stroke="midnightblue" points="586.218,-264.482 596.278,-261.159 586.341,-257.483 586.218,-264.482"/>
</g>
<!-- Node10 -->
<g id="node9" class="node"><title>Node10</title>
<g id="a_node9"><a xlink:href="classel_1_1_configurations.html#a84c06d47e550b5eda3060f399698ec28" target="_top" xlink:title="Unsafely sets configuration if does not already exist. ">
<polygon fill="white" stroke="black" points="291.5,-192 291.5,-222 399.5,-222 399.5,-192 291.5,-192"/>
<text text-anchor="start" x="299.5" y="-210" font-family="Helvetica,sans-Serif" font-size="10.00">el::Configurations</text>
<text text-anchor="middle" x="345.5" y="-199" font-family="Helvetica,sans-Serif" font-size="10.00">::unsafeSetIfNotExist</text>
</a>
</g>
</g>
<!-- Node9&#45;&gt;Node10 -->
<g id="edge9" class="edge"><title>Node9&#45;&gt;Node10</title>
<path fill="none" stroke="midnightblue" d="M239.31,-239C253.943,-234.548 270.122,-229.626 285.314,-225.005"/>
<polygon fill="midnightblue" stroke="midnightblue" points="286.581,-228.278 295.129,-222.019 284.543,-221.581 286.581,-228.278"/>
</g>
<!-- Node11 -->
<g id="node10" class="node"><title>Node11</title>
<g id="a_node10"><a xlink:href="classel_1_1base_1_1utils_1_1_registry_with_pred.html#a811d9cc011d945bc7237e6ae1cf2f096" target="_top" xlink:title="Gets pointer from repository with speicifed arguments. ">
<polygon fill="white" stroke="black" points="569,-186.5 569,-227.5 721,-227.5 721,-186.5 569,-186.5"/>
<text text-anchor="start" x="577" y="-215.5" font-family="Helvetica,sans-Serif" font-size="10.00">el::base::utils::Registry</text>
<text text-anchor="start" x="577" y="-204.5" font-family="Helvetica,sans-Serif" font-size="10.00">WithPred&lt; Configuration,</text>
<text text-anchor="middle" x="645" y="-193.5" font-family="Helvetica,sans-Serif" font-size="10.00"> Configuration::Predicate &gt;::get</text>
</a>
</g>
</g>
<!-- Node10&#45;&gt;Node11 -->
<g id="edge10" class="edge"><title>Node10&#45;&gt;Node11</title>
<path fill="none" stroke="midnightblue" d="M399.687,-207C443.873,-207 507.567,-207 558.842,-207"/>
<polygon fill="midnightblue" stroke="midnightblue" points="558.922,-210.5 568.922,-207 558.922,-203.5 558.922,-210.5"/>
</g>
<!-- Node12 -->
<g id="node11" class="node"><title>Node12</title>
<g id="a_node11"><a xlink:href="classel_1_1_configurations.html#a05c373510ca513e4f61999c84d512831" target="_top" xlink:title="Thread unsafe set. ">
<polygon fill="white" stroke="black" points="441,-96 441,-126 533,-126 533,-96 441,-96"/>
<text text-anchor="start" x="449" y="-114" font-family="Helvetica,sans-Serif" font-size="10.00">el::Configurations</text>
<text text-anchor="middle" x="487" y="-103" font-family="Helvetica,sans-Serif" font-size="10.00">::unsafeSet</text>
</a>
</g>
</g>
<!-- Node10&#45;&gt;Node12 -->
<g id="edge11" class="edge"><title>Node10&#45;&gt;Node12</title>
<path fill="none" stroke="midnightblue" d="M368.604,-191.789C392.072,-175.638 429.325,-150.002 455.56,-131.948"/>
<polygon fill="midnightblue" stroke="midnightblue" points="457.746,-134.693 463.999,-126.14 453.777,-128.926 457.746,-134.693"/>
</g>
<!-- Node12&#45;&gt;Node11 -->
<g id="edge12" class="edge"><title>Node12&#45;&gt;Node11</title>
<path fill="none" stroke="midnightblue" d="M503.664,-126.218C519.236,-140.726 544.302,-162.459 569,-177 571.84,-178.672 574.791,-180.29 577.807,-181.849"/>
<polygon fill="midnightblue" stroke="midnightblue" points="576.492,-185.102 587.013,-186.349 579.566,-178.813 576.492,-185.102"/>
</g>
<!-- Node13 -->
<g id="node12" class="node"><title>Node13</title>
<g id="a_node12"><a xlink:href="classel_1_1base_1_1utils_1_1_registry_with_pred.html#a561a5d418106a16473ff94d43a4b6b04" target="_top" xlink:title="el::base::utils::Registry\lWithPred\&lt; Configuration,\l Configuration::Predicate\l \&gt;::registerNew">
<polygon fill="white" stroke="black" points="582.5,-115 582.5,-167 707.5,-167 707.5,-115 582.5,-115"/>
<text text-anchor="start" x="590.5" y="-155" font-family="Helvetica,sans-Serif" font-size="10.00">el::base::utils::Registry</text>
<text text-anchor="start" x="590.5" y="-144" font-family="Helvetica,sans-Serif" font-size="10.00">WithPred&lt; Configuration,</text>
<text text-anchor="start" x="590.5" y="-133" font-family="Helvetica,sans-Serif" font-size="10.00"> Configuration::Predicate</text>
<text text-anchor="middle" x="645" y="-122" font-family="Helvetica,sans-Serif" font-size="10.00"> &gt;::registerNew</text>
</a>
</g>
</g>
<!-- Node12&#45;&gt;Node13 -->
<g id="edge13" class="edge"><title>Node12&#45;&gt;Node13</title>
<path fill="none" stroke="midnightblue" d="M533.122,-119.677C545.384,-122.035 558.973,-124.649 572.313,-127.214"/>
<polygon fill="midnightblue" stroke="midnightblue" points="571.96,-130.71 582.441,-129.162 573.282,-123.836 571.96,-130.71"/>
</g>
<!-- Node14 -->
<g id="node13" class="node"><title>Node14</title>
<g id="a_node13"><a xlink:href="classel_1_1_configuration.html#a04755de11422d7570869433ea157b705" target="_top" xlink:title="Set string based configuration value. ">
<polygon fill="white" stroke="black" points="599,-66 599,-96 691,-96 691,-66 599,-66"/>
<text text-anchor="start" x="607" y="-84" font-family="Helvetica,sans-Serif" font-size="10.00">el::Configuration::</text>
<text text-anchor="middle" x="645" y="-73" font-family="Helvetica,sans-Serif" font-size="10.00">setValue</text>
</a>
</g>
</g>
<!-- Node12&#45;&gt;Node14 -->
<g id="edge14" class="edge"><title>Node12&#45;&gt;Node14</title>
<path fill="none" stroke="midnightblue" d="M533.122,-102.323C550.585,-98.9645 570.739,-95.0887 589.035,-91.5702"/>
<polygon fill="midnightblue" stroke="midnightblue" points="589.821,-94.9833 598.98,-89.6577 588.499,-88.1093 589.821,-94.9833"/>
</g>
<!-- Node15 -->
<g id="node14" class="node"><title>Node15</title>
<g id="a_node14"><a xlink:href="classel_1_1_configurations.html#a800efb58724eb771027135b282eae512" target="_top" xlink:title="Sets configurations (Unsafely) for all levels including Level::Global if includeGlobalLevel is true...">
<polygon fill="white" stroke="black" points="594.5,-17 594.5,-47 695.5,-47 695.5,-17 594.5,-17"/>
<text text-anchor="start" x="602.5" y="-35" font-family="Helvetica,sans-Serif" font-size="10.00">el::Configurations</text>
<text text-anchor="middle" x="645" y="-24" font-family="Helvetica,sans-Serif" font-size="10.00">::unsafeSetGlobally</text>
</a>
</g>
</g>
<!-- Node12&#45;&gt;Node15 -->
<g id="edge15" class="edge"><title>Node12&#45;&gt;Node15</title>
<path fill="none" stroke="midnightblue" d="M499.163,-95.7517C514.224,-80.9418 542.255,-60.0217 569,-47 573.994,-44.5687 579.291,-42.3047 584.67,-40.252"/>
<polygon fill="midnightblue" stroke="midnightblue" points="586.143,-43.443 594.392,-36.7951 583.798,-36.8476 586.143,-43.443"/>
</g>
<!-- Node15&#45;&gt;Node12 -->
<g id="edge16" class="edge"><title>Node15&#45;&gt;Node12</title>
<path fill="none" stroke="midnightblue" d="M615.478,-47.116C601.151,-52.0961 583.75,-57.8184 569,-65 554.472,-72.0736 539.564,-81.4778 526.562,-90.0456"/>
<polygon fill="midnightblue" stroke="midnightblue" points="524.286,-87.3557 517.893,-95.8045 528.16,-93.1863 524.286,-87.3557"/>
</g>
<!-- Node16 -->
<g id="node15" class="node"><title>Node16</title>
<g id="a_node15"><a xlink:href="classel_1_1_level_helper.html#a7f0dbfceb2354a72c2802d02c300430d" target="_top" xlink:title="Applies specified function to each level starting from startIndex. ">
<polygon fill="white" stroke="black" points="766,-39 766,-69 885,-69 885,-39 766,-39"/>
<text text-anchor="start" x="774" y="-57" font-family="Helvetica,sans-Serif" font-size="10.00">el::LevelHelper::forEach</text>
<text text-anchor="middle" x="825.5" y="-46" font-family="Helvetica,sans-Serif" font-size="10.00">Level</text>
</a>
</g>
</g>
<!-- Node15&#45;&gt;Node16 -->
<g id="edge17" class="edge"><title>Node15&#45;&gt;Node16</title>
<path fill="none" stroke="midnightblue" d="M695.722,-38.1282C714.343,-40.4232 735.84,-43.0727 755.87,-45.5415"/>
<polygon fill="midnightblue" stroke="midnightblue" points="755.524,-49.0251 765.877,-46.7747 756.38,-42.0777 755.524,-49.0251"/>
</g>
<!-- Node17 -->
<g id="node16" class="node"><title>Node17</title>
<g id="a_node16"><a xlink:href="classel_1_1_level_helper.html#a1279f27df29a003df5ecc3d0bf4dacbb" target="_top" xlink:title="Casts int(ushort) to level, useful for iterating through enum. ">
<polygon fill="white" stroke="black" points="757,-0.5 757,-19.5 894,-19.5 894,-0.5 757,-0.5"/>
<text text-anchor="middle" x="825.5" y="-7.5" font-family="Helvetica,sans-Serif" font-size="10.00">el::LevelHelper::castFromInt</text>
</a>
</g>
</g>
<!-- Node15&#45;&gt;Node17 -->
<g id="edge18" class="edge"><title>Node15&#45;&gt;Node17</title>
<path fill="none" stroke="midnightblue" d="M695.722,-25.8718C711.503,-23.9268 729.35,-21.7272 746.619,-19.5987"/>
<polygon fill="midnightblue" stroke="midnightblue" points="747.204,-23.0533 756.701,-18.3562 746.348,-16.1058 747.204,-23.0533"/>
</g>
</g>
</svg>
        <g id="navigator" transform="translate(0 0)" fill="#404254">
                <rect fill="#f2f5e9" fill-opacity="0.5" stroke="#606060" stroke-width=".5" x="0" y="0" width="60" height="60"/>
                <use id="zoomplus" xlink:href="#zoomPlus" x="17" y="9" onmousedown="handleZoom(evt,'in')"/>
                <use id="zoomminus" xlink:href="#zoomMin" x="42" y="9" onmousedown="handleZoom(evt,'out')"/>
                <use id="reset" xlink:href="#resetDef" x="30" y="36" onmousedown="handleReset()"/>
                <g id="arrowUp" xlink:href="#dirArrow" transform="translate(30 24)" onmousedown="handlePan(0,-1)">
                  <use xlink:href="#rim" fill="#404040">
                        <set attributeName="fill" to="#808080" begin="arrowUp.mouseover" end="arrowUp.mouseout"/>
                  </use>
                  <path fill="none" stroke="white" stroke-width="1.5" d="M0,-3.0v7 M-2.5,-0.5L0,-3.0L2.5,-0.5"/>
                </g>
                <g id="arrowRight" xlink:href="#dirArrow" transform="rotate(90) translate(36 -43)" onmousedown="handlePan(1,0)">
                  <use xlink:href="#rim" fill="#404040">
                        <set attributeName="fill" to="#808080" begin="arrowRight.mouseover" end="arrowRight.mouseout"/>
                  </use>
                  <path fill="none" stroke="white" stroke-width="1.5" d="M0,-3.0v7 M-2.5,-0.5L0,-3.0L2.5,-0.5"/>
                </g>
                <g id="arrowDown" xlink:href="#dirArrow" transform="rotate(180) translate(-30 -48)" onmousedown="handlePan(0,1)">
                  <use xlink:href="#rim" fill="#404040">
                        <set attributeName="fill" to="#808080" begin="arrowDown.mouseover" end="arrowDown.mouseout"/>
                  </use>
                  <path fill="none" stroke="white" stroke-width="1.5" d="M0,-3.0v7 M-2.5,-0.5L0,-3.0L2.5,-0.5"/>
                </g>
                <g id="arrowLeft" xlink:href="#dirArrow" transform="rotate(270) translate(-36 17)" onmousedown="handlePan(-1,0)">
                  <use xlink:href="#rim" fill="#404040">
                        <set attributeName="fill" to="#808080" begin="arrowLeft.mouseover" end="arrowLeft.mouseout"/>
                  </use>
                  <path fill="none" stroke="white" stroke-width="1.5" d="M0,-3.0v7 M-2.5,-0.5L0,-3.0L2.5,-0.5"/>
                </g>
        </g>
        <svg viewBox="0 0 15 15" width="100%" height="30px" preserveAspectRatio="xMaxYMin meet">
         <g id="arrow_out" transform="scale(0.3 0.3)">
          <a xlink:href="classel_1_1_configurations_ae341bd647734d1180a5a138222d2f1ea_cgraph_org.svg" target="_base">
           <rect id="button" ry="5" rx="5" y="6" x="6" height="38" width="38"
                fill="#f2f5e9" fill-opacity="0.5" stroke="#606060" stroke-width="1.0"/>
           <path id="arrow"
             d="M 11.500037,31.436501 C 11.940474,20.09759 22.043105,11.32322 32.158766,21.979434 L 37.068811,17.246167 C 37.068811,17.246167 37.088388,32 37.088388,32 L 22.160133,31.978069 C 22.160133,31.978069 26.997745,27.140456 26.997745,27.140456 C 18.528582,18.264221 13.291696,25.230495 11.500037,31.436501 z"
             style="fill:#404040;"/>
          </a>
         </g>
        </svg>
</svg>
