<?xml version="1.0" encoding="UTF-8" standalone="no"?>
<!DOCTYPE svg PUBLIC "-//W3C//DTD SVG 1.1//EN"
 "http://www.w3.org/Graphics/SVG/1.1/DTD/svg11.dtd">
<!-- Generated by graphviz version 2.38.0 (20140413.2041)
 -->
<!-- Title: el::Configurations::setGlobally Pages: 1 -->
<svg width="435pt" height="137pt"
 viewBox="0.00 0.00 435.00 137.00" xmlns="http://www.w3.org/2000/svg" xmlns:xlink="http://www.w3.org/1999/xlink">
<g id="graph0" class="graph" transform="scale(1 1) rotate(0) translate(4 133)">
<title>el::Configurations::setGlobally</title>
<polygon fill="white" stroke="none" points="-4,4 -4,-133 431,-133 431,4 -4,4"/>
<!-- Node141 -->
<g id="node1" class="node"><title>Node141</title>
<polygon fill="#bfbfbf" stroke="black" points="0,-49.5 0,-79.5 92,-79.5 92,-49.5 0,-49.5"/>
<text text-anchor="start" x="8" y="-67.5" font-family="Helvetica,sans-Serif" font-size="10.00">el::Configurations</text>
<text text-anchor="middle" x="46" y="-56.5" font-family="Helvetica,sans-Serif" font-size="10.00">::setGlobally</text>
</g>
<!-- Node142 -->
<g id="node2" class="node"><title>Node142</title>
<g id="a_node2"><a xlink:href="classel_1_1base_1_1_storage.html#addc88a3c2b5720871d4a9ca954f47aa6" target="_top" xlink:title="el::base::Storage::\lsetApplicationArguments">
<polygon fill="white" stroke="black" points="128,-98.5 128,-128.5 253,-128.5 253,-98.5 128,-98.5"/>
<text text-anchor="start" x="136" y="-116.5" font-family="Helvetica,sans-Serif" font-size="10.00">el::base::Storage::</text>
<text text-anchor="middle" x="190.5" y="-105.5" font-family="Helvetica,sans-Serif" font-size="10.00">setApplicationArguments</text>
</a>
</g>
</g>
<!-- Node141&#45;&gt;Node142 -->
<g id="edge1" class="edge"><title>Node141&#45;&gt;Node142</title>
<path fill="none" stroke="midnightblue" d="M100.48,-82.8896C115.317,-87.9916 131.253,-93.4711 145.482,-98.3641"/>
<polygon fill="midnightblue" stroke="midnightblue" points="101.512,-79.5434 90.9175,-79.6014 99.2359,-86.163 101.512,-79.5434"/>
</g>
<!-- Node143 -->
<g id="node3" class="node"><title>Node143</title>
<g id="a_node3"><a xlink:href="classel_1_1_configurations.html#ab34fa2ed4ac77f47b41e464c2d186239" target="_top" xlink:title="Sets configurations to &quot;factory based&quot; configurations. ">
<polygon fill="white" stroke="black" points="144.5,-49.5 144.5,-79.5 236.5,-79.5 236.5,-49.5 144.5,-49.5"/>
<text text-anchor="start" x="152.5" y="-67.5" font-family="Helvetica,sans-Serif" font-size="10.00">el::Configurations</text>
<text text-anchor="middle" x="190.5" y="-56.5" font-family="Helvetica,sans-Serif" font-size="10.00">::setToDefault</text>
</a>
</g>
</g>
<!-- Node141&#45;&gt;Node143 -->
<g id="edge2" class="edge"><title>Node141&#45;&gt;Node143</title>
<path fill="none" stroke="midnightblue" d="M102.461,-64.5C116.286,-64.5 130.947,-64.5 144.216,-64.5"/>
<polygon fill="midnightblue" stroke="midnightblue" points="102.088,-61.0001 92.0879,-64.5 102.088,-68.0001 102.088,-61.0001"/>
</g>
<!-- Node145 -->
<g id="node5" class="node"><title>Node145</title>
<g id="a_node5"><a xlink:href="classel_1_1base_1_1_storage.html#a4932a8f8a55c3b00467cf2feed6acf59" target="_top" xlink:title="el::base::Storage::\lStorage">
<polygon fill="white" stroke="black" points="142,-0.5 142,-30.5 239,-30.5 239,-0.5 142,-0.5"/>
<text text-anchor="start" x="150" y="-18.5" font-family="Helvetica,sans-Serif" font-size="10.00">el::base::Storage::</text>
<text text-anchor="middle" x="190.5" y="-7.5" font-family="Helvetica,sans-Serif" font-size="10.00">Storage</text>
</a>
</g>
</g>
<!-- Node141&#45;&gt;Node145 -->
<g id="edge4" class="edge"><title>Node141&#45;&gt;Node145</title>
<path fill="none" stroke="midnightblue" d="M100.48,-46.1104C115.317,-41.0084 131.253,-35.5289 145.482,-30.6359"/>
<polygon fill="midnightblue" stroke="midnightblue" points="99.2359,-42.837 90.9175,-49.3986 101.512,-49.4566 99.2359,-42.837"/>
</g>
<!-- Node144 -->
<g id="node4" class="node"><title>Node144</title>
<g id="a_node4"><a xlink:href="classel_1_1base_1_1_registered_loggers.html#ae52ec336770d33fef86f234e4e68dce5" target="_top" xlink:title="el::base::RegisteredLoggers\l::RegisteredLoggers">
<polygon fill="white" stroke="black" points="289,-49.5 289,-79.5 427,-79.5 427,-49.5 289,-49.5"/>
<text text-anchor="start" x="297" y="-67.5" font-family="Helvetica,sans-Serif" font-size="10.00">el::base::RegisteredLoggers</text>
<text text-anchor="middle" x="358" y="-56.5" font-family="Helvetica,sans-Serif" font-size="10.00">::RegisteredLoggers</text>
</a>
</g>
</g>
<!-- Node143&#45;&gt;Node144 -->
<g id="edge3" class="edge"><title>Node143&#45;&gt;Node144</title>
<path fill="none" stroke="midnightblue" d="M246.791,-64.5C260.271,-64.5 274.848,-64.5 288.849,-64.5"/>
<polygon fill="midnightblue" stroke="midnightblue" points="246.724,-61.0001 236.724,-64.5 246.724,-68.0001 246.724,-61.0001"/>
</g>
</g>
</svg>
