<?xml version="1.0" encoding="UTF-8" standalone="no"?>
<!DOCTYPE svg PUBLIC "-//W3C//DTD SVG 1.1//EN"
 "http://www.w3.org/Graphics/SVG/1.1/DTD/svg11.dtd">
<!-- Generated by graphviz version 2.38.0 (20140413.2041)
 -->
<!-- Title: vpr::Buffer::~Buffer Pages: 1 -->
<svg width="383pt" height="28pt"
 viewBox="0.00 0.00 383.00 28.00" xmlns="http://www.w3.org/2000/svg" xmlns:xlink="http://www.w3.org/1999/xlink">
<g id="graph0" class="graph" transform="scale(1 1) rotate(0) translate(4 24)">
<title>vpr::Buffer::~Buffer</title>
<polygon fill="white" stroke="none" points="-4,4 -4,-24 379,-24 379,4 -4,4"/>
<!-- Node4 -->
<g id="node1" class="node"><title>Node4</title>
<polygon fill="#bfbfbf" stroke="black" points="0,-0.5 0,-19.5 96,-19.5 96,-0.5 0,-0.5"/>
<text text-anchor="middle" x="48" y="-7.5" font-family="Helvetica,sans-Serif" font-size="10.00">vpr::Buffer::~Buffer</text>
</g>
<!-- Node5 -->
<g id="node2" class="node"><title>Node5</title>
<g id="a_node2"><a xlink:href="classvpr_1_1_buffer.html#ab832b022c0ae579386133a23844ee5e5" target="_top" xlink:title="Destroys handles belonging to this object and attempts to free/unbind the memory region it used...">
<polygon fill="white" stroke="black" points="132,-0.5 132,-19.5 231,-19.5 231,-0.5 132,-0.5"/>
<text text-anchor="middle" x="181.5" y="-7.5" font-family="Helvetica,sans-Serif" font-size="10.00">vpr::Buffer::Destroy</text>
</a>
</g>
</g>
<!-- Node4&#45;&gt;Node5 -->
<g id="edge1" class="edge"><title>Node4&#45;&gt;Node5</title>
<path fill="none" stroke="midnightblue" d="M96.1031,-10C104.472,-10 113.281,-10 121.922,-10"/>
<polygon fill="midnightblue" stroke="midnightblue" points="121.953,-13.5001 131.953,-10 121.953,-6.5001 121.953,-13.5001"/>
</g>
<!-- Node6 -->
<g id="node3" class="node"><title>Node6</title>
<g id="a_node3"><a xlink:href="classvpr_1_1_device.html#a59882855173bef0b13a17b376ea01d45" target="_top" xlink:title="vpr::Device::vkHandle">
<polygon fill="white" stroke="black" points="267,-0.5 267,-19.5 375,-19.5 375,-0.5 267,-0.5"/>
<text text-anchor="middle" x="321" y="-7.5" font-family="Helvetica,sans-Serif" font-size="10.00">vpr::Device::vkHandle</text>
</a>
</g>
</g>
<!-- Node5&#45;&gt;Node6 -->
<g id="edge2" class="edge"><title>Node5&#45;&gt;Node6</title>
<path fill="none" stroke="midnightblue" d="M231.365,-10C239.486,-10 248.013,-10 256.436,-10"/>
<polygon fill="midnightblue" stroke="midnightblue" points="256.624,-13.5001 266.624,-10 256.624,-6.5001 256.624,-13.5001"/>
</g>
</g>
</svg>
