<?xml version="1.0" encoding="UTF-8" standalone="no"?>
<!DOCTYPE svg PUBLIC "-//W3C//DTD SVG 1.1//EN"
 "http://www.w3.org/Graphics/SVG/1.1/DTD/svg11.dtd">
<!-- Generated by graphviz version 2.38.0 (20140413.2041)
 -->
<!-- Title: el::Logger::resolveLoggerFormatSpec Pages: 1 -->
<svg width="807pt" height="243pt"
 viewBox="0.00 0.00 807.00 243.00" xmlns="http://www.w3.org/2000/svg" xmlns:xlink="http://www.w3.org/1999/xlink">
<g id="graph0" class="graph" transform="scale(1 1) rotate(0) translate(4 239)">
<title>el::Logger::resolveLoggerFormatSpec</title>
<polygon fill="white" stroke="none" points="-4,4 -4,-239 803,-239 803,4 -4,4"/>
<!-- Node196 -->
<g id="node1" class="node"><title>Node196</title>
<polygon fill="#bfbfbf" stroke="black" points="0,-141.5 0,-171.5 125,-171.5 125,-141.5 0,-141.5"/>
<text text-anchor="start" x="8" y="-159.5" font-family="Helvetica,sans-Serif" font-size="10.00">el::Logger::resolveLogger</text>
<text text-anchor="middle" x="62.5" y="-148.5" font-family="Helvetica,sans-Serif" font-size="10.00">FormatSpec</text>
</g>
<!-- Node197 -->
<g id="node2" class="node"><title>Node197</title>
<g id="a_node2"><a xlink:href="classel_1_1_logger.html#ad9db621dbf8977bf814dc7baea8dcee4" target="_top" xlink:title="Configures the logger using specified configurations. ">
<polygon fill="white" stroke="black" points="161,-147 161,-166 265,-166 265,-147 161,-147"/>
<text text-anchor="middle" x="213" y="-154" font-family="Helvetica,sans-Serif" font-size="10.00">el::Logger::configure</text>
</a>
</g>
</g>
<!-- Node196&#45;&gt;Node197 -->
<g id="edge1" class="edge"><title>Node196&#45;&gt;Node197</title>
<path fill="none" stroke="midnightblue" d="M135.214,-156.5C143.797,-156.5 152.424,-156.5 160.638,-156.5"/>
<polygon fill="midnightblue" stroke="midnightblue" points="135.187,-153 125.187,-156.5 135.187,-160 135.187,-153"/>
</g>
<!-- Node198 -->
<g id="node3" class="node"><title>Node198</title>
<g id="a_node3"><a xlink:href="classel_1_1_loggers.html#adedfcc17831fe3d3f14026c91e8df88c" target="_top" xlink:title="Sets configurations from global configuration file. ">
<polygon fill="white" stroke="black" points="301,-204.5 301,-234.5 433,-234.5 433,-204.5 301,-204.5"/>
<text text-anchor="start" x="309" y="-222.5" font-family="Helvetica,sans-Serif" font-size="10.00">el::Loggers::configureFrom</text>
<text text-anchor="middle" x="367" y="-211.5" font-family="Helvetica,sans-Serif" font-size="10.00">Global</text>
</a>
</g>
</g>
<!-- Node197&#45;&gt;Node198 -->
<g id="edge2" class="edge"><title>Node197&#45;&gt;Node198</title>
<path fill="none" stroke="midnightblue" d="M244.571,-170.251C261.186,-177.623 282.136,-186.757 301,-194.5 309.053,-197.806 317.718,-201.229 326.014,-204.443"/>
<polygon fill="midnightblue" stroke="midnightblue" points="245.897,-167.01 235.339,-166.137 243.049,-173.404 245.897,-167.01"/>
</g>
<!-- Node199 -->
<g id="node4" class="node"><title>Node199</title>
<g id="a_node4"><a xlink:href="classel_1_1_logger.html#a43abea8865d7316f05c8a676a8c04896" target="_top" xlink:title="el::Logger::Logger">
<polygon fill="white" stroke="black" points="319.5,-166 319.5,-185 414.5,-185 414.5,-166 319.5,-166"/>
<text text-anchor="middle" x="367" y="-173" font-family="Helvetica,sans-Serif" font-size="10.00">el::Logger::Logger</text>
</a>
</g>
</g>
<!-- Node197&#45;&gt;Node199 -->
<g id="edge3" class="edge"><title>Node197&#45;&gt;Node199</title>
<path fill="none" stroke="midnightblue" d="M275.116,-164.14C289.898,-165.987 305.461,-167.933 319.449,-169.681"/>
<polygon fill="midnightblue" stroke="midnightblue" points="275.394,-160.647 265.037,-162.88 274.525,-167.593 275.394,-160.647"/>
</g>
<!-- Node200 -->
<g id="node5" class="node"><title>Node200</title>
<g id="a_node5"><a xlink:href="classel_1_1_logger.html#adfd57ab27fb398cc980a3edfab92927e" target="_top" xlink:title="Reconfigures logger using existing configurations. ">
<polygon fill="white" stroke="black" points="310.5,-128 310.5,-147 423.5,-147 423.5,-128 310.5,-128"/>
<text text-anchor="middle" x="367" y="-135" font-family="Helvetica,sans-Serif" font-size="10.00">el::Logger::reconfigure</text>
</a>
</g>
</g>
<!-- Node197&#45;&gt;Node200 -->
<g id="edge4" class="edge"><title>Node197&#45;&gt;Node200</title>
<path fill="none" stroke="midnightblue" d="M275.127,-148.859C286.784,-147.402 298.926,-145.884 310.399,-144.45"/>
<polygon fill="midnightblue" stroke="midnightblue" points="274.525,-145.407 265.037,-150.12 275.394,-152.353 274.525,-145.407"/>
</g>
<!-- Node204 -->
<g id="node9" class="node"><title>Node204</title>
<g id="a_node9"><a xlink:href="classel_1_1_loggers.html#a02223004494a404a2c3e7cd0c4380d3b" target="_top" xlink:title="Reconfigures specified logger with new configurations. ">
<polygon fill="white" stroke="black" points="308,-49.5 308,-79.5 426,-79.5 426,-49.5 308,-49.5"/>
<text text-anchor="start" x="316" y="-67.5" font-family="Helvetica,sans-Serif" font-size="10.00">el::Loggers::reconfigure</text>
<text text-anchor="middle" x="367" y="-56.5" font-family="Helvetica,sans-Serif" font-size="10.00">Logger</text>
</a>
</g>
</g>
<!-- Node197&#45;&gt;Node204 -->
<g id="edge8" class="edge"><title>Node197&#45;&gt;Node204</title>
<path fill="none" stroke="midnightblue" d="M238.811,-141.483C266.986,-124.429 312.699,-96.7609 340.966,-79.6521"/>
<polygon fill="midnightblue" stroke="midnightblue" points="236.722,-138.656 229.979,-146.828 240.347,-144.644 236.722,-138.656"/>
</g>
<!-- Node201 -->
<g id="node6" class="node"><title>Node201</title>
<g id="a_node6"><a xlink:href="classel_1_1_loggers.html#a396b601e204ede36f5a9acc76a8c5585" target="_top" xlink:title="Reconfigures single configuration for all the loggers for specified level. ">
<polygon fill="white" stroke="black" points="469,-196.5 469,-226.5 587,-226.5 587,-196.5 469,-196.5"/>
<text text-anchor="start" x="477" y="-214.5" font-family="Helvetica,sans-Serif" font-size="10.00">el::Loggers::reconfigure</text>
<text text-anchor="middle" x="528" y="-203.5" font-family="Helvetica,sans-Serif" font-size="10.00">AllLoggers</text>
</a>
</g>
</g>
<!-- Node200&#45;&gt;Node201 -->
<g id="edge5" class="edge"><title>Node200&#45;&gt;Node201</title>
<path fill="none" stroke="midnightblue" d="M419.782,-150.409C424.357,-152.21 428.829,-154.234 433,-156.5 451.554,-166.579 451.017,-176.434 469,-187.5 474.29,-190.755 480.1,-193.751 485.936,-196.441"/>
<polygon fill="midnightblue" stroke="midnightblue" points="420.906,-147.094 410.312,-147.016 418.546,-153.683 420.906,-147.094"/>
</g>
<!-- Node202 -->
<g id="node7" class="node"><title>Node202</title>
<g id="a_node7"><a xlink:href="classel_1_1_loggers.html#a89ec21259cfcfee3f761fca68c4ec043" target="_top" xlink:title="Reconfigures logger&#39;s single configuration. ">
<polygon fill="white" stroke="black" points="469,-147.5 469,-177.5 587,-177.5 587,-147.5 469,-147.5"/>
<text text-anchor="start" x="477" y="-165.5" font-family="Helvetica,sans-Serif" font-size="10.00">el::Loggers::reconfigure</text>
<text text-anchor="middle" x="528" y="-154.5" font-family="Helvetica,sans-Serif" font-size="10.00">Logger</text>
</a>
</g>
</g>
<!-- Node200&#45;&gt;Node202 -->
<g id="edge6" class="edge"><title>Node200&#45;&gt;Node202</title>
<path fill="none" stroke="midnightblue" d="M433.751,-147.838C445.44,-149.676 457.538,-151.578 468.993,-153.379"/>
<polygon fill="midnightblue" stroke="midnightblue" points="434.033,-144.34 423.61,-146.244 432.945,-151.255 434.033,-144.34"/>
</g>
<!-- Node203 -->
<g id="node8" class="node"><title>Node203</title>
<g id="a_node8"><a xlink:href="classel_1_1base_1_1_storage.html#a4932a8f8a55c3b00467cf2feed6acf59" target="_top" xlink:title="el::base::Storage::\lStorage">
<polygon fill="white" stroke="black" points="479.5,-98.5 479.5,-128.5 576.5,-128.5 576.5,-98.5 479.5,-98.5"/>
<text text-anchor="start" x="487.5" y="-116.5" font-family="Helvetica,sans-Serif" font-size="10.00">el::base::Storage::</text>
<text text-anchor="middle" x="528" y="-105.5" font-family="Helvetica,sans-Serif" font-size="10.00">Storage</text>
</a>
</g>
</g>
<!-- Node200&#45;&gt;Node203 -->
<g id="edge7" class="edge"><title>Node200&#45;&gt;Node203</title>
<path fill="none" stroke="midnightblue" d="M433.563,-127.604C448.903,-125.288 464.958,-122.865 479.345,-120.693"/>
<polygon fill="midnightblue" stroke="midnightblue" points="432.976,-124.153 423.61,-129.106 434.021,-131.074 432.976,-124.153"/>
</g>
<!-- Node205 -->
<g id="node10" class="node"><title>Node205</title>
<g id="a_node10"><a xlink:href="classel_1_1_loggers.html#af3252cc39fa4ac17b4abf50acf6b4c5e" target="_top" xlink:title="Reconfigures logger with new configurations after looking it up using identity. ">
<polygon fill="white" stroke="black" points="469,-49.5 469,-79.5 587,-79.5 587,-49.5 469,-49.5"/>
<text text-anchor="start" x="477" y="-67.5" font-family="Helvetica,sans-Serif" font-size="10.00">el::Loggers::reconfigure</text>
<text text-anchor="middle" x="528" y="-56.5" font-family="Helvetica,sans-Serif" font-size="10.00">Logger</text>
</a>
</g>
</g>
<!-- Node204&#45;&gt;Node205 -->
<g id="edge9" class="edge"><title>Node204&#45;&gt;Node205</title>
<path fill="none" stroke="midnightblue" d="M436.551,-64.5C447.355,-64.5 458.434,-64.5 468.97,-64.5"/>
<polygon fill="midnightblue" stroke="midnightblue" points="436.303,-61.0001 426.303,-64.5 436.303,-68.0001 436.303,-61.0001"/>
</g>
<!-- Node206 -->
<g id="node11" class="node"><title>Node206</title>
<g id="a_node11"><a xlink:href="classel_1_1_loggers.html#a42f99e79d72d391df563df8d09272194" target="_top" xlink:title="Reconfigures all the existing loggers with new configurations. ">
<polygon fill="white" stroke="black" points="469,-0.5 469,-30.5 587,-30.5 587,-0.5 469,-0.5"/>
<text text-anchor="start" x="477" y="-18.5" font-family="Helvetica,sans-Serif" font-size="10.00">el::Loggers::reconfigure</text>
<text text-anchor="middle" x="528" y="-7.5" font-family="Helvetica,sans-Serif" font-size="10.00">AllLoggers</text>
</a>
</g>
</g>
<!-- Node204&#45;&gt;Node206 -->
<g id="edge10" class="edge"><title>Node204&#45;&gt;Node206</title>
<path fill="none" stroke="midnightblue" d="M426.775,-46.3871C443.678,-41.1778 461.926,-35.5543 478.159,-30.5516"/>
<polygon fill="midnightblue" stroke="midnightblue" points="425.528,-43.1086 417.003,-49.3986 427.59,-49.7982 425.528,-43.1086"/>
</g>
<!-- Node207 -->
<g id="node12" class="node"><title>Node207</title>
<g id="a_node12"><a xlink:href="classel_1_1_loggers.html#a3f478b619f82cab39244ed8cde4778e2" target="_top" xlink:title="Sets default configurations. This configuration is used for future (and conditionally for existing) l...">
<polygon fill="white" stroke="black" points="623,-6 623,-25 799,-25 799,-6 623,-6"/>
<text text-anchor="middle" x="711" y="-13" font-family="Helvetica,sans-Serif" font-size="10.00">el::Loggers::setDefaultConfigurations</text>
</a>
</g>
</g>
<!-- Node206&#45;&gt;Node207 -->
<g id="edge11" class="edge"><title>Node206&#45;&gt;Node207</title>
<path fill="none" stroke="midnightblue" d="M597.299,-15.5C605.65,-15.5 614.271,-15.5 622.851,-15.5"/>
<polygon fill="midnightblue" stroke="midnightblue" points="597.266,-12.0001 587.266,-15.5 597.266,-19.0001 597.266,-12.0001"/>
</g>
</g>
</svg>
