<?xml version="1.0" encoding="UTF-8" standalone="no"?>
<!DOCTYPE svg PUBLIC "-//W3C//DTD SVG 1.1//EN"
 "http://www.w3.org/Graphics/SVG/1.1/DTD/svg11.dtd">
<!-- Generated by graphviz version 2.38.0 (20140413.2041)
 -->
<!-- Title: el::Loggable Pages: 1 -->
<svg width="294pt" height="84pt"
 viewBox="0.00 0.00 293.50 84.00" xmlns="http://www.w3.org/2000/svg" xmlns:xlink="http://www.w3.org/1999/xlink">
<g id="graph0" class="graph" transform="scale(1 1) rotate(0) translate(4 80)">
<title>el::Loggable</title>
<polygon fill="white" stroke="none" points="-4,4 -4,-80 289.5,-80 289.5,4 -4,4"/>
<!-- Node0 -->
<g id="node1" class="node"><title>Node0</title>
<polygon fill="#bfbfbf" stroke="black" points="130.5,-56.5 130.5,-75.5 199.5,-75.5 199.5,-56.5 130.5,-56.5"/>
<text text-anchor="middle" x="165" y="-63.5" font-family="Helvetica,sans-Serif" font-size="10.00">el::Loggable</text>
</g>
<!-- Node1 -->
<g id="node2" class="node"><title>Node1</title>
<g id="a_node2"><a xlink:href="classel_1_1base_1_1_log_format.html" target="_top" xlink:title="Represents log format containing flags and date format. This is used internally to start initial log...">
<polygon fill="white" stroke="black" points="0,-0.5 0,-19.5 104,-19.5 104,-0.5 0,-0.5"/>
<text text-anchor="middle" x="52" y="-7.5" font-family="Helvetica,sans-Serif" font-size="10.00">el::base::LogFormat</text>
</a>
</g>
</g>
<!-- Node0&#45;&gt;Node1 -->
<g id="edge1" class="edge"><title>Node0&#45;&gt;Node1</title>
<path fill="none" stroke="midnightblue" d="M137.997,-52.096C116.886,-42.0073 88.1385,-28.2697 69.8214,-19.5164"/>
<polygon fill="midnightblue" stroke="midnightblue" points="136.563,-55.2897 147.095,-56.4435 139.581,-48.9738 136.563,-55.2897"/>
</g>
<!-- Node2 -->
<g id="node3" class="node"><title>Node2</title>
<g id="a_node3"><a xlink:href="classel_1_1_configuration.html" target="_top" xlink:title="Represents single configuration that has representing level, configuration type and a string based va...">
<polygon fill="white" stroke="black" points="122,-0.5 122,-19.5 208,-19.5 208,-0.5 122,-0.5"/>
<text text-anchor="middle" x="165" y="-7.5" font-family="Helvetica,sans-Serif" font-size="10.00">el::Configuration</text>
</a>
</g>
</g>
<!-- Node0&#45;&gt;Node2 -->
<g id="edge2" class="edge"><title>Node0&#45;&gt;Node2</title>
<path fill="none" stroke="midnightblue" d="M165,-45.8045C165,-36.9102 165,-26.7798 165,-19.7511"/>
<polygon fill="midnightblue" stroke="midnightblue" points="161.5,-46.083 165,-56.083 168.5,-46.083 161.5,-46.083"/>
</g>
<!-- Node3 -->
<g id="node4" class="node"><title>Node3</title>
<g id="a_node4"><a xlink:href="classel_1_1_logger.html" target="_top" xlink:title="Represents a logger holding ID and configurations we need to write logs. ">
<polygon fill="white" stroke="black" points="226.5,-0.5 226.5,-19.5 285.5,-19.5 285.5,-0.5 226.5,-0.5"/>
<text text-anchor="middle" x="256" y="-7.5" font-family="Helvetica,sans-Serif" font-size="10.00">el::Logger</text>
</a>
</g>
</g>
<!-- Node0&#45;&gt;Node3 -->
<g id="edge3" class="edge"><title>Node0&#45;&gt;Node3</title>
<path fill="none" stroke="midnightblue" d="M188.294,-51.1774C205.039,-41.2407 227.1,-28.1492 241.416,-19.6545"/>
<polygon fill="midnightblue" stroke="midnightblue" points="186.434,-48.2108 179.621,-56.324 190.007,-54.2307 186.434,-48.2108"/>
</g>
</g>
</svg>
