<?xml version="1.0" encoding="UTF-8" standalone="no"?>
<!DOCTYPE svg PUBLIC "-//W3C//DTD SVG 1.1//EN"
 "http://www.w3.org/Graphics/SVG/1.1/DTD/svg11.dtd">
<!-- Generated by graphviz version 2.38.0 (20140413.2041)
 -->
<!-- Title: vpr::DepthStencil::DepthStencil Pages: 1 -->
<svg width="589pt" height="116pt"
 viewBox="0.00 0.00 589.00 115.50" xmlns="http://www.w3.org/2000/svg" xmlns:xlink="http://www.w3.org/1999/xlink">
<g id="graph0" class="graph" transform="scale(1 1) rotate(0) translate(4 111.5)">
<title>vpr::DepthStencil::DepthStencil</title>
<polygon fill="white" stroke="none" points="-4,4 -4,-111.5 585,-111.5 585,4 -4,4"/>
<!-- Node2 -->
<g id="node1" class="node"><title>Node2</title>
<polygon fill="#bfbfbf" stroke="black" points="0,-44.5 0,-74.5 96,-74.5 96,-44.5 0,-44.5"/>
<text text-anchor="start" x="8" y="-62.5" font-family="Helvetica,sans-Serif" font-size="10.00">vpr::DepthStencil::</text>
<text text-anchor="middle" x="48" y="-51.5" font-family="Helvetica,sans-Serif" font-size="10.00">DepthStencil</text>
</g>
<!-- Node3 -->
<g id="node2" class="node"><title>Node3</title>
<g id="a_node2"><a xlink:href="classvpr_1_1_image.html#aad7662ab3a1496171a826473f9ff98cf" target="_top" xlink:title="vpr::Image::Create">
<polygon fill="white" stroke="black" points="156.5,-88 156.5,-107 251.5,-107 251.5,-88 156.5,-88"/>
<text text-anchor="middle" x="204" y="-95" font-family="Helvetica,sans-Serif" font-size="10.00">vpr::Image::Create</text>
</a>
</g>
</g>
<!-- Node2&#45;&gt;Node3 -->
<g id="edge1" class="edge"><title>Node2&#45;&gt;Node3</title>
<path fill="none" stroke="midnightblue" d="M96.0419,-71.1077C114.562,-75.6775 135.821,-80.9233 154.482,-85.528"/>
<polygon fill="midnightblue" stroke="midnightblue" points="153.713,-88.9432 164.26,-87.9409 155.39,-82.1471 153.713,-88.9432"/>
</g>
<!-- Node5 -->
<g id="node4" class="node"><title>Node5</title>
<g id="a_node4"><a xlink:href="classvpr_1_1_image.html#a9f06292f9e5c640e706783f5dffdbb7d" target="_top" xlink:title="vpr::Image::CreateView">
<polygon fill="white" stroke="black" points="146,-50 146,-69 262,-69 262,-50 146,-50"/>
<text text-anchor="middle" x="204" y="-57" font-family="Helvetica,sans-Serif" font-size="10.00">vpr::Image::CreateView</text>
</a>
</g>
</g>
<!-- Node2&#45;&gt;Node5 -->
<g id="edge3" class="edge"><title>Node2&#45;&gt;Node5</title>
<path fill="none" stroke="midnightblue" d="M96.0419,-59.5C108.589,-59.5 122.392,-59.5 135.794,-59.5"/>
<polygon fill="midnightblue" stroke="midnightblue" points="135.936,-63.0001 145.936,-59.5 135.936,-56.0001 135.936,-63.0001"/>
</g>
<!-- Node7 -->
<g id="node6" class="node"><title>Node7</title>
<g id="a_node6"><a xlink:href="classvpr_1_1_device.html#a4820a276bf1258c8ad6a5718fc7cd6fb" target="_top" xlink:title="! Finds a Vulkan image format suitable for use in the depth buffer ">
<polygon fill="white" stroke="black" points="132,-9 132,-28 276,-28 276,-9 132,-9"/>
<text text-anchor="middle" x="204" y="-16" font-family="Helvetica,sans-Serif" font-size="10.00">vpr::Device::FindDepthFormat</text>
</a>
</g>
</g>
<!-- Node2&#45;&gt;Node7 -->
<g id="edge5" class="edge"><title>Node2&#45;&gt;Node7</title>
<path fill="none" stroke="midnightblue" d="M96.0419,-46.9759C115.476,-41.802 137.926,-35.825 157.225,-30.6869"/>
<polygon fill="midnightblue" stroke="midnightblue" points="158.234,-34.0402 166.997,-28.0852 156.433,-27.2758 158.234,-34.0402"/>
</g>
<!-- Node4 -->
<g id="node3" class="node"><title>Node4</title>
<g id="a_node3"><a xlink:href="classvpr_1_1_image.html#ad5f759d9da1c31461511821a0a74f98a" target="_top" xlink:title="Creates an image using the latter 7 parameters. ">
<polygon fill="white" stroke="black" points="317,-88 317,-107 439,-107 439,-88 317,-88"/>
<text text-anchor="middle" x="378" y="-95" font-family="Helvetica,sans-Serif" font-size="10.00">vpr::Image::CreateImage</text>
</a>
</g>
</g>
<!-- Node3&#45;&gt;Node4 -->
<g id="edge2" class="edge"><title>Node3&#45;&gt;Node4</title>
<path fill="none" stroke="midnightblue" d="M251.546,-97.5C268.502,-97.5 288.072,-97.5 306.635,-97.5"/>
<polygon fill="midnightblue" stroke="midnightblue" points="306.822,-101 316.822,-97.5 306.822,-94.0001 306.822,-101"/>
</g>
<!-- Node6 -->
<g id="node5" class="node"><title>Node6</title>
<g id="a_node5"><a xlink:href="classvpr_1_1_device.html#a59882855173bef0b13a17b376ea01d45" target="_top" xlink:title="vpr::Device::vkHandle">
<polygon fill="white" stroke="black" points="324,-50 324,-69 432,-69 432,-50 324,-50"/>
<text text-anchor="middle" x="378" y="-57" font-family="Helvetica,sans-Serif" font-size="10.00">vpr::Device::vkHandle</text>
</a>
</g>
</g>
<!-- Node5&#45;&gt;Node6 -->
<g id="edge4" class="edge"><title>Node5&#45;&gt;Node6</title>
<path fill="none" stroke="midnightblue" d="M262.274,-59.5C278.702,-59.5 296.71,-59.5 313.49,-59.5"/>
<polygon fill="midnightblue" stroke="midnightblue" points="313.754,-63.0001 323.754,-59.5 313.754,-56.0001 313.754,-63.0001"/>
</g>
<!-- Node8 -->
<g id="node7" class="node"><title>Node8</title>
<g id="a_node7"><a xlink:href="classvpr_1_1_device.html#a2a58028f056c580337c9454195683eae" target="_top" xlink:title="! Checks a collection of possible formats, returning the one that supports the given tiling and featu...">
<polygon fill="white" stroke="black" points="312,-0.5 312,-30.5 444,-30.5 444,-0.5 312,-0.5"/>
<text text-anchor="start" x="320" y="-18.5" font-family="Helvetica,sans-Serif" font-size="10.00">vpr::Device::FindSupported</text>
<text text-anchor="middle" x="378" y="-7.5" font-family="Helvetica,sans-Serif" font-size="10.00">Format</text>
</a>
</g>
</g>
<!-- Node7&#45;&gt;Node8 -->
<g id="edge6" class="edge"><title>Node7&#45;&gt;Node8</title>
<path fill="none" stroke="midnightblue" d="M276.449,-17.2538C284.783,-17.1084 293.304,-16.9598 301.688,-16.8136"/>
<polygon fill="midnightblue" stroke="midnightblue" points="301.886,-20.3108 311.824,-16.6368 301.764,-13.3118 301.886,-20.3108"/>
</g>
<!-- Node9 -->
<g id="node8" class="node"><title>Node9</title>
<g id="a_node8"><a xlink:href="classvpr_1_1_physical_device.html#a00de7d3556d98b1cfda28d1f769f8fa8" target="_top" xlink:title="vpr::PhysicalDevice\l::vkHandle">
<polygon fill="white" stroke="black" points="480,-0.5 480,-30.5 581,-30.5 581,-0.5 480,-0.5"/>
<text text-anchor="start" x="488" y="-18.5" font-family="Helvetica,sans-Serif" font-size="10.00">vpr::PhysicalDevice</text>
<text text-anchor="middle" x="530.5" y="-7.5" font-family="Helvetica,sans-Serif" font-size="10.00">::vkHandle</text>
</a>
</g>
</g>
<!-- Node8&#45;&gt;Node9 -->
<g id="edge7" class="edge"><title>Node8&#45;&gt;Node9</title>
<path fill="none" stroke="midnightblue" d="M444.136,-15.5C452.608,-15.5 461.254,-15.5 469.634,-15.5"/>
<polygon fill="midnightblue" stroke="midnightblue" points="469.694,-19.0001 479.694,-15.5 469.694,-12.0001 469.694,-19.0001"/>
</g>
</g>
</svg>
