<?xml version="1.0" encoding="UTF-8" standalone="no"?>
<!DOCTYPE svg PUBLIC "-//W3C//DTD SVG 1.1//EN"
 "http://www.w3.org/Graphics/SVG/1.1/DTD/svg11.dtd">
<!-- Generated by graphviz version 2.38.0 (20140413.2041)
 -->
<!-- Title: el::Configuration::setValue Pages: 1 -->
<svg width="684pt" height="159pt"
 viewBox="0.00 0.00 684.00 159.00" xmlns="http://www.w3.org/2000/svg" xmlns:xlink="http://www.w3.org/1999/xlink">
<g id="graph0" class="graph" transform="scale(1 1) rotate(0) translate(4 155)">
<title>el::Configuration::setValue</title>
<polygon fill="white" stroke="none" points="-4,4 -4,-155 680,-155 680,4 -4,4"/>
<!-- Node23 -->
<g id="node1" class="node"><title>Node23</title>
<polygon fill="#bfbfbf" stroke="black" points="0,-49.5 0,-79.5 92,-79.5 92,-49.5 0,-49.5"/>
<text text-anchor="start" x="8" y="-67.5" font-family="Helvetica,sans-Serif" font-size="10.00">el::Configuration::</text>
<text text-anchor="middle" x="46" y="-56.5" font-family="Helvetica,sans-Serif" font-size="10.00">setValue</text>
</g>
<!-- Node24 -->
<g id="node2" class="node"><title>Node24</title>
<g id="a_node2"><a xlink:href="classel_1_1_configurations.html#a05c373510ca513e4f61999c84d512831" target="_top" xlink:title="Thread unsafe set. ">
<polygon fill="white" stroke="black" points="128,-49.5 128,-79.5 220,-79.5 220,-49.5 128,-49.5"/>
<text text-anchor="start" x="136" y="-67.5" font-family="Helvetica,sans-Serif" font-size="10.00">el::Configurations</text>
<text text-anchor="middle" x="174" y="-56.5" font-family="Helvetica,sans-Serif" font-size="10.00">::unsafeSet</text>
</a>
</g>
</g>
<!-- Node23&#45;&gt;Node24 -->
<g id="edge1" class="edge"><title>Node23&#45;&gt;Node24</title>
<path fill="none" stroke="midnightblue" d="M102.353,-64.5C110.844,-64.5 119.522,-64.5 127.759,-64.5"/>
<polygon fill="midnightblue" stroke="midnightblue" points="102.133,-61.0001 92.133,-64.5 102.133,-68.0001 102.133,-61.0001"/>
</g>
<!-- Node25 -->
<g id="node3" class="node"><title>Node25</title>
<g id="a_node3"><a xlink:href="classel_1_1_configurations.html#a332717de96efc851a202b7afcc5e395c" target="_top" xlink:title="Sets value of configuration for specified level. ">
<polygon fill="white" stroke="black" points="405.5,-77 405.5,-96 516.5,-96 516.5,-77 405.5,-77"/>
<text text-anchor="middle" x="461" y="-84" font-family="Helvetica,sans-Serif" font-size="10.00">el::Configurations::set</text>
</a>
</g>
</g>
<!-- Node24&#45;&gt;Node25 -->
<g id="edge2" class="edge"><title>Node24&#45;&gt;Node25</title>
<path fill="none" stroke="midnightblue" d="M225.119,-82.5129C235.217,-85.4167 245.85,-87.9692 256,-89.5 306.085,-97.0534 363.869,-95.2321 405.123,-92.1526"/>
<polygon fill="midnightblue" stroke="midnightblue" points="225.822,-79.0688 215.237,-79.5168 223.791,-85.7677 225.822,-79.0688"/>
</g>
<!-- Node29 -->
<g id="node7" class="node"><title>Node29</title>
<g id="a_node7"><a xlink:href="classel_1_1_configurations.html#a84c06d47e550b5eda3060f399698ec28" target="_top" xlink:title="Unsafely sets configuration if does not already exist. ">
<polygon fill="white" stroke="black" points="256,-0.5 256,-30.5 364,-30.5 364,-0.5 256,-0.5"/>
<text text-anchor="start" x="264" y="-18.5" font-family="Helvetica,sans-Serif" font-size="10.00">el::Configurations</text>
<text text-anchor="middle" x="310" y="-7.5" font-family="Helvetica,sans-Serif" font-size="10.00">::unsafeSetIfNotExist</text>
</a>
</g>
</g>
<!-- Node24&#45;&gt;Node29 -->
<g id="edge6" class="edge"><title>Node24&#45;&gt;Node29</title>
<path fill="none" stroke="midnightblue" d="M226.088,-45.8184C239.812,-40.7999 254.482,-35.4357 267.608,-30.6359"/>
<polygon fill="midnightblue" stroke="midnightblue" points="224.488,-42.6771 216.298,-49.3986 226.892,-49.2513 224.488,-42.6771"/>
</g>
<!-- Node32 -->
<g id="node9" class="node"><title>Node32</title>
<g id="a_node9"><a xlink:href="classel_1_1_configurations.html#a800efb58724eb771027135b282eae512" target="_top" xlink:title="Sets configurations (Unsafely) for all levels including Level::Global if includeGlobalLevel is true...">
<polygon fill="white" stroke="black" points="259.5,-49.5 259.5,-79.5 360.5,-79.5 360.5,-49.5 259.5,-49.5"/>
<text text-anchor="start" x="267.5" y="-67.5" font-family="Helvetica,sans-Serif" font-size="10.00">el::Configurations</text>
<text text-anchor="middle" x="310" y="-56.5" font-family="Helvetica,sans-Serif" font-size="10.00">::unsafeSetGlobally</text>
</a>
</g>
</g>
<!-- Node24&#45;&gt;Node32 -->
<g id="edge8" class="edge"><title>Node24&#45;&gt;Node32</title>
<path fill="none" stroke="midnightblue" d="M230.488,-57.8394C239.965,-57.6909 249.758,-57.7274 259.08,-57.9488"/>
<polygon fill="midnightblue" stroke="midnightblue" points="230.283,-54.3431 220.366,-58.073 230.444,-61.3412 230.283,-54.3431"/>
</g>
<!-- Node26 -->
<g id="node4" class="node"><title>Node26</title>
<g id="a_node4"><a xlink:href="classel_1_1_configurations_1_1_parser.html#a70e0d8b27e7c1b5dd94e6838c304a751" target="_top" xlink:title="el::Configurations\l::Parser::parseLine">
<polygon fill="white" stroke="black" points="567.5,-120.5 567.5,-150.5 666.5,-150.5 666.5,-120.5 567.5,-120.5"/>
<text text-anchor="start" x="575.5" y="-138.5" font-family="Helvetica,sans-Serif" font-size="10.00">el::Configurations</text>
<text text-anchor="middle" x="617" y="-127.5" font-family="Helvetica,sans-Serif" font-size="10.00">::Parser::parseLine</text>
</a>
</g>
</g>
<!-- Node25&#45;&gt;Node26 -->
<g id="edge3" class="edge"><title>Node25&#45;&gt;Node26</title>
<path fill="none" stroke="midnightblue" d="M501.698,-99.1313C522.169,-105.645 547.276,-113.633 568.741,-120.463"/>
<polygon fill="midnightblue" stroke="midnightblue" points="502.649,-95.7609 492.058,-96.064 500.526,-102.431 502.649,-95.7609"/>
</g>
<!-- Node27 -->
<g id="node5" class="node"><title>Node27</title>
<g id="a_node5"><a xlink:href="classel_1_1_loggers.html#a89ec21259cfcfee3f761fca68c4ec043" target="_top" xlink:title="Reconfigures logger&#39;s single configuration. ">
<polygon fill="white" stroke="black" points="558,-71.5 558,-101.5 676,-101.5 676,-71.5 558,-71.5"/>
<text text-anchor="start" x="566" y="-89.5" font-family="Helvetica,sans-Serif" font-size="10.00">el::Loggers::reconfigure</text>
<text text-anchor="middle" x="617" y="-78.5" font-family="Helvetica,sans-Serif" font-size="10.00">Logger</text>
</a>
</g>
</g>
<!-- Node25&#45;&gt;Node27 -->
<g id="edge4" class="edge"><title>Node25&#45;&gt;Node27</title>
<path fill="none" stroke="midnightblue" d="M526.868,-86.5C537.134,-86.5 547.695,-86.5 557.796,-86.5"/>
<polygon fill="midnightblue" stroke="midnightblue" points="526.728,-83.0001 516.728,-86.5 526.728,-90.0001 526.728,-83.0001"/>
</g>
<!-- Node28 -->
<g id="node6" class="node"><title>Node28</title>
<g id="a_node6"><a xlink:href="classel_1_1_loggers.html#a396b601e204ede36f5a9acc76a8c5585" target="_top" xlink:title="Reconfigures single configuration for all the loggers for specified level. ">
<polygon fill="white" stroke="black" points="558,-22.5 558,-52.5 676,-52.5 676,-22.5 558,-22.5"/>
<text text-anchor="start" x="566" y="-40.5" font-family="Helvetica,sans-Serif" font-size="10.00">el::Loggers::reconfigure</text>
<text text-anchor="middle" x="617" y="-29.5" font-family="Helvetica,sans-Serif" font-size="10.00">AllLoggers</text>
</a>
</g>
</g>
<!-- Node25&#45;&gt;Node28 -->
<g id="edge5" class="edge"><title>Node25&#45;&gt;Node28</title>
<path fill="none" stroke="midnightblue" d="M501.698,-73.8687C522.169,-67.3554 547.276,-59.3666 568.741,-52.537"/>
<polygon fill="midnightblue" stroke="midnightblue" points="500.526,-70.5686 492.058,-76.936 502.649,-77.2391 500.526,-70.5686"/>
</g>
<!-- Node30 -->
<g id="node8" class="node"><title>Node30</title>
<g id="a_node8"><a xlink:href="classel_1_1_configurations.html#ad89b7d2dd750e4d1b3deff800e278fdb" target="_top" xlink:title="Lets you set the remaining configurations to default. ">
<polygon fill="white" stroke="red" points="400,-0.5 400,-30.5 522,-30.5 522,-0.5 400,-0.5"/>
<text text-anchor="start" x="408" y="-18.5" font-family="Helvetica,sans-Serif" font-size="10.00">el::Configurations</text>
<text text-anchor="middle" x="461" y="-7.5" font-family="Helvetica,sans-Serif" font-size="10.00">::setRemainingToDefault</text>
</a>
</g>
</g>
<!-- Node29&#45;&gt;Node30 -->
<g id="edge7" class="edge"><title>Node29&#45;&gt;Node30</title>
<path fill="none" stroke="midnightblue" d="M374.519,-15.5C382.941,-15.5 391.553,-15.5 399.914,-15.5"/>
<polygon fill="midnightblue" stroke="midnightblue" points="374.372,-12.0001 364.372,-15.5 374.372,-19.0001 374.372,-12.0001"/>
</g>
<!-- Node32&#45;&gt;Node24 -->
<g id="edge10" class="edge"><title>Node32&#45;&gt;Node24</title>
<path fill="none" stroke="midnightblue" d="M248.817,-71.2188C239.257,-71.3065 229.511,-71.2092 220.366,-70.927"/>
<polygon fill="midnightblue" stroke="midnightblue" points="249.138,-74.7142 259.08,-71.0512 249.024,-67.7151 249.138,-74.7142"/>
</g>
<!-- Node32&#45;&gt;Node25 -->
<g id="edge9" class="edge"><title>Node32&#45;&gt;Node25</title>
<path fill="none" stroke="midnightblue" d="M370.583,-73.2975C382.105,-74.9987 394.123,-76.7731 405.473,-78.449"/>
<polygon fill="midnightblue" stroke="midnightblue" points="371.019,-69.824 360.615,-71.8257 369.996,-76.7489 371.019,-69.824"/>
</g>
</g>
</svg>
