<?xml version="1.0" encoding="UTF-8" standalone="no"?>
<!DOCTYPE svg PUBLIC "-//W3C//DTD SVG 1.1//EN"
 "http://www.w3.org/Graphics/SVG/1.1/DTD/svg11.dtd">
<!-- Generated by graphviz version 2.38.0 (20140413.2041)
 -->
<!-- Title: el::base::TypedConfigurations::getULong Pages: 1 -->
<svg width="283pt" height="88pt"
 viewBox="0.00 0.00 283.00 88.00" xmlns="http://www.w3.org/2000/svg" xmlns:xlink="http://www.w3.org/1999/xlink">
<g id="graph0" class="graph" transform="scale(1 1) rotate(0) translate(4 84)">
<title>el::base::TypedConfigurations::getULong</title>
<polygon fill="white" stroke="none" points="-4,4 -4,-84 279,-84 279,4 -4,4"/>
<!-- Node47 -->
<g id="node1" class="node"><title>Node47</title>
<polygon fill="#bfbfbf" stroke="black" points="0,-24.5 0,-54.5 145,-54.5 145,-24.5 0,-24.5"/>
<text text-anchor="start" x="8" y="-42.5" font-family="Helvetica,sans-Serif" font-size="10.00">el::base::TypedConfigurations</text>
<text text-anchor="middle" x="72.5" y="-31.5" font-family="Helvetica,sans-Serif" font-size="10.00">::getULong</text>
</g>
<!-- Node48 -->
<g id="node2" class="node"><title>Node48</title>
<g id="a_node2"><a xlink:href="classel_1_1base_1_1utils_1_1_str.html#a4caae91dfe0310d9f182bd9b7e99103c" target="_top" xlink:title="Checks if character is digit. Dont use libc implementation of it to prevent locale issues...">
<polygon fill="white" stroke="black" points="181,-49.5 181,-79.5 275,-79.5 275,-49.5 181,-49.5"/>
<text text-anchor="start" x="189" y="-67.5" font-family="Helvetica,sans-Serif" font-size="10.00">el::base::utils::Str</text>
<text text-anchor="middle" x="228" y="-56.5" font-family="Helvetica,sans-Serif" font-size="10.00">::isDigit</text>
</a>
</g>
</g>
<!-- Node47&#45;&gt;Node48 -->
<g id="edge1" class="edge"><title>Node47&#45;&gt;Node48</title>
<path fill="none" stroke="midnightblue" d="M145.306,-51.1948C153.849,-52.5862 162.474,-53.9909 170.755,-55.3396"/>
<polygon fill="midnightblue" stroke="midnightblue" points="170.224,-58.7992 180.657,-56.9523 171.35,-51.8902 170.224,-58.7992"/>
</g>
<!-- Node49 -->
<g id="node3" class="node"><title>Node49</title>
<g id="a_node3"><a xlink:href="classel_1_1base_1_1utils_1_1_str.html#a2f1d427fb0893861961dee5c79d05e10" target="_top" xlink:title="el::base::utils::Str\l::trim">
<polygon fill="white" stroke="black" points="181,-0.5 181,-30.5 275,-30.5 275,-0.5 181,-0.5"/>
<text text-anchor="start" x="189" y="-18.5" font-family="Helvetica,sans-Serif" font-size="10.00">el::base::utils::Str</text>
<text text-anchor="middle" x="228" y="-7.5" font-family="Helvetica,sans-Serif" font-size="10.00">::trim</text>
</a>
</g>
</g>
<!-- Node47&#45;&gt;Node49 -->
<g id="edge2" class="edge"><title>Node47&#45;&gt;Node49</title>
<path fill="none" stroke="midnightblue" d="M145.306,-28.273C153.849,-26.9373 162.474,-25.5888 170.755,-24.294"/>
<polygon fill="midnightblue" stroke="midnightblue" points="171.318,-27.7486 180.657,-22.7458 170.236,-20.8327 171.318,-27.7486"/>
</g>
</g>
</svg>
