<?xml version="1.0" encoding="UTF-8" standalone="no"?>
<!DOCTYPE svg PUBLIC "-//W3C//DTD SVG 1.1//EN"
 "http://www.w3.org/Graphics/SVG/1.1/DTD/svg11.dtd">
<!-- Generated by graphviz version 2.38.0 (20140413.2041)
 -->
<!-- Title: vpr::Allocation::InitPrivate Pages: 1 -->
<svg width="901pt" height="88pt"
 viewBox="0.00 0.00 901.00 88.00" xmlns="http://www.w3.org/2000/svg" xmlns:xlink="http://www.w3.org/1999/xlink">
<g id="graph0" class="graph" transform="scale(1 1) rotate(0) translate(4 84)">
<title>vpr::Allocation::InitPrivate</title>
<polygon fill="white" stroke="none" points="-4,4 -4,-84 897,-84 897,4 -4,4"/>
<!-- Node19 -->
<g id="node1" class="node"><title>Node19</title>
<polygon fill="#bfbfbf" stroke="black" points="0,-30 0,-49 125,-49 125,-30 0,-30"/>
<text text-anchor="middle" x="62.5" y="-37" font-family="Helvetica,sans-Serif" font-size="10.00">vpr::Allocation::InitPrivate</text>
</g>
<!-- Node20 -->
<g id="node2" class="node"><title>Node20</title>
<g id="a_node2"><a xlink:href="classvpr_1_1_allocator.html#ad4d7daf9b55d81a4fab0cb4a657d6508" target="_top" xlink:title="vpr::Allocator::allocate\lPrivateMemory">
<polygon fill="white" stroke="black" points="161,-24.5 161,-54.5 274,-54.5 274,-24.5 161,-24.5"/>
<text text-anchor="start" x="169" y="-42.5" font-family="Helvetica,sans-Serif" font-size="10.00">vpr::Allocator::allocate</text>
<text text-anchor="middle" x="217.5" y="-31.5" font-family="Helvetica,sans-Serif" font-size="10.00">PrivateMemory</text>
</a>
</g>
</g>
<!-- Node19&#45;&gt;Node20 -->
<g id="edge1" class="edge"><title>Node19&#45;&gt;Node20</title>
<path fill="none" stroke="midnightblue" d="M135.315,-39.5C143.909,-39.5 152.581,-39.5 160.897,-39.5"/>
<polygon fill="midnightblue" stroke="midnightblue" points="135.29,-36.0001 125.29,-39.5 135.29,-43.0001 135.29,-36.0001"/>
</g>
<!-- Node21 -->
<g id="node3" class="node"><title>Node21</title>
<g id="a_node3"><a xlink:href="classvpr_1_1_allocator.html#a40618202c2c86027ee1915cadbc18afd" target="_top" xlink:title="vpr::Allocator::allocate\lMemoryType">
<polygon fill="white" stroke="black" points="310,-24.5 310,-54.5 423,-54.5 423,-24.5 310,-24.5"/>
<text text-anchor="start" x="318" y="-42.5" font-family="Helvetica,sans-Serif" font-size="10.00">vpr::Allocator::allocate</text>
<text text-anchor="middle" x="366.5" y="-31.5" font-family="Helvetica,sans-Serif" font-size="10.00">MemoryType</text>
</a>
</g>
</g>
<!-- Node20&#45;&gt;Node21 -->
<g id="edge2" class="edge"><title>Node20&#45;&gt;Node21</title>
<path fill="none" stroke="midnightblue" d="M284.078,-39.5C292.681,-39.5 301.43,-39.5 309.847,-39.5"/>
<polygon fill="midnightblue" stroke="midnightblue" points="284.074,-36.0001 274.074,-39.5 284.074,-43.0001 284.074,-36.0001"/>
</g>
<!-- Node22 -->
<g id="node4" class="node"><title>Node22</title>
<g id="a_node4"><a xlink:href="classvpr_1_1_allocator.html#a1d36e3567e4fd7ef8bf1395942f6c714" target="_top" xlink:title="vpr::Allocator::Allocate\lMemory">
<polygon fill="white" stroke="black" points="459,-24.5 459,-54.5 573,-54.5 573,-24.5 459,-24.5"/>
<text text-anchor="start" x="467" y="-42.5" font-family="Helvetica,sans-Serif" font-size="10.00">vpr::Allocator::Allocate</text>
<text text-anchor="middle" x="516" y="-31.5" font-family="Helvetica,sans-Serif" font-size="10.00">Memory</text>
</a>
</g>
</g>
<!-- Node21&#45;&gt;Node22 -->
<g id="edge3" class="edge"><title>Node21&#45;&gt;Node22</title>
<path fill="none" stroke="midnightblue" d="M433.437,-39.5C441.859,-39.5 450.417,-39.5 458.668,-39.5"/>
<polygon fill="midnightblue" stroke="midnightblue" points="433.263,-36.0001 423.263,-39.5 433.263,-43.0001 433.263,-36.0001"/>
</g>
<!-- Node23 -->
<g id="node5" class="node"><title>Node23</title>
<g id="a_node5"><a xlink:href="classvpr_1_1_allocator.html#a79b5ace2d3d620783793593c99d50d4e" target="_top" xlink:title="vpr::Allocator::Allocate\lForImage">
<polygon fill="white" stroke="black" points="609,-49.5 609,-79.5 723,-79.5 723,-49.5 609,-49.5"/>
<text text-anchor="start" x="617" y="-67.5" font-family="Helvetica,sans-Serif" font-size="10.00">vpr::Allocator::Allocate</text>
<text text-anchor="middle" x="666" y="-56.5" font-family="Helvetica,sans-Serif" font-size="10.00">ForImage</text>
</a>
</g>
</g>
<!-- Node22&#45;&gt;Node23 -->
<g id="edge4" class="edge"><title>Node22&#45;&gt;Node23</title>
<path fill="none" stroke="midnightblue" d="M583.28,-50.696C591.796,-52.1344 600.449,-53.5961 608.782,-55.0037"/>
<polygon fill="midnightblue" stroke="midnightblue" points="583.818,-47.2373 573.375,-49.0227 582.652,-54.1395 583.818,-47.2373"/>
</g>
<!-- Node25 -->
<g id="node7" class="node"><title>Node25</title>
<g id="a_node7"><a xlink:href="classvpr_1_1_allocator.html#aa8aad8539721142d8dfa92a3196ab90b" target="_top" xlink:title="vpr::Allocator::Allocate\lForBuffer">
<polygon fill="white" stroke="black" points="609,-0.5 609,-30.5 723,-30.5 723,-0.5 609,-0.5"/>
<text text-anchor="start" x="617" y="-18.5" font-family="Helvetica,sans-Serif" font-size="10.00">vpr::Allocator::Allocate</text>
<text text-anchor="middle" x="666" y="-7.5" font-family="Helvetica,sans-Serif" font-size="10.00">ForBuffer</text>
</a>
</g>
</g>
<!-- Node22&#45;&gt;Node25 -->
<g id="edge6" class="edge"><title>Node22&#45;&gt;Node25</title>
<path fill="none" stroke="midnightblue" d="M583.28,-28.7519C591.796,-27.371 600.449,-25.9678 608.782,-24.6164"/>
<polygon fill="midnightblue" stroke="midnightblue" points="582.685,-25.3025 573.375,-30.3582 583.806,-32.2122 582.685,-25.3025"/>
</g>
<!-- Node24 -->
<g id="node6" class="node"><title>Node24</title>
<g id="a_node6"><a xlink:href="classvpr_1_1_allocator.html#a2fe7722a4b3f19bd7705a80be50171bb" target="_top" xlink:title="vpr::Allocator::CreateImage">
<polygon fill="white" stroke="black" points="759,-55 759,-74 893,-74 893,-55 759,-55"/>
<text text-anchor="middle" x="826" y="-62" font-family="Helvetica,sans-Serif" font-size="10.00">vpr::Allocator::CreateImage</text>
</a>
</g>
</g>
<!-- Node23&#45;&gt;Node24 -->
<g id="edge5" class="edge"><title>Node23&#45;&gt;Node24</title>
<path fill="none" stroke="midnightblue" d="M733.301,-64.5C741.725,-64.5 750.347,-64.5 758.77,-64.5"/>
<polygon fill="midnightblue" stroke="midnightblue" points="733.15,-61.0001 723.15,-64.5 733.15,-68.0001 733.15,-61.0001"/>
</g>
<!-- Node26 -->
<g id="node8" class="node"><title>Node26</title>
<g id="a_node8"><a xlink:href="classvpr_1_1_allocator.html#a98ce3e7a210998e2e6723079ae2bb8ff" target="_top" xlink:title="vpr::Allocator::CreateBuffer">
<polygon fill="white" stroke="black" points="760,-6 760,-25 892,-25 892,-6 760,-6"/>
<text text-anchor="middle" x="826" y="-13" font-family="Helvetica,sans-Serif" font-size="10.00">vpr::Allocator::CreateBuffer</text>
</a>
</g>
</g>
<!-- Node25&#45;&gt;Node26 -->
<g id="edge7" class="edge"><title>Node25&#45;&gt;Node26</title>
<path fill="none" stroke="midnightblue" d="M733.331,-15.5C742.11,-15.5 751.103,-15.5 759.862,-15.5"/>
<polygon fill="midnightblue" stroke="midnightblue" points="733.15,-12.0001 723.15,-15.5 733.15,-19.0001 733.15,-12.0001"/>
</g>
</g>
</svg>
