<?xml version="1.0" encoding="UTF-8" standalone="no"?>
<!DOCTYPE svg PUBLIC "-//W3C//DTD SVG 1.1//EN"
 "http://www.w3.org/Graphics/SVG/1.1/DTD/svg11.dtd">
<!-- Generated by graphviz version 2.38.0 (20140413.2041)
 -->
<!-- Title: el::base::TypedConfigurations::logFormat Pages: 1 -->
<!--zoomable 243 -->
<svg id="main" version="1.1" xmlns="http://www.w3.org/2000/svg" xmlns:xlink="http://www.w3.org/1999/xlink" xml:space="preserve" onload="init(evt)">
<style type="text/css"><![CDATA[
.edge:hover path { stroke: red; }
.edge:hover polygon { stroke: red; fill: red; }
]]></style>
<script type="text/javascript"><![CDATA[
var edges = document.getElementsByTagName('g');
if (edges && edges.length) {
  for (var i=0;i<edges.length;i++) {
    if (edges[i].id.substr(0,4)=='edge') {
      edges[i].setAttribute('class','edge');
    }
  }
}
]]></script>
        <defs>
                <circle id="rim" cx="0" cy="0" r="7"/>
                <circle id="rim2" cx="0" cy="0" r="3.5"/>
                <g id="zoomPlus">
                        <use xlink:href="#rim" fill="#404040">
                                <set attributeName="fill" to="#808080" begin="zoomplus.mouseover" end="zoomplus.mouseout"/>
                        </use>
                        <path d="M-4,0h8M0,-4v8" fill="none" stroke="white" stroke-width="1.5" pointer-events="none"/>
                </g>
                <g id="zoomMin">
                        <use xlink:href="#rim" fill="#404040">
                                <set attributeName="fill" to="#808080" begin="zoomminus.mouseover" end="zoomminus.mouseout"/>
                        </use>
                        <path d="M-4,0h8" fill="none" stroke="white" stroke-width="1.5" pointer-events="none"/>
                </g>
                <g id="dirArrow">
                        <path fill="none" stroke="white" stroke-width="1.5" d="M0,-3.0v7 M-2.5,-0.5L0,-3.0L2.5,-0.5"/>
                </g>
               <g id="resetDef">
                       <use xlink:href="#rim2" fill="#404040">
                               <set attributeName="fill" to="#808080" begin="reset.mouseover" end="reset.mouseout"/>
                       </use>
               </g>
        </defs>

<script type="text/javascript">
var viewWidth = 996;
var viewHeight = 243;
var sectionId = 'dynsection-15';
</script>
<script xlink:href="svgpan.js"/>
<svg id="graph" class="graph">
<g id="viewport">
<title>el::base::TypedConfigurations::logFormat</title>
<polygon fill="white" stroke="none" points="-4,4 -4,-239 992,-239 992,4 -4,4"/>
<!-- Node99 -->
<g id="node1" class="node"><title>Node99</title>
<polygon fill="#bfbfbf" stroke="black" points="0,-165.5 0,-195.5 145,-195.5 145,-165.5 0,-165.5"/>
<text text-anchor="start" x="8" y="-183.5" font-family="Helvetica,sans-Serif" font-size="10.00">el::base::TypedConfigurations</text>
<text text-anchor="middle" x="72.5" y="-172.5" font-family="Helvetica,sans-Serif" font-size="10.00">::logFormat</text>
</g>
<!-- Node100 -->
<g id="node2" class="node"><title>Node100</title>
<g id="a_node2"><a xlink:href="classel_1_1base_1_1_default_log_builder.html#a9ee7983bc51f1fac887806e909ecbbbd" target="_top" xlink:title="el::base::DefaultLogBuilder\l::build">
<polygon fill="white" stroke="black" points="181,-190.5 181,-220.5 314,-220.5 314,-190.5 181,-190.5"/>
<text text-anchor="start" x="189" y="-208.5" font-family="Helvetica,sans-Serif" font-size="10.00">el::base::DefaultLogBuilder</text>
<text text-anchor="middle" x="247.5" y="-197.5" font-family="Helvetica,sans-Serif" font-size="10.00">::build</text>
</a>
</g>
</g>
<!-- Node99&#45;&gt;Node100 -->
<g id="edge1" class="edge"><title>Node99&#45;&gt;Node100</title>
<path fill="none" stroke="midnightblue" d="M155.145,-192.298C163.733,-193.539 172.384,-194.79 180.759,-196"/>
<polygon fill="midnightblue" stroke="midnightblue" points="155.512,-188.815 145.115,-190.849 154.511,-195.743 155.512,-188.815"/>
</g>
<!-- Node101 -->
<g id="node3" class="node"><title>Node101</title>
<g id="a_node3"><a xlink:href="classel_1_1_logger.html#acfb9ef869b9b4dc3efd78d7f64b8bebd" target="_top" xlink:title="el::Logger::resolveLogger\lFormatSpec">
<polygon fill="white" stroke="black" points="185,-141.5 185,-171.5 310,-171.5 310,-141.5 185,-141.5"/>
<text text-anchor="start" x="193" y="-159.5" font-family="Helvetica,sans-Serif" font-size="10.00">el::Logger::resolveLogger</text>
<text text-anchor="middle" x="247.5" y="-148.5" font-family="Helvetica,sans-Serif" font-size="10.00">FormatSpec</text>
</a>
</g>
</g>
<!-- Node99&#45;&gt;Node101 -->
<g id="edge2" class="edge"><title>Node99&#45;&gt;Node101</title>
<path fill="none" stroke="midnightblue" d="M155.084,-169.182C165.102,-167.792 175.209,-166.39 184.864,-165.051"/>
<polygon fill="midnightblue" stroke="midnightblue" points="154.539,-165.724 145.115,-170.565 155.501,-172.658 154.539,-165.724"/>
</g>
<!-- Node102 -->
<g id="node4" class="node"><title>Node102</title>
<g id="a_node4"><a xlink:href="classel_1_1_logger.html#ad9db621dbf8977bf814dc7baea8dcee4" target="_top" xlink:title="Configures the logger using specified configurations. ">
<polygon fill="white" stroke="black" points="350,-147 350,-166 454,-166 454,-147 350,-147"/>
<text text-anchor="middle" x="402" y="-154" font-family="Helvetica,sans-Serif" font-size="10.00">el::Logger::configure</text>
</a>
</g>
</g>
<!-- Node101&#45;&gt;Node102 -->
<g id="edge3" class="edge"><title>Node101&#45;&gt;Node102</title>
<path fill="none" stroke="midnightblue" d="M320.096,-156.5C330.167,-156.5 340.346,-156.5 349.928,-156.5"/>
<polygon fill="midnightblue" stroke="midnightblue" points="320.088,-153 310.088,-156.5 320.088,-160 320.088,-153"/>
</g>
<!-- Node103 -->
<g id="node5" class="node"><title>Node103</title>
<g id="a_node5"><a xlink:href="classel_1_1_loggers.html#adedfcc17831fe3d3f14026c91e8df88c" target="_top" xlink:title="Sets configurations from global configuration file. ">
<polygon fill="white" stroke="black" points="490,-204.5 490,-234.5 622,-234.5 622,-204.5 490,-204.5"/>
<text text-anchor="start" x="498" y="-222.5" font-family="Helvetica,sans-Serif" font-size="10.00">el::Loggers::configureFrom</text>
<text text-anchor="middle" x="556" y="-211.5" font-family="Helvetica,sans-Serif" font-size="10.00">Global</text>
</a>
</g>
</g>
<!-- Node102&#45;&gt;Node103 -->
<g id="edge4" class="edge"><title>Node102&#45;&gt;Node103</title>
<path fill="none" stroke="midnightblue" d="M433.571,-170.251C450.186,-177.623 471.136,-186.757 490,-194.5 498.053,-197.806 506.718,-201.229 515.014,-204.443"/>
<polygon fill="midnightblue" stroke="midnightblue" points="434.897,-167.01 424.339,-166.137 432.049,-173.404 434.897,-167.01"/>
</g>
<!-- Node104 -->
<g id="node6" class="node"><title>Node104</title>
<g id="a_node6"><a xlink:href="classel_1_1_logger.html#a43abea8865d7316f05c8a676a8c04896" target="_top" xlink:title="el::Logger::Logger">
<polygon fill="white" stroke="black" points="508.5,-166 508.5,-185 603.5,-185 603.5,-166 508.5,-166"/>
<text text-anchor="middle" x="556" y="-173" font-family="Helvetica,sans-Serif" font-size="10.00">el::Logger::Logger</text>
</a>
</g>
</g>
<!-- Node102&#45;&gt;Node104 -->
<g id="edge5" class="edge"><title>Node102&#45;&gt;Node104</title>
<path fill="none" stroke="midnightblue" d="M464.116,-164.14C478.898,-165.987 494.461,-167.933 508.449,-169.681"/>
<polygon fill="midnightblue" stroke="midnightblue" points="464.394,-160.647 454.037,-162.88 463.525,-167.593 464.394,-160.647"/>
</g>
<!-- Node105 -->
<g id="node7" class="node"><title>Node105</title>
<g id="a_node7"><a xlink:href="classel_1_1_logger.html#adfd57ab27fb398cc980a3edfab92927e" target="_top" xlink:title="Reconfigures logger using existing configurations. ">
<polygon fill="white" stroke="black" points="499.5,-128 499.5,-147 612.5,-147 612.5,-128 499.5,-128"/>
<text text-anchor="middle" x="556" y="-135" font-family="Helvetica,sans-Serif" font-size="10.00">el::Logger::reconfigure</text>
</a>
</g>
</g>
<!-- Node102&#45;&gt;Node105 -->
<g id="edge6" class="edge"><title>Node102&#45;&gt;Node105</title>
<path fill="none" stroke="midnightblue" d="M464.127,-148.859C475.784,-147.402 487.926,-145.884 499.399,-144.45"/>
<polygon fill="midnightblue" stroke="midnightblue" points="463.525,-145.407 454.037,-150.12 464.394,-152.353 463.525,-145.407"/>
</g>
<!-- Node109 -->
<g id="node11" class="node"><title>Node109</title>
<g id="a_node11"><a xlink:href="classel_1_1_loggers.html#a02223004494a404a2c3e7cd0c4380d3b" target="_top" xlink:title="Reconfigures specified logger with new configurations. ">
<polygon fill="white" stroke="black" points="497,-49.5 497,-79.5 615,-79.5 615,-49.5 497,-49.5"/>
<text text-anchor="start" x="505" y="-67.5" font-family="Helvetica,sans-Serif" font-size="10.00">el::Loggers::reconfigure</text>
<text text-anchor="middle" x="556" y="-56.5" font-family="Helvetica,sans-Serif" font-size="10.00">Logger</text>
</a>
</g>
</g>
<!-- Node102&#45;&gt;Node109 -->
<g id="edge10" class="edge"><title>Node102&#45;&gt;Node109</title>
<path fill="none" stroke="midnightblue" d="M427.811,-141.483C455.986,-124.429 501.699,-96.7609 529.966,-79.6521"/>
<polygon fill="midnightblue" stroke="midnightblue" points="425.722,-138.656 418.979,-146.828 429.347,-144.644 425.722,-138.656"/>
</g>
<!-- Node106 -->
<g id="node8" class="node"><title>Node106</title>
<g id="a_node8"><a xlink:href="classel_1_1_loggers.html#a396b601e204ede36f5a9acc76a8c5585" target="_top" xlink:title="Reconfigures single configuration for all the loggers for specified level. ">
<polygon fill="white" stroke="black" points="658,-196.5 658,-226.5 776,-226.5 776,-196.5 658,-196.5"/>
<text text-anchor="start" x="666" y="-214.5" font-family="Helvetica,sans-Serif" font-size="10.00">el::Loggers::reconfigure</text>
<text text-anchor="middle" x="717" y="-203.5" font-family="Helvetica,sans-Serif" font-size="10.00">AllLoggers</text>
</a>
</g>
</g>
<!-- Node105&#45;&gt;Node106 -->
<g id="edge7" class="edge"><title>Node105&#45;&gt;Node106</title>
<path fill="none" stroke="midnightblue" d="M608.782,-150.409C613.357,-152.21 617.829,-154.234 622,-156.5 640.554,-166.579 640.017,-176.434 658,-187.5 663.29,-190.755 669.1,-193.751 674.936,-196.441"/>
<polygon fill="midnightblue" stroke="midnightblue" points="609.906,-147.094 599.312,-147.016 607.546,-153.683 609.906,-147.094"/>
</g>
<!-- Node107 -->
<g id="node9" class="node"><title>Node107</title>
<g id="a_node9"><a xlink:href="classel_1_1_loggers.html#a89ec21259cfcfee3f761fca68c4ec043" target="_top" xlink:title="Reconfigures logger&#39;s single configuration. ">
<polygon fill="white" stroke="black" points="658,-147.5 658,-177.5 776,-177.5 776,-147.5 658,-147.5"/>
<text text-anchor="start" x="666" y="-165.5" font-family="Helvetica,sans-Serif" font-size="10.00">el::Loggers::reconfigure</text>
<text text-anchor="middle" x="717" y="-154.5" font-family="Helvetica,sans-Serif" font-size="10.00">Logger</text>
</a>
</g>
</g>
<!-- Node105&#45;&gt;Node107 -->
<g id="edge8" class="edge"><title>Node105&#45;&gt;Node107</title>
<path fill="none" stroke="midnightblue" d="M622.751,-147.838C634.44,-149.676 646.538,-151.578 657.993,-153.379"/>
<polygon fill="midnightblue" stroke="midnightblue" points="623.033,-144.34 612.61,-146.244 621.945,-151.255 623.033,-144.34"/>
</g>
<!-- Node108 -->
<g id="node10" class="node"><title>Node108</title>
<g id="a_node10"><a xlink:href="classel_1_1base_1_1_storage.html#a4932a8f8a55c3b00467cf2feed6acf59" target="_top" xlink:title="el::base::Storage::\lStorage">
<polygon fill="white" stroke="black" points="668.5,-98.5 668.5,-128.5 765.5,-128.5 765.5,-98.5 668.5,-98.5"/>
<text text-anchor="start" x="676.5" y="-116.5" font-family="Helvetica,sans-Serif" font-size="10.00">el::base::Storage::</text>
<text text-anchor="middle" x="717" y="-105.5" font-family="Helvetica,sans-Serif" font-size="10.00">Storage</text>
</a>
</g>
</g>
<!-- Node105&#45;&gt;Node108 -->
<g id="edge9" class="edge"><title>Node105&#45;&gt;Node108</title>
<path fill="none" stroke="midnightblue" d="M622.563,-127.604C637.903,-125.288 653.958,-122.865 668.345,-120.693"/>
<polygon fill="midnightblue" stroke="midnightblue" points="621.976,-124.153 612.61,-129.106 623.021,-131.074 621.976,-124.153"/>
</g>
<!-- Node110 -->
<g id="node12" class="node"><title>Node110</title>
<g id="a_node12"><a xlink:href="classel_1_1_loggers.html#a42f99e79d72d391df563df8d09272194" target="_top" xlink:title="Reconfigures all the existing loggers with new configurations. ">
<polygon fill="white" stroke="black" points="658,-49.5 658,-79.5 776,-79.5 776,-49.5 658,-49.5"/>
<text text-anchor="start" x="666" y="-67.5" font-family="Helvetica,sans-Serif" font-size="10.00">el::Loggers::reconfigure</text>
<text text-anchor="middle" x="717" y="-56.5" font-family="Helvetica,sans-Serif" font-size="10.00">AllLoggers</text>
</a>
</g>
</g>
<!-- Node109&#45;&gt;Node110 -->
<g id="edge11" class="edge"><title>Node109&#45;&gt;Node110</title>
<path fill="none" stroke="midnightblue" d="M625.551,-64.5C636.355,-64.5 647.434,-64.5 657.97,-64.5"/>
<polygon fill="midnightblue" stroke="midnightblue" points="625.303,-61.0001 615.303,-64.5 625.303,-68.0001 625.303,-61.0001"/>
</g>
<!-- Node112 -->
<g id="node14" class="node"><title>Node112</title>
<g id="a_node14"><a xlink:href="classel_1_1_loggers.html#af3252cc39fa4ac17b4abf50acf6b4c5e" target="_top" xlink:title="Reconfigures logger with new configurations after looking it up using identity. ">
<polygon fill="white" stroke="black" points="658,-0.5 658,-30.5 776,-30.5 776,-0.5 658,-0.5"/>
<text text-anchor="start" x="666" y="-18.5" font-family="Helvetica,sans-Serif" font-size="10.00">el::Loggers::reconfigure</text>
<text text-anchor="middle" x="717" y="-7.5" font-family="Helvetica,sans-Serif" font-size="10.00">Logger</text>
</a>
</g>
</g>
<!-- Node109&#45;&gt;Node112 -->
<g id="edge13" class="edge"><title>Node109&#45;&gt;Node112</title>
<path fill="none" stroke="midnightblue" d="M615.775,-46.3871C632.678,-41.1778 650.926,-35.5543 667.159,-30.5516"/>
<polygon fill="midnightblue" stroke="midnightblue" points="614.528,-43.1086 606.003,-49.3986 616.59,-49.7982 614.528,-43.1086"/>
</g>
<!-- Node111 -->
<g id="node13" class="node"><title>Node111</title>
<g id="a_node13"><a xlink:href="classel_1_1_loggers.html#a3f478b619f82cab39244ed8cde4778e2" target="_top" xlink:title="Sets default configurations. This configuration is used for future (and conditionally for existing) l...">
<polygon fill="white" stroke="black" points="812,-55 812,-74 988,-74 988,-55 812,-55"/>
<text text-anchor="middle" x="900" y="-62" font-family="Helvetica,sans-Serif" font-size="10.00">el::Loggers::setDefaultConfigurations</text>
</a>
</g>
</g>
<!-- Node110&#45;&gt;Node111 -->
<g id="edge12" class="edge"><title>Node110&#45;&gt;Node111</title>
<path fill="none" stroke="midnightblue" d="M786.299,-64.5C794.65,-64.5 803.271,-64.5 811.851,-64.5"/>
<polygon fill="midnightblue" stroke="midnightblue" points="786.266,-61.0001 776.266,-64.5 786.266,-68.0001 786.266,-61.0001"/>
</g>
</g>
</svg>
        <g id="navigator" transform="translate(0 0)" fill="#404254">
                <rect fill="#f2f5e9" fill-opacity="0.5" stroke="#606060" stroke-width=".5" x="0" y="0" width="60" height="60"/>
                <use id="zoomplus" xlink:href="#zoomPlus" x="17" y="9" onmousedown="handleZoom(evt,'in')"/>
                <use id="zoomminus" xlink:href="#zoomMin" x="42" y="9" onmousedown="handleZoom(evt,'out')"/>
                <use id="reset" xlink:href="#resetDef" x="30" y="36" onmousedown="handleReset()"/>
                <g id="arrowUp" xlink:href="#dirArrow" transform="translate(30 24)" onmousedown="handlePan(0,-1)">
                  <use xlink:href="#rim" fill="#404040">
                        <set attributeName="fill" to="#808080" begin="arrowUp.mouseover" end="arrowUp.mouseout"/>
                  </use>
                  <path fill="none" stroke="white" stroke-width="1.5" d="M0,-3.0v7 M-2.5,-0.5L0,-3.0L2.5,-0.5"/>
                </g>
                <g id="arrowRight" xlink:href="#dirArrow" transform="rotate(90) translate(36 -43)" onmousedown="handlePan(1,0)">
                  <use xlink:href="#rim" fill="#404040">
                        <set attributeName="fill" to="#808080" begin="arrowRight.mouseover" end="arrowRight.mouseout"/>
                  </use>
                  <path fill="none" stroke="white" stroke-width="1.5" d="M0,-3.0v7 M-2.5,-0.5L0,-3.0L2.5,-0.5"/>
                </g>
                <g id="arrowDown" xlink:href="#dirArrow" transform="rotate(180) translate(-30 -48)" onmousedown="handlePan(0,1)">
                  <use xlink:href="#rim" fill="#404040">
                        <set attributeName="fill" to="#808080" begin="arrowDown.mouseover" end="arrowDown.mouseout"/>
                  </use>
                  <path fill="none" stroke="white" stroke-width="1.5" d="M0,-3.0v7 M-2.5,-0.5L0,-3.0L2.5,-0.5"/>
                </g>
                <g id="arrowLeft" xlink:href="#dirArrow" transform="rotate(270) translate(-36 17)" onmousedown="handlePan(-1,0)">
                  <use xlink:href="#rim" fill="#404040">
                        <set attributeName="fill" to="#808080" begin="arrowLeft.mouseover" end="arrowLeft.mouseout"/>
                  </use>
                  <path fill="none" stroke="white" stroke-width="1.5" d="M0,-3.0v7 M-2.5,-0.5L0,-3.0L2.5,-0.5"/>
                </g>
        </g>
        <svg viewBox="0 0 15 15" width="100%" height="30px" preserveAspectRatio="xMaxYMin meet">
         <g id="arrow_out" transform="scale(0.3 0.3)">
          <a xlink:href="classel_1_1base_1_1_typed_configurations_a05b8ea32f63c3246a68dbc9085b7e847_icgraph_org.svg" target="_base">
           <rect id="button" ry="5" rx="5" y="6" x="6" height="38" width="38"
                fill="#f2f5e9" fill-opacity="0.5" stroke="#606060" stroke-width="1.0"/>
           <path id="arrow"
             d="M 11.500037,31.436501 C 11.940474,20.09759 22.043105,11.32322 32.158766,21.979434 L 37.068811,17.246167 C 37.068811,17.246167 37.088388,32 37.088388,32 L 22.160133,31.978069 C 22.160133,31.978069 26.997745,27.140456 26.997745,27.140456 C 18.528582,18.264221 13.291696,25.230495 11.500037,31.436501 z"
             style="fill:#404040;"/>
          </a>
         </g>
        </svg>
</svg>
