<?xml version="1.0" encoding="UTF-8" standalone="no"?>
<!DOCTYPE svg PUBLIC "-//W3C//DTD SVG 1.1//EN"
 "http://www.w3.org/Graphics/SVG/1.1/DTD/svg11.dtd">
<!-- Generated by graphviz version 2.38.0 (20140413.2041)
 -->
<!-- Title: vpr::MemoryBlock::~MemoryBlock Pages: 1 -->
<svg width="596pt" height="39pt"
 viewBox="0.00 0.00 596.00 39.00" xmlns="http://www.w3.org/2000/svg" xmlns:xlink="http://www.w3.org/1999/xlink">
<g id="graph0" class="graph" transform="scale(1 1) rotate(0) translate(4 35)">
<title>vpr::MemoryBlock::~MemoryBlock</title>
<polygon fill="white" stroke="none" points="-4,4 -4,-35 592,-35 592,4 -4,4"/>
<!-- Node4 -->
<g id="node1" class="node"><title>Node4</title>
<polygon fill="#bfbfbf" stroke="black" points="0,-0.5 0,-30.5 101,-30.5 101,-0.5 0,-0.5"/>
<text text-anchor="start" x="8" y="-18.5" font-family="Helvetica,sans-Serif" font-size="10.00">vpr::MemoryBlock::</text>
<text text-anchor="middle" x="50.5" y="-7.5" font-family="Helvetica,sans-Serif" font-size="10.00">~MemoryBlock</text>
</g>
<!-- Node5 -->
<g id="node2" class="node"><title>Node5</title>
<g id="a_node2"><a xlink:href="classvpr_1_1_memory_block.html#a3d1d4492ecdb7855569025fe1089f78c" target="_top" xlink:title="Cleans up resources and prepares object to be safely destroyed. ">
<polygon fill="white" stroke="black" points="137,-6 137,-25 271,-25 271,-6 137,-6"/>
<text text-anchor="middle" x="204" y="-13" font-family="Helvetica,sans-Serif" font-size="10.00">vpr::MemoryBlock::Destroy</text>
</a>
</g>
</g>
<!-- Node4&#45;&gt;Node5 -->
<g id="edge1" class="edge"><title>Node4&#45;&gt;Node5</title>
<path fill="none" stroke="midnightblue" d="M101.107,-15.5C109.294,-15.5 117.946,-15.5 126.609,-15.5"/>
<polygon fill="midnightblue" stroke="midnightblue" points="126.757,-19.0001 136.757,-15.5 126.756,-12.0001 126.757,-19.0001"/>
</g>
<!-- Node6 -->
<g id="node3" class="node"><title>Node6</title>
<g id="a_node3"><a xlink:href="classvpr_1_1_allocator.html#a1be30aa02991f0323def73b9be9a3c44" target="_top" xlink:title="vpr::Allocator::DeviceHandle">
<polygon fill="white" stroke="black" points="307,-6 307,-25 444,-25 444,-6 307,-6"/>
<text text-anchor="middle" x="375.5" y="-13" font-family="Helvetica,sans-Serif" font-size="10.00">vpr::Allocator::DeviceHandle</text>
</a>
</g>
</g>
<!-- Node5&#45;&gt;Node6 -->
<g id="edge2" class="edge"><title>Node5&#45;&gt;Node6</title>
<path fill="none" stroke="midnightblue" d="M271.018,-15.5C279.503,-15.5 288.252,-15.5 296.901,-15.5"/>
<polygon fill="midnightblue" stroke="midnightblue" points="296.986,-19.0001 306.986,-15.5 296.986,-12.0001 296.986,-19.0001"/>
</g>
<!-- Node7 -->
<g id="node4" class="node"><title>Node7</title>
<g id="a_node4"><a xlink:href="classvpr_1_1_device.html#a59882855173bef0b13a17b376ea01d45" target="_top" xlink:title="vpr::Device::vkHandle">
<polygon fill="white" stroke="black" points="480,-6 480,-25 588,-25 588,-6 480,-6"/>
<text text-anchor="middle" x="534" y="-13" font-family="Helvetica,sans-Serif" font-size="10.00">vpr::Device::vkHandle</text>
</a>
</g>
</g>
<!-- Node6&#45;&gt;Node7 -->
<g id="edge3" class="edge"><title>Node6&#45;&gt;Node7</title>
<path fill="none" stroke="midnightblue" d="M444.233,-15.5C452.69,-15.5 461.314,-15.5 469.7,-15.5"/>
<polygon fill="midnightblue" stroke="midnightblue" points="469.784,-19.0001 479.784,-15.5 469.784,-12.0001 469.784,-19.0001"/>
</g>
</g>
</svg>
