<?xml version="1.0" encoding="UTF-8" standalone="no"?>
<!DOCTYPE svg PUBLIC "-//W3C//DTD SVG 1.1//EN"
 "http://www.w3.org/Graphics/SVG/1.1/DTD/svg11.dtd">
<!-- Generated by graphviz version 2.38.0 (20140413.2041)
 -->
<!-- Title: vpr::Device Pages: 1 -->
<svg width="3111pt" height="403pt"
 viewBox="0.00 0.00 3111.00 402.50" xmlns="http://www.w3.org/2000/svg" xmlns:xlink="http://www.w3.org/1999/xlink">
<g id="graph0" class="graph" transform="scale(1 1) rotate(0) translate(4 398.5)">
<title>vpr::Device</title>
<polygon fill="white" stroke="none" points="-4,4 -4,-398.5 3107,-398.5 3107,4 -4,4"/>
<!-- Node1 -->
<g id="node1" class="node"><title>Node1</title>
<polygon fill="#bfbfbf" stroke="black" points="1301,-158 1301,-177 1364,-177 1364,-158 1301,-158"/>
<text text-anchor="middle" x="1332.5" y="-165" font-family="Helvetica,sans-Serif" font-size="10.00">vpr::Device</text>
</g>
<!-- Node10 -->
<g id="node10" class="node"><title>Node10</title>
<g id="a_node10"><a xlink:href="classvpr_1_1_allocator.html" target="_top" xlink:title="The primary interface and class of this subsystem. ">
<polygon fill="white" stroke="black" points="1539.5,-231 1539.5,-250 1612.5,-250 1612.5,-231 1539.5,-231"/>
<text text-anchor="middle" x="1576" y="-238" font-family="Helvetica,sans-Serif" font-size="10.00">vpr::Allocator</text>
</a>
</g>
</g>
<!-- Node1&#45;&gt;Node10 -->
<g id="edge23" class="edge"><title>Node1&#45;&gt;Node10</title>
<path fill="none" stroke="#9a32cd" stroke-dasharray="5,2" d="M1373.78,-179.676C1421.5,-194.102 1500.01,-217.833 1543.52,-230.983"/>
<polygon fill="#9a32cd" stroke="#9a32cd" points="1374.67,-176.289 1364.09,-176.746 1372.65,-182.989 1374.67,-176.289"/>
<text text-anchor="middle" x="1454.5" y="-218.5" font-family="Helvetica,sans-Serif" font-size="10.00"> parent</text>
</g>
<!-- Node2 -->
<g id="node2" class="node"><title>Node2</title>
<polygon fill="white" stroke="#bfbfbf" points="999,-62.5 999,-92.5 1140,-92.5 1140,-62.5 999,-62.5"/>
<text text-anchor="start" x="1007" y="-80.5" font-family="Helvetica,sans-Serif" font-size="10.00">std::map&lt; VkQueueFlags,</text>
<text text-anchor="middle" x="1069.5" y="-69.5" font-family="Helvetica,sans-Serif" font-size="10.00"> VkDeviceQueueCreateInfo &gt;</text>
</g>
<!-- Node2&#45;&gt;Node1 -->
<g id="edge1" class="edge"><title>Node2&#45;&gt;Node1</title>
<path fill="none" stroke="#9a32cd" stroke-dasharray="5,2" d="M1150.29,-80.7941C1182.29,-84.3161 1218.88,-91.2078 1250,-104.5 1279.93,-117.285 1308.5,-143.734 1322.51,-157.956"/>
<polygon fill="#9a32cd" stroke="#9a32cd" points="1150.37,-77.285 1140.07,-79.7652 1149.67,-84.2497 1150.37,-77.285"/>
<text text-anchor="middle" x="1204" y="-107.5" font-family="Helvetica,sans-Serif" font-size="10.00"> queueInfos</text>
</g>
<!-- Node3 -->
<g id="node3" class="node"><title>Node3</title>
<g id="a_node3"><a xlink:href="namespacevpr.html#structvpr_1_1vk_queue_family_indices" target="_top" xlink:title="vpr::vkQueueFamilyIndices">
<polygon fill="white" stroke="black" points="1003.5,-197 1003.5,-216 1135.5,-216 1135.5,-197 1003.5,-197"/>
<text text-anchor="middle" x="1069.5" y="-204" font-family="Helvetica,sans-Serif" font-size="10.00">vpr::vkQueueFamilyIndices</text>
</a>
</g>
</g>
<!-- Node3&#45;&gt;Node1 -->
<g id="edge2" class="edge"><title>Node3&#45;&gt;Node1</title>
<path fill="none" stroke="#9a32cd" stroke-dasharray="5,2" d="M1146.05,-197.236C1178.15,-193.083 1215.96,-187.905 1250,-182.5 1266.91,-179.815 1285.71,-176.385 1300.99,-173.483"/>
<polygon fill="#9a32cd" stroke="#9a32cd" points="1145.31,-193.802 1135.84,-198.547 1146.2,-200.745 1145.31,-193.802"/>
<text text-anchor="middle" x="1204" y="-198.5" font-family="Helvetica,sans-Serif" font-size="10.00"> QueueFamilyIndices</text>
</g>
<!-- Node4 -->
<g id="node4" class="node"><title>Node4</title>
<polygon fill="white" stroke="#bfbfbf" points="778.5,-99.5 778.5,-129.5 873.5,-129.5 873.5,-99.5 778.5,-99.5"/>
<text text-anchor="start" x="786.5" y="-117.5" font-family="Helvetica,sans-Serif" font-size="10.00">std::vector&lt; const</text>
<text text-anchor="middle" x="826" y="-106.5" font-family="Helvetica,sans-Serif" font-size="10.00"> char *&gt;</text>
</g>
<!-- Node4&#45;&gt;Node1 -->
<g id="edge3" class="edge"><title>Node4&#45;&gt;Node1</title>
<path fill="none" stroke="#9a32cd" stroke-dasharray="5,2" d="M883.776,-118.612C965.094,-124.787 1119.34,-137.561 1250,-154.5 1266.91,-156.692 1285.71,-159.655 1300.99,-162.199"/>
<polygon fill="#9a32cd" stroke="#9a32cd" points="883.985,-115.118 873.75,-117.856 883.458,-122.098 883.985,-115.118"/>
<text text-anchor="middle" x="1069.5" y="-144.5" font-family="Helvetica,sans-Serif" font-size="10.00"> enabledExtensions</text>
</g>
<!-- Node27 -->
<g id="node27" class="node"><title>Node27</title>
<g id="a_node27"><a xlink:href="classvpr_1_1_instance.html" target="_top" xlink:title="Instance is a wrapper around the base Vulkan object that must be initialized first. ">
<polygon fill="white" stroke="black" points="1034,-24 1034,-43 1105,-43 1105,-24 1034,-24"/>
<text text-anchor="middle" x="1069.5" y="-31" font-family="Helvetica,sans-Serif" font-size="10.00">vpr::Instance</text>
</a>
</g>
</g>
<!-- Node4&#45;&gt;Node27 -->
<g id="edge32" class="edge"><title>Node4&#45;&gt;Node27</title>
<path fill="none" stroke="#9a32cd" stroke-dasharray="5,2" d="M875.73,-95.77C909.977,-82.894 956.995,-65.7895 999,-52.5 1010.21,-48.9532 1022.56,-45.4494 1033.7,-42.4352"/>
<polygon fill="#9a32cd" stroke="#9a32cd" points="874.098,-92.6451 865.979,-99.4517 876.571,-99.1938 874.098,-92.6451"/>
<text text-anchor="middle" x="938" y="-91.5" font-family="Helvetica,sans-Serif" font-size="10.00"> enabledExtensions</text>
</g>
<!-- Node5 -->
<g id="node5" class="node"><title>Node5</title>
<g id="a_node5"><a xlink:href="classvpr_1_1_physical_device.html" target="_top" xlink:title="! PhysicalDevice is a wrapper around a VkPhysicalDevice object, which is itself merely a handle repre...">
<polygon fill="white" stroke="black" points="623,-104 623,-123 724,-123 724,-104 623,-104"/>
<text text-anchor="middle" x="673.5" y="-111" font-family="Helvetica,sans-Serif" font-size="10.00">vpr::PhysicalDevice</text>
</a>
</g>
</g>
<!-- Node5&#45;&gt;Node1 -->
<g id="edge4" class="edge"><title>Node5&#45;&gt;Node1</title>
<path fill="none" stroke="#9a32cd" stroke-dasharray="5,2" d="M716.622,-125.698C734.483,-130.42 755.613,-135.42 775,-138.5 973.5,-170.037 1216.32,-169.486 1300.8,-168.159"/>
<polygon fill="#9a32cd" stroke="#9a32cd" points="717.363,-122.272 706.796,-123.042 715.536,-129.03 717.363,-122.272"/>
<text text-anchor="middle" x="938" y="-163.5" font-family="Helvetica,sans-Serif" font-size="10.00"> parent</text>
</g>
<!-- Node28 -->
<g id="node28" class="node"><title>Node28</title>
<polygon fill="white" stroke="#bfbfbf" points="775,-29.5 775,-59.5 877,-59.5 877,-29.5 775,-29.5"/>
<text text-anchor="start" x="783" y="-47.5" font-family="Helvetica,sans-Serif" font-size="10.00">std::unique_ptr&lt; vpr</text>
<text text-anchor="middle" x="826" y="-36.5" font-family="Helvetica,sans-Serif" font-size="10.00">::PhysicalDevice &gt;</text>
</g>
<!-- Node5&#45;&gt;Node28 -->
<g id="edge31" class="edge"><title>Node5&#45;&gt;Node28</title>
<path fill="none" stroke="#9a32cd" stroke-dasharray="5,2" d="M704.553,-99.7214C729.865,-88.1165 766.016,-71.5425 792.1,-59.5837"/>
<polygon fill="#9a32cd" stroke="#9a32cd" points="703.058,-96.5566 695.426,-103.906 705.975,-102.92 703.058,-96.5566"/>
<text text-anchor="middle" x="749.5" y="-84.5" font-family="Helvetica,sans-Serif" font-size="10.00"> ptr</text>
</g>
<!-- Node6 -->
<g id="node6" class="node"><title>Node6</title>
<polygon fill="white" stroke="#bfbfbf" points="449,-98.5 449,-128.5 565,-128.5 565,-98.5 449,-98.5"/>
<text text-anchor="start" x="457" y="-116.5" font-family="Helvetica,sans-Serif" font-size="10.00">std::unique_ptr&lt; vpr</text>
<text text-anchor="middle" x="507" y="-105.5" font-family="Helvetica,sans-Serif" font-size="10.00">::PhysicalDeviceImpl &gt;</text>
</g>
<!-- Node6&#45;&gt;Node5 -->
<g id="edge5" class="edge"><title>Node6&#45;&gt;Node5</title>
<path fill="none" stroke="#9a32cd" stroke-dasharray="5,2" d="M575.39,-113.5C591.298,-113.5 607.973,-113.5 622.928,-113.5"/>
<polygon fill="#9a32cd" stroke="#9a32cd" points="575.072,-110 565.072,-113.5 575.072,-117 575.072,-110"/>
<text text-anchor="middle" x="594" y="-116.5" font-family="Helvetica,sans-Serif" font-size="10.00"> impl</text>
</g>
<!-- Node7 -->
<g id="node7" class="node"><title>Node7</title>
<g id="a_node7"><a xlink:href="classvpr_1_1_physical_device_impl.html" target="_top" xlink:title="vpr::PhysicalDeviceImpl">
<polygon fill="white" stroke="black" points="279,-104 279,-123 398,-123 398,-104 279,-104"/>
<text text-anchor="middle" x="338.5" y="-111" font-family="Helvetica,sans-Serif" font-size="10.00">vpr::PhysicalDeviceImpl</text>
</a>
</g>
</g>
<!-- Node7&#45;&gt;Node6 -->
<g id="edge6" class="edge"><title>Node7&#45;&gt;Node6</title>
<path fill="none" stroke="#9a32cd" stroke-dasharray="5,2" d="M408.393,-113.5C421.884,-113.5 435.894,-113.5 448.948,-113.5"/>
<polygon fill="#9a32cd" stroke="#9a32cd" points="408.202,-110 398.202,-113.5 408.202,-117 408.202,-110"/>
<text text-anchor="middle" x="423.5" y="-116.5" font-family="Helvetica,sans-Serif" font-size="10.00"> ptr</text>
</g>
<!-- Node8 -->
<g id="node8" class="node"><title>Node8</title>
<polygon fill="white" stroke="#bfbfbf" points="0,-98.5 0,-128.5 140,-128.5 140,-98.5 0,-98.5"/>
<text text-anchor="start" x="8" y="-116.5" font-family="Helvetica,sans-Serif" font-size="10.00">std::vector&lt; VkQueueFamily</text>
<text text-anchor="middle" x="70" y="-105.5" font-family="Helvetica,sans-Serif" font-size="10.00">Properties &gt;</text>
</g>
<!-- Node8&#45;&gt;Node7 -->
<g id="edge7" class="edge"><title>Node8&#45;&gt;Node7</title>
<path fill="none" stroke="#9a32cd" stroke-dasharray="5,2" d="M150.348,-113.5C191.603,-113.5 241.148,-113.5 278.896,-113.5"/>
<polygon fill="#9a32cd" stroke="#9a32cd" points="150.324,-110 140.324,-113.5 150.324,-117 150.324,-110"/>
<text text-anchor="middle" x="209.5" y="-116.5" font-family="Helvetica,sans-Serif" font-size="10.00"> queueFamilyProperties</text>
</g>
<!-- Node9 -->
<g id="node9" class="node"><title>Node9</title>
<polygon fill="white" stroke="#bfbfbf" points="1762,-160.5 1762,-190.5 1864,-190.5 1864,-160.5 1762,-160.5"/>
<text text-anchor="start" x="1770" y="-178.5" font-family="Helvetica,sans-Serif" font-size="10.00">std::unique_ptr&lt; vpr</text>
<text text-anchor="middle" x="1813" y="-167.5" font-family="Helvetica,sans-Serif" font-size="10.00">::Allocator &gt;</text>
</g>
<!-- Node9&#45;&gt;Node1 -->
<g id="edge8" class="edge"><title>Node9&#45;&gt;Node1</title>
<path fill="none" stroke="#9a32cd" stroke-dasharray="5,2" d="M1751.67,-174.491C1648.56,-172.767 1442.03,-169.315 1364.16,-168.013"/>
<polygon fill="#9a32cd" stroke="#9a32cd" points="1751.86,-177.995 1761.92,-174.663 1751.98,-170.996 1751.86,-177.995"/>
<text text-anchor="middle" x="1576" y="-176.5" font-family="Helvetica,sans-Serif" font-size="10.00"> vkAllocator</text>
</g>
<!-- Node10&#45;&gt;Node9 -->
<g id="edge9" class="edge"><title>Node10&#45;&gt;Node9</title>
<path fill="none" stroke="#9a32cd" stroke-dasharray="5,2" d="M1602.49,-225.93C1618.07,-217.614 1638.66,-207.651 1658,-201.5 1691.85,-190.732 1731.38,-184.176 1761.92,-180.341"/>
<polygon fill="#9a32cd" stroke="#9a32cd" points="1600.59,-222.98 1593.5,-230.846 1603.95,-229.123 1600.59,-222.98"/>
<text text-anchor="middle" x="1701" y="-204.5" font-family="Helvetica,sans-Serif" font-size="10.00"> ptr</text>
</g>
<!-- Node14 -->
<g id="node14" class="node"><title>Node14</title>
<g id="a_node14"><a xlink:href="classvpr_1_1_allocation_collection.html" target="_top" xlink:title="An allocation collection is just a vector of MemoryBlocks of the same type. ">
<polygon fill="white" stroke="black" points="2320,-263 2320,-282 2440,-282 2440,-263 2320,-263"/>
<text text-anchor="middle" x="2380" y="-270" font-family="Helvetica,sans-Serif" font-size="10.00">vpr::AllocationCollection</text>
</a>
</g>
</g>
<!-- Node10&#45;&gt;Node14 -->
<g id="edge14" class="edge"><title>Node10&#45;&gt;Node14</title>
<path fill="none" stroke="#9a32cd" stroke-dasharray="5,2" d="M1622.53,-250.419C1669.69,-259.816 1745.64,-272.5 1812,-272.5 1812,-272.5 1812,-272.5 2166,-272.5 2217.96,-272.5 2277.04,-272.5 2319.78,-272.5"/>
<polygon fill="#9a32cd" stroke="#9a32cd" points="1623.12,-246.969 1612.63,-248.41 1621.73,-253.829 1623.12,-246.969"/>
<text text-anchor="middle" x="1966" y="-275.5" font-family="Helvetica,sans-Serif" font-size="10.00"> allocator</text>
</g>
<!-- Node17 -->
<g id="node17" class="node"><title>Node17</title>
<g id="a_node17"><a xlink:href="classvpr_1_1_memory_block.html" target="_top" xlink:title="A MemoryBlock is a large contiguous region of Vulkan memory of a uniform type (device local...">
<polygon fill="white" stroke="black" points="1765.5,-327 1765.5,-346 1860.5,-346 1860.5,-327 1765.5,-327"/>
<text text-anchor="middle" x="1813" y="-334" font-family="Helvetica,sans-Serif" font-size="10.00">vpr::MemoryBlock</text>
</a>
</g>
</g>
<!-- Node10&#45;&gt;Node17 -->
<g id="edge22" class="edge"><title>Node10&#45;&gt;Node17</title>
<path fill="none" stroke="#9a32cd" stroke-dasharray="5,2" d="M1602.45,-255.333C1618.16,-264.152 1638.89,-275.201 1658,-283.5 1698.98,-301.297 1748.03,-317.315 1779.59,-326.97"/>
<polygon fill="#9a32cd" stroke="#9a32cd" points="1603.8,-252.075 1593.38,-250.174 1600.34,-258.16 1603.8,-252.075"/>
<text text-anchor="middle" x="1701" y="-318.5" font-family="Helvetica,sans-Serif" font-size="10.00"> allocator</text>
</g>
<!-- Node11 -->
<g id="node11" class="node"><title>Node11</title>
<polygon fill="white" stroke="#bfbfbf" points="2930,-225 2930,-266 3103,-266 3103,-225 2930,-225"/>
<text text-anchor="start" x="2938" y="-254" font-family="Helvetica,sans-Serif" font-size="10.00">std::map&lt; AllocationSize,</text>
<text text-anchor="start" x="2938" y="-243" font-family="Helvetica,sans-Serif" font-size="10.00"> std::vector&lt; std::unique</text>
<text text-anchor="middle" x="3016.5" y="-232" font-family="Helvetica,sans-Serif" font-size="10.00">_ptr&lt; vpr::AllocationCollection &gt; &gt; &gt;</text>
</g>
<!-- Node11&#45;&gt;Node10 -->
<g id="edge10" class="edge"><title>Node11&#45;&gt;Node10</title>
<path fill="none" stroke="#9a32cd" stroke-dasharray="5,2" d="M2919.73,-234.64C2874.4,-230.384 2819.48,-226.5 2770,-226.5 1812,-226.5 1812,-226.5 1812,-226.5 1741.29,-226.5 1658.83,-232.894 1612.79,-237.039"/>
<polygon fill="#9a32cd" stroke="#9a32cd" points="2919.56,-238.139 2929.85,-235.61 2920.23,-231.171 2919.56,-238.139"/>
<text text-anchor="middle" x="2277" y="-229.5" font-family="Helvetica,sans-Serif" font-size="10.00"> allocations</text>
</g>
<!-- Node12 -->
<g id="node12" class="node"><title>Node12</title>
<polygon fill="white" stroke="#bfbfbf" points="2687,-255.5 2687,-285.5 2851,-285.5 2851,-255.5 2687,-255.5"/>
<text text-anchor="start" x="2695" y="-273.5" font-family="Helvetica,sans-Serif" font-size="10.00">std::vector&lt; std::unique</text>
<text text-anchor="middle" x="2769" y="-262.5" font-family="Helvetica,sans-Serif" font-size="10.00">_ptr&lt; vpr::AllocationCollection &gt; &gt;</text>
</g>
<!-- Node12&#45;&gt;Node11 -->
<g id="edge11" class="edge"><title>Node12&#45;&gt;Node11</title>
<path fill="none" stroke="#9a32cd" stroke-dasharray="5,2" d="M2861.27,-261.206C2883.73,-258.919 2907.7,-256.478 2929.88,-254.219"/>
<polygon fill="#9a32cd" stroke="#9a32cd" points="2860.66,-257.75 2851.07,-262.245 2861.37,-264.714 2860.66,-257.75"/>
<text text-anchor="middle" x="2890.5" y="-263.5" font-family="Helvetica,sans-Serif" font-size="10.00"> elements</text>
</g>
<!-- Node13 -->
<g id="node13" class="node"><title>Node13</title>
<polygon fill="white" stroke="#bfbfbf" points="2491,-255.5 2491,-285.5 2608,-285.5 2608,-255.5 2491,-255.5"/>
<text text-anchor="start" x="2499" y="-273.5" font-family="Helvetica,sans-Serif" font-size="10.00">std::unique_ptr&lt; vpr</text>
<text text-anchor="middle" x="2549.5" y="-262.5" font-family="Helvetica,sans-Serif" font-size="10.00">::AllocationCollection &gt;</text>
</g>
<!-- Node13&#45;&gt;Node12 -->
<g id="edge12" class="edge"><title>Node13&#45;&gt;Node12</title>
<path fill="none" stroke="#9a32cd" stroke-dasharray="5,2" d="M2618.3,-270.5C2639.96,-270.5 2664.16,-270.5 2686.68,-270.5"/>
<polygon fill="#9a32cd" stroke="#9a32cd" points="2618.22,-267 2608.21,-270.5 2618.21,-274 2618.22,-267"/>
<text text-anchor="middle" x="2647.5" y="-273.5" font-family="Helvetica,sans-Serif" font-size="10.00"> elements</text>
</g>
<!-- Node14&#45;&gt;Node13 -->
<g id="edge13" class="edge"><title>Node14&#45;&gt;Node13</title>
<path fill="none" stroke="#9a32cd" stroke-dasharray="5,2" d="M2450.25,-271.673C2463.74,-271.512 2477.75,-271.345 2490.82,-271.189"/>
<polygon fill="#9a32cd" stroke="#9a32cd" points="2450.01,-268.176 2440.05,-271.795 2450.1,-275.175 2450.01,-268.176"/>
<text text-anchor="middle" x="2465.5" y="-275.5" font-family="Helvetica,sans-Serif" font-size="10.00"> ptr</text>
</g>
<!-- Node15 -->
<g id="node15" class="node"><title>Node15</title>
<polygon fill="white" stroke="#bfbfbf" points="2096,-302.5 2096,-332.5 2234,-332.5 2234,-302.5 2096,-302.5"/>
<text text-anchor="start" x="2104" y="-320.5" font-family="Helvetica,sans-Serif" font-size="10.00">std::vector&lt; std::unique</text>
<text text-anchor="middle" x="2165" y="-309.5" font-family="Helvetica,sans-Serif" font-size="10.00">_ptr&lt; vpr::MemoryBlock &gt; &gt;</text>
</g>
<!-- Node15&#45;&gt;Node14 -->
<g id="edge15" class="edge"><title>Node15&#45;&gt;Node14</title>
<path fill="none" stroke="#9a32cd" stroke-dasharray="5,2" d="M2244.36,-300.944C2274.53,-294.57 2307.95,-287.511 2333.94,-282.02"/>
<polygon fill="#9a32cd" stroke="#9a32cd" points="2243.33,-297.584 2234.27,-303.076 2244.78,-304.433 2243.33,-297.584"/>
<text text-anchor="middle" x="2277" y="-302.5" font-family="Helvetica,sans-Serif" font-size="10.00"> allocations</text>
</g>
<!-- Node16 -->
<g id="node16" class="node"><title>Node16</title>
<polygon fill="white" stroke="#bfbfbf" points="1915,-305.5 1915,-335.5 2017,-335.5 2017,-305.5 1915,-305.5"/>
<text text-anchor="start" x="1923" y="-323.5" font-family="Helvetica,sans-Serif" font-size="10.00">std::unique_ptr&lt; vpr</text>
<text text-anchor="middle" x="1966" y="-312.5" font-family="Helvetica,sans-Serif" font-size="10.00">::MemoryBlock &gt;</text>
</g>
<!-- Node16&#45;&gt;Node15 -->
<g id="edge16" class="edge"><title>Node16&#45;&gt;Node15</title>
<path fill="none" stroke="#9a32cd" stroke-dasharray="5,2" d="M2027.25,-319.582C2048.87,-319.253 2073.4,-318.88 2095.66,-318.541"/>
<polygon fill="#9a32cd" stroke="#9a32cd" points="2027.17,-316.083 2017.22,-319.735 2027.27,-323.082 2027.17,-316.083"/>
<text text-anchor="middle" x="2056.5" y="-322.5" font-family="Helvetica,sans-Serif" font-size="10.00"> elements</text>
</g>
<!-- Node17&#45;&gt;Node16 -->
<g id="edge17" class="edge"><title>Node17&#45;&gt;Node16</title>
<path fill="none" stroke="#9a32cd" stroke-dasharray="5,2" d="M1870.88,-330.473C1885.37,-328.938 1900.83,-327.3 1914.95,-325.804"/>
<polygon fill="#9a32cd" stroke="#9a32cd" points="1870.11,-327.035 1860.54,-331.569 1870.85,-333.996 1870.11,-327.035"/>
<text text-anchor="middle" x="1889.5" y="-332.5" font-family="Helvetica,sans-Serif" font-size="10.00"> ptr</text>
</g>
<!-- Node18 -->
<g id="node18" class="node"><title>Node18</title>
<polygon fill="white" stroke="#bfbfbf" points="1513.5,-374 1513.5,-393 1638.5,-393 1638.5,-374 1513.5,-374"/>
<text text-anchor="middle" x="1576" y="-381" font-family="Helvetica,sans-Serif" font-size="10.00">std::list&lt; Suballocation &gt;</text>
</g>
<!-- Node18&#45;&gt;Node17 -->
<g id="edge18" class="edge"><title>Node18&#45;&gt;Node17</title>
<path fill="none" stroke="#9a32cd" stroke-dasharray="5,2" d="M1645.57,-372.252C1675.84,-367.012 1711.78,-360.413 1744,-353.5 1754.35,-351.279 1765.52,-348.604 1775.76,-346.04"/>
<polygon fill="#9a32cd" stroke="#9a32cd" points="1644.8,-368.833 1635.54,-373.975 1645.99,-375.732 1644.8,-368.833"/>
<text text-anchor="middle" x="1701" y="-371.5" font-family="Helvetica,sans-Serif" font-size="10.00"> Suballocations</text>
</g>
<!-- Node19 -->
<g id="node19" class="node"><title>Node19</title>
<g id="a_node19"><a xlink:href="structvpr_1_1_suballocation.html" target="_top" xlink:title="During the process of finding a suitable region to bind to, we need to store things like &quot;Suballocati...">
<polygon fill="white" stroke="black" points="1286,-374 1286,-393 1379,-393 1379,-374 1286,-374"/>
<text text-anchor="middle" x="1332.5" y="-381" font-family="Helvetica,sans-Serif" font-size="10.00">vpr::Suballocation</text>
</a>
</g>
</g>
<!-- Node19&#45;&gt;Node18 -->
<g id="edge19" class="edge"><title>Node19&#45;&gt;Node18</title>
<path fill="none" stroke="#9a32cd" stroke-dasharray="5,2" d="M1389.32,-383.5C1426.31,-383.5 1474.88,-383.5 1513.06,-383.5"/>
<polygon fill="#9a32cd" stroke="#9a32cd" points="1389.21,-380 1379.21,-383.5 1389.21,-387 1389.21,-380"/>
<text text-anchor="middle" x="1454.5" y="-386.5" font-family="Helvetica,sans-Serif" font-size="10.00"> elements</text>
</g>
<!-- Node20 -->
<g id="node20" class="node"><title>Node20</title>
<polygon fill="white" stroke="#bfbfbf" points="1512,-324.5 1512,-354.5 1640,-354.5 1640,-324.5 1512,-324.5"/>
<text text-anchor="start" x="1520" y="-342.5" font-family="Helvetica,sans-Serif" font-size="10.00">std::vector&lt; suballocation</text>
<text text-anchor="middle" x="1576" y="-331.5" font-family="Helvetica,sans-Serif" font-size="10.00">List::iterator &gt;</text>
</g>
<!-- Node20&#45;&gt;Node17 -->
<g id="edge20" class="edge"><title>Node20&#45;&gt;Node17</title>
<path fill="none" stroke="#9a32cd" stroke-dasharray="5,2" d="M1650.66,-338.56C1688.17,-338.081 1732.64,-337.513 1765.38,-337.095"/>
<polygon fill="#9a32cd" stroke="#9a32cd" points="1650.24,-335.065 1640.28,-338.692 1650.33,-342.064 1650.24,-335.065"/>
<text text-anchor="middle" x="1701" y="-341.5" font-family="Helvetica,sans-Serif" font-size="10.00"> availSuballocations</text>
</g>
<!-- Node21 -->
<g id="node21" class="node"><title>Node21</title>
<g id="a_node21"><a xlink:title="STL iterator class. ">
<polygon fill="white" stroke="#bfbfbf" points="1278.5,-330 1278.5,-349 1386.5,-349 1386.5,-330 1278.5,-330"/>
<text text-anchor="middle" x="1332.5" y="-337" font-family="Helvetica,sans-Serif" font-size="10.00">std::list&lt; T &gt;::iterator</text>
</a>
</g>
</g>
<!-- Node21&#45;&gt;Node20 -->
<g id="edge21" class="edge"><title>Node21&#45;&gt;Node20</title>
<path fill="none" stroke="#9a32cd" stroke-dasharray="5,2" d="M1397.04,-339.5C1432.53,-339.5 1476.6,-339.5 1512,-339.5"/>
<polygon fill="#9a32cd" stroke="#9a32cd" points="1396.8,-336 1386.8,-339.5 1396.8,-343 1396.8,-336"/>
<text text-anchor="middle" x="1454.5" y="-342.5" font-family="Helvetica,sans-Serif" font-size="10.00"> elements</text>
</g>
<!-- Node22 -->
<g id="node22" class="node"><title>Node22</title>
<polygon fill="white" stroke="#bfbfbf" points="1277,-220 1277,-261 1388,-261 1388,-220 1277,-220"/>
<text text-anchor="start" x="1285" y="-249" font-family="Helvetica,sans-Serif" font-size="10.00">std::unordered_set</text>
<text text-anchor="start" x="1285" y="-238" font-family="Helvetica,sans-Serif" font-size="10.00">&lt; std::unique_ptr&lt; vpr</text>
<text text-anchor="middle" x="1332.5" y="-227" font-family="Helvetica,sans-Serif" font-size="10.00">::Allocation &gt; &gt;</text>
</g>
<!-- Node22&#45;&gt;Node10 -->
<g id="edge24" class="edge"><title>Node22&#45;&gt;Node10</title>
<path fill="none" stroke="#9a32cd" stroke-dasharray="5,2" d="M1398.34,-240.5C1443.66,-240.5 1502.48,-240.5 1539.49,-240.5"/>
<polygon fill="#9a32cd" stroke="#9a32cd" points="1398.3,-237 1388.3,-240.5 1398.3,-244 1398.3,-237"/>
<text text-anchor="middle" x="1454.5" y="-243.5" font-family="Helvetica,sans-Serif" font-size="10.00"> privateAllocations</text>
</g>
<!-- Node23 -->
<g id="node23" class="node"><title>Node23</title>
<polygon fill="white" stroke="#bfbfbf" points="1018.5,-235.5 1018.5,-265.5 1120.5,-265.5 1120.5,-235.5 1018.5,-235.5"/>
<text text-anchor="start" x="1026.5" y="-253.5" font-family="Helvetica,sans-Serif" font-size="10.00">std::unique_ptr&lt; vpr</text>
<text text-anchor="middle" x="1069.5" y="-242.5" font-family="Helvetica,sans-Serif" font-size="10.00">::Allocation &gt;</text>
</g>
<!-- Node23&#45;&gt;Node22 -->
<g id="edge25" class="edge"><title>Node23&#45;&gt;Node22</title>
<path fill="none" stroke="#9a32cd" stroke-dasharray="5,2" d="M1130.51,-248.201C1174.56,-246.513 1233.92,-244.239 1276.7,-242.6"/>
<polygon fill="#9a32cd" stroke="#9a32cd" points="1130.37,-244.703 1120.51,-248.584 1130.64,-251.698 1130.37,-244.703"/>
<text text-anchor="middle" x="1204" y="-250.5" font-family="Helvetica,sans-Serif" font-size="10.00"> keys</text>
</g>
<!-- Node24 -->
<g id="node24" class="node"><title>Node24</title>
<g id="a_node24"><a xlink:href="classvpr_1_1_allocation.html" target="_top" xlink:title="Allocation class represents a singular allocation: can be a private allocation (i.e, only user of attached DeviceMemory) or a block allocation (bound to sub&#45;region of device memory) ">
<polygon fill="white" stroke="black" points="787.5,-241 787.5,-260 864.5,-260 864.5,-241 787.5,-241"/>
<text text-anchor="middle" x="826" y="-248" font-family="Helvetica,sans-Serif" font-size="10.00">vpr::Allocation</text>
</a>
</g>
</g>
<!-- Node24&#45;&gt;Node23 -->
<g id="edge26" class="edge"><title>Node24&#45;&gt;Node23</title>
<path fill="none" stroke="#9a32cd" stroke-dasharray="5,2" d="M874.875,-250.5C916.405,-250.5 976.308,-250.5 1018.46,-250.5"/>
<polygon fill="#9a32cd" stroke="#9a32cd" points="874.734,-247 864.734,-250.5 874.734,-254 874.734,-247"/>
<text text-anchor="middle" x="938" y="-253.5" font-family="Helvetica,sans-Serif" font-size="10.00"> ptr</text>
</g>
<!-- Node25 -->
<g id="node25" class="node"><title>Node25</title>
<polygon fill="white" stroke="#bfbfbf" points="1268,-280.5 1268,-310.5 1397,-310.5 1397,-280.5 1268,-280.5"/>
<text text-anchor="start" x="1276" y="-298.5" font-family="Helvetica,sans-Serif" font-size="10.00">std::map&lt; AllocationSize,</text>
<text text-anchor="middle" x="1332.5" y="-287.5" font-family="Helvetica,sans-Serif" font-size="10.00"> std::vector&lt; bool &gt; &gt;</text>
</g>
<!-- Node25&#45;&gt;Node10 -->
<g id="edge27" class="edge"><title>Node25&#45;&gt;Node10</title>
<path fill="none" stroke="#9a32cd" stroke-dasharray="5,2" d="M1407.04,-278.751C1450.92,-268.757 1504.68,-256.515 1539.37,-248.615"/>
<polygon fill="#9a32cd" stroke="#9a32cd" points="1406.24,-275.344 1397.27,-280.977 1407.79,-282.169 1406.24,-275.344"/>
<text text-anchor="middle" x="1454.5" y="-279.5" font-family="Helvetica,sans-Serif" font-size="10.00"> emptyAllocations</text>
</g>
<!-- Node26 -->
<g id="node26" class="node"><title>Node26</title>
<polygon fill="white" stroke="#bfbfbf" points="1020.5,-286 1020.5,-305 1118.5,-305 1118.5,-286 1020.5,-286"/>
<text text-anchor="middle" x="1069.5" y="-293" font-family="Helvetica,sans-Serif" font-size="10.00">std::vector&lt; bool &gt;</text>
</g>
<!-- Node26&#45;&gt;Node25 -->
<g id="edge28" class="edge"><title>Node26&#45;&gt;Node25</title>
<path fill="none" stroke="#9a32cd" stroke-dasharray="5,2" d="M1128.85,-295.5C1170.12,-295.5 1225.44,-295.5 1267.85,-295.5"/>
<polygon fill="#9a32cd" stroke="#9a32cd" points="1128.68,-292 1118.68,-295.5 1128.68,-299 1128.68,-292"/>
<text text-anchor="middle" x="1204" y="-298.5" font-family="Helvetica,sans-Serif" font-size="10.00"> elements</text>
</g>
<!-- Node27&#45;&gt;Node1 -->
<g id="edge29" class="edge"><title>Node27&#45;&gt;Node1</title>
<path fill="none" stroke="#9a32cd" stroke-dasharray="5,2" d="M1115.45,-40.368C1164.79,-48.1647 1238.55,-60.6825 1250,-67.5 1288.1,-90.1887 1316.02,-137.601 1326.71,-157.921"/>
<polygon fill="#9a32cd" stroke="#9a32cd" points="1115.75,-36.8718 1105.32,-38.7797 1114.66,-43.7872 1115.75,-36.8718"/>
<text text-anchor="middle" x="1204" y="-70.5" font-family="Helvetica,sans-Serif" font-size="10.00"> parentInstance</text>
</g>
<!-- Node30 -->
<g id="node30" class="node"><title>Node30</title>
<g id="a_node30"><a xlink:href="classvpr_1_1_surface_k_h_r.html" target="_top" xlink:title="The bare&#45;minimum required to wrap a VkSurfaceKHR object. ">
<polygon fill="white" stroke="black" points="1288.5,-27 1288.5,-46 1376.5,-46 1376.5,-27 1288.5,-27"/>
<text text-anchor="middle" x="1332.5" y="-34" font-family="Helvetica,sans-Serif" font-size="10.00">vpr::SurfaceKHR</text>
</a>
</g>
</g>
<!-- Node27&#45;&gt;Node30 -->
<g id="edge35" class="edge"><title>Node27&#45;&gt;Node30</title>
<path fill="none" stroke="#9a32cd" stroke-dasharray="5,2" d="M1115.51,-33.5145C1151.81,-33.5831 1204.2,-33.8105 1250,-34.5 1262.45,-34.6875 1275.98,-34.9824 1288.36,-35.2887"/>
<polygon fill="#9a32cd" stroke="#9a32cd" points="1115.25,-30.0142 1105.25,-33.4985 1115.24,-37.0142 1115.25,-30.0142"/>
<text text-anchor="middle" x="1204" y="-37.5" font-family="Helvetica,sans-Serif" font-size="10.00"> parent</text>
</g>
<!-- Node28&#45;&gt;Node27 -->
<g id="edge30" class="edge"><title>Node28&#45;&gt;Node27</title>
<path fill="none" stroke="#9a32cd" stroke-dasharray="5,2" d="M887.226,-41.7568C933.406,-39.6534 995.515,-36.8244 1033.74,-35.0834"/>
<polygon fill="#9a32cd" stroke="#9a32cd" points="886.869,-38.2693 877.039,-42.2208 887.188,-45.2621 886.869,-38.2693"/>
<text text-anchor="middle" x="938" y="-44.5" font-family="Helvetica,sans-Serif" font-size="10.00"> physicalDevice</text>
</g>
<!-- Node29 -->
<g id="node29" class="node"><title>Node29</title>
<polygon fill="white" stroke="#bfbfbf" points="1525,-0.5 1525,-30.5 1627,-30.5 1627,-0.5 1525,-0.5"/>
<text text-anchor="start" x="1533" y="-18.5" font-family="Helvetica,sans-Serif" font-size="10.00">std::unique_ptr&lt; vpr</text>
<text text-anchor="middle" x="1576" y="-7.5" font-family="Helvetica,sans-Serif" font-size="10.00">::SurfaceKHR &gt;</text>
</g>
<!-- Node29&#45;&gt;Node27 -->
<g id="edge33" class="edge"><title>Node29&#45;&gt;Node27</title>
<path fill="none" stroke="#9a32cd" stroke-dasharray="5,2" d="M1514.41,-11.6762C1480,-9.69503 1436.11,-7.48799 1397,-6.5 1339.68,-5.05195 1325.2,-2.60815 1268,-6.5 1210.68,-10.3996 1144.66,-20.5946 1105.32,-27.281"/>
<polygon fill="#9a32cd" stroke="#9a32cd" points="1514.58,-15.1922 1524.77,-12.2821 1514.99,-8.2041 1514.58,-15.1922"/>
<text text-anchor="middle" x="1332.5" y="-9.5" font-family="Helvetica,sans-Serif" font-size="10.00"> surface</text>
</g>
<!-- Node30&#45;&gt;Node29 -->
<g id="edge34" class="edge"><title>Node30&#45;&gt;Node29</title>
<path fill="none" stroke="#9a32cd" stroke-dasharray="5,2" d="M1386.77,-31.8674C1427.88,-28.2933 1484.34,-23.3834 1524.68,-19.8755"/>
<polygon fill="#9a32cd" stroke="#9a32cd" points="1386.33,-28.3924 1376.68,-32.7456 1386.94,-35.3661 1386.33,-28.3924"/>
<text text-anchor="middle" x="1454.5" y="-32.5" font-family="Helvetica,sans-Serif" font-size="10.00"> ptr</text>
</g>
</g>
</svg>
