<?xml version="1.0" encoding="UTF-8" standalone="no"?>
<!DOCTYPE svg PUBLIC "-//W3C//DTD SVG 1.1//EN"
 "http://www.w3.org/Graphics/SVG/1.1/DTD/svg11.dtd">
<!-- Generated by graphviz version 2.38.0 (20140413.2041)
 -->
<!-- Title: vpr::Allocator::Allocator Pages: 1 -->
<svg width="500pt" height="181pt"
 viewBox="0.00 0.00 500.00 181.00" xmlns="http://www.w3.org/2000/svg" xmlns:xlink="http://www.w3.org/1999/xlink">
<g id="graph0" class="graph" transform="scale(1 1) rotate(0) translate(4 177)">
<title>vpr::Allocator::Allocator</title>
<polygon fill="white" stroke="none" points="-4,4 -4,-177 496,-177 496,4 -4,4"/>
<!-- Node4 -->
<g id="node1" class="node"><title>Node4</title>
<polygon fill="#bfbfbf" stroke="black" points="0,-79 0,-98 117,-98 117,-79 0,-79"/>
<text text-anchor="middle" x="58.5" y="-86" font-family="Helvetica,sans-Serif" font-size="10.00">vpr::Allocator::Allocator</text>
</g>
<!-- Node5 -->
<g id="node2" class="node"><title>Node5</title>
<g id="a_node2"><a xlink:href="classvpr_1_1_allocator.html#ae35a57af9edd668c0bd7e135de1973f8" target="_top" xlink:title="vpr::Allocator::createAllocationMaps">
<polygon fill="white" stroke="black" points="153,-148 153,-167 326,-167 326,-148 153,-148"/>
<text text-anchor="middle" x="239.5" y="-155" font-family="Helvetica,sans-Serif" font-size="10.00">vpr::Allocator::createAllocationMaps</text>
</a>
</g>
</g>
<!-- Node4&#45;&gt;Node5 -->
<g id="edge1" class="edge"><title>Node4&#45;&gt;Node5</title>
<path fill="none" stroke="midnightblue" d="M74.8202,-98.0829C92.8947,-109.015 124.144,-126.762 153,-137.5 161.097,-140.513 169.799,-143.172 178.441,-145.487"/>
<polygon fill="midnightblue" stroke="midnightblue" points="177.584,-148.88 188.138,-147.953 179.31,-142.096 177.584,-148.88"/>
</g>
<!-- Node7 -->
<g id="node4" class="node"><title>Node7</title>
<g id="a_node4"><a xlink:href="classvpr_1_1_allocator.html#a5babc9b4c2391bea64a4f9f26ea04257" target="_top" xlink:title="vpr::Allocator::fetchAlloc\lFunctionPointersKHR">
<polygon fill="white" stroke="black" points="178.5,-98.5 178.5,-128.5 300.5,-128.5 300.5,-98.5 178.5,-98.5"/>
<text text-anchor="start" x="186.5" y="-116.5" font-family="Helvetica,sans-Serif" font-size="10.00">vpr::Allocator::fetchAlloc</text>
<text text-anchor="middle" x="239.5" y="-105.5" font-family="Helvetica,sans-Serif" font-size="10.00">FunctionPointersKHR</text>
</a>
</g>
</g>
<!-- Node4&#45;&gt;Node7 -->
<g id="edge3" class="edge"><title>Node4&#45;&gt;Node7</title>
<path fill="none" stroke="midnightblue" d="M117.122,-96.5478C133.287,-98.8055 151.049,-101.286 167.878,-103.637"/>
<polygon fill="midnightblue" stroke="midnightblue" points="167.825,-107.163 178.213,-105.08 168.793,-100.23 167.825,-107.163"/>
</g>
<!-- Node9 -->
<g id="node6" class="node"><title>Node9</title>
<g id="a_node6"><a xlink:href="classvpr_1_1_device.html#adf45896758bbbbe38a3b2011c29b568c" target="_top" xlink:title="vpr::Device::GetPhysical\lDeviceMemoryProperties">
<polygon fill="white" stroke="black" points="177,-49.5 177,-79.5 302,-79.5 302,-49.5 177,-49.5"/>
<text text-anchor="start" x="185" y="-67.5" font-family="Helvetica,sans-Serif" font-size="10.00">vpr::Device::GetPhysical</text>
<text text-anchor="middle" x="239.5" y="-56.5" font-family="Helvetica,sans-Serif" font-size="10.00">DeviceMemoryProperties</text>
</a>
</g>
</g>
<!-- Node4&#45;&gt;Node9 -->
<g id="edge5" class="edge"><title>Node4&#45;&gt;Node9</title>
<path fill="none" stroke="midnightblue" d="M117.122,-80.7741C132.949,-78.6521 150.306,-76.3249 166.819,-74.1108"/>
<polygon fill="midnightblue" stroke="midnightblue" points="167.525,-77.5477 176.971,-72.7497 166.594,-70.6097 167.525,-77.5477"/>
</g>
<!-- Node11 -->
<g id="node8" class="node"><title>Node11</title>
<g id="a_node8"><a xlink:href="classvpr_1_1_device.html#a1280b60865e8685bd670543e53291622" target="_top" xlink:title="vpr::Device::GetPhysical\lDeviceProperties">
<polygon fill="white" stroke="black" points="178.5,-0.5 178.5,-30.5 300.5,-30.5 300.5,-0.5 178.5,-0.5"/>
<text text-anchor="start" x="186.5" y="-18.5" font-family="Helvetica,sans-Serif" font-size="10.00">vpr::Device::GetPhysical</text>
<text text-anchor="middle" x="239.5" y="-7.5" font-family="Helvetica,sans-Serif" font-size="10.00">DeviceProperties</text>
</a>
</g>
</g>
<!-- Node4&#45;&gt;Node11 -->
<g id="edge7" class="edge"><title>Node4&#45;&gt;Node11</title>
<path fill="none" stroke="midnightblue" d="M75.2318,-78.9483C93.4342,-68.2095 124.557,-50.8006 153,-39.5 158.104,-37.472 163.444,-35.5436 168.854,-33.7265"/>
<polygon fill="midnightblue" stroke="midnightblue" points="170.187,-36.9743 178.634,-30.5782 168.042,-30.311 170.187,-36.9743"/>
</g>
<!-- Node6 -->
<g id="node3" class="node"><title>Node6</title>
<g id="a_node3"><a xlink:href="classvpr_1_1_allocator.html#a4277250f2867fd5b729bc78e7dc5eb6f" target="_top" xlink:title="vpr::Allocator::GetMemory\lTypeCount">
<polygon fill="white" stroke="black" points="362,-142.5 362,-172.5 492,-172.5 492,-142.5 362,-142.5"/>
<text text-anchor="start" x="370" y="-160.5" font-family="Helvetica,sans-Serif" font-size="10.00">vpr::Allocator::GetMemory</text>
<text text-anchor="middle" x="427" y="-149.5" font-family="Helvetica,sans-Serif" font-size="10.00">TypeCount</text>
</a>
</g>
</g>
<!-- Node5&#45;&gt;Node6 -->
<g id="edge2" class="edge"><title>Node5&#45;&gt;Node6</title>
<path fill="none" stroke="midnightblue" d="M326.191,-157.5C334.695,-157.5 343.278,-157.5 351.653,-157.5"/>
<polygon fill="midnightblue" stroke="midnightblue" points="351.745,-161 361.745,-157.5 351.745,-154 351.745,-161"/>
</g>
<!-- Node8 -->
<g id="node5" class="node"><title>Node8</title>
<g id="a_node5"><a xlink:href="classvpr_1_1_device.html#a59882855173bef0b13a17b376ea01d45" target="_top" xlink:title="vpr::Device::vkHandle">
<polygon fill="white" stroke="black" points="373,-104 373,-123 481,-123 481,-104 373,-104"/>
<text text-anchor="middle" x="427" y="-111" font-family="Helvetica,sans-Serif" font-size="10.00">vpr::Device::vkHandle</text>
</a>
</g>
</g>
<!-- Node7&#45;&gt;Node8 -->
<g id="edge4" class="edge"><title>Node7&#45;&gt;Node8</title>
<path fill="none" stroke="midnightblue" d="M300.727,-113.5C320.546,-113.5 342.634,-113.5 362.676,-113.5"/>
<polygon fill="midnightblue" stroke="midnightblue" points="362.948,-117 372.948,-113.5 362.948,-110 362.948,-117"/>
</g>
<!-- Node10 -->
<g id="node7" class="node"><title>Node10</title>
<g id="a_node7"><a xlink:href="classvpr_1_1_physical_device.html#a1d9827e465aa6c51331bec797d2318f3" target="_top" xlink:title="vpr::PhysicalDevice\l::GetMemoryProperties">
<polygon fill="white" stroke="black" points="368,-49.5 368,-79.5 486,-79.5 486,-49.5 368,-49.5"/>
<text text-anchor="start" x="376" y="-67.5" font-family="Helvetica,sans-Serif" font-size="10.00">vpr::PhysicalDevice</text>
<text text-anchor="middle" x="427" y="-56.5" font-family="Helvetica,sans-Serif" font-size="10.00">::GetMemoryProperties</text>
</a>
</g>
</g>
<!-- Node9&#45;&gt;Node10 -->
<g id="edge6" class="edge"><title>Node9&#45;&gt;Node10</title>
<path fill="none" stroke="midnightblue" d="M302.011,-64.5C319.814,-64.5 339.356,-64.5 357.555,-64.5"/>
<polygon fill="midnightblue" stroke="midnightblue" points="357.798,-68.0001 367.798,-64.5 357.798,-61.0001 357.798,-68.0001"/>
</g>
<!-- Node12 -->
<g id="node9" class="node"><title>Node12</title>
<g id="a_node9"><a xlink:href="classvpr_1_1_physical_device.html#a395785af128c95f3098203a0b32f99ed" target="_top" xlink:title="vpr::PhysicalDevice\l::GetProperties">
<polygon fill="white" stroke="black" points="376.5,-0.5 376.5,-30.5 477.5,-30.5 477.5,-0.5 376.5,-0.5"/>
<text text-anchor="start" x="384.5" y="-18.5" font-family="Helvetica,sans-Serif" font-size="10.00">vpr::PhysicalDevice</text>
<text text-anchor="middle" x="427" y="-7.5" font-family="Helvetica,sans-Serif" font-size="10.00">::GetProperties</text>
</a>
</g>
</g>
<!-- Node11&#45;&gt;Node12 -->
<g id="edge8" class="edge"><title>Node11&#45;&gt;Node12</title>
<path fill="none" stroke="midnightblue" d="M300.727,-15.5C321.728,-15.5 345.276,-15.5 366.239,-15.5"/>
<polygon fill="midnightblue" stroke="midnightblue" points="366.3,-19.0001 376.3,-15.5 366.3,-12.0001 366.3,-19.0001"/>
</g>
</g>
</svg>
