<?xml version="1.0" encoding="UTF-8" standalone="no"?>
<!DOCTYPE svg PUBLIC "-//W3C//DTD SVG 1.1//EN"
 "http://www.w3.org/Graphics/SVG/1.1/DTD/svg11.dtd">
<!-- Generated by graphviz version 2.38.0 (20140413.2041)
 -->
<!-- Title: el::base::utils::Str::replaceFirstWithEscape Pages: 1 -->
<!--zoomable 235 -->
<svg id="main" version="1.1" xmlns="http://www.w3.org/2000/svg" xmlns:xlink="http://www.w3.org/1999/xlink" xml:space="preserve" onload="init(evt)">
<style type="text/css"><![CDATA[
.edge:hover path { stroke: red; }
.edge:hover polygon { stroke: red; fill: red; }
]]></style>
<script type="text/javascript"><![CDATA[
var edges = document.getElementsByTagName('g');
if (edges && edges.length) {
  for (var i=0;i<edges.length;i++) {
    if (edges[i].id.substr(0,4)=='edge') {
      edges[i].setAttribute('class','edge');
    }
  }
}
]]></script>
        <defs>
                <circle id="rim" cx="0" cy="0" r="7"/>
                <circle id="rim2" cx="0" cy="0" r="3.5"/>
                <g id="zoomPlus">
                        <use xlink:href="#rim" fill="#404040">
                                <set attributeName="fill" to="#808080" begin="zoomplus.mouseover" end="zoomplus.mouseout"/>
                        </use>
                        <path d="M-4,0h8M0,-4v8" fill="none" stroke="white" stroke-width="1.5" pointer-events="none"/>
                </g>
                <g id="zoomMin">
                        <use xlink:href="#rim" fill="#404040">
                                <set attributeName="fill" to="#808080" begin="zoomminus.mouseover" end="zoomminus.mouseout"/>
                        </use>
                        <path d="M-4,0h8" fill="none" stroke="white" stroke-width="1.5" pointer-events="none"/>
                </g>
                <g id="dirArrow">
                        <path fill="none" stroke="white" stroke-width="1.5" d="M0,-3.0v7 M-2.5,-0.5L0,-3.0L2.5,-0.5"/>
                </g>
               <g id="resetDef">
                       <use xlink:href="#rim2" fill="#404040">
                               <set attributeName="fill" to="#808080" begin="reset.mouseover" end="reset.mouseout"/>
                       </use>
               </g>
        </defs>

<script type="text/javascript">
var viewWidth = 978;
var viewHeight = 235;
var sectionId = 'dynsection-10';
</script>
<script xlink:href="svgpan.js"/>
<svg id="graph" class="graph">
<g id="viewport">
<title>el::base::utils::Str::replaceFirstWithEscape</title>
<polygon fill="white" stroke="none" points="-4,4 -4,-231 974,-231 974,4 -4,4"/>
<!-- Node37 -->
<g id="node1" class="node"><title>Node37</title>
<polygon fill="#bfbfbf" stroke="black" points="0,-74.5 0,-104.5 127,-104.5 127,-74.5 0,-74.5"/>
<text text-anchor="start" x="8" y="-92.5" font-family="Helvetica,sans-Serif" font-size="10.00">el::base::utils::Str</text>
<text text-anchor="middle" x="63.5" y="-81.5" font-family="Helvetica,sans-Serif" font-size="10.00">::replaceFirstWithEscape</text>
</g>
<!-- Node38 -->
<g id="node2" class="node"><title>Node38</title>
<g id="a_node2"><a xlink:href="classel_1_1base_1_1_default_log_builder.html#a9ee7983bc51f1fac887806e909ecbbbd" target="_top" xlink:title="el::base::DefaultLogBuilder\l::build">
<polygon fill="white" stroke="black" points="163,-123.5 163,-153.5 296,-153.5 296,-123.5 163,-123.5"/>
<text text-anchor="start" x="171" y="-141.5" font-family="Helvetica,sans-Serif" font-size="10.00">el::base::DefaultLogBuilder</text>
<text text-anchor="middle" x="229.5" y="-130.5" font-family="Helvetica,sans-Serif" font-size="10.00">::build</text>
</a>
</g>
</g>
<!-- Node37&#45;&gt;Node38 -->
<g id="edge1" class="edge"><title>Node37&#45;&gt;Node38</title>
<path fill="none" stroke="midnightblue" d="M124.634,-107.467C142.206,-112.717 161.223,-118.399 178.123,-123.448"/>
<polygon fill="midnightblue" stroke="midnightblue" points="125.627,-104.111 115.044,-104.601 123.623,-110.818 125.627,-104.111"/>
</g>
<!-- Node39 -->
<g id="node3" class="node"><title>Node39</title>
<g id="a_node3"><a xlink:href="classel_1_1_logger.html#acfb9ef869b9b4dc3efd78d7f64b8bebd" target="_top" xlink:title="el::Logger::resolveLogger\lFormatSpec">
<polygon fill="white" stroke="black" points="167,-74.5 167,-104.5 292,-104.5 292,-74.5 167,-74.5"/>
<text text-anchor="start" x="175" y="-92.5" font-family="Helvetica,sans-Serif" font-size="10.00">el::Logger::resolveLogger</text>
<text text-anchor="middle" x="229.5" y="-81.5" font-family="Helvetica,sans-Serif" font-size="10.00">FormatSpec</text>
</a>
</g>
</g>
<!-- Node37&#45;&gt;Node39 -->
<g id="edge2" class="edge"><title>Node37&#45;&gt;Node39</title>
<path fill="none" stroke="midnightblue" d="M137.538,-89.5C147.312,-89.5 157.259,-89.5 166.813,-89.5"/>
<polygon fill="midnightblue" stroke="midnightblue" points="137.438,-86.0001 127.438,-89.5 137.438,-93.0001 137.438,-86.0001"/>
</g>
<!-- Node51 -->
<g id="node15" class="node"><title>Node51</title>
<g id="a_node15"><a xlink:href="classel_1_1base_1_1_log_format.html#aa3c2ddecf237d0ec3eca4b2a3a442e67" target="_top" xlink:title="Updates level from format. This is so that we dont have to do it at log&#45;writing&#45;time. It uses m_format and m_level. ">
<polygon fill="white" stroke="black" points="177,-19.5 177,-49.5 282,-49.5 282,-19.5 177,-19.5"/>
<text text-anchor="start" x="185" y="-37.5" font-family="Helvetica,sans-Serif" font-size="10.00">el::base::LogFormat</text>
<text text-anchor="middle" x="229.5" y="-26.5" font-family="Helvetica,sans-Serif" font-size="10.00">::updateFormatSpec</text>
</a>
</g>
</g>
<!-- Node37&#45;&gt;Node51 -->
<g id="edge14" class="edge"><title>Node37&#45;&gt;Node51</title>
<path fill="none" stroke="midnightblue" d="M119.06,-71.2023C140.059,-64.1602 163.77,-56.2081 183.74,-49.5108"/>
<polygon fill="midnightblue" stroke="midnightblue" points="117.682,-67.973 109.314,-74.471 119.908,-74.6097 117.682,-67.973"/>
</g>
<!-- Node40 -->
<g id="node4" class="node"><title>Node40</title>
<g id="a_node4"><a xlink:href="classel_1_1_logger.html#ad9db621dbf8977bf814dc7baea8dcee4" target="_top" xlink:title="Configures the logger using specified configurations. ">
<polygon fill="white" stroke="black" points="332,-104 332,-123 436,-123 436,-104 332,-104"/>
<text text-anchor="middle" x="384" y="-111" font-family="Helvetica,sans-Serif" font-size="10.00">el::Logger::configure</text>
</a>
</g>
</g>
<!-- Node39&#45;&gt;Node40 -->
<g id="edge3" class="edge"><title>Node39&#45;&gt;Node40</title>
<path fill="none" stroke="midnightblue" d="M302.096,-100.768C312.167,-102.353 322.346,-103.955 331.928,-105.462"/>
<polygon fill="midnightblue" stroke="midnightblue" points="302.511,-97.2898 292.088,-99.1925 301.422,-104.205 302.511,-97.2898"/>
</g>
<!-- Node41 -->
<g id="node5" class="node"><title>Node41</title>
<g id="a_node5"><a xlink:href="classel_1_1_loggers.html#adedfcc17831fe3d3f14026c91e8df88c" target="_top" xlink:title="Sets configurations from global configuration file. ">
<polygon fill="white" stroke="black" points="472,-180.5 472,-210.5 604,-210.5 604,-180.5 472,-180.5"/>
<text text-anchor="start" x="480" y="-198.5" font-family="Helvetica,sans-Serif" font-size="10.00">el::Loggers::configureFrom</text>
<text text-anchor="middle" x="538" y="-187.5" font-family="Helvetica,sans-Serif" font-size="10.00">Global</text>
</a>
</g>
</g>
<!-- Node40&#45;&gt;Node41 -->
<g id="edge4" class="edge"><title>Node40&#45;&gt;Node41</title>
<path fill="none" stroke="midnightblue" d="M405.926,-129.036C423.088,-141.322 448.326,-158.367 472,-170.5 478.886,-174.029 486.392,-177.356 493.777,-180.362"/>
<polygon fill="midnightblue" stroke="midnightblue" points="407.888,-126.136 397.739,-123.097 403.778,-131.802 407.888,-126.136"/>
</g>
<!-- Node42 -->
<g id="node6" class="node"><title>Node42</title>
<g id="a_node6"><a xlink:href="classel_1_1_logger.html#a43abea8865d7316f05c8a676a8c04896" target="_top" xlink:title="el::Logger::Logger">
<polygon fill="white" stroke="black" points="490.5,-142 490.5,-161 585.5,-161 585.5,-142 490.5,-142"/>
<text text-anchor="middle" x="538" y="-149" font-family="Helvetica,sans-Serif" font-size="10.00">el::Logger::Logger</text>
</a>
</g>
</g>
<!-- Node40&#45;&gt;Node42 -->
<g id="edge5" class="edge"><title>Node40&#45;&gt;Node42</title>
<path fill="none" stroke="midnightblue" d="M433.16,-125.54C454.395,-130.849 478.995,-136.999 498.92,-141.98"/>
<polygon fill="midnightblue" stroke="midnightblue" points="433.906,-122.119 423.356,-123.089 432.209,-128.91 433.906,-122.119"/>
</g>
<!-- Node43 -->
<g id="node7" class="node"><title>Node43</title>
<g id="a_node7"><a xlink:href="classel_1_1_logger.html#adfd57ab27fb398cc980a3edfab92927e" target="_top" xlink:title="Reconfigures logger using existing configurations. ">
<polygon fill="white" stroke="black" points="481.5,-104 481.5,-123 594.5,-123 594.5,-104 481.5,-104"/>
<text text-anchor="middle" x="538" y="-111" font-family="Helvetica,sans-Serif" font-size="10.00">el::Logger::reconfigure</text>
</a>
</g>
</g>
<!-- Node40&#45;&gt;Node43 -->
<g id="edge6" class="edge"><title>Node40&#45;&gt;Node43</title>
<path fill="none" stroke="midnightblue" d="M446.127,-113.5C457.784,-113.5 469.926,-113.5 481.399,-113.5"/>
<polygon fill="midnightblue" stroke="midnightblue" points="446.037,-110 436.037,-113.5 446.037,-117 446.037,-110"/>
</g>
<!-- Node47 -->
<g id="node11" class="node"><title>Node47</title>
<g id="a_node11"><a xlink:href="classel_1_1_loggers.html#a02223004494a404a2c3e7cd0c4380d3b" target="_top" xlink:title="Reconfigures specified logger with new configurations. ">
<polygon fill="white" stroke="black" points="479,-51.5 479,-81.5 597,-81.5 597,-51.5 479,-51.5"/>
<text text-anchor="start" x="487" y="-69.5" font-family="Helvetica,sans-Serif" font-size="10.00">el::Loggers::reconfigure</text>
<text text-anchor="middle" x="538" y="-58.5" font-family="Helvetica,sans-Serif" font-size="10.00">Logger</text>
</a>
</g>
</g>
<!-- Node40&#45;&gt;Node47 -->
<g id="edge10" class="edge"><title>Node40&#45;&gt;Node47</title>
<path fill="none" stroke="midnightblue" d="M425.465,-100.988C444.783,-95.0145 468.054,-87.8187 488.331,-81.5488"/>
<polygon fill="midnightblue" stroke="midnightblue" points="424.279,-97.6909 415.759,-103.989 426.347,-104.378 424.279,-97.6909"/>
</g>
<!-- Node44 -->
<g id="node8" class="node"><title>Node44</title>
<g id="a_node8"><a xlink:href="classel_1_1_loggers.html#a396b601e204ede36f5a9acc76a8c5585" target="_top" xlink:title="Reconfigures single configuration for all the loggers for specified level. ">
<polygon fill="white" stroke="black" points="640,-196.5 640,-226.5 758,-226.5 758,-196.5 640,-196.5"/>
<text text-anchor="start" x="648" y="-214.5" font-family="Helvetica,sans-Serif" font-size="10.00">el::Loggers::reconfigure</text>
<text text-anchor="middle" x="699" y="-203.5" font-family="Helvetica,sans-Serif" font-size="10.00">AllLoggers</text>
</a>
</g>
</g>
<!-- Node43&#45;&gt;Node44 -->
<g id="edge7" class="edge"><title>Node43&#45;&gt;Node44</title>
<path fill="none" stroke="midnightblue" d="M595.975,-127.434C598.787,-128.952 601.484,-130.635 604,-132.5 627.472,-149.896 617.501,-168.863 640,-187.5 644.112,-190.906 648.775,-193.888 653.627,-196.483"/>
<polygon fill="midnightblue" stroke="midnightblue" points="597.225,-124.156 586.681,-123.125 594.281,-130.507 597.225,-124.156"/>
</g>
<!-- Node45 -->
<g id="node9" class="node"><title>Node45</title>
<g id="a_node9"><a xlink:href="classel_1_1_loggers.html#a89ec21259cfcfee3f761fca68c4ec043" target="_top" xlink:title="Reconfigures logger&#39;s single configuration. ">
<polygon fill="white" stroke="black" points="640,-147.5 640,-177.5 758,-177.5 758,-147.5 640,-147.5"/>
<text text-anchor="start" x="648" y="-165.5" font-family="Helvetica,sans-Serif" font-size="10.00">el::Loggers::reconfigure</text>
<text text-anchor="middle" x="699" y="-154.5" font-family="Helvetica,sans-Serif" font-size="10.00">Logger</text>
</a>
</g>
</g>
<!-- Node43&#45;&gt;Node45 -->
<g id="edge8" class="edge"><title>Node43&#45;&gt;Node45</title>
<path fill="none" stroke="midnightblue" d="M581.712,-125.823C589.151,-128.015 596.808,-130.301 604,-132.5 619.563,-137.257 636.52,-142.615 651.694,-147.473"/>
<polygon fill="midnightblue" stroke="midnightblue" points="582.695,-122.464 572.114,-123.009 580.726,-129.181 582.695,-122.464"/>
</g>
<!-- Node46 -->
<g id="node10" class="node"><title>Node46</title>
<g id="a_node10"><a xlink:href="classel_1_1base_1_1_storage.html#a4932a8f8a55c3b00467cf2feed6acf59" target="_top" xlink:title="el::base::Storage::\lStorage">
<polygon fill="white" stroke="black" points="650.5,-98.5 650.5,-128.5 747.5,-128.5 747.5,-98.5 650.5,-98.5"/>
<text text-anchor="start" x="658.5" y="-116.5" font-family="Helvetica,sans-Serif" font-size="10.00">el::base::Storage::</text>
<text text-anchor="middle" x="699" y="-105.5" font-family="Helvetica,sans-Serif" font-size="10.00">Storage</text>
</a>
</g>
</g>
<!-- Node43&#45;&gt;Node46 -->
<g id="edge9" class="edge"><title>Node43&#45;&gt;Node46</title>
<path fill="none" stroke="midnightblue" d="M605.002,-113.5C620.209,-113.5 636.095,-113.5 650.345,-113.5"/>
<polygon fill="midnightblue" stroke="midnightblue" points="604.611,-110 594.61,-113.5 604.61,-117 604.611,-110"/>
</g>
<!-- Node48 -->
<g id="node12" class="node"><title>Node48</title>
<g id="a_node12"><a xlink:href="classel_1_1_loggers.html#a42f99e79d72d391df563df8d09272194" target="_top" xlink:title="Reconfigures all the existing loggers with new configurations. ">
<polygon fill="white" stroke="black" points="640,-49.5 640,-79.5 758,-79.5 758,-49.5 640,-49.5"/>
<text text-anchor="start" x="648" y="-67.5" font-family="Helvetica,sans-Serif" font-size="10.00">el::Loggers::reconfigure</text>
<text text-anchor="middle" x="699" y="-56.5" font-family="Helvetica,sans-Serif" font-size="10.00">AllLoggers</text>
</a>
</g>
</g>
<!-- Node47&#45;&gt;Node48 -->
<g id="edge11" class="edge"><title>Node47&#45;&gt;Node48</title>
<path fill="none" stroke="midnightblue" d="M607.551,-65.6377C618.355,-65.5018 629.434,-65.3625 639.97,-65.2299"/>
<polygon fill="midnightblue" stroke="midnightblue" points="607.258,-62.141 597.303,-65.7666 607.346,-69.1405 607.258,-62.141"/>
</g>
<!-- Node50 -->
<g id="node14" class="node"><title>Node50</title>
<g id="a_node14"><a xlink:href="classel_1_1_loggers.html#af3252cc39fa4ac17b4abf50acf6b4c5e" target="_top" xlink:title="Reconfigures logger with new configurations after looking it up using identity. ">
<polygon fill="white" stroke="black" points="640,-0.5 640,-30.5 758,-30.5 758,-0.5 640,-0.5"/>
<text text-anchor="start" x="648" y="-18.5" font-family="Helvetica,sans-Serif" font-size="10.00">el::Loggers::reconfigure</text>
<text text-anchor="middle" x="699" y="-7.5" font-family="Helvetica,sans-Serif" font-size="10.00">Logger</text>
</a>
</g>
</g>
<!-- Node47&#45;&gt;Node50 -->
<g id="edge13" class="edge"><title>Node47&#45;&gt;Node50</title>
<path fill="none" stroke="midnightblue" d="M595.487,-48.3816C613.733,-42.5289 633.75,-36.1085 651.215,-30.5065"/>
<polygon fill="midnightblue" stroke="midnightblue" points="594.298,-45.0871 585.845,-51.4742 596.436,-51.7526 594.298,-45.0871"/>
</g>
<!-- Node49 -->
<g id="node13" class="node"><title>Node49</title>
<g id="a_node13"><a xlink:href="classel_1_1_loggers.html#a3f478b619f82cab39244ed8cde4778e2" target="_top" xlink:title="Sets default configurations. This configuration is used for future (and conditionally for existing) l...">
<polygon fill="white" stroke="black" points="794,-55 794,-74 970,-74 970,-55 794,-55"/>
<text text-anchor="middle" x="882" y="-62" font-family="Helvetica,sans-Serif" font-size="10.00">el::Loggers::setDefaultConfigurations</text>
</a>
</g>
</g>
<!-- Node48&#45;&gt;Node49 -->
<g id="edge12" class="edge"><title>Node48&#45;&gt;Node49</title>
<path fill="none" stroke="midnightblue" d="M768.299,-64.5C776.65,-64.5 785.271,-64.5 793.851,-64.5"/>
<polygon fill="midnightblue" stroke="midnightblue" points="768.266,-61.0001 758.266,-64.5 768.266,-68.0001 768.266,-61.0001"/>
</g>
<!-- Node52 -->
<g id="node16" class="node"><title>Node52</title>
<g id="a_node16"><a xlink:href="classel_1_1base_1_1_log_format.html#ab7c1b15cfdad24cfbc6dbced8b9d66eb" target="_top" xlink:title="Updates format to be used while logging. ">
<polygon fill="white" stroke="black" points="332,-7.5 332,-37.5 436,-37.5 436,-7.5 332,-7.5"/>
<text text-anchor="start" x="340" y="-25.5" font-family="Helvetica,sans-Serif" font-size="10.00">el::base::LogFormat</text>
<text text-anchor="middle" x="384" y="-14.5" font-family="Helvetica,sans-Serif" font-size="10.00">::parseFromFormat</text>
</a>
</g>
</g>
<!-- Node51&#45;&gt;Node52 -->
<g id="edge15" class="edge"><title>Node51&#45;&gt;Node52</title>
<path fill="none" stroke="midnightblue" d="M292.487,-29.6223C305.597,-28.5907 319.29,-27.5132 331.941,-26.5177"/>
<polygon fill="midnightblue" stroke="midnightblue" points="291.824,-26.1636 282.13,-30.4373 292.373,-33.142 291.824,-26.1636"/>
</g>
<!-- Node53 -->
<g id="node17" class="node"><title>Node53</title>
<g id="a_node17"><a xlink:href="classel_1_1base_1_1_log_format.html#a746a49231f1b046803dd2144ae2a2c76" target="_top" xlink:title="el::base::LogFormat\l::LogFormat">
<polygon fill="white" stroke="black" points="486,-2.5 486,-32.5 590,-32.5 590,-2.5 486,-2.5"/>
<text text-anchor="start" x="494" y="-20.5" font-family="Helvetica,sans-Serif" font-size="10.00">el::base::LogFormat</text>
<text text-anchor="middle" x="538" y="-9.5" font-family="Helvetica,sans-Serif" font-size="10.00">::LogFormat</text>
</a>
</g>
</g>
<!-- Node52&#45;&gt;Node53 -->
<g id="edge16" class="edge"><title>Node52&#45;&gt;Node53</title>
<path fill="none" stroke="midnightblue" d="M446.38,-20.4809C459.476,-20.0501 473.175,-19.5995 485.839,-19.1829"/>
<polygon fill="midnightblue" stroke="midnightblue" points="445.916,-16.9942 436.037,-20.8212 446.146,-23.9904 445.916,-16.9942"/>
</g>
</g>
</svg>
        <g id="navigator" transform="translate(0 0)" fill="#404254">
                <rect fill="#f2f5e9" fill-opacity="0.5" stroke="#606060" stroke-width=".5" x="0" y="0" width="60" height="60"/>
                <use id="zoomplus" xlink:href="#zoomPlus" x="17" y="9" onmousedown="handleZoom(evt,'in')"/>
                <use id="zoomminus" xlink:href="#zoomMin" x="42" y="9" onmousedown="handleZoom(evt,'out')"/>
                <use id="reset" xlink:href="#resetDef" x="30" y="36" onmousedown="handleReset()"/>
                <g id="arrowUp" xlink:href="#dirArrow" transform="translate(30 24)" onmousedown="handlePan(0,-1)">
                  <use xlink:href="#rim" fill="#404040">
                        <set attributeName="fill" to="#808080" begin="arrowUp.mouseover" end="arrowUp.mouseout"/>
                  </use>
                  <path fill="none" stroke="white" stroke-width="1.5" d="M0,-3.0v7 M-2.5,-0.5L0,-3.0L2.5,-0.5"/>
                </g>
                <g id="arrowRight" xlink:href="#dirArrow" transform="rotate(90) translate(36 -43)" onmousedown="handlePan(1,0)">
                  <use xlink:href="#rim" fill="#404040">
                        <set attributeName="fill" to="#808080" begin="arrowRight.mouseover" end="arrowRight.mouseout"/>
                  </use>
                  <path fill="none" stroke="white" stroke-width="1.5" d="M0,-3.0v7 M-2.5,-0.5L0,-3.0L2.5,-0.5"/>
                </g>
                <g id="arrowDown" xlink:href="#dirArrow" transform="rotate(180) translate(-30 -48)" onmousedown="handlePan(0,1)">
                  <use xlink:href="#rim" fill="#404040">
                        <set attributeName="fill" to="#808080" begin="arrowDown.mouseover" end="arrowDown.mouseout"/>
                  </use>
                  <path fill="none" stroke="white" stroke-width="1.5" d="M0,-3.0v7 M-2.5,-0.5L0,-3.0L2.5,-0.5"/>
                </g>
                <g id="arrowLeft" xlink:href="#dirArrow" transform="rotate(270) translate(-36 17)" onmousedown="handlePan(-1,0)">
                  <use xlink:href="#rim" fill="#404040">
                        <set attributeName="fill" to="#808080" begin="arrowLeft.mouseover" end="arrowLeft.mouseout"/>
                  </use>
                  <path fill="none" stroke="white" stroke-width="1.5" d="M0,-3.0v7 M-2.5,-0.5L0,-3.0L2.5,-0.5"/>
                </g>
        </g>
        <svg viewBox="0 0 15 15" width="100%" height="30px" preserveAspectRatio="xMaxYMin meet">
         <g id="arrow_out" transform="scale(0.3 0.3)">
          <a xlink:href="classel_1_1base_1_1utils_1_1_str_a0f271d7da2bb3c1f2fa062219c0e0ba2_icgraph_org.svg" target="_base">
           <rect id="button" ry="5" rx="5" y="6" x="6" height="38" width="38"
                fill="#f2f5e9" fill-opacity="0.5" stroke="#606060" stroke-width="1.0"/>
           <path id="arrow"
             d="M 11.500037,31.436501 C 11.940474,20.09759 22.043105,11.32322 32.158766,21.979434 L 37.068811,17.246167 C 37.068811,17.246167 37.088388,32 37.088388,32 L 22.160133,31.978069 C 22.160133,31.978069 26.997745,27.140456 26.997745,27.140456 C 18.528582,18.264221 13.291696,25.230495 11.500037,31.436501 z"
             style="fill:#404040;"/>
          </a>
         </g>
        </svg>
</svg>
