<?xml version="1.0" encoding="UTF-8" standalone="no"?>
<!DOCTYPE svg PUBLIC "-//W3C//DTD SVG 1.1//EN"
 "http://www.w3.org/Graphics/SVG/1.1/DTD/svg11.dtd">
<!-- Generated by graphviz version 2.38.0 (20140413.2041)
 -->
<!-- Title: vpr::Allocator Pages: 1 -->
<!--zoomable 520 -->
<svg id="main" version="1.1" xmlns="http://www.w3.org/2000/svg" xmlns:xlink="http://www.w3.org/1999/xlink" xml:space="preserve" onload="init(evt)">
<style type="text/css"><![CDATA[
.edge:hover path { stroke: red; }
.edge:hover polygon { stroke: red; fill: red; }
]]></style>
<script type="text/javascript"><![CDATA[
var edges = document.getElementsByTagName('g');
if (edges && edges.length) {
  for (var i=0;i<edges.length;i++) {
    if (edges[i].id.substr(0,4)=='edge') {
      edges[i].setAttribute('class','edge');
    }
  }
}
]]></script>
        <defs>
                <circle id="rim" cx="0" cy="0" r="7"/>
                <circle id="rim2" cx="0" cy="0" r="3.5"/>
                <g id="zoomPlus">
                        <use xlink:href="#rim" fill="#404040">
                                <set attributeName="fill" to="#808080" begin="zoomplus.mouseover" end="zoomplus.mouseout"/>
                        </use>
                        <path d="M-4,0h8M0,-4v8" fill="none" stroke="white" stroke-width="1.5" pointer-events="none"/>
                </g>
                <g id="zoomMin">
                        <use xlink:href="#rim" fill="#404040">
                                <set attributeName="fill" to="#808080" begin="zoomminus.mouseover" end="zoomminus.mouseout"/>
                        </use>
                        <path d="M-4,0h8" fill="none" stroke="white" stroke-width="1.5" pointer-events="none"/>
                </g>
                <g id="dirArrow">
                        <path fill="none" stroke="white" stroke-width="1.5" d="M0,-3.0v7 M-2.5,-0.5L0,-3.0L2.5,-0.5"/>
                </g>
               <g id="resetDef">
                       <use xlink:href="#rim2" fill="#404040">
                               <set attributeName="fill" to="#808080" begin="reset.mouseover" end="reset.mouseout"/>
                       </use>
               </g>
        </defs>

<script type="text/javascript">
var viewWidth = 2603;
var viewHeight = 520;
var sectionId = 'dynsection-0';
</script>
<script xlink:href="svgpan.js"/>
<svg id="graph" class="graph">
<g id="viewport">
<title>vpr::Allocator</title>
<polygon fill="white" stroke="none" points="-4,4 -4,-515.5 2599,-515.5 2599,4 -4,4"/>
<!-- Node1 -->
<g id="node1" class="node"><title>Node1</title>
<polygon fill="#bfbfbf" stroke="black" points="915.5,-262 915.5,-281 988.5,-281 988.5,-262 915.5,-262"/>
<text text-anchor="middle" x="952" y="-269" font-family="Helvetica,sans-Serif" font-size="10.00">vpr::Allocator</text>
</g>
<!-- Node5 -->
<g id="node5" class="node"><title>Node5</title>
<g id="a_node5"><a xlink:href="classvpr_1_1_allocation_collection.html" target="_top" xlink:title="An allocation collection is just a vector of MemoryBlocks of the same type. ">
<polygon fill="white" stroke="black" points="1812,-300 1812,-319 1932,-319 1932,-300 1812,-300"/>
<text text-anchor="middle" x="1872" y="-307" font-family="Helvetica,sans-Serif" font-size="10.00">vpr::AllocationCollection</text>
</a>
</g>
</g>
<!-- Node1&#45;&gt;Node5 -->
<g id="edge5" class="edge"><title>Node1&#45;&gt;Node5</title>
<path fill="none" stroke="#9a32cd" stroke-dasharray="5,2" d="M967.878,-254.1C996.922,-221.401 1064.76,-151.059 1138,-117.5 1221.56,-79.2093 1250.08,-83.5 1342,-83.5 1342,-83.5 1342,-83.5 1658,-83.5 1778.77,-83.5 1851.27,-256.531 1867.51,-299.789"/>
<polygon fill="#9a32cd" stroke="#9a32cd" points="964.995,-252.08 961.045,-261.911 970.264,-256.689 964.995,-252.08"/>
<text text-anchor="middle" x="1458" y="-86.5" font-family="Helvetica,sans-Serif" font-size="10.00"> allocator</text>
</g>
<!-- Node8 -->
<g id="node8" class="node"><title>Node8</title>
<g id="a_node8"><a xlink:href="classvpr_1_1_memory_block.html" target="_top" xlink:title="A MemoryBlock is a large contiguous region of Vulkan memory of a uniform type (device local...">
<polygon fill="white" stroke="black" points="1161,-435 1161,-454 1256,-454 1256,-435 1161,-435"/>
<text text-anchor="middle" x="1208.5" y="-442" font-family="Helvetica,sans-Serif" font-size="10.00">vpr::MemoryBlock</text>
</a>
</g>
</g>
<!-- Node1&#45;&gt;Node8 -->
<g id="edge13" class="edge"><title>Node1&#45;&gt;Node8</title>
<path fill="none" stroke="#9a32cd" stroke-dasharray="5,2" d="M959.351,-290.745C969.984,-319.855 994.225,-374.728 1034,-403.5 1054,-417.967 1116.43,-430.322 1160.65,-437.582"/>
<polygon fill="#9a32cd" stroke="#9a32cd" points="962.648,-289.569 956.046,-281.283 956.039,-291.878 962.648,-289.569"/>
<text text-anchor="middle" x="1077" y="-433.5" font-family="Helvetica,sans-Serif" font-size="10.00"> allocator</text>
</g>
<!-- Node21 -->
<g id="node21" class="node"><title>Node21</title>
<polygon fill="white" stroke="#bfbfbf" points="1157.5,-256.5 1157.5,-286.5 1259.5,-286.5 1259.5,-256.5 1157.5,-256.5"/>
<text text-anchor="start" x="1165.5" y="-274.5" font-family="Helvetica,sans-Serif" font-size="10.00">std::unique_ptr&lt; vpr</text>
<text text-anchor="middle" x="1208.5" y="-263.5" font-family="Helvetica,sans-Serif" font-size="10.00">::Allocator &gt;</text>
</g>
<!-- Node1&#45;&gt;Node21 -->
<g id="edge23" class="edge"><title>Node1&#45;&gt;Node21</title>
<path fill="none" stroke="#9a32cd" stroke-dasharray="5,2" d="M998.921,-271.5C1043.54,-271.5 1111.13,-271.5 1157.19,-271.5"/>
<polygon fill="#9a32cd" stroke="#9a32cd" points="998.655,-268 988.655,-271.5 998.655,-275 998.655,-268"/>
<text text-anchor="middle" x="1077" y="-274.5" font-family="Helvetica,sans-Serif" font-size="10.00"> ptr</text>
</g>
<!-- Node2 -->
<g id="node2" class="node"><title>Node2</title>
<polygon fill="white" stroke="#bfbfbf" points="2422,-315 2422,-356 2595,-356 2595,-315 2422,-315"/>
<text text-anchor="start" x="2430" y="-344" font-family="Helvetica,sans-Serif" font-size="10.00">std::map&lt; AllocationSize,</text>
<text text-anchor="start" x="2430" y="-333" font-family="Helvetica,sans-Serif" font-size="10.00"> std::vector&lt; std::unique</text>
<text text-anchor="middle" x="2508.5" y="-322" font-family="Helvetica,sans-Serif" font-size="10.00">_ptr&lt; vpr::AllocationCollection &gt; &gt; &gt;</text>
</g>
<!-- Node2&#45;&gt;Node1 -->
<g id="edge1" class="edge"><title>Node2&#45;&gt;Node1</title>
<path fill="none" stroke="#9a32cd" stroke-dasharray="5,2" d="M2411.72,-345.788C2366.39,-349.82 2311.47,-353.5 2262,-353.5 1207.5,-353.5 1207.5,-353.5 1207.5,-353.5 1113.96,-353.5 1010,-302.698 969.974,-281.067"/>
<polygon fill="#9a32cd" stroke="#9a32cd" points="2412.19,-349.26 2421.83,-344.869 2411.56,-342.289 2412.19,-349.26"/>
<text text-anchor="middle" x="1769" y="-356.5" font-family="Helvetica,sans-Serif" font-size="10.00"> allocations</text>
</g>
<!-- Node3 -->
<g id="node3" class="node"><title>Node3</title>
<polygon fill="white" stroke="#bfbfbf" points="2179,-294.5 2179,-324.5 2343,-324.5 2343,-294.5 2179,-294.5"/>
<text text-anchor="start" x="2187" y="-312.5" font-family="Helvetica,sans-Serif" font-size="10.00">std::vector&lt; std::unique</text>
<text text-anchor="middle" x="2261" y="-301.5" font-family="Helvetica,sans-Serif" font-size="10.00">_ptr&lt; vpr::AllocationCollection &gt; &gt;</text>
</g>
<!-- Node3&#45;&gt;Node2 -->
<g id="edge2" class="edge"><title>Node3&#45;&gt;Node2</title>
<path fill="none" stroke="#9a32cd" stroke-dasharray="5,2" d="M2353.27,-319.166C2375.73,-321.545 2399.7,-324.083 2421.88,-326.433"/>
<polygon fill="#9a32cd" stroke="#9a32cd" points="2353.38,-315.658 2343.07,-318.085 2352.64,-322.619 2353.38,-315.658"/>
<text text-anchor="middle" x="2382.5" y="-327.5" font-family="Helvetica,sans-Serif" font-size="10.00"> elements</text>
</g>
<!-- Node4 -->
<g id="node4" class="node"><title>Node4</title>
<polygon fill="white" stroke="#bfbfbf" points="1983,-294.5 1983,-324.5 2100,-324.5 2100,-294.5 1983,-294.5"/>
<text text-anchor="start" x="1991" y="-312.5" font-family="Helvetica,sans-Serif" font-size="10.00">std::unique_ptr&lt; vpr</text>
<text text-anchor="middle" x="2041.5" y="-301.5" font-family="Helvetica,sans-Serif" font-size="10.00">::AllocationCollection &gt;</text>
</g>
<!-- Node4&#45;&gt;Node3 -->
<g id="edge3" class="edge"><title>Node4&#45;&gt;Node3</title>
<path fill="none" stroke="#9a32cd" stroke-dasharray="5,2" d="M2110.3,-309.5C2131.96,-309.5 2156.16,-309.5 2178.68,-309.5"/>
<polygon fill="#9a32cd" stroke="#9a32cd" points="2110.22,-306 2100.21,-309.5 2110.21,-313 2110.22,-306"/>
<text text-anchor="middle" x="2139.5" y="-312.5" font-family="Helvetica,sans-Serif" font-size="10.00"> elements</text>
</g>
<!-- Node5&#45;&gt;Node4 -->
<g id="edge4" class="edge"><title>Node5&#45;&gt;Node4</title>
<path fill="none" stroke="#9a32cd" stroke-dasharray="5,2" d="M1942.25,-309.5C1955.74,-309.5 1969.75,-309.5 1982.82,-309.5"/>
<polygon fill="#9a32cd" stroke="#9a32cd" points="1942.05,-306 1932.05,-309.5 1942.05,-313 1942.05,-306"/>
<text text-anchor="middle" x="1957.5" y="-312.5" font-family="Helvetica,sans-Serif" font-size="10.00"> ptr</text>
</g>
<!-- Node6 -->
<g id="node6" class="node"><title>Node6</title>
<polygon fill="white" stroke="#bfbfbf" points="1588,-294.5 1588,-324.5 1726,-324.5 1726,-294.5 1588,-294.5"/>
<text text-anchor="start" x="1596" y="-312.5" font-family="Helvetica,sans-Serif" font-size="10.00">std::vector&lt; std::unique</text>
<text text-anchor="middle" x="1657" y="-301.5" font-family="Helvetica,sans-Serif" font-size="10.00">_ptr&lt; vpr::MemoryBlock &gt; &gt;</text>
</g>
<!-- Node6&#45;&gt;Node5 -->
<g id="edge6" class="edge"><title>Node6&#45;&gt;Node5</title>
<path fill="none" stroke="#9a32cd" stroke-dasharray="5,2" d="M1736.42,-309.5C1761.31,-309.5 1788.41,-309.5 1811.72,-309.5"/>
<polygon fill="#9a32cd" stroke="#9a32cd" points="1736.27,-306 1726.27,-309.5 1736.27,-313 1736.27,-306"/>
<text text-anchor="middle" x="1769" y="-312.5" font-family="Helvetica,sans-Serif" font-size="10.00"> allocations</text>
</g>
<!-- Node7 -->
<g id="node7" class="node"><title>Node7</title>
<polygon fill="white" stroke="#bfbfbf" points="1407,-400.5 1407,-430.5 1509,-430.5 1509,-400.5 1407,-400.5"/>
<text text-anchor="start" x="1415" y="-418.5" font-family="Helvetica,sans-Serif" font-size="10.00">std::unique_ptr&lt; vpr</text>
<text text-anchor="middle" x="1458" y="-407.5" font-family="Helvetica,sans-Serif" font-size="10.00">::MemoryBlock &gt;</text>
</g>
<!-- Node7&#45;&gt;Node6 -->
<g id="edge7" class="edge"><title>Node7&#45;&gt;Node6</title>
<path fill="none" stroke="#9a32cd" stroke-dasharray="5,2" d="M1496.49,-395.326C1534.77,-374.729 1593.33,-343.222 1627.83,-324.659"/>
<polygon fill="#9a32cd" stroke="#9a32cd" points="1494.37,-392.492 1487.23,-400.313 1497.69,-398.657 1494.37,-392.492"/>
<text text-anchor="middle" x="1548.5" y="-381.5" font-family="Helvetica,sans-Serif" font-size="10.00"> elements</text>
</g>
<!-- Node8&#45;&gt;Node7 -->
<g id="edge8" class="edge"><title>Node8&#45;&gt;Node7</title>
<path fill="none" stroke="#9a32cd" stroke-dasharray="5,2" d="M1266.22,-437.854C1308.63,-432.885 1366.08,-426.153 1406.83,-421.379"/>
<polygon fill="#9a32cd" stroke="#9a32cd" points="1265.58,-434.405 1256.05,-439.045 1266.39,-441.358 1265.58,-434.405"/>
<text text-anchor="middle" x="1343" y="-436.5" font-family="Helvetica,sans-Serif" font-size="10.00"> ptr</text>
</g>
<!-- Node9 -->
<g id="node9" class="node"><title>Node9</title>
<polygon fill="white" stroke="#bfbfbf" points="889.5,-491 889.5,-510 1014.5,-510 1014.5,-491 889.5,-491"/>
<text text-anchor="middle" x="952" y="-498" font-family="Helvetica,sans-Serif" font-size="10.00">std::list&lt; Suballocation &gt;</text>
</g>
<!-- Node9&#45;&gt;Node8 -->
<g id="edge9" class="edge"><title>Node9&#45;&gt;Node8</title>
<path fill="none" stroke="#9a32cd" stroke-dasharray="5,2" d="M1018.72,-489.136C1049.59,-483.485 1086.8,-476.22 1120,-468.5 1138.26,-464.254 1158.45,-458.769 1174.83,-454.115"/>
<polygon fill="#9a32cd" stroke="#9a32cd" points="1017.73,-485.759 1008.52,-490.988 1018.98,-492.646 1017.73,-485.759"/>
<text text-anchor="middle" x="1077" y="-489.5" font-family="Helvetica,sans-Serif" font-size="10.00"> Suballocations</text>
</g>
<!-- Node10 -->
<g id="node10" class="node"><title>Node10</title>
<g id="a_node10"><a xlink:href="structvpr_1_1_suballocation.html" target="_top" xlink:title="During the process of finding a suitable region to bind to, we need to store things like &quot;Suballocati...">
<polygon fill="white" stroke="black" points="662,-491 662,-510 755,-510 755,-491 662,-491"/>
<text text-anchor="middle" x="708.5" y="-498" font-family="Helvetica,sans-Serif" font-size="10.00">vpr::Suballocation</text>
</a>
</g>
</g>
<!-- Node10&#45;&gt;Node9 -->
<g id="edge10" class="edge"><title>Node10&#45;&gt;Node9</title>
<path fill="none" stroke="#9a32cd" stroke-dasharray="5,2" d="M765.317,-500.5C802.311,-500.5 850.877,-500.5 889.062,-500.5"/>
<polygon fill="#9a32cd" stroke="#9a32cd" points="765.208,-497 755.208,-500.5 765.208,-504 765.208,-497"/>
<text text-anchor="middle" x="830.5" y="-503.5" font-family="Helvetica,sans-Serif" font-size="10.00"> elements</text>
</g>
<!-- Node11 -->
<g id="node11" class="node"><title>Node11</title>
<polygon fill="white" stroke="#bfbfbf" points="888,-441.5 888,-471.5 1016,-471.5 1016,-441.5 888,-441.5"/>
<text text-anchor="start" x="896" y="-459.5" font-family="Helvetica,sans-Serif" font-size="10.00">std::vector&lt; suballocation</text>
<text text-anchor="middle" x="952" y="-448.5" font-family="Helvetica,sans-Serif" font-size="10.00">List::iterator &gt;</text>
</g>
<!-- Node11&#45;&gt;Node8 -->
<g id="edge11" class="edge"><title>Node11&#45;&gt;Node8</title>
<path fill="none" stroke="#9a32cd" stroke-dasharray="5,2" d="M1026.42,-453.038C1069.65,-451 1123.04,-448.482 1160.61,-446.711"/>
<polygon fill="#9a32cd" stroke="#9a32cd" points="1026.06,-449.551 1016.24,-453.518 1026.39,-456.543 1026.06,-449.551"/>
<text text-anchor="middle" x="1077" y="-456.5" font-family="Helvetica,sans-Serif" font-size="10.00"> availSuballocations</text>
</g>
<!-- Node12 -->
<g id="node12" class="node"><title>Node12</title>
<g id="a_node12"><a xlink:title="STL iterator class. ">
<polygon fill="white" stroke="#bfbfbf" points="654.5,-447 654.5,-466 762.5,-466 762.5,-447 654.5,-447"/>
<text text-anchor="middle" x="708.5" y="-454" font-family="Helvetica,sans-Serif" font-size="10.00">std::list&lt; T &gt;::iterator</text>
</a>
</g>
</g>
<!-- Node12&#45;&gt;Node11 -->
<g id="edge12" class="edge"><title>Node12&#45;&gt;Node11</title>
<path fill="none" stroke="#9a32cd" stroke-dasharray="5,2" d="M773.04,-456.5C808.53,-456.5 852.596,-456.5 887.998,-456.5"/>
<polygon fill="#9a32cd" stroke="#9a32cd" points="772.797,-453 762.797,-456.5 772.797,-460 772.797,-453"/>
<text text-anchor="middle" x="830.5" y="-459.5" font-family="Helvetica,sans-Serif" font-size="10.00"> elements</text>
</g>
<!-- Node13 -->
<g id="node13" class="node"><title>Node13</title>
<g id="a_node13"><a xlink:href="classvpr_1_1_device.html" target="_top" xlink:title="!The Device class is a wrapper around the vkLogicalDevice object. ">
<polygon fill="white" stroke="black" points="1426.5,-217 1426.5,-236 1489.5,-236 1489.5,-217 1426.5,-217"/>
<text text-anchor="middle" x="1458" y="-224" font-family="Helvetica,sans-Serif" font-size="10.00">vpr::Device</text>
</a>
</g>
</g>
<!-- Node13&#45;&gt;Node1 -->
<g id="edge14" class="edge"><title>Node13&#45;&gt;Node1</title>
<path fill="none" stroke="#9a32cd" stroke-dasharray="5,2" d="M1415.74,-225.512C1354.8,-224.539 1237.22,-224.521 1138,-235.5 1085.48,-241.312 1025.6,-254.118 988.544,-262.781"/>
<polygon fill="#9a32cd" stroke="#9a32cd" points="1416.03,-229.017 1426.09,-225.695 1416.15,-222.018 1416.03,-229.017"/>
<text text-anchor="middle" x="1208.5" y="-238.5" font-family="Helvetica,sans-Serif" font-size="10.00"> parent</text>
</g>
<!-- Node14 -->
<g id="node14" class="node"><title>Node14</title>
<polygon fill="white" stroke="#bfbfbf" points="1138,-159.5 1138,-189.5 1279,-189.5 1279,-159.5 1138,-159.5"/>
<text text-anchor="start" x="1146" y="-177.5" font-family="Helvetica,sans-Serif" font-size="10.00">std::map&lt; VkQueueFlags,</text>
<text text-anchor="middle" x="1208.5" y="-166.5" font-family="Helvetica,sans-Serif" font-size="10.00"> VkDeviceQueueCreateInfo &gt;</text>
</g>
<!-- Node14&#45;&gt;Node13 -->
<g id="edge15" class="edge"><title>Node14&#45;&gt;Node13</title>
<path fill="none" stroke="#9a32cd" stroke-dasharray="5,2" d="M1289.21,-182.959C1320.6,-187.204 1356.77,-193.243 1389,-201.5 1404.6,-205.496 1421.6,-211.746 1434.7,-216.997"/>
<polygon fill="#9a32cd" stroke="#9a32cd" points="1289.57,-179.476 1279.2,-181.643 1288.66,-186.416 1289.57,-179.476"/>
<text text-anchor="middle" x="1343" y="-204.5" font-family="Helvetica,sans-Serif" font-size="10.00"> queueInfos</text>
</g>
<!-- Node15 -->
<g id="node15" class="node"><title>Node15</title>
<g id="a_node15"><a xlink:href="namespacevpr.html#structvpr_1_1vk_queue_family_indices" target="_top" xlink:title="vpr::vkQueueFamilyIndices">
<polygon fill="white" stroke="black" points="1142.5,-306 1142.5,-325 1274.5,-325 1274.5,-306 1142.5,-306"/>
<text text-anchor="middle" x="1208.5" y="-313" font-family="Helvetica,sans-Serif" font-size="10.00">vpr::vkQueueFamilyIndices</text>
</a>
</g>
</g>
<!-- Node15&#45;&gt;Node13 -->
<g id="edge16" class="edge"><title>Node15&#45;&gt;Node13</title>
<path fill="none" stroke="#9a32cd" stroke-dasharray="5,2" d="M1280.85,-303.884C1314.54,-296.936 1354.77,-286.479 1389,-271.5 1410.27,-262.193 1432.19,-246.342 1445.21,-236.152"/>
<polygon fill="#9a32cd" stroke="#9a32cd" points="1279.74,-300.537 1270.62,-305.929 1281.11,-307.401 1279.74,-300.537"/>
<text text-anchor="middle" x="1343" y="-303.5" font-family="Helvetica,sans-Serif" font-size="10.00"> QueueFamilyIndices</text>
</g>
<!-- Node16 -->
<g id="node16" class="node"><title>Node16</title>
<polygon fill="white" stroke="#bfbfbf" points="904.5,-106.5 904.5,-136.5 999.5,-136.5 999.5,-106.5 904.5,-106.5"/>
<text text-anchor="start" x="912.5" y="-124.5" font-family="Helvetica,sans-Serif" font-size="10.00">std::vector&lt; const</text>
<text text-anchor="middle" x="952" y="-113.5" font-family="Helvetica,sans-Serif" font-size="10.00"> char *&gt;</text>
</g>
<!-- Node16&#45;&gt;Node13 -->
<g id="edge17" class="edge"><title>Node16&#45;&gt;Node13</title>
<path fill="none" stroke="#9a32cd" stroke-dasharray="5,2" d="M1009.63,-119.017C1075.23,-117.387 1186.18,-118.486 1279,-138.5 1330.31,-149.564 1342.41,-157.325 1389,-181.5 1409.11,-191.932 1430.64,-206.902 1443.97,-216.663"/>
<polygon fill="#9a32cd" stroke="#9a32cd" points="1009.4,-115.522 999.501,-119.3 1009.59,-122.52 1009.4,-115.522"/>
<text text-anchor="middle" x="1208.5" y="-141.5" font-family="Helvetica,sans-Serif" font-size="10.00"> enabledExtensions</text>
</g>
<!-- Node22 -->
<g id="node22" class="node"><title>Node22</title>
<g id="a_node22"><a xlink:href="classvpr_1_1_instance.html" target="_top" xlink:title="Instance is a wrapper around the base Vulkan object that must be initialized first. ">
<polygon fill="white" stroke="black" points="1173,-36 1173,-55 1244,-55 1244,-36 1173,-36"/>
<text text-anchor="middle" x="1208.5" y="-43" font-family="Helvetica,sans-Serif" font-size="10.00">vpr::Instance</text>
</a>
</g>
</g>
<!-- Node16&#45;&gt;Node22 -->
<g id="edge27" class="edge"><title>Node16&#45;&gt;Node22</title>
<path fill="none" stroke="#9a32cd" stroke-dasharray="5,2" d="M1009.27,-104.697C1060.38,-89.4329 1133.97,-67.459 1175.61,-55.0245"/>
<polygon fill="#9a32cd" stroke="#9a32cd" points="1008.26,-101.345 999.679,-107.56 1010.26,-108.053 1008.26,-101.345"/>
<text text-anchor="middle" x="1077" y="-100.5" font-family="Helvetica,sans-Serif" font-size="10.00"> enabledExtensions</text>
</g>
<!-- Node17 -->
<g id="node17" class="node"><title>Node17</title>
<g id="a_node17"><a xlink:href="classvpr_1_1_physical_device.html" target="_top" xlink:title="! PhysicalDevice is a wrapper around a VkPhysicalDevice object, which is itself merely a handle repre...">
<polygon fill="white" stroke="black" points="658,-271 658,-290 759,-290 759,-271 658,-271"/>
<text text-anchor="middle" x="708.5" y="-278" font-family="Helvetica,sans-Serif" font-size="10.00">vpr::PhysicalDevice</text>
</a>
</g>
</g>
<!-- Node17&#45;&gt;Node13 -->
<g id="edge18" class="edge"><title>Node17&#45;&gt;Node13</title>
<path fill="none" stroke="#9a32cd" stroke-dasharray="5,2" d="M763.104,-293.931C766.562,-295.583 769.897,-297.432 773,-299.5 783.512,-306.507 780.139,-315.047 791,-321.5 917.933,-396.912 973.028,-381.575 1120,-367.5 1241.21,-355.892 1285.49,-379.63 1389,-315.5 1421.07,-295.633 1443.58,-254.766 1452.61,-236.136"/>
<polygon fill="#9a32cd" stroke="#9a32cd" points="764.311,-290.641 753.735,-290.001 761.603,-297.097 764.311,-290.641"/>
<text text-anchor="middle" x="1077" y="-379.5" font-family="Helvetica,sans-Serif" font-size="10.00"> parent</text>
</g>
<!-- Node23 -->
<g id="node23" class="node"><title>Node23</title>
<polygon fill="white" stroke="#bfbfbf" points="901,-36.5 901,-66.5 1003,-66.5 1003,-36.5 901,-36.5"/>
<text text-anchor="start" x="909" y="-54.5" font-family="Helvetica,sans-Serif" font-size="10.00">std::unique_ptr&lt; vpr</text>
<text text-anchor="middle" x="952" y="-43.5" font-family="Helvetica,sans-Serif" font-size="10.00">::PhysicalDevice &gt;</text>
</g>
<!-- Node17&#45;&gt;Node23 -->
<g id="edge26" class="edge"><title>Node17&#45;&gt;Node23</title>
<path fill="none" stroke="#9a32cd" stroke-dasharray="5,2" d="M765.251,-266.604C767.975,-265.076 770.579,-263.381 773,-261.5 785.278,-251.96 782.456,-244.492 791,-231.5 831.596,-169.771 835.684,-148.669 888,-96.5 899.326,-85.2057 913.735,-74.688 925.914,-66.6653"/>
<polygon fill="#9a32cd" stroke="#9a32cd" points="763.725,-263.454 756.224,-270.936 766.754,-269.765 763.725,-263.454"/>
<text text-anchor="middle" x="830.5" y="-234.5" font-family="Helvetica,sans-Serif" font-size="10.00"> ptr</text>
</g>
<!-- Node18 -->
<g id="node18" class="node"><title>Node18</title>
<polygon fill="white" stroke="#bfbfbf" points="449,-265.5 449,-295.5 565,-295.5 565,-265.5 449,-265.5"/>
<text text-anchor="start" x="457" y="-283.5" font-family="Helvetica,sans-Serif" font-size="10.00">std::unique_ptr&lt; vpr</text>
<text text-anchor="middle" x="507" y="-272.5" font-family="Helvetica,sans-Serif" font-size="10.00">::PhysicalDeviceImpl &gt;</text>
</g>
<!-- Node18&#45;&gt;Node17 -->
<g id="edge19" class="edge"><title>Node18&#45;&gt;Node17</title>
<path fill="none" stroke="#9a32cd" stroke-dasharray="5,2" d="M575.32,-280.5C602.311,-280.5 632.856,-280.5 657.779,-280.5"/>
<polygon fill="#9a32cd" stroke="#9a32cd" points="575.169,-277 565.169,-280.5 575.169,-284 575.169,-277"/>
<text text-anchor="middle" x="604.5" y="-283.5" font-family="Helvetica,sans-Serif" font-size="10.00"> impl</text>
</g>
<!-- Node19 -->
<g id="node19" class="node"><title>Node19</title>
<g id="a_node19"><a xlink:href="classvpr_1_1_physical_device_impl.html" target="_top" xlink:title="vpr::PhysicalDeviceImpl">
<polygon fill="white" stroke="black" points="279,-271 279,-290 398,-290 398,-271 279,-271"/>
<text text-anchor="middle" x="338.5" y="-278" font-family="Helvetica,sans-Serif" font-size="10.00">vpr::PhysicalDeviceImpl</text>
</a>
</g>
</g>
<!-- Node19&#45;&gt;Node18 -->
<g id="edge20" class="edge"><title>Node19&#45;&gt;Node18</title>
<path fill="none" stroke="#9a32cd" stroke-dasharray="5,2" d="M408.393,-280.5C421.884,-280.5 435.894,-280.5 448.948,-280.5"/>
<polygon fill="#9a32cd" stroke="#9a32cd" points="408.202,-277 398.202,-280.5 408.202,-284 408.202,-277"/>
<text text-anchor="middle" x="423.5" y="-283.5" font-family="Helvetica,sans-Serif" font-size="10.00"> ptr</text>
</g>
<!-- Node20 -->
<g id="node20" class="node"><title>Node20</title>
<polygon fill="white" stroke="#bfbfbf" points="0,-265.5 0,-295.5 140,-295.5 140,-265.5 0,-265.5"/>
<text text-anchor="start" x="8" y="-283.5" font-family="Helvetica,sans-Serif" font-size="10.00">std::vector&lt; VkQueueFamily</text>
<text text-anchor="middle" x="70" y="-272.5" font-family="Helvetica,sans-Serif" font-size="10.00">Properties &gt;</text>
</g>
<!-- Node20&#45;&gt;Node19 -->
<g id="edge21" class="edge"><title>Node20&#45;&gt;Node19</title>
<path fill="none" stroke="#9a32cd" stroke-dasharray="5,2" d="M150.348,-280.5C191.603,-280.5 241.148,-280.5 278.896,-280.5"/>
<polygon fill="#9a32cd" stroke="#9a32cd" points="150.324,-277 140.324,-280.5 150.324,-284 150.324,-277"/>
<text text-anchor="middle" x="209.5" y="-283.5" font-family="Helvetica,sans-Serif" font-size="10.00"> queueFamilyProperties</text>
</g>
<!-- Node21&#45;&gt;Node13 -->
<g id="edge22" class="edge"><title>Node21&#45;&gt;Node13</title>
<path fill="none" stroke="#9a32cd" stroke-dasharray="5,2" d="M1269.89,-261.565C1304.76,-255.707 1349.41,-247.993 1389,-240.5 1401.2,-238.192 1414.59,-235.474 1426.24,-233.051"/>
<polygon fill="#9a32cd" stroke="#9a32cd" points="1269.15,-258.14 1259.87,-263.244 1270.31,-265.044 1269.15,-258.14"/>
<text text-anchor="middle" x="1343" y="-259.5" font-family="Helvetica,sans-Serif" font-size="10.00"> vkAllocator</text>
</g>
<!-- Node22&#45;&gt;Node13 -->
<g id="edge24" class="edge"><title>Node22&#45;&gt;Node13</title>
<path fill="none" stroke="#9a32cd" stroke-dasharray="5,2" d="M1254.29,-55.0992C1293.31,-65.2781 1349.66,-84.5475 1389,-117.5 1423.03,-146 1445.24,-196.056 1453.45,-216.934"/>
<polygon fill="#9a32cd" stroke="#9a32cd" points="1254.81,-51.6235 1244.26,-52.5848 1253.11,-58.4131 1254.81,-51.6235"/>
<text text-anchor="middle" x="1343" y="-120.5" font-family="Helvetica,sans-Serif" font-size="10.00"> parentInstance</text>
</g>
<!-- Node25 -->
<g id="node25" class="node"><title>Node25</title>
<g id="a_node25"><a xlink:href="classvpr_1_1_surface_k_h_r.html" target="_top" xlink:title="The bare&#45;minimum required to wrap a VkSurfaceKHR object. ">
<polygon fill="white" stroke="black" points="1414,-28 1414,-47 1502,-47 1502,-28 1414,-28"/>
<text text-anchor="middle" x="1458" y="-35" font-family="Helvetica,sans-Serif" font-size="10.00">vpr::SurfaceKHR</text>
</a>
</g>
</g>
<!-- Node22&#45;&gt;Node25 -->
<g id="edge30" class="edge"><title>Node22&#45;&gt;Node25</title>
<path fill="none" stroke="#9a32cd" stroke-dasharray="5,2" d="M1254.3,-44.0521C1299.59,-42.5879 1369.12,-40.3405 1413.83,-38.8955"/>
<polygon fill="#9a32cd" stroke="#9a32cd" points="1254.06,-40.5579 1244.17,-44.3792 1254.28,-47.5542 1254.06,-40.5579"/>
<text text-anchor="middle" x="1343" y="-45.5" font-family="Helvetica,sans-Serif" font-size="10.00"> parent</text>
</g>
<!-- Node23&#45;&gt;Node22 -->
<g id="edge25" class="edge"><title>Node23&#45;&gt;Node22</title>
<path fill="none" stroke="#9a32cd" stroke-dasharray="5,2" d="M1013.59,-50.0716C1063.31,-48.8994 1131.95,-47.2811 1172.83,-46.3175"/>
<polygon fill="#9a32cd" stroke="#9a32cd" points="1013.2,-46.5798 1003.28,-50.3146 1013.36,-53.5778 1013.2,-46.5798"/>
<text text-anchor="middle" x="1077" y="-53.5" font-family="Helvetica,sans-Serif" font-size="10.00"> physicalDevice</text>
</g>
<!-- Node24 -->
<g id="node24" class="node"><title>Node24</title>
<polygon fill="white" stroke="#bfbfbf" points="1606,-0.5 1606,-30.5 1708,-30.5 1708,-0.5 1606,-0.5"/>
<text text-anchor="start" x="1614" y="-18.5" font-family="Helvetica,sans-Serif" font-size="10.00">std::unique_ptr&lt; vpr</text>
<text text-anchor="middle" x="1657" y="-7.5" font-family="Helvetica,sans-Serif" font-size="10.00">::SurfaceKHR &gt;</text>
</g>
<!-- Node24&#45;&gt;Node22 -->
<g id="edge28" class="edge"><title>Node24&#45;&gt;Node22</title>
<path fill="none" stroke="#9a32cd" stroke-dasharray="5,2" d="M1595.41,-11.4599C1568.9,-9.88435 1537.42,-8.27275 1509,-7.5 1463.68,-6.26781 1452.13,-3.19795 1407,-7.5 1349.3,-13.0005 1283.39,-27.3455 1244.17,-36.7519"/>
<polygon fill="#9a32cd" stroke="#9a32cd" points="1595.49,-14.9713 1605.68,-12.0834 1595.91,-7.98413 1595.49,-14.9713"/>
<text text-anchor="middle" x="1458" y="-10.5" font-family="Helvetica,sans-Serif" font-size="10.00"> surface</text>
</g>
<!-- Node25&#45;&gt;Node24 -->
<g id="edge29" class="edge"><title>Node25&#45;&gt;Node24</title>
<path fill="none" stroke="#9a32cd" stroke-dasharray="5,2" d="M1512.24,-31.5548C1541.38,-28.3003 1577.28,-24.2912 1605.91,-21.0935"/>
<polygon fill="#9a32cd" stroke="#9a32cd" points="1511.78,-28.0837 1502.23,-32.672 1512.56,-35.0404 1511.78,-28.0837"/>
<text text-anchor="middle" x="1548.5" y="-33.5" font-family="Helvetica,sans-Serif" font-size="10.00"> ptr</text>
</g>
<!-- Node26 -->
<g id="node26" class="node"><title>Node26</title>
<polygon fill="white" stroke="#bfbfbf" points="653,-211 653,-252 764,-252 764,-211 653,-211"/>
<text text-anchor="start" x="661" y="-240" font-family="Helvetica,sans-Serif" font-size="10.00">std::unordered_set</text>
<text text-anchor="start" x="661" y="-229" font-family="Helvetica,sans-Serif" font-size="10.00">&lt; std::unique_ptr&lt; vpr</text>
<text text-anchor="middle" x="708.5" y="-218" font-family="Helvetica,sans-Serif" font-size="10.00">::Allocation &gt; &gt;</text>
</g>
<!-- Node26&#45;&gt;Node1 -->
<g id="edge31" class="edge"><title>Node26&#45;&gt;Node1</title>
<path fill="none" stroke="#9a32cd" stroke-dasharray="5,2" d="M774.337,-242.239C819.663,-249.746 878.478,-259.488 915.49,-265.618"/>
<polygon fill="#9a32cd" stroke="#9a32cd" points="774.738,-238.758 764.3,-240.577 773.594,-245.664 774.738,-238.758"/>
<text text-anchor="middle" x="830.5" y="-260.5" font-family="Helvetica,sans-Serif" font-size="10.00"> privateAllocations</text>
</g>
<!-- Node27 -->
<g id="node27" class="node"><title>Node27</title>
<polygon fill="white" stroke="#bfbfbf" points="456,-216.5 456,-246.5 558,-246.5 558,-216.5 456,-216.5"/>
<text text-anchor="start" x="464" y="-234.5" font-family="Helvetica,sans-Serif" font-size="10.00">std::unique_ptr&lt; vpr</text>
<text text-anchor="middle" x="507" y="-223.5" font-family="Helvetica,sans-Serif" font-size="10.00">::Allocation &gt;</text>
</g>
<!-- Node27&#45;&gt;Node26 -->
<g id="edge32" class="edge"><title>Node27&#45;&gt;Node26</title>
<path fill="none" stroke="#9a32cd" stroke-dasharray="5,2" d="M568.157,-231.5C595.078,-231.5 626.592,-231.5 652.834,-231.5"/>
<polygon fill="#9a32cd" stroke="#9a32cd" points="568.085,-228 558.085,-231.5 568.085,-235 568.085,-228"/>
<text text-anchor="middle" x="604.5" y="-234.5" font-family="Helvetica,sans-Serif" font-size="10.00"> keys</text>
</g>
<!-- Node28 -->
<g id="node28" class="node"><title>Node28</title>
<g id="a_node28"><a xlink:href="classvpr_1_1_allocation.html" target="_top" xlink:title="Allocation class represents a singular allocation: can be a private allocation (i.e, only user of attached DeviceMemory) or a block allocation (bound to sub&#45;region of device memory) ">
<polygon fill="white" stroke="black" points="300,-222 300,-241 377,-241 377,-222 300,-222"/>
<text text-anchor="middle" x="338.5" y="-229" font-family="Helvetica,sans-Serif" font-size="10.00">vpr::Allocation</text>
</a>
</g>
</g>
<!-- Node28&#45;&gt;Node27 -->
<g id="edge33" class="edge"><title>Node28&#45;&gt;Node27</title>
<path fill="none" stroke="#9a32cd" stroke-dasharray="5,2" d="M387.448,-231.5C408.85,-231.5 434.072,-231.5 455.738,-231.5"/>
<polygon fill="#9a32cd" stroke="#9a32cd" points="387.281,-228 377.281,-231.5 387.281,-235 387.281,-228"/>
<text text-anchor="middle" x="423.5" y="-234.5" font-family="Helvetica,sans-Serif" font-size="10.00"> ptr</text>
</g>
<!-- Node29 -->
<g id="node29" class="node"><title>Node29</title>
<polygon fill="white" stroke="#bfbfbf" points="644,-309.5 644,-339.5 773,-339.5 773,-309.5 644,-309.5"/>
<text text-anchor="start" x="652" y="-327.5" font-family="Helvetica,sans-Serif" font-size="10.00">std::map&lt; AllocationSize,</text>
<text text-anchor="middle" x="708.5" y="-316.5" font-family="Helvetica,sans-Serif" font-size="10.00"> std::vector&lt; bool &gt; &gt;</text>
</g>
<!-- Node29&#45;&gt;Node1 -->
<g id="edge34" class="edge"><title>Node29&#45;&gt;Node1</title>
<path fill="none" stroke="#9a32cd" stroke-dasharray="5,2" d="M783.042,-308.36C826.924,-298.73 880.68,-286.933 915.367,-279.32"/>
<polygon fill="#9a32cd" stroke="#9a32cd" points="782.284,-304.943 773.267,-310.506 783.785,-311.781 782.284,-304.943"/>
<text text-anchor="middle" x="830.5" y="-309.5" font-family="Helvetica,sans-Serif" font-size="10.00"> emptyAllocations</text>
</g>
<!-- Node30 -->
<g id="node30" class="node"><title>Node30</title>
<polygon fill="white" stroke="#bfbfbf" points="458,-315 458,-334 556,-334 556,-315 458,-315"/>
<text text-anchor="middle" x="507" y="-322" font-family="Helvetica,sans-Serif" font-size="10.00">std::vector&lt; bool &gt;</text>
</g>
<!-- Node30&#45;&gt;Node29 -->
<g id="edge35" class="edge"><title>Node30&#45;&gt;Node29</title>
<path fill="none" stroke="#9a32cd" stroke-dasharray="5,2" d="M566.186,-324.5C590.484,-324.5 618.79,-324.5 643.659,-324.5"/>
<polygon fill="#9a32cd" stroke="#9a32cd" points="566.039,-321 556.039,-324.5 566.039,-328 566.039,-321"/>
<text text-anchor="middle" x="604.5" y="-327.5" font-family="Helvetica,sans-Serif" font-size="10.00"> elements</text>
</g>
</g>
</svg>
        <g id="navigator" transform="translate(0 0)" fill="#404254">
                <rect fill="#f2f5e9" fill-opacity="0.5" stroke="#606060" stroke-width=".5" x="0" y="0" width="60" height="60"/>
                <use id="zoomplus" xlink:href="#zoomPlus" x="17" y="9" onmousedown="handleZoom(evt,'in')"/>
                <use id="zoomminus" xlink:href="#zoomMin" x="42" y="9" onmousedown="handleZoom(evt,'out')"/>
                <use id="reset" xlink:href="#resetDef" x="30" y="36" onmousedown="handleReset()"/>
                <g id="arrowUp" xlink:href="#dirArrow" transform="translate(30 24)" onmousedown="handlePan(0,-1)">
                  <use xlink:href="#rim" fill="#404040">
                        <set attributeName="fill" to="#808080" begin="arrowUp.mouseover" end="arrowUp.mouseout"/>
                  </use>
                  <path fill="none" stroke="white" stroke-width="1.5" d="M0,-3.0v7 M-2.5,-0.5L0,-3.0L2.5,-0.5"/>
                </g>
                <g id="arrowRight" xlink:href="#dirArrow" transform="rotate(90) translate(36 -43)" onmousedown="handlePan(1,0)">
                  <use xlink:href="#rim" fill="#404040">
                        <set attributeName="fill" to="#808080" begin="arrowRight.mouseover" end="arrowRight.mouseout"/>
                  </use>
                  <path fill="none" stroke="white" stroke-width="1.5" d="M0,-3.0v7 M-2.5,-0.5L0,-3.0L2.5,-0.5"/>
                </g>
                <g id="arrowDown" xlink:href="#dirArrow" transform="rotate(180) translate(-30 -48)" onmousedown="handlePan(0,1)">
                  <use xlink:href="#rim" fill="#404040">
                        <set attributeName="fill" to="#808080" begin="arrowDown.mouseover" end="arrowDown.mouseout"/>
                  </use>
                  <path fill="none" stroke="white" stroke-width="1.5" d="M0,-3.0v7 M-2.5,-0.5L0,-3.0L2.5,-0.5"/>
                </g>
                <g id="arrowLeft" xlink:href="#dirArrow" transform="rotate(270) translate(-36 17)" onmousedown="handlePan(-1,0)">
                  <use xlink:href="#rim" fill="#404040">
                        <set attributeName="fill" to="#808080" begin="arrowLeft.mouseover" end="arrowLeft.mouseout"/>
                  </use>
                  <path fill="none" stroke="white" stroke-width="1.5" d="M0,-3.0v7 M-2.5,-0.5L0,-3.0L2.5,-0.5"/>
                </g>
        </g>
        <svg viewBox="0 0 15 15" width="100%" height="30px" preserveAspectRatio="xMaxYMin meet">
         <g id="arrow_out" transform="scale(0.3 0.3)">
          <a xlink:href="classvpr_1_1_allocator__coll__graph_org.svg" target="_base">
           <rect id="button" ry="5" rx="5" y="6" x="6" height="38" width="38"
                fill="#f2f5e9" fill-opacity="0.5" stroke="#606060" stroke-width="1.0"/>
           <path id="arrow"
             d="M 11.500037,31.436501 C 11.940474,20.09759 22.043105,11.32322 32.158766,21.979434 L 37.068811,17.246167 C 37.068811,17.246167 37.088388,32 37.088388,32 L 22.160133,31.978069 C 22.160133,31.978069 26.997745,27.140456 26.997745,27.140456 C 18.528582,18.264221 13.291696,25.230495 11.500037,31.436501 z"
             style="fill:#404040;"/>
          </a>
         </g>
        </svg>
</svg>
