<?xml version="1.0" encoding="UTF-8" standalone="no"?>
<!DOCTYPE svg PUBLIC "-//W3C//DTD SVG 1.1//EN"
 "http://www.w3.org/Graphics/SVG/1.1/DTD/svg11.dtd">
<!-- Generated by graphviz version 2.38.0 (20140413.2041)
 -->
<!-- Title: el::base::threading::ThreadSafe Pages: 1 -->
<svg width="695pt" height="668pt"
 viewBox="0.00 0.00 695.00 668.00" xmlns="http://www.w3.org/2000/svg" xmlns:xlink="http://www.w3.org/1999/xlink">
<g id="graph0" class="graph" transform="scale(1 1) rotate(0) translate(4 664)">
<title>el::base::threading::ThreadSafe</title>
<polygon fill="white" stroke="none" points="-4,4 -4,-664 691,-664 691,4 -4,4"/>
<!-- Node0 -->
<g id="node1" class="node"><title>Node0</title>
<polygon fill="#bfbfbf" stroke="black" points="0,-263 0,-293 97,-293 97,-263 0,-263"/>
<text text-anchor="start" x="8" y="-281" font-family="Helvetica,sans-Serif" font-size="10.00">el::base::threading</text>
<text text-anchor="middle" x="48.5" y="-270" font-family="Helvetica,sans-Serif" font-size="10.00">::ThreadSafe</text>
</g>
<!-- Node1 -->
<g id="node2" class="node"><title>Node1</title>
<g id="a_node2"><a xlink:href="classel_1_1base_1_1utils_1_1_abstract_registry.html" target="_top" xlink:title="el::base::utils::Abstract\lRegistry\&lt; base::HitCounter,\l std::vector\&lt; base::HitCounter *\&gt; \&gt;">
<polygon fill="white" stroke="black" points="133,-618.5 133,-659.5 301,-659.5 301,-618.5 133,-618.5"/>
<text text-anchor="start" x="141" y="-647.5" font-family="Helvetica,sans-Serif" font-size="10.00">el::base::utils::Abstract</text>
<text text-anchor="start" x="141" y="-636.5" font-family="Helvetica,sans-Serif" font-size="10.00">Registry&lt; base::HitCounter,</text>
<text text-anchor="middle" x="217" y="-625.5" font-family="Helvetica,sans-Serif" font-size="10.00"> std::vector&lt; base::HitCounter *&gt; &gt;</text>
</a>
</g>
</g>
<!-- Node0&#45;&gt;Node1 -->
<g id="edge1" class="edge"><title>Node0&#45;&gt;Node1</title>
<path fill="none" stroke="midnightblue" d="M52.7956,-303.372C62.2686,-372.704 91.5728,-563.221 133,-609 136.187,-612.522 139.819,-615.631 143.742,-618.375"/>
<polygon fill="midnightblue" stroke="midnightblue" points="56.2464,-302.772 51.4466,-293.326 49.3086,-303.703 56.2464,-302.772"/>
</g>
<!-- Node4 -->
<g id="node5" class="node"><title>Node4</title>
<g id="a_node5"><a xlink:href="classel_1_1base_1_1utils_1_1_abstract_registry.html" target="_top" xlink:title="el::base::utils::Abstract\lRegistry\&lt; Configuration,\l std::vector\&lt; Configuration *\&gt; \&gt;">
<polygon fill="white" stroke="black" points="141,-558.5 141,-599.5 293,-599.5 293,-558.5 141,-558.5"/>
<text text-anchor="start" x="149" y="-587.5" font-family="Helvetica,sans-Serif" font-size="10.00">el::base::utils::Abstract</text>
<text text-anchor="start" x="149" y="-576.5" font-family="Helvetica,sans-Serif" font-size="10.00">Registry&lt; Configuration,</text>
<text text-anchor="middle" x="217" y="-565.5" font-family="Helvetica,sans-Serif" font-size="10.00"> std::vector&lt; Configuration *&gt; &gt;</text>
</a>
</g>
</g>
<!-- Node0&#45;&gt;Node4 -->
<g id="edge4" class="edge"><title>Node0&#45;&gt;Node4</title>
<path fill="none" stroke="midnightblue" d="M50.0988,-303.371C52.7108,-356.175 66.0884,-478.801 133,-549 136.383,-552.549 140.217,-555.68 144.336,-558.441"/>
<polygon fill="midnightblue" stroke="midnightblue" points="53.5891,-303.058 49.6895,-293.207 46.5948,-303.34 53.5891,-303.058"/>
</g>
<!-- Node7 -->
<g id="node8" class="node"><title>Node7</title>
<g id="a_node8"><a xlink:href="classel_1_1base_1_1utils_1_1_abstract_registry.html" target="_top" xlink:title="el::base::utils::Abstract\lRegistry\&lt; Logger, std::\lmap\&lt; std::string, Logger *\&gt; \&gt;">
<polygon fill="white" stroke="black" points="144.5,-498.5 144.5,-539.5 289.5,-539.5 289.5,-498.5 144.5,-498.5"/>
<text text-anchor="start" x="152.5" y="-527.5" font-family="Helvetica,sans-Serif" font-size="10.00">el::base::utils::Abstract</text>
<text text-anchor="start" x="152.5" y="-516.5" font-family="Helvetica,sans-Serif" font-size="10.00">Registry&lt; Logger, std::</text>
<text text-anchor="middle" x="217" y="-505.5" font-family="Helvetica,sans-Serif" font-size="10.00">map&lt; std::string, Logger *&gt; &gt;</text>
</a>
</g>
</g>
<!-- Node0&#45;&gt;Node7 -->
<g id="edge7" class="edge"><title>Node0&#45;&gt;Node7</title>
<path fill="none" stroke="midnightblue" d="M52.6862,-303.148C59.5217,-346.865 79.5708,-437.15 133,-489 136.629,-492.521 140.701,-495.633 145.042,-498.383"/>
<polygon fill="midnightblue" stroke="midnightblue" points="56.1259,-302.48 51.2208,-293.089 49.199,-303.489 56.1259,-302.48"/>
</g>
<!-- Node10 -->
<g id="node11" class="node"><title>Node10</title>
<g id="a_node11"><a xlink:href="classel_1_1base_1_1utils_1_1_abstract_registry.html" target="_top" xlink:title="el::base::utils::Abstract\lRegistry\&lt; T_Ptr, std::map\l\&lt; T_Key, T_Ptr *\&gt; \&gt;">
<polygon fill="white" stroke="black" points="152.5,-438.5 152.5,-479.5 281.5,-479.5 281.5,-438.5 152.5,-438.5"/>
<text text-anchor="start" x="160.5" y="-467.5" font-family="Helvetica,sans-Serif" font-size="10.00">el::base::utils::Abstract</text>
<text text-anchor="start" x="160.5" y="-456.5" font-family="Helvetica,sans-Serif" font-size="10.00">Registry&lt; T_Ptr, std::map</text>
<text text-anchor="middle" x="217" y="-445.5" font-family="Helvetica,sans-Serif" font-size="10.00">&lt; T_Key, T_Ptr *&gt; &gt;</text>
</a>
</g>
</g>
<!-- Node0&#45;&gt;Node10 -->
<g id="edge10" class="edge"><title>Node0&#45;&gt;Node10</title>
<path fill="none" stroke="midnightblue" d="M57.1232,-303.022C68.4752,-336.272 92.8978,-394.792 133,-429 138.712,-433.872 145.278,-437.979 152.162,-441.434"/>
<polygon fill="midnightblue" stroke="midnightblue" points="60.3364,-301.588 53.8935,-293.177 53.6852,-303.77 60.3364,-301.588"/>
</g>
<!-- Node12 -->
<g id="node13" class="node"><title>Node12</title>
<g id="a_node13"><a xlink:href="classel_1_1base_1_1utils_1_1_abstract_registry.html" target="_top" xlink:title="el::base::utils::Abstract\lRegistry\&lt; T_Ptr, std::vector\l\&lt; T_Ptr *\&gt; \&gt;">
<polygon fill="white" stroke="black" points="149,-378.5 149,-419.5 285,-419.5 285,-378.5 149,-378.5"/>
<text text-anchor="start" x="157" y="-407.5" font-family="Helvetica,sans-Serif" font-size="10.00">el::base::utils::Abstract</text>
<text text-anchor="start" x="157" y="-396.5" font-family="Helvetica,sans-Serif" font-size="10.00">Registry&lt; T_Ptr, std::vector</text>
<text text-anchor="middle" x="217" y="-385.5" font-family="Helvetica,sans-Serif" font-size="10.00">&lt; T_Ptr *&gt; &gt;</text>
</a>
</g>
</g>
<!-- Node0&#45;&gt;Node12 -->
<g id="edge12" class="edge"><title>Node0&#45;&gt;Node12</title>
<path fill="none" stroke="midnightblue" d="M65.8769,-301.458C81.1636,-321.814 105.674,-350.799 133,-369 138.228,-372.483 143.911,-375.619 149.768,-378.431"/>
<polygon fill="midnightblue" stroke="midnightblue" points="68.6446,-299.313 59.9089,-293.318 62.9995,-303.452 68.6446,-299.313"/>
</g>
<!-- Node14 -->
<g id="node15" class="node"><title>Node14</title>
<g id="a_node15"><a xlink:href="classel_1_1_callback.html" target="_top" xlink:title="el::Callback\&lt; LogDispatch\lData \&gt;">
<polygon fill="white" stroke="black" points="151.5,-329 151.5,-359 282.5,-359 282.5,-329 151.5,-329"/>
<text text-anchor="start" x="159.5" y="-347" font-family="Helvetica,sans-Serif" font-size="10.00">el::Callback&lt; LogDispatch</text>
<text text-anchor="middle" x="217" y="-336" font-family="Helvetica,sans-Serif" font-size="10.00">Data &gt;</text>
</a>
</g>
</g>
<!-- Node0&#45;&gt;Node14 -->
<g id="edge14" class="edge"><title>Node0&#45;&gt;Node14</title>
<path fill="none" stroke="darkgreen" d="M86.248,-297.663C100.599,-304.91 117.341,-312.845 133,-319 142.104,-322.578 151.936,-325.951 161.539,-328.992"/>
<polygon fill="darkgreen" stroke="darkgreen" points="87.6939,-294.471 77.1982,-293.025 84.5014,-300.7 87.6939,-294.471"/>
</g>
<!-- Node17 -->
<g id="node18" class="node"><title>Node17</title>
<g id="a_node18"><a xlink:href="classel_1_1_callback.html" target="_top" xlink:title="el::Callback\&lt; Logger \&gt;">
<polygon fill="white" stroke="black" points="159.5,-290.5 159.5,-309.5 274.5,-309.5 274.5,-290.5 159.5,-290.5"/>
<text text-anchor="middle" x="217" y="-297.5" font-family="Helvetica,sans-Serif" font-size="10.00">el::Callback&lt; Logger &gt;</text>
</a>
</g>
</g>
<!-- Node0&#45;&gt;Node17 -->
<g id="edge17" class="edge"><title>Node0&#45;&gt;Node17</title>
<path fill="none" stroke="darkgreen" d="M107.474,-285.66C124.317,-287.886 142.685,-290.313 159.44,-292.527"/>
<polygon fill="darkgreen" stroke="darkgreen" points="107.585,-282.144 97.2122,-284.304 106.668,-289.084 107.585,-282.144"/>
</g>
<!-- Node19 -->
<g id="node20" class="node"><title>Node19</title>
<g id="a_node20"><a xlink:href="classel_1_1_callback.html" target="_top" xlink:title="el::Callback\&lt; Performance\lTrackingData \&gt;">
<polygon fill="white" stroke="black" points="151.5,-241 151.5,-271 282.5,-271 282.5,-241 151.5,-241"/>
<text text-anchor="start" x="159.5" y="-259" font-family="Helvetica,sans-Serif" font-size="10.00">el::Callback&lt; Performance</text>
<text text-anchor="middle" x="217" y="-248" font-family="Helvetica,sans-Serif" font-size="10.00">TrackingData &gt;</text>
</a>
</g>
</g>
<!-- Node0&#45;&gt;Node19 -->
<g id="edge19" class="edge"><title>Node0&#45;&gt;Node19</title>
<path fill="none" stroke="darkgreen" d="M107.311,-270.361C121.482,-268.489 136.74,-266.473 151.214,-264.56"/>
<polygon fill="darkgreen" stroke="darkgreen" points="106.668,-266.916 97.2122,-271.696 107.585,-273.856 106.668,-266.916"/>
</g>
<!-- Node21 -->
<g id="node22" class="node"><title>Node21</title>
<g id="a_node22"><a xlink:href="classel_1_1base_1_1_storage.html" target="_top" xlink:title="Easylogging++ management storage. ">
<polygon fill="white" stroke="black" points="171.5,-202.5 171.5,-221.5 262.5,-221.5 262.5,-202.5 171.5,-202.5"/>
<text text-anchor="middle" x="217" y="-209.5" font-family="Helvetica,sans-Serif" font-size="10.00">el::base::Storage</text>
</a>
</g>
</g>
<!-- Node0&#45;&gt;Node21 -->
<g id="edge21" class="edge"><title>Node0&#45;&gt;Node21</title>
<path fill="none" stroke="midnightblue" d="M81.7235,-257.605C96.8354,-248.74 115.366,-238.84 133,-232 145.161,-227.283 158.769,-223.446 171.392,-220.441"/>
<polygon fill="midnightblue" stroke="midnightblue" points="79.5741,-254.812 72.7945,-262.954 83.1716,-260.817 79.5741,-254.812"/>
</g>
<!-- Node22 -->
<g id="node23" class="node"><title>Node22</title>
<g id="a_node23"><a xlink:href="classel_1_1base_1_1_typed_configurations.html" target="_top" xlink:title="Configurations with data types. ">
<polygon fill="white" stroke="black" points="144.5,-164.5 144.5,-183.5 289.5,-183.5 289.5,-164.5 144.5,-164.5"/>
<text text-anchor="middle" x="217" y="-171.5" font-family="Helvetica,sans-Serif" font-size="10.00">el::base::TypedConfigurations</text>
</a>
</g>
</g>
<!-- Node0&#45;&gt;Node22 -->
<g id="edge22" class="edge"><title>Node0&#45;&gt;Node22</title>
<path fill="none" stroke="midnightblue" d="M66.1852,-254.743C81.3999,-235.277 105.631,-208.297 133,-193 139.968,-189.105 147.689,-186.008 155.536,-183.546"/>
<polygon fill="midnightblue" stroke="midnightblue" points="63.3046,-252.749 60.0422,-262.829 68.8785,-256.984 63.3046,-252.749"/>
</g>
<!-- Node23 -->
<g id="node24" class="node"><title>Node23</title>
<g id="a_node24"><a xlink:href="classel_1_1base_1_1utils_1_1_abstract_registry.html" target="_top" xlink:title="Abstract registry (aka repository) that provides basic interface for pointer repository specified by ...">
<polygon fill="white" stroke="black" points="146.5,-115 146.5,-145 287.5,-145 287.5,-115 146.5,-115"/>
<text text-anchor="start" x="154.5" y="-133" font-family="Helvetica,sans-Serif" font-size="10.00">el::base::utils::Abstract</text>
<text text-anchor="middle" x="217" y="-122" font-family="Helvetica,sans-Serif" font-size="10.00">Registry&lt; T_Ptr, Container &gt;</text>
</a>
</g>
</g>
<!-- Node0&#45;&gt;Node23 -->
<g id="edge23" class="edge"><title>Node0&#45;&gt;Node23</title>
<path fill="none" stroke="midnightblue" d="M60.06,-253.208C73.181,-225.317 98.1696,-180.582 133,-155 138.216,-151.169 144.021,-147.92 150.07,-145.165"/>
<polygon fill="midnightblue" stroke="midnightblue" points="56.7179,-252.103 55.7666,-262.655 63.0906,-254.999 56.7179,-252.103"/>
</g>
<!-- Node24 -->
<g id="node25" class="node"><title>Node24</title>
<g id="a_node25"><a xlink:href="classel_1_1base_1_1_v_registry.html" target="_top" xlink:title="Represents registries for verbose logging. ">
<polygon fill="white" stroke="black" points="167,-76.5 167,-95.5 267,-95.5 267,-76.5 167,-76.5"/>
<text text-anchor="middle" x="217" y="-83.5" font-family="Helvetica,sans-Serif" font-size="10.00">el::base::VRegistry</text>
</a>
</g>
</g>
<!-- Node0&#45;&gt;Node24 -->
<g id="edge24" class="edge"><title>Node0&#45;&gt;Node24</title>
<path fill="none" stroke="midnightblue" d="M54.5951,-252.707C63.5795,-214.856 85.9274,-143.883 133,-106 142.584,-98.2868 154.678,-93.4728 166.648,-90.4888"/>
<polygon fill="midnightblue" stroke="midnightblue" points="51.0859,-252.361 52.3142,-262.885 57.9165,-253.892 51.0859,-252.361"/>
</g>
<!-- Node25 -->
<g id="node26" class="node"><title>Node25</title>
<g id="a_node26"><a xlink:href="classel_1_1_callback.html" target="_top" xlink:title="el::Callback\&lt; T \&gt;">
<polygon fill="white" stroke="black" points="171.5,-38.5 171.5,-57.5 262.5,-57.5 262.5,-38.5 171.5,-38.5"/>
<text text-anchor="middle" x="217" y="-45.5" font-family="Helvetica,sans-Serif" font-size="10.00">el::Callback&lt; T &gt;</text>
</a>
</g>
</g>
<!-- Node0&#45;&gt;Node25 -->
<g id="edge25" class="edge"><title>Node0&#45;&gt;Node25</title>
<path fill="none" stroke="darkgreen" d="M51.9784,-252.773C57.7525,-208.222 76.2564,-115.724 133,-67 143.654,-57.8514 157.831,-52.8762 171.449,-50.2369"/>
<polygon fill="darkgreen" stroke="darkgreen" points="48.4956,-252.422 50.7954,-262.764 55.4471,-253.245 48.4956,-252.422"/>
</g>
<!-- Node26 -->
<g id="node27" class="node"><title>Node26</title>
<g id="a_node27"><a xlink:href="classel_1_1_logger.html" target="_top" xlink:title="Represents a logger holding ID and configurations we need to write logs. ">
<polygon fill="white" stroke="black" points="187.5,-0.5 187.5,-19.5 246.5,-19.5 246.5,-0.5 187.5,-0.5"/>
<text text-anchor="middle" x="217" y="-7.5" font-family="Helvetica,sans-Serif" font-size="10.00">el::Logger</text>
</a>
</g>
</g>
<!-- Node0&#45;&gt;Node26 -->
<g id="edge26" class="edge"><title>Node0&#45;&gt;Node26</title>
<path fill="none" stroke="midnightblue" d="M50.212,-252.992C53.0603,-202.672 66.8937,-88.8946 133,-29 147.679,-15.7 169.732,-11.1176 187.417,-9.77073"/>
<polygon fill="midnightblue" stroke="midnightblue" points="46.7151,-252.846 49.7461,-262.998 53.7075,-253.171 46.7151,-252.846"/>
</g>
<!-- Node2 -->
<g id="node3" class="node"><title>Node2</title>
<g id="a_node3"><a xlink:href="classel_1_1base_1_1utils_1_1_registry_with_pred.html" target="_top" xlink:title="el::base::utils::Registry\lWithPred\&lt; base::HitCounter,\l base::HitCounter::Predicate \&gt;">
<polygon fill="white" stroke="black" points="342,-618.5 342,-659.5 491,-659.5 491,-618.5 342,-618.5"/>
<text text-anchor="start" x="350" y="-647.5" font-family="Helvetica,sans-Serif" font-size="10.00">el::base::utils::Registry</text>
<text text-anchor="start" x="350" y="-636.5" font-family="Helvetica,sans-Serif" font-size="10.00">WithPred&lt; base::HitCounter,</text>
<text text-anchor="middle" x="416.5" y="-625.5" font-family="Helvetica,sans-Serif" font-size="10.00"> base::HitCounter::Predicate &gt;</text>
</a>
</g>
</g>
<!-- Node1&#45;&gt;Node2 -->
<g id="edge2" class="edge"><title>Node1&#45;&gt;Node2</title>
<path fill="none" stroke="midnightblue" d="M311.364,-639C321.585,-639 331.883,-639 341.818,-639"/>
<polygon fill="midnightblue" stroke="midnightblue" points="311.185,-635.5 301.185,-639 311.185,-642.5 311.185,-635.5"/>
</g>
<!-- Node3 -->
<g id="node4" class="node"><title>Node3</title>
<g id="a_node4"><a xlink:href="classel_1_1base_1_1_registered_hit_counters.html" target="_top" xlink:title="Repository for hit counters used across the application. ">
<polygon fill="white" stroke="black" points="532,-629.5 532,-648.5 687,-648.5 687,-629.5 532,-629.5"/>
<text text-anchor="middle" x="609.5" y="-636.5" font-family="Helvetica,sans-Serif" font-size="10.00">el::base::RegisteredHitCounters</text>
</a>
</g>
</g>
<!-- Node2&#45;&gt;Node3 -->
<g id="edge3" class="edge"><title>Node2&#45;&gt;Node3</title>
<path fill="none" stroke="midnightblue" d="M501.178,-639C511.361,-639 521.727,-639 531.802,-639"/>
<polygon fill="midnightblue" stroke="midnightblue" points="501.072,-635.5 491.072,-639 501.072,-642.5 501.072,-635.5"/>
</g>
<!-- Node5 -->
<g id="node6" class="node"><title>Node5</title>
<g id="a_node6"><a xlink:href="classel_1_1base_1_1utils_1_1_registry_with_pred.html" target="_top" xlink:title="el::base::utils::Registry\lWithPred\&lt; Configuration,\l Configuration::Predicate \&gt;">
<polygon fill="white" stroke="black" points="350.5,-558.5 350.5,-599.5 482.5,-599.5 482.5,-558.5 350.5,-558.5"/>
<text text-anchor="start" x="358.5" y="-587.5" font-family="Helvetica,sans-Serif" font-size="10.00">el::base::utils::Registry</text>
<text text-anchor="start" x="358.5" y="-576.5" font-family="Helvetica,sans-Serif" font-size="10.00">WithPred&lt; Configuration,</text>
<text text-anchor="middle" x="416.5" y="-565.5" font-family="Helvetica,sans-Serif" font-size="10.00"> Configuration::Predicate &gt;</text>
</a>
</g>
</g>
<!-- Node4&#45;&gt;Node5 -->
<g id="edge5" class="edge"><title>Node4&#45;&gt;Node5</title>
<path fill="none" stroke="midnightblue" d="M303.496,-579C319.246,-579 335.453,-579 350.477,-579"/>
<polygon fill="midnightblue" stroke="midnightblue" points="303.23,-575.5 293.23,-579 303.23,-582.5 303.23,-575.5"/>
</g>
<!-- Node6 -->
<g id="node7" class="node"><title>Node6</title>
<g id="a_node7"><a xlink:href="classel_1_1_configurations.html" target="_top" xlink:title="Thread&#45;safe Configuration repository. ">
<polygon fill="white" stroke="black" points="563.5,-569.5 563.5,-588.5 655.5,-588.5 655.5,-569.5 563.5,-569.5"/>
<text text-anchor="middle" x="609.5" y="-576.5" font-family="Helvetica,sans-Serif" font-size="10.00">el::Configurations</text>
</a>
</g>
</g>
<!-- Node5&#45;&gt;Node6 -->
<g id="edge6" class="edge"><title>Node5&#45;&gt;Node6</title>
<path fill="none" stroke="midnightblue" d="M492.812,-579C516.708,-579 542.372,-579 563.442,-579"/>
<polygon fill="midnightblue" stroke="midnightblue" points="492.697,-575.5 482.697,-579 492.697,-582.5 492.697,-575.5"/>
</g>
<!-- Node8 -->
<g id="node9" class="node"><title>Node8</title>
<g id="a_node9"><a xlink:href="classel_1_1base_1_1utils_1_1_registry.html" target="_top" xlink:title="el::base::utils::Registry\l\&lt; Logger, std::string \&gt;">
<polygon fill="white" stroke="black" points="358,-504 358,-534 475,-534 475,-504 358,-504"/>
<text text-anchor="start" x="366" y="-522" font-family="Helvetica,sans-Serif" font-size="10.00">el::base::utils::Registry</text>
<text text-anchor="middle" x="416.5" y="-511" font-family="Helvetica,sans-Serif" font-size="10.00">&lt; Logger, std::string &gt;</text>
</a>
</g>
</g>
<!-- Node7&#45;&gt;Node8 -->
<g id="edge8" class="edge"><title>Node7&#45;&gt;Node8</title>
<path fill="none" stroke="midnightblue" d="M299.678,-519C319.176,-519 339.591,-519 357.755,-519"/>
<polygon fill="midnightblue" stroke="midnightblue" points="299.581,-515.5 289.581,-519 299.581,-522.5 299.581,-515.5"/>
</g>
<!-- Node9 -->
<g id="node10" class="node"><title>Node9</title>
<g id="a_node10"><a xlink:href="classel_1_1base_1_1_registered_loggers.html" target="_top" xlink:title="Loggers repository. ">
<polygon fill="white" stroke="black" points="540.5,-509.5 540.5,-528.5 678.5,-528.5 678.5,-509.5 540.5,-509.5"/>
<text text-anchor="middle" x="609.5" y="-516.5" font-family="Helvetica,sans-Serif" font-size="10.00">el::base::RegisteredLoggers</text>
</a>
</g>
</g>
<!-- Node8&#45;&gt;Node9 -->
<g id="edge9" class="edge"><title>Node8&#45;&gt;Node9</title>
<path fill="none" stroke="midnightblue" d="M485.13,-519C503.029,-519 522.361,-519 540.291,-519"/>
<polygon fill="midnightblue" stroke="midnightblue" points="485.065,-515.5 475.065,-519 485.065,-522.5 485.065,-515.5"/>
</g>
<!-- Node11 -->
<g id="node12" class="node"><title>Node11</title>
<g id="a_node12"><a xlink:href="classel_1_1base_1_1utils_1_1_registry.html" target="_top" xlink:title="A pointer registry mechanism to manage memory and provide search functionalities. ...">
<polygon fill="white" stroke="black" points="358,-444 358,-474 475,-474 475,-444 358,-444"/>
<text text-anchor="start" x="366" y="-462" font-family="Helvetica,sans-Serif" font-size="10.00">el::base::utils::Registry</text>
<text text-anchor="middle" x="416.5" y="-451" font-family="Helvetica,sans-Serif" font-size="10.00">&lt; T_Ptr, T_Key &gt;</text>
</a>
</g>
</g>
<!-- Node10&#45;&gt;Node11 -->
<g id="edge11" class="edge"><title>Node10&#45;&gt;Node11</title>
<path fill="none" stroke="midnightblue" d="M291.781,-459C313.572,-459 337.098,-459 357.726,-459"/>
<polygon fill="midnightblue" stroke="midnightblue" points="291.577,-455.5 281.577,-459 291.577,-462.5 291.577,-455.5"/>
</g>
<!-- Node13 -->
<g id="node14" class="node"><title>Node13</title>
<g id="a_node14"><a xlink:href="classel_1_1base_1_1utils_1_1_registry_with_pred.html" target="_top" xlink:title="A pointer registry mechanism to manage memory and provide search functionalities. ...">
<polygon fill="white" stroke="black" points="354,-384 354,-414 479,-414 479,-384 354,-384"/>
<text text-anchor="start" x="362" y="-402" font-family="Helvetica,sans-Serif" font-size="10.00">el::base::utils::Registry</text>
<text text-anchor="middle" x="416.5" y="-391" font-family="Helvetica,sans-Serif" font-size="10.00">WithPred&lt; T_Ptr, Pred &gt;</text>
</a>
</g>
</g>
<!-- Node12&#45;&gt;Node13 -->
<g id="edge13" class="edge"><title>Node12&#45;&gt;Node13</title>
<path fill="none" stroke="midnightblue" d="M295.191,-399C314.649,-399 335.28,-399 353.861,-399"/>
<polygon fill="midnightblue" stroke="midnightblue" points="295.14,-395.5 285.14,-399 295.14,-402.5 295.14,-395.5"/>
</g>
<!-- Node15 -->
<g id="node16" class="node"><title>Node15</title>
<g id="a_node16"><a xlink:href="classel_1_1_log_dispatch_callback.html" target="_top" xlink:title="el::LogDispatchCallback">
<polygon fill="white" stroke="black" points="355.5,-334.5 355.5,-353.5 477.5,-353.5 477.5,-334.5 355.5,-334.5"/>
<text text-anchor="middle" x="416.5" y="-341.5" font-family="Helvetica,sans-Serif" font-size="10.00">el::LogDispatchCallback</text>
</a>
</g>
</g>
<!-- Node14&#45;&gt;Node15 -->
<g id="edge15" class="edge"><title>Node14&#45;&gt;Node15</title>
<path fill="none" stroke="midnightblue" d="M292.696,-344C313.403,-344 335.612,-344 355.372,-344"/>
<polygon fill="midnightblue" stroke="midnightblue" points="292.669,-340.5 282.669,-344 292.669,-347.5 292.669,-340.5"/>
</g>
<!-- Node16 -->
<g id="node17" class="node"><title>Node16</title>
<g id="a_node17"><a xlink:href="classel_1_1base_1_1_default_log_dispatch_callback.html" target="_top" xlink:title="el::base::DefaultLogDispatch\lCallback">
<polygon fill="white" stroke="black" points="539,-329 539,-359 680,-359 680,-329 539,-329"/>
<text text-anchor="start" x="547" y="-347" font-family="Helvetica,sans-Serif" font-size="10.00">el::base::DefaultLogDispatch</text>
<text text-anchor="middle" x="609.5" y="-336" font-family="Helvetica,sans-Serif" font-size="10.00">Callback</text>
</a>
</g>
</g>
<!-- Node15&#45;&gt;Node16 -->
<g id="edge16" class="edge"><title>Node15&#45;&gt;Node16</title>
<path fill="none" stroke="midnightblue" d="M487.889,-344C504.56,-344 522.33,-344 538.963,-344"/>
<polygon fill="midnightblue" stroke="midnightblue" points="487.671,-340.5 477.671,-344 487.671,-347.5 487.671,-340.5"/>
</g>
<!-- Node18 -->
<g id="node19" class="node"><title>Node18</title>
<g id="a_node19"><a xlink:href="classel_1_1_logger_registration_callback.html" target="_top" xlink:title="el::LoggerRegistrationCallback">
<polygon fill="white" stroke="black" points="342,-290.5 342,-309.5 491,-309.5 491,-290.5 342,-290.5"/>
<text text-anchor="middle" x="416.5" y="-297.5" font-family="Helvetica,sans-Serif" font-size="10.00">el::LoggerRegistrationCallback</text>
</a>
</g>
</g>
<!-- Node17&#45;&gt;Node18 -->
<g id="edge18" class="edge"><title>Node17&#45;&gt;Node18</title>
<path fill="none" stroke="midnightblue" d="M284.637,-300C303.055,-300 323.145,-300 341.932,-300"/>
<polygon fill="midnightblue" stroke="midnightblue" points="284.596,-296.5 274.596,-300 284.596,-303.5 284.596,-296.5"/>
</g>
<!-- Node20 -->
<g id="node21" class="node"><title>Node20</title>
<g id="a_node21"><a xlink:href="classel_1_1_performance_tracking_callback.html" target="_top" xlink:title="el::PerformanceTrackingCallback">
<polygon fill="white" stroke="black" points="337,-246.5 337,-265.5 496,-265.5 496,-246.5 337,-246.5"/>
<text text-anchor="middle" x="416.5" y="-253.5" font-family="Helvetica,sans-Serif" font-size="10.00">el::PerformanceTrackingCallback</text>
</a>
</g>
</g>
<!-- Node19&#45;&gt;Node20 -->
<g id="edge20" class="edge"><title>Node19&#45;&gt;Node20</title>
<path fill="none" stroke="midnightblue" d="M292.984,-256C307.349,-256 322.427,-256 336.902,-256"/>
<polygon fill="midnightblue" stroke="midnightblue" points="292.669,-252.5 282.669,-256 292.669,-259.5 292.669,-252.5"/>
</g>
</g>
</svg>
