<?xml version="1.0" encoding="UTF-8" standalone="no"?>
<!DOCTYPE svg PUBLIC "-//W3C//DTD SVG 1.1//EN"
 "http://www.w3.org/Graphics/SVG/1.1/DTD/svg11.dtd">
<!-- Generated by graphviz version 2.38.0 (20140413.2041)
 -->
<!-- Title: vpr::Device::setupSparseBindingQueues Pages: 1 -->
<svg width="475pt" height="100pt"
 viewBox="0.00 0.00 475.00 99.50" xmlns="http://www.w3.org/2000/svg" xmlns:xlink="http://www.w3.org/1999/xlink">
<g id="graph0" class="graph" transform="scale(1 1) rotate(0) translate(4 95.5)">
<title>vpr::Device::setupSparseBindingQueues</title>
<polygon fill="white" stroke="none" points="-4,4 -4,-95.5 471,-95.5 471,4 -4,4"/>
<!-- Node197 -->
<g id="node1" class="node"><title>Node197</title>
<polygon fill="#bfbfbf" stroke="black" points="0,-39 0,-69 124,-69 124,-39 0,-39"/>
<text text-anchor="start" x="8" y="-57" font-family="Helvetica,sans-Serif" font-size="10.00">vpr::Device::setupSparse</text>
<text text-anchor="middle" x="62" y="-46" font-family="Helvetica,sans-Serif" font-size="10.00">BindingQueues</text>
</g>
<!-- Node198 -->
<g id="node2" class="node"><title>Node198</title>
<g id="a_node2"><a xlink:href="classvpr_1_1_physical_device.html#af443c2a585d182166c464f252782a57b" target="_top" xlink:title="! Attempts to find a Queue family that supports the full bitfield given: this can be multiple types...">
<polygon fill="white" stroke="black" points="348,-61 348,-91 467,-91 467,-61 348,-61"/>
<text text-anchor="start" x="356" y="-79" font-family="Helvetica,sans-Serif" font-size="10.00">vpr::PhysicalDevice</text>
<text text-anchor="middle" x="407.5" y="-68" font-family="Helvetica,sans-Serif" font-size="10.00">::GetQueueFamilyIndex</text>
</a>
</g>
</g>
<!-- Node197&#45;&gt;Node198 -->
<g id="edge1" class="edge"><title>Node197&#45;&gt;Node198</title>
<path fill="none" stroke="midnightblue" d="M111.383,-69.0249C126.767,-73.11 143.955,-76.9656 160,-79 219.657,-86.5641 288.083,-84.9214 337.682,-81.8996"/>
<polygon fill="midnightblue" stroke="midnightblue" points="338.216,-85.3725 347.97,-81.2366 337.766,-78.387 338.216,-85.3725"/>
</g>
<!-- Node199 -->
<g id="node3" class="node"><title>Node199</title>
<g id="a_node3"><a xlink:href="classvpr_1_1_physical_device.html#a2ee4f96b16a9762953ecad3b658d84e6" target="_top" xlink:title="vpr::PhysicalDevice\l::GetQueueFamilyProperties">
<polygon fill="white" stroke="black" points="166,-39 166,-69 306,-69 306,-39 166,-39"/>
<text text-anchor="start" x="174" y="-57" font-family="Helvetica,sans-Serif" font-size="10.00">vpr::PhysicalDevice</text>
<text text-anchor="middle" x="236" y="-46" font-family="Helvetica,sans-Serif" font-size="10.00">::GetQueueFamilyProperties</text>
</a>
</g>
</g>
<!-- Node197&#45;&gt;Node199 -->
<g id="edge2" class="edge"><title>Node197&#45;&gt;Node199</title>
<path fill="none" stroke="midnightblue" d="M124.125,-54C134.369,-54 145.129,-54 155.75,-54"/>
<polygon fill="midnightblue" stroke="midnightblue" points="155.87,-57.5001 165.87,-54 155.87,-50.5001 155.87,-57.5001"/>
</g>
<!-- Node200 -->
<g id="node4" class="node"><title>Node200</title>
<g id="a_node4"><a xlink:href="classvpr_1_1_device.html#af043c9b7994791cc4ae4b8a76a8d8918" target="_top" xlink:title="vpr::Device::SetupQueueFamily">
<polygon fill="white" stroke="black" points="160,-0.5 160,-19.5 312,-19.5 312,-0.5 160,-0.5"/>
<text text-anchor="middle" x="236" y="-7.5" font-family="Helvetica,sans-Serif" font-size="10.00">vpr::Device::SetupQueueFamily</text>
</a>
</g>
</g>
<!-- Node197&#45;&gt;Node200 -->
<g id="edge4" class="edge"><title>Node197&#45;&gt;Node200</title>
<path fill="none" stroke="midnightblue" d="M121.712,-38.9808C143.373,-33.4396 167.61,-27.2393 188.091,-22.0001"/>
<polygon fill="midnightblue" stroke="midnightblue" points="188.995,-25.3816 197.815,-19.5124 187.26,-18.6 188.995,-25.3816"/>
</g>
<!-- Node199&#45;&gt;Node198 -->
<g id="edge3" class="edge"><title>Node199&#45;&gt;Node198</title>
<path fill="none" stroke="midnightblue" d="M306.431,-63.0117C316.785,-64.3556 327.455,-65.7404 337.793,-67.0823"/>
<polygon fill="midnightblue" stroke="midnightblue" points="337.631,-70.5905 347.998,-68.4068 338.532,-63.6487 337.631,-70.5905"/>
</g>
</g>
</svg>
