<?xml version="1.0" encoding="UTF-8" standalone="no"?>
<!DOCTYPE svg PUBLIC "-//W3C//DTD SVG 1.1//EN"
 "http://www.w3.org/Graphics/SVG/1.1/DTD/svg11.dtd">
<!-- Generated by graphviz version 2.38.0 (20140413.2041)
 -->
<!-- Title: vpr::CommandPool Pages: 1 -->
<!--zoomable 263 -->
<svg id="main" version="1.1" xmlns="http://www.w3.org/2000/svg" xmlns:xlink="http://www.w3.org/1999/xlink" xml:space="preserve" onload="init(evt)">
<style type="text/css"><![CDATA[
.edge:hover path { stroke: red; }
.edge:hover polygon { stroke: red; fill: red; }
]]></style>
<script type="text/javascript"><![CDATA[
var edges = document.getElementsByTagName('g');
if (edges && edges.length) {
  for (var i=0;i<edges.length;i++) {
    if (edges[i].id.substr(0,4)=='edge') {
      edges[i].setAttribute('class','edge');
    }
  }
}
]]></script>
        <defs>
                <circle id="rim" cx="0" cy="0" r="7"/>
                <circle id="rim2" cx="0" cy="0" r="3.5"/>
                <g id="zoomPlus">
                        <use xlink:href="#rim" fill="#404040">
                                <set attributeName="fill" to="#808080" begin="zoomplus.mouseover" end="zoomplus.mouseout"/>
                        </use>
                        <path d="M-4,0h8M0,-4v8" fill="none" stroke="white" stroke-width="1.5" pointer-events="none"/>
                </g>
                <g id="zoomMin">
                        <use xlink:href="#rim" fill="#404040">
                                <set attributeName="fill" to="#808080" begin="zoomminus.mouseover" end="zoomminus.mouseout"/>
                        </use>
                        <path d="M-4,0h8" fill="none" stroke="white" stroke-width="1.5" pointer-events="none"/>
                </g>
                <g id="dirArrow">
                        <path fill="none" stroke="white" stroke-width="1.5" d="M0,-3.0v7 M-2.5,-0.5L0,-3.0L2.5,-0.5"/>
                </g>
               <g id="resetDef">
                       <use xlink:href="#rim2" fill="#404040">
                               <set attributeName="fill" to="#808080" begin="reset.mouseover" end="reset.mouseout"/>
                       </use>
               </g>
        </defs>

<script type="text/javascript">
var viewWidth = 1327;
var viewHeight = 263;
var sectionId = 'dynsection-1';
</script>
<script xlink:href="svgpan.js"/>
<svg id="graph" class="graph">
<g id="viewport">
<title>vpr::CommandPool</title>
<polygon fill="white" stroke="none" points="-4,4 -4,-259 1323,-259 1323,4 -4,4"/>
<!-- Node2 -->
<g id="node1" class="node"><title>Node2</title>
<polygon fill="#bfbfbf" stroke="black" points="1068,-90 1068,-109 1166,-109 1166,-90 1068,-90"/>
<text text-anchor="middle" x="1117" y="-97" font-family="Helvetica,sans-Serif" font-size="10.00">vpr::CommandPool</text>
</g>
<!-- Node3 -->
<g id="node2" class="node"><title>Node3</title>
<g id="a_node2"><a xlink:href="classvpr_1_1_device.html" target="_top" xlink:title="!The Device class is a wrapper around the vkLogicalDevice object. ">
<polygon fill="white" stroke="black" points="868,-148 868,-167 931,-167 931,-148 868,-148"/>
<text text-anchor="middle" x="899.5" y="-155" font-family="Helvetica,sans-Serif" font-size="10.00">vpr::Device</text>
</a>
</g>
</g>
<!-- Node3&#45;&gt;Node2 -->
<g id="edge1" class="edge"><title>Node3&#45;&gt;Node2</title>
<path fill="none" stroke="#9a32cd" stroke-dasharray="5,2" d="M941.122,-146.567C981.315,-135.749 1042.22,-119.357 1080.52,-109.049"/>
<polygon fill="#9a32cd" stroke="#9a32cd" points="940.123,-143.211 931.376,-149.19 941.942,-149.971 940.123,-143.211"/>
<text text-anchor="middle" x="1024" y="-133.5" font-family="Helvetica,sans-Serif" font-size="10.00"> parent</text>
</g>
<!-- Node12 -->
<g id="node9" class="node"><title>Node12</title>
<g id="a_node9"><a xlink:href="classvpr_1_1_allocator.html" target="_top" xlink:title="The primary interface and class of this subsystem. ">
<polygon fill="white" stroke="red" points="1080.5,-138 1080.5,-157 1153.5,-157 1153.5,-138 1080.5,-138"/>
<text text-anchor="middle" x="1117" y="-145" font-family="Helvetica,sans-Serif" font-size="10.00">vpr::Allocator</text>
</a>
</g>
</g>
<!-- Node3&#45;&gt;Node12 -->
<g id="edge9" class="edge"><title>Node3&#45;&gt;Node12</title>
<path fill="none" stroke="#9a32cd" stroke-dasharray="5,2" d="M941.602,-155.593C981.67,-153.733 1041.98,-150.935 1080.15,-149.163"/>
<polygon fill="#9a32cd" stroke="#9a32cd" points="941.203,-152.107 931.376,-156.067 941.527,-159.1 941.203,-152.107"/>
<text text-anchor="middle" x="1024" y="-156.5" font-family="Helvetica,sans-Serif" font-size="10.00"> parent</text>
</g>
<!-- Node4 -->
<g id="node3" class="node"><title>Node4</title>
<polygon fill="white" stroke="#bfbfbf" points="550,-224.5 550,-254.5 691,-254.5 691,-224.5 550,-224.5"/>
<text text-anchor="start" x="558" y="-242.5" font-family="Helvetica,sans-Serif" font-size="10.00">std::map&lt; VkQueueFlags,</text>
<text text-anchor="middle" x="620.5" y="-231.5" font-family="Helvetica,sans-Serif" font-size="10.00"> VkDeviceQueueCreateInfo &gt;</text>
</g>
<!-- Node4&#45;&gt;Node3 -->
<g id="edge2" class="edge"><title>Node4&#45;&gt;Node3</title>
<path fill="none" stroke="#9a32cd" stroke-dasharray="5,2" d="M701.319,-224.375C732.718,-217.621 768.875,-208.837 801,-198.5 828.619,-189.613 859.285,-176.078 878.717,-167.018"/>
<polygon fill="#9a32cd" stroke="#9a32cd" points="700.361,-221 691.303,-226.496 701.811,-227.849 700.361,-221"/>
<text text-anchor="middle" x="755" y="-225.5" font-family="Helvetica,sans-Serif" font-size="10.00"> queueInfos</text>
</g>
<!-- Node5 -->
<g id="node4" class="node"><title>Node5</title>
<g id="a_node4"><a xlink:href="namespacevpr.html#structvpr_1_1vk_queue_family_indices" target="_top" xlink:title="vpr::vkQueueFamilyIndices">
<polygon fill="white" stroke="black" points="554.5,-186 554.5,-205 686.5,-205 686.5,-186 554.5,-186"/>
<text text-anchor="middle" x="620.5" y="-193" font-family="Helvetica,sans-Serif" font-size="10.00">vpr::vkQueueFamilyIndices</text>
</a>
</g>
</g>
<!-- Node5&#45;&gt;Node3 -->
<g id="edge3" class="edge"><title>Node5&#45;&gt;Node3</title>
<path fill="none" stroke="#9a32cd" stroke-dasharray="5,2" d="M696.951,-185.577C729.036,-181.315 766.857,-176.234 801,-171.5 823.359,-168.4 848.583,-164.775 867.772,-161.99"/>
<polygon fill="#9a32cd" stroke="#9a32cd" points="696.199,-182.146 686.746,-186.931 697.12,-189.085 696.199,-182.146"/>
<text text-anchor="middle" x="755" y="-186.5" font-family="Helvetica,sans-Serif" font-size="10.00"> QueueFamilyIndices</text>
</g>
<!-- Node6 -->
<g id="node5" class="node"><title>Node6</title>
<polygon fill="white" stroke="#bfbfbf" points="329.5,-98.5 329.5,-128.5 424.5,-128.5 424.5,-98.5 329.5,-98.5"/>
<text text-anchor="start" x="337.5" y="-116.5" font-family="Helvetica,sans-Serif" font-size="10.00">std::vector&lt; const</text>
<text text-anchor="middle" x="377" y="-105.5" font-family="Helvetica,sans-Serif" font-size="10.00"> char *&gt;</text>
</g>
<!-- Node6&#45;&gt;Node3 -->
<g id="edge4" class="edge"><title>Node6&#45;&gt;Node3</title>
<path fill="none" stroke="#9a32cd" stroke-dasharray="5,2" d="M434.811,-115.711C516.17,-119.289 670.467,-127.609 801,-143.5 823.407,-146.228 848.629,-149.865 867.806,-152.748"/>
<polygon fill="#9a32cd" stroke="#9a32cd" points="434.921,-112.212 424.779,-115.277 434.619,-119.206 434.921,-112.212"/>
<text text-anchor="middle" x="620.5" y="-135.5" font-family="Helvetica,sans-Serif" font-size="10.00"> enabledExtensions</text>
</g>
<!-- Node29 -->
<g id="node10" class="node"><title>Node29</title>
<g id="a_node10"><a xlink:href="classvpr_1_1_instance.html" target="_top" xlink:title="Instance is a wrapper around the base Vulkan object that must be initialized first. ">
<polygon fill="white" stroke="black" points="585,-56 585,-75 656,-75 656,-56 585,-56"/>
<text text-anchor="middle" x="620.5" y="-63" font-family="Helvetica,sans-Serif" font-size="10.00">vpr::Instance</text>
</a>
</g>
</g>
<!-- Node6&#45;&gt;Node29 -->
<g id="edge13" class="edge"><title>Node6&#45;&gt;Node29</title>
<path fill="none" stroke="#9a32cd" stroke-dasharray="5,2" d="M434.362,-96.3329C438.286,-95.3197 442.193,-94.3633 446,-93.5 493.609,-82.7023 549.48,-74.4642 584.689,-69.8041"/>
<polygon fill="#9a32cd" stroke="#9a32cd" points="433.37,-92.9752 424.619,-98.9477 435.184,-99.736 433.37,-92.9752"/>
<text text-anchor="middle" x="489" y="-96.5" font-family="Helvetica,sans-Serif" font-size="10.00"> enabledExtensions</text>
</g>
<!-- Node7 -->
<g id="node6" class="node"><title>Node7</title>
<g id="a_node6"><a xlink:href="classvpr_1_1_physical_device.html" target="_top" xlink:title="! PhysicalDevice is a wrapper around a VkPhysicalDevice object, which is itself merely a handle repre...">
<polygon fill="white" stroke="black" points="174,-118 174,-137 275,-137 275,-118 174,-118"/>
<text text-anchor="middle" x="224.5" y="-125" font-family="Helvetica,sans-Serif" font-size="10.00">vpr::PhysicalDevice</text>
</a>
</g>
</g>
<!-- Node7&#45;&gt;Node3 -->
<g id="edge5" class="edge"><title>Node7&#45;&gt;Node3</title>
<path fill="none" stroke="#9a32cd" stroke-dasharray="5,2" d="M285.125,-134.07C298.556,-135.373 312.756,-136.611 326,-137.5 532.646,-151.376 781.937,-155.911 867.745,-157.12"/>
<polygon fill="#9a32cd" stroke="#9a32cd" points="285.329,-130.574 275.031,-133.067 284.636,-137.539 285.329,-130.574"/>
<text text-anchor="middle" x="489" y="-151.5" font-family="Helvetica,sans-Serif" font-size="10.00"> parent</text>
</g>
<!-- Node30 -->
<g id="node11" class="node"><title>Node30</title>
<polygon fill="white" stroke="#bfbfbf" points="326,-49.5 326,-79.5 428,-79.5 428,-49.5 326,-49.5"/>
<text text-anchor="start" x="334" y="-67.5" font-family="Helvetica,sans-Serif" font-size="10.00">std::unique_ptr&lt; vpr</text>
<text text-anchor="middle" x="377" y="-56.5" font-family="Helvetica,sans-Serif" font-size="10.00">::PhysicalDevice &gt;</text>
</g>
<!-- Node7&#45;&gt;Node30 -->
<g id="edge12" class="edge"><title>Node7&#45;&gt;Node30</title>
<path fill="none" stroke="#9a32cd" stroke-dasharray="5,2" d="M257.794,-113.981C281.956,-103.867 315.002,-90.034 340.011,-79.565"/>
<polygon fill="#9a32cd" stroke="#9a32cd" points="256.231,-110.842 248.358,-117.932 258.934,-117.299 256.231,-110.842"/>
<text text-anchor="middle" x="300.5" y="-101.5" font-family="Helvetica,sans-Serif" font-size="10.00"> ptr</text>
</g>
<!-- Node8 -->
<g id="node7" class="node"><title>Node8</title>
<polygon fill="white" stroke="#bfbfbf" points="0,-112.5 0,-142.5 116,-142.5 116,-112.5 0,-112.5"/>
<text text-anchor="start" x="8" y="-130.5" font-family="Helvetica,sans-Serif" font-size="10.00">std::unique_ptr&lt; vpr</text>
<text text-anchor="middle" x="58" y="-119.5" font-family="Helvetica,sans-Serif" font-size="10.00">::PhysicalDeviceImpl &gt;</text>
</g>
<!-- Node8&#45;&gt;Node7 -->
<g id="edge6" class="edge"><title>Node8&#45;&gt;Node7</title>
<path fill="none" stroke="#9a32cd" stroke-dasharray="5,2" d="M126.39,-127.5C142.298,-127.5 158.973,-127.5 173.928,-127.5"/>
<polygon fill="#9a32cd" stroke="#9a32cd" points="126.072,-124 116.072,-127.5 126.072,-131 126.072,-124"/>
<text text-anchor="middle" x="145" y="-130.5" font-family="Helvetica,sans-Serif" font-size="10.00"> impl</text>
</g>
<!-- Node11 -->
<g id="node8" class="node"><title>Node11</title>
<polygon fill="white" stroke="#bfbfbf" points="1217,-160.5 1217,-190.5 1319,-190.5 1319,-160.5 1217,-160.5"/>
<text text-anchor="start" x="1225" y="-178.5" font-family="Helvetica,sans-Serif" font-size="10.00">std::unique_ptr&lt; vpr</text>
<text text-anchor="middle" x="1268" y="-167.5" font-family="Helvetica,sans-Serif" font-size="10.00">::Allocator &gt;</text>
</g>
<!-- Node11&#45;&gt;Node3 -->
<g id="edge7" class="edge"><title>Node11&#45;&gt;Node3</title>
<path fill="none" stroke="#9a32cd" stroke-dasharray="5,2" d="M1206.91,-177.633C1199.2,-177.706 1191.41,-177.679 1184,-177.5 1101.26,-175.499 1080.5,-175.143 998,-168.5 975.587,-166.695 950.365,-163.827 931.19,-161.472"/>
<polygon fill="#9a32cd" stroke="#9a32cd" points="1207.02,-181.132 1216.96,-177.486 1206.91,-174.133 1207.02,-181.132"/>
<text text-anchor="middle" x="1117" y="-180.5" font-family="Helvetica,sans-Serif" font-size="10.00"> vkAllocator</text>
</g>
<!-- Node12&#45;&gt;Node11 -->
<g id="edge8" class="edge"><title>Node12&#45;&gt;Node11</title>
<path fill="none" stroke="#9a32cd" stroke-dasharray="5,2" d="M1163.83,-156.112C1180.65,-159.274 1199.78,-162.868 1216.95,-166.095"/>
<polygon fill="#9a32cd" stroke="#9a32cd" points="1164.16,-152.614 1153.69,-154.207 1162.87,-159.493 1164.16,-152.614"/>
<text text-anchor="middle" x="1191.5" y="-165.5" font-family="Helvetica,sans-Serif" font-size="10.00"> ptr</text>
</g>
<!-- Node29&#45;&gt;Node3 -->
<g id="edge10" class="edge"><title>Node29&#45;&gt;Node3</title>
<path fill="none" stroke="#9a32cd" stroke-dasharray="5,2" d="M666.238,-65.9021C703.744,-67.7499 757.921,-74.0165 801,-93.5 810.488,-97.7913 810.546,-102.419 819,-108.5 839.664,-123.363 864.884,-138.426 881.299,-147.852"/>
<polygon fill="#9a32cd" stroke="#9a32cd" points="666.259,-62.4002 656.125,-65.4908 665.974,-69.3944 666.259,-62.4002"/>
<text text-anchor="middle" x="755" y="-96.5" font-family="Helvetica,sans-Serif" font-size="10.00"> parentInstance</text>
</g>
<!-- Node30&#45;&gt;Node29 -->
<g id="edge11" class="edge"><title>Node30&#45;&gt;Node29</title>
<path fill="none" stroke="#9a32cd" stroke-dasharray="5,2" d="M438.262,-59.8338C440.876,-59.7057 443.464,-59.5931 446,-59.5 484.196,-58.0976 493.8,-58.1918 532,-59.5 549.348,-60.0941 568.597,-61.3489 584.614,-62.5581"/>
<polygon fill="#9a32cd" stroke="#9a32cd" points="437.901,-56.3484 428.11,-60.3969 438.289,-63.3376 437.901,-56.3484"/>
<text text-anchor="middle" x="489" y="-62.5" font-family="Helvetica,sans-Serif" font-size="10.00"> physicalDevice</text>
</g>
<!-- Node31 -->
<g id="node12" class="node"><title>Node31</title>
<polygon fill="white" stroke="#bfbfbf" points="326,-0.5 326,-30.5 428,-30.5 428,-0.5 326,-0.5"/>
<text text-anchor="start" x="334" y="-18.5" font-family="Helvetica,sans-Serif" font-size="10.00">std::unique_ptr&lt; vpr</text>
<text text-anchor="middle" x="377" y="-7.5" font-family="Helvetica,sans-Serif" font-size="10.00">::SurfaceKHR &gt;</text>
</g>
<!-- Node31&#45;&gt;Node29 -->
<g id="edge14" class="edge"><title>Node31&#45;&gt;Node29</title>
<path fill="none" stroke="#9a32cd" stroke-dasharray="5,2" d="M438.315,-25.51C466.813,-30.4837 501.249,-36.8463 532,-43.5 549.453,-47.2763 568.713,-52.052 584.71,-56.1882"/>
<polygon fill="#9a32cd" stroke="#9a32cd" points="438.553,-21.9992 428.103,-23.7425 437.359,-28.8967 438.553,-21.9992"/>
<text text-anchor="middle" x="489" y="-46.5" font-family="Helvetica,sans-Serif" font-size="10.00"> surface</text>
</g>
<!-- Node33 -->
<g id="node13" class="node"><title>Node33</title>
<polygon fill="white" stroke="#bfbfbf" points="819,-80 819,-99 980,-99 980,-80 819,-80"/>
<text text-anchor="middle" x="899.5" y="-87" font-family="Helvetica,sans-Serif" font-size="10.00">std::vector&lt; VkCommandBuffer &gt;</text>
</g>
<!-- Node33&#45;&gt;Node2 -->
<g id="edge15" class="edge"><title>Node33&#45;&gt;Node2</title>
<path fill="none" stroke="#9a32cd" stroke-dasharray="5,2" d="M990.291,-88.2234C1009.98,-88.467 1030.71,-89.1259 1050,-90.5 1055.77,-90.9108 1061.8,-91.5045 1067.77,-92.1939"/>
<polygon fill="#9a32cd" stroke="#9a32cd" points="990.131,-84.7219 980.1,-88.1322 990.069,-91.7216 990.131,-84.7219"/>
<text text-anchor="middle" x="1024" y="-93.5" font-family="Helvetica,sans-Serif" font-size="10.00"> cmdBuffers</text>
</g>
</g>
</svg>
        <g id="navigator" transform="translate(0 0)" fill="#404254">
                <rect fill="#f2f5e9" fill-opacity="0.5" stroke="#606060" stroke-width=".5" x="0" y="0" width="60" height="60"/>
                <use id="zoomplus" xlink:href="#zoomPlus" x="17" y="9" onmousedown="handleZoom(evt,'in')"/>
                <use id="zoomminus" xlink:href="#zoomMin" x="42" y="9" onmousedown="handleZoom(evt,'out')"/>
                <use id="reset" xlink:href="#resetDef" x="30" y="36" onmousedown="handleReset()"/>
                <g id="arrowUp" xlink:href="#dirArrow" transform="translate(30 24)" onmousedown="handlePan(0,-1)">
                  <use xlink:href="#rim" fill="#404040">
                        <set attributeName="fill" to="#808080" begin="arrowUp.mouseover" end="arrowUp.mouseout"/>
                  </use>
                  <path fill="none" stroke="white" stroke-width="1.5" d="M0,-3.0v7 M-2.5,-0.5L0,-3.0L2.5,-0.5"/>
                </g>
                <g id="arrowRight" xlink:href="#dirArrow" transform="rotate(90) translate(36 -43)" onmousedown="handlePan(1,0)">
                  <use xlink:href="#rim" fill="#404040">
                        <set attributeName="fill" to="#808080" begin="arrowRight.mouseover" end="arrowRight.mouseout"/>
                  </use>
                  <path fill="none" stroke="white" stroke-width="1.5" d="M0,-3.0v7 M-2.5,-0.5L0,-3.0L2.5,-0.5"/>
                </g>
                <g id="arrowDown" xlink:href="#dirArrow" transform="rotate(180) translate(-30 -48)" onmousedown="handlePan(0,1)">
                  <use xlink:href="#rim" fill="#404040">
                        <set attributeName="fill" to="#808080" begin="arrowDown.mouseover" end="arrowDown.mouseout"/>
                  </use>
                  <path fill="none" stroke="white" stroke-width="1.5" d="M0,-3.0v7 M-2.5,-0.5L0,-3.0L2.5,-0.5"/>
                </g>
                <g id="arrowLeft" xlink:href="#dirArrow" transform="rotate(270) translate(-36 17)" onmousedown="handlePan(-1,0)">
                  <use xlink:href="#rim" fill="#404040">
                        <set attributeName="fill" to="#808080" begin="arrowLeft.mouseover" end="arrowLeft.mouseout"/>
                  </use>
                  <path fill="none" stroke="white" stroke-width="1.5" d="M0,-3.0v7 M-2.5,-0.5L0,-3.0L2.5,-0.5"/>
                </g>
        </g>
        <svg viewBox="0 0 15 15" width="100%" height="30px" preserveAspectRatio="xMaxYMin meet">
         <g id="arrow_out" transform="scale(0.3 0.3)">
          <a xlink:href="classvpr_1_1_command_pool__coll__graph_org.svg" target="_base">
           <rect id="button" ry="5" rx="5" y="6" x="6" height="38" width="38"
                fill="#f2f5e9" fill-opacity="0.5" stroke="#606060" stroke-width="1.0"/>
           <path id="arrow"
             d="M 11.500037,31.436501 C 11.940474,20.09759 22.043105,11.32322 32.158766,21.979434 L 37.068811,17.246167 C 37.068811,17.246167 37.088388,32 37.088388,32 L 22.160133,31.978069 C 22.160133,31.978069 26.997745,27.140456 26.997745,27.140456 C 18.528582,18.264221 13.291696,25.230495 11.500037,31.436501 z"
             style="fill:#404040;"/>
          </a>
         </g>
        </svg>
</svg>
