<?xml version="1.0" encoding="UTF-8" standalone="no"?>
<!DOCTYPE svg PUBLIC "-//W3C//DTD SVG 1.1//EN"
 "http://www.w3.org/Graphics/SVG/1.1/DTD/svg11.dtd">
<!-- Generated by graphviz version 2.38.0 (20140413.2041)
 -->
<!-- Title: el::base::VRegistry::allowed Pages: 1 -->
<svg width="260pt" height="176pt"
 viewBox="0.00 0.00 260.00 176.00" xmlns="http://www.w3.org/2000/svg" xmlns:xlink="http://www.w3.org/1999/xlink">
<g id="graph0" class="graph" transform="scale(1 1) rotate(0) translate(4 172)">
<title>el::base::VRegistry::allowed</title>
<polygon fill="white" stroke="none" points="-4,4 -4,-172 256,-172 256,4 -4,4"/>
<!-- Node5 -->
<g id="node1" class="node"><title>Node5</title>
<polygon fill="#bfbfbf" stroke="black" points="0,-71.5 0,-101.5 100,-101.5 100,-71.5 0,-71.5"/>
<text text-anchor="start" x="8" y="-89.5" font-family="Helvetica,sans-Serif" font-size="10.00">el::base::VRegistry</text>
<text text-anchor="middle" x="50" y="-78.5" font-family="Helvetica,sans-Serif" font-size="10.00">::allowed</text>
</g>
<!-- Node6 -->
<g id="node2" class="node"><title>Node6</title>
<g id="a_node2"><a xlink:href="classel_1_1base_1_1utils_1_1_file.html#a6e259e600e50f4d72d44f75c9ce77e27" target="_top" xlink:title="builds base filename and puts it in buff ">
<polygon fill="white" stroke="black" points="141.5,-137.5 141.5,-167.5 246.5,-167.5 246.5,-137.5 141.5,-137.5"/>
<text text-anchor="start" x="149.5" y="-155.5" font-family="Helvetica,sans-Serif" font-size="10.00">el::base::utils::File</text>
<text text-anchor="middle" x="194" y="-144.5" font-family="Helvetica,sans-Serif" font-size="10.00">::buildBaseFilename</text>
</a>
</g>
</g>
<!-- Node5&#45;&gt;Node6 -->
<g id="edge1" class="edge"><title>Node5&#45;&gt;Node6</title>
<path fill="none" stroke="midnightblue" d="M81.5615,-101.571C97.6871,-109.439 117.843,-119.142 136,-127.5 140.143,-129.407 144.468,-131.364 148.805,-133.304"/>
<polygon fill="midnightblue" stroke="midnightblue" points="147.686,-136.637 158.246,-137.495 150.526,-130.239 147.686,-136.637"/>
</g>
<!-- Node7 -->
<g id="node3" class="node"><title>Node7</title>
<g id="a_node3"><a xlink:href="namespaceel_1_1base_1_1utils.html#a51e93c9ba0ac509b2b7a933147349891" target="_top" xlink:title="el::base::utils::hasFlag">
<polygon fill="white" stroke="black" points="136,-99 136,-118 252,-118 252,-99 136,-99"/>
<text text-anchor="middle" x="194" y="-106" font-family="Helvetica,sans-Serif" font-size="10.00">el::base::utils::hasFlag</text>
</a>
</g>
</g>
<!-- Node5&#45;&gt;Node7 -->
<g id="edge2" class="edge"><title>Node5&#45;&gt;Node7</title>
<path fill="none" stroke="midnightblue" d="M100.266,-94.1328C108.442,-95.3994 117.043,-96.732 125.575,-98.0539"/>
<polygon fill="midnightblue" stroke="midnightblue" points="125.111,-101.524 135.529,-99.5961 126.183,-94.6063 125.111,-101.524"/>
</g>
<!-- Node8 -->
<g id="node4" class="node"><title>Node8</title>
<g id="a_node4"><a xlink:href="classel_1_1base_1_1threading_1_1_thread_safe.html#affb45b35790a7305d0a659562c8104fc" target="_top" xlink:title="el::base::threading\l::ThreadSafe::lock">
<polygon fill="white" stroke="black" points="145.5,-49.5 145.5,-79.5 242.5,-79.5 242.5,-49.5 145.5,-49.5"/>
<text text-anchor="start" x="153.5" y="-67.5" font-family="Helvetica,sans-Serif" font-size="10.00">el::base::threading</text>
<text text-anchor="middle" x="194" y="-56.5" font-family="Helvetica,sans-Serif" font-size="10.00">::ThreadSafe::lock</text>
</a>
</g>
</g>
<!-- Node5&#45;&gt;Node8 -->
<g id="edge3" class="edge"><title>Node5&#45;&gt;Node8</title>
<path fill="none" stroke="midnightblue" d="M100.266,-78.8672C111.542,-77.1203 123.627,-75.2479 135.224,-73.4511"/>
<polygon fill="midnightblue" stroke="midnightblue" points="135.911,-76.8865 145.258,-71.8967 134.84,-69.9691 135.911,-76.8865"/>
</g>
<!-- Node9 -->
<g id="node5" class="node"><title>Node9</title>
<g id="a_node5"><a xlink:href="classel_1_1base_1_1utils_1_1_str.html#a0f96b488eca9772e204f8b5feddd9a90" target="_top" xlink:title="Matches wildcards, &#39;*&#39; and &#39;?&#39; only supported. ">
<polygon fill="white" stroke="black" points="147,-0.5 147,-30.5 241,-30.5 241,-0.5 147,-0.5"/>
<text text-anchor="start" x="155" y="-18.5" font-family="Helvetica,sans-Serif" font-size="10.00">el::base::utils::Str</text>
<text text-anchor="middle" x="194" y="-7.5" font-family="Helvetica,sans-Serif" font-size="10.00">::wildCardMatch</text>
</a>
</g>
</g>
<!-- Node5&#45;&gt;Node9 -->
<g id="edge4" class="edge"><title>Node5&#45;&gt;Node9</title>
<path fill="none" stroke="midnightblue" d="M77.5029,-71.4244C94.1246,-62.1533 116.102,-50.2273 136,-40.5 139.985,-38.552 144.157,-36.586 148.354,-34.6578"/>
<polygon fill="midnightblue" stroke="midnightblue" points="149.847,-37.8244 157.52,-30.5188 146.966,-31.4447 149.847,-37.8244"/>
</g>
</g>
</svg>
