<?xml version="1.0" encoding="UTF-8" standalone="no"?>
<!DOCTYPE svg PUBLIC "-//W3C//DTD SVG 1.1//EN"
 "http://www.w3.org/Graphics/SVG/1.1/DTD/svg11.dtd">
<!-- Generated by graphviz version 2.38.0 (20140413.2041)
 -->
<!-- Title: src Pages: 1 -->
<svg width="532pt" height="132pt"
 viewBox="0.00 0.00 532.00 132.00" xmlns="http://www.w3.org/2000/svg" xmlns:xlink="http://www.w3.org/1999/xlink">
<g id="graph0" class="graph" transform="scale(1 1) rotate(0) translate(4 128)">
<title>src</title>
<polygon fill="white" stroke="none" points="-4,4 -4,-128 528,-128 528,4 -4,4"/>
<g id="clust1" class="cluster"><title>clusterdir_96af2eeb815ed2f580849cb249e97e89</title>
<g id="a_clust1"><a xlink:href="dir_96af2eeb815ed2f580849cb249e97e89.html" target="_top">
<polygon fill="#eeeeff" stroke="black" points="8,-64 8,-116 516,-116 516,-64 8,-64"/>
</a>
</g>
</g>
<!-- dir_96af2eeb815ed2f580849cb249e97e89 -->
<g id="node1" class="node"><title>dir_96af2eeb815ed2f580849cb249e97e89</title>
<text text-anchor="middle" x="481" y="-87.5" font-family="Helvetica,sans-Serif" font-size="10.00">src</text>
</g>
<!-- dir_93091c7b79c638229f4ff9c8be41573d -->
<g id="node2" class="node"><title>dir_93091c7b79c638229f4ff9c8be41573d</title>
<g id="a_node2"><a xlink:href="dir_93091c7b79c638229f4ff9c8be41573d.html" target="_top" xlink:title="alloc">
<polygon fill="white" stroke="black" points="436,-108 382,-108 382,-72 436,-72 436,-108"/>
<text text-anchor="middle" x="409" y="-87.5" font-family="Helvetica,sans-Serif" font-size="10.00">alloc</text>
</a>
</g>
</g>
<!-- dir_cbc39a2a770fc8a078e80e5da0a86852 -->
<g id="node3" class="node"><title>dir_cbc39a2a770fc8a078e80e5da0a86852</title>
<g id="a_node3"><a xlink:href="dir_cbc39a2a770fc8a078e80e5da0a86852.html" target="_top" xlink:title="command">
<polygon fill="white" stroke="black" points="363.5,-108 304.5,-108 304.5,-72 363.5,-72 363.5,-108"/>
<text text-anchor="middle" x="334" y="-87.5" font-family="Helvetica,sans-Serif" font-size="10.00">command</text>
</a>
</g>
</g>
<!-- dir_a0ce244f87cad8318b8630a018699292 -->
<g id="node4" class="node"><title>dir_a0ce244f87cad8318b8630a018699292</title>
<g id="a_node4"><a xlink:href="dir_a0ce244f87cad8318b8630a018699292.html" target="_top" xlink:title="core">
<polygon fill="white" stroke="black" points="286,-108 232,-108 232,-72 286,-72 286,-108"/>
<text text-anchor="middle" x="259" y="-87.5" font-family="Helvetica,sans-Serif" font-size="10.00">core</text>
</a>
</g>
</g>
<!-- dir_f7904554aa7cddf04efa948c6237f4fd -->
<g id="node5" class="node"><title>dir_f7904554aa7cddf04efa948c6237f4fd</title>
<g id="a_node5"><a xlink:href="dir_f7904554aa7cddf04efa948c6237f4fd.html" target="_top" xlink:title="render">
<polygon fill="white" stroke="black" points="214,-108 160,-108 160,-72 214,-72 214,-108"/>
<text text-anchor="middle" x="187" y="-87.5" font-family="Helvetica,sans-Serif" font-size="10.00">render</text>
</a>
</g>
</g>
<!-- dir_ad55239841454dffd420ecc42512bc69 -->
<g id="node6" class="node"><title>dir_ad55239841454dffd420ecc42512bc69</title>
<g id="a_node6"><a xlink:href="dir_ad55239841454dffd420ecc42512bc69.html" target="_top" xlink:title="resource">
<polygon fill="white" stroke="black" points="142,-108 88,-108 88,-72 142,-72 142,-108"/>
<text text-anchor="middle" x="115" y="-87.5" font-family="Helvetica,sans-Serif" font-size="10.00">resource</text>
</a>
</g>
</g>
<!-- dir_4a58bed59d4eeb8513cf0860a9a4a84f -->
<g id="node8" class="node"><title>dir_4a58bed59d4eeb8513cf0860a9a4a84f</title>
<g id="a_node8"><a xlink:href="dir_4a58bed59d4eeb8513cf0860a9a4a84f.html" target="_top" xlink:title="include">
<polygon fill="white" stroke="red" points="142,-36 88,-36 88,-0 142,-0 142,-36"/>
<text text-anchor="middle" x="115" y="-15.5" font-family="Helvetica,sans-Serif" font-size="10.00">include</text>
</a>
</g>
</g>
<!-- dir_ad55239841454dffd420ecc42512bc69&#45;&gt;dir_4a58bed59d4eeb8513cf0860a9a4a84f -->
<g id="edge1" class="edge"><title>dir_ad55239841454dffd420ecc42512bc69&#45;&gt;dir_4a58bed59d4eeb8513cf0860a9a4a84f</title>
<path fill="none" stroke="black" d="M115,-71.6966C115,-63.9827 115,-54.7125 115,-46.1124"/>
<polygon fill="black" stroke="black" points="118.5,-46.1043 115,-36.1043 111.5,-46.1044 118.5,-46.1043"/>
<g id="a_edge1&#45;headlabel"><a xlink:href="dir_000027_000000.html" target="_top" xlink:title="1">
<text text-anchor="middle" x="121.339" y="-47.199" font-family="Helvetica,sans-Serif" font-size="10.00">1</text>
</a>
</g>
</g>
<!-- dir_2903a103a61c7e30d8331aa4be86bf89 -->
<g id="node7" class="node"><title>dir_2903a103a61c7e30d8331aa4be86bf89</title>
<g id="a_node7"><a xlink:href="dir_2903a103a61c7e30d8331aa4be86bf89.html" target="_top" xlink:title="util">
<polygon fill="white" stroke="black" points="70,-108 16,-108 16,-72 70,-72 70,-108"/>
<text text-anchor="middle" x="43" y="-87.5" font-family="Helvetica,sans-Serif" font-size="10.00">util</text>
</a>
</g>
</g>
</g>
</svg>
