<?xml version="1.0" encoding="UTF-8" standalone="no"?>
<!DOCTYPE svg PUBLIC "-//W3C//DTD SVG 1.1//EN"
 "http://www.w3.org/Graphics/SVG/1.1/DTD/svg11.dtd">
<!-- Generated by graphviz version 2.38.0 (20140413.2041)
 -->
<!-- Title: include Pages: 1 -->
<svg width="316pt" height="220pt"
 viewBox="0.00 0.00 316.00 220.00" xmlns="http://www.w3.org/2000/svg" xmlns:xlink="http://www.w3.org/1999/xlink">
<g id="graph0" class="graph" transform="scale(1 1) rotate(0) translate(4 216)">
<title>include</title>
<polygon fill="white" stroke="none" points="-4,4 -4,-216 312,-216 312,4 -4,4"/>
<g id="clust1" class="cluster"><title>clusterdir_d44c64559bbebec7f509842c48db8b23</title>
<g id="a_clust1"><a xlink:href="dir_d44c64559bbebec7f509842c48db8b23.html" target="_top">
<polygon fill="#eeeeff" stroke="black" points="8,-8 8,-204 300,-204 300,-8 8,-8"/>
</a>
</g>
</g>
<!-- dir_d44c64559bbebec7f509842c48db8b23 -->
<g id="node1" class="node"><title>dir_d44c64559bbebec7f509842c48db8b23</title>
<text text-anchor="middle" x="265" y="-175.5" font-family="Helvetica,sans-Serif" font-size="10.00">include</text>
</g>
<!-- dir_0966d06610f72609fd9aa4979c2b5a92 -->
<g id="node4" class="node"><title>dir_0966d06610f72609fd9aa4979c2b5a92</title>
<g id="a_node4"><a xlink:href="dir_0966d06610f72609fd9aa4979c2b5a92.html" target="_top" xlink:title="common">
<polygon fill="white" stroke="black" points="292,-124 238,-124 238,-88 292,-88 292,-124"/>
<text text-anchor="middle" x="265" y="-103.5" font-family="Helvetica,sans-Serif" font-size="10.00">common</text>
</a>
</g>
</g>
<!-- dir_d44c64559bbebec7f509842c48db8b23&#45;&gt;dir_0966d06610f72609fd9aa4979c2b5a92 -->
<g id="edge2" class="edge"><title>dir_d44c64559bbebec7f509842c48db8b23&#45;&gt;dir_0966d06610f72609fd9aa4979c2b5a92</title>
<path fill="none" stroke="black" d="M265,-159.697C265,-151.983 265,-142.712 265,-134.112"/>
<polygon fill="black" stroke="black" points="268.5,-134.104 265,-124.104 261.5,-134.104 268.5,-134.104"/>
<g id="a_edge2&#45;headlabel"><a xlink:href="dir_000000_000003.html" target="_top" xlink:title="2">
<text text-anchor="middle" x="271.339" y="-135.199" font-family="Helvetica,sans-Serif" font-size="10.00">2</text>
</a>
</g>
</g>
<!-- dir_4b66bdc4dbcc85cf36e696cb62ef0c5b -->
<g id="node2" class="node"><title>dir_4b66bdc4dbcc85cf36e696cb62ef0c5b</title>
<g id="a_node2"><a xlink:href="dir_4b66bdc4dbcc85cf36e696cb62ef0c5b.html" target="_top" xlink:title="alloc">
<polygon fill="white" stroke="black" points="142,-52 88,-52 88,-16 142,-16 142,-52"/>
<text text-anchor="middle" x="115" y="-31.5" font-family="Helvetica,sans-Serif" font-size="10.00">alloc</text>
</a>
</g>
</g>
<!-- dir_0b5240cbcc7be621e1bb9d5abea53742 -->
<g id="node3" class="node"><title>dir_0b5240cbcc7be621e1bb9d5abea53742</title>
<g id="a_node3"><a xlink:href="dir_0b5240cbcc7be621e1bb9d5abea53742.html" target="_top" xlink:title="command">
<polygon fill="white" stroke="black" points="219.5,-196 160.5,-196 160.5,-160 219.5,-160 219.5,-196"/>
<text text-anchor="middle" x="190" y="-175.5" font-family="Helvetica,sans-Serif" font-size="10.00">command</text>
</a>
</g>
</g>
<!-- dir_3d69f64eaf81436fe2b22361382717e5 -->
<g id="node5" class="node"><title>dir_3d69f64eaf81436fe2b22361382717e5</title>
<g id="a_node5"><a xlink:href="dir_3d69f64eaf81436fe2b22361382717e5.html" target="_top" xlink:title="core">
<polygon fill="white" stroke="black" points="217,-124 163,-124 163,-88 217,-88 217,-124"/>
<text text-anchor="middle" x="190" y="-103.5" font-family="Helvetica,sans-Serif" font-size="10.00">core</text>
</a>
</g>
</g>
<!-- dir_0b5240cbcc7be621e1bb9d5abea53742&#45;&gt;dir_3d69f64eaf81436fe2b22361382717e5 -->
<g id="edge3" class="edge"><title>dir_0b5240cbcc7be621e1bb9d5abea53742&#45;&gt;dir_3d69f64eaf81436fe2b22361382717e5</title>
<path fill="none" stroke="black" d="M190,-159.697C190,-151.983 190,-142.712 190,-134.112"/>
<polygon fill="black" stroke="black" points="193.5,-134.104 190,-124.104 186.5,-134.104 193.5,-134.104"/>
<g id="a_edge3&#45;headlabel"><a xlink:href="dir_000002_000004.html" target="_top" xlink:title="1">
<text text-anchor="middle" x="196.339" y="-135.199" font-family="Helvetica,sans-Serif" font-size="10.00">1</text>
</a>
</g>
</g>
<!-- dir_ada157988d47c0ed8971be2c0e2fe61c -->
<g id="node6" class="node"><title>dir_ada157988d47c0ed8971be2c0e2fe61c</title>
<g id="a_node6"><a xlink:href="dir_ada157988d47c0ed8971be2c0e2fe61c.html" target="_top" xlink:title="render">
<polygon fill="white" stroke="black" points="142,-196 88,-196 88,-160 142,-160 142,-196"/>
<text text-anchor="middle" x="115" y="-175.5" font-family="Helvetica,sans-Serif" font-size="10.00">render</text>
</a>
</g>
</g>
<!-- dir_053212cf1d68c36e1917934822bf58ae -->
<g id="node7" class="node"><title>dir_053212cf1d68c36e1917934822bf58ae</title>
<g id="a_node7"><a xlink:href="dir_053212cf1d68c36e1917934822bf58ae.html" target="_top" xlink:title="resource">
<polygon fill="white" stroke="black" points="142,-124 88,-124 88,-88 142,-88 142,-124"/>
<text text-anchor="middle" x="115" y="-103.5" font-family="Helvetica,sans-Serif" font-size="10.00">resource</text>
</a>
</g>
</g>
<!-- dir_ada157988d47c0ed8971be2c0e2fe61c&#45;&gt;dir_053212cf1d68c36e1917934822bf58ae -->
<g id="edge1" class="edge"><title>dir_ada157988d47c0ed8971be2c0e2fe61c&#45;&gt;dir_053212cf1d68c36e1917934822bf58ae</title>
<path fill="none" stroke="black" d="M115,-159.697C115,-151.983 115,-142.712 115,-134.112"/>
<polygon fill="black" stroke="black" points="118.5,-134.104 115,-124.104 111.5,-134.104 118.5,-134.104"/>
<g id="a_edge1&#45;headlabel"><a xlink:href="dir_000005_000006.html" target="_top" xlink:title="1">
<text text-anchor="middle" x="121.339" y="-135.199" font-family="Helvetica,sans-Serif" font-size="10.00">1</text>
</a>
</g>
</g>
<!-- dir_053212cf1d68c36e1917934822bf58ae&#45;&gt;dir_4b66bdc4dbcc85cf36e696cb62ef0c5b -->
<g id="edge4" class="edge"><title>dir_053212cf1d68c36e1917934822bf58ae&#45;&gt;dir_4b66bdc4dbcc85cf36e696cb62ef0c5b</title>
<path fill="none" stroke="black" d="M115,-87.6966C115,-79.9827 115,-70.7125 115,-62.1124"/>
<polygon fill="black" stroke="black" points="118.5,-62.1043 115,-52.1043 111.5,-62.1044 118.5,-62.1043"/>
<g id="a_edge4&#45;headlabel"><a xlink:href="dir_000006_000001.html" target="_top" xlink:title="2">
<text text-anchor="middle" x="121.339" y="-63.199" font-family="Helvetica,sans-Serif" font-size="10.00">2</text>
</a>
</g>
</g>
<!-- dir_586ad3c2f85d776b984733890d824e3e -->
<g id="node8" class="node"><title>dir_586ad3c2f85d776b984733890d824e3e</title>
<g id="a_node8"><a xlink:href="dir_586ad3c2f85d776b984733890d824e3e.html" target="_top" xlink:title="util">
<polygon fill="white" stroke="black" points="70,-196 16,-196 16,-160 70,-160 70,-196"/>
<text text-anchor="middle" x="43" y="-175.5" font-family="Helvetica,sans-Serif" font-size="10.00">util</text>
</a>
</g>
</g>
</g>
</svg>
