<?xml version="1.0" encoding="UTF-8" standalone="no"?>
<!DOCTYPE svg PUBLIC "-//W3C//DTD SVG 1.1//EN"
 "http://www.w3.org/Graphics/SVG/1.1/DTD/svg11.dtd">
<!-- Generated by graphviz version 2.38.0 (20140413.2041)
 -->
<!-- Title: C:/Users/kjones/Documents/SoftwareDev/VulpesSceneKit/third_party/vulpesrender/include Pages: 1 -->
<svg width="604pt" height="148pt"
 viewBox="0.00 0.00 604.00 148.00" xmlns="http://www.w3.org/2000/svg" xmlns:xlink="http://www.w3.org/1999/xlink">
<g id="graph0" class="graph" transform="scale(1 1) rotate(0) translate(4 144)">
<title>C:/Users/kjones/Documents/SoftwareDev/VulpesSceneKit/third_party/vulpesrender/include</title>
<polygon fill="white" stroke="none" points="-4,4 -4,-144 600,-144 600,4 -4,4"/>
<g id="clust1" class="cluster"><title>clusterdir_d44c64559bbebec7f509842c48db8b23</title>
<g id="a_clust1"><a xlink:href="dir_d44c64559bbebec7f509842c48db8b23.html" target="_top">
<polygon fill="#eeeeff" stroke="black" points="8,-8 8,-132 588,-132 588,-8 8,-8"/>
</a>
</g>
</g>
<!-- dir_d44c64559bbebec7f509842c48db8b23 -->
<g id="node1" class="node"><title>dir_d44c64559bbebec7f509842c48db8b23</title>
<text text-anchor="middle" x="553" y="-103.5" font-family="Helvetica,sans-Serif" font-size="10.00">include</text>
</g>
<!-- dir_0966d06610f72609fd9aa4979c2b5a92 -->
<g id="node4" class="node"><title>dir_0966d06610f72609fd9aa4979c2b5a92</title>
<g id="a_node4"><a xlink:href="dir_0966d06610f72609fd9aa4979c2b5a92.html" target="_top" xlink:title="common">
<polygon fill="white" stroke="black" points="580,-52 526,-52 526,-16 580,-16 580,-52"/>
<text text-anchor="middle" x="553" y="-31.5" font-family="Helvetica,sans-Serif" font-size="10.00">common</text>
</a>
</g>
</g>
<!-- dir_d44c64559bbebec7f509842c48db8b23&#45;&gt;dir_0966d06610f72609fd9aa4979c2b5a92 -->
<g id="edge1" class="edge"><title>dir_d44c64559bbebec7f509842c48db8b23&#45;&gt;dir_0966d06610f72609fd9aa4979c2b5a92</title>
<path fill="none" stroke="black" d="M553,-87.6966C553,-79.9827 553,-70.7125 553,-62.1124"/>
<polygon fill="black" stroke="black" points="556.5,-62.1043 553,-52.1043 549.5,-62.1044 556.5,-62.1043"/>
<g id="a_edge1&#45;headlabel"><a xlink:href="dir_000002_000007.html" target="_top" xlink:title="2">
<text text-anchor="middle" x="559.339" y="-63.199" font-family="Helvetica,sans-Serif" font-size="10.00">2</text>
</a>
</g>
</g>
<!-- dir_4b66bdc4dbcc85cf36e696cb62ef0c5b -->
<g id="node2" class="node"><title>dir_4b66bdc4dbcc85cf36e696cb62ef0c5b</title>
<g id="a_node2"><a xlink:href="dir_4b66bdc4dbcc85cf36e696cb62ef0c5b.html" target="_top" xlink:title="alloc">
<polygon fill="white" stroke="black" points="508,-124 454,-124 454,-88 508,-88 508,-124"/>
<text text-anchor="middle" x="481" y="-103.5" font-family="Helvetica,sans-Serif" font-size="10.00">alloc</text>
</a>
</g>
</g>
<!-- dir_0b5240cbcc7be621e1bb9d5abea53742 -->
<g id="node3" class="node"><title>dir_0b5240cbcc7be621e1bb9d5abea53742</title>
<g id="a_node3"><a xlink:href="dir_0b5240cbcc7be621e1bb9d5abea53742.html" target="_top" xlink:title="command">
<polygon fill="white" stroke="black" points="435.5,-124 376.5,-124 376.5,-88 435.5,-88 435.5,-124"/>
<text text-anchor="middle" x="406" y="-103.5" font-family="Helvetica,sans-Serif" font-size="10.00">command</text>
</a>
</g>
</g>
<!-- dir_3d69f64eaf81436fe2b22361382717e5 -->
<g id="node5" class="node"><title>dir_3d69f64eaf81436fe2b22361382717e5</title>
<g id="a_node5"><a xlink:href="dir_3d69f64eaf81436fe2b22361382717e5.html" target="_top" xlink:title="core">
<polygon fill="white" stroke="black" points="358,-124 304,-124 304,-88 358,-88 358,-124"/>
<text text-anchor="middle" x="331" y="-103.5" font-family="Helvetica,sans-Serif" font-size="10.00">core</text>
</a>
</g>
</g>
<!-- dir_ada157988d47c0ed8971be2c0e2fe61c -->
<g id="node6" class="node"><title>dir_ada157988d47c0ed8971be2c0e2fe61c</title>
<g id="a_node6"><a xlink:href="dir_ada157988d47c0ed8971be2c0e2fe61c.html" target="_top" xlink:title="render">
<polygon fill="white" stroke="black" points="286,-124 232,-124 232,-88 286,-88 286,-124"/>
<text text-anchor="middle" x="259" y="-103.5" font-family="Helvetica,sans-Serif" font-size="10.00">render</text>
</a>
</g>
</g>
<!-- dir_053212cf1d68c36e1917934822bf58ae -->
<g id="node7" class="node"><title>dir_053212cf1d68c36e1917934822bf58ae</title>
<g id="a_node7"><a xlink:href="dir_053212cf1d68c36e1917934822bf58ae.html" target="_top" xlink:title="resource">
<polygon fill="white" stroke="black" points="214,-124 160,-124 160,-88 214,-88 214,-124"/>
<text text-anchor="middle" x="187" y="-103.5" font-family="Helvetica,sans-Serif" font-size="10.00">resource</text>
</a>
</g>
</g>
<!-- dir_5540bc73877c3e47893b63debdd0706f -->
<g id="node8" class="node"><title>dir_5540bc73877c3e47893b63debdd0706f</title>
<g id="a_node8"><a xlink:href="dir_5540bc73877c3e47893b63debdd0706f.html" target="_top" xlink:title="sync">
<polygon fill="white" stroke="black" points="142,-124 88,-124 88,-88 142,-88 142,-124"/>
<text text-anchor="middle" x="115" y="-103.5" font-family="Helvetica,sans-Serif" font-size="10.00">sync</text>
</a>
</g>
</g>
<!-- dir_586ad3c2f85d776b984733890d824e3e -->
<g id="node9" class="node"><title>dir_586ad3c2f85d776b984733890d824e3e</title>
<g id="a_node9"><a xlink:href="dir_586ad3c2f85d776b984733890d824e3e.html" target="_top" xlink:title="util">
<polygon fill="white" stroke="black" points="70,-124 16,-124 16,-88 70,-88 70,-124"/>
<text text-anchor="middle" x="43" y="-103.5" font-family="Helvetica,sans-Serif" font-size="10.00">util</text>
</a>
</g>
</g>
</g>
</svg>
