<?xml version="1.0" encoding="UTF-8" standalone="no"?>
<!DOCTYPE svg PUBLIC "-//W3C//DTD SVG 1.1//EN"
 "http://www.w3.org/Graphics/SVG/1.1/DTD/svg11.dtd">
<!-- Generated by graphviz version 2.38.0 (20140413.2041)
 -->
<!-- Title: include Pages: 1 -->
<svg width="532pt" height="148pt"
 viewBox="0.00 0.00 532.00 148.00" xmlns="http://www.w3.org/2000/svg" xmlns:xlink="http://www.w3.org/1999/xlink">
<g id="graph0" class="graph" transform="scale(1 1) rotate(0) translate(4 144)">
<title>include</title>
<polygon fill="white" stroke="none" points="-4,4 -4,-144 528,-144 528,4 -4,4"/>
<g id="clust1" class="cluster"><title>clusterdir_4a58bed59d4eeb8513cf0860a9a4a84f</title>
<g id="a_clust1"><a xlink:href="dir_4a58bed59d4eeb8513cf0860a9a4a84f.html" target="_top">
<polygon fill="#eeeeff" stroke="black" points="8,-8 8,-132 516,-132 516,-8 8,-8"/>
</a>
</g>
</g>
<!-- dir_4a58bed59d4eeb8513cf0860a9a4a84f -->
<g id="node1" class="node"><title>dir_4a58bed59d4eeb8513cf0860a9a4a84f</title>
<text text-anchor="middle" x="481" y="-103.5" font-family="Helvetica,sans-Serif" font-size="10.00">include</text>
</g>
<!-- dir_030b9a03d54d2183b8f92d90decbcc1a -->
<g id="node4" class="node"><title>dir_030b9a03d54d2183b8f92d90decbcc1a</title>
<g id="a_node4"><a xlink:href="dir_030b9a03d54d2183b8f92d90decbcc1a.html" target="_top" xlink:title="common">
<polygon fill="white" stroke="black" points="508,-52 454,-52 454,-16 508,-16 508,-52"/>
<text text-anchor="middle" x="481" y="-31.5" font-family="Helvetica,sans-Serif" font-size="10.00">common</text>
</a>
</g>
</g>
<!-- dir_4a58bed59d4eeb8513cf0860a9a4a84f&#45;&gt;dir_030b9a03d54d2183b8f92d90decbcc1a -->
<g id="edge1" class="edge"><title>dir_4a58bed59d4eeb8513cf0860a9a4a84f&#45;&gt;dir_030b9a03d54d2183b8f92d90decbcc1a</title>
<path fill="none" stroke="black" d="M481,-87.6966C481,-79.9827 481,-70.7125 481,-62.1124"/>
<polygon fill="black" stroke="black" points="484.5,-62.1043 481,-52.1043 477.5,-62.1044 484.5,-62.1043"/>
<g id="a_edge1&#45;headlabel"><a xlink:href="dir_000000_000006.html" target="_top" xlink:title="2">
<text text-anchor="middle" x="487.339" y="-63.199" font-family="Helvetica,sans-Serif" font-size="10.00">2</text>
</a>
</g>
</g>
<!-- dir_cf6dd26b50d2b6e154ed33657da9341c -->
<g id="node2" class="node"><title>dir_cf6dd26b50d2b6e154ed33657da9341c</title>
<g id="a_node2"><a xlink:href="dir_cf6dd26b50d2b6e154ed33657da9341c.html" target="_top" xlink:title="alloc">
<polygon fill="white" stroke="black" points="436,-124 382,-124 382,-88 436,-88 436,-124"/>
<text text-anchor="middle" x="409" y="-103.5" font-family="Helvetica,sans-Serif" font-size="10.00">alloc</text>
</a>
</g>
</g>
<!-- dir_657c668a137a5da5979d8c7fb2124d28 -->
<g id="node3" class="node"><title>dir_657c668a137a5da5979d8c7fb2124d28</title>
<g id="a_node3"><a xlink:href="dir_657c668a137a5da5979d8c7fb2124d28.html" target="_top" xlink:title="command">
<polygon fill="white" stroke="black" points="363.5,-124 304.5,-124 304.5,-88 363.5,-88 363.5,-124"/>
<text text-anchor="middle" x="334" y="-103.5" font-family="Helvetica,sans-Serif" font-size="10.00">command</text>
</a>
</g>
</g>
<!-- dir_0bd1e204ece6bcd8ce41a780f5f08741 -->
<g id="node5" class="node"><title>dir_0bd1e204ece6bcd8ce41a780f5f08741</title>
<g id="a_node5"><a xlink:href="dir_0bd1e204ece6bcd8ce41a780f5f08741.html" target="_top" xlink:title="core">
<polygon fill="white" stroke="black" points="286,-124 232,-124 232,-88 286,-88 286,-124"/>
<text text-anchor="middle" x="259" y="-103.5" font-family="Helvetica,sans-Serif" font-size="10.00">core</text>
</a>
</g>
</g>
<!-- dir_cced443be6af096b064389cd607e13c7 -->
<g id="node6" class="node"><title>dir_cced443be6af096b064389cd607e13c7</title>
<g id="a_node6"><a xlink:href="dir_cced443be6af096b064389cd607e13c7.html" target="_top" xlink:title="render">
<polygon fill="white" stroke="black" points="214,-124 160,-124 160,-88 214,-88 214,-124"/>
<text text-anchor="middle" x="187" y="-103.5" font-family="Helvetica,sans-Serif" font-size="10.00">render</text>
</a>
</g>
</g>
<!-- dir_efd961cabdf387502473d952587d10d5 -->
<g id="node7" class="node"><title>dir_efd961cabdf387502473d952587d10d5</title>
<g id="a_node7"><a xlink:href="dir_efd961cabdf387502473d952587d10d5.html" target="_top" xlink:title="resource">
<polygon fill="white" stroke="black" points="142,-124 88,-124 88,-88 142,-88 142,-124"/>
<text text-anchor="middle" x="115" y="-103.5" font-family="Helvetica,sans-Serif" font-size="10.00">resource</text>
</a>
</g>
</g>
<!-- dir_c87161979e2ff02eb58bea44ca9d9371 -->
<g id="node8" class="node"><title>dir_c87161979e2ff02eb58bea44ca9d9371</title>
<g id="a_node8"><a xlink:href="dir_c87161979e2ff02eb58bea44ca9d9371.html" target="_top" xlink:title="util">
<polygon fill="white" stroke="black" points="70,-124 16,-124 16,-88 70,-88 70,-124"/>
<text text-anchor="middle" x="43" y="-103.5" font-family="Helvetica,sans-Serif" font-size="10.00">util</text>
</a>
</g>
</g>
</g>
</svg>
