<?xml version="1.0" encoding="UTF-8" standalone="no"?>
<!DOCTYPE svg PUBLIC "-//W3C//DTD SVG 1.1//EN"
 "http://www.w3.org/Graphics/SVG/1.1/DTD/svg11.dtd">
<!-- Generated by graphviz version 2.38.0 (20140413.2041)
 -->
<!-- Title: include/util/easylogging++.h Pages: 1 -->
<!--zoomable 84 -->
<svg id="main" version="1.1" xmlns="http://www.w3.org/2000/svg" xmlns:xlink="http://www.w3.org/1999/xlink" xml:space="preserve" onload="init(evt)">
<style type="text/css"><![CDATA[
.edge:hover path { stroke: red; }
.edge:hover polygon { stroke: red; fill: red; }
]]></style>
<script type="text/javascript"><![CDATA[
var edges = document.getElementsByTagName('g');
if (edges && edges.length) {
  for (var i=0;i<edges.length;i++) {
    if (edges[i].id.substr(0,4)=='edge') {
      edges[i].setAttribute('class','edge');
    }
  }
}
]]></script>
        <defs>
                <circle id="rim" cx="0" cy="0" r="7"/>
                <circle id="rim2" cx="0" cy="0" r="3.5"/>
                <g id="zoomPlus">
                        <use xlink:href="#rim" fill="#404040">
                                <set attributeName="fill" to="#808080" begin="zoomplus.mouseover" end="zoomplus.mouseout"/>
                        </use>
                        <path d="M-4,0h8M0,-4v8" fill="none" stroke="white" stroke-width="1.5" pointer-events="none"/>
                </g>
                <g id="zoomMin">
                        <use xlink:href="#rim" fill="#404040">
                                <set attributeName="fill" to="#808080" begin="zoomminus.mouseover" end="zoomminus.mouseout"/>
                        </use>
                        <path d="M-4,0h8" fill="none" stroke="white" stroke-width="1.5" pointer-events="none"/>
                </g>
                <g id="dirArrow">
                        <path fill="none" stroke="white" stroke-width="1.5" d="M0,-3.0v7 M-2.5,-0.5L0,-3.0L2.5,-0.5"/>
                </g>
               <g id="resetDef">
                       <use xlink:href="#rim2" fill="#404040">
                               <set attributeName="fill" to="#808080" begin="reset.mouseover" end="reset.mouseout"/>
                       </use>
               </g>
        </defs>

<script type="text/javascript">
var viewWidth = 1833;
var viewHeight = 84;
var sectionId = 'dynsection-1';
</script>
<script xlink:href="svgpan.js"/>
<svg id="graph" class="graph">
<g id="viewport">
<title>include/util/easylogging++.h</title>
<polygon fill="white" stroke="none" points="-4,4 -4,-80 1829,-80 1829,4 -4,4"/>
<!-- Node20 -->
<g id="node1" class="node"><title>Node20</title>
<polygon fill="#bfbfbf" stroke="black" points="835,-56.5 835,-75.5 973,-75.5 973,-56.5 835,-56.5"/>
<text text-anchor="middle" x="904" y="-63.5" font-family="Helvetica,sans-Serif" font-size="10.00">include/util/easylogging++.h</text>
</g>
<!-- Node21 -->
<g id="node2" class="node"><title>Node21</title>
<g id="a_node2"><a xlink:href="_allocation_8cpp.html" target="_top" xlink:title="src/alloc/Allocation.cpp">
<polygon fill="white" stroke="black" points="0,-0.5 0,-19.5 118,-19.5 118,-0.5 0,-0.5"/>
<text text-anchor="middle" x="59" y="-7.5" font-family="Helvetica,sans-Serif" font-size="10.00">src/alloc/Allocation.cpp</text>
</a>
</g>
</g>
<!-- Node20&#45;&gt;Node21 -->
<g id="edge1" class="edge"><title>Node20&#45;&gt;Node21</title>
<path fill="none" stroke="midnightblue" d="M824.48,-62.3312C683.651,-57.1731 381.262,-44.1558 127,-20 124.155,-19.7297 121.245,-19.431 118.309,-19.1115"/>
<polygon fill="midnightblue" stroke="midnightblue" points="824.625,-65.8387 834.746,-62.7038 824.879,-58.8433 824.625,-65.8387"/>
</g>
<!-- Node22 -->
<g id="node3" class="node"><title>Node22</title>
<g id="a_node3"><a xlink:href="_allocation_collection_8cpp.html" target="_top" xlink:title="src/alloc/AllocationCollection.cpp">
<polygon fill="white" stroke="black" points="136.5,-0.5 136.5,-19.5 297.5,-19.5 297.5,-0.5 136.5,-0.5"/>
<text text-anchor="middle" x="217" y="-7.5" font-family="Helvetica,sans-Serif" font-size="10.00">src/alloc/AllocationCollection.cpp</text>
</a>
</g>
</g>
<!-- Node20&#45;&gt;Node22 -->
<g id="edge2" class="edge"><title>Node20&#45;&gt;Node22</title>
<path fill="none" stroke="midnightblue" d="M824.809,-59.6906C710.273,-51.8639 491.74,-36.3772 306,-20 303.215,-19.7545 300.382,-19.499 297.521,-19.2361"/>
<polygon fill="midnightblue" stroke="midnightblue" points="824.677,-63.1897 834.892,-60.3782 825.153,-56.2059 824.677,-63.1897"/>
</g>
<!-- Node23 -->
<g id="node4" class="node"><title>Node23</title>
<g id="a_node4"><a xlink:href="_allocator_8cpp.html" target="_top" xlink:title="src/alloc/Allocator.cpp">
<polygon fill="white" stroke="black" points="315.5,-0.5 315.5,-19.5 428.5,-19.5 428.5,-0.5 315.5,-0.5"/>
<text text-anchor="middle" x="372" y="-7.5" font-family="Helvetica,sans-Serif" font-size="10.00">src/alloc/Allocator.cpp</text>
</a>
</g>
</g>
<!-- Node20&#45;&gt;Node23 -->
<g id="edge3" class="edge"><title>Node20&#45;&gt;Node23</title>
<path fill="none" stroke="midnightblue" d="M824.491,-58.3511C731.469,-50.3375 572.869,-35.9455 437,-20 434.284,-19.6813 431.507,-19.3433 428.703,-18.9923"/>
<polygon fill="midnightblue" stroke="midnightblue" points="824.409,-61.8568 834.672,-59.2251 825.008,-54.8824 824.409,-61.8568"/>
</g>
<!-- Node24 -->
<g id="node5" class="node"><title>Node24</title>
<g id="a_node5"><a xlink:href="_memory_block_8cpp.html" target="_top" xlink:title="src/alloc/MemoryBlock.cpp">
<polygon fill="white" stroke="black" points="446.5,-0.5 446.5,-19.5 581.5,-19.5 581.5,-0.5 446.5,-0.5"/>
<text text-anchor="middle" x="514" y="-7.5" font-family="Helvetica,sans-Serif" font-size="10.00">src/alloc/MemoryBlock.cpp</text>
</a>
</g>
</g>
<!-- Node20&#45;&gt;Node24 -->
<g id="edge4" class="edge"><title>Node20&#45;&gt;Node24</title>
<path fill="none" stroke="midnightblue" d="M832.082,-55.0421C758.423,-44.8432 645.133,-29.1569 575.508,-19.5164"/>
<polygon fill="midnightblue" stroke="midnightblue" points="831.818,-58.5388 842.203,-56.4435 832.778,-51.605 831.818,-58.5388"/>
</g>
<!-- Node25 -->
<g id="node6" class="node"><title>Node25</title>
<g id="a_node6"><a xlink:href="_command_pool_8cpp.html" target="_top" xlink:title="src/command/CommandPool.cpp">
<polygon fill="white" stroke="black" points="599.5,-0.5 599.5,-19.5 760.5,-19.5 760.5,-0.5 599.5,-0.5"/>
<text text-anchor="middle" x="680" y="-7.5" font-family="Helvetica,sans-Serif" font-size="10.00">src/command/CommandPool.cpp</text>
</a>
</g>
</g>
<!-- Node20&#45;&gt;Node25 -->
<g id="edge5" class="edge"><title>Node20&#45;&gt;Node25</title>
<path fill="none" stroke="midnightblue" d="M858.737,-54.0884C816.418,-43.8865 754.091,-28.8612 715.327,-19.5164"/>
<polygon fill="midnightblue" stroke="midnightblue" points="857.965,-57.5024 868.507,-56.4435 859.605,-50.6974 857.965,-57.5024"/>
</g>
<!-- Node26 -->
<g id="node7" class="node"><title>Node26</title>
<g id="a_node7"><a xlink:href="_instance_8cpp.html" target="_top" xlink:title="src/core/Instance.cpp">
<polygon fill="white" stroke="black" points="779,-0.5 779,-19.5 889,-19.5 889,-0.5 779,-0.5"/>
<text text-anchor="middle" x="834" y="-7.5" font-family="Helvetica,sans-Serif" font-size="10.00">src/core/Instance.cpp</text>
</a>
</g>
</g>
<!-- Node20&#45;&gt;Node26 -->
<g id="edge6" class="edge"><title>Node20&#45;&gt;Node26</title>
<path fill="none" stroke="midnightblue" d="M884.686,-50.1008C872.088,-40.3824 856.072,-28.0269 845.451,-19.8339"/>
<polygon fill="midnightblue" stroke="midnightblue" points="882.698,-52.9871 892.753,-56.324 886.973,-47.4446 882.698,-52.9871"/>
</g>
<!-- Node27 -->
<g id="node8" class="node"><title>Node27</title>
<g id="a_node8"><a xlink:href="_logical_device_8cpp.html" target="_top" xlink:title="src/core/LogicalDevice.cpp">
<polygon fill="white" stroke="black" points="907.5,-0.5 907.5,-19.5 1040.5,-19.5 1040.5,-0.5 907.5,-0.5"/>
<text text-anchor="middle" x="974" y="-7.5" font-family="Helvetica,sans-Serif" font-size="10.00">src/core/LogicalDevice.cpp</text>
</a>
</g>
</g>
<!-- Node20&#45;&gt;Node27 -->
<g id="edge7" class="edge"><title>Node20&#45;&gt;Node27</title>
<path fill="none" stroke="midnightblue" d="M923.314,-50.1008C935.912,-40.3824 951.928,-28.0269 962.549,-19.8339"/>
<polygon fill="midnightblue" stroke="midnightblue" points="921.027,-47.4446 915.247,-56.324 925.302,-52.9871 921.027,-47.4446"/>
</g>
<!-- Node28 -->
<g id="node9" class="node"><title>Node28</title>
<g id="a_node9"><a xlink:href="_physical_device_8cpp.html" target="_top" xlink:title="src/core/PhysicalDevice.cpp">
<polygon fill="white" stroke="black" points="1059,-0.5 1059,-19.5 1199,-19.5 1199,-0.5 1059,-0.5"/>
<text text-anchor="middle" x="1129" y="-7.5" font-family="Helvetica,sans-Serif" font-size="10.00">src/core/PhysicalDevice.cpp</text>
</a>
</g>
</g>
<!-- Node20&#45;&gt;Node28 -->
<g id="edge8" class="edge"><title>Node20&#45;&gt;Node28</title>
<path fill="none" stroke="midnightblue" d="M949.465,-54.0884C991.973,-43.8865 1054.58,-28.8612 1093.51,-19.5164"/>
<polygon fill="midnightblue" stroke="midnightblue" points="948.559,-50.7064 939.652,-56.4435 950.193,-57.5131 948.559,-50.7064"/>
</g>
<!-- Node29 -->
<g id="node10" class="node"><title>Node29</title>
<g id="a_node10"><a xlink:href="_buffer_8cpp.html" target="_top" xlink:title="src/resource/Buffer.cpp">
<polygon fill="white" stroke="black" points="1217.5,-0.5 1217.5,-19.5 1334.5,-19.5 1334.5,-0.5 1217.5,-0.5"/>
<text text-anchor="middle" x="1276" y="-7.5" font-family="Helvetica,sans-Serif" font-size="10.00">src/resource/Buffer.cpp</text>
</a>
</g>
</g>
<!-- Node20&#45;&gt;Node29 -->
<g id="edge9" class="edge"><title>Node20&#45;&gt;Node29</title>
<path fill="none" stroke="midnightblue" d="M973.031,-54.9794C1043.3,-44.7791 1151.06,-29.1372 1217.33,-19.5164"/>
<polygon fill="midnightblue" stroke="midnightblue" points="972.338,-51.5432 962.945,-56.4435 973.344,-58.4706 972.338,-51.5432"/>
</g>
<!-- Node30 -->
<g id="node11" class="node"><title>Node30</title>
<g id="a_node11"><a xlink:href="_pipeline_cache_8cpp.html" target="_top" xlink:title="src/resource/PipelineCache.cpp">
<polygon fill="white" stroke="black" points="1352.5,-0.5 1352.5,-19.5 1507.5,-19.5 1507.5,-0.5 1352.5,-0.5"/>
<text text-anchor="middle" x="1430" y="-7.5" font-family="Helvetica,sans-Serif" font-size="10.00">src/resource/PipelineCache.cpp</text>
</a>
</g>
</g>
<!-- Node20&#45;&gt;Node30 -->
<g id="edge10" class="edge"><title>Node20&#45;&gt;Node30</title>
<path fill="none" stroke="midnightblue" d="M983.544,-56.9217C1071.67,-47.958 1218,-33.0364 1344,-20 1346.69,-19.7219 1349.42,-19.4384 1352.19,-19.1517"/>
<polygon fill="midnightblue" stroke="midnightblue" points="982.949,-53.4641 973.354,-57.9579 983.657,-60.4281 982.949,-53.4641"/>
</g>
<!-- Node31 -->
<g id="node12" class="node"><title>Node31</title>
<g id="a_node12"><a xlink:href="_shader_module_8cpp.html" target="_top" xlink:title="src/resource/ShaderModule.cpp">
<polygon fill="white" stroke="black" points="1525.5,-0.5 1525.5,-19.5 1680.5,-19.5 1680.5,-0.5 1525.5,-0.5"/>
<text text-anchor="middle" x="1603" y="-7.5" font-family="Helvetica,sans-Serif" font-size="10.00">src/resource/ShaderModule.cpp</text>
</a>
</g>
</g>
<!-- Node20&#45;&gt;Node31 -->
<g id="edge11" class="edge"><title>Node20&#45;&gt;Node31</title>
<path fill="none" stroke="midnightblue" d="M983.288,-59.9676C1100.18,-52.3696 1325.61,-37.0355 1517,-20 1519.69,-19.7604 1522.43,-19.5101 1525.19,-19.2516"/>
<polygon fill="midnightblue" stroke="midnightblue" points="982.757,-56.4945 973.004,-60.6342 983.21,-63.4799 982.757,-56.4945"/>
</g>
<!-- Node32 -->
<g id="node13" class="node"><title>Node32</title>
<g id="a_node13"><a xlink:href="easylogging_09_09_8cc.html" target="_top" xlink:title="src/util/easylogging++.cc">
<polygon fill="white" stroke="black" points="1699,-0.5 1699,-19.5 1825,-19.5 1825,-0.5 1699,-0.5"/>
<text text-anchor="middle" x="1762" y="-7.5" font-family="Helvetica,sans-Serif" font-size="10.00">src/util/easylogging++.cc</text>
</a>
</g>
</g>
<!-- Node20&#45;&gt;Node32 -->
<g id="edge12" class="edge"><title>Node20&#45;&gt;Node32</title>
<path fill="none" stroke="midnightblue" d="M983.599,-62.2112C1125.67,-56.8394 1432.21,-43.4647 1690,-20 1692.89,-19.7374 1695.83,-19.4493 1698.81,-19.1424"/>
<polygon fill="midnightblue" stroke="midnightblue" points="983.107,-58.7271 973.245,-62.5995 983.369,-65.7222 983.107,-58.7271"/>
</g>
</g>
</svg>
        <g id="navigator" transform="translate(0 0)" fill="#404254">
                <rect fill="#f2f5e9" fill-opacity="0.5" stroke="#606060" stroke-width=".5" x="0" y="0" width="60" height="60"/>
                <use id="zoomplus" xlink:href="#zoomPlus" x="17" y="9" onmousedown="handleZoom(evt,'in')"/>
                <use id="zoomminus" xlink:href="#zoomMin" x="42" y="9" onmousedown="handleZoom(evt,'out')"/>
                <use id="reset" xlink:href="#resetDef" x="30" y="36" onmousedown="handleReset()"/>
                <g id="arrowUp" xlink:href="#dirArrow" transform="translate(30 24)" onmousedown="handlePan(0,-1)">
                  <use xlink:href="#rim" fill="#404040">
                        <set attributeName="fill" to="#808080" begin="arrowUp.mouseover" end="arrowUp.mouseout"/>
                  </use>
                  <path fill="none" stroke="white" stroke-width="1.5" d="M0,-3.0v7 M-2.5,-0.5L0,-3.0L2.5,-0.5"/>
                </g>
                <g id="arrowRight" xlink:href="#dirArrow" transform="rotate(90) translate(36 -43)" onmousedown="handlePan(1,0)">
                  <use xlink:href="#rim" fill="#404040">
                        <set attributeName="fill" to="#808080" begin="arrowRight.mouseover" end="arrowRight.mouseout"/>
                  </use>
                  <path fill="none" stroke="white" stroke-width="1.5" d="M0,-3.0v7 M-2.5,-0.5L0,-3.0L2.5,-0.5"/>
                </g>
                <g id="arrowDown" xlink:href="#dirArrow" transform="rotate(180) translate(-30 -48)" onmousedown="handlePan(0,1)">
                  <use xlink:href="#rim" fill="#404040">
                        <set attributeName="fill" to="#808080" begin="arrowDown.mouseover" end="arrowDown.mouseout"/>
                  </use>
                  <path fill="none" stroke="white" stroke-width="1.5" d="M0,-3.0v7 M-2.5,-0.5L0,-3.0L2.5,-0.5"/>
                </g>
                <g id="arrowLeft" xlink:href="#dirArrow" transform="rotate(270) translate(-36 17)" onmousedown="handlePan(-1,0)">
                  <use xlink:href="#rim" fill="#404040">
                        <set attributeName="fill" to="#808080" begin="arrowLeft.mouseover" end="arrowLeft.mouseout"/>
                  </use>
                  <path fill="none" stroke="white" stroke-width="1.5" d="M0,-3.0v7 M-2.5,-0.5L0,-3.0L2.5,-0.5"/>
                </g>
        </g>
        <svg viewBox="0 0 15 15" width="100%" height="30px" preserveAspectRatio="xMaxYMin meet">
         <g id="arrow_out" transform="scale(0.3 0.3)">
          <a xlink:href="easylogging_09_09_8h__dep__incl_org.svg" target="_base">
           <rect id="button" ry="5" rx="5" y="6" x="6" height="38" width="38"
                fill="#f2f5e9" fill-opacity="0.5" stroke="#606060" stroke-width="1.0"/>
           <path id="arrow"
             d="M 11.500037,31.436501 C 11.940474,20.09759 22.043105,11.32322 32.158766,21.979434 L 37.068811,17.246167 C 37.068811,17.246167 37.088388,32 37.088388,32 L 22.160133,31.978069 C 22.160133,31.978069 26.997745,27.140456 26.997745,27.140456 C 18.528582,18.264221 13.291696,25.230495 11.500037,31.436501 z"
             style="fill:#404040;"/>
          </a>
         </g>
        </svg>
</svg>
