<?xml version="1.0" encoding="UTF-8" standalone="no"?>
<!DOCTYPE svg PUBLIC "-//W3C//DTD SVG 1.1//EN"
 "http://www.w3.org/Graphics/SVG/1.1/DTD/svg11.dtd">
<!-- Generated by graphviz version 2.38.0 (20140413.2041)
 -->
<!-- Title: C:/Users/kjones/Documents/SoftwareDev/VulpesSceneKit/third_party/vulpesrender/include/util/easylogging++.h Pages: 1 -->
<svg width="2018pt" height="150pt"
 viewBox="0.00 0.00 2018.00 150.00" xmlns="http://www.w3.org/2000/svg" xmlns:xlink="http://www.w3.org/1999/xlink">
<g id="graph0" class="graph" transform="scale(1 1) rotate(0) translate(4 146)">
<title>C:/Users/kjones/Documents/SoftwareDev/VulpesSceneKit/third_party/vulpesrender/include/util/easylogging++.h</title>
<polygon fill="white" stroke="none" points="-4,4 -4,-146 2014,-146 2014,4 -4,4"/>
<!-- Node20 -->
<g id="node1" class="node"><title>Node20</title>
<polygon fill="#bfbfbf" stroke="black" points="938,-89.5 938,-141.5 1084,-141.5 1084,-89.5 938,-89.5"/>
<text text-anchor="start" x="946" y="-129.5" font-family="Helvetica,sans-Serif" font-size="10.00">C:/Users/kjones/Documents</text>
<text text-anchor="start" x="946" y="-118.5" font-family="Helvetica,sans-Serif" font-size="10.00">/SoftwareDev/VulpesSceneKit</text>
<text text-anchor="start" x="946" y="-107.5" font-family="Helvetica,sans-Serif" font-size="10.00">/third_party/vulpesrender</text>
<text text-anchor="middle" x="1011" y="-96.5" font-family="Helvetica,sans-Serif" font-size="10.00">/include/util/easylogging++.h</text>
</g>
<!-- Node21 -->
<g id="node2" class="node"><title>Node21</title>
<g id="a_node2"><a xlink:href="_allocation_8cpp.html" target="_top" xlink:title="C:/Users/kjones/Documents\l/SoftwareDev/VulpesSceneKit\l/third_party/vulpesrender\l/src/alloc/Allocation.cpp">
<polygon fill="white" stroke="black" points="0,-0.5 0,-52.5 146,-52.5 146,-0.5 0,-0.5"/>
<text text-anchor="start" x="8" y="-40.5" font-family="Helvetica,sans-Serif" font-size="10.00">C:/Users/kjones/Documents</text>
<text text-anchor="start" x="8" y="-29.5" font-family="Helvetica,sans-Serif" font-size="10.00">/SoftwareDev/VulpesSceneKit</text>
<text text-anchor="start" x="8" y="-18.5" font-family="Helvetica,sans-Serif" font-size="10.00">/third_party/vulpesrender</text>
<text text-anchor="middle" x="73" y="-7.5" font-family="Helvetica,sans-Serif" font-size="10.00">/src/alloc/Allocation.cpp</text>
</a>
</g>
</g>
<!-- Node20&#45;&gt;Node21 -->
<g id="edge1" class="edge"><title>Node20&#45;&gt;Node21</title>
<path fill="none" stroke="midnightblue" d="M927.52,-114.83C773.454,-114.044 434.619,-105.794 155,-53 152.07,-52.4468 149.097,-51.8244 146.107,-51.147"/>
<polygon fill="midnightblue" stroke="midnightblue" points="927.83,-118.331 937.844,-114.873 927.859,-111.331 927.83,-118.331"/>
</g>
<!-- Node22 -->
<g id="node3" class="node"><title>Node22</title>
<g id="a_node3"><a xlink:href="_allocation_collection_8cpp.html" target="_top" xlink:title="C:/Users/kjones/Documents\l/SoftwareDev/VulpesSceneKit\l/third_party/vulpesrender\l/src/alloc/AllocationCollection.cpp">
<polygon fill="white" stroke="black" points="164,-0.5 164,-52.5 328,-52.5 328,-0.5 164,-0.5"/>
<text text-anchor="start" x="172" y="-40.5" font-family="Helvetica,sans-Serif" font-size="10.00">C:/Users/kjones/Documents</text>
<text text-anchor="start" x="172" y="-29.5" font-family="Helvetica,sans-Serif" font-size="10.00">/SoftwareDev/VulpesSceneKit</text>
<text text-anchor="start" x="172" y="-18.5" font-family="Helvetica,sans-Serif" font-size="10.00">/third_party/vulpesrender</text>
<text text-anchor="middle" x="246" y="-7.5" font-family="Helvetica,sans-Serif" font-size="10.00">/src/alloc/AllocationCollection.cpp</text>
</a>
</g>
</g>
<!-- Node20&#45;&gt;Node22 -->
<g id="edge2" class="edge"><title>Node20&#45;&gt;Node22</title>
<path fill="none" stroke="midnightblue" d="M927.472,-111.769C799.441,-106.485 547.394,-91.7427 337,-53 334.096,-52.4652 331.15,-51.8795 328.182,-51.2527"/>
<polygon fill="midnightblue" stroke="midnightblue" points="927.465,-115.271 937.598,-112.177 927.747,-108.277 927.465,-115.271"/>
</g>
<!-- Node23 -->
<g id="node4" class="node"><title>Node23</title>
<g id="a_node4"><a xlink:href="_allocator_8cpp.html" target="_top" xlink:title="C:/Users/kjones/Documents\l/SoftwareDev/VulpesSceneKit\l/third_party/vulpesrender\l/src/alloc/Allocator.cpp">
<polygon fill="white" stroke="black" points="346,-0.5 346,-52.5 492,-52.5 492,-0.5 346,-0.5"/>
<text text-anchor="start" x="354" y="-40.5" font-family="Helvetica,sans-Serif" font-size="10.00">C:/Users/kjones/Documents</text>
<text text-anchor="start" x="354" y="-29.5" font-family="Helvetica,sans-Serif" font-size="10.00">/SoftwareDev/VulpesSceneKit</text>
<text text-anchor="start" x="354" y="-18.5" font-family="Helvetica,sans-Serif" font-size="10.00">/third_party/vulpesrender</text>
<text text-anchor="middle" x="419" y="-7.5" font-family="Helvetica,sans-Serif" font-size="10.00">/src/alloc/Allocator.cpp</text>
</a>
</g>
</g>
<!-- Node20&#45;&gt;Node23 -->
<g id="edge3" class="edge"><title>Node20&#45;&gt;Node23</title>
<path fill="none" stroke="midnightblue" d="M927.478,-109.101C825.833,-101.46 649.393,-84.7455 501,-53 498.084,-52.3762 495.124,-51.6943 492.143,-50.9671"/>
<polygon fill="midnightblue" stroke="midnightblue" points="927.45,-112.608 937.681,-109.856 927.967,-105.627 927.45,-112.608"/>
</g>
<!-- Node24 -->
<g id="node5" class="node"><title>Node24</title>
<g id="a_node5"><a xlink:href="_memory_block_8cpp.html" target="_top" xlink:title="C:/Users/kjones/Documents\l/SoftwareDev/VulpesSceneKit\l/third_party/vulpesrender\l/src/alloc/MemoryBlock.cpp">
<polygon fill="white" stroke="black" points="510,-0.5 510,-52.5 656,-52.5 656,-0.5 510,-0.5"/>
<text text-anchor="start" x="518" y="-40.5" font-family="Helvetica,sans-Serif" font-size="10.00">C:/Users/kjones/Documents</text>
<text text-anchor="start" x="518" y="-29.5" font-family="Helvetica,sans-Serif" font-size="10.00">/SoftwareDev/VulpesSceneKit</text>
<text text-anchor="start" x="518" y="-18.5" font-family="Helvetica,sans-Serif" font-size="10.00">/third_party/vulpesrender</text>
<text text-anchor="middle" x="583" y="-7.5" font-family="Helvetica,sans-Serif" font-size="10.00">/src/alloc/MemoryBlock.cpp</text>
</a>
</g>
</g>
<!-- Node20&#45;&gt;Node24 -->
<g id="edge4" class="edge"><title>Node20&#45;&gt;Node24</title>
<path fill="none" stroke="midnightblue" d="M927.728,-102.703C857.261,-92.0055 753.85,-74.6208 665,-53 662.103,-52.295 659.158,-51.5445 656.19,-50.76"/>
<polygon fill="midnightblue" stroke="midnightblue" points="927.47,-106.204 937.88,-104.233 928.513,-99.282 927.47,-106.204"/>
</g>
<!-- Node25 -->
<g id="node6" class="node"><title>Node25</title>
<g id="a_node6"><a xlink:href="_command_pool_8cpp.html" target="_top" xlink:title="C:/Users/kjones/Documents\l/SoftwareDev/VulpesSceneKit\l/third_party/vulpesrender\l/src/command/CommandPool.cpp">
<polygon fill="white" stroke="black" points="674,-0.5 674,-52.5 838,-52.5 838,-0.5 674,-0.5"/>
<text text-anchor="start" x="682" y="-40.5" font-family="Helvetica,sans-Serif" font-size="10.00">C:/Users/kjones/Documents</text>
<text text-anchor="start" x="682" y="-29.5" font-family="Helvetica,sans-Serif" font-size="10.00">/SoftwareDev/VulpesSceneKit</text>
<text text-anchor="start" x="682" y="-18.5" font-family="Helvetica,sans-Serif" font-size="10.00">/third_party/vulpesrender</text>
<text text-anchor="middle" x="756" y="-7.5" font-family="Helvetica,sans-Serif" font-size="10.00">/src/command/CommandPool.cpp</text>
</a>
</g>
</g>
<!-- Node20&#45;&gt;Node25 -->
<g id="edge5" class="edge"><title>Node20&#45;&gt;Node25</title>
<path fill="none" stroke="midnightblue" d="M928.209,-86.2535C896.42,-75.4079 860.386,-63.1139 829.525,-52.5851"/>
<polygon fill="midnightblue" stroke="midnightblue" points="927.333,-89.6527 937.927,-89.5693 929.593,-83.0277 927.333,-89.6527"/>
</g>
<!-- Node26 -->
<g id="node7" class="node"><title>Node26</title>
<g id="a_node7"><a xlink:href="_instance_8cpp.html" target="_top" xlink:title="C:/Users/kjones/Documents\l/SoftwareDev/VulpesSceneKit\l/third_party/vulpesrender\l/src/core/Instance.cpp">
<polygon fill="white" stroke="black" points="856,-0.5 856,-52.5 1002,-52.5 1002,-0.5 856,-0.5"/>
<text text-anchor="start" x="864" y="-40.5" font-family="Helvetica,sans-Serif" font-size="10.00">C:/Users/kjones/Documents</text>
<text text-anchor="start" x="864" y="-29.5" font-family="Helvetica,sans-Serif" font-size="10.00">/SoftwareDev/VulpesSceneKit</text>
<text text-anchor="start" x="864" y="-18.5" font-family="Helvetica,sans-Serif" font-size="10.00">/third_party/vulpesrender</text>
<text text-anchor="middle" x="929" y="-7.5" font-family="Helvetica,sans-Serif" font-size="10.00">/src/core/Instance.cpp</text>
</a>
</g>
</g>
<!-- Node20&#45;&gt;Node26 -->
<g id="edge6" class="edge"><title>Node20&#45;&gt;Node26</title>
<path fill="none" stroke="midnightblue" d="M980.17,-81.79C971.064,-72.1288 961.244,-61.7097 952.664,-52.6075"/>
<polygon fill="midnightblue" stroke="midnightblue" points="977.876,-84.4595 987.282,-89.336 982.97,-79.6583 977.876,-84.4595"/>
</g>
<!-- Node27 -->
<g id="node8" class="node"><title>Node27</title>
<g id="a_node8"><a xlink:href="_logical_device_8cpp.html" target="_top" xlink:title="C:/Users/kjones/Documents\l/SoftwareDev/VulpesSceneKit\l/third_party/vulpesrender\l/src/core/LogicalDevice.cpp">
<polygon fill="white" stroke="black" points="1020,-0.5 1020,-52.5 1166,-52.5 1166,-0.5 1020,-0.5"/>
<text text-anchor="start" x="1028" y="-40.5" font-family="Helvetica,sans-Serif" font-size="10.00">C:/Users/kjones/Documents</text>
<text text-anchor="start" x="1028" y="-29.5" font-family="Helvetica,sans-Serif" font-size="10.00">/SoftwareDev/VulpesSceneKit</text>
<text text-anchor="start" x="1028" y="-18.5" font-family="Helvetica,sans-Serif" font-size="10.00">/third_party/vulpesrender</text>
<text text-anchor="middle" x="1093" y="-7.5" font-family="Helvetica,sans-Serif" font-size="10.00">/src/core/LogicalDevice.cpp</text>
</a>
</g>
</g>
<!-- Node20&#45;&gt;Node27 -->
<g id="edge7" class="edge"><title>Node20&#45;&gt;Node27</title>
<path fill="none" stroke="midnightblue" d="M1041.83,-81.79C1050.94,-72.1288 1060.76,-61.7097 1069.34,-52.6075"/>
<polygon fill="midnightblue" stroke="midnightblue" points="1039.03,-79.6583 1034.72,-89.336 1044.12,-84.4595 1039.03,-79.6583"/>
</g>
<!-- Node28 -->
<g id="node9" class="node"><title>Node28</title>
<g id="a_node9"><a xlink:href="_physical_device_8cpp.html" target="_top" xlink:title="C:/Users/kjones/Documents\l/SoftwareDev/VulpesSceneKit\l/third_party/vulpesrender\l/src/core/PhysicalDevice.cpp">
<polygon fill="white" stroke="black" points="1184,-0.5 1184,-52.5 1330,-52.5 1330,-0.5 1184,-0.5"/>
<text text-anchor="start" x="1192" y="-40.5" font-family="Helvetica,sans-Serif" font-size="10.00">C:/Users/kjones/Documents</text>
<text text-anchor="start" x="1192" y="-29.5" font-family="Helvetica,sans-Serif" font-size="10.00">/SoftwareDev/VulpesSceneKit</text>
<text text-anchor="start" x="1192" y="-18.5" font-family="Helvetica,sans-Serif" font-size="10.00">/third_party/vulpesrender</text>
<text text-anchor="middle" x="1257" y="-7.5" font-family="Helvetica,sans-Serif" font-size="10.00">/src/core/PhysicalDevice.cpp</text>
</a>
</g>
</g>
<!-- Node20&#45;&gt;Node28 -->
<g id="edge8" class="edge"><title>Node20&#45;&gt;Node28</title>
<path fill="none" stroke="midnightblue" d="M1091.59,-85.9981C1122.14,-75.1932 1156.67,-62.9816 1186.25,-52.5211"/>
<polygon fill="midnightblue" stroke="midnightblue" points="1090.08,-82.8187 1081.82,-89.4527 1092.42,-89.4182 1090.08,-82.8187"/>
</g>
<!-- Node29 -->
<g id="node10" class="node"><title>Node29</title>
<g id="a_node10"><a xlink:href="_buffer_8cpp.html" target="_top" xlink:title="C:/Users/kjones/Documents\l/SoftwareDev/VulpesSceneKit\l/third_party/vulpesrender\l/src/resource/Buffer.cpp">
<polygon fill="white" stroke="black" points="1348,-0.5 1348,-52.5 1494,-52.5 1494,-0.5 1348,-0.5"/>
<text text-anchor="start" x="1356" y="-40.5" font-family="Helvetica,sans-Serif" font-size="10.00">C:/Users/kjones/Documents</text>
<text text-anchor="start" x="1356" y="-29.5" font-family="Helvetica,sans-Serif" font-size="10.00">/SoftwareDev/VulpesSceneKit</text>
<text text-anchor="start" x="1356" y="-18.5" font-family="Helvetica,sans-Serif" font-size="10.00">/third_party/vulpesrender</text>
<text text-anchor="middle" x="1421" y="-7.5" font-family="Helvetica,sans-Serif" font-size="10.00">/src/resource/Buffer.cpp</text>
</a>
</g>
</g>
<!-- Node20&#45;&gt;Node29 -->
<g id="edge9" class="edge"><title>Node20&#45;&gt;Node29</title>
<path fill="none" stroke="midnightblue" d="M1094.18,-101.648C1160.83,-90.6925 1256.5,-73.488 1339,-53 1341.89,-52.2813 1344.84,-51.5193 1347.8,-50.7251"/>
<polygon fill="midnightblue" stroke="midnightblue" points="1093.46,-98.2193 1084.15,-103.285 1094.59,-105.128 1093.46,-98.2193"/>
</g>
<!-- Node30 -->
<g id="node11" class="node"><title>Node30</title>
<g id="a_node11"><a xlink:href="_pipeline_cache_8cpp.html" target="_top" xlink:title="C:/Users/kjones/Documents\l/SoftwareDev/VulpesSceneKit\l/third_party/vulpesrender\l/src/resource/PipelineCache.cpp">
<polygon fill="white" stroke="black" points="1512,-0.5 1512,-52.5 1670,-52.5 1670,-0.5 1512,-0.5"/>
<text text-anchor="start" x="1520" y="-40.5" font-family="Helvetica,sans-Serif" font-size="10.00">C:/Users/kjones/Documents</text>
<text text-anchor="start" x="1520" y="-29.5" font-family="Helvetica,sans-Serif" font-size="10.00">/SoftwareDev/VulpesSceneKit</text>
<text text-anchor="start" x="1520" y="-18.5" font-family="Helvetica,sans-Serif" font-size="10.00">/third_party/vulpesrender</text>
<text text-anchor="middle" x="1591" y="-7.5" font-family="Helvetica,sans-Serif" font-size="10.00">/src/resource/PipelineCache.cpp</text>
</a>
</g>
</g>
<!-- Node20&#45;&gt;Node30 -->
<g id="edge10" class="edge"><title>Node20&#45;&gt;Node30</title>
<path fill="none" stroke="midnightblue" d="M1094.29,-108.121C1192.67,-99.6608 1360.91,-82.2776 1503,-53 1505.96,-52.3901 1508.97,-51.7303 1511.99,-51.0313"/>
<polygon fill="midnightblue" stroke="midnightblue" points="1093.78,-104.652 1084.11,-108.986 1094.37,-111.627 1093.78,-104.652"/>
</g>
<!-- Node31 -->
<g id="node12" class="node"><title>Node31</title>
<g id="a_node12"><a xlink:href="_shader_module_8cpp.html" target="_top" xlink:title="C:/Users/kjones/Documents\l/SoftwareDev/VulpesSceneKit\l/third_party/vulpesrender\l/src/resource/ShaderModule.cpp">
<polygon fill="white" stroke="black" points="1688,-0.5 1688,-52.5 1846,-52.5 1846,-0.5 1688,-0.5"/>
<text text-anchor="start" x="1696" y="-40.5" font-family="Helvetica,sans-Serif" font-size="10.00">C:/Users/kjones/Documents</text>
<text text-anchor="start" x="1696" y="-29.5" font-family="Helvetica,sans-Serif" font-size="10.00">/SoftwareDev/VulpesSceneKit</text>
<text text-anchor="start" x="1696" y="-18.5" font-family="Helvetica,sans-Serif" font-size="10.00">/third_party/vulpesrender</text>
<text text-anchor="middle" x="1767" y="-7.5" font-family="Helvetica,sans-Serif" font-size="10.00">/src/resource/ShaderModule.cpp</text>
</a>
</g>
</g>
<!-- Node20&#45;&gt;Node31 -->
<g id="edge11" class="edge"><title>Node20&#45;&gt;Node31</title>
<path fill="none" stroke="midnightblue" d="M1094.34,-111.914C1221.44,-106.829 1470.93,-92.3535 1679,-53 1681.81,-52.4679 1684.67,-51.8846 1687.54,-51.2598"/>
<polygon fill="midnightblue" stroke="midnightblue" points="1094.14,-108.419 1084.28,-112.307 1094.41,-115.414 1094.14,-108.419"/>
</g>
<!-- Node32 -->
<g id="node13" class="node"><title>Node32</title>
<g id="a_node13"><a xlink:href="easylogging_09_09_8cc.html" target="_top" xlink:title="C:/Users/kjones/Documents\l/SoftwareDev/VulpesSceneKit\l/third_party/vulpesrender\l/src/util/easylogging++.cc">
<polygon fill="white" stroke="black" points="1864,-0.5 1864,-52.5 2010,-52.5 2010,-0.5 1864,-0.5"/>
<text text-anchor="start" x="1872" y="-40.5" font-family="Helvetica,sans-Serif" font-size="10.00">C:/Users/kjones/Documents</text>
<text text-anchor="start" x="1872" y="-29.5" font-family="Helvetica,sans-Serif" font-size="10.00">/SoftwareDev/VulpesSceneKit</text>
<text text-anchor="start" x="1872" y="-18.5" font-family="Helvetica,sans-Serif" font-size="10.00">/third_party/vulpesrender</text>
<text text-anchor="middle" x="1937" y="-7.5" font-family="Helvetica,sans-Serif" font-size="10.00">/src/util/easylogging++.cc</text>
</a>
</g>
</g>
<!-- Node20&#45;&gt;Node32 -->
<g id="edge12" class="edge"><title>Node20&#45;&gt;Node32</title>
<path fill="none" stroke="midnightblue" d="M1094.48,-114.707C1246.93,-113.697 1580.01,-105.064 1855,-53 1857.93,-52.4453 1860.9,-51.8217 1863.89,-51.1432"/>
<polygon fill="midnightblue" stroke="midnightblue" points="1094.24,-111.208 1084.26,-114.765 1094.28,-118.208 1094.24,-111.208"/>
</g>
</g>
</svg>
