<?xml version="1.0" encoding="UTF-8" standalone="no"?>
<!DOCTYPE svg PUBLIC "-//W3C//DTD SVG 1.1//EN"
 "http://www.w3.org/Graphics/SVG/1.1/DTD/svg11.dtd">
<!-- Generated by graphviz version 2.38.0 (20140413.2041)
 -->
<!-- Title: src/util/easylogging++.cc Pages: 1 -->
<svg width="1244pt" height="140pt"
 viewBox="0.00 0.00 1243.50 140.00" xmlns="http://www.w3.org/2000/svg" xmlns:xlink="http://www.w3.org/1999/xlink">
<g id="graph0" class="graph" transform="scale(1 1) rotate(0) translate(4 136)">
<title>src/util/easylogging++.cc</title>
<polygon fill="white" stroke="none" points="-4,4 -4,-136 1239.5,-136 1239.5,4 -4,4"/>
<!-- Node0 -->
<g id="node1" class="node"><title>Node0</title>
<polygon fill="#bfbfbf" stroke="black" points="529.5,-112.5 529.5,-131.5 655.5,-131.5 655.5,-112.5 529.5,-112.5"/>
<text text-anchor="middle" x="592.5" y="-119.5" font-family="Helvetica,sans-Serif" font-size="10.00">src/util/easylogging++.cc</text>
</g>
<!-- Node1 -->
<g id="node2" class="node"><title>Node1</title>
<g id="a_node2"><a xlink:href="easylogging_09_09_8h.html" target="_top" xlink:title="util/easylogging++.h">
<polygon fill="white" stroke="black" points="540.5,-56.5 540.5,-75.5 644.5,-75.5 644.5,-56.5 540.5,-56.5"/>
<text text-anchor="middle" x="592.5" y="-63.5" font-family="Helvetica,sans-Serif" font-size="10.00">util/easylogging++.h</text>
</a>
</g>
</g>
<!-- Node0&#45;&gt;Node1 -->
<g id="edge1" class="edge"><title>Node0&#45;&gt;Node1</title>
<path fill="none" stroke="midnightblue" d="M592.5,-112.083C592.5,-105.006 592.5,-94.8611 592.5,-85.9865"/>
<polygon fill="midnightblue" stroke="midnightblue" points="596,-85.751 592.5,-75.7511 589,-85.7511 596,-85.751"/>
</g>
<!-- Node2 -->
<g id="node3" class="node"><title>Node2</title>
<polygon fill="white" stroke="#bfbfbf" points="0,-0.5 0,-19.5 41,-19.5 41,-0.5 0,-0.5"/>
<text text-anchor="middle" x="20.5" y="-7.5" font-family="Helvetica,sans-Serif" font-size="10.00">ctime</text>
</g>
<!-- Node1&#45;&gt;Node2 -->
<g id="edge2" class="edge"><title>Node1&#45;&gt;Node2</title>
<path fill="none" stroke="midnightblue" d="M540.452,-64.2764C445.02,-62.1709 235.687,-53.9385 50.9109,-19.6367"/>
<polygon fill="midnightblue" stroke="midnightblue" points="51.4924,-16.1848 41.0169,-17.7703 50.1948,-23.0635 51.4924,-16.1848"/>
</g>
<!-- Node3 -->
<g id="node4" class="node"><title>Node3</title>
<polygon fill="white" stroke="#bfbfbf" points="59.5,-0.5 59.5,-19.5 105.5,-19.5 105.5,-0.5 59.5,-0.5"/>
<text text-anchor="middle" x="82.5" y="-7.5" font-family="Helvetica,sans-Serif" font-size="10.00">cstring</text>
</g>
<!-- Node1&#45;&gt;Node3 -->
<g id="edge3" class="edge"><title>Node1&#45;&gt;Node3</title>
<path fill="none" stroke="midnightblue" d="M540.44,-63.1708C453.969,-59.4636 275.262,-48.9637 115.794,-19.9268"/>
<polygon fill="midnightblue" stroke="midnightblue" points="116.274,-16.4563 105.804,-18.0785 115,-23.3394 116.274,-16.4563"/>
</g>
<!-- Node4 -->
<g id="node5" class="node"><title>Node4</title>
<polygon fill="white" stroke="#bfbfbf" points="124,-0.5 124,-19.5 169,-19.5 169,-0.5 124,-0.5"/>
<text text-anchor="middle" x="146.5" y="-7.5" font-family="Helvetica,sans-Serif" font-size="10.00">cstdlib</text>
</g>
<!-- Node1&#45;&gt;Node4 -->
<g id="edge4" class="edge"><title>Node1&#45;&gt;Node4</title>
<path fill="none" stroke="midnightblue" d="M540.454,-62.1214C463.509,-57.2569 314.817,-45.5306 179.265,-19.818"/>
<polygon fill="midnightblue" stroke="midnightblue" points="179.596,-16.3175 169.114,-17.8613 178.271,-23.191 179.596,-16.3175"/>
</g>
<!-- Node5 -->
<g id="node6" class="node"><title>Node5</title>
<polygon fill="white" stroke="#bfbfbf" points="187.5,-0.5 187.5,-19.5 233.5,-19.5 233.5,-0.5 187.5,-0.5"/>
<text text-anchor="middle" x="210.5" y="-7.5" font-family="Helvetica,sans-Serif" font-size="10.00">cctype</text>
</g>
<!-- Node1&#45;&gt;Node5 -->
<g id="edge5" class="edge"><title>Node1&#45;&gt;Node5</title>
<path fill="none" stroke="midnightblue" d="M540.222,-60.6849C473.478,-54.6443 354.342,-42.0794 243.805,-20.0093"/>
<polygon fill="midnightblue" stroke="midnightblue" points="244.318,-16.5421 233.822,-17.9849 242.927,-23.4025 244.318,-16.5421"/>
</g>
<!-- Node6 -->
<g id="node7" class="node"><title>Node6</title>
<polygon fill="white" stroke="#bfbfbf" points="252,-0.5 252,-19.5 299,-19.5 299,-0.5 252,-0.5"/>
<text text-anchor="middle" x="275.5" y="-7.5" font-family="Helvetica,sans-Serif" font-size="10.00">cwchar</text>
</g>
<!-- Node1&#45;&gt;Node6 -->
<g id="edge6" class="edge"><title>Node1&#45;&gt;Node6</title>
<path fill="none" stroke="midnightblue" d="M540.412,-58.6465C485.14,-51.4871 395.111,-38.6368 309.111,-20.1584"/>
<polygon fill="midnightblue" stroke="midnightblue" points="309.703,-16.7056 299.187,-17.9969 308.213,-23.5452 309.703,-16.7056"/>
</g>
<!-- Node7 -->
<g id="node8" class="node"><title>Node7</title>
<polygon fill="white" stroke="#bfbfbf" points="317,-0.5 317,-19.5 364,-19.5 364,-0.5 317,-0.5"/>
<text text-anchor="middle" x="340.5" y="-7.5" font-family="Helvetica,sans-Serif" font-size="10.00">csignal</text>
</g>
<!-- Node1&#45;&gt;Node7 -->
<g id="edge7" class="edge"><title>Node1&#45;&gt;Node7</title>
<path fill="none" stroke="midnightblue" d="M546.593,-56.4483C504.322,-48.3765 439.659,-35.5334 374.313,-20.0718"/>
<polygon fill="midnightblue" stroke="midnightblue" points="374.786,-16.5865 364.247,-17.6702 373.161,-23.3954 374.786,-16.5865"/>
</g>
<!-- Node8 -->
<g id="node9" class="node"><title>Node8</title>
<polygon fill="white" stroke="#bfbfbf" points="382.5,-0.5 382.5,-19.5 426.5,-19.5 426.5,-0.5 382.5,-0.5"/>
<text text-anchor="middle" x="404.5" y="-7.5" font-family="Helvetica,sans-Serif" font-size="10.00">cerrno</text>
</g>
<!-- Node1&#45;&gt;Node8 -->
<g id="edge8" class="edge"><title>Node1&#45;&gt;Node8</title>
<path fill="none" stroke="midnightblue" d="M562.685,-56.4872C533.011,-48.007 485.914,-34.529 436.161,-20.1841"/>
<polygon fill="midnightblue" stroke="midnightblue" points="437.091,-16.8096 426.513,-17.4008 435.151,-23.5354 437.091,-16.8096"/>
</g>
<!-- Node9 -->
<g id="node10" class="node"><title>Node9</title>
<polygon fill="white" stroke="#bfbfbf" points="445,-0.5 445,-19.5 494,-19.5 494,-0.5 445,-0.5"/>
<text text-anchor="middle" x="469.5" y="-7.5" font-family="Helvetica,sans-Serif" font-size="10.00">cstdarg</text>
</g>
<!-- Node1&#45;&gt;Node9 -->
<g id="edge9" class="edge"><title>Node1&#45;&gt;Node9</title>
<path fill="none" stroke="midnightblue" d="M573.01,-56.4435C552.858,-47.5961 521.177,-33.6875 498.169,-23.5865"/>
<polygon fill="midnightblue" stroke="midnightblue" points="499.462,-20.3316 488.899,-19.5164 496.648,-26.7411 499.462,-20.3316"/>
</g>
<!-- Node10 -->
<g id="node11" class="node"><title>Node10</title>
<polygon fill="white" stroke="#bfbfbf" points="512,-0.5 512,-19.5 553,-19.5 553,-0.5 512,-0.5"/>
<text text-anchor="middle" x="532.5" y="-7.5" font-family="Helvetica,sans-Serif" font-size="10.00">string</text>
</g>
<!-- Node1&#45;&gt;Node10 -->
<g id="edge10" class="edge"><title>Node1&#45;&gt;Node10</title>
<path fill="none" stroke="midnightblue" d="M582.86,-56.324C573.99,-48.3414 560.625,-36.3128 549.892,-26.6529"/>
<polygon fill="midnightblue" stroke="midnightblue" points="552.09,-23.922 542.315,-19.8339 547.407,-29.1251 552.09,-23.922"/>
</g>
<!-- Node11 -->
<g id="node12" class="node"><title>Node11</title>
<polygon fill="white" stroke="#bfbfbf" points="571.5,-0.5 571.5,-19.5 613.5,-19.5 613.5,-0.5 571.5,-0.5"/>
<text text-anchor="middle" x="592.5" y="-7.5" font-family="Helvetica,sans-Serif" font-size="10.00">vector</text>
</g>
<!-- Node1&#45;&gt;Node11 -->
<g id="edge11" class="edge"><title>Node1&#45;&gt;Node11</title>
<path fill="none" stroke="midnightblue" d="M592.5,-56.083C592.5,-49.0059 592.5,-38.8611 592.5,-29.9865"/>
<polygon fill="midnightblue" stroke="midnightblue" points="596,-29.751 592.5,-19.7511 589,-29.7511 596,-29.751"/>
</g>
<!-- Node12 -->
<g id="node13" class="node"><title>Node12</title>
<polygon fill="white" stroke="#bfbfbf" points="632,-0.5 632,-19.5 667,-19.5 667,-0.5 632,-0.5"/>
<text text-anchor="middle" x="649.5" y="-7.5" font-family="Helvetica,sans-Serif" font-size="10.00">map</text>
</g>
<!-- Node1&#45;&gt;Node12 -->
<g id="edge12" class="edge"><title>Node1&#45;&gt;Node12</title>
<path fill="none" stroke="midnightblue" d="M601.658,-56.324C610.001,-48.4196 622.532,-36.5482 632.677,-26.9377"/>
<polygon fill="midnightblue" stroke="midnightblue" points="635.323,-29.2522 640.175,-19.8339 630.509,-24.1705 635.323,-29.2522"/>
</g>
<!-- Node13 -->
<g id="node14" class="node"><title>Node13</title>
<polygon fill="white" stroke="#bfbfbf" points="685.5,-0.5 685.5,-19.5 725.5,-19.5 725.5,-0.5 685.5,-0.5"/>
<text text-anchor="middle" x="705.5" y="-7.5" font-family="Helvetica,sans-Serif" font-size="10.00">utility</text>
</g>
<!-- Node1&#45;&gt;Node13 -->
<g id="edge13" class="edge"><title>Node1&#45;&gt;Node13</title>
<path fill="none" stroke="midnightblue" d="M610.405,-56.4435C628.754,-47.6751 657.505,-33.9355 678.594,-23.8579"/>
<polygon fill="midnightblue" stroke="midnightblue" points="680.165,-26.9862 687.679,-19.5164 677.147,-20.6703 680.165,-26.9862"/>
</g>
<!-- Node14 -->
<g id="node15" class="node"><title>Node14</title>
<polygon fill="white" stroke="#bfbfbf" points="743.5,-0.5 743.5,-19.5 801.5,-19.5 801.5,-0.5 743.5,-0.5"/>
<text text-anchor="middle" x="772.5" y="-7.5" font-family="Helvetica,sans-Serif" font-size="10.00">functional</text>
</g>
<!-- Node1&#45;&gt;Node14 -->
<g id="edge14" class="edge"><title>Node1&#45;&gt;Node14</title>
<path fill="none" stroke="midnightblue" d="M621.022,-56.4435C651.566,-47.2801 700.208,-32.6876 734.103,-22.5192"/>
<polygon fill="midnightblue" stroke="midnightblue" points="735.539,-25.7424 744.112,-19.5164 733.528,-19.0376 735.539,-25.7424"/>
</g>
<!-- Node15 -->
<g id="node16" class="node"><title>Node15</title>
<polygon fill="white" stroke="#bfbfbf" points="819.5,-0.5 819.5,-19.5 875.5,-19.5 875.5,-0.5 819.5,-0.5"/>
<text text-anchor="middle" x="847.5" y="-7.5" font-family="Helvetica,sans-Serif" font-size="10.00">algorithm</text>
</g>
<!-- Node1&#45;&gt;Node15 -->
<g id="edge15" class="edge"><title>Node1&#45;&gt;Node15</title>
<path fill="none" stroke="midnightblue" d="M636.026,-56.482C677.946,-48.174 743.392,-34.9317 809.121,-20.2529"/>
<polygon fill="midnightblue" stroke="midnightblue" points="810.251,-23.5863 819.242,-17.9814 808.718,-16.7562 810.251,-23.5863"/>
</g>
<!-- Node16 -->
<g id="node17" class="node"><title>Node16</title>
<polygon fill="white" stroke="#bfbfbf" points="894,-0.5 894,-19.5 943,-19.5 943,-0.5 894,-0.5"/>
<text text-anchor="middle" x="918.5" y="-7.5" font-family="Helvetica,sans-Serif" font-size="10.00">fstream</text>
</g>
<!-- Node1&#45;&gt;Node16 -->
<g id="edge16" class="edge"><title>Node1&#45;&gt;Node16</title>
<path fill="none" stroke="midnightblue" d="M644.755,-58.6439C701.294,-51.3882 794.256,-38.3615 883.653,-19.9816"/>
<polygon fill="midnightblue" stroke="midnightblue" points="884.613,-23.3568 893.69,-17.892 883.186,-16.5038 884.613,-23.3568"/>
</g>
<!-- Node17 -->
<g id="node18" class="node"><title>Node17</title>
<polygon fill="white" stroke="#bfbfbf" points="961.5,-0.5 961.5,-19.5 1015.5,-19.5 1015.5,-0.5 961.5,-0.5"/>
<text text-anchor="middle" x="988.5" y="-7.5" font-family="Helvetica,sans-Serif" font-size="10.00">iostream</text>
</g>
<!-- Node1&#45;&gt;Node17 -->
<g id="edge17" class="edge"><title>Node1&#45;&gt;Node17</title>
<path fill="none" stroke="midnightblue" d="M644.67,-60.4706C712.98,-54.0997 836.586,-41.063 951.432,-19.9966"/>
<polygon fill="midnightblue" stroke="midnightblue" points="952.258,-23.4031 961.45,-18.1342 950.979,-16.521 952.258,-23.4031"/>
</g>
<!-- Node18 -->
<g id="node19" class="node"><title>Node18</title>
<polygon fill="white" stroke="#bfbfbf" points="1033.5,-0.5 1033.5,-19.5 1085.5,-19.5 1085.5,-0.5 1033.5,-0.5"/>
<text text-anchor="middle" x="1059.5" y="-7.5" font-family="Helvetica,sans-Serif" font-size="10.00">sstream</text>
</g>
<!-- Node1&#45;&gt;Node18 -->
<g id="edge18" class="edge"><title>Node1&#45;&gt;Node18</title>
<path fill="none" stroke="midnightblue" d="M644.717,-62.0612C724.376,-57.0303 881.114,-44.9805 1023.03,-20.022"/>
<polygon fill="midnightblue" stroke="midnightblue" points="1023.99,-23.4057 1033.22,-18.2025 1022.76,-16.5146 1023.99,-23.4057"/>
</g>
<!-- Node19 -->
<g id="node20" class="node"><title>Node19</title>
<polygon fill="white" stroke="#bfbfbf" points="1103.5,-0.5 1103.5,-19.5 1155.5,-19.5 1155.5,-0.5 1103.5,-0.5"/>
<text text-anchor="middle" x="1129.5" y="-7.5" font-family="Helvetica,sans-Serif" font-size="10.00">memory</text>
</g>
<!-- Node1&#45;&gt;Node19 -->
<g id="edge19" class="edge"><title>Node1&#45;&gt;Node19</title>
<path fill="none" stroke="midnightblue" d="M644.53,-63.1185C734.301,-59.2668 924.133,-48.4643 1093.15,-19.968"/>
<polygon fill="midnightblue" stroke="midnightblue" points="1093.96,-23.3805 1103.23,-18.2438 1092.78,-16.4808 1093.96,-23.3805"/>
</g>
<!-- Node20 -->
<g id="node21" class="node"><title>Node20</title>
<polygon fill="white" stroke="#bfbfbf" points="1173.5,-0.5 1173.5,-19.5 1235.5,-19.5 1235.5,-0.5 1173.5,-0.5"/>
<text text-anchor="middle" x="1204.5" y="-7.5" font-family="Helvetica,sans-Serif" font-size="10.00">type_traits</text>
</g>
<!-- Node1&#45;&gt;Node20 -->
<g id="edge20" class="edge"><title>Node1&#45;&gt;Node20</title>
<path fill="none" stroke="midnightblue" d="M644.837,-63.3822C744.15,-59.77 966.85,-49.0761 1163.22,-19.9901"/>
<polygon fill="midnightblue" stroke="midnightblue" points="1163.77,-23.4466 1173.14,-18.5013 1162.73,-16.5241 1163.77,-23.4466"/>
</g>
</g>
</svg>
