<?xml version="1.0" encoding="UTF-8" standalone="no"?>
<!DOCTYPE svg PUBLIC "-//W3C//DTD SVG 1.1//EN"
 "http://www.w3.org/Graphics/SVG/1.1/DTD/svg11.dtd">
<!-- Generated by graphviz version 2.38.0 (20140413.2041)
 -->
<!-- Title: vpr::operator&lt;&lt; Pages: 1 -->
<svg width="253pt" height="137pt"
 viewBox="0.00 0.00 253.00 137.00" xmlns="http://www.w3.org/2000/svg" xmlns:xlink="http://www.w3.org/1999/xlink">
<g id="graph0" class="graph" transform="scale(1 1) rotate(0) translate(4 133)">
<title>vpr::operator&lt;&lt;</title>
<polygon fill="white" stroke="none" points="-4,4 -4,-133 249,-133 249,4 -4,4"/>
<!-- Node9 -->
<g id="node1" class="node"><title>Node9</title>
<polygon fill="#bfbfbf" stroke="black" points="0,-55 0,-74 82,-74 82,-55 0,-55"/>
<text text-anchor="middle" x="41" y="-62" font-family="Helvetica,sans-Serif" font-size="10.00">vpr::operator&lt;&lt;</text>
</g>
<!-- Node10 -->
<g id="node2" class="node"><title>Node10</title>
<g id="a_node2"><a xlink:href="classel_1_1base_1_1_message_builder.html#a740a968d7f2901d49a2e1c348cfea7bf" target="_top" xlink:title="el::base::MessageBuilder\l::operator\&lt;\&lt;">
<polygon fill="white" stroke="black" points="118,-98.5 118,-128.5 245,-128.5 245,-98.5 118,-98.5"/>
<text text-anchor="start" x="126" y="-116.5" font-family="Helvetica,sans-Serif" font-size="10.00">el::base::MessageBuilder</text>
<text text-anchor="middle" x="181.5" y="-105.5" font-family="Helvetica,sans-Serif" font-size="10.00">::operator&lt;&lt;</text>
</a>
</g>
</g>
<!-- Node9&#45;&gt;Node10 -->
<g id="edge1" class="edge"><title>Node9&#45;&gt;Node10</title>
<path fill="none" stroke="midnightblue" d="M78.7111,-77.4881C96.9328,-83.9347 119.044,-91.7576 137.998,-98.463"/>
<polygon fill="midnightblue" stroke="midnightblue" points="79.6278,-74.0998 69.033,-74.064 77.293,-80.699 79.6278,-74.0998"/>
</g>
<!-- Node11 -->
<g id="node3" class="node"><title>Node11</title>
<g id="a_node3"><a xlink:href="classel_1_1base_1_1utils_1_1_command_line_args.html#a2d59b4184e0a6a314ef1c9a4c6d946e6" target="_top" xlink:title="Sets arguments and parses them. ">
<polygon fill="white" stroke="black" points="119,-49.5 119,-79.5 244,-79.5 244,-49.5 119,-49.5"/>
<text text-anchor="start" x="127" y="-67.5" font-family="Helvetica,sans-Serif" font-size="10.00">el::base::utils::Command</text>
<text text-anchor="middle" x="181.5" y="-56.5" font-family="Helvetica,sans-Serif" font-size="10.00">LineArgs::setArgs</text>
</a>
</g>
</g>
<!-- Node9&#45;&gt;Node11 -->
<g id="edge2" class="edge"><title>Node9&#45;&gt;Node11</title>
<path fill="none" stroke="midnightblue" d="M92.3263,-64.5C100.948,-64.5 109.993,-64.5 118.87,-64.5"/>
<polygon fill="midnightblue" stroke="midnightblue" points="92.06,-61.0001 82.0599,-64.5 92.0599,-68.0001 92.06,-61.0001"/>
</g>
<!-- Node12 -->
<g id="node4" class="node"><title>Node12</title>
<g id="a_node4"><a xlink:href="classel_1_1base_1_1_message_builder.html#a240ef66bd4e1ff4169594b8138ca2baa" target="_top" xlink:title="el::base::MessageBuilder\l::writeIterator">
<polygon fill="white" stroke="black" points="118,-0.5 118,-30.5 245,-30.5 245,-0.5 118,-0.5"/>
<text text-anchor="start" x="126" y="-18.5" font-family="Helvetica,sans-Serif" font-size="10.00">el::base::MessageBuilder</text>
<text text-anchor="middle" x="181.5" y="-7.5" font-family="Helvetica,sans-Serif" font-size="10.00">::writeIterator</text>
</a>
</g>
</g>
<!-- Node9&#45;&gt;Node12 -->
<g id="edge3" class="edge"><title>Node9&#45;&gt;Node12</title>
<path fill="none" stroke="midnightblue" d="M78.7111,-51.5119C96.9328,-45.0653 119.044,-37.2424 137.998,-30.537"/>
<polygon fill="midnightblue" stroke="midnightblue" points="77.293,-48.301 69.033,-54.936 79.6278,-54.9002 77.293,-48.301"/>
</g>
</g>
</svg>
