<?xml version="1.0" encoding="UTF-8" standalone="no"?>
<!DOCTYPE svg PUBLIC "-//W3C//DTD SVG 1.1//EN"
 "http://www.w3.org/Graphics/SVG/1.1/DTD/svg11.dtd">
<!-- Generated by graphviz version 2.38.0 (20140413.2041)
 -->
<!-- Title: vpr::CheckBlocksOnSamePage Pages: 1 -->
<svg width="495pt" height="39pt"
 viewBox="0.00 0.00 495.00 39.00" xmlns="http://www.w3.org/2000/svg" xmlns:xlink="http://www.w3.org/1999/xlink">
<g id="graph0" class="graph" transform="scale(1 1) rotate(0) translate(4 35)">
<title>vpr::CheckBlocksOnSamePage</title>
<polygon fill="white" stroke="none" points="-4,4 -4,-35 491,-35 491,4 -4,4"/>
<!-- Node1 -->
<g id="node1" class="node"><title>Node1</title>
<polygon fill="#bfbfbf" stroke="black" points="0,-6 0,-25 153,-25 153,-6 0,-6"/>
<text text-anchor="middle" x="76.5" y="-13" font-family="Helvetica,sans-Serif" font-size="10.00">vpr::CheckBlocksOnSamePage</text>
</g>
<!-- Node2 -->
<g id="node2" class="node"><title>Node2</title>
<g id="a_node2"><a xlink:href="classvpr_1_1_memory_block.html#a3eb796b49ef07360203e2fe8c099809b" target="_top" xlink:title="Verifies that requested suballocation can be added to this object, and sets dest_offset to reflect of...">
<polygon fill="white" stroke="black" points="189,-0.5 189,-30.5 314,-30.5 314,-0.5 189,-0.5"/>
<text text-anchor="start" x="197" y="-18.5" font-family="Helvetica,sans-Serif" font-size="10.00">vpr::MemoryBlock::Verify</text>
<text text-anchor="middle" x="251.5" y="-7.5" font-family="Helvetica,sans-Serif" font-size="10.00">Suballocation</text>
</a>
</g>
</g>
<!-- Node1&#45;&gt;Node2 -->
<g id="edge1" class="edge"><title>Node1&#45;&gt;Node2</title>
<path fill="none" stroke="midnightblue" d="M163.224,-15.5C171.845,-15.5 180.477,-15.5 188.776,-15.5"/>
<polygon fill="midnightblue" stroke="midnightblue" points="163.129,-12.0001 153.129,-15.5 163.129,-19.0001 163.129,-12.0001"/>
</g>
<!-- Node3 -->
<g id="node3" class="node"><title>Node3</title>
<g id="a_node3"><a xlink:href="classvpr_1_1_memory_block.html#acd06cfdc8c15616243b296be79e7a63f" target="_top" xlink:title="Fills the given SuballocationRequest struct with information about where to place the suballocation...">
<polygon fill="white" stroke="black" points="350,-0.5 350,-30.5 487,-30.5 487,-0.5 350,-0.5"/>
<text text-anchor="start" x="358" y="-18.5" font-family="Helvetica,sans-Serif" font-size="10.00">vpr::MemoryBlock::Request</text>
<text text-anchor="middle" x="418.5" y="-7.5" font-family="Helvetica,sans-Serif" font-size="10.00">Suballocation</text>
</a>
</g>
</g>
<!-- Node2&#45;&gt;Node3 -->
<g id="edge2" class="edge"><title>Node2&#45;&gt;Node3</title>
<path fill="none" stroke="midnightblue" d="M324.602,-15.5C333.038,-15.5 341.621,-15.5 349.991,-15.5"/>
<polygon fill="midnightblue" stroke="midnightblue" points="324.409,-12.0001 314.409,-15.5 324.409,-19.0001 324.409,-12.0001"/>
</g>
</g>
</svg>
