<?xml version="1.0" encoding="UTF-8" standalone="no"?>
<!DOCTYPE svg PUBLIC "-//W3C//DTD SVG 1.1//EN"
 "http://www.w3.org/Graphics/SVG/1.1/DTD/svg11.dtd">
<!-- Generated by graphviz version 2.38.0 (20140413.2041)
 -->
<!-- Title: C:/Users/kjones/Documents/SoftwareDev/VulpesSceneKit/third_party/vulpesrender/include/alloc/Allocation.hpp Pages: 1 -->
<svg width="1537pt" height="328pt"
 viewBox="0.00 0.00 1537.00 328.00" xmlns="http://www.w3.org/2000/svg" xmlns:xlink="http://www.w3.org/1999/xlink">
<g id="graph0" class="graph" transform="scale(1 1) rotate(0) translate(4 324)">
<title>C:/Users/kjones/Documents/SoftwareDev/VulpesSceneKit/third_party/vulpesrender/include/alloc/Allocation.hpp</title>
<polygon fill="white" stroke="none" points="-4,4 -4,-324 1533,-324 1533,4 -4,4"/>
<!-- Node4 -->
<g id="node1" class="node"><title>Node4</title>
<polygon fill="#bfbfbf" stroke="black" points="647,-267.5 647,-319.5 793,-319.5 793,-267.5 647,-267.5"/>
<text text-anchor="start" x="655" y="-307.5" font-family="Helvetica,sans-Serif" font-size="10.00">C:/Users/kjones/Documents</text>
<text text-anchor="start" x="655" y="-296.5" font-family="Helvetica,sans-Serif" font-size="10.00">/SoftwareDev/VulpesSceneKit</text>
<text text-anchor="start" x="655" y="-285.5" font-family="Helvetica,sans-Serif" font-size="10.00">/third_party/vulpesrender</text>
<text text-anchor="middle" x="720" y="-274.5" font-family="Helvetica,sans-Serif" font-size="10.00">/include/alloc/Allocation.hpp</text>
</g>
<!-- Node5 -->
<g id="node2" class="node"><title>Node5</title>
<g id="a_node2"><a xlink:href="child_2include_2resource_2_buffer_8hpp.html" target="_top" xlink:title="include/resource/Buffer.hpp">
<polygon fill="white" stroke="black" points="0,-195 0,-214 134,-214 134,-195 0,-195"/>
<text text-anchor="middle" x="67" y="-202" font-family="Helvetica,sans-Serif" font-size="10.00">include/resource/Buffer.hpp</text>
</a>
</g>
</g>
<!-- Node4&#45;&gt;Node5 -->
<g id="edge1" class="edge"><title>Node4&#45;&gt;Node5</title>
<path fill="none" stroke="midnightblue" d="M636.467,-289.293C523.428,-283.665 315.99,-268.768 143,-231 124.1,-226.874 103.318,-219.71 88.2703,-214.025"/>
<polygon fill="midnightblue" stroke="midnightblue" points="636.615,-292.805 646.773,-289.794 636.955,-285.813 636.615,-292.805"/>
</g>
<!-- Node6 -->
<g id="node3" class="node"><title>Node6</title>
<g id="a_node3"><a xlink:href="child_2include_2resource_2_image_8hpp.html" target="_top" xlink:title="include/resource/Image.hpp">
<polygon fill="white" stroke="black" points="152,-195 152,-214 288,-214 288,-195 152,-195"/>
<text text-anchor="middle" x="220" y="-202" font-family="Helvetica,sans-Serif" font-size="10.00">include/resource/Image.hpp</text>
</a>
</g>
</g>
<!-- Node4&#45;&gt;Node6 -->
<g id="edge2" class="edge"><title>Node4&#45;&gt;Node6</title>
<path fill="none" stroke="midnightblue" d="M636.708,-284.752C550.809,-275.747 413.361,-258.502 297,-231 278.225,-226.563 257.493,-219.572 242.275,-214.031"/>
<polygon fill="midnightblue" stroke="midnightblue" points="636.357,-288.234 646.665,-285.783 637.078,-281.271 636.357,-288.234"/>
</g>
<!-- Node7 -->
<g id="node4" class="node"><title>Node7</title>
<g id="a_node4"><a xlink:href="child_2src_2alloc_2_allocation_8cpp.html" target="_top" xlink:title="src/alloc/Allocation.cpp">
<polygon fill="white" stroke="black" points="306,-195 306,-214 424,-214 424,-195 306,-195"/>
<text text-anchor="middle" x="365" y="-202" font-family="Helvetica,sans-Serif" font-size="10.00">src/alloc/Allocation.cpp</text>
</a>
</g>
</g>
<!-- Node4&#45;&gt;Node7 -->
<g id="edge3" class="edge"><title>Node4&#45;&gt;Node7</title>
<path fill="none" stroke="midnightblue" d="M636.551,-277.993C578.842,-267.142 500.585,-250.796 433,-231 416.786,-226.251 398.915,-219.487 385.564,-214.118"/>
<polygon fill="midnightblue" stroke="midnightblue" points="636.244,-281.496 646.716,-279.888 637.527,-274.615 636.244,-281.496"/>
</g>
<!-- Node8 -->
<g id="node5" class="node"><title>Node8</title>
<g id="a_node5"><a xlink:href="child_2src_2alloc_2_allocator_8cpp.html" target="_top" xlink:title="src/alloc/Allocator.cpp">
<polygon fill="white" stroke="black" points="442.5,-195 442.5,-214 555.5,-214 555.5,-195 442.5,-195"/>
<text text-anchor="middle" x="499" y="-202" font-family="Helvetica,sans-Serif" font-size="10.00">src/alloc/Allocator.cpp</text>
</a>
</g>
</g>
<!-- Node4&#45;&gt;Node8 -->
<g id="edge4" class="edge"><title>Node4&#45;&gt;Node8</title>
<path fill="none" stroke="midnightblue" d="M646.842,-263.7C602.82,-246.37 549.838,-225.513 520.758,-214.065"/>
<polygon fill="midnightblue" stroke="midnightblue" points="645.787,-267.046 656.374,-267.453 648.351,-260.533 645.787,-267.046"/>
</g>
<!-- Node9 -->
<g id="node6" class="node"><title>Node9</title>
<g id="a_node6"><a xlink:href="child_2src_2alloc_2_memory_block_8cpp.html" target="_top" xlink:title="src/alloc/MemoryBlock.cpp">
<polygon fill="white" stroke="black" points="573.5,-195 573.5,-214 708.5,-214 708.5,-195 573.5,-195"/>
<text text-anchor="middle" x="641" y="-202" font-family="Helvetica,sans-Serif" font-size="10.00">src/alloc/MemoryBlock.cpp</text>
</a>
</g>
</g>
<!-- Node4&#45;&gt;Node9 -->
<g id="edge5" class="edge"><title>Node4&#45;&gt;Node9</title>
<path fill="none" stroke="midnightblue" d="M690.073,-259.543C675.265,-243.235 658.547,-224.823 648.943,-214.248"/>
<polygon fill="midnightblue" stroke="midnightblue" points="687.836,-262.286 697.15,-267.336 693.019,-257.58 687.836,-262.286"/>
</g>
<!-- Node10 -->
<g id="node7" class="node"><title>Node10</title>
<g id="a_node7"><a xlink:href="include_2resource_2_buffer_8hpp.html" target="_top" xlink:title="C:/Users/kjones/Documents\l/SoftwareDev/VulpesSceneKit\l/third_party/vulpesrender\l/include/resource/Buffer.hpp">
<polygon fill="white" stroke="black" points="727,-178.5 727,-230.5 873,-230.5 873,-178.5 727,-178.5"/>
<text text-anchor="start" x="735" y="-218.5" font-family="Helvetica,sans-Serif" font-size="10.00">C:/Users/kjones/Documents</text>
<text text-anchor="start" x="735" y="-207.5" font-family="Helvetica,sans-Serif" font-size="10.00">/SoftwareDev/VulpesSceneKit</text>
<text text-anchor="start" x="735" y="-196.5" font-family="Helvetica,sans-Serif" font-size="10.00">/third_party/vulpesrender</text>
<text text-anchor="middle" x="800" y="-185.5" font-family="Helvetica,sans-Serif" font-size="10.00">/include/resource/Buffer.hpp</text>
</a>
</g>
</g>
<!-- Node4&#45;&gt;Node10 -->
<g id="edge6" class="edge"><title>Node4&#45;&gt;Node10</title>
<path fill="none" stroke="midnightblue" d="M750.078,-259.79C758.962,-250.129 768.543,-239.71 776.913,-230.607"/>
<polygon fill="midnightblue" stroke="midnightblue" points="747.332,-257.606 743.139,-267.336 752.484,-262.344 747.332,-257.606"/>
</g>
<!-- Node13 -->
<g id="node10" class="node"><title>Node13</title>
<g id="a_node10"><a xlink:href="include_2resource_2_image_8hpp.html" target="_top" xlink:title="C:/Users/kjones/Documents\l/SoftwareDev/VulpesSceneKit\l/third_party/vulpesrender\l/include/resource/Image.hpp">
<polygon fill="white" stroke="black" points="891,-178.5 891,-230.5 1037,-230.5 1037,-178.5 891,-178.5"/>
<text text-anchor="start" x="899" y="-218.5" font-family="Helvetica,sans-Serif" font-size="10.00">C:/Users/kjones/Documents</text>
<text text-anchor="start" x="899" y="-207.5" font-family="Helvetica,sans-Serif" font-size="10.00">/SoftwareDev/VulpesSceneKit</text>
<text text-anchor="start" x="899" y="-196.5" font-family="Helvetica,sans-Serif" font-size="10.00">/third_party/vulpesrender</text>
<text text-anchor="middle" x="964" y="-185.5" font-family="Helvetica,sans-Serif" font-size="10.00">/include/resource/Image.hpp</text>
</a>
</g>
</g>
<!-- Node4&#45;&gt;Node13 -->
<g id="edge9" class="edge"><title>Node4&#45;&gt;Node13</title>
<path fill="none" stroke="midnightblue" d="M799.936,-263.998C830.24,-253.193 864.488,-240.982 893.826,-230.521"/>
<polygon fill="midnightblue" stroke="midnightblue" points="798.491,-260.797 790.248,-267.453 800.842,-267.391 798.491,-260.797"/>
</g>
<!-- Node20 -->
<g id="node17" class="node"><title>Node20</title>
<g id="a_node17"><a xlink:href="src_2alloc_2_allocation_8cpp.html" target="_top" xlink:title="C:/Users/kjones/Documents\l/SoftwareDev/VulpesSceneKit\l/third_party/vulpesrender\l/src/alloc/Allocation.cpp">
<polygon fill="white" stroke="black" points="1055,-178.5 1055,-230.5 1201,-230.5 1201,-178.5 1055,-178.5"/>
<text text-anchor="start" x="1063" y="-218.5" font-family="Helvetica,sans-Serif" font-size="10.00">C:/Users/kjones/Documents</text>
<text text-anchor="start" x="1063" y="-207.5" font-family="Helvetica,sans-Serif" font-size="10.00">/SoftwareDev/VulpesSceneKit</text>
<text text-anchor="start" x="1063" y="-196.5" font-family="Helvetica,sans-Serif" font-size="10.00">/third_party/vulpesrender</text>
<text text-anchor="middle" x="1128" y="-185.5" font-family="Helvetica,sans-Serif" font-size="10.00">/src/alloc/Allocation.cpp</text>
</a>
</g>
</g>
<!-- Node4&#45;&gt;Node20 -->
<g id="edge16" class="edge"><title>Node4&#45;&gt;Node20</title>
<path fill="none" stroke="midnightblue" d="M802.994,-279.553C869.22,-268.573 964.132,-251.38 1046,-231 1048.89,-230.28 1051.84,-229.516 1054.8,-228.721"/>
<polygon fill="midnightblue" stroke="midnightblue" points="802.326,-276.116 793.027,-281.195 803.463,-283.023 802.326,-276.116"/>
</g>
<!-- Node21 -->
<g id="node18" class="node"><title>Node21</title>
<g id="a_node18"><a xlink:href="src_2alloc_2_allocator_8cpp.html" target="_top" xlink:title="C:/Users/kjones/Documents\l/SoftwareDev/VulpesSceneKit\l/third_party/vulpesrender\l/src/alloc/Allocator.cpp">
<polygon fill="white" stroke="black" points="1219,-178.5 1219,-230.5 1365,-230.5 1365,-178.5 1219,-178.5"/>
<text text-anchor="start" x="1227" y="-218.5" font-family="Helvetica,sans-Serif" font-size="10.00">C:/Users/kjones/Documents</text>
<text text-anchor="start" x="1227" y="-207.5" font-family="Helvetica,sans-Serif" font-size="10.00">/SoftwareDev/VulpesSceneKit</text>
<text text-anchor="start" x="1227" y="-196.5" font-family="Helvetica,sans-Serif" font-size="10.00">/third_party/vulpesrender</text>
<text text-anchor="middle" x="1292" y="-185.5" font-family="Helvetica,sans-Serif" font-size="10.00">/src/alloc/Allocator.cpp</text>
</a>
</g>
</g>
<!-- Node4&#45;&gt;Node21 -->
<g id="edge17" class="edge"><title>Node4&#45;&gt;Node21</title>
<path fill="none" stroke="midnightblue" d="M803.475,-286.54C901.605,-278.496 1068.98,-261.527 1210,-231 1212.91,-230.369 1215.87,-229.681 1218.85,-228.949"/>
<polygon fill="midnightblue" stroke="midnightblue" points="803.007,-283.066 793.321,-287.36 803.571,-290.043 803.007,-283.066"/>
</g>
<!-- Node22 -->
<g id="node19" class="node"><title>Node22</title>
<g id="a_node19"><a xlink:href="src_2alloc_2_memory_block_8cpp.html" target="_top" xlink:title="C:/Users/kjones/Documents\l/SoftwareDev/VulpesSceneKit\l/third_party/vulpesrender\l/src/alloc/MemoryBlock.cpp">
<polygon fill="white" stroke="black" points="1383,-178.5 1383,-230.5 1529,-230.5 1529,-178.5 1383,-178.5"/>
<text text-anchor="start" x="1391" y="-218.5" font-family="Helvetica,sans-Serif" font-size="10.00">C:/Users/kjones/Documents</text>
<text text-anchor="start" x="1391" y="-207.5" font-family="Helvetica,sans-Serif" font-size="10.00">/SoftwareDev/VulpesSceneKit</text>
<text text-anchor="start" x="1391" y="-196.5" font-family="Helvetica,sans-Serif" font-size="10.00">/third_party/vulpesrender</text>
<text text-anchor="middle" x="1456" y="-185.5" font-family="Helvetica,sans-Serif" font-size="10.00">/src/alloc/MemoryBlock.cpp</text>
</a>
</g>
</g>
<!-- Node4&#45;&gt;Node22 -->
<g id="edge18" class="edge"><title>Node4&#45;&gt;Node22</title>
<path fill="none" stroke="midnightblue" d="M803.571,-290.186C928.707,-285.478 1171.7,-271.51 1374,-231 1376.92,-230.415 1379.89,-229.765 1382.88,-229.065"/>
<polygon fill="midnightblue" stroke="midnightblue" points="803.166,-286.699 793.301,-290.562 803.422,-293.694 803.166,-286.699"/>
</g>
<!-- Node11 -->
<g id="node8" class="node"><title>Node11</title>
<g id="a_node8"><a xlink:href="child_2src_2resource_2_buffer_8cpp.html" target="_top" xlink:title="src/resource/Buffer.cpp">
<polygon fill="white" stroke="black" points="508.5,-106 508.5,-125 625.5,-125 625.5,-106 508.5,-106"/>
<text text-anchor="middle" x="567" y="-113" font-family="Helvetica,sans-Serif" font-size="10.00">src/resource/Buffer.cpp</text>
</a>
</g>
</g>
<!-- Node10&#45;&gt;Node11 -->
<g id="edge7" class="edge"><title>Node10&#45;&gt;Node11</title>
<path fill="none" stroke="midnightblue" d="M722.917,-174.805C695.194,-164.476 663.689,-152.726 635,-142 619.883,-136.348 602.883,-129.973 589.662,-125.011"/>
<polygon fill="midnightblue" stroke="midnightblue" points="721.962,-178.184 732.555,-178.396 724.406,-171.625 721.962,-178.184"/>
</g>
<!-- Node12 -->
<g id="node9" class="node"><title>Node12</title>
<g id="a_node9"><a xlink:href="src_2resource_2_buffer_8cpp.html" target="_top" xlink:title="C:/Users/kjones/Documents\l/SoftwareDev/VulpesSceneKit\l/third_party/vulpesrender\l/src/resource/Buffer.cpp">
<polygon fill="white" stroke="black" points="644,-89.5 644,-141.5 790,-141.5 790,-89.5 644,-89.5"/>
<text text-anchor="start" x="652" y="-129.5" font-family="Helvetica,sans-Serif" font-size="10.00">C:/Users/kjones/Documents</text>
<text text-anchor="start" x="652" y="-118.5" font-family="Helvetica,sans-Serif" font-size="10.00">/SoftwareDev/VulpesSceneKit</text>
<text text-anchor="start" x="652" y="-107.5" font-family="Helvetica,sans-Serif" font-size="10.00">/third_party/vulpesrender</text>
<text text-anchor="middle" x="717" y="-96.5" font-family="Helvetica,sans-Serif" font-size="10.00">/src/resource/Buffer.cpp</text>
</a>
</g>
</g>
<!-- Node10&#45;&gt;Node12 -->
<g id="edge8" class="edge"><title>Node10&#45;&gt;Node12</title>
<path fill="none" stroke="midnightblue" d="M769.068,-171.077C759.774,-161.335 749.723,-150.8 740.953,-141.607"/>
<polygon fill="midnightblue" stroke="midnightblue" points="766.558,-173.517 775.993,-178.336 771.623,-168.685 766.558,-173.517"/>
</g>
<!-- Node14 -->
<g id="node11" class="node"><title>Node14</title>
<g id="a_node11"><a xlink:href="child_2include_2render_2_depth_stencil_8hpp.html" target="_top" xlink:title="include/render/DepthStencil.hpp">
<polygon fill="white" stroke="black" points="808.5,-106 808.5,-125 963.5,-125 963.5,-106 808.5,-106"/>
<text text-anchor="middle" x="886" y="-113" font-family="Helvetica,sans-Serif" font-size="10.00">include/render/DepthStencil.hpp</text>
</a>
</g>
</g>
<!-- Node13&#45;&gt;Node14 -->
<g id="edge10" class="edge"><title>Node13&#45;&gt;Node14</title>
<path fill="none" stroke="midnightblue" d="M934.452,-170.543C919.831,-154.235 903.324,-135.823 893.843,-125.248"/>
<polygon fill="midnightblue" stroke="midnightblue" points="932.158,-173.227 941.439,-178.336 937.37,-168.554 932.158,-173.227"/>
</g>
<!-- Node15 -->
<g id="node12" class="node"><title>Node15</title>
<g id="a_node12"><a xlink:href="child_2src_2resource_2_image_8cpp.html" target="_top" xlink:title="src/resource/Image.cpp">
<polygon fill="white" stroke="black" points="981.5,-106 981.5,-125 1100.5,-125 1100.5,-106 981.5,-106"/>
<text text-anchor="middle" x="1041" y="-113" font-family="Helvetica,sans-Serif" font-size="10.00">src/resource/Image.cpp</text>
</a>
</g>
</g>
<!-- Node13&#45;&gt;Node15 -->
<g id="edge11" class="edge"><title>Node13&#45;&gt;Node15</title>
<path fill="none" stroke="midnightblue" d="M993.169,-170.543C1007.6,-154.235 1023.9,-135.823 1033.26,-125.248"/>
<polygon fill="midnightblue" stroke="midnightblue" points="990.278,-168.528 986.272,-178.336 995.52,-173.167 990.278,-168.528"/>
</g>
<!-- Node16 -->
<g id="node13" class="node"><title>Node16</title>
<g id="a_node13"><a xlink:href="include_2render_2_depth_stencil_8hpp.html" target="_top" xlink:title="C:/Users/kjones/Documents\l/SoftwareDev/VulpesSceneKit\l/third_party/vulpesrender\l/include/render/DepthStencil.hpp">
<polygon fill="white" stroke="black" points="1119,-89.5 1119,-141.5 1277,-141.5 1277,-89.5 1119,-89.5"/>
<text text-anchor="start" x="1127" y="-129.5" font-family="Helvetica,sans-Serif" font-size="10.00">C:/Users/kjones/Documents</text>
<text text-anchor="start" x="1127" y="-118.5" font-family="Helvetica,sans-Serif" font-size="10.00">/SoftwareDev/VulpesSceneKit</text>
<text text-anchor="start" x="1127" y="-107.5" font-family="Helvetica,sans-Serif" font-size="10.00">/third_party/vulpesrender</text>
<text text-anchor="middle" x="1198" y="-96.5" font-family="Helvetica,sans-Serif" font-size="10.00">/include/render/DepthStencil.hpp</text>
</a>
</g>
</g>
<!-- Node13&#45;&gt;Node16 -->
<g id="edge12" class="edge"><title>Node13&#45;&gt;Node16</title>
<path fill="none" stroke="midnightblue" d="M1041.04,-174.858C1070.01,-164.087 1102.69,-151.936 1130.7,-141.521"/>
<polygon fill="midnightblue" stroke="midnightblue" points="1039.52,-171.687 1031.37,-178.453 1041.96,-178.248 1039.52,-171.687"/>
</g>
<!-- Node19 -->
<g id="node16" class="node"><title>Node19</title>
<g id="a_node16"><a xlink:href="src_2resource_2_image_8cpp.html" target="_top" xlink:title="C:/Users/kjones/Documents\l/SoftwareDev/VulpesSceneKit\l/third_party/vulpesrender\l/src/resource/Image.cpp">
<polygon fill="white" stroke="black" points="1295,-89.5 1295,-141.5 1441,-141.5 1441,-89.5 1295,-89.5"/>
<text text-anchor="start" x="1303" y="-129.5" font-family="Helvetica,sans-Serif" font-size="10.00">C:/Users/kjones/Documents</text>
<text text-anchor="start" x="1303" y="-118.5" font-family="Helvetica,sans-Serif" font-size="10.00">/SoftwareDev/VulpesSceneKit</text>
<text text-anchor="start" x="1303" y="-107.5" font-family="Helvetica,sans-Serif" font-size="10.00">/third_party/vulpesrender</text>
<text text-anchor="middle" x="1368" y="-96.5" font-family="Helvetica,sans-Serif" font-size="10.00">/src/resource/Image.cpp</text>
</a>
</g>
</g>
<!-- Node13&#45;&gt;Node19 -->
<g id="edge15" class="edge"><title>Node13&#45;&gt;Node19</title>
<path fill="none" stroke="midnightblue" d="M1046.97,-177.932C1152.94,-154.597 1183.94,-165.379 1286,-142 1288.91,-141.334 1291.86,-140.617 1294.83,-139.86"/>
<polygon fill="midnightblue" stroke="midnightblue" points="1046.15,-174.529 1037.17,-180.14 1047.69,-181.357 1046.15,-174.529"/>
</g>
<!-- Node17 -->
<g id="node14" class="node"><title>Node17</title>
<g id="a_node14"><a xlink:href="child_2src_2render_2_depth_stencil_8cpp.html" target="_top" xlink:title="src/render/DepthStencil.cpp">
<polygon fill="white" stroke="black" points="1049.5,-17 1049.5,-36 1186.5,-36 1186.5,-17 1049.5,-17"/>
<text text-anchor="middle" x="1118" y="-24" font-family="Helvetica,sans-Serif" font-size="10.00">src/render/DepthStencil.cpp</text>
</a>
</g>
</g>
<!-- Node16&#45;&gt;Node17 -->
<g id="edge13" class="edge"><title>Node16&#45;&gt;Node17</title>
<path fill="none" stroke="midnightblue" d="M1167.69,-81.5428C1152.7,-65.2349 1135.77,-46.8234 1126.04,-36.2478"/>
<polygon fill="midnightblue" stroke="midnightblue" points="1165.52,-84.344 1174.86,-89.336 1170.67,-79.6059 1165.52,-84.344"/>
</g>
<!-- Node18 -->
<g id="node15" class="node"><title>Node18</title>
<g id="a_node15"><a xlink:href="src_2render_2_depth_stencil_8cpp.html" target="_top" xlink:title="C:/Users/kjones/Documents\l/SoftwareDev/VulpesSceneKit\l/third_party/vulpesrender\l/src/render/DepthStencil.cpp">
<polygon fill="white" stroke="black" points="1205,-0.5 1205,-52.5 1351,-52.5 1351,-0.5 1205,-0.5"/>
<text text-anchor="start" x="1213" y="-40.5" font-family="Helvetica,sans-Serif" font-size="10.00">C:/Users/kjones/Documents</text>
<text text-anchor="start" x="1213" y="-29.5" font-family="Helvetica,sans-Serif" font-size="10.00">/SoftwareDev/VulpesSceneKit</text>
<text text-anchor="start" x="1213" y="-18.5" font-family="Helvetica,sans-Serif" font-size="10.00">/third_party/vulpesrender</text>
<text text-anchor="middle" x="1278" y="-7.5" font-family="Helvetica,sans-Serif" font-size="10.00">/src/render/DepthStencil.cpp</text>
</a>
</g>
</g>
<!-- Node16&#45;&gt;Node18 -->
<g id="edge14" class="edge"><title>Node16&#45;&gt;Node18</title>
<path fill="none" stroke="midnightblue" d="M1228.08,-81.79C1236.96,-72.1288 1246.54,-61.7097 1254.91,-52.6075"/>
<polygon fill="midnightblue" stroke="midnightblue" points="1225.33,-79.6059 1221.14,-89.336 1230.48,-84.344 1225.33,-79.6059"/>
</g>
</g>
</svg>
