<?xml version="1.0" encoding="UTF-8" standalone="no"?>
<!DOCTYPE svg PUBLIC "-//W3C//DTD SVG 1.1//EN"
 "http://www.w3.org/Graphics/SVG/1.1/DTD/svg11.dtd">
<!-- Generated by graphviz version 2.38.0 (20140413.2041)
 -->
<!-- Title: C:/Users/kjones/Documents/SoftwareDev/VulpesSceneKit/third_party/vulpesrender/include/resource/PipelineLayout.hpp Pages: 1 -->
<svg width="342pt" height="150pt"
 viewBox="0.00 0.00 341.50 150.00" xmlns="http://www.w3.org/2000/svg" xmlns:xlink="http://www.w3.org/1999/xlink">
<g id="graph0" class="graph" transform="scale(1 1) rotate(0) translate(4 146)">
<title>C:/Users/kjones/Documents/SoftwareDev/VulpesSceneKit/third_party/vulpesrender/include/resource/PipelineLayout.hpp</title>
<polygon fill="white" stroke="none" points="-4,4 -4,-146 337.5,-146 337.5,4 -4,4"/>
<!-- Node3 -->
<g id="node1" class="node"><title>Node3</title>
<polygon fill="#bfbfbf" stroke="black" points="78,-89.5 78,-141.5 254,-141.5 254,-89.5 78,-89.5"/>
<text text-anchor="start" x="86" y="-129.5" font-family="Helvetica,sans-Serif" font-size="10.00">C:/Users/kjones/Documents</text>
<text text-anchor="start" x="86" y="-118.5" font-family="Helvetica,sans-Serif" font-size="10.00">/SoftwareDev/VulpesSceneKit</text>
<text text-anchor="start" x="86" y="-107.5" font-family="Helvetica,sans-Serif" font-size="10.00">/third_party/vulpesrender</text>
<text text-anchor="middle" x="166" y="-96.5" font-family="Helvetica,sans-Serif" font-size="10.00">/include/resource/PipelineLayout.hpp</text>
</g>
<!-- Node4 -->
<g id="node2" class="node"><title>Node4</title>
<g id="a_node2"><a xlink:href="child_2src_2resource_2_pipeline_layout_8cpp.html" target="_top" xlink:title="src/resource/PipelineLayout.cpp">
<polygon fill="white" stroke="black" points="0,-17 0,-36 156,-36 156,-17 0,-17"/>
<text text-anchor="middle" x="78" y="-24" font-family="Helvetica,sans-Serif" font-size="10.00">src/resource/PipelineLayout.cpp</text>
</a>
</g>
</g>
<!-- Node3&#45;&gt;Node4 -->
<g id="edge1" class="edge"><title>Node3&#45;&gt;Node4</title>
<path fill="none" stroke="midnightblue" d="M133.113,-81.9871C116.508,-65.5703 97.6427,-46.9195 86.8483,-36.2478"/>
<polygon fill="midnightblue" stroke="midnightblue" points="130.975,-84.7944 140.547,-89.336 135.896,-79.8164 130.975,-84.7944"/>
</g>
<!-- Node5 -->
<g id="node3" class="node"><title>Node5</title>
<g id="a_node3"><a xlink:href="src_2resource_2_pipeline_layout_8cpp.html" target="_top" xlink:title="C:/Users/kjones/Documents\l/SoftwareDev/VulpesSceneKit\l/third_party/vulpesrender\l/src/resource/PipelineLayout.cpp">
<polygon fill="white" stroke="black" points="174.5,-0.5 174.5,-52.5 333.5,-52.5 333.5,-0.5 174.5,-0.5"/>
<text text-anchor="start" x="182.5" y="-40.5" font-family="Helvetica,sans-Serif" font-size="10.00">C:/Users/kjones/Documents</text>
<text text-anchor="start" x="182.5" y="-29.5" font-family="Helvetica,sans-Serif" font-size="10.00">/SoftwareDev/VulpesSceneKit</text>
<text text-anchor="start" x="182.5" y="-18.5" font-family="Helvetica,sans-Serif" font-size="10.00">/third_party/vulpesrender</text>
<text text-anchor="middle" x="254" y="-7.5" font-family="Helvetica,sans-Serif" font-size="10.00">/src/resource/PipelineLayout.cpp</text>
</a>
</g>
</g>
<!-- Node3&#45;&gt;Node5 -->
<g id="edge2" class="edge"><title>Node3&#45;&gt;Node5</title>
<path fill="none" stroke="midnightblue" d="M198.796,-82.0768C208.649,-72.3353 219.306,-61.7998 228.604,-52.6075"/>
<polygon fill="midnightblue" stroke="midnightblue" points="196.104,-79.8164 191.453,-89.336 201.025,-84.7944 196.104,-79.8164"/>
</g>
</g>
</svg>
