<?xml version="1.0" encoding="UTF-8" standalone="no"?>
<!DOCTYPE svg PUBLIC "-//W3C//DTD SVG 1.1//EN"
 "http://www.w3.org/Graphics/SVG/1.1/DTD/svg11.dtd">
<!-- Generated by graphviz version 2.38.0 (20140413.2041)
 -->
<!-- Title: C:/Users/kjones/Documents/SoftwareDev/VulpesSceneKit/third_party/vulpesrender/include/resource/DescriptorSetLayout.hpp Pages: 1 -->
<svg width="687pt" height="150pt"
 viewBox="0.00 0.00 687.00 150.00" xmlns="http://www.w3.org/2000/svg" xmlns:xlink="http://www.w3.org/1999/xlink">
<g id="graph0" class="graph" transform="scale(1 1) rotate(0) translate(4 146)">
<title>C:/Users/kjones/Documents/SoftwareDev/VulpesSceneKit/third_party/vulpesrender/include/resource/DescriptorSetLayout.hpp</title>
<polygon fill="white" stroke="none" points="-4,4 -4,-146 683,-146 683,4 -4,4"/>
<!-- Node5 -->
<g id="node1" class="node"><title>Node5</title>
<polygon fill="#bfbfbf" stroke="black" points="217.5,-89.5 217.5,-141.5 418.5,-141.5 418.5,-89.5 217.5,-89.5"/>
<text text-anchor="start" x="225.5" y="-129.5" font-family="Helvetica,sans-Serif" font-size="10.00">C:/Users/kjones/Documents</text>
<text text-anchor="start" x="225.5" y="-118.5" font-family="Helvetica,sans-Serif" font-size="10.00">/SoftwareDev/VulpesSceneKit</text>
<text text-anchor="start" x="225.5" y="-107.5" font-family="Helvetica,sans-Serif" font-size="10.00">/third_party/vulpesrender</text>
<text text-anchor="middle" x="318" y="-96.5" font-family="Helvetica,sans-Serif" font-size="10.00">/include/resource/DescriptorSetLayout.hpp</text>
</g>
<!-- Node6 -->
<g id="node2" class="node"><title>Node6</title>
<g id="a_node2"><a xlink:href="child_2src_2resource_2_descriptor_set_8cpp.html" target="_top" xlink:title="src/resource/DescriptorSet.cpp">
<polygon fill="white" stroke="black" points="0,-17 0,-36 152,-36 152,-17 0,-17"/>
<text text-anchor="middle" x="76" y="-24" font-family="Helvetica,sans-Serif" font-size="10.00">src/resource/DescriptorSet.cpp</text>
</a>
</g>
</g>
<!-- Node5&#45;&gt;Node6 -->
<g id="edge1" class="edge"><title>Node5&#45;&gt;Node6</title>
<path fill="none" stroke="midnightblue" d="M238.798,-86.0266C190.416,-68.633 131.869,-47.585 99.8254,-36.0653"/>
<polygon fill="midnightblue" stroke="midnightblue" points="237.734,-89.3632 248.328,-89.4527 240.102,-82.776 237.734,-89.3632"/>
</g>
<!-- Node7 -->
<g id="node3" class="node"><title>Node7</title>
<g id="a_node3"><a xlink:href="child_2src_2resource_2_descriptor_set_layout_8cpp.html" target="_top" xlink:title="src/resource/DescriptorSet\lLayout.cpp">
<polygon fill="white" stroke="black" points="170.5,-11.5 170.5,-41.5 303.5,-41.5 303.5,-11.5 170.5,-11.5"/>
<text text-anchor="start" x="178.5" y="-29.5" font-family="Helvetica,sans-Serif" font-size="10.00">src/resource/DescriptorSet</text>
<text text-anchor="middle" x="237" y="-18.5" font-family="Helvetica,sans-Serif" font-size="10.00">Layout.cpp</text>
</a>
</g>
</g>
<!-- Node5&#45;&gt;Node7 -->
<g id="edge2" class="edge"><title>Node5&#45;&gt;Node7</title>
<path fill="none" stroke="midnightblue" d="M287.604,-81.8524C274.728,-68.0228 260.397,-52.6299 250.282,-41.7658"/>
<polygon fill="midnightblue" stroke="midnightblue" points="285.196,-84.402 294.571,-89.336 290.319,-79.6321 285.196,-84.402"/>
</g>
<!-- Node8 -->
<g id="node4" class="node"><title>Node8</title>
<g id="a_node4"><a xlink:href="src_2resource_2_descriptor_set_8cpp.html" target="_top" xlink:title="C:/Users/kjones/Documents\l/SoftwareDev/VulpesSceneKit\l/third_party/vulpesrender\l/src/resource/DescriptorSet.cpp">
<polygon fill="white" stroke="black" points="321.5,-0.5 321.5,-52.5 476.5,-52.5 476.5,-0.5 321.5,-0.5"/>
<text text-anchor="start" x="329.5" y="-40.5" font-family="Helvetica,sans-Serif" font-size="10.00">C:/Users/kjones/Documents</text>
<text text-anchor="start" x="329.5" y="-29.5" font-family="Helvetica,sans-Serif" font-size="10.00">/SoftwareDev/VulpesSceneKit</text>
<text text-anchor="start" x="329.5" y="-18.5" font-family="Helvetica,sans-Serif" font-size="10.00">/third_party/vulpesrender</text>
<text text-anchor="middle" x="399" y="-7.5" font-family="Helvetica,sans-Serif" font-size="10.00">/src/resource/DescriptorSet.cpp</text>
</a>
</g>
</g>
<!-- Node5&#45;&gt;Node8 -->
<g id="edge3" class="edge"><title>Node5&#45;&gt;Node8</title>
<path fill="none" stroke="midnightblue" d="M348.454,-81.79C357.449,-72.1288 367.15,-61.7097 375.624,-52.6075"/>
<polygon fill="midnightblue" stroke="midnightblue" points="345.681,-79.6321 341.429,-89.336 350.804,-84.402 345.681,-79.6321"/>
</g>
<!-- Node9 -->
<g id="node5" class="node"><title>Node9</title>
<g id="a_node5"><a xlink:href="src_2resource_2_descriptor_set_layout_8cpp.html" target="_top" xlink:title="C:/Users/kjones/Documents\l/SoftwareDev/VulpesSceneKit\l/third_party/vulpesrender\l/src/resource/DescriptorSetLayout.cpp">
<polygon fill="white" stroke="black" points="495,-0.5 495,-52.5 679,-52.5 679,-0.5 495,-0.5"/>
<text text-anchor="start" x="503" y="-40.5" font-family="Helvetica,sans-Serif" font-size="10.00">C:/Users/kjones/Documents</text>
<text text-anchor="start" x="503" y="-29.5" font-family="Helvetica,sans-Serif" font-size="10.00">/SoftwareDev/VulpesSceneKit</text>
<text text-anchor="start" x="503" y="-18.5" font-family="Helvetica,sans-Serif" font-size="10.00">/third_party/vulpesrender</text>
<text text-anchor="middle" x="587" y="-7.5" font-family="Helvetica,sans-Serif" font-size="10.00">/src/resource/DescriptorSetLayout.cpp</text>
</a>
</g>
</g>
<!-- Node5&#45;&gt;Node9 -->
<g id="edge4" class="edge"><title>Node5&#45;&gt;Node9</title>
<path fill="none" stroke="midnightblue" d="M405.26,-86.2784C438.881,-75.4048 477.013,-63.0721 509.636,-52.5211"/>
<polygon fill="midnightblue" stroke="midnightblue" points="403.883,-83.0452 395.445,-89.4527 406.037,-89.7056 403.883,-83.0452"/>
</g>
</g>
</svg>
