<?xml version="1.0" encoding="UTF-8" standalone="no"?>
<!DOCTYPE svg PUBLIC "-//W3C//DTD SVG 1.1//EN"
 "http://www.w3.org/Graphics/SVG/1.1/DTD/svg11.dtd">
<!-- Generated by graphviz version 2.38.0 (20140413.2041)
 -->
<!-- Title: C:/Users/kjones/Documents/SoftwareDev/VulpesSceneKit/third_party/vulpesrender/include/util/easylogging++.h Pages: 1 -->
<svg width="1244pt" height="117pt"
 viewBox="0.00 0.00 1243.50 117.00" xmlns="http://www.w3.org/2000/svg" xmlns:xlink="http://www.w3.org/1999/xlink">
<g id="graph0" class="graph" transform="scale(1 1) rotate(0) translate(4 113)">
<title>C:/Users/kjones/Documents/SoftwareDev/VulpesSceneKit/third_party/vulpesrender/include/util/easylogging++.h</title>
<polygon fill="white" stroke="none" points="-4,4 -4,-113 1239.5,-113 1239.5,4 -4,4"/>
<!-- Node0 -->
<g id="node1" class="node"><title>Node0</title>
<polygon fill="#bfbfbf" stroke="black" points="519.5,-56.5 519.5,-108.5 665.5,-108.5 665.5,-56.5 519.5,-56.5"/>
<text text-anchor="start" x="527.5" y="-96.5" font-family="Helvetica,sans-Serif" font-size="10.00">C:/Users/kjones/Documents</text>
<text text-anchor="start" x="527.5" y="-85.5" font-family="Helvetica,sans-Serif" font-size="10.00">/SoftwareDev/VulpesSceneKit</text>
<text text-anchor="start" x="527.5" y="-74.5" font-family="Helvetica,sans-Serif" font-size="10.00">/third_party/vulpesrender</text>
<text text-anchor="middle" x="592.5" y="-63.5" font-family="Helvetica,sans-Serif" font-size="10.00">/include/util/easylogging++.h</text>
</g>
<!-- Node1 -->
<g id="node2" class="node"><title>Node1</title>
<polygon fill="white" stroke="#bfbfbf" points="0,-0.5 0,-19.5 41,-19.5 41,-0.5 0,-0.5"/>
<text text-anchor="middle" x="20.5" y="-7.5" font-family="Helvetica,sans-Serif" font-size="10.00">ctime</text>
</g>
<!-- Node0&#45;&gt;Node1 -->
<g id="edge1" class="edge"><title>Node0&#45;&gt;Node1</title>
<path fill="none" stroke="midnightblue" d="M519.086,-77.3383C416.269,-70.5875 223.611,-54.5763 51.0589,-19.737"/>
<polygon fill="midnightblue" stroke="midnightblue" points="51.5319,-16.2613 41.0334,-17.6866 50.1293,-23.1194 51.5319,-16.2613"/>
</g>
<!-- Node2 -->
<g id="node3" class="node"><title>Node2</title>
<polygon fill="white" stroke="#bfbfbf" points="59.5,-0.5 59.5,-19.5 105.5,-19.5 105.5,-0.5 59.5,-0.5"/>
<text text-anchor="middle" x="82.5" y="-7.5" font-family="Helvetica,sans-Serif" font-size="10.00">cstring</text>
</g>
<!-- Node0&#45;&gt;Node2 -->
<g id="edge2" class="edge"><title>Node0&#45;&gt;Node2</title>
<path fill="none" stroke="midnightblue" d="M519.479,-75.4511C427.367,-67.0751 264.08,-49.7506 116.004,-20.0515"/>
<polygon fill="midnightblue" stroke="midnightblue" points="116.319,-16.5441 105.822,-17.9847 114.926,-23.4042 116.319,-16.5441"/>
</g>
<!-- Node3 -->
<g id="node4" class="node"><title>Node3</title>
<polygon fill="white" stroke="#bfbfbf" points="124,-0.5 124,-19.5 169,-19.5 169,-0.5 124,-0.5"/>
<text text-anchor="middle" x="146.5" y="-7.5" font-family="Helvetica,sans-Serif" font-size="10.00">cstdlib</text>
</g>
<!-- Node0&#45;&gt;Node3 -->
<g id="edge3" class="edge"><title>Node0&#45;&gt;Node3</title>
<path fill="none" stroke="midnightblue" d="M519.457,-73.4886C438.539,-63.9751 304.126,-46.2819 179.259,-19.911"/>
<polygon fill="midnightblue" stroke="midnightblue" points="179.648,-16.4151 169.137,-17.7495 178.186,-23.2607 179.648,-16.4151"/>
</g>
<!-- Node4 -->
<g id="node5" class="node"><title>Node4</title>
<polygon fill="white" stroke="#bfbfbf" points="187.5,-0.5 187.5,-19.5 233.5,-19.5 233.5,-0.5 187.5,-0.5"/>
<text text-anchor="middle" x="210.5" y="-7.5" font-family="Helvetica,sans-Serif" font-size="10.00">cctype</text>
</g>
<!-- Node0&#45;&gt;Node4 -->
<g id="edge4" class="edge"><title>Node0&#45;&gt;Node4</title>
<path fill="none" stroke="midnightblue" d="M519.343,-70.8325C450.459,-60.2904 344.28,-42.7618 243.26,-19.987"/>
<polygon fill="midnightblue" stroke="midnightblue" points="244.029,-16.5725 233.501,-17.7666 242.476,-23.3981 244.029,-16.5725"/>
</g>
<!-- Node5 -->
<g id="node6" class="node"><title>Node5</title>
<polygon fill="white" stroke="#bfbfbf" points="252,-0.5 252,-19.5 299,-19.5 299,-0.5 252,-0.5"/>
<text text-anchor="middle" x="275.5" y="-7.5" font-family="Helvetica,sans-Serif" font-size="10.00">cwchar</text>
</g>
<!-- Node0&#45;&gt;Node5 -->
<g id="edge5" class="edge"><title>Node0&#45;&gt;Node5</title>
<path fill="none" stroke="midnightblue" d="M519.292,-66.9964C463.922,-55.7282 385.824,-39.2 309.062,-20.2871"/>
<polygon fill="midnightblue" stroke="midnightblue" points="309.771,-16.8568 299.222,-17.8475 308.086,-23.6511 309.771,-16.8568"/>
</g>
<!-- Node6 -->
<g id="node7" class="node"><title>Node6</title>
<polygon fill="white" stroke="#bfbfbf" points="317,-0.5 317,-19.5 364,-19.5 364,-0.5 317,-0.5"/>
<text text-anchor="middle" x="340.5" y="-7.5" font-family="Helvetica,sans-Serif" font-size="10.00">csignal</text>
</g>
<!-- Node0&#45;&gt;Node6 -->
<g id="edge6" class="edge"><title>Node0&#45;&gt;Node6</title>
<path fill="none" stroke="midnightblue" d="M519.273,-61.0138C471.321,-47.5986 410.922,-30.7014 374.038,-20.3826"/>
<polygon fill="midnightblue" stroke="midnightblue" points="374.861,-16.9786 364.288,-17.6549 372.975,-23.7197 374.861,-16.9786"/>
</g>
<!-- Node7 -->
<g id="node8" class="node"><title>Node7</title>
<polygon fill="white" stroke="#bfbfbf" points="382.5,-0.5 382.5,-19.5 426.5,-19.5 426.5,-0.5 382.5,-0.5"/>
<text text-anchor="middle" x="404.5" y="-7.5" font-family="Helvetica,sans-Serif" font-size="10.00">cerrno</text>
</g>
<!-- Node0&#45;&gt;Node7 -->
<g id="edge7" class="edge"><title>Node0&#45;&gt;Node7</title>
<path fill="none" stroke="midnightblue" d="M525.689,-56.4458C495.264,-45.0364 460.68,-32.0676 436.267,-22.9126"/>
<polygon fill="midnightblue" stroke="midnightblue" points="437.385,-19.5939 426.793,-19.3598 434.927,-26.1482 437.385,-19.5939"/>
</g>
<!-- Node8 -->
<g id="node9" class="node"><title>Node8</title>
<polygon fill="white" stroke="#bfbfbf" points="445,-0.5 445,-19.5 494,-19.5 494,-0.5 445,-0.5"/>
<text text-anchor="middle" x="469.5" y="-7.5" font-family="Helvetica,sans-Serif" font-size="10.00">cstdarg</text>
</g>
<!-- Node0&#45;&gt;Node8 -->
<g id="edge8" class="edge"><title>Node0&#45;&gt;Node8</title>
<path fill="none" stroke="midnightblue" d="M548.788,-56.4458C530.147,-45.7611 509.12,-33.709 493.406,-24.7021"/>
<polygon fill="midnightblue" stroke="midnightblue" points="494.793,-21.4632 484.377,-19.527 491.312,-27.5364 494.793,-21.4632"/>
</g>
<!-- Node9 -->
<g id="node10" class="node"><title>Node9</title>
<polygon fill="white" stroke="#bfbfbf" points="512,-0.5 512,-19.5 553,-19.5 553,-0.5 512,-0.5"/>
<text text-anchor="middle" x="532.5" y="-7.5" font-family="Helvetica,sans-Serif" font-size="10.00">string</text>
</g>
<!-- Node0&#45;&gt;Node9 -->
<g id="edge9" class="edge"><title>Node0&#45;&gt;Node9</title>
<path fill="none" stroke="midnightblue" d="M571.177,-56.4458C562.992,-46.8285 553.864,-36.1032 546.532,-27.4881"/>
<polygon fill="midnightblue" stroke="midnightblue" points="549.047,-25.0425 539.9,-19.6955 543.716,-29.5793 549.047,-25.0425"/>
</g>
<!-- Node10 -->
<g id="node11" class="node"><title>Node10</title>
<polygon fill="white" stroke="#bfbfbf" points="571.5,-0.5 571.5,-19.5 613.5,-19.5 613.5,-0.5 571.5,-0.5"/>
<text text-anchor="middle" x="592.5" y="-7.5" font-family="Helvetica,sans-Serif" font-size="10.00">vector</text>
</g>
<!-- Node0&#45;&gt;Node10 -->
<g id="edge10" class="edge"><title>Node0&#45;&gt;Node10</title>
<path fill="none" stroke="midnightblue" d="M592.5,-56.4458C592.5,-47.7301 592.5,-38.1045 592.5,-29.9641"/>
<polygon fill="midnightblue" stroke="midnightblue" points="596,-29.6954 592.5,-19.6955 589,-29.6955 596,-29.6954"/>
</g>
<!-- Node11 -->
<g id="node12" class="node"><title>Node11</title>
<polygon fill="white" stroke="#bfbfbf" points="632,-0.5 632,-19.5 667,-19.5 667,-0.5 632,-0.5"/>
<text text-anchor="middle" x="649.5" y="-7.5" font-family="Helvetica,sans-Serif" font-size="10.00">map</text>
</g>
<!-- Node0&#45;&gt;Node11 -->
<g id="edge11" class="edge"><title>Node0&#45;&gt;Node11</title>
<path fill="none" stroke="midnightblue" d="M612.757,-56.4458C620.532,-46.8285 629.204,-36.1032 636.169,-27.4881"/>
<polygon fill="midnightblue" stroke="midnightblue" points="638.904,-29.6723 642.47,-19.6955 633.461,-25.2713 638.904,-29.6723"/>
</g>
<!-- Node12 -->
<g id="node13" class="node"><title>Node12</title>
<polygon fill="white" stroke="#bfbfbf" points="685.5,-0.5 685.5,-19.5 725.5,-19.5 725.5,-0.5 685.5,-0.5"/>
<text text-anchor="middle" x="705.5" y="-7.5" font-family="Helvetica,sans-Serif" font-size="10.00">utility</text>
</g>
<!-- Node0&#45;&gt;Node12 -->
<g id="edge12" class="edge"><title>Node0&#45;&gt;Node12</title>
<path fill="none" stroke="midnightblue" d="M632.658,-56.4458C649.622,-45.8619 668.737,-33.9362 683.128,-24.9578"/>
<polygon fill="midnightblue" stroke="midnightblue" points="685.201,-27.7897 691.833,-19.527 681.496,-21.8508 685.201,-27.7897"/>
</g>
<!-- Node13 -->
<g id="node14" class="node"><title>Node13</title>
<polygon fill="white" stroke="#bfbfbf" points="743.5,-0.5 743.5,-19.5 801.5,-19.5 801.5,-0.5 743.5,-0.5"/>
<text text-anchor="middle" x="772.5" y="-7.5" font-family="Helvetica,sans-Serif" font-size="10.00">functional</text>
</g>
<!-- Node0&#45;&gt;Node13 -->
<g id="edge13" class="edge"><title>Node0&#45;&gt;Node13</title>
<path fill="none" stroke="midnightblue" d="M656.468,-56.4458C685.292,-45.1563 718.014,-32.3402 741.344,-23.2027"/>
<polygon fill="midnightblue" stroke="midnightblue" points="742.694,-26.4329 750.729,-19.527 740.141,-19.915 742.694,-26.4329"/>
</g>
<!-- Node14 -->
<g id="node15" class="node"><title>Node14</title>
<polygon fill="white" stroke="#bfbfbf" points="819.5,-0.5 819.5,-19.5 875.5,-19.5 875.5,-0.5 819.5,-0.5"/>
<text text-anchor="middle" x="847.5" y="-7.5" font-family="Helvetica,sans-Serif" font-size="10.00">algorithm</text>
</g>
<!-- Node0&#45;&gt;Node14 -->
<g id="edge14" class="edge"><title>Node0&#45;&gt;Node14</title>
<path fill="none" stroke="midnightblue" d="M665.573,-61.2975C712.387,-48.3547 771.253,-32.0799 809.127,-21.6091"/>
<polygon fill="midnightblue" stroke="midnightblue" points="810.519,-24.8555 819.225,-18.8173 808.654,-18.1086 810.519,-24.8555"/>
</g>
<!-- Node15 -->
<g id="node16" class="node"><title>Node15</title>
<polygon fill="white" stroke="#bfbfbf" points="894,-0.5 894,-19.5 943,-19.5 943,-0.5 894,-0.5"/>
<text text-anchor="middle" x="918.5" y="-7.5" font-family="Helvetica,sans-Serif" font-size="10.00">fstream</text>
</g>
<!-- Node0&#45;&gt;Node15 -->
<g id="edge15" class="edge"><title>Node0&#45;&gt;Node15</title>
<path fill="none" stroke="midnightblue" d="M665.631,-67.1774C722.521,-55.7865 803.644,-39.0008 883.876,-20.0547"/>
<polygon fill="midnightblue" stroke="midnightblue" points="884.733,-23.4486 893.655,-17.7337 883.117,-16.6379 884.733,-23.4486"/>
</g>
<!-- Node16 -->
<g id="node17" class="node"><title>Node16</title>
<polygon fill="white" stroke="#bfbfbf" points="961.5,-0.5 961.5,-19.5 1015.5,-19.5 1015.5,-0.5 961.5,-0.5"/>
<text text-anchor="middle" x="988.5" y="-7.5" font-family="Helvetica,sans-Serif" font-size="10.00">iostream</text>
</g>
<!-- Node0&#45;&gt;Node16 -->
<g id="edge16" class="edge"><title>Node0&#45;&gt;Node16</title>
<path fill="none" stroke="midnightblue" d="M665.55,-70.6833C736.291,-59.8302 846.749,-41.8885 951.62,-20.0584"/>
<polygon fill="midnightblue" stroke="midnightblue" points="952.355,-23.4804 961.424,-18.0026 950.919,-16.6294 952.355,-23.4804"/>
</g>
<!-- Node17 -->
<g id="node18" class="node"><title>Node17</title>
<polygon fill="white" stroke="#bfbfbf" points="1033.5,-0.5 1033.5,-19.5 1085.5,-19.5 1085.5,-0.5 1033.5,-0.5"/>
<text text-anchor="middle" x="1059.5" y="-7.5" font-family="Helvetica,sans-Serif" font-size="10.00">sstream</text>
</g>
<!-- Node0&#45;&gt;Node17 -->
<g id="edge17" class="edge"><title>Node0&#45;&gt;Node17</title>
<path fill="none" stroke="midnightblue" d="M665.529,-73.594C749.659,-63.9265 892.141,-45.8388 1023.37,-20.0458"/>
<polygon fill="midnightblue" stroke="midnightblue" points="1024.07,-23.4747 1033.2,-18.0949 1022.71,-16.6086 1024.07,-23.4747"/>
</g>
<!-- Node18 -->
<g id="node19" class="node"><title>Node18</title>
<polygon fill="white" stroke="#bfbfbf" points="1103.5,-0.5 1103.5,-19.5 1155.5,-19.5 1155.5,-0.5 1103.5,-0.5"/>
<text text-anchor="middle" x="1129.5" y="-7.5" font-family="Helvetica,sans-Serif" font-size="10.00">memory</text>
</g>
<!-- Node0&#45;&gt;Node18 -->
<g id="edge18" class="edge"><title>Node0&#45;&gt;Node18</title>
<path fill="none" stroke="midnightblue" d="M665.7,-75.5331C761.845,-67.0272 935.974,-49.3222 1093.35,-20.0073"/>
<polygon fill="midnightblue" stroke="midnightblue" points="1094.03,-23.4404 1103.21,-18.1507 1092.73,-16.5613 1094.03,-23.4404"/>
</g>
<!-- Node19 -->
<g id="node20" class="node"><title>Node19</title>
<polygon fill="white" stroke="#bfbfbf" points="1173.5,-0.5 1173.5,-19.5 1235.5,-19.5 1235.5,-0.5 1173.5,-0.5"/>
<text text-anchor="middle" x="1204.5" y="-7.5" font-family="Helvetica,sans-Serif" font-size="10.00">type_traits</text>
</g>
<!-- Node0&#45;&gt;Node19 -->
<g id="edge19" class="edge"><title>Node0&#45;&gt;Node19</title>
<path fill="none" stroke="midnightblue" d="M665.548,-76.3322C772.729,-68.1545 978.987,-50.1588 1163.25,-20.0436"/>
<polygon fill="midnightblue" stroke="midnightblue" points="1163.83,-23.4966 1173.12,-18.4154 1162.69,-16.5899 1163.83,-23.4966"/>
</g>
</g>
</svg>
