<?xml version="1.0" encoding="UTF-8" standalone="no"?>
<!DOCTYPE svg PUBLIC "-//W3C//DTD SVG 1.1//EN"
 "http://www.w3.org/Graphics/SVG/1.1/DTD/svg11.dtd">
<!-- Generated by graphviz version 2.38.0 (20140413.2041)
 -->
<!-- Title: C:/Users/kjones/Documents/SoftwareDev/VulpesSceneKit/third_party/vulpesrender/include/alloc/AllocationCollection.hpp Pages: 1 -->
<svg width="1879pt" height="239pt"
 viewBox="0.00 0.00 1878.50 239.00" xmlns="http://www.w3.org/2000/svg" xmlns:xlink="http://www.w3.org/1999/xlink">
<g id="graph0" class="graph" transform="scale(1 1) rotate(0) translate(4 235)">
<title>C:/Users/kjones/Documents/SoftwareDev/VulpesSceneKit/third_party/vulpesrender/include/alloc/AllocationCollection.hpp</title>
<polygon fill="white" stroke="none" points="-4,4 -4,-235 1874.5,-235 1874.5,4 -4,4"/>
<!-- Node3 -->
<g id="node1" class="node"><title>Node3</title>
<polygon fill="#bfbfbf" stroke="black" points="793,-178.5 793,-230.5 974,-230.5 974,-178.5 793,-178.5"/>
<text text-anchor="start" x="801" y="-218.5" font-family="Helvetica,sans-Serif" font-size="10.00">C:/Users/kjones/Documents</text>
<text text-anchor="start" x="801" y="-207.5" font-family="Helvetica,sans-Serif" font-size="10.00">/SoftwareDev/VulpesSceneKit</text>
<text text-anchor="start" x="801" y="-196.5" font-family="Helvetica,sans-Serif" font-size="10.00">/third_party/vulpesrender</text>
<text text-anchor="middle" x="883.5" y="-185.5" font-family="Helvetica,sans-Serif" font-size="10.00">/include/alloc/AllocationCollection.hpp</text>
</g>
<!-- Node4 -->
<g id="node2" class="node"><title>Node4</title>
<g id="a_node2"><a xlink:href="child_2src_2alloc_2_allocation_collection_8cpp.html" target="_top" xlink:title="src/alloc/AllocationCollection.cpp">
<polygon fill="white" stroke="black" points="0,-17 0,-36 161,-36 161,-17 0,-17"/>
<text text-anchor="middle" x="80.5" y="-24" font-family="Helvetica,sans-Serif" font-size="10.00">src/alloc/AllocationCollection.cpp</text>
</a>
</g>
</g>
<!-- Node3&#45;&gt;Node4 -->
<g id="edge1" class="edge"><title>Node3&#45;&gt;Node4</title>
<path fill="none" stroke="midnightblue" d="M782.668,-184.599C643.913,-158.054 386.603,-106.91 169.5,-53 148.909,-47.8869 125.89,-41.267 108.422,-36.0536"/>
<polygon fill="midnightblue" stroke="midnightblue" points="782.381,-188.107 792.86,-186.545 783.694,-181.231 782.381,-188.107"/>
</g>
<!-- Node5 -->
<g id="node3" class="node"><title>Node5</title>
<g id="a_node3"><a xlink:href="include_2alloc_2_allocator_8hpp.html" target="_top" xlink:title="C:/Users/kjones/Documents\l/SoftwareDev/VulpesSceneKit\l/third_party/vulpesrender\l/include/alloc/Allocator.hpp">
<polygon fill="white" stroke="black" points="810.5,-89.5 810.5,-141.5 956.5,-141.5 956.5,-89.5 810.5,-89.5"/>
<text text-anchor="start" x="818.5" y="-129.5" font-family="Helvetica,sans-Serif" font-size="10.00">C:/Users/kjones/Documents</text>
<text text-anchor="start" x="818.5" y="-118.5" font-family="Helvetica,sans-Serif" font-size="10.00">/SoftwareDev/VulpesSceneKit</text>
<text text-anchor="start" x="818.5" y="-107.5" font-family="Helvetica,sans-Serif" font-size="10.00">/third_party/vulpesrender</text>
<text text-anchor="middle" x="883.5" y="-96.5" font-family="Helvetica,sans-Serif" font-size="10.00">/include/alloc/Allocator.hpp</text>
</a>
</g>
</g>
<!-- Node3&#45;&gt;Node5 -->
<g id="edge2" class="edge"><title>Node3&#45;&gt;Node5</title>
<path fill="none" stroke="midnightblue" d="M883.5,-168.191C883.5,-159.282 883.5,-149.899 883.5,-141.607"/>
<polygon fill="midnightblue" stroke="midnightblue" points="880,-168.336 883.5,-178.336 887,-168.336 880,-168.336"/>
</g>
<!-- Node11 -->
<g id="node9" class="node"><title>Node11</title>
<g id="a_node9"><a xlink:href="src_2alloc_2_allocation_collection_8cpp.html" target="_top" xlink:title="C:/Users/kjones/Documents\l/SoftwareDev/VulpesSceneKit\l/third_party/vulpesrender\l/src/alloc/AllocationCollection.cpp">
<polygon fill="white" stroke="black" points="1706.5,-0.5 1706.5,-52.5 1870.5,-52.5 1870.5,-0.5 1706.5,-0.5"/>
<text text-anchor="start" x="1714.5" y="-40.5" font-family="Helvetica,sans-Serif" font-size="10.00">C:/Users/kjones/Documents</text>
<text text-anchor="start" x="1714.5" y="-29.5" font-family="Helvetica,sans-Serif" font-size="10.00">/SoftwareDev/VulpesSceneKit</text>
<text text-anchor="start" x="1714.5" y="-18.5" font-family="Helvetica,sans-Serif" font-size="10.00">/third_party/vulpesrender</text>
<text text-anchor="middle" x="1788.5" y="-7.5" font-family="Helvetica,sans-Serif" font-size="10.00">/src/alloc/AllocationCollection.cpp</text>
</a>
</g>
</g>
<!-- Node3&#45;&gt;Node11 -->
<g id="edge15" class="edge"><title>Node3&#45;&gt;Node11</title>
<path fill="none" stroke="midnightblue" d="M984.035,-187.916C1138.36,-163.32 1442.53,-112.166 1697.5,-53 1700.38,-52.3324 1703.3,-51.6326 1706.25,-50.9085"/>
<polygon fill="midnightblue" stroke="midnightblue" points="983.416,-184.471 974.089,-189.498 984.515,-191.384 983.416,-184.471"/>
</g>
<!-- Node5&#45;&gt;Node4 -->
<g id="edge3" class="edge"><title>Node5&#45;&gt;Node4</title>
<path fill="none" stroke="midnightblue" d="M799.925,-109.336C638.309,-99.015 288.4,-74.9412 169.5,-53 147.529,-48.9456 123.179,-41.7763 105.51,-36.0699"/>
<polygon fill="midnightblue" stroke="midnightblue" points="800.091,-112.854 810.293,-109.996 800.536,-105.868 800.091,-112.854"/>
</g>
<!-- Node6 -->
<g id="node4" class="node"><title>Node6</title>
<g id="a_node4"><a xlink:href="child_2src_2alloc_2_allocator_8cpp.html" target="_top" xlink:title="src/alloc/Allocator.cpp">
<polygon fill="white" stroke="black" points="179,-17 179,-36 292,-36 292,-17 179,-17"/>
<text text-anchor="middle" x="235.5" y="-24" font-family="Helvetica,sans-Serif" font-size="10.00">src/alloc/Allocator.cpp</text>
</a>
</g>
</g>
<!-- Node5&#45;&gt;Node6 -->
<g id="edge4" class="edge"><title>Node5&#45;&gt;Node6</title>
<path fill="none" stroke="midnightblue" d="M800.092,-112.713C685.835,-108.687 474.936,-95.591 300.5,-53 284.131,-49.0033 266.375,-41.829 253.564,-36.106"/>
<polygon fill="midnightblue" stroke="midnightblue" points="800.057,-116.214 810.169,-113.053 800.293,-109.218 800.057,-116.214"/>
</g>
<!-- Node7 -->
<g id="node5" class="node"><title>Node7</title>
<g id="a_node5"><a xlink:href="child_2src_2alloc_2_memory_block_8cpp.html" target="_top" xlink:title="src/alloc/MemoryBlock.cpp">
<polygon fill="white" stroke="black" points="310,-17 310,-36 445,-36 445,-17 310,-17"/>
<text text-anchor="middle" x="377.5" y="-24" font-family="Helvetica,sans-Serif" font-size="10.00">src/alloc/MemoryBlock.cpp</text>
</a>
</g>
</g>
<!-- Node5&#45;&gt;Node7 -->
<g id="edge5" class="edge"><title>Node5&#45;&gt;Node7</title>
<path fill="none" stroke="midnightblue" d="M800.363,-107.132C713.133,-98.3512 572.431,-81.2098 453.5,-53 434.948,-48.5995 414.487,-41.606 399.473,-36.0549"/>
<polygon fill="midnightblue" stroke="midnightblue" points="800.171,-110.63 810.468,-108.136 800.863,-103.664 800.171,-110.63"/>
</g>
<!-- Node8 -->
<g id="node6" class="node"><title>Node8</title>
<g id="a_node6"><a xlink:href="child_2src_2core_2_logical_device_8cpp.html" target="_top" xlink:title="src/core/LogicalDevice.cpp">
<polygon fill="white" stroke="black" points="463,-17 463,-36 596,-36 596,-17 463,-17"/>
<text text-anchor="middle" x="529.5" y="-24" font-family="Helvetica,sans-Serif" font-size="10.00">src/core/LogicalDevice.cpp</text>
</a>
</g>
</g>
<!-- Node5&#45;&gt;Node8 -->
<g id="edge6" class="edge"><title>Node5&#45;&gt;Node8</title>
<path fill="none" stroke="midnightblue" d="M800.565,-98.7264C744.756,-87.4998 669.733,-71.219 604.5,-53 586.883,-48.0797 567.328,-41.3892 552.603,-36.0958"/>
<polygon fill="midnightblue" stroke="midnightblue" points="799.911,-102.165 810.403,-100.693 801.284,-95.3007 799.911,-102.165"/>
</g>
<!-- Node9 -->
<g id="node7" class="node"><title>Node9</title>
<g id="a_node7"><a xlink:href="child_2src_2resource_2_buffer_8cpp.html" target="_top" xlink:title="src/resource/Buffer.cpp">
<polygon fill="white" stroke="black" points="614,-17 614,-36 731,-36 731,-17 614,-17"/>
<text text-anchor="middle" x="672.5" y="-24" font-family="Helvetica,sans-Serif" font-size="10.00">src/resource/Buffer.cpp</text>
</a>
</g>
</g>
<!-- Node5&#45;&gt;Node9 -->
<g id="edge7" class="edge"><title>Node5&#45;&gt;Node9</title>
<path fill="none" stroke="midnightblue" d="M813.387,-85.591C771.41,-68.2828 720.979,-47.489 693.273,-36.0653"/>
<polygon fill="midnightblue" stroke="midnightblue" points="812.174,-88.8765 822.753,-89.4527 814.842,-82.405 812.174,-88.8765"/>
</g>
<!-- Node10 -->
<g id="node8" class="node"><title>Node10</title>
<g id="a_node8"><a xlink:href="child_2src_2resource_2_image_8cpp.html" target="_top" xlink:title="src/resource/Image.cpp">
<polygon fill="white" stroke="black" points="749,-17 749,-36 868,-36 868,-17 749,-17"/>
<text text-anchor="middle" x="808.5" y="-24" font-family="Helvetica,sans-Serif" font-size="10.00">src/resource/Image.cpp</text>
</a>
</g>
</g>
<!-- Node5&#45;&gt;Node10 -->
<g id="edge8" class="edge"><title>Node5&#45;&gt;Node10</title>
<path fill="none" stroke="midnightblue" d="M855.089,-81.5428C841.03,-65.2349 825.158,-46.8234 816.041,-36.2478"/>
<polygon fill="midnightblue" stroke="midnightblue" points="852.627,-84.0472 861.807,-89.336 857.928,-79.4766 852.627,-84.0472"/>
</g>
<!-- Node5&#45;&gt;Node11 -->
<g id="edge9" class="edge"><title>Node5&#45;&gt;Node11</title>
<path fill="none" stroke="midnightblue" d="M966.896,-110.298C1145.27,-100.968 1558.87,-77.4122 1697.5,-53 1700.41,-52.4878 1703.36,-51.9216 1706.33,-51.3114"/>
<polygon fill="midnightblue" stroke="midnightblue" points="966.582,-106.81 956.778,-110.825 966.946,-113.8 966.582,-106.81"/>
</g>
<!-- Node12 -->
<g id="node10" class="node"><title>Node12</title>
<g id="a_node10"><a xlink:href="src_2alloc_2_allocator_8cpp.html" target="_top" xlink:title="C:/Users/kjones/Documents\l/SoftwareDev/VulpesSceneKit\l/third_party/vulpesrender\l/src/alloc/Allocator.cpp">
<polygon fill="white" stroke="black" points="886.5,-0.5 886.5,-52.5 1032.5,-52.5 1032.5,-0.5 886.5,-0.5"/>
<text text-anchor="start" x="894.5" y="-40.5" font-family="Helvetica,sans-Serif" font-size="10.00">C:/Users/kjones/Documents</text>
<text text-anchor="start" x="894.5" y="-29.5" font-family="Helvetica,sans-Serif" font-size="10.00">/SoftwareDev/VulpesSceneKit</text>
<text text-anchor="start" x="894.5" y="-18.5" font-family="Helvetica,sans-Serif" font-size="10.00">/third_party/vulpesrender</text>
<text text-anchor="middle" x="959.5" y="-7.5" font-family="Helvetica,sans-Serif" font-size="10.00">/src/alloc/Allocator.cpp</text>
</a>
</g>
</g>
<!-- Node5&#45;&gt;Node12 -->
<g id="edge10" class="edge"><title>Node5&#45;&gt;Node12</title>
<path fill="none" stroke="midnightblue" d="M912.074,-81.79C920.514,-72.1288 929.616,-61.7097 937.567,-52.6075"/>
<polygon fill="midnightblue" stroke="midnightblue" points="909.425,-79.5022 905.482,-89.336 914.697,-84.1075 909.425,-79.5022"/>
</g>
<!-- Node13 -->
<g id="node11" class="node"><title>Node13</title>
<g id="a_node11"><a xlink:href="src_2alloc_2_memory_block_8cpp.html" target="_top" xlink:title="C:/Users/kjones/Documents\l/SoftwareDev/VulpesSceneKit\l/third_party/vulpesrender\l/src/alloc/MemoryBlock.cpp">
<polygon fill="white" stroke="black" points="1050.5,-0.5 1050.5,-52.5 1196.5,-52.5 1196.5,-0.5 1050.5,-0.5"/>
<text text-anchor="start" x="1058.5" y="-40.5" font-family="Helvetica,sans-Serif" font-size="10.00">C:/Users/kjones/Documents</text>
<text text-anchor="start" x="1058.5" y="-29.5" font-family="Helvetica,sans-Serif" font-size="10.00">/SoftwareDev/VulpesSceneKit</text>
<text text-anchor="start" x="1058.5" y="-18.5" font-family="Helvetica,sans-Serif" font-size="10.00">/third_party/vulpesrender</text>
<text text-anchor="middle" x="1123.5" y="-7.5" font-family="Helvetica,sans-Serif" font-size="10.00">/src/alloc/MemoryBlock.cpp</text>
</a>
</g>
</g>
<!-- Node5&#45;&gt;Node13 -->
<g id="edge11" class="edge"><title>Node5&#45;&gt;Node13</title>
<path fill="none" stroke="midnightblue" d="M962.126,-85.9981C991.933,-75.1932 1025.62,-62.9816 1054.48,-52.5211"/>
<polygon fill="midnightblue" stroke="midnightblue" points="960.805,-82.7542 952.596,-89.4527 963.19,-89.3351 960.805,-82.7542"/>
</g>
<!-- Node14 -->
<g id="node12" class="node"><title>Node14</title>
<g id="a_node12"><a xlink:href="src_2core_2_logical_device_8cpp.html" target="_top" xlink:title="C:/Users/kjones/Documents\l/SoftwareDev/VulpesSceneKit\l/third_party/vulpesrender\l/src/core/LogicalDevice.cpp">
<polygon fill="white" stroke="black" points="1214.5,-0.5 1214.5,-52.5 1360.5,-52.5 1360.5,-0.5 1214.5,-0.5"/>
<text text-anchor="start" x="1222.5" y="-40.5" font-family="Helvetica,sans-Serif" font-size="10.00">C:/Users/kjones/Documents</text>
<text text-anchor="start" x="1222.5" y="-29.5" font-family="Helvetica,sans-Serif" font-size="10.00">/SoftwareDev/VulpesSceneKit</text>
<text text-anchor="start" x="1222.5" y="-18.5" font-family="Helvetica,sans-Serif" font-size="10.00">/third_party/vulpesrender</text>
<text text-anchor="middle" x="1287.5" y="-7.5" font-family="Helvetica,sans-Serif" font-size="10.00">/src/core/LogicalDevice.cpp</text>
</a>
</g>
</g>
<!-- Node5&#45;&gt;Node14 -->
<g id="edge12" class="edge"><title>Node5&#45;&gt;Node14</title>
<path fill="none" stroke="midnightblue" d="M966.83,-101.241C1032.17,-90.2061 1125.18,-73.09 1205.5,-53 1208.39,-52.2765 1211.33,-51.5103 1214.3,-50.7127"/>
<polygon fill="midnightblue" stroke="midnightblue" points="965.869,-97.8533 956.586,-102.96 967.027,-104.757 965.869,-97.8533"/>
</g>
<!-- Node15 -->
<g id="node13" class="node"><title>Node15</title>
<g id="a_node13"><a xlink:href="src_2resource_2_buffer_8cpp.html" target="_top" xlink:title="C:/Users/kjones/Documents\l/SoftwareDev/VulpesSceneKit\l/third_party/vulpesrender\l/src/resource/Buffer.cpp">
<polygon fill="white" stroke="black" points="1378.5,-0.5 1378.5,-52.5 1524.5,-52.5 1524.5,-0.5 1378.5,-0.5"/>
<text text-anchor="start" x="1386.5" y="-40.5" font-family="Helvetica,sans-Serif" font-size="10.00">C:/Users/kjones/Documents</text>
<text text-anchor="start" x="1386.5" y="-29.5" font-family="Helvetica,sans-Serif" font-size="10.00">/SoftwareDev/VulpesSceneKit</text>
<text text-anchor="start" x="1386.5" y="-18.5" font-family="Helvetica,sans-Serif" font-size="10.00">/third_party/vulpesrender</text>
<text text-anchor="middle" x="1451.5" y="-7.5" font-family="Helvetica,sans-Serif" font-size="10.00">/src/resource/Buffer.cpp</text>
</a>
</g>
</g>
<!-- Node5&#45;&gt;Node15 -->
<g id="edge13" class="edge"><title>Node5&#45;&gt;Node15</title>
<path fill="none" stroke="midnightblue" d="M966.712,-108.443C1064.1,-100.327 1229.83,-83.3091 1369.5,-53 1372.41,-52.3677 1375.37,-51.6785 1378.35,-50.9453"/>
<polygon fill="midnightblue" stroke="midnightblue" points="966.313,-104.964 956.634,-109.272 966.887,-111.941 966.313,-104.964"/>
</g>
<!-- Node16 -->
<g id="node14" class="node"><title>Node16</title>
<g id="a_node14"><a xlink:href="src_2resource_2_image_8cpp.html" target="_top" xlink:title="C:/Users/kjones/Documents\l/SoftwareDev/VulpesSceneKit\l/third_party/vulpesrender\l/src/resource/Image.cpp">
<polygon fill="white" stroke="black" points="1542.5,-0.5 1542.5,-52.5 1688.5,-52.5 1688.5,-0.5 1542.5,-0.5"/>
<text text-anchor="start" x="1550.5" y="-40.5" font-family="Helvetica,sans-Serif" font-size="10.00">C:/Users/kjones/Documents</text>
<text text-anchor="start" x="1550.5" y="-29.5" font-family="Helvetica,sans-Serif" font-size="10.00">/SoftwareDev/VulpesSceneKit</text>
<text text-anchor="start" x="1550.5" y="-18.5" font-family="Helvetica,sans-Serif" font-size="10.00">/third_party/vulpesrender</text>
<text text-anchor="middle" x="1615.5" y="-7.5" font-family="Helvetica,sans-Serif" font-size="10.00">/src/resource/Image.cpp</text>
</a>
</g>
</g>
<!-- Node5&#45;&gt;Node16 -->
<g id="edge14" class="edge"><title>Node5&#45;&gt;Node16</title>
<path fill="none" stroke="midnightblue" d="M967.062,-112.119C1091.58,-107.329 1332.71,-93.2675 1533.5,-53 1536.42,-52.4137 1539.39,-51.7634 1542.38,-51.0626"/>
<polygon fill="midnightblue" stroke="midnightblue" points="966.703,-108.629 956.841,-112.501 966.965,-115.625 966.703,-108.629"/>
</g>
</g>
</svg>
