<?xml version="1.0" encoding="UTF-8" standalone="no"?>
<!DOCTYPE svg PUBLIC "-//W3C//DTD SVG 1.1//EN"
 "http://www.w3.org/Graphics/SVG/1.1/DTD/svg11.dtd">
<!-- Generated by graphviz version 2.38.0 (20140413.2041)
 -->
<!-- Title: C:/Users/kjones/Documents/SoftwareDev/VulpesSceneKit/third_party/vulpesrender/include/alloc/AllocCommon.hpp Pages: 1 -->
<svg width="2180pt" height="328pt"
 viewBox="0.00 0.00 2180.00 328.00" xmlns="http://www.w3.org/2000/svg" xmlns:xlink="http://www.w3.org/1999/xlink">
<g id="graph0" class="graph" transform="scale(1 1) rotate(0) translate(4 324)">
<title>C:/Users/kjones/Documents/SoftwareDev/VulpesSceneKit/third_party/vulpesrender/include/alloc/AllocCommon.hpp</title>
<polygon fill="white" stroke="none" points="-4,4 -4,-324 2176,-324 2176,4 -4,4"/>
<!-- Node3 -->
<g id="node1" class="node"><title>Node3</title>
<polygon fill="#bfbfbf" stroke="black" points="705,-267.5 705,-319.5 861,-319.5 861,-267.5 705,-267.5"/>
<text text-anchor="start" x="713" y="-307.5" font-family="Helvetica,sans-Serif" font-size="10.00">C:/Users/kjones/Documents</text>
<text text-anchor="start" x="713" y="-296.5" font-family="Helvetica,sans-Serif" font-size="10.00">/SoftwareDev/VulpesSceneKit</text>
<text text-anchor="start" x="713" y="-285.5" font-family="Helvetica,sans-Serif" font-size="10.00">/third_party/vulpesrender</text>
<text text-anchor="middle" x="783" y="-274.5" font-family="Helvetica,sans-Serif" font-size="10.00">/include/alloc/AllocCommon.hpp</text>
</g>
<!-- Node4 -->
<g id="node2" class="node"><title>Node4</title>
<g id="a_node2"><a xlink:href="include_2alloc_2_allocator_8hpp.html" target="_top" xlink:title="C:/Users/kjones/Documents\l/SoftwareDev/VulpesSceneKit\l/third_party/vulpesrender\l/include/alloc/Allocator.hpp">
<polygon fill="white" stroke="black" points="1110,-89.5 1110,-141.5 1256,-141.5 1256,-89.5 1110,-89.5"/>
<text text-anchor="start" x="1118" y="-129.5" font-family="Helvetica,sans-Serif" font-size="10.00">C:/Users/kjones/Documents</text>
<text text-anchor="start" x="1118" y="-118.5" font-family="Helvetica,sans-Serif" font-size="10.00">/SoftwareDev/VulpesSceneKit</text>
<text text-anchor="start" x="1118" y="-107.5" font-family="Helvetica,sans-Serif" font-size="10.00">/third_party/vulpesrender</text>
<text text-anchor="middle" x="1183" y="-96.5" font-family="Helvetica,sans-Serif" font-size="10.00">/include/alloc/Allocator.hpp</text>
</a>
</g>
</g>
<!-- Node3&#45;&gt;Node4 -->
<g id="edge1" class="edge"><title>Node3&#45;&gt;Node4</title>
<path fill="none" stroke="midnightblue" d="M849.054,-263.436C926.294,-229.45 1052.86,-173.76 1125.99,-141.586"/>
<polygon fill="midnightblue" stroke="midnightblue" points="847.629,-260.239 839.885,-267.47 850.448,-266.647 847.629,-260.239"/>
</g>
<!-- Node17 -->
<g id="node15" class="node"><title>Node17</title>
<g id="a_node15"><a xlink:href="include_2alloc_2_memory_block_8hpp.html" target="_top" xlink:title="C:/Users/kjones/Documents\l/SoftwareDev/VulpesSceneKit\l/third_party/vulpesrender\l/include/alloc/MemoryBlock.hpp">
<polygon fill="white" stroke="black" points="600.5,-89.5 600.5,-141.5 755.5,-141.5 755.5,-89.5 600.5,-89.5"/>
<text text-anchor="start" x="608.5" y="-129.5" font-family="Helvetica,sans-Serif" font-size="10.00">C:/Users/kjones/Documents</text>
<text text-anchor="start" x="608.5" y="-118.5" font-family="Helvetica,sans-Serif" font-size="10.00">/SoftwareDev/VulpesSceneKit</text>
<text text-anchor="start" x="608.5" y="-107.5" font-family="Helvetica,sans-Serif" font-size="10.00">/third_party/vulpesrender</text>
<text text-anchor="middle" x="678" y="-96.5" font-family="Helvetica,sans-Serif" font-size="10.00">/include/alloc/MemoryBlock.hpp</text>
</a>
</g>
</g>
<!-- Node3&#45;&gt;Node17 -->
<g id="edge14" class="edge"><title>Node3&#45;&gt;Node17</title>
<path fill="none" stroke="midnightblue" d="M783.994,-257.251C783.109,-233.259 778.759,-201.687 764,-178 754.876,-163.356 740.857,-151.174 726.768,-141.621"/>
<polygon fill="midnightblue" stroke="midnightblue" points="780.496,-257.42 784.181,-267.353 787.495,-257.29 780.496,-257.42"/>
</g>
<!-- Node20 -->
<g id="node18" class="node"><title>Node20</title>
<g id="a_node18"><a xlink:href="include_2alloc_2_suballocation_8hpp.html" target="_top" xlink:title="C:/Users/kjones/Documents\l/SoftwareDev/VulpesSceneKit\l/third_party/vulpesrender\l/include/alloc/Suballocation.hpp">
<polygon fill="white" stroke="black" points="601,-178.5 601,-230.5 755,-230.5 755,-178.5 601,-178.5"/>
<text text-anchor="start" x="609" y="-218.5" font-family="Helvetica,sans-Serif" font-size="10.00">C:/Users/kjones/Documents</text>
<text text-anchor="start" x="609" y="-207.5" font-family="Helvetica,sans-Serif" font-size="10.00">/SoftwareDev/VulpesSceneKit</text>
<text text-anchor="start" x="609" y="-196.5" font-family="Helvetica,sans-Serif" font-size="10.00">/third_party/vulpesrender</text>
<text text-anchor="middle" x="678" y="-185.5" font-family="Helvetica,sans-Serif" font-size="10.00">/include/alloc/Suballocation.hpp</text>
</a>
</g>
</g>
<!-- Node3&#45;&gt;Node20 -->
<g id="edge23" class="edge"><title>Node3&#45;&gt;Node20</title>
<path fill="none" stroke="midnightblue" d="M744.903,-260.934C732.861,-250.956 719.723,-240.07 708.302,-230.607"/>
<polygon fill="midnightblue" stroke="midnightblue" points="742.696,-263.651 752.63,-267.336 747.162,-258.261 742.696,-263.651"/>
</g>
<!-- Node5 -->
<g id="node3" class="node"><title>Node5</title>
<g id="a_node3"><a xlink:href="child_2src_2alloc_2_allocation_collection_8cpp.html" target="_top" xlink:title="src/alloc/AllocationCollection.cpp">
<polygon fill="white" stroke="black" points="300.5,-17 300.5,-36 461.5,-36 461.5,-17 300.5,-17"/>
<text text-anchor="middle" x="381" y="-24" font-family="Helvetica,sans-Serif" font-size="10.00">src/alloc/AllocationCollection.cpp</text>
</a>
</g>
</g>
<!-- Node4&#45;&gt;Node5 -->
<g id="edge2" class="edge"><title>Node4&#45;&gt;Node5</title>
<path fill="none" stroke="midnightblue" d="M1099.54,-109.332C938.152,-99.0037 588.733,-74.9178 470,-53 448.03,-48.9443 423.679,-41.7751 406.01,-36.0691"/>
<polygon fill="midnightblue" stroke="midnightblue" points="1099.69,-112.849 1109.9,-109.993 1100.14,-105.863 1099.69,-112.849"/>
</g>
<!-- Node6 -->
<g id="node4" class="node"><title>Node6</title>
<g id="a_node4"><a xlink:href="child_2src_2alloc_2_allocator_8cpp.html" target="_top" xlink:title="src/alloc/Allocator.cpp">
<polygon fill="white" stroke="black" points="479.5,-17 479.5,-36 592.5,-36 592.5,-17 479.5,-17"/>
<text text-anchor="middle" x="536" y="-24" font-family="Helvetica,sans-Serif" font-size="10.00">src/alloc/Allocator.cpp</text>
</a>
</g>
</g>
<!-- Node4&#45;&gt;Node6 -->
<g id="edge3" class="edge"><title>Node4&#45;&gt;Node6</title>
<path fill="none" stroke="midnightblue" d="M1099.73,-112.697C985.673,-108.652 775.136,-95.5344 601,-53 584.632,-49.0019 566.875,-41.8277 554.064,-36.1051"/>
<polygon fill="midnightblue" stroke="midnightblue" points="1099.68,-116.197 1109.79,-113.039 1099.92,-109.201 1099.68,-116.197"/>
</g>
<!-- Node7 -->
<g id="node5" class="node"><title>Node7</title>
<g id="a_node5"><a xlink:href="child_2src_2alloc_2_memory_block_8cpp.html" target="_top" xlink:title="src/alloc/MemoryBlock.cpp">
<polygon fill="white" stroke="black" points="610.5,-17 610.5,-36 745.5,-36 745.5,-17 610.5,-17"/>
<text text-anchor="middle" x="678" y="-24" font-family="Helvetica,sans-Serif" font-size="10.00">src/alloc/MemoryBlock.cpp</text>
</a>
</g>
</g>
<!-- Node4&#45;&gt;Node7 -->
<g id="edge4" class="edge"><title>Node4&#45;&gt;Node7</title>
<path fill="none" stroke="midnightblue" d="M1099.89,-106.962C1013.05,-98.0638 873.259,-80.8464 755,-53 736.221,-48.5781 715.489,-41.5861 700.273,-36.0411"/>
<polygon fill="midnightblue" stroke="midnightblue" points="1099.65,-110.455 1109.95,-107.98 1100.35,-103.491 1099.65,-110.455"/>
</g>
<!-- Node8 -->
<g id="node6" class="node"><title>Node8</title>
<g id="a_node6"><a xlink:href="child_2src_2core_2_logical_device_8cpp.html" target="_top" xlink:title="src/core/LogicalDevice.cpp">
<polygon fill="white" stroke="black" points="1274.5,-17 1274.5,-36 1407.5,-36 1407.5,-17 1274.5,-17"/>
<text text-anchor="middle" x="1341" y="-24" font-family="Helvetica,sans-Serif" font-size="10.00">src/core/LogicalDevice.cpp</text>
</a>
</g>
</g>
<!-- Node4&#45;&gt;Node8 -->
<g id="edge5" class="edge"><title>Node4&#45;&gt;Node8</title>
<path fill="none" stroke="midnightblue" d="M1237.7,-84.3815C1268.7,-67.3113 1305.23,-47.1952 1325.49,-36.0414"/>
<polygon fill="midnightblue" stroke="midnightblue" points="1235.77,-81.4466 1228.7,-89.336 1239.15,-87.5784 1235.77,-81.4466"/>
</g>
<!-- Node9 -->
<g id="node7" class="node"><title>Node9</title>
<g id="a_node7"><a xlink:href="child_2src_2resource_2_buffer_8cpp.html" target="_top" xlink:title="src/resource/Buffer.cpp">
<polygon fill="white" stroke="black" points="1425.5,-17 1425.5,-36 1542.5,-36 1542.5,-17 1425.5,-17"/>
<text text-anchor="middle" x="1484" y="-24" font-family="Helvetica,sans-Serif" font-size="10.00">src/resource/Buffer.cpp</text>
</a>
</g>
</g>
<!-- Node4&#45;&gt;Node9 -->
<g id="edge6" class="edge"><title>Node4&#45;&gt;Node9</title>
<path fill="none" stroke="midnightblue" d="M1265.77,-95.0339C1310.82,-83.8661 1367.35,-68.9241 1417,-53 1432.76,-47.945 1450.23,-41.2597 1463.38,-36.0025"/>
<polygon fill="midnightblue" stroke="midnightblue" points="1264.92,-91.6393 1256.04,-97.4302 1266.59,-98.436 1264.92,-91.6393"/>
</g>
<!-- Node10 -->
<g id="node8" class="node"><title>Node10</title>
<g id="a_node8"><a xlink:href="child_2src_2resource_2_image_8cpp.html" target="_top" xlink:title="src/resource/Image.cpp">
<polygon fill="white" stroke="black" points="1560.5,-17 1560.5,-36 1679.5,-36 1679.5,-17 1560.5,-17"/>
<text text-anchor="middle" x="1620" y="-24" font-family="Helvetica,sans-Serif" font-size="10.00">src/resource/Image.cpp</text>
</a>
</g>
</g>
<!-- Node4&#45;&gt;Node10 -->
<g id="edge7" class="edge"><title>Node4&#45;&gt;Node10</title>
<path fill="none" stroke="midnightblue" d="M1266.39,-105.283C1341.83,-95.8447 1455.54,-78.8627 1552,-53 1568.68,-48.5266 1586.99,-41.5382 1600.4,-36.0077"/>
<polygon fill="midnightblue" stroke="midnightblue" points="1265.5,-101.867 1256.01,-106.565 1266.36,-108.814 1265.5,-101.867"/>
</g>
<!-- Node11 -->
<g id="node9" class="node"><title>Node11</title>
<g id="a_node9"><a xlink:href="src_2alloc_2_allocation_collection_8cpp.html" target="_top" xlink:title="C:/Users/kjones/Documents\l/SoftwareDev/VulpesSceneKit\l/third_party/vulpesrender\l/src/alloc/AllocationCollection.cpp">
<polygon fill="white" stroke="black" points="764,-0.5 764,-52.5 928,-52.5 928,-0.5 764,-0.5"/>
<text text-anchor="start" x="772" y="-40.5" font-family="Helvetica,sans-Serif" font-size="10.00">C:/Users/kjones/Documents</text>
<text text-anchor="start" x="772" y="-29.5" font-family="Helvetica,sans-Serif" font-size="10.00">/SoftwareDev/VulpesSceneKit</text>
<text text-anchor="start" x="772" y="-18.5" font-family="Helvetica,sans-Serif" font-size="10.00">/third_party/vulpesrender</text>
<text text-anchor="middle" x="846" y="-7.5" font-family="Helvetica,sans-Serif" font-size="10.00">/src/alloc/AllocationCollection.cpp</text>
</a>
</g>
</g>
<!-- Node4&#45;&gt;Node11 -->
<g id="edge8" class="edge"><title>Node4&#45;&gt;Node11</title>
<path fill="none" stroke="midnightblue" d="M1099.95,-94.3573C1052.2,-82.6204 991.129,-67.347 937,-53 934.145,-52.2433 931.242,-51.467 928.311,-50.6776"/>
<polygon fill="midnightblue" stroke="midnightblue" points="1099.39,-97.8223 1109.93,-96.8066 1101.06,-91.024 1099.39,-97.8223"/>
</g>
<!-- Node12 -->
<g id="node10" class="node"><title>Node12</title>
<g id="a_node10"><a xlink:href="src_2alloc_2_allocator_8cpp.html" target="_top" xlink:title="C:/Users/kjones/Documents\l/SoftwareDev/VulpesSceneKit\l/third_party/vulpesrender\l/src/alloc/Allocator.cpp">
<polygon fill="white" stroke="black" points="946,-0.5 946,-52.5 1092,-52.5 1092,-0.5 946,-0.5"/>
<text text-anchor="start" x="954" y="-40.5" font-family="Helvetica,sans-Serif" font-size="10.00">C:/Users/kjones/Documents</text>
<text text-anchor="start" x="954" y="-29.5" font-family="Helvetica,sans-Serif" font-size="10.00">/SoftwareDev/VulpesSceneKit</text>
<text text-anchor="start" x="954" y="-18.5" font-family="Helvetica,sans-Serif" font-size="10.00">/third_party/vulpesrender</text>
<text text-anchor="middle" x="1019" y="-7.5" font-family="Helvetica,sans-Serif" font-size="10.00">/src/alloc/Allocator.cpp</text>
</a>
</g>
</g>
<!-- Node4&#45;&gt;Node12 -->
<g id="edge9" class="edge"><title>Node4&#45;&gt;Node12</title>
<path fill="none" stroke="midnightblue" d="M1126.7,-84.6354C1107.04,-74.2049 1085.19,-62.6109 1066.33,-52.6075"/>
<polygon fill="midnightblue" stroke="midnightblue" points="1125.09,-87.7415 1135.56,-89.336 1128.37,-81.5578 1125.09,-87.7415"/>
</g>
<!-- Node13 -->
<g id="node11" class="node"><title>Node13</title>
<g id="a_node11"><a xlink:href="src_2alloc_2_memory_block_8cpp.html" target="_top" xlink:title="C:/Users/kjones/Documents\l/SoftwareDev/VulpesSceneKit\l/third_party/vulpesrender\l/src/alloc/MemoryBlock.cpp">
<polygon fill="white" stroke="black" points="1110,-0.5 1110,-52.5 1256,-52.5 1256,-0.5 1110,-0.5"/>
<text text-anchor="start" x="1118" y="-40.5" font-family="Helvetica,sans-Serif" font-size="10.00">C:/Users/kjones/Documents</text>
<text text-anchor="start" x="1118" y="-29.5" font-family="Helvetica,sans-Serif" font-size="10.00">/SoftwareDev/VulpesSceneKit</text>
<text text-anchor="start" x="1118" y="-18.5" font-family="Helvetica,sans-Serif" font-size="10.00">/third_party/vulpesrender</text>
<text text-anchor="middle" x="1183" y="-7.5" font-family="Helvetica,sans-Serif" font-size="10.00">/src/alloc/MemoryBlock.cpp</text>
</a>
</g>
</g>
<!-- Node4&#45;&gt;Node13 -->
<g id="edge10" class="edge"><title>Node4&#45;&gt;Node13</title>
<path fill="none" stroke="midnightblue" d="M1183,-79.1908C1183,-70.2824 1183,-60.8986 1183,-52.6075"/>
<polygon fill="midnightblue" stroke="midnightblue" points="1179.5,-79.336 1183,-89.336 1186.5,-79.336 1179.5,-79.336"/>
</g>
<!-- Node14 -->
<g id="node12" class="node"><title>Node14</title>
<g id="a_node12"><a xlink:href="src_2core_2_logical_device_8cpp.html" target="_top" xlink:title="C:/Users/kjones/Documents\l/SoftwareDev/VulpesSceneKit\l/third_party/vulpesrender\l/src/core/LogicalDevice.cpp">
<polygon fill="white" stroke="black" points="1698,-0.5 1698,-52.5 1844,-52.5 1844,-0.5 1698,-0.5"/>
<text text-anchor="start" x="1706" y="-40.5" font-family="Helvetica,sans-Serif" font-size="10.00">C:/Users/kjones/Documents</text>
<text text-anchor="start" x="1706" y="-29.5" font-family="Helvetica,sans-Serif" font-size="10.00">/SoftwareDev/VulpesSceneKit</text>
<text text-anchor="start" x="1706" y="-18.5" font-family="Helvetica,sans-Serif" font-size="10.00">/third_party/vulpesrender</text>
<text text-anchor="middle" x="1771" y="-7.5" font-family="Helvetica,sans-Serif" font-size="10.00">/src/core/LogicalDevice.cpp</text>
</a>
</g>
</g>
<!-- Node4&#45;&gt;Node14 -->
<g id="edge11" class="edge"><title>Node4&#45;&gt;Node14</title>
<path fill="none" stroke="midnightblue" d="M1266.3,-109.008C1367.21,-101.294 1541.98,-84.5245 1689,-53 1691.92,-52.3749 1694.88,-51.6918 1697.86,-50.9636"/>
<polygon fill="midnightblue" stroke="midnightblue" points="1265.87,-105.53 1256.16,-109.771 1266.4,-112.51 1265.87,-105.53"/>
</g>
<!-- Node15 -->
<g id="node13" class="node"><title>Node15</title>
<g id="a_node13"><a xlink:href="src_2resource_2_buffer_8cpp.html" target="_top" xlink:title="C:/Users/kjones/Documents\l/SoftwareDev/VulpesSceneKit\l/third_party/vulpesrender\l/src/resource/Buffer.cpp">
<polygon fill="white" stroke="black" points="1862,-0.5 1862,-52.5 2008,-52.5 2008,-0.5 1862,-0.5"/>
<text text-anchor="start" x="1870" y="-40.5" font-family="Helvetica,sans-Serif" font-size="10.00">C:/Users/kjones/Documents</text>
<text text-anchor="start" x="1870" y="-29.5" font-family="Helvetica,sans-Serif" font-size="10.00">/SoftwareDev/VulpesSceneKit</text>
<text text-anchor="start" x="1870" y="-18.5" font-family="Helvetica,sans-Serif" font-size="10.00">/third_party/vulpesrender</text>
<text text-anchor="middle" x="1935" y="-7.5" font-family="Helvetica,sans-Serif" font-size="10.00">/src/resource/Buffer.cpp</text>
</a>
</g>
</g>
<!-- Node4&#45;&gt;Node15 -->
<g id="edge12" class="edge"><title>Node4&#45;&gt;Node15</title>
<path fill="none" stroke="midnightblue" d="M1266.17,-112.465C1393.63,-108.092 1644.42,-94.5248 1853,-53 1855.92,-52.4178 1858.89,-51.771 1861.88,-51.0731"/>
<polygon fill="midnightblue" stroke="midnightblue" points="1265.97,-108.969 1256.09,-112.8 1266.2,-115.966 1265.97,-108.969"/>
</g>
<!-- Node16 -->
<g id="node14" class="node"><title>Node16</title>
<g id="a_node14"><a xlink:href="src_2resource_2_image_8cpp.html" target="_top" xlink:title="C:/Users/kjones/Documents\l/SoftwareDev/VulpesSceneKit\l/third_party/vulpesrender\l/src/resource/Image.cpp">
<polygon fill="white" stroke="black" points="2026,-0.5 2026,-52.5 2172,-52.5 2172,-0.5 2026,-0.5"/>
<text text-anchor="start" x="2034" y="-40.5" font-family="Helvetica,sans-Serif" font-size="10.00">C:/Users/kjones/Documents</text>
<text text-anchor="start" x="2034" y="-29.5" font-family="Helvetica,sans-Serif" font-size="10.00">/SoftwareDev/VulpesSceneKit</text>
<text text-anchor="start" x="2034" y="-18.5" font-family="Helvetica,sans-Serif" font-size="10.00">/third_party/vulpesrender</text>
<text text-anchor="middle" x="2099" y="-7.5" font-family="Helvetica,sans-Serif" font-size="10.00">/src/resource/Image.cpp</text>
</a>
</g>
</g>
<!-- Node4&#45;&gt;Node16 -->
<g id="edge13" class="edge"><title>Node4&#45;&gt;Node16</title>
<path fill="none" stroke="midnightblue" d="M1266.36,-114.603C1417.4,-113.41 1745.8,-104.469 2017,-53 2019.93,-52.444 2022.9,-51.8193 2025.89,-51.14"/>
<polygon fill="midnightblue" stroke="midnightblue" points="1266.21,-111.104 1256.24,-114.673 1266.26,-118.104 1266.21,-111.104"/>
</g>
<!-- Node17&#45;&gt;Node5 -->
<g id="edge16" class="edge"><title>Node17&#45;&gt;Node5</title>
<path fill="none" stroke="midnightblue" d="M590.69,-88.9242C529.52,-71.0057 451.562,-48.1696 410.068,-36.0148"/>
<polygon fill="midnightblue" stroke="midnightblue" points="589.774,-92.303 600.355,-91.7554 591.742,-85.5853 589.774,-92.303"/>
</g>
<!-- Node17&#45;&gt;Node6 -->
<g id="edge17" class="edge"><title>Node17&#45;&gt;Node6</title>
<path fill="none" stroke="midnightblue" d="M628.122,-83.9412C600.417,-66.9666 567.99,-47.0995 549.941,-36.0414"/>
<polygon fill="midnightblue" stroke="midnightblue" points="626.572,-87.0961 636.928,-89.336 630.229,-81.1273 626.572,-87.0961"/>
</g>
<!-- Node17&#45;&gt;Node7 -->
<g id="edge18" class="edge"><title>Node17&#45;&gt;Node7</title>
<path fill="none" stroke="midnightblue" d="M678,-79.3069C678,-63.5773 678,-46.3427 678,-36.2478"/>
<polygon fill="midnightblue" stroke="midnightblue" points="674.5,-79.336 678,-89.336 681.5,-79.336 674.5,-79.336"/>
</g>
<!-- Node17&#45;&gt;Node11 -->
<g id="edge20" class="edge"><title>Node17&#45;&gt;Node11</title>
<path fill="none" stroke="midnightblue" d="M735.67,-84.6354C755.811,-74.2049 778.2,-62.6109 797.517,-52.6075"/>
<polygon fill="midnightblue" stroke="midnightblue" points="733.863,-81.6294 726.593,-89.336 737.082,-87.8454 733.863,-81.6294"/>
</g>
<!-- Node17&#45;&gt;Node12 -->
<g id="edge21" class="edge"><title>Node17&#45;&gt;Node12</title>
<path fill="none" stroke="midnightblue" d="M765.579,-95.2714C815.938,-83.8242 880.272,-68.5359 937,-53 939.876,-52.2124 942.803,-51.3922 945.755,-50.5494"/>
<polygon fill="midnightblue" stroke="midnightblue" points="764.68,-91.8863 755.7,-97.5086 766.226,-98.7134 764.68,-91.8863"/>
</g>
<!-- Node17&#45;&gt;Node13 -->
<g id="edge22" class="edge"><title>Node17&#45;&gt;Node13</title>
<path fill="none" stroke="midnightblue" d="M765.85,-105.802C851.922,-96.326 986.481,-78.9622 1101,-53 1103.91,-52.3408 1106.86,-51.6289 1109.84,-50.8766"/>
<polygon fill="midnightblue" stroke="midnightblue" points="765.421,-102.328 755.859,-106.89 766.179,-109.287 765.421,-102.328"/>
</g>
<!-- Node18 -->
<g id="node16" class="node"><title>Node18</title>
<g id="a_node16"><a xlink:href="child_2src_2alloc_2_allocation_8cpp.html" target="_top" xlink:title="src/alloc/Allocation.cpp">
<polygon fill="white" stroke="black" points="0,-17 0,-36 118,-36 118,-17 0,-17"/>
<text text-anchor="middle" x="59" y="-24" font-family="Helvetica,sans-Serif" font-size="10.00">src/alloc/Allocation.cpp</text>
</a>
</g>
</g>
<!-- Node17&#45;&gt;Node18 -->
<g id="edge15" class="edge"><title>Node17&#45;&gt;Node18</title>
<path fill="none" stroke="midnightblue" d="M590.278,-111.396C480.586,-105.995 287.672,-91.4624 127,-53 109.956,-48.9199 91.3733,-41.7528 77.9476,-36.0538"/>
<polygon fill="midnightblue" stroke="midnightblue" points="590.149,-114.894 600.305,-111.876 590.484,-107.902 590.149,-114.894"/>
</g>
<!-- Node19 -->
<g id="node17" class="node"><title>Node19</title>
<g id="a_node17"><a xlink:href="src_2alloc_2_allocation_8cpp.html" target="_top" xlink:title="C:/Users/kjones/Documents\l/SoftwareDev/VulpesSceneKit\l/third_party/vulpesrender\l/src/alloc/Allocation.cpp">
<polygon fill="white" stroke="black" points="136,-0.5 136,-52.5 282,-52.5 282,-0.5 136,-0.5"/>
<text text-anchor="start" x="144" y="-40.5" font-family="Helvetica,sans-Serif" font-size="10.00">C:/Users/kjones/Documents</text>
<text text-anchor="start" x="144" y="-29.5" font-family="Helvetica,sans-Serif" font-size="10.00">/SoftwareDev/VulpesSceneKit</text>
<text text-anchor="start" x="144" y="-18.5" font-family="Helvetica,sans-Serif" font-size="10.00">/third_party/vulpesrender</text>
<text text-anchor="middle" x="209" y="-7.5" font-family="Helvetica,sans-Serif" font-size="10.00">/src/alloc/Allocation.cpp</text>
</a>
</g>
</g>
<!-- Node17&#45;&gt;Node19 -->
<g id="edge19" class="edge"><title>Node17&#45;&gt;Node19</title>
<path fill="none" stroke="midnightblue" d="M589.885,-104.171C510.988,-94.0535 392.439,-76.7028 291,-53 288.096,-52.3216 285.146,-51.5935 282.174,-50.8277"/>
<polygon fill="midnightblue" stroke="midnightblue" points="589.906,-107.701 600.267,-105.49 590.788,-100.757 589.906,-107.701"/>
</g>
<!-- Node20&#45;&gt;Node17 -->
<g id="edge24" class="edge"><title>Node20&#45;&gt;Node17</title>
<path fill="none" stroke="midnightblue" d="M678,-168.191C678,-159.282 678,-149.899 678,-141.607"/>
<polygon fill="midnightblue" stroke="midnightblue" points="674.5,-168.336 678,-178.336 681.5,-168.336 674.5,-168.336"/>
</g>
</g>
</svg>
