<?xml version="1.0" encoding="UTF-8" standalone="no"?>
<!DOCTYPE svg PUBLIC "-//W3C//DTD SVG 1.1//EN"
 "http://www.w3.org/Graphics/SVG/1.1/DTD/svg11.dtd">
<!-- Generated by graphviz version 2.38.0 (20140413.2041)
 -->
<!-- Title: C:/Users/kjones/Documents/SoftwareDev/VulpesSceneKit/third_party/vulpesrender/include/alloc/Suballocation.hpp Pages: 1 -->
<svg width="1264pt" height="239pt"
 viewBox="0.00 0.00 1264.00 239.00" xmlns="http://www.w3.org/2000/svg" xmlns:xlink="http://www.w3.org/1999/xlink">
<g id="graph0" class="graph" transform="scale(1 1) rotate(0) translate(4 235)">
<title>C:/Users/kjones/Documents/SoftwareDev/VulpesSceneKit/third_party/vulpesrender/include/alloc/Suballocation.hpp</title>
<polygon fill="white" stroke="none" points="-4,4 -4,-235 1260,-235 1260,4 -4,4"/>
<!-- Node5 -->
<g id="node1" class="node"><title>Node5</title>
<polygon fill="#bfbfbf" stroke="black" points="516,-178.5 516,-230.5 670,-230.5 670,-178.5 516,-178.5"/>
<text text-anchor="start" x="524" y="-218.5" font-family="Helvetica,sans-Serif" font-size="10.00">C:/Users/kjones/Documents</text>
<text text-anchor="start" x="524" y="-207.5" font-family="Helvetica,sans-Serif" font-size="10.00">/SoftwareDev/VulpesSceneKit</text>
<text text-anchor="start" x="524" y="-196.5" font-family="Helvetica,sans-Serif" font-size="10.00">/third_party/vulpesrender</text>
<text text-anchor="middle" x="593" y="-185.5" font-family="Helvetica,sans-Serif" font-size="10.00">/include/alloc/Suballocation.hpp</text>
</g>
<!-- Node6 -->
<g id="node2" class="node"><title>Node6</title>
<g id="a_node2"><a xlink:href="include_2alloc_2_memory_block_8hpp.html" target="_top" xlink:title="C:/Users/kjones/Documents\l/SoftwareDev/VulpesSceneKit\l/third_party/vulpesrender\l/include/alloc/MemoryBlock.hpp">
<polygon fill="white" stroke="black" points="515.5,-89.5 515.5,-141.5 670.5,-141.5 670.5,-89.5 515.5,-89.5"/>
<text text-anchor="start" x="523.5" y="-129.5" font-family="Helvetica,sans-Serif" font-size="10.00">C:/Users/kjones/Documents</text>
<text text-anchor="start" x="523.5" y="-118.5" font-family="Helvetica,sans-Serif" font-size="10.00">/SoftwareDev/VulpesSceneKit</text>
<text text-anchor="start" x="523.5" y="-107.5" font-family="Helvetica,sans-Serif" font-size="10.00">/third_party/vulpesrender</text>
<text text-anchor="middle" x="593" y="-96.5" font-family="Helvetica,sans-Serif" font-size="10.00">/include/alloc/MemoryBlock.hpp</text>
</a>
</g>
</g>
<!-- Node5&#45;&gt;Node6 -->
<g id="edge1" class="edge"><title>Node5&#45;&gt;Node6</title>
<path fill="none" stroke="midnightblue" d="M593,-168.191C593,-159.282 593,-149.899 593,-141.607"/>
<polygon fill="midnightblue" stroke="midnightblue" points="589.5,-168.336 593,-178.336 596.5,-168.336 589.5,-168.336"/>
</g>
<!-- Node7 -->
<g id="node3" class="node"><title>Node7</title>
<g id="a_node3"><a xlink:href="child_2src_2alloc_2_allocation_8cpp.html" target="_top" xlink:title="src/alloc/Allocation.cpp">
<polygon fill="white" stroke="black" points="0,-17 0,-36 118,-36 118,-17 0,-17"/>
<text text-anchor="middle" x="59" y="-24" font-family="Helvetica,sans-Serif" font-size="10.00">src/alloc/Allocation.cpp</text>
</a>
</g>
</g>
<!-- Node6&#45;&gt;Node7 -->
<g id="edge2" class="edge"><title>Node6&#45;&gt;Node7</title>
<path fill="none" stroke="midnightblue" d="M505.215,-108.895C410.699,-101.48 256.471,-85.3698 127,-53 110.12,-48.7798 91.6788,-41.6995 78.2646,-36.069"/>
<polygon fill="midnightblue" stroke="midnightblue" points="505.066,-112.394 515.305,-109.672 505.603,-105.415 505.066,-112.394"/>
</g>
<!-- Node8 -->
<g id="node4" class="node"><title>Node8</title>
<g id="a_node4"><a xlink:href="child_2src_2alloc_2_allocation_collection_8cpp.html" target="_top" xlink:title="src/alloc/AllocationCollection.cpp">
<polygon fill="white" stroke="black" points="136.5,-17 136.5,-36 297.5,-36 297.5,-17 136.5,-17"/>
<text text-anchor="middle" x="217" y="-24" font-family="Helvetica,sans-Serif" font-size="10.00">src/alloc/AllocationCollection.cpp</text>
</a>
</g>
</g>
<!-- Node6&#45;&gt;Node8 -->
<g id="edge3" class="edge"><title>Node6&#45;&gt;Node8</title>
<path fill="none" stroke="midnightblue" d="M505.262,-97.309C448.255,-85.7434 372.455,-69.62 306,-53 285.417,-47.8524 262.398,-41.2336 244.928,-36.0294"/>
<polygon fill="midnightblue" stroke="midnightblue" points="504.826,-100.791 515.321,-99.342 506.213,-93.9302 504.826,-100.791"/>
</g>
<!-- Node9 -->
<g id="node5" class="node"><title>Node9</title>
<g id="a_node5"><a xlink:href="child_2src_2alloc_2_allocator_8cpp.html" target="_top" xlink:title="src/alloc/Allocator.cpp">
<polygon fill="white" stroke="black" points="315.5,-17 315.5,-36 428.5,-36 428.5,-17 315.5,-17"/>
<text text-anchor="middle" x="372" y="-24" font-family="Helvetica,sans-Serif" font-size="10.00">src/alloc/Allocator.cpp</text>
</a>
</g>
</g>
<!-- Node6&#45;&gt;Node9 -->
<g id="edge4" class="edge"><title>Node6&#45;&gt;Node9</title>
<path fill="none" stroke="midnightblue" d="M519.842,-85.7001C475.82,-68.3702 422.838,-47.513 393.758,-36.0653"/>
<polygon fill="midnightblue" stroke="midnightblue" points="518.787,-89.0464 529.374,-89.4527 521.351,-82.5329 518.787,-89.0464"/>
</g>
<!-- Node10 -->
<g id="node6" class="node"><title>Node10</title>
<g id="a_node6"><a xlink:href="child_2src_2alloc_2_memory_block_8cpp.html" target="_top" xlink:title="src/alloc/MemoryBlock.cpp">
<polygon fill="white" stroke="black" points="446.5,-17 446.5,-36 581.5,-36 581.5,-17 446.5,-17"/>
<text text-anchor="middle" x="514" y="-24" font-family="Helvetica,sans-Serif" font-size="10.00">src/alloc/MemoryBlock.cpp</text>
</a>
</g>
</g>
<!-- Node6&#45;&gt;Node10 -->
<g id="edge5" class="edge"><title>Node6&#45;&gt;Node10</title>
<path fill="none" stroke="midnightblue" d="M563.073,-81.5428C548.265,-65.2349 531.547,-46.8234 521.943,-36.2478"/>
<polygon fill="midnightblue" stroke="midnightblue" points="560.836,-84.2856 570.15,-89.336 566.019,-79.5798 560.836,-84.2856"/>
</g>
<!-- Node11 -->
<g id="node7" class="node"><title>Node11</title>
<g id="a_node7"><a xlink:href="src_2alloc_2_allocation_8cpp.html" target="_top" xlink:title="C:/Users/kjones/Documents\l/SoftwareDev/VulpesSceneKit\l/third_party/vulpesrender\l/src/alloc/Allocation.cpp">
<polygon fill="white" stroke="black" points="600,-0.5 600,-52.5 746,-52.5 746,-0.5 600,-0.5"/>
<text text-anchor="start" x="608" y="-40.5" font-family="Helvetica,sans-Serif" font-size="10.00">C:/Users/kjones/Documents</text>
<text text-anchor="start" x="608" y="-29.5" font-family="Helvetica,sans-Serif" font-size="10.00">/SoftwareDev/VulpesSceneKit</text>
<text text-anchor="start" x="608" y="-18.5" font-family="Helvetica,sans-Serif" font-size="10.00">/third_party/vulpesrender</text>
<text text-anchor="middle" x="673" y="-7.5" font-family="Helvetica,sans-Serif" font-size="10.00">/src/alloc/Allocation.cpp</text>
</a>
</g>
</g>
<!-- Node6&#45;&gt;Node11 -->
<g id="edge6" class="edge"><title>Node6&#45;&gt;Node11</title>
<path fill="none" stroke="midnightblue" d="M623.078,-81.79C631.962,-72.1288 641.543,-61.7097 649.913,-52.6075"/>
<polygon fill="midnightblue" stroke="midnightblue" points="620.332,-79.6059 616.139,-89.336 625.484,-84.344 620.332,-79.6059"/>
</g>
<!-- Node12 -->
<g id="node8" class="node"><title>Node12</title>
<g id="a_node8"><a xlink:href="src_2alloc_2_allocation_collection_8cpp.html" target="_top" xlink:title="C:/Users/kjones/Documents\l/SoftwareDev/VulpesSceneKit\l/third_party/vulpesrender\l/src/alloc/AllocationCollection.cpp">
<polygon fill="white" stroke="black" points="764,-0.5 764,-52.5 928,-52.5 928,-0.5 764,-0.5"/>
<text text-anchor="start" x="772" y="-40.5" font-family="Helvetica,sans-Serif" font-size="10.00">C:/Users/kjones/Documents</text>
<text text-anchor="start" x="772" y="-29.5" font-family="Helvetica,sans-Serif" font-size="10.00">/SoftwareDev/VulpesSceneKit</text>
<text text-anchor="start" x="772" y="-18.5" font-family="Helvetica,sans-Serif" font-size="10.00">/third_party/vulpesrender</text>
<text text-anchor="middle" x="846" y="-7.5" font-family="Helvetica,sans-Serif" font-size="10.00">/src/alloc/AllocationCollection.cpp</text>
</a>
</g>
</g>
<!-- Node6&#45;&gt;Node12 -->
<g id="edge7" class="edge"><title>Node6&#45;&gt;Node12</title>
<path fill="none" stroke="midnightblue" d="M675.477,-86.1383C706.998,-75.299 742.686,-63.0269 773.238,-52.5211"/>
<polygon fill="midnightblue" stroke="midnightblue" points="674.157,-82.891 665.839,-89.4527 676.433,-89.5106 674.157,-82.891"/>
</g>
<!-- Node13 -->
<g id="node9" class="node"><title>Node13</title>
<g id="a_node9"><a xlink:href="src_2alloc_2_allocator_8cpp.html" target="_top" xlink:title="C:/Users/kjones/Documents\l/SoftwareDev/VulpesSceneKit\l/third_party/vulpesrender\l/src/alloc/Allocator.cpp">
<polygon fill="white" stroke="black" points="946,-0.5 946,-52.5 1092,-52.5 1092,-0.5 946,-0.5"/>
<text text-anchor="start" x="954" y="-40.5" font-family="Helvetica,sans-Serif" font-size="10.00">C:/Users/kjones/Documents</text>
<text text-anchor="start" x="954" y="-29.5" font-family="Helvetica,sans-Serif" font-size="10.00">/SoftwareDev/VulpesSceneKit</text>
<text text-anchor="start" x="954" y="-18.5" font-family="Helvetica,sans-Serif" font-size="10.00">/third_party/vulpesrender</text>
<text text-anchor="middle" x="1019" y="-7.5" font-family="Helvetica,sans-Serif" font-size="10.00">/src/alloc/Allocator.cpp</text>
</a>
</g>
</g>
<!-- Node6&#45;&gt;Node13 -->
<g id="edge8" class="edge"><title>Node6&#45;&gt;Node13</title>
<path fill="none" stroke="midnightblue" d="M680.856,-101.885C750.742,-91.1096 850.766,-74.0302 937,-53 939.897,-52.2935 942.841,-51.5418 945.809,-50.7563"/>
<polygon fill="midnightblue" stroke="midnightblue" points="680.124,-98.4564 670.768,-103.429 681.183,-105.376 680.124,-98.4564"/>
</g>
<!-- Node14 -->
<g id="node10" class="node"><title>Node14</title>
<g id="a_node10"><a xlink:href="src_2alloc_2_memory_block_8cpp.html" target="_top" xlink:title="C:/Users/kjones/Documents\l/SoftwareDev/VulpesSceneKit\l/third_party/vulpesrender\l/src/alloc/MemoryBlock.cpp">
<polygon fill="white" stroke="black" points="1110,-0.5 1110,-52.5 1256,-52.5 1256,-0.5 1110,-0.5"/>
<text text-anchor="start" x="1118" y="-40.5" font-family="Helvetica,sans-Serif" font-size="10.00">C:/Users/kjones/Documents</text>
<text text-anchor="start" x="1118" y="-29.5" font-family="Helvetica,sans-Serif" font-size="10.00">/SoftwareDev/VulpesSceneKit</text>
<text text-anchor="start" x="1118" y="-18.5" font-family="Helvetica,sans-Serif" font-size="10.00">/third_party/vulpesrender</text>
<text text-anchor="middle" x="1183" y="-7.5" font-family="Helvetica,sans-Serif" font-size="10.00">/src/alloc/MemoryBlock.cpp</text>
</a>
</g>
</g>
<!-- Node6&#45;&gt;Node14 -->
<g id="edge9" class="edge"><title>Node6&#45;&gt;Node14</title>
<path fill="none" stroke="midnightblue" d="M680.994,-108.705C782.925,-100.874 955.498,-84.1628 1101,-53 1103.92,-52.3756 1106.88,-51.693 1109.86,-50.9653"/>
<polygon fill="midnightblue" stroke="midnightblue" points="680.454,-105.236 670.746,-109.48 680.982,-112.216 680.454,-105.236"/>
</g>
</g>
</svg>
