<?xml version="1.0" encoding="UTF-8" standalone="no"?>
<!DOCTYPE svg PUBLIC "-//W3C//DTD SVG 1.1//EN"
 "http://www.w3.org/Graphics/SVG/1.1/DTD/svg11.dtd">
<!-- Generated by graphviz version 2.38.0 (20140413.2041)
 -->
<!-- Title: C:/Users/kjones/Documents/SoftwareDev/VulpesSceneKit/third_party/vulpesrender/include/resource/PipelineCache.hpp Pages: 1 -->
<svg width="340pt" height="150pt"
 viewBox="0.00 0.00 339.50 150.00" xmlns="http://www.w3.org/2000/svg" xmlns:xlink="http://www.w3.org/1999/xlink">
<g id="graph0" class="graph" transform="scale(1 1) rotate(0) translate(4 146)">
<title>C:/Users/kjones/Documents/SoftwareDev/VulpesSceneKit/third_party/vulpesrender/include/resource/PipelineCache.hpp</title>
<polygon fill="white" stroke="none" points="-4,4 -4,-146 335.5,-146 335.5,4 -4,4"/>
<!-- Node3 -->
<g id="node1" class="node"><title>Node3</title>
<polygon fill="#bfbfbf" stroke="black" points="77,-89.5 77,-141.5 252,-141.5 252,-89.5 77,-89.5"/>
<text text-anchor="start" x="85" y="-129.5" font-family="Helvetica,sans-Serif" font-size="10.00">C:/Users/kjones/Documents</text>
<text text-anchor="start" x="85" y="-118.5" font-family="Helvetica,sans-Serif" font-size="10.00">/SoftwareDev/VulpesSceneKit</text>
<text text-anchor="start" x="85" y="-107.5" font-family="Helvetica,sans-Serif" font-size="10.00">/third_party/vulpesrender</text>
<text text-anchor="middle" x="164.5" y="-96.5" font-family="Helvetica,sans-Serif" font-size="10.00">/include/resource/PipelineCache.hpp</text>
</g>
<!-- Node4 -->
<g id="node2" class="node"><title>Node4</title>
<g id="a_node2"><a xlink:href="child_2src_2resource_2_pipeline_cache_8cpp.html" target="_top" xlink:title="src/resource/PipelineCache.cpp">
<polygon fill="white" stroke="black" points="0,-17 0,-36 155,-36 155,-17 0,-17"/>
<text text-anchor="middle" x="77.5" y="-24" font-family="Helvetica,sans-Serif" font-size="10.00">src/resource/PipelineCache.cpp</text>
</a>
</g>
</g>
<!-- Node3&#45;&gt;Node4 -->
<g id="edge1" class="edge"><title>Node3&#45;&gt;Node4</title>
<path fill="none" stroke="midnightblue" d="M131.987,-81.9871C115.57,-65.5703 96.9195,-46.9195 86.2478,-36.2478"/>
<polygon fill="midnightblue" stroke="midnightblue" points="129.79,-84.7398 139.336,-89.336 134.74,-79.79 129.79,-84.7398"/>
</g>
<!-- Node5 -->
<g id="node3" class="node"><title>Node5</title>
<g id="a_node3"><a xlink:href="src_2resource_2_pipeline_cache_8cpp.html" target="_top" xlink:title="C:/Users/kjones/Documents\l/SoftwareDev/VulpesSceneKit\l/third_party/vulpesrender\l/src/resource/PipelineCache.cpp">
<polygon fill="white" stroke="black" points="173.5,-0.5 173.5,-52.5 331.5,-52.5 331.5,-0.5 173.5,-0.5"/>
<text text-anchor="start" x="181.5" y="-40.5" font-family="Helvetica,sans-Serif" font-size="10.00">C:/Users/kjones/Documents</text>
<text text-anchor="start" x="181.5" y="-29.5" font-family="Helvetica,sans-Serif" font-size="10.00">/SoftwareDev/VulpesSceneKit</text>
<text text-anchor="start" x="181.5" y="-18.5" font-family="Helvetica,sans-Serif" font-size="10.00">/third_party/vulpesrender</text>
<text text-anchor="middle" x="252.5" y="-7.5" font-family="Helvetica,sans-Serif" font-size="10.00">/src/resource/PipelineCache.cpp</text>
</a>
</g>
</g>
<!-- Node3&#45;&gt;Node5 -->
<g id="edge2" class="edge"><title>Node3&#45;&gt;Node5</title>
<path fill="none" stroke="midnightblue" d="M197.296,-82.0768C207.149,-72.3353 217.806,-61.7998 227.104,-52.6075"/>
<polygon fill="midnightblue" stroke="midnightblue" points="194.604,-79.8164 189.953,-89.336 199.525,-84.7944 194.604,-79.8164"/>
</g>
</g>
</svg>
