<?xml version="1.0" encoding="UTF-8" standalone="no"?>
<!DOCTYPE svg PUBLIC "-//W3C//DTD SVG 1.1//EN"
 "http://www.w3.org/Graphics/SVG/1.1/DTD/svg11.dtd">
<!-- Generated by graphviz version 2.38.0 (20140413.2041)
 -->
<!-- Title: C:/Users/kjones/Documents/SoftwareDev/VulpesSceneKit/third_party/vulpesrender/include/resource/Image.hpp Pages: 1 -->
<svg width="641pt" height="239pt"
 viewBox="0.00 0.00 640.50 239.00" xmlns="http://www.w3.org/2000/svg" xmlns:xlink="http://www.w3.org/1999/xlink">
<g id="graph0" class="graph" transform="scale(1 1) rotate(0) translate(4 235)">
<title>C:/Users/kjones/Documents/SoftwareDev/VulpesSceneKit/third_party/vulpesrender/include/resource/Image.hpp</title>
<polygon fill="white" stroke="none" points="-4,4 -4,-235 636.5,-235 636.5,4 -4,4"/>
<!-- Node4 -->
<g id="node1" class="node"><title>Node4</title>
<polygon fill="#bfbfbf" stroke="black" points="237.5,-178.5 237.5,-230.5 383.5,-230.5 383.5,-178.5 237.5,-178.5"/>
<text text-anchor="start" x="245.5" y="-218.5" font-family="Helvetica,sans-Serif" font-size="10.00">C:/Users/kjones/Documents</text>
<text text-anchor="start" x="245.5" y="-207.5" font-family="Helvetica,sans-Serif" font-size="10.00">/SoftwareDev/VulpesSceneKit</text>
<text text-anchor="start" x="245.5" y="-196.5" font-family="Helvetica,sans-Serif" font-size="10.00">/third_party/vulpesrender</text>
<text text-anchor="middle" x="310.5" y="-185.5" font-family="Helvetica,sans-Serif" font-size="10.00">/include/resource/Image.hpp</text>
</g>
<!-- Node5 -->
<g id="node2" class="node"><title>Node5</title>
<g id="a_node2"><a xlink:href="child_2include_2render_2_depth_stencil_8hpp.html" target="_top" xlink:title="include/render/DepthStencil.hpp">
<polygon fill="white" stroke="black" points="0,-106 0,-125 155,-125 155,-106 0,-106"/>
<text text-anchor="middle" x="77.5" y="-113" font-family="Helvetica,sans-Serif" font-size="10.00">include/render/DepthStencil.hpp</text>
</a>
</g>
</g>
<!-- Node4&#45;&gt;Node5 -->
<g id="edge1" class="edge"><title>Node4&#45;&gt;Node5</title>
<path fill="none" stroke="midnightblue" d="M233.952,-174.918C187.426,-157.545 131.226,-136.561 100.439,-125.065"/>
<polygon fill="midnightblue" stroke="midnightblue" points="232.827,-178.234 243.419,-178.453 235.275,-171.676 232.827,-178.234"/>
</g>
<!-- Node6 -->
<g id="node3" class="node"><title>Node6</title>
<g id="a_node3"><a xlink:href="child_2src_2resource_2_image_8cpp.html" target="_top" xlink:title="src/resource/Image.cpp">
<polygon fill="white" stroke="black" points="173,-106 173,-125 292,-125 292,-106 173,-106"/>
<text text-anchor="middle" x="232.5" y="-113" font-family="Helvetica,sans-Serif" font-size="10.00">src/resource/Image.cpp</text>
</a>
</g>
</g>
<!-- Node4&#45;&gt;Node6 -->
<g id="edge2" class="edge"><title>Node4&#45;&gt;Node6</title>
<path fill="none" stroke="midnightblue" d="M280.952,-170.543C266.331,-154.235 249.824,-135.823 240.343,-125.248"/>
<polygon fill="midnightblue" stroke="midnightblue" points="278.658,-173.227 287.939,-178.336 283.87,-168.554 278.658,-173.227"/>
</g>
<!-- Node7 -->
<g id="node4" class="node"><title>Node7</title>
<g id="a_node4"><a xlink:href="include_2render_2_depth_stencil_8hpp.html" target="_top" xlink:title="C:/Users/kjones/Documents\l/SoftwareDev/VulpesSceneKit\l/third_party/vulpesrender\l/include/render/DepthStencil.hpp">
<polygon fill="white" stroke="black" points="310.5,-89.5 310.5,-141.5 468.5,-141.5 468.5,-89.5 310.5,-89.5"/>
<text text-anchor="start" x="318.5" y="-129.5" font-family="Helvetica,sans-Serif" font-size="10.00">C:/Users/kjones/Documents</text>
<text text-anchor="start" x="318.5" y="-118.5" font-family="Helvetica,sans-Serif" font-size="10.00">/SoftwareDev/VulpesSceneKit</text>
<text text-anchor="start" x="318.5" y="-107.5" font-family="Helvetica,sans-Serif" font-size="10.00">/third_party/vulpesrender</text>
<text text-anchor="middle" x="389.5" y="-96.5" font-family="Helvetica,sans-Serif" font-size="10.00">/include/render/DepthStencil.hpp</text>
</a>
</g>
</g>
<!-- Node4&#45;&gt;Node7 -->
<g id="edge3" class="edge"><title>Node4&#45;&gt;Node7</title>
<path fill="none" stroke="midnightblue" d="M340.202,-170.79C348.975,-161.129 358.436,-150.71 366.701,-141.607"/>
<polygon fill="midnightblue" stroke="midnightblue" points="337.481,-168.58 333.35,-178.336 342.664,-173.286 337.481,-168.58"/>
</g>
<!-- Node10 -->
<g id="node7" class="node"><title>Node10</title>
<g id="a_node7"><a xlink:href="src_2resource_2_image_8cpp.html" target="_top" xlink:title="C:/Users/kjones/Documents\l/SoftwareDev/VulpesSceneKit\l/third_party/vulpesrender\l/src/resource/Image.cpp">
<polygon fill="white" stroke="black" points="486.5,-89.5 486.5,-141.5 632.5,-141.5 632.5,-89.5 486.5,-89.5"/>
<text text-anchor="start" x="494.5" y="-129.5" font-family="Helvetica,sans-Serif" font-size="10.00">C:/Users/kjones/Documents</text>
<text text-anchor="start" x="494.5" y="-118.5" font-family="Helvetica,sans-Serif" font-size="10.00">/SoftwareDev/VulpesSceneKit</text>
<text text-anchor="start" x="494.5" y="-107.5" font-family="Helvetica,sans-Serif" font-size="10.00">/third_party/vulpesrender</text>
<text text-anchor="middle" x="559.5" y="-96.5" font-family="Helvetica,sans-Serif" font-size="10.00">/src/resource/Image.cpp</text>
</a>
</g>
</g>
<!-- Node4&#45;&gt;Node10 -->
<g id="edge6" class="edge"><title>Node4&#45;&gt;Node10</title>
<path fill="none" stroke="midnightblue" d="M391.673,-175.138C422.696,-164.299 457.82,-152.027 487.888,-141.521"/>
<polygon fill="midnightblue" stroke="midnightblue" points="390.473,-171.85 382.187,-178.453 392.782,-178.458 390.473,-171.85"/>
</g>
<!-- Node8 -->
<g id="node5" class="node"><title>Node8</title>
<g id="a_node5"><a xlink:href="child_2src_2render_2_depth_stencil_8cpp.html" target="_top" xlink:title="src/render/DepthStencil.cpp">
<polygon fill="white" stroke="black" points="241,-17 241,-36 378,-36 378,-17 241,-17"/>
<text text-anchor="middle" x="309.5" y="-24" font-family="Helvetica,sans-Serif" font-size="10.00">src/render/DepthStencil.cpp</text>
</a>
</g>
</g>
<!-- Node7&#45;&gt;Node8 -->
<g id="edge4" class="edge"><title>Node7&#45;&gt;Node8</title>
<path fill="none" stroke="midnightblue" d="M359.195,-81.5428C344.199,-65.2349 327.269,-46.8234 317.544,-36.2478"/>
<polygon fill="midnightblue" stroke="midnightblue" points="357.016,-84.344 366.361,-89.336 362.168,-79.6059 357.016,-84.344"/>
</g>
<!-- Node9 -->
<g id="node6" class="node"><title>Node9</title>
<g id="a_node6"><a xlink:href="src_2render_2_depth_stencil_8cpp.html" target="_top" xlink:title="C:/Users/kjones/Documents\l/SoftwareDev/VulpesSceneKit\l/third_party/vulpesrender\l/src/render/DepthStencil.cpp">
<polygon fill="white" stroke="black" points="396.5,-0.5 396.5,-52.5 542.5,-52.5 542.5,-0.5 396.5,-0.5"/>
<text text-anchor="start" x="404.5" y="-40.5" font-family="Helvetica,sans-Serif" font-size="10.00">C:/Users/kjones/Documents</text>
<text text-anchor="start" x="404.5" y="-29.5" font-family="Helvetica,sans-Serif" font-size="10.00">/SoftwareDev/VulpesSceneKit</text>
<text text-anchor="start" x="404.5" y="-18.5" font-family="Helvetica,sans-Serif" font-size="10.00">/third_party/vulpesrender</text>
<text text-anchor="middle" x="469.5" y="-7.5" font-family="Helvetica,sans-Serif" font-size="10.00">/src/render/DepthStencil.cpp</text>
</a>
</g>
</g>
<!-- Node7&#45;&gt;Node9 -->
<g id="edge5" class="edge"><title>Node7&#45;&gt;Node9</title>
<path fill="none" stroke="midnightblue" d="M419.578,-81.79C428.462,-72.1288 438.043,-61.7097 446.413,-52.6075"/>
<polygon fill="midnightblue" stroke="midnightblue" points="416.832,-79.6059 412.639,-89.336 421.984,-84.344 416.832,-79.6059"/>
</g>
</g>
</svg>
