<?xml version="1.0" encoding="UTF-8" standalone="no"?>
<!DOCTYPE svg PUBLIC "-//W3C//DTD SVG 1.1//EN"
 "http://www.w3.org/Graphics/SVG/1.1/DTD/svg11.dtd">
<!-- Generated by graphviz version 2.38.0 (20140413.2041)
 -->
<!-- Title: Graphical Class Hierarchy Pages: 1 -->
<svg width="695pt" height="1006pt"
 viewBox="0.00 0.00 695.00 1006.00" xmlns="http://www.w3.org/2000/svg" xmlns:xlink="http://www.w3.org/1999/xlink">
<g id="graph0" class="graph" transform="scale(1 1) rotate(0) translate(4 1002)">
<title>Graphical Class Hierarchy</title>
<polygon fill="white" stroke="none" points="-4,4 -4,-1002 691,-1002 691,4 -4,4"/>
<!-- Node81 -->
<g id="node1" class="node"><title>Node81</title>
<g id="a_node1"><a xlink:href="classel_1_1_loggable.html" target="_top" xlink:title="Base of Easylogging++ friendly class. ">
<polygon fill="white" stroke="black" points="14,-940.5 14,-959.5 83,-959.5 83,-940.5 14,-940.5"/>
<text text-anchor="middle" x="48.5" y="-947.5" font-family="Helvetica,sans-Serif" font-size="10.00">el::Loggable</text>
</a>
</g>
</g>
<!-- Node82 -->
<g id="node2" class="node"><title>Node82</title>
<g id="a_node2"><a xlink:href="classel_1_1base_1_1_log_format.html" target="_top" xlink:title="Represents log format containing flags and date format. This is used internally to start initial log...">
<polygon fill="white" stroke="black" points="165,-978.5 165,-997.5 269,-997.5 269,-978.5 165,-978.5"/>
<text text-anchor="middle" x="217" y="-985.5" font-family="Helvetica,sans-Serif" font-size="10.00">el::base::LogFormat</text>
</a>
</g>
</g>
<!-- Node81&#45;&gt;Node82 -->
<g id="edge1" class="edge"><title>Node81&#45;&gt;Node82</title>
<path fill="none" stroke="midnightblue" d="M93.1419,-959.96C118.147,-965.667 149.368,-972.793 174.079,-978.432"/>
<polygon fill="midnightblue" stroke="midnightblue" points="93.7219,-956.503 83.1938,-957.69 92.1643,-963.327 93.7219,-956.503"/>
</g>
<!-- Node83 -->
<g id="node3" class="node"><title>Node83</title>
<g id="a_node3"><a xlink:href="classel_1_1_configuration.html" target="_top" xlink:title="Represents single configuration that has representing level, configuration type and a string based va...">
<polygon fill="white" stroke="black" points="174,-940.5 174,-959.5 260,-959.5 260,-940.5 174,-940.5"/>
<text text-anchor="middle" x="217" y="-947.5" font-family="Helvetica,sans-Serif" font-size="10.00">el::Configuration</text>
</a>
</g>
</g>
<!-- Node81&#45;&gt;Node83 -->
<g id="edge2" class="edge"><title>Node81&#45;&gt;Node83</title>
<path fill="none" stroke="midnightblue" d="M93.4369,-950C118.289,-950 149.208,-950 173.773,-950"/>
<polygon fill="midnightblue" stroke="midnightblue" points="93.1938,-946.5 83.1938,-950 93.1937,-953.5 93.1938,-946.5"/>
</g>
<!-- Node26 -->
<g id="node4" class="node"><title>Node26</title>
<g id="a_node4"><a xlink:href="classel_1_1_logger.html" target="_top" xlink:title="Represents a logger holding ID and configurations we need to write logs. ">
<polygon fill="white" stroke="black" points="187.5,-902.5 187.5,-921.5 246.5,-921.5 246.5,-902.5 187.5,-902.5"/>
<text text-anchor="middle" x="217" y="-909.5" font-family="Helvetica,sans-Serif" font-size="10.00">el::Logger</text>
</a>
</g>
</g>
<!-- Node81&#45;&gt;Node26 -->
<g id="edge3" class="edge"><title>Node81&#45;&gt;Node26</title>
<path fill="none" stroke="midnightblue" d="M93.3087,-940.002C123.032,-933.218 161.481,-924.443 187.348,-918.539"/>
<polygon fill="midnightblue" stroke="midnightblue" points="92.1643,-936.673 83.1938,-942.31 93.7219,-943.497 92.1643,-936.673"/>
</g>
<!-- Node69 -->
<g id="node5" class="node"><title>Node69</title>
<g id="a_node5"><a xlink:href="classel_1_1base_1_1_no_copy.html" target="_top" xlink:title="Internal helper class that prevent copy constructor for class. ">
<polygon fill="white" stroke="black" points="2.5,-164.5 2.5,-183.5 94.5,-183.5 94.5,-164.5 2.5,-164.5"/>
<text text-anchor="middle" x="48.5" y="-171.5" font-family="Helvetica,sans-Serif" font-size="10.00">el::base::NoCopy</text>
</a>
</g>
</g>
<!-- Node70 -->
<g id="node6" class="node"><title>Node70</title>
<g id="a_node6"><a xlink:href="classel_1_1base_1_1_log_dispatcher.html" target="_top" xlink:title="Dispatches log messages. ">
<polygon fill="white" stroke="black" points="157.5,-224.5 157.5,-243.5 276.5,-243.5 276.5,-224.5 157.5,-224.5"/>
<text text-anchor="middle" x="217" y="-231.5" font-family="Helvetica,sans-Serif" font-size="10.00">el::base::LogDispatcher</text>
</a>
</g>
</g>
<!-- Node69&#45;&gt;Node70 -->
<g id="edge4" class="edge"><title>Node69&#45;&gt;Node70</title>
<path fill="none" stroke="#8b1a1a" d="M74.8162,-188.345C91.0368,-197.05 112.769,-207.827 133,-215 143.449,-218.705 154.9,-221.87 165.868,-224.493"/>
<polygon fill="#8b1a1a" stroke="#8b1a1a" points="76.409,-185.227 65.9555,-183.502 73.0518,-191.37 76.409,-185.227"/>
</g>
<!-- Node71 -->
<g id="node7" class="node"><title>Node71</title>
<g id="a_node7"><a xlink:href="classel_1_1base_1_1_null_writer.html" target="_top" xlink:title="Writes nothing &#45; Used when certain log is disabled. ">
<polygon fill="white" stroke="black" points="167,-186.5 167,-205.5 267,-205.5 267,-186.5 167,-186.5"/>
<text text-anchor="middle" x="217" y="-193.5" font-family="Helvetica,sans-Serif" font-size="10.00">el::base::NullWriter</text>
</a>
</g>
</g>
<!-- Node69&#45;&gt;Node71 -->
<g id="edge5" class="edge"><title>Node69&#45;&gt;Node71</title>
<path fill="none" stroke="#8b1a1a" d="M104.512,-181.269C124.627,-183.927 147.237,-186.914 166.812,-189.501"/>
<polygon fill="#8b1a1a" stroke="#8b1a1a" points="104.93,-177.794 94.5573,-179.954 104.013,-184.733 104.93,-177.794"/>
</g>
<!-- Node21 -->
<g id="node8" class="node"><title>Node21</title>
<g id="a_node8"><a xlink:href="classel_1_1base_1_1_storage.html" target="_top" xlink:title="Easylogging++ management storage. ">
<polygon fill="white" stroke="black" points="171.5,-300.5 171.5,-319.5 262.5,-319.5 262.5,-300.5 171.5,-300.5"/>
<text text-anchor="middle" x="217" y="-307.5" font-family="Helvetica,sans-Serif" font-size="10.00">el::base::Storage</text>
</a>
</g>
</g>
<!-- Node69&#45;&gt;Node21 -->
<g id="edge6" class="edge"><title>Node69&#45;&gt;Node21</title>
<path fill="none" stroke="#8b1a1a" d="M57.6697,-192.959C70.0133,-219.248 95.9722,-266.315 133,-291 144.316,-298.544 158.218,-303.119 171.386,-305.886"/>
<polygon fill="#8b1a1a" stroke="#8b1a1a" points="60.788,-191.36 53.4798,-183.689 54.4093,-194.243 60.788,-191.36"/>
</g>
<!-- Node72 -->
<g id="node9" class="node"><title>Node72</title>
<g id="a_node9"><a xlink:href="classel_1_1base_1_1threading_1_1internal_1_1_no_mutex.html" target="_top" xlink:title="Mutex wrapper used when multi&#45;threading is disabled. ">
<polygon fill="white" stroke="black" points="167.5,-137 167.5,-167 266.5,-167 266.5,-137 167.5,-137"/>
<text text-anchor="start" x="175.5" y="-155" font-family="Helvetica,sans-Serif" font-size="10.00">el::base::threading</text>
<text text-anchor="middle" x="217" y="-144" font-family="Helvetica,sans-Serif" font-size="10.00">::internal::NoMutex</text>
</a>
</g>
</g>
<!-- Node69&#45;&gt;Node72 -->
<g id="edge7" class="edge"><title>Node69&#45;&gt;Node72</title>
<path fill="none" stroke="#8b1a1a" d="M104.6,-166.719C124.896,-164.038 147.722,-161.022 167.402,-158.421"/>
<polygon fill="#8b1a1a" stroke="#8b1a1a" points="104.013,-163.267 94.5573,-168.046 104.93,-170.206 104.013,-163.267"/>
</g>
<!-- Node73 -->
<g id="node10" class="node"><title>Node73</title>
<g id="a_node10"><a xlink:href="classel_1_1base_1_1threading_1_1internal_1_1_no_scoped_lock.html" target="_top" xlink:title="Lock guard wrapper used when multi&#45;threading is disabled. ">
<polygon fill="white" stroke="black" points="154,-76.5 154,-117.5 280,-117.5 280,-76.5 154,-76.5"/>
<text text-anchor="start" x="162" y="-105.5" font-family="Helvetica,sans-Serif" font-size="10.00">el::base::threading</text>
<text text-anchor="start" x="162" y="-94.5" font-family="Helvetica,sans-Serif" font-size="10.00">::internal::NoScopedLock</text>
<text text-anchor="middle" x="217" y="-83.5" font-family="Helvetica,sans-Serif" font-size="10.00">&lt; Mutex &gt;</text>
</a>
</g>
</g>
<!-- Node69&#45;&gt;Node73 -->
<g id="edge8" class="edge"><title>Node69&#45;&gt;Node73</title>
<path fill="none" stroke="#8b1a1a" d="M73.6909,-158.97C90.0684,-149.15 112.394,-136.444 133,-127 140.104,-123.744 147.671,-120.595 155.236,-117.639"/>
<polygon fill="#8b1a1a" stroke="#8b1a1a" points="71.525,-156.19 64.7934,-164.371 75.1578,-162.174 71.525,-156.19"/>
</g>
<!-- Node24 -->
<g id="node11" class="node"><title>Node24</title>
<g id="a_node11"><a xlink:href="classel_1_1base_1_1_v_registry.html" target="_top" xlink:title="Represents registries for verbose logging. ">
<polygon fill="white" stroke="black" points="167,-262.5 167,-281.5 267,-281.5 267,-262.5 167,-262.5"/>
<text text-anchor="middle" x="217" y="-269.5" font-family="Helvetica,sans-Serif" font-size="10.00">el::base::VRegistry</text>
</a>
</g>
</g>
<!-- Node69&#45;&gt;Node24 -->
<g id="edge9" class="edge"><title>Node69&#45;&gt;Node24</title>
<path fill="none" stroke="#8b1a1a" d="M63.3589,-191.82C78.4947,-210.018 104.421,-237.706 133,-253 143.296,-258.51 155.142,-262.429 166.6,-265.214"/>
<polygon fill="#8b1a1a" stroke="#8b1a1a" points="65.8395,-189.321 56.8311,-183.744 60.3956,-193.721 65.8395,-189.321"/>
</g>
<!-- Node74 -->
<g id="node12" class="node"><title>Node74</title>
<g id="a_node12"><a xlink:href="classel_1_1base_1_1_writer.html" target="_top" xlink:title="Main entry point of each logging. ">
<polygon fill="white" stroke="black" points="175.5,-38.5 175.5,-57.5 258.5,-57.5 258.5,-38.5 175.5,-38.5"/>
<text text-anchor="middle" x="217" y="-45.5" font-family="Helvetica,sans-Serif" font-size="10.00">el::base::Writer</text>
</a>
</g>
</g>
<!-- Node69&#45;&gt;Node74 -->
<g id="edge10" class="edge"><title>Node69&#45;&gt;Node74</title>
<path fill="none" stroke="#8b1a1a" d="M58.8609,-155.249C71.9927,-130.961 98.2272,-89.1213 133,-67 145.597,-58.9861 161.174,-54.3382 175.418,-51.6477"/>
<polygon fill="#8b1a1a" stroke="#8b1a1a" points="55.7176,-153.707 54.1911,-164.192 61.9226,-156.948 55.7176,-153.707"/>
</g>
<!-- Node76 -->
<g id="node14" class="node"><title>Node76</title>
<g id="a_node14"><a xlink:href="classel_1_1_log_builder.html" target="_top" xlink:title="el::LogBuilder">
<polygon fill="white" stroke="black" points="179,-0.5 179,-19.5 255,-19.5 255,-0.5 179,-0.5"/>
<text text-anchor="middle" x="217" y="-7.5" font-family="Helvetica,sans-Serif" font-size="10.00">el::LogBuilder</text>
</a>
</g>
</g>
<!-- Node69&#45;&gt;Node76 -->
<g id="edge12" class="edge"><title>Node69&#45;&gt;Node76</title>
<path fill="none" stroke="#8b1a1a" d="M55.06,-154.642C65.1453,-123.154 89.5398,-61.134 133,-29 146.194,-19.2447 163.55,-14.377 178.979,-11.9925"/>
<polygon fill="#8b1a1a" stroke="#8b1a1a" points="51.6512,-153.821 52.0817,-164.407 58.3467,-155.863 51.6512,-153.821"/>
</g>
<!-- Node75 -->
<g id="node13" class="node"><title>Node75</title>
<g id="a_node13"><a xlink:href="classel_1_1base_1_1_p_error_writer.html" target="_top" xlink:title="el::base::PErrorWriter">
<polygon fill="white" stroke="black" points="361,-38.5 361,-57.5 472,-57.5 472,-38.5 361,-38.5"/>
<text text-anchor="middle" x="416.5" y="-45.5" font-family="Helvetica,sans-Serif" font-size="10.00">el::base::PErrorWriter</text>
</a>
</g>
</g>
<!-- Node74&#45;&gt;Node75 -->
<g id="edge11" class="edge"><title>Node74&#45;&gt;Node75</title>
<path fill="none" stroke="midnightblue" d="M268.955,-48C297.092,-48 332.051,-48 360.766,-48"/>
<polygon fill="midnightblue" stroke="midnightblue" points="268.922,-44.5001 258.922,-48 268.922,-51.5001 268.922,-44.5001"/>
</g>
<!-- Node77 -->
<g id="node15" class="node"><title>Node77</title>
<g id="a_node15"><a xlink:href="classel_1_1base_1_1_default_log_builder.html" target="_top" xlink:title="el::base::DefaultLogBuilder">
<polygon fill="white" stroke="black" points="350,-0.5 350,-19.5 483,-19.5 483,-0.5 350,-0.5"/>
<text text-anchor="middle" x="416.5" y="-7.5" font-family="Helvetica,sans-Serif" font-size="10.00">el::base::DefaultLogBuilder</text>
</a>
</g>
</g>
<!-- Node76&#45;&gt;Node77 -->
<g id="edge13" class="edge"><title>Node76&#45;&gt;Node77</title>
<path fill="none" stroke="midnightblue" d="M265.219,-10C290.513,-10 322.072,-10 349.731,-10"/>
<polygon fill="midnightblue" stroke="midnightblue" points="265.148,-6.5001 255.148,-10 265.148,-13.5001 265.148,-6.5001"/>
</g>
<!-- Node0 -->
<g id="node16" class="node"><title>Node0</title>
<g id="a_node16"><a xlink:href="classel_1_1base_1_1threading_1_1_thread_safe.html" target="_top" xlink:title="Base of thread safe class, this class is inheritable&#45;only. ">
<polygon fill="white" stroke="black" points="0,-531 0,-561 97,-561 97,-531 0,-531"/>
<text text-anchor="start" x="8" y="-549" font-family="Helvetica,sans-Serif" font-size="10.00">el::base::threading</text>
<text text-anchor="middle" x="48.5" y="-538" font-family="Helvetica,sans-Serif" font-size="10.00">::ThreadSafe</text>
</a>
</g>
</g>
<!-- Node0&#45;&gt;Node26 -->
<g id="edge39" class="edge"><title>Node0&#45;&gt;Node26</title>
<path fill="none" stroke="midnightblue" d="M52.1691,-571.428C60.2547,-643.577 86.799,-847.309 133,-893 147.189,-907.033 169.495,-911.549 187.411,-912.683"/>
<polygon fill="midnightblue" stroke="midnightblue" points="55.6383,-570.956 51.0696,-561.396 48.68,-571.718 55.6383,-570.956"/>
</g>
<!-- Node0&#45;&gt;Node21 -->
<g id="edge34" class="edge"><title>Node0&#45;&gt;Node21</title>
<path fill="none" stroke="midnightblue" d="M51.6679,-520.739C56.9793,-475.211 74.8146,-379.444 133,-329 143.611,-319.801 157.776,-314.813 171.397,-312.177"/>
<polygon fill="midnightblue" stroke="midnightblue" points="48.1622,-520.611 50.594,-530.923 55.1236,-521.345 48.1622,-520.611"/>
</g>
<!-- Node0&#45;&gt;Node24 -->
<g id="edge37" class="edge"><title>Node0&#45;&gt;Node24</title>
<path fill="none" stroke="midnightblue" d="M49.9917,-520.772C52.4246,-469.457 65.5178,-352.579 133,-291 142.282,-282.53 154.55,-277.59 166.798,-274.77"/>
<polygon fill="midnightblue" stroke="midnightblue" points="46.4869,-520.838 49.6111,-530.961 53.4821,-521.099 46.4869,-520.838"/>
</g>
<!-- Node1 -->
<g id="node17" class="node"><title>Node1</title>
<g id="a_node17"><a xlink:href="classel_1_1base_1_1utils_1_1_abstract_registry.html" target="_top" xlink:title="el::base::utils::Abstract\lRegistry\&lt; base::HitCounter,\l std::vector\&lt; base::HitCounter *\&gt; \&gt;">
<polygon fill="white" stroke="black" points="133,-842.5 133,-883.5 301,-883.5 301,-842.5 133,-842.5"/>
<text text-anchor="start" x="141" y="-871.5" font-family="Helvetica,sans-Serif" font-size="10.00">el::base::utils::Abstract</text>
<text text-anchor="start" x="141" y="-860.5" font-family="Helvetica,sans-Serif" font-size="10.00">Registry&lt; base::HitCounter,</text>
<text text-anchor="middle" x="217" y="-849.5" font-family="Helvetica,sans-Serif" font-size="10.00"> std::vector&lt; base::HitCounter *&gt; &gt;</text>
</a>
</g>
</g>
<!-- Node0&#45;&gt;Node1 -->
<g id="edge14" class="edge"><title>Node0&#45;&gt;Node1</title>
<path fill="none" stroke="midnightblue" d="M49.5712,-571.311C51.1017,-626.3 62.4124,-757.766 133,-833 136.25,-836.464 139.93,-839.529 143.888,-842.241"/>
<polygon fill="midnightblue" stroke="midnightblue" points="53.0662,-571.01 49.3779,-561.078 46.0675,-571.142 53.0662,-571.01"/>
</g>
<!-- Node4 -->
<g id="node20" class="node"><title>Node4</title>
<g id="a_node20"><a xlink:href="classel_1_1base_1_1utils_1_1_abstract_registry.html" target="_top" xlink:title="el::base::utils::Abstract\lRegistry\&lt; Configuration,\l std::vector\&lt; Configuration *\&gt; \&gt;">
<polygon fill="white" stroke="black" points="141,-782.5 141,-823.5 293,-823.5 293,-782.5 141,-782.5"/>
<text text-anchor="start" x="149" y="-811.5" font-family="Helvetica,sans-Serif" font-size="10.00">el::base::utils::Abstract</text>
<text text-anchor="start" x="149" y="-800.5" font-family="Helvetica,sans-Serif" font-size="10.00">Registry&lt; Configuration,</text>
<text text-anchor="middle" x="217" y="-789.5" font-family="Helvetica,sans-Serif" font-size="10.00"> std::vector&lt; Configuration *&gt; &gt;</text>
</a>
</g>
</g>
<!-- Node0&#45;&gt;Node4 -->
<g id="edge17" class="edge"><title>Node0&#45;&gt;Node4</title>
<path fill="none" stroke="midnightblue" d="M51.8595,-571.072C57.5159,-617.264 75.9381,-716.259 133,-773 136.585,-776.565 140.626,-779.71 144.944,-782.483"/>
<polygon fill="midnightblue" stroke="midnightblue" points="55.326,-570.576 50.7319,-561.029 48.3697,-571.358 55.326,-570.576"/>
</g>
<!-- Node7 -->
<g id="node23" class="node"><title>Node7</title>
<g id="a_node23"><a xlink:href="classel_1_1base_1_1utils_1_1_abstract_registry.html" target="_top" xlink:title="el::base::utils::Abstract\lRegistry\&lt; Logger, std::\lmap\&lt; std::string, Logger *\&gt; \&gt;">
<polygon fill="white" stroke="black" points="144.5,-722.5 144.5,-763.5 289.5,-763.5 289.5,-722.5 144.5,-722.5"/>
<text text-anchor="start" x="152.5" y="-751.5" font-family="Helvetica,sans-Serif" font-size="10.00">el::base::utils::Abstract</text>
<text text-anchor="start" x="152.5" y="-740.5" font-family="Helvetica,sans-Serif" font-size="10.00">Registry&lt; Logger, std::</text>
<text text-anchor="middle" x="217" y="-729.5" font-family="Helvetica,sans-Serif" font-size="10.00">map&lt; std::string, Logger *&gt; &gt;</text>
</a>
</g>
</g>
<!-- Node0&#45;&gt;Node7 -->
<g id="edge20" class="edge"><title>Node0&#45;&gt;Node7</title>
<path fill="none" stroke="midnightblue" d="M55.6456,-571.036C65.7786,-607.256 89.3531,-674.175 133,-713 137.007,-716.564 141.47,-719.715 146.189,-722.498"/>
<polygon fill="midnightblue" stroke="midnightblue" points="58.9969,-570.019 53.0314,-561.264 52.2347,-571.828 58.9969,-570.019"/>
</g>
<!-- Node10 -->
<g id="node26" class="node"><title>Node10</title>
<g id="a_node26"><a xlink:href="classel_1_1base_1_1utils_1_1_abstract_registry.html" target="_top" xlink:title="el::base::utils::Abstract\lRegistry\&lt; T_Ptr, std::map\l\&lt; T_Key, T_Ptr *\&gt; \&gt;">
<polygon fill="white" stroke="black" points="152.5,-662.5 152.5,-703.5 281.5,-703.5 281.5,-662.5 152.5,-662.5"/>
<text text-anchor="start" x="160.5" y="-691.5" font-family="Helvetica,sans-Serif" font-size="10.00">el::base::utils::Abstract</text>
<text text-anchor="start" x="160.5" y="-680.5" font-family="Helvetica,sans-Serif" font-size="10.00">Registry&lt; T_Ptr, std::map</text>
<text text-anchor="middle" x="217" y="-669.5" font-family="Helvetica,sans-Serif" font-size="10.00">&lt; T_Key, T_Ptr *&gt; &gt;</text>
</a>
</g>
</g>
<!-- Node0&#45;&gt;Node10 -->
<g id="edge23" class="edge"><title>Node0&#45;&gt;Node10</title>
<path fill="none" stroke="midnightblue" d="M62.8631,-570.215C77.2834,-594.297 102.352,-630.772 133,-653 138.954,-657.318 145.593,-661.071 152.451,-664.32"/>
<polygon fill="midnightblue" stroke="midnightblue" points="65.7525,-568.221 57.6952,-561.342 59.7037,-571.744 65.7525,-568.221"/>
</g>
<!-- Node12 -->
<g id="node28" class="node"><title>Node12</title>
<g id="a_node28"><a xlink:href="classel_1_1base_1_1utils_1_1_abstract_registry.html" target="_top" xlink:title="el::base::utils::Abstract\lRegistry\&lt; T_Ptr, std::vector\l\&lt; T_Ptr *\&gt; \&gt;">
<polygon fill="white" stroke="black" points="149,-602.5 149,-643.5 285,-643.5 285,-602.5 149,-602.5"/>
<text text-anchor="start" x="157" y="-631.5" font-family="Helvetica,sans-Serif" font-size="10.00">el::base::utils::Abstract</text>
<text text-anchor="start" x="157" y="-620.5" font-family="Helvetica,sans-Serif" font-size="10.00">Registry&lt; T_Ptr, std::vector</text>
<text text-anchor="middle" x="217" y="-609.5" font-family="Helvetica,sans-Serif" font-size="10.00">&lt; T_Ptr *&gt; &gt;</text>
</a>
</g>
</g>
<!-- Node0&#45;&gt;Node12 -->
<g id="edge25" class="edge"><title>Node0&#45;&gt;Node12</title>
<path fill="none" stroke="midnightblue" d="M83.4629,-566.183C98.3993,-574.672 116.31,-584.335 133,-592 140.828,-595.595 149.203,-599.1 157.511,-602.383"/>
<polygon fill="midnightblue" stroke="midnightblue" points="84.9983,-563.029 74.5846,-561.078 81.5087,-569.097 84.9983,-563.029"/>
</g>
<!-- Node14 -->
<g id="node30" class="node"><title>Node14</title>
<g id="a_node30"><a xlink:href="classel_1_1_callback.html" target="_top" xlink:title="el::Callback\&lt; LogDispatch\lData \&gt;">
<polygon fill="white" stroke="black" points="151.5,-553 151.5,-583 282.5,-583 282.5,-553 151.5,-553"/>
<text text-anchor="start" x="159.5" y="-571" font-family="Helvetica,sans-Serif" font-size="10.00">el::Callback&lt; LogDispatch</text>
<text text-anchor="middle" x="217" y="-560" font-family="Helvetica,sans-Serif" font-size="10.00">Data &gt;</text>
</a>
</g>
</g>
<!-- Node0&#45;&gt;Node14 -->
<g id="edge27" class="edge"><title>Node0&#45;&gt;Node14</title>
<path fill="none" stroke="darkgreen" d="M107.311,-553.639C121.482,-555.511 136.74,-557.527 151.214,-559.44"/>
<polygon fill="darkgreen" stroke="darkgreen" points="107.585,-550.144 97.2122,-552.304 106.668,-557.084 107.585,-550.144"/>
</g>
<!-- Node17 -->
<g id="node33" class="node"><title>Node17</title>
<g id="a_node33"><a xlink:href="classel_1_1_callback.html" target="_top" xlink:title="el::Callback\&lt; Logger \&gt;">
<polygon fill="white" stroke="black" points="159.5,-514.5 159.5,-533.5 274.5,-533.5 274.5,-514.5 159.5,-514.5"/>
<text text-anchor="middle" x="217" y="-521.5" font-family="Helvetica,sans-Serif" font-size="10.00">el::Callback&lt; Logger &gt;</text>
</a>
</g>
</g>
<!-- Node0&#45;&gt;Node17 -->
<g id="edge30" class="edge"><title>Node0&#45;&gt;Node17</title>
<path fill="none" stroke="darkgreen" d="M107.474,-538.34C124.317,-536.114 142.685,-533.687 159.44,-531.473"/>
<polygon fill="darkgreen" stroke="darkgreen" points="106.668,-534.916 97.2122,-539.696 107.585,-541.856 106.668,-534.916"/>
</g>
<!-- Node19 -->
<g id="node35" class="node"><title>Node19</title>
<g id="a_node35"><a xlink:href="classel_1_1_callback.html" target="_top" xlink:title="el::Callback\&lt; Performance\lTrackingData \&gt;">
<polygon fill="white" stroke="black" points="151.5,-465 151.5,-495 282.5,-495 282.5,-465 151.5,-465"/>
<text text-anchor="start" x="159.5" y="-483" font-family="Helvetica,sans-Serif" font-size="10.00">el::Callback&lt; Performance</text>
<text text-anchor="middle" x="217" y="-472" font-family="Helvetica,sans-Serif" font-size="10.00">TrackingData &gt;</text>
</a>
</g>
</g>
<!-- Node0&#45;&gt;Node19 -->
<g id="edge32" class="edge"><title>Node0&#45;&gt;Node19</title>
<path fill="none" stroke="darkgreen" d="M86.248,-526.337C100.599,-519.09 117.341,-511.155 133,-505 142.104,-501.422 151.936,-498.049 161.539,-495.008"/>
<polygon fill="darkgreen" stroke="darkgreen" points="84.5014,-523.3 77.1982,-530.975 87.6939,-529.529 84.5014,-523.3"/>
</g>
<!-- Node22 -->
<g id="node37" class="node"><title>Node22</title>
<g id="a_node37"><a xlink:href="classel_1_1base_1_1_typed_configurations.html" target="_top" xlink:title="Configurations with data types. ">
<polygon fill="white" stroke="black" points="144.5,-426.5 144.5,-445.5 289.5,-445.5 289.5,-426.5 144.5,-426.5"/>
<text text-anchor="middle" x="217" y="-433.5" font-family="Helvetica,sans-Serif" font-size="10.00">el::base::TypedConfigurations</text>
</a>
</g>
</g>
<!-- Node0&#45;&gt;Node22 -->
<g id="edge35" class="edge"><title>Node0&#45;&gt;Node22</title>
<path fill="none" stroke="midnightblue" d="M64.8559,-522.434C79.759,-501.494 104.293,-471.693 133,-455 139.645,-451.136 147.015,-448.058 154.542,-445.606"/>
<polygon fill="midnightblue" stroke="midnightblue" points="61.8795,-520.584 59.0744,-530.801 67.6385,-524.563 61.8795,-520.584"/>
</g>
<!-- Node23 -->
<g id="node38" class="node"><title>Node23</title>
<g id="a_node38"><a xlink:href="classel_1_1base_1_1utils_1_1_abstract_registry.html" target="_top" xlink:title="Abstract registry (aka repository) that provides basic interface for pointer repository specified by ...">
<polygon fill="white" stroke="black" points="146.5,-377 146.5,-407 287.5,-407 287.5,-377 146.5,-377"/>
<text text-anchor="start" x="154.5" y="-395" font-family="Helvetica,sans-Serif" font-size="10.00">el::base::utils::Abstract</text>
<text text-anchor="middle" x="217" y="-384" font-family="Helvetica,sans-Serif" font-size="10.00">Registry&lt; T_Ptr, Container &gt;</text>
</a>
</g>
</g>
<!-- Node0&#45;&gt;Node23 -->
<g id="edge36" class="edge"><title>Node0&#45;&gt;Node23</title>
<path fill="none" stroke="midnightblue" d="M59.1723,-521.311C71.8299,-492.17 96.7518,-444.24 133,-417 138.173,-413.112 143.95,-409.825 149.982,-407.047"/>
<polygon fill="midnightblue" stroke="midnightblue" points="55.8453,-520.195 55.2082,-530.77 62.3013,-522.9 55.8453,-520.195"/>
</g>
<!-- Node25 -->
<g id="node39" class="node"><title>Node25</title>
<g id="a_node39"><a xlink:href="classel_1_1_callback.html" target="_top" xlink:title="el::Callback\&lt; T \&gt;">
<polygon fill="white" stroke="black" points="171.5,-338.5 171.5,-357.5 262.5,-357.5 262.5,-338.5 171.5,-338.5"/>
<text text-anchor="middle" x="217" y="-345.5" font-family="Helvetica,sans-Serif" font-size="10.00">el::Callback&lt; T &gt;</text>
</a>
</g>
</g>
<!-- Node0&#45;&gt;Node25 -->
<g id="edge38" class="edge"><title>Node0&#45;&gt;Node25</title>
<path fill="none" stroke="darkgreen" d="M53.9912,-520.724C62.3239,-481.556 83.9986,-406.6 133,-367 143.808,-358.266 157.869,-353.384 171.337,-350.704"/>
<polygon fill="darkgreen" stroke="darkgreen" points="50.5126,-520.27 51.9831,-530.762 57.3766,-521.643 50.5126,-520.27"/>
</g>
<!-- Node2 -->
<g id="node18" class="node"><title>Node2</title>
<g id="a_node18"><a xlink:href="classel_1_1base_1_1utils_1_1_registry_with_pred.html" target="_top" xlink:title="el::base::utils::Registry\lWithPred\&lt; base::HitCounter,\l base::HitCounter::Predicate \&gt;">
<polygon fill="white" stroke="black" points="342,-842.5 342,-883.5 491,-883.5 491,-842.5 342,-842.5"/>
<text text-anchor="start" x="350" y="-871.5" font-family="Helvetica,sans-Serif" font-size="10.00">el::base::utils::Registry</text>
<text text-anchor="start" x="350" y="-860.5" font-family="Helvetica,sans-Serif" font-size="10.00">WithPred&lt; base::HitCounter,</text>
<text text-anchor="middle" x="416.5" y="-849.5" font-family="Helvetica,sans-Serif" font-size="10.00"> base::HitCounter::Predicate &gt;</text>
</a>
</g>
</g>
<!-- Node1&#45;&gt;Node2 -->
<g id="edge15" class="edge"><title>Node1&#45;&gt;Node2</title>
<path fill="none" stroke="midnightblue" d="M311.364,-863C321.585,-863 331.883,-863 341.818,-863"/>
<polygon fill="midnightblue" stroke="midnightblue" points="311.185,-859.5 301.185,-863 311.185,-866.5 311.185,-859.5"/>
</g>
<!-- Node3 -->
<g id="node19" class="node"><title>Node3</title>
<g id="a_node19"><a xlink:href="classel_1_1base_1_1_registered_hit_counters.html" target="_top" xlink:title="Repository for hit counters used across the application. ">
<polygon fill="white" stroke="black" points="532,-853.5 532,-872.5 687,-872.5 687,-853.5 532,-853.5"/>
<text text-anchor="middle" x="609.5" y="-860.5" font-family="Helvetica,sans-Serif" font-size="10.00">el::base::RegisteredHitCounters</text>
</a>
</g>
</g>
<!-- Node2&#45;&gt;Node3 -->
<g id="edge16" class="edge"><title>Node2&#45;&gt;Node3</title>
<path fill="none" stroke="midnightblue" d="M501.178,-863C511.361,-863 521.727,-863 531.802,-863"/>
<polygon fill="midnightblue" stroke="midnightblue" points="501.072,-859.5 491.072,-863 501.072,-866.5 501.072,-859.5"/>
</g>
<!-- Node5 -->
<g id="node21" class="node"><title>Node5</title>
<g id="a_node21"><a xlink:href="classel_1_1base_1_1utils_1_1_registry_with_pred.html" target="_top" xlink:title="el::base::utils::Registry\lWithPred\&lt; Configuration,\l Configuration::Predicate \&gt;">
<polygon fill="white" stroke="black" points="350.5,-782.5 350.5,-823.5 482.5,-823.5 482.5,-782.5 350.5,-782.5"/>
<text text-anchor="start" x="358.5" y="-811.5" font-family="Helvetica,sans-Serif" font-size="10.00">el::base::utils::Registry</text>
<text text-anchor="start" x="358.5" y="-800.5" font-family="Helvetica,sans-Serif" font-size="10.00">WithPred&lt; Configuration,</text>
<text text-anchor="middle" x="416.5" y="-789.5" font-family="Helvetica,sans-Serif" font-size="10.00"> Configuration::Predicate &gt;</text>
</a>
</g>
</g>
<!-- Node4&#45;&gt;Node5 -->
<g id="edge18" class="edge"><title>Node4&#45;&gt;Node5</title>
<path fill="none" stroke="midnightblue" d="M303.496,-803C319.246,-803 335.453,-803 350.477,-803"/>
<polygon fill="midnightblue" stroke="midnightblue" points="303.23,-799.5 293.23,-803 303.23,-806.5 303.23,-799.5"/>
</g>
<!-- Node6 -->
<g id="node22" class="node"><title>Node6</title>
<g id="a_node22"><a xlink:href="classel_1_1_configurations.html" target="_top" xlink:title="Thread&#45;safe Configuration repository. ">
<polygon fill="white" stroke="black" points="563.5,-793.5 563.5,-812.5 655.5,-812.5 655.5,-793.5 563.5,-793.5"/>
<text text-anchor="middle" x="609.5" y="-800.5" font-family="Helvetica,sans-Serif" font-size="10.00">el::Configurations</text>
</a>
</g>
</g>
<!-- Node5&#45;&gt;Node6 -->
<g id="edge19" class="edge"><title>Node5&#45;&gt;Node6</title>
<path fill="none" stroke="midnightblue" d="M492.812,-803C516.708,-803 542.372,-803 563.442,-803"/>
<polygon fill="midnightblue" stroke="midnightblue" points="492.697,-799.5 482.697,-803 492.697,-806.5 492.697,-799.5"/>
</g>
<!-- Node8 -->
<g id="node24" class="node"><title>Node8</title>
<g id="a_node24"><a xlink:href="classel_1_1base_1_1utils_1_1_registry.html" target="_top" xlink:title="el::base::utils::Registry\l\&lt; Logger, std::string \&gt;">
<polygon fill="white" stroke="black" points="358,-728 358,-758 475,-758 475,-728 358,-728"/>
<text text-anchor="start" x="366" y="-746" font-family="Helvetica,sans-Serif" font-size="10.00">el::base::utils::Registry</text>
<text text-anchor="middle" x="416.5" y="-735" font-family="Helvetica,sans-Serif" font-size="10.00">&lt; Logger, std::string &gt;</text>
</a>
</g>
</g>
<!-- Node7&#45;&gt;Node8 -->
<g id="edge21" class="edge"><title>Node7&#45;&gt;Node8</title>
<path fill="none" stroke="midnightblue" d="M299.678,-743C319.176,-743 339.591,-743 357.755,-743"/>
<polygon fill="midnightblue" stroke="midnightblue" points="299.581,-739.5 289.581,-743 299.581,-746.5 299.581,-739.5"/>
</g>
<!-- Node9 -->
<g id="node25" class="node"><title>Node9</title>
<g id="a_node25"><a xlink:href="classel_1_1base_1_1_registered_loggers.html" target="_top" xlink:title="Loggers repository. ">
<polygon fill="white" stroke="black" points="540.5,-733.5 540.5,-752.5 678.5,-752.5 678.5,-733.5 540.5,-733.5"/>
<text text-anchor="middle" x="609.5" y="-740.5" font-family="Helvetica,sans-Serif" font-size="10.00">el::base::RegisteredLoggers</text>
</a>
</g>
</g>
<!-- Node8&#45;&gt;Node9 -->
<g id="edge22" class="edge"><title>Node8&#45;&gt;Node9</title>
<path fill="none" stroke="midnightblue" d="M485.13,-743C503.029,-743 522.361,-743 540.291,-743"/>
<polygon fill="midnightblue" stroke="midnightblue" points="485.065,-739.5 475.065,-743 485.065,-746.5 485.065,-739.5"/>
</g>
<!-- Node11 -->
<g id="node27" class="node"><title>Node11</title>
<g id="a_node27"><a xlink:href="classel_1_1base_1_1utils_1_1_registry.html" target="_top" xlink:title="A pointer registry mechanism to manage memory and provide search functionalities. ...">
<polygon fill="white" stroke="black" points="358,-668 358,-698 475,-698 475,-668 358,-668"/>
<text text-anchor="start" x="366" y="-686" font-family="Helvetica,sans-Serif" font-size="10.00">el::base::utils::Registry</text>
<text text-anchor="middle" x="416.5" y="-675" font-family="Helvetica,sans-Serif" font-size="10.00">&lt; T_Ptr, T_Key &gt;</text>
</a>
</g>
</g>
<!-- Node10&#45;&gt;Node11 -->
<g id="edge24" class="edge"><title>Node10&#45;&gt;Node11</title>
<path fill="none" stroke="midnightblue" d="M291.781,-683C313.572,-683 337.098,-683 357.726,-683"/>
<polygon fill="midnightblue" stroke="midnightblue" points="291.577,-679.5 281.577,-683 291.577,-686.5 291.577,-679.5"/>
</g>
<!-- Node13 -->
<g id="node29" class="node"><title>Node13</title>
<g id="a_node29"><a xlink:href="classel_1_1base_1_1utils_1_1_registry_with_pred.html" target="_top" xlink:title="A pointer registry mechanism to manage memory and provide search functionalities. ...">
<polygon fill="white" stroke="black" points="354,-608 354,-638 479,-638 479,-608 354,-608"/>
<text text-anchor="start" x="362" y="-626" font-family="Helvetica,sans-Serif" font-size="10.00">el::base::utils::Registry</text>
<text text-anchor="middle" x="416.5" y="-615" font-family="Helvetica,sans-Serif" font-size="10.00">WithPred&lt; T_Ptr, Pred &gt;</text>
</a>
</g>
</g>
<!-- Node12&#45;&gt;Node13 -->
<g id="edge26" class="edge"><title>Node12&#45;&gt;Node13</title>
<path fill="none" stroke="midnightblue" d="M295.191,-623C314.649,-623 335.28,-623 353.861,-623"/>
<polygon fill="midnightblue" stroke="midnightblue" points="295.14,-619.5 285.14,-623 295.14,-626.5 295.14,-619.5"/>
</g>
<!-- Node15 -->
<g id="node31" class="node"><title>Node15</title>
<g id="a_node31"><a xlink:href="classel_1_1_log_dispatch_callback.html" target="_top" xlink:title="el::LogDispatchCallback">
<polygon fill="white" stroke="black" points="355.5,-558.5 355.5,-577.5 477.5,-577.5 477.5,-558.5 355.5,-558.5"/>
<text text-anchor="middle" x="416.5" y="-565.5" font-family="Helvetica,sans-Serif" font-size="10.00">el::LogDispatchCallback</text>
</a>
</g>
</g>
<!-- Node14&#45;&gt;Node15 -->
<g id="edge28" class="edge"><title>Node14&#45;&gt;Node15</title>
<path fill="none" stroke="midnightblue" d="M292.696,-568C313.403,-568 335.612,-568 355.372,-568"/>
<polygon fill="midnightblue" stroke="midnightblue" points="292.669,-564.5 282.669,-568 292.669,-571.5 292.669,-564.5"/>
</g>
<!-- Node16 -->
<g id="node32" class="node"><title>Node16</title>
<g id="a_node32"><a xlink:href="classel_1_1base_1_1_default_log_dispatch_callback.html" target="_top" xlink:title="el::base::DefaultLogDispatch\lCallback">
<polygon fill="white" stroke="black" points="539,-553 539,-583 680,-583 680,-553 539,-553"/>
<text text-anchor="start" x="547" y="-571" font-family="Helvetica,sans-Serif" font-size="10.00">el::base::DefaultLogDispatch</text>
<text text-anchor="middle" x="609.5" y="-560" font-family="Helvetica,sans-Serif" font-size="10.00">Callback</text>
</a>
</g>
</g>
<!-- Node15&#45;&gt;Node16 -->
<g id="edge29" class="edge"><title>Node15&#45;&gt;Node16</title>
<path fill="none" stroke="midnightblue" d="M487.889,-568C504.56,-568 522.33,-568 538.963,-568"/>
<polygon fill="midnightblue" stroke="midnightblue" points="487.671,-564.5 477.671,-568 487.671,-571.5 487.671,-564.5"/>
</g>
<!-- Node18 -->
<g id="node34" class="node"><title>Node18</title>
<g id="a_node34"><a xlink:href="classel_1_1_logger_registration_callback.html" target="_top" xlink:title="el::LoggerRegistrationCallback">
<polygon fill="white" stroke="black" points="342,-514.5 342,-533.5 491,-533.5 491,-514.5 342,-514.5"/>
<text text-anchor="middle" x="416.5" y="-521.5" font-family="Helvetica,sans-Serif" font-size="10.00">el::LoggerRegistrationCallback</text>
</a>
</g>
</g>
<!-- Node17&#45;&gt;Node18 -->
<g id="edge31" class="edge"><title>Node17&#45;&gt;Node18</title>
<path fill="none" stroke="midnightblue" d="M284.637,-524C303.055,-524 323.145,-524 341.932,-524"/>
<polygon fill="midnightblue" stroke="midnightblue" points="284.596,-520.5 274.596,-524 284.596,-527.5 284.596,-520.5"/>
</g>
<!-- Node20 -->
<g id="node36" class="node"><title>Node20</title>
<g id="a_node36"><a xlink:href="classel_1_1_performance_tracking_callback.html" target="_top" xlink:title="el::PerformanceTrackingCallback">
<polygon fill="white" stroke="black" points="337,-470.5 337,-489.5 496,-489.5 496,-470.5 337,-470.5"/>
<text text-anchor="middle" x="416.5" y="-477.5" font-family="Helvetica,sans-Serif" font-size="10.00">el::PerformanceTrackingCallback</text>
</a>
</g>
</g>
<!-- Node19&#45;&gt;Node20 -->
<g id="edge33" class="edge"><title>Node19&#45;&gt;Node20</title>
<path fill="none" stroke="midnightblue" d="M292.984,-480C307.349,-480 322.427,-480 336.902,-480"/>
<polygon fill="midnightblue" stroke="midnightblue" points="292.669,-476.5 282.669,-480 292.669,-483.5 292.669,-476.5"/>
</g>
</g>
</svg>
