<?xml version="1.0" encoding="UTF-8" standalone="no"?>
<!DOCTYPE svg PUBLIC "-//W3C//DTD SVG 1.1//EN"
 "http://www.w3.org/Graphics/SVG/1.1/DTD/svg11.dtd">
<!-- Generated by graphviz version 2.38.0 (20140413.2041)
 -->
<!-- Title: el::base::threading::getCurrentThreadId Pages: 1 -->
<svg width="285pt" height="127pt"
 viewBox="0.00 0.00 285.00 127.00" xmlns="http://www.w3.org/2000/svg" xmlns:xlink="http://www.w3.org/1999/xlink">
<g id="graph0" class="graph" transform="scale(1 1) rotate(0) translate(4 123)">
<title>el::base::threading::getCurrentThreadId</title>
<polygon fill="white" stroke="none" points="-4,4 -4,-123 281,-123 281,4 -4,4"/>
<!-- Node1 -->
<g id="node1" class="node"><title>Node1</title>
<polygon fill="#bfbfbf" stroke="black" points="0,-44.5 0,-74.5 104,-74.5 104,-44.5 0,-44.5"/>
<text text-anchor="start" x="8" y="-62.5" font-family="Helvetica,sans-Serif" font-size="10.00">el::base::threading</text>
<text text-anchor="middle" x="52" y="-51.5" font-family="Helvetica,sans-Serif" font-size="10.00">::getCurrentThreadId</text>
</g>
<!-- Node2 -->
<g id="node2" class="node"><title>Node2</title>
<g id="a_node2"><a xlink:href="classel_1_1base_1_1_default_log_builder.html#a9ee7983bc51f1fac887806e909ecbbbd" target="_top" xlink:title="el::base::DefaultLogBuilder\l::build">
<polygon fill="white" stroke="black" points="142,-88.5 142,-118.5 275,-118.5 275,-88.5 142,-88.5"/>
<text text-anchor="start" x="150" y="-106.5" font-family="Helvetica,sans-Serif" font-size="10.00">el::base::DefaultLogBuilder</text>
<text text-anchor="middle" x="208.5" y="-95.5" font-family="Helvetica,sans-Serif" font-size="10.00">::build</text>
</a>
</g>
</g>
<!-- Node1&#45;&gt;Node2 -->
<g id="edge1" class="edge"><title>Node1&#45;&gt;Node2</title>
<path fill="none" stroke="midnightblue" d="M113.721,-76.7927C127.255,-80.647 141.498,-84.7034 154.684,-88.4584"/>
<polygon fill="midnightblue" stroke="midnightblue" points="114.594,-73.4021 104.017,-74.0292 112.676,-80.1344 114.594,-73.4021"/>
</g>
<!-- Node3 -->
<g id="node3" class="node"><title>Node3</title>
<g id="a_node3"><a xlink:href="classel_1_1_helpers.html#ae19cb3baa6d8081a9e922736a384f70b" target="_top" xlink:title="el::Helpers::getThreadName">
<polygon fill="white" stroke="black" points="140,-50 140,-69 277,-69 277,-50 140,-50"/>
<text text-anchor="middle" x="208.5" y="-57" font-family="Helvetica,sans-Serif" font-size="10.00">el::Helpers::getThreadName</text>
</a>
</g>
</g>
<!-- Node1&#45;&gt;Node3 -->
<g id="edge2" class="edge"><title>Node1&#45;&gt;Node3</title>
<path fill="none" stroke="midnightblue" d="M114.115,-59.5C122.526,-59.5 131.204,-59.5 139.725,-59.5"/>
<polygon fill="midnightblue" stroke="midnightblue" points="114.017,-56.0001 104.017,-59.5 114.017,-63.0001 114.017,-56.0001"/>
</g>
<!-- Node4 -->
<g id="node4" class="node"><title>Node4</title>
<g id="a_node4"><a xlink:href="classel_1_1base_1_1_storage.html#a1800a786d72b003997dd8d2599b040e0" target="_top" xlink:title="Sets thread name for current thread. Requires std::thread. ">
<polygon fill="white" stroke="black" points="160,-0.5 160,-30.5 257,-30.5 257,-0.5 160,-0.5"/>
<text text-anchor="start" x="168" y="-18.5" font-family="Helvetica,sans-Serif" font-size="10.00">el::base::Storage::</text>
<text text-anchor="middle" x="208.5" y="-7.5" font-family="Helvetica,sans-Serif" font-size="10.00">setThreadName</text>
</a>
</g>
</g>
<!-- Node1&#45;&gt;Node4 -->
<g id="edge3" class="edge"><title>Node1&#45;&gt;Node4</title>
<path fill="none" stroke="midnightblue" d="M113.913,-42.1526C129.208,-37.7967 145.399,-33.1856 159.936,-29.0457"/>
<polygon fill="midnightblue" stroke="midnightblue" points="112.676,-38.8656 104.017,-44.9708 114.594,-45.5979 112.676,-38.8656"/>
</g>
</g>
</svg>
