<?xml version="1.0" encoding="UTF-8" standalone="no"?>
<!DOCTYPE svg PUBLIC "-//W3C//DTD SVG 1.1//EN"
 "http://www.w3.org/Graphics/SVG/1.1/DTD/svg11.dtd">
<!-- Generated by graphviz version 2.38.0 (20140413.2041)
 -->
<!-- Title: vpr::ScoreDevice Pages: 1 -->
<svg width="446pt" height="39pt"
 viewBox="0.00 0.00 446.00 39.00" xmlns="http://www.w3.org/2000/svg" xmlns:xlink="http://www.w3.org/1999/xlink">
<g id="graph0" class="graph" transform="scale(1 1) rotate(0) translate(4 35)">
<title>vpr::ScoreDevice</title>
<polygon fill="white" stroke="none" points="-4,4 -4,-35 442,-35 442,4 -4,4"/>
<!-- Node46 -->
<g id="node1" class="node"><title>Node46</title>
<polygon fill="#bfbfbf" stroke="black" points="0,-6 0,-25 89,-25 89,-6 0,-6"/>
<text text-anchor="middle" x="44.5" y="-13" font-family="Helvetica,sans-Serif" font-size="10.00">vpr::ScoreDevice</text>
</g>
<!-- Node47 -->
<g id="node2" class="node"><title>Node47</title>
<g id="a_node2"><a xlink:href="namespacevpr.html#add78d0571fc38d8ee80c540f9754ca50" target="_top" xlink:title="vpr::PopulatePhysicalDeviceMap">
<polygon fill="white" stroke="black" points="125,-6 125,-25 283,-25 283,-6 125,-6"/>
<text text-anchor="middle" x="204" y="-13" font-family="Helvetica,sans-Serif" font-size="10.00">vpr::PopulatePhysicalDeviceMap</text>
</a>
</g>
</g>
<!-- Node46&#45;&gt;Node47 -->
<g id="edge1" class="edge"><title>Node46&#45;&gt;Node47</title>
<path fill="none" stroke="midnightblue" d="M99.5382,-15.5C107.757,-15.5 116.375,-15.5 124.982,-15.5"/>
<polygon fill="midnightblue" stroke="midnightblue" points="99.3726,-12.0001 89.3725,-15.5 99.3725,-19.0001 99.3726,-12.0001"/>
</g>
<!-- Node48 -->
<g id="node3" class="node"><title>Node48</title>
<g id="a_node3"><a xlink:href="classvpr_1_1_physical_device_impl.html#aa96226c99de9aff7ad9f6e7b96e89444" target="_top" xlink:title="vpr::PhysicalDeviceImpl\l::PhysicalDeviceImpl">
<polygon fill="white" stroke="black" points="319,-0.5 319,-30.5 438,-30.5 438,-0.5 319,-0.5"/>
<text text-anchor="start" x="327" y="-18.5" font-family="Helvetica,sans-Serif" font-size="10.00">vpr::PhysicalDeviceImpl</text>
<text text-anchor="middle" x="378.5" y="-7.5" font-family="Helvetica,sans-Serif" font-size="10.00">::PhysicalDeviceImpl</text>
</a>
</g>
</g>
<!-- Node47&#45;&gt;Node48 -->
<g id="edge2" class="edge"><title>Node47&#45;&gt;Node48</title>
<path fill="none" stroke="midnightblue" d="M293.358,-15.5C302.039,-15.5 310.692,-15.5 318.964,-15.5"/>
<polygon fill="midnightblue" stroke="midnightblue" points="293.175,-12.0001 283.175,-15.5 293.175,-19.0001 293.175,-12.0001"/>
</g>
</g>
</svg>
