<?xml version="1.0" encoding="UTF-8" standalone="no"?>
<!DOCTYPE svg PUBLIC "-//W3C//DTD SVG 1.1//EN"
 "http://www.w3.org/Graphics/SVG/1.1/DTD/svg11.dtd">
<!-- Generated by graphviz version 2.38.0 (20140413.2041)
 -->
<!-- Title: vpr::VkDebugCallbackFn Pages: 1 -->
<svg width="469pt" height="39pt"
 viewBox="0.00 0.00 469.00 39.00" xmlns="http://www.w3.org/2000/svg" xmlns:xlink="http://www.w3.org/1999/xlink">
<g id="graph0" class="graph" transform="scale(1 1) rotate(0) translate(4 35)">
<title>vpr::VkDebugCallbackFn</title>
<polygon fill="white" stroke="none" points="-4,4 -4,-35 465,-35 465,4 -4,4"/>
<!-- Node51 -->
<g id="node1" class="node"><title>Node51</title>
<polygon fill="#bfbfbf" stroke="black" points="0,-6 0,-25 123,-25 123,-6 0,-6"/>
<text text-anchor="middle" x="61.5" y="-13" font-family="Helvetica,sans-Serif" font-size="10.00">vpr::VkDebugCallbackFn</text>
</g>
<!-- Node52 -->
<g id="node2" class="node"><title>Node52</title>
<g id="a_node2"><a xlink:href="classvpr_1_1_instance.html#a6bda35727942a76ac88f80ebf275ac91" target="_top" xlink:title="vpr::Instance::prepareValidation\lCallbacks">
<polygon fill="white" stroke="black" points="159,-0.5 159,-30.5 311,-30.5 311,-0.5 159,-0.5"/>
<text text-anchor="start" x="167" y="-18.5" font-family="Helvetica,sans-Serif" font-size="10.00">vpr::Instance::prepareValidation</text>
<text text-anchor="middle" x="235" y="-7.5" font-family="Helvetica,sans-Serif" font-size="10.00">Callbacks</text>
</a>
</g>
</g>
<!-- Node51&#45;&gt;Node52 -->
<g id="edge1" class="edge"><title>Node51&#45;&gt;Node52</title>
<path fill="none" stroke="midnightblue" d="M133.523,-15.5C141.879,-15.5 150.427,-15.5 158.838,-15.5"/>
<polygon fill="midnightblue" stroke="midnightblue" points="133.447,-12.0001 123.447,-15.5 133.447,-19.0001 133.447,-12.0001"/>
</g>
<!-- Node53 -->
<g id="node3" class="node"><title>Node53</title>
<g id="a_node3"><a xlink:href="classvpr_1_1_instance.html#a875cd0ca8909a26c346b9d83b85280a2" target="_top" xlink:title="vpr::Instance::Instance">
<polygon fill="white" stroke="black" points="347,-6 347,-25 461,-25 461,-6 347,-6"/>
<text text-anchor="middle" x="404" y="-13" font-family="Helvetica,sans-Serif" font-size="10.00">vpr::Instance::Instance</text>
</a>
</g>
</g>
<!-- Node52&#45;&gt;Node53 -->
<g id="edge2" class="edge"><title>Node52&#45;&gt;Node53</title>
<path fill="none" stroke="midnightblue" d="M321.308,-15.5C329.931,-15.5 338.529,-15.5 346.732,-15.5"/>
<polygon fill="midnightblue" stroke="midnightblue" points="321.195,-12.0001 311.195,-15.5 321.195,-19.0001 321.195,-12.0001"/>
</g>
</g>
</svg>
