<?xml version="1.0" encoding="UTF-8" standalone="no"?>
<!DOCTYPE svg PUBLIC "-//W3C//DTD SVG 1.1//EN"
 "http://www.w3.org/Graphics/SVG/1.1/DTD/svg11.dtd">
<!-- Generated by graphviz version 2.38.0 (20140413.2041)
 -->
<!-- Title: vpr::RecreateSwapchainAndSurface Pages: 1 -->
<svg width="841pt" height="360pt"
 viewBox="0.00 0.00 841.00 360.00" xmlns="http://www.w3.org/2000/svg" xmlns:xlink="http://www.w3.org/1999/xlink">
<g id="graph0" class="graph" transform="scale(1 1) rotate(0) translate(4 356)">
<title>vpr::RecreateSwapchainAndSurface</title>
<polygon fill="white" stroke="none" points="-4,4 -4,-356 837,-356 837,4 -4,4"/>
<!-- Node23 -->
<g id="node1" class="node"><title>Node23</title>
<polygon fill="#bfbfbf" stroke="black" points="0,-217.5 0,-247.5 138,-247.5 138,-217.5 0,-217.5"/>
<text text-anchor="start" x="8" y="-235.5" font-family="Helvetica,sans-Serif" font-size="10.00">vpr::RecreateSwapchainAnd</text>
<text text-anchor="middle" x="69" y="-224.5" font-family="Helvetica,sans-Serif" font-size="10.00">Surface</text>
</g>
<!-- Node24 -->
<g id="node2" class="node"><title>Node24</title>
<g id="a_node2"><a xlink:href="classvpr_1_1_swapchain.html#af29e2c4245bd5694afadc579783e5432" target="_top" xlink:title="vpr::Swapchain::Destroy">
<polygon fill="white" stroke="black" points="179.5,-305 179.5,-324 301.5,-324 301.5,-305 179.5,-305"/>
<text text-anchor="middle" x="240.5" y="-312" font-family="Helvetica,sans-Serif" font-size="10.00">vpr::Swapchain::Destroy</text>
</a>
</g>
</g>
<!-- Node23&#45;&gt;Node24 -->
<g id="edge1" class="edge"><title>Node23&#45;&gt;Node24</title>
<path fill="none" stroke="midnightblue" d="M101.089,-247.54C132.308,-262.643 180.029,-285.729 210.489,-300.465"/>
<polygon fill="midnightblue" stroke="midnightblue" points="209.203,-303.731 219.73,-304.936 212.252,-297.43 209.203,-303.731"/>
</g>
<!-- Node26 -->
<g id="node4" class="node"><title>Node26</title>
<g id="a_node4"><a xlink:href="classvpr_1_1_surface_k_h_r.html#a35b9db127a998f70bea3ebbdeef97f5d" target="_top" xlink:title="vpr::SurfaceKHR::Recreate">
<polygon fill="white" stroke="black" points="174,-245 174,-264 307,-264 307,-245 174,-245"/>
<text text-anchor="middle" x="240.5" y="-252" font-family="Helvetica,sans-Serif" font-size="10.00">vpr::SurfaceKHR::Recreate</text>
</a>
</g>
</g>
<!-- Node23&#45;&gt;Node26 -->
<g id="edge3" class="edge"><title>Node23&#45;&gt;Node26</title>
<path fill="none" stroke="midnightblue" d="M138.454,-241.385C146.749,-242.462 155.262,-243.566 163.656,-244.656"/>
<polygon fill="midnightblue" stroke="midnightblue" points="163.447,-248.158 173.814,-245.974 164.348,-241.216 163.447,-248.158"/>
</g>
<!-- Node31 -->
<g id="node9" class="node"><title>Node31</title>
<g id="a_node9"><a xlink:href="classvpr_1_1_swapchain.html#a34c3d73db1e99d3a395398fc0dbb5dc6" target="_top" xlink:title="vpr::Swapchain::Recreate">
<polygon fill="white" stroke="black" points="177,-201 177,-220 304,-220 304,-201 177,-201"/>
<text text-anchor="middle" x="240.5" y="-208" font-family="Helvetica,sans-Serif" font-size="10.00">vpr::Swapchain::Recreate</text>
</a>
</g>
</g>
<!-- Node23&#45;&gt;Node31 -->
<g id="edge9" class="edge"><title>Node23&#45;&gt;Node31</title>
<path fill="none" stroke="midnightblue" d="M138.454,-223.615C147.765,-222.407 157.349,-221.163 166.733,-219.945"/>
<polygon fill="midnightblue" stroke="midnightblue" points="167.349,-223.394 176.815,-218.636 166.448,-216.452 167.349,-223.394"/>
</g>
<!-- Node41 -->
<g id="node19" class="node"><title>Node41</title>
<g id="a_node19"><a xlink:href="classvpr_1_1_surface_k_h_r.html#a07171777b06b36cb0e6874cdcb2f9e4e" target="_top" xlink:title="vpr::SurfaceKHR::vkHandle">
<polygon fill="white" stroke="black" points="174,-163 174,-182 307,-182 307,-163 174,-163"/>
<text text-anchor="middle" x="240.5" y="-170" font-family="Helvetica,sans-Serif" font-size="10.00">vpr::SurfaceKHR::vkHandle</text>
</a>
</g>
</g>
<!-- Node23&#45;&gt;Node41 -->
<g id="edge19" class="edge"><title>Node23&#45;&gt;Node41</title>
<path fill="none" stroke="midnightblue" d="M105.792,-217.436C125.707,-209.295 151.041,-199.337 174,-191.5 180.55,-189.264 187.524,-187.059 194.386,-184.987"/>
<polygon fill="midnightblue" stroke="midnightblue" points="195.7,-188.248 204.299,-182.058 193.717,-181.535 195.7,-188.248"/>
</g>
<!-- Node25 -->
<g id="node3" class="node"><title>Node25</title>
<g id="a_node3"><a xlink:href="structvpr_1_1_swapchain_impl.html#a3c2995780e90567ea32d6b6f72c5d891" target="_top" xlink:title="vpr::SwapchainImpl\l::destroy">
<polygon fill="white" stroke="black" points="356,-321.5 356,-351.5 456,-351.5 456,-321.5 356,-321.5"/>
<text text-anchor="start" x="364" y="-339.5" font-family="Helvetica,sans-Serif" font-size="10.00">vpr::SwapchainImpl</text>
<text text-anchor="middle" x="406" y="-328.5" font-family="Helvetica,sans-Serif" font-size="10.00">::destroy</text>
</a>
</g>
</g>
<!-- Node24&#45;&gt;Node25 -->
<g id="edge2" class="edge"><title>Node24&#45;&gt;Node25</title>
<path fill="none" stroke="midnightblue" d="M301.917,-322.629C316.191,-324.55 331.398,-326.596 345.625,-328.511"/>
<polygon fill="midnightblue" stroke="midnightblue" points="345.407,-332.013 355.784,-329.878 346.34,-325.075 345.407,-332.013"/>
</g>
<!-- Node27 -->
<g id="node5" class="node"><title>Node27</title>
<g id="a_node5"><a xlink:href="classvpr_1_1_surface_k_h_r.html#a1083d46de78e533a1cabba07b62e1950" target="_top" xlink:title="vpr::SurfaceKHR::destroy">
<polygon fill="white" stroke="black" points="343,-283 343,-302 469,-302 469,-283 343,-283"/>
<text text-anchor="middle" x="406" y="-290" font-family="Helvetica,sans-Serif" font-size="10.00">vpr::SurfaceKHR::destroy</text>
</a>
</g>
</g>
<!-- Node26&#45;&gt;Node27 -->
<g id="edge4" class="edge"><title>Node26&#45;&gt;Node27</title>
<path fill="none" stroke="midnightblue" d="M282.758,-264.089C304.431,-269.126 331.183,-275.344 354.13,-280.677"/>
<polygon fill="midnightblue" stroke="midnightblue" points="353.506,-284.125 364.039,-282.98 355.091,-277.307 353.506,-284.125"/>
</g>
<!-- Node29 -->
<g id="node7" class="node"><title>Node29</title>
<g id="a_node7"><a xlink:href="classvpr_1_1_surface_k_h_r.html#a2c27a5198682d3069e0936dbeb0f24b4" target="_top" xlink:title="vpr::SurfaceKHR::create">
<polygon fill="white" stroke="black" points="345.5,-245 345.5,-264 466.5,-264 466.5,-245 345.5,-245"/>
<text text-anchor="middle" x="406" y="-252" font-family="Helvetica,sans-Serif" font-size="10.00">vpr::SurfaceKHR::create</text>
</a>
</g>
</g>
<!-- Node26&#45;&gt;Node29 -->
<g id="edge6" class="edge"><title>Node26&#45;&gt;Node29</title>
<path fill="none" stroke="midnightblue" d="M307.06,-254.5C316.324,-254.5 325.878,-254.5 335.218,-254.5"/>
<polygon fill="midnightblue" stroke="midnightblue" points="335.246,-258 345.246,-254.5 335.246,-251 335.246,-258"/>
</g>
<!-- Node28 -->
<g id="node6" class="node"><title>Node28</title>
<g id="a_node6"><a xlink:href="classvpr_1_1_instance.html#a6082a006a3f2ab9688d4a14c123cb04a" target="_top" xlink:title="vpr::Instance::vkHandle">
<polygon fill="white" stroke="black" points="533.5,-285 533.5,-304 649.5,-304 649.5,-285 533.5,-285"/>
<text text-anchor="middle" x="591.5" y="-292" font-family="Helvetica,sans-Serif" font-size="10.00">vpr::Instance::vkHandle</text>
</a>
</g>
</g>
<!-- Node27&#45;&gt;Node28 -->
<g id="edge5" class="edge"><title>Node27&#45;&gt;Node28</title>
<path fill="none" stroke="midnightblue" d="M469.125,-293.177C486.508,-293.367 505.48,-293.573 523.151,-293.766"/>
<polygon fill="midnightblue" stroke="midnightblue" points="523.345,-297.268 533.383,-293.877 523.421,-290.269 523.345,-297.268"/>
</g>
<!-- Node29&#45;&gt;Node28 -->
<g id="edge7" class="edge"><title>Node29&#45;&gt;Node28</title>
<path fill="none" stroke="midnightblue" d="M450.953,-264.081C476.827,-269.721 509.738,-276.895 537.1,-282.86"/>
<polygon fill="midnightblue" stroke="midnightblue" points="536.39,-286.287 546.906,-284.997 537.881,-279.448 536.39,-286.287"/>
</g>
<!-- Node30 -->
<g id="node8" class="node"><title>Node30</title>
<g id="a_node8"><a xlink:href="classvpr_1_1_surface_k_h_r.html#a0ef5949ff27a03d9281576b1b5c99c35" target="_top" xlink:title="vpr::SurfaceKHR::VerifyPresentation\lSupport">
<polygon fill="white" stroke="black" points="505,-235.5 505,-265.5 678,-265.5 678,-235.5 505,-235.5"/>
<text text-anchor="start" x="513" y="-253.5" font-family="Helvetica,sans-Serif" font-size="10.00">vpr::SurfaceKHR::VerifyPresentation</text>
<text text-anchor="middle" x="591.5" y="-242.5" font-family="Helvetica,sans-Serif" font-size="10.00">Support</text>
</a>
</g>
</g>
<!-- Node29&#45;&gt;Node30 -->
<g id="edge8" class="edge"><title>Node29&#45;&gt;Node30</title>
<path fill="none" stroke="midnightblue" d="M466.577,-253.201C475.665,-253.003 485.234,-252.795 494.861,-252.585"/>
<polygon fill="midnightblue" stroke="midnightblue" points="494.974,-256.083 504.896,-252.366 494.822,-249.085 494.974,-256.083"/>
</g>
<!-- Node32 -->
<g id="node10" class="node"><title>Node32</title>
<g id="a_node10"><a xlink:href="classvpr_1_1_device.html#a25e0b05bb662b335ec214295c46654cc" target="_top" xlink:title="vpr::Device::GetPhysical\lDevice">
<polygon fill="white" stroke="black" points="345,-195.5 345,-225.5 467,-225.5 467,-195.5 345,-195.5"/>
<text text-anchor="start" x="353" y="-213.5" font-family="Helvetica,sans-Serif" font-size="10.00">vpr::Device::GetPhysical</text>
<text text-anchor="middle" x="406" y="-202.5" font-family="Helvetica,sans-Serif" font-size="10.00">Device</text>
</a>
</g>
</g>
<!-- Node31&#45;&gt;Node32 -->
<g id="edge10" class="edge"><title>Node31&#45;&gt;Node32</title>
<path fill="none" stroke="midnightblue" d="M304.246,-210.5C314.242,-210.5 324.639,-210.5 334.794,-210.5"/>
<polygon fill="midnightblue" stroke="midnightblue" points="334.844,-214 344.844,-210.5 334.844,-207 334.844,-214"/>
</g>
<!-- Node33 -->
<g id="node11" class="node"><title>Node33</title>
<g id="a_node11"><a xlink:href="classvpr_1_1_physical_device.html#a00de7d3556d98b1cfda28d1f769f8fa8" target="_top" xlink:title="vpr::PhysicalDevice\l::vkHandle">
<polygon fill="white" stroke="black" points="355.5,-146.5 355.5,-176.5 456.5,-176.5 456.5,-146.5 355.5,-146.5"/>
<text text-anchor="start" x="363.5" y="-164.5" font-family="Helvetica,sans-Serif" font-size="10.00">vpr::PhysicalDevice</text>
<text text-anchor="middle" x="406" y="-153.5" font-family="Helvetica,sans-Serif" font-size="10.00">::vkHandle</text>
</a>
</g>
</g>
<!-- Node31&#45;&gt;Node33 -->
<g id="edge11" class="edge"><title>Node31&#45;&gt;Node33</title>
<path fill="none" stroke="midnightblue" d="M274.849,-200.929C285.165,-197.941 296.561,-194.612 307,-191.5 319.841,-187.672 333.607,-183.501 346.643,-179.519"/>
<polygon fill="midnightblue" stroke="midnightblue" points="347.904,-182.793 356.442,-176.519 345.856,-176.099 347.904,-182.793"/>
</g>
<!-- Node34 -->
<g id="node12" class="node"><title>Node34</title>
<g id="a_node12"><a xlink:href="structvpr_1_1_swapchain_impl.html#a26979c4e9803da67ef61bf098377b341" target="_top" xlink:title="vpr::SwapchainImpl\l::create">
<polygon fill="white" stroke="black" points="356,-94.5 356,-124.5 456,-124.5 456,-94.5 356,-94.5"/>
<text text-anchor="start" x="364" y="-112.5" font-family="Helvetica,sans-Serif" font-size="10.00">vpr::SwapchainImpl</text>
<text text-anchor="middle" x="406" y="-101.5" font-family="Helvetica,sans-Serif" font-size="10.00">::create</text>
</a>
</g>
</g>
<!-- Node31&#45;&gt;Node34 -->
<g id="edge12" class="edge"><title>Node31&#45;&gt;Node34</title>
<path fill="none" stroke="midnightblue" d="M289.546,-200.915C295.755,-198.458 301.764,-195.372 307,-191.5 330.489,-174.128 320.673,-155.343 343,-136.5 345.993,-133.974 349.259,-131.648 352.675,-129.512"/>
<polygon fill="midnightblue" stroke="midnightblue" points="354.415,-132.55 361.41,-124.592 350.979,-126.451 354.415,-132.55"/>
</g>
<!-- Node35 -->
<g id="node13" class="node"><title>Node35</title>
<g id="a_node13"><a xlink:href="structvpr_1_1_swapchain_impl.html#afdf0ef2711d213b7020b37785a62a7ad" target="_top" xlink:title="vpr::SwapchainImpl\l::setParameters">
<polygon fill="white" stroke="black" points="541.5,-186.5 541.5,-216.5 641.5,-216.5 641.5,-186.5 541.5,-186.5"/>
<text text-anchor="start" x="549.5" y="-204.5" font-family="Helvetica,sans-Serif" font-size="10.00">vpr::SwapchainImpl</text>
<text text-anchor="middle" x="591.5" y="-193.5" font-family="Helvetica,sans-Serif" font-size="10.00">::setParameters</text>
</a>
</g>
</g>
<!-- Node34&#45;&gt;Node35 -->
<g id="edge13" class="edge"><title>Node34&#45;&gt;Node35</title>
<path fill="none" stroke="midnightblue" d="M448.373,-124.556C455.547,-127.982 462.713,-131.97 469,-136.5 488.405,-150.481 484.751,-163.771 505,-176.5 513.163,-181.632 522.42,-185.746 531.756,-189.035"/>
<polygon fill="midnightblue" stroke="midnightblue" points="530.878,-192.43 541.469,-192.172 533.029,-185.768 530.878,-192.43"/>
</g>
<!-- Node37 -->
<g id="node15" class="node"><title>Node37</title>
<g id="a_node15"><a xlink:href="structvpr_1_1_swapchain_impl.html#a455468d3084cd9503a64f02d3b53956d" target="_top" xlink:title="vpr::SwapchainImpl\l::setupCreateInfo">
<polygon fill="white" stroke="black" points="541.5,-137.5 541.5,-167.5 641.5,-167.5 641.5,-137.5 541.5,-137.5"/>
<text text-anchor="start" x="549.5" y="-155.5" font-family="Helvetica,sans-Serif" font-size="10.00">vpr::SwapchainImpl</text>
<text text-anchor="middle" x="591.5" y="-144.5" font-family="Helvetica,sans-Serif" font-size="10.00">::setupCreateInfo</text>
</a>
</g>
</g>
<!-- Node34&#45;&gt;Node37 -->
<g id="edge15" class="edge"><title>Node34&#45;&gt;Node37</title>
<path fill="none" stroke="midnightblue" d="M456.175,-121.023C479.315,-126.446 507.097,-132.956 531.375,-138.645"/>
<polygon fill="midnightblue" stroke="midnightblue" points="530.655,-142.071 541.19,-140.945 532.252,-135.256 530.655,-142.071"/>
</g>
<!-- Node38 -->
<g id="node16" class="node"><title>Node38</title>
<g id="a_node16"><a xlink:href="classvpr_1_1_device.html#a59882855173bef0b13a17b376ea01d45" target="_top" xlink:title="vpr::Device::vkHandle">
<polygon fill="white" stroke="black" points="537.5,-99 537.5,-118 645.5,-118 645.5,-99 537.5,-99"/>
<text text-anchor="middle" x="591.5" y="-106" font-family="Helvetica,sans-Serif" font-size="10.00">vpr::Device::vkHandle</text>
</a>
</g>
</g>
<!-- Node34&#45;&gt;Node38 -->
<g id="edge16" class="edge"><title>Node34&#45;&gt;Node38</title>
<path fill="none" stroke="midnightblue" d="M456.175,-109.232C477.999,-109.113 503.953,-108.972 527.203,-108.845"/>
<polygon fill="midnightblue" stroke="midnightblue" points="527.343,-112.344 537.324,-108.79 527.305,-105.344 527.343,-112.344"/>
</g>
<!-- Node39 -->
<g id="node17" class="node"><title>Node39</title>
<g id="a_node17"><a xlink:href="structvpr_1_1_swapchain_impl.html#acc94e08e83ec3857bffdea08e9b4bf65" target="_top" xlink:title="vpr::SwapchainImpl\l::setupSwapImages">
<polygon fill="white" stroke="black" points="540.5,-49.5 540.5,-79.5 642.5,-79.5 642.5,-49.5 540.5,-49.5"/>
<text text-anchor="start" x="548.5" y="-67.5" font-family="Helvetica,sans-Serif" font-size="10.00">vpr::SwapchainImpl</text>
<text text-anchor="middle" x="591.5" y="-56.5" font-family="Helvetica,sans-Serif" font-size="10.00">::setupSwapImages</text>
</a>
</g>
</g>
<!-- Node34&#45;&gt;Node39 -->
<g id="edge17" class="edge"><title>Node34&#45;&gt;Node39</title>
<path fill="none" stroke="midnightblue" d="M456.175,-97.4408C479.035,-91.8348 506.426,-85.1177 530.493,-79.2156"/>
<polygon fill="midnightblue" stroke="midnightblue" points="531.352,-82.6087 540.231,-76.8276 529.685,-75.8101 531.352,-82.6087"/>
</g>
<!-- Node40 -->
<g id="node18" class="node"><title>Node40</title>
<g id="a_node18"><a xlink:href="structvpr_1_1_swapchain_impl.html#aaded5613928f1e39c1a61ac25be8bf88" target="_top" xlink:title="vpr::SwapchainImpl\l::setupImageViews">
<polygon fill="white" stroke="black" points="541.5,-0.5 541.5,-30.5 641.5,-30.5 641.5,-0.5 541.5,-0.5"/>
<text text-anchor="start" x="549.5" y="-18.5" font-family="Helvetica,sans-Serif" font-size="10.00">vpr::SwapchainImpl</text>
<text text-anchor="middle" x="591.5" y="-7.5" font-family="Helvetica,sans-Serif" font-size="10.00">::setupImageViews</text>
</a>
</g>
</g>
<!-- Node34&#45;&gt;Node40 -->
<g id="edge18" class="edge"><title>Node34&#45;&gt;Node40</title>
<path fill="none" stroke="midnightblue" d="M424.235,-94.3298C442.94,-78.5813 474.267,-54.2304 505,-39.5 513.372,-35.4872 522.537,-32.0342 531.657,-29.0998"/>
<polygon fill="midnightblue" stroke="midnightblue" points="532.943,-32.3675 541.497,-26.1172 530.912,-25.6685 532.943,-32.3675"/>
</g>
<!-- Node36 -->
<g id="node14" class="node"><title>Node36</title>
<g id="a_node14"><a xlink:href="namespacevpr.html#afa4d7a5ad29cbfc728d5c355d990d242" target="_top" xlink:title="vpr::getPresentModeStr">
<polygon fill="white" stroke="black" points="714,-192 714,-211 833,-211 833,-192 714,-192"/>
<text text-anchor="middle" x="773.5" y="-199" font-family="Helvetica,sans-Serif" font-size="10.00">vpr::getPresentModeStr</text>
</a>
</g>
</g>
<!-- Node35&#45;&gt;Node36 -->
<g id="edge14" class="edge"><title>Node35&#45;&gt;Node36</title>
<path fill="none" stroke="midnightblue" d="M641.686,-201.5C660.829,-201.5 683.097,-201.5 703.776,-201.5"/>
<polygon fill="midnightblue" stroke="midnightblue" points="703.779,-205 713.779,-201.5 703.779,-198 703.779,-205"/>
</g>
</g>
</svg>
