<?xml version="1.0" encoding="UTF-8" standalone="no"?>
<!DOCTYPE svg PUBLIC "-//W3C//DTD SVG 1.1//EN"
 "http://www.w3.org/Graphics/SVG/1.1/DTD/svg11.dtd">
<!-- Generated by graphviz version 2.38.0 (20140413.2041)
 -->
<!-- Title: vpr::CreateMultiple Pages: 1 -->
<svg width="249pt" height="78pt"
 viewBox="0.00 0.00 249.00 77.50" xmlns="http://www.w3.org/2000/svg" xmlns:xlink="http://www.w3.org/1999/xlink">
<g id="graph0" class="graph" transform="scale(1 1) rotate(0) translate(4 73.5)">
<title>vpr::CreateMultiple</title>
<polygon fill="white" stroke="none" points="-4,4 -4,-73.5 245,-73.5 245,4 -4,4"/>
<!-- Node10 -->
<g id="node1" class="node"><title>Node10</title>
<polygon fill="#bfbfbf" stroke="black" points="0,-22.5 0,-41.5 97,-41.5 97,-22.5 0,-22.5"/>
<text text-anchor="middle" x="48.5" y="-29.5" font-family="Helvetica,sans-Serif" font-size="10.00">vpr::CreateMultiple</text>
</g>
<!-- Node11 -->
<g id="node2" class="node"><title>Node11</title>
<g id="a_node2"><a xlink:href="classvpr_1_1_graphics_pipeline.html#aa64ec5438a3f77ef4b0900dedd088dc3" target="_top" xlink:title="vpr::GraphicsPipeline\l::GraphicsPipeline">
<polygon fill="white" stroke="black" points="133,-39 133,-69 241,-69 241,-39 133,-39"/>
<text text-anchor="start" x="141" y="-57" font-family="Helvetica,sans-Serif" font-size="10.00">vpr::GraphicsPipeline</text>
<text text-anchor="middle" x="187" y="-46" font-family="Helvetica,sans-Serif" font-size="10.00">::GraphicsPipeline</text>
</a>
</g>
</g>
<!-- Node10&#45;&gt;Node11 -->
<g id="edge1" class="edge"><title>Node10&#45;&gt;Node11</title>
<path fill="none" stroke="midnightblue" d="M97.2411,-39.6945C105.53,-41.0304 114.263,-42.438 122.887,-43.8279"/>
<polygon fill="midnightblue" stroke="midnightblue" points="122.497,-47.3101 132.926,-45.446 123.611,-40.3993 122.497,-47.3101"/>
</g>
<!-- Node12 -->
<g id="node3" class="node"><title>Node12</title>
<g id="a_node3"><a xlink:href="classvpr_1_1_device.html#a59882855173bef0b13a17b376ea01d45" target="_top" xlink:title="vpr::Device::vkHandle">
<polygon fill="white" stroke="black" points="133,-0.5 133,-19.5 241,-19.5 241,-0.5 133,-0.5"/>
<text text-anchor="middle" x="187" y="-7.5" font-family="Helvetica,sans-Serif" font-size="10.00">vpr::Device::vkHandle</text>
</a>
</g>
</g>
<!-- Node10&#45;&gt;Node12 -->
<g id="edge2" class="edge"><title>Node10&#45;&gt;Node12</title>
<path fill="none" stroke="midnightblue" d="M97.2411,-24.3055C105.53,-22.9696 114.263,-21.562 122.887,-20.1721"/>
<polygon fill="midnightblue" stroke="midnightblue" points="123.611,-23.6007 132.926,-18.554 122.497,-16.6899 123.611,-23.6007"/>
</g>
</g>
</svg>
