<?xml version="1.0" encoding="UTF-8" standalone="no"?>
<!DOCTYPE svg PUBLIC "-//W3C//DTD SVG 1.1//EN"
 "http://www.w3.org/Graphics/SVG/1.1/DTD/svg11.dtd">
<!-- Generated by graphviz version 2.38.0 (20140413.2041)
 -->
<!-- Title: el::base::defaultPreRollOutCallback Pages: 1 -->
<svg width="306pt" height="88pt"
 viewBox="0.00 0.00 306.00 88.00" xmlns="http://www.w3.org/2000/svg" xmlns:xlink="http://www.w3.org/1999/xlink">
<g id="graph0" class="graph" transform="scale(1 1) rotate(0) translate(4 84)">
<title>el::base::defaultPreRollOutCallback</title>
<polygon fill="white" stroke="none" points="-4,4 -4,-84 302,-84 302,4 -4,4"/>
<!-- Node1 -->
<g id="node1" class="node"><title>Node1</title>
<polygon fill="#bfbfbf" stroke="black" points="0,-24.5 0,-54.5 117,-54.5 117,-24.5 0,-24.5"/>
<text text-anchor="start" x="8" y="-42.5" font-family="Helvetica,sans-Serif" font-size="10.00">el::base::defaultPreRoll</text>
<text text-anchor="middle" x="58.5" y="-31.5" font-family="Helvetica,sans-Serif" font-size="10.00">OutCallback</text>
</g>
<!-- Node2 -->
<g id="node2" class="node"><title>Node2</title>
<g id="a_node2"><a xlink:href="classel_1_1base_1_1_typed_configurations.html#ac61af29d843691ac60aa34000183b2d8" target="_top" xlink:title="el::base::TypedConfigurations\l::build">
<polygon fill="white" stroke="black" points="153,-49.5 153,-79.5 298,-79.5 298,-49.5 153,-49.5"/>
<text text-anchor="start" x="161" y="-67.5" font-family="Helvetica,sans-Serif" font-size="10.00">el::base::TypedConfigurations</text>
<text text-anchor="middle" x="225.5" y="-56.5" font-family="Helvetica,sans-Serif" font-size="10.00">::build</text>
</a>
</g>
</g>
<!-- Node1&#45;&gt;Node2 -->
<g id="edge1" class="edge"><title>Node1&#45;&gt;Node2</title>
<path fill="none" stroke="midnightblue" d="M127.356,-49.7812C135.78,-51.0576 144.415,-52.3659 152.893,-53.6505"/>
<polygon fill="midnightblue" stroke="midnightblue" points="127.62,-46.2814 117.209,-48.2438 126.572,-53.2024 127.62,-46.2814"/>
</g>
<!-- Node3 -->
<g id="node3" class="node"><title>Node3</title>
<g id="a_node3"><a xlink:href="classel_1_1base_1_1_storage.html#a2bfdc3a20eeafe158ee8603c805131e4" target="_top" xlink:title="el::base::Storage::\lunsetPreRollOutCallback">
<polygon fill="white" stroke="black" points="163,-0.5 163,-30.5 288,-30.5 288,-0.5 163,-0.5"/>
<text text-anchor="start" x="171" y="-18.5" font-family="Helvetica,sans-Serif" font-size="10.00">el::base::Storage::</text>
<text text-anchor="middle" x="225.5" y="-7.5" font-family="Helvetica,sans-Serif" font-size="10.00">unsetPreRollOutCallback</text>
</a>
</g>
</g>
<!-- Node1&#45;&gt;Node3 -->
<g id="edge2" class="edge"><title>Node1&#45;&gt;Node3</title>
<path fill="none" stroke="midnightblue" d="M127.407,-29.6226C139.16,-27.9131 151.321,-26.1442 162.895,-24.4607"/>
<polygon fill="midnightblue" stroke="midnightblue" points="126.601,-26.2029 117.209,-31.106 127.609,-33.13 126.601,-26.2029"/>
</g>
</g>
</svg>
