<?xml version="1.0" encoding="UTF-8" standalone="no"?>
<!DOCTYPE svg PUBLIC "-//W3C//DTD SVG 1.1//EN"
 "http://www.w3.org/Graphics/SVG/1.1/DTD/svg11.dtd">
<!-- Generated by graphviz version 2.38.0 (20140413.2041)
 -->
<!-- Title: el::base::utils::abort Pages: 1 -->
<svg width="263pt" height="127pt"
 viewBox="0.00 0.00 263.00 127.00" xmlns="http://www.w3.org/2000/svg" xmlns:xlink="http://www.w3.org/1999/xlink">
<g id="graph0" class="graph" transform="scale(1 1) rotate(0) translate(4 123)">
<title>el::base::utils::abort</title>
<polygon fill="white" stroke="none" points="-4,4 -4,-123 259,-123 259,4 -4,4"/>
<!-- Node1 -->
<g id="node1" class="node"><title>Node1</title>
<polygon fill="#bfbfbf" stroke="black" points="0,-50 0,-69 103,-69 103,-50 0,-50"/>
<text text-anchor="middle" x="51.5" y="-57" font-family="Helvetica,sans-Serif" font-size="10.00">el::base::utils::abort</text>
</g>
<!-- Node2 -->
<g id="node2" class="node"><title>Node2</title>
<g id="a_node2"><a xlink:href="classel_1_1base_1_1_writer.html#a1c7d90bd4e00af4e7307f5936e1b6507" target="_top" xlink:title="el::base::Writer::trigger\lDispatch">
<polygon fill="white" stroke="black" points="139,-88.5 139,-118.5 255,-118.5 255,-88.5 139,-88.5"/>
<text text-anchor="start" x="147" y="-106.5" font-family="Helvetica,sans-Serif" font-size="10.00">el::base::Writer::trigger</text>
<text text-anchor="middle" x="197" y="-95.5" font-family="Helvetica,sans-Serif" font-size="10.00">Dispatch</text>
</a>
</g>
</g>
<!-- Node1&#45;&gt;Node2 -->
<g id="edge1" class="edge"><title>Node1&#45;&gt;Node2</title>
<path fill="none" stroke="midnightblue" d="M93.5906,-72.0992C110.204,-77.1931 129.518,-83.1151 146.866,-88.4346"/>
<polygon fill="midnightblue" stroke="midnightblue" points="94.2241,-68.6327 83.6374,-69.0473 92.172,-75.3251 94.2241,-68.6327"/>
</g>
<!-- Node3 -->
<g id="node3" class="node"><title>Node3</title>
<g id="a_node3"><a xlink:href="vk_assert_8hpp.html#ae69ba6233e866a87c7427b71d4be0563" target="_top" xlink:title="vkErrCheck">
<polygon fill="white" stroke="black" points="164,-50 164,-69 230,-69 230,-50 164,-50"/>
<text text-anchor="middle" x="197" y="-57" font-family="Helvetica,sans-Serif" font-size="10.00">vkErrCheck</text>
</a>
</g>
</g>
<!-- Node1&#45;&gt;Node3 -->
<g id="edge2" class="edge"><title>Node1&#45;&gt;Node3</title>
<path fill="none" stroke="midnightblue" d="M113.188,-59.5C130.561,-59.5 148.821,-59.5 163.761,-59.5"/>
<polygon fill="midnightblue" stroke="midnightblue" points="113.093,-56.0001 103.093,-59.5 113.093,-63.0001 113.093,-56.0001"/>
</g>
<!-- Node4 -->
<g id="node4" class="node"><title>Node4</title>
<g id="a_node4"><a xlink:href="classel_1_1base_1_1_p_error_writer.html#adc8b5fe696977395f0e8b0ee5d5caf60" target="_top" xlink:title="el::base::PErrorWriter\l::~PErrorWriter">
<polygon fill="white" stroke="black" points="141.5,-0.5 141.5,-30.5 252.5,-30.5 252.5,-0.5 141.5,-0.5"/>
<text text-anchor="start" x="149.5" y="-18.5" font-family="Helvetica,sans-Serif" font-size="10.00">el::base::PErrorWriter</text>
<text text-anchor="middle" x="197" y="-7.5" font-family="Helvetica,sans-Serif" font-size="10.00">::~PErrorWriter</text>
</a>
</g>
</g>
<!-- Node1&#45;&gt;Node4 -->
<g id="edge3" class="edge"><title>Node1&#45;&gt;Node4</title>
<path fill="none" stroke="midnightblue" d="M93.5906,-46.9008C110.204,-41.8069 129.518,-35.8849 146.866,-30.5654"/>
<polygon fill="midnightblue" stroke="midnightblue" points="92.172,-43.6749 83.6374,-49.9527 94.2241,-50.3673 92.172,-43.6749"/>
</g>
</g>
</svg>
