<?xml version="1.0" encoding="UTF-8" standalone="no"?>
<!DOCTYPE svg PUBLIC "-//W3C//DTD SVG 1.1//EN"
 "http://www.w3.org/Graphics/SVG/1.1/DTD/svg11.dtd">
<!-- Generated by graphviz version 2.38.0 (20140413.2041)
 -->
<!-- Title: el::base::utils::addFlag Pages: 1 -->
<svg width="544pt" height="137pt"
 viewBox="0.00 0.00 544.00 137.00" xmlns="http://www.w3.org/2000/svg" xmlns:xlink="http://www.w3.org/1999/xlink">
<g id="graph0" class="graph" transform="scale(1 1) rotate(0) translate(4 133)">
<title>el::base::utils::addFlag</title>
<polygon fill="white" stroke="none" points="-4,4 -4,-133 540,-133 540,4 -4,4"/>
<!-- Node6 -->
<g id="node1" class="node"><title>Node6</title>
<polygon fill="#bfbfbf" stroke="black" points="0,-55 0,-74 116,-74 116,-55 0,-55"/>
<text text-anchor="middle" x="58" y="-62" font-family="Helvetica,sans-Serif" font-size="10.00">el::base::utils::addFlag</text>
</g>
<!-- Node7 -->
<g id="node2" class="node"><title>Node7</title>
<g id="a_node2"><a xlink:href="classel_1_1base_1_1_log_format.html#ae55910f533a6eb3b41eb75b131e522bf" target="_top" xlink:title="el::base::LogFormat\l::addFlag">
<polygon fill="white" stroke="black" points="152,-98.5 152,-128.5 256,-128.5 256,-98.5 152,-98.5"/>
<text text-anchor="start" x="160" y="-116.5" font-family="Helvetica,sans-Serif" font-size="10.00">el::base::LogFormat</text>
<text text-anchor="middle" x="204" y="-105.5" font-family="Helvetica,sans-Serif" font-size="10.00">::addFlag</text>
</a>
</g>
</g>
<!-- Node6&#45;&gt;Node7 -->
<g id="edge1" class="edge"><title>Node6&#45;&gt;Node7</title>
<path fill="none" stroke="midnightblue" d="M96.6438,-77.3093C115.688,-83.7897 138.921,-91.6955 158.81,-98.463"/>
<polygon fill="midnightblue" stroke="midnightblue" points="97.7009,-73.972 87.1065,-74.064 95.4459,-80.5989 97.7009,-73.972"/>
</g>
<!-- Node10 -->
<g id="node5" class="node"><title>Node10</title>
<g id="a_node5"><a xlink:href="classel_1_1base_1_1_storage.html#a3e17c61961f3b2f45e8ec77e3320bed5" target="_top" xlink:title="el::base::Storage::\laddFlag">
<polygon fill="white" stroke="black" points="155.5,-49.5 155.5,-79.5 252.5,-79.5 252.5,-49.5 155.5,-49.5"/>
<text text-anchor="start" x="163.5" y="-67.5" font-family="Helvetica,sans-Serif" font-size="10.00">el::base::Storage::</text>
<text text-anchor="middle" x="204" y="-56.5" font-family="Helvetica,sans-Serif" font-size="10.00">addFlag</text>
</a>
</g>
</g>
<!-- Node6&#45;&gt;Node10 -->
<g id="edge4" class="edge"><title>Node6&#45;&gt;Node10</title>
<path fill="none" stroke="midnightblue" d="M126.375,-64.5C136.086,-64.5 145.909,-64.5 155.134,-64.5"/>
<polygon fill="midnightblue" stroke="midnightblue" points="126.326,-61.0001 116.326,-64.5 126.326,-68.0001 126.326,-61.0001"/>
</g>
<!-- Node11 -->
<g id="node6" class="node"><title>Node11</title>
<g id="a_node6"><a xlink:href="classel_1_1base_1_1_storage.html#a4932a8f8a55c3b00467cf2feed6acf59" target="_top" xlink:title="el::base::Storage::\lStorage">
<polygon fill="white" stroke="black" points="155.5,-0.5 155.5,-30.5 252.5,-30.5 252.5,-0.5 155.5,-0.5"/>
<text text-anchor="start" x="163.5" y="-18.5" font-family="Helvetica,sans-Serif" font-size="10.00">el::base::Storage::</text>
<text text-anchor="middle" x="204" y="-7.5" font-family="Helvetica,sans-Serif" font-size="10.00">Storage</text>
</a>
</g>
</g>
<!-- Node6&#45;&gt;Node11 -->
<g id="edge5" class="edge"><title>Node6&#45;&gt;Node11</title>
<path fill="none" stroke="midnightblue" d="M96.6438,-51.6907C115.688,-45.2103 138.921,-37.3045 158.81,-30.537"/>
<polygon fill="midnightblue" stroke="midnightblue" points="95.4459,-48.4011 87.1065,-54.936 97.7009,-55.028 95.4459,-48.4011"/>
</g>
<!-- Node8 -->
<g id="node3" class="node"><title>Node8</title>
<g id="a_node3"><a xlink:href="classel_1_1base_1_1_log_format.html#ab7c1b15cfdad24cfbc6dbced8b9d66eb" target="_top" xlink:title="Updates format to be used while logging. ">
<polygon fill="white" stroke="black" points="292,-98.5 292,-128.5 396,-128.5 396,-98.5 292,-98.5"/>
<text text-anchor="start" x="300" y="-116.5" font-family="Helvetica,sans-Serif" font-size="10.00">el::base::LogFormat</text>
<text text-anchor="middle" x="344" y="-105.5" font-family="Helvetica,sans-Serif" font-size="10.00">::parseFromFormat</text>
</a>
</g>
</g>
<!-- Node7&#45;&gt;Node8 -->
<g id="edge2" class="edge"><title>Node7&#45;&gt;Node8</title>
<path fill="none" stroke="midnightblue" d="M266.496,-113.5C274.872,-113.5 283.398,-113.5 291.571,-113.5"/>
<polygon fill="midnightblue" stroke="midnightblue" points="266.386,-110 256.386,-113.5 266.386,-117 266.386,-110"/>
</g>
<!-- Node9 -->
<g id="node4" class="node"><title>Node9</title>
<g id="a_node4"><a xlink:href="classel_1_1base_1_1_log_format.html#a746a49231f1b046803dd2144ae2a2c76" target="_top" xlink:title="el::base::LogFormat\l::LogFormat">
<polygon fill="white" stroke="black" points="432,-98.5 432,-128.5 536,-128.5 536,-98.5 432,-98.5"/>
<text text-anchor="start" x="440" y="-116.5" font-family="Helvetica,sans-Serif" font-size="10.00">el::base::LogFormat</text>
<text text-anchor="middle" x="484" y="-105.5" font-family="Helvetica,sans-Serif" font-size="10.00">::LogFormat</text>
</a>
</g>
</g>
<!-- Node8&#45;&gt;Node9 -->
<g id="edge3" class="edge"><title>Node8&#45;&gt;Node9</title>
<path fill="none" stroke="midnightblue" d="M406.496,-113.5C414.872,-113.5 423.398,-113.5 431.571,-113.5"/>
<polygon fill="midnightblue" stroke="midnightblue" points="406.386,-110 396.386,-113.5 406.386,-117 406.386,-110"/>
</g>
</g>
</svg>
