<?xml version="1.0" encoding="UTF-8" standalone="no"?>
<!DOCTYPE svg PUBLIC "-//W3C//DTD SVG 1.1//EN"
 "http://www.w3.org/Graphics/SVG/1.1/DTD/svg11.dtd">
<!-- Generated by graphviz version 2.38.0 (20140413.2041)
 -->
<!-- Title: C:/Users/kjones/Documents/SoftwareDev/VulpesSceneKit/third_party/vulpesrender/src/render/Framebuffer.cpp Pages: 1 -->
<svg width="344pt" height="117pt"
 viewBox="0.00 0.00 344.00 117.00" xmlns="http://www.w3.org/2000/svg" xmlns:xlink="http://www.w3.org/1999/xlink">
<g id="graph0" class="graph" transform="scale(1 1) rotate(0) translate(4 113)">
<title>C:/Users/kjones/Documents/SoftwareDev/VulpesSceneKit/third_party/vulpesrender/src/render/Framebuffer.cpp</title>
<polygon fill="white" stroke="none" points="-4,4 -4,-113 340,-113 340,4 -4,4"/>
<!-- Node0 -->
<g id="node1" class="node"><title>Node0</title>
<polygon fill="#bfbfbf" stroke="black" points="71,-56.5 71,-108.5 217,-108.5 217,-56.5 71,-56.5"/>
<text text-anchor="start" x="79" y="-96.5" font-family="Helvetica,sans-Serif" font-size="10.00">C:/Users/kjones/Documents</text>
<text text-anchor="start" x="79" y="-85.5" font-family="Helvetica,sans-Serif" font-size="10.00">/SoftwareDev/VulpesSceneKit</text>
<text text-anchor="start" x="79" y="-74.5" font-family="Helvetica,sans-Serif" font-size="10.00">/third_party/vulpesrender</text>
<text text-anchor="middle" x="144" y="-63.5" font-family="Helvetica,sans-Serif" font-size="10.00">/src/render/Framebuffer.cpp</text>
</g>
<!-- Node1 -->
<g id="node2" class="node"><title>Node1</title>
<polygon fill="white" stroke="#bfbfbf" points="0,-0.5 0,-19.5 68,-19.5 68,-0.5 0,-0.5"/>
<text text-anchor="middle" x="34" y="-7.5" font-family="Helvetica,sans-Serif" font-size="10.00">vpr_stdafx.h</text>
</g>
<!-- Node0&#45;&gt;Node1 -->
<g id="edge1" class="edge"><title>Node0&#45;&gt;Node1</title>
<path fill="none" stroke="midnightblue" d="M104.908,-56.4458C88.3945,-45.8619 69.787,-33.9362 55.7781,-24.9578"/>
<polygon fill="midnightblue" stroke="midnightblue" points="57.6124,-21.9762 47.3045,-19.527 53.8351,-27.8697 57.6124,-21.9762"/>
</g>
<!-- Node2 -->
<g id="node3" class="node"><title>Node2</title>
<polygon fill="white" stroke="#bfbfbf" points="86,-0.5 86,-19.5 202,-19.5 202,-0.5 86,-0.5"/>
<text text-anchor="middle" x="144" y="-7.5" font-family="Helvetica,sans-Serif" font-size="10.00">render/Framebuffer.hpp</text>
</g>
<!-- Node0&#45;&gt;Node2 -->
<g id="edge2" class="edge"><title>Node0&#45;&gt;Node2</title>
<path fill="none" stroke="midnightblue" d="M144,-56.4458C144,-47.7301 144,-38.1045 144,-29.9641"/>
<polygon fill="midnightblue" stroke="midnightblue" points="147.5,-29.6954 144,-19.6955 140.5,-29.6955 147.5,-29.6954"/>
</g>
<!-- Node3 -->
<g id="node4" class="node"><title>Node3</title>
<polygon fill="white" stroke="#bfbfbf" points="220,-0.5 220,-19.5 336,-19.5 336,-0.5 220,-0.5"/>
<text text-anchor="middle" x="278" y="-7.5" font-family="Helvetica,sans-Serif" font-size="10.00">core/LogicalDevice.hpp</text>
</g>
<!-- Node0&#45;&gt;Node3 -->
<g id="edge3" class="edge"><title>Node0&#45;&gt;Node3</title>
<path fill="none" stroke="midnightblue" d="M191.621,-56.4458C212.312,-45.5595 235.702,-33.2537 252.919,-24.1955"/>
<polygon fill="midnightblue" stroke="midnightblue" points="254.572,-27.2806 261.793,-19.527 251.313,-21.0857 254.572,-27.2806"/>
</g>
</g>
</svg>
