<?xml version="1.0" encoding="UTF-8" standalone="no"?>
<!DOCTYPE svg PUBLIC "-//W3C//DTD SVG 1.1//EN"
 "http://www.w3.org/Graphics/SVG/1.1/DTD/svg11.dtd">
<!-- Generated by graphviz version 2.38.0 (20140413.2041)
 -->
<!-- Title: C:/Users/kjones/Documents/SoftwareDev/VulpesSceneKit/third_party/vulpesrender/src/alloc/MemoryBlock.cpp Pages: 1 -->
<svg width="570pt" height="117pt"
 viewBox="0.00 0.00 570.00 117.00" xmlns="http://www.w3.org/2000/svg" xmlns:xlink="http://www.w3.org/1999/xlink">
<g id="graph0" class="graph" transform="scale(1 1) rotate(0) translate(4 113)">
<title>C:/Users/kjones/Documents/SoftwareDev/VulpesSceneKit/third_party/vulpesrender/src/alloc/MemoryBlock.cpp</title>
<polygon fill="white" stroke="none" points="-4,4 -4,-113 566,-113 566,4 -4,4"/>
<!-- Node0 -->
<g id="node1" class="node"><title>Node0</title>
<polygon fill="#bfbfbf" stroke="black" points="201,-56.5 201,-108.5 347,-108.5 347,-56.5 201,-56.5"/>
<text text-anchor="start" x="209" y="-96.5" font-family="Helvetica,sans-Serif" font-size="10.00">C:/Users/kjones/Documents</text>
<text text-anchor="start" x="209" y="-85.5" font-family="Helvetica,sans-Serif" font-size="10.00">/SoftwareDev/VulpesSceneKit</text>
<text text-anchor="start" x="209" y="-74.5" font-family="Helvetica,sans-Serif" font-size="10.00">/third_party/vulpesrender</text>
<text text-anchor="middle" x="274" y="-63.5" font-family="Helvetica,sans-Serif" font-size="10.00">/src/alloc/MemoryBlock.cpp</text>
</g>
<!-- Node1 -->
<g id="node2" class="node"><title>Node1</title>
<polygon fill="white" stroke="#bfbfbf" points="0,-0.5 0,-19.5 68,-19.5 68,-0.5 0,-0.5"/>
<text text-anchor="middle" x="34" y="-7.5" font-family="Helvetica,sans-Serif" font-size="10.00">vpr_stdafx.h</text>
</g>
<!-- Node0&#45;&gt;Node1 -->
<g id="edge1" class="edge"><title>Node0&#45;&gt;Node1</title>
<path fill="none" stroke="midnightblue" d="M200.688,-59.9646C158.532,-47.5811 107.267,-32.5223 72.8152,-22.402"/>
<polygon fill="midnightblue" stroke="midnightblue" points="73.71,-19.017 63.1289,-19.5566 71.7371,-25.7332 73.71,-19.017"/>
</g>
<!-- Node2 -->
<g id="node3" class="node"><title>Node2</title>
<polygon fill="white" stroke="#bfbfbf" points="86.5,-0.5 86.5,-19.5 205.5,-19.5 205.5,-0.5 86.5,-0.5"/>
<text text-anchor="middle" x="146" y="-7.5" font-family="Helvetica,sans-Serif" font-size="10.00">alloc/MemoryBlock.hpp</text>
</g>
<!-- Node0&#45;&gt;Node2 -->
<g id="edge2" class="edge"><title>Node0&#45;&gt;Node2</title>
<path fill="none" stroke="midnightblue" d="M228.512,-56.4458C208.929,-45.6603 186.817,-33.4814 170.416,-24.448"/>
<polygon fill="midnightblue" stroke="midnightblue" points="171.929,-21.2857 161.482,-19.527 168.552,-27.4172 171.929,-21.2857"/>
</g>
<!-- Node3 -->
<g id="node4" class="node"><title>Node3</title>
<polygon fill="white" stroke="#bfbfbf" points="223.5,-0.5 223.5,-19.5 324.5,-19.5 324.5,-0.5 223.5,-0.5"/>
<text text-anchor="middle" x="274" y="-7.5" font-family="Helvetica,sans-Serif" font-size="10.00">alloc/Allocation.hpp</text>
</g>
<!-- Node0&#45;&gt;Node3 -->
<g id="edge3" class="edge"><title>Node0&#45;&gt;Node3</title>
<path fill="none" stroke="midnightblue" d="M274,-56.4458C274,-47.7301 274,-38.1045 274,-29.9641"/>
<polygon fill="midnightblue" stroke="midnightblue" points="277.5,-29.6954 274,-19.6955 270.5,-29.6955 277.5,-29.6954"/>
</g>
<!-- Node4 -->
<g id="node5" class="node"><title>Node4</title>
<polygon fill="white" stroke="#bfbfbf" points="342.5,-0.5 342.5,-19.5 439.5,-19.5 439.5,-0.5 342.5,-0.5"/>
<text text-anchor="middle" x="391" y="-7.5" font-family="Helvetica,sans-Serif" font-size="10.00">alloc/Allocator.hpp</text>
</g>
<!-- Node0&#45;&gt;Node4 -->
<g id="edge4" class="edge"><title>Node0&#45;&gt;Node4</title>
<path fill="none" stroke="midnightblue" d="M315.579,-56.4458C333.311,-45.7611 353.313,-33.709 368.26,-24.7021"/>
<polygon fill="midnightblue" stroke="midnightblue" points="370.09,-27.686 376.849,-19.527 366.477,-21.6903 370.09,-27.686"/>
</g>
<!-- Node5 -->
<g id="node6" class="node"><title>Node5</title>
<polygon fill="white" stroke="#bfbfbf" points="458,-0.5 458,-19.5 562,-19.5 562,-0.5 458,-0.5"/>
<text text-anchor="middle" x="510" y="-7.5" font-family="Helvetica,sans-Serif" font-size="10.00">util/easylogging++.h</text>
</g>
<!-- Node0&#45;&gt;Node5 -->
<g id="edge5" class="edge"><title>Node0&#45;&gt;Node5</title>
<path fill="none" stroke="midnightblue" d="M347.056,-59.6762C388.154,-47.3989 437.804,-32.567 471.414,-22.5267"/>
<polygon fill="midnightblue" stroke="midnightblue" points="472.723,-25.7886 481.303,-19.5727 470.719,-19.0815 472.723,-25.7886"/>
</g>
</g>
</svg>
