<?xml version="1.0" encoding="UTF-8" standalone="no"?>
<!DOCTYPE svg PUBLIC "-//W3C//DTD SVG 1.1//EN"
 "http://www.w3.org/Graphics/SVG/1.1/DTD/svg11.dtd">
<!-- Generated by graphviz version 2.38.0 (20140413.2041)
 -->
<!-- Title: C:/Users/kjones/Documents/SoftwareDev/VulpesSceneKit/third_party/vulpesrender/src/sync/Semaphore.cpp Pages: 1 -->
<svg width="287pt" height="173pt"
 viewBox="0.00 0.00 287.00 173.00" xmlns="http://www.w3.org/2000/svg" xmlns:xlink="http://www.w3.org/1999/xlink">
<g id="graph0" class="graph" transform="scale(1 1) rotate(0) translate(4 169)">
<title>C:/Users/kjones/Documents/SoftwareDev/VulpesSceneKit/third_party/vulpesrender/src/sync/Semaphore.cpp</title>
<polygon fill="white" stroke="none" points="-4,4 -4,-169 283,-169 283,4 -4,4"/>
<!-- Node0 -->
<g id="node1" class="node"><title>Node0</title>
<polygon fill="#bfbfbf" stroke="black" points="78,-112.5 78,-164.5 224,-164.5 224,-112.5 78,-112.5"/>
<text text-anchor="start" x="86" y="-152.5" font-family="Helvetica,sans-Serif" font-size="10.00">C:/Users/kjones/Documents</text>
<text text-anchor="start" x="86" y="-141.5" font-family="Helvetica,sans-Serif" font-size="10.00">/SoftwareDev/VulpesSceneKit</text>
<text text-anchor="start" x="86" y="-130.5" font-family="Helvetica,sans-Serif" font-size="10.00">/third_party/vulpesrender</text>
<text text-anchor="middle" x="151" y="-119.5" font-family="Helvetica,sans-Serif" font-size="10.00">/src/sync/Semaphore.cpp</text>
</g>
<!-- Node1 -->
<g id="node2" class="node"><title>Node1</title>
<g id="a_node2"><a xlink:href="child_2include_2resource_2_semaphore_8hpp.html" target="_top" xlink:title="resource/Semaphore.hpp">
<polygon fill="white" stroke="black" points="19.5,-56.5 19.5,-75.5 144.5,-75.5 144.5,-56.5 19.5,-56.5"/>
<text text-anchor="middle" x="82" y="-63.5" font-family="Helvetica,sans-Serif" font-size="10.00">resource/Semaphore.hpp</text>
</a>
</g>
</g>
<!-- Node0&#45;&gt;Node1 -->
<g id="edge1" class="edge"><title>Node0&#45;&gt;Node1</title>
<path fill="none" stroke="midnightblue" d="M126.479,-112.446C116.87,-102.628 106.131,-91.6559 97.613,-82.9524"/>
<polygon fill="midnightblue" stroke="midnightblue" points="100.006,-80.3941 90.5105,-75.6955 95.0038,-85.2903 100.006,-80.3941"/>
</g>
<!-- Node4 -->
<g id="node5" class="node"><title>Node4</title>
<polygon fill="white" stroke="#bfbfbf" points="163,-56.5 163,-75.5 279,-75.5 279,-56.5 163,-56.5"/>
<text text-anchor="middle" x="221" y="-63.5" font-family="Helvetica,sans-Serif" font-size="10.00">core/LogicalDevice.hpp</text>
</g>
<!-- Node0&#45;&gt;Node4 -->
<g id="edge4" class="edge"><title>Node0&#45;&gt;Node4</title>
<path fill="none" stroke="midnightblue" d="M175.876,-112.446C185.625,-102.628 196.519,-91.6559 205.161,-82.9524"/>
<polygon fill="midnightblue" stroke="midnightblue" points="207.804,-85.2578 212.366,-75.6955 202.837,-80.3256 207.804,-85.2578"/>
</g>
<!-- Node2 -->
<g id="node3" class="node"><title>Node2</title>
<polygon fill="white" stroke="#bfbfbf" points="0,-0.5 0,-19.5 68,-19.5 68,-0.5 0,-0.5"/>
<text text-anchor="middle" x="34" y="-7.5" font-family="Helvetica,sans-Serif" font-size="10.00">vpr_stdafx.h</text>
</g>
<!-- Node1&#45;&gt;Node2 -->
<g id="edge2" class="edge"><title>Node1&#45;&gt;Node2</title>
<path fill="none" stroke="midnightblue" d="M74.0738,-56.083C67.1539,-48.2982 56.9346,-36.8015 48.548,-27.3665"/>
<polygon fill="midnightblue" stroke="midnightblue" points="51.0383,-24.8999 41.7787,-19.7511 45.8065,-29.5505 51.0383,-24.8999"/>
</g>
<!-- Node3 -->
<g id="node4" class="node"><title>Node3</title>
<polygon fill="white" stroke="#bfbfbf" points="86.5,-0.5 86.5,-19.5 175.5,-19.5 175.5,-0.5 86.5,-0.5"/>
<text text-anchor="middle" x="131" y="-7.5" font-family="Helvetica,sans-Serif" font-size="10.00">ForwardDecl.hpp</text>
</g>
<!-- Node1&#45;&gt;Node3 -->
<g id="edge3" class="edge"><title>Node1&#45;&gt;Node3</title>
<path fill="none" stroke="midnightblue" d="M90.0914,-56.083C97.1554,-48.2982 107.588,-36.8015 116.149,-27.3665"/>
<polygon fill="midnightblue" stroke="midnightblue" points="118.931,-29.5087 123.059,-19.7511 113.747,-24.8047 118.931,-29.5087"/>
</g>
</g>
</svg>
