<?xml version="1.0" encoding="UTF-8" standalone="no"?>
<!DOCTYPE svg PUBLIC "-//W3C//DTD SVG 1.1//EN"
 "http://www.w3.org/Graphics/SVG/1.1/DTD/svg11.dtd">
<!-- Generated by graphviz version 2.38.0 (20140413.2041)
 -->
<!-- Title: C:/Users/kjones/Documents/SoftwareDev/VulpesSceneKit/third_party/vulpesrender/src/alloc/AllocationCollection.cpp Pages: 1 -->
<svg width="613pt" height="117pt"
 viewBox="0.00 0.00 613.00 117.00" xmlns="http://www.w3.org/2000/svg" xmlns:xlink="http://www.w3.org/1999/xlink">
<g id="graph0" class="graph" transform="scale(1 1) rotate(0) translate(4 113)">
<title>C:/Users/kjones/Documents/SoftwareDev/VulpesSceneKit/third_party/vulpesrender/src/alloc/AllocationCollection.cpp</title>
<polygon fill="white" stroke="none" points="-4,4 -4,-113 609,-113 609,4 -4,4"/>
<!-- Node0 -->
<g id="node1" class="node"><title>Node0</title>
<polygon fill="#bfbfbf" stroke="black" points="215,-56.5 215,-108.5 379,-108.5 379,-56.5 215,-56.5"/>
<text text-anchor="start" x="223" y="-96.5" font-family="Helvetica,sans-Serif" font-size="10.00">C:/Users/kjones/Documents</text>
<text text-anchor="start" x="223" y="-85.5" font-family="Helvetica,sans-Serif" font-size="10.00">/SoftwareDev/VulpesSceneKit</text>
<text text-anchor="start" x="223" y="-74.5" font-family="Helvetica,sans-Serif" font-size="10.00">/third_party/vulpesrender</text>
<text text-anchor="middle" x="297" y="-63.5" font-family="Helvetica,sans-Serif" font-size="10.00">/src/alloc/AllocationCollection.cpp</text>
</g>
<!-- Node1 -->
<g id="node2" class="node"><title>Node1</title>
<polygon fill="white" stroke="#bfbfbf" points="0,-0.5 0,-19.5 68,-19.5 68,-0.5 0,-0.5"/>
<text text-anchor="middle" x="34" y="-7.5" font-family="Helvetica,sans-Serif" font-size="10.00">vpr_stdafx.h</text>
</g>
<!-- Node0&#45;&gt;Node1 -->
<g id="edge1" class="edge"><title>Node0&#45;&gt;Node1</title>
<path fill="none" stroke="midnightblue" d="M214.867,-59.4834C168.716,-47.112 113.074,-32.1967 75.8016,-22.2054"/>
<polygon fill="midnightblue" stroke="midnightblue" points="76.3643,-18.7327 65.7991,-19.5241 74.5519,-25.494 76.3643,-18.7327"/>
</g>
<!-- Node2 -->
<g id="node3" class="node"><title>Node2</title>
<polygon fill="white" stroke="#bfbfbf" points="86,-0.5 86,-19.5 230,-19.5 230,-0.5 86,-0.5"/>
<text text-anchor="middle" x="158" y="-7.5" font-family="Helvetica,sans-Serif" font-size="10.00">alloc/AllocationCollection.hpp</text>
</g>
<!-- Node0&#45;&gt;Node2 -->
<g id="edge2" class="edge"><title>Node0&#45;&gt;Node2</title>
<path fill="none" stroke="midnightblue" d="M247.602,-56.4458C226.139,-45.5595 201.876,-33.2537 184.017,-24.1955"/>
<polygon fill="midnightblue" stroke="midnightblue" points="185.314,-20.929 174.812,-19.527 182.147,-27.1719 185.314,-20.929"/>
</g>
<!-- Node3 -->
<g id="node4" class="node"><title>Node3</title>
<polygon fill="white" stroke="#bfbfbf" points="248.5,-0.5 248.5,-19.5 345.5,-19.5 345.5,-0.5 248.5,-0.5"/>
<text text-anchor="middle" x="297" y="-7.5" font-family="Helvetica,sans-Serif" font-size="10.00">alloc/Allocator.hpp</text>
</g>
<!-- Node0&#45;&gt;Node3 -->
<g id="edge3" class="edge"><title>Node0&#45;&gt;Node3</title>
<path fill="none" stroke="midnightblue" d="M297,-56.4458C297,-47.7301 297,-38.1045 297,-29.9641"/>
<polygon fill="midnightblue" stroke="midnightblue" points="300.5,-29.6954 297,-19.6955 293.5,-29.6955 300.5,-29.6954"/>
</g>
<!-- Node4 -->
<g id="node5" class="node"><title>Node4</title>
<polygon fill="white" stroke="#bfbfbf" points="363.5,-0.5 363.5,-19.5 482.5,-19.5 482.5,-0.5 363.5,-0.5"/>
<text text-anchor="middle" x="423" y="-7.5" font-family="Helvetica,sans-Serif" font-size="10.00">alloc/MemoryBlock.hpp</text>
</g>
<!-- Node0&#45;&gt;Node4 -->
<g id="edge4" class="edge"><title>Node0&#45;&gt;Node4</title>
<path fill="none" stroke="midnightblue" d="M341.778,-56.4458C361.054,-45.6603 382.82,-33.4814 398.965,-24.448"/>
<polygon fill="midnightblue" stroke="midnightblue" points="400.742,-27.4643 407.76,-19.527 397.324,-21.3555 400.742,-27.4643"/>
</g>
<!-- Node5 -->
<g id="node6" class="node"><title>Node5</title>
<polygon fill="white" stroke="#bfbfbf" points="501,-0.5 501,-19.5 605,-19.5 605,-0.5 501,-0.5"/>
<text text-anchor="middle" x="553" y="-7.5" font-family="Helvetica,sans-Serif" font-size="10.00">util/easylogging++.h</text>
</g>
<!-- Node0&#45;&gt;Node5 -->
<g id="edge5" class="edge"><title>Node0&#45;&gt;Node5</title>
<path fill="none" stroke="midnightblue" d="M379.056,-58.9025C423.381,-46.6957 476.182,-32.1551 511.891,-22.321"/>
<polygon fill="midnightblue" stroke="midnightblue" points="513.23,-25.5827 521.942,-19.5532 511.371,-18.8339 513.23,-25.5827"/>
</g>
</g>
</svg>
