<?xml version="1.0" encoding="UTF-8" standalone="no"?>
<!DOCTYPE svg PUBLIC "-//W3C//DTD SVG 1.1//EN"
 "http://www.w3.org/Graphics/SVG/1.1/DTD/svg11.dtd">
<!-- Generated by graphviz version 2.38.0 (20140413.2041)
 -->
<!-- Title: C:/Users/kjones/Documents/SoftwareDev/VulpesSceneKit/third_party/vulpesrender/src/core/Instance.cpp Pages: 1 -->
<svg width="816pt" height="117pt"
 viewBox="0.00 0.00 816.00 117.00" xmlns="http://www.w3.org/2000/svg" xmlns:xlink="http://www.w3.org/1999/xlink">
<g id="graph0" class="graph" transform="scale(1 1) rotate(0) translate(4 113)">
<title>C:/Users/kjones/Documents/SoftwareDev/VulpesSceneKit/third_party/vulpesrender/src/core/Instance.cpp</title>
<polygon fill="white" stroke="none" points="-4,4 -4,-113 812,-113 812,4 -4,4"/>
<!-- Node0 -->
<g id="node1" class="node"><title>Node0</title>
<polygon fill="#bfbfbf" stroke="black" points="326,-56.5 326,-108.5 472,-108.5 472,-56.5 326,-56.5"/>
<text text-anchor="start" x="334" y="-96.5" font-family="Helvetica,sans-Serif" font-size="10.00">C:/Users/kjones/Documents</text>
<text text-anchor="start" x="334" y="-85.5" font-family="Helvetica,sans-Serif" font-size="10.00">/SoftwareDev/VulpesSceneKit</text>
<text text-anchor="start" x="334" y="-74.5" font-family="Helvetica,sans-Serif" font-size="10.00">/third_party/vulpesrender</text>
<text text-anchor="middle" x="399" y="-63.5" font-family="Helvetica,sans-Serif" font-size="10.00">/src/core/Instance.cpp</text>
</g>
<!-- Node1 -->
<g id="node2" class="node"><title>Node1</title>
<polygon fill="white" stroke="#bfbfbf" points="0,-0.5 0,-19.5 68,-19.5 68,-0.5 0,-0.5"/>
<text text-anchor="middle" x="34" y="-7.5" font-family="Helvetica,sans-Serif" font-size="10.00">vpr_stdafx.h</text>
</g>
<!-- Node0&#45;&gt;Node1 -->
<g id="edge1" class="edge"><title>Node0&#45;&gt;Node1</title>
<path fill="none" stroke="midnightblue" d="M325.714,-67.8829C262.698,-56.0869 169.106,-38.3599 78.1831,-20.2118"/>
<polygon fill="midnightblue" stroke="midnightblue" points="78.7486,-16.7557 68.2564,-18.2266 77.3758,-23.6198 78.7486,-16.7557"/>
</g>
<!-- Node2 -->
<g id="node3" class="node"><title>Node2</title>
<polygon fill="white" stroke="#bfbfbf" points="86,-0.5 86,-19.5 180,-19.5 180,-0.5 86,-0.5"/>
<text text-anchor="middle" x="133" y="-7.5" font-family="Helvetica,sans-Serif" font-size="10.00">core/Instance.hpp</text>
</g>
<!-- Node0&#45;&gt;Node2 -->
<g id="edge2" class="edge"><title>Node0&#45;&gt;Node2</title>
<path fill="none" stroke="midnightblue" d="M325.962,-62.1423C277.472,-49.2904 215.531,-32.8739 175.092,-22.1561"/>
<polygon fill="midnightblue" stroke="midnightblue" points="175.859,-18.7384 165.296,-19.5596 174.066,-25.5048 175.859,-18.7384"/>
</g>
<!-- Node3 -->
<g id="node4" class="node"><title>Node3</title>
<polygon fill="white" stroke="#bfbfbf" points="198.5,-0.5 198.5,-19.5 321.5,-19.5 321.5,-0.5 198.5,-0.5"/>
<text text-anchor="middle" x="260" y="-7.5" font-family="Helvetica,sans-Serif" font-size="10.00">core/PhysicalDevice.hpp</text>
</g>
<!-- Node0&#45;&gt;Node3 -->
<g id="edge3" class="edge"><title>Node0&#45;&gt;Node3</title>
<path fill="none" stroke="midnightblue" d="M349.602,-56.4458C328.139,-45.5595 303.876,-33.2537 286.017,-24.1955"/>
<polygon fill="midnightblue" stroke="midnightblue" points="287.314,-20.929 276.812,-19.527 284.147,-27.1719 287.314,-20.929"/>
</g>
<!-- Node4 -->
<g id="node5" class="node"><title>Node4</title>
<polygon fill="white" stroke="#bfbfbf" points="339.5,-0.5 339.5,-19.5 458.5,-19.5 458.5,-0.5 339.5,-0.5"/>
<text text-anchor="middle" x="399" y="-7.5" font-family="Helvetica,sans-Serif" font-size="10.00">render/SurfaceKHR.hpp</text>
</g>
<!-- Node0&#45;&gt;Node4 -->
<g id="edge4" class="edge"><title>Node0&#45;&gt;Node4</title>
<path fill="none" stroke="midnightblue" d="M399,-56.4458C399,-47.7301 399,-38.1045 399,-29.9641"/>
<polygon fill="midnightblue" stroke="midnightblue" points="402.5,-29.6954 399,-19.6955 395.5,-29.6955 402.5,-29.6954"/>
</g>
<!-- Node5 -->
<g id="node6" class="node"><title>Node5</title>
<polygon fill="white" stroke="#bfbfbf" points="476.5,-0.5 476.5,-19.5 589.5,-19.5 589.5,-0.5 476.5,-0.5"/>
<text text-anchor="middle" x="533" y="-7.5" font-family="Helvetica,sans-Serif" font-size="10.00">render/Swapchain.hpp</text>
</g>
<!-- Node0&#45;&gt;Node5 -->
<g id="edge5" class="edge"><title>Node0&#45;&gt;Node5</title>
<path fill="none" stroke="midnightblue" d="M446.621,-56.4458C467.312,-45.5595 490.702,-33.2537 507.919,-24.1955"/>
<polygon fill="midnightblue" stroke="midnightblue" points="509.572,-27.2806 516.793,-19.527 506.313,-21.0857 509.572,-27.2806"/>
</g>
<!-- Node6 -->
<g id="node7" class="node"><title>Node6</title>
<polygon fill="white" stroke="#bfbfbf" points="608,-0.5 608,-19.5 712,-19.5 712,-0.5 608,-0.5"/>
<text text-anchor="middle" x="660" y="-7.5" font-family="Helvetica,sans-Serif" font-size="10.00">util/easylogging++.h</text>
</g>
<!-- Node0&#45;&gt;Node6 -->
<g id="edge6" class="edge"><title>Node0&#45;&gt;Node6</title>
<path fill="none" stroke="midnightblue" d="M472.05,-61.7681C519.357,-48.9897 579.248,-32.8122 618.545,-22.1975"/>
<polygon fill="midnightblue" stroke="midnightblue" points="619.576,-25.5445 628.318,-19.5579 617.751,-18.7867 619.576,-25.5445"/>
</g>
<!-- Node7 -->
<g id="node8" class="node"><title>Node7</title>
<polygon fill="white" stroke="#bfbfbf" points="730,-0.5 730,-19.5 808,-19.5 808,-0.5 730,-0.5"/>
<text text-anchor="middle" x="769" y="-7.5" font-family="Helvetica,sans-Serif" font-size="10.00">GLFW/glfw3.h</text>
</g>
<!-- Node0&#45;&gt;Node7 -->
<g id="edge7" class="edge"><title>Node0&#45;&gt;Node7</title>
<path fill="none" stroke="midnightblue" d="M472.1,-67.5715C545.416,-53.6019 656.289,-32.4761 719.753,-20.3835"/>
<polygon fill="midnightblue" stroke="midnightblue" points="720.729,-23.7606 729.897,-18.4507 719.419,-16.8843 720.729,-23.7606"/>
</g>
</g>
</svg>
