<?xml version="1.0" encoding="UTF-8" standalone="no"?>
<!DOCTYPE svg PUBLIC "-//W3C//DTD SVG 1.1//EN"
 "http://www.w3.org/Graphics/SVG/1.1/DTD/svg11.dtd">
<!-- Generated by graphviz version 2.38.0 (20140413.2041)
 -->
<!-- Title: C:/Users/kjones/Documents/SoftwareDev/VulpesSceneKit/third_party/vulpesrender/src/render/SurfaceKHR.cpp Pages: 1 -->
<svg width="336pt" height="117pt"
 viewBox="0.00 0.00 335.50 117.00" xmlns="http://www.w3.org/2000/svg" xmlns:xlink="http://www.w3.org/1999/xlink">
<g id="graph0" class="graph" transform="scale(1 1) rotate(0) translate(4 113)">
<title>C:/Users/kjones/Documents/SoftwareDev/VulpesSceneKit/third_party/vulpesrender/src/render/SurfaceKHR.cpp</title>
<polygon fill="white" stroke="none" points="-4,4 -4,-113 331.5,-113 331.5,4 -4,4"/>
<!-- Node0 -->
<g id="node1" class="node"><title>Node0</title>
<polygon fill="#bfbfbf" stroke="black" points="111.5,-56.5 111.5,-108.5 257.5,-108.5 257.5,-56.5 111.5,-56.5"/>
<text text-anchor="start" x="119.5" y="-96.5" font-family="Helvetica,sans-Serif" font-size="10.00">C:/Users/kjones/Documents</text>
<text text-anchor="start" x="119.5" y="-85.5" font-family="Helvetica,sans-Serif" font-size="10.00">/SoftwareDev/VulpesSceneKit</text>
<text text-anchor="start" x="119.5" y="-74.5" font-family="Helvetica,sans-Serif" font-size="10.00">/third_party/vulpesrender</text>
<text text-anchor="middle" x="184.5" y="-63.5" font-family="Helvetica,sans-Serif" font-size="10.00">/src/render/SurfaceKHR.cpp</text>
</g>
<!-- Node1 -->
<g id="node2" class="node"><title>Node1</title>
<polygon fill="white" stroke="#bfbfbf" points="0,-0.5 0,-19.5 119,-19.5 119,-0.5 0,-0.5"/>
<text text-anchor="middle" x="59.5" y="-7.5" font-family="Helvetica,sans-Serif" font-size="10.00">render/SurfaceKHR.hpp</text>
</g>
<!-- Node0&#45;&gt;Node1 -->
<g id="edge1" class="edge"><title>Node0&#45;&gt;Node1</title>
<path fill="none" stroke="midnightblue" d="M140.078,-56.4458C120.954,-45.6603 99.3607,-33.4814 83.3439,-24.448"/>
<polygon fill="midnightblue" stroke="midnightblue" points="85.0483,-21.391 74.6187,-19.527 81.6095,-27.4881 85.0483,-21.391"/>
</g>
<!-- Node2 -->
<g id="node3" class="node"><title>Node2</title>
<polygon fill="white" stroke="#bfbfbf" points="137.5,-0.5 137.5,-19.5 231.5,-19.5 231.5,-0.5 137.5,-0.5"/>
<text text-anchor="middle" x="184.5" y="-7.5" font-family="Helvetica,sans-Serif" font-size="10.00">core/Instance.hpp</text>
</g>
<!-- Node0&#45;&gt;Node2 -->
<g id="edge2" class="edge"><title>Node0&#45;&gt;Node2</title>
<path fill="none" stroke="midnightblue" d="M184.5,-56.4458C184.5,-47.7301 184.5,-38.1045 184.5,-29.9641"/>
<polygon fill="midnightblue" stroke="midnightblue" points="188,-29.6954 184.5,-19.6955 181,-29.6955 188,-29.6954"/>
</g>
<!-- Node3 -->
<g id="node4" class="node"><title>Node3</title>
<polygon fill="white" stroke="#bfbfbf" points="249.5,-0.5 249.5,-19.5 327.5,-19.5 327.5,-0.5 249.5,-0.5"/>
<text text-anchor="middle" x="288.5" y="-7.5" font-family="Helvetica,sans-Serif" font-size="10.00">GLFW/glfw3.h</text>
</g>
<!-- Node0&#45;&gt;Node3 -->
<g id="edge3" class="edge"><title>Node0&#45;&gt;Node3</title>
<path fill="none" stroke="midnightblue" d="M221.459,-56.4458C236.829,-46.027 254.117,-34.308 267.287,-25.3801"/>
<polygon fill="midnightblue" stroke="midnightblue" points="269.359,-28.2037 275.673,-19.6955 265.431,-22.4096 269.359,-28.2037"/>
</g>
</g>
</svg>
