<?xml version="1.0" encoding="UTF-8" standalone="no"?>
<!DOCTYPE svg PUBLIC "-//W3C//DTD SVG 1.1//EN"
 "http://www.w3.org/Graphics/SVG/1.1/DTD/svg11.dtd">
<!-- Generated by graphviz version 2.38.0 (20140413.2041)
 -->
<!-- Title: C:/Users/kjones/Documents/SoftwareDev/VulpesSceneKit/third_party/vulpesrender/src/core/LogicalDevice.cpp Pages: 1 -->
<svg width="702pt" height="117pt"
 viewBox="0.00 0.00 702.00 117.00" xmlns="http://www.w3.org/2000/svg" xmlns:xlink="http://www.w3.org/1999/xlink">
<g id="graph0" class="graph" transform="scale(1 1) rotate(0) translate(4 113)">
<title>C:/Users/kjones/Documents/SoftwareDev/VulpesSceneKit/third_party/vulpesrender/src/core/LogicalDevice.cpp</title>
<polygon fill="white" stroke="none" points="-4,4 -4,-113 698,-113 698,4 -4,4"/>
<!-- Node0 -->
<g id="node1" class="node"><title>Node0</title>
<polygon fill="#bfbfbf" stroke="black" points="272,-56.5 272,-108.5 418,-108.5 418,-56.5 272,-56.5"/>
<text text-anchor="start" x="280" y="-96.5" font-family="Helvetica,sans-Serif" font-size="10.00">C:/Users/kjones/Documents</text>
<text text-anchor="start" x="280" y="-85.5" font-family="Helvetica,sans-Serif" font-size="10.00">/SoftwareDev/VulpesSceneKit</text>
<text text-anchor="start" x="280" y="-74.5" font-family="Helvetica,sans-Serif" font-size="10.00">/third_party/vulpesrender</text>
<text text-anchor="middle" x="345" y="-63.5" font-family="Helvetica,sans-Serif" font-size="10.00">/src/core/LogicalDevice.cpp</text>
</g>
<!-- Node1 -->
<g id="node2" class="node"><title>Node1</title>
<polygon fill="white" stroke="#bfbfbf" points="0,-0.5 0,-19.5 68,-19.5 68,-0.5 0,-0.5"/>
<text text-anchor="middle" x="34" y="-7.5" font-family="Helvetica,sans-Serif" font-size="10.00">vpr_stdafx.h</text>
</g>
<!-- Node0&#45;&gt;Node1 -->
<g id="edge1" class="edge"><title>Node0&#45;&gt;Node1</title>
<path fill="none" stroke="midnightblue" d="M271.691,-64.8818C211.545,-51.2473 128.377,-32.3941 78.0437,-20.9842"/>
<polygon fill="midnightblue" stroke="midnightblue" points="78.653,-17.5336 68.1267,-18.7361 77.1054,-24.3604 78.653,-17.5336"/>
</g>
<!-- Node2 -->
<g id="node3" class="node"><title>Node2</title>
<polygon fill="white" stroke="#bfbfbf" points="86,-0.5 86,-19.5 202,-19.5 202,-0.5 86,-0.5"/>
<text text-anchor="middle" x="144" y="-7.5" font-family="Helvetica,sans-Serif" font-size="10.00">core/LogicalDevice.hpp</text>
</g>
<!-- Node0&#45;&gt;Node2 -->
<g id="edge2" class="edge"><title>Node0&#45;&gt;Node2</title>
<path fill="none" stroke="midnightblue" d="M273.569,-56.4458C240.951,-45.0051 203.863,-31.9966 177.75,-22.8375"/>
<polygon fill="midnightblue" stroke="midnightblue" points="178.906,-19.5341 168.311,-19.527 176.589,-26.1396 178.906,-19.5341"/>
</g>
<!-- Node3 -->
<g id="node4" class="node"><title>Node3</title>
<polygon fill="white" stroke="#bfbfbf" points="220.5,-0.5 220.5,-19.5 343.5,-19.5 343.5,-0.5 220.5,-0.5"/>
<text text-anchor="middle" x="282" y="-7.5" font-family="Helvetica,sans-Serif" font-size="10.00">core/PhysicalDevice.hpp</text>
</g>
<!-- Node0&#45;&gt;Node3 -->
<g id="edge3" class="edge"><title>Node0&#45;&gt;Node3</title>
<path fill="none" stroke="midnightblue" d="M322.611,-56.4458C313.927,-46.7283 304.233,-35.8797 296.494,-27.2196"/>
<polygon fill="midnightblue" stroke="midnightblue" points="299.044,-24.8199 289.77,-19.6955 293.824,-29.4842 299.044,-24.8199"/>
</g>
<!-- Node4 -->
<g id="node5" class="node"><title>Node4</title>
<polygon fill="white" stroke="#bfbfbf" points="362,-0.5 362,-19.5 456,-19.5 456,-0.5 362,-0.5"/>
<text text-anchor="middle" x="409" y="-7.5" font-family="Helvetica,sans-Serif" font-size="10.00">core/Instance.hpp</text>
</g>
<!-- Node0&#45;&gt;Node4 -->
<g id="edge4" class="edge"><title>Node0&#45;&gt;Node4</title>
<path fill="none" stroke="midnightblue" d="M367.744,-56.4458C376.566,-46.7283 386.414,-35.8797 394.276,-27.2196"/>
<polygon fill="midnightblue" stroke="midnightblue" points="396.976,-29.4522 401.106,-19.6955 391.793,-24.7471 396.976,-29.4522"/>
</g>
<!-- Node5 -->
<g id="node6" class="node"><title>Node5</title>
<polygon fill="white" stroke="#bfbfbf" points="474.5,-0.5 474.5,-19.5 571.5,-19.5 571.5,-0.5 474.5,-0.5"/>
<text text-anchor="middle" x="523" y="-7.5" font-family="Helvetica,sans-Serif" font-size="10.00">alloc/Allocator.hpp</text>
</g>
<!-- Node0&#45;&gt;Node5 -->
<g id="edge5" class="edge"><title>Node0&#45;&gt;Node5</title>
<path fill="none" stroke="midnightblue" d="M408.257,-56.4458C436.634,-45.2067 468.831,-32.4546 491.881,-23.3253"/>
<polygon fill="midnightblue" stroke="midnightblue" points="493.462,-26.4635 501.471,-19.527 490.885,-19.9553 493.462,-26.4635"/>
</g>
<!-- Node6 -->
<g id="node7" class="node"><title>Node6</title>
<polygon fill="white" stroke="#bfbfbf" points="590,-0.5 590,-19.5 694,-19.5 694,-0.5 590,-0.5"/>
<text text-anchor="middle" x="642" y="-7.5" font-family="Helvetica,sans-Serif" font-size="10.00">util/easylogging++.h</text>
</g>
<!-- Node0&#45;&gt;Node6 -->
<g id="edge6" class="edge"><title>Node0&#45;&gt;Node6</title>
<path fill="none" stroke="midnightblue" d="M418.035,-64.1635C473.72,-50.9453 548.687,-33.1501 596.188,-21.8746"/>
<polygon fill="midnightblue" stroke="midnightblue" points="597.261,-25.2173 606.182,-19.5023 595.644,-18.4066 597.261,-25.2173"/>
</g>
</g>
</svg>
