<?xml version="1.0" encoding="UTF-8" standalone="no"?>
<!DOCTYPE svg PUBLIC "-//W3C//DTD SVG 1.1//EN"
 "http://www.w3.org/Graphics/SVG/1.1/DTD/svg11.dtd">
<!-- Generated by graphviz version 2.38.0 (20140413.2041)
 -->
<!-- Title: vpr::AllocatorImpl::findMemoryTypeIdx Pages: 1 -->
<svg width="271pt" height="78pt"
 viewBox="0.00 0.00 271.00 77.50" xmlns="http://www.w3.org/2000/svg" xmlns:xlink="http://www.w3.org/1999/xlink">
<g id="graph0" class="graph" transform="scale(1 1) rotate(0) translate(4 73.5)">
<title>vpr::AllocatorImpl::findMemoryTypeIdx</title>
<polygon fill="white" stroke="none" points="-4,4 -4,-73.5 267,-73.5 267,4 -4,4"/>
<!-- Node26 -->
<g id="node1" class="node"><title>Node26</title>
<polygon fill="#bfbfbf" stroke="black" points="0,-22.5 0,-52.5 107,-52.5 107,-22.5 0,-22.5"/>
<text text-anchor="start" x="8" y="-40.5" font-family="Helvetica,sans-Serif" font-size="10.00">vpr::AllocatorImpl</text>
<text text-anchor="middle" x="53.5" y="-29.5" font-family="Helvetica,sans-Serif" font-size="10.00">::findMemoryTypeIdx</text>
</g>
<!-- Node27 -->
<g id="node2" class="node"><title>Node27</title>
<g id="a_node2"><a xlink:href="namespacevpr.html#a4670febea81bc9a6a25fb8b1cf1afaaa" target="_top" xlink:title="vpr::countBitsSet">
<polygon fill="white" stroke="black" points="157.5,-50 157.5,-69 248.5,-69 248.5,-50 157.5,-50"/>
<text text-anchor="middle" x="203" y="-57" font-family="Helvetica,sans-Serif" font-size="10.00">vpr::countBitsSet</text>
</a>
</g>
</g>
<!-- Node26&#45;&gt;Node27 -->
<g id="edge1" class="edge"><title>Node26&#45;&gt;Node27</title>
<path fill="none" stroke="midnightblue" d="M107.334,-45.3804C120.249,-47.3066 134.097,-49.3721 147.106,-51.3123"/>
<polygon fill="midnightblue" stroke="midnightblue" points="146.918,-54.823 157.325,-52.8365 147.95,-47.8995 146.918,-54.823"/>
</g>
<!-- Node28 -->
<g id="node3" class="node"><title>Node28</title>
<g id="a_node3"><a xlink:href="structvpr_1_1_allocator_impl.html#a7848aa696f40eef78c8e380dd578b8ef" target="_top" xlink:title="vpr::AllocatorImpl\l::GetMemoryTypeCount">
<polygon fill="white" stroke="black" points="143,-0.5 143,-30.5 263,-30.5 263,-0.5 143,-0.5"/>
<text text-anchor="start" x="151" y="-18.5" font-family="Helvetica,sans-Serif" font-size="10.00">vpr::AllocatorImpl</text>
<text text-anchor="middle" x="203" y="-7.5" font-family="Helvetica,sans-Serif" font-size="10.00">::GetMemoryTypeCount</text>
</a>
</g>
</g>
<!-- Node26&#45;&gt;Node28 -->
<g id="edge2" class="edge"><title>Node26&#45;&gt;Node28</title>
<path fill="none" stroke="midnightblue" d="M107.334,-29.6196C115.593,-28.3878 124.233,-27.0992 132.791,-25.8227"/>
<polygon fill="midnightblue" stroke="midnightblue" points="133.398,-29.271 142.772,-24.334 132.365,-22.3476 133.398,-29.271"/>
</g>
</g>
</svg>
