<?xml version="1.0" encoding="UTF-8" standalone="no"?>
<!DOCTYPE svg PUBLIC "-//W3C//DTD SVG 1.1//EN"
 "http://www.w3.org/Graphics/SVG/1.1/DTD/svg11.dtd">
<!-- Generated by graphviz version 2.38.0 (20140413.2041)
 -->
<!-- Title: vpr::InstanceExtensionHandler Pages: 1 -->
<svg width="262pt" height="241pt"
 viewBox="0.00 0.00 261.50 241.00" xmlns="http://www.w3.org/2000/svg" xmlns:xlink="http://www.w3.org/1999/xlink">
<g id="graph0" class="graph" transform="scale(1 1) rotate(0) translate(4 237)">
<title>vpr::InstanceExtensionHandler</title>
<polygon fill="white" stroke="none" points="-4,4 -4,-237 257.5,-237 257.5,4 -4,4"/>
<!-- Node1 -->
<g id="node1" class="node"><title>Node1</title>
<polygon fill="#bfbfbf" stroke="black" points="29.5,-0.5 29.5,-19.5 177.5,-19.5 177.5,-0.5 29.5,-0.5"/>
<text text-anchor="middle" x="103.5" y="-7.5" font-family="Helvetica,sans-Serif" font-size="10.00">vpr::InstanceExtensionHandler</text>
</g>
<!-- Node2 -->
<g id="node2" class="node"><title>Node2</title>
<polygon fill="white" stroke="#bfbfbf" points="0,-67.5 0,-97.5 95,-97.5 95,-67.5 0,-67.5"/>
<text text-anchor="start" x="8" y="-85.5" font-family="Helvetica,sans-Serif" font-size="10.00">std::vector&lt; const</text>
<text text-anchor="middle" x="47.5" y="-74.5" font-family="Helvetica,sans-Serif" font-size="10.00"> char *&gt;</text>
</g>
<!-- Node2&#45;&gt;Node1 -->
<g id="edge1" class="edge"><title>Node2&#45;&gt;Node1</title>
<path fill="none" stroke="#9a32cd" stroke-dasharray="5,2" d="M52.7359,-57.3428C54.9803,-50.6233 58.1272,-43.6313 62.5,-38 68.459,-30.3259 77.2412,-24.1323 85.1505,-19.6225"/>
<polygon fill="#9a32cd" stroke="#9a32cd" points="49.2338,-56.8693 49.9055,-67.4429 55.9741,-58.7583 49.2338,-56.8693"/>
<text text-anchor="middle" x="100.5" y="-41" font-family="Helvetica,sans-Serif" font-size="10.00"> extensionStrings</text>
</g>
<!-- Node3 -->
<g id="node3" class="node"><title>Node3</title>
<polygon fill="white" stroke="#bfbfbf" points="113,-73 113,-92 236,-92 236,-73 113,-73"/>
<text text-anchor="middle" x="174.5" y="-80" font-family="Helvetica,sans-Serif" font-size="10.00">std::vector&lt; std::string &gt;</text>
</g>
<!-- Node3&#45;&gt;Node1 -->
<g id="edge2" class="edge"><title>Node3&#45;&gt;Node1</title>
<path fill="none" stroke="#9a32cd" stroke-dasharray="5,2" d="M162.016,-64.6838C155.431,-56.2826 146.976,-46.1903 138.5,-38 131.546,-31.2807 122.959,-24.635 116.031,-19.6182"/>
<polygon fill="#9a32cd" stroke="#9a32cd" points="159.27,-66.855 168.122,-72.6758 164.832,-62.6049 159.27,-66.855"/>
<text text-anchor="middle" x="200.5" y="-41" font-family="Helvetica,sans-Serif" font-size="10.00"> copiedExtensionStrings</text>
</g>
<!-- Node4 -->
<g id="node4" class="node"><title>Node4</title>
<g id="a_node4"><a xlink:title="STL class. ">
<polygon fill="white" stroke="#bfbfbf" points="144.5,-145.5 144.5,-164.5 204.5,-164.5 204.5,-145.5 144.5,-145.5"/>
<text text-anchor="middle" x="174.5" y="-152.5" font-family="Helvetica,sans-Serif" font-size="10.00">std::string</text>
</a>
</g>
</g>
<!-- Node4&#45;&gt;Node3 -->
<g id="edge3" class="edge"><title>Node4&#45;&gt;Node3</title>
<path fill="none" stroke="#9a32cd" stroke-dasharray="5,2" d="M174.5,-134.942C174.5,-121.03 174.5,-102.82 174.5,-92.2154"/>
<polygon fill="#9a32cd" stroke="#9a32cd" points="171,-135.355 174.5,-145.355 178,-135.355 171,-135.355"/>
<text text-anchor="middle" x="196" y="-119" font-family="Helvetica,sans-Serif" font-size="10.00"> elements</text>
</g>
<!-- Node5 -->
<g id="node5" class="node"><title>Node5</title>
<g id="a_node5"><a xlink:title="STL class. ">
<polygon fill="white" stroke="#bfbfbf" points="127,-202.5 127,-232.5 222,-232.5 222,-202.5 127,-202.5"/>
<text text-anchor="start" x="135" y="-220.5" font-family="Helvetica,sans-Serif" font-size="10.00">std::basic_string&lt;</text>
<text text-anchor="middle" x="174.5" y="-209.5" font-family="Helvetica,sans-Serif" font-size="10.00"> char &gt;</text>
</a>
</g>
</g>
<!-- Node5&#45;&gt;Node4 -->
<g id="edge4" class="edge"><title>Node5&#45;&gt;Node4</title>
<path fill="none" stroke="midnightblue" d="M174.5,-192.352C174.5,-182.513 174.5,-171.775 174.5,-164.54"/>
<polygon fill="midnightblue" stroke="midnightblue" points="171,-192.468 174.5,-202.468 178,-192.468 171,-192.468"/>
</g>
</g>
</svg>
