<?xml version="1.0" encoding="UTF-8" standalone="no"?>
<!DOCTYPE svg PUBLIC "-//W3C//DTD SVG 1.1//EN"
 "http://www.w3.org/Graphics/SVG/1.1/DTD/svg11.dtd">
<!-- Generated by graphviz version 2.38.0 (20140413.2041)
 -->
<!-- Title: vpr::DescriptorSetImpl Pages: 1 -->
<svg width="381pt" height="186pt"
 viewBox="0.00 0.00 381.00 186.00" xmlns="http://www.w3.org/2000/svg" xmlns:xlink="http://www.w3.org/1999/xlink">
<g id="graph0" class="graph" transform="scale(1 1) rotate(0) translate(4 182)">
<title>vpr::DescriptorSetImpl</title>
<polygon fill="white" stroke="none" points="-4,4 -4,-182 377,-182 377,4 -4,4"/>
<!-- Node6 -->
<g id="node1" class="node"><title>Node6</title>
<polygon fill="#bfbfbf" stroke="black" points="261,-79 261,-98 373,-98 373,-79 261,-79"/>
<text text-anchor="middle" x="317" y="-86" font-family="Helvetica,sans-Serif" font-size="10.00">vpr::DescriptorSetImpl</text>
</g>
<!-- Node7 -->
<g id="node2" class="node"><title>Node7</title>
<polygon fill="white" stroke="#bfbfbf" points="9.5,-147.5 9.5,-177.5 142.5,-177.5 142.5,-147.5 9.5,-147.5"/>
<text text-anchor="start" x="17.5" y="-165.5" font-family="Helvetica,sans-Serif" font-size="10.00">std::map&lt; size_t, VkBuffer</text>
<text text-anchor="middle" x="76" y="-154.5" font-family="Helvetica,sans-Serif" font-size="10.00">View &gt;</text>
</g>
<!-- Node7&#45;&gt;Node6 -->
<g id="edge1" class="edge"><title>Node7&#45;&gt;Node6</title>
<path fill="none" stroke="#9a32cd" stroke-dasharray="5,2" d="M148.769,-144.945C178.197,-137.256 212.456,-127.67 243,-117.5 260.338,-111.727 279.526,-104.052 293.877,-98.0478"/>
<polygon fill="#9a32cd" stroke="#9a32cd" points="147.79,-141.583 138.987,-147.478 149.545,-148.359 147.79,-141.583"/>
<text text-anchor="middle" x="206.5" y="-141.5" font-family="Helvetica,sans-Serif" font-size="10.00"> bufferViews</text>
</g>
<!-- Node8 -->
<g id="node3" class="node"><title>Node8</title>
<polygon fill="white" stroke="#bfbfbf" points="10.5,-98.5 10.5,-128.5 141.5,-128.5 141.5,-98.5 10.5,-98.5"/>
<text text-anchor="start" x="18.5" y="-116.5" font-family="Helvetica,sans-Serif" font-size="10.00">std::map&lt; size_t, VkWrite</text>
<text text-anchor="middle" x="76" y="-105.5" font-family="Helvetica,sans-Serif" font-size="10.00">DescriptorSet &gt;</text>
</g>
<!-- Node8&#45;&gt;Node6 -->
<g id="edge2" class="edge"><title>Node8&#45;&gt;Node6</title>
<path fill="none" stroke="#9a32cd" stroke-dasharray="5,2" d="M151.943,-105.661C187.259,-101.967 228.634,-97.6387 260.997,-94.2534"/>
<polygon fill="#9a32cd" stroke="#9a32cd" points="151.258,-102.213 141.677,-106.735 151.987,-109.175 151.258,-102.213"/>
<text text-anchor="middle" x="206.5" y="-105.5" font-family="Helvetica,sans-Serif" font-size="10.00"> writeDescriptors</text>
</g>
<!-- Node9 -->
<g id="node4" class="node"><title>Node9</title>
<polygon fill="white" stroke="#bfbfbf" points="0,-49.5 0,-79.5 152,-79.5 152,-49.5 0,-49.5"/>
<text text-anchor="start" x="8" y="-67.5" font-family="Helvetica,sans-Serif" font-size="10.00">std::map&lt; size_t, VkDescriptor</text>
<text text-anchor="middle" x="76" y="-56.5" font-family="Helvetica,sans-Serif" font-size="10.00">BufferInfo &gt;</text>
</g>
<!-- Node9&#45;&gt;Node6 -->
<g id="edge3" class="edge"><title>Node9&#45;&gt;Node6</title>
<path fill="none" stroke="#9a32cd" stroke-dasharray="5,2" d="M162.383,-72.5142C188.284,-75.0034 216.812,-77.803 243,-80.5 248.707,-81.0877 254.663,-81.716 260.605,-82.3525"/>
<polygon fill="#9a32cd" stroke="#9a32cd" points="162.507,-69.0102 152.219,-71.5403 161.84,-75.9782 162.507,-69.0102"/>
<text text-anchor="middle" x="206.5" y="-83.5" font-family="Helvetica,sans-Serif" font-size="10.00"> bufferInfos</text>
</g>
<!-- Node10 -->
<g id="node5" class="node"><title>Node10</title>
<polygon fill="white" stroke="#bfbfbf" points="0,-0.5 0,-30.5 152,-30.5 152,-0.5 0,-0.5"/>
<text text-anchor="start" x="8" y="-18.5" font-family="Helvetica,sans-Serif" font-size="10.00">std::map&lt; size_t, VkDescriptor</text>
<text text-anchor="middle" x="76" y="-7.5" font-family="Helvetica,sans-Serif" font-size="10.00">ImageInfo &gt;</text>
</g>
<!-- Node10&#45;&gt;Node6 -->
<g id="edge4" class="edge"><title>Node10&#45;&gt;Node6</title>
<path fill="none" stroke="#9a32cd" stroke-dasharray="5,2" d="M156.37,-32.9497C184.051,-39.7267 215.147,-48.1245 243,-57.5 261.269,-63.6496 281.389,-72.3444 295.871,-78.9613"/>
<polygon fill="#9a32cd" stroke="#9a32cd" points="156.881,-29.4725 146.339,-30.5274 155.238,-36.2769 156.881,-29.4725"/>
<text text-anchor="middle" x="206.5" y="-60.5" font-family="Helvetica,sans-Serif" font-size="10.00"> imageInfos</text>
</g>
</g>
</svg>
