<?xml version="1.0" encoding="UTF-8" standalone="no"?>
<!DOCTYPE svg PUBLIC "-//W3C//DTD SVG 1.1//EN"
 "http://www.w3.org/Graphics/SVG/1.1/DTD/svg11.dtd">
<!-- Generated by graphviz version 2.38.0 (20140413.2041)
 -->
<!-- Title: vpr::DeviceDataMembers::prepareOptionalExtensions Pages: 1 -->
<svg width="592pt" height="39pt"
 viewBox="0.00 0.00 592.00 39.00" xmlns="http://www.w3.org/2000/svg" xmlns:xlink="http://www.w3.org/1999/xlink">
<g id="graph0" class="graph" transform="scale(1 1) rotate(0) translate(4 35)">
<title>vpr::DeviceDataMembers::prepareOptionalExtensions</title>
<polygon fill="white" stroke="none" points="-4,4 -4,-35 588,-35 588,4 -4,4"/>
<!-- Node10 -->
<g id="node1" class="node"><title>Node10</title>
<polygon fill="#bfbfbf" stroke="black" points="0,-0.5 0,-30.5 140,-30.5 140,-0.5 0,-0.5"/>
<text text-anchor="start" x="8" y="-18.5" font-family="Helvetica,sans-Serif" font-size="10.00">vpr::DeviceDataMembers</text>
<text text-anchor="middle" x="70" y="-7.5" font-family="Helvetica,sans-Serif" font-size="10.00">::prepareOptionalExtensions</text>
</g>
<!-- Node11 -->
<g id="node2" class="node"><title>Node11</title>
<g id="a_node2"><a xlink:href="classvpr_1_1_device.html#a165976c19ab59de329855485a9dab5aa" target="_top" xlink:title="vpr::Device::setupExtensions">
<polygon fill="white" stroke="black" points="176,-6 176,-25 318,-25 318,-6 176,-6"/>
<text text-anchor="middle" x="247" y="-13" font-family="Helvetica,sans-Serif" font-size="10.00">vpr::Device::setupExtensions</text>
</a>
</g>
</g>
<!-- Node10&#45;&gt;Node11 -->
<g id="edge1" class="edge"><title>Node10&#45;&gt;Node11</title>
<path fill="none" stroke="midnightblue" d="M150.169,-15.5C158.751,-15.5 167.441,-15.5 175.904,-15.5"/>
<polygon fill="midnightblue" stroke="midnightblue" points="150.165,-12.0001 140.165,-15.5 150.165,-19.0001 150.165,-12.0001"/>
</g>
<!-- Node12 -->
<g id="node3" class="node"><title>Node12</title>
<g id="a_node3"><a xlink:href="classvpr_1_1_device.html#a3b0734cd598d9a64f3c459e9dc4e84ce" target="_top" xlink:title="vpr::Device::create">
<polygon fill="white" stroke="black" points="354,-6 354,-25 450,-25 450,-6 354,-6"/>
<text text-anchor="middle" x="402" y="-13" font-family="Helvetica,sans-Serif" font-size="10.00">vpr::Device::create</text>
</a>
</g>
</g>
<!-- Node11&#45;&gt;Node12 -->
<g id="edge2" class="edge"><title>Node11&#45;&gt;Node12</title>
<path fill="none" stroke="midnightblue" d="M328.461,-15.5C337.172,-15.5 345.814,-15.5 353.935,-15.5"/>
<polygon fill="midnightblue" stroke="midnightblue" points="328.231,-12.0001 318.231,-15.5 328.231,-19.0001 328.231,-12.0001"/>
</g>
<!-- Node13 -->
<g id="node4" class="node"><title>Node13</title>
<g id="a_node4"><a xlink:href="classvpr_1_1_device.html#ad1a8ebd06d5d8b3de5ce0c8d1ce93277" target="_top" xlink:title="vpr::Device::Device">
<polygon fill="white" stroke="black" points="486,-6 486,-25 584,-25 584,-6 486,-6"/>
<text text-anchor="middle" x="535" y="-13" font-family="Helvetica,sans-Serif" font-size="10.00">vpr::Device::Device</text>
</a>
</g>
</g>
<!-- Node12&#45;&gt;Node13 -->
<g id="edge3" class="edge"><title>Node12&#45;&gt;Node13</title>
<path fill="none" stroke="midnightblue" d="M460.503,-15.5C468.979,-15.5 477.636,-15.5 485.895,-15.5"/>
<polygon fill="midnightblue" stroke="midnightblue" points="460.294,-12.0001 450.294,-15.5 460.294,-19.0001 460.294,-12.0001"/>
</g>
</g>
</svg>
