<?xml version="1.0" encoding="UTF-8" standalone="no"?>
<!DOCTYPE svg PUBLIC "-//W3C//DTD SVG 1.1//EN"
 "http://www.w3.org/Graphics/SVG/1.1/DTD/svg11.dtd">
<!-- Generated by graphviz version 2.38.0 (20140413.2041)
 -->
<!-- Title: vpr::SwapchainImpl::setParameters Pages: 1 -->
<svg width="581pt" height="83pt"
 viewBox="0.00 0.00 581.00 83.00" xmlns="http://www.w3.org/2000/svg" xmlns:xlink="http://www.w3.org/1999/xlink">
<g id="graph0" class="graph" transform="scale(1 1) rotate(0) translate(4 79)">
<title>vpr::SwapchainImpl::setParameters</title>
<polygon fill="white" stroke="none" points="-4,4 -4,-79 577,-79 577,4 -4,4"/>
<!-- Node31 -->
<g id="node1" class="node"><title>Node31</title>
<polygon fill="#bfbfbf" stroke="black" points="0,-22.5 0,-52.5 100,-52.5 100,-22.5 0,-22.5"/>
<text text-anchor="start" x="8" y="-40.5" font-family="Helvetica,sans-Serif" font-size="10.00">vpr::SwapchainImpl</text>
<text text-anchor="middle" x="50" y="-29.5" font-family="Helvetica,sans-Serif" font-size="10.00">::setParameters</text>
</g>
<!-- Node32 -->
<g id="node2" class="node"><title>Node32</title>
<g id="a_node2"><a xlink:href="structvpr_1_1_swapchain_impl.html#a26979c4e9803da67ef61bf098377b341" target="_top" xlink:title="vpr::SwapchainImpl\l::create">
<polygon fill="white" stroke="black" points="136,-22.5 136,-52.5 236,-52.5 236,-22.5 136,-22.5"/>
<text text-anchor="start" x="144" y="-40.5" font-family="Helvetica,sans-Serif" font-size="10.00">vpr::SwapchainImpl</text>
<text text-anchor="middle" x="186" y="-29.5" font-family="Helvetica,sans-Serif" font-size="10.00">::create</text>
</a>
</g>
</g>
<!-- Node31&#45;&gt;Node32 -->
<g id="edge1" class="edge"><title>Node31&#45;&gt;Node32</title>
<path fill="none" stroke="midnightblue" d="M110.398,-37.5C118.909,-37.5 127.586,-37.5 135.87,-37.5"/>
<polygon fill="midnightblue" stroke="midnightblue" points="110.136,-34.0001 100.136,-37.5 110.136,-41.0001 110.136,-34.0001"/>
</g>
<!-- Node33 -->
<g id="node3" class="node"><title>Node33</title>
<g id="a_node3"><a xlink:href="classvpr_1_1_swapchain.html#a34c3d73db1e99d3a395398fc0dbb5dc6" target="_top" xlink:title="vpr::Swapchain::Recreate">
<polygon fill="white" stroke="black" points="272,-50 272,-69 399,-69 399,-50 272,-50"/>
<text text-anchor="middle" x="335.5" y="-57" font-family="Helvetica,sans-Serif" font-size="10.00">vpr::Swapchain::Recreate</text>
</a>
</g>
</g>
<!-- Node32&#45;&gt;Node33 -->
<g id="edge2" class="edge"><title>Node32&#45;&gt;Node33</title>
<path fill="none" stroke="midnightblue" d="M246.266,-46.3396C254.721,-47.6007 263.44,-48.9012 271.955,-50.1713"/>
<polygon fill="midnightblue" stroke="midnightblue" points="246.522,-42.8393 236.115,-44.8257 245.49,-49.7627 246.522,-42.8393"/>
</g>
<!-- Node35 -->
<g id="node5" class="node"><title>Node35</title>
<g id="a_node5"><a xlink:href="structvpr_1_1_swapchain_impl.html#aa1b6cf08451eb2e7bebdbf5ce10a09ed" target="_top" xlink:title="vpr::SwapchainImpl\l::SwapchainImpl">
<polygon fill="white" stroke="black" points="285.5,-0.5 285.5,-30.5 385.5,-30.5 385.5,-0.5 285.5,-0.5"/>
<text text-anchor="start" x="293.5" y="-18.5" font-family="Helvetica,sans-Serif" font-size="10.00">vpr::SwapchainImpl</text>
<text text-anchor="middle" x="335.5" y="-7.5" font-family="Helvetica,sans-Serif" font-size="10.00">::SwapchainImpl</text>
</a>
</g>
</g>
<!-- Node32&#45;&gt;Node35 -->
<g id="edge4" class="edge"><title>Node32&#45;&gt;Node35</title>
<path fill="none" stroke="midnightblue" d="M246.335,-28.65C259.283,-26.7188 272.848,-24.6956 285.348,-22.8312"/>
<polygon fill="midnightblue" stroke="midnightblue" points="245.49,-25.2373 236.115,-30.1743 246.522,-32.1607 245.49,-25.2373"/>
</g>
<!-- Node34 -->
<g id="node4" class="node"><title>Node34</title>
<g id="a_node4"><a xlink:href="namespacevpr.html#a812ad3570ad63ddcbc18e03988bd60bd" target="_top" xlink:title="Pass a swapchain and surface pointer to this to have the swapchain and surface destroyed and recreate...">
<polygon fill="white" stroke="black" points="435,-44.5 435,-74.5 573,-74.5 573,-44.5 435,-44.5"/>
<text text-anchor="start" x="443" y="-62.5" font-family="Helvetica,sans-Serif" font-size="10.00">vpr::RecreateSwapchainAnd</text>
<text text-anchor="middle" x="504" y="-51.5" font-family="Helvetica,sans-Serif" font-size="10.00">Surface</text>
</a>
</g>
</g>
<!-- Node33&#45;&gt;Node34 -->
<g id="edge3" class="edge"><title>Node33&#45;&gt;Node34</title>
<path fill="none" stroke="midnightblue" d="M409.626,-59.5C418.047,-59.5 426.609,-59.5 434.959,-59.5"/>
<polygon fill="midnightblue" stroke="midnightblue" points="409.447,-56.0001 399.447,-59.5 409.446,-63.0001 409.447,-56.0001"/>
</g>
</g>
</svg>
