<?xml version="1.0" encoding="UTF-8" standalone="no"?>
<!DOCTYPE svg PUBLIC "-//W3C//DTD SVG 1.1//EN"
 "http://www.w3.org/Graphics/SVG/1.1/DTD/svg11.dtd">
<!-- Generated by graphviz version 2.38.0 (20140413.2041)
 -->
<!-- Title: vpr::Swapchain::SwapchainInfo::GetBestFormat Pages: 1 -->
<svg width="827pt" height="72pt"
 viewBox="0.00 0.00 827.00 71.50" xmlns="http://www.w3.org/2000/svg" xmlns:xlink="http://www.w3.org/1999/xlink">
<g id="graph0" class="graph" transform="scale(1 1) rotate(0) translate(4 67.5)">
<title>vpr::Swapchain::SwapchainInfo::GetBestFormat</title>
<polygon fill="white" stroke="none" points="-4,4 -4,-67.5 823,-67.5 823,4 -4,4"/>
<!-- Node10 -->
<g id="node1" class="node"><title>Node10</title>
<polygon fill="#bfbfbf" stroke="black" points="0,-14 0,-44 135,-44 135,-14 0,-14"/>
<text text-anchor="start" x="8" y="-32" font-family="Helvetica,sans-Serif" font-size="10.00">vpr::Swapchain::Swapchain</text>
<text text-anchor="middle" x="67.5" y="-21" font-family="Helvetica,sans-Serif" font-size="10.00">Info::GetBestFormat</text>
</g>
<!-- Node11 -->
<g id="node2" class="node"><title>Node11</title>
<g id="a_node2"><a xlink:href="classvpr_1_1_swapchain.html#a72f010b980cf7b7c49bfd63d1548114e" target="_top" xlink:title="vpr::Swapchain::setParameters">
<polygon fill="white" stroke="black" points="171,-19.5 171,-38.5 323,-38.5 323,-19.5 171,-19.5"/>
<text text-anchor="middle" x="247" y="-26.5" font-family="Helvetica,sans-Serif" font-size="10.00">vpr::Swapchain::setParameters</text>
</a>
</g>
</g>
<!-- Node10&#45;&gt;Node11 -->
<g id="edge1" class="edge"><title>Node10&#45;&gt;Node11</title>
<path fill="none" stroke="midnightblue" d="M145.367,-29C153.863,-29 162.506,-29 170.978,-29"/>
<polygon fill="midnightblue" stroke="midnightblue" points="145.099,-25.5001 135.099,-29 145.099,-32.5001 145.099,-25.5001"/>
</g>
<!-- Node12 -->
<g id="node3" class="node"><title>Node12</title>
<g id="a_node3"><a xlink:href="classvpr_1_1_swapchain.html#ad75f5394aaa57d86286a71e5d54ab3c6" target="_top" xlink:title="vpr::Swapchain::create">
<polygon fill="white" stroke="black" points="359,-19.5 359,-38.5 474,-38.5 474,-19.5 359,-19.5"/>
<text text-anchor="middle" x="416.5" y="-26.5" font-family="Helvetica,sans-Serif" font-size="10.00">vpr::Swapchain::create</text>
</a>
</g>
</g>
<!-- Node11&#45;&gt;Node12 -->
<g id="edge2" class="edge"><title>Node11&#45;&gt;Node12</title>
<path fill="none" stroke="midnightblue" d="M333.694,-29C342.125,-29 350.529,-29 358.566,-29"/>
<polygon fill="midnightblue" stroke="midnightblue" points="333.42,-25.5001 323.42,-29 333.42,-32.5001 333.42,-25.5001"/>
</g>
<!-- Node13 -->
<g id="node4" class="node"><title>Node13</title>
<g id="a_node4"><a xlink:href="classvpr_1_1_swapchain.html#acf014a8530f47418adba1c9e62c0c78e" target="_top" xlink:title="vpr::Swapchain::Recreate">
<polygon fill="white" stroke="black" points="514,-38.5 514,-57.5 641,-57.5 641,-38.5 514,-38.5"/>
<text text-anchor="middle" x="577.5" y="-45.5" font-family="Helvetica,sans-Serif" font-size="10.00">vpr::Swapchain::Recreate</text>
</a>
</g>
</g>
<!-- Node12&#45;&gt;Node13 -->
<g id="edge3" class="edge"><title>Node12&#45;&gt;Node13</title>
<path fill="none" stroke="midnightblue" d="M484.167,-36.9664C494.037,-38.1459 504.178,-39.3578 513.96,-40.5267"/>
<polygon fill="midnightblue" stroke="midnightblue" points="484.35,-33.4635 474.005,-35.7522 483.519,-40.4141 484.35,-33.4635"/>
</g>
<!-- Node15 -->
<g id="node6" class="node"><title>Node15</title>
<g id="a_node6"><a xlink:href="classvpr_1_1_swapchain.html#a49bc91a7423fe49320b0375e78653439" target="_top" xlink:title="vpr::Swapchain::Swapchain">
<polygon fill="white" stroke="black" points="510,-0.5 510,-19.5 645,-19.5 645,-0.5 510,-0.5"/>
<text text-anchor="middle" x="577.5" y="-7.5" font-family="Helvetica,sans-Serif" font-size="10.00">vpr::Swapchain::Swapchain</text>
</a>
</g>
</g>
<!-- Node12&#45;&gt;Node15 -->
<g id="edge5" class="edge"><title>Node12&#45;&gt;Node15</title>
<path fill="none" stroke="midnightblue" d="M483.941,-21.0605C492.507,-20.0369 501.281,-18.9884 509.851,-17.9644"/>
<polygon fill="midnightblue" stroke="midnightblue" points="483.519,-17.5859 474.005,-22.2478 484.35,-24.5365 483.519,-17.5859"/>
</g>
<!-- Node14 -->
<g id="node5" class="node"><title>Node14</title>
<g id="a_node5"><a xlink:href="namespacevpr.html#a94afd8081f855771118d14af569f9bba" target="_top" xlink:title="Pass a swapchain and instance pointer to this to have the swapchain and surface destroyed and recreat...">
<polygon fill="white" stroke="black" points="681,-33 681,-63 819,-63 819,-33 681,-33"/>
<text text-anchor="start" x="689" y="-51" font-family="Helvetica,sans-Serif" font-size="10.00">vpr::RecreateSwapchainAnd</text>
<text text-anchor="middle" x="750" y="-40" font-family="Helvetica,sans-Serif" font-size="10.00">Surface</text>
</a>
</g>
</g>
<!-- Node13&#45;&gt;Node14 -->
<g id="edge4" class="edge"><title>Node13&#45;&gt;Node14</title>
<path fill="none" stroke="midnightblue" d="M651.144,-48C660.961,-48 671.005,-48 680.741,-48"/>
<polygon fill="midnightblue" stroke="midnightblue" points="651.02,-44.5001 641.02,-48 651.02,-51.5001 651.02,-44.5001"/>
</g>
</g>
</svg>
