<?xml version="1.0" encoding="UTF-8" standalone="no"?>
<!DOCTYPE svg PUBLIC "-//W3C//DTD SVG 1.1//EN"
 "http://www.w3.org/Graphics/SVG/1.1/DTD/svg11.dtd">
<!-- Generated by graphviz version 2.38.0 (20140413.2041)
 -->
<!-- Title: vpr::SwapchainImpl::SwapchainImpl Pages: 1 -->
<svg width="543pt" height="225pt"
 viewBox="0.00 0.00 543.00 225.00" xmlns="http://www.w3.org/2000/svg" xmlns:xlink="http://www.w3.org/1999/xlink">
<g id="graph0" class="graph" transform="scale(1 1) rotate(0) translate(4 221)">
<title>vpr::SwapchainImpl::SwapchainImpl</title>
<polygon fill="white" stroke="none" points="-4,4 -4,-221 539,-221 539,4 -4,4"/>
<!-- Node0 -->
<g id="node1" class="node"><title>Node0</title>
<polygon fill="#bfbfbf" stroke="black" points="0,-93.5 0,-123.5 100,-123.5 100,-93.5 0,-93.5"/>
<text text-anchor="start" x="8" y="-111.5" font-family="Helvetica,sans-Serif" font-size="10.00">vpr::SwapchainImpl</text>
<text text-anchor="middle" x="50" y="-100.5" font-family="Helvetica,sans-Serif" font-size="10.00">::SwapchainImpl</text>
</g>
<!-- Node1 -->
<g id="node2" class="node"><title>Node1</title>
<g id="a_node2"><a xlink:href="structvpr_1_1_swapchain_impl.html#a26979c4e9803da67ef61bf098377b341" target="_top" xlink:title="vpr::SwapchainImpl\l::create">
<polygon fill="white" stroke="black" points="136,-93.5 136,-123.5 236,-123.5 236,-93.5 136,-93.5"/>
<text text-anchor="start" x="144" y="-111.5" font-family="Helvetica,sans-Serif" font-size="10.00">vpr::SwapchainImpl</text>
<text text-anchor="middle" x="186" y="-100.5" font-family="Helvetica,sans-Serif" font-size="10.00">::create</text>
</a>
</g>
</g>
<!-- Node0&#45;&gt;Node1 -->
<g id="edge1" class="edge"><title>Node0&#45;&gt;Node1</title>
<path fill="none" stroke="midnightblue" d="M100.136,-108.5C108.42,-108.5 117.097,-108.5 125.608,-108.5"/>
<polygon fill="midnightblue" stroke="midnightblue" points="125.87,-112 135.87,-108.5 125.87,-105 125.87,-112"/>
</g>
<!-- Node2 -->
<g id="node3" class="node"><title>Node2</title>
<g id="a_node3"><a xlink:href="structvpr_1_1_swapchain_impl.html#afdf0ef2711d213b7020b37785a62a7ad" target="_top" xlink:title="vpr::SwapchainImpl\l::setParameters">
<polygon fill="white" stroke="black" points="276,-186.5 276,-216.5 376,-216.5 376,-186.5 276,-186.5"/>
<text text-anchor="start" x="284" y="-204.5" font-family="Helvetica,sans-Serif" font-size="10.00">vpr::SwapchainImpl</text>
<text text-anchor="middle" x="326" y="-193.5" font-family="Helvetica,sans-Serif" font-size="10.00">::setParameters</text>
</a>
</g>
</g>
<!-- Node1&#45;&gt;Node2 -->
<g id="edge2" class="edge"><title>Node1&#45;&gt;Node2</title>
<path fill="none" stroke="midnightblue" d="M202.981,-123.587C219.394,-138.556 246.13,-161.513 272,-177.5 274.417,-178.993 276.942,-180.448 279.523,-181.855"/>
<polygon fill="midnightblue" stroke="midnightblue" points="277.942,-184.978 288.436,-186.44 281.144,-178.753 277.942,-184.978"/>
</g>
<!-- Node4 -->
<g id="node5" class="node"><title>Node4</title>
<g id="a_node5"><a xlink:href="structvpr_1_1_swapchain_impl.html#a455468d3084cd9503a64f02d3b53956d" target="_top" xlink:title="vpr::SwapchainImpl\l::setupCreateInfo">
<polygon fill="white" stroke="black" points="276,-137.5 276,-167.5 376,-167.5 376,-137.5 276,-137.5"/>
<text text-anchor="start" x="284" y="-155.5" font-family="Helvetica,sans-Serif" font-size="10.00">vpr::SwapchainImpl</text>
<text text-anchor="middle" x="326" y="-144.5" font-family="Helvetica,sans-Serif" font-size="10.00">::setupCreateInfo</text>
</a>
</g>
</g>
<!-- Node1&#45;&gt;Node4 -->
<g id="edge4" class="edge"><title>Node1&#45;&gt;Node4</title>
<path fill="none" stroke="midnightblue" d="M234.106,-123.519C244.976,-126.985 256.655,-130.709 267.9,-134.294"/>
<polygon fill="midnightblue" stroke="midnightblue" points="267.047,-137.696 277.638,-137.399 269.174,-131.027 267.047,-137.696"/>
</g>
<!-- Node5 -->
<g id="node6" class="node"><title>Node5</title>
<g id="a_node6"><a xlink:href="classvpr_1_1_device.html#a59882855173bef0b13a17b376ea01d45" target="_top" xlink:title="vpr::Device::vkHandle">
<polygon fill="white" stroke="black" points="272,-99 272,-118 380,-118 380,-99 272,-99"/>
<text text-anchor="middle" x="326" y="-106" font-family="Helvetica,sans-Serif" font-size="10.00">vpr::Device::vkHandle</text>
</a>
</g>
</g>
<!-- Node1&#45;&gt;Node5 -->
<g id="edge5" class="edge"><title>Node1&#45;&gt;Node5</title>
<path fill="none" stroke="midnightblue" d="M236.042,-108.5C244.395,-108.5 253.174,-108.5 261.83,-108.5"/>
<polygon fill="midnightblue" stroke="midnightblue" points="261.902,-112 271.902,-108.5 261.902,-105 261.902,-112"/>
</g>
<!-- Node6 -->
<g id="node7" class="node"><title>Node6</title>
<g id="a_node7"><a xlink:href="structvpr_1_1_swapchain_impl.html#acc94e08e83ec3857bffdea08e9b4bf65" target="_top" xlink:title="vpr::SwapchainImpl\l::setupSwapImages">
<polygon fill="white" stroke="black" points="275,-49.5 275,-79.5 377,-79.5 377,-49.5 275,-49.5"/>
<text text-anchor="start" x="283" y="-67.5" font-family="Helvetica,sans-Serif" font-size="10.00">vpr::SwapchainImpl</text>
<text text-anchor="middle" x="326" y="-56.5" font-family="Helvetica,sans-Serif" font-size="10.00">::setupSwapImages</text>
</a>
</g>
</g>
<!-- Node1&#45;&gt;Node6 -->
<g id="edge6" class="edge"><title>Node1&#45;&gt;Node6</title>
<path fill="none" stroke="midnightblue" d="M234.106,-93.4808C244.976,-90.0148 256.655,-86.2911 267.9,-82.7059"/>
<polygon fill="midnightblue" stroke="midnightblue" points="269.174,-85.9733 277.638,-79.6009 267.047,-79.3041 269.174,-85.9733"/>
</g>
<!-- Node7 -->
<g id="node8" class="node"><title>Node7</title>
<g id="a_node8"><a xlink:href="structvpr_1_1_swapchain_impl.html#aaded5613928f1e39c1a61ac25be8bf88" target="_top" xlink:title="vpr::SwapchainImpl\l::setupImageViews">
<polygon fill="white" stroke="black" points="276,-0.5 276,-30.5 376,-30.5 376,-0.5 276,-0.5"/>
<text text-anchor="start" x="284" y="-18.5" font-family="Helvetica,sans-Serif" font-size="10.00">vpr::SwapchainImpl</text>
<text text-anchor="middle" x="326" y="-7.5" font-family="Helvetica,sans-Serif" font-size="10.00">::setupImageViews</text>
</a>
</g>
</g>
<!-- Node1&#45;&gt;Node7 -->
<g id="edge7" class="edge"><title>Node1&#45;&gt;Node7</title>
<path fill="none" stroke="midnightblue" d="M203.382,-93.4599C219.891,-78.7835 246.506,-56.4037 272,-40.5 274.805,-38.75 277.753,-37.0414 280.761,-35.3919"/>
<polygon fill="midnightblue" stroke="midnightblue" points="282.633,-38.3627 289.885,-30.6384 279.399,-32.1546 282.633,-38.3627"/>
</g>
<!-- Node3 -->
<g id="node4" class="node"><title>Node3</title>
<g id="a_node4"><a xlink:href="namespacevpr.html#afa4d7a5ad29cbfc728d5c355d990d242" target="_top" xlink:title="vpr::getPresentModeStr">
<polygon fill="white" stroke="black" points="416,-192 416,-211 535,-211 535,-192 416,-192"/>
<text text-anchor="middle" x="475.5" y="-199" font-family="Helvetica,sans-Serif" font-size="10.00">vpr::getPresentModeStr</text>
</a>
</g>
</g>
<!-- Node2&#45;&gt;Node3 -->
<g id="edge3" class="edge"><title>Node2&#45;&gt;Node3</title>
<path fill="none" stroke="midnightblue" d="M376.115,-201.5C385.57,-201.5 395.634,-201.5 405.581,-201.5"/>
<polygon fill="midnightblue" stroke="midnightblue" points="405.873,-205 415.873,-201.5 405.873,-198 405.873,-205"/>
</g>
</g>
</svg>
