<?xml version="1.0" encoding="UTF-8" standalone="no"?>
<!DOCTYPE svg PUBLIC "-//W3C//DTD SVG 1.1//EN"
 "http://www.w3.org/Graphics/SVG/1.1/DTD/svg11.dtd">
<!-- Generated by graphviz version 2.38.0 (20140413.2041)
 -->
<!-- Title: vpr::raw_equal_comparator Pages: 1 -->
<svg width="140pt" height="240pt"
 viewBox="0.00 0.00 140.00 240.00" xmlns="http://www.w3.org/2000/svg" xmlns:xlink="http://www.w3.org/1999/xlink">
<g id="graph0" class="graph" transform="scale(1 1) rotate(0) translate(4 236)">
<title>vpr::raw_equal_comparator</title>
<polygon fill="white" stroke="none" points="-4,4 -4,-236 136,-236 136,4 -4,4"/>
<!-- Node1 -->
<g id="node1" class="node"><title>Node1</title>
<polygon fill="#bfbfbf" stroke="black" points="0,-0.5 0,-19.5 132,-19.5 132,-0.5 0,-0.5"/>
<text text-anchor="middle" x="66" y="-7.5" font-family="Helvetica,sans-Serif" font-size="10.00">vpr::raw_equal_comparator</text>
</g>
<!-- Node2 -->
<g id="node2" class="node"><title>Node2</title>
<g id="a_node2"><a xlink:href="classvpr_1_1_allocation.html" target="_top" xlink:title="Allocation class represents a singular allocation: can be a private allocation (i.e, only user of attached DeviceMemory) or a block allocation (bound to sub&#45;region of device memory) ">
<polygon fill="white" stroke="black" points="27.5,-67.5 27.5,-86.5 104.5,-86.5 104.5,-67.5 27.5,-67.5"/>
<text text-anchor="middle" x="66" y="-74.5" font-family="Helvetica,sans-Serif" font-size="10.00">vpr::Allocation</text>
</a>
</g>
</g>
<!-- Node2&#45;&gt;Node1 -->
<g id="edge1" class="edge"><title>Node2&#45;&gt;Node1</title>
<path fill="none" stroke="#9a32cd" stroke-dasharray="5,2" d="M66,-57.037C66,-44.6703 66,-29.1198 66,-19.6273"/>
<polygon fill="#9a32cd" stroke="#9a32cd" points="62.5001,-57.2338 66,-67.2338 69.5001,-57.2338 62.5001,-57.2338"/>
<text text-anchor="middle" x="73.5" y="-41" font-family="Helvetica,sans-Serif" font-size="10.00"> ptr</text>
</g>
<!-- Node3 -->
<g id="node3" class="node"><title>Node3</title>
<polygon fill="white" stroke="#bfbfbf" points="15,-134.5 15,-164.5 117,-164.5 117,-134.5 15,-134.5"/>
<text text-anchor="start" x="23" y="-152.5" font-family="Helvetica,sans-Serif" font-size="10.00">std::unique_ptr&lt; vpr</text>
<text text-anchor="middle" x="66" y="-141.5" font-family="Helvetica,sans-Serif" font-size="10.00">::AllocationImpl &gt;</text>
</g>
<!-- Node3&#45;&gt;Node2 -->
<g id="edge2" class="edge"><title>Node3&#45;&gt;Node2</title>
<path fill="none" stroke="#9a32cd" stroke-dasharray="5,2" d="M66,-124.091C66,-111.214 66,-96.1974 66,-86.8932"/>
<polygon fill="#9a32cd" stroke="#9a32cd" points="62.5001,-124.233 66,-134.233 69.5001,-124.233 62.5001,-124.233"/>
<text text-anchor="middle" x="77" y="-108" font-family="Helvetica,sans-Serif" font-size="10.00"> impl</text>
</g>
<!-- Node4 -->
<g id="node4" class="node"><title>Node4</title>
<g id="a_node4"><a xlink:href="namespacevpr.html#structvpr_1_1_allocation_impl" target="_top" xlink:title="vpr::AllocationImpl">
<polygon fill="white" stroke="black" points="18.5,-212.5 18.5,-231.5 113.5,-231.5 113.5,-212.5 18.5,-212.5"/>
<text text-anchor="middle" x="66" y="-219.5" font-family="Helvetica,sans-Serif" font-size="10.00">vpr::AllocationImpl</text>
</a>
</g>
</g>
<!-- Node4&#45;&gt;Node3 -->
<g id="edge3" class="edge"><title>Node4&#45;&gt;Node3</title>
<path fill="none" stroke="#9a32cd" stroke-dasharray="5,2" d="M66,-202.236C66,-190.408 66,-175.383 66,-164.576"/>
<polygon fill="#9a32cd" stroke="#9a32cd" points="62.5001,-202.355 66,-212.355 69.5001,-202.355 62.5001,-202.355"/>
<text text-anchor="middle" x="73.5" y="-186" font-family="Helvetica,sans-Serif" font-size="10.00"> ptr</text>
</g>
</g>
</svg>
