<?xml version="1.0" encoding="UTF-8" standalone="no"?>
<!DOCTYPE svg PUBLIC "-//W3C//DTD SVG 1.1//EN"
 "http://www.w3.org/Graphics/SVG/1.1/DTD/svg11.dtd">
<!-- Generated by graphviz version 2.38.0 (20140413.2041)
 -->
<!-- Title: vpr::DebugVisualizationImpl Pages: 1 -->
<svg width="2730pt" height="237pt"
 viewBox="0.00 0.00 2730.00 237.00" xmlns="http://www.w3.org/2000/svg" xmlns:xlink="http://www.w3.org/1999/xlink">
<g id="graph0" class="graph" transform="scale(1 1) rotate(0) translate(4 233)">
<title>vpr::DebugVisualizationImpl</title>
<polygon fill="white" stroke="none" points="-4,4 -4,-233 2726,-233 2726,4 -4,4"/>
<!-- Node1 -->
<g id="node1" class="node"><title>Node1</title>
<polygon fill="#bfbfbf" stroke="black" points="2455,-124.5 2455,-143.5 2591,-143.5 2591,-124.5 2455,-124.5"/>
<text text-anchor="middle" x="2523" y="-131.5" font-family="Helvetica,sans-Serif" font-size="10.00">vpr::DebugVisualizationImpl</text>
</g>
<!-- Node2 -->
<g id="node2" class="node"><title>Node2</title>
<polygon fill="white" stroke="#bfbfbf" points="1420,-187.5 1420,-228.5 1543,-228.5 1543,-187.5 1420,-187.5"/>
<text text-anchor="start" x="1428" y="-216.5" font-family="Helvetica,sans-Serif" font-size="10.00">std::map&lt; AllocatorImpl</text>
<text text-anchor="start" x="1428" y="-205.5" font-family="Helvetica,sans-Serif" font-size="10.00">::AllocationSize, vpr</text>
<text text-anchor="middle" x="1481.5" y="-194.5" font-family="Helvetica,sans-Serif" font-size="10.00">::MemoryBlocksGroup &gt;</text>
</g>
<!-- Node2&#45;&gt;Node1 -->
<g id="edge1" class="edge"><title>Node2&#45;&gt;Node1</title>
<path fill="none" stroke="#9a32cd" stroke-dasharray="5,2" d="M1553.36,-208.46C1599.76,-208.723 1661.74,-209 1716.5,-209 1716.5,-209 1716.5,-209 2334.5,-209 2403.92,-209 2478.12,-164.135 2508.18,-143.805"/>
<polygon fill="#9a32cd" stroke="#9a32cd" points="1553.12,-204.959 1543.1,-208.401 1553.08,-211.959 1553.12,-204.959"/>
<text text-anchor="middle" x="1960.5" y="-212" font-family="Helvetica,sans-Serif" font-size="10.00"> Data</text>
</g>
<!-- Node3 -->
<g id="node3" class="node"><title>Node3</title>
<g id="a_node3"><a xlink:href="structvpr_1_1_memory_blocks_group.html" target="_top" xlink:title="vpr::MemoryBlocksGroup">
<polygon fill="white" stroke="black" points="1138,-196.5 1138,-215.5 1264,-215.5 1264,-196.5 1138,-196.5"/>
<text text-anchor="middle" x="1201" y="-203.5" font-family="Helvetica,sans-Serif" font-size="10.00">vpr::MemoryBlocksGroup</text>
</a>
</g>
</g>
<!-- Node3&#45;&gt;Node2 -->
<g id="edge2" class="edge"><title>Node3&#45;&gt;Node2</title>
<path fill="none" stroke="#9a32cd" stroke-dasharray="5,2" d="M1274.2,-206.518C1319.45,-206.843 1377.12,-207.258 1419.97,-207.565"/>
<polygon fill="#9a32cd" stroke="#9a32cd" points="1274.18,-203.018 1264.15,-206.446 1274.13,-210.018 1274.18,-203.018"/>
<text text-anchor="middle" x="1342" y="-210" font-family="Helvetica,sans-Serif" font-size="10.00"> elements</text>
</g>
<!-- Node4 -->
<g id="node4" class="node"><title>Node4</title>
<polygon fill="white" stroke="#bfbfbf" points="840,-191 840,-221 964,-221 964,-191 840,-191"/>
<text text-anchor="start" x="848" y="-209" font-family="Helvetica,sans-Serif" font-size="10.00">std::vector&lt; vpr::Memory</text>
<text text-anchor="middle" x="902" y="-198" font-family="Helvetica,sans-Serif" font-size="10.00">BlockInfo &gt;</text>
</g>
<!-- Node4&#45;&gt;Node3 -->
<g id="edge3" class="edge"><title>Node4&#45;&gt;Node3</title>
<path fill="none" stroke="#9a32cd" stroke-dasharray="5,2" d="M974.248,-206C1024.13,-206 1090.14,-206 1137.88,-206"/>
<polygon fill="#9a32cd" stroke="#9a32cd" points="974.179,-202.5 964.178,-206 974.178,-209.5 974.179,-202.5"/>
<text text-anchor="middle" x="1051" y="-209" font-family="Helvetica,sans-Serif" font-size="10.00"> Blocks</text>
</g>
<!-- Node5 -->
<g id="node5" class="node"><title>Node5</title>
<g id="a_node5"><a xlink:href="structvpr_1_1_memory_block_info.html" target="_top" xlink:title="vpr::MemoryBlockInfo">
<polygon fill="white" stroke="black" points="531,-195.5 531,-214.5 641,-214.5 641,-195.5 531,-195.5"/>
<text text-anchor="middle" x="586" y="-202.5" font-family="Helvetica,sans-Serif" font-size="10.00">vpr::MemoryBlockInfo</text>
</a>
</g>
</g>
<!-- Node5&#45;&gt;Node4 -->
<g id="edge4" class="edge"><title>Node5&#45;&gt;Node4</title>
<path fill="none" stroke="#9a32cd" stroke-dasharray="5,2" d="M651.355,-205.205C706.557,-205.381 785.549,-205.632 839.814,-205.805"/>
<polygon fill="#9a32cd" stroke="#9a32cd" points="651.347,-201.705 641.336,-205.173 651.325,-208.705 651.347,-201.705"/>
<text text-anchor="middle" x="680.5" y="-208" font-family="Helvetica,sans-Serif" font-size="10.00"> elements</text>
</g>
<!-- Node6 -->
<g id="node6" class="node"><title>Node6</title>
<polygon fill="white" stroke="#bfbfbf" points="238,-190 238,-220 409,-220 409,-190 238,-190"/>
<text text-anchor="start" x="246" y="-208" font-family="Helvetica,sans-Serif" font-size="10.00">std::forward_list&lt;</text>
<text text-anchor="middle" x="323.5" y="-197" font-family="Helvetica,sans-Serif" font-size="10.00"> vpr::SuballocationDrawCommand &gt;</text>
</g>
<!-- Node6&#45;&gt;Node5 -->
<g id="edge5" class="edge"><title>Node6&#45;&gt;Node5</title>
<path fill="none" stroke="#9a32cd" stroke-dasharray="5,2" d="M419.514,-205C456.954,-205 498.594,-205 530.739,-205"/>
<polygon fill="#9a32cd" stroke="#9a32cd" points="419.077,-201.5 409.077,-205 419.077,-208.5 419.077,-201.5"/>
<text text-anchor="middle" x="470" y="-208" font-family="Helvetica,sans-Serif" font-size="10.00"> DrawCommands</text>
</g>
<!-- Node7 -->
<g id="node7" class="node"><title>Node7</title>
<g id="a_node7"><a xlink:href="structvpr_1_1_suballocation_draw_command.html" target="_top" xlink:title="vpr::SuballocationDrawCommand">
<polygon fill="white" stroke="black" points="0,-195.5 0,-214.5 159,-214.5 159,-195.5 0,-195.5"/>
<text text-anchor="middle" x="79.5" y="-202.5" font-family="Helvetica,sans-Serif" font-size="10.00">vpr::SuballocationDrawCommand</text>
</a>
</g>
</g>
<!-- Node7&#45;&gt;Node6 -->
<g id="edge6" class="edge"><title>Node7&#45;&gt;Node6</title>
<path fill="none" stroke="#9a32cd" stroke-dasharray="5,2" d="M169.214,-205C191.561,-205 215.493,-205 237.645,-205"/>
<polygon fill="#9a32cd" stroke="#9a32cd" points="169.07,-201.5 159.07,-205 169.07,-208.5 169.07,-201.5"/>
<text text-anchor="middle" x="198.5" y="-208" font-family="Helvetica,sans-Serif" font-size="10.00"> elements</text>
</g>
<!-- Node8 -->
<g id="node8" class="node"><title>Node8</title>
<polygon fill="white" stroke="#bfbfbf" points="252,-147.5 252,-166.5 395,-166.5 395,-147.5 252,-147.5"/>
<text text-anchor="middle" x="323.5" y="-154.5" font-family="Helvetica,sans-Serif" font-size="10.00">std::list&lt; vpr::Suballocation &gt;</text>
</g>
<!-- Node8&#45;&gt;Node5 -->
<g id="edge7" class="edge"><title>Node8&#45;&gt;Node5</title>
<path fill="none" stroke="#9a32cd" stroke-dasharray="5,2" d="M391.823,-168.247C427.826,-174.397 472.885,-182.312 513,-190 521.904,-191.706 531.407,-193.62 540.492,-195.495"/>
<polygon fill="#9a32cd" stroke="#9a32cd" points="392.366,-164.789 381.92,-166.561 391.19,-171.69 392.366,-164.789"/>
<text text-anchor="middle" x="470" y="-193" font-family="Helvetica,sans-Serif" font-size="10.00"> Suballocations</text>
</g>
<!-- Node9 -->
<g id="node9" class="node"><title>Node9</title>
<g id="a_node9"><a xlink:href="structvpr_1_1_suballocation.html" target="_top" xlink:title="During the process of finding a suitable region to bind to, we need to store things like &quot;Suballocati...">
<polygon fill="white" stroke="black" points="33,-127.5 33,-146.5 126,-146.5 126,-127.5 33,-127.5"/>
<text text-anchor="middle" x="79.5" y="-134.5" font-family="Helvetica,sans-Serif" font-size="10.00">vpr::Suballocation</text>
</a>
</g>
</g>
<!-- Node9&#45;&gt;Node8 -->
<g id="edge8" class="edge"><title>Node9&#45;&gt;Node8</title>
<path fill="none" stroke="#9a32cd" stroke-dasharray="5,2" d="M136.352,-141.616C170.748,-144.459 215.151,-148.128 251.962,-151.17"/>
<polygon fill="#9a32cd" stroke="#9a32cd" points="136.273,-138.097 126.018,-140.762 135.696,-145.074 136.273,-138.097"/>
<text text-anchor="middle" x="198.5" y="-152" font-family="Helvetica,sans-Serif" font-size="10.00"> elements</text>
</g>
<!-- Node20 -->
<g id="node20" class="node"><title>Node20</title>
<polygon fill="white" stroke="#bfbfbf" points="261,-101.5 261,-120.5 386,-120.5 386,-101.5 261,-101.5"/>
<text text-anchor="middle" x="323.5" y="-108.5" font-family="Helvetica,sans-Serif" font-size="10.00">std::list&lt; Suballocation &gt;</text>
</g>
<!-- Node9&#45;&gt;Node20 -->
<g id="edge21" class="edge"><title>Node9&#45;&gt;Node20</title>
<path fill="none" stroke="#9a32cd" stroke-dasharray="5,2" d="M136.18,-131.018C173.382,-127.021 222.346,-121.76 260.743,-117.635"/>
<polygon fill="#9a32cd" stroke="#9a32cd" points="135.587,-127.561 126.018,-132.11 136.335,-134.521 135.587,-127.561"/>
<text text-anchor="middle" x="198.5" y="-130" font-family="Helvetica,sans-Serif" font-size="10.00"> elements</text>
</g>
<!-- Node10 -->
<g id="node10" class="node"><title>Node10</title>
<g id="a_node10"><a xlink:href="structvpr_1_1_allocator_impl.html" target="_top" xlink:title="vpr::AllocatorImpl">
<polygon fill="white" stroke="black" points="2288,-100.5 2288,-119.5 2379,-119.5 2379,-100.5 2288,-100.5"/>
<text text-anchor="middle" x="2333.5" y="-107.5" font-family="Helvetica,sans-Serif" font-size="10.00">vpr::AllocatorImpl</text>
</a>
</g>
</g>
<!-- Node10&#45;&gt;Node1 -->
<g id="edge9" class="edge"><title>Node10&#45;&gt;Node1</title>
<path fill="none" stroke="#9a32cd" stroke-dasharray="5,2" d="M2389.49,-117.038C2409.91,-119.653 2433.32,-122.649 2454.72,-125.388"/>
<polygon fill="#9a32cd" stroke="#9a32cd" points="2389.77,-113.547 2379.41,-115.749 2388.89,-120.49 2389.77,-113.547"/>
<text text-anchor="middle" x="2417" y="-126" font-family="Helvetica,sans-Serif" font-size="10.00"> allocator</text>
</g>
<!-- Node16 -->
<g id="node16" class="node"><title>Node16</title>
<polygon fill="white" stroke="#bfbfbf" points="2472,-52 2472,-82 2574,-82 2574,-52 2472,-52"/>
<text text-anchor="start" x="2480" y="-70" font-family="Helvetica,sans-Serif" font-size="10.00">std::unique_ptr&lt; vpr</text>
<text text-anchor="middle" x="2523" y="-59" font-family="Helvetica,sans-Serif" font-size="10.00">::AllocatorImpl &gt;</text>
</g>
<!-- Node10&#45;&gt;Node16 -->
<g id="edge16" class="edge"><title>Node10&#45;&gt;Node16</title>
<path fill="none" stroke="#9a32cd" stroke-dasharray="5,2" d="M2386.05,-98.1776C2412.79,-92.0463 2445.31,-84.5881 2471.84,-78.5038"/>
<polygon fill="#9a32cd" stroke="#9a32cd" points="2385.08,-94.8101 2376.11,-100.457 2386.64,-101.633 2385.08,-94.8101"/>
<text text-anchor="middle" x="2417" y="-98" font-family="Helvetica,sans-Serif" font-size="10.00"> ptr</text>
</g>
<!-- Node11 -->
<g id="node11" class="node"><title>Node11</title>
<polygon fill="white" stroke="#bfbfbf" points="2000,-29.5 2000,-70.5 2173,-70.5 2173,-29.5 2000,-29.5"/>
<text text-anchor="start" x="2008" y="-58.5" font-family="Helvetica,sans-Serif" font-size="10.00">std::map&lt; AllocationSize,</text>
<text text-anchor="start" x="2008" y="-47.5" font-family="Helvetica,sans-Serif" font-size="10.00"> std::vector&lt; std::unique</text>
<text text-anchor="middle" x="2086.5" y="-36.5" font-family="Helvetica,sans-Serif" font-size="10.00">_ptr&lt; vpr::AllocationCollection &gt; &gt; &gt;</text>
</g>
<!-- Node11&#45;&gt;Node10 -->
<g id="edge10" class="edge"><title>Node11&#45;&gt;Node10</title>
<path fill="none" stroke="#9a32cd" stroke-dasharray="5,2" d="M2181.29,-72.9687C2220.29,-82.5202 2263.41,-93.0793 2293.59,-100.47"/>
<polygon fill="#9a32cd" stroke="#9a32cd" points="2182.02,-69.5439 2171.47,-70.5647 2180.35,-76.343 2182.02,-69.5439"/>
<text text-anchor="middle" x="2230.5" y="-97" font-family="Helvetica,sans-Serif" font-size="10.00"> allocations</text>
</g>
<!-- Node12 -->
<g id="node12" class="node"><title>Node12</title>
<polygon fill="white" stroke="#bfbfbf" points="1757,-35 1757,-65 1921,-65 1921,-35 1757,-35"/>
<text text-anchor="start" x="1765" y="-53" font-family="Helvetica,sans-Serif" font-size="10.00">std::vector&lt; std::unique</text>
<text text-anchor="middle" x="1839" y="-42" font-family="Helvetica,sans-Serif" font-size="10.00">_ptr&lt; vpr::AllocationCollection &gt; &gt;</text>
</g>
<!-- Node12&#45;&gt;Node11 -->
<g id="edge11" class="edge"><title>Node12&#45;&gt;Node11</title>
<path fill="none" stroke="#9a32cd" stroke-dasharray="5,2" d="M1931.27,-50C1953.73,-50 1977.7,-50 1999.88,-50"/>
<polygon fill="#9a32cd" stroke="#9a32cd" points="1931.07,-46.5001 1921.07,-50 1931.07,-53.5001 1931.07,-46.5001"/>
<text text-anchor="middle" x="1960.5" y="-53" font-family="Helvetica,sans-Serif" font-size="10.00"> elements</text>
</g>
<!-- Node13 -->
<g id="node13" class="node"><title>Node13</title>
<polygon fill="white" stroke="#bfbfbf" points="1561,-35 1561,-65 1678,-65 1678,-35 1561,-35"/>
<text text-anchor="start" x="1569" y="-53" font-family="Helvetica,sans-Serif" font-size="10.00">std::unique_ptr&lt; vpr</text>
<text text-anchor="middle" x="1619.5" y="-42" font-family="Helvetica,sans-Serif" font-size="10.00">::AllocationCollection &gt;</text>
</g>
<!-- Node13&#45;&gt;Node12 -->
<g id="edge12" class="edge"><title>Node13&#45;&gt;Node12</title>
<path fill="none" stroke="#9a32cd" stroke-dasharray="5,2" d="M1688.3,-50C1709.96,-50 1734.16,-50 1756.68,-50"/>
<polygon fill="#9a32cd" stroke="#9a32cd" points="1688.22,-46.5001 1678.21,-50 1688.21,-53.5001 1688.22,-46.5001"/>
<text text-anchor="middle" x="1717.5" y="-53" font-family="Helvetica,sans-Serif" font-size="10.00"> elements</text>
</g>
<!-- Node14 -->
<g id="node14" class="node"><title>Node14</title>
<g id="a_node14"><a xlink:href="classvpr_1_1_allocation_collection.html" target="_top" xlink:title="An allocation collection is just a vector of MemoryBlocks of the same type. ">
<polygon fill="white" stroke="black" points="1282,-40.5 1282,-59.5 1402,-59.5 1402,-40.5 1282,-40.5"/>
<text text-anchor="middle" x="1342" y="-47.5" font-family="Helvetica,sans-Serif" font-size="10.00">vpr::AllocationCollection</text>
</a>
</g>
</g>
<!-- Node14&#45;&gt;Node13 -->
<g id="edge13" class="edge"><title>Node14&#45;&gt;Node13</title>
<path fill="none" stroke="#9a32cd" stroke-dasharray="5,2" d="M1412.27,-50C1458.15,-50 1517.63,-50 1560.91,-50"/>
<polygon fill="#9a32cd" stroke="#9a32cd" points="1412.1,-46.5001 1402.1,-50 1412.1,-53.5001 1412.1,-46.5001"/>
<text text-anchor="middle" x="1481.5" y="-53" font-family="Helvetica,sans-Serif" font-size="10.00"> ptr</text>
</g>
<!-- Node15 -->
<g id="node15" class="node"><title>Node15</title>
<g id="a_node15"><a xlink:href="classvpr_1_1_allocator.html" target="_top" xlink:title="The primary interface and class of this subsystem. ">
<polygon fill="white" stroke="black" points="2649,-15.5 2649,-34.5 2722,-34.5 2722,-15.5 2649,-15.5"/>
<text text-anchor="middle" x="2685.5" y="-22.5" font-family="Helvetica,sans-Serif" font-size="10.00">vpr::Allocator</text>
</a>
</g>
</g>
<!-- Node15&#45;&gt;Node14 -->
<g id="edge14" class="edge"><title>Node15&#45;&gt;Node14</title>
<path fill="none" stroke="#9a32cd" stroke-dasharray="5,2" d="M2638.79,-14.0361C2606.84,-7.31848 2563.06,-0 2524,-0 1618.5,-0 1618.5,-0 1618.5,-0 1528.81,-0 1425.3,-25.9706 1374.48,-40.4777"/>
<polygon fill="#9a32cd" stroke="#9a32cd" points="2638.22,-17.4925 2648.73,-16.1859 2639.7,-10.6508 2638.22,-17.4925"/>
<text text-anchor="middle" x="2086.5" y="-3" font-family="Helvetica,sans-Serif" font-size="10.00"> allocator</text>
</g>
<!-- Node16&#45;&gt;Node15 -->
<g id="edge15" class="edge"><title>Node16&#45;&gt;Node15</title>
<path fill="none" stroke="#9a32cd" stroke-dasharray="5,2" d="M2584.17,-51.2533C2605.95,-45.5547 2629.84,-39.3047 2648.84,-34.3328"/>
<polygon fill="#9a32cd" stroke="#9a32cd" points="2583.13,-47.9085 2574.34,-53.8262 2584.9,-54.6805 2583.13,-47.9085"/>
<text text-anchor="middle" x="2620" y="-48" font-family="Helvetica,sans-Serif" font-size="10.00"> impl</text>
</g>
<!-- Node17 -->
<g id="node17" class="node"><title>Node17</title>
<polygon fill="white" stroke="#bfbfbf" points="982,-35 982,-65 1120,-65 1120,-35 982,-35"/>
<text text-anchor="start" x="990" y="-53" font-family="Helvetica,sans-Serif" font-size="10.00">std::vector&lt; std::unique</text>
<text text-anchor="middle" x="1051" y="-42" font-family="Helvetica,sans-Serif" font-size="10.00">_ptr&lt; vpr::MemoryBlock &gt; &gt;</text>
</g>
<!-- Node17&#45;&gt;Node14 -->
<g id="edge17" class="edge"><title>Node17&#45;&gt;Node14</title>
<path fill="none" stroke="#9a32cd" stroke-dasharray="5,2" d="M1130.4,-50C1178.06,-50 1237.94,-50 1281.65,-50"/>
<polygon fill="#9a32cd" stroke="#9a32cd" points="1130.12,-46.5001 1120.12,-50 1130.12,-53.5001 1130.12,-46.5001"/>
<text text-anchor="middle" x="1201" y="-53" font-family="Helvetica,sans-Serif" font-size="10.00"> allocations</text>
</g>
<!-- Node18 -->
<g id="node18" class="node"><title>Node18</title>
<polygon fill="white" stroke="#bfbfbf" points="720,-35 720,-65 822,-65 822,-35 720,-35"/>
<text text-anchor="start" x="728" y="-53" font-family="Helvetica,sans-Serif" font-size="10.00">std::unique_ptr&lt; vpr</text>
<text text-anchor="middle" x="771" y="-42" font-family="Helvetica,sans-Serif" font-size="10.00">::MemoryBlock &gt;</text>
</g>
<!-- Node18&#45;&gt;Node17 -->
<g id="edge18" class="edge"><title>Node18&#45;&gt;Node17</title>
<path fill="none" stroke="#9a32cd" stroke-dasharray="5,2" d="M832.293,-50C876.321,-50 936.065,-50 981.83,-50"/>
<polygon fill="#9a32cd" stroke="#9a32cd" points="832.022,-46.5001 822.022,-50 832.022,-53.5001 832.022,-46.5001"/>
<text text-anchor="middle" x="902" y="-53" font-family="Helvetica,sans-Serif" font-size="10.00"> elements</text>
</g>
<!-- Node19 -->
<g id="node19" class="node"><title>Node19</title>
<g id="a_node19"><a xlink:href="classvpr_1_1_memory_block.html" target="_top" xlink:title="A MemoryBlock is a large contiguous region of Vulkan memory of a uniform type (device local...">
<polygon fill="white" stroke="black" points="538.5,-41.5 538.5,-60.5 633.5,-60.5 633.5,-41.5 538.5,-41.5"/>
<text text-anchor="middle" x="586" y="-48.5" font-family="Helvetica,sans-Serif" font-size="10.00">vpr::MemoryBlock</text>
</a>
</g>
</g>
<!-- Node19&#45;&gt;Node18 -->
<g id="edge19" class="edge"><title>Node19&#45;&gt;Node18</title>
<path fill="none" stroke="#9a32cd" stroke-dasharray="5,2" d="M643.825,-50.6895C668.168,-50.5565 696.354,-50.4024 719.903,-50.2738"/>
<polygon fill="#9a32cd" stroke="#9a32cd" points="643.633,-47.1904 633.652,-50.7451 643.671,-54.1903 643.633,-47.1904"/>
<text text-anchor="middle" x="680.5" y="-54" font-family="Helvetica,sans-Serif" font-size="10.00"> ptr</text>
</g>
<!-- Node20&#45;&gt;Node19 -->
<g id="edge20" class="edge"><title>Node20&#45;&gt;Node19</title>
<path fill="none" stroke="#9a32cd" stroke-dasharray="5,2" d="M375.559,-99.2397C424.636,-87.936 497.89,-71.0638 543.486,-60.5618"/>
<polygon fill="#9a32cd" stroke="#9a32cd" points="374.736,-95.8375 365.777,-101.493 376.307,-102.659 374.736,-95.8375"/>
<text text-anchor="middle" x="470" y="-90" font-family="Helvetica,sans-Serif" font-size="10.00"> Suballocations</text>
</g>
<!-- Node21 -->
<g id="node21" class="node"><title>Node21</title>
<polygon fill="white" stroke="#bfbfbf" points="259.5,-36 259.5,-66 387.5,-66 387.5,-36 259.5,-36"/>
<text text-anchor="start" x="267.5" y="-54" font-family="Helvetica,sans-Serif" font-size="10.00">std::vector&lt; suballocation</text>
<text text-anchor="middle" x="323.5" y="-43" font-family="Helvetica,sans-Serif" font-size="10.00">List::iterator &gt;</text>
</g>
<!-- Node21&#45;&gt;Node19 -->
<g id="edge22" class="edge"><title>Node21&#45;&gt;Node19</title>
<path fill="none" stroke="#9a32cd" stroke-dasharray="5,2" d="M397.596,-51C442.747,-51 499.328,-51 538.442,-51"/>
<polygon fill="#9a32cd" stroke="#9a32cd" points="397.56,-47.5001 387.56,-51 397.56,-54.5001 397.56,-47.5001"/>
<text text-anchor="middle" x="470" y="-54" font-family="Helvetica,sans-Serif" font-size="10.00"> availSuballocations</text>
</g>
<!-- Node22 -->
<g id="node22" class="node"><title>Node22</title>
<g id="a_node22"><a xlink:title="STL iterator class. ">
<polygon fill="white" stroke="#bfbfbf" points="25.5,-41.5 25.5,-60.5 133.5,-60.5 133.5,-41.5 25.5,-41.5"/>
<text text-anchor="middle" x="79.5" y="-48.5" font-family="Helvetica,sans-Serif" font-size="10.00">std::list&lt; T &gt;::iterator</text>
</a>
</g>
</g>
<!-- Node22&#45;&gt;Node21 -->
<g id="edge23" class="edge"><title>Node22&#45;&gt;Node21</title>
<path fill="none" stroke="#9a32cd" stroke-dasharray="5,2" d="M143.87,-51C179.435,-51 223.666,-51 259.216,-51"/>
<polygon fill="#9a32cd" stroke="#9a32cd" points="143.608,-47.5001 133.608,-51 143.608,-54.5001 143.608,-47.5001"/>
<text text-anchor="middle" x="198.5" y="-54" font-family="Helvetica,sans-Serif" font-size="10.00"> elements</text>
</g>
<!-- Node23 -->
<g id="node23" class="node"><title>Node23</title>
<polygon fill="white" stroke="#bfbfbf" points="2022,-150 2022,-180 2151,-180 2151,-150 2022,-150"/>
<text text-anchor="start" x="2030" y="-168" font-family="Helvetica,sans-Serif" font-size="10.00">std::map&lt; AllocationSize,</text>
<text text-anchor="middle" x="2086.5" y="-157" font-family="Helvetica,sans-Serif" font-size="10.00"> std::vector&lt; bool &gt; &gt;</text>
</g>
<!-- Node23&#45;&gt;Node10 -->
<g id="edge24" class="edge"><title>Node23&#45;&gt;Node10</title>
<path fill="none" stroke="#9a32cd" stroke-dasharray="5,2" d="M2161.43,-149.144C2194.65,-141.929 2234.33,-133.188 2270,-125 2277.5,-123.277 2285.5,-121.393 2293.19,-119.561"/>
<polygon fill="#9a32cd" stroke="#9a32cd" points="2160.37,-145.793 2151.34,-151.332 2161.85,-152.634 2160.37,-145.793"/>
<text text-anchor="middle" x="2230.5" y="-145" font-family="Helvetica,sans-Serif" font-size="10.00"> emptyAllocations</text>
</g>
<!-- Node24 -->
<g id="node24" class="node"><title>Node24</title>
<polygon fill="white" stroke="#bfbfbf" points="1790,-155.5 1790,-174.5 1888,-174.5 1888,-155.5 1790,-155.5"/>
<text text-anchor="middle" x="1839" y="-162.5" font-family="Helvetica,sans-Serif" font-size="10.00">std::vector&lt; bool &gt;</text>
</g>
<!-- Node24&#45;&gt;Node23 -->
<g id="edge25" class="edge"><title>Node24&#45;&gt;Node23</title>
<path fill="none" stroke="#9a32cd" stroke-dasharray="5,2" d="M1898.36,-165C1935.45,-165 1983.47,-165 2021.59,-165"/>
<polygon fill="#9a32cd" stroke="#9a32cd" points="1898.21,-161.5 1888.21,-165 1898.21,-168.5 1898.21,-161.5"/>
<text text-anchor="middle" x="1960.5" y="-168" font-family="Helvetica,sans-Serif" font-size="10.00"> elements</text>
</g>
<!-- Node25 -->
<g id="node25" class="node"><title>Node25</title>
<polygon fill="white" stroke="#bfbfbf" points="2034.5,-89.5 2034.5,-130.5 2138.5,-130.5 2138.5,-89.5 2034.5,-89.5"/>
<text text-anchor="start" x="2042.5" y="-118.5" font-family="Helvetica,sans-Serif" font-size="10.00">std::unordered_set</text>
<text text-anchor="start" x="2042.5" y="-107.5" font-family="Helvetica,sans-Serif" font-size="10.00">&lt; vpr::Allocation, vpr</text>
<text text-anchor="middle" x="2086.5" y="-96.5" font-family="Helvetica,sans-Serif" font-size="10.00">::AllocationHash &gt;</text>
</g>
<!-- Node25&#45;&gt;Node10 -->
<g id="edge26" class="edge"><title>Node25&#45;&gt;Node10</title>
<path fill="none" stroke="#9a32cd" stroke-dasharray="5,2" d="M2148.66,-110C2191.83,-110 2248.69,-110 2287.68,-110"/>
<polygon fill="#9a32cd" stroke="#9a32cd" points="2148.56,-106.5 2138.56,-110 2148.56,-113.5 2148.56,-106.5"/>
<text text-anchor="middle" x="2230.5" y="-113" font-family="Helvetica,sans-Serif" font-size="10.00"> privateAllocations</text>
</g>
<!-- Node26 -->
<g id="node26" class="node"><title>Node26</title>
<g id="a_node26"><a xlink:href="classvpr_1_1_allocation.html" target="_top" xlink:title="Allocation class represents a singular allocation: can be a private allocation (i.e, only user of attached DeviceMemory) or a block allocation (bound to sub&#45;region of device memory) ">
<polygon fill="white" stroke="black" points="1800.5,-100.5 1800.5,-119.5 1877.5,-119.5 1877.5,-100.5 1800.5,-100.5"/>
<text text-anchor="middle" x="1839" y="-107.5" font-family="Helvetica,sans-Serif" font-size="10.00">vpr::Allocation</text>
</a>
</g>
</g>
<!-- Node26&#45;&gt;Node25 -->
<g id="edge27" class="edge"><title>Node26&#45;&gt;Node25</title>
<path fill="none" stroke="#9a32cd" stroke-dasharray="5,2" d="M1887.56,-110C1929.7,-110 1991.07,-110 2034.28,-110"/>
<polygon fill="#9a32cd" stroke="#9a32cd" points="1887.55,-106.5 1877.55,-110 1887.55,-113.5 1887.55,-106.5"/>
<text text-anchor="middle" x="1960.5" y="-113" font-family="Helvetica,sans-Serif" font-size="10.00"> keys</text>
</g>
<!-- Node27 -->
<g id="node27" class="node"><title>Node27</title>
<polygon fill="white" stroke="#bfbfbf" points="1568.5,-95 1568.5,-125 1670.5,-125 1670.5,-95 1568.5,-95"/>
<text text-anchor="start" x="1576.5" y="-113" font-family="Helvetica,sans-Serif" font-size="10.00">std::unique_ptr&lt; vpr</text>
<text text-anchor="middle" x="1619.5" y="-102" font-family="Helvetica,sans-Serif" font-size="10.00">::AllocationImpl &gt;</text>
</g>
<!-- Node27&#45;&gt;Node26 -->
<g id="edge28" class="edge"><title>Node27&#45;&gt;Node26</title>
<path fill="none" stroke="#9a32cd" stroke-dasharray="5,2" d="M1680.68,-110C1718.96,-110 1767.36,-110 1800.3,-110"/>
<polygon fill="#9a32cd" stroke="#9a32cd" points="1680.67,-106.5 1670.67,-110 1680.67,-113.5 1680.67,-106.5"/>
<text text-anchor="middle" x="1717.5" y="-113" font-family="Helvetica,sans-Serif" font-size="10.00"> impl</text>
</g>
<!-- Node28 -->
<g id="node28" class="node"><title>Node28</title>
<g id="a_node28"><a xlink:href="namespacevpr.html#structvpr_1_1_allocation_impl" target="_top" xlink:title="vpr::AllocationImpl">
<polygon fill="white" stroke="black" points="1294.5,-100.5 1294.5,-119.5 1389.5,-119.5 1389.5,-100.5 1294.5,-100.5"/>
<text text-anchor="middle" x="1342" y="-107.5" font-family="Helvetica,sans-Serif" font-size="10.00">vpr::AllocationImpl</text>
</a>
</g>
</g>
<!-- Node28&#45;&gt;Node27 -->
<g id="edge29" class="edge"><title>Node28&#45;&gt;Node27</title>
<path fill="none" stroke="#9a32cd" stroke-dasharray="5,2" d="M1399.97,-110C1449.57,-110 1520.77,-110 1568.27,-110"/>
<polygon fill="#9a32cd" stroke="#9a32cd" points="1399.73,-106.5 1389.73,-110 1399.73,-113.5 1399.73,-106.5"/>
<text text-anchor="middle" x="1481.5" y="-113" font-family="Helvetica,sans-Serif" font-size="10.00"> ptr</text>
</g>
</g>
</svg>
