<?xml version="1.0" encoding="UTF-8" standalone="no"?>
<!DOCTYPE svg PUBLIC "-//W3C//DTD SVG 1.1//EN"
 "http://www.w3.org/Graphics/SVG/1.1/DTD/svg11.dtd">
<!-- Generated by graphviz version 2.38.0 (20140413.2041)
 -->
<!-- Title: vpr::ResourceTypeMap Pages: 1 -->
<svg width="152pt" height="106pt"
 viewBox="0.00 0.00 152.00 106.00" xmlns="http://www.w3.org/2000/svg" xmlns:xlink="http://www.w3.org/1999/xlink">
<g id="graph0" class="graph" transform="scale(1 1) rotate(0) translate(4 102)">
<title>vpr::ResourceTypeMap</title>
<polygon fill="white" stroke="none" points="-4,4 -4,-102 148,-102 148,4 -4,4"/>
<!-- Node18 -->
<g id="node1" class="node"><title>Node18</title>
<polygon fill="#bfbfbf" stroke="black" points="14,-0.5 14,-19.5 130,-19.5 130,-0.5 14,-0.5"/>
<text text-anchor="middle" x="72" y="-7.5" font-family="Helvetica,sans-Serif" font-size="10.00">vpr::ResourceTypeMap</text>
</g>
<!-- Node19 -->
<g id="node2" class="node"><title>Node19</title>
<polygon fill="white" stroke="#bfbfbf" points="0,-67.5 0,-97.5 144,-97.5 144,-67.5 0,-67.5"/>
<text text-anchor="start" x="8" y="-85.5" font-family="Helvetica,sans-Serif" font-size="10.00">std::map&lt; VkDescriptorType,</text>
<text text-anchor="middle" x="72" y="-74.5" font-family="Helvetica,sans-Serif" font-size="10.00"> size_t &gt;</text>
</g>
<!-- Node19&#45;&gt;Node18 -->
<g id="edge1" class="edge"><title>Node19&#45;&gt;Node18</title>
<path fill="none" stroke="#9a32cd" stroke-dasharray="5,2" d="M72,-57.0913C72,-44.2136 72,-29.1974 72,-19.8932"/>
<polygon fill="#9a32cd" stroke="#9a32cd" points="68.5001,-57.2332 72,-67.2333 75.5001,-57.2333 68.5001,-57.2332"/>
<text text-anchor="middle" x="97" y="-41" font-family="Helvetica,sans-Serif" font-size="10.00"> Resources</text>
</g>
</g>
</svg>
