<?xml version="1.0" encoding="UTF-8" standalone="no"?>
<!DOCTYPE svg PUBLIC "-//W3C//DTD SVG 1.1//EN"
 "http://www.w3.org/Graphics/SVG/1.1/DTD/svg11.dtd">
<!-- Generated by graphviz version 2.38.0 (20140413.2041)
 -->
<!-- Title: vpr::Swapchain::SwapchainInfo::GetBestPresentMode Pages: 1 -->
<svg width="653pt" height="66pt"
 viewBox="0.00 0.00 653.00 66.00" xmlns="http://www.w3.org/2000/svg" xmlns:xlink="http://www.w3.org/1999/xlink">
<g id="graph0" class="graph" transform="scale(1 1) rotate(0) translate(4 62)">
<title>vpr::Swapchain::SwapchainInfo::GetBestPresentMode</title>
<polygon fill="white" stroke="none" points="-4,4 -4,-62 649,-62 649,4 -4,4"/>
<!-- Node17 -->
<g id="node1" class="node"><title>Node17</title>
<polygon fill="#bfbfbf" stroke="black" points="0,-14 0,-44 135,-44 135,-14 0,-14"/>
<text text-anchor="start" x="8" y="-32" font-family="Helvetica,sans-Serif" font-size="10.00">vpr::Swapchain::Swapchain</text>
<text text-anchor="middle" x="67.5" y="-21" font-family="Helvetica,sans-Serif" font-size="10.00">Info::GetBestPresentMode</text>
</g>
<!-- Node18 -->
<g id="node2" class="node"><title>Node18</title>
<g id="a_node2"><a xlink:href="classvpr_1_1_swapchain.html#a72f010b980cf7b7c49bfd63d1548114e" target="_top" xlink:title="vpr::Swapchain::setParameters">
<polygon fill="white" stroke="black" points="171,-19.5 171,-38.5 323,-38.5 323,-19.5 171,-19.5"/>
<text text-anchor="middle" x="247" y="-26.5" font-family="Helvetica,sans-Serif" font-size="10.00">vpr::Swapchain::setParameters</text>
</a>
</g>
</g>
<!-- Node17&#45;&gt;Node18 -->
<g id="edge1" class="edge"><title>Node17&#45;&gt;Node18</title>
<path fill="none" stroke="midnightblue" d="M145.367,-29C153.863,-29 162.506,-29 170.978,-29"/>
<polygon fill="midnightblue" stroke="midnightblue" points="145.099,-25.5001 135.099,-29 145.099,-32.5001 145.099,-25.5001"/>
</g>
<!-- Node19 -->
<g id="node3" class="node"><title>Node19</title>
<g id="a_node3"><a xlink:href="classvpr_1_1_swapchain.html#ad75f5394aaa57d86286a71e5d54ab3c6" target="_top" xlink:title="vpr::Swapchain::create">
<polygon fill="white" stroke="black" points="359,-19.5 359,-38.5 474,-38.5 474,-19.5 359,-19.5"/>
<text text-anchor="middle" x="416.5" y="-26.5" font-family="Helvetica,sans-Serif" font-size="10.00">vpr::Swapchain::create</text>
</a>
</g>
</g>
<!-- Node18&#45;&gt;Node19 -->
<g id="edge2" class="edge"><title>Node18&#45;&gt;Node19</title>
<path fill="none" stroke="midnightblue" d="M333.694,-29C342.125,-29 350.529,-29 358.566,-29"/>
<polygon fill="midnightblue" stroke="midnightblue" points="333.42,-25.5001 323.42,-29 333.42,-32.5001 333.42,-25.5001"/>
</g>
<!-- Node20 -->
<g id="node4" class="node"><title>Node20</title>
<g id="a_node4"><a xlink:href="classvpr_1_1_swapchain.html#acf014a8530f47418adba1c9e62c0c78e" target="_top" xlink:title="vpr::Swapchain::Recreate">
<polygon fill="white" stroke="red" points="514,-38.5 514,-57.5 641,-57.5 641,-38.5 514,-38.5"/>
<text text-anchor="middle" x="577.5" y="-45.5" font-family="Helvetica,sans-Serif" font-size="10.00">vpr::Swapchain::Recreate</text>
</a>
</g>
</g>
<!-- Node19&#45;&gt;Node20 -->
<g id="edge3" class="edge"><title>Node19&#45;&gt;Node20</title>
<path fill="none" stroke="midnightblue" d="M484.167,-36.9664C494.037,-38.1459 504.178,-39.3578 513.96,-40.5267"/>
<polygon fill="midnightblue" stroke="midnightblue" points="484.35,-33.4635 474.005,-35.7522 483.519,-40.4141 484.35,-33.4635"/>
</g>
<!-- Node22 -->
<g id="node5" class="node"><title>Node22</title>
<g id="a_node5"><a xlink:href="classvpr_1_1_swapchain.html#a49bc91a7423fe49320b0375e78653439" target="_top" xlink:title="vpr::Swapchain::Swapchain">
<polygon fill="white" stroke="black" points="510,-0.5 510,-19.5 645,-19.5 645,-0.5 510,-0.5"/>
<text text-anchor="middle" x="577.5" y="-7.5" font-family="Helvetica,sans-Serif" font-size="10.00">vpr::Swapchain::Swapchain</text>
</a>
</g>
</g>
<!-- Node19&#45;&gt;Node22 -->
<g id="edge4" class="edge"><title>Node19&#45;&gt;Node22</title>
<path fill="none" stroke="midnightblue" d="M483.941,-21.0605C492.507,-20.0369 501.281,-18.9884 509.851,-17.9644"/>
<polygon fill="midnightblue" stroke="midnightblue" points="483.519,-17.5859 474.005,-22.2478 484.35,-24.5365 483.519,-17.5859"/>
</g>
</g>
</svg>
