<?xml version="1.0" encoding="UTF-8" standalone="no"?>
<!DOCTYPE svg PUBLIC "-//W3C//DTD SVG 1.1//EN"
 "http://www.w3.org/Graphics/SVG/1.1/DTD/svg11.dtd">
<!-- Generated by graphviz version 2.38.0 (20140413.2041)
 -->
<!-- Title: vpr::DeviceDataMembers::prepareRequiredExtensions Pages: 1 -->
<svg width="594pt" height="39pt"
 viewBox="0.00 0.00 594.00 39.00" xmlns="http://www.w3.org/2000/svg" xmlns:xlink="http://www.w3.org/1999/xlink">
<g id="graph0" class="graph" transform="scale(1 1) rotate(0) translate(4 35)">
<title>vpr::DeviceDataMembers::prepareRequiredExtensions</title>
<polygon fill="white" stroke="none" points="-4,4 -4,-35 590,-35 590,4 -4,4"/>
<!-- Node15 -->
<g id="node1" class="node"><title>Node15</title>
<polygon fill="#bfbfbf" stroke="black" points="0,-0.5 0,-30.5 142,-30.5 142,-0.5 0,-0.5"/>
<text text-anchor="start" x="8" y="-18.5" font-family="Helvetica,sans-Serif" font-size="10.00">vpr::DeviceDataMembers</text>
<text text-anchor="middle" x="71" y="-7.5" font-family="Helvetica,sans-Serif" font-size="10.00">::prepareRequiredExtensions</text>
</g>
<!-- Node16 -->
<g id="node2" class="node"><title>Node16</title>
<g id="a_node2"><a xlink:href="classvpr_1_1_device.html#a165976c19ab59de329855485a9dab5aa" target="_top" xlink:title="vpr::Device::setupExtensions">
<polygon fill="white" stroke="black" points="178,-6 178,-25 320,-25 320,-6 178,-6"/>
<text text-anchor="middle" x="249" y="-13" font-family="Helvetica,sans-Serif" font-size="10.00">vpr::Device::setupExtensions</text>
</a>
</g>
</g>
<!-- Node15&#45;&gt;Node16 -->
<g id="edge1" class="edge"><title>Node15&#45;&gt;Node16</title>
<path fill="none" stroke="midnightblue" d="M152.101,-15.5C160.706,-15.5 169.412,-15.5 177.888,-15.5"/>
<polygon fill="midnightblue" stroke="midnightblue" points="152.066,-12.0001 142.066,-15.5 152.066,-19.0001 152.066,-12.0001"/>
</g>
<!-- Node17 -->
<g id="node3" class="node"><title>Node17</title>
<g id="a_node3"><a xlink:href="classvpr_1_1_device.html#a3b0734cd598d9a64f3c459e9dc4e84ce" target="_top" xlink:title="vpr::Device::create">
<polygon fill="white" stroke="black" points="356,-6 356,-25 452,-25 452,-6 356,-6"/>
<text text-anchor="middle" x="404" y="-13" font-family="Helvetica,sans-Serif" font-size="10.00">vpr::Device::create</text>
</a>
</g>
</g>
<!-- Node16&#45;&gt;Node17 -->
<g id="edge2" class="edge"><title>Node16&#45;&gt;Node17</title>
<path fill="none" stroke="midnightblue" d="M330.461,-15.5C339.172,-15.5 347.814,-15.5 355.935,-15.5"/>
<polygon fill="midnightblue" stroke="midnightblue" points="330.231,-12.0001 320.231,-15.5 330.231,-19.0001 330.231,-12.0001"/>
</g>
<!-- Node18 -->
<g id="node4" class="node"><title>Node18</title>
<g id="a_node4"><a xlink:href="classvpr_1_1_device.html#ad1a8ebd06d5d8b3de5ce0c8d1ce93277" target="_top" xlink:title="vpr::Device::Device">
<polygon fill="white" stroke="black" points="488,-6 488,-25 586,-25 586,-6 488,-6"/>
<text text-anchor="middle" x="537" y="-13" font-family="Helvetica,sans-Serif" font-size="10.00">vpr::Device::Device</text>
</a>
</g>
</g>
<!-- Node17&#45;&gt;Node18 -->
<g id="edge3" class="edge"><title>Node17&#45;&gt;Node18</title>
<path fill="none" stroke="midnightblue" d="M462.503,-15.5C470.979,-15.5 479.636,-15.5 487.895,-15.5"/>
<polygon fill="midnightblue" stroke="midnightblue" points="462.294,-12.0001 452.294,-15.5 462.294,-19.0001 462.294,-12.0001"/>
</g>
</g>
</svg>
