<?xml version="1.0" encoding="UTF-8" standalone="no"?>
<!DOCTYPE svg PUBLIC "-//W3C//DTD SVG 1.1//EN"
 "http://www.w3.org/Graphics/SVG/1.1/DTD/svg11.dtd">
<!-- Generated by graphviz version 2.38.0 (20140413.2041)
 -->
<!-- Title: vpr::SwapchainImpl::create Pages: 1 -->
<svg width="407pt" height="225pt"
 viewBox="0.00 0.00 407.00 224.50" xmlns="http://www.w3.org/2000/svg" xmlns:xlink="http://www.w3.org/1999/xlink">
<g id="graph0" class="graph" transform="scale(1 1) rotate(0) translate(4 220.5)">
<title>vpr::SwapchainImpl::create</title>
<polygon fill="white" stroke="none" points="-4,4 -4,-220.5 403,-220.5 403,4 -4,4"/>
<!-- Node12 -->
<g id="node1" class="node"><title>Node12</title>
<polygon fill="#bfbfbf" stroke="black" points="0,-88 0,-118 100,-118 100,-88 0,-88"/>
<text text-anchor="start" x="8" y="-106" font-family="Helvetica,sans-Serif" font-size="10.00">vpr::SwapchainImpl</text>
<text text-anchor="middle" x="50" y="-95" font-family="Helvetica,sans-Serif" font-size="10.00">::create</text>
</g>
<!-- Node13 -->
<g id="node2" class="node"><title>Node13</title>
<g id="a_node2"><a xlink:href="structvpr_1_1_swapchain_impl.html#afdf0ef2711d213b7020b37785a62a7ad" target="_top" xlink:title="vpr::SwapchainImpl\l::setParameters">
<polygon fill="white" stroke="black" points="140,-186 140,-216 240,-216 240,-186 140,-186"/>
<text text-anchor="start" x="148" y="-204" font-family="Helvetica,sans-Serif" font-size="10.00">vpr::SwapchainImpl</text>
<text text-anchor="middle" x="190" y="-193" font-family="Helvetica,sans-Serif" font-size="10.00">::setParameters</text>
</a>
</g>
</g>
<!-- Node12&#45;&gt;Node13 -->
<g id="edge1" class="edge"><title>Node12&#45;&gt;Node13</title>
<path fill="none" stroke="midnightblue" d="M65.5813,-118.085C81.7086,-134.17 108.998,-159.664 136,-177 138.272,-178.459 140.648,-179.875 143.081,-181.241"/>
<polygon fill="midnightblue" stroke="midnightblue" points="141.576,-184.404 152.057,-185.957 144.832,-178.207 141.576,-184.404"/>
</g>
<!-- Node15 -->
<g id="node4" class="node"><title>Node15</title>
<g id="a_node4"><a xlink:href="structvpr_1_1_swapchain_impl.html#a455468d3084cd9503a64f02d3b53956d" target="_top" xlink:title="vpr::SwapchainImpl\l::setupCreateInfo">
<polygon fill="white" stroke="black" points="140,-137 140,-167 240,-167 240,-137 140,-137"/>
<text text-anchor="start" x="148" y="-155" font-family="Helvetica,sans-Serif" font-size="10.00">vpr::SwapchainImpl</text>
<text text-anchor="middle" x="190" y="-144" font-family="Helvetica,sans-Serif" font-size="10.00">::setupCreateInfo</text>
</a>
</g>
</g>
<!-- Node12&#45;&gt;Node15 -->
<g id="edge3" class="edge"><title>Node12&#45;&gt;Node15</title>
<path fill="none" stroke="midnightblue" d="M93.5306,-118.101C107.172,-122.945 122.44,-128.366 136.697,-133.428"/>
<polygon fill="midnightblue" stroke="midnightblue" points="135.778,-136.816 146.372,-136.864 138.12,-130.22 135.778,-136.816"/>
</g>
<!-- Node16 -->
<g id="node5" class="node"><title>Node16</title>
<g id="a_node5"><a xlink:href="structvpr_1_1_swapchain_impl.html#aaded5613928f1e39c1a61ac25be8bf88" target="_top" xlink:title="vpr::SwapchainImpl\l::setupImageViews">
<polygon fill="white" stroke="black" points="140,-88 140,-118 240,-118 240,-88 140,-88"/>
<text text-anchor="start" x="148" y="-106" font-family="Helvetica,sans-Serif" font-size="10.00">vpr::SwapchainImpl</text>
<text text-anchor="middle" x="190" y="-95" font-family="Helvetica,sans-Serif" font-size="10.00">::setupImageViews</text>
</a>
</g>
</g>
<!-- Node12&#45;&gt;Node16 -->
<g id="edge4" class="edge"><title>Node12&#45;&gt;Node16</title>
<path fill="none" stroke="midnightblue" d="M100.042,-103C109.587,-103 119.689,-103 129.528,-103"/>
<polygon fill="midnightblue" stroke="midnightblue" points="129.651,-106.5 139.651,-103 129.651,-99.5001 129.651,-106.5"/>
</g>
<!-- Node17 -->
<g id="node6" class="node"><title>Node17</title>
<g id="a_node6"><a xlink:href="structvpr_1_1_swapchain_impl.html#acc94e08e83ec3857bffdea08e9b4bf65" target="_top" xlink:title="vpr::SwapchainImpl\l::setupSwapImages">
<polygon fill="white" stroke="black" points="139,-39 139,-69 241,-69 241,-39 139,-39"/>
<text text-anchor="start" x="147" y="-57" font-family="Helvetica,sans-Serif" font-size="10.00">vpr::SwapchainImpl</text>
<text text-anchor="middle" x="190" y="-46" font-family="Helvetica,sans-Serif" font-size="10.00">::setupSwapImages</text>
</a>
</g>
</g>
<!-- Node12&#45;&gt;Node17 -->
<g id="edge5" class="edge"><title>Node12&#45;&gt;Node17</title>
<path fill="none" stroke="midnightblue" d="M93.5306,-87.8986C107.172,-83.0549 122.44,-77.6336 136.697,-72.5715"/>
<polygon fill="midnightblue" stroke="midnightblue" points="138.12,-75.7803 146.372,-69.1359 135.778,-69.1838 138.12,-75.7803"/>
</g>
<!-- Node18 -->
<g id="node7" class="node"><title>Node18</title>
<g id="a_node7"><a xlink:href="classvpr_1_1_device.html#a59882855173bef0b13a17b376ea01d45" target="_top" xlink:title="vpr::Device::vkHandle">
<polygon fill="white" stroke="black" points="136,-0.5 136,-19.5 244,-19.5 244,-0.5 136,-0.5"/>
<text text-anchor="middle" x="190" y="-7.5" font-family="Helvetica,sans-Serif" font-size="10.00">vpr::Device::vkHandle</text>
</a>
</g>
</g>
<!-- Node12&#45;&gt;Node18 -->
<g id="edge6" class="edge"><title>Node12&#45;&gt;Node18</title>
<path fill="none" stroke="midnightblue" d="M65.4112,-87.7965C81.3932,-71.6538 108.56,-46.2707 136,-30 139.961,-27.6511 144.247,-25.4923 148.606,-23.5327"/>
<polygon fill="midnightblue" stroke="midnightblue" points="150.272,-26.6306 158.166,-19.5644 147.588,-20.1654 150.272,-26.6306"/>
</g>
<!-- Node14 -->
<g id="node3" class="node"><title>Node14</title>
<g id="a_node3"><a xlink:href="namespacevpr.html#afa4d7a5ad29cbfc728d5c355d990d242" target="_top" xlink:title="vpr::getPresentModeStr">
<polygon fill="white" stroke="black" points="280,-191.5 280,-210.5 399,-210.5 399,-191.5 280,-191.5"/>
<text text-anchor="middle" x="339.5" y="-198.5" font-family="Helvetica,sans-Serif" font-size="10.00">vpr::getPresentModeStr</text>
</a>
</g>
</g>
<!-- Node13&#45;&gt;Node14 -->
<g id="edge2" class="edge"><title>Node13&#45;&gt;Node14</title>
<path fill="none" stroke="midnightblue" d="M240.115,-201C249.57,-201 259.634,-201 269.581,-201"/>
<polygon fill="midnightblue" stroke="midnightblue" points="269.873,-204.5 279.873,-201 269.873,-197.5 269.873,-204.5"/>
</g>
</g>
</svg>
