<?xml version="1.0" encoding="UTF-8" standalone="no"?>
<!DOCTYPE svg PUBLIC "-//W3C//DTD SVG 1.1//EN"
 "http://www.w3.org/Graphics/SVG/1.1/DTD/svg11.dtd">
<!-- Generated by graphviz version 2.38.0 (20140413.2041)
 -->
<!-- Title: vpr::DeviceDataMembers Pages: 1 -->
<svg width="1291pt" height="254pt"
 viewBox="0.00 0.00 1291.00 253.50" xmlns="http://www.w3.org/2000/svg" xmlns:xlink="http://www.w3.org/1999/xlink">
<g id="graph0" class="graph" transform="scale(1 1) rotate(0) translate(4 249.5)">
<title>vpr::DeviceDataMembers</title>
<polygon fill="white" stroke="none" points="-4,4 -4,-249.5 1287,-249.5 1287,4 -4,4"/>
<!-- Node1 -->
<g id="node1" class="node"><title>Node1</title>
<polygon fill="#bfbfbf" stroke="black" points="706,-143 706,-162 830,-162 830,-143 706,-143"/>
<text text-anchor="middle" x="768" y="-150" font-family="Helvetica,sans-Serif" font-size="10.00">vpr::DeviceDataMembers</text>
</g>
<!-- Node2 -->
<g id="node2" class="node"><title>Node2</title>
<g id="a_node2"><a xlink:href="classvpr_1_1_device.html" target="_top" xlink:title="!The Device class is a wrapper around the vkLogicalDevice object. ">
<polygon fill="white" stroke="black" points="1220,-109 1220,-128 1283,-128 1283,-109 1220,-109"/>
<text text-anchor="middle" x="1251.5" y="-116" font-family="Helvetica,sans-Serif" font-size="10.00">vpr::Device</text>
</a>
</g>
</g>
<!-- Node1&#45;&gt;Node2 -->
<g id="edge2" class="edge"><title>Node1&#45;&gt;Node2</title>
<path fill="none" stroke="#9a32cd" stroke-dasharray="5,2" d="M809.497,-140.169C847.251,-129.359 905.34,-114.465 957,-108.5 1017.49,-101.516 1033.14,-106.558 1094,-108.5 1137.81,-109.898 1188.42,-113.493 1219.94,-115.968"/>
<polygon fill="#9a32cd" stroke="#9a32cd" points="808.51,-136.811 799.882,-142.96 810.461,-143.534 808.51,-136.811"/>
<text text-anchor="middle" x="1025.5" y="-111.5" font-family="Helvetica,sans-Serif" font-size="10.00"> dataMembers</text>
</g>
<!-- Node2&#45;&gt;Node1 -->
<g id="edge1" class="edge"><title>Node2&#45;&gt;Node1</title>
<path fill="none" stroke="#9a32cd" stroke-dasharray="5,2" d="M1228.1,-133.409C1220.16,-138.018 1210.97,-142.632 1202,-145.5 1156,-160.201 1142.22,-154.829 1094,-157.5 1002.16,-162.587 895.514,-159.169 830.149,-156.014"/>
<polygon fill="#9a32cd" stroke="#9a32cd" points="1230.05,-136.317 1236.75,-128.106 1226.4,-130.349 1230.05,-136.317"/>
<text text-anchor="middle" x="1025.5" y="-163.5" font-family="Helvetica,sans-Serif" font-size="10.00"> device</text>
</g>
<!-- Node3 -->
<g id="node3" class="node"><title>Node3</title>
<g id="a_node3"><a xlink:href="structvpr_1_1vk_queue_family_indices.html" target="_top" xlink:title="Simple wrapper struct for storing queue family indices. ">
<polygon fill="white" stroke="black" points="959.5,-129 959.5,-148 1091.5,-148 1091.5,-129 959.5,-129"/>
<text text-anchor="middle" x="1025.5" y="-136" font-family="Helvetica,sans-Serif" font-size="10.00">vpr::vkQueueFamilyIndices</text>
</a>
</g>
</g>
<!-- Node3&#45;&gt;Node2 -->
<g id="edge3" class="edge"><title>Node3&#45;&gt;Node2</title>
<path fill="none" stroke="#9a32cd" stroke-dasharray="5,2" d="M1101.67,-131.788C1142,-128.187 1189.5,-123.946 1219.8,-121.241"/>
<polygon fill="#9a32cd" stroke="#9a32cd" points="1101.24,-128.313 1091.59,-132.688 1101.86,-135.285 1101.24,-128.313"/>
<text text-anchor="middle" x="1157" y="-133.5" font-family="Helvetica,sans-Serif" font-size="10.00"> queueFamilyIndices</text>
</g>
<!-- Node4 -->
<g id="node4" class="node"><title>Node4</title>
<g id="a_node4"><a xlink:href="classvpr_1_1_physical_device.html" target="_top" xlink:title="! PhysicalDevice is a wrapper around a VkPhysicalDevice object, which is itself merely a handle repre...">
<polygon fill="white" stroke="black" points="975,-6 975,-25 1076,-25 1076,-6 975,-6"/>
<text text-anchor="middle" x="1025.5" y="-13" font-family="Helvetica,sans-Serif" font-size="10.00">vpr::PhysicalDevice</text>
</a>
</g>
</g>
<!-- Node4&#45;&gt;Node2 -->
<g id="edge4" class="edge"><title>Node4&#45;&gt;Node2</title>
<path fill="none" stroke="#9a32cd" stroke-dasharray="5,2" d="M1086.62,-10.8622C1122.76,-10.9543 1168.15,-16.4178 1202,-38.5 1227.98,-55.4503 1242.19,-91.64 1247.73,-108.925"/>
<polygon fill="#9a32cd" stroke="#9a32cd" points="1086.17,-7.36702 1076.21,-10.9811 1086.25,-14.3666 1086.17,-7.36702"/>
<text text-anchor="middle" x="1157" y="-41.5" font-family="Helvetica,sans-Serif" font-size="10.00"> parent</text>
</g>
<!-- Node5 -->
<g id="node5" class="node"><title>Node5</title>
<polygon fill="white" stroke="#bfbfbf" points="710,-0.5 710,-30.5 826,-30.5 826,-0.5 710,-0.5"/>
<text text-anchor="start" x="718" y="-18.5" font-family="Helvetica,sans-Serif" font-size="10.00">std::unique_ptr&lt; vpr</text>
<text text-anchor="middle" x="768" y="-7.5" font-family="Helvetica,sans-Serif" font-size="10.00">::PhysicalDeviceImpl &gt;</text>
</g>
<!-- Node5&#45;&gt;Node4 -->
<g id="edge5" class="edge"><title>Node5&#45;&gt;Node4</title>
<path fill="none" stroke="#9a32cd" stroke-dasharray="5,2" d="M836.24,-15.5C879.769,-15.5 935.486,-15.5 974.981,-15.5"/>
<polygon fill="#9a32cd" stroke="#9a32cd" points="836.021,-12.0001 826.021,-15.5 836.021,-19.0001 836.021,-12.0001"/>
<text text-anchor="middle" x="899.5" y="-18.5" font-family="Helvetica,sans-Serif" font-size="10.00"> impl</text>
</g>
<!-- Node6 -->
<g id="node6" class="node"><title>Node6</title>
<g id="a_node6"><a xlink:href="classvpr_1_1_physical_device_impl.html" target="_top" xlink:title="vpr::PhysicalDeviceImpl">
<polygon fill="white" stroke="black" points="422,-6 422,-25 541,-25 541,-6 422,-6"/>
<text text-anchor="middle" x="481.5" y="-13" font-family="Helvetica,sans-Serif" font-size="10.00">vpr::PhysicalDeviceImpl</text>
</a>
</g>
</g>
<!-- Node6&#45;&gt;Node5 -->
<g id="edge6" class="edge"><title>Node6&#45;&gt;Node5</title>
<path fill="none" stroke="#9a32cd" stroke-dasharray="5,2" d="M551.219,-15.5C599.805,-15.5 664.173,-15.5 709.93,-15.5"/>
<polygon fill="#9a32cd" stroke="#9a32cd" points="551.104,-12.0001 541.104,-15.5 551.104,-19.0001 551.104,-12.0001"/>
<text text-anchor="middle" x="623" y="-18.5" font-family="Helvetica,sans-Serif" font-size="10.00"> ptr</text>
</g>
<!-- Node7 -->
<g id="node7" class="node"><title>Node7</title>
<polygon fill="white" stroke="#bfbfbf" points="132,-0.5 132,-30.5 272,-30.5 272,-0.5 132,-0.5"/>
<text text-anchor="start" x="140" y="-18.5" font-family="Helvetica,sans-Serif" font-size="10.00">std::vector&lt; VkQueueFamily</text>
<text text-anchor="middle" x="202" y="-7.5" font-family="Helvetica,sans-Serif" font-size="10.00">Properties &gt;</text>
</g>
<!-- Node7&#45;&gt;Node6 -->
<g id="edge7" class="edge"><title>Node7&#45;&gt;Node6</title>
<path fill="none" stroke="#9a32cd" stroke-dasharray="5,2" d="M282.502,-15.5C326.946,-15.5 381.377,-15.5 421.913,-15.5"/>
<polygon fill="#9a32cd" stroke="#9a32cd" points="282.309,-12.0001 272.309,-15.5 282.309,-19.0001 282.309,-12.0001"/>
<text text-anchor="middle" x="341.5" y="-18.5" font-family="Helvetica,sans-Serif" font-size="10.00"> queueFamilyProperties</text>
</g>
<!-- Node8 -->
<g id="node8" class="node"><title>Node8</title>
<g id="a_node8"><a xlink:href="group___core.html#structvpr_1_1_vk_debug_utils_functions" target="_top" xlink:title="This structure will be populated with function pointers used to call the functions (as named) when av...">
<polygon fill="white" stroke="black" points="957,-44 957,-63 1094,-63 1094,-44 957,-44"/>
<text text-anchor="middle" x="1025.5" y="-51" font-family="Helvetica,sans-Serif" font-size="10.00">vpr::VkDebugUtilsFunctions</text>
</a>
</g>
</g>
<!-- Node8&#45;&gt;Node2 -->
<g id="edge8" class="edge"><title>Node8&#45;&gt;Node2</title>
<path fill="none" stroke="#9a32cd" stroke-dasharray="5,2" d="M1104.17,-52.6334C1135.71,-54.8295 1171.77,-60.7108 1202,-74.5 1219.17,-82.332 1234.47,-98.5076 1243.1,-108.913"/>
<polygon fill="#9a32cd" stroke="#9a32cd" points="1104.29,-49.1343 1094.1,-52.0445 1103.88,-56.1224 1104.29,-49.1343"/>
<text text-anchor="middle" x="1157" y="-77.5" font-family="Helvetica,sans-Serif" font-size="10.00"> debugUtilsHandler</text>
</g>
<!-- Node9 -->
<g id="node9" class="node"><title>Node9</title>
<g id="a_node9"><a xlink:href="classvpr_1_1_instance.html" target="_top" xlink:title="Instance is a wrapper around the base Vulkan object that must be initialized first. ">
<polygon fill="white" stroke="black" points="990,-214 990,-233 1061,-233 1061,-214 990,-214"/>
<text text-anchor="middle" x="1025.5" y="-221" font-family="Helvetica,sans-Serif" font-size="10.00">vpr::Instance</text>
</a>
</g>
</g>
<!-- Node9&#45;&gt;Node2 -->
<g id="edge9" class="edge"><title>Node9&#45;&gt;Node2</title>
<path fill="none" stroke="#9a32cd" stroke-dasharray="5,2" d="M1071.42,-227.261C1109.26,-228.196 1163.27,-224.079 1202,-198.5 1227.89,-181.405 1242.14,-145.286 1247.71,-128.047"/>
<polygon fill="#9a32cd" stroke="#9a32cd" points="1071.32,-223.755 1061.2,-226.877 1071.06,-230.75 1071.32,-223.755"/>
<text text-anchor="middle" x="1157" y="-229.5" font-family="Helvetica,sans-Serif" font-size="10.00"> parentInstance</text>
</g>
<!-- Node10 -->
<g id="node10" class="node"><title>Node10</title>
<g id="a_node10"><a xlink:href="structvpr_1_1_instance_extension_handler.html" target="_top" xlink:title="vpr::InstanceExtensionHandler">
<polygon fill="white" stroke="black" points="694,-214 694,-233 842,-233 842,-214 694,-214"/>
<text text-anchor="middle" x="768" y="-221" font-family="Helvetica,sans-Serif" font-size="10.00">vpr::InstanceExtensionHandler</text>
</a>
</g>
</g>
<!-- Node10&#45;&gt;Node9 -->
<g id="edge10" class="edge"><title>Node10&#45;&gt;Node9</title>
<path fill="none" stroke="#9a32cd" stroke-dasharray="5,2" d="M852.335,-223.5C899.019,-223.5 954.741,-223.5 989.879,-223.5"/>
<polygon fill="#9a32cd" stroke="#9a32cd" points="852.216,-220 842.216,-223.5 852.216,-227 852.216,-220"/>
<text text-anchor="middle" x="899.5" y="-226.5" font-family="Helvetica,sans-Serif" font-size="10.00"> extensionHandler</text>
</g>
<!-- Node11 -->
<g id="node11" class="node"><title>Node11</title>
<polygon fill="white" stroke="#bfbfbf" points="434,-159.5 434,-189.5 529,-189.5 529,-159.5 434,-159.5"/>
<text text-anchor="start" x="442" y="-177.5" font-family="Helvetica,sans-Serif" font-size="10.00">std::vector&lt; const</text>
<text text-anchor="middle" x="481.5" y="-166.5" font-family="Helvetica,sans-Serif" font-size="10.00"> char *&gt;</text>
</g>
<!-- Node11&#45;&gt;Node1 -->
<g id="edge16" class="edge"><title>Node11&#45;&gt;Node1</title>
<path fill="none" stroke="#9a32cd" stroke-dasharray="5,2" d="M539.342,-158.858C549.479,-156.642 559.996,-154.709 570,-153.5 615.329,-148.02 666.955,-147.983 705.983,-149.203"/>
<polygon fill="#9a32cd" stroke="#9a32cd" points="538.327,-155.5 529.365,-161.151 539.895,-162.322 538.327,-155.5"/>
<text text-anchor="middle" x="623" y="-156.5" font-family="Helvetica,sans-Serif" font-size="10.00"> enabledExtensions</text>
</g>
<!-- Node11&#45;&gt;Node10 -->
<g id="edge11" class="edge"><title>Node11&#45;&gt;Node10</title>
<path fill="none" stroke="#9a32cd" stroke-dasharray="5,2" d="M539.304,-173.726C578.22,-174.309 630.775,-177.297 676,-187.5 701.854,-193.333 729.991,-205.425 748.027,-213.982"/>
<polygon fill="#9a32cd" stroke="#9a32cd" points="539.248,-170.225 529.213,-173.624 539.177,-177.225 539.248,-170.225"/>
<text text-anchor="middle" x="623" y="-190.5" font-family="Helvetica,sans-Serif" font-size="10.00"> extensionStrings</text>
</g>
<!-- Node12 -->
<g id="node12" class="node"><title>Node12</title>
<polygon fill="white" stroke="#bfbfbf" points="420,-216 420,-235 543,-235 543,-216 420,-216"/>
<text text-anchor="middle" x="481.5" y="-223" font-family="Helvetica,sans-Serif" font-size="10.00">std::vector&lt; std::string &gt;</text>
</g>
<!-- Node12&#45;&gt;Node1 -->
<g id="edge17" class="edge"><title>Node12&#45;&gt;Node1</title>
<path fill="none" stroke="#9a32cd" stroke-dasharray="5,2" d="M553.562,-221.214C590.69,-217.575 636.499,-210.864 676,-198.5 704.213,-189.669 734.342,-172.785 751.881,-162.112"/>
<polygon fill="#9a32cd" stroke="#9a32cd" points="552.967,-217.754 543.332,-222.161 553.612,-224.724 552.967,-217.754"/>
<text text-anchor="middle" x="623" y="-222.5" font-family="Helvetica,sans-Serif" font-size="10.00"> copiedExtensionStrings</text>
</g>
<!-- Node12&#45;&gt;Node10 -->
<g id="edge12" class="edge"><title>Node12&#45;&gt;Node10</title>
<path fill="none" stroke="#9a32cd" stroke-dasharray="5,2" d="M553.328,-231.649C558.966,-231.991 564.575,-232.283 570,-232.5 617.074,-234.38 628.946,-234.821 676,-232.5 681.708,-232.218 687.611,-231.838 693.54,-231.392"/>
<polygon fill="#9a32cd" stroke="#9a32cd" points="553.391,-228.146 543.184,-230.985 552.934,-235.131 553.391,-228.146"/>
<text text-anchor="middle" x="623" y="-237.5" font-family="Helvetica,sans-Serif" font-size="10.00"> copiedExtensionStrings</text>
</g>
<!-- Node13 -->
<g id="node13" class="node"><title>Node13</title>
<g id="a_node13"><a xlink:title="STL class. ">
<polygon fill="white" stroke="#bfbfbf" points="172,-216 172,-235 232,-235 232,-216 172,-216"/>
<text text-anchor="middle" x="202" y="-223" font-family="Helvetica,sans-Serif" font-size="10.00">std::string</text>
</a>
</g>
</g>
<!-- Node13&#45;&gt;Node12 -->
<g id="edge13" class="edge"><title>Node13&#45;&gt;Node12</title>
<path fill="none" stroke="#9a32cd" stroke-dasharray="5,2" d="M242.397,-225.5C288.677,-225.5 365.969,-225.5 419.894,-225.5"/>
<polygon fill="#9a32cd" stroke="#9a32cd" points="242.173,-222 232.173,-225.5 242.173,-229 242.173,-222"/>
<text text-anchor="middle" x="341.5" y="-228.5" font-family="Helvetica,sans-Serif" font-size="10.00"> elements</text>
</g>
<!-- Node14 -->
<g id="node14" class="node"><title>Node14</title>
<g id="a_node14"><a xlink:title="STL class. ">
<polygon fill="white" stroke="#bfbfbf" points="0,-210.5 0,-240.5 95,-240.5 95,-210.5 0,-210.5"/>
<text text-anchor="start" x="8" y="-228.5" font-family="Helvetica,sans-Serif" font-size="10.00">std::basic_string&lt;</text>
<text text-anchor="middle" x="47.5" y="-217.5" font-family="Helvetica,sans-Serif" font-size="10.00"> char &gt;</text>
</a>
</g>
</g>
<!-- Node14&#45;&gt;Node13 -->
<g id="edge14" class="edge"><title>Node14&#45;&gt;Node13</title>
<path fill="none" stroke="midnightblue" d="M105.301,-225.5C127.986,-225.5 153.131,-225.5 171.951,-225.5"/>
<polygon fill="midnightblue" stroke="midnightblue" points="105.084,-222 95.0837,-225.5 105.084,-229 105.084,-222"/>
</g>
<!-- Node15 -->
<g id="node15" class="node"><title>Node15</title>
<polygon fill="white" stroke="#bfbfbf" points="411,-103.5 411,-133.5 552,-133.5 552,-103.5 411,-103.5"/>
<text text-anchor="start" x="419" y="-121.5" font-family="Helvetica,sans-Serif" font-size="10.00">std::map&lt; VkQueueFlags,</text>
<text text-anchor="middle" x="481.5" y="-110.5" font-family="Helvetica,sans-Serif" font-size="10.00"> VkDeviceQueueCreateInfo &gt;</text>
</g>
<!-- Node15&#45;&gt;Node1 -->
<g id="edge15" class="edge"><title>Node15&#45;&gt;Node1</title>
<path fill="none" stroke="#9a32cd" stroke-dasharray="5,2" d="M562.281,-123.065C597.276,-125.591 638.779,-129.297 676,-134.5 691.79,-136.707 708.977,-139.899 724.118,-142.984"/>
<polygon fill="#9a32cd" stroke="#9a32cd" points="562.339,-119.561 552.118,-122.351 561.848,-126.544 562.339,-119.561"/>
<text text-anchor="middle" x="623" y="-137.5" font-family="Helvetica,sans-Serif" font-size="10.00"> queueInfos</text>
</g>
</g>
</svg>
