<?xml version="1.0" encoding="UTF-8" standalone="no"?>
<!DOCTYPE svg PUBLIC "-//W3C//DTD SVG 1.1//EN"
 "http://www.w3.org/Graphics/SVG/1.1/DTD/svg11.dtd">
<!-- Generated by graphviz version 2.38.0 (20140413.2041)
 -->
<!-- Title: vpr::Swapchain::SwapchainInfo Pages: 1 -->
<svg width="312pt" height="106pt"
 viewBox="0.00 0.00 312.00 106.00" xmlns="http://www.w3.org/2000/svg" xmlns:xlink="http://www.w3.org/1999/xlink">
<g id="graph0" class="graph" transform="scale(1 1) rotate(0) translate(4 102)">
<title>vpr::Swapchain::SwapchainInfo</title>
<polygon fill="white" stroke="none" points="-4,4 -4,-102 308,-102 308,4 -4,4"/>
<!-- Node1 -->
<g id="node1" class="node"><title>Node1</title>
<polygon fill="#bfbfbf" stroke="black" points="78,-0.5 78,-19.5 228,-19.5 228,-0.5 78,-0.5"/>
<text text-anchor="middle" x="153" y="-7.5" font-family="Helvetica,sans-Serif" font-size="10.00">vpr::Swapchain::SwapchainInfo</text>
</g>
<!-- Node2 -->
<g id="node2" class="node"><title>Node2</title>
<polygon fill="white" stroke="#bfbfbf" points="0,-67.5 0,-97.5 146,-97.5 146,-67.5 0,-67.5"/>
<text text-anchor="start" x="8" y="-85.5" font-family="Helvetica,sans-Serif" font-size="10.00">std::vector&lt; VkSurfaceFormat</text>
<text text-anchor="middle" x="73" y="-74.5" font-family="Helvetica,sans-Serif" font-size="10.00">KHR &gt;</text>
</g>
<!-- Node2&#45;&gt;Node1 -->
<g id="edge1" class="edge"><title>Node2&#45;&gt;Node1</title>
<path fill="none" stroke="#9a32cd" stroke-dasharray="5,2" d="M96.8177,-60.5106C112.191,-46.9628 131.4,-30.0348 142.908,-19.8932"/>
<polygon fill="#9a32cd" stroke="#9a32cd" points="94.3776,-57.9958 89.1892,-67.2333 99.0058,-63.2476 94.3776,-57.9958"/>
<text text-anchor="middle" x="141" y="-41" font-family="Helvetica,sans-Serif" font-size="10.00"> Formats</text>
</g>
<!-- Node3 -->
<g id="node3" class="node"><title>Node3</title>
<polygon fill="white" stroke="#bfbfbf" points="164,-67.5 164,-97.5 304,-97.5 304,-67.5 164,-67.5"/>
<text text-anchor="start" x="172" y="-85.5" font-family="Helvetica,sans-Serif" font-size="10.00">std::vector&lt; VkPresentMode</text>
<text text-anchor="middle" x="234" y="-74.5" font-family="Helvetica,sans-Serif" font-size="10.00">KHR &gt;</text>
</g>
<!-- Node3&#45;&gt;Node1 -->
<g id="edge2" class="edge"><title>Node3&#45;&gt;Node1</title>
<path fill="none" stroke="#9a32cd" stroke-dasharray="5,2" d="M209.885,-60.5106C194.319,-46.9628 174.87,-30.0348 163.218,-19.8932"/>
<polygon fill="#9a32cd" stroke="#9a32cd" points="207.768,-63.3081 217.608,-67.2333 212.363,-58.0279 207.768,-63.3081"/>
<text text-anchor="middle" x="228.5" y="-41" font-family="Helvetica,sans-Serif" font-size="10.00"> PresentModes</text>
</g>
</g>
</svg>
