<?xml version="1.0" encoding="UTF-8" standalone="no"?>
<!DOCTYPE svg PUBLIC "-//W3C//DTD SVG 1.1//EN"
 "http://www.w3.org/Graphics/SVG/1.1/DTD/svg11.dtd">
<!-- Generated by graphviz version 2.38.0 (20140413.2041)
 -->
<!-- Title: vpr::Allocation::blockAllocation Pages: 1 -->
<svg width="883pt" height="278pt"
 viewBox="0.00 0.00 883.00 277.50" xmlns="http://www.w3.org/2000/svg" xmlns:xlink="http://www.w3.org/1999/xlink">
<g id="graph0" class="graph" transform="scale(1 1) rotate(0) translate(4 273.5)">
<title>vpr::Allocation::blockAllocation</title>
<polygon fill="white" stroke="none" points="-4,4 -4,-273.5 879,-273.5 879,4 -4,4"/>
<!-- Node1 -->
<g id="node1" class="node"><title>Node1</title>
<polygon fill="#bfbfbf" stroke="black" points="726,-205 726,-224 875,-224 875,-205 726,-205"/>
<text text-anchor="middle" x="800.5" y="-212" font-family="Helvetica,sans-Serif" font-size="10.00">vpr::Allocation::blockAllocation</text>
</g>
<!-- Node2 -->
<g id="node2" class="node"><title>Node2</title>
<g id="a_node2"><a xlink:href="classvpr_1_1_memory_block.html" target="_top" xlink:title="A MemoryBlock is a large contiguous region of Vulkan memory of a uniform type (device local...">
<polygon fill="white" stroke="black" points="538,-205 538,-224 633,-224 633,-205 538,-205"/>
<text text-anchor="middle" x="585.5" y="-212" font-family="Helvetica,sans-Serif" font-size="10.00">vpr::MemoryBlock</text>
</a>
</g>
</g>
<!-- Node2&#45;&gt;Node1 -->
<g id="edge1" class="edge"><title>Node2&#45;&gt;Node1</title>
<path fill="none" stroke="#9a32cd" stroke-dasharray="5,2" d="M643.39,-214.5C668.647,-214.5 698.698,-214.5 725.658,-214.5"/>
<polygon fill="#9a32cd" stroke="#9a32cd" points="643.244,-211 633.244,-214.5 643.244,-218 643.244,-211"/>
<text text-anchor="middle" x="679.5" y="-217.5" font-family="Helvetica,sans-Serif" font-size="10.00"> ParentBlock</text>
</g>
<!-- Node3 -->
<g id="node3" class="node"><title>Node3</title>
<polygon fill="white" stroke="#bfbfbf" points="289.5,-249 289.5,-268 414.5,-268 414.5,-249 289.5,-249"/>
<text text-anchor="middle" x="352" y="-256" font-family="Helvetica,sans-Serif" font-size="10.00">std::list&lt; Suballocation &gt;</text>
</g>
<!-- Node3&#45;&gt;Node2 -->
<g id="edge2" class="edge"><title>Node3&#45;&gt;Node2</title>
<path fill="none" stroke="#9a32cd" stroke-dasharray="5,2" d="M422.629,-247.313C452.657,-242.255 488.131,-235.967 520,-229.5 528.112,-227.854 536.763,-225.947 545.009,-224.056"/>
<polygon fill="#9a32cd" stroke="#9a32cd" points="421.952,-243.878 412.667,-248.98 423.107,-250.782 421.952,-243.878"/>
<text text-anchor="middle" x="477" y="-247.5" font-family="Helvetica,sans-Serif" font-size="10.00"> Suballocations</text>
</g>
<!-- Node4 -->
<g id="node4" class="node"><title>Node4</title>
<g id="a_node4"><a xlink:href="structvpr_1_1_suballocation.html" target="_top" xlink:title="During the process of finding a suitable region to bind to, we need to store things like &quot;Suballocati...">
<polygon fill="white" stroke="black" points="40,-249 40,-268 133,-268 133,-249 40,-249"/>
<text text-anchor="middle" x="86.5" y="-256" font-family="Helvetica,sans-Serif" font-size="10.00">vpr::Suballocation</text>
</a>
</g>
</g>
<!-- Node4&#45;&gt;Node3 -->
<g id="edge3" class="edge"><title>Node4&#45;&gt;Node3</title>
<path fill="none" stroke="#9a32cd" stroke-dasharray="5,2" d="M143.325,-258.5C186.077,-258.5 245.021,-258.5 289.193,-258.5"/>
<polygon fill="#9a32cd" stroke="#9a32cd" points="143.097,-255 133.097,-258.5 143.097,-262 143.097,-255"/>
<text text-anchor="middle" x="230.5" y="-261.5" font-family="Helvetica,sans-Serif" font-size="10.00"> elements</text>
</g>
<!-- Node5 -->
<g id="node5" class="node"><title>Node5</title>
<polygon fill="white" stroke="#bfbfbf" points="288,-199.5 288,-229.5 416,-229.5 416,-199.5 288,-199.5"/>
<text text-anchor="start" x="296" y="-217.5" font-family="Helvetica,sans-Serif" font-size="10.00">std::vector&lt; suballocation</text>
<text text-anchor="middle" x="352" y="-206.5" font-family="Helvetica,sans-Serif" font-size="10.00">List::iterator &gt;</text>
</g>
<!-- Node5&#45;&gt;Node2 -->
<g id="edge4" class="edge"><title>Node5&#45;&gt;Node2</title>
<path fill="none" stroke="#9a32cd" stroke-dasharray="5,2" d="M426.366,-214.5C462.868,-214.5 505.895,-214.5 537.844,-214.5"/>
<polygon fill="#9a32cd" stroke="#9a32cd" points="426.258,-211 416.258,-214.5 426.258,-218 426.258,-211"/>
<text text-anchor="middle" x="477" y="-217.5" font-family="Helvetica,sans-Serif" font-size="10.00"> availSuballocations</text>
</g>
<!-- Node6 -->
<g id="node6" class="node"><title>Node6</title>
<g id="a_node6"><a xlink:title="STL iterator class. ">
<polygon fill="white" stroke="#bfbfbf" points="32.5,-208 32.5,-227 140.5,-227 140.5,-208 32.5,-208"/>
<text text-anchor="middle" x="86.5" y="-215" font-family="Helvetica,sans-Serif" font-size="10.00">std::list&lt; T &gt;::iterator</text>
</a>
</g>
</g>
<!-- Node6&#45;&gt;Node5 -->
<g id="edge5" class="edge"><title>Node6&#45;&gt;Node5</title>
<path fill="none" stroke="#9a32cd" stroke-dasharray="5,2" d="M150.512,-216.783C192.065,-216.31 246.289,-215.692 287.866,-215.219"/>
<polygon fill="#9a32cd" stroke="#9a32cd" points="150.466,-213.283 140.506,-216.897 150.545,-220.282 150.466,-213.283"/>
<text text-anchor="middle" x="230.5" y="-218.5" font-family="Helvetica,sans-Serif" font-size="10.00"> elements</text>
</g>
<!-- Node7 -->
<g id="node7" class="node"><title>Node7</title>
<g id="a_node7"><a xlink:href="classvpr_1_1_allocator.html" target="_top" xlink:title="The primary interface and class of this subsystem. ">
<polygon fill="white" stroke="black" points="315.5,-110 315.5,-129 388.5,-129 388.5,-110 315.5,-110"/>
<text text-anchor="middle" x="352" y="-117" font-family="Helvetica,sans-Serif" font-size="10.00">vpr::Allocator</text>
</a>
</g>
</g>
<!-- Node7&#45;&gt;Node2 -->
<g id="edge6" class="edge"><title>Node7&#45;&gt;Node2</title>
<path fill="none" stroke="#9a32cd" stroke-dasharray="5,2" d="M385.986,-133.036C433.49,-152.53 519.984,-188.025 561.311,-204.984"/>
<polygon fill="#9a32cd" stroke="#9a32cd" points="387.052,-129.69 376.471,-129.132 384.394,-136.166 387.052,-129.69"/>
<text text-anchor="middle" x="477" y="-188.5" font-family="Helvetica,sans-Serif" font-size="10.00"> allocator</text>
</g>
<!-- Node8 -->
<g id="node8" class="node"><title>Node8</title>
<polygon fill="white" stroke="#bfbfbf" points="0,-148 0,-189 173,-189 173,-148 0,-148"/>
<text text-anchor="start" x="8" y="-177" font-family="Helvetica,sans-Serif" font-size="10.00">std::map&lt; AllocationSize,</text>
<text text-anchor="start" x="8" y="-166" font-family="Helvetica,sans-Serif" font-size="10.00"> std::vector&lt; std::unique</text>
<text text-anchor="middle" x="86.5" y="-155" font-family="Helvetica,sans-Serif" font-size="10.00">_ptr&lt; vpr::AllocationCollection &gt; &gt; &gt;</text>
</g>
<!-- Node8&#45;&gt;Node7 -->
<g id="edge7" class="edge"><title>Node8&#45;&gt;Node7</title>
<path fill="none" stroke="#9a32cd" stroke-dasharray="5,2" d="M183.066,-150.729C229.078,-142.172 281.471,-132.429 315.323,-126.134"/>
<polygon fill="#9a32cd" stroke="#9a32cd" points="182.242,-147.322 173.051,-152.591 183.522,-154.204 182.242,-147.322"/>
<text text-anchor="middle" x="230.5" y="-151.5" font-family="Helvetica,sans-Serif" font-size="10.00"> allocations</text>
</g>
<!-- Node14 -->
<g id="node9" class="node"><title>Node14</title>
<g id="a_node9"><a xlink:href="classvpr_1_1_device.html" target="_top" xlink:title="!The Device class is a wrapper around the vkLogicalDevice object. ">
<polygon fill="white" stroke="red" points="55,-110 55,-129 118,-129 118,-110 55,-110"/>
<text text-anchor="middle" x="86.5" y="-117" font-family="Helvetica,sans-Serif" font-size="10.00">vpr::Device</text>
</a>
</g>
</g>
<!-- Node14&#45;&gt;Node7 -->
<g id="edge8" class="edge"><title>Node14&#45;&gt;Node7</title>
<path fill="none" stroke="#9a32cd" stroke-dasharray="5,2" d="M128.305,-119.5C179.58,-119.5 266.746,-119.5 315.427,-119.5"/>
<polygon fill="#9a32cd" stroke="#9a32cd" points="128.243,-116 118.242,-119.5 128.242,-123 128.243,-116"/>
<text text-anchor="middle" x="230.5" y="-122.5" font-family="Helvetica,sans-Serif" font-size="10.00"> parent</text>
</g>
<!-- Node27 -->
<g id="node10" class="node"><title>Node27</title>
<polygon fill="white" stroke="#bfbfbf" points="31,-50 31,-91 142,-91 142,-50 31,-50"/>
<text text-anchor="start" x="39" y="-79" font-family="Helvetica,sans-Serif" font-size="10.00">std::unordered_set</text>
<text text-anchor="start" x="39" y="-68" font-family="Helvetica,sans-Serif" font-size="10.00">&lt; std::unique_ptr&lt; vpr</text>
<text text-anchor="middle" x="86.5" y="-57" font-family="Helvetica,sans-Serif" font-size="10.00">::Allocation &gt; &gt;</text>
</g>
<!-- Node27&#45;&gt;Node7 -->
<g id="edge9" class="edge"><title>Node27&#45;&gt;Node7</title>
<path fill="none" stroke="#9a32cd" stroke-dasharray="5,2" d="M152.125,-82.5175C203.574,-92.085 273.659,-105.118 315.423,-112.884"/>
<polygon fill="#9a32cd" stroke="#9a32cd" points="152.569,-79.0401 142.097,-80.6528 151.289,-85.9222 152.569,-79.0401"/>
<text text-anchor="middle" x="230.5" y="-107.5" font-family="Helvetica,sans-Serif" font-size="10.00"> privateAllocations</text>
</g>
<!-- Node30 -->
<g id="node11" class="node"><title>Node30</title>
<polygon fill="white" stroke="#bfbfbf" points="22,-0.5 22,-30.5 151,-30.5 151,-0.5 22,-0.5"/>
<text text-anchor="start" x="30" y="-18.5" font-family="Helvetica,sans-Serif" font-size="10.00">std::map&lt; AllocationSize,</text>
<text text-anchor="middle" x="86.5" y="-7.5" font-family="Helvetica,sans-Serif" font-size="10.00"> std::vector&lt; bool &gt; &gt;</text>
</g>
<!-- Node30&#45;&gt;Node7 -->
<g id="edge10" class="edge"><title>Node30&#45;&gt;Node7</title>
<path fill="none" stroke="#9a32cd" stroke-dasharray="5,2" d="M150.844,-33.4745C158.336,-35.7619 165.855,-38.1327 173,-40.5 216.651,-54.9618 228.044,-57.6778 270,-76.5 292.952,-86.7966 318.427,-100.763 334.568,-109.947"/>
<polygon fill="#9a32cd" stroke="#9a32cd" points="151.628,-30.0555 141.043,-30.5228 149.609,-36.7581 151.628,-30.0555"/>
<text text-anchor="middle" x="230.5" y="-79.5" font-family="Helvetica,sans-Serif" font-size="10.00"> emptyAllocations</text>
</g>
</g>
</svg>
