<?xml version="1.0" encoding="UTF-8" standalone="no"?>
<!DOCTYPE svg PUBLIC "-//W3C//DTD SVG 1.1//EN"
 "http://www.w3.org/Graphics/SVG/1.1/DTD/svg11.dtd">
<!-- Generated by graphviz version 2.38.0 (20140413.2041)
 -->
<!-- Title: vpr::SwapchainImpl::destroy Pages: 1 -->
<svg width="443pt" height="105pt"
 viewBox="0.00 0.00 443.00 105.00" xmlns="http://www.w3.org/2000/svg" xmlns:xlink="http://www.w3.org/1999/xlink">
<g id="graph0" class="graph" transform="scale(1 1) rotate(0) translate(4 101)">
<title>vpr::SwapchainImpl::destroy</title>
<polygon fill="white" stroke="none" points="-4,4 -4,-101 439,-101 439,4 -4,4"/>
<!-- Node24 -->
<g id="node1" class="node"><title>Node24</title>
<polygon fill="#bfbfbf" stroke="black" points="0,-22.5 0,-52.5 100,-52.5 100,-22.5 0,-22.5"/>
<text text-anchor="start" x="8" y="-40.5" font-family="Helvetica,sans-Serif" font-size="10.00">vpr::SwapchainImpl</text>
<text text-anchor="middle" x="50" y="-29.5" font-family="Helvetica,sans-Serif" font-size="10.00">::destroy</text>
</g>
<!-- Node25 -->
<g id="node2" class="node"><title>Node25</title>
<g id="a_node2"><a xlink:href="classvpr_1_1_swapchain.html#af29e2c4245bd5694afadc579783e5432" target="_top" xlink:title="vpr::Swapchain::Destroy">
<polygon fill="white" stroke="black" points="136,-50 136,-69 258,-69 258,-50 136,-50"/>
<text text-anchor="middle" x="197" y="-57" font-family="Helvetica,sans-Serif" font-size="10.00">vpr::Swapchain::Destroy</text>
</a>
</g>
</g>
<!-- Node24&#45;&gt;Node25 -->
<g id="edge1" class="edge"><title>Node24&#45;&gt;Node25</title>
<path fill="none" stroke="midnightblue" d="M110.253,-46.4902C118.713,-47.7737 127.422,-49.095 135.898,-50.381"/>
<polygon fill="midnightblue" stroke="midnightblue" points="110.502,-42.988 100.09,-44.9482 109.452,-49.9088 110.502,-42.988"/>
</g>
<!-- Node28 -->
<g id="node5" class="node"><title>Node28</title>
<g id="a_node5"><a xlink:href="structvpr_1_1_swapchain_impl.html#acf2d556e0718c579a98f3a3311ff641f" target="_top" xlink:title="vpr::SwapchainImpl\l::~SwapchainImpl">
<polygon fill="white" stroke="black" points="147,-0.5 147,-30.5 247,-30.5 247,-0.5 147,-0.5"/>
<text text-anchor="start" x="155" y="-18.5" font-family="Helvetica,sans-Serif" font-size="10.00">vpr::SwapchainImpl</text>
<text text-anchor="middle" x="197" y="-7.5" font-family="Helvetica,sans-Serif" font-size="10.00">::~SwapchainImpl</text>
</a>
</g>
</g>
<!-- Node24&#45;&gt;Node28 -->
<g id="edge4" class="edge"><title>Node24&#45;&gt;Node28</title>
<path fill="none" stroke="midnightblue" d="M110.198,-28.5183C122.414,-26.6648 135.152,-24.732 146.96,-22.9405"/>
<polygon fill="midnightblue" stroke="midnightblue" points="109.452,-25.0912 100.09,-30.0518 110.502,-32.012 109.452,-25.0912"/>
</g>
<!-- Node26 -->
<g id="node3" class="node"><title>Node26</title>
<g id="a_node3"><a xlink:href="namespacevpr.html#a812ad3570ad63ddcbc18e03988bd60bd" target="_top" xlink:title="Pass a swapchain and surface pointer to this to have the swapchain and surface destroyed and recreate...">
<polygon fill="white" stroke="black" points="295.5,-66.5 295.5,-96.5 433.5,-96.5 433.5,-66.5 295.5,-66.5"/>
<text text-anchor="start" x="303.5" y="-84.5" font-family="Helvetica,sans-Serif" font-size="10.00">vpr::RecreateSwapchainAnd</text>
<text text-anchor="middle" x="364.5" y="-73.5" font-family="Helvetica,sans-Serif" font-size="10.00">Surface</text>
</a>
</g>
</g>
<!-- Node25&#45;&gt;Node26 -->
<g id="edge2" class="edge"><title>Node25&#45;&gt;Node26</title>
<path fill="none" stroke="midnightblue" d="M268.282,-68.8426C277.293,-70.0405 286.506,-71.2652 295.48,-72.4581"/>
<polygon fill="midnightblue" stroke="midnightblue" points="268.592,-65.3531 258.217,-67.5047 267.669,-72.292 268.592,-65.3531"/>
</g>
<!-- Node27 -->
<g id="node4" class="node"><title>Node27</title>
<g id="a_node4"><a xlink:href="classvpr_1_1_swapchain.html#a2dc442a2b5f947c65a9be8278200faa6" target="_top" xlink:title="vpr::Swapchain::~Swapchain">
<polygon fill="white" stroke="black" points="294,-28 294,-47 435,-47 435,-28 294,-28"/>
<text text-anchor="middle" x="364.5" y="-35" font-family="Helvetica,sans-Serif" font-size="10.00">vpr::Swapchain::~Swapchain</text>
</a>
</g>
</g>
<!-- Node25&#45;&gt;Node27 -->
<g id="edge3" class="edge"><title>Node25&#45;&gt;Node27</title>
<path fill="none" stroke="midnightblue" d="M268.371,-50.1456C276.786,-49.027 285.375,-47.8852 293.781,-46.7678"/>
<polygon fill="midnightblue" stroke="midnightblue" points="267.669,-46.708 258.217,-51.4953 268.591,-53.6469 267.669,-46.708"/>
</g>
</g>
</svg>
